<?xml version="1.0" encoding="UTF-8" standalone="no"?>
<svg xmlns="http://www.w3.org/2000/svg" xmlns:xlink="http://www.w3.org/1999/xlink" width="297.000mm" height="210.000mm" viewBox="0.000000 0.000000 297.000000 210.000000" stroke-linejoin="round" stroke-linecap="round" fill="none" fill-rule="evenodd"><desc>Composer Export</desc><script type="text/ecmascript"><![CDATA[
if(typeof(top) != "undefined")
{
	top.ShowPaper = ShowPaper;
}
function ShowPaper()
{
  var svgDocument = getDocument();
  var paper = svgDocument.getElementById("paperID");
  if(paper)
  {
    paper.setAttribute("transform","scale(1)");
    paper.setAttribute("opacity","1");
    paper.setAttribute("visibility","visible");
  }
  var svg = svgDocument.getRootElement();
  if(svg)
  {
    svg.setAttribute("width","307.000mm");
    svg.setAttribute("height","220.000mm");
    svg.setAttribute("viewBox","-5.000000 -5.000000 307.000000 220.000000");
  }
}
]]></script><defs/><g><path style="fill:#000000;fill-opacity:0.098;fill-rule:evenodd" d="M73.57,25.16L74.07,25.31L75.69,26.44L76.66,27.41L78.63,29.65L79.58,31.29L80.55,33.88L81.03,36.63L81.03,41.06L80.71,43.64L80.07,46.56L79.25,49.14L77.58,53.14L76.45,55.41L74.07,59.34L71.59,62.53L69.06,65.34L67.13,66.97L64.46,68.99L61.94,70.35L59.30,71.44L56.86,71.92L53.84,71.92L51.40,71.44L49.63,70.95L33.14,61.54L31.52,60.25L28.93,57.18L28.41,56.21L28.43,55.88L28.77,56.37L29.26,56.75L29.04,55.87L29.22,55.87L43.51,64.15L43.81,64.21L43.61,62.66L45.92,63.24L45.74,62.37L45.59,60.10L45.59,58.21L45.86,55.08L46.39,52.37L47.48,48.78L48.83,45.43L50.28,42.51L52.24,39.29L54.34,36.38L56.85,33.54L58.81,31.62L62.04,29.19L65.17,27.46L66.90,26.76L69.65,26.11L73.76,26.11L72.90,24.97L73.27,24.84zM236.57,53.47L236.74,54.76L236.74,59.51L236.57,61.45L235.60,68.25L235.60,69.65L235.75,70.96L235.92,71.44L236.73,73.06L237.88,74.01L238.99,74.36L240.57,74.35L242.51,73.70L245.49,71.82L248.32,69.64L250.51,67.61L251.41,66.58L252.20,65.59L252.28,65.59L253.26,67.06L253.25,67.60L252.44,70.84L250.82,75.53L247.91,81.85L247.08,84.26L246.72,86.48L246.93,88.92L247.08,89.57L247.92,91.16L248.71,91.83L249.67,92.32L252.71,92.31L256.15,91.71L258.69,90.85L259.36,90.50L259.56,90.52L259.57,93.02L258.75,94.63L257.13,97.38L255.46,99.76L252.61,103.22L250.83,105.32L249.85,106.93L248.72,109.20L248.05,111.13L247.74,112.92L247.74,115.62L248.06,117.08L248.41,117.70L249.53,119.01L255.03,122.75L255.03,123.27L254.33,125.50L252.53,127.42L250.51,129.12L244.18,133.15L242.90,134.30L241.12,136.40L239.49,139.30L238.63,141.52L238.19,143.67L238.19,146.53L238.34,147.51L239.16,150.09L239.97,153.98L239.98,156.30L238.84,158.07L238.29,158.82L236.25,159.37L229.72,159.80L227.78,160.45L227.02,160.98L225.18,162.38L223.64,164.08L222.67,165.38L221.31,167.90L220.33,170.48L219.42,176.53L218.61,180.09L217.27,183.77L216.50,184.62L215.31,185.70L214.72,185.72L205.68,180.52L204.80,180.84L203.39,181.70L202.05,182.79L200.58,184.39L198.88,186.90L196.71,191.53L195.57,193.79L193.68,197.08L191.08,200.63L189.43,201.25L188.93,201.30L188.99,197.03L188.34,192.98L187.85,191.37L183.00,188.60L182.19,188.82L180.36,189.75L179.13,190.62L177.67,192.08L174.86,195.41L173.56,196.87L172.25,198.31L170.47,199.93L169.09,201.14L166.93,202.88L165.51,202.54L165.13,202.37L166.49,199.51L167.79,195.62L168.76,191.09L168.92,189.96L168.92,186.83L168.44,185.85L163.91,183.26L163.36,183.26L162.39,183.60L158.09,186.26L153.98,188.45L149.77,190.25L149.34,190.25L137.21,183.26L136.36,181.97L136.35,181.79L148.03,188.47L148.63,188.45L150.63,186.08L153.38,182.03L155.49,178.15L157.06,174.70L157.75,171.83L157.75,168.87L157.42,167.91L152.58,165.14L149.77,165.31L142.32,165.37L142.21,164.34L142.17,162.88L145.62,160.35L147.81,158.49L150.14,156.29L153.54,152.41L155.27,149.60L156.46,146.58L156.94,143.99L156.94,142.16L156.61,140.71L141.88,132.30L141.56,131.97L140.62,130.32L136.22,127.28L135.89,127.08L135.85,126.93L136.04,126.93L146.59,132.98L147.51,130.20L152.36,128.57L156.24,126.78L159.55,124.91L161.00,123.78L162.61,122.14L164.06,120.04L165.64,116.92L166.33,114.37L166.49,113.40L166.49,111.25L165.68,108.17L163.90,103.80L161.75,99.58L163.35,97.15L164.55,97.17L169.24,97.65L174.69,97.65L175.51,97.50L177.98,96.24L179.13,95.29L180.90,93.50L182.68,90.75L183.81,88.32L184.46,85.89L184.94,82.00L184.94,74.67L184.72,71.74L186.67,70.12L186.88,70.12L191.90,74.18L193.86,75.95L195.15,76.92L196.43,77.26L197.52,77.26L198.86,76.99L200.17,76.36L201.63,75.38L203.49,73.68L205.01,71.64L206.47,69.06L208.57,63.87L209.70,60.15L210.78,55.24L211.44,54.93L212.41,54.59L212.94,54.60L213.75,56.38L215.37,60.91L216.50,65.61L216.98,66.91L217.65,67.86L218.78,68.67L219.41,68.85L221.64,68.85L223.63,68.08L225.26,66.97L226.70,65.66L229.61,62.10L232.04,58.54L234.15,54.65L234.91,52.97zM126.03,55.09L127.65,56.22L128.62,57.19L130.58,59.43L131.86,61.72L132.67,64.14L132.99,66.25L132.99,71.16L132.83,72.62L132.18,75.85L130.89,80.07L129.75,82.65L128.13,85.72L126.51,88.48L123.87,91.99L121.51,94.64L118.68,97.15L116.82,98.53L114.05,100.13L111.30,101.26L109.14,101.70L105.63,101.70L102.06,100.90L98.86,99.25L85.40,91.51L83.63,90.20L82.34,88.74L80.71,86.65L80.32,85.68L80.39,85.66L80.72,86.15L81.22,86.53L81.19,85.67L95.44,93.95L95.76,94.00L95.76,93.28L95.56,92.44L97.87,93.02L97.70,91.99L97.49,88.75L97.81,85.03L98.47,81.96L99.32,78.93L100.62,75.69L102.40,72.13L104.27,68.99L106.14,66.49L107.84,64.46L109.05,63.08L110.10,62.19L111.46,60.96L114.32,58.81L116.26,57.67L119.02,56.54L120.80,56.06L122.09,55.89L124.25,55.89L125.88,56.06L124.85,54.74zM135.27,147.35L135.28,147.55L133.97,149.18L132.33,151.61L132.03,151.56L130.07,148.96L128.29,145.73L127.25,142.82L127.32,142.80zM77.16,33.22L77.47,34.69L79.90,35.50L80.22,38.09L80.22,40.57L80.06,42.67L79.74,44.45L78.93,47.69L77.80,50.93L76.02,54.65L74.07,58.05L71.59,61.40L70.69,62.43L69.80,63.49L67.70,65.43L66.56,66.39L64.70,67.78L61.94,69.38L59.34,70.35L57.19,70.78L54.33,70.78L53.04,70.45L51.58,68.84L50.11,68.20L48.83,67.38L47.71,65.59L46.87,63.19L46.56,61.07L46.56,56.27L47.00,53.31L47.97,49.59L49.47,45.75L50.77,43.16L52.24,40.59L54.58,37.27L56.53,35.00L59.29,32.26L61.89,30.32L64.31,28.87L66.57,27.89L67.60,27.71zM129.12,63.00L129.26,63.67L129.59,64.63L131.85,65.28L132.18,67.55L132.18,70.84L132.02,72.62L131.54,75.37L130.57,78.77L129.59,81.20L128.08,84.38L126.30,87.46L124.09,90.58L122.74,92.15L121.59,93.43L119.00,95.86L116.41,97.79L113.59,99.34L111.46,100.13L109.47,100.56L105.95,100.58L105.00,100.23L103.85,98.95L103.21,98.46L102.55,98.31L100.79,97.16L99.66,95.37L98.83,92.81L98.51,90.53L98.51,86.37L98.95,83.25L99.92,79.53L101.27,76.02L103.04,72.45L104.36,70.21L106.22,67.54L108.89,64.38L110.92,62.37L113.68,60.27L116.64,58.53L118.69,57.68L119.55,57.50zM219.10,111.89L219.74,112.38L220.39,114.97L220.55,116.91L220.55,119.72L220.39,121.66L219.90,124.57L219.09,127.48L218.12,130.23L216.50,133.96L214.40,137.68L212.29,140.75L210.19,143.35L207.37,146.19L204.86,148.21L202.75,149.66L199.51,151.28L196.39,152.20L194.44,152.36L193.52,152.36L191.41,152.04L189.16,151.05L187.55,149.75L186.24,148.15L185.10,145.89L184.45,143.79L184.13,141.51L184.13,136.71L184.57,133.59L185.54,129.87L186.73,126.52L188.36,122.97L190.30,119.57L192.16,116.90L194.18,114.39L196.85,111.55L197.99,110.59L200.76,108.50L202.05,107.69L204.85,106.28L207.40,105.41L207.76,105.40z"/><g id="Actor_.0"><g style="stroke:#000000;stroke-width:0.176"><path d="M129.91,155.91L142.15,162.93L143.88,161.74L145.51,160.50L147.07,159.21L148.57,157.85L150.02,156.42L151.40,154.94L152.67,153.51L154.01,151.80L155.16,149.89L156.05,147.89L156.66,145.86L156.95,143.91L156.92,142.11L156.56,140.56L155.88,139.29L154.93,138.39L153.96,137.75L150.67,135.62L146.62,133.04L134.38,126.02L136.25,127.34L139.89,129.76L140.85,130.66L141.52,131.92L141.88,133.48L141.91,135.28L141.62,137.24L141.01,139.26L140.12,141.27L138.98,143.17L137.64,144.88L135.20,147.66L133.95,149.26L132.79,150.88L132.20,151.80"/><path d="M134.38,126.02L135.25,123.20L147.49,130.22L146.62,133.04"/><path d="M135.25,123.20L136.24,122.14L136.74,121.68L137.34,121.12L138.54,120.13L139.84,119.17L141.25,118.25L143.94,116.70L145.50,115.63L146.99,114.23L148.36,112.54L149.54,110.66L150.47,108.66L151.12,106.63L151.46,104.66L151.47,102.84L151.15,101.24L150.32,98.56L149.99,97.26L149.74,96.02L149.58,94.84L149.50,93.72L149.51,92.65L161.75,99.67L162.62,101.25L163.73,103.48L164.13,104.34L164.77,105.84L165.34,107.31L166.19,109.86L166.51,111.47L166.50,113.29L166.16,115.26L165.51,117.29L164.58,119.28L163.40,121.17L162.04,122.85L160.54,124.25L158.98,125.33L156.04,126.94L154.46,127.70L152.82,128.41L151.11,129.07L149.36,129.67L147.49,130.22"/><path d="M138.47,183.00L136.21,181.70"/><path d="M149.47,190.37L148.45,188.72L139.31,183.48"/><path d="M142.15,162.93L142.24,165.42L144.01,165.49L145.72,165.52L147.37,165.50L148.96,165.43L150.48,165.31L153.04,165.01"/><path d="M148.45,188.72L149.79,187.17L151.02,185.58L152.19,183.93L153.29,182.21L154.33,180.43L155.31,178.58L156.20,176.79L157.05,174.78L157.61,172.76L157.86,170.82L157.78,169.05L157.37,167.53L156.66,166.32L155.67,165.47L154.45,165.03L154.26,165.02"/><path d="M149.51,92.65L151.16,90.04L163.40,97.06L161.75,99.67"/><path d="M151.16,90.04L152.01,89.79L152.96,89.57L154.01,89.41L155.16,89.30L156.41,89.23L158.82,89.20L160.29,88.98L161.85,88.34L163.41,87.32L164.92,85.96L166.31,84.32L167.52,82.46L168.49,80.47L169.17,78.46L169.56,76.46L170.01,72.93L170.33,71.19L170.73,69.52L171.20,67.91L171.75,66.38L172.39,64.87L184.63,71.89L184.86,73.91L185.02,75.89L185.08,77.86L185.06,79.81L184.95,81.73L184.60,85.09L184.22,87.07L183.53,89.10L182.56,91.08L181.35,92.94L179.96,94.59L178.45,95.95L176.89,96.97L175.33,97.60L173.86,97.82L171.22,97.81L169.79,97.75L166.74,97.50L163.40,97.06"/><path d="M165.13,202.47L165.90,200.92L166.57,199.34L167.16,197.69L167.69,195.98L168.14,194.19L168.85,190.57L169.05,188.65L168.92,186.92L168.47,185.43L167.71,184.27L166.69,183.47L165.44,183.09L164.02,183.13L162.49,183.58L160.92,184.44L158.18,186.24L156.56,187.19L154.88,188.07L152.85,189.02"/><path d="M172.39,64.87L174.50,63.01L186.74,70.03L184.63,71.89"/><path d="M188.89,201.46L189.02,200.27L189.07,199.05L189.03,197.76L188.91,196.41L188.71,195.00L188.12,192.10L187.62,190.66L186.83,189.54L185.77,188.81L184.50,188.48L183.06,188.58L181.52,189.10L179.95,190.01L178.42,191.29L176.99,192.86L176.32,193.69"/><path d="M184.19,142.10L184.01,140.80L184.01,137.70L184.40,134.41L185.17,131.00L186.30,127.54L187.78,124.11L189.56,120.78L191.62,117.62L193.91,114.69L196.37,112.07L198.96,109.80L201.62,107.93L204.29,106.51L206.92,105.57L209.46,105.11L211.83,105.17L214.01,105.72L215.94,106.77L217.57,108.29L218.88,110.24L219.84,112.58L220.42,115.28L220.61,118.25L220.44,121.15L220.42,121.46L219.84,124.82L218.88,128.26L217.57,131.72L215.94,135.11L214.01,138.36L211.83,141.41L209.46,144.20L206.92,146.65L204.29,148.72L201.62,150.37L198.96,151.56L196.37,152.26L193.91,152.46L191.62,152.15L189.56,151.35L187.78,150.06L186.30,148.33L185.17,146.17L184.40,143.64L184.19,142.10"/><path d="M192.21,58.64L191.47,60.33L190.47,62.31L189.23,64.14L187.82,65.75L186.30,67.07L184.73,68.03L183.84,68.36"/><path d="M186.74,70.03L190.43,73.01L192.54,74.81L194.37,76.45L195.47,77.13L196.77,77.39L198.23,77.23L199.77,76.66L201.34,75.69L202.86,74.37L204.27,72.76L205.50,70.93L206.51,68.96L207.30,67.15L208.00,65.45L208.73,63.46L209.37,61.43L209.92,59.38L210.37,57.32L210.73,55.23L198.49,48.21"/><path d="M205.69,180.54L206.35,180.30L207.80,180.14L209.11,180.41L210.20,181.09L211.95,182.68L212.74,183.43L214.06,184.77L215.03,185.90"/><path d="M210.73,55.23L212.88,54.47"/><path d="M222.64,45.95L234.89,52.97L234.09,54.77L233.19,56.54L232.19,58.29L231.10,60.02L229.90,61.72L228.80,63.15L227.59,64.68L226.16,66.25L224.62,67.52L223.05,68.43L221.52,68.95L220.08,69.05L218.80,68.72L217.74,67.99L216.95,66.88L216.45,65.44L215.79,62.49L215.36,60.95L214.84,59.33L214.28,57.78L213.63,56.16L213.21,55.22"/><path d="M252.30,65.56L251.32,66.77L250.82,67.30L250.22,67.94L249.03,69.08L247.73,70.19L246.33,71.26L243.65,73.09L242.08,73.95L240.55,74.41L239.13,74.44L237.88,74.06L236.86,73.27L236.11,72.11L235.66,70.62L235.53,68.89L235.72,66.97L236.35,63.30L236.57,61.38L236.68,59.89"/><path d="M236.64,53.46L234.89,52.97"/><path d="M259.54,90.51L258.64,90.94L257.64,91.32L256.54,91.65L255.33,91.94L254.03,92.19L252.84,92.36L251.52,92.53L250.12,92.51L248.90,92.06L247.91,91.22L247.20,90.00L246.80,88.48L246.71,86.71L246.96,84.78L247.31,83.50"/></g><g style="stroke:#000000;stroke-width:0.529"><path d="M138.72,184.21L149.47,190.37L151.34,189.67L152.85,189.02L152.76,191.36L152.78,193.39L152.89,195.45L165.13,202.47L166.89,202.96L168.56,201.67L170.17,200.30L171.71,198.86L173.20,197.36L174.61,195.78L176.32,193.69L176.65,194.44L188.89,201.46L191.04,200.70L192.28,199.12L193.44,197.46L194.54,195.73L195.56,193.92L196.52,192.05L198.06,188.58L199.07,186.60L200.30,184.77L201.71,183.16L203.23,181.84L204.80,180.88L205.69,180.54L215.03,185.90L217.14,184.04L217.79,182.53L218.35,180.95L218.83,179.29L219.23,177.57L219.56,175.77L219.97,172.45L220.36,170.46L221.05,168.44L222.02,166.45L223.22,164.59L224.61,162.95L226.12,161.59L227.69,160.56L229.24,159.93L230.71,159.71L233.28,159.68L234.48,159.60L235.59,159.49L236.60,159.33L237.53,159.12L238.37,158.87L240.03,156.26L240.03,155.18L239.95,154.03L239.78,152.81L239.52,151.53L239.17,150.19L238.38,147.67L238.07,146.07L238.08,144.24L238.42,142.27L239.06,140.25L240.00,138.25L241.17,136.37L242.54,134.69L244.03,133.28L245.59,132.21L248.45,130.55L249.80,129.66L251.06,128.72L252.23,127.76L252.80,127.23L253.29,126.77L254.28,125.71L255.16,122.89L253.30,121.58L249.64,119.15L248.69,118.25L248.02,116.99L247.66,115.42L247.62,113.63L247.91,111.67L248.52,109.65L249.41,107.64L250.56,105.74L251.90,104.02L253.17,102.59L254.48,101.07L255.69,99.51L256.81,97.93L257.84,96.33L258.77,94.70L259.62,93.00L259.54,90.51L247.31,83.50L247.52,82.76L248.38,80.74L249.27,78.96L250.16,77.06L250.97,75.14L251.69,73.20L252.32,71.25L252.86,69.27L253.33,67.21L252.30,65.56L240.06,58.54L238.20,59.24L236.68,59.89L236.78,57.49L236.75,55.51L236.64,53.46L224.40,46.44L222.64,45.95L220.98,47.24L219.41,48.57L217.91,49.96L216.46,51.42L215.08,52.94L213.21,55.22L212.88,54.47L200.64,47.45L198.49,48.21L197.26,49.79L196.13,51.40L195.06,53.08L194.06,54.83L193.12,56.64L192.21,58.64L191.89,58.46L188.85,57.18L185.57,56.42L182.08,56.17L178.40,56.45L174.59,57.26L170.67,58.57L166.69,60.38L162.69,62.68L158.71,65.43L154.79,68.61L150.98,72.18L147.30,76.12L143.81,80.37L140.53,84.90L137.49,89.66L134.73,94.62L132.29,99.66L130.17,104.81L128.41,109.98L127.02,115.12L126.02,120.18L125.42,125.10L125.21,129.84L125.42,134.36L126.02,138.59L127.02,142.50L128.41,146.05L130.17,149.19L132.19,151.80L131.73,152.53L130.77,154.21L129.91,155.91L130.00,158.39L142.22,165.41L142.01,166.15L141.16,168.17L139.48,171.62L138.63,173.59L137.89,175.58L137.52,176.71L137.23,177.60L136.67,179.64L136.21,181.70L137.23,183.35L137.88,183.72"/></g></g><g id="Actor_.1"><g style="stroke:#000000;stroke-width:0.176"><path d="M77.44,28.35L75.70,27.10L73.70,26.32L71.48,26.03L69.08,26.22L66.57,26.90L63.98,28.06L61.38,29.66L58.82,31.67L56.36,34.06L54.04,36.76L51.93,39.73L50.05,42.90L48.46,46.20L47.19,49.56L46.26,52.91L45.69,56.17L45.51,59.29L45.69,62.19L46.26,64.80L47.19,67.09L48.46,68.98L50.05,70.46L51.93,71.48L54.04,72.02"/><path d="M46.50,56.66L46.43,57.26L46.38,58.79L46.43,60.26L46.82,63.01L47.61,65.42L48.76,67.46L50.25,69.06L52.05,70.20L54.11,70.83L56.39,70.96L58.84,70.58L61.39,69.69L63.98,68.32L66.56,66.49L69.06,64.26L71.43,61.67L73.61,58.79L75.54,55.68L77.19,52.41L78.52,49.06L79.49,45.72L80.08,42.45L80.28,39.34L80.08,36.46L79.49,33.87L78.52,31.64L77.20,29.81L75.54,28.44L73.61,27.55L71.43,27.17L69.06,27.30L66.56,27.93L63.98,29.07L61.36,30.69"/><path d="M50.51,68.49L48.76,67.39L48.65,67.27"/><path d="M71.61,27.20L73.30,27.98"/></g><g style="stroke:#000000;stroke-width:0.529"><path d="M37.61,64.18L33.69,61.94L31.90,60.66L30.42,58.99L28.99,57.30L27.88,55.21L27.13,52.75L26.75,49.99L26.75,46.97L27.13,43.77L27.88,40.46L28.99,37.09L30.42,33.75L32.16,30.51L34.16,27.44L36.38,24.59L38.78,22.04L41.29,19.83L42.59,18.92L43.88,18.02L46.48,16.64L49.04,15.72L49.50,15.64L51.50,15.28L53.82,15.33L55.96,15.76L58.13,16.32L60.06,17.36L74.17,25.40L75.96,26.69L77.44,28.35L78.87,30.04L79.98,32.14L80.73,34.60L81.11,37.36L81.11,40.38L80.73,43.58L79.98,46.89L78.87,50.26L77.44,53.59L75.70,56.83L73.67,59.94L71.48,62.75L69.08,65.31L66.57,67.51L63.98,69.33L63.31,69.68L61.38,70.71L58.82,71.63L56.36,72.07L54.04,72.02L51.90,71.59L49.73,71.03L47.80,69.98L38.51,64.69"/><path d="M46.50,56.66L46.82,54.06L47.61,50.74L48.76,47.39L50.25,44.07L52.05,40.87L54.11,37.87L56.39,35.12L58.84,32.70L61.36,30.69"/><path d="M61.36,30.69L61.04,33.29L60.25,36.60L59.10,39.96L57.61,43.28L55.81,46.47L53.75,49.48L51.47,52.22L49.02,54.64L46.50,56.66"/></g></g><g id="Actor_.2"><g style="stroke:#000000;stroke-width:0.176"><path d="M129.42,58.17L127.69,56.92L125.69,56.14L123.47,55.84L121.07,56.04L118.55,56.72L115.97,57.88L113.37,59.48L110.81,61.49L108.34,63.88L106.03,66.58L103.91,69.55L102.04,72.72L100.45,76.02L99.18,79.38L98.25,82.72L97.68,85.99L97.49,89.11L97.68,92.00L98.25,94.62L99.18,96.90L100.45,98.80L102.04,100.28L103.91,101.29L106.03,101.83"/><path d="M113.35,60.51L115.97,58.88L118.54,57.75L121.05,57.11L123.41,56.99L125.59,57.37L127.53,58.26L129.18,59.63L130.51,61.46L131.48,63.69L132.07,66.28L132.27,69.16L132.07,72.27L131.48,75.54L130.51,78.88L129.18,82.23L127.53,85.50L125.59,88.61L123.41,91.49L121.05,94.08L118.54,96.31L115.96,98.13L113.37,99.51L110.82,100.40L108.38,100.78L106.10,100.65L104.04,100.01L102.24,98.88L100.74,97.28L99.59,95.24L98.81,92.83L98.41,90.08L98.36,88.61L98.41,87.07L98.49,86.47"/><path d="M102.49,98.31L100.75,97.21L100.64,97.09"/><path d="M123.59,57.02L125.29,57.79"/></g><g style="stroke:#000000;stroke-width:0.529"><path d="M89.48,93.93L85.68,91.76L83.89,90.48L82.41,88.81L80.97,87.12L79.87,85.03L79.12,82.57L78.74,79.80L78.74,76.79L79.12,73.59L79.87,70.27L80.97,66.91L82.41,63.57L84.15,60.33L86.15,57.26L88.37,54.41L90.76,51.86L93.28,49.65L94.98,48.46L95.87,47.84L98.47,46.46L101.03,45.54L103.49,45.10L105.80,45.15L107.95,45.58L110.12,46.13L112.05,47.18L126.16,55.22L127.94,56.51L129.42,58.17L130.86,59.86L131.96,61.96L132.71,64.41L133.09,67.18L133.09,70.19L132.71,73.39L131.96,76.71L130.86,80.07L129.42,83.41L127.78,86.48L127.69,86.65L125.69,89.73L123.47,92.57L121.07,95.12L118.55,97.33L117.49,98.08L115.97,99.14L113.37,100.53L110.81,101.45L108.34,101.89L106.03,101.83L103.89,101.40L101.71,100.85L99.79,99.80L90.36,94.43"/><path d="M113.35,60.51L110.82,62.52L108.38,64.94L106.10,67.69L104.04,70.69L102.24,73.89L100.74,77.21L99.59,80.56L98.81,83.88L98.49,86.47"/><path d="M98.49,86.47L101.01,84.46L103.45,82.04L105.73,79.30L107.80,76.29L109.60,73.09L111.09,69.78L112.24,66.42L113.02,63.11L113.35,60.51"/></g></g><g><g><path style="stroke:#000000;stroke-width:0.125;stroke-dasharray:1.9 1.3 0.6 1.3" d="M53.93,43.67L83.87,60.85"/><path style="stroke:#000000;stroke-width:0.125;stroke-dasharray:1.9 1.3 0.6 1.3" d="M103.30,71.99L136.67,91.13"/></g></g><g id="PMI.0"><g><path style="stroke:#000000;stroke-width:0.125" d="M28.73,143.75L38.93,57.09"/></g><g><path style="fill:#000000" d="M39.68,57.09L39.67,57.02L39.66,56.95L39.64,56.87L39.62,56.80L39.59,56.74L39.55,56.67L39.51,56.62L39.46,56.56L39.40,56.51L39.34,56.47L39.28,56.43L39.21,56.40L39.14,56.37L39.07,56.36L39.00,56.35L38.93,56.34L38.85,56.35L38.78,56.36L38.71,56.37L38.64,56.40L38.57,56.43L38.51,56.47L38.45,56.51L38.40,56.56L38.35,56.62L38.30,56.67L38.26,56.74L38.23,56.80L38.21,56.87L38.19,56.95L38.18,57.02L38.18,57.09L38.18,57.17L38.19,57.24L38.21,57.31L38.23,57.38L38.26,57.45L38.30,57.51L38.35,57.57L38.40,57.62L38.45,57.67L38.51,57.72L38.57,57.75L38.64,57.78L38.71,57.81L38.78,57.83L38.85,57.84L38.93,57.84L39.00,57.84L39.07,57.83L39.14,57.81L39.21,57.78L39.28,57.75L39.34,57.72L39.40,57.67L39.46,57.62L39.51,57.57L39.55,57.51L39.59,57.45L39.62,57.38L39.64,57.31L39.66,57.24L39.67,57.17z"/></g><g><text xml:space="preserve" fill="#000000" stroke-width="0" x="19.83" y="148.21" font-size="3.81" opacity="1.00" font-family="Arial">MGB0012</text></g></g><g id="PMI.1"><g><path style="stroke:#000000;stroke-width:0.125" d="M76.65,171.27L91.20,86.71"/></g><g><path style="fill:#000000" d="M91.95,86.71L91.95,86.64L91.94,86.56L91.92,86.49L91.90,86.42L91.87,86.36L91.83,86.29L91.78,86.23L91.73,86.18L91.68,86.13L91.62,86.09L91.56,86.05L91.49,86.02L91.42,85.99L91.35,85.98L91.28,85.96L91.20,85.96L91.13,85.96L91.06,85.98L90.99,85.99L90.92,86.02L90.85,86.05L90.79,86.09L90.73,86.13L90.67,86.18L90.62,86.23L90.58,86.29L90.54,86.36L90.51,86.42L90.49,86.49L90.47,86.56L90.46,86.64L90.45,86.71L90.46,86.78L90.47,86.86L90.49,86.93L90.51,87.00L90.54,87.06L90.58,87.13L90.62,87.19L90.67,87.24L90.73,87.29L90.79,87.33L90.85,87.37L90.92,87.40L90.99,87.43L91.06,87.45L91.13,87.46L91.20,87.46L91.28,87.46L91.35,87.45L91.42,87.43L91.49,87.40L91.56,87.37L91.62,87.33L91.68,87.29L91.73,87.24L91.78,87.19L91.83,87.13L91.87,87.06L91.90,87.00L91.92,86.93L91.94,86.86L91.95,86.78z"/></g><g><text xml:space="preserve" fill="#000000" stroke-width="0" x="67.57" y="175.73" font-size="3.81" opacity="1.00" font-family="Arial">MGB0012</text></g></g><g id="PMI.2"><g><path style="stroke:#000000;stroke-width:0.125" d="M126.44,198.62L160.96,155.98"/></g><g><path style="fill:#000000" d="M161.71,155.98L161.71,155.91L161.70,155.84L161.68,155.77L161.66,155.70L161.62,155.63L161.59,155.57L161.54,155.51L161.49,155.45L161.44,155.40L161.38,155.36L161.32,155.32L161.25,155.29L161.18,155.27L161.11,155.25L161.04,155.24L160.96,155.23L160.89,155.24L160.82,155.25L160.74,155.27L160.68,155.29L160.61,155.32L160.55,155.36L160.49,155.40L160.43,155.45L160.38,155.51L160.34,155.57L160.30,155.63L160.27,155.70L160.24,155.77L160.23,155.84L160.22,155.91L160.21,155.98L160.22,156.06L160.23,156.13L160.24,156.20L160.27,156.27L160.30,156.34L160.34,156.40L160.38,156.46L160.43,156.51L160.49,156.56L160.55,156.61L160.61,156.65L160.68,156.68L160.74,156.70L160.82,156.72L160.89,156.73L160.96,156.73L161.04,156.73L161.11,156.72L161.18,156.70L161.25,156.68L161.32,156.65L161.38,156.61L161.44,156.56L161.49,156.51L161.54,156.46L161.59,156.40L161.62,156.34L161.66,156.27L161.68,156.20L161.70,156.13L161.71,156.06z"/></g><g><text xml:space="preserve" fill="#000000" stroke-width="0" x="115.81" y="203.08" font-size="3.79" opacity="1.00" font-family="Arial">KKR0050</text></g></g><g><g/><g><text xml:space="preserve" fill="#000000" stroke-width="0" x="3.97" y="6.92" font-size="4.53" opacity="1.00" font-family="Arial" font-weight="bold">BPA0671</text></g></g><g/><g id="paperID" visibility="hidden" opacity="0.00" transform="scale(0.000100)"><path style="stroke:#000000;stroke-width:0.500;fill:#e6e6e6;fill-rule:evenodd" d="M-2000.00,-2000.00L2297.00,-2000.00L2297.00,2210.00L-2000.00,2210.00zM0.00,0.00L297.00,0.00L297.00,210.00L0.00,210.00z"/><path style="fill:#000000;fill-opacity:0.118" d="M3.00,210.00L297.00,210.00L297.00,3.00L300.00,3.00L300.00,213.00L3.00,213.00z"/></g></g></svg>
