<?xml version="1.0" encoding="UTF-8" standalone="no"?>
<svg xmlns="http://www.w3.org/2000/svg" xmlns:xlink="http://www.w3.org/1999/xlink" width="297.000mm" height="210.000mm" viewBox="0.000000 0.000000 297.000000 210.000000" stroke-linejoin="round" stroke-linecap="round" fill="none" fill-rule="evenodd"><desc>Composer Export</desc><script type="text/ecmascript"><![CDATA[
if(typeof(top) != "undefined")
{
	top.ShowPaper = ShowPaper;
}
function ShowPaper()
{
  var svgDocument = getDocument();
  var paper = svgDocument.getElementById("paperID");
  if(paper)
  {
    paper.setAttribute("transform","scale(1)");
    paper.setAttribute("opacity","1");
    paper.setAttribute("visibility","visible");
  }
  var svg = svgDocument.getRootElement();
  if(svg)
  {
    svg.setAttribute("width","307.000mm");
    svg.setAttribute("height","220.000mm");
    svg.setAttribute("viewBox","-5.000000 -5.000000 307.000000 220.000000");
  }
}
]]></script><defs/><g><path style="fill:#000000;fill-opacity:0.098;fill-rule:evenodd" d="M105.70,26.73L108.06,27.28L110.26,27.88L111.54,28.56L114.67,30.54L117.21,32.75L119.23,35.30L120.69,37.67L121.95,40.25L123.22,43.72L124.33,48.28L124.33,49.64L123.96,49.59L106.98,39.88L103.50,38.79L102.23,38.60L97.60,38.60L94.50,39.16L93.64,39.15L93.37,38.22L93.56,38.04L97.60,37.32L101.31,37.32L103.88,37.68L105.50,38.25L106.07,38.25L103.87,37.32L101.49,36.78L100.03,36.59L96.32,36.59L92.85,37.14L89.75,38.06L86.52,39.39L83.96,40.67L80.44,42.81L77.14,45.18L73.67,48.10L69.29,52.48L67.26,54.84L65.26,57.40L62.33,61.42L59.59,65.80L57.66,69.35L55.65,73.37L53.95,77.51L52.17,82.49L50.85,87.38L49.75,93.58L49.44,98.02L49.44,101.25L49.62,104.18L49.98,106.92L50.88,110.59L51.26,110.94L52.20,111.35L51.26,107.28L50.90,104.54L50.90,96.20L51.18,93.19L51.38,93.00L52.53,93.20L52.18,96.56L52.18,104.18L52.36,106.00L53.08,109.67L53.65,111.29L106.26,141.49L105.33,137.42L104.97,134.86L104.72,130.48L105.09,125.18L105.27,123.54L105.90,123.26L106.79,118.48L108.25,113.18L109.89,108.62L111.66,104.54L113.37,101.13L115.66,97.03L118.59,92.47L120.70,89.65L122.88,86.90L125.99,83.43L129.02,80.43L132.49,77.51L135.60,75.32L139.12,73.18L143.08,71.30L146.62,70.07L146.58,69.65L147.64,69.28L150.02,68.92L153.73,68.74L156.48,69.11L159.76,70.07L161.95,71.30L163.80,72.74L165.08,73.83L166.91,76.21L168.56,79.13L169.82,82.25L170.35,84.64L171.09,89.20L171.09,96.56L170.36,102.04L169.26,106.97L167.79,111.72L165.24,118.30L163.35,122.07L160.67,126.88L157.57,131.63L155.01,135.10L151.91,138.76L148.27,142.43L145.17,145.17L141.97,147.63L138.52,149.85L133.04,152.58L129.62,153.73L126.09,154.41L122.14,154.60L119.20,154.24L115.92,153.13L104.26,146.53L77.93,131.37L77.51,131.37L77.15,131.58L73.31,132.86L69.47,133.77L66.00,134.13L64.42,134.13L61.68,133.95L59.29,133.60L56.02,132.49L51.47,130.09L44.71,126.07L42.88,124.62L41.23,123.16L39.02,120.25L37.58,117.86L35.90,113.85L35.86,113.48L36.09,113.46L43.05,117.54L43.42,117.58L42.68,114.59L42.13,111.85L41.77,108.74L41.53,103.45L41.89,97.78L42.99,90.66L44.64,84.28L45.96,80.12L47.56,75.87L49.62,70.99L52.30,65.64L54.66,61.60L57.67,56.76L61.24,51.92L63.52,49.09L66.08,46.17L68.91,43.15L72.20,40.05L76.60,36.42L80.25,33.86L83.78,31.72L87.80,29.71L91.58,28.20L94.68,27.28L97.24,26.73L99.06,26.55L104.60,26.55zM81.23,108.73L82.13,109.11L82.88,109.64L83.04,110.94L83.40,112.41L84.15,114.31L77.87,117.90L77.58,117.88L77.01,116.61L76.47,114.04L76.47,112.09L76.65,110.98L77.12,110.00L77.69,109.28L78.60,108.74L79.33,108.56zM208.17,110.02L208.90,110.39L210.91,111.67L212.02,112.74L213.67,114.57L214.76,116.39L215.66,118.24L216.57,120.98L217.30,125.36L217.30,130.72L216.93,133.83L215.84,139.12L213.83,145.15L211.46,150.45L209.81,153.37L205.98,159.22L202.69,163.23L199.96,165.99L198.32,167.45L196.04,169.37L192.22,171.95L187.71,174.19L184.00,175.24L180.53,175.59L179.49,175.59L177.66,175.41L174.92,174.69L172.73,173.59L170.92,172.29L169.82,171.38L168.19,169.18L167.07,167.20L166.52,165.00L166.34,163.36L166.34,155.93L166.83,151.48L167.97,146.42L169.99,140.40L172.49,135.04L174.84,130.82L177.77,126.44L181.06,122.43L183.62,119.69L186.61,117.02L188.75,115.32L192.40,112.94L194.83,111.72L197.15,110.76L199.52,110.02L202.99,109.47L205.43,109.47zM85.25,111.65L86.34,113.02L84.82,114.06L84.33,114.05L83.58,111.86L83.35,110.01L83.58,109.98zM75.61,107.01L74.64,108.61L74.28,110.08L74.28,113.31L74.63,115.33L75.75,118.66L75.13,118.99L74.84,118.98L73.54,116.24L73.00,114.22L73.00,110.81L73.55,109.17L74.57,107.63L75.33,106.88zM253.47,136.51L255.66,137.24L256.93,137.97L258.97,139.41L260.43,141.05L261.87,143.26L263.15,146.19L263.87,149.12L264.24,151.67L264.24,157.75L263.88,160.86L262.96,165.24L261.86,168.89L260.22,173.28L258.89,176.14L256.20,181.13L252.37,186.80L249.81,189.90L246.81,192.93L244.53,195.03L242.53,196.68L238.12,199.58L233.69,201.54L230.94,202.26L228.38,202.63L226.07,202.63L224.42,202.45L221.86,201.72L219.14,200.24L216.40,197.68L214.56,194.78L213.81,192.95L213.75,192.43L214.03,192.43L213.46,190.21L213.10,188.01L212.92,185.28L212.92,183.14L213.22,178.88L214.37,173.27L215.84,168.53L218.40,162.50L221.06,157.67L224.35,152.74L227.64,148.73L230.39,145.82L232.02,144.34L235.59,141.52L238.61,139.61L241.78,138.03L244.27,137.06L246.28,136.51L248.66,136.14L251.46,136.14zM85.78,34.05L85.98,34.78L85.60,36.64L85.00,37.87L83.62,39.41L82.63,39.89L81.39,39.89L80.86,39.51L80.66,38.98L80.67,37.01L81.04,35.92L82.06,34.38L83.23,33.36L83.72,33.10L84.14,33.10zM118.47,37.16L118.67,37.69L118.66,38.48L118.30,39.94L116.95,42.06L115.51,42.99L114.10,42.98L113.56,42.43L113.36,41.90L113.36,40.30L113.74,39.21L114.20,38.21L115.68,36.59L116.84,36.21zM153.37,70.93L153.94,71.66L153.74,73.00L153.18,74.09L152.48,75.03L151.31,75.69L150.45,75.68L149.89,74.96L149.89,73.54L150.26,72.45L151.29,71.10L151.67,70.75L152.64,70.55zM144.44,72.73L144.98,73.29L144.78,74.83L144.06,76.29L142.89,77.32L141.31,77.33L140.94,76.61L140.94,75.37L141.32,74.28L141.97,73.29L142.96,72.45L143.53,72.21zM161.43,73.29L161.42,74.84L161.04,75.74L160.24,76.95L158.99,77.70L157.94,77.68L157.58,77.32L157.56,75.18L158.22,73.83L159.57,72.62L160.13,72.56zM53.11,74.75L53.10,76.66L52.86,77.33L52.12,78.79L51.08,79.94L49.76,80.62L48.88,80.63L48.33,80.26L47.96,79.72L47.97,77.56L48.34,76.47L49.36,74.93L50.83,73.85L51.64,73.85zM135.30,78.23L135.64,78.95L135.47,79.95L134.92,81.22L134.21,82.16L133.05,82.82L132.17,82.82L131.62,82.27L131.62,80.48L132.47,78.76L133.63,77.74L134.38,77.68zM166.91,78.95L166.89,80.49L166.70,81.04L165.72,82.61L164.46,83.37L163.58,83.37L163.04,82.82L163.04,80.85L163.80,79.41L165.05,78.28L165.80,78.22zM146.46,84.24L147.17,85.90L148.65,86.79L148.98,87.56L149.72,91.21L149.72,96.56L149.35,99.30L148.62,102.77L147.52,106.43L146.19,109.66L143.44,115.13L141.13,118.84L138.15,122.63L137.04,123.89L136.02,125.06L134.30,126.63L131.93,128.64L129.65,130.19L127.37,131.57L124.33,132.91L120.99,133.77L117.02,133.77L115.91,133.60L114.28,133.03L113.73,130.85L113.37,128.29L113.37,123.41L113.91,119.02L115.00,114.45L116.47,110.08L118.12,106.25L119.21,104.05L121.14,100.50L124.43,95.57L127.91,91.37L131.65,87.63L132.74,86.71L134.13,85.73L140.20,82.12L140.52,81.70L142.06,81.16L143.35,81.76L143.35,81.35L143.10,80.77L143.30,80.77zM156.67,86.99L157.21,88.29L157.94,92.49L157.94,97.84L157.39,102.04L156.29,106.61L155.01,110.44L153.49,114.04L151.18,118.67L149.48,121.53L146.92,125.18L144.42,128.35L142.97,129.82L141.97,131.01L138.68,133.93L134.66,136.85L130.72,138.94L127.39,140.17L123.90,140.71L121.40,140.71L119.20,140.35L118.31,139.96L116.84,138.34L116.65,138.13L116.58,137.78L118.24,137.79L120.80,137.42L123.54,136.69L127.61,134.92L131.47,132.38L133.84,130.55L136.12,128.45L138.94,125.61L141.44,122.44L142.77,120.67L145.15,117.02L147.34,113.00L149.35,108.62L151.36,102.59L152.46,97.48L152.82,94.19L152.82,89.38L152.27,85.55L152.03,84.44L152.25,84.42zM126.53,86.82L126.71,87.78L125.97,89.81L124.46,91.22L123.05,91.21L122.67,90.67L122.67,89.06L123.33,87.53L123.90,86.82L125.00,86.07L125.24,86.08zM159.41,88.64L161.02,89.58L161.60,91.38L162.14,95.41L162.14,99.67L161.89,102.97L162.69,103.07L162.68,104.05L161.77,108.25L159.94,113.73L157.94,118.48L156.84,120.49L154.41,124.64L151.85,128.29L149.35,131.45L146.25,134.74L144.89,135.94L141.97,138.31L139.04,140.32L135.96,141.99L132.68,143.27L131.76,143.32L131.45,142.72L128.29,143.08L125.42,143.08L123.41,142.72L121.77,142.17L120.83,141.78L120.80,141.60L123.05,141.99L126.10,141.99L129.44,140.95L132.10,139.77L135.21,137.95L137.67,136.21L140.97,133.48L144.60,129.81L147.83,125.73L150.44,121.95L153.37,116.84L155.74,111.54L157.02,108.07L158.48,102.41L159.21,97.29L159.21,91.57L158.48,87.37L158.29,86.84L158.29,86.09zM169.81,87.55L169.81,89.08L169.62,89.62L168.64,91.20L167.57,91.95L166.34,91.93L165.98,91.57L165.96,89.43L167.08,87.63L168.17,86.86L168.53,86.80zM119.03,97.61L119.04,99.13L118.66,100.03L117.93,101.13L116.79,102.00L115.56,101.98L115.20,101.61L115.00,101.08L115.01,100.21L115.68,98.33L116.96,97.05L117.75,96.85zM169.83,98.50L169.82,100.04L169.44,100.94L168.28,102.34L167.19,102.92L166.70,102.92L166.16,102.71L165.96,102.36L165.96,100.39L166.63,99.04L167.74,97.96L168.10,97.77L168.72,97.77zM113.57,109.64L113.55,110.82L113.31,111.49L112.64,112.82L111.57,113.76L110.75,114.05L109.90,113.85L109.52,113.14L109.53,111.90L109.90,110.81L110.92,109.46L112.01,108.74zM166.89,110.39L166.90,112.10L166.15,113.55L164.83,114.78L163.42,114.77L163.04,114.24L163.04,112.44L163.98,110.64L165.36,109.64L165.61,109.64zM207.07,111.48L209.28,112.74L210.74,114.02L212.55,116.42L214.56,120.43L215.84,123.90L216.39,127.19L216.39,132.91L216.02,135.65L214.92,140.40L213.64,144.23L212.31,147.47L209.39,153.31L205.74,158.80L203.54,161.53L201.24,164.16L198.78,166.45L196.41,168.46L193.39,170.56L189.84,172.49L186.38,173.78L183.81,174.32L179.86,174.32L178.56,174.15L175.83,173.23L173.12,171.74L171.83,170.65L170.53,169.21L169.08,166.83L168.15,164.46L167.43,161.17L167.25,159.34L167.25,154.10L167.56,151.12L168.48,146.75L169.80,142.22L172.12,136.69L174.66,131.92L177.32,127.82L178.97,125.63L180.61,123.62L181.70,122.33L186.01,118.06L190.08,115.01L194.04,112.76L197.33,111.48L200.62,110.75L204.33,110.75zM53.11,118.59L53.10,120.50L52.90,121.03L52.30,122.26L51.25,123.58L49.56,124.47L48.53,124.26L47.96,123.55L47.97,121.40L48.34,120.31L49.36,118.77L50.35,117.93L51.28,117.51zM110.63,121.53L110.64,123.06L109.64,124.98L108.39,125.93L107.16,125.91L106.80,125.54L106.60,125.01L106.60,124.14L107.18,122.52L108.27,121.24L109.11,120.78L109.35,120.78zM161.43,122.42L161.42,123.97L161.04,124.87L159.96,126.17L158.98,126.83L158.11,126.84L157.56,126.29L157.56,124.32L158.23,122.97L159.33,121.89L159.70,121.70L160.31,121.70zM110.65,132.47L110.63,133.83L110.02,135.23L109.10,136.31L108.01,136.89L107.52,136.89L106.80,136.50L106.60,135.97L106.61,134.92L106.98,133.83L107.99,132.28L108.92,131.74L109.54,131.74zM153.72,133.05L153.93,133.59L153.75,134.93L153.01,136.39L151.94,137.32L151.12,137.61L150.27,137.41L149.89,136.88L149.89,135.28L150.73,133.56L151.89,132.53L152.83,132.48zM252.00,137.97L254.57,138.69L255.84,139.43L257.12,140.34L259.15,142.51L260.59,144.91L261.46,147.15L261.90,147.43L262.42,149.11L262.96,152.40L262.96,158.48L262.42,162.50L261.32,167.07L259.31,172.73L257.12,177.30L255.29,180.58L252.91,184.23L250.12,187.83L247.73,190.56L245.17,192.93L242.70,195.03L240.23,196.76L237.13,198.59L234.60,199.71L231.49,200.63L228.93,200.98L226.61,200.98L225.15,200.81L223.50,200.45L220.95,199.16L219.69,198.23L217.86,196.40L216.21,193.68L215.10,190.77L214.56,188.20L214.38,187.10L214.19,184.55L214.19,182.41L214.50,178.33L215.64,172.72L217.48,167.25L219.49,162.69L221.89,158.32L223.98,155.12L226.09,152.30L228.91,148.91L231.85,146.01L234.96,143.45L238.61,141.08L240.68,140.04L242.82,139.07L245.00,138.33L246.83,137.97L250.54,137.79zM113.56,141.24L113.55,142.42L113.18,143.50L112.22,144.73L111.31,145.47L110.08,145.45L109.52,144.74L109.53,143.50L109.90,142.41L110.55,141.42L111.72,140.38L112.27,140.32zM144.98,141.79L144.97,142.78L144.79,143.51L144.36,144.36L143.52,145.35L142.54,146.01L141.50,146.00L140.94,145.29L140.94,143.86L142.06,141.69L143.26,140.87L143.69,140.87zM119.05,146.72L119.04,148.27L118.66,149.17L117.55,150.61L116.61,151.13L115.56,151.11L115.20,150.74L115.00,150.22L115.01,149.35L115.68,147.46L117.20,146.05L117.75,145.98zM135.46,146.92L135.63,147.63L135.47,148.63L135.10,149.53L133.85,151.02L132.86,151.50L132.00,151.30L131.62,150.77L131.63,149.16L132.00,148.07L132.85,146.91L134.21,146.19zM126.35,148.55L126.71,149.30L126.29,151.13L125.26,152.47L124.28,153.14L123.05,153.13L122.67,152.41L122.68,150.99L123.05,149.90L124.09,148.56L125.00,147.99L125.42,148.00z"/><g id="Actor_.0"><g style="stroke:#000000;stroke-width:0.176"><path d="M167.39,152.25L167.41,152.11"/><path d="M168.90,166.41L168.99,166.66"/><path d="M171.68,170.55L171.58,170.44"/><path d="M175.28,172.91L174.95,172.74"/><path d="M177.98,173.55L177.98,173.55"/><path d="M186.17,117.94L186.18,117.92"/><path d="M186.60,172.20L186.48,172.24"/><path d="M201.02,110.70L201.33,110.65"/><path d="M205.82,111.04L206.02,111.08"/><path d="M209.48,112.83L209.83,113.06"/><path d="M211.72,115.12L211.68,115.07"/><path d="M214.79,123.16L214.82,123.33"/></g><g style="stroke:#000000;stroke-width:0.529"><path d="M170.22,171.67L169.96,171.44L168.84,170.14L167.63,168.33L166.79,166.70L166.09,164.91L165.54,162.98L165.15,160.92L165.12,160.68L164.88,158.51L164.80,156.24L164.88,153.89L165.12,151.45L165.51,148.96L166.05,146.42L166.74,143.85L167.58,141.27L168.55,138.69L169.66,136.13L170.90,133.60L172.26,131.12L173.72,128.71L175.29,126.38L176.95,124.14L178.43,122.34L178.70,122.01L180.51,120.00L182.39,118.12L184.31,116.39L186.27,114.82L188.25,113.41L190.25,112.17L192.25,111.12L194.46,110.16L196.43,109.48L198.37,109.00L200.26,108.73L202.08,108.65L204.25,108.81L205.93,109.15L207.51,109.69L207.92,109.87L209.41,110.61L210.78,111.55L212.04,112.67L212.35,112.97L213.47,114.27L214.46,115.74L215.30,117.38L215.45,117.71L216.14,119.49L216.68,121.42L217.08,123.47L217.31,125.64L217.39,127.92L217.31,130.29L217.06,132.88L216.67,135.36L216.13,137.89L215.44,140.45L214.60,143.03L214.47,143.39L213.63,145.60L212.52,148.15L211.29,150.67L211.17,150.88L209.94,153.14L208.47,155.55L206.91,157.88L205.25,160.11L203.51,162.23L201.71,164.24L199.84,166.11L197.92,167.83L195.85,169.50L193.85,170.91L191.85,172.15L189.85,173.21L187.86,174.08L185.89,174.76L183.96,175.23L182.08,175.51L181.72,175.55L179.89,175.62L178.13,175.49L176.45,175.15L176.03,175.03L174.44,174.49L172.95,173.75L171.21,172.56L170.94,172.31"/><path d="M167.54,151.29L167.77,149.81L168.30,147.32L168.98,144.81L169.80,142.28L170.75,139.76L171.84,137.25L173.05,134.77L174.38,132.35L175.82,129.99L177.35,127.70L178.98,125.51L180.68,123.43L182.46,121.45L184.30,119.62L186.17,117.94L187.98,116.47L189.91,115.10L191.86,113.90L193.80,112.88L195.73,112.03L197.63,111.38L199.50,110.92L201.02,110.70L202.73,110.63L204.41,110.75L205.82,111.04L207.11,111.47L208.52,112.18L209.48,112.83L210.65,113.88L211.68,115.07L212.43,116.20L213.25,117.77L213.92,119.49L214.44,121.35L214.79,123.16L215.01,125.20L215.08,127.41L215.01,129.71L214.78,132.08L214.40,134.52L213.87,136.99L213.19,139.50L212.38,142.02L211.43,144.54L210.34,147.04L209.13,149.50L207.81,151.92L206.38,154.27L204.85,156.55L203.23,158.74L201.53,160.82L199.76,162.78L197.93,164.61L196.05,166.30L194.14,167.83L192.20,169.21L190.25,170.42L188.30,171.45L186.47,172.25L184.71,172.85L182.84,173.31L181.03,173.58L179.27,173.65L177.98,173.55L176.38,173.23L174.95,172.74L173.86,172.20L172.56,171.32L171.58,170.44L170.60,169.31L169.66,167.90L168.90,166.41L168.32,164.93L167.79,163.07L167.41,161.08L167.18,158.97L167.11,156.76L167.18,154.47L167.41,152.11L167.54,151.29L167.44,151.94"/></g></g><g id="Actor_.1"><g style="stroke:#000000;stroke-width:0.176"><path d="M53.74,131.35L51.28,129.65L49.07,127.58L48.56,126.94L47.11,125.14L45.43,122.37L44.04,119.27L42.95,115.88L42.16,112.22L41.68,108.31L41.53,104.19L41.68,99.89L42.16,95.43L42.95,90.87L44.04,86.22L45.43,81.53L47.11,76.83L48.08,74.52L49.07,72.15L51.28,67.54L53.74,63.02L56.42,58.63L59.31,54.41L59.80,53.77L62.38,50.38L65.61,46.59L68.97,43.05L72.44,39.79L75.99,36.84L79.60,34.22L83.23,31.95L86.87,30.05L90.48,28.53L94.03,27.41L97.50,26.68L100.86,26.37L104.09,26.46L106.67,26.89L107.15,26.97L110.04,27.88L112.72,29.19"/><path d="M48.50,124.19L48.09,123.82L47.80,123.00L47.80,121.96L48.09,120.81L48.64,119.68L49.40,118.66L50.27,117.90L51.17,117.48L52.00,117.42L52.66,117.75L53.09,118.42L53.24,119.36L53.09,120.48L52.66,121.64L52.00,122.73L51.17,123.62L50.27,124.22L49.40,124.47L48.65,124.33L48.50,124.19"/><path d="M48.09,80.04L47.80,79.22L47.80,79.03L47.80,78.18L48.09,77.02L48.65,75.88L49.40,74.87L50.27,74.12L51.17,73.69L52.00,73.64L52.66,73.96L53.09,74.63L53.24,75.58L53.09,76.69L52.66,77.86L52.00,78.94L51.17,79.84L50.27,80.44L49.40,80.68L48.65,80.54L48.09,80.04"/><path d="M49.69,104.76L49.50,103.40L49.35,99.70L49.50,95.82L49.98,91.80L50.76,87.67L51.85,83.47L53.23,79.23L54.89,75.01L56.81,70.84L58.98,66.75L61.38,62.80L63.98,59.00L66.76,55.40L69.70,52.04L72.76,48.94L75.92,46.13L79.15,43.64L82.41,41.49L85.69,39.71L88.94,38.30L92.13,37.28L95.25,36.67L98.25,36.46L101.11,36.66L103.81,37.27L106.31,38.28L108.79,39.68L106.39,38.48L103.78,37.67L101.00,37.26L98.07,37.26L95.01,37.67L91.85,38.49L88.62,39.70L85.35,41.30L82.08,43.27L78.83,45.59L75.63,48.24L72.52,51.20L69.52,54.44L66.66,57.92L63.96,61.62L61.46,65.50L59.17,69.53L57.12,73.67L55.33,77.87L53.80,82.10L52.57,86.32L51.63,90.49L51.00,94.58L50.69,98.53L50.69,100.48L50.69,102.32L51.00,105.92L51.63,109.28L52.57,112.38L53.80,115.18L55.33,117.68L57.12,119.81L59.17,121.59L61.46,123.00L58.98,121.60L56.81,120.00L54.89,118.04L53.23,115.72L51.85,113.07L50.76,110.12L49.98,106.88L49.69,104.76"/><path d="M124.48,49.75L108.97,40.85L106.62,39.67L104.07,38.87L101.34,38.47L98.46,38.48L95.46,38.88L92.36,39.68L91.47,40.01L89.19,40.87L85.99,42.44L82.78,44.37L79.59,46.65L76.46,49.25L73.40,52.15L70.46,55.32L67.65,58.74L65.01,62.37L64.13,63.74L62.55,66.18L60.31,70.12L58.30,74.18L56.54,78.30L55.05,82.45L54.52,84.26L53.84,86.59L52.92,90.68L52.30,94.69L51.99,98.57L51.99,99.35L51.99,102.29L52.30,105.81L52.92,109.11L53.42,110.77L53.84,112.15L55.05,114.90L56.54,117.34L58.30,119.44L60.32,121.19L62.55,122.56L65.79,124.42L63.96,124.01L61.46,123.00"/><path d="M65.79,124.42L77.72,131.27"/><path d="M73.23,115.32L73.00,114.34L72.85,113.36L72.81,112.41L72.85,111.50L73.00,110.62L73.23,109.79L73.62,108.92L73.97,108.32L74.47,107.69L75.03,107.15L75.66,106.69L76.55,106.24L75.92,106.64L75.05,107.71L74.45,109.10L74.15,110.75L74.15,112.62L74.45,114.63L75.05,116.70L75.92,118.77L77.03,120.76L78.35,122.59L79.81,124.21L81.38,125.55L82.98,126.56L84.58,127.21L86.10,127.47L87.49,127.34L88.22,127.02L87.93,127.26L87.37,127.54L86.92,127.67L86.33,127.73L85.70,127.70L85.03,127.57L84.31,127.36L83.57,127.06L82.77,126.68L81.97,126.22L81.15,125.68L80.31,125.07L79.49,124.39L78.66,123.66L77.86,122.87L77.15,122.10L76.35,121.15L75.66,120.23L75.03,119.28L74.47,118.31L73.97,117.32L73.62,116.47L73.23,115.32"/><path d="M76.64,115.16L76.51,114.65L76.35,112.95L76.51,111.43L76.97,110.17L77.71,109.23L78.70,108.65L79.88,108.47L81.19,108.69L82.59,109.31L82.90,109.53L83.02,110.91L83.48,112.70L84.23,114.49L85.21,116.20L86.39,117.74L87.71,119.03L88.78,119.78L88.81,120.10L88.65,121.61L88.19,122.87L87.45,123.82L86.47,124.39L85.28,124.58L83.97,124.36L82.58,123.74L81.19,122.76L79.88,121.48L78.70,119.94L77.71,118.23L76.97,116.43L76.64,115.16"/><path d="M76.55,106.24L77.15,106.03L77.86,105.87L78.66,105.81L79.49,105.85L80.32,105.99L81.15,106.25L81.97,106.61L82.77,107.07L83.08,107.29L83.57,107.64L84.31,108.28L85.03,109.03L85.70,109.84L86.33,110.73L86.92,111.68L87.37,112.52L87.93,113.72L88.35,114.78L88.72,115.87L89.02,116.89L89.29,118.05L89.49,119.12L89.63,120.16L89.72,121.17L89.75,122.13L89.72,123.04L89.63,123.88L89.49,124.65L89.26,125.44L89.01,126.00L88.72,126.48L88.35,126.92L88.22,127.02"/><path d="M81.31,39.81L80.82,39.37L80.53,38.55L80.53,37.51L80.82,36.35L81.38,35.21L82.13,34.21L83.01,33.45L83.90,33.02L84.73,32.97L85.39,33.29L85.82,33.97L85.97,34.91L85.82,36.02L85.39,37.19L84.73,38.28L83.90,39.17L83.01,39.77L82.13,40.01L81.38,39.88L81.31,39.81"/><path d="M83.29,109.81L83.97,110.28L85.28,111.57L86.47,113.11L87.45,114.82L88.19,116.61L88.65,118.40L88.74,119.35L87.42,118.31L86.18,116.97L85.09,115.41L84.21,113.70L83.61,111.95L83.29,110.24L83.29,109.81L82.90,109.53"/><path d="M88.78,119.78L88.74,119.35"/><path d="M114.47,152.37L112.28,150.83L110.34,148.90L108.66,146.62L107.27,144.01L106.17,141.08L105.38,137.87L104.90,134.41L104.74,130.73L104.90,126.86L105.38,122.85L106.17,118.73L107.27,114.54L108.66,110.33L110.34,106.13L112.28,101.97L114.47,97.92L116.89,94.00L119.51,90.24L122.31,86.69L125.25,83.39L128.33,80.35L131.49,77.62L134.71,75.22L137.97,73.16L141.23,71.48L144.46,70.18L147.62,69.29L150.69,68.80L153.64,68.72L156.44,69.06L159.06,69.81L161.47,70.96"/><path d="M138.23,150.01L135.00,151.68L131.80,152.97L128.66,153.86L125.61,154.34L125.15,154.36L122.69,154.42L119.91,154.08L117.31,153.34L114.92,152.20L112.74,150.67L110.82,148.76L109.15,146.50L107.77,143.91L106.68,141.00L105.89,137.82L105.42,134.38L105.26,130.73L105.42,126.89L105.89,122.91L106.68,118.82L107.77,114.67L109.15,110.49L110.82,106.32L112.74,102.20L114.92,98.18L117.31,94.28L119.91,90.56L122.69,87.04L125.61,83.76L128.66,80.75L131.80,78.04L135.00,75.65L138.23,73.61L141.47,71.94L144.67,70.66L147.81,69.77L150.85,69.28L153.78,69.21L156.55,69.54L159.15,70.29L161.55,71.43L163.72,72.96L165.65,74.86L167.31,77.13L167.73,77.90L168.70,79.72L169.79,82.63L170.57,85.81L171.04,89.19L171.21,92.90"/><path d="M107.21,136.82L106.79,136.43L106.57,135.80L106.57,135.01L106.79,134.13L107.21,133.26L107.79,132.50L108.45,131.92L109.14,131.59L109.77,131.55L110.27,131.80L110.60,132.31L110.71,133.03L110.60,133.88L110.27,134.77L109.77,135.60L109.14,136.28L108.45,136.73L107.79,136.92L107.21,136.82"/><path d="M107.28,125.96L107.21,125.95L106.79,125.56L106.57,124.94L106.57,124.15L106.79,123.26L107.21,122.40L107.79,121.63L108.45,121.05L109.14,120.73L109.77,120.69L110.27,120.94L110.60,121.45L110.71,122.17L110.60,123.02L110.27,123.90L109.77,124.73L109.14,125.41L108.45,125.87L107.79,126.06L107.28,125.96"/><path d="M109.54,144.68L109.47,144.48L109.47,143.68L109.69,142.80L110.11,141.93L110.69,141.17L111.35,140.59L112.04,140.26L112.66,140.22L113.17,140.47L113.50,140.98L113.61,141.70L113.50,142.55L113.17,143.44L112.66,144.27L112.04,144.95L111.35,145.40L110.67,145.59L110.11,145.49L109.69,145.10L109.54,144.68"/><path d="M109.47,112.95L109.47,112.15L109.69,111.27L110.11,110.40L110.69,109.64L111.35,109.06L112.04,108.73L112.66,108.69L113.17,108.94L113.50,109.45L113.61,110.17L113.50,111.02L113.17,111.91L112.66,112.74L112.04,113.42L111.35,113.87L110.79,114.03L110.67,114.06L110.11,113.96L109.69,113.57L109.47,112.95"/><path d="M108.79,39.68L110.96,41.28L112.55,42.90"/><path d="M113.84,132.26L113.37,129.32L113.21,126.17L113.37,122.84L113.84,119.36L114.28,117.32L114.61,115.79L115.69,112.17L117.04,108.54L118.67,104.96L120.54,101.46L122.63,98.10L124.92,94.90L127.38,91.92L129.97,89.19L131.13,88.14L132.67,86.74L135.43,84.61L138.23,82.82L141.04,81.40L143.80,80.36L146.50,79.71L149.09,79.47L151.55,79.63L153.84,80.20L155.93,81.16L157.80,82.52L159.42,84.24L160.78,86.30L161.85,88.69L162.63,91.37L163.10,94.30L163.26,97.46L163.10,100.80L162.63,104.27L161.85,107.84L160.78,111.46L159.42,115.08L157.80,118.67L155.93,122.16L153.84,125.53L151.55,128.72L149.09,131.70L146.50,134.44L143.80,136.88L141.04,139.01L138.23,140.80L135.43,142.23L132.67,143.27L129.97,143.92L127.38,144.16L124.92,144.00L122.63,143.43L120.54,142.46L118.67,141.11L117.04,139.39L115.69,137.32L114.61,134.94L113.84,132.26"/><path d="M152.72,80.49L152.99,80.56L155.04,81.50L156.87,82.83L158.46,84.51L159.79,86.54L160.84,88.87L161.60,91.50L162.05,94.32L162.21,97.46L162.06,100.73L161.60,104.13L160.84,107.62L159.79,111.17L158.46,114.72L156.87,118.22L155.04,121.65L152.99,124.94L150.75,128.07L148.34,130.99L145.80,133.66L145.28,134.14L143.16,136.06L140.46,138.15L137.71,139.90L137.01,140.26L134.97,141.29L132.26,142.32L129.62,142.95L128.83,143.02L127.08,143.19L124.67,143.03L122.43,142.47L120.39,141.52L118.57,140.21L118.44,140.08L119.70,140.49L122.11,140.79L124.65,140.67L127.31,140.15L130.05,139.22L132.84,137.90L135.64,136.20L138.41,134.15L141.11,131.78L143.72,129.10L146.19,126.17L148.50,123.02L150.62,119.68L152.51,116.21L154.15,112.64L155.53,109.03L156.62,105.42L157.41,101.86L157.88,98.40L158.04,95.07L157.88,91.92L157.41,89.00L156.62,86.35L155.53,83.99L154.15,81.95L152.72,80.49L150.74,80.00L148.34,79.84L145.80,80.08L144.45,80.40L146.03,81.83L147.37,83.63L148.44,85.76L149.21,88.19L149.68,90.88L149.83,93.80L149.68,96.89L149.21,100.12L148.44,103.43L147.37,106.79L146.03,110.13L144.42,113.42L142.59,116.60L140.54,119.63L138.32,122.46L135.95,125.05L133.47,127.37L130.92,129.38L128.33,131.04L125.74,132.35L123.18,133.27L120.70,133.80L118.33,133.92L116.11,133.64L114.25,133.02L113.82,131.53L113.36,128.66L113.22,125.86"/><path d="M114.06,42.95L113.56,42.49L113.27,41.67L113.27,40.62L113.56,39.47L114.11,38.33L114.87,37.32L115.74,36.57L116.64,36.14L117.44,36.09L118.13,36.41L118.55,37.08L118.70,38.03L118.55,39.14L118.13,40.31L117.46,41.39L116.64,42.29L115.74,42.89L114.87,43.13L114.11,42.99L114.06,42.95"/><path d="M115.19,150.68L114.98,150.10L114.98,149.31L115.20,148.43L115.62,147.56L116.20,146.80L116.86,146.22L117.55,145.89L118.18,145.85L118.68,146.10L119.01,146.61L119.12,147.33L119.01,148.18L118.68,149.07L118.18,149.90L117.55,150.57L116.86,151.03L116.20,151.22L115.62,151.11L115.20,150.73L115.19,150.68"/><path d="M114.25,133.02L114.58,134.16L115.64,136.49L116.96,138.52L118.44,140.08"/><path d="M115.19,101.57L114.98,100.99L114.98,100.20L115.20,99.32L115.62,98.45L116.20,97.68L116.86,97.11L117.55,96.78L118.18,96.74L118.68,96.99L119.01,97.50L119.12,98.23L119.01,99.07L118.68,99.96L118.18,100.78L117.55,101.46L116.86,101.92L116.20,102.11L115.62,102.00L115.20,101.62L115.19,101.57"/><path d="M119.84,141.13L122.13,141.88L124.53,142.18L125.02,142.15L125.84,142.04L128.60,141.27L131.41,140.11L134.25,138.57L137.16,136.61L139.87,134.44L142.58,131.91L145.18,129.09L147.64,126.04L149.93,122.77L152.02,119.35L153.88,115.80L155.50,112.16L156.86,108.50L157.92,104.83L158.70,101.22L159.16,97.71L159.32,94.33L159.16,91.14L158.70,88.16L157.92,85.44L157.79,85.14L157.95,85.38L159.04,87.74L159.83,90.39L160.31,93.31L160.47,96.46L160.31,99.79L159.83,103.25L159.04,106.81L157.95,110.42L156.58,114.04L154.93,117.60L153.04,121.07L150.93,124.41L148.62,127.56L146.14,130.49L143.54,133.17L140.83,135.54L138.06,137.59L135.27,139.29L132.48,140.61L129.74,141.54L127.08,142.06L125.02,142.15"/><path d="M122.79,152.76L123.21,153.15L123.79,153.25L124.45,153.07L125.14,152.61L125.76,151.93L126.27,151.10L126.60,150.21L126.71,149.36L126.60,148.65L126.27,148.13L125.76,147.89L125.14,147.93L124.45,148.25L123.79,148.83L123.21,149.59L122.79,150.46L122.57,151.34L122.57,152.14L122.79,152.76"/><path d="M122.79,90.88L123.21,91.26L123.79,91.37L124.45,91.18L125.14,90.73L125.76,90.05L126.27,89.22L126.60,88.33L126.71,87.48L126.60,86.76L126.27,86.25L125.76,86.00L125.14,86.04L124.45,86.37L123.79,86.95L123.21,87.71L122.79,88.58L122.57,89.46L122.57,90.26L122.79,90.88"/><path d="M132.02,151.29L131.71,151.00L131.49,150.38L131.49,149.59L131.71,148.70L132.13,147.85L132.71,147.07L133.37,146.49L134.06,146.17L134.68,146.13L135.19,146.37L135.52,146.89L135.63,147.61L135.51,148.46L135.19,149.34L134.68,150.17L134.06,150.85L133.37,151.31L132.71,151.50L132.13,151.39L132.02,151.29"/><path d="M131.72,82.42L131.49,81.78L131.49,80.99L131.71,80.11L132.13,79.25L132.26,79.06L132.71,78.47L133.36,77.90L134.06,77.57L134.68,77.53L135.19,77.78L135.52,78.29L135.63,79.01L135.51,79.87L135.19,80.74L134.68,81.57L134.06,82.25L133.37,82.71L132.71,82.90L132.13,82.79L131.72,82.42"/><path d="M132.48,86.94L132.71,87.54L133.12,88.41L133.58,89.24L133.95,89.82L134.35,90.36L134.65,90.73L135.25,91.35L135.89,91.89L136.56,92.33L137.25,92.67L137.95,92.90L138.65,93.02L139.52,93.01L140.00,92.93L140.63,92.72L141.22,92.41L141.74,92.01L142.20,91.52L142.63,90.84L142.86,90.32L143.05,89.62L143.15,88.87L143.14,87.88L143.06,87.28L142.86,86.43L142.57,85.59L142.34,85.07L141.74,83.92L141.22,83.12L140.63,82.35L140.21,81.86L140.46,81.73L143.16,80.71L144.45,80.40"/><path d="M135.19,84.80L135.68,85.84L136.72,87.45L137.93,88.85L139.25,89.97L140.61,90.75L141.93,91.14L142.44,91.14"/><path d="M137.97,150.17L138.13,150.07"/><path d="M137.92,83.02L140.21,81.86"/><path d="M141.09,145.62L141.51,146.01L142.09,146.12L142.75,145.93L143.42,145.48L144.06,144.79L144.57,143.96L144.90,143.02L145.01,142.23L144.89,141.51L144.57,141.00L144.06,140.75L143.62,140.78L143.42,140.80L142.75,141.11L142.09,141.69L141.51,142.46L141.09,143.32L140.87,144.21L140.87,145.00L141.09,145.62"/><path d="M141.16,77.09L141.09,77.03L140.87,76.40L140.87,75.61L141.09,74.73L141.51,73.86L142.09,73.09L142.75,72.52L143.42,72.20L144.06,72.15L144.57,72.40L144.89,72.91L145.01,73.63L144.89,74.48L144.57,75.36L144.06,76.19L143.42,76.88L142.75,77.33L142.09,77.52L141.51,77.41L141.16,77.09"/><path d="M150.01,137.15L149.79,136.53L149.79,135.73L150.01,134.85L150.43,133.98L151.00,133.23L151.67,132.64L152.35,132.31L152.98,132.27L153.49,132.52L153.81,133.03L153.93,133.75L153.81,134.60L153.49,135.49L152.98,136.32L152.35,137.00L151.67,137.46L151.01,137.64L150.43,137.54L150.01,137.15"/><path d="M149.79,74.64L150.01,75.27L150.43,75.65L151.01,75.76L151.67,75.57L152.35,75.11L152.98,74.43L153.49,73.61L153.81,72.72L153.93,71.87L153.81,71.15L153.49,70.64L152.98,70.39L152.35,70.43L151.67,70.76L151.01,71.33L150.43,72.10L150.01,72.97L149.79,73.85L149.79,74.64"/><path d="M154.02,81.04L154.93,81.66L156.58,83.34L157.79,85.14"/><path d="M158.02,126.80L157.60,126.41L157.37,125.79L157.37,124.99L157.60,124.11L158.02,123.24L158.59,122.48L159.26,121.90L159.94,121.58L160.57,121.53L161.08,121.78L161.40,122.29L161.51,123.02L161.40,123.86L161.08,124.75L160.57,125.58L159.94,126.26L159.26,126.72L158.59,126.90L158.02,126.80"/><path d="M158.02,77.69L157.60,77.30L157.37,76.68L157.37,75.88L157.60,75.00L158.02,74.13L158.59,73.37L159.26,72.79L159.94,72.46L160.57,72.42L161.08,72.67L161.40,73.18L161.51,73.90L161.40,74.75L161.07,75.65L160.57,76.47L159.94,77.15L159.26,77.61L158.59,77.79L158.02,77.69"/><path d="M163.75,114.89L163.53,114.85L163.11,114.46L162.89,113.84L162.89,113.04L163.11,112.16L163.53,111.29L164.10,110.53L164.51,110.18L164.77,109.95L165.45,109.62L166.08,109.58L166.59,109.83L166.92,110.34L167.03,111.06L166.92,111.91L166.59,112.80L166.08,113.63L165.45,114.31L164.77,114.76L164.10,114.95L163.75,114.89"/><path d="M163.75,83.35L163.53,83.32L163.11,82.93L162.89,82.31L162.89,81.51L163.11,80.63L163.53,79.76L164.10,79.00L164.77,78.42L165.45,78.09L166.08,78.05L166.59,78.30L166.92,78.81L167.03,79.53L166.92,80.38L166.59,81.27L166.08,82.10L165.45,82.78L164.77,83.23L164.10,83.42L163.75,83.35"/><path d="M165.97,102.36L165.78,101.84L165.78,101.05L166.00,100.18L166.43,99.30L167.00,98.53L167.67,97.95L168.35,97.63L168.98,97.59L169.49,97.84L169.81,98.35L169.93,99.07L169.81,99.92L169.49,100.80L168.98,101.63L168.35,102.31L167.67,102.77L167.00,102.96L166.43,102.85L166.01,102.47L165.97,102.36"/><path d="M165.97,91.50L165.78,90.98L165.78,90.18L166.00,89.31L166.43,88.43L167.00,87.67L167.67,87.09L168.35,86.76L168.98,86.72L169.49,86.97L169.81,87.48L169.93,88.20L169.81,89.05L169.49,89.94L168.98,90.77L168.34,91.45L167.67,91.90L167.00,92.09L166.43,91.99L166.01,91.60L165.97,91.50"/><path d="M171.20,92.76L171.21,92.60"/></g><g style="stroke:#000000;stroke-width:0.529"><path d="M33.87,103.87L34.34,107.73L35.13,111.39L36.22,114.79L37.61,117.88L39.29,120.66L41.25,123.09L43.46,125.16L45.92,126.86L53.74,131.35L56.42,132.66L59.31,133.56L62.38,134.07L65.61,134.17L68.97,133.85L72.44,133.13L75.99,132.00L77.72,131.27L114.47,152.37L116.89,153.52L119.51,154.27L122.31,154.61L125.25,154.53L128.33,154.04L131.49,153.14L134.71,151.85L137.97,150.17L141.46,147.98L144.67,145.59L147.81,142.88L150.85,139.87L153.78,136.59L156.43,133.23L159.15,129.34L161.55,125.45L163.72,121.43L165.65,117.31L167.31,113.14L168.70,108.96L169.79,104.80L170.57,100.72L171.05,96.74L171.21,92.60L171.05,88.92L170.57,85.46L169.78,82.25L168.68,79.32L167.28,76.70L165.61,74.42L163.66,72.50L161.49,70.97L124.48,49.75L124.31,48.32L123.52,44.66L122.42,41.26L121.03,38.17L119.35,35.39L119.04,35.00L117.40,32.96L115.19,30.89L112.72,29.19L104.90,24.70L102.22,23.39L99.33,22.48L96.27,21.98L93.04,21.88L89.68,22.20L86.21,22.92L82.65,24.05L79.05,25.56L75.41,27.47L71.78,29.73L68.17,32.35L64.62,35.30L61.15,38.56L57.79,42.10L54.56,45.90L51.49,49.92L48.60,54.15L45.92,58.53L43.46,63.05L41.25,67.66L39.29,72.34L37.61,77.04L36.22,81.73L35.13,86.38L34.34,90.95L33.86,95.40L33.71,99.70L33.87,103.87"/></g></g><g id="Actor_.2"><g style="stroke:#000000;stroke-width:0.176"><path d="M214.22,193.04L213.46,190.35L212.99,187.37L212.84,184.18L212.99,180.80L213.46,177.29L214.23,173.68L215.30,170.02L216.65,166.35L218.27,162.72L220.14,159.17L222.23,155.74L224.52,152.48L226.98,149.41L229.58,146.61L232.29,144.07L235.08,141.84L237.91,139.94L240.75,138.41L243.56,137.25L246.18,136.51L246.31,136.47L248.97,136.10L251.51,136.13L253.88,136.57L256.08,137.40"/><path d="M214.61,193.94L215.30,195.51L216.65,197.63L218.27,199.40L220.14,200.82"/><path d="M221.26,199.35L221.54,199.54L223.65,200.45L225.96,200.96L228.44,201.05L231.04,200.73L233.75,200.00L236.52,198.88L239.32,197.36L242.10,195.49L244.85,193.27L247.51,190.74L250.05,187.94L252.45,184.89L254.66,181.64L256.67,178.23L258.44,174.70L259.73,171.63L259.95,171.11L261.19,167.50L262.13,163.90L262.76,160.38L263.08,156.98L263.08,153.74L262.76,150.70L262.13,147.91L261.19,145.40L259.95,143.20L258.44,141.34L256.67,139.84L256.21,139.59"/></g><g style="stroke:#000000;stroke-width:0.529"><path d="M213.88,193.10L213.74,192.79L212.97,190.07L212.50,187.09L212.34,183.89L212.50,180.52L212.97,177.00L213.74,173.40L214.81,169.73L216.16,166.07L217.78,162.43L219.64,158.88L221.73,155.45L224.02,152.19L226.48,149.14L229.08,146.32L231.79,143.79L234.58,141.56L237.41,139.66L240.25,138.12L243.06,136.96L245.82,136.19L248.48,135.82L251.01,135.85L253.39,136.29L255.58,137.12L256.08,137.40L258.06,138.63L259.80,140.22L261.29,142.17L262.50,144.45L263.42,147.04L264.05,149.89L264.36,152.98L264.36,156.27L264.05,159.72L263.42,163.29L262.50,166.93L261.29,170.60L259.80,174.26L258.06,177.85L256.08,181.35L253.88,184.70L251.51,187.86L248.97,190.81L246.31,193.48L243.56,195.87L240.75,197.93L237.91,199.65L235.08,201.00L232.29,201.97L229.58,202.54L226.98,202.71L224.52,202.48L222.23,201.85L220.14,200.82L219.64,200.53L217.78,199.12L216.16,197.34L214.81,195.23L214.27,194.00"/><path d="M215.80,192.73L215.54,192.17L214.75,189.51L214.27,186.59L214.11,183.44L214.27,180.12L214.75,176.65L215.54,173.09L216.63,169.48L218.00,165.87L219.65,162.30L221.54,158.83L222.02,158.06L223.65,155.49L225.96,152.34L228.44,149.41L231.04,146.74L233.75,144.36L236.52,142.31L239.32,140.62L242.10,139.29L244.85,138.37L245.05,138.32L247.51,137.84L250.05,137.73L252.45,138.03L254.66,138.73L256.21,139.59L257.94,141.05L259.46,142.91L260.69,145.11L261.63,147.62L262.27,150.42L262.58,153.46L262.58,156.70L262.27,160.10L261.63,163.62L261.02,165.97L260.69,167.21L259.46,170.83L257.94,174.42L256.17,177.95L254.17,181.36L251.95,184.61L249.56,187.65L247.01,190.46L244.35,192.99L241.61,195.20L238.82,197.08L236.02,198.59L233.26,199.72L230.55,200.45L227.94,200.77L225.47,200.67L223.16,200.17L221.26,199.35L219.65,198.24L218.00,196.56L216.63,194.53L216.00,193.17"/></g></g><g><g><path style="stroke:#000000;stroke-width:0.125;stroke-dasharray:2.2 1.5 0.7 1.5" d="M120.45,101.63L172.16,131.30"/><path style="stroke:#000000;stroke-width:0.125;stroke-dasharray:2.2 1.5 0.7 1.5" d="M174.29,132.52L219.80,158.62"/><path style="stroke:#000000;stroke-width:0.125;stroke-dasharray:2.2 1.5 0.7 1.5" d="M221.21,159.43L238.35,169.26"/></g></g><g id="PMI.0"><g><path style="stroke:#000000;stroke-width:0.125" d="M159.31,181.76L171.83,170.91"/></g><g><path style="fill:#000000" d="M172.58,170.91L172.58,170.83L172.57,170.76L172.55,170.69L172.53,170.62L172.50,170.55L172.46,170.49L172.41,170.43L172.36,170.37L172.31,170.33L172.25,170.28L172.19,170.24L172.12,170.21L172.05,170.19L171.98,170.17L171.91,170.16L171.83,170.16L171.76,170.16L171.69,170.17L171.62,170.19L171.55,170.21L171.48,170.24L171.42,170.28L171.36,170.33L171.30,170.37L171.25,170.43L171.21,170.49L171.17,170.55L171.14,170.62L171.12,170.69L171.10,170.76L171.09,170.83L171.08,170.91L171.09,170.98L171.10,171.05L171.12,171.12L171.14,171.19L171.17,171.26L171.21,171.32L171.25,171.38L171.30,171.44L171.36,171.48L171.42,171.53L171.48,171.57L171.55,171.60L171.62,171.62L171.69,171.64L171.76,171.65L171.83,171.66L171.91,171.65L171.98,171.64L172.05,171.62L172.12,171.60L172.19,171.57L172.25,171.53L172.31,171.48L172.36,171.44L172.41,171.38L172.46,171.32L172.50,171.26L172.53,171.19L172.55,171.12L172.57,171.05L172.58,170.98z"/></g><g><text xml:space="preserve" fill="#000000" stroke-width="0" x="147.40" y="187.20" font-size="3.84" opacity="1.00" font-family="Arial">ZOR0267</text></g></g><g id="PMI.1"><g><path style="stroke:#000000;stroke-width:0.125" d="M190.70,198.11L216.00,193.18"/></g><g><path style="fill:#000000" d="M216.75,193.18L216.75,193.10L216.74,193.03L216.72,192.96L216.70,192.89L216.66,192.82L216.63,192.76L216.58,192.70L216.53,192.65L216.48,192.60L216.42,192.55L216.36,192.52L216.29,192.48L216.22,192.46L216.15,192.44L216.08,192.43L216.00,192.43L215.93,192.43L215.86,192.44L215.78,192.46L215.72,192.48L215.65,192.52L215.59,192.55L215.53,192.60L215.47,192.65L215.42,192.70L215.38,192.76L215.34,192.82L215.31,192.89L215.28,192.96L215.27,193.03L215.26,193.10L215.25,193.18L215.26,193.25L215.27,193.32L215.28,193.39L215.31,193.46L215.34,193.53L215.38,193.59L215.42,193.65L215.47,193.71L215.53,193.76L215.59,193.80L215.65,193.84L215.72,193.87L215.78,193.89L215.86,193.91L215.93,193.92L216.00,193.93L216.08,193.92L216.15,193.91L216.22,193.89L216.29,193.87L216.36,193.84L216.42,193.80L216.48,193.76L216.53,193.71L216.58,193.65L216.63,193.59L216.66,193.53L216.70,193.46L216.72,193.39L216.74,193.32L216.75,193.25z"/></g><g><text xml:space="preserve" fill="#000000" stroke-width="0" x="173.71" y="202.17" font-size="3.84" opacity="1.00" font-family="Arial">ZSR0066</text></g></g><g/><g><g/><g><text xml:space="preserve" fill="#000000" stroke-width="0" x="7.92" y="12.61" font-size="4.53" opacity="1.00" font-family="Arial" font-weight="bold">BPA11249</text></g></g><g id="paperID" visibility="hidden" opacity="0.00" transform="scale(0.000100)"><path style="stroke:#000000;stroke-width:0.500;fill:#e6e6e6;fill-rule:evenodd" d="M-2000.00,-2000.00L2297.00,-2000.00L2297.00,2210.00L-2000.00,2210.00zM0.00,0.00L297.00,0.00L297.00,210.00L0.00,210.00z"/><path style="fill:#000000;fill-opacity:0.118" d="M3.00,210.00L297.00,210.00L297.00,3.00L300.00,3.00L300.00,213.00L3.00,213.00z"/></g></g></svg>
