<?xml version="1.0" encoding="UTF-8" standalone="no"?>
<svg xmlns="http://www.w3.org/2000/svg" xmlns:xlink="http://www.w3.org/1999/xlink" width="297.000mm" height="210.000mm" viewBox="0.000000 0.000000 297.000000 210.000000" stroke-linejoin="round" stroke-linecap="round" fill="none" fill-rule="evenodd"><desc>Composer Export</desc><script type="text/ecmascript"><![CDATA[
if(typeof(top) != "undefined")
{
	top.ShowPaper = ShowPaper;
}
function ShowHotSpot(evt,hotspotid)
{
	var svgDocument = evt.target.ownerDocument;
	var strId = "hotspot."+hotspotid;
	var hotspot = svgDocument.getElementById(strId);
	if(hotspot)
		hotspot.setAttribute("opacity",".5");
}
function HideHotSpot(evt,hotspotid)
{
	var svgDocument = evt.target.ownerDocument;
	var strId = "hotspot."+hotspotid;
	var hotspot = svgDocument.getElementById(strId);
	if(hotspot)
		hotspot.setAttribute("opacity","0");

	var toolTip = svgDocument.getElementById('ToolTip');
	if(toolTip)
		toolTip.setAttribute("visibility","hidden");
}
function ShowToolTip(evt,hotspotid,strTooltip)
{
	if(strTooltip=="")
	return;

	// change text
	var svgDocument = evt.target.ownerDocument;
	var tiptext = svgDocument.getElementById('ToolTipText');
	if( !tiptext )
	return;
	tiptext.firstChild.nodeValue = " " + strTooltip + "  " ;

	// show tooltip before, else some refresh issue

	var toolTip = svgDocument.getElementById('ToolTip');
	if(!toolTip)
	return;

	toolTip.setAttribute("visibility","visible");
	toolTip.setAttribute("opacity",".95");

	// move tooltip
	// get viewbox

	var root = svgDocument.documentElement;
	var vbox = (root.getAttribute("viewBox")).split(' ');
	var x0 = parseFloat(vbox[0]);
	var y0 = parseFloat(vbox[1]);
	var vboxW = parseFloat(vbox[2]);
	var vboxH = parseFloat(vbox[3]);

	// get default width of svg

	var strW = root.getAttribute("width");
	var svgW = parseFloat(strW);
	if(strW.indexOf('mm') != -1)
	svgW *= 3.779;

	var strH = root.getAttribute("height");
	var svgH = parseFloat(strH);
	if(strH.indexOf('mm') != -1)
	svgH *= 3.779;  	// 96 dpi  -> 96/25.4 = 3.779

	// update the viewbox / width / height if svg is embedded in html with zoom fit all
	var realx0 = x0;
	var realy0 = y0;
	var realvboxW = vboxW;
	var realvboxH = vboxH;
	var realsvgW = svgW;
	var realsvgH = svgH;

	if ((typeof(top) == "undefined") || (typeof(top.svgctl1) != "undefined")) // embedded in html
	{
		// get window size in pxl

		svgW = window.innerWidth;
		svgH = window.innerHeight;

		// calculate real viewbox

		realsvgW = svgW;
		realsvgH = svgH;
		if((svgW / svgH) > (vboxW / vboxH))
		{
			realvboxW = (vboxH * svgW) / svgH;
			realvboxH = vboxH;
			realx0 = x0 - (realvboxW - vboxW)/2 ;
		}
		else
		{
			realvboxH = (vboxW * svgH) / svgW;
			realvboxW = vboxW;
			realy0 = y0 - (realvboxH - vboxH)/2 ;
		}
	}

	// get user zoom/pan

	var newScale = root.currentScale;
	var translation = root.currentTranslate;

	// transform pxl to user unit

	var xPos = (((evt.clientX+10- translation.x)/newScale) * realvboxW)/realsvgW  + realx0 ;
	var yPos = (((evt.clientY+5- translation.y)/newScale) * realvboxH)/ realsvgH  + realy0 ;
	var scaleForWidth = ( (1 / newScale) * realvboxH) / realsvgH;

	// move tooltip

	toolTip.setAttribute("transform", "translate(" + xPos + "," + yPos + ")" );

	// resize tooltip

	var fontsize = 12;
	tiptext.setAttribute("font-size",fontsize*scaleForWidth);
	tiptext.setAttribute("y", fontsize*scaleForWidth);
	var tipBG = svgDocument.getElementById('ToolTipBG');
	var outline = tiptext.getBBox();
	if(tipBG)
	{
		tipBG.setAttribute("stroke-width", 1*scaleForWidth);
		tipBG.setAttribute("width", Number(outline.width) );
		tipBG.setAttribute("height", Number(outline.height) + fontsize*.5*scaleForWidth );
	}
	var ToolTipShadow = svgDocument.getElementById('ToolTipShadow');
	if(ToolTipShadow)
	{
		ToolTipShadow.setAttribute("width", Number(outline.width) );
		ToolTipShadow.setAttribute("height", Number(outline.height) + fontsize*.5*scaleForWidth );
		ToolTipShadow.setAttribute("x", 3*scaleForWidth);
		ToolTipShadow.setAttribute("y", 3*scaleForWidth);
	}
}
function ShowPaper()
{
  var svgDocument = getDocument();
  var paper = svgDocument.getElementById("paperID");
  if(paper)
  {
    paper.setAttribute("transform","scale(1)");
    paper.setAttribute("opacity","1");
    paper.setAttribute("visibility","visible");
  }
  var svg = svgDocument.getRootElement();
  if(svg)
  {
    svg.setAttribute("width","307.000mm");
    svg.setAttribute("height","220.000mm");
    svg.setAttribute("viewBox","-5.000000 -5.000000 307.000000 220.000000");
  }
}
]]></script><defs/><g><path style="fill:#000000;fill-opacity:0.098;fill-rule:evenodd" d="M87.52,100.63L87.68,101.65L87.86,100.82L88.65,101.32L88.34,101.37L88.15,101.57L88.53,101.57L88.65,101.32L89.58,101.87L89.47,101.93L89.57,103.53L83.46,107.16L83.41,106.36L83.83,105.67L83.83,103.95L83.47,103.40L82.35,102.83L81.93,102.84L81.81,103.65L81.43,104.56L81.27,106.05L78.26,107.82L77.71,107.89L77.71,102.84L77.94,102.82L79.05,103.57L78.86,104.00L78.81,105.48L79.04,105.64L79.55,105.63L80.34,104.94L80.72,104.21L80.72,103.59L80.46,103.75L79.91,103.85L79.97,100.53L80.15,99.35L82.56,100.71L82.67,98.07L83.09,98.06zM136.21,108.50L136.51,108.43L136.68,91.53L137.25,90.63L153.14,81.55L154.87,81.55L154.87,99.80L153.88,99.92L152.60,100.29L137.55,108.93L136.87,108.93zM146.55,90.92L147.16,91.31L147.64,91.31L150.23,89.79L150.45,89.80L150.46,94.84L149.18,95.58L148.43,96.11L147.95,96.20L147.69,95.85L147.47,95.86L147.49,96.05L147.95,96.20L148.08,96.42L149.17,96.98L149.18,98.15L148.56,99.00L147.70,99.20L146.98,98.81L146.79,98.86L146.62,101.46L142.93,103.65L142.32,103.85L142.21,100.46L141.83,100.08L141.40,100.08L138.53,101.65L138.47,96.62L140.55,95.22L140.18,94.78L139.81,94.59L139.80,93.36L140.37,92.46L140.85,92.19L141.28,92.19L141.64,92.41L142.19,92.47L142.38,89.88L146.37,87.59L146.60,87.60zM89.57,103.53L89.47,101.93L89.58,101.87zM79.80,18.76L79.81,33.18L76.48,35.18L76.31,40.15L76.05,40.44L72.81,42.34L72.76,47.05L69.64,48.90L68.95,48.90L68.96,44.55L70.61,43.44L72.48,42.34L72.45,42.12L68.59,39.87L68.16,39.88L64.92,41.79L64.73,68.24L64.75,27.30L65.22,26.67L79.36,18.58L79.62,18.57zM80.15,34.39L80.27,35.37L80.89,35.48L80.86,35.66L79.61,35.65L79.41,35.48L78.86,35.52L78.47,35.13L78.69,34.45L79.79,34.18zM84.20,35.84L84.21,40.52L81.19,42.30L80.69,42.32L80.46,42.16L80.52,37.94L81.56,37.14L83.76,35.84L84.01,35.49zM78.51,37.68L78.13,38.13L78.15,38.60L78.33,38.78L77.71,39.17L77.16,39.24L77.16,37.33L77.77,37.12zM78.68,38.66L79.05,38.59L79.06,39.60L78.66,39.16zM66.54,41.60L67.05,41.17L68.23,41.17L68.33,42.17L69.15,42.27L68.93,42.48L68.40,42.49L67.84,42.06L67.63,42.09L67.47,42.53L67.12,42.49L66.55,41.92zM66.95,44.28L66.56,44.74L66.56,45.22L67.49,45.20L67.48,46.40L66.94,46.32L66.58,45.60L65.94,45.96L65.66,45.97L65.65,43.99L65.96,43.72L66.20,43.73zM130.44,45.41L130.82,47.05L130.81,56.47L115.58,65.30L115.40,55.50L114.77,53.29L115.52,52.74L130.01,44.48L130.09,44.49zM91.56,48.96L87.62,51.30L87.25,51.35L87.30,48.60L91.37,46.32zM84.58,49.24L84.92,50.54L86.60,50.73L86.54,51.09L85.28,51.33L84.20,52.07L84.20,53.20L81.58,54.78L80.71,54.75L78.85,53.64L78.81,53.48L82.92,51.14L82.89,50.24L83.39,49.44L83.95,49.06L84.39,49.04zM97.28,48.44L97.35,56.23L83.05,64.50L82.29,64.56L82.17,62.66L82.18,57.03L83.83,55.93L97.00,48.31zM147.19,66.84L147.71,67.79L147.71,69.69L147.15,70.98L146.24,72.27L144.90,73.13L143.12,73.11L142.76,72.74L142.55,72.21L142.57,71.54L144.69,68.33L146.42,66.51zM142.21,70.55L141.83,70.57L137.96,68.32L137.92,68.15L138.13,68.14zM83.45,72.76L84.01,72.83L84.19,66.20L90.56,62.48L99.26,57.52L99.19,64.49L95.15,66.88L94.96,68.35L93.00,69.51L92.84,72.65L91.12,73.65L91.14,73.85L91.54,74.58L91.53,75.75L90.35,76.40L89.58,76.73L89.67,74.72L89.48,74.75L89.47,76.68L89.58,76.73L89.49,76.85L85.69,79.08L85.17,79.31L85.30,77.41L85.54,77.09L86.03,76.96L85.54,77.09L85.10,77.21L85.07,79.25L85.17,79.31L83.46,80.36L83.47,79.61L83.83,78.87L83.84,77.33L83.27,76.61L81.99,75.85L81.43,77.94L81.25,79.42L78.46,81.02L77.70,81.08L77.71,75.85L78.13,75.85L79.41,76.60L79.04,77.02L78.64,78.25L78.87,78.81L79.72,78.80L80.52,77.95L80.71,77.41L80.72,76.61L80.29,76.80L79.72,76.80L79.97,70.96L80.16,70.91zM173.59,90.55L173.71,96.87L174.45,96.62L226.19,66.86L227.55,65.65L228.48,64.01L228.65,63.19L228.65,66.57L228.48,67.68L228.10,68.41L227.38,69.34L226.00,70.53L173.77,100.53L173.60,107.15L172.43,108.00L171.69,108.25L171.56,90.99L173.41,90.02zM107.67,93.16L107.32,93.71L106.90,93.66L105.12,94.66L104.88,95.51L98.46,99.19L97.17,99.17L95.57,100.16L95.39,101.81L95.39,103.06L95.67,103.04L96.61,102.47L97.06,102.47L97.24,102.75L94.58,104.32L94.04,104.34L94.27,92.43L95.03,91.90L109.15,83.79L109.35,83.58L109.34,94.29L109.12,94.44L108.42,94.43L108.24,93.11zM147.95,96.20L147.49,96.05L147.47,95.86L147.69,95.85zM90.44,102.53L90.81,102.47L91.16,102.67L89.57,103.53L89.58,101.87L89.89,101.91zM116.71,105.97L116.71,106.22L116.12,106.94L115.57,106.49L115.34,106.50L115.21,107.34L115.22,106.04L115.70,105.59L116.13,105.59zM136.21,108.50L135.74,108.34L135.72,108.16L135.94,108.14zM118.84,108.34L117.66,108.85L118.15,108.42L118.91,108.01zM107.16,111.28L107.16,111.93L106.73,112.21L106.96,112.95L106.96,113.57L106.39,113.52L105.85,113.13L105.71,112.52L106.23,112.09L105.86,112.08L105.71,112.52L105.59,111.84L106.15,111.10L106.98,111.09zM104.94,114.96L104.95,119.45L104.78,119.65L98.15,123.47L98.08,124.22L98.64,124.16L105.61,120.11L105.85,117.71L106.43,118.10L106.76,118.17L106.97,116.33L107.17,115.89L106.59,115.50L105.96,115.52L108.73,113.87L117.35,108.91L117.66,108.85L117.60,108.98L109.46,113.69L109.33,122.55L94.40,131.14L94.05,131.14L94.29,119.07L104.05,113.50zM188.84,115.13L188.84,115.77L188.58,116.07L187.71,116.08L187.34,115.87L187.34,115.60L188.67,114.96zM194.70,118.63L194.08,118.63L193.39,119.43L193.41,120.10L193.60,120.29L195.79,121.58L195.79,122.37L193.54,123.60L193.41,126.59L193.18,126.75L192.67,126.74L190.39,125.43L189.56,126.05L189.56,127.27L191.21,128.19L188.46,129.73L188.39,125.07L191.88,123.05L192.07,118.64L195.99,116.44L195.97,119.27L195.64,119.20zM179.22,120.29L180.51,119.53L180.74,119.54L180.74,120.54L180.53,120.68L179.63,120.67zM200.20,121.37L199.78,121.37L199.40,121.57L199.02,122.11L198.55,123.10L197.43,122.48L197.39,122.31L202.17,119.53L202.40,119.54L202.40,122.00L202.21,122.75L201.86,122.70L201.11,122.32zM87.75,127.56L87.64,127.62L87.68,128.27L87.75,127.56L88.28,127.79L88.37,128.20L88.97,128.17L89.71,128.73L90.25,128.92L92.10,130.00L91.73,130.27L91.55,132.85L83.78,137.38L83.21,137.38L83.47,133.76L83.84,133.21L83.83,130.75L83.46,130.20L82.55,129.64L81.93,129.64L81.81,131.19L81.43,132.09L81.25,136.32L79.97,137.06L79.80,147.35L79.26,148.09L65.42,156.10L64.34,156.08L64.32,155.92L64.53,155.77L64.74,130.74L76.85,137.73L77.58,137.99L77.77,129.45L79.05,130.20L78.81,130.57L78.50,131.54L78.49,132.79L78.85,133.36L79.55,133.34L80.53,132.47L80.89,131.55L80.89,130.37L80.66,130.35L80.27,130.60L79.91,130.65L79.97,127.33L80.15,126.15L82.18,127.29L82.54,127.35L82.66,124.68L82.89,124.67zM202.41,124.04L201.85,124.77L201.30,124.88L201.29,127.47L201.86,128.18L203.27,128.20L204.45,127.53L205.71,125.86L206.26,124.21L206.39,121.58L209.40,119.93L209.32,123.41L208.04,124.15L206.63,125.31L206.45,126.42L206.21,126.73L205.48,127.28L205.33,127.68L205.33,129.85L205.90,130.57L207.31,130.58L209.40,129.48L209.38,133.02L206.44,134.69L206.27,132.40L205.71,131.67L204.61,131.10L204.18,131.10L203.69,131.37L202.59,132.29L202.42,133.40L202.23,133.76L201.44,134.26L201.29,134.66L201.06,137.73L198.18,139.46L198.13,135.90L199.94,134.78L200.93,133.93L201.85,132.47L202.23,131.37L202.22,129.66L200.57,128.72L200.20,128.78L198.86,129.47L198.12,129.73L198.18,126.23L200.87,124.69L201.40,123.39L201.79,123.03L202.41,123.03zM195.27,128.36L195.27,128.61L194.67,129.71L194.69,130.93L195.05,131.14L195.79,131.16L196.00,130.94L196.91,131.36L197.46,130.27L197.75,130.01L198.39,130.00L198.58,130.20L198.37,131.18L197.94,131.67L197.01,131.84L196.73,132.12L194.61,133.51L194.27,133.59L194.33,127.80zM225.17,130.75L225.18,132.29L224.80,133.02L223.81,134.05L222.95,134.08L222.54,133.93L222.54,132.05L223.15,131.55L223.81,130.54zM217.47,145.69L217.22,146.18L216.29,147.27L214.82,147.34L214.89,145.32L215.80,144.40L216.09,143.95L217.46,143.97zM147.36,185.61L147.71,186.37L147.70,188.09L147.52,188.83L147.10,189.68L145.71,191.23L144.72,191.71L143.29,191.71L142.75,191.33L142.55,190.79L142.54,190.10L144.69,186.91L146.37,185.09L146.59,185.06zM141.46,188.58L142.21,189.14L141.86,189.13L137.77,186.72L137.74,186.53L137.95,186.54zM130.81,177.26L130.64,178.18L129.74,179.30L115.02,187.73L115.01,187.36L115.40,186.44L115.58,176.71L130.76,168.00L130.83,168.02zM73.55,26.49L73.93,27.05L73.73,28.21L72.94,29.44L72.03,30.18L71.16,30.16L70.80,29.79L70.78,28.38L71.44,27.02L72.57,26.11zM83.45,37.88L83.41,39.54L82.66,40.62L81.61,40.64L81.61,38.66L82.18,37.76L82.91,37.49zM71.89,44.49L71.84,46.14L71.10,47.23L70.05,47.24L70.04,45.26L70.78,44.35L71.11,44.10L71.34,44.10zM124.96,55.66L124.95,57.03L124.40,58.31L123.40,59.33L122.69,59.73L121.83,59.71L121.46,59.35L121.44,57.38L122.13,56.05L123.42,54.93L123.84,54.93zM89.20,66.98L89.53,67.79L89.54,68.42L86.03,70.42L85.42,70.63L85.48,67.85L88.17,66.31L88.60,66.30zM89.20,66.98L89.27,66.71L90.27,66.22L90.99,65.29L91.55,64.38L95.59,62.00L95.76,61.25L97.91,60.05L98.14,60.07L98.16,63.47L93.88,65.97L92.93,67.60L91.67,68.54L90.56,68.58L89.73,67.21zM144.94,70.05L145.43,69.26L145.80,69.07L146.44,69.09L146.44,69.30L145.80,69.62L145.50,70.06L145.14,71.16L144.97,71.13zM92.28,70.80L91.73,71.74L91.55,70.73L83.40,75.32L83.27,75.94L82.89,75.91L82.65,75.73L82.71,75.40L92.29,70.00zM90.33,72.32L89.93,72.31L90.20,71.99L90.42,71.98zM90.41,73.75L90.20,73.69L90.33,72.32L90.43,72.38zM89.50,72.98L89.33,73.93L89.32,72.80L89.62,72.37L89.93,72.31zM86.96,74.09L86.38,74.47L86.32,74.26L86.72,74.01zM88.79,74.50L88.60,74.67L88.58,74.30L88.78,73.65zM87.85,73.90L87.68,74.85L87.67,73.72L87.97,73.29L88.29,73.23zM85.67,74.82L84.98,75.43L85.20,74.91L85.65,74.75zM90.36,76.08L90.00,76.07L90.25,75.76L90.43,74.94zM85.96,76.26L85.60,76.26L85.86,74.98L86.04,74.95zM84.93,76.50L84.87,75.51L84.98,75.43zM89.58,76.73L89.47,76.68L89.48,74.75L89.67,74.72zM89.10,76.78L88.70,76.78L88.90,76.58L89.15,76.58zM88.23,77.23L88.20,75.49L88.38,75.46zM87.92,76.71L87.66,77.40L87.66,76.81L87.88,76.61zM86.74,76.83L86.58,77.78L86.56,76.65L86.90,76.21L87.12,76.21zM85.49,78.87L85.43,78.64L85.64,78.60zM85.30,77.41L85.17,79.31L85.07,79.25L85.10,77.21L85.54,77.09zM105.69,87.05L105.80,88.61L106.24,88.55L107.34,89.25L106.96,89.52L106.77,91.37L106.41,91.32L106.02,91.07L105.79,91.09L105.68,93.20L105.48,93.54L98.45,97.55L98.14,97.55L98.08,96.81L104.68,92.93L104.95,92.65L105.06,86.87L105.49,86.85zM148.83,88.52L148.82,89.15L148.56,89.64L147.82,89.71L147.88,88.77L148.19,88.33L148.63,88.32zM98.88,93.88L98.90,94.09L98.71,94.30L98.51,96.14L98.14,96.09L97.59,95.70L97.60,93.55L97.98,93.31zM87.03,100.95L86.62,100.94L86.90,100.62L87.11,100.62zM86.39,101.28L86.32,101.05L86.62,100.94zM141.31,101.93L141.30,102.18L140.69,103.06L140.12,103.12L140.17,102.17L140.64,101.57zM88.53,101.57L88.15,101.57L88.34,101.37L88.65,101.32zM85.73,101.69L85.38,101.55L85.83,101.35zM87.13,102.38L87.03,100.95L87.12,101.02zM82.67,102.49L83.29,102.12L83.28,102.75L82.88,102.70zM85.96,103.06L85.60,103.06L85.73,101.69L86.03,101.75zM84.93,103.12L84.95,101.97L85.13,101.94zM87.32,102.91L86.63,103.51L86.85,103.00L87.30,102.83zM88.61,103.84L88.55,103.60L88.76,103.57zM88.23,104.03L88.20,102.28L88.38,102.26zM85.85,103.82L85.17,104.08L85.41,103.74zM86.58,104.40L86.52,103.59L86.63,103.51zM87.88,103.83L87.43,104.51L86.89,104.52L87.50,104.02L87.79,103.38L87.88,103.41zM86.04,105.13L85.77,105.44L85.41,105.43L85.86,104.95L86.02,104.12zM85.11,105.87L85.05,104.14L85.17,104.08zM106.23,112.09L105.71,112.52L105.86,112.08zM98.91,120.66L98.71,121.10L98.53,122.92L97.59,122.50L97.54,120.29L97.98,120.11zM208.31,122.30L208.29,122.93L207.92,123.67L207.49,123.99L207.01,123.97L206.76,123.40L207.27,122.28L207.48,122.11L208.11,122.10zM108.43,122.41L100.28,127.07L99.73,127.83L99.07,127.84L95.87,129.65L95.33,129.73L95.33,128.55L98.35,126.90L98.87,127.50L99.25,126.96L99.43,126.23L107.12,121.81L107.34,121.47L107.50,119.98L108.26,119.75zM200.59,126.70L200.58,127.52L200.39,127.88L199.78,128.39L199.29,128.39L199.27,127.13L199.77,126.52L200.40,126.51zM86.40,128.05L85.96,128.01L86.44,127.85zM87.68,128.27L87.64,127.62L87.75,127.56zM83.28,129.35L82.83,129.36L82.83,129.12L83.31,128.94zM86.01,129.75L85.80,129.75L85.86,128.40L86.04,128.36zM85.09,128.97L84.93,129.92L84.91,128.79L85.25,128.34L85.47,128.34zM90.26,129.91L89.99,130.40L89.63,130.40L90.26,129.28zM208.30,131.30L208.29,131.92L207.67,132.77L206.93,132.83L206.76,132.40L207.09,131.46L207.67,130.92L207.91,130.92zM89.17,130.83L88.58,131.19L88.53,130.98L88.98,130.65L89.12,129.08L89.30,129.06zM88.23,131.57L88.20,129.64L88.38,129.61zM87.69,131.59L87.50,131.75L87.48,131.39L87.68,130.56zM86.88,130.75L86.57,131.75L86.57,130.80L87.09,130.18L87.30,130.18zM86.22,132.33L86.03,132.49L86.01,132.12L86.21,131.47zM85.29,133.22L85.26,131.29L85.45,131.26zM200.59,135.71L200.58,136.33L199.96,137.18L199.22,137.25L199.27,136.13L199.96,135.32L200.20,135.32zM73.55,145.07L73.93,145.63L73.92,146.04L73.49,147.28L72.56,148.37L71.84,148.76L71.16,148.75L70.78,148.21L70.78,146.78L71.54,145.51L72.57,144.69zM124.96,174.25L124.95,175.80L124.52,176.65L123.59,177.74L122.50,178.32L122.00,178.32L121.45,177.93L121.44,175.96L122.11,174.60L123.28,173.57L123.84,173.51zM144.94,188.63L145.43,187.83L145.80,187.65L146.45,187.73L145.99,188.03L145.50,188.64L145.14,189.74L144.97,189.71z"/><g id="Actor_.0"><g style="stroke:#000000;stroke-width:0.176"><path d="M95.37,73.79L79.98,82.62L64.59,73.79"/><path d="M64.97,95.41L64.97,75.35L64.82,75.26L64.82,95.23"/><path d="M80.00,99.93L80.00,99.80L80.02,100.08L80.33,102.04L80.36,102.63L80.25,102.68L80.07,102.72L79.88,102.72L79.71,102.68L79.59,102.63L79.59,103.79"/><path d="M79.95,100.00L79.98,99.06L79.97,99.69L79.95,100.06L79.94,100.30L79.95,100.00"/><path d="M79.98,99.25L79.98,99.69L80.01,100.30L80.00,99.96"/><path d="M79.99,99.28L80.00,99.80L79.98,99.36L79.98,99.22L79.98,99.69L79.98,99.06"/><path d="M79.98,82.62L79.98,94.60"/><path d="M83.43,102.03L86.66,100.18"/></g><g style="stroke:#000000;stroke-width:0.529"><path d="M64.82,75.26L64.59,75.13L64.59,73.79"/><path d="M64.82,95.23L64.87,95.33L64.97,95.41L79.59,103.79L79.71,103.84L79.88,103.88L80.07,103.88L80.25,103.84L80.36,103.79L83.43,102.03"/><path d="M92.94,72.40L95.37,73.79L95.37,73.99"/></g></g><g id="Actor_.1"><g style="stroke:#000000;stroke-width:0.176"><path d="M107.77,183.47L111.62,185.67L112.21,185.91L112.75,185.90L113.17,185.65L113.45,185.18L113.54,184.55L113.54,180.16"/><path d="M113.54,175.63L115.46,176.74L130.85,167.91"/><path d="M115.46,176.74L115.46,185.65L115.33,186.73L114.95,187.59L114.34,188.16"/><path d="M123.14,173.68L123.16,173.66L123.78,173.42L124.34,173.45L124.77,173.75L125.02,174.27L125.08,174.97L124.92,175.78L124.57,176.59L124.07,177.33L123.48,177.91L122.84,178.27L122.24,178.38L121.74,178.21L121.40,177.80L121.24,177.17L121.26,176.97L121.55,176.80L122.15,176.22L122.65,175.48L122.96,174.75"/><path d="M121.26,176.97L121.29,176.41L121.55,175.60L121.57,175.55"/></g><g style="stroke:#000000;stroke-width:0.529"><path d="M113.54,180.16L113.54,175.63L128.93,166.81L130.85,167.91L130.85,176.83L130.72,177.90L130.34,178.76L129.73,179.33L114.34,188.16L113.54,188.41L112.61,188.32L111.62,187.90L107.77,185.70L107.77,183.47L113.54,180.16"/><path d="M121.57,175.55L121.98,174.81L122.53,174.14L123.14,173.68L123.15,173.87L123.00,174.67L122.96,174.75"/><path d="M121.57,175.55L122.96,174.75"/></g></g><g id="Actor_.2"><g style="stroke:#000000;stroke-width:0.176"><path d="M135.05,107.90L135.05,107.90"/><path d="M136.97,109.00L136.72,108.85L136.55,108.57L136.50,108.19L136.50,100.84L136.50,92.37L136.55,91.92L136.72,91.46L136.97,91.01L137.29,90.64L137.65,90.37L152.46,81.87L153.15,81.59L153.96,81.44L154.81,81.44L155.62,81.59L156.31,81.87L170.55,90.04L170.91,90.31L171.22,90.68L171.48,91.13L171.64,91.59L171.70,92.04L171.70,107.86L171.64,108.24L171.48,108.52L171.22,108.67"/><path d="M141.79,100.06L141.47,100.06L141.11,100.20L138.42,101.74L138.42,99.53"/><path d="M140.29,103.18L140.48,103.17L140.69,103.07L140.89,102.89L141.06,102.66L141.19,102.40L141.26,102.13L141.26,101.89L141.19,101.70L141.06,101.58L140.89,101.55L140.69,101.60L140.48,101.74L140.29,101.95L140.13,102.20L140.03,102.47L140.00,102.73L140.03,102.95L140.13,103.10L140.29,103.18"/><path d="M141.94,92.58L141.34,92.23L141.32,92.22"/><path d="M142.27,101.78L142.27,103.99L146.69,101.45L144.77,100.35"/><path d="M147.17,91.34L146.91,91.19L146.75,90.91L146.69,90.53L146.69,87.41L144.77,88.52"/><path d="M145.72,98.08L147.02,98.83L146.97,98.81L146.91,98.83L146.84,98.87L146.78,98.93L146.73,99.01L146.70,99.09L146.69,99.17L146.69,101.45"/><path d="M145.24,90.24L145.25,90.24"/><path d="M147.02,98.83L147.62,99.18L147.87,99.24L148.17,99.19L148.48,99.01L148.78,98.72L149.04,98.37L149.22,97.97L149.32,97.57L149.32,97.20L149.22,96.91L149.04,96.73L148.44,96.38L148.40,96.34L148.38,96.28L148.38,96.20L148.41,96.12L148.45,96.04L148.51,95.97L148.57,95.92L150.54,94.79L148.62,93.69"/><path d="M147.80,89.74L147.83,89.78L147.98,89.85L148.17,89.84L148.38,89.74L148.58,89.56L148.76,89.33L148.89,89.07L148.95,88.80L148.95,88.56L148.89,88.37L148.76,88.25L148.58,88.22L148.38,88.27L148.17,88.41L147.98,88.62L147.83,88.87L147.73,89.14L147.69,89.41L147.73,89.62L147.80,89.74"/><path d="M148.62,90.77L150.54,89.66L150.54,94.79"/></g><g style="stroke:#000000;stroke-width:0.529"><path d="M135.44,108.12L134.79,107.75L134.63,107.47L134.57,107.09L134.57,91.27L134.63,90.82L134.79,90.35L135.05,89.91L135.37,89.54L135.73,89.27L150.54,80.77L151.67,80.27L152.98,79.96L154.39,79.86L155.80,79.96L157.11,80.27L158.24,80.77L172.47,88.94L172.83,89.21L173.15,89.58L173.40,90.02L173.57,90.49L173.62,90.93L173.62,106.76L173.57,107.14L173.40,107.42L171.22,108.67L170.91,108.67L170.55,108.54L156.31,100.37L155.62,100.08L154.81,99.93L153.96,99.93L153.15,100.08L152.46,100.37L137.65,108.87L137.29,109.01L136.97,109.00L135.44,108.12"/><path d="M138.42,99.53L138.42,96.61L140.39,95.49L140.45,95.44L140.51,95.37L140.55,95.29L140.58,95.20L140.58,95.13L140.56,95.07L140.53,95.03L139.93,94.68L139.74,94.49L139.65,94.20L139.65,93.84L139.74,93.44L139.93,93.04L140.18,92.68L140.48,92.40L140.79,92.22L141.09,92.16L141.32,92.22L141.94,92.58L141.99,92.59L142.05,92.57L142.12,92.53L142.18,92.47L142.23,92.39L142.26,92.31L142.27,92.23L142.27,89.95L144.77,88.52L144.77,89.43L144.83,89.81L144.99,90.09L145.24,90.24L147.17,91.34L147.49,91.35L147.85,91.21L148.62,90.77L148.62,93.69L146.65,94.81L146.58,94.86L146.53,94.93L146.49,95.01L146.46,95.10L146.46,95.17L146.47,95.23L146.51,95.27L147.11,95.62L147.30,95.81L147.39,96.10L147.39,96.46L147.30,96.86L147.11,97.26L146.86,97.62L146.56,97.90L146.25,98.08L145.95,98.14L145.72,98.08L145.10,97.72L145.04,97.71L144.98,97.72L144.92,97.77L144.86,97.83L144.81,97.91L144.78,97.99L144.77,98.07L144.77,100.35L142.27,101.78L142.27,100.87L142.21,100.49L142.05,100.21L141.79,100.06L139.87,98.96L139.55,98.95L139.19,99.09L138.42,99.53"/></g></g><g id="Actor_.3"><g style="stroke:#000000;stroke-width:0.176"><path d="M193.42,126.62L193.42,127.94L192.27,127.28"/><path d="M198.04,139.51L198.04,135.94L199.71,134.98L200.52,134.37L201.24,133.53L201.81,132.53L202.18,131.48L202.31,130.48L202.18,129.63L201.81,129.00L201.24,128.66L200.52,128.65L199.71,128.96L198.04,129.92L198.04,126.36L193.42,123.71"/><path d="M197.06,131.71L196.67,132.17L195.87,132.77L194.19,133.73L198.04,135.94"/><path d="M194.19,133.73L194.19,127.72L198.04,129.92"/><path d="M194.58,130.76L194.52,130.40L194.52,130.46"/><path d="M194.58,130.74L194.69,130.92"/><path d="M194.52,130.40L194.59,129.94L194.77,129.44"/><path d="M195.00,129.04L195.10,128.89L195.48,128.47L195.49,128.46"/><path d="M195.92,122.27L197.08,121.61L195.92,120.95"/><path d="M198.77,122.51L198.59,123.01L198.57,123.13L197.27,122.38L202.46,119.41L206.31,121.61L206.31,123.55L206.18,124.55L205.81,125.60L205.24,126.60L205.04,126.83L204.52,127.44L203.71,128.05L202.91,128.36L202.19,128.35L201.61,128.01L201.24,127.39L201.12,126.53L201.12,124.59L198.04,126.36"/><path d="M198.57,123.13L201.12,124.59"/><path d="M199.00,122.11L199.10,121.95L199.48,121.54L199.90,121.26"/><path d="M199.28,137.30L199.49,137.37L199.74,137.32L199.87,137.26L200.00,137.17L200.25,136.93L200.45,136.63L200.59,136.29L200.62,136.19L200.66,135.96L200.64,135.67L200.53,135.45L200.35,135.33L200.12,135.32L199.87,135.42L199.61,135.62L199.38,135.89L199.22,136.19L199.20,136.22L199.10,136.56L199.07,136.87L199.14,137.13L199.28,137.30"/><path d="M199.28,128.39L199.49,128.45L199.74,128.41L200.00,128.26L200.25,128.02L200.45,127.71L200.59,127.38L200.66,127.05L200.64,126.76L200.53,126.54L200.35,126.42L200.12,126.41L199.87,126.50L199.80,126.56L199.61,126.70L199.38,126.98L199.20,127.30L199.10,127.64L199.07,127.88L199.07,127.96L199.14,128.21L199.28,128.39"/><path d="M199.82,121.31L200.18,121.21"/><path d="M200.11,121.23L200.35,121.27"/><path d="M202.46,119.41L202.46,121.34L202.34,122.35L202.14,122.89"/><path d="M206.31,134.76L206.31,132.82L206.18,131.97L205.81,131.34L205.24,131.00L204.52,130.99L203.71,131.30L202.91,131.91L202.26,132.67"/><path d="M209.39,129.43L207.72,130.39L206.91,130.70L206.19,130.69L205.61,130.35L205.25,129.73L205.12,128.87L205.25,127.87L205.54,127.03"/><path d="M205.45,127.27L205.47,127.26"/><path d="M206.31,121.61L209.39,119.85"/><path d="M207.18,132.95L206.98,132.89L206.83,132.71L206.77,132.46L206.79,132.14L206.90,131.80L207.07,131.48L207.30,131.20L207.50,131.06L207.56,131.01L207.82,130.91L208.05,130.92L208.23,131.04L208.33,131.26L208.36,131.47L208.35,131.55L208.29,131.88L208.15,132.22L207.94,132.52L207.69,132.76L207.43,132.91L207.18,132.95"/><path d="M207.18,124.04L207.43,124.00L207.69,123.85L207.94,123.61L208.15,123.30L208.29,122.96L208.35,122.63L208.33,122.34L208.23,122.13L208.05,122.01L207.82,121.99L207.56,122.09L207.30,122.29L207.29,122.31L207.07,122.57L206.90,122.89L206.79,123.23L206.77,123.54L206.83,123.80L206.98,123.97L207.18,124.04"/></g><g style="stroke:#000000;stroke-width:0.529"><path d="M194.92,137.72L193.42,136.86L193.42,132.62L192.27,131.96L192.27,127.28L193.42,126.62L193.42,123.71L195.92,122.27L195.92,120.95L199.96,118.63L201.12,119.30L204.77,117.20L209.39,119.85L209.39,123.41L207.72,124.37L206.91,124.98L206.19,125.82L205.61,126.82L205.54,127.03"/><path d="M194.77,129.44L194.79,129.39L195.00,129.04"/><path d="M202.26,132.67L202.19,132.75L201.61,133.75L201.24,134.80L201.12,135.80L201.12,137.74L198.04,139.51L195.76,138.20"/><path d="M198.77,122.51L198.79,122.46L199.00,122.11"/><path d="M205.58,127.24L209.39,129.43L209.39,133.00L206.31,134.76L202.54,132.60"/></g></g><g id="Actor_.4"><g style="stroke:#000000;stroke-width:0.176"><path d="M138.94,64.60L138.69,64.77L138.21,65.24L137.81,65.83L137.53,66.48L137.41,67.12"/><path d="M146.97,66.67L146.42,66.50L145.78,66.56L145.10,66.85L144.41,67.35L143.77,68.02L143.23,68.82L142.81,69.70L142.54,70.59L142.45,71.43L142.54,72.18L142.81,72.76L143.23,73.16"/><path d="M142.25,70.77L142.30,70.33L142.55,69.49L142.95,68.66L143.46,67.90L144.07,67.27L144.41,67.02"/><path d="M146.94,69.44L146.94,69.44L147.07,69.70L147.10,70.05L147.02,70.45L146.84,70.86L146.59,71.23L146.30,71.52L146.14,71.62L145.98,71.70L145.68,71.75L145.43,71.67L145.26,71.46L145.18,71.15L145.20,70.77L145.33,70.36L145.55,69.97L145.82,69.64L146.14,69.40L146.45,69.28L146.73,69.29L146.94,69.44L146.84,69.35L146.78,69.23"/><path d="M145.43,71.67L145.30,71.63"/><path d="M145.42,71.72L145.55,71.71"/></g><g style="stroke:#000000;stroke-width:0.529"><path d="M143.19,66.31L144.41,67.02L144.71,66.80L145.36,66.52L145.50,66.49L146.12,66.43L146.27,66.44L146.82,66.61L146.97,66.67L147.39,67.07L147.66,67.65L147.73,67.98L147.82,68.67L147.73,69.45L147.68,69.63L147.47,70.37L147.12,71.09L146.67,71.75L146.14,72.31L146.00,72.45L145.37,72.91L144.74,73.17L144.41,73.27L143.77,73.33L143.23,73.16L143.10,73.06L142.68,72.67L142.59,72.54L142.34,71.96L142.30,71.83L142.21,71.13L142.25,70.77L138.00,68.33L137.65,68.10L137.45,67.68L137.41,67.12L137.41,66.71L137.50,66.23L137.71,65.74L138.01,65.30L138.37,64.95L138.56,64.83L138.94,64.60L139.20,64.48L139.67,64.40L140.07,64.53L142.36,65.84"/></g></g><g id="Actor_.5"><g style="stroke:#000000;stroke-width:0.176"><path d="M177.22,120.04L177.31,120.10L177.37,120.19L177.37,121.96"/><path d="M188.42,129.75L188.42,125.07L186.50,123.97L186.50,125.42L177.47,120.24L177.37,120.19"/><path d="M180.06,120.91L178.19,119.84"/><path d="M178.16,119.50L178.34,119.39L178.34,118.29L179.61,118.94L179.44,118.88L179.21,118.89L178.34,119.39"/><path d="M177.38,116.38L178.34,118.29"/><path d="M180.46,120.67L180.69,120.54L180.82,120.38L180.88,120.14L180.86,119.83L180.76,119.50L180.61,119.18L180.41,118.90L180.18,118.70L183.68,121.09L186.17,122.52L184.62,123.41"/><path d="M181.13,114.22L184.75,116.07L185.52,116.52L185.63,116.45L184.00,117.38"/><path d="M182.21,118.41L182.32,118.35"/><path d="M186.50,123.97L189.45,122.28L189.23,121.77L189.32,121.53L189.59,121.01L189.95,120.56L190.15,120.40L190.15,121.87L189.45,122.28"/><path d="M188.15,116.26L186.12,115.29"/><path d="M186.29,114.84L186.53,114.96"/><path d="M188.42,125.07L192.08,122.98L192.08,118.68L196.12,116.36"/><path d="M192.12,116.44L188.11,114.14L188.36,114.33L188.59,114.60L188.76,114.92L188.86,115.24L188.88,115.55L188.82,115.80L188.68,115.96L188.43,116.11"/><path d="M192.08,131.96L192.08,128.84L189.76,127.52L189.71,127.50"/><path d="M190.15,128.76L191.04,128.25"/><path d="M190.15,121.87L192.08,122.98"/><path d="M190.15,120.40L190.15,117.57L190.47,117.39"/><path d="M190.15,117.57L192.08,118.68"/><path d="M190.57,117.33L192.83,116.03"/><path d="M190.85,125.63L190.89,125.67L192.99,126.87"/><path d="M192.08,128.84L192.27,128.95"/><path d="M195.92,121.83L193.77,120.59L193.71,120.57"/><path d="M198.00,129.90L197.79,129.98L197.54,130.17L197.32,130.44L197.14,130.75L197.04,131.08L197.02,131.31L197.02,131.38L197.08,131.63L197.22,131.80L194.54,130.26"/><path d="M199.77,118.56L197.18,120.05L194.90,118.74L194.85,118.70"/><path d="M196.12,119.44L196.12,117.92"/><path d="M196.12,118.45L196.58,118.19"/><path d="M197.22,131.80L197.42,131.86L197.66,131.82L197.92,131.67L198.16,131.44L198.35,131.15L198.49,130.82L198.56,130.50L198.53,130.22L198.45,130.05"/><path d="M197.18,120.05L197.34,120.14"/><path d="M198.26,129.89L198.10,129.89"/><path d="M199.77,121.53L199.62,121.45"/><path d="M201.12,124.80L201.22,124.87L201.42,124.93L201.66,124.89L201.92,124.74L202.16,124.51L202.36,124.22L202.49,123.89L202.56,123.57L202.54,123.29L202.45,123.12"/><path d="M201.22,124.87L201.12,124.74"/><path d="M202.26,122.96L202.04,122.95L201.79,123.05L201.54,123.24L201.32,123.51L201.15,123.82L201.04,124.15L201.02,124.38L201.02,124.45L201.05,124.55"/></g><g style="stroke:#000000;stroke-width:0.529"><path d="M192.83,116.03L188.82,113.73L188.72,113.68L188.49,113.69L188.14,113.77L186.29,114.84L185.27,114.31L181.69,113.90L181.13,114.22L181.13,115.56L184.00,117.38L182.32,118.35L181.55,117.91L177.94,116.06L177.38,116.38L177.38,117.71L178.16,119.50L177.22,120.04L177.14,120.10L177.12,120.17L177.10,120.28L177.09,120.40L177.09,120.55L177.10,120.71L177.12,120.89L177.18,121.26L177.26,121.62L177.37,121.96L177.47,122.03L186.50,127.20L186.50,128.65L188.42,129.75L190.15,128.76L190.15,130.86L192.08,131.96L192.27,131.85"/><path d="M180.28,121.04L180.06,120.91L180.46,120.67L183.68,122.87L184.62,123.41L184.52,123.47L180.28,121.04"/><path d="M190.47,117.39L190.30,117.29L188.15,116.26L188.43,116.11L190.57,117.33"/><path d="M190.47,117.39L190.57,117.33"/><path d="M192.83,116.03L194.19,115.26L196.12,116.36L196.12,117.92L196.58,118.19L197.85,117.46L199.77,118.56L199.77,118.74"/><path d="M198.45,130.05L198.43,130.01L198.26,129.89L198.18,129.84"/><path d="M202.45,123.12L202.43,123.08L202.26,122.96L199.77,121.53"/><path d="M202.47,132.42L202.54,132.56L202.56,132.84L202.49,133.16L202.36,133.49L202.16,133.78L201.92,134.01L201.66,134.16L201.46,134.20"/><path d="M206.47,125.49L206.54,125.63L206.56,125.91L206.50,126.23L206.36,126.56L206.16,126.85L205.92,127.08L205.66,127.23L205.46,127.27"/></g></g><g id="Actor_.6"><g style="stroke:#000000;stroke-width:0.176"><path d="M66.40,44.04L66.51,43.99L66.59,43.93"/><path d="M71.95,145.06L72.01,145.00L72.55,144.69L73.06,144.60L73.49,144.74L73.78,145.09L73.91,145.62L73.87,146.27L73.65,146.96L73.29,147.63L72.81,148.20L72.28,148.60L71.75,148.80L71.28,148.78L70.91,148.53L70.70,148.08L70.65,147.49L70.70,147.24"/><path d="M71.95,26.50L72.01,26.44L72.55,26.13L73.06,26.04L73.49,26.18L73.78,26.53L73.91,27.06L73.87,27.71L73.65,28.40L73.29,29.07L72.81,29.64L72.28,30.04L71.75,30.25L71.28,30.22L70.91,29.97L70.70,29.52L70.65,28.93L70.70,28.68"/><path d="M78.13,37.31L78.05,37.37L77.94,37.42"/></g><g style="stroke:#000000;stroke-width:0.529"><path d="M66.37,155.54L65.28,156.16L65.05,156.25L64.78,156.25L63.00,155.25L62.95,155.20L62.82,154.97L62.78,154.72L62.78,26.80L62.81,26.49L62.91,26.21L63.07,25.95L63.26,25.72L63.47,25.56L77.32,17.61L77.59,17.50L77.86,17.50L77.93,17.52L79.64,18.51L79.69,18.55L79.83,18.79L79.86,19.03L79.86,33.25"/><path d="M67.49,154.90L79.17,148.20L79.39,148.03L79.58,147.81L79.73,147.55L79.83,147.27L79.86,147.00L79.86,137.09"/><path d="M70.86,147.11L70.70,147.24L70.79,146.81L71.08,146.12L71.50,145.49L71.95,145.06L71.94,145.16L71.73,145.86L71.36,146.52L70.86,147.11"/><path d="M70.70,28.68L70.79,28.25L71.08,27.56L71.50,26.93L71.95,26.50L71.94,26.60L71.73,27.30L71.36,27.96L70.89,28.53L70.70,28.68"/></g></g><g id="Actor_.7"><g style="stroke:#000000;stroke-width:0.176"><path d="M115.46,65.31L115.46,56.40L115.33,55.17L114.95,53.87L114.34,52.60L113.54,51.43L112.61,50.46L111.62,49.73L107.77,47.53"/><path d="M123.14,55.14L123.48,54.95L124.07,54.85L124.57,55.01L124.92,55.43L125.08,56.05L125.02,56.81L124.77,57.63L124.34,58.41L123.78,59.08L123.16,59.56L122.53,59.80L121.98,59.77L121.55,59.47L121.29,58.95L121.26,58.44"/></g><g style="stroke:#000000;stroke-width:0.529"><path d="M108.38,50.10L107.77,49.75L107.77,47.53L123.16,38.70L127.01,40.90L128.00,41.63L128.93,42.61L129.73,43.77L130.34,45.04L130.72,46.34L130.85,47.57L130.85,56.48L115.46,65.31L113.54,64.21L113.54,55.29L113.45,54.55L113.17,53.77L112.75,53.04L112.21,52.41L111.62,51.96L108.38,50.10"/><path d="M121.24,58.25L121.26,58.44L121.86,57.98L122.42,57.31L122.85,56.52L123.10,55.70L123.14,55.14L122.84,55.31L122.24,55.90L121.74,56.63L121.40,57.45L121.24,58.25"/></g></g><g id="Actor_.8"><g style="stroke:#000000;stroke-width:0.176"><path d="M64.59,100.53L79.98,109.36L79.98,121.63"/><path d="M64.97,122.15L64.97,102.09L64.82,102.01L64.82,121.98"/><path d="M79.59,130.54L79.59,129.38L79.71,129.43L79.88,129.46L80.07,129.46L80.25,129.43L80.36,129.38L80.33,128.78L80.02,126.82L79.98,126.10L79.98,125.97L79.98,126.43L80.01,127.04L80.00,126.71"/><path d="M79.94,127.04L79.97,126.43L79.98,125.80L79.95,126.83"/><path d="M79.98,125.80L79.98,126.43L79.98,125.99"/><path d="M80.00,126.67L79.99,126.02"/><path d="M79.98,114.44L79.98,114.52L79.98,114.36L79.98,114.44"/><path d="M79.98,109.36L91.32,102.85"/><path d="M83.43,128.77L86.66,126.92"/></g><g style="stroke:#000000;stroke-width:0.529"><path d="M64.82,102.00L64.59,101.87L64.59,100.53"/><path d="M64.82,121.98L64.87,122.07L64.97,122.15L72.69,126.58"/><path d="M83.43,128.77L80.36,130.54L80.25,130.59L80.07,130.62L79.88,130.62L79.71,130.59L79.59,130.54L73.56,127.08"/></g></g><g id="Actor_.9"><g style="stroke:#000000;stroke-width:0.176"><path d="M173.62,100.63L173.62,97.06L225.47,67.33L226.82,66.38L227.83,65.30L228.45,64.13L228.66,62.91"/><path d="M192.19,68.23L192.39,67.99L192.80,66.97L192.80,65.92L192.39,64.90L191.60,63.95L190.46,63.13L188.53,62.03L187.39,61.21L186.60,60.27L186.19,59.24"/><path d="M210.51,61.87L213.62,60.09L197.00,50.55"/></g><g style="stroke:#000000;stroke-width:0.529"><path d="M164.74,84.50L190.46,69.75L191.60,68.93L192.19,68.23L191.60,67.52L190.46,66.70L188.53,65.60L187.39,64.78L186.60,63.83L186.19,62.81L186.19,58.20L186.60,57.18L187.39,56.23L188.53,55.41L190.46,54.31L207.08,63.84L210.51,61.87L197.00,54.12L197.00,50.55L198.54,49.67L199.97,49.02L201.61,48.56L203.39,48.33L205.22,48.33L207.00,48.56L208.65,49.02L210.08,49.67L225.47,58.50L226.82,59.44L227.83,60.52L228.45,61.69L228.66,62.91L228.66,66.48L228.45,67.70L227.83,68.87L226.82,69.95L225.47,70.89L173.62,100.63"/></g></g><g id="Actor_.10"><g style="stroke:#000000;stroke-width:0.176"><path d="M83.29,124.99L83.08,124.87L83.37,125.03L83.29,124.99"/><path d="M93.98,131.12L83.02,124.83L83.03,124.84"/><path d="M83.08,124.87L82.99,124.83L82.89,124.83"/><path d="M83.02,124.83L83.02,124.83"/><path d="M84.69,125.79L85.29,126.14"/><path d="M95.28,129.69L95.28,129.69L95.28,129.73L95.28,129.72"/><path d="M95.28,129.69L95.28,128.91L95.28,129.70"/><path d="M95.28,129.74L95.29,129.75L95.28,129.73"/><path d="M95.28,129.68L95.28,129.64"/><path d="M95.28,128.36L95.28,128.91L95.27,127.29L95.29,127.17L95.29,127.18"/><path d="M99.11,127.86L99.10,127.84L99.07,127.76L99.00,127.67L98.42,126.94L98.39,126.92L98.35,126.90L98.30,126.91L98.25,126.93L95.28,128.63"/><path d="M95.29,127.17L95.33,127.07L95.36,127.03L95.40,126.99L95.47,126.93L95.46,126.93"/><path d="M95.47,126.93L95.69,126.81L95.64,126.83"/><path d="M95.69,126.81L101.08,123.71L100.04,124.31"/><path d="M98.02,124.23L97.96,124.12L97.94,124.00L97.94,124.05"/><path d="M97.94,124.00L97.95,122.72L97.73,122.59L97.67,122.57L97.67,122.58L97.68,122.58"/><path d="M97.95,122.72L98.54,123.06L98.60,123.07L98.64,123.08L98.70,123.07L98.74,123.06L99.01,122.90L99.04,122.88L99.07,122.84L99.09,122.80L99.11,122.76L99.11,122.72L99.11,120.85L99.10,120.81L99.06,120.72L99.01,120.68L98.16,120.19"/><path d="M97.94,119.84L97.94,119.55L97.94,119.78L97.95,119.86L97.94,119.80"/><path d="M97.95,119.82L97.96,119.90L98.02,120.03L98.11,120.14"/><path d="M97.94,119.55L97.94,118.26L97.94,118.51"/><path d="M97.94,118.26L97.96,118.10L98.03,117.90L98.14,117.70L98.29,117.54L98.41,117.45L104.38,114.02"/><path d="M107.30,120.14L107.30,121.55L107.29,121.62L107.25,121.71L107.21,121.77L107.16,121.81L99.41,126.26L99.36,126.30L99.31,126.35L99.27,126.41L99.25,126.47L99.22,126.55L99.22,126.62L99.22,126.92L99.21,126.99L99.18,127.07L99.13,127.15L99.07,127.22L99.02,127.26L98.78,127.40"/><path d="M97.98,124.15L98.03,124.18"/><path d="M98.10,120.13L98.20,120.21"/><path d="M99.10,127.84L99.09,127.84"/><path d="M99.07,127.76L99.04,127.73"/><path d="M99.10,127.86L99.10,127.85L99.11,127.87L99.10,127.85"/><path d="M99.03,127.72L99.04,127.72"/><path d="M99.10,127.85L99.10,127.85"/><path d="M101.08,123.71L102.89,122.67L102.13,123.11"/><path d="M102.89,122.67L104.21,121.92L103.17,122.51"/><path d="M104.21,121.92L108.23,119.61"/><path d="M106.44,115.45L107.28,115.93L107.33,115.97L107.38,116.06L107.38,116.11L107.38,117.98L107.38,118.02L107.36,118.06L107.34,118.10L107.31,118.13L107.28,118.16L107.01,118.31L106.97,118.33L106.87,118.33L106.81,118.31L106.00,117.85L105.90,117.81"/><path d="M106.44,115.44L106.47,115.47"/><path d="M108.23,122.49L108.23,122.50"/><path d="M108.28,119.59L108.22,119.62"/><path d="M108.23,119.61L108.25,119.60"/><path d="M107.38,116.11L107.38,116.13"/><path d="M108.43,119.73L108.42,119.73"/></g><g style="stroke:#000000;stroke-width:0.529"><path d="M91.32,102.85L80.27,109.20L80.18,109.26L80.10,109.36L80.03,109.47L79.99,109.58L79.98,109.70L79.98,113.32L79.98,125.96L79.99,126.06L80.03,126.13L82.50,127.55L82.60,127.58L82.68,127.58L82.77,127.57L82.84,127.55L85.29,126.14L94.04,131.16L94.14,131.19L94.22,131.19L94.31,131.19L94.38,131.16L109.20,122.66L109.31,122.58L109.36,122.53L109.40,122.46L109.42,122.40L109.43,122.33L109.43,113.72"/></g></g><g id="Actor_.11"><g style="stroke:#000000;stroke-width:0.176"><path d="M72.69,126.58L64.59,121.93"/><path d="M77.40,129.28L73.56,127.08"/><path d="M80.94,130.21L80.96,130.35L80.96,131.11L80.90,131.59L80.72,132.10L80.44,132.58L80.10,132.98L79.71,133.28L79.32,133.43L78.97,133.42L78.70,133.26L78.52,132.96L78.46,132.54L78.46,131.79L78.52,131.30L78.70,130.80L78.97,130.32L79.05,130.23"/><path d="M81.12,136.37L81.11,136.37L81.12,136.37"/><path d="M81.09,136.38L81.10,136.37"/><path d="M81.37,136.37L81.38,136.37"/><path d="M83.79,137.35L91.48,132.94"/><path d="M83.69,128.91L83.44,128.77"/><path d="M85.31,131.48L85.12,131.37L85.12,133.16L85.31,133.27L85.31,131.48L85.66,131.28L86.02,131.12L86.21,131.11L86.38,131.19L86.47,131.35L86.53,130.99L86.65,130.70L86.73,130.56L86.90,130.36L87.15,130.17L87.30,130.10L87.49,130.07L87.64,130.13L87.83,130.24L87.69,130.18L87.49,130.21L87.34,130.28L87.09,130.47L86.93,130.67L86.84,130.81L86.73,131.10L86.66,131.45L86.66,131.60L86.70,131.96L86.80,132.14L86.84,132.18L87.00,132.24L87.18,132.21L87.34,132.14L87.59,131.95L87.75,131.76L87.83,131.61L87.94,131.35L88.01,130.96L88.02,130.82L87.97,130.47L87.87,130.28L87.83,130.24"/><path d="M85.31,133.27L85.67,133.06L85.97,132.86L86.18,132.64L86.21,132.61L86.36,132.36L86.47,132.07L86.51,131.83L86.51,131.85L86.61,132.03L86.65,132.07L86.84,132.18"/><path d="M85.12,131.37L85.47,131.17L85.83,131.01L86.02,131.00L86.19,131.08L86.38,131.19"/><path d="M86.20,128.04L86.01,127.93L85.45,128.25L85.15,128.48L85.00,128.65L84.88,128.88L84.78,129.18L84.74,129.56L84.78,129.91L84.88,130.08L84.98,130.15L85.17,130.26L85.07,130.19L84.98,130.02L84.93,129.67L84.97,129.30L85.07,128.99L85.19,128.76L85.34,128.59L85.65,128.36L86.20,128.04L86.20,129.83L85.67,130.13L85.51,130.21L85.40,130.26L85.28,130.28L85.17,130.26"/><path d="M85.41,130.03L85.33,130.03L85.24,129.96L85.21,129.92L85.33,129.89L85.48,129.81L85.81,129.62L86.00,129.73L85.68,129.92L85.52,130.00L85.41,130.03"/><path d="M85.81,129.62L85.81,128.48L85.67,128.56L85.43,128.73L85.33,128.84L85.29,128.90L85.22,129.07L85.15,129.35L85.14,129.56L85.17,129.85L85.21,129.92"/><path d="M86.01,132.20L85.90,132.38L85.87,132.43L85.72,132.58L85.52,132.72L85.52,132.94L85.67,132.85L85.91,132.69L86.06,132.54L86.10,132.49L86.20,132.31L86.27,132.12L86.31,131.80L86.28,131.55L86.22,131.43L86.12,131.37L86.08,131.36L86.05,131.36L86.09,131.44L86.12,131.71L86.08,132.01L86.01,132.20"/><path d="M85.52,132.72L85.52,131.57L85.67,131.48L85.90,131.37L86.05,131.36"/><path d="M86.19,131.08L86.19,131.09"/><path d="M86.47,131.35L86.48,131.36L86.52,131.68L86.52,131.73L86.51,131.83"/><path d="M86.00,129.73L86.00,128.37L85.81,128.48"/><path d="M86.44,128.05L86.44,127.90L87.41,127.35L87.41,129.14L87.20,129.25L87.01,129.14L87.01,127.79L86.44,128.12L86.44,128.05"/><path d="M86.44,127.90L86.25,127.79L86.25,128.01L86.44,128.12"/><path d="M87.41,127.35L87.21,127.24L86.25,127.79"/><path d="M87.02,131.88L86.96,131.88L86.92,131.81L86.87,131.48L86.87,131.39L86.92,131.07L87.00,130.87L87.07,130.74L87.17,130.61L87.34,130.49L87.46,130.43L87.53,130.43L87.58,130.54L87.61,130.83L87.58,131.18L87.51,131.40L87.41,131.58L87.30,131.71L87.15,131.82L87.02,131.88"/><path d="M86.96,131.88L87.00,131.94L87.10,131.99L87.21,131.99L87.34,131.94L87.49,131.82L87.60,131.69L87.70,131.51L87.77,131.30L87.81,130.94L87.77,130.65L87.70,130.50L87.68,130.48L87.58,130.43L87.53,130.43"/><path d="M87.20,129.25L87.20,127.68L87.01,127.79"/><path d="M87.57,127.44L87.51,127.61L87.47,127.99L87.51,128.31L87.62,128.49L87.96,128.69L87.81,128.60L87.70,128.42L87.66,128.10L87.71,127.72L87.76,127.55"/><path d="M89.11,130.85L88.94,130.75L88.45,131.04L88.45,131.26L89.14,130.86L89.11,130.85L89.10,129.09L89.45,128.89L89.81,128.73"/><path d="M88.24,130.99L88.24,131.58L88.05,131.47L88.05,129.69L88.26,129.57L88.45,129.68L88.24,129.80L88.24,130.99"/><path d="M88.24,131.58L89.14,131.07L89.14,130.86"/><path d="M88.45,131.04L88.45,129.68"/><path d="M88.05,129.69L88.24,129.80"/><path d="M87.91,127.64L87.90,127.70L87.87,127.98L87.91,128.28L87.96,128.35L88.00,128.36L88.16,128.31L88.20,128.29L88.38,128.15L88.52,127.99"/><path d="M87.96,128.35L88.00,128.41L88.07,128.45L88.20,128.47L88.36,128.42L88.39,128.40L88.57,128.26L88.71,128.10"/><path d="M88.85,128.18L88.67,128.39L88.40,128.60L88.16,128.69L87.96,128.69"/><path d="M87.77,128.58L87.77,128.58"/><path d="M89.50,130.43L89.50,129.29L89.66,129.20L89.89,129.09L90.03,129.07L90.07,129.15L90.10,129.40L90.07,129.72L90.00,129.92L89.89,130.10L89.85,130.14L89.70,130.30L89.50,130.43L89.50,130.66L89.66,130.57L89.90,130.41L90.05,130.25L90.08,130.21L90.19,130.03L90.26,129.83L90.30,129.53L90.26,129.26L90.20,129.15L90.11,129.08L90.06,129.07L90.03,129.07"/><path d="M89.14,130.89L89.30,130.98L89.65,130.78L89.96,130.57L90.17,130.36L90.20,130.32L90.35,130.07L90.46,129.78L90.51,129.45L90.51,129.39L90.47,129.11"/><path d="M89.30,130.98L89.30,129.20L89.65,129.00L90.00,128.84"/><path d="M89.10,129.09L89.30,129.20"/><path d="M91.67,132.65L91.67,132.66L91.67,132.56L91.67,132.65"/><path d="M91.67,130.31L91.67,129.95L91.67,132.56"/><path d="M91.67,129.95L91.67,129.80"/></g><g style="stroke:#000000;stroke-width:0.529"><path d="M64.82,121.80L64.59,121.93L64.59,130.62L64.59,130.65L64.61,130.69L64.63,130.72L64.66,130.75L70.99,134.38"/><path d="M71.86,134.88L77.48,138.10L77.59,138.15L77.72,138.17L77.86,138.17L77.98,138.15L78.09,138.10L78.35,137.95"/><path d="M92.12,130.06L91.67,130.31L91.67,132.66L91.66,132.72L91.57,132.87L91.48,132.94L91.44,132.96L83.74,137.38L83.65,137.42L83.51,137.44L83.37,137.44L83.23,137.42L83.14,137.38L81.37,136.37L81.28,136.34L81.21,136.34L81.12,136.37L78.16,138.06L78.48,137.88"/><path d="M81.11,136.37L81.10,136.37"/></g></g><g id="Actor_.12"><g style="stroke:#000000;stroke-width:0.176"><path d="M138.94,183.16L138.69,183.33L138.21,183.80L137.81,184.39L137.53,185.04L137.41,185.68"/><path d="M143.23,191.72L142.81,191.32L142.54,190.74L142.45,189.99L142.54,189.15L142.81,188.26L143.23,187.38L143.77,186.58L143.81,186.54L144.41,185.90L145.10,185.41L145.78,185.12L145.89,185.11L146.42,185.06L146.97,185.23"/><path d="M142.25,189.33L142.30,188.89L142.55,188.05L142.95,187.22L143.46,186.46L144.07,185.83L144.41,185.57"/><path d="M145.42,190.28L145.55,190.27L145.43,190.23L145.26,190.02L145.18,189.71L145.20,189.33L145.33,188.92L145.55,188.53L145.82,188.20L146.14,187.96L146.45,187.84L146.73,187.85L146.94,187.99L146.84,187.91L146.78,187.79"/><path d="M145.55,190.27L145.68,190.31L145.98,190.26L146.14,190.18L146.30,190.08L146.59,189.79L146.84,189.42L147.02,189.01L147.10,188.61L147.07,188.26L146.94,188.00L146.94,187.99"/><path d="M145.43,190.23L145.30,190.19"/></g><g style="stroke:#000000;stroke-width:0.529"><path d="M139.34,187.66L142.25,189.33L142.21,189.69L142.30,190.39L142.34,190.52L142.59,191.10L142.68,191.23L143.10,191.62L143.23,191.72L143.77,191.89L144.41,191.83L144.74,191.73L145.37,191.46L146.00,191.00L146.14,190.87L146.67,190.31L147.12,189.65L147.47,188.93L147.68,188.19L147.73,188.01L147.82,187.23L147.73,186.54L147.66,186.21L147.39,185.63L146.97,185.23L146.82,185.17L146.27,185.00L146.12,184.99L145.50,185.05L145.36,185.08L144.71,185.36L144.41,185.57L140.07,183.09L139.67,182.96L139.20,183.04L138.94,183.16L138.56,183.39L138.37,183.51L138.01,183.86L137.71,184.30L137.50,184.79L137.41,185.27L137.41,185.68L137.45,186.24L137.65,186.66L138.00,186.89L138.35,187.09"/></g></g><g id="Actor_.13"><g style="stroke:#000000;stroke-width:0.176"><path d="M209.06,140.80L208.81,141.01L208.60,141.29L208.45,141.61L208.36,141.94L208.36,142.23"/><path d="M215.16,143.54L213.94,145.05L213.94,146.49"/><path d="M213.94,145.06L213.80,145.58"/><path d="M213.94,145.05L214.74,145.51L214.83,146.05L214.86,146.48L214.90,146.86L215.04,147.16L215.26,147.36L215.53,147.45L215.85,147.42L216.21,147.27L216.56,147.02L216.88,146.68L217.15,146.27L217.37,145.82L217.51,145.36L217.55,144.94L217.51,144.57L217.37,144.26L217.15,144.06L216.88,143.97L216.54,143.93L216.09,143.84L215.28,143.38"/><path d="M214.90,143.71L214.59,143.98L214.22,144.47L213.94,145.03L213.94,145.05"/><path d="M214.74,147.32L214.83,146.88L214.86,146.48L214.91,146.05L215.04,145.60L215.26,145.15L215.53,144.75L215.81,144.35L216.09,143.84"/><path d="M214.74,145.51L215.20,145.11L215.53,144.75L215.85,144.41L216.21,144.15L216.56,144.00L216.88,143.97L217.16,143.99L217.43,143.97"/><path d="M215.45,143.40L216.04,143.45"/></g><g style="stroke:#000000;stroke-width:0.529"><path d="M212.14,144.63L208.60,142.60L208.45,142.46L208.36,142.23L208.36,141.80L208.43,141.53L208.55,141.28L208.72,141.05L208.92,140.88L209.06,140.80L209.31,140.68L209.54,140.66L209.73,140.75L214.90,143.71L215.02,143.60L215.16,143.54L215.28,143.38L215.45,143.40L215.46,143.39L215.86,143.37L216.04,143.45L216.63,143.51L217.43,143.97L217.53,144.51L217.55,144.94L217.53,145.34L217.43,145.77L217.16,146.28L216.88,146.68L216.54,147.04L216.09,147.44L215.81,147.46L215.53,147.45L215.20,147.40L214.74,147.32L213.94,146.86L213.94,146.49L213.80,146.11L213.78,145.87L213.80,145.60L213.80,145.58L213.31,145.29"/></g></g><g id="Actor_.14"><g style="stroke:#000000;stroke-width:0.176"><path d="M216.75,127.47L216.51,127.68L216.30,127.96L216.14,128.29L216.06,128.61L216.06,128.90"/><path d="M221.63,133.16L221.63,131.73L222.43,132.19L222.53,132.72L222.55,133.16L222.60,133.53L222.73,133.83L222.95,134.04L223.23,134.12L223.55,134.09L223.90,133.94L224.25,133.69L224.57,133.35L224.85,132.95L225.07,132.50L225.20,132.04L225.25,131.61L225.20,131.24L225.07,130.94L224.85,130.73L224.57,130.65L224.24,130.60L223.78,130.51L223.51,131.02L223.23,131.42L222.95,131.82L222.74,132.27L222.60,132.72L222.55,133.16L222.53,133.55L222.43,133.99"/><path d="M221.63,131.74L221.50,132.25"/><path d="M222.85,130.21L221.63,131.72L221.64,131.70L221.91,131.14L222.28,130.65L222.59,130.38"/><path d="M221.63,131.73L221.63,131.72"/><path d="M222.43,132.19L222.89,131.79L223.23,131.42L223.55,131.08L223.90,130.82L224.25,130.68L224.57,130.65L224.86,130.66L225.13,130.64"/><path d="M222.98,130.05L223.78,130.51"/><path d="M223.74,130.13L223.14,130.07"/></g><g style="stroke:#000000;stroke-width:0.529"><path d="M216.14,129.13L216.30,129.28L221.50,132.25L221.49,132.27L221.48,132.54L221.49,132.78L221.63,133.16L221.63,133.53L222.43,133.99L222.89,134.08L223.23,134.12L223.51,134.14L223.78,134.12L224.24,133.72L224.57,133.35L224.86,132.95L225.13,132.44L225.22,132.01L225.25,131.61L225.22,131.18L225.13,130.64L224.32,130.18L223.74,130.13L223.56,130.04L223.15,130.06L223.14,130.07L222.98,130.05L222.85,130.21L222.71,130.28L222.59,130.38L217.42,127.43L217.24,127.33L217.01,127.35L216.75,127.47L216.62,127.55L216.42,127.72L216.25,127.95L216.12,128.21L216.06,128.47L216.06,128.90L216.14,129.13"/></g></g><g id="Actor_.15"><g style="stroke:#000000;stroke-width:0.176"><path d="M64.59,95.19L77.40,102.53"/><path d="M79.20,103.57L79.06,103.73L78.82,104.16L78.68,104.61L78.65,105.03L78.74,105.37L78.81,105.46L78.93,105.60L79.21,105.69L79.53,105.64L79.88,105.44L80.21,105.12L80.49,104.71L80.68,104.26L80.76,103.82L80.74,103.57"/><path d="M83.36,107.16L83.53,107.06L83.69,106.90"/><path d="M83.44,102.03L83.69,102.17"/><path d="M85.90,104.01L85.94,104.09L85.98,104.38L85.97,104.59L85.90,104.86L85.82,105.04L85.79,105.10L85.69,105.21L85.45,105.38L85.31,105.46L85.31,104.31L85.63,104.13L85.79,104.05L85.90,104.01L85.98,104.02L86.07,104.08L86.14,104.20L86.17,104.49L86.16,104.70L86.09,104.97L86.02,105.15L85.98,105.21L85.88,105.32L85.64,105.49L85.31,105.68L85.31,105.46"/><path d="M85.11,105.85L85.11,104.22L85.64,103.92L85.80,103.83L85.91,103.78L86.03,103.76L86.14,103.78L85.94,103.67L85.84,103.65L85.72,103.67L85.60,103.72L85.44,103.81L84.91,104.11L84.91,105.89L85.11,106.00L85.11,105.85"/><path d="M85.11,106.00L85.66,105.68L85.97,105.46L86.12,105.29L86.24,105.06L86.34,104.75L86.38,104.37L86.33,104.03L86.24,103.86L86.14,103.78"/><path d="M84.91,104.11L85.11,104.22"/><path d="M86.20,101.30L86.01,101.19L85.45,101.51L85.15,101.74L85.00,101.91L84.88,102.14L84.78,102.44L84.74,102.82L84.78,103.17L84.88,103.34L84.98,103.41L85.17,103.52L85.07,103.45L84.98,103.28L84.93,102.93L84.97,102.55L85.07,102.25L85.19,102.02L85.34,101.85L85.65,101.62L86.20,101.30L86.20,103.08L85.67,103.39L85.51,103.47L85.40,103.52L85.28,103.54L85.17,103.52"/><path d="M85.22,103.18L85.33,103.15L85.48,103.07L85.81,102.88L85.81,101.74L85.67,101.82L85.43,101.99L85.33,102.10L85.29,102.16L85.22,102.33L85.15,102.61L85.14,102.82L85.17,103.11L85.21,103.18L85.22,103.18"/><path d="M85.81,102.88L86.00,102.99L85.68,103.18L85.52,103.26L85.41,103.29L85.33,103.28L85.24,103.22L85.21,103.18"/><path d="M86.41,104.17L86.45,104.46L86.56,104.65L86.75,104.76L86.64,104.58L86.60,104.28L86.64,103.91L86.74,103.60L86.88,103.34L87.07,103.12L87.34,102.91L87.57,102.82L87.77,102.82L87.58,102.71L87.38,102.71L87.14,102.80L86.87,103.01L86.69,103.23L86.55,103.49L86.45,103.80L86.41,104.17"/><path d="M86.00,102.99L86.00,101.63L85.81,101.74"/><path d="M86.38,101.12L86.25,101.05L86.25,101.26L86.44,101.37L86.44,101.16L86.38,101.12"/><path d="M86.25,101.05L87.21,100.50L87.41,100.61L86.44,101.16"/><path d="M86.44,101.37L87.01,101.05L87.01,102.40L87.20,102.51L87.41,102.39L87.41,100.61"/><path d="M87.58,103.05L87.62,103.12L87.67,103.42L87.64,103.70L87.57,103.93L87.45,104.15L87.32,104.30L87.14,104.44L86.99,104.51L86.89,104.51"/><path d="M87.18,104.62L87.33,104.55L87.52,104.41L87.65,104.26L87.76,104.04L87.83,103.81L87.86,103.53L87.82,103.23L87.74,103.10L87.67,103.06L87.53,103.04L87.37,103.09L87.34,103.11L87.16,103.25L87.00,103.44L86.90,103.63L86.84,103.85L86.81,104.16L86.84,104.42L86.92,104.55L87.04,104.62L87.18,104.62"/><path d="M87.77,102.82L87.92,102.91L88.03,103.09L88.07,103.41L88.02,103.79L87.93,104.08L87.78,104.33L87.61,104.54L87.59,104.56L87.34,104.76L87.11,104.85L86.91,104.85L86.75,104.76"/><path d="M87.20,102.51L87.20,100.94L87.01,101.05"/><path d="M87.57,100.70L87.51,100.87L87.47,101.24L87.51,101.57L87.62,101.75L87.96,101.95L87.81,101.86L87.70,101.68L87.66,101.35L87.71,100.98L87.76,100.81"/><path d="M88.13,102.26L88.13,104.05L88.32,104.16L88.32,102.38L88.13,102.26L88.34,102.15L88.53,102.26L88.32,102.38"/><path d="M88.53,102.26L88.53,103.83L89.29,103.40L89.29,103.61L88.32,104.16"/><path d="M89.29,103.40L89.09,103.29L88.53,103.61"/><path d="M88.85,101.43L88.67,101.65L88.40,101.86L88.16,101.95L87.96,101.95"/><path d="M88.52,101.24L88.38,101.41L88.20,101.55L88.16,101.57L88.00,101.62L87.96,101.61L87.91,101.54L87.87,101.24L87.90,100.96L87.91,100.90"/><path d="M87.96,101.61L88.00,101.67L88.07,101.71L88.20,101.73L88.36,101.68L88.39,101.66L88.57,101.52L88.71,101.35"/><path d="M87.77,101.84L87.77,101.84"/><path d="M90.68,102.48L90.66,102.52L90.54,102.75L90.39,102.92L90.08,103.15L89.53,103.47L89.53,101.82"/><path d="M89.53,103.47L89.34,103.36L89.34,101.71"/><path d="M90.33,102.29L90.32,102.33L90.24,102.50L90.21,102.56L90.11,102.67L89.87,102.84L89.73,102.92L89.73,103.14L90.06,102.95L90.30,102.78L90.40,102.67L90.44,102.61L90.52,102.44L90.52,102.40"/><path d="M89.73,102.92L89.73,101.94"/></g><g style="stroke:#000000;stroke-width:0.529"><path d="M64.82,95.05L64.59,95.19L64.59,100.53L77.40,107.88L77.54,107.94L77.70,107.97L77.87,107.97L78.03,107.94L78.17,107.88L81.06,106.23L81.12,106.20L81.21,106.18L81.29,106.18L81.37,106.20L81.44,106.23L83.06,107.16L83.12,107.18L83.19,107.19L83.27,107.18L83.36,107.16L91.09,102.72"/></g></g><g id="Actor_.16"><g style="stroke:#000000;stroke-width:0.176"><path d="M97.91,104.38L97.96,104.40L97.89,104.36L97.91,104.38"/><path d="M97.84,104.33L97.89,104.36"/><path d="M97.32,102.62L97.31,102.62"/><path d="M97.34,102.73L97.33,102.71"/><path d="M97.30,102.70L97.28,102.68"/><path d="M97.31,102.71L97.31,102.71"/><path d="M97.52,100.94L97.46,100.92L97.51,100.94"/><path d="M98.20,104.54L97.96,104.40L98.14,104.50"/><path d="M99.28,105.18L99.29,105.20"/><path d="M99.26,105.16L99.27,105.17"/><path d="M110.30,99.80L110.84,99.48L103.15,103.89L107.23,110.96L114.37,106.86L110.30,99.80L103.15,103.90"/><path d="M105.64,95.10L104.44,95.80"/><path d="M105.86,111.92L105.84,112.00"/><path d="M106.12,111.66L105.99,111.76L106.00,111.74"/><path d="M105.99,111.76L105.89,111.92"/><path d="M106.01,111.92L106.00,111.92"/><path d="M105.61,95.13L105.65,95.09L105.69,95.03"/><path d="M106.85,113.64L106.78,113.61"/><path d="M107.08,113.60L106.88,113.61"/><path d="M107.27,113.51L107.05,113.60"/><path d="M106.93,113.53L106.94,113.52"/><path d="M107.24,93.73L107.11,93.66L108.38,94.38L107.34,93.79"/><path d="M107.11,93.66L106.98,93.58"/><path d="M108.38,94.38L108.63,94.53"/><path d="M108.68,94.55L108.70,94.55"/><path d="M108.67,94.54L108.67,94.54L108.67,94.54L108.67,94.54"/><path d="M114.37,106.86L114.92,106.55L110.84,99.48"/><path d="M111.22,94.69L111.23,94.71"/><path d="M115.29,106.51L115.27,106.59"/><path d="M115.43,106.34L115.32,106.51"/><path d="M115.54,106.26L115.42,106.36"/><path d="M115.43,106.51L115.43,106.51"/><path d="M116.50,108.20L116.48,108.20L116.69,108.10"/><path d="M116.28,108.23L116.20,108.21"/><path d="M116.48,108.20L116.31,108.20"/><path d="M116.36,108.12L116.36,108.12"/></g><g style="stroke:#000000;stroke-width:0.529"><path d="M97.31,102.71L97.32,102.71L97.30,102.70L95.47,101.65"/><path d="M97.32,102.71L97.34,102.75L97.35,102.77L97.73,104.18L97.78,104.28L97.84,104.33L99.22,105.13L99.25,105.15L99.29,105.20L105.37,115.74L105.42,115.80L105.53,115.86L105.64,115.87L105.74,115.83L117.98,108.82L118.80,108.34L118.85,108.30L118.88,108.26L118.91,108.22L118.92,108.17L118.93,108.08L118.92,108.03L118.90,107.97L111.26,94.74L111.22,94.69L111.18,94.66L111.14,94.63L110.34,94.18L110.27,94.15L110.22,94.15L110.16,94.16L108.75,94.54L108.72,94.55L108.67,94.54L108.68,94.54"/><path d="M104.44,95.80L98.34,99.30L98.25,99.33L98.13,99.36L97.99,99.36L97.87,99.33L97.79,99.30L97.41,99.08"/><path d="M106.23,113.32L106.21,113.30L105.98,113.00L105.83,112.64L105.79,112.26L105.84,112.00L105.89,111.92L106.00,111.92L106.26,112.00L106.56,112.23L106.80,112.53L106.95,112.89L106.99,113.27L106.93,113.53L106.88,113.61L106.78,113.61L106.52,113.53L106.23,113.32"/><path d="M108.67,94.54L106.99,93.58"/><path d="M115.40,107.59L115.64,107.90L115.95,108.12L116.20,108.21L116.31,108.20L116.36,108.12L116.41,107.86L116.37,107.49L116.23,107.13L115.99,106.82L115.68,106.60L115.43,106.51L115.32,106.51L115.27,106.59L115.22,106.86L115.26,107.23L115.40,107.59"/></g></g><g id="Actor_.17"><g style="stroke:#000000;stroke-width:0.176"><path d="M66.41,44.83L66.42,44.89L66.50,45.07L66.61,45.23L66.62,45.50L66.71,45.97L66.80,46.17L66.92,46.34L67.09,46.49L67.17,46.54L67.53,46.41L67.48,46.73L67.34,46.98L67.11,47.11L66.83,47.12L66.51,46.99L66.20,46.76L65.91,46.42L65.69,46.03L65.54,45.62L65.49,45.23L65.49,44.47L65.54,44.13L65.69,43.89L65.92,43.76L66.20,43.75L66.41,43.83"/><path d="M66.61,45.23L66.62,45.31L66.71,45.36L66.92,45.32L67.05,45.28L67.44,45.13L67.48,45.25L67.53,45.64L67.53,46.41"/><path d="M65.69,43.89L65.92,43.76"/><path d="M66.62,42.06L66.83,42.31L66.78,42.28"/><path d="M66.65,42.10L66.60,41.85"/><path d="M67.17,46.54L67.24,46.57L67.31,46.60L67.50,46.62"/><path d="M67.50,46.58L67.42,46.61"/><path d="M67.01,44.33L67.11,44.44L67.34,44.83L67.44,45.13"/><path d="M67.50,42.03L67.67,42.03L68.11,42.14L68.44,42.29L68.44,42.62L68.12,42.66L67.61,42.62L67.53,42.60"/><path d="M66.83,42.31L66.89,42.35"/><path d="M68.20,42.18L68.44,42.31"/><path d="M68.44,42.29L68.58,42.23L68.76,42.18L68.98,42.18L69.12,42.23L69.24,42.32L69.33,42.26L69.51,41.99"/><path d="M69.06,42.44L68.62,42.60L68.44,42.62"/><path d="M69.05,42.45L69.24,42.32"/><path d="M69.47,42.05L69.48,41.84"/><path d="M70.62,47.45L70.94,47.32L71.25,47.09L71.54,46.76L71.76,46.36L71.91,45.96L71.96,45.56L71.96,44.80L71.91,44.46L71.76,44.22L71.54,44.09L71.25,44.08L70.94,44.20L70.62,44.44L70.48,44.61L70.48,44.71L70.45,44.89L70.38,45.07L70.25,45.25L70.09,45.40L70.01,45.45L69.97,45.58L69.92,45.97L69.92,46.06L69.92,46.73L69.97,47.06L70.11,47.31L70.34,47.44L70.62,47.45"/><path d="M70.01,45.45L70.11,45.16L70.34,44.77L70.46,44.83"/><path d="M70.34,44.77L70.48,44.61"/><path d="M72.96,46.95L72.70,46.79L72.64,46.71L72.64,46.76"/><path d="M72.63,46.69L72.63,46.66L72.63,46.69L72.63,46.69"/><path d="M72.63,46.69L72.63,46.71"/><path d="M72.63,42.48L72.63,46.64L72.64,46.71"/><path d="M73.63,47.16L73.34,47.07"/><path d="M75.82,40.65L75.91,40.60"/><path d="M76.36,39.81L76.36,39.71L76.36,39.81"/><path d="M78.59,38.95L78.55,38.91L78.32,38.78L78.59,38.95L78.72,39.33L78.85,39.50L79.01,39.65L79.07,39.68L79.07,39.78L79.02,40.11L78.88,40.36L78.65,40.49L78.37,40.50L78.05,40.37L77.74,40.13L77.46,39.80L77.23,39.41L77.08,39.00L77.03,38.61L77.03,37.85L77.08,37.51L77.23,37.27L77.46,37.14L77.74,37.13L77.96,37.21"/><path d="M76.36,35.53L76.36,35.50L76.36,35.74"/><path d="M76.36,35.76L76.36,35.60"/><path d="M77.95,38.21L77.96,38.27L78.04,38.46L78.16,38.62L78.32,38.78"/><path d="M78.82,53.42L78.82,53.41"/><path d="M78.82,53.64L78.83,53.64L78.80,53.62L78.82,53.64"/><path d="M78.81,53.63L78.80,53.63"/><path d="M78.83,53.64L81.16,54.98L84.09,53.29L84.18,53.23L84.24,53.11L84.26,53.04"/><path d="M78.80,53.62L78.78,53.61"/><path d="M79.07,39.68L79.07,39.02L79.02,38.63L78.96,38.44L78.67,38.68L78.60,38.76L78.54,38.89L78.55,38.91"/><path d="M78.54,38.90L78.33,38.78"/><path d="M78.96,38.44L78.88,38.21L78.65,37.82L78.56,37.71"/><path d="M78.71,35.44L78.76,35.47L78.55,35.22"/><path d="M78.76,35.47L78.77,35.48"/><path d="M79.03,35.35L79.14,35.33L79.45,35.39L79.81,35.59L79.98,35.76L79.98,35.81L79.53,35.78L79.07,35.65"/><path d="M78.58,35.26L78.53,35.01"/><path d="M79.98,35.81L80.05,35.81L80.54,35.75L80.88,35.64"/><path d="M80.93,35.35L80.69,35.34L80.50,35.39L80.15,35.59L79.98,35.76"/><path d="M80.58,71.17L80.53,71.14L81.28,71.58L80.58,71.17"/><path d="M80.27,71.09L80.41,71.10L80.53,71.14L80.44,71.09"/><path d="M80.53,71.14L83.82,73.03"/><path d="M81.16,54.98L81.39,55.11L81.47,55.14L81.52,55.15L81.45,55.14"/><path d="M80.56,43.19L80.65,42.98"/><path d="M80.98,35.60L80.97,35.61"/><path d="M81.44,35.15L81.26,35.41L81.17,35.47"/><path d="M81.69,55.14L81.57,55.15L81.52,55.15"/><path d="M81.57,55.15L81.52,55.15"/><path d="M81.68,55.14L81.79,55.09L85.90,52.74L85.95,52.72L86.04,52.72L86.54,52.77L87.41,52.76L88.24,52.62"/><path d="M81.88,38.15L81.65,38.54L81.51,38.96L81.46,39.35L81.46,40.11L81.51,40.44L81.65,40.69L81.88,40.82L82.16,40.83L82.48,40.70L82.79,40.47L83.08,40.13L83.30,39.74L83.45,39.33L83.50,38.94L83.50,38.18L83.45,37.84L83.30,37.60L83.08,37.47L82.79,37.46L82.48,37.58L82.16,37.82L82.02,37.99"/><path d="M81.55,38.83L81.63,38.78L81.56,38.83"/><path d="M82.00,38.21L81.99,38.27L81.92,38.45L81.80,38.62L81.63,38.78"/><path d="M81.39,35.22L81.41,35.00"/><path d="M82.64,75.48L87.86,72.48"/><path d="M83.01,51.02L83.37,51.52L82.99,50.99"/><path d="M83.37,51.52L83.48,51.68"/><path d="M95.14,66.90L84.36,73.08L84.26,73.12L84.04,73.13L83.91,73.08L83.37,72.77"/><path d="M83.92,52.09L84.11,52.52L84.12,52.97L84.13,53.03"/><path d="M83.96,52.29L83.98,52.34"/><path d="M83.97,52.33L83.98,52.41"/><path d="M83.93,52.12L83.93,52.09"/><path d="M84.17,40.04L84.17,40.14"/><path d="M84.17,35.93L84.17,35.96"/><path d="M85.31,70.61L85.32,70.62L85.31,70.52L85.31,70.57"/><path d="M85.31,70.52L85.31,70.26L85.31,70.29"/><path d="M85.31,70.26L85.31,68.97L85.31,69.65"/><path d="M85.32,70.64L85.32,70.62"/><path d="M85.31,68.97L85.31,67.92L88.30,66.21L88.34,66.19L88.45,66.17L88.62,66.20"/><path d="M85.31,67.92L85.31,67.49L85.33,67.37L85.37,67.27L85.44,67.18"/><path d="M85.33,67.37L85.33,67.38"/><path d="M85.40,67.22L85.43,67.19L85.51,67.13L85.50,67.13"/><path d="M84.80,41.03L85.45,41.41L84.81,41.04"/><path d="M84.71,40.98L84.63,40.94L84.72,40.99L84.71,40.98"/><path d="M89.68,64.73L89.70,64.71L89.65,64.75L85.51,67.13"/><path d="M96.80,47.97L85.45,41.41L85.53,41.45"/><path d="M88.96,52.37L88.88,52.40L88.81,52.37L86.90,51.51L87.18,51.48L87.32,51.44L87.37,51.42L91.35,49.13L91.40,49.11L91.49,49.09L91.59,49.09L91.67,49.11L91.96,49.26L90.17,50.29L89.17,51.39L89.12,51.47L89.00,51.75L89.00,52.22L88.98,52.33L88.96,52.37L89.54,52.04"/><path d="M87.09,51.49L88.88,52.40L88.23,52.62"/><path d="M88.55,66.33L88.54,66.31L88.58,66.35L88.93,66.55L88.98,66.58L89.30,66.96"/><path d="M88.54,66.32L88.54,66.32"/><path d="M89.00,66.62L89.19,66.84"/><path d="M89.93,51.66L89.53,52.04"/><path d="M89.00,52.22L89.00,52.24"/><path d="M90.93,62.85L90.41,63.47L89.97,64.18L89.75,64.65L89.70,64.71"/><path d="M92.01,62.60L91.96,62.58L92.06,62.62L92.34,62.66L92.42,62.65L93.82,62.35L93.89,62.32L95.71,61.27L95.71,61.73L95.71,61.80L95.68,61.88L95.63,61.96L95.57,62.03L95.52,62.07L91.51,64.37L91.41,64.44L91.27,64.61L91.20,64.71"/><path d="M90.93,62.85L91.48,62.38L92.06,62.05L92.58,61.90L92.57,61.90"/><path d="M91.61,62.38L91.96,62.58"/><path d="M91.63,62.39L91.52,62.35"/><path d="M91.96,49.26L94.34,47.89"/><path d="M91.73,46.23L91.74,46.23"/><path d="M92.82,62.57L93.69,62.38L92.80,62.57"/><path d="M93.92,62.29L94.83,61.77L93.93,62.29"/><path d="M94.83,61.77L95.87,61.18L95.71,61.27"/><path d="M94.31,47.91L94.34,47.89"/><path d="M96.92,60.58L95.87,61.18L98.05,59.94L98.01,59.95"/><path d="M97.42,60.30L97.87,60.04"/><path d="M97.89,56.56L97.97,56.61"/><path d="M96.99,48.03L96.99,48.02"/><path d="M98.03,63.51L98.03,63.52"/><path d="M98.23,60.06L98.22,60.06"/><path d="M98.05,59.94L98.08,59.93L98.05,59.94"/><path d="M98.04,59.94L98.04,59.94"/></g><g style="stroke:#000000;stroke-width:0.529"><path d="M82.64,75.48L80.20,76.87L80.07,76.92L79.97,76.92L79.85,76.91L79.75,76.87L65.13,68.49L64.98,68.39L64.91,68.31L64.86,68.23L64.83,68.13L64.82,68.05L64.82,67.95L64.82,42.12L64.83,42.03L64.86,41.94L64.91,41.86L64.98,41.78L65.05,41.73L68.21,39.91L68.31,39.88L68.53,39.87L68.66,39.91L72.40,42.06L72.51,42.15L72.56,42.24L72.61,42.35L72.63,42.48L75.82,40.65L75.96,40.55L76.13,40.36L76.26,40.13L76.34,39.89L76.36,39.71L76.36,36.39L76.36,36.58"/><path d="M66.40,44.71L66.41,44.83L66.51,44.79L66.83,44.55L67.01,44.33L66.83,44.11L66.51,43.87L66.41,43.83L66.40,43.95L66.40,44.71"/><path d="M67.15,42.49L66.89,42.35L67.05,42.19L67.24,42.09L67.44,42.04L67.50,42.03L67.53,42.26L67.53,42.60L67.15,42.49"/><path d="M84.81,41.04L84.72,40.99L84.57,40.88L84.40,40.69L84.27,40.46L84.19,40.22L84.17,40.04L84.17,35.83L84.16,35.73L84.10,35.62L84.05,35.53L83.94,35.44L80.20,33.29L80.07,33.25L79.97,33.25L79.85,33.25L79.75,33.29L76.59,35.11L76.52,35.16L76.45,35.24L76.41,35.32L76.37,35.41L76.36,35.50"/><path d="M76.36,35.74L76.36,36.39L76.36,35.53"/><path d="M76.36,36.39L76.36,35.76"/><path d="M77.94,37.43L77.94,38.09L77.95,38.21L78.05,38.17L78.37,37.93L78.56,37.71L78.37,37.49L78.05,37.25L77.96,37.21L77.94,37.33L77.94,37.43"/><path d="M78.78,35.47L78.77,35.48L79.07,35.65L79.03,35.35L78.94,35.37L78.78,35.47"/><path d="M80.97,35.61L81.17,35.47L81.05,35.39L80.93,35.35L80.88,35.64L80.97,35.61"/><path d="M82.02,37.99L82.02,38.09L82.00,38.21L81.88,38.15L82.02,37.99"/><path d="M84.17,38.47L84.17,37.52"/><path d="M84.17,36.39L84.17,35.96"/><path d="M84.72,40.99L96.91,47.97L96.99,48.03L97.09,48.11L97.20,48.31L97.22,48.41L97.43,55.69L97.45,55.87L97.54,56.10L97.67,56.33L97.84,56.51L97.97,56.61L99.07,57.24L99.17,57.33L99.22,57.42L99.28,57.53L99.29,57.63L99.29,64.26L99.28,64.34L99.25,64.44L99.20,64.52L99.14,64.60L99.07,64.65L95.14,66.90L95.14,68.05L95.12,68.15L95.07,68.26L95.01,68.35L94.91,68.44L87.86,72.48"/><path d="M95.14,67.22L95.14,67.57L95.14,67.01"/></g></g><g id="Actor_.18"><g style="stroke:#000000;stroke-width:0.176"><path d="M83.28,98.24L83.37,98.29L83.08,98.13L83.28,98.24"/><path d="M83.03,98.10L83.02,98.09L93.98,104.38"/><path d="M83.02,98.09L83.02,98.09"/><path d="M83.08,98.13L83.00,98.09L82.89,98.09"/><path d="M84.41,98.89L85.29,99.40"/><path d="M95.28,102.99L95.29,103.01L95.28,102.98L95.28,102.92L95.28,102.94"/><path d="M95.28,102.92L95.28,101.88L95.28,102.92"/><path d="M95.28,101.89L95.59,101.71"/><path d="M95.28,101.88L95.27,100.55L95.29,100.43L95.29,100.44"/><path d="M95.28,101.84L95.28,101.62"/><path d="M95.29,100.43L95.33,100.33L95.36,100.29L95.40,100.25L95.47,100.19L95.46,100.19"/><path d="M95.47,100.19L96.14,99.80L96.12,99.82"/><path d="M96.14,99.80L101.08,96.97L100.04,97.56"/><path d="M97.94,97.31L97.94,97.25L97.96,97.37L98.02,97.49"/><path d="M97.94,97.25L97.94,96.68L97.94,97.25"/><path d="M97.67,95.83L97.68,95.83L97.67,95.83"/><path d="M97.94,96.68L97.95,95.97L97.73,95.85L97.68,95.83"/><path d="M97.95,95.97L98.54,96.31L98.60,96.33L98.64,96.33L98.70,96.33L98.74,96.31L99.01,96.16L99.04,96.13L99.07,96.10L99.11,96.02L99.11,95.98L99.11,94.11L99.10,94.06L99.06,93.97L99.01,93.93L98.16,93.45"/><path d="M97.94,93.10L97.94,92.52L97.94,93.04L97.95,93.12L97.94,93.06"/><path d="M97.95,93.08L97.96,93.15L98.02,93.29L98.11,93.40"/><path d="M97.94,91.51L97.94,92.52L97.94,91.51L97.96,91.36L98.03,91.15L98.14,90.96L98.29,90.80L98.41,90.71L105.29,86.76L105.40,86.71L105.53,86.71"/><path d="M97.98,97.41L98.03,97.44L98.03,97.44"/><path d="M98.10,93.39L98.20,93.47"/><path d="M101.08,96.97L103.17,95.77L102.13,96.37"/><path d="M103.17,95.77L104.21,95.17L103.39,95.64"/><path d="M104.21,95.17L108.25,92.86"/><path d="M106.44,88.70L107.28,89.19L107.33,89.23L107.38,89.32L107.38,89.37L107.38,91.24L107.38,91.28L107.34,91.36L107.31,91.39L107.28,91.41L107.01,91.57L106.97,91.58L106.87,91.59L106.81,91.57L106.00,91.11L105.90,91.07"/><path d="M105.49,86.75L105.44,86.71"/><path d="M107.30,93.76L107.30,93.40"/><path d="M106.44,88.69L106.43,88.68L106.47,88.72"/><path d="M108.22,92.87L108.28,92.85"/><path d="M107.38,89.37L107.38,89.39"/><path d="M108.43,92.98L108.42,92.98"/></g><g style="stroke:#000000;stroke-width:0.529"><path d="M109.43,94.36L109.43,83.77L109.42,83.69L109.34,83.54L109.29,83.50L101.86,77.72L95.25,73.92L95.17,73.92L95.08,73.96L80.27,82.45L80.18,82.52L80.10,82.61L80.03,82.73L79.99,82.84L79.98,82.95L79.98,99.22L79.99,99.32L80.03,99.39L82.50,100.80L82.60,100.84L82.68,100.84L82.77,100.83L82.84,100.80L85.29,99.40L94.04,104.42L94.14,104.45L94.31,104.44L94.38,104.42L97.33,102.73"/></g></g><g id="Actor_.19"><g style="stroke:#000000;stroke-width:0.176"><path d="M64.59,68.44L77.40,75.79L77.54,75.85L77.70,75.88L77.87,75.88L77.98,75.86"/><path d="M80.69,76.60L80.73,76.69L80.76,77.08L80.68,77.52L80.49,77.97L80.21,78.37L79.88,78.69L79.53,78.89L79.21,78.95L78.93,78.86L78.81,78.72L78.74,78.63L78.65,78.29L78.68,77.87L78.82,77.42L79.06,76.99L79.35,76.64"/><path d="M83.36,80.41L83.53,80.32L83.69,80.16"/><path d="M83.21,75.15L83.69,75.43"/><path d="M86.14,77.04L85.94,76.93L85.84,76.91L85.72,76.93L85.60,76.98L85.44,77.06L84.91,77.37L84.91,79.15L85.11,79.26L85.11,77.48L85.64,77.17L85.80,77.09L85.91,77.04L86.03,77.02L86.14,77.04L86.24,77.11L86.33,77.28L86.38,77.63L86.34,78.01L86.24,78.31L86.12,78.54L85.97,78.71L85.66,78.94L85.11,79.26"/><path d="M85.90,77.27L85.94,77.34L85.98,77.64L85.97,77.85L85.90,78.12L85.82,78.29L85.79,78.35L85.69,78.46L85.45,78.63L85.31,78.71L85.31,78.93L85.64,78.74L85.88,78.57L85.98,78.46L86.02,78.40L86.09,78.23L86.16,77.96L86.17,77.75L86.14,77.46L86.07,77.34L85.98,77.28L85.90,77.27L85.79,77.31L85.63,77.39L85.31,77.57L85.31,78.71"/><path d="M84.91,77.37L85.11,77.48"/><path d="M84.74,76.08L84.78,76.43L84.88,76.60L84.98,76.67L85.17,76.78L85.07,76.71L84.98,76.54L84.93,76.19L84.97,75.81L85.07,75.51L85.19,75.28L85.34,75.11L85.65,74.88L86.20,74.56L86.01,74.45L85.45,74.77L85.15,75.00L85.00,75.17L84.88,75.40L84.78,75.70L84.74,76.08"/><path d="M85.21,76.44L85.33,76.40L85.48,76.32L85.81,76.14L86.00,76.25L85.68,76.43L85.52,76.51L85.41,76.55L85.33,76.54L85.24,76.48L85.17,76.36L85.14,76.07L85.15,75.86L85.22,75.59L85.29,75.42L85.33,75.36L85.43,75.25L85.67,75.07L85.81,75.00L85.81,76.14"/><path d="M86.20,74.56L86.20,76.34L85.67,76.65L85.51,76.73L85.40,76.78L85.28,76.80L85.17,76.78"/><path d="M87.77,76.08L87.58,75.96L87.38,75.96L87.14,76.06L86.87,76.26L86.69,76.49L86.55,76.75L86.45,77.05L86.41,77.43L86.45,77.72L86.56,77.91L86.91,78.11L87.11,78.10L87.34,78.01L87.59,77.82L87.78,77.59L87.93,77.34L88.02,77.05L88.07,76.67L88.03,76.35L87.92,76.16L87.77,76.08L87.57,76.07L87.34,76.17L87.07,76.37L86.88,76.60L86.74,76.86L86.64,77.17L86.60,77.54L86.64,77.83L86.75,78.02"/><path d="M86.00,76.25L86.00,74.89L85.81,75.00"/><path d="M86.38,74.38L86.25,74.31L87.21,73.76L87.41,73.87L86.44,74.42L86.38,74.38"/><path d="M86.44,74.42L86.44,74.63L86.25,74.52L86.25,74.31"/><path d="M86.44,74.63L87.01,74.31L87.01,75.66L87.20,75.77L87.41,75.65L87.41,73.87"/><path d="M87.58,76.31L87.62,76.38L87.67,76.68L87.64,76.96L87.57,77.19L87.45,77.40L87.32,77.56L87.14,77.70L86.99,77.76L86.89,77.76"/><path d="M87.33,77.81L87.52,77.67L87.65,77.51L87.76,77.30L87.83,77.07L87.86,76.79L87.82,76.49L87.74,76.36L87.67,76.32L87.54,76.30L87.37,76.35L87.34,76.37L87.16,76.51L87.00,76.70L86.90,76.89L86.84,77.10L86.81,77.42L86.84,77.67L86.92,77.81L87.04,77.88L87.18,77.87L87.33,77.81"/><path d="M87.54,74.87L87.51,74.82L87.47,74.50L87.51,74.12L87.61,73.84L87.75,73.58L87.95,73.35L88.20,73.16L88.43,73.07L88.63,73.07L88.98,73.26L88.83,73.18L88.62,73.18L88.40,73.27L88.14,73.46L87.95,73.69L87.80,73.95L87.71,74.23L87.66,74.61L87.70,74.93L87.81,75.12L87.96,75.21L87.62,75.01L87.54,74.87"/><path d="M87.20,75.77L87.20,74.20L87.01,74.31"/><path d="M88.32,75.63L88.53,75.52L88.53,77.09L89.29,76.65L89.29,76.84L89.29,76.86L88.32,77.42L88.32,75.63L88.13,75.52L88.13,77.30L88.32,77.42"/><path d="M89.29,76.65L89.09,76.54L88.53,76.87"/><path d="M88.13,75.52L88.34,75.41L88.53,75.52"/><path d="M88.00,74.87L87.96,74.87L88.00,74.92L88.07,74.97L88.20,74.98L88.36,74.93L88.39,74.91L88.57,74.78L88.73,74.59L88.83,74.40L88.89,74.18L88.92,73.86L88.89,73.61L88.81,73.48L88.69,73.41L88.64,73.41L88.70,73.50L88.73,73.75L88.70,74.07L88.64,74.29L88.54,74.48L88.38,74.66L88.20,74.80L88.16,74.82L88.00,74.87"/><path d="M87.96,75.21L88.16,75.21L88.40,75.11L88.67,74.91L88.85,74.69L88.99,74.42L89.09,74.12L89.13,73.75L89.09,73.45L88.98,73.26"/><path d="M87.96,74.87L87.91,74.79L87.87,74.49L87.90,74.21L87.97,73.98L88.08,73.77L88.21,73.61L88.40,73.47L88.55,73.41L88.64,73.41"/><path d="M87.77,75.10L87.77,75.10"/><path d="M89.53,74.94L89.34,74.83L89.34,76.61L89.53,76.73L89.53,74.94L90.06,74.64L90.22,74.55L90.33,74.51L90.46,74.49L90.56,74.51L90.66,74.58L90.76,74.75L90.80,75.09L90.76,75.47L90.66,75.78L90.54,76.01L90.39,76.18L90.08,76.41L89.53,76.73"/><path d="M90.62,72.02L90.43,71.91L89.88,72.23L89.57,72.46L89.42,72.63L89.30,72.86L89.20,73.16L89.16,73.54L89.20,73.89L89.30,74.06L89.40,74.13L89.59,74.24L89.49,74.17L89.40,74.00L89.35,73.65L89.39,73.27L89.49,72.97L89.62,72.74L89.76,72.57L90.07,72.34L90.62,72.02L90.62,73.81L90.09,74.11L89.94,74.19L89.82,74.24L89.70,74.26L89.59,74.24"/><path d="M89.34,74.83L89.87,74.53L90.02,74.44L90.14,74.40L90.26,74.38L90.37,74.39L90.56,74.51"/><path d="M89.60,73.83L89.56,73.54L89.57,73.33L89.64,73.05L89.72,72.88L89.75,72.82L89.85,72.71L90.09,72.54L90.23,72.46L90.23,73.60L89.90,73.79L89.75,73.87L89.63,73.90L89.60,73.83"/><path d="M90.32,74.74L90.40,74.74L90.49,74.80L90.56,74.92L90.59,75.21L90.58,75.42L90.52,75.70L90.44,75.87L90.40,75.93L90.30,76.04L90.06,76.21L89.73,76.40L89.73,75.04L90.05,74.85L90.21,74.77L90.32,74.74L90.32,74.74L90.36,74.81L90.40,75.10L90.39,75.31L90.32,75.59L90.24,75.76L90.21,75.82L90.11,75.93L89.87,76.10L89.73,76.18"/><path d="M89.63,73.90L89.66,73.94L89.75,74.00L89.83,74.01L89.94,73.98L90.10,73.90L90.42,73.71L90.23,73.60"/><path d="M90.42,73.71L90.42,72.35L90.23,72.46"/><path d="M91.67,75.53L91.67,75.64L91.62,75.61L91.67,75.01"/><path d="M91.67,75.64L91.67,74.99"/><path d="M91.37,74.46L91.33,74.36"/><path d="M91.52,74.57L91.51,74.57"/><path d="M92.23,69.98L92.29,70.16L92.29,70.57L92.18,71.01L91.97,71.45L91.68,71.84L91.36,72.12L91.17,72.78L91.09,73.49"/><path d="M91.13,73.71L91.10,73.43"/><path d="M91.36,72.12L91.38,72.04L91.62,71.50L91.66,71.41L91.67,71.30L91.67,71.21L91.67,71.30"/><path d="M91.62,70.88L91.67,70.66L91.67,70.47L91.67,71.21"/><path d="M91.67,71.30L91.67,70.66"/><path d="M91.67,70.47L91.65,70.38L91.63,70.32"/></g><g style="stroke:#000000;stroke-width:0.529"><path d="M92.94,69.57L92.94,72.58L92.89,72.68L92.79,72.75L91.13,73.71L91.16,73.98L91.33,74.36L91.58,74.64L91.63,74.73L91.66,74.82L91.67,74.91L91.67,75.64L83.36,80.41L83.27,80.44L83.19,80.45L83.12,80.44L83.06,80.41L81.44,79.49L81.37,79.46L81.29,79.44L81.21,79.44L81.12,79.46L81.06,79.49L78.17,81.14L78.03,81.20L77.87,81.23L77.70,81.23L77.54,81.20L77.40,81.14L64.59,73.79L64.59,68.44L64.89,68.27"/></g></g><g><g><path style="stroke:#000000;stroke-width:0.125;stroke-dasharray:2.2 1.5 0.7 1.5" d="M71.84,146.46L118.13,173.00"/><path style="stroke:#000000;stroke-width:0.125;stroke-dasharray:2.2 1.5 0.7 1.5" d="M137.74,184.25L121.81,175.12"/></g></g><g><g><path style="stroke:#000000;stroke-width:0.125;stroke-dasharray:2.2 1.5 0.7 1.5" d="M71.84,27.90L107.77,48.50"/><path style="stroke:#000000;stroke-width:0.125;stroke-dasharray:2.2 1.5 0.7 1.5" d="M121.80,56.55L137.74,65.70"/></g></g><g><g><path style="stroke:#000000;stroke-width:0.125;stroke-dasharray:2.2 1.5 0.7 1.5" d="M90.32,64.64L134.88,90.20"/><path style="stroke:#000000;stroke-width:0.125;stroke-dasharray:2.2 1.5 0.7 1.5" d="M139.91,93.08L183.14,117.88"/></g></g><g><g><path style="stroke:#000000;stroke-width:0.125;stroke-dasharray:2.2 1.5 0.7 1.5" d="M147.88,88.78L194.12,115.30"/><path style="stroke:#000000;stroke-width:0.125;stroke-dasharray:2.2 1.5 0.7 1.5" d="M199.94,118.64L196.12,116.45"/><path style="stroke:#000000;stroke-width:0.125;stroke-dasharray:2.2 1.5 0.7 1.5" d="M207.00,122.69L216.23,127.98"/></g></g><g><g><path style="stroke:#000000;stroke-width:0.125;stroke-dasharray:2.2 1.5 0.7 1.5" d="M193.42,132.64L140.19,102.11"/><path style="stroke:#000000;stroke-width:0.125;stroke-dasharray:2.2 1.5 0.7 1.5" d="M208.53,141.31L199.31,136.02"/></g></g><g id="PMI.0"><g><path style="stroke:#000000;stroke-width:0.125" d="M57.84,196.86L74.72,119.55"/></g><g><path style="fill:#000000" d="M75.47,119.55L75.46,119.47L75.45,119.40L75.44,119.33L75.41,119.26L75.38,119.19L75.34,119.13L75.30,119.07L75.25,119.02L75.19,118.97L75.13,118.92L75.07,118.89L75.01,118.85L74.94,118.83L74.86,118.81L74.79,118.80L74.72,118.80L74.64,118.80L74.57,118.81L74.50,118.83L74.43,118.85L74.36,118.89L74.30,118.92L74.24,118.97L74.19,119.02L74.14,119.07L74.09,119.13L74.06,119.19L74.03,119.26L74.00,119.33L73.98,119.40L73.97,119.47L73.97,119.55L73.97,119.62L73.98,119.69L74.00,119.76L74.03,119.83L74.06,119.90L74.09,119.96L74.14,120.02L74.19,120.08L74.24,120.13L74.30,120.17L74.36,120.21L74.43,120.24L74.50,120.26L74.57,120.28L74.64,120.29L74.72,120.30L74.79,120.29L74.86,120.28L74.94,120.26L75.01,120.24L75.07,120.21L75.13,120.17L75.19,120.13L75.25,120.08L75.30,120.02L75.34,119.96L75.38,119.90L75.41,119.83L75.44,119.76L75.45,119.69L75.46,119.62z"/></g><g><text xml:space="preserve" fill="#000000" stroke-width="0" x="49.38" y="202.29" font-size="3.79" opacity="1.00" font-family="Arial">ELA0220</text></g></g><g id="PMI.1"><g><path style="stroke:#000000;stroke-width:0.125" d="M119.95,196.86L141.40,186.09"/></g><g><path style="fill:#000000" d="M142.15,186.09L142.15,186.02L142.14,185.95L142.12,185.88L142.10,185.81L142.07,185.74L142.03,185.68L141.98,185.62L141.93,185.56L141.88,185.51L141.82,185.47L141.76,185.43L141.69,185.40L141.62,185.38L141.55,185.36L141.48,185.35L141.40,185.34L141.33,185.35L141.26,185.36L141.19,185.38L141.12,185.40L141.05,185.43L140.99,185.47L140.93,185.51L140.87,185.56L140.82,185.62L140.78,185.68L140.74,185.74L140.71,185.81L140.69,185.88L140.67,185.95L140.66,186.02L140.65,186.09L140.66,186.17L140.67,186.24L140.69,186.31L140.71,186.38L140.74,186.45L140.78,186.51L140.82,186.57L140.87,186.62L140.93,186.67L140.99,186.72L141.05,186.76L141.12,186.79L141.19,186.81L141.26,186.83L141.33,186.84L141.40,186.84L141.48,186.84L141.55,186.83L141.62,186.81L141.69,186.79L141.76,186.76L141.82,186.72L141.88,186.67L141.93,186.62L141.98,186.57L142.03,186.51L142.07,186.45L142.10,186.38L142.12,186.31L142.14,186.24L142.15,186.17z"/></g><g><text xml:space="preserve" fill="#000000" stroke-width="0" x="106.83" y="202.29" font-size="3.78" opacity="1.00" font-family="Arial">ND1337</text></g></g><g id="PMI.2"><g><path style="stroke:#000000;stroke-width:0.125" d="M165.55,22.62L142.53,66.54"/></g><g><path style="fill:#000000" d="M143.28,66.54L143.28,66.47L143.26,66.40L143.25,66.33L143.22,66.26L143.19,66.19L143.15,66.13L143.11,66.07L143.06,66.01L143.00,65.96L142.95,65.92L142.88,65.88L142.82,65.85L142.75,65.83L142.68,65.81L142.60,65.80L142.53,65.79L142.46,65.80L142.38,65.81L142.31,65.83L142.24,65.85L142.18,65.88L142.11,65.92L142.05,65.96L142.00,66.01L141.95,66.07L141.91,66.13L141.87,66.19L141.84,66.26L141.81,66.33L141.79,66.40L141.78,66.47L141.78,66.54L141.78,66.62L141.79,66.69L141.81,66.76L141.84,66.83L141.87,66.90L141.91,66.96L141.95,67.02L142.00,67.07L142.05,67.12L142.11,67.17L142.18,67.20L142.24,67.24L142.31,67.26L142.38,67.28L142.46,67.29L142.53,67.29L142.60,67.29L142.68,67.28L142.75,67.26L142.82,67.24L142.88,67.20L142.95,67.17L143.00,67.12L143.06,67.07L143.11,67.02L143.15,66.96L143.19,66.90L143.22,66.83L143.25,66.76L143.26,66.69L143.28,66.62z"/></g><g><text xml:space="preserve" fill="#000000" stroke-width="0" x="160.25" y="21.85" font-size="3.78" opacity="1.00" font-family="Arial">ND1337</text></g></g><g id="PMI.3"><g><path style="stroke:#000000;stroke-width:0.125" d="M171.84,196.86L195.84,136.71"/></g><g><path style="fill:#000000" d="M196.59,136.71L196.59,136.63L196.58,136.56L196.56,136.49L196.53,136.42L196.50,136.35L196.46,136.29L196.42,136.23L196.37,136.17L196.32,136.13L196.26,136.08L196.19,136.04L196.13,136.01L196.06,135.99L195.99,135.97L195.91,135.96L195.84,135.96L195.77,135.96L195.69,135.97L195.62,135.99L195.55,136.01L195.49,136.04L195.42,136.08L195.36,136.13L195.31,136.17L195.26,136.23L195.22,136.29L195.18,136.35L195.15,136.42L195.12,136.49L195.10,136.56L195.09,136.63L195.09,136.71L195.09,136.78L195.10,136.85L195.12,136.92L195.15,136.99L195.18,137.06L195.22,137.12L195.26,137.18L195.31,137.24L195.36,137.28L195.42,137.33L195.49,137.37L195.55,137.40L195.62,137.42L195.69,137.44L195.77,137.45L195.84,137.46L195.91,137.45L195.99,137.44L196.06,137.42L196.13,137.40L196.19,137.37L196.26,137.33L196.32,137.28L196.37,137.24L196.42,137.18L196.46,137.12L196.50,137.06L196.53,136.99L196.56,136.92L196.58,136.85L196.59,136.78z"/></g><g><text xml:space="preserve" fill="#000000" stroke-width="0" x="162.82" y="202.29" font-size="3.79" opacity="1.00" font-family="Arial">ELA0221</text></g></g><g id="PMI.4"><g><path style="stroke:#000000;stroke-width:0.125" d="M226.38,196.86L212.43,143.83"/></g><g><path style="fill:#000000" d="M213.18,143.83L213.17,143.76L213.16,143.68L213.14,143.61L213.12,143.54L213.09,143.48L213.05,143.41L213.01,143.35L212.96,143.30L212.90,143.25L212.84,143.21L212.78,143.17L212.71,143.14L212.64,143.11L212.57,143.10L212.50,143.08L212.43,143.08L212.35,143.08L212.28,143.10L212.21,143.11L212.14,143.14L212.07,143.17L212.01,143.21L211.95,143.25L211.90,143.30L211.85,143.35L211.80,143.41L211.77,143.48L211.73,143.54L211.71,143.61L211.69,143.68L211.68,143.76L211.68,143.83L211.68,143.90L211.69,143.98L211.71,144.05L211.73,144.12L211.77,144.18L211.80,144.25L211.85,144.31L211.90,144.36L211.95,144.41L212.01,144.45L212.07,144.49L212.14,144.52L212.21,144.55L212.28,144.57L212.35,144.58L212.43,144.58L212.50,144.58L212.57,144.57L212.64,144.55L212.71,144.52L212.78,144.49L212.84,144.45L212.90,144.41L212.96,144.36L213.01,144.31L213.05,144.25L213.09,144.18L213.12,144.12L213.14,144.05L213.16,143.98L213.17,143.90z"/></g><g><text xml:space="preserve" fill="#000000" stroke-width="0" x="220.27" y="202.29" font-size="3.78" opacity="1.00" font-family="Arial">ND1328</text></g></g><g/><g><g/><g><text xml:space="preserve" fill="#000000" stroke-width="0" x="7.25" y="12.02" font-size="4.53" opacity="1.00" font-family="Arial" font-weight="bold">BPA16089</text></g></g><g id="paperID" visibility="hidden" opacity="0.00" transform="scale(0.000100)"><path style="stroke:#000000;stroke-width:0.500;fill:#e6e6e6;fill-rule:evenodd" d="M-2000.00,-2000.00L2297.00,-2000.00L2297.00,2210.00L-2000.00,2210.00zM0.00,0.00L297.00,0.00L297.00,210.00L0.00,210.00z"/><path style="fill:#000000;fill-opacity:0.118" d="M3.00,210.00L297.00,210.00L297.00,3.00L300.00,3.00L300.00,213.00L3.00,213.00z"/></g></g></svg>
