<?xml version="1.0" encoding="UTF-8" standalone="no"?>
<svg xmlns="http://www.w3.org/2000/svg" xmlns:xlink="http://www.w3.org/1999/xlink" width="297.000mm" height="210.000mm" viewBox="0.000000 0.000000 297.000000 210.000000" stroke-linejoin="round" stroke-linecap="round" fill="none" fill-rule="evenodd"><desc>Composer Export</desc><script type="text/ecmascript"><![CDATA[
if(typeof(top) != "undefined")
{
	top.ShowPaper = ShowPaper;
}
function ShowHotSpot(evt,hotspotid)
{
	var svgDocument = evt.target.ownerDocument;
	var strId = "hotspot."+hotspotid;
	var hotspot = svgDocument.getElementById(strId);
	if(hotspot)
		hotspot.setAttribute("opacity",".5");
}
function HideHotSpot(evt,hotspotid)
{
	var svgDocument = evt.target.ownerDocument;
	var strId = "hotspot."+hotspotid;
	var hotspot = svgDocument.getElementById(strId);
	if(hotspot)
		hotspot.setAttribute("opacity","0");

	var toolTip = svgDocument.getElementById('ToolTip');
	if(toolTip)
		toolTip.setAttribute("visibility","hidden");
}
function ShowToolTip(evt,hotspotid,strTooltip)
{
	if(strTooltip=="")
	return;

	// change text
	var svgDocument = evt.target.ownerDocument;
	var tiptext = svgDocument.getElementById('ToolTipText');
	if( !tiptext )
	return;
	tiptext.firstChild.nodeValue = " " + strTooltip + "  " ;

	// show tooltip before, else some refresh issue

	var toolTip = svgDocument.getElementById('ToolTip');
	if(!toolTip)
	return;

	toolTip.setAttribute("visibility","visible");
	toolTip.setAttribute("opacity",".95");

	// move tooltip
	// get viewbox

	var root = svgDocument.documentElement;
	var vbox = (root.getAttribute("viewBox")).split(' ');
	var x0 = parseFloat(vbox[0]);
	var y0 = parseFloat(vbox[1]);
	var vboxW = parseFloat(vbox[2]);
	var vboxH = parseFloat(vbox[3]);

	// get default width of svg

	var strW = root.getAttribute("width");
	var svgW = parseFloat(strW);
	if(strW.indexOf('mm') != -1)
	svgW *= 3.779;

	var strH = root.getAttribute("height");
	var svgH = parseFloat(strH);
	if(strH.indexOf('mm') != -1)
	svgH *= 3.779;  	// 96 dpi  -> 96/25.4 = 3.779

	// update the viewbox / width / height if svg is embedded in html with zoom fit all
	var realx0 = x0;
	var realy0 = y0;
	var realvboxW = vboxW;
	var realvboxH = vboxH;
	var realsvgW = svgW;
	var realsvgH = svgH;

	if ((typeof(top) == "undefined") || (typeof(top.svgctl1) != "undefined")) // embedded in html
	{
		// get window size in pxl

		svgW = window.innerWidth;
		svgH = window.innerHeight;

		// calculate real viewbox

		realsvgW = svgW;
		realsvgH = svgH;
		if((svgW / svgH) > (vboxW / vboxH))
		{
			realvboxW = (vboxH * svgW) / svgH;
			realvboxH = vboxH;
			realx0 = x0 - (realvboxW - vboxW)/2 ;
		}
		else
		{
			realvboxH = (vboxW * svgH) / svgW;
			realvboxW = vboxW;
			realy0 = y0 - (realvboxH - vboxH)/2 ;
		}
	}

	// get user zoom/pan

	var newScale = root.currentScale;
	var translation = root.currentTranslate;

	// transform pxl to user unit

	var xPos = (((evt.clientX+10- translation.x)/newScale) * realvboxW)/realsvgW  + realx0 ;
	var yPos = (((evt.clientY+5- translation.y)/newScale) * realvboxH)/ realsvgH  + realy0 ;
	var scaleForWidth = ( (1 / newScale) * realvboxH) / realsvgH;

	// move tooltip

	toolTip.setAttribute("transform", "translate(" + xPos + "," + yPos + ")" );

	// resize tooltip

	var fontsize = 12;
	tiptext.setAttribute("font-size",fontsize*scaleForWidth);
	tiptext.setAttribute("y", fontsize*scaleForWidth);
	var tipBG = svgDocument.getElementById('ToolTipBG');
	var outline = tiptext.getBBox();
	if(tipBG)
	{
		tipBG.setAttribute("stroke-width", 1*scaleForWidth);
		tipBG.setAttribute("width", Number(outline.width) );
		tipBG.setAttribute("height", Number(outline.height) + fontsize*.5*scaleForWidth );
	}
	var ToolTipShadow = svgDocument.getElementById('ToolTipShadow');
	if(ToolTipShadow)
	{
		ToolTipShadow.setAttribute("width", Number(outline.width) );
		ToolTipShadow.setAttribute("height", Number(outline.height) + fontsize*.5*scaleForWidth );
		ToolTipShadow.setAttribute("x", 3*scaleForWidth);
		ToolTipShadow.setAttribute("y", 3*scaleForWidth);
	}
}
function ShowPaper()
{
  var svgDocument = getDocument();
  var paper = svgDocument.getElementById("paperID");
  if(paper)
  {
    paper.setAttribute("transform","scale(1)");
    paper.setAttribute("opacity","1");
    paper.setAttribute("visibility","visible");
  }
  var svg = svgDocument.getRootElement();
  if(svg)
  {
    svg.setAttribute("width","307.000mm");
    svg.setAttribute("height","220.000mm");
    svg.setAttribute("viewBox","-5.000000 -5.000000 307.000000 220.000000");
  }
}
]]></script><defs/><g><path style="fill:#000000;fill-opacity:0.098;fill-rule:evenodd" d="M33.41,33.74L34.50,33.80L34.80,32.28L35.51,31.37L36.42,30.66L37.05,30.48L37.57,31.01L37.56,32.52L37.20,33.42L35.90,34.63L34.85,34.62L34.13,34.45L26.04,29.75L25.81,29.38L26.01,29.38zM12.92,42.52L15.69,44.01L16.50,44.05L16.86,42.60L17.50,41.62L18.06,41.10L18.60,40.91L19.21,40.90L19.42,41.06L19.75,41.83L19.56,42.96L18.95,44.15L17.89,44.89L16.85,44.88L15.78,44.52L8.02,39.99L7.98,39.82L8.20,39.82zM73.02,43.62L74.48,44.68L75.72,46.32L76.62,48.84L76.98,51.72L76.62,55.57L76.37,55.86L76.79,56.04L77.90,56.92L78.60,58.40L78.27,58.38L75.72,57.12L74.40,57.12L73.73,57.35L72.30,58.08L71.24,59.00L69.54,60.90L68.16,63.66L67.80,65.10L67.79,67.93L68.35,69.17L90.68,82.01L90.66,78.96L91.01,77.33L92.59,74.23L93.86,72.62L95.64,71.16L97.26,70.44L99.13,70.44L97.62,70.62L95.69,71.57L93.73,73.39L92.28,75.54L91.37,77.69L90.94,79.50L91.74,79.62L91.91,80.34L91.57,80.76L91.36,80.54L91.38,81.16L90.96,81.43L91.21,82.31L96.44,85.24L96.37,84.82L97.27,84.67L97.86,84.36L97.85,81.94L97.63,81.93L97.32,82.22L97.31,81.29L98.40,78.78L100.12,76.36L102.18,74.82L103.27,74.31L103.02,73.66L105.07,73.67L106.16,74.56L106.86,76.02L107.04,78.06L106.68,80.22L105.72,82.50L104.64,84.12L103.37,85.55L101.56,86.80L100.15,87.37L98.57,87.37L95.72,85.90L71.23,71.87L69.23,71.89L68.16,71.52L67.81,71.34L64.94,73.40L62.03,74.81L59.82,75.30L57.71,75.31L56.27,74.95L36.49,63.59L35.04,61.98L34.29,60.54L34.25,60.17L34.48,60.15L46.40,67.00L52.35,70.31L51.96,67.92L51.96,64.74L52.44,61.62L53.70,57.66L55.20,54.66L57.10,51.52L58.64,49.64L59.72,48.38L61.26,46.86L64.20,44.76L67.03,43.45L68.46,43.08L71.40,43.08zM77.89,71.32L78.24,72.60L77.10,73.35L76.80,73.33L76.61,72.79L76.61,71.74L76.91,71.34L77.71,71.13zM124.50,75.84L126.12,76.56L127.40,77.80L128.28,79.26L129.00,81.96L129.00,85.26L128.82,86.52L127.91,89.93L126.96,92.22L125.76,94.62L123.35,98.15L121.00,100.48L118.91,102.17L115.81,103.75L114.18,104.10L112.08,104.10L111.17,103.93L109.58,103.00L108.49,101.93L107.76,100.68L107.39,99.61L107.04,97.08L107.04,95.34L107.39,92.63L108.48,88.86L110.40,85.02L112.10,82.58L114.08,80.24L115.50,78.96L117.66,77.34L120.48,76.02L122.10,75.66L123.60,75.66zM78.25,87.05L78.00,87.72L75.71,89.05L75.71,87.07L77.65,85.90L78.05,85.91zM147.18,94.92L148.11,95.61L148.80,96.72L149.34,98.34L149.34,101.28L149.16,102.18L148.62,104.16L147.30,106.98L145.68,109.14L144.58,110.38L142.68,111.90L140.29,112.93L137.99,112.93L135.14,111.46L131.17,109.13L130.44,108.24L130.03,107.31L130.24,107.32L134.96,110.05L135.30,110.11L135.06,107.71L135.25,106.45L135.67,105.97L136.32,103.38L137.84,100.40L139.91,97.79L141.98,96.08L144.05,95.09L144.25,94.75L144.96,94.56L145.92,94.56zM174.36,104.10L175.64,105.34L176.70,107.34L177.24,109.50L177.24,113.34L176.69,116.03L175.75,118.87L173.76,122.82L171.59,125.87L170.60,127.04L167.98,129.28L165.90,130.62L163.73,131.51L162.24,131.82L160.32,131.82L158.87,131.47L153.49,128.39L152.59,127.67L151.51,126.05L151.24,125.17L151.31,125.15L155.13,127.32L155.46,127.34L155.28,126.06L155.28,123.42L155.64,120.90L156.35,118.19L157.92,114.36L160.06,110.92L161.60,109.04L163.03,107.41L164.11,106.51L166.56,104.82L168.90,103.74L170.34,103.38L172.74,103.38zM201.00,119.41L202.46,120.46L203.34,121.74L204.24,123.90L204.61,126.79L204.42,129.36L204.06,131.16L202.98,134.58L201.36,137.82L198.95,141.35L198.05,142.43L195.89,144.41L193.44,146.10L191.05,147.13L189.06,147.48L188.04,147.48L186.23,147.13L180.14,143.68L178.87,142.61L177.95,141.01L177.90,140.45L178.12,140.43L180.86,142.06L182.67,143.02L182.45,139.99L182.76,136.86L183.72,133.32L185.34,129.72L187.15,126.67L188.86,124.60L190.32,123.00L192.85,121.03L194.28,120.12L196.62,119.22L197.34,119.04L200.47,119.06zM280.76,185.81L280.95,186.22L277.88,184.54L210.82,146.07L210.83,145.86L211.06,145.83zM287.58,182.58L288.68,182.59L288.84,183.48L288.84,185.70L288.66,186.42L287.89,187.81L285.90,189.96L284.34,189.96L283.23,189.81L283.01,189.65L283.08,185.70L284.16,184.80L285.42,183.00L285.73,182.40zM66.60,49.68L66.68,49.58L67.99,49.56zM76.08,55.69L74.26,55.92L74.29,56.63L73.02,57.18L71.94,57.90L70.52,59.18L68.98,61.24L67.75,63.79L67.08,66.00L66.48,66.12L66.36,66.72L66.36,68.10L66.57,69.41L59.72,65.56L58.79,64.87L58.61,64.33L58.62,60.96L59.15,58.97L60.59,56.09L62.15,54.05L63.48,52.86L65.22,51.72L66.12,51.36L68.53,51.35zM65.22,50.28L63.58,51.34L62.24,52.52L60.43,54.49L58.62,57.54L57.48,60.72L57.18,63.30L57.24,65.53L57.00,64.68L57.00,62.04L57.53,59.51L58.92,56.40L60.26,54.32L61.97,52.25L63.79,50.83L65.93,49.73L66.60,49.68zM57.37,66.00L57.24,65.53L57.35,65.62zM123.96,78.72L124.86,79.26L125.78,80.32L126.66,82.14L127.02,84.30L126.84,86.88L126.48,88.68L125.22,92.10L124.32,93.72L122.34,96.60L120.46,98.50L118.66,99.94L116.52,101.04L115.08,101.40L112.97,101.41L111.90,101.04L111.01,100.49L110.12,99.40L109.37,97.63L109.20,96.72L109.20,93.18L109.73,90.65L111.30,86.82L112.73,84.65L113.72,83.30L115.60,81.22L117.60,79.80L119.63,78.77L121.20,78.36L122.70,78.36zM103.82,79.06L103.80,80.40L103.62,80.94L102.73,82.39L101.78,83.05L100.72,83.06L100.19,82.33L100.20,81.29L100.56,80.22L101.20,79.24L102.12,78.54L102.56,78.36zM148.45,98.33L148.62,99.06L148.62,101.82L148.25,103.25L147.30,105.72L145.56,108.48L143.96,110.12L141.90,111.48L140.83,111.85L138.35,111.85L137.11,110.93L136.37,109.33L136.20,108.24L136.20,106.86L136.55,104.69L137.46,102.36L138.91,99.85L140.72,97.88L142.50,96.60L143.88,95.99L144.48,95.99zM172.02,105.34L171.49,106.51L170.51,107.18L170.57,107.50L170.94,107.71L170.21,107.70L167.82,108.06L166.26,108.84L164.82,109.92L163.40,111.20L161.96,113.00L160.50,115.32L159.37,118.15L158.88,120.36L158.90,124.50L157.62,123.72L157.08,122.10L156.90,121.90L156.89,121.45L157.25,119.81L157.45,119.47L157.61,118.19L159.07,114.61L160.52,112.28L162.22,110.02L164.03,108.23L165.00,107.94L166.21,106.62L166.43,106.59L166.79,106.81L168.77,106.85L169.69,106.12L169.71,105.73L168.88,105.54L170.57,105.17zM173.84,107.13L173.65,108.85L173.45,109.21L172.93,109.14L172.20,108.27L171.83,108.24L171.83,107.95L172.56,107.39L172.69,107.16L173.47,107.38L173.66,106.95zM175.61,108.97L175.98,110.40L175.98,114.06L175.26,117.30L174.30,119.58L173.04,122.10L170.78,125.24L167.90,127.94L165.66,129.30L163.51,130.03L160.85,130.03L159.57,129.48L159.36,129.29L161.15,129.29L162.13,128.46L162.28,128.01L162.29,127.68L163.19,128.23L164.77,128.23L165.90,127.20L166.20,126.78L168.53,125.15L170.04,123.60L172.14,120.48L173.46,117.48L174.12,114.72L174.37,114.25L174.37,112.91L174.17,112.57L173.93,110.76L174.18,110.46L174.36,109.74L174.35,108.23zM172.01,111.85L172.56,113.28L172.56,115.86L172.38,116.76L171.66,118.92L170.57,120.89L168.96,123.06L167.71,124.15L166.20,125.16L164.59,125.71L163.01,125.71L161.94,125.34L161.05,124.79L160.13,123.01L160.13,119.45L160.86,116.94L162.49,113.89L164.47,111.55L166.38,110.22L167.45,109.67L168.25,109.67zM199.38,121.38L199.39,122.17L199.03,123.07L197.88,124.08L195.72,124.26L193.56,125.16L191.29,126.85L189.58,128.92L187.85,131.87L186.95,134.57L186.59,137.11L186.80,139.61L185.22,138.78L184.98,138.12L184.80,137.93L184.79,137.28L184.99,136.15L184.78,135.61L184.79,134.94L185.29,133.27L186.70,130.00L188.23,127.57L189.59,125.87L190.86,124.62L192.29,124.07L193.36,123.00L193.79,123.19L196.07,123.17L197.37,122.11L197.32,121.20L198.66,121.20zM195.39,121.90L194.29,122.47L193.55,122.47L195.01,121.72L195.41,121.72zM201.00,123.90L201.90,124.44L202.62,124.98L202.98,126.42L202.98,129.54L202.62,131.52L201.90,133.86L200.40,137.04L198.30,140.16L195.53,142.97L192.84,144.60L190.69,145.33L188.39,145.33L187.32,144.96L186.58,144.57L186.54,144.40L187.82,144.43L189.12,143.38L189.31,143.15L190.01,143.53L191.59,143.53L192.56,142.88L193.79,141.41L195.07,140.53L196.86,139.08L198.22,137.02L200.29,133.15L200.83,128.83L201.36,127.74L201.37,126.05L200.63,125.15L200.62,126.22L200.46,126.65L200.30,126.62L199.33,124.98L200.11,124.33L200.45,122.63zM157.97,124.63L158.35,125.34L158.35,125.94L158.16,126.48L157.72,126.97L157.45,126.98L157.07,125.71L157.09,124.87L157.39,124.44L157.61,124.41zM161.21,127.32L160.61,128.21L159.55,128.77L158.68,128.78L158.31,128.41L158.42,128.02L159.08,127.58L159.19,126.22L159.40,126.21zM198.30,128.22L198.84,129.30L198.84,132.24L198.47,133.49L197.40,135.84L195.78,138.00L194.54,139.10L192.49,140.11L190.37,140.11L189.13,139.37L188.39,138.31L188.21,137.59L188.21,134.93L188.88,132.72L189.76,130.90L190.93,129.19L192.84,127.32L194.64,126.41L195.24,126.41zM185.22,138.78L185.16,139.80L184.63,140.90L184.43,140.48L184.39,138.28L184.61,138.27zM188.07,141.72L188.06,141.95L187.43,142.97L186.18,143.72L185.71,143.71L185.13,142.80L185.09,142.45L185.70,142.31L185.89,141.97L186.18,140.47zM190.41,142.45L190.40,142.66L190.16,142.83L189.06,142.87L189.06,142.25z"/><g id="Actor_.0"><g style="stroke:#000000;stroke-width:0.176"><path d="M197.34,121.07L197.32,121.24L197.29,121.45L197.27,121.49L197.20,121.51L197.04,121.52L196.92,121.51L196.57,121.48L196.29,121.44L195.85,121.37L196.31,121.22L197.57,121.04L198.75,121.11L199.82,121.43L200.77,121.98L201.58,122.76L202.22,123.76L202.69,124.95L202.97,126.30L203.07,127.80L202.97,129.40L202.69,131.09L202.22,132.81L201.58,134.55L200.77,136.25L199.82,137.90L198.75,139.44L197.57,140.86L196.31,142.13L195.00,143.21L193.66,144.09L192.32,144.75L191.01,145.17L189.76,145.35L188.58,145.28L187.50,144.96L186.55,144.41L185.75,143.62L185.11,142.63L184.64,141.44L184.55,141.01L184.87,141.42L185.03,141.63L185.18,141.85L185.27,142.00L185.33,142.12L185.33,142.19L185.22,142.27L185.67,142.53L186.44,142.94L186.79,143.11L187.13,143.26L187.55,143.43L187.95,143.56L188.22,143.62L188.39,143.64L188.54,143.65L188.74,143.64L188.89,143.59L188.93,143.56L189.02,143.48L189.16,143.17L189.26,142.84L189.31,142.65L189.26,142.76L189.16,142.84L189.12,142.86L188.96,142.90L188.76,142.91L188.70,142.90L188.45,142.87L188.18,142.80L187.80,142.67L187.48,142.54L187.24,142.43L186.72,142.17L185.96,141.76L185.93,141.82L185.73,142.11L185.53,142.33L185.54,142.32L185.53,142.25L185.45,142.10L185.36,141.95L185.18,141.69L185.01,141.46L184.75,141.13L184.51,140.85L184.35,140.08L184.26,138.59L184.27,138.31L184.31,138.28L184.44,138.16L184.48,138.11L184.58,137.92L184.65,137.69L184.66,137.61L184.69,137.33L184.69,136.99L184.64,136.59L184.57,136.24L184.52,136.03L184.35,136.98L184.27,138.31"/><path d="M184.51,140.85L184.55,141.01"/><path d="M193.35,122.74L193.27,122.88L193.24,122.92L193.08,123.09L192.87,123.26L192.81,123.30L192.54,123.45L192.24,123.59L192.14,123.64L191.80,123.75L191.55,123.82L192.32,123.18L193.42,122.46L193.41,122.52L193.37,122.70L193.35,122.74L193.57,122.91L193.87,123.07L194.17,123.21L194.23,123.19L194.88,123.10L195.48,123.09L195.76,123.12L196.31,123.24L196.84,123.44L198.48,124.37L197.55,124.07L196.52,124.01L195.41,124.21L195.23,124.28L194.25,124.65L193.08,125.32L191.92,126.21L190.81,127.29L189.78,128.53L188.85,129.90L188.05,131.35L187.96,131.57L187.41,132.86L186.94,134.38L186.65,135.86L186.56,137.27L186.65,138.57L186.94,139.72L187.41,140.70L188.05,141.47L188.85,142.01L189.78,142.32L190.81,142.37L191.92,142.18L193.08,141.74L193.43,141.53L193.43,141.58L193.40,141.66L193.30,141.91L193.14,142.13L193.08,142.20L192.85,142.40L192.59,142.56L192.49,142.61L192.18,142.73L191.84,142.81L191.73,142.83L191.36,142.87L190.97,142.87L190.87,142.86L190.48,142.82L190.01,142.72L189.65,142.62L189.29,142.48L189.21,142.31L189.18,142.26L189.09,142.16L189.07,142.59L189.02,142.68L188.93,142.76L188.90,142.77L188.75,142.80L188.55,142.81L188.27,142.77L188.01,142.70L187.68,142.58L187.33,142.44L187.00,142.29L186.67,142.13L185.97,141.76L186.02,141.66L186.00,141.59L185.92,141.44L185.82,141.28L185.64,141.03L185.27,140.55L184.99,140.21L184.69,139.87L184.42,139.59L184.31,139.49"/><path d="M184.52,136.03L184.64,135.30L184.68,135.15L184.75,135.28L184.88,135.69L184.95,135.95L184.97,136.31L184.96,136.54L185.00,137.28L185.12,138.01L185.29,138.64L185.00,138.43L184.72,138.25L184.45,138.15"/><path d="M184.68,137.42L184.76,137.26L184.88,136.95L184.96,136.54"/><path d="M185.52,132.46L185.55,132.41L185.71,132.09L185.75,131.99L185.87,131.64L185.90,131.53L185.75,131.84L185.11,133.57L184.68,135.15"/><path d="M185.53,142.33L185.48,142.35L185.40,142.33L185.24,142.26"/><path d="M185.22,142.27L185.03,142.42"/><path d="M187.30,141.12L186.80,140.83L186.36,140.47L185.99,140.04L185.83,139.81L185.54,139.28L185.29,138.64"/><path d="M185.06,138.48L185.08,138.50"/><path d="M185.00,137.23L184.96,136.92"/><path d="M191.24,124.57L191.46,124.42L191.24,124.57L190.56,125.09L189.89,125.68L189.25,126.33L188.71,126.94L188.66,127.02L188.46,127.28L188.37,127.36L187.82,128.11L187.29,128.92L186.80,129.76L186.36,130.63L185.99,131.48L185.96,131.59L185.84,131.90L185.80,131.99L185.54,132.76L185.29,133.65L185.12,134.52L185.00,135.37L184.96,136.16"/><path d="M184.94,135.94L184.95,135.95"/><path d="M185.80,131.99L185.68,132.20L185.61,132.29"/><path d="M186.34,144.20L186.46,144.24L187.20,144.39L187.42,144.42L188.32,144.42L189.19,144.30L190.08,144.07L190.87,143.76L191.08,143.67L190.87,143.76"/><path d="M185.96,141.76L185.97,141.76"/><path d="M186.06,140.11L186.07,140.44L186.04,140.74L186.00,141.04L185.89,141.38"/><path d="M185.90,131.53L186.55,130.14L187.50,128.49L188.58,126.94L188.99,126.44L188.86,126.67L188.80,126.75L188.57,127.04L188.36,127.25"/><path d="M186.03,131.24L186.03,131.29L185.99,131.48"/><path d="M187.64,144.42L187.94,144.27L188.23,144.05L188.38,143.91L188.58,143.69L188.62,143.65"/><path d="M187.29,141.11L188.85,142.01"/><path d="M188.48,138.42L188.47,138.39L188.74,138.86L189.13,139.32"/><path d="M188.47,138.39L188.25,137.77L188.11,137.03L188.07,136.30"/><path d="M188.06,136.28L188.06,136.33"/><path d="M188.71,126.94L188.84,126.73L188.88,126.64"/><path d="M188.38,127.35L188.23,127.49L188.18,127.52"/><path d="M188.99,126.44L189.76,125.52L191.01,124.26L191.55,123.82"/><path d="M189.07,142.56L189.07,142.55"/><path d="M189.29,142.48L189.31,142.61L189.31,142.65"/><path d="M189.23,142.96L189.34,143.07L189.72,143.29L190.02,143.41L190.44,143.52L190.78,143.53L191.18,143.52L191.65,143.39L191.08,143.67L191.30,143.56"/><path d="M189.09,142.09L189.09,142.13L189.09,142.09"/><path d="M189.09,142.16L189.09,142.13"/><path d="M189.50,139.58L189.10,139.29"/><path d="M190.87,143.76L190.99,143.72L191.41,143.51"/><path d="M192.85,123.27L192.76,123.42L192.54,123.67L192.23,123.95L191.88,124.15L191.69,124.24L191.45,124.31L191.03,124.40L190.87,124.40"/><path d="M199.46,121.32L199.62,121.45L200.11,122.02L200.19,122.12L200.30,122.29L200.69,122.99L201.02,123.81L201.26,124.70L201.41,125.67L201.48,126.83L201.41,128.16L201.26,129.30L201.02,130.47L200.69,131.66L200.30,132.81L200.25,132.99L200.14,133.28L200.06,133.42L199.62,134.43L199.03,135.60L198.38,136.73L197.67,137.81L197.01,138.70L196.93,138.84L196.74,139.08L196.60,139.22L195.80,140.13L194.94,141.00L194.05,141.79L193.14,142.48L192.13,143.15L191.65,143.39"/><path d="M191.50,143.47L191.60,143.42"/><path d="M191.66,124.25L191.70,124.24"/><path d="M191.88,124.15L191.46,124.42"/><path d="M192.25,143.06L192.56,142.78L192.76,142.55L192.85,142.40"/><path d="M192.23,123.95L192.89,123.62L192.55,123.77"/><path d="M192.89,123.62L193.57,123.36L194.17,123.21"/><path d="M193.43,141.53L194.25,141.06L195.41,140.18L196.26,139.35L196.50,139.18L196.79,138.91L196.87,138.82L197.10,138.52L197.29,138.17L196.52,139.10L196.27,139.34"/><path d="M193.52,126.86L193.52,126.81"/><path d="M193.59,126.74L193.55,126.77L194.23,126.44L194.93,126.20L195.60,126.07"/><path d="M193.55,126.77L193.52,126.79"/><path d="M193.42,122.46L193.66,122.30L195.00,121.64L195.69,121.42L196.14,121.50L196.49,121.55L196.86,121.59L197.09,121.61L197.32,121.62L197.44,121.61L197.50,121.59L197.51,121.58L197.42,121.86L197.27,122.18L197.23,122.26L197.62,122.49L198.05,122.77L198.37,122.98L198.77,123.27L199.03,123.48L199.33,123.76L199.50,123.96L199.63,124.15L199.66,124.20L199.73,124.37L199.75,124.52L199.75,124.55L199.71,124.67L199.62,124.75L199.59,124.77L199.45,124.81L199.27,124.81L199.12,124.79L199.11,124.80L199.27,124.92L199.92,125.69L200.39,126.66L200.67,127.82L200.77,129.12L200.67,130.53L200.39,132.01L199.92,133.53L199.75,133.91L199.96,133.56L200.11,133.21L200.14,133.09L200.23,132.71L200.25,132.46"/><path d="M194.42,121.92L194.69,122.00L195.06,122.09L195.54,122.18L195.95,122.25L196.28,122.30L196.63,122.34L196.87,122.36L196.63,122.63L196.39,122.82L196.13,122.99L195.85,123.14"/><path d="M196.59,139.22L196.60,139.22L196.33,139.44L196.04,139.62L195.94,139.66"/><path d="M195.56,126.08L196.12,126.08L196.70,126.20"/><path d="M195.69,121.42L195.85,121.37"/><path d="M197.01,138.70L197.09,138.58L197.14,138.45"/><path d="M197.29,138.17L197.55,137.86L198.48,136.49L199.27,135.03L199.75,133.91"/><path d="M197.11,126.39L196.65,126.19"/><path d="M197.23,122.26L197.19,122.32L197.14,122.35L197.04,122.36L196.87,122.36"/><path d="M197.22,122.27L197.77,122.60L198.07,122.80L198.37,123.01L198.71,123.27L198.95,123.47L199.21,123.72L199.36,123.91L199.49,124.12L199.55,124.29L199.55,124.42L199.50,124.54L199.10,124.80L198.48,124.37"/><path d="M197.30,121.37L197.45,121.48L197.50,121.54L197.51,121.58"/><path d="M197.30,121.36L198.02,121.79L198.35,122.00L198.77,122.28L199.17,122.57L199.45,122.79L199.76,123.07L199.95,123.28L200.10,123.48L200.18,123.62L200.20,123.58L200.28,123.30L200.32,123.09L200.38,122.74L200.36,122.39"/><path d="M199.12,124.79L199.12,124.79"/><path d="M199.11,124.80L199.10,124.80"/><path d="M200.06,133.42L199.99,133.55L199.90,133.67"/><path d="M200.30,132.81L200.36,132.47L200.38,132.12L200.37,132.07"/><path d="M201.47,127.10L201.37,127.51L201.27,127.79L201.19,127.95L201.21,127.81L201.20,127.48L201.14,127.15L201.11,127.03L200.99,126.70L200.83,126.36L200.78,126.26L200.57,125.93L200.33,125.62L200.25,125.53L199.99,125.25L199.71,124.99L199.47,124.80"/><path d="M199.62,124.75L199.80,124.59L200.03,124.34L200.23,124.06L200.26,123.93L200.26,123.88L200.22,123.72L200.18,123.62"/><path d="M201.45,126.43L201.33,125.95L201.14,125.60L200.96,125.30L200.66,125.00L200.40,124.79L200.02,124.58L199.86,124.53"/><path d="M200.75,128.87L200.86,128.77L201.01,128.55L201.05,128.47L201.15,128.20L201.19,127.95"/><path d="M201.38,125.50L201.46,126.50"/><path d="M201.38,125.51L201.41,125.79"/></g><g style="stroke:#000000;stroke-width:0.529"><path d="M179.46,143.01L179.06,142.64L178.50,141.93L178.03,141.13L177.98,141.02L177.60,140.12L177.31,139.13L177.12,138.06L177.02,136.92L177.02,136.83L177.02,135.63L177.11,134.39L177.31,133.11L177.59,131.80L177.97,130.47L178.43,129.14L178.98,127.82L179.61,126.51L180.31,125.24L181.08,124.01L181.91,122.82L182.77,121.74L183.73,120.66L184.69,119.69L185.69,118.82L186.70,118.04L187.73,117.37L188.84,116.76L189.87,116.31L190.89,115.98L191.88,115.77L192.95,115.68L193.87,115.72L194.74,115.89L195.67,116.23L196.42,116.64L201.45,119.53L202.12,120.06L202.22,120.15L202.81,120.79L203.33,121.55L203.81,122.51L204.14,123.46L204.38,124.49L204.53,125.59L204.58,126.76L204.53,128.07L204.38,129.34L204.14,130.64L203.81,131.95L203.46,133.07L203.39,133.28L202.88,134.61L202.29,135.93L201.63,137.22L200.89,138.48L200.34,139.31L200.09,139.68L199.23,140.84L198.33,141.92L197.38,142.93L196.40,143.85L195.60,144.50L195.39,144.68L194.37,145.40L193.34,146.02L193.26,146.07L192.22,146.58L191.20,146.97L190.20,147.24L189.22,147.38L189.10,147.39L188.16,147.41L187.27,147.30L186.43,147.07L186.31,147.03L185.53,146.67L180.50,143.79L180.31,143.66"/><path d="M188.06,136.28L188.07,136.30L188.71,135.88L189.42,135.31L190.11,134.65L190.75,133.90L191.36,133.09L191.90,132.23L192.38,131.32L192.78,130.39L193.10,129.46L193.33,128.53L193.47,127.63L193.52,126.79L192.87,127.21L192.16,127.78L191.48,128.45L190.83,129.19L190.26,129.95L190.23,130.00L189.68,130.87L189.21,131.77L188.80,132.70L188.48,133.63L188.25,134.56L188.11,135.46L188.06,136.28"/></g></g><g id="Actor_.1"><g style="stroke:#000000;stroke-width:0.176"><path d="M210.45,144.88L210.55,144.15L210.83,143.39L211.26,142.67L211.80,142.09L212.39,141.69"/><path d="M281.09,187.58L281.09,184.72L282.92,185.76L283.35,185.41L284.06,184.75L284.61,184.13L284.13,184.80L283.73,185.56L283.42,186.34L283.24,187.12L283.18,187.83L283.24,188.48L283.42,189.04L283.73,189.47L284.13,189.76L284.61,189.89L285.15,189.86L285.74,189.67L286.35,189.32L286.95,188.83L287.48,188.24L287.96,187.57L288.37,186.82L288.67,186.04L288.86,185.27L288.92,184.54L288.86,183.89L288.67,183.33L288.37,182.89L287.96,182.60L287.48,182.48L286.95,182.51L286.35,182.70L285.74,183.05L285.15,183.54L284.61,184.13L285.10,183.46L285.56,182.66L285.79,182.19L286.93,182.41L287.48,182.48L287.97,182.51L288.43,182.49L288.66,182.47"/><path d="M281.09,185.20L280.98,185.60L280.92,186.15"/><path d="M283.51,181.71L281.09,184.72"/><path d="M281.41,184.32L281.72,183.68L282.31,182.81L283.01,182.08L283.43,181.77"/><path d="M282.92,185.76L283.02,186.27L283.14,187.12L283.18,187.83L283.14,188.50L283.02,189.22L282.92,189.60"/><path d="M285.79,182.19L283.97,181.15"/><path d="M285.65,181.31L284.64,181.21"/></g><g style="stroke:#000000;stroke-width:0.529"><path d="M243.99,164.96L210.83,145.94L210.55,145.50L210.45,144.88L210.45,144.54L210.53,143.93L210.77,143.29L211.13,142.70L211.58,142.21L212.07,141.88L212.39,141.69L212.97,141.53L213.46,141.62L283.43,181.77L283.51,181.71L283.97,181.15L284.64,181.21L285.19,181.16L285.65,181.31L286.84,181.42L288.66,182.47L288.76,182.97L288.88,183.82L288.92,184.54L288.88,185.23L288.76,185.94L288.66,186.31L288.43,186.79L287.96,187.58L287.48,188.24L286.93,188.87L286.22,189.52L285.79,189.88L285.56,189.90L285.10,189.92L284.61,189.89L284.06,189.82L282.92,189.60L281.09,188.56L281.09,187.58L280.98,187.32L280.88,186.51L280.92,186.15L244.82,165.44"/></g></g><g id="Actor_.2"><g style="stroke:#000000;stroke-width:0.176"><path d="M129.53,104.65L129.63,103.22L129.92,101.72L130.40,100.19L131.05,98.67L131.85,97.20L132.79,95.82L133.83,94.57L134.95,93.48L136.12,92.58"/><path d="M137.38,112.61L136.58,112.06L135.93,111.28L135.91,111.24L135.45,110.30L135.16,109.13L135.06,107.82L135.16,106.39L135.45,104.89L135.93,103.36L136.58,101.84L137.38,100.37L138.12,99.29L138.32,98.99L139.36,97.74L140.48,96.65L141.65,95.75L142.84,95.07L144.01,94.63L145.13,94.43L146.17,94.48L147.11,94.79"/><path d="M149.42,99.79L149.33,98.51L149.04,97.37L148.58,96.41L147.95,95.65L147.16,95.12L146.25,94.82L145.24,94.76L144.14,94.96L143.00,95.39L141.85,96.05L140.70,96.93L139.61,97.99L138.59,99.21L137.68,100.56L136.90,101.99L136.27,103.48L135.80,104.97L135.52,106.43L135.42,107.82L135.52,109.10L135.80,110.23L136.27,111.19L136.90,111.95L137.68,112.49L138.59,112.79L139.61,112.84L140.70,112.65L141.85,112.22L143.00,111.55"/><path d="M136.16,107.90L136.22,108.63L136.50,109.70L136.97,110.58L137.60,111.26L138.37,111.72L139.27,111.93L140.27,111.90L141.33,111.62L142.42,111.10L143.52,110.36L144.58,109.43L145.57,108.32L146.47,107.08L147.25,105.73L147.88,104.32L148.34,102.90L148.63,101.51L148.72,100.19L148.63,98.98L148.34,97.91L147.88,97.02L147.25,96.34L146.47,95.89L145.57,95.68L144.58,95.71L143.52,95.99L142.80,96.33"/><path d="M142.84,111.65L142.84,111.65"/></g><g style="stroke:#000000;stroke-width:0.529"><path d="M141.69,91.69L147.11,94.79L147.91,95.34L148.56,96.12L149.04,97.10L149.33,98.27L149.42,99.58L149.42,99.79L149.33,101.18L149.04,102.64L148.58,104.13L147.95,105.62L147.16,107.05L146.25,108.40L145.24,109.62L144.14,110.68L143.00,111.55L141.65,112.33L140.48,112.77L139.36,112.97L138.32,112.92L137.38,112.61L131.85,109.44L131.05,108.89L130.40,108.11L129.92,107.13L129.63,105.96L129.53,104.65L129.53,104.44L129.63,103.05L129.91,101.59L130.38,100.10L131.01,98.61L131.79,97.18L132.71,95.83L133.72,94.61L134.82,93.55L135.96,92.68L137.31,91.90L138.48,91.45L139.60,91.26L140.64,91.31L140.79,91.36"/><path d="M136.16,107.90L136.54,107.73L137.63,106.99L138.69,106.05L139.69,104.94L140.39,103.96L140.59,103.69L141.36,102.35L141.99,100.95L142.46,99.53L142.74,98.14L142.84,96.81L142.80,96.33"/><path d="M142.80,96.33L142.42,96.50L141.33,97.24L140.27,98.18L139.27,99.29L138.37,100.54L137.60,101.88L136.97,103.28L136.50,104.70L136.22,106.09L136.12,107.42L136.16,107.90"/></g></g><g id="Actor_.3"><g style="stroke:#000000;stroke-width:0.176"/><g style="stroke:#000000;stroke-width:0.529"><path d="M70.91,87.05L63.61,82.86L63.59,82.85L63.23,82.59L62.89,82.23L62.60,81.81L62.38,81.35L62.24,80.88L62.19,80.43L62.19,80.41L62.24,80.01L62.40,79.66L62.65,79.43L64.98,78.09L65.31,77.99L65.34,77.99L65.68,78.02L66.05,78.18L76.84,84.37L77.20,84.63L77.54,84.98L77.83,85.41L78.05,85.87L78.19,86.34L78.24,86.79L78.24,86.81L78.19,87.21L78.03,87.55L77.78,87.79L75.45,89.13L75.12,89.23L74.75,89.20L74.38,89.04L71.81,87.56"/></g></g><g id="Actor_.4"><g style="stroke:#000000;stroke-width:0.176"><path d="M37.51,30.83L37.18,30.53L36.74,30.45L36.23,30.60L35.71,30.95L35.22,31.47L34.83,32.11L34.58,32.79L34.50,33.44L34.58,33.99L34.83,34.39L35.22,34.58"/></g><g style="stroke:#000000;stroke-width:0.529"><path d="M25.90,29.48L25.35,28.86L25.18,28.38L25.16,28.09L25.18,27.77L25.35,27.09L25.68,26.42L26.12,25.84L26.63,25.39L27.16,25.14L27.64,25.11L28.46,25.28L28.90,25.49L36.60,29.88L36.96,30.21L37.51,30.83L37.68,31.31L37.68,31.92L37.51,32.60L37.18,33.27L36.74,33.85L36.23,34.30L35.71,34.55L35.22,34.58L34.40,34.41L33.96,34.20L26.27,29.81L25.90,29.48"/></g></g><g id="Actor_.5"><g style="stroke:#000000;stroke-width:0.176"><path d="M110.20,103.35L109.25,102.64L108.44,101.70L107.80,100.57L107.34,99.25L107.06,97.77L106.96,96.15L107.06,94.42L107.34,92.62L107.80,90.76L108.44,88.89L109.25,87.04L110.20,85.23L111.29,83.50L112.49,81.88L113.79,80.40L115.16,79.07L116.58,77.93L118.02,77.00L119.46,76.28L120.88,75.79L122.25,75.54L123.30,75.54"/><path d="M124.23,78.72L124.26,78.73L125.14,79.36L125.86,80.21L126.42,81.27L126.79,82.51L126.99,83.90L127.01,84.65L126.99,85.42L126.79,87.04L126.42,88.71L125.86,90.41L125.14,92.09L124.26,93.72L123.25,95.28L122.13,96.71L120.92,98.00L119.65,99.11L118.35,100.03L117.04,100.72L115.75,101.19L114.50,101.41L113.34,101.38L112.27,101.11L111.32,100.59"/><path d="M124.32,75.70L124.75,75.78L125.84,76.26"/></g><g style="stroke:#000000;stroke-width:0.529"><path d="M123.29,75.50L122.18,75.50L120.81,75.75L119.39,76.24L117.95,76.96L116.50,77.89L115.09,79.03L113.72,80.36L112.42,81.84L111.22,83.46L110.13,85.19L109.18,87.00L108.37,88.85L107.73,90.72L107.27,92.58L106.99,94.38L106.89,96.11L106.99,97.73L107.27,99.21L107.73,100.53L108.37,101.66L109.18,102.60L110.13,103.31L110.20,103.35L111.29,103.83L112.49,104.07L113.79,104.07L115.16,103.82L116.58,103.33L118.02,102.62L119.42,101.71L119.46,101.68L120.88,100.54L122.25,99.21L123.55,97.73L124.75,96.11L125.84,94.38L126.79,92.57L127.60,90.72L128.24,88.85L128.70,87.00L128.98,85.19L129.08,83.46L128.98,81.85L128.70,80.36L128.24,79.04L127.60,77.91L126.79,76.98L125.84,76.26L125.77,76.22L124.68,75.74L124.31,75.67"/><path d="M109.03,94.96L109.13,96.42L109.41,97.72L109.41,97.74L109.88,98.90L110.52,99.85L111.32,100.59L112.20,101.07L113.27,101.34L114.43,101.37L115.67,101.15L116.97,100.68L118.28,99.98L119.42,99.18L119.58,99.07L120.85,97.96L122.06,96.67L123.18,95.23L124.19,93.68L125.06,92.05L125.79,90.37L126.34,88.67L126.72,87.00L126.91,85.38L126.94,84.61L126.91,83.86L126.72,82.47L126.34,81.23L125.79,80.17L125.06,79.32L124.23,78.72L123.25,78.34L122.13,78.19L120.92,78.29L119.65,78.63L118.35,79.21L117.04,80.02L115.75,81.04L114.50,82.24L113.34,83.60L112.27,85.10L111.32,86.70L110.52,88.36L109.88,90.05L109.41,91.74L109.13,93.39L109.03,94.96"/></g></g><g id="Actor_.6"><g style="stroke:#000000;stroke-width:0.176"><path d="M17.39,44.89L16.97,44.75L16.68,44.41L16.55,43.89L16.57,43.66L16.59,43.25L16.81,42.57L17.16,41.92L17.63,41.36L18.15,40.96L18.67,40.76L19.13,40.79L19.49,41.03"/></g><g style="stroke:#000000;stroke-width:0.529"><path d="M7.27,38.83L7.26,38.81L7.22,38.23L7.35,37.56L7.63,36.88L8.05,36.27L8.55,35.78L9.08,35.48L9.58,35.39L10.39,35.56L10.85,35.71L18.53,40.13L18.93,40.41L19.49,41.03L19.70,41.47L19.75,42.06L19.62,42.72L19.33,43.40L18.91,44.01L18.41,44.50L18.15,44.67L17.88,44.80L17.39,44.89L16.58,44.73L16.11,44.57L8.43,40.15L8.03,39.88L7.47,39.25L7.27,38.83"/></g></g><g id="Actor_.7"><g style="stroke:#000000;stroke-width:0.176"><path d="M156.92,124.94L156.98,124.89L157.23,124.61L157.28,124.46L157.29,124.26L157.27,124.04L157.23,123.88L157.20,123.76L157.10,123.48L156.97,123.17L156.82,122.86L156.78,122.80L156.76,123.12L156.86,124.66L157.15,126.06L157.32,126.49L157.73,126.83L158.83,127.80L158.81,127.79"/><path d="M156.78,122.80L156.86,121.47L157.15,119.74L157.29,119.23L157.25,119.59L157.19,119.81L157.32,119.58L157.41,119.31L157.30,120.24L157.26,121.19L157.30,122.09L157.37,122.58L157.32,122.44"/><path d="M162.18,128.34L162.17,128.38L162.34,127.88L162.38,127.70L162.33,127.81L162.23,127.89L162.05,127.96L161.83,127.98L161.59,127.97L161.30,127.92L161.00,127.85L160.67,127.74L160.35,127.61L160.00,127.46L159.68,127.31L159.34,127.15L159.06,127.00L159.03,127.07L159.19,127.22L159.06,127.44L158.83,127.80L158.65,127.70L158.58,127.63L157.96,127.08L157.35,126.57L157.32,126.49"/><path d="M161.81,110.42L161.75,110.49L161.85,110.37L162.50,109.69L163.27,109.00L164.06,108.39L164.84,107.87L165.15,107.70L165.92,107.32L166.71,107.02L167.48,106.83L168.21,106.75L168.40,106.75L168.49,106.75L169.16,106.81L169.82,106.97L170.42,107.25L171.90,108.10L170.98,107.72L169.95,107.57L168.82,107.68L167.64,108.03L166.43,108.61L165.22,109.42L164.04,110.42L162.92,111.60L161.89,112.93L160.96,114.38L160.17,115.90L159.54,117.48L159.08,119.03L158.79,120.56L158.70,122.01L158.79,123.36L159.08,124.56L159.54,125.60L160.17,126.43L160.96,127.05L161.89,127.43L162.36,127.50L162.38,127.55L162.38,127.58L162.91,128.01L163.29,128.16L163.57,128.24L163.96,128.27L164.26,128.24L164.65,128.14L165.05,127.94L165.16,127.86L165.94,127.36L166.75,126.76L167.54,126.10L168.31,125.37L169.04,124.61L169.25,124.40L169.43,124.15L169.85,123.65L169.95,123.55L170.98,122.22L171.90,120.77L172.69,119.25L173.33,117.69L173.39,117.48L173.79,116.12L174.07,114.59L174.17,113.14L174.07,111.79L173.79,110.59L173.77,110.54L173.78,110.31L173.73,110.04L173.62,109.75L173.48,109.48L173.30,109.21L173.06,108.91L172.81,108.65L172.52,108.38L172.25,108.16L172.10,108.05L171.83,107.87L171.75,107.71L172.07,107.49L172.18,107.40L172.20,107.35L172.17,107.27L172.10,107.17L171.97,107.05L171.90,106.99L171.81,106.91L171.60,106.77L171.35,106.60L170.98,106.38L171.31,106.58L171.61,106.76L171.84,106.92L172.07,107.09L172.22,107.23L172.32,107.34L172.36,107.44L172.35,107.51L172.38,107.48L172.59,107.63L172.85,107.84L173.14,108.08L173.41,108.35L173.66,108.65L173.86,108.93L174.03,109.20L174.16,109.51L174.23,109.77L174.25,109.92L174.32,109.78L174.40,109.50L174.46,109.02L174.42,108.80L174.17,107.93L173.88,107.22L173.53,106.57L173.11,106.00L172.66,105.52L172.54,105.40L172.77,105.47L173.75,106.04L174.57,106.85L175.23,107.87L175.72,109.09L176.01,110.49L176.11,112.03L176.03,113.32L176.01,113.68L175.72,115.41L175.23,117.18L174.57,118.97L173.75,120.72L172.77,122.41L171.66,124.00L170.45,125.47L169.16,126.77L167.81,127.88L166.43,128.78L165.06,129.46L163.71,129.89L162.41,130.08L161.20,130.00L160.10,129.68L159.12,129.11L158.29,128.30L157.63,127.28L157.35,126.57"/><path d="M159.06,127.00L159.06,126.99L159.03,127.07L158.26,126.40L157.81,126.01L157.46,125.73L157.23,125.55L157.01,125.39"/><path d="M157.29,124.29L157.47,124.30L157.88,124.43L157.94,124.46L157.71,123.96L157.48,123.22L157.45,123.03L157.42,122.92L157.37,122.58"/><path d="M157.28,124.14L157.30,124.11L157.40,123.84L157.45,123.58L157.48,123.22"/><path d="M157.82,124.42L157.83,124.42"/><path d="M157.26,121.79L157.30,122.09"/><path d="M157.33,122.45L157.17,122.17L156.94,121.85L156.84,121.77"/><path d="M157.08,120.13L157.17,119.92L157.19,119.81"/><path d="M161.75,110.49L161.20,111.15L160.10,112.74L159.12,114.43L158.29,116.18L157.93,117.17L157.71,117.89L157.48,118.89L157.47,119.03L157.41,119.31"/><path d="M157.93,117.17L157.63,117.97L157.29,119.23"/><path d="M157.47,118.55L157.48,118.89"/><path d="M158.69,127.72L158.65,127.70L158.59,127.75L158.39,127.93L158.21,128.05L158.26,128.22L158.35,128.36"/><path d="M158.21,128.05L158.15,128.09"/><path d="M158.74,127.75L158.65,127.70L158.68,127.72"/><path d="M158.79,127.78L158.78,127.77"/><path d="M157.94,124.46L158.02,124.64L158.41,125.23L158.85,125.72L159.04,125.89L159.57,126.25L160.96,127.05"/><path d="M158.97,128.96L159.28,129.07L159.96,129.21L160.64,129.26L160.85,129.26L161.67,129.18L162.45,129.02L163.24,128.78L163.88,128.51L164.60,128.16L164.04,128.45L163.88,128.51"/><path d="M158.91,127.67L159.25,127.85L159.56,128.00L159.92,128.16L160.25,128.30L160.60,128.42L160.91,128.51L161.24,128.58L161.50,128.60L161.73,128.60L161.81,128.59L161.77,128.64L161.58,128.86L161.37,129.02L161.15,129.17L161.00,129.25"/><path d="M159.06,126.99L159.07,126.96L159.41,127.15L159.81,127.35L160.01,127.43L160.31,127.56L160.62,127.68L160.91,127.77L161.16,127.83L161.45,127.88L161.68,127.90L161.77,127.89L161.87,127.88L162.02,127.83L162.13,127.75L162.18,127.65L162.19,127.48"/><path d="M159.07,126.96L159.13,126.70L159.15,126.47L159.16,126.15L159.12,125.95"/><path d="M160.11,122.77L160.35,123.51L160.61,124.02L161.00,124.55L161.47,124.98"/><path d="M159.94,121.18L159.93,121.22"/><path d="M161.81,128.59L161.94,128.56L162.08,128.49L162.17,128.38"/><path d="M161.39,124.90L161.91,125.21"/><path d="M161.52,122.15L161.56,122.13"/><path d="M161.69,110.56L161.67,110.58"/><path d="M161.85,110.37L162.41,109.68L163.71,108.38L165.06,107.27L166.11,106.58L166.11,106.62L166.04,106.75"/><path d="M162.38,127.70L162.38,127.58"/><path d="M163.09,127.56L163.37,127.63L163.72,127.69L164.11,127.72L164.46,127.71L164.80,127.66L165.15,127.57L165.46,127.43L165.70,127.27L165.92,127.07L166.06,126.86L166.08,126.71L165.22,127.12L164.04,127.47L162.92,127.58L162.36,127.50"/><path d="M164.08,128.42L164.54,128.20"/><path d="M164.06,108.09L164.11,108.09L164.68,107.96L164.84,107.87"/><path d="M164.60,128.16L164.65,128.14"/><path d="M164.72,107.55L164.79,107.53L165.10,107.43L165.42,107.28L165.68,107.12L165.87,106.97L166.02,106.79L166.04,106.74"/><path d="M165.16,127.86L165.31,127.73L165.51,127.52L165.68,127.29"/><path d="M166.06,126.86L166.12,126.69L166.08,126.71"/><path d="M166.12,126.69L166.43,126.54L167.64,125.73L168.82,124.73L169.43,124.09L169.32,124.23L169.20,124.33"/><path d="M165.15,107.70L165.40,107.47L165.58,107.26L165.66,107.13"/><path d="M165.92,107.32L165.64,107.44"/><path d="M166.11,106.58L166.43,106.37L167.81,105.69L168.62,105.43L168.96,105.46L169.26,105.47L169.49,105.47L169.68,105.45L169.82,105.42L169.90,105.37L169.91,105.30L169.87,105.22L169.85,105.20L169.88,105.15L170.11,105.12L170.87,105.54L171.18,105.71L170.13,105.12L170.11,105.12"/><path d="M166.32,110.12L166.36,110.09"/><path d="M167.19,106.87L167.26,106.89L166.62,106.63L166.36,106.42"/><path d="M167.90,111.09L167.91,111.13"/><path d="M168.54,109.32L167.81,109.47L167.73,109.50"/><path d="M167.22,106.87L167.20,106.87"/><path d="M167.42,105.88L167.54,105.91L167.93,105.99L168.26,106.04L168.58,106.07L168.90,106.10L169.17,106.10L169.36,106.09L169.21,106.27L169.01,106.45L168.82,106.59L168.55,106.75"/><path d="M168.70,124.83L169.04,124.61"/><path d="M169.01,124.64L169.00,124.64"/><path d="M169.05,124.60L169.09,124.56"/><path d="M168.52,109.32L169.11,109.29L169.76,109.37L170.36,109.57"/><path d="M168.79,106.60L168.82,106.70L168.86,106.78"/><path d="M168.80,105.37L169.16,105.26L169.72,105.18L169.71,105.26L169.69,105.31L169.60,105.35L169.46,105.38L169.26,105.39L169.03,105.39L168.80,105.37L168.62,105.43"/><path d="M169.43,124.15L169.52,123.99L169.43,124.09"/><path d="M169.85,123.65L169.52,123.99"/><path d="M169.36,106.09L169.53,106.06L169.63,106.03L169.68,105.97L169.79,105.71L169.90,105.37L169.91,105.30"/><path d="M169.88,105.15L169.72,105.18"/><path d="M169.71,105.26L169.72,105.25L169.73,105.18"/><path d="M169.90,105.37L169.82,105.56"/><path d="M169.81,105.16L169.85,105.20"/><path d="M169.78,105.72L170.98,106.38"/><path d="M170.13,105.12L170.45,105.07L171.66,105.15L172.54,105.40"/><path d="M171.18,105.71L171.35,105.80L171.18,105.71L171.32,105.79"/><path d="M171.75,107.71L171.62,107.79L171.57,107.81L171.81,107.94L172.07,108.11L172.32,108.30L172.58,108.53L172.83,108.76L173.06,109.02L173.25,109.28L173.41,109.55L173.53,109.80L173.61,110.05L173.63,110.22L173.77,110.54"/><path d="M171.90,108.10L172.69,108.72L173.33,109.55L173.63,110.22"/><path d="M171.83,107.87L172.01,107.68L172.16,107.55L172.18,107.56L172.29,107.55L172.35,107.51"/><path d="M172.16,107.55L172.02,107.53"/><path d="M171.57,107.81L171.47,107.85"/><path d="M172.38,107.48L172.47,107.36L172.75,106.95L172.75,106.87L172.70,106.78L172.58,106.64L172.50,106.56L172.27,106.39L172.07,106.24L171.81,106.08L171.35,105.80"/><path d="M174.12,112.39L174.19,112.49L174.31,112.76L174.42,113.10L174.46,113.39L174.46,113.62L174.45,113.78L174.17,115.04L173.88,116.09L173.53,117.14L173.39,117.48"/><path d="M172.71,107.00L172.84,107.01L173.21,107.15L173.48,107.27L173.80,107.52L174.01,107.76"/><path d="M172.63,106.70L172.71,106.48L172.75,106.22L172.77,105.96L172.76,105.65L172.75,105.61"/><path d="M174.39,114.03L174.34,114.21L174.22,114.48L174.17,114.56L174.19,114.50L174.25,114.18L174.25,113.80L174.21,113.46L174.16,113.27"/><path d="M174.17,114.56L174.09,114.79L174.01,114.93"/><path d="M174.46,113.62L174.59,112.65L174.66,111.67L174.66,110.73L174.59,109.84L174.46,109.02"/><path d="M174.25,109.92L174.26,110.04L174.23,110.25L174.15,110.45L174.03,110.59L173.83,110.77"/><path d="M174.00,107.74L174.19,108.01"/></g><g style="stroke:#000000;stroke-width:0.529"><path d="M152.16,126.94L152.54,127.43L153.28,128.11L153.99,128.58L158.30,131.05L159.08,131.41L159.20,131.45L160.04,131.68L160.93,131.79L161.87,131.77L161.99,131.76L162.97,131.62L163.97,131.35L164.99,130.96L166.03,130.45L167.14,129.78L168.16,129.06L169.17,128.23L170.15,127.31L171.10,126.30L172.00,125.22L172.86,124.07L173.66,122.86L174.40,121.60L175.06,120.31L175.65,118.99L176.16,117.67L176.58,116.34L176.91,115.02L177.15,113.72L177.30,112.46L177.35,111.15L177.30,109.97L177.15,108.87L176.91,107.84L176.58,106.89L176.10,105.93L175.58,105.17L174.99,104.53L174.89,104.44L174.22,103.91L169.91,101.44L169.16,101.02L168.35,100.73L168.23,100.69L167.36,100.52L166.44,100.47L165.37,100.56L164.38,100.77L163.36,101.10L162.33,101.55L161.22,102.16L160.19,102.83L159.18,103.61L158.18,104.49L157.21,105.45L156.28,106.50L155.40,107.62L154.57,108.80L153.80,110.03L153.10,111.31L152.47,112.61L151.92,113.94L151.46,115.27L151.08,116.59L150.79,117.90L150.60,119.18L150.51,120.43L150.51,121.71L150.60,122.86L150.80,123.92L151.08,124.91L151.46,125.81L151.57,126.01"/><path d="M160.37,122.67L160.11,122.76L159.98,121.99L159.94,121.18L159.98,120.30L160.12,119.33L160.35,118.34L160.67,117.34L161.07,116.34L161.55,115.36L162.10,114.41L162.71,113.50L163.38,112.65L164.08,111.88L164.83,111.19L165.59,110.59L166.32,110.12L167.05,109.75L167.73,109.50L167.86,110.27L167.90,111.09L167.86,111.97L167.72,112.93L167.49,113.92L167.17,114.93L166.77,115.93L166.29,116.91L165.74,117.86L165.13,118.77L164.46,119.61L163.76,120.39L163.01,121.08L162.25,121.68L161.52,122.15L160.79,122.52L160.37,122.67"/></g></g><g id="Actor_.8"><g style="stroke:#000000;stroke-width:0.176"><path d="M37.49,42.66L36.50,44.41"/><path d="M55.39,74.36L54.38,73.58L53.53,72.58L52.84,71.37L52.32,69.97L51.99,68.41L51.85,66.71L51.90,64.89L52.14,62.98L52.56,61.02L53.16,59.02L53.93,57.02L54.87,55.06L55.94,53.15L57.15,51.34L58.47,49.64L59.19,48.84L59.87,48.09L61.34,46.70L62.87,45.50L64.41,44.50L65.95,43.73L67.47,43.18L68.95,42.88L70.35,42.82L71.65,43.01L72.87,43.44"/><path d="M59.66,68.61L59.41,68.46L58.57,67.93L57.88,67.17L57.36,66.20L57.02,65.04L56.88,63.73L56.93,62.30L57.17,60.78L57.60,59.22L58.21,57.65L58.97,56.13L59.88,54.67L60.91,53.33L62.02,52.14L63.20,51.13L64.41,50.32L65.62,49.74L66.80,49.40L67.91,49.31L68.94,49.48L69.85,49.89L70.10,50.03L69.19,49.62L68.16,49.46L67.05,49.55L65.87,49.89L64.66,50.47L63.45,51.27L62.27,52.29L61.16,53.48L60.13,54.82L59.22,56.27L58.46,57.80L57.89,59.26L57.85,59.36L57.42,60.92L57.18,62.44L57.13,63.87L57.27,65.18L57.61,66.34L58.13,67.31L58.82,68.07L59.66,68.61L60.63,68.89L61.71,68.93L62.86,68.72L63.19,68.59L60.33,66.96"/><path d="M63.19,68.59L67.73,71.17"/><path d="M68.52,71.62L67.75,71.17L67.12,70.49L66.66,69.61L66.37,68.54L66.28,67.34L66.37,66.02L66.66,64.63L67.12,63.21L67.75,61.81L68.52,60.47L69.42,59.23L70.41,58.12L71.47,57.19L71.65,57.06L72.56,56.45L73.65,55.94L74.71,55.66L75.70,55.63L76.60,55.84"/><path d="M69.78,70.94L69.91,70.98L70.89,71.54L70.35,71.59L69.69,71.54L69.08,71.36L68.54,71.07L68.06,70.65L67.67,70.12L67.36,69.50L67.14,68.78L67.02,67.98L67.00,67.11L67.07,66.20L67.24,65.24L67.50,64.27L67.85,63.29L68.29,62.32L68.80,61.37L69.38,60.47L70.01,59.63L70.70,58.85L71.42,58.16L72.16,57.57L72.92,57.07L73.68,56.70L74.42,56.44L75.14,56.30L75.83,56.29L76.46,56.41L77.04,56.64L77.55,57.00L77.98,57.47L78.34,58.05L78.44,58.33L78.62,58.43"/><path d="M69.47,70.73L69.91,70.98"/><path d="M69.07,51.50L76.55,55.81"/><path d="M70.10,50.03L70.87,50.68L71.47,51.55L71.90,52.62L72.02,53.20"/><path d="M70.89,71.54L71.05,71.63"/><path d="M78.01,71.16L77.98,71.33L78.05,71.88L78.25,72.47L78.57,73.02L78.97,73.48L79.42,73.82L90.15,79.97L90.13,79.69L90.10,79.43L90.03,79.13L89.94,78.83L89.83,78.53L89.69,78.24L89.54,78.01L89.33,77.75L89.13,77.55L88.91,77.40L78.14,71.22L77.91,71.12L77.68,71.06L77.43,71.06L77.23,71.10L77.03,71.18L76.85,71.32L76.70,71.49L76.60,71.69L76.54,71.89L76.51,72.17L76.53,72.44L76.60,72.72L76.79,73.16L76.85,73.27L77.03,73.54L77.23,73.79L77.45,74.02L77.68,74.22L77.91,74.40L78.14,74.55L88.91,80.73L89.13,80.84L89.33,80.91L89.52,80.94L89.69,80.93L89.83,80.88L89.94,80.77L89.90,80.81L89.69,80.93"/><path d="M78.44,58.33L77.20,57.62"/><path d="M89.94,80.77L89.98,80.73L90.10,80.46L90.14,80.25L90.15,79.97"/><path d="M99.61,70.47L98.81,70.20L97.90,70.18L96.91,70.41L95.90,70.88L94.88,71.58L93.89,72.47L92.98,73.54L92.18,74.73L91.51,76.01L91.00,77.33L90.66,78.65L90.52,79.90L90.57,81.06L90.81,82.08L91.23,82.91L91.83,83.54"/><path d="M92.29,83.78L92.07,83.65L91.51,82.99L91.11,82.13L90.93,81.31L91.18,81.60L91.35,81.76L91.52,81.90L91.70,82.01L96.36,84.69L96.58,85.46L97.02,86.26L97.61,86.86"/><path d="M90.93,81.31L91.38,81.05L91.23,80.06L91.23,79.80L91.24,79.60L91.32,79.39L91.25,79.38L91.23,79.80L91.26,80.08L91.29,80.20L91.37,80.41L91.48,80.62L91.66,80.89L91.38,81.05"/><path d="M91.25,79.38L91.18,79.38L90.93,79.45L91.11,78.41L91.51,77.10L92.07,75.79L92.78,74.54L93.31,73.81L93.62,73.39L94.55,72.38L95.54,71.55L95.90,71.33L96.56,70.92L97.57,70.52L98.53,70.36L99.40,70.46L99.85,70.65"/><path d="M102.42,86.18L101.48,86.71L100.57,87.02L99.69,87.11L98.91,86.98L98.23,86.63L97.68,86.08L97.28,85.33L97.09,84.68L97.87,84.23L92.84,81.35L92.51,81.10L92.21,80.75L91.97,80.34L91.82,79.90L91.78,79.56L91.52,79.43L91.32,79.39"/><path d="M91.23,79.77L91.23,79.78"/><path d="M91.78,79.56L96.36,82.19L96.58,81.16L97.02,79.87L97.61,78.59L98.33,77.38L99.18,76.27L100.11,75.31L101.09,74.52L102.09,73.94L103.07,73.58L104.01,73.45L104.86,73.56L105.60,73.91"/><path d="M96.36,84.69L97.09,84.68"/><path d="M96.36,82.19L97.09,82.19L97.28,81.32L97.68,80.11L98.23,78.92L98.91,77.79L99.70,76.76L100.57,75.86L101.48,75.12L102.42,74.58L103.33,74.24L104.21,74.12L105.00,74.23L105.70,74.55L106.26,75.09L106.68,75.82L106.94,76.71L107.02,77.73"/><path d="M97.09,82.19L97.87,81.74L97.87,84.23"/><path d="M100.73,82.93L100.47,82.77L100.21,82.32L100.11,81.70L100.21,80.97L100.47,80.21L100.89,79.49L101.42,78.87L102.00,78.44L102.58,78.21L103.10,78.21L103.52,78.46L103.79,78.91L103.88,79.54L103.79,80.26L103.52,81.03L103.11,81.75L102.58,82.36L102.00,82.80L101.42,83.03L100.89,83.02L100.73,82.93"/><path d="M102.12,86.35L102.09,86.37"/></g><g style="stroke:#000000;stroke-width:0.529"><path d="M34.23,60.30L33.91,59.41L33.58,57.85L33.43,56.15L33.48,54.33L33.64,53.02L33.72,52.42L34.14,50.45L34.74,48.46L35.52,46.46L36.45,44.50L37.14,43.18L38.73,40.78L40.05,39.08L41.45,37.52L42.93,36.13L44.45,34.93L45.99,33.94L47.54,33.16L49.06,32.62L50.53,32.32L51.94,32.26L53.25,32.45L54.46,32.88L72.87,43.44L73.95,44.11L74.88,45.01L75.66,46.12L76.26,47.42L76.68,48.90L76.92,50.54L76.97,52.30L76.83,54.17L76.55,55.81L77.37,56.29L78.00,56.97L78.46,57.86L78.62,58.43L99.61,70.47L99.85,70.65L100.17,70.79L105.60,73.91L106.21,74.49L106.64,75.24L106.93,76.22L107.02,77.32L107.02,77.73L106.94,78.86L106.68,80.05L106.26,81.25L105.70,82.44L105.00,83.56L104.21,84.58L103.33,85.46L102.42,86.18L101.09,86.93L100.11,87.27L99.94,87.29L99.18,87.37L98.33,87.23L97.61,86.86L92.78,84.08L92.29,83.78L91.83,83.54L71.05,71.63L70.41,71.80L69.42,71.84L68.52,71.62L67.73,71.17L66.72,72.04L65.18,73.14L63.64,74.03L62.10,74.69L60.60,75.11L59.16,75.29L57.79,75.23L56.53,74.92L55.39,74.36L36.97,63.80L35.97,63.02L35.11,62.01L34.42,60.80L34.23,60.30"/></g></g><g><g><path style="stroke:#000000;stroke-width:0.125;stroke-dasharray:2.2 1.4 0.7 1.4" d="M42.73,36.32L36.10,32.52"/></g></g><g><g><path style="stroke:#000000;stroke-width:0.125;stroke-dasharray:2.2 1.4 0.7 1.4" d="M18.15,42.82L33.85,51.82"/></g></g><g><g><path style="stroke:#000000;stroke-width:0.125;stroke-dasharray:2.2 1.4 0.7 1.4" d="M72.87,82.09L83.55,75.96"/></g></g><g><g><path style="stroke:#000000;stroke-width:0.125;stroke-dasharray:2.2 1.4 0.7 1.4" d="M110.09,85.26L100.68,79.86"/><path style="stroke:#000000;stroke-width:0.125;stroke-dasharray:2.2 1.4 0.7 1.4" d="M131.57,97.58L111.65,86.15"/><path style="stroke:#000000;stroke-width:0.125;stroke-dasharray:2.2 1.4 0.7 1.4" d="M137.96,101.25L153.68,110.26"/><path style="stroke:#000000;stroke-width:0.125;stroke-dasharray:2.2 1.4 0.7 1.4" d="M180.19,125.47L161.80,114.92"/><path style="stroke:#000000;stroke-width:0.125;stroke-dasharray:2.2 1.4 0.7 1.4" d="M210.90,143.08L189.66,130.90"/></g></g><g id="PMI.0"><g><path style="stroke:#000000;stroke-width:0.125" d="M57.77,198.10L71.50,86.11"/></g><g><path style="fill:#000000" d="M72.25,86.11L72.25,86.04L72.24,85.96L72.22,85.89L72.20,85.82L72.16,85.76L72.13,85.69L72.08,85.64L72.03,85.58L71.98,85.53L71.92,85.49L71.86,85.45L71.79,85.42L71.72,85.39L71.65,85.38L71.58,85.36L71.50,85.36L71.43,85.36L71.36,85.38L71.29,85.39L71.22,85.42L71.15,85.45L71.09,85.49L71.03,85.53L70.97,85.58L70.92,85.64L70.88,85.69L70.84,85.76L70.81,85.82L70.79,85.89L70.77,85.96L70.76,86.04L70.75,86.11L70.76,86.18L70.77,86.26L70.79,86.33L70.81,86.40L70.84,86.46L70.88,86.53L70.92,86.59L70.97,86.64L71.03,86.69L71.09,86.73L71.15,86.77L71.22,86.80L71.29,86.83L71.36,86.85L71.43,86.86L71.50,86.86L71.58,86.86L71.65,86.85L71.72,86.83L71.79,86.80L71.86,86.77L71.92,86.73L71.98,86.69L72.03,86.64L72.08,86.59L72.13,86.53L72.16,86.46L72.20,86.40L72.22,86.33L72.24,86.26L72.25,86.18z"/></g><g><text xml:space="preserve" fill="#000000" stroke-width="0" x="48.96" y="202.56" font-size="3.81" opacity="1.00" font-family="Arial">MSR0052</text></g></g><g id="PMI.1"><g><path style="stroke:#000000;stroke-width:0.125" d="M110.15,17.83L124.09,76.79"/></g><g><path style="fill:#000000" d="M124.84,76.79L124.83,76.72L124.82,76.65L124.80,76.57L124.78,76.51L124.75,76.44L124.71,76.38L124.67,76.32L124.62,76.26L124.56,76.21L124.50,76.17L124.44,76.13L124.37,76.10L124.30,76.07L124.23,76.06L124.16,76.05L124.09,76.04L124.01,76.05L123.94,76.06L123.87,76.07L123.80,76.10L123.73,76.13L123.67,76.17L123.61,76.21L123.56,76.26L123.51,76.32L123.46,76.38L123.42,76.44L123.39,76.51L123.37,76.57L123.35,76.65L123.34,76.72L123.34,76.79L123.34,76.87L123.35,76.94L123.37,77.01L123.39,77.08L123.42,77.15L123.46,77.21L123.51,77.27L123.56,77.32L123.61,77.37L123.67,77.42L123.73,77.45L123.80,77.49L123.87,77.51L123.94,77.53L124.01,77.54L124.09,77.54L124.16,77.54L124.23,77.53L124.30,77.51L124.37,77.49L124.44,77.45L124.50,77.42L124.56,77.37L124.62,77.32L124.67,77.27L124.71,77.21L124.75,77.15L124.78,77.08L124.80,77.01L124.82,76.94L124.83,76.87z"/></g><g><text xml:space="preserve" fill="#000000" stroke-width="0" x="100.98" y="16.08" font-size="3.81" opacity="1.00" font-family="Arial">MSR0072</text></g></g><g id="PMI.2"><g><path style="stroke:#000000;stroke-width:0.125" d="M168.15,17.83L140.06,94.76"/></g><g><path style="fill:#000000" d="M140.81,94.76L140.81,94.69L140.80,94.62L140.78,94.55L140.75,94.48L140.72,94.41L140.68,94.35L140.64,94.29L140.59,94.23L140.54,94.18L140.48,94.14L140.41,94.10L140.35,94.07L140.28,94.05L140.21,94.03L140.13,94.02L140.06,94.01L139.99,94.02L139.91,94.03L139.84,94.05L139.77,94.07L139.71,94.10L139.64,94.14L139.59,94.18L139.53,94.23L139.48,94.29L139.44,94.35L139.40,94.41L139.37,94.48L139.34,94.55L139.33,94.62L139.31,94.69L139.31,94.76L139.31,94.84L139.33,94.91L139.34,94.98L139.37,95.05L139.40,95.12L139.44,95.18L139.48,95.24L139.53,95.29L139.59,95.34L139.64,95.39L139.71,95.43L139.77,95.46L139.84,95.48L139.91,95.50L139.99,95.51L140.06,95.51L140.13,95.51L140.21,95.50L140.28,95.48L140.35,95.46L140.41,95.43L140.48,95.39L140.54,95.34L140.59,95.29L140.64,95.24L140.68,95.18L140.72,95.12L140.75,95.05L140.78,94.98L140.80,94.91L140.81,94.84z"/></g><g><text xml:space="preserve" fill="#000000" stroke-width="0" x="160.20" y="16.08" font-size="3.80" opacity="1.00" font-family="Arial">BPA13927</text></g></g><g id="PMI.3"><g><path style="stroke:#000000;stroke-width:0.125" d="M114.59,198.10L153.82,122.72"/></g><g><path style="fill:#000000" d="M154.57,122.72L154.56,122.65L154.55,122.57L154.53,122.50L154.51,122.43L154.48,122.37L154.44,122.30L154.40,122.24L154.35,122.19L154.29,122.14L154.23,122.10L154.17,122.06L154.10,122.03L154.03,122.00L153.96,121.98L153.89,121.97L153.82,121.97L153.74,121.97L153.67,121.98L153.60,122.00L153.53,122.03L153.46,122.06L153.40,122.10L153.34,122.14L153.29,122.19L153.24,122.24L153.19,122.30L153.16,122.37L153.12,122.43L153.10,122.50L153.08,122.57L153.07,122.65L153.07,122.72L153.07,122.79L153.08,122.87L153.10,122.94L153.12,123.01L153.16,123.07L153.19,123.14L153.24,123.20L153.29,123.25L153.34,123.30L153.40,123.34L153.46,123.38L153.53,123.41L153.60,123.44L153.67,123.46L153.74,123.47L153.82,123.47L153.89,123.47L153.96,123.46L154.03,123.44L154.10,123.41L154.17,123.38L154.23,123.34L154.29,123.30L154.35,123.25L154.40,123.20L154.44,123.14L154.48,123.07L154.51,123.01L154.53,122.94L154.55,122.87L154.56,122.79z"/></g><g><text xml:space="preserve" fill="#000000" stroke-width="0" x="104.22" y="202.56" font-size="3.76" opacity="1.00" font-family="Arial">MWZ0073</text></g></g><g id="PMI.4"><g><path style="stroke:#000000;stroke-width:0.125" d="M169.20,198.10L180.66,139.36"/></g><g><path style="fill:#000000" d="M181.41,139.36L181.41,139.29L181.40,139.21L181.38,139.14L181.36,139.07L181.32,139.01L181.29,138.94L181.24,138.88L181.19,138.83L181.14,138.78L181.08,138.74L181.02,138.70L180.95,138.67L180.88,138.64L180.81,138.62L180.74,138.61L180.66,138.61L180.59,138.61L180.52,138.62L180.45,138.64L180.38,138.67L180.31,138.70L180.25,138.74L180.19,138.78L180.13,138.83L180.08,138.88L180.04,138.94L180.00,139.01L179.97,139.07L179.95,139.14L179.93,139.21L179.92,139.29L179.91,139.36L179.92,139.43L179.93,139.51L179.95,139.58L179.97,139.65L180.00,139.71L180.04,139.78L180.08,139.84L180.13,139.89L180.19,139.94L180.25,139.98L180.31,140.02L180.38,140.05L180.45,140.08L180.52,140.10L180.59,140.11L180.66,140.11L180.74,140.11L180.81,140.10L180.88,140.08L180.95,140.05L181.02,140.02L181.08,139.98L181.14,139.94L181.19,139.89L181.24,139.84L181.29,139.78L181.32,139.71L181.36,139.65L181.38,139.58L181.40,139.51L181.41,139.43z"/></g><g><text xml:space="preserve" fill="#000000" stroke-width="0" x="159.84" y="202.56" font-size="3.76" opacity="1.00" font-family="Arial">MWZ0080</text></g></g><g><g><path style="stroke:#000000;stroke-width:0.125" d="M225.97,198.10L245.27,163.66"/></g><g><path style="fill:#000000" d="M246.02,163.66L246.01,163.58L246.00,163.51L245.99,163.44L245.96,163.37L245.93,163.30L245.89,163.24L245.85,163.18L245.80,163.13L245.74,163.08L245.68,163.03L245.62,162.99L245.56,162.96L245.49,162.94L245.41,162.92L245.34,162.91L245.27,162.91L245.19,162.91L245.12,162.92L245.05,162.94L244.98,162.96L244.91,162.99L244.85,163.03L244.79,163.08L244.74,163.13L244.69,163.18L244.64,163.24L244.61,163.30L244.58,163.37L244.55,163.44L244.53,163.51L244.52,163.58L244.52,163.66L244.52,163.73L244.53,163.80L244.55,163.87L244.58,163.94L244.61,164.01L244.64,164.07L244.69,164.13L244.74,164.19L244.79,164.24L244.85,164.28L244.91,164.32L244.98,164.35L245.05,164.37L245.12,164.39L245.19,164.40L245.27,164.41L245.34,164.40L245.41,164.39L245.49,164.37L245.56,164.35L245.62,164.32L245.68,164.28L245.74,164.24L245.80,164.19L245.85,164.13L245.89,164.07L245.93,164.01L245.96,163.94L245.99,163.87L246.00,163.80L246.01,163.73z"/></g><g><text xml:space="preserve" fill="#000000" stroke-width="0" x="217.08" y="202.56" font-size="3.77" opacity="1.00" font-family="Arial">KIT0015</text></g></g><g/><g><g/><g><text xml:space="preserve" fill="#000000" stroke-width="0" x="5.30" y="9.11" font-size="4.53" opacity="1.00" font-family="Arial" font-weight="bold">BPA13928</text></g></g><g id="paperID" visibility="hidden" opacity="0.00" transform="scale(0.000100)"><path style="stroke:#000000;stroke-width:0.500;fill:#e6e6e6;fill-rule:evenodd" d="M-2000.00,-2000.00L2297.00,-2000.00L2297.00,2210.00L-2000.00,2210.00zM0.00,0.00L297.00,0.00L297.00,210.00L0.00,210.00z"/><path style="fill:#000000;fill-opacity:0.118" d="M3.00,210.00L297.00,210.00L297.00,3.00L300.00,3.00L300.00,213.00L3.00,213.00z"/></g><g id="hotspot.0" onmouseover="ShowHotSpot(evt,'0')" onmouseout="HideHotSpot(evt,'0')" onmousemove="ShowToolTip(evt,'0',&quot;Hotspot 1&quot;)" opacity="0"><path style="fill:#00ff00;fill-rule:evenodd" d="M28.56,25.44L36.48,29.94L37.57,31.01L37.56,32.52L37.20,33.42L35.90,34.63L34.85,34.62L34.13,34.45L26.05,29.75L25.31,28.87L25.31,27.47L25.96,26.14L26.70,25.44L27.24,25.25zM10.57,35.69L18.48,40.20L19.41,41.07L19.75,41.83L19.56,42.96L18.95,44.15L17.89,44.89L16.85,44.88L15.78,44.52L8.05,40.01L7.31,39.13L7.31,37.91L7.85,36.65L8.52,35.88L9.65,35.52zM283.07,181.69L283.60,181.74L283.90,181.30L286.69,181.49L288.66,182.58L288.84,183.48L288.84,185.70L288.66,186.42L287.89,187.81L285.90,189.96L284.34,189.96L283.25,189.79L281.22,188.76L280.91,186.34L273.54,182.04L244.73,165.47L244.39,165.53L243.48,164.76L211.07,146.23L210.71,145.87L210.53,145.51L210.53,144.11L211.18,142.78L212.16,141.96L212.63,141.71L213.43,141.71zM227.11,201.29L227.11,203.35L226.86,203.64L225.66,203.64L225.47,203.29L225.48,201.18L225.77,200.93L226.75,200.93zM224.95,201.29L224.95,203.35L224.70,203.64L223.50,203.64L223.31,203.29L223.31,201.35L223.60,200.92L224.59,200.93zM220.71,201.17L220.71,200.96L222.99,200.96L222.99,201.17L222.17,201.29L222.05,203.72L221.65,203.72L221.53,201.29zM231.44,201.35L230.25,201.50L230.25,201.70L231.07,201.83L231.43,202.19L231.43,203.35L231.18,203.64L229.98,203.64L229.79,203.46L229.74,202.91L229.97,202.88L230.35,203.29L230.81,203.29L231.06,202.72L230.87,202.39L230.54,202.19L230.27,202.36L229.74,202.46L229.92,200.94L231.44,200.95zM227.75,201.90L227.75,201.50L228.49,200.91L228.71,200.92L228.70,203.73L228.50,203.73L228.36,201.82zM217.92,201.92L218.93,200.93L219.54,200.93L218.57,202.00L219.57,203.47L219.54,203.71L219.00,203.65L218.26,202.55L217.93,202.59L217.73,203.72L217.33,203.72L217.33,200.92L217.73,200.92zM220.43,203.72L220.03,203.72L220.03,200.92L220.43,200.92zM226.75,201.83L226.75,202.81L226.49,203.29L226.03,203.29L225.83,202.75L225.83,201.89L226.13,201.27L226.38,201.27zM224.59,201.83L224.59,202.81L224.33,203.29L223.87,203.29L223.67,202.75L223.67,201.89L223.97,201.27L224.22,201.27z"/></g></g></svg>
