<?xml version="1.0" encoding="UTF-8" standalone="no"?>
<svg xmlns="http://www.w3.org/2000/svg" xmlns:xlink="http://www.w3.org/1999/xlink" width="297.000mm" height="210.000mm" viewBox="0.000000 0.000000 297.000000 210.000000" stroke-linejoin="round" stroke-linecap="round" fill="none" fill-rule="evenodd"><desc>Composer Export</desc><script type="text/ecmascript"><![CDATA[
if(typeof(top) != "undefined")
{
	top.ShowPaper = ShowPaper;
}
function ShowHotSpot(evt,hotspotid)
{
	var svgDocument = evt.target.ownerDocument;
	var strId = "hotspot."+hotspotid;
	var hotspot = svgDocument.getElementById(strId);
	if(hotspot)
		hotspot.setAttribute("opacity",".5");
}
function HideHotSpot(evt,hotspotid)
{
	var svgDocument = evt.target.ownerDocument;
	var strId = "hotspot."+hotspotid;
	var hotspot = svgDocument.getElementById(strId);
	if(hotspot)
		hotspot.setAttribute("opacity","0");

	var toolTip = svgDocument.getElementById('ToolTip');
	if(toolTip)
		toolTip.setAttribute("visibility","hidden");
}
function ShowToolTip(evt,hotspotid,strTooltip)
{
	if(strTooltip=="")
	return;

	// change text
	var svgDocument = evt.target.ownerDocument;
	var tiptext = svgDocument.getElementById('ToolTipText');
	if( !tiptext )
	return;
	tiptext.firstChild.nodeValue = " " + strTooltip + "  " ;

	// show tooltip before, else some refresh issue

	var toolTip = svgDocument.getElementById('ToolTip');
	if(!toolTip)
	return;

	toolTip.setAttribute("visibility","visible");
	toolTip.setAttribute("opacity",".95");

	// move tooltip
	// get viewbox

	var root = svgDocument.documentElement;
	var vbox = (root.getAttribute("viewBox")).split(' ');
	var x0 = parseFloat(vbox[0]);
	var y0 = parseFloat(vbox[1]);
	var vboxW = parseFloat(vbox[2]);
	var vboxH = parseFloat(vbox[3]);

	// get default width of svg

	var strW = root.getAttribute("width");
	var svgW = parseFloat(strW);
	if(strW.indexOf('mm') != -1)
	svgW *= 3.779;

	var strH = root.getAttribute("height");
	var svgH = parseFloat(strH);
	if(strH.indexOf('mm') != -1)
	svgH *= 3.779;  	// 96 dpi  -> 96/25.4 = 3.779

	// update the viewbox / width / height if svg is embedded in html with zoom fit all
	var realx0 = x0;
	var realy0 = y0;
	var realvboxW = vboxW;
	var realvboxH = vboxH;
	var realsvgW = svgW;
	var realsvgH = svgH;

	if ((typeof(top) == "undefined") || (typeof(top.svgctl1) != "undefined")) // embedded in html
	{
		// get window size in pxl

		svgW = window.innerWidth;
		svgH = window.innerHeight;

		// calculate real viewbox

		realsvgW = svgW;
		realsvgH = svgH;
		if((svgW / svgH) > (vboxW / vboxH))
		{
			realvboxW = (vboxH * svgW) / svgH;
			realvboxH = vboxH;
			realx0 = x0 - (realvboxW - vboxW)/2 ;
		}
		else
		{
			realvboxH = (vboxW * svgH) / svgW;
			realvboxW = vboxW;
			realy0 = y0 - (realvboxH - vboxH)/2 ;
		}
	}

	// get user zoom/pan

	var newScale = root.currentScale;
	var translation = root.currentTranslate;

	// transform pxl to user unit

	var xPos = (((evt.clientX+10- translation.x)/newScale) * realvboxW)/realsvgW  + realx0 ;
	var yPos = (((evt.clientY+5- translation.y)/newScale) * realvboxH)/ realsvgH  + realy0 ;
	var scaleForWidth = ( (1 / newScale) * realvboxH) / realsvgH;

	// move tooltip

	toolTip.setAttribute("transform", "translate(" + xPos + "," + yPos + ")" );

	// resize tooltip

	var fontsize = 12;
	tiptext.setAttribute("font-size",fontsize*scaleForWidth);
	tiptext.setAttribute("y", fontsize*scaleForWidth);
	var tipBG = svgDocument.getElementById('ToolTipBG');
	var outline = tiptext.getBBox();
	if(tipBG)
	{
		tipBG.setAttribute("stroke-width", 1*scaleForWidth);
		tipBG.setAttribute("width", Number(outline.width) );
		tipBG.setAttribute("height", Number(outline.height) + fontsize*.5*scaleForWidth );
	}
	var ToolTipShadow = svgDocument.getElementById('ToolTipShadow');
	if(ToolTipShadow)
	{
		ToolTipShadow.setAttribute("width", Number(outline.width) );
		ToolTipShadow.setAttribute("height", Number(outline.height) + fontsize*.5*scaleForWidth );
		ToolTipShadow.setAttribute("x", 3*scaleForWidth);
		ToolTipShadow.setAttribute("y", 3*scaleForWidth);
	}
}
function ShowPaper()
{
  var svgDocument = getDocument();
  var paper = svgDocument.getElementById("paperID");
  if(paper)
  {
    paper.setAttribute("transform","scale(1)");
    paper.setAttribute("opacity","1");
    paper.setAttribute("visibility","visible");
  }
  var svg = svgDocument.getRootElement();
  if(svg)
  {
    svg.setAttribute("width","307.000mm");
    svg.setAttribute("height","220.000mm");
    svg.setAttribute("viewBox","-5.000000 -5.000000 307.000000 220.000000");
  }
}
]]></script><defs/><g><path style="fill:#000000;fill-opacity:0.098;fill-rule:evenodd" d="M120.68,94.83L120.91,95.00L120.91,95.17L120.68,95.34L120.72,100.91L123.12,99.60L123.04,98.65L124.24,98.08L124.40,98.24L124.95,99.73L124.96,101.10L124.03,101.63L123.85,102.92L123.40,103.95L120.66,105.61L120.54,179.64L117.60,181.31L117.60,36.83L120.31,35.27L120.54,35.29zM114.12,105.03L114.66,106.89L114.67,108.06L113.91,109.88L106.50,114.23L107.14,116.33L110.28,114.61L110.28,116.88L107.65,118.45L111.36,132.41L112.28,137.00L112.28,167.54L112.11,167.73L111.91,197.27L111.36,198.36L110.36,199.20L108.19,200.34L106.38,200.34L105.97,200.14L107.26,200.16L108.35,199.58L108.98,198.55L109.16,197.81L109.34,140.85L108.97,137.18L105.48,123.60L102.28,112.03L103.28,111.36L105.12,110.26L105.42,109.82L113.95,104.86zM132.30,105.32L128.43,107.70L128.43,98.14L132.05,96.03L132.28,96.05zM95.33,109.12L94.95,109.10L95.71,108.53L96.12,108.53zM101.15,112.49L101.81,114.79L101.81,115.95L101.46,117.06L99.24,118.34L99.22,117.98L99.44,117.61L99.62,116.27L99.24,114.42L99.05,114.06L99.00,113.52L100.85,112.37zM98.70,113.84L99.24,115.52L99.25,117.06L98.86,117.95L98.34,118.35L95.57,119.99L95.52,122.95L95.85,122.86L96.08,122.65L96.30,122.66L96.31,124.94L95.57,125.31L95.39,126.59L91.54,128.81L91.54,119.25L95.40,117.08L94.77,115.86L98.53,113.67zM88.41,121.58L88.42,123.29L87.98,124.32L85.21,125.96L83.04,127.10L81.97,127.10L81.55,126.90L82.65,126.71L83.28,126.05L83.47,125.69L83.58,124.33L84.20,124.21L84.02,122.86L83.80,122.49L83.76,122.14L87.63,119.90L87.86,119.92zM162.40,127.08L162.39,132.83L161.41,133.33L161.29,135.40L159.64,136.32L159.47,139.09L157.48,140.23L157.07,139.75L155.43,138.83L153.58,139.81L153.39,153.96L153.34,136.98L153.56,136.96L154.32,137.43L154.31,132.41L154.12,131.68L154.06,130.95L161.78,126.51L162.03,126.51zM160.71,135.96L161.47,135.89L161.65,136.65L161.31,136.61L160.73,136.45zM160.56,137.55L160.54,138.27L160.33,138.49L160.00,138.48L160.00,137.41L160.20,137.35zM161.84,137.80L162.94,137.06L163.69,136.63L163.67,139.26L162.15,140.14L161.84,140.14zM154.47,139.63L155.23,139.56L155.30,140.05L154.97,140.14L154.49,140.13zM155.37,140.17L155.30,140.05L155.79,140.12zM154.50,141.19L154.44,141.63L154.87,141.79L154.89,142.22L154.70,142.41L154.34,141.95L153.89,142.03L153.89,141.02L154.33,141.01zM157.62,142.74L156.33,143.48L155.72,143.68L155.78,141.10L157.48,140.23zM164.16,144.58L164.98,144.71L163.86,145.14L163.69,145.88L162.33,146.75L161.83,146.75L161.04,146.22L161.09,145.88L162.95,144.78L163.12,144.04L163.62,143.76L163.85,143.78zM167.55,143.68L165.51,144.97L165.45,143.42L167.55,142.32zM170.83,147.46L169.31,148.40L168.76,148.36L166.96,149.34L166.60,149.89L163.23,151.86L162.70,151.94L162.70,147.83L170.42,143.39L170.65,143.41zM169.93,149.27L168.18,150.40L167.83,150.46L167.82,150.05L169.49,149.09L169.76,149.10zM174.69,149.46L174.26,149.46L173.22,150.09L172.24,150.39L170.58,151.31L170.27,151.73L168.63,152.66L168.47,153.94L166.98,153.15L166.98,152.29L172.30,149.17L174.99,147.63L175.61,147.63L175.62,149.90zM171.81,151.43L173.16,150.56L173.24,153.04L172.61,153.52L172.65,154.82L172.85,155.17L173.72,155.18L174.87,154.13L175.24,153.33L175.79,153.42L175.98,152.49L176.45,151.84L177.07,151.86L177.28,152.23L177.07,153.03L176.64,153.51L175.72,153.69L175.62,155.04L174.82,154.79L174.67,155.72L175.06,156.46L175.73,156.47L176.91,155.91L176.89,157.80L175.37,158.66L175.36,162.96L176.10,162.70L177.09,162.15L177.07,167.73L176.66,167.73L176.51,167.08L176.30,167.07L174.98,167.82L174.68,168.44L171.52,170.23L170.58,170.40L169.73,170.83L169.66,172.31L170.04,172.26L170.51,172.06L170.66,172.21L169.46,172.98L169.13,173.06L169.01,167.47L164.17,170.22L164.21,170.39L165.16,170.94L165.29,172.32L165.50,172.26L165.48,171.54L165.66,171.30L166.78,171.89L166.98,172.42L165.94,172.92L165.88,172.04L165.67,172.48L165.69,172.80L165.94,172.92L165.89,173.06L164.88,173.71L164.41,173.73L164.22,172.96L164.04,174.13L163.59,174.45L163.24,174.51L163.31,174.16L163.50,173.96L163.51,172.77L162.67,172.22L162.18,173.40L162.23,173.96L160.85,174.80L160.31,174.89L160.13,172.59L153.58,176.34L153.39,182.41L153.20,176.63L152.98,176.62L146.05,180.56L143.79,181.05L141.76,181.12L141.77,179.20L143.05,179.22L145.32,178.91L148.38,177.38L174.32,162.57L174.31,158.73L175.23,158.16L175.24,157.19L174.51,156.81L173.39,156.86L173.16,156.70L173.04,155.90L172.30,155.52L171.18,155.57L170.96,155.41L171.02,154.13L172.49,153.22L172.79,152.57L172.86,152.25zM176.89,151.58L176.09,151.48L175.42,152.13L175.42,151.56L176.90,150.76zM170.59,152.05L171.50,151.48L171.81,151.43L171.48,151.84L171.21,152.46L170.63,152.21zM165.31,152.64L164.35,153.34L164.41,155.22L164.76,155.17L165.32,155.73L165.33,156.32L164.88,156.64L165.36,156.66L165.32,157.92L164.72,158.68L164.41,158.67L163.68,159.29L163.34,158.44L162.74,158.07L162.52,158.10L162.19,159.08L162.22,159.81L161.05,160.49L160.31,160.75L160.31,158.09L160.74,158.08L161.09,158.28L160.92,158.70L160.85,159.46L161.59,159.39L161.86,158.90L161.84,158.47L161.48,158.53L161.41,155.34L161.64,155.32L163.51,156.33L163.67,152.84L165.66,151.66L165.87,151.66zM180.88,174.27L180.38,174.26L180.18,174.68L180.18,173.94L180.95,173.89zM176.01,176.82L175.96,177.05L175.74,177.22L175.80,178.00L175.44,177.95L175.22,177.73L175.20,177.39L175.40,177.20L175.16,176.85L175.54,176.62L175.81,176.62zM174.70,178.66L174.63,181.24L171.96,182.79L171.44,183.02L171.58,181.75L171.41,181.59L170.78,181.58L171.01,182.90L171.44,183.02L171.14,183.28L171.13,183.69L171.48,183.63L175.07,181.50L175.18,180.30L175.79,180.40L175.95,179.21L175.55,178.86L176.84,178.08L177.07,178.10L177.07,182.76L172.87,185.17L172.00,185.58L172.42,185.09L176.52,182.76L176.52,181.40L176.10,181.40L175.91,182.34L171.87,184.72L171.55,185.15L171.22,185.11L169.73,185.88L169.73,186.64L171.50,185.63L172.00,185.58L169.27,187.29L168.94,187.31L169.12,180.87L174.33,177.94zM165.16,185.11L164.93,185.46L165.31,186.26L165.70,185.45L167.90,186.71L167.65,188.21L163.59,190.60L163.25,190.68L163.30,188.81L163.50,188.46L163.50,187.10L162.94,186.53L162.51,186.54L162.40,187.55L162.19,187.90L162.20,190.11L161.47,190.47L161.31,191.41L153.40,196.00L153.39,187.09L160.20,191.03L160.31,186.54L160.54,186.52L160.92,186.91L160.73,187.34L160.73,188.41L161.40,188.39L161.84,187.90L162.03,186.92L161.41,187.00L161.66,184.70L162.77,185.33L162.88,183.97L163.11,183.96zM162.40,197.46L162.04,197.84L154.62,202.19L154.24,202.23L154.50,196.53L162.41,192.07zM159.04,133.13L158.69,133.77L158.48,133.78L158.50,133.39L158.84,132.93L159.26,132.94zM158.46,132.39L157.72,133.49L157.24,134.49L157.24,133.19L157.99,131.93L158.83,131.48L159.45,131.48zM163.32,138.72L162.87,139.20L162.33,139.28L162.38,138.15L162.68,137.71L163.31,137.72zM157.08,142.39L156.82,142.69L156.28,142.77L156.33,141.46L156.64,141.19L157.06,141.20zM172.28,154.42L172.06,155.18L171.50,155.24L171.55,154.67L171.84,154.25zM176.36,156.80L176.09,157.56L175.54,157.62L175.58,157.05L176.08,156.62zM162.90,157.72L163.11,157.75L163.15,157.96L162.94,157.93zM175.98,165.05L175.81,166.24L175.37,166.06L175.42,164.70zM170.96,166.37L174.09,164.50L174.31,164.51L174.27,168.03L173.52,168.20L171.68,169.30L171.13,169.38L171.19,168.78L170.98,168.62L170.82,167.34L171.03,167.28L171.38,167.47L171.57,168.83L173.23,167.82L171.93,166.92zM160.65,172.26L161.06,172.02L161.29,172.04L161.41,172.87L161.87,172.81L161.86,173.01L161.40,173.72L160.92,173.73L160.91,172.63zM165.67,172.48L165.88,172.04L165.94,172.92L165.69,172.80zM171.58,181.75L171.44,183.02L171.01,182.90L170.78,181.58L171.41,181.59zM171.55,185.15L171.87,184.72L175.91,182.34L176.10,181.40L176.52,181.40L176.52,182.76L172.42,185.09L172.00,185.58L171.50,185.63L169.73,186.64L169.73,185.88L171.22,185.11zM166.62,187.03L166.13,187.25L166.42,186.18zM166.13,187.25L165.88,187.56L165.87,186.55zM159.02,196.09L158.69,196.73L158.48,196.74L158.50,196.35L158.83,195.90L159.46,195.91zM158.73,195.08L157.26,197.11L157.24,196.15L158.16,194.87L158.85,194.43L159.26,194.43z"/><g id="Actor_.0"><g style="stroke:#000000;stroke-width:0.176"><path d="M112.03,184.58L117.51,181.37L117.51,36.92L111.37,26.30L103.20,21.61"/><path d="M111.16,101.69L110.56,101.43L110.16,101.41"/><path d="M114.44,24.54L111.37,26.30"/><path d="M114.65,107.82L114.65,108.14L114.41,108.82"/><path d="M120.57,179.62L117.51,181.37"/><path d="M117.51,36.92L120.57,35.17"/></g><g style="stroke:#000000;stroke-width:0.529"><path d="M112.03,184.59L114.44,183.20L120.57,179.62L120.57,35.17L114.44,24.54L106.26,19.85L103.20,21.61L103.20,104.56"/><path d="M111.16,101.69L111.37,101.78L111.65,101.95L112.71,102.87L113.62,104.09L114.29,105.48L114.65,106.88L114.65,107.82"/></g></g><g id="Actor_.1"><g style="stroke:#000000;stroke-width:0.176"><path d="M168.44,152.81L170.89,154.21L170.89,155.37"/><path d="M169.77,152.04L170.38,151.69L170.28,151.63"/><path d="M170.89,154.21L172.53,153.27L172.53,154.30L172.60,154.76L172.79,155.09L173.10,155.27L173.48,155.28L173.91,155.11L174.33,154.79L174.72,154.34L175.02,153.81L175.22,153.25L175.25,153.00"/><path d="M172.53,153.27L170.48,152.10L173.24,150.52L175.29,151.69L176.92,150.75"/><path d="M171.93,155.22L171.79,155.30L171.66,155.33L171.55,155.29L171.48,155.20L171.44,155.06L171.44,155.02L171.45,154.89L171.51,154.72L171.60,154.54L171.73,154.40L171.86,154.29L171.95,154.26L172.00,154.24L172.12,154.25L172.22,154.31L172.27,154.42L172.28,154.58L172.25,154.75L172.17,154.93L172.06,155.10L171.93,155.22"/><path d="M171.53,155.74L171.78,155.60L172.21,155.43L172.59,155.44L172.90,155.62L173.09,155.95L173.16,156.40L173.13,156.65"/><path d="M171.18,152.50L171.18,152.43L171.28,152.17"/><path d="M171.88,151.50L171.66,151.65L171.45,151.87L171.41,151.95"/><path d="M171.84,151.53L172.03,151.48"/><path d="M172.00,151.49L172.12,151.51"/><path d="M173.24,150.52L173.24,151.55L173.18,152.08L173.07,152.37"/><path d="M175.05,156.90L175.22,157.19L175.29,157.65L175.29,158.22"/><path d="M174.88,154.57L174.72,155.02L174.65,155.55L174.72,155.98"/><path d="M174.83,154.70L174.84,154.69"/><path d="M175.64,157.68L175.75,157.72L175.88,157.69L176.02,157.61L176.15,157.49L176.26,157.32L176.34,157.15L176.37,156.97L176.37,156.93L176.36,156.82L176.31,156.70L176.21,156.64L176.09,156.63L175.95,156.68L175.81,156.79L175.69,156.93L175.60,157.11L175.54,157.29L175.54,157.30L175.53,157.45L175.57,157.59L175.64,157.68"/><path d="M175.66,156.50L176.03,156.35L176.92,155.84"/><path d="M175.29,152.54L175.29,151.69"/></g><g style="stroke:#000000;stroke-width:0.529"><path d="M169.77,152.04L168.44,152.81L168.44,153.96"/><path d="M171.28,152.17L171.29,152.14L171.41,151.95"/><path d="M172.32,150.34L172.53,150.46L174.47,149.35L176.92,150.75L176.92,151.69"/><path d="M175.85,155.23L174.90,154.68"/><path d="M174.88,154.57L174.92,154.46L175.22,153.93L175.58,153.52"/><path d="M176.78,155.76L176.92,155.84L176.92,157.74L175.38,158.62"/></g></g><g id="Actor_.2"><g style="stroke:#000000;stroke-width:0.176"><path d="M165.38,152.93L165.66,153.43L166.19,153.85L172.48,157.45"/><path d="M175.44,147.50L175.27,147.50L175.08,147.57L167.21,152.09L166.95,152.30L166.81,152.54L166.81,152.80L166.95,153.05L167.21,153.26L169.29,154.45"/><path d="M173.43,156.83L171.61,155.78"/><path d="M171.61,150.75L172.63,150.17L172.63,150.40"/><path d="M173.41,157.99L173.75,158.18L173.94,158.33L174.11,158.53L174.25,158.76L174.34,159.01L174.37,159.25L174.37,167.65L174.34,167.86L174.25,168.00L174.11,168.08"/><path d="M174.76,157.59L174.36,157.36"/><path d="M175.14,167.50L175.13,167.50"/></g><g style="stroke:#000000;stroke-width:0.529"><path d="M175.70,150.05L175.70,147.93L175.67,147.73L175.58,147.58L175.44,147.50L174.42,146.92L174.25,146.91L174.06,146.99L166.19,151.50L165.66,151.92L165.38,152.41L165.38,158.28"/><path d="M171.61,155.78L169.29,154.45"/><path d="M171.61,150.75L170.28,151.51L170.28,151.75"/><path d="M174.76,157.59L174.78,157.60L174.97,157.74L175.14,157.94L175.27,158.18L175.36,158.42L175.39,158.66L175.39,167.07L175.36,167.27L175.27,167.42L175.14,167.50L174.11,168.08L173.94,168.09L173.75,168.01L170.91,166.38"/><path d="M175.70,153.59L175.70,155.14"/></g></g><g id="Actor_.3"><g style="stroke:#000000;stroke-width:0.176"><path d="M170.69,172.18L170.69,172.18"/><path d="M170.70,172.24L170.70,172.23"/><path d="M170.69,172.22L170.69,172.23"/><path d="M170.67,172.21L170.68,172.22"/><path d="M170.79,171.29L170.77,171.28L170.80,171.29"/><path d="M171.74,173.54L171.74,173.55"/><path d="M171.73,173.53L171.72,173.53"/><path d="M171.16,173.20L170.97,173.09L171.13,173.18"/><path d="M173.79,172.86L177.59,170.68L179.75,174.43L179.37,174.65L175.96,176.61L173.79,172.85L177.88,170.51L177.59,170.68"/><path d="M175.12,168.18L174.47,168.55"/><path d="M175.76,178.03L175.72,178.02"/><path d="M175.88,178.01L175.86,178.01L175.98,177.96"/><path d="M175.86,178.01L175.77,178.02"/><path d="M175.80,177.97L175.80,177.97"/><path d="M175.23,177.12L175.22,177.16"/><path d="M175.37,176.98L175.30,177.04L175.31,177.03"/><path d="M175.30,177.04L175.25,177.12"/><path d="M175.31,177.12L175.31,177.12"/><path d="M175.10,168.20L175.12,168.18L175.14,168.15"/><path d="M176.01,167.48L176.12,167.54L175.83,167.38"/><path d="M175.96,167.45L175.90,167.42"/><path d="M176.74,167.89L176.73,167.89"/><path d="M176.73,167.89L176.72,167.89L176.73,167.89"/><path d="M176.70,167.88L176.12,167.54L176.58,167.81"/><path d="M177.88,170.51L180.04,174.26L179.75,174.43"/><path d="M178.08,167.97L178.08,167.97"/><path d="M180.24,174.25L180.23,174.29"/><path d="M180.31,174.15L180.26,174.25"/><path d="M180.77,175.16L180.73,175.15"/><path d="M180.88,175.14L180.87,175.14L180.99,175.09"/><path d="M180.87,175.14L180.78,175.14"/><path d="M180.81,175.10L180.81,175.10"/><path d="M180.37,174.11L180.31,174.16"/><path d="M180.31,174.25L180.32,174.25"/></g><g style="stroke:#000000;stroke-width:0.529"><path d="M175.83,167.38L176.72,167.89L176.75,167.89L176.76,167.89L177.51,167.68L177.55,167.68L177.57,167.68L177.61,167.69L178.03,167.93L178.06,167.95L178.08,167.97L178.10,167.99L182.16,175.02L182.17,175.05L182.17,175.08L182.17,175.13L182.16,175.15L182.15,175.18L182.13,175.20L182.10,175.22L181.67,175.47L175.17,179.20L175.12,179.22L175.05,179.21L175.00,179.18L174.97,179.15L171.74,173.55L171.72,173.52L171.70,173.51L170.97,173.09L170.94,173.06L170.91,173.01L170.71,172.26L170.70,172.24L170.69,172.23L169.71,171.66"/><path d="M170.69,172.23L170.69,172.22"/><path d="M174.47,168.55L171.23,170.41L171.19,170.43L171.12,170.45L171.05,170.45L170.98,170.43L170.94,170.41L170.74,170.30"/><path d="M175.58,177.97L175.42,177.85L175.29,177.69L175.21,177.50L175.19,177.30L175.22,177.16L175.25,177.12L175.30,177.12L175.44,177.16L175.60,177.28L175.73,177.45L175.81,177.64L175.83,177.84L175.80,177.97L175.77,178.02L175.72,178.02L175.58,177.97"/><path d="M180.28,174.78L180.22,174.63L180.20,174.43L180.23,174.29L180.26,174.25L180.31,174.25L180.45,174.29L180.61,174.41L180.74,174.57L180.82,174.76L180.84,174.96L180.81,175.10L180.78,175.14L180.73,175.15L180.59,175.10L180.43,174.98L180.30,174.82L180.28,174.78"/></g></g><g id="Actor_.4"><g style="stroke:#000000;stroke-width:0.176"><path d="M154.27,140.95L154.16,140.90L154.01,140.90L153.89,140.97L153.81,141.11L153.78,141.28L153.78,141.69L153.81,141.90L153.89,142.12L154.01,142.32L154.16,142.50L154.33,142.63L154.49,142.69L154.64,142.69L154.76,142.62L154.84,142.49L154.87,142.32L154.67,142.38L154.63,142.36L154.54,142.28L154.48,142.19L154.43,142.08L154.38,141.83L154.38,141.69L154.38,141.73L154.43,141.76L154.54,141.74L154.82,141.63L154.84,141.70L154.87,141.91L154.87,142.32"/><path d="M154.01,140.90L153.89,140.97"/><path d="M154.67,142.38L154.71,142.40L154.75,142.42L154.85,142.43"/><path d="M154.59,141.21L154.64,141.27L154.76,141.48L154.82,141.63"/><path d="M154.27,141.47L154.28,141.51L154.32,141.61L154.38,141.69"/><path d="M154.85,142.41L154.81,142.42"/><path d="M155.68,140.21L155.44,140.29L155.35,140.30L155.35,140.13L155.17,140.04L154.94,139.99L154.85,139.99"/><path d="M155.35,140.30L155.18,140.32L154.91,140.30L154.87,140.29"/><path d="M154.38,140.01L154.50,140.14L154.47,140.12"/><path d="M154.50,140.14L154.53,140.16"/><path d="M154.40,140.03L154.37,139.89"/><path d="M155.22,140.07L155.35,140.14"/><path d="M156.23,142.77L156.24,142.79L156.36,142.86L156.51,142.87L156.68,142.80L156.84,142.67L156.99,142.50L157.11,142.29L157.19,142.07L157.22,141.86L157.22,141.46L157.19,141.28L157.11,141.15L156.99,141.08L156.84,141.08L156.68,141.14L156.51,141.27L156.36,141.45L156.24,141.65L156.16,141.87L156.13,142.08L156.13,142.48L156.16,142.66L156.23,142.77"/><path d="M156.19,141.80L156.22,141.78L156.31,141.70L156.38,141.61L156.42,141.51L156.43,141.41L156.43,141.36"/><path d="M155.35,140.13L155.42,140.09L155.52,140.07L155.64,140.07L155.71,140.09L155.78,140.14L155.82,140.11L155.92,139.97"/><path d="M155.90,140.00L155.90,139.89"/><path d="M155.78,140.14L155.67,140.21"/><path d="M156.36,141.45L156.42,141.47"/><path d="M158.11,142.71L157.96,142.66"/><path d="M157.57,140.23L157.57,142.48"/><path d="M157.58,142.47L157.57,142.45L157.58,142.50"/><path d="M157.58,142.47L157.61,142.52L157.73,142.59"/><path d="M159.27,139.25L159.32,139.23"/><path d="M161.00,138.74L160.97,138.73L160.88,138.64L160.81,138.55L160.74,138.35L160.61,138.27L160.72,138.33L160.71,138.32L160.75,138.25L160.79,138.21L160.94,138.08L160.97,138.18L161.00,138.39L161.00,138.79L160.97,138.97L160.90,139.10L160.78,139.17L160.63,139.17L160.46,139.11L160.29,138.98L160.14,138.81L160.02,138.60L159.94,138.38L159.92,138.17L159.92,137.77L159.94,137.59L160.02,137.46L160.14,137.39L160.29,137.39L160.40,137.43"/><path d="M159.56,138.81L159.56,138.76"/><path d="M160.14,137.39L160.02,137.46"/><path d="M160.71,138.33L160.60,138.26L160.51,138.18L160.45,138.09L160.41,137.99L160.40,137.96"/><path d="M159.56,136.65L159.56,136.57L159.56,136.64"/><path d="M159.56,136.57L159.56,136.52"/><path d="M160.86,146.15L160.85,146.15L161.73,146.65L161.70,146.63"/><path d="M160.82,146.12L160.85,146.15"/><path d="M160.85,146.14L160.83,146.13"/><path d="M160.72,138.33L160.74,138.35"/><path d="M160.94,138.08L160.90,137.96L160.78,137.75L160.72,137.69"/><path d="M160.60,138.26L160.61,138.27"/><path d="M160.98,136.44L161.03,136.43L161.20,136.46L161.39,136.57L161.48,136.66L161.48,136.68L161.52,136.69L161.78,136.65L161.96,136.59"/><path d="M161.48,136.66L161.57,136.57L161.76,136.46L161.86,136.43L161.98,136.44"/><path d="M161.48,136.68L161.24,136.67L161.00,136.60"/><path d="M160.81,136.49L160.83,136.50L160.72,136.37"/><path d="M160.71,136.26L160.74,136.39"/><path d="M160.84,136.51L160.83,136.50"/><path d="M161.81,155.48L161.77,155.46L162.57,155.91L161.81,155.48"/><path d="M161.63,155.43L161.71,155.43L161.77,155.46L161.72,155.43"/><path d="M161.77,155.46L163.57,156.49L163.64,156.51L163.76,156.51L163.81,156.49L165.20,155.69"/><path d="M163.75,145.84L163.74,145.87L163.71,145.94L163.67,145.97L162.11,146.87L162.23,146.93L162.27,146.95L162.26,146.95"/><path d="M162.39,146.95L162.39,146.95L162.44,146.93L164.63,145.68L164.65,145.67L164.70,145.67L165.10,145.70L165.68,145.65L166.21,145.50"/><path d="M162.27,146.95L162.27,146.95L162.30,146.96L162.27,146.95"/><path d="M162.33,146.96L162.30,146.96L162.33,146.96L162.39,146.95"/><path d="M161.73,146.65L162.11,146.87"/><path d="M162.30,146.96L162.30,146.96"/><path d="M161.84,140.49L161.79,140.60"/><path d="M162.56,137.84L162.64,137.75L162.81,137.63L162.98,137.56L163.13,137.56L163.25,137.63L163.32,137.76L163.35,137.94L163.35,138.35L163.32,138.55L163.25,138.77L163.13,138.98L162.98,139.16L162.81,139.28L162.64,139.35L162.49,139.35L162.37,139.28L162.29,139.15L162.27,138.97L162.27,138.56L162.29,138.36L162.32,138.29L162.35,138.27L162.32,138.29"/><path d="M162.32,138.29L162.37,138.14L162.49,137.93"/><path d="M162.35,138.27L162.45,138.18L162.51,138.09L162.55,137.99L162.55,137.96"/><path d="M162.01,136.58L162.01,136.57"/><path d="M162.11,136.51L162.16,136.47L162.26,136.33"/><path d="M162.24,136.25L162.23,136.37"/><path d="M162.89,157.76L165.38,156.33"/><path d="M162.62,155.94L163.52,156.46"/><path d="M163.60,145.44L163.61,145.46"/><path d="M163.57,145.31L163.67,145.56L163.68,145.80L163.68,145.83"/><path d="M163.10,144.78L163.17,144.88L163.09,144.76L163.10,144.78"/><path d="M163.17,144.88L163.34,145.11"/><path d="M163.09,144.76L163.08,144.75"/><path d="M164.31,155.16L164.31,155.15L164.32,155.19"/><path d="M164.32,155.17L164.32,155.18"/><path d="M164.31,155.15L164.31,155.14L164.31,155.15"/><path d="M164.31,155.14L164.31,154.30L164.31,154.90"/><path d="M164.31,154.30L164.31,153.51L164.32,153.45L164.32,153.46"/><path d="M164.38,153.34L164.34,153.40L164.32,153.45"/><path d="M164.36,153.37L164.38,153.35L164.42,153.32L164.76,153.13"/><path d="M164.04,139.46L164.42,139.68"/><path d="M170.42,143.15L164.05,139.46"/><path d="M163.96,139.41L164.00,139.43L163.95,139.41L163.96,139.41"/><path d="M163.71,138.93L163.71,138.98"/><path d="M163.71,136.76L163.71,136.75"/><path d="M165.16,145.02L165.32,145.00L165.39,144.98L167.52,143.76L167.55,143.75L167.60,143.74L167.65,143.74L167.69,143.75L167.84,143.83L166.91,144.37L166.87,144.40L166.36,144.96L166.35,144.98L166.28,145.15L166.27,145.41"/><path d="M166.60,145.28L166.59,145.28L166.84,145.00"/><path d="M166.59,145.28L166.19,145.51"/><path d="M166.40,144.93L166.61,144.71L166.36,144.98L166.34,145.01L166.34,145.00"/><path d="M166.27,145.40L166.26,145.47"/><path d="M169.11,143.10L167.84,143.83"/><path d="M170.52,143.17L170.52,143.17"/><path d="M171.04,147.73L171.00,147.71"/></g><g style="stroke:#000000;stroke-width:0.529"><path d="M159.56,136.64L159.56,138.76L159.55,138.85L159.51,138.98L159.44,139.10L159.35,139.20L159.27,139.26L157.57,140.23L157.57,140.16L157.54,140.10L157.51,140.05L157.45,140.00L155.47,138.86L155.40,138.84L155.28,138.84L155.23,138.86L153.55,139.83L153.51,139.86L153.48,139.90L153.45,139.94L153.43,139.99L153.43,140.04L153.43,153.76L153.43,153.81L153.43,153.86L153.45,153.91L153.48,153.95L153.51,153.99L153.59,154.04L161.36,158.50L161.41,158.52L161.48,158.52L161.53,158.52L161.60,158.50L162.89,157.76"/><path d="M154.26,141.41L154.27,141.47L154.33,141.45L154.49,141.33L154.59,141.21L154.49,141.09L154.33,140.97L154.27,140.95L154.26,141.01L154.26,141.41"/><path d="M154.66,140.23L154.53,140.16L154.61,140.07L154.71,140.02L154.82,139.99L154.85,139.99L154.87,140.11L154.87,140.29L154.66,140.23"/><path d="M160.40,137.89L160.40,137.96L160.46,137.94L160.63,137.81L160.72,137.69L160.63,137.58L160.46,137.45L160.40,137.43L160.40,137.49L160.40,137.89"/><path d="M159.56,136.95L159.56,136.65"/><path d="M164.05,139.46L164.00,139.43L163.92,139.38L163.83,139.28L163.76,139.15L163.72,139.02L163.71,138.93L163.71,136.69L163.70,136.64L163.64,136.53L163.59,136.49L163.54,136.46L161.60,135.35L161.53,135.32L161.48,135.32L161.41,135.33L161.36,135.35L159.72,136.28L159.64,136.34L159.61,136.38L159.58,136.42L159.56,136.47L159.56,136.52L159.56,137.17"/><path d="M161.00,136.59L161.00,136.60L160.84,136.51L160.93,136.45L160.98,136.44L161.00,136.59"/><path d="M162.55,137.96L162.56,137.89L162.56,137.84L162.49,137.93L162.50,137.94L162.55,137.96"/><path d="M162.01,136.58L161.96,136.59L161.98,136.44L162.05,136.46L162.11,136.51L162.01,136.58"/><path d="M171.74,148.32L171.74,148.28L171.73,148.22L171.68,148.12L171.62,148.07L171.04,147.73L170.97,147.68L170.88,147.58L170.81,147.47L170.76,147.34L170.75,147.24L170.64,143.38L170.63,143.33L170.57,143.22L170.52,143.17L170.47,143.15L164.00,139.43L164.04,139.46"/><path d="M163.71,138.27L163.71,137.56"/><path d="M163.71,137.23L163.71,136.76"/></g></g><g id="Actor_.5"><g style="stroke:#000000;stroke-width:0.176"><path d="M91.34,109.99L87.25,112.34L77.03,106.48"/><path d="M86.13,117.52L85.48,116.96L84.39,116.44L83.39,116.38L82.59,116.77L82.50,116.90"/><path d="M87.25,131.28L91.34,128.89L91.34,119.42L95.43,117.08"/><path d="M88.37,121.44L88.49,121.88L88.49,123.15L88.13,124.15L87.46,124.76L87.25,124.80"/><path d="M91.34,119.42L87.25,112.34"/><path d="M91.34,128.89L95.43,126.55"/></g><g style="stroke:#000000;stroke-width:0.529"><path d="M77.12,125.47L77.03,125.42L77.03,106.48L81.12,104.13L91.34,109.99L95.43,117.08L95.43,126.55L91.34,128.94L87.25,131.28L77.12,125.47"/><path d="M88.37,121.44L88.13,120.48L87.46,119.10L86.54,117.88L86.13,117.52"/></g></g><g id="Actor_.6"><g style="stroke:#000000;stroke-width:0.176"><path d="M86.23,130.70L86.23,130.72"/><path d="M95.43,123.08L96.35,122.55"/><path d="M110.35,114.52L107.07,116.40"/></g><g style="stroke:#000000;stroke-width:0.529"><path d="M86.25,130.71L86.23,130.72L79.45,126.83L79.08,126.62L79.08,126.59"/><path d="M95.43,121.39L96.35,122.55L96.35,124.92L95.43,125.44"/><path d="M107.61,118.46L110.35,116.89L110.35,114.52L108.14,113.25"/></g></g><g id="Actor_.7"><g style="stroke:#000000;stroke-width:0.176"><path d="M153.51,176.36L153.51,182.55"/><path d="M153.43,182.46L153.43,182.46"/><path d="M158.02,173.78L161.48,175.76L161.48,181.14L161.48,177.77"/><path d="M161.28,187.01L161.28,186.39L161.34,186.42L161.43,186.44L161.53,186.44L161.62,186.42L161.68,186.39L161.66,186.02L161.53,185.29L161.48,184.68L161.48,184.58L161.48,184.83L161.48,184.60"/><path d="M161.46,185.02L161.46,185.15L161.48,184.83L161.48,183.86L161.47,184.76"/><path d="M161.50,185.02L161.50,185.15L161.48,184.83"/><path d="M161.48,184.58L161.48,183.82"/><path d="M161.49,184.68L161.49,184.64"/><path d="M161.48,183.82L161.48,183.86L161.48,183.82"/><path d="M161.48,181.14L161.48,181.93"/><path d="M161.48,175.76L167.51,172.30"/><path d="M165.03,185.09L163.30,186.09"/></g><g style="stroke:#000000;stroke-width:0.529"><path d="M163.29,186.09L161.68,187.01L161.62,187.04L161.53,187.06L161.43,187.06L161.34,187.04L161.28,187.01L153.51,182.55L153.45,182.51L153.43,182.46"/><path d="M153.43,176.41L153.43,182.46"/></g></g><g id="Actor_.8"><g style="stroke:#000000;stroke-width:0.176"><path d="M163.26,184.07L163.15,184.01L163.61,184.28L163.26,184.07"/><path d="M163.10,183.98L163.10,183.98L164.30,184.67"/><path d="M163.10,183.98L163.09,183.98L163.10,183.98"/><path d="M163.13,184.00L163.08,183.98L163.03,183.98"/><path d="M163.61,184.28L168.92,187.32"/><path d="M169.61,186.60L169.61,186.55L169.61,186.09L169.61,186.57"/><path d="M169.61,186.58L169.61,186.58"/><path d="M169.61,186.49L169.61,186.56"/><path d="M169.61,185.23L169.64,185.17L169.65,185.15L169.67,185.13L169.71,185.09L171.60,184.01L170.91,184.41"/><path d="M169.61,186.09L169.61,185.28L169.62,185.22"/><path d="M171.64,185.59L171.62,185.53L171.61,185.52L171.61,185.52L171.59,185.50L171.28,185.10L171.26,185.09L171.24,185.08L171.22,185.08L171.19,185.09L169.61,186.00"/><path d="M171.14,181.51L171.59,181.77L171.62,181.79L171.64,181.84L171.64,181.87L171.64,182.86L171.64,182.88L171.63,182.90L171.62,182.92L171.61,182.94L171.59,182.95L171.45,183.04L171.42,183.04L171.37,183.05L171.34,183.04L170.91,182.79L170.88,182.78L170.88,182.78L170.88,182.78"/><path d="M176.00,181.49L176.00,182.24L175.99,182.28L175.98,182.31L175.95,182.35L175.92,182.38L171.80,184.74L171.78,184.76L171.75,184.79L171.73,184.82L171.72,184.85L171.70,184.89L171.70,184.93L171.70,185.09L171.70,185.12L171.68,185.17L171.66,185.21L171.63,185.25L171.60,185.27L171.47,185.34"/><path d="M171.64,185.58L171.65,185.59L171.64,185.59"/><path d="M171.61,185.52L171.60,185.51"/><path d="M171.61,185.52L171.62,185.53"/><path d="M171.64,185.58L171.64,185.59"/><path d="M171.64,185.59L171.64,185.58L171.63,185.57"/><path d="M171.03,183.13L171.03,183.24L171.03,182.97L171.03,183.13"/><path d="M171.03,183.56L171.03,183.54L171.03,183.60L171.07,183.66"/><path d="M171.03,183.53L171.03,183.24L171.03,183.54"/><path d="M171.60,184.01L176.50,181.20L176.49,181.21"/><path d="M171.04,183.62L171.07,183.64"/><path d="M171.03,182.86L171.03,182.97"/><path d="M171.03,181.33L171.03,180.89L171.03,181.30L171.03,181.34L171.03,181.31"/><path d="M171.11,181.49L171.07,181.43L171.03,181.36L171.03,181.32"/><path d="M171.11,181.48L171.16,181.52"/><path d="M171.03,180.89L171.03,180.49L171.03,180.89"/><path d="M174.45,178.24L171.27,180.06L171.21,180.10L171.13,180.19L171.07,180.30L171.03,180.41L171.03,180.49"/><path d="M176.00,181.99L176.00,181.94"/><path d="M175.25,180.25L175.31,180.27L175.73,180.52L175.77,180.53L175.82,180.52L175.84,180.52L175.99,180.43L176.00,180.42L176.02,180.40L176.03,180.38L176.04,180.36L176.04,180.34L176.04,179.34L176.04,179.32L176.01,179.27L175.99,179.25L175.54,178.99"/><path d="M175.54,178.99L175.56,179.00"/><path d="M176.04,179.34L176.04,179.36"/><path d="M177.13,182.59L177.13,182.61"/><path d="M176.50,181.20L176.51,181.20"/><path d="M176.50,181.20L176.50,181.20L176.50,181.20"/></g><g style="stroke:#000000;stroke-width:0.529"><path d="M167.51,172.30L161.63,175.67L161.59,175.71L161.54,175.76L161.51,175.82L161.49,175.88L161.48,175.94L161.48,180.89L161.48,184.58L161.49,184.63L161.51,184.67L162.82,185.42L162.87,185.44L162.91,185.44L162.96,185.44L163.00,185.42L164.30,184.67L168.95,187.34L169.00,187.36L169.09,187.36L169.13,187.34L177.04,182.81L177.06,182.79L177.09,182.76L177.11,182.72L177.12,182.69L177.13,182.65L177.13,182.61"/><path d="M177.13,182.59L177.13,178.08"/></g></g><g id="Actor_.9"><g style="stroke:#000000;stroke-width:0.176"><path d="M168.92,173.11L164.05,170.32L164.30,170.47"/><path d="M169.61,171.02L169.62,171.02L169.61,171.08L169.61,172.36L169.61,172.35L169.61,172.39"/><path d="M169.61,172.08L169.61,171.68"/><path d="M169.61,172.17L169.61,172.01"/><path d="M169.61,172.19L169.61,172.35L169.61,172.28"/><path d="M169.61,172.37L169.61,172.37"/><path d="M169.61,172.22L169.61,172.12"/><path d="M169.61,171.79L169.77,171.70"/><path d="M169.62,171.02L169.64,170.96L169.67,170.92L169.71,170.89L169.82,170.83L169.81,170.83"/><path d="M169.82,170.83L170.39,170.50L170.06,170.68"/><path d="M169.86,170.80L170.09,170.67"/><path d="M170.39,170.50L171.95,169.60L170.91,170.20"/><path d="M171.14,167.31L171.59,167.56L171.62,167.59L171.64,167.63L171.64,167.66L171.64,168.65L171.64,168.67L171.63,168.69L171.62,168.72L171.61,168.73L171.59,168.75L171.45,168.83L171.42,168.84L171.37,168.84L171.34,168.83L170.91,168.58L170.88,168.57"/><path d="M170.88,168.57L170.88,168.57L170.88,168.57"/><path d="M171.01,170.14L176.48,167.00L176.51,166.99"/><path d="M171.03,168.65L171.03,169.03L171.03,168.65"/><path d="M171.03,169.32L171.03,169.03L171.03,169.36"/><path d="M171.03,169.33L171.03,169.39L171.07,169.45"/><path d="M171.04,169.41L171.07,169.43"/><path d="M171.03,167.12L171.03,166.45L171.03,167.09L171.03,167.13L171.03,167.10"/><path d="M171.11,167.28L171.07,167.22L171.03,167.15L171.03,167.11"/><path d="M171.11,167.28L171.16,167.32"/><path d="M176.00,167.47L176.00,167.28"/><path d="M175.39,166.11L175.73,166.31L175.77,166.32L175.82,166.32L175.84,166.31L175.99,166.22L176.00,166.21L176.02,166.19L176.03,166.17L176.04,166.15L176.04,166.13L176.04,165.14L176.04,165.11L176.01,165.06L175.99,165.04L175.54,164.79"/><path d="M175.54,164.78L175.53,164.77L175.54,164.78L175.56,164.80"/><path d="M176.04,165.15L176.04,165.14"/><path d="M176.50,166.99L176.50,167.00L176.50,166.99L176.50,166.99L176.50,166.99"/><path d="M176.49,167.00L176.50,167.00"/><path d="M177.13,162.20L177.13,162.31"/></g><g style="stroke:#000000;stroke-width:0.529"><path d="M170.70,172.23L169.13,173.13L169.09,173.15L169.00,173.15L168.95,173.13L164.30,170.47L163.00,171.21L162.96,171.23L162.87,171.23L162.82,171.21L162.65,171.12"/><path d="M177.13,162.20L177.13,162.17L177.12,162.12L177.08,162.04L177.05,162.02L175.39,160.73"/><path d="M177.13,162.31L177.13,167.79"/></g></g><g id="Actor_.10"><g style="stroke:#000000;stroke-width:0.176"><path d="M153.43,157.64L153.51,157.69L153.51,165.09"/><path d="M160.58,161.03L153.30,156.86"/><path d="M161.28,172.80L161.28,172.19L161.34,172.21L161.43,172.23L161.53,172.23L161.62,172.21L161.68,172.19L161.66,171.81L161.64,171.70"/><path d="M165.03,170.88L163.30,171.88"/></g><g style="stroke:#000000;stroke-width:0.529"><path d="M153.30,156.86L153.30,157.57L153.43,157.64L153.43,165.13"/><path d="M163.29,171.88L161.68,172.80L161.62,172.83L161.53,172.85L161.43,172.85L161.34,172.83L161.28,172.80L160.49,172.35"/></g></g><g id="Actor_.11"><g style="stroke:#000000;stroke-width:0.176"><path d="M160.11,186.34L153.30,182.44"/><path d="M160.99,186.85L160.95,186.89L160.80,187.15L160.70,187.42L160.67,187.67L160.67,188.08L160.70,188.30L160.80,188.46L160.95,188.54L161.13,188.55L161.34,188.47L161.54,188.31L161.73,188.09L161.87,187.84L161.97,187.57L162.00,187.31L162.00,186.91L161.99,186.83"/><path d="M162.08,190.11L162.08,190.11"/><path d="M162.22,190.11L162.23,190.11"/><path d="M163.54,190.61L163.51,190.63L163.61,190.57L163.54,190.61"/><path d="M163.61,190.57L167.59,188.29"/><path d="M163.45,186.15L163.32,186.07"/><path d="M164.31,188.46L164.31,187.51L164.51,187.40L164.69,187.32L164.79,187.31L164.87,187.36L164.77,187.30L164.69,187.26L164.58,187.26L164.41,187.34L164.21,187.46L164.21,188.40L164.31,188.46L164.50,188.35L164.66,188.24L164.78,188.13L164.79,188.11L164.87,187.98L164.93,187.82L164.95,187.69L164.95,187.71L165.00,187.81L165.02,187.83L165.13,187.89L165.11,187.87L165.05,187.77L165.03,187.58L165.03,187.50L165.06,187.32L165.13,187.16L165.17,187.08L165.26,186.97L165.39,186.88L165.47,186.84L165.57,186.82L165.65,186.85L165.67,186.87L165.73,186.97L165.75,187.16L165.75,187.23L165.71,187.44L165.65,187.58L165.61,187.66L165.52,187.76L165.39,187.86L165.31,187.90L165.21,187.92L165.13,187.89"/><path d="M164.42,188.17L164.42,188.17L164.42,188.29L164.50,188.24L164.63,188.16L164.71,188.08L164.73,188.05L164.78,187.96L164.82,187.86L164.84,187.71L164.84,187.68L164.82,187.54L164.78,187.47L164.72,187.45L164.70,187.45L164.72,187.48L164.74,187.62L164.74,187.65L164.72,187.80L164.68,187.90L164.63,187.99L164.61,188.02L164.53,188.10L164.42,188.17"/><path d="M164.42,188.17L164.42,187.56L164.50,187.51L164.63,187.46L164.70,187.45"/><path d="M164.21,187.46L164.31,187.51"/><path d="M164.79,185.69L164.68,185.63L164.39,185.80L164.23,185.91L164.15,186.00L164.09,186.11L164.04,186.26L164.01,186.49L164.03,186.68L164.08,186.77L164.14,186.81L164.24,186.87L164.19,186.83L164.14,186.74L164.11,186.55L164.14,186.32L164.19,186.17L164.26,186.06L164.34,185.97L164.49,185.86L164.79,185.69L164.79,186.63L164.51,186.79L164.42,186.84L164.36,186.86L164.30,186.88L164.24,186.87"/><path d="M164.26,186.68L164.32,186.67L164.40,186.62L164.58,186.52L164.58,185.92L164.50,185.96L164.38,186.05L164.32,186.11L164.30,186.14L164.26,186.23L164.23,186.37L164.22,186.49L164.24,186.64L164.27,186.71L164.32,186.74L164.37,186.74L164.42,186.72L164.51,186.68L164.68,186.58L164.58,186.52"/><path d="M164.58,185.92L164.68,185.86L164.68,186.58"/><path d="M164.87,187.36L164.93,187.44L164.96,187.26L165.02,187.10L165.07,187.02L165.16,186.92L165.29,186.82L165.37,186.78L165.47,186.76L165.55,186.79L165.65,186.85"/><path d="M164.95,187.69L164.96,187.65L164.96,187.62L164.93,187.44"/><path d="M165.51,187.38L165.47,187.49L165.42,187.57L165.36,187.64L165.29,187.70L165.26,187.71L165.19,187.73L165.16,187.68L165.14,187.51L165.14,187.47L165.17,187.30L165.21,187.19L165.26,187.11L165.31,187.04L165.39,186.98L165.46,186.96L165.49,186.95L165.52,187.01L165.54,187.17L165.54,187.21L165.51,187.38"/><path d="M165.19,187.73L165.20,187.75L165.24,187.78L165.29,187.79L165.36,187.77L165.39,187.75L165.47,187.70L165.52,187.63L165.57,187.55L165.61,187.44L165.64,187.27L165.64,187.23L165.62,187.07L165.58,186.99L165.57,186.98L165.52,186.95L165.49,186.95"/><path d="M164.77,187.30L164.77,187.30"/><path d="M165.32,186.33L165.32,185.49L165.22,185.55L165.22,186.27L165.32,186.33L165.43,186.27L165.43,185.32L164.92,185.61L164.92,185.72L164.81,185.67L164.81,185.55L165.32,185.26L165.43,185.32"/><path d="M165.62,185.43L165.59,185.51L165.56,185.71L165.59,185.90L165.65,185.99L165.54,185.93L165.49,185.84L165.46,185.66L165.48,185.45L165.51,185.37"/><path d="M164.81,185.55L164.92,185.61"/><path d="M164.92,185.72L165.22,185.55"/><path d="M166.02,185.66L165.93,185.76L165.85,185.82L165.83,185.83L165.74,185.85L165.72,185.85L165.70,185.81L165.67,185.65L165.69,185.48L165.69,185.47"/><path d="M166.19,185.76L166.09,185.87L165.95,185.98L165.84,186.03L165.73,186.03L165.65,185.99"/><path d="M165.87,187.13L165.87,187.57L166.35,187.30L166.35,187.18L165.98,187.39L165.98,186.56L165.87,186.62L165.87,187.13"/><path d="M165.87,186.62L165.77,186.56L165.77,187.51L165.87,187.57"/><path d="M166.70,186.05L166.52,186.13L166.33,186.24L166.33,187.13L166.33,187.17L166.35,187.18"/><path d="M167.05,186.25L167.08,186.40L167.07,186.43L167.05,186.61L166.99,186.76L166.91,186.90L166.89,186.91L166.78,187.03L166.62,187.14L166.43,187.25L166.35,187.20"/><path d="M166.43,187.25L166.43,186.30L166.33,186.24"/><path d="M166.33,187.17L166.24,187.12L165.98,187.28"/><path d="M165.77,186.56L165.88,186.50L165.98,186.56"/><path d="M166.73,186.80L166.65,186.88L166.54,186.96L166.54,186.35L166.62,186.30L166.74,186.24L166.82,186.23L166.84,186.26L166.86,186.41L166.86,186.43L166.84,186.58L166.80,186.69L166.75,186.78L166.73,186.80"/><path d="M166.82,186.23L166.84,186.23L166.90,186.26L166.94,186.32L166.96,186.47L166.96,186.49L166.94,186.64L166.90,186.75L166.85,186.84L166.83,186.86L166.75,186.94L166.62,187.03L166.54,187.08L166.54,186.96"/><path d="M166.43,186.30L166.63,186.19L166.80,186.11"/><path d="M165.72,185.85L165.74,185.88L165.78,185.90L165.85,185.91L165.93,185.89L165.95,185.87L166.03,185.81L166.12,185.72"/><path d="M167.69,188.14L167.69,188.14L167.69,188.09L167.69,188.14"/><path d="M167.69,186.62L167.69,188.09"/><path d="M167.69,186.71L167.69,186.89"/></g><g style="stroke:#000000;stroke-width:0.529"><path d="M167.93,186.75L167.69,186.89L167.69,188.14L167.69,188.17L167.64,188.25L167.59,188.29L167.57,188.30L163.48,190.64L163.43,190.67L163.36,190.68L163.28,190.68L163.21,190.67L163.16,190.64L162.22,190.11L162.17,190.09L162.14,190.09L162.08,190.11L160.48,191.03L160.42,191.05L160.35,191.07L160.28,191.07L160.21,191.06L160.15,191.03L153.39,187.15L153.34,187.13L153.33,187.11L153.31,187.09L153.31,187.07L153.30,187.06L153.30,182.44L153.43,182.37"/></g></g><g id="Actor_.12"><g style="stroke:#000000;stroke-width:0.176"><path d="M160.42,157.96L160.36,157.97L160.27,157.97L160.18,157.96L160.11,157.93L153.30,154.02"/><path d="M161.14,158.38L160.99,158.56L160.87,158.79L160.79,159.03L160.78,159.25L160.82,159.43L160.92,159.56L161.07,159.60L161.24,159.57L161.43,159.47L161.60,159.30L161.75,159.08L161.85,158.84L161.90,158.61L161.88,158.40L161.86,158.35"/><path d="M163.45,157.73L163.20,157.59"/><path d="M164.10,158.76L164.38,158.60L164.47,158.56L164.53,158.53L164.59,158.52L164.65,158.53L164.75,158.59L164.69,158.58L164.63,158.59L164.57,158.61L164.49,158.66L164.20,158.82L164.10,158.76L164.10,159.01"/><path d="M164.20,158.82L164.20,158.95"/><path d="M164.03,158.26L164.08,158.35L164.14,158.39L164.24,158.45L164.19,158.41L164.14,158.32L164.11,158.14L164.14,157.90L164.19,157.75L164.26,157.64L164.34,157.55L164.49,157.44L164.79,157.27L164.68,157.21L164.39,157.38L164.23,157.49L164.15,157.58L164.09,157.69L164.04,157.85L164.01,158.08L164.03,158.26"/><path d="M164.58,158.02L164.58,158.11L164.40,158.21L164.32,158.25L164.26,158.27L164.24,158.23L164.22,158.07L164.23,157.95L164.26,157.81L164.30,157.73L164.32,157.69L164.38,157.63L164.50,157.54L164.58,157.50L164.58,158.02"/><path d="M164.58,158.11L164.68,158.17L164.68,157.44L164.58,157.50"/><path d="M164.68,158.17L164.51,158.27L164.42,158.31L164.37,158.33L164.32,158.32L164.27,158.29L164.26,158.27"/><path d="M164.24,158.45L164.30,158.46L164.36,158.45L164.42,158.42L164.51,158.38L164.79,158.22L164.79,157.27"/><path d="M164.62,158.71L164.57,158.73L164.45,158.79L164.31,158.87L164.31,158.89"/><path d="M165.38,158.03L165.29,158.07L165.15,158.17L165.05,158.29L164.97,158.44L164.94,158.53"/><path d="M165.10,158.44L165.15,158.35L165.25,158.23L165.38,158.13"/><path d="M165.26,158.35L165.31,158.29L165.38,158.24"/><path d="M164.75,158.59L164.79,158.62"/><path d="M165.38,156.88L165.32,156.84L164.81,157.14L164.92,157.20L164.92,157.31L164.81,157.25L164.81,157.14"/><path d="M164.92,157.31L165.32,157.08L165.32,157.91L165.38,157.88"/><path d="M164.92,157.20L165.38,156.93"/><path d="M165.22,157.14L165.22,157.85L165.32,157.91"/></g><g style="stroke:#000000;stroke-width:0.529"><path d="M162.42,159.98L162.26,159.89L162.22,159.87L162.18,159.86L162.13,159.86L162.09,159.87L162.05,159.89L160.52,160.77L160.45,160.80L160.36,160.81L160.27,160.81L160.18,160.80L160.11,160.77L153.30,156.86L153.30,154.02L153.46,153.93"/></g></g><g id="Actor_.13"><g style="stroke:#000000;stroke-width:0.176"><path d="M161.06,172.68L160.99,172.77L160.87,173.00L160.79,173.24L160.78,173.46L160.82,173.64L160.92,173.76L161.07,173.81L161.24,173.78L161.43,173.67L161.60,173.50L161.75,173.29L161.85,173.05L161.90,172.82L161.89,172.69"/><path d="M163.45,174.46L163.36,174.54L163.27,174.59"/><path d="M163.32,171.86L163.45,171.94"/><path d="M164.10,172.97L164.10,173.92L164.20,173.98L164.20,173.03L164.10,172.97L164.38,172.81L164.47,172.76L164.53,172.74L164.59,172.73L164.65,172.74L164.75,172.80L164.69,172.79L164.63,172.80L164.57,172.82L164.49,172.87L164.20,173.03"/><path d="M164.31,173.69L164.31,173.80L164.49,173.70L164.61,173.61L164.67,173.55L164.69,173.52L164.73,173.44L164.76,173.29L164.77,173.17L164.75,173.02L164.72,172.96L164.67,172.92L164.62,172.92L164.57,172.94L164.48,172.98L164.31,173.08L164.31,173.69L164.39,173.64L164.51,173.55L164.57,173.49L164.59,173.46L164.62,173.38L164.66,173.23L164.67,173.11L164.65,172.96L164.63,172.92"/><path d="M164.20,173.98L164.50,173.81L164.65,173.69L164.73,173.60L164.80,173.49L164.85,173.34L164.88,173.11L164.86,172.92L164.81,172.83L164.75,172.80"/><path d="M164.79,171.48L164.68,171.42L164.39,171.59L164.23,171.70L164.15,171.79L164.09,171.90L164.04,172.05L164.01,172.29L164.03,172.47L164.08,172.56L164.14,172.60L164.24,172.66L164.19,172.62L164.14,172.53L164.11,172.34L164.14,172.11L164.19,171.96L164.26,171.85L164.34,171.76L164.49,171.65L164.79,171.48L164.79,172.43L164.51,172.59L164.42,172.63L164.36,172.66L164.30,172.67L164.24,172.66"/><path d="M164.58,171.71L164.58,172.32L164.40,172.42L164.32,172.46L164.26,172.48L164.26,172.48L164.24,172.44L164.22,172.28L164.23,172.16L164.26,172.02L164.30,171.93L164.32,171.90L164.38,171.84L164.50,171.75L164.68,171.65L164.68,172.38L164.58,172.32"/><path d="M164.68,172.38L164.51,172.47L164.42,172.52L164.37,172.53L164.32,172.53L164.27,172.50L164.26,172.48"/><path d="M164.92,173.16L164.90,173.00L164.91,172.81L164.97,172.65L165.05,172.50L165.15,172.38L165.29,172.27L165.40,172.23L165.51,172.22L165.59,172.27L165.69,172.32L165.61,172.28L165.50,172.29L165.39,172.33L165.25,172.44L165.15,172.56L165.07,172.70L165.02,172.87L165.00,173.06L165.02,173.22L165.08,173.32L164.98,173.26L164.92,173.16"/><path d="M165.52,172.41L165.54,172.44L165.57,172.60L165.55,172.78L165.50,172.90L165.44,173.01L165.37,173.09L165.29,173.15L165.22,173.18L165.16,173.18"/><path d="M165.32,173.24L165.39,173.21L165.47,173.15L165.54,173.07L165.61,172.96L165.65,172.83L165.67,172.66L165.64,172.50L165.60,172.44L165.57,172.41L165.50,172.40L165.41,172.43L165.39,172.44L165.31,172.50L165.22,172.60L165.16,172.70L165.13,172.82L165.11,173.00L165.13,173.14L165.17,173.21L165.24,173.24L165.32,173.24"/><path d="M165.69,172.32L165.75,172.42L165.78,172.60L165.75,172.80L165.70,172.95L165.63,173.09L165.52,173.21L165.39,173.31L165.27,173.36L165.16,173.36L165.08,173.32"/><path d="M165.32,172.12L165.22,172.06L165.22,171.34L165.32,171.29L165.32,172.12L165.43,172.06L165.43,171.11L164.92,171.40L164.81,171.35L165.32,171.05L165.43,171.11"/><path d="M165.51,171.16L165.48,171.25L165.46,171.45L165.49,171.63L165.54,171.72L165.65,171.78L165.59,171.69L165.56,171.51L165.59,171.31L165.62,171.22"/><path d="M166.02,171.45L165.93,171.55L165.85,171.61L165.83,171.62L165.74,171.65L165.72,171.64L165.70,171.60L165.67,171.44L165.69,171.27L165.69,171.26"/><path d="M165.65,171.78L165.73,171.83L165.84,171.82L165.95,171.77L166.09,171.67L166.19,171.55"/><path d="M164.81,171.35L164.81,171.46L164.92,171.52L164.92,171.40"/><path d="M164.92,171.52L165.22,171.34"/><path d="M166.02,171.99L166.02,172.82L166.42,172.59L166.42,172.70L165.91,173.00L165.91,172.05L165.81,171.99L165.92,171.93L166.02,171.99L165.91,172.05"/><path d="M166.42,172.59L166.32,172.53L166.02,172.70"/><path d="M165.81,171.99L165.81,172.94L165.91,173.00"/><path d="M166.55,171.76L166.55,172.63L166.45,172.57L166.45,171.70"/><path d="M166.55,172.63L166.85,172.46L167.00,172.35L167.08,172.26L167.15,172.15L167.16,172.11"/><path d="M166.98,172.00L166.97,172.03L166.93,172.12L166.91,172.15L166.86,172.21L166.73,172.30L166.66,172.34"/><path d="M165.72,171.64L165.74,171.67L165.78,171.69L165.85,171.70L165.93,171.68L165.95,171.67L166.03,171.61L166.12,171.51"/><path d="M167.08,172.06L167.08,172.09L167.04,172.17L167.02,172.21L166.96,172.26L166.84,172.36L166.66,172.46L166.66,171.82"/></g><g style="stroke:#000000;stroke-width:0.529"><path d="M158.02,173.78L160.11,174.98L160.18,175.01L160.27,175.02L160.36,175.02L160.45,175.01L160.52,174.98L162.05,174.10L162.09,174.08L162.13,174.07L162.18,174.07L162.22,174.08L162.26,174.10L163.11,174.59L163.15,174.60L163.19,174.61L163.23,174.60L163.27,174.59L167.38,172.23"/></g></g><g id="Actor_.14"><g style="stroke:#000000;stroke-width:0.176"><path d="M154.26,141.05L154.33,141.03L154.37,141.00"/><path d="M160.40,137.54L160.46,137.51L160.50,137.48"/></g><g style="stroke:#000000;stroke-width:0.529"><path d="M153.30,200.62L152.46,200.14L152.43,200.12L152.36,199.99L152.34,199.86L152.34,177.03"/><path d="M152.98,131.08L152.71,131.24L152.60,131.32L152.49,131.44L152.41,131.58L152.36,131.73L152.34,131.87L152.34,165.76"/><path d="M161.42,190.49L161.42,191.40"/><path d="M161.42,133.37L161.42,135.33"/></g></g><g id="Actor_.15"><g style="stroke:#000000;stroke-width:0.176"><path d="M165.38,153.30L164.76,152.94L164.76,153.71L164.32,153.46"/><path d="M165.38,152.59L164.76,152.94"/><path d="M167.72,150.62L167.72,150.13L166.70,149.55L166.70,151.21"/><path d="M166.70,149.55L166.87,149.45"/><path d="M167.72,150.13L169.87,148.90"/><path d="M168.13,148.73L166.92,149.42"/><path d="M171.81,151.65L171.73,151.60"/><path d="M172.53,153.35L172.59,153.42L172.53,153.39"/><path d="M172.49,153.25L172.48,153.20L172.48,153.16L172.49,153.04L172.54,152.86L172.63,152.70L172.75,152.55L172.89,152.45L173.02,152.40L173.14,152.41"/><path d="M172.59,153.42L172.69,153.45L172.82,153.43L172.95,153.36L173.08,153.23L173.19,153.07L173.26,152.90L173.29,152.73L173.28,152.58L173.24,152.49"/></g><g style="stroke:#000000;stroke-width:0.529"><path d="M165.38,155.79L164.76,155.43L164.76,154.66L164.31,154.41"/><path d="M166.87,149.45L166.92,149.42"/><path d="M169.87,149.39L169.87,148.90L168.85,148.31L168.13,148.73"/><path d="M173.24,152.49L173.23,152.47L173.14,152.41L171.81,151.65"/><path d="M175.37,153.75L175.41,153.83L175.42,153.98L175.39,154.15L175.31,154.32L175.21,154.48L175.08,154.60L174.94,154.68L174.83,154.70"/></g></g><g id="Actor_.16"><g style="stroke:#000000;stroke-width:0.176"><path d="M174.37,162.50L146.82,178.30L145.63,178.83L144.23,179.16L142.74,179.27L141.24,179.16L139.84,178.83L138.65,178.30L130.47,173.61L129.67,172.98L129.25,172.24"/><path d="M134.76,167.63L143.59,172.70L141.94,173.64"/></g><g style="stroke:#000000;stroke-width:0.529"><path d="M129.55,174.65L129.67,174.88L130.47,175.51L138.65,180.20L139.84,180.72L141.24,181.05L142.74,181.17L144.23,181.05L145.63,180.72L146.82,180.20L174.37,164.40L174.37,162.50L166.19,157.81L149.07,167.63L147.98,168.09L146.68,168.33L145.33,168.33L144.04,168.09L142.94,167.63L141.92,167.05L140.82,166.59L139.53,166.35L138.17,166.35L136.88,166.59L135.79,167.05L134.76,167.63L134.76,169.53L141.94,173.64L140.12,174.69L131.29,169.63L130.47,170.09L129.67,170.72L129.25,171.46L129.25,174.14L129.55,174.65"/></g></g><g id="Actor_.17"><g style="stroke:#000000;stroke-width:0.176"><path d="M150.24,127.99L152.28,129.16L152.91,129.64L153.48,130.30L153.93,131.09L154.23,131.91L154.33,132.70L154.33,137.44"/></g><g style="stroke:#000000;stroke-width:0.529"><path d="M151.11,129.67L150.24,129.17L150.24,127.99L158.41,123.30L160.46,124.47L161.09,124.95L161.66,125.61L162.11,126.40L162.40,127.22L162.50,128.01L162.50,132.75L154.33,137.44L153.30,136.85L153.30,132.12L153.25,131.72L153.11,131.31L152.88,130.92L152.60,130.59L152.28,130.35L151.11,129.67"/></g></g><g id="Actor_.18"><g style="stroke:#000000;stroke-width:0.176"><path d="M157.58,198.00L157.33,197.70L157.22,197.25L157.25,196.69L157.44,196.09L157.75,195.52L158.16,195.03L158.62,194.68L159.07,194.50L159.48,194.52"/><path d="M157.11,196.77L157.13,196.55L157.30,195.99L157.60,195.44L157.98,194.98L158.26,194.77"/><path d="M158.72,197.22L158.79,197.24L158.70,197.13L158.66,196.96L158.67,196.76L158.74,196.54L158.86,196.34L159.00,196.16L159.17,196.03L159.34,195.97L159.48,195.98L159.60,196.05L159.54,196.01L159.51,195.94"/><path d="M158.79,197.24L158.86,197.26L158.79,197.26"/><path d="M158.86,197.26L158.93,197.28L159.09,197.26L159.17,197.21L159.25,197.16L159.41,197.00L159.55,196.81L159.64,196.59L159.68,196.38L159.67,196.19L159.60,196.05"/></g><g style="stroke:#000000;stroke-width:0.529"><path d="M158.26,194.77L158.41,194.65L158.84,194.49L158.92,194.47L159.32,194.49L159.40,194.49L159.48,194.52L159.80,194.74L159.98,195.12L160.02,195.30L160.06,195.77L159.95,196.31L159.93,196.38L159.73,196.87L159.42,197.32L158.98,197.75L158.55,198.00L158.39,198.05L157.95,198.12L157.58,198.00L157.52,197.95L157.26,197.65L157.22,197.58L157.20,197.51L157.09,197.08L157.11,196.77"/></g></g><g id="Actor_.19"><g style="stroke:#000000;stroke-width:0.176"><path d="M153.30,198.46L153.30,200.79L153.25,201.13L153.11,201.37L152.88,201.51L152.60,201.51L152.28,201.39L150.24,200.21"/><path d="M153.30,196.05L154.33,196.64L154.33,201.38L154.23,202.05L153.93,202.54L153.48,202.81"/><path d="M154.33,196.64L162.50,191.95"/></g><g style="stroke:#000000;stroke-width:0.529"><path d="M153.30,198.46L153.30,196.05L161.48,191.36L162.50,191.95L162.50,196.69L162.40,197.36L162.11,197.85L161.66,198.12L153.48,202.81L152.91,202.82L152.28,202.57L150.24,201.40L150.24,200.21L152.34,199.01"/></g></g><g id="Actor_.20"><g style="stroke:#000000;stroke-width:0.176"><path d="M177.22,152.15L177.14,151.99L177.03,151.89L176.88,151.84L176.71,151.86L176.52,151.93L176.34,152.07L176.17,152.25L175.74,152.66L175.81,153.17L175.83,153.37L175.90,153.53L176.02,153.64L176.17,153.69L176.34,153.67L176.52,153.59L176.65,153.50"/><path d="M175.74,153.62L175.81,153.17L175.83,152.94L175.91,152.70L176.02,152.46L176.17,152.25L176.46,151.77L176.88,151.84L177.18,151.84"/><path d="M175.32,153.18L175.32,152.41L175.74,152.66"/><path d="M175.83,151.70L175.66,151.84L175.47,152.10L175.32,152.40L175.32,152.41L175.97,151.61"/><path d="M175.32,152.41L175.32,152.41"/><path d="M175.32,152.42L175.25,152.69"/><path d="M176.03,151.53L176.46,151.77"/><path d="M177.09,152.94L177.14,152.82L177.20,152.64"/><path d="M176.12,151.53L176.44,151.56"/></g><g style="stroke:#000000;stroke-width:0.529"><path d="M175.25,152.69L175.25,152.70L175.24,152.85L175.25,152.98L175.32,153.18L175.32,153.37L175.74,153.62L176.17,153.69L176.46,153.68L176.65,153.50L176.71,153.46L176.88,153.28L177.03,153.06L177.09,152.94L177.18,152.79L177.20,152.64L177.22,152.58L177.24,152.35L177.22,152.15L177.21,152.11L177.18,151.84L176.75,151.59L176.44,151.56L176.34,151.52L176.13,151.53L176.12,151.53L176.03,151.53L175.97,151.61L175.89,151.64L175.83,151.70"/></g></g><g id="Actor_.21"><g style="stroke:#000000;stroke-width:0.176"><path d="M122.13,95.59L121.80,95.34L120.72,94.92L120.57,94.93"/><path d="M124.25,110.06L128.34,107.67L128.34,98.20L124.25,91.12L120.57,89.01"/><path d="M124.98,99.97L125.02,100.09L125.11,101.40L124.84,102.47L124.24,103.19L123.68,103.37"/><path d="M124.25,91.12L128.34,88.77"/><path d="M128.34,107.67L132.43,105.33"/><path d="M128.34,98.20L132.43,95.85"/></g><g style="stroke:#000000;stroke-width:0.529"><path d="M120.57,84.32L128.34,88.77L132.43,95.85L132.43,105.33L128.34,107.72L124.25,110.06L120.57,107.95"/><path d="M124.98,99.97L124.58,98.67L124.33,98.22"/></g></g><g id="Actor_.22"><g style="stroke:#000000;stroke-width:0.176"><path d="M157.58,135.01L157.33,134.71L157.22,134.26L157.25,133.70L157.44,133.10L157.75,132.53L158.16,132.04L158.17,132.03L158.62,131.69L159.07,131.51L159.48,131.54"/><path d="M157.11,133.78L157.13,133.56L157.30,133.00L157.60,132.45L157.98,131.99L158.26,131.78"/><path d="M158.77,134.22L158.70,134.14L158.66,133.97L158.67,133.77L158.74,133.56L158.86,133.35L159.00,133.17L159.17,133.04L159.34,132.98L159.48,132.99L159.60,133.06L159.67,133.20L159.68,133.35L159.68,133.39L159.64,133.60L159.55,133.82L159.41,134.02L159.25,134.17L159.17,134.23L159.09,134.27L158.93,134.29L158.79,134.25L158.77,134.22"/><path d="M158.72,134.23L158.79,134.25"/><path d="M158.79,134.28L158.86,134.27"/><path d="M159.60,133.06L159.54,133.02L159.51,132.95"/></g><g style="stroke:#000000;stroke-width:0.529"><path d="M157.11,133.78L157.09,134.09L157.20,134.52L157.22,134.59L157.26,134.66L157.52,134.96L157.58,135.01L157.95,135.13L158.39,135.06L158.55,135.01L158.98,134.76L159.42,134.33L159.73,133.88L159.93,133.39L159.95,133.32L160.06,132.78L160.02,132.31L159.98,132.14L159.80,131.75L159.48,131.54L159.40,131.50L159.32,131.50L158.92,131.48L158.84,131.50L158.41,131.66L158.26,131.78"/></g></g><g id="Actor_.23"><g style="stroke:#000000;stroke-width:0.176"><path d="M97.47,108.63L96.92,108.42L95.86,108.43L95.03,108.92L94.74,109.41"/><path d="M94.39,107.05L95.39,106.68L96.57,106.73L97.84,107.20L99.13,108.06L100.36,109.25L101.43,110.70L102.30,112.31L102.89,113.98L108.47,134.93L108.94,137.05L109.23,139.12L109.33,141.10L109.33,169.31L108.72,168.96"/><path d="M101.77,116.11L101.68,116.67L101.15,117.58L100.31,118.07L99.73,118.08"/><path d="M101.77,165.68L101.52,165.26"/><path d="M109.33,169.31L109.94,168.96"/><path d="M111.78,167.90L112.03,167.76"/></g><g style="stroke:#000000;stroke-width:0.529"><path d="M95.93,125.16L96.49,125.79L96.93,126.54L97.23,127.34L98.86,133.48L99.05,134.38L99.11,135.24L99.11,160.10L99.18,160.75L99.38,161.44L99.71,162.12L101.52,165.26L101.52,193.23L101.61,194.21L101.85,195.23L102.26,196.27L102.79,197.26L103.44,198.18L104.17,198.98L104.96,199.62L105.91,200.17L106.72,200.43L107.69,200.49L108.38,200.31L108.59,200.24L110.43,199.18L111.00,198.77L111.17,198.63L111.59,198.02L111.68,197.84L111.94,197.07L112.03,196.17L112.03,167.76L112.40,167.55L112.40,139.34L112.30,137.36L112.01,135.29L111.53,133.18L105.95,112.22L105.36,110.55L104.50,108.94L103.42,107.49L102.20,106.30L100.91,105.44L99.64,104.97L98.46,104.92L97.45,105.29L94.39,107.05L93.62,107.81L93.14,108.93L92.98,110.32L92.98,110.62"/><path d="M97.47,108.63L98.09,108.87L99.26,109.76L100.31,110.98L101.15,112.43L101.68,113.96L101.87,115.42L101.77,116.11"/></g></g><g id="Actor_.24"><g style="stroke:#000000;stroke-width:0.176"><path d="M77.85,121.58L78.00,120.59L78.45,119.89L79.15,119.55L79.29,119.55L80.01,119.60L80.95,120.05L81.86,120.84L82.65,121.89L83.23,123.08L83.53,124.29L83.53,125.38L83.23,126.24L82.65,126.77L81.86,126.91L80.95,126.66"/><path d="M78.54,119.18L79.33,118.79L80.32,118.85L81.39,119.36L82.33,120.17L82.43,120.27L83.34,121.47L84.00,122.83L84.35,124.21L84.35,125.46L84.00,126.44L83.34,127.04"/><path d="M92.73,111.04L93.46,110.62L94.25,110.23L95.24,110.29L96.31,110.80L96.81,111.24L97.36,111.71L98.26,112.91L98.92,114.27L99.27,115.65L99.27,116.90L98.92,117.88L98.26,118.48L97.36,119.00"/><path d="M93.94,109.87L94.94,109.85L96.04,110.28L97.15,111.12L97.96,112.06L98.15,112.28L98.94,113.65L99.45,115.10L99.62,116.48L99.45,117.66L98.94,118.51L98.15,118.98"/><path d="M114.24,109.32L114.37,109.10L114.54,107.92L114.37,106.54L113.86,105.09L113.07,103.72L112.07,102.56L110.96,101.72L109.86,101.29L109.72,101.29"/><path d="M120.57,96.45L120.67,96.51L120.94,96.68L121.48,97.08L121.99,97.58L122.89,98.78L123.55,100.14L123.90,101.52L123.90,101.75"/></g><g style="stroke:#000000;stroke-width:0.529"><path d="M83.42,116.38L78.54,119.18L78.03,119.98L77.85,121.11L77.85,121.58L78.01,122.74L78.45,123.96L79.15,125.10L80.01,126.03L80.95,126.66L81.39,126.91L82.43,127.21L83.34,127.04L87.70,124.54"/><path d="M92.14,111.38L92.73,111.04L93.15,110.33L93.94,109.87L96.46,108.42"/><path d="M101.43,117.10L98.15,118.98L97.36,119.00L95.43,120.11"/><path d="M109.72,101.29L108.86,101.31L101.25,105.67"/><path d="M106.48,114.20L113.07,110.42L113.86,109.96L114.24,109.32"/><path d="M125.09,101.07L123.90,101.75L123.90,102.77L123.55,103.75L122.89,104.36L120.57,105.68"/><path d="M120.57,95.36L121.09,95.07"/></g></g><g><g><path style="stroke:#000000;stroke-width:0.125;stroke-dasharray:2.2 1.5 0.7 1.5" d="M125.78,179.13L152.34,194.36"/></g></g><g><g><path style="stroke:#000000;stroke-width:0.125;stroke-dasharray:2.2 1.5 0.7 1.5" d="M125.78,112.83L151.23,127.42"/></g></g><g id="PMI.0"><g><path style="stroke:#000000;stroke-width:0.125" d="M198.78,140.65L171.12,158.92"/></g><g><path style="fill:#000000" d="M171.87,158.92L171.87,158.85L171.86,158.78L171.84,158.71L171.82,158.64L171.79,158.57L171.75,158.51L171.70,158.45L171.65,158.39L171.60,158.35L171.54,158.30L171.48,158.26L171.41,158.23L171.34,158.21L171.27,158.19L171.20,158.18L171.12,158.17L171.05,158.18L170.98,158.19L170.91,158.21L170.84,158.23L170.77,158.26L170.71,158.30L170.65,158.35L170.59,158.39L170.54,158.45L170.50,158.51L170.46,158.57L170.43,158.64L170.41,158.71L170.39,158.78L170.38,158.85L170.37,158.92L170.38,159.00L170.39,159.07L170.41,159.14L170.43,159.21L170.46,159.28L170.50,159.34L170.54,159.40L170.59,159.46L170.65,159.50L170.71,159.55L170.77,159.59L170.84,159.62L170.91,159.64L170.98,159.66L171.05,159.67L171.12,159.67L171.20,159.67L171.27,159.66L171.34,159.64L171.41,159.62L171.48,159.59L171.54,159.55L171.60,159.50L171.65,159.46L171.70,159.40L171.75,159.34L171.79,159.28L171.82,159.21L171.84,159.14L171.86,159.07L171.87,159.00z"/></g><g><text xml:space="preserve" fill="#000000" stroke-width="0" x="194.39" y="139.88" font-size="3.80" opacity="1.00" font-family="Arial">BPA16089</text></g></g><g/><g><g/><g><text xml:space="preserve" fill="#000000" stroke-width="0" x="7.62" y="12.57" font-size="4.53" opacity="1.00" font-family="Arial" font-weight="bold">BPA15758</text></g></g><g id="paperID" visibility="hidden" opacity="0.00" transform="scale(0.000100)"><path style="stroke:#000000;stroke-width:0.500;fill:#e6e6e6;fill-rule:evenodd" d="M-2000.00,-2000.00L2297.00,-2000.00L2297.00,2210.00L-2000.00,2210.00zM0.00,0.00L297.00,0.00L297.00,210.00L0.00,210.00z"/><path style="fill:#000000;fill-opacity:0.118" d="M3.00,210.00L297.00,210.00L297.00,3.00L300.00,3.00L300.00,213.00L3.00,213.00z"/></g><g id="hotspot.0" onmouseover="ShowHotSpot(evt,'0')" onmouseout="HideHotSpot(evt,'0')" onmousemove="ShowToolTip(evt,'0',&quot;Hotspot 1&quot;)" opacity="0"><a xlink:href=".\BPA16089.svg"><path style="fill:#ff8000;fill-rule:evenodd" d="M160.56,124.51L161.65,125.62L162.40,127.08L162.39,132.83L161.41,133.33L161.42,135.22L163.69,136.61L163.86,139.38L169.37,142.50L170.66,143.41L170.81,147.48L171.56,148.02L172.25,148.02L174.34,146.91L175.62,147.63L175.73,150.09L176.91,150.75L177.06,151.88L177.28,152.23L177.07,153.03L176.64,153.51L175.72,153.69L175.79,155.17L176.52,155.54L176.90,155.89L176.89,157.80L175.37,158.66L175.37,160.73L175.59,160.87L177.09,162.13L177.19,167.72L177.82,167.83L178.20,168.18L182.06,174.82L182.03,175.22L177.26,177.99L177.07,182.76L169.28,187.29L168.83,187.29L168.26,186.90L167.84,186.91L167.65,188.21L163.59,190.60L163.12,190.62L162.39,190.21L161.96,190.21L161.47,190.47L161.41,191.39L162.39,191.88L162.40,197.46L162.04,197.84L153.69,202.70L152.65,202.72L150.28,201.43L150.28,200.20L152.23,199.04L152.29,177.18L152.06,177.16L146.05,180.56L143.79,181.05L141.65,181.05L139.80,180.69L136.89,179.20L130.29,175.34L129.73,174.98L129.34,174.27L129.36,171.21L130.02,170.41L131.12,169.66L131.36,169.65L139.99,174.65L140.38,174.54L141.68,173.77L141.68,173.52L134.80,169.55L134.86,167.53L136.99,166.55L137.92,166.37L139.81,166.37L140.73,166.55L143.84,168.03L144.77,168.20L147.28,168.20L148.21,168.03L152.23,165.81L152.45,131.53L152.85,131.16L152.87,130.95L152.11,130.20L150.21,129.16L150.21,128.00L158.29,123.40L158.53,123.40zM212.69,137.90L212.69,139.08L212.51,139.63L212.09,139.95L211.22,139.94L210.81,139.37L210.81,139.17L211.18,139.21L211.36,139.43L212.10,139.38L212.15,139.02L211.03,138.83L210.84,138.48L210.84,137.60L211.14,137.16L212.15,137.17zM210.50,137.73L210.50,139.65L210.07,139.95L209.18,139.95L208.62,139.39L208.63,138.89L208.84,138.29L208.83,137.42L209.12,137.17L210.13,137.16zM208.29,137.54L208.29,139.46L207.87,139.95L207.00,139.93L206.63,139.56L206.61,137.60L206.92,137.16L207.92,137.17zM206.11,137.36L206.08,137.80L205.74,137.73L205.52,137.52L205.11,137.54L204.89,137.91L205.73,138.08L206.07,138.29L206.28,138.64L206.27,139.27L205.83,139.93L204.96,139.95L204.41,139.40L204.41,137.78L204.90,137.17L205.91,137.16zM199.31,137.34L199.23,138.66L197.75,138.83L197.63,140.02L197.21,140.02L197.20,137.17L199.12,137.16zM196.55,137.34L196.73,139.46L196.52,139.80L195.93,139.94L194.63,140.00L194.63,137.17L196.37,137.16zM202.06,139.58L202.04,140.01L201.63,140.01L201.30,139.20L200.30,139.18L199.95,139.96L199.59,140.01L199.64,139.25L200.51,137.18L201.11,137.18zM202.88,138.09L202.52,138.17L202.59,137.61L203.28,137.15L203.50,137.16L203.49,140.03L203.28,140.03L203.15,137.91zM212.16,137.71L212.08,138.48L211.39,138.48L211.39,137.59L211.96,137.51zM209.96,137.72L209.88,138.11L209.37,138.11L209.37,137.60L209.76,137.52zM207.92,138.09L207.91,138.90L207.71,139.45L207.18,139.39L206.93,138.47L207.18,137.59L207.55,137.52zM198.92,137.90L198.68,138.28L197.75,138.35L197.75,137.54L198.56,137.54zM196.17,137.90L196.13,138.09L195.17,138.16L195.18,137.54L195.80,137.53zM201.13,138.65L200.50,138.71L200.77,137.89zM205.73,138.83L205.66,139.39L204.97,139.39L204.97,138.71L205.36,138.46zM209.95,138.81L209.94,139.45L209.17,139.38L209.19,138.90L209.51,138.63L209.76,138.61zM196.12,139.39L195.17,139.45L195.17,138.83L196.18,138.84zM180.77,174.63L180.75,175.06L180.38,175.02L180.38,174.24z"/></a></g></g></svg>
