<?xml version="1.0" encoding="UTF-8" standalone="no"?>
<svg xmlns="http://www.w3.org/2000/svg" xmlns:xlink="http://www.w3.org/1999/xlink" width="297.000mm" height="210.000mm" viewBox="0.000000 0.000000 297.000000 210.000000" stroke-linejoin="round" stroke-linecap="round" fill="none" fill-rule="evenodd"><desc>Composer Export</desc><script type="text/ecmascript"><![CDATA[
if(typeof(top) != "undefined")
{
	top.ShowPaper = ShowPaper;
}
function ShowHotSpot(evt,hotspotid)
{
	var svgDocument = evt.target.ownerDocument;
	var strId = "hotspot."+hotspotid;
	var hotspot = svgDocument.getElementById(strId);
	if(hotspot)
		hotspot.setAttribute("opacity",".5");
}
function HideHotSpot(evt,hotspotid)
{
	var svgDocument = evt.target.ownerDocument;
	var strId = "hotspot."+hotspotid;
	var hotspot = svgDocument.getElementById(strId);
	if(hotspot)
		hotspot.setAttribute("opacity","0");

	var toolTip = svgDocument.getElementById('ToolTip');
	if(toolTip)
		toolTip.setAttribute("visibility","hidden");
}
function ShowToolTip(evt,hotspotid,strTooltip)
{
	if(strTooltip=="")
	return;

	// change text
	var svgDocument = evt.target.ownerDocument;
	var tiptext = svgDocument.getElementById('ToolTipText');
	if( !tiptext )
	return;
	tiptext.firstChild.nodeValue = " " + strTooltip + "  " ;

	// show tooltip before, else some refresh issue

	var toolTip = svgDocument.getElementById('ToolTip');
	if(!toolTip)
	return;

	toolTip.setAttribute("visibility","visible");
	toolTip.setAttribute("opacity",".95");

	// move tooltip
	// get viewbox

	var root = svgDocument.documentElement;
	var vbox = (root.getAttribute("viewBox")).split(' ');
	var x0 = parseFloat(vbox[0]);
	var y0 = parseFloat(vbox[1]);
	var vboxW = parseFloat(vbox[2]);
	var vboxH = parseFloat(vbox[3]);

	// get default width of svg

	var strW = root.getAttribute("width");
	var svgW = parseFloat(strW);
	if(strW.indexOf('mm') != -1)
	svgW *= 3.779;

	var strH = root.getAttribute("height");
	var svgH = parseFloat(strH);
	if(strH.indexOf('mm') != -1)
	svgH *= 3.779;  	// 96 dpi  -> 96/25.4 = 3.779

	// update the viewbox / width / height if svg is embedded in html with zoom fit all
	var realx0 = x0;
	var realy0 = y0;
	var realvboxW = vboxW;
	var realvboxH = vboxH;
	var realsvgW = svgW;
	var realsvgH = svgH;

	if ((typeof(top) == "undefined") || (typeof(top.svgctl1) != "undefined")) // embedded in html
	{
		// get window size in pxl

		svgW = window.innerWidth;
		svgH = window.innerHeight;

		// calculate real viewbox

		realsvgW = svgW;
		realsvgH = svgH;
		if((svgW / svgH) > (vboxW / vboxH))
		{
			realvboxW = (vboxH * svgW) / svgH;
			realvboxH = vboxH;
			realx0 = x0 - (realvboxW - vboxW)/2 ;
		}
		else
		{
			realvboxH = (vboxW * svgH) / svgW;
			realvboxW = vboxW;
			realy0 = y0 - (realvboxH - vboxH)/2 ;
		}
	}

	// get user zoom/pan

	var newScale = root.currentScale;
	var translation = root.currentTranslate;

	// transform pxl to user unit

	var xPos = (((evt.clientX+10- translation.x)/newScale) * realvboxW)/realsvgW  + realx0 ;
	var yPos = (((evt.clientY+5- translation.y)/newScale) * realvboxH)/ realsvgH  + realy0 ;
	var scaleForWidth = ( (1 / newScale) * realvboxH) / realsvgH;

	// move tooltip

	toolTip.setAttribute("transform", "translate(" + xPos + "," + yPos + ")" );

	// resize tooltip

	var fontsize = 12;
	tiptext.setAttribute("font-size",fontsize*scaleForWidth);
	tiptext.setAttribute("y", fontsize*scaleForWidth);
	var tipBG = svgDocument.getElementById('ToolTipBG');
	var outline = tiptext.getBBox();
	if(tipBG)
	{
		tipBG.setAttribute("stroke-width", 1*scaleForWidth);
		tipBG.setAttribute("width", Number(outline.width) );
		tipBG.setAttribute("height", Number(outline.height) + fontsize*.5*scaleForWidth );
	}
	var ToolTipShadow = svgDocument.getElementById('ToolTipShadow');
	if(ToolTipShadow)
	{
		ToolTipShadow.setAttribute("width", Number(outline.width) );
		ToolTipShadow.setAttribute("height", Number(outline.height) + fontsize*.5*scaleForWidth );
		ToolTipShadow.setAttribute("x", 3*scaleForWidth);
		ToolTipShadow.setAttribute("y", 3*scaleForWidth);
	}
}
function ShowPaper()
{
  var svgDocument = getDocument();
  var paper = svgDocument.getElementById("paperID");
  if(paper)
  {
    paper.setAttribute("transform","scale(1)");
    paper.setAttribute("opacity","1");
    paper.setAttribute("visibility","visible");
  }
  var svg = svgDocument.getRootElement();
  if(svg)
  {
    svg.setAttribute("width","307.000mm");
    svg.setAttribute("height","220.000mm");
    svg.setAttribute("viewBox","-5.000000 -5.000000 307.000000 220.000000");
  }
}
]]></script><defs/><g><path style="fill:#000000;fill-opacity:0.098;fill-rule:evenodd" d="M82.37,55.12L84.19,56.05L85.49,57.32L86.40,58.62L87.32,61.00L87.69,64.32L87.50,66.94L86.94,69.87L85.60,73.85L83.40,78.26L80.82,81.92L79.81,83.11L77.14,85.58L75.22,86.97L72.76,88.36L70.96,88.95L69.45,89.27L67.30,89.27L65.83,88.91L64.02,87.97L61.44,86.32L60.35,85.03L59.39,83.21L59.35,82.84L59.58,82.82L59.98,83.20L61.46,83.99L61.06,81.56L61.06,77.95L61.39,75.70L61.60,75.55L62.52,72.07L64.00,68.59L66.01,65.10L68.06,62.37L69.16,61.08L71.28,58.99L73.86,57.15L77.76,55.18L78.81,54.95L81.44,54.95zM80.89,57.15L82.01,57.86L83.08,59.17L84.56,61.92L84.94,64.87L84.68,68.03L85.13,68.33L85.17,69.21L84.99,69.94L84.87,70.04L84.92,70.44L84.99,69.94L85.17,69.21L85.66,67.49L85.84,66.20L85.84,61.92L85.39,59.91L85.83,60.09L86.21,60.82L86.76,63.21L86.76,66.75L86.40,69.14L85.65,71.70L84.38,75.02L82.54,78.31L80.15,81.62L78.33,83.47L76.50,85.13L73.86,86.89L71.52,87.86L70.00,88.17L67.67,88.17L66.86,87.99L69.69,87.68L71.83,86.88L74.30,85.50L75.86,84.30L75.99,84.07L76.51,83.85L77.21,83.01L77.00,83.01L75.99,84.07L75.68,84.12L74.75,84.84L71.89,86.39L71.17,86.52L70.97,86.15L69.45,86.34L67.12,86.34L65.47,85.79L64.20,84.85L63.29,83.74L62.53,82.12L62.16,80.83L61.98,79.54L61.98,77.03L62.53,74.09L63.81,70.24L65.59,66.69L67.69,63.65L69.71,61.26L71.16,59.96L72.99,58.49L74.40,57.70L76.42,56.96L77.34,56.78L79.60,56.78zM25.82,24.11L28.42,25.18L29.69,26.29L30.77,27.60L31.69,29.81L31.94,31.02L30.89,30.89L30.96,35.55L30.78,36.65L29.99,39.72L28.39,43.81L26.55,46.92L24.35,49.87L22.81,51.44L21.51,52.54L19.52,54.03L16.96,55.32L14.93,55.86L11.98,55.86L12.04,56.22L12.78,56.61L15.79,56.72L15.71,56.83L12.23,56.79L10.42,56.03L8.03,54.20L7.10,52.74L6.35,50.92L5.96,48.67L6.38,48.86L6.72,50.92L7.31,52.40L7.48,52.43L7.10,50.54L7.05,49.27L7.26,49.12L7.46,46.30L7.65,48.71L8.19,51.10L8.93,52.56L10.23,54.02L11.50,54.76L12.60,55.14L15.30,55.14L17.56,54.46L19.50,53.46L21.70,51.81L23.73,49.98L25.95,47.06L27.84,43.99L29.44,40.08L30.03,37.93L30.41,36.10L30.41,31.82L30.03,30.17L29.84,29.63L29.29,29.24L29.31,30.05L28.89,30.06L27.84,27.60L26.58,26.10L25.09,25.58L23.19,25.58L22.27,25.76L20.50,26.37L19.64,26.62L20.26,26.13L22.46,25.21L23.93,24.84L26.02,24.66L25.64,24.28L25.01,24.14L25.06,23.93zM19.50,26.87L19.13,26.86L19.30,26.67L19.64,26.62zM32.06,31.90L31.94,31.02L32.06,31.09zM54.45,41.18L55.56,41.91L56.68,42.99L57.76,45.04L58.31,47.24L58.31,51.52L57.75,54.27L56.65,57.57L55.50,60.08L53.30,63.58L51.83,65.41L50.34,67.04L49.05,68.14L47.06,69.64L44.49,70.92L42.47,71.47L39.95,71.47L38.30,70.91L34.46,68.70L33.18,67.23L32.60,66.15L32.54,65.59L32.78,65.56L34.66,66.70L35.00,66.77L34.63,64.68L34.63,61.25L35.18,58.12L36.46,54.27L37.31,52.54L39.42,48.96L40.80,47.23L42.26,45.57L43.62,44.36L45.04,43.20L46.51,42.29L48.34,41.36L50.17,40.81L53.17,40.81zM15.79,56.72L15.86,56.61L16.47,56.59zM84.92,70.44L84.87,70.04L84.99,69.94zM110.82,73.50L112.46,74.59L113.58,75.85L114.11,76.79L115.03,79.73L115.03,83.82L114.85,85.11L114.11,88.05L112.64,91.72L110.62,95.20L108.42,98.14L106.60,99.99L104.12,101.92L101.26,103.46L99.37,103.96L96.48,103.96L94.84,103.41L91.18,101.19L89.90,99.71L89.06,97.91L91.36,99.21L91.72,99.20L91.35,97.35L91.35,93.37L91.71,91.15L92.63,88.22L94.05,84.87L96.23,81.36L97.52,79.72L98.98,78.06L100.16,77.03L101.99,75.56L104.20,74.28L105.61,73.67L107.08,73.30L109.71,73.30zM78.93,81.30L78.69,81.64L78.69,81.24L78.89,81.20zM162.94,83.03L165.69,83.95L167.71,85.24L169.38,86.87L170.64,88.54L171.93,90.93L173.03,94.41L173.59,98.08L173.59,103.10L173.34,105.26L172.85,105.27L163.12,99.73L161.47,99.19L159.03,99.19L157.92,99.38L157.41,99.36L157.38,99.19L159.03,98.82L161.10,98.82L162.02,99.01L162.57,99.02L158.17,96.62L157.07,96.24L155.96,96.07L153.89,96.07L151.37,96.67L147.83,98.45L146.36,99.55L145.51,99.54L142.75,97.88L142.51,97.88L141.66,98.34L140.67,99.91L140.51,101.03L140.90,101.40L144.41,103.27L144.53,102.68L144.96,102.37L145.42,101.37L146.21,100.69L146.38,100.28L146.78,100.25L147.14,100.48L147.34,101.02L147.34,101.82L146.72,103.21L145.45,103.98L144.57,103.78L142.93,102.83L142.68,102.83L141.85,103.85L139.56,106.91L139.28,106.90L137.06,105.59L136.63,105.59L135.88,106.14L135.22,107.14L134.81,108.35L135.05,108.90L138.72,110.99L138.84,110.39L139.27,110.08L139.73,109.07L140.68,108.00L141.29,107.97L141.65,108.54L141.65,109.53L141.28,110.45L140.13,111.50L139.07,111.49L137.78,110.73L137.38,110.74L137.23,110.98L135.52,115.35L135.04,115.36L133.39,114.41L132.77,114.41L132.20,114.76L131.17,116.31L131.12,117.60L134.51,119.56L134.84,119.64L135.04,119.01L135.34,119.02L135.87,117.89L136.85,116.97L136.81,116.62L137.24,116.59L137.60,116.82L137.81,117.16L137.80,118.53L137.43,119.26L136.28,120.31L135.40,120.30L134.67,119.91L134.48,120.53L134.32,124.21L131.92,122.85L131.67,122.85L130.83,123.30L129.89,124.75L129.90,126.17L133.58,128.24L133.70,127.64L134.13,127.34L134.59,126.33L135.39,125.66L135.54,125.25L136.15,125.23L136.51,125.79L136.51,126.78L135.94,128.06L135.95,128.54L138.89,130.21L139.63,130.46L139.26,128.37L139.06,125.69L139.24,123.08L139.41,122.84L139.63,122.85L139.43,125.69L139.63,128.37L139.80,129.48L140.13,130.62L150.27,136.48L150.65,136.51L150.66,136.09L150.44,135.54L150.27,134.24L150.27,129.71L150.63,127.32L151.69,123.60L152.97,120.48L154.70,117.25L157.08,113.76L159.39,111.12L161.65,109.16L164.22,107.32L166.56,106.17L168.21,105.61L170.41,105.24L171.20,105.24L173.60,105.62L174.88,106.35L174.13,106.34L173.22,106.16L168.94,106.35L166.37,107.08L163.62,108.55L161.21,110.36L160.02,111.37L158.65,112.94L156.80,115.14L154.31,119.06L152.66,122.74L151.68,125.62L151.01,129.16L151.01,133.69L151.18,134.99L151.57,136.07L151.93,136.44L152.29,137.55L153.96,138.52L153.58,136.63L153.39,134.98L153.39,132.83L153.58,130.80L154.49,130.84L155.18,127.65L156.33,124.20L158.66,119.56L161.48,115.59L164.14,112.74L166.92,110.57L169.49,109.10L171.60,108.25L171.49,107.45L174.12,107.07L175.79,107.27L176.53,107.29L176.87,107.64L177.44,107.81L178.54,108.55L179.85,109.81L181.11,112.03L181.67,113.68L182.03,116.26L182.03,119.25L181.48,122.92L180.19,127.14L178.91,129.90L177.07,133.20L174.32,136.87L172.68,138.54L171.03,140.01L168.58,141.78L164.78,143.67L162.15,144.16L160.55,144.16L158.71,143.80L155.79,142.31L155.05,141.77L153.39,140.83L152.97,140.83L149.11,143.42L145.07,145.44L142.88,146.18L140.67,146.73L138.83,146.91L136.51,146.91L134.29,146.56L132.65,145.99L127.90,143.40L119.08,138.27L117.25,136.62L115.58,134.25L114.27,131.49L114.23,131.11L114.46,131.10L123.13,136.06L124.97,137.04L124.21,132.96L124.02,130.94L124.02,127.14L124.33,123.78L125.30,118.87L126.96,113.56L129.29,108.18L131.94,103.30L135.05,98.71L137.44,95.77L139.28,93.75L142.69,90.37L145.26,88.36L148.93,85.97L151.37,84.74L154.25,83.58L157.37,82.85L162.02,82.85zM76.51,83.85L75.99,84.07L77.00,83.01L77.21,83.01zM204.06,123.23L205.52,123.97L206.83,125.04L208.28,127.45L209.01,129.66L209.38,132.60L209.01,137.06L208.09,140.73L206.57,144.52L204.24,148.80L201.80,152.05L200.40,153.59L197.66,156.17L195.00,157.92L192.68,159.08L190.05,159.76L187.35,159.76L185.88,159.40L184.41,158.66L183.15,157.72L181.86,156.07L181.28,154.81L181.28,154.05L180.93,152.60L180.74,151.32L180.74,147.70L181.29,144.21L182.39,140.54L184.05,136.87L185.72,133.96L187.65,131.29L190.03,128.54L192.98,125.98L195.61,124.39L197.21,123.60L199.96,122.87L202.77,122.86zM230.13,138.28L232.32,139.39L233.79,140.85L235.27,143.78L235.81,146.36L235.81,150.64L235.08,154.68L234.47,156.46L233.18,159.76L230.86,164.04L228.10,167.71L225.82,170.02L223.44,172.04L220.52,173.71L218.14,174.64L216.11,174.99L214.15,174.99L213.04,174.82L211.24,174.06L209.76,172.96L208.85,171.85L208.09,170.59L207.72,169.50L207.54,168.57L207.36,166.74L207.36,164.96L207.67,161.78L208.64,157.79L210.24,153.70L212.24,150.01L214.26,147.08L216.10,144.87L218.50,142.51L221.49,140.36L224.06,139.07L225.85,138.47L228.04,138.10zM256.74,157.19L257.86,157.90L258.95,159.01L259.86,160.31L260.78,163.25L260.78,167.53L260.59,168.81L259.68,172.31L258.02,176.15L256.01,179.46L253.43,182.58L252.17,183.70L250.05,185.44L247.19,186.98L244.56,187.66L242.79,187.66L240.76,187.12L237.11,184.89L236.19,184.16L235.25,182.71L234.85,181.58L235.06,181.58L237.49,182.94L237.27,182.16L237.10,180.87L237.10,177.26L237.64,174.12L238.75,170.83L240.59,167.16L242.70,163.96L245.28,161.21L246.64,160.00L248.24,158.84L251.04,157.43L252.27,157.00L253.56,156.82L255.27,156.82zM285.56,173.71L286.86,174.79L287.94,176.10L288.87,178.29L289.23,180.69L289.23,182.95L288.68,186.25L287.33,190.23L285.68,193.53L283.72,196.53L281.70,198.92L279.15,201.13L277.30,202.40L274.49,203.64L273.57,203.81L270.50,203.82L269.41,203.44L265.20,201.05L263.89,199.41L263.32,198.30L263.28,197.93L263.51,197.91L265.76,199.09L265.54,197.95L265.36,196.10L265.36,194.51L265.73,191.57L266.78,187.84L268.04,185.07L269.51,182.50L271.07,180.21L273.64,177.46L274.91,176.34L277.06,174.81L278.77,173.95L280.35,173.34L281.28,173.16L283.90,173.16zM53.18,41.54L53.93,42.63L54.65,44.11L57.38,45.79L57.57,46.32L57.94,48.34L57.94,50.78L57.58,53.35L56.47,57.02L55.19,59.78L53.35,62.89L51.33,65.47L49.88,66.95L47.29,68.95L44.12,70.56L42.46,70.92L40.50,70.92L39.03,70.56L37.39,69.62L36.28,68.17L35.54,66.70L35.18,65.04L35.18,60.15L36.03,56.41L37.57,52.80L39.69,49.24L41.26,47.31L43.09,45.29L45.46,43.44L47.79,42.10L50.36,41.36L52.81,41.35zM110.28,74.56L111.55,76.78L114.10,78.27L114.29,78.81L114.66,81.01L114.66,83.09L114.12,86.58L113.19,89.51L111.54,93.00L109.52,96.12L108.18,97.72L106.88,99.17L104.59,101.10L101.26,102.91L99.37,103.41L97.04,103.41L95.57,103.04L94.12,102.11L93.21,101.00L92.63,100.11L92.08,98.46L91.90,97.72L91.72,96.25L91.72,94.29L92.03,91.66L93.00,88.23L94.29,85.29L96.32,81.82L97.98,79.80L99.90,77.68L103.09,75.38L105.62,74.23L107.08,73.85L109.35,73.84zM159.82,92.36L159.62,92.99L158.82,93.66L158.36,94.66L157.93,94.97L157.79,95.59L157.46,95.52L154.30,93.69L153.91,93.32L154.06,92.20L154.79,91.09L155.53,90.36L156.34,90.36zM165.49,93.48L165.31,94.09L164.51,94.76L163.86,96.09L163.68,96.07L163.49,96.69L163.12,96.64L160.54,95.13L160.53,94.65L160.74,94.11L160.75,93.30L160.37,92.74L160.36,92.28L161.21,91.46L162.03,91.47zM149.90,93.32L150.11,93.67L150.10,94.10L149.54,95.39L148.76,96.08L147.89,96.06L147.70,95.88L147.69,94.46L148.45,93.38L149.19,92.95zM154.70,94.22L154.30,94.22L154.25,94.02L154.50,94.02zM169.35,97.90L169.17,98.07L169.18,98.49L168.36,99.16L167.70,100.53L167.35,100.47L167.18,101.07L163.68,99.17L163.49,99.00L163.48,97.95L163.76,97.34L164.72,97.36L165.72,96.70L166.02,96.24L166.42,96.22zM173.39,111.68L173.78,112.39L174.70,112.94L175.24,114.97L175.24,118.52L174.69,121.64L173.77,124.39L172.30,127.51L170.10,131.00L168.26,133.20L166.44,134.87L164.35,136.45L161.78,137.74L159.76,138.28L157.92,138.34L157.04,136.63L157.00,136.27L159.21,135.34L161.95,133.68L164.52,131.29L166.97,128.24L169.00,124.94L170.65,121.09L171.38,118.33L171.75,116.13L171.75,112.59L171.50,111.13L172.12,110.92zM171.38,112.95L171.38,116.13L171.20,117.60L170.65,119.99L169.49,123.05L167.84,126.35L165.25,130.01L164.23,131.19L162.59,132.67L159.82,134.67L157.38,135.73L156.84,135.78L156.51,134.43L156.51,130.82L156.83,128.74L157.80,125.31L159.47,121.66L161.49,118.54L162.96,116.70L164.35,115.15L166.98,113.01L169.31,111.67L171.03,111.13zM177.25,113.88L177.63,114.59L178.57,115.13L179.10,115.70L179.46,117.36L179.38,121.42L179.63,121.78L179.65,122.37L178.72,125.85L177.44,128.98L175.73,132.04L173.06,135.61L170.67,137.81L168.21,139.57L165.64,140.69L161.47,140.67L160.37,140.30L159.10,139.56L158.47,138.82L161.05,138.48L163.59,137.34L165.99,135.70L168.19,133.68L169.30,132.41L171.01,130.26L173.04,126.78L174.69,122.74L175.42,119.80L175.60,118.33L175.60,114.61L175.20,112.73zM131.75,118.27L131.36,118.27L131.31,118.07L131.55,118.07zM203.15,123.95L204.42,124.52L205.72,125.60L206.83,127.06L208.28,130.02L208.66,133.15L208.46,136.14L208.09,138.16L207.31,141.04L205.65,145.07L203.50,148.80L201.30,151.74L198.57,154.51L196.08,156.43L192.86,158.17L190.23,158.84L187.90,158.84L186.24,158.48L184.43,157.36L183.13,155.91L182.02,153.71L181.66,152.24L181.48,150.77L181.48,147.52L181.84,144.76L182.94,140.91L184.42,137.43L186.46,133.96L188.65,131.02L191.12,128.35L194.27,125.99L196.66,124.70L198.86,123.96L199.96,123.78L202.22,123.78zM137.04,132.04L136.86,132.49L136.15,133.03L135.39,134.47L134.99,134.62L134.87,135.21L131.19,133.14L131.17,131.91L131.93,130.65L132.96,129.82L133.20,129.82zM140.90,136.44L140.52,137.04L139.73,137.71L139.27,138.72L138.84,139.03L138.72,139.62L135.05,137.54L134.81,136.99L135.17,135.89L135.90,135.92L136.90,135.43L137.62,134.60zM146.42,137.51L146.22,138.14L145.42,138.81L144.96,139.82L144.53,140.13L144.39,140.75L144.06,140.67L141.45,139.19L141.44,138.71L141.65,138.16L141.66,137.16L141.43,136.83L141.19,136.45L142.13,135.52L142.94,135.52zM229.58,139.38L230.86,139.94L231.97,140.84L233.06,142.14L234.34,144.71L235.08,147.83L235.08,151.74L234.71,153.94L233.56,157.75L232.26,160.68L230.48,163.85L227.74,167.53L225.92,169.38L223.14,171.56L220.70,172.97L217.95,173.90L214.33,173.90L212.69,173.34L210.86,172.23L209.56,170.59L208.63,168.40L208.28,166.55L208.28,162.02L208.82,159.08L209.74,155.96L211.40,152.29L213.34,149.09L215.45,146.25L217.84,143.68L220.89,141.41L224.06,139.80L226.21,139.20L228.65,139.20zM255.46,157.54L256.00,158.11L257.11,160.30L259.87,161.96L260.41,164.53L260.41,166.79L260.22,168.44L259.49,171.57L258.33,174.44L256.92,177.26L254.53,180.74L252.17,183.15L250.15,184.80L247.68,186.19L245.49,186.93L242.23,186.94L240.79,186.35L239.31,185.08L238.19,183.26L237.64,181.24L237.65,176.16L238.37,173.02L239.67,169.73L240.97,167.18L242.53,164.89L244.09,162.96L246.40,160.68L248.78,159.02L251.18,157.93L252.46,157.56L254.52,157.36zM283.91,173.89L284.63,174.82L285.57,176.64L288.32,178.28L288.68,180.14L288.68,183.86L288.31,186.07L287.20,189.55L286.11,191.94L284.64,194.51L282.80,197.08L280.43,199.48L278.21,201.30L275.41,202.72L273.38,203.26L271.06,203.26L270.13,203.09L268.68,202.33L267.20,200.70L266.46,199.23L266.09,197.95L265.92,196.84L265.92,193.23L266.46,190.28L267.57,186.99L269.04,184.05L270.70,181.31L272.72,178.93L274.67,177.01L277.60,174.99L279.81,174.08L281.28,173.71L283.36,173.71z"/><g id="Actor_4.0"><g style="stroke:#000000;stroke-width:0.176"><path d="M55.07,41.55L53.98,41.03L52.78,40.73L51.48,40.67L50.10,40.84L48.67,41.24L47.21,41.87L45.86,42.65L45.73,42.72L44.27,43.77L42.84,45.00L41.47,46.41L40.17,47.96L38.96,49.64L37.87,51.42L36.91,53.26L36.10,55.15L35.44,57.06L34.95,58.95L34.64,60.80L34.50,62.58L34.55,64.26L34.77,65.82L35.18,67.23L35.75,68.48L36.49,69.53L37.38,70.39L38.40,71.02"/><path d="M53.04,41.44L53.24,41.47L54.36,41.90L55.35,42.55L56.20,43.42L56.89,44.49L57.42,45.74L57.78,47.15L57.97,48.71L57.97,50.39L57.78,52.15L57.42,53.98L56.89,55.85L56.20,57.71L55.35,59.56L54.36,61.35L53.24,63.05L52.02,64.65L50.71,66.12L49.34,67.42L47.92,68.55L46.47,69.48L45.03,70.21L43.61,70.71L42.23,70.98L40.92,71.02L39.70,70.82L38.59,70.39L37.60,69.74L37.14,69.27"/></g><g style="stroke:#000000;stroke-width:0.529"><path d="M32.41,65.65L32.01,64.24L31.78,62.68L31.74,61.00L31.87,59.22L32.19,57.37L32.68,55.48L33.34,53.57L34.15,51.68L35.11,49.83L36.20,48.06L37.40,46.38L38.70,44.82L40.08,43.42L41.51,42.18L42.97,41.13L44.45,40.29L45.91,39.66L47.34,39.25L48.71,39.08L50.01,39.14L51.22,39.44L52.31,39.97L55.07,41.55L56.03,42.30L56.84,43.26L57.50,44.41L57.99,45.74L58.31,47.23L58.44,48.85L58.40,50.58L58.17,52.40L58.15,52.50L57.77,54.28L57.19,56.18L56.46,58.08L55.57,59.95L54.54,61.77L53.39,63.50L52.14,65.12L50.80,66.60L49.39,67.92L47.94,69.07L46.47,70.02L45.00,70.76L43.55,71.27L42.15,71.56L40.81,71.62L39.55,71.44L38.40,71.02L35.64,69.44L34.61,68.80L33.72,67.95L33.63,67.81L32.99,66.89L32.41,65.65"/><path d="M36.03,67.76L35.52,66.55L35.16,65.13L34.98,63.57L34.98,61.90L35.16,60.13L35.52,58.30L36.05,56.44L36.75,54.57L37.60,52.73L38.59,50.94L39.70,49.23L40.92,47.63L42.23,46.17L43.61,44.86L45.03,43.74L46.47,42.80L47.92,42.08L49.34,41.58L50.71,41.31L52.02,41.27L53.04,41.44L53.43,41.83L54.13,42.90L54.66,44.15L55.02,45.57L55.20,47.13L55.20,48.80L55.02,50.57L54.66,52.40L54.13,54.26L53.43,56.13L52.58,57.97L51.59,59.76L50.48,61.47L49.26,63.07L47.95,64.53L46.57,65.84L45.15,66.97L43.71,67.90L42.26,68.62L40.84,69.12L39.47,69.39L38.16,69.43L37.14,69.27L36.75,68.87L36.05,67.80L36.03,67.76"/></g></g><g id="Actor_7.0"><g style="stroke:#000000;stroke-width:0.176"><path d="M135.95,125.17L135.52,125.16L135.04,125.36L134.56,125.74L134.14,126.26L133.82,126.87L133.64,127.50L133.62,127.97L133.61,128.07L133.74,128.54L134.02,128.84"/><path d="M135.10,128.72L134.70,128.80L134.37,128.71L134.13,128.45L134.02,128.05L134.04,127.55L134.20,127.01L134.47,126.49L134.83,126.04L135.24,125.71L135.66,125.54L136.03,125.54L136.32,125.72L136.50,126.06L136.55,126.51"/></g><g style="stroke:#000000;stroke-width:0.529"><path d="M131.88,122.83L135.95,125.17L136.29,125.38L136.49,125.77L136.55,126.29L136.55,126.51L136.46,127.04L136.24,127.58L135.91,128.07L135.52,128.47L135.10,128.72L134.87,128.85L134.41,128.95L134.02,128.84L129.84,126.44"/></g></g><g id="Actor_7.1"><g style="stroke:#000000;stroke-width:0.176"><path d="M135.35,135.84L135.08,135.53L134.94,135.07L134.97,134.49L135.15,133.87L135.38,133.44L135.47,133.26L135.89,132.74L136.37,132.36L136.85,132.16L137.28,132.16"/><path d="M137.88,133.51L137.83,133.05L137.66,132.72L137.36,132.54L136.99,132.53L136.58,132.71L136.17,133.03L135.80,133.48L135.53,134.01L135.37,134.55L135.35,135.04L135.46,135.44L135.70,135.71L136.04,135.80L136.44,135.72"/></g><g style="stroke:#000000;stroke-width:0.529"><path d="M133.07,134.53L131.17,133.44"/><path d="M133.93,135.02L135.35,135.84L135.74,135.95L136.21,135.85L136.44,135.72L136.86,135.46L137.25,135.07L137.57,134.57L137.79,134.04L137.88,133.51L137.88,133.29L137.83,132.76L137.62,132.37L137.28,132.16L133.21,129.82"/></g></g><g id="Actor_5.0"><g style="stroke:#000000;stroke-width:0.176"><path d="M208.12,163.45L208.11,163.55"/><path d="M209.26,170.08L209.21,169.97"/><path d="M210.83,172.19L210.79,172.15"/><path d="M212.94,173.44L212.90,173.42"/><path d="M216.36,173.71L216.49,173.70"/><path d="M220.59,141.58L220.66,141.52"/><path d="M222.63,170.99L222.69,170.95"/><path d="M226.79,139.15L226.89,139.14"/><path d="M229.48,139.38L229.52,139.39"/><path d="M231.66,140.53L231.68,140.54"/><path d="M234.56,150.12L234.56,150.05"/><path d="M233.68,143.32L233.74,143.43"/></g><g style="stroke:#000000;stroke-width:0.529"><path d="M207.28,168.44L207.30,168.51L207.63,169.58L208.05,170.56L208.56,171.46L209.24,172.39L209.90,173.09L210.63,173.69L211.58,174.26L212.45,174.64L213.36,174.89L214.33,175.04L214.50,175.06L215.51,175.08L216.56,174.99L217.64,174.78L218.75,174.46L218.89,174.41L220.00,173.98L221.13,173.44L222.26,172.79L223.39,172.04L224.51,171.19L225.61,170.25L226.68,169.22L227.72,168.12L228.73,166.94L229.69,165.70L230.60,164.40L231.45,163.05L232.24,161.66L232.97,160.24L233.62,158.79L234.20,157.33L234.70,155.87L235.12,154.42L235.45,152.97L235.69,151.55L235.85,150.17L235.92,148.82L235.90,147.52L235.78,146.28L235.58,145.11L235.55,144.96L235.26,143.86L234.89,142.83L234.42,141.89L233.88,141.04L233.78,140.90L233.16,140.15L232.46,139.50L231.69,138.96L231.54,138.88L230.71,138.45L229.82,138.13L228.87,137.93L227.72,137.82L226.68,137.86L225.62,138.01L224.52,138.27L223.27,138.70L222.15,139.19L221.02,139.78L219.89,140.48L218.77,141.28L217.66,142.18L216.57,143.16L215.51,144.23L214.49,145.37L213.50,146.58L212.57,147.85L211.69,149.18L210.86,150.55L210.10,151.96L209.41,153.39L208.80,154.84L208.26,156.30L207.80,157.76L207.42,159.22L207.14,160.65L206.93,162.05L206.82,163.42L206.80,164.74L206.87,166.01L207.02,167.22L207.28,168.44"/><path d="M208.37,167.34L208.54,168.14L208.86,169.15L209.21,169.97L209.66,170.78L210.21,171.53L210.79,172.15L211.39,172.63L212.14,173.09L212.90,173.42L213.64,173.63L214.55,173.76L215.50,173.78L216.36,173.71L217.35,173.52L218.40,173.21L219.46,172.80L220.54,172.28L221.61,171.67L222.62,170.99L223.67,170.20L224.73,169.29L225.76,168.31L226.76,167.25L227.72,166.12L228.65,164.92L229.52,163.67L230.34,162.38L231.10,161.04L231.79,159.69L232.42,158.29L232.98,156.89L233.46,155.49L233.86,154.09L234.18,152.70L234.41,151.34L234.56,150.05L234.62,148.83L234.60,147.60L234.49,146.42L234.30,145.30L234.03,144.25L233.68,143.32L233.30,142.54L232.79,141.74L232.21,141.04L231.66,140.53L230.96,140.04L230.19,139.63L229.48,139.38L228.63,139.20L227.70,139.12L226.79,139.15L225.88,139.28L224.84,139.53L223.79,139.89L222.72,140.35L221.64,140.92L220.59,141.58L219.58,142.29L218.52,143.15L217.47,144.10L216.45,145.12L215.47,146.22L214.53,147.38L213.63,148.60L212.78,149.88L211.99,151.19L211.26,152.54L210.60,153.92L210.01,155.31L209.49,156.72L209.05,158.12L208.69,159.51L208.41,160.89L208.22,162.24L208.12,163.45L208.10,164.70L208.16,165.91L208.31,167.06L208.37,167.34"/></g></g><g id="Actor_7.2"><g style="stroke:#000000;stroke-width:0.176"><path d="M144.83,141.38L144.55,141.07L144.42,140.61L144.44,140.03L144.63,139.41L144.94,138.80L145.37,138.28L145.84,137.90L146.32,137.70L146.75,137.70"/><path d="M147.35,139.05L147.31,138.60L147.13,138.26L146.84,138.08L146.46,138.07L146.05,138.25L145.64,138.57L145.28,139.02L145.00,139.55L144.84,140.09L144.82,140.58L144.94,140.99L145.17,141.25L145.51,141.34L145.91,141.26"/></g><g style="stroke:#000000;stroke-width:0.529"><path d="M142.69,135.36L146.75,137.70L147.09,137.91L147.30,138.30L147.35,138.83L147.35,139.05L147.26,139.58L147.04,140.11L146.72,140.61L146.33,141.00L145.91,141.26L145.68,141.39L145.22,141.49L144.83,141.38L141.17,139.28"/></g></g><g id="Actor_3.0"><g style="stroke:#000000;stroke-width:0.176"><path d="M65.11,88.60L64.04,87.90L63.12,86.98L62.35,85.87L62.04,85.21L61.74,84.56L61.29,83.09L61.03,81.47L60.94,79.72L61.04,77.87L61.31,75.94L61.76,73.96L62.38,71.95L63.16,69.95L64.10,67.98L64.63,67.02L65.16,66.06L66.36,64.22L67.66,62.49L69.05,60.89L70.51,59.44L71.27,58.80L72.02,58.16L73.57,57.08L75.12,56.19L76.66,55.52L78.17,55.07L78.90,54.97L79.63,54.86L81.02,54.88L82.31,55.13L83.50,55.61"/><path d="M87.56,66.44L87.65,64.60L87.57,62.87L87.30,61.26L86.87,59.79L86.26,58.50L85.49,57.39L84.58,56.48L83.52,55.78L82.34,55.31L81.06,55.06L79.68,55.04L78.24,55.25L76.74,55.70L75.20,56.36L73.66,57.24L72.13,58.32L70.63,59.59L69.88,60.33L69.18,61.03L67.80,62.61L66.51,64.33L65.32,66.16L64.26,68.06L63.34,70.02L62.56,72.01L61.95,74.00L61.50,75.96L61.23,77.88L61.13,79.72L61.22,81.45L61.48,83.06L61.92,84.52L62.53,85.82L63.29,86.93L64.21,87.84L65.26,88.53L66.44,89.01L67.73,89.26L69.10,89.28L70.55,89.06L72.05,88.62L73.58,87.95L75.12,87.08"/><path d="M62.24,86.95L62.22,86.94"/><path d="M66.70,87.98L67.95,88.19L69.32,88.17L70.75,87.91L72.24,87.42L73.75,86.70L75.27,85.77L76.77,84.64L78.22,83.32L79.62,81.84L80.94,80.21L82.16,78.47L83.26,76.63L84.22,74.72L85.04,72.77L85.70,70.81L86.19,68.86L86.50,66.97L86.63,65.14L86.57,63.41L86.34,61.81L85.93,60.36L85.34,59.08L84.59,57.98L83.80,57.21L83.90,57.28L84.81,58.16L85.56,59.26L86.14,60.54L86.55,61.99L86.79,63.58L86.84,65.30L86.71,67.12L86.40,69.02L85.92,70.95L85.26,72.91L84.44,74.85L83.48,76.76L82.39,78.59L81.17,80.33L79.86,81.96L78.46,83.43L77.01,84.75L75.51,85.88L74.00,86.81L72.49,87.52L71.01,88.01L69.58,88.27L68.22,88.29L66.94,88.08L65.78,87.63L64.74,86.96L63.83,86.07L63.08,84.98L62.50,83.70L62.09,82.25L61.85,80.65L61.80,78.93L61.93,77.11L61.96,76.92"/><path d="M61.91,77.66L61.87,78.22L61.92,79.85L62.14,81.36L62.53,82.73L63.08,83.94L63.79,84.98L64.65,85.82L65.63,86.46L66.74,86.88L67.94,87.08L69.23,87.06L70.59,86.82L71.99,86.35L73.42,85.68L74.85,84.80L76.26,83.73L77.64,82.49L78.96,81.09L80.20,79.55L81.35,77.90L82.39,76.16L83.30,74.36L84.07,72.52L84.70,70.67L84.74,70.49L85.16,68.84L85.45,67.05L85.57,65.32L85.56,65.07L85.52,63.69L85.30,62.18L84.91,60.81L84.36,59.60L83.65,58.56L82.79,57.72L81.81,57.09L80.70,56.66L79.49,56.46L79.07,56.47L78.20,56.48L76.85,56.73L75.45,57.19L74.02,57.87L72.70,58.68L73.13,58.36L74.64,57.43L76.15,56.71L77.63,56.22L79.06,55.97L80.42,55.94L81.70,56.16L82.86,56.60L83.80,57.21"/><path d="M61.90,79.31L61.90,78.93"/><path d="M81.44,57.46L81.96,57.75L82.84,58.53L83.58,59.51L84.16,60.67L84.58,62.00L84.84,63.47L84.91,65.07L84.82,66.76L84.58,68.32L84.55,68.53L84.11,70.34L83.51,72.18L82.80,73.89L82.75,74.00L81.86,75.79L80.83,77.51L79.70,79.14L78.46,80.66L77.15,82.04L75.79,83.27L74.39,84.31L72.97,85.16L71.56,85.81L71.39,85.86L70.17,86.24L68.84,86.45L67.58,86.44L66.40,86.20L65.33,85.73L65.07,85.55"/><path d="M66.68,86.18L67.91,86.31"/><path d="M72.70,58.68L72.53,58.81"/><path d="M73.43,58.23L73.29,58.32"/><path d="M79.65,80.35L79.91,80.01L79.71,80.28"/><path d="M79.91,80.01L80.55,79.16L80.44,79.31"/><path d="M80.05,79.82L80.16,79.67"/><path d="M82.95,58.84L82.71,58.58"/><path d="M87.57,66.34L87.56,66.37"/></g><g style="stroke:#000000;stroke-width:0.529"><path d="M58.96,81.65L58.81,80.96L58.63,79.27L58.63,77.47L58.82,75.57L59.18,73.62L59.72,71.62L60.42,69.61L61.28,67.62L62.28,65.67L63.41,63.79L64.66,62.00L66.01,60.33L67.44,58.81L68.93,57.44L70.46,56.26L72.01,55.27L73.56,54.49L75.09,53.93L76.58,53.60L78.00,53.50L79.34,53.63L80.59,54.00L81.71,54.59L82.24,54.92L83.50,55.61L84.56,56.31L85.49,57.23L86.26,58.35L86.87,59.65L87.31,61.12L87.58,62.74L87.66,64.49L87.56,66.44L87.29,68.35L86.84,70.32L86.22,72.31L85.45,74.30L84.52,76.26L83.46,78.16L82.28,79.98L81.65,80.86L80.99,81.70L79.61,83.29L78.16,84.73L76.66,86.00L75.12,87.08L75.04,87.14L73.48,88.02L71.94,88.69L70.43,89.14L68.97,89.35L67.59,89.34L66.29,89.09L65.11,88.60L62.77,87.23L62.22,86.94L61.23,86.13L60.38,85.11L59.69,83.90L59.16,82.51L58.96,81.65"/><path d="M62.24,81.18L62.06,80.45L61.90,78.93L61.91,77.66L61.96,76.92L62.24,75.22L62.72,73.28L63.38,71.32L64.20,69.38L65.16,67.48L66.26,65.62L67.47,63.90L68.78,62.28L70.18,60.80L71.63,59.48L72.53,58.81L73.29,58.32L74.54,57.66L75.93,57.12L77.30,56.80L78.60,56.70L79.82,56.83L80.95,57.18L81.44,57.46L82.13,57.96L82.72,58.59L83.24,59.89L83.60,61.36L83.77,62.97L83.76,64.69L83.57,66.51L83.20,68.38L82.65,70.29L81.94,72.21L81.08,74.10L80.07,75.94L79.44,76.92L78.94,77.70L78.33,78.54L77.70,79.35L76.36,80.87L74.96,82.24L73.51,83.42L72.07,84.40L70.55,85.21L69.09,85.77L67.66,86.11L66.68,86.18L65.57,85.83L65.07,85.55L64.38,85.06L63.57,84.18L62.91,83.10L62.40,81.86L62.24,81.18"/></g></g><g id="Actor_4.1"><g style="stroke:#000000;stroke-width:0.176"><path d="M257.53,157.68L256.44,157.15L255.23,156.85L253.94,156.79L252.56,156.96L251.13,157.37L249.67,158.00L248.63,158.59L248.19,158.84L246.73,159.89L245.30,161.13L243.92,162.53L242.62,164.09L241.42,165.77L240.33,167.54L239.37,169.39L238.56,171.28L237.90,173.19L237.41,175.08L237.09,176.93L236.96,178.71L237.00,180.39L237.23,181.95L237.63,183.36L238.21,184.60L238.95,185.66L239.83,186.51L240.86,187.15"/><path d="M255.50,157.56L255.70,157.59L256.81,158.02L257.80,158.67L258.65,159.54L259.35,160.61L259.88,161.86L260.24,163.28L260.42,164.84L260.42,166.51L260.24,168.28L259.88,170.11L259.42,171.72L259.35,171.97L258.65,173.84L257.80,175.68L256.81,177.47L255.70,179.18L254.48,180.78L253.17,182.24L252.23,183.13L251.79,183.55L250.37,184.68L248.93,185.61L247.49,186.33L246.07,186.83L244.69,187.10L243.38,187.14L242.16,186.94L241.05,186.51L240.06,185.86L239.59,185.39"/></g><g style="stroke:#000000;stroke-width:0.529"><path d="M234.76,181.39L234.47,180.36L234.24,178.80L234.19,177.12L234.33,175.34L234.65,173.49L235.11,171.72L235.14,171.60L235.79,169.69L236.61,167.80L237.57,165.96L238.66,164.18L239.86,162.50L241.16,160.95L242.53,159.54L243.97,158.31L245.43,157.26L246.90,156.41L248.37,155.78L249.80,155.38L251.17,155.21L252.47,155.27L253.67,155.57L254.76,156.09L257.53,157.68L258.49,158.42L259.30,159.38L259.96,160.53L260.45,161.86L260.76,163.35L260.90,164.97L260.86,166.71L260.63,168.53L260.23,170.40L259.65,172.30L258.91,174.20L258.02,176.08L257.00,177.89L255.85,179.62L254.60,181.24L253.26,182.72L251.85,184.05L250.40,185.19L248.93,186.14L247.46,186.88L246.01,187.40L244.60,187.69L243.26,187.74L242.01,187.56L240.86,187.15L238.10,185.56L237.07,184.93L236.18,184.07L235.44,183.02L234.87,181.77L234.76,181.39"/><path d="M237.97,182.66L238.51,183.92L239.21,184.99L239.59,185.39L240.62,185.56L241.93,185.52L243.30,185.25L244.72,184.75L246.17,184.02L247.61,183.09L249.03,181.96L250.41,180.65L251.14,179.83L251.71,179.19L252.93,177.59L254.05,175.89L255.04,174.10L255.89,172.25L256.59,170.39L257.12,168.52L257.48,166.69L257.66,164.93L257.66,163.25L257.48,161.69L257.12,160.28L256.59,159.03L255.89,157.96L255.50,157.56L254.48,157.39L253.17,157.43L251.79,157.70L250.37,158.20L248.93,158.93L247.49,159.86L246.07,160.99L244.69,162.30L243.38,163.76L242.16,165.36L241.05,167.06L240.06,168.85L239.24,170.63L239.21,170.70L238.51,172.56L237.98,174.43L237.62,176.26L237.44,178.02L237.44,179.70L237.62,181.26L237.97,182.66"/></g></g><g id="Actor_6.0"><g style="stroke:#000000;stroke-width:0.176"><path d="M204.95,123.61L203.73,123.10L202.39,122.81L200.97,122.76L199.47,122.94L197.91,123.36L196.31,124.00L194.70,124.85L193.10,125.92L191.51,127.17L189.97,128.61L189.56,129.06L188.50,130.21L187.10,131.94L185.81,133.80L184.63,135.75L183.58,137.76L182.67,139.83L181.92,141.91L181.34,143.99L180.92,146.03L180.68,148.01L180.63,149.91L180.75,151.70L181.05,153.36L181.53,154.87L181.74,155.31L182.17,156.21L182.98,157.36L183.94,158.31L185.04,159.05"/><path d="M204.26,124.44L204.36,124.48L205.43,125.18L206.36,126.09L207.14,127.19L207.77,128.49L208.23,129.95L208.52,131.55L208.63,133.29L208.56,135.13L208.32,137.05L207.90,139.03L207.31,141.03L206.57,143.04L205.67,145.03L204.63,146.97L203.47,148.84L202.20,150.61L200.83,152.26L199.39,153.76L197.89,155.11L196.35,156.27L194.80,157.24L193.24,158.00L191.72,158.54L190.23,158.87L188.80,158.96L187.46,158.82L186.21,158.45L185.08,157.86L185.02,157.82"/></g><g style="stroke:#000000;stroke-width:0.529"><path d="M181.21,154.69L180.74,153.18L180.44,151.52L180.31,149.73L180.37,147.83L180.61,145.85L181.02,143.81L181.61,141.73L182.36,139.65L183.27,137.58L184.31,135.57L185.49,133.62L186.79,131.76L188.18,130.03L189.66,128.43L191.20,127.00L192.78,125.74L194.39,124.67L196.00,123.82L197.59,123.18L199.15,122.76L200.65,122.58L202.08,122.63L203.41,122.92L204.64,123.43L204.95,123.61L206.05,124.35L207.01,125.30L207.81,126.45L208.46,127.79L208.94,129.30L209.24,130.96L209.36,132.75L209.31,134.65L209.07,136.63L208.65,138.68L208.07,140.75L207.32,142.84L206.41,144.90L205.36,146.92L204.18,148.87L202.89,150.72L201.49,152.46L200.01,154.05L198.48,155.49L196.89,156.75L195.29,157.81L193.67,158.67L192.08,159.31L190.52,159.72L189.02,159.90L187.60,159.85L186.26,159.57L185.04,159.05L184.73,158.87L183.63,158.13L182.67,157.18L181.86,156.03L181.21,154.69"/><path d="M182.35,154.48L182.22,154.18L181.97,153.47L181.59,151.93L181.39,150.26L181.37,148.47L181.53,146.58L181.86,144.63L182.36,142.64L182.87,141.09L183.03,140.62L183.85,138.62L184.82,136.65L185.92,134.75L187.14,132.93L188.46,131.21L189.87,129.63L191.34,128.21L192.86,126.95L194.41,125.88L195.97,125.02L197.51,124.36L199.02,123.93L200.48,123.72L201.87,123.75L203.17,124.00L204.26,124.44L205.11,125.00L206.05,125.91L206.83,127.01L207.46,128.31L207.92,129.77L208.20,131.37L208.32,133.11L208.25,134.95L208.00,136.87L207.59,138.85L207.00,140.85L206.25,142.86L205.36,144.85L204.32,146.79L203.16,148.66L201.89,150.43L200.52,152.08L199.08,153.58L197.58,154.93L196.04,156.09L194.48,157.06L192.93,157.82L191.40,158.37L189.91,158.69L188.49,158.78L187.14,158.64L185.90,158.27L185.02,157.82L184.08,157.06L183.22,156.05L182.51,154.85L182.35,154.48"/></g></g><g id="Actor_4.2"><g style="stroke:#000000;stroke-width:0.176"><path d="M95.10,103.54L94.07,102.91L93.18,102.05L92.45,101.00L91.87,99.75L91.47,98.34L91.24,96.78L91.20,95.10L91.33,93.32L91.65,91.47L92.14,89.58L92.80,87.67L93.61,85.78L94.57,83.94L95.66,82.16L96.86,80.48L98.16,78.93L99.54,77.52L100.97,76.29L102.43,75.24L102.64,75.12L103.91,74.39L105.37,73.76L106.80,73.36L108.17,73.19L109.47,73.25L110.68,73.55L111.77,74.07"/><path d="M93.83,101.78L94.29,102.26L95.28,102.91L96.40,103.34L97.62,103.54L98.93,103.50L100.30,103.23L101.72,102.73L103.17,102.00L104.61,101.07L106.03,99.94L107.01,99.02L107.41,98.63L108.72,97.17L109.94,95.57L111.05,93.87L112.04,92.08L112.89,90.23L113.59,88.37L114.12,86.50L114.48,84.67L114.66,82.91L114.66,81.23L114.48,79.67L114.12,78.26L113.59,77.01L112.89,75.94L112.04,75.07L111.05,74.42L109.94,73.99L109.74,73.95"/></g><g style="stroke:#000000;stroke-width:0.529"><path d="M88.48,95.21L88.70,96.76L89.11,98.17L89.68,99.41L90.42,100.47L91.31,101.32L92.34,101.96L95.10,103.54L96.25,103.96L97.50,104.14L98.84,104.08L100.25,103.79L101.70,103.28L103.17,102.54L104.64,101.59L106.09,100.44L107.49,99.12L108.83,97.64L110.09,96.02L111.24,94.29L112.26,92.47L113.15,90.60L113.89,88.70L114.46,86.79L114.87,84.92L115.09,83.10L115.14,81.37L115.00,79.75L114.69,78.26L114.20,76.93L113.54,75.78L112.73,74.82L111.77,74.07L109.00,72.49L107.91,71.96L106.71,71.66L105.41,71.60L104.04,71.77L102.60,72.18L101.14,72.81L99.67,73.65L98.20,74.70L96.77,75.94L95.40,77.34L94.10,78.90L92.90,80.57L91.81,82.35L90.85,84.20L90.03,86.09L89.37,88.00L88.88,89.89L88.57,91.74L88.43,93.52L88.44,93.71"/><path d="M91.69,96.25L91.86,97.65L92.22,99.07L92.75,100.32L93.44,101.39L93.83,101.78L94.86,101.95L96.16,101.91L97.54,101.64L98.96,101.14L100.40,100.42L101.85,99.49L103.27,98.36L104.64,97.05L105.95,95.59L107.17,93.99L108.29,92.28L109.28,90.49L110.13,88.65L110.82,86.78L111.36,84.92L111.72,83.09L111.90,81.32L111.90,79.65L111.72,78.09L111.36,76.67L110.82,75.42L110.13,74.35L109.74,73.95L108.72,73.79L107.41,73.83L106.03,74.10L104.61,74.60L103.17,75.32L101.72,76.25L100.30,77.38L98.93,78.69L97.62,80.15L96.40,81.75L95.28,83.46L94.29,85.25L93.44,87.09L92.75,88.96L92.22,90.82L91.86,92.65L91.67,94.42L91.67,96.09L91.69,96.25"/></g></g><g id="Actor_1.0"><g style="stroke:#000000;stroke-width:0.176"><path d="M130.34,144.72L130.13,144.59L128.80,143.44L127.62,142.10L126.59,140.55L125.72,138.82L125.02,136.92L124.49,134.86L124.13,132.65L123.95,130.32L123.95,127.87L124.13,125.33L124.49,122.71L125.02,120.04L125.72,117.33L126.59,114.60L127.62,111.88L128.45,109.97L128.80,109.17L130.13,106.51L131.59,103.91L133.18,101.38L134.87,98.95L136.67,96.64L138.56,94.46L139.27,93.72L140.52,92.42L142.54,90.55L144.60,88.85L146.69,87.34L148.80,86.02L150.91,84.92L153.01,84.02L155.07,83.36L157.09,82.91L158.34,82.78L159.05,82.70L160.93,82.72L162.73,82.97L164.43,83.45L166.02,84.16"/><path d="M132.79,123.35L132.78,123.28L132.49,122.93L132.07,122.80L131.56,122.88L131.30,123.01L131.00,123.22L130.53,123.68L130.11,124.29L129.82,124.98L129.69,125.65L129.74,126.23L129.95,126.67L130.31,126.92L130.71,126.94"/><path d="M134.13,130.35L134.11,130.28L133.82,129.93L133.40,129.79L132.90,129.88L132.63,130.01L132.33,130.21L131.86,130.67L131.45,131.29L131.15,131.97L131.02,132.64L131.07,133.23L131.28,133.67L131.64,133.92L132.04,133.94"/><path d="M134.13,114.83L134.11,114.76L133.82,114.41L133.40,114.27L132.90,114.36L132.63,114.49L132.37,114.66L131.86,115.15L131.45,115.77L131.15,116.45L131.02,117.12L131.07,117.71L131.28,118.15L131.64,118.40L132.04,118.42"/><path d="M131.18,145.25L131.59,145.51"/><path d="M135.21,135.76L134.95,136.38L134.82,137.04L134.86,137.63L135.08,138.07L135.44,138.32L135.83,138.34"/><path d="M135.83,109.66L135.44,109.64L135.08,109.39L134.86,108.95L134.82,108.37L134.95,107.70L135.24,107.01L135.66,106.40L136.16,105.91L136.43,105.73L136.69,105.60L137.19,105.52L137.61,105.65L137.90,106.00L137.92,106.07"/><path d="M137.65,134.38L137.90,134.68L137.92,134.75"/><path d="M138.77,132.80L143.30,135.41L142.21,134.63L141.27,133.63L140.48,132.42L139.85,131.04L139.40,129.48L139.13,127.77L139.04,125.94L139.13,123.99L139.40,121.97L139.85,119.90L140.48,117.79L141.27,115.68L142.21,113.60L143.30,111.57L144.52,109.61L145.85,107.75L147.28,106.02L148.79,104.43L150.36,103.00L151.96,101.76L153.59,100.72L155.22,99.89L156.83,99.29L158.40,98.91L159.91,98.77L161.34,98.87L162.67,99.20L163.89,99.76L159.55,97.27"/><path d="M143.30,135.41L144.52,135.98L145.02,136.10L143.62,135.29L142.54,134.52L141.61,133.53L140.83,132.34L140.21,130.97L139.77,129.43L139.50,127.75L139.41,125.94L139.50,124.02L139.77,122.02L140.21,119.97L140.83,117.89L141.61,115.81L142.54,113.76L143.04,112.82L143.62,111.75L144.82,109.81L146.13,107.98L147.54,106.27L149.03,104.70L150.58,103.29L152.17,102.07L153.78,101.04L155.39,100.22L156.98,99.63L158.53,99.25L160.01,99.11L161.43,99.21L162.74,99.53L163.94,100.09L173.32,105.47"/><path d="M141.51,102.01L141.11,101.99L140.76,101.74L140.54,101.30L140.50,100.71L140.63,100.04L140.92,99.36L141.34,98.74L141.81,98.29L142.10,98.08L142.37,97.95L142.87,97.86L143.29,98.00L143.58,98.35L143.60,98.42"/><path d="M141.08,139.43L141.11,139.46L141.51,139.48"/><path d="M143.60,135.89L143.58,135.82L143.29,135.47L142.87,135.33L142.37,135.42L142.10,135.55L141.84,135.72L141.34,136.21L141.09,136.58"/><path d="M145.02,136.10L153.11,140.74"/><path d="M148.38,96.21L148.80,96.05L149.22,95.73L149.59,95.29L149.88,94.76L150.05,94.21L150.09,93.70L149.98,93.28L149.75,93.00L149.42,92.89L149.02,92.96L148.80,93.07L148.59,93.21L148.19,93.60L147.85,94.09L147.83,94.16L147.62,94.64L147.52,95.17L147.55,95.64L147.72,96.00L148.01,96.19L148.38,96.21"/><path d="M154.30,141.42L153.23,140.65L152.30,139.66L151.52,138.47L150.90,137.10L150.45,135.56L150.18,133.88L150.09,132.07L150.18,130.16L150.33,129.06L150.45,128.15L150.90,126.10L151.52,124.02L152.30,121.94L153.23,119.89L154.30,117.88L155.50,115.94L156.82,114.11L158.23,112.40L159.72,110.83L161.27,109.42L162.86,108.20L164.47,107.17L166.07,106.35L167.66,105.75L169.21,105.38L170.70,105.24L172.11,105.34L173.43,105.66L174.63,106.22"/><path d="M151.74,136.72L151.50,136.14L151.10,134.62L150.88,132.97L150.84,131.19L150.97,129.31L151.28,127.37L151.76,125.38L152.41,123.37L153.21,121.36L154.16,119.39L155.25,117.47L156.45,115.64L157.76,113.91L158.86,112.66L159.16,112.32L160.62,110.87L162.14,109.59L163.69,108.50L165.24,107.60L166.79,106.92L168.31,106.46L169.77,106.23L171.16,106.22L170.74,106.26L169.19,106.63L167.60,107.23L165.99,108.05L164.39,109.08L162.80,110.30L162.69,110.39L161.25,111.71L159.76,113.27L158.35,114.99L157.03,116.82L155.83,118.75L155.00,120.31L154.76,120.76L153.83,122.82L153.05,124.90L152.43,126.98L151.98,129.03L151.71,131.03L151.62,132.94L151.71,134.75L151.98,136.44L152.43,137.98L152.62,138.40L152.06,137.50L151.74,136.72"/><path d="M152.62,138.40L153.05,139.35L153.83,140.54L154.76,141.52L155.17,141.83"/><path d="M157.53,143.27L156.45,142.50L155.52,141.51L154.74,140.32L154.12,138.95L153.68,137.41L153.41,135.73L153.32,133.91L153.41,132.00L153.68,130.00L154.12,127.95L154.74,125.87L155.52,123.79L156.45,121.73L157.53,119.73L158.73,117.79L160.04,115.96L161.45,114.25L162.94,112.68L164.49,111.27L166.08,110.05L167.69,109.02L169.30,108.20L170.89,107.60L172.44,107.23L173.93,107.09L175.34,107.19L176.65,107.51L177.85,108.07"/><path d="M154.91,94.32L154.51,94.30L154.16,94.06L153.94,93.62L153.90,93.03L154.03,92.36L154.31,91.68L154.74,91.06L155.24,90.57L155.50,90.39L155.77,90.27L156.27,90.18L156.69,90.32L156.98,90.66L157.00,90.74"/><path d="M168.15,142.05L166.59,142.84L165.06,143.42L163.56,143.78L162.11,143.92L160.75,143.83L159.48,143.51L158.31,142.97L157.27,142.22L156.37,141.27L155.62,140.12L155.02,138.79L154.59,137.30L154.33,135.67L154.24,133.91L154.33,132.06L154.58,130.16L155.02,128.14L155.62,126.13L156.37,124.12L157.24,122.21L158.31,120.18L159.48,118.31L160.75,116.53L162.11,114.88L163.56,113.36L165.06,112.00L166.59,110.81L168.15,109.82L169.71,109.03L171.25,108.45L172.75,108.09L174.19,107.95L175.55,108.04L176.82,108.36L177.99,108.90L179.03,109.65L179.93,110.60L180.68,111.75L181.28,113.08L181.71,114.57L181.97,116.20L182.06,117.96"/><path d="M171.43,111.03L171.69,112.26L171.83,113.89L171.78,115.62L171.56,117.44L171.16,119.31L170.58,121.21L169.84,123.12L168.95,124.99L167.93,126.80L166.78,128.53L165.52,130.16L164.19,131.64L162.78,132.96L161.33,134.10L159.86,135.05L158.39,135.79L156.95,136.31L157.28,137.20L157.91,138.32L157.95,138.36L158.14,138.39L159.46,138.35L160.84,138.08L162.27,137.57L163.73,136.85L165.18,135.91L166.62,134.77L168.00,133.45L169.32,131.98L170.55,130.36L171.68,128.64L172.67,126.84L173.53,124.98L174.23,123.10L174.77,121.22L175.13,119.38L175.31,117.60L175.31,117.03L175.31,115.91L175.13,114.34L174.77,112.91L174.23,111.65L173.72,110.87L173.46,110.83L172.16,110.88L171.01,111.12L171.26,112.12L171.44,113.69L171.44,115.38L171.26,117.16L170.90,119.00L170.36,120.88L169.66,122.76L168.80,124.62L167.81,126.42L166.68,128.15L165.45,129.76L164.13,131.23L162.75,132.55L161.31,133.69L159.86,134.63L158.40,135.36L156.97,135.86L156.80,135.90L156.50,134.47L156.37,132.96L156.36,133.12L156.50,134.71L156.81,136.18L157.29,137.49L157.94,138.62L158.74,139.57L159.68,140.30L160.76,140.82L161.94,141.11L163.22,141.17L164.58,141.00L165.98,140.61L167.42,139.99L168.88,139.15L170.32,138.12L171.73,136.90L173.08,135.52L174.36,133.99L175.54,132.34L176.62,130.59L177.56,128.77L178.36,126.91L179.01,125.03L179.49,123.17L179.80,121.35L179.94,119.60L179.89,117.94L179.67,116.40L179.27,115.02L178.71,113.79L177.98,112.75L177.11,111.91L176.10,111.28L174.96,110.88L173.73,110.70L172.41,110.75L171.03,111.04L169.60,111.55L168.15,112.27L168.04,112.34L169.39,111.67L170.80,111.16L171.01,111.12"/><path d="M156.80,135.90L156.95,136.31"/><path d="M156.37,132.96L156.41,131.41L156.63,129.62L157.03,127.77L157.59,125.90L158.33,124.01L159.20,122.18L160.21,120.40L161.34,118.69L162.57,117.10L163.89,115.64L165.27,114.34L166.70,113.21L168.04,112.34"/><path d="M157.95,138.36L158.37,138.86L159.40,138.82L160.81,138.53L162.26,138.01L163.73,137.27L165.20,136.32L166.65,135.18L168.06,133.85L169.39,132.37L170.65,130.75L171.80,129.02L172.82,127.21L173.71,125.34L174.45,123.43L174.73,122.50L175.02,121.53L175.43,119.66L175.65,117.84L175.70,116.11L175.56,114.48L175.25,112.99L174.76,111.66L174.36,110.96L174.67,111.01L175.79,111.41L176.78,112.02L177.64,112.85L177.76,113.01L178.36,113.87L178.92,115.08L179.31,116.45L179.53,117.96L179.57,119.59L179.44,121.31L179.13,123.11L178.66,124.94L178.45,125.53L178.02,126.79L177.23,128.62L176.30,130.41L175.24,132.13L174.08,133.76L172.82,135.26L171.49,136.63L170.85,137.18L170.10,137.82L168.68,138.84L167.25,139.66L165.83,140.27L164.45,140.66L163.70,140.76L163.11,140.83L161.86,140.77L160.69,140.48L159.63,139.97L158.70,139.25L158.37,138.86"/><path d="M157.58,137.74L158.35,137.72L159.74,137.45L161.17,136.94L162.62,136.21L164.08,135.27L165.51,134.13L166.90,132.82L168.22,131.34L169.45,129.73L170.57,128.01L171.57,126.21L172.42,124.35L173.13,122.47L173.66,120.59L174.03,118.74L174.21,116.96L174.21,115.27L174.03,113.70L173.66,112.28L173.13,111.01L173.02,110.85"/><path d="M159.11,139.56L159.67,139.78L160.90,139.98L162.22,139.94L163.61,139.67L165.04,139.16L166.49,138.43L167.95,137.49L169.38,136.35L170.77,135.04L172.08,133.56L173.32,131.95L174.44,130.23L175.44,128.43L176.29,126.57L176.99,124.69L177.53,122.81L177.90,120.96L178.08,119.18L178.08,117.47L177.90,115.92L177.53,114.50L177.00,113.23L176.29,112.16L175.44,111.28"/><path d="M160.15,95.41L160.19,95.44L160.59,95.46"/><path d="M160.17,92.56L160.41,92.20L160.92,91.71L161.18,91.53L161.45,91.41L161.95,91.32L162.37,91.45L162.66,91.80L162.68,91.88"/><path d="M163.62,99.61L163.41,99.16L163.37,98.57L163.50,97.90L163.76,97.28"/><path d="M163.89,99.76L164.01,99.84L164.38,99.86"/><path d="M164.01,99.84L164.98,100.54L165.26,100.84"/><path d="M166.20,95.90L166.45,96.20L166.47,96.28"/><path d="M171.16,106.22L172.23,106.12L173.64,106.22L174.96,106.54L175.29,106.69"/><path d="M173.72,110.87L174.36,110.96"/></g><g style="stroke:#000000;stroke-width:0.529"><path d="M114.51,132.07L113.96,130.58L113.43,128.52L113.07,126.31L112.90,123.97L112.90,121.53L113.07,118.99L113.43,116.37L113.95,113.75L114.67,110.99L115.54,108.26L116.57,105.54L117.75,102.83L119.08,100.17L120.54,97.56L122.12,95.04L123.82,92.61L125.62,90.30L127.50,88.12L129.46,86.08L131.48,84.20L133.54,82.51L135.64,80.99L137.75,79.68L138.67,79.20L139.86,78.57L141.95,77.68L144.02,77.01L146.04,76.57L147.99,76.36L149.88,76.38L151.68,76.63L153.37,77.11L154.96,77.82L166.02,84.16L167.48,85.09L168.80,86.23L169.15,86.63L169.99,87.58L171.02,89.12L171.89,90.85L172.59,92.76L173.12,94.82L173.48,97.03L173.66,99.36L173.66,101.81L173.48,104.35L173.32,105.47L174.63,106.22L175.29,106.69L176.16,107.10L177.85,108.07L178.93,108.84L179.86,109.83L180.64,111.02L181.26,112.39L181.70,113.93L181.97,115.61L182.06,117.43L182.06,117.96L181.97,119.81L181.71,121.74L181.28,123.73L180.68,125.74L179.93,127.75L179.03,129.74L177.98,131.70L176.82,133.56L175.80,134.99L175.55,135.34L174.19,136.99L172.75,138.51L171.25,139.87L169.71,141.06L168.15,142.05L167.69,142.32L166.08,143.14L164.49,143.74L162.94,144.11L161.45,144.25L160.04,144.15L158.73,143.83L157.53,143.27L155.83,142.30L155.17,141.83L154.30,141.42L153.11,140.74L150.91,142.34L148.80,143.65L146.69,144.76L144.60,145.65L142.54,146.32L140.52,146.76L138.56,146.97L136.67,146.95L134.87,146.70L133.18,146.22L131.59,145.51L131.18,145.28"/><path d="M130.32,144.78L120.54,139.17L119.08,138.25L117.75,137.10L116.57,135.75L115.54,134.21L114.91,132.97"/></g></g><g id="Actor_7.3"><g style="stroke:#000000;stroke-width:0.176"><path d="M139.15,140.24L138.87,139.94L138.74,139.47L138.76,138.89L138.95,138.27L139.19,137.81L139.27,137.66L139.69,137.14L140.16,136.76L140.64,136.56L141.08,136.57"/><path d="M140.23,140.12L139.83,140.20L139.49,140.11L139.26,139.85L139.14,139.45L139.17,138.95L139.32,138.41L139.60,137.89L139.96,137.44L140.37,137.11L140.79,136.94L140.86,136.94L141.16,136.94L141.45,137.12L141.63,137.46L141.68,137.91"/></g><g style="stroke:#000000;stroke-width:0.529"><path d="M137.58,134.55L141.08,136.57L141.41,136.77L141.62,137.16L141.67,137.69L141.68,137.91L141.58,138.44L141.36,138.98L141.04,139.47L140.65,139.86L140.23,140.12L140.00,140.25L139.54,140.35L139.15,140.24L134.96,137.84"/></g></g><g id="Actor_4.3"><g style="stroke:#000000;stroke-width:0.176"><path d="M269.21,203.41L268.18,202.77L267.74,202.34L267.30,201.92L266.56,200.86L265.98,199.62L265.58,198.21L265.35,196.65L265.31,194.97L265.44,193.19L265.76,191.34L266.25,189.45L266.91,187.54L267.72,185.65L268.68,183.80L269.77,182.03L270.89,180.47L270.97,180.35L272.27,178.80L273.65,177.39L275.08,176.15L276.54,175.10L278.02,174.26L278.83,173.91L279.48,173.63L280.91,173.22L282.29,173.05L283.58,173.12L284.79,173.41L285.88,173.94"/><path d="M283.85,173.82L284.05,173.85L285.16,174.28L286.15,174.94L287.00,175.80L287.70,176.87L288.23,178.12L288.59,179.54L288.77,181.10L288.77,182.77L288.59,184.54L288.23,186.37L288.04,187.03L287.70,188.23L287.00,190.10L286.15,191.94L285.16,193.73L284.05,195.44L282.83,197.04L281.52,198.50L280.93,199.06L280.14,199.81L278.72,200.94L277.28,201.87L275.84,202.59L274.42,203.09L273.04,203.36L271.73,203.40L270.51,203.20L269.40,202.78L268.41,202.12L267.94,201.65"/></g><g style="stroke:#000000;stroke-width:0.529"><path d="M263.15,197.79L262.82,196.62L262.59,195.06L262.54,193.38L262.68,191.60L263.00,189.75L263.49,187.86L264.14,185.96L264.96,184.06L265.92,182.22L267.01,180.44L268.21,178.76L269.51,177.21L270.88,175.80L272.31,174.57L273.78,173.52L275.25,172.67L276.72,172.04L277.86,171.72L278.15,171.64L279.52,171.47L280.82,171.53L282.02,171.83L283.11,172.35L285.88,173.94L286.84,174.69L287.65,175.64L288.31,176.79L288.80,178.12L289.11,179.61L289.25,181.23L289.21,182.97L288.98,184.79L288.58,186.66L288.00,188.56L287.26,190.47L286.37,192.34L285.35,194.15L284.20,195.88L282.95,197.50L281.61,198.98L280.20,200.31L278.75,201.45L277.28,202.40L275.81,203.14L274.36,203.66L272.95,203.95L271.61,204.00L270.36,203.82L269.21,203.41L266.45,201.82L265.42,201.19L264.53,200.33L263.79,199.28L263.22,198.03L263.15,197.79"/><path d="M266.43,199.17L266.33,198.93L265.97,197.52L265.79,195.96L265.79,194.28L265.97,192.52L266.33,190.69L266.86,188.83L267.56,186.96L268.41,185.11L268.56,184.84L269.40,183.33L270.51,181.62L271.73,180.02L273.04,178.56L274.07,177.58L274.42,177.25L275.84,176.12L277.28,175.19L278.72,174.46L280.14,173.96L281.52,173.69L282.83,173.66L283.85,173.82L284.24,174.22L284.94,175.29L285.47,176.54L285.83,177.95L286.01,179.51L286.01,181.19L285.83,182.95L285.47,184.78L284.94,186.65L284.24,188.51L283.39,190.36L282.40,192.15L281.28,193.85L280.06,195.45L278.75,196.92L277.38,198.22L275.96,199.35L274.52,200.28L273.07,201.01L271.65,201.51L270.28,201.78L268.97,201.82L267.94,201.65L267.56,201.25L266.86,200.19L266.43,199.17"/></g></g><g id="Actor_2.0"><g style="stroke:#000000;stroke-width:0.176"><path d="M6.39,49.22L6.34,48.90L6.26,47.28L6.34,45.56L6.60,43.75L7.02,41.93L7.59,40.06L8.32,38.20L9.18,36.36L10.18,34.58L10.92,33.44L11.29,32.87L12.50,31.26L13.79,29.77L14.26,29.31L15.15,28.43L16.55,27.24L17.99,26.23L19.43,25.40L20.87,24.78L22.27,24.37L23.63,24.17L24.92,24.18L25.82,24.35L24.51,24.33L23.13,24.54L21.70,24.96L20.24,25.60L18.77,26.43L17.47,27.35L17.31,27.46L15.88,28.67L14.50,30.04L13.18,31.56L11.95,33.20L10.82,34.93L9.81,36.75L8.93,38.62L8.19,40.51L7.60,42.41L7.18,44.29L6.92,46.11L6.83,47.86L6.91,49.51L7.16,51.05L7.58,52.44L8.16,53.68L8.89,54.73L8.28,54.03L7.56,52.99L6.99,51.78L6.58,50.41L6.39,49.22"/><path d="M6.12,49.79L5.98,48.97L5.88,47.28L5.97,45.47L6.24,43.59L6.69,41.66L7.31,39.70L8.09,37.75L9.02,35.83L10.09,33.97L11.29,32.21L12.58,30.55L13.96,29.04L15.40,27.69L16.90,26.51L18.41,25.54L19.87,24.80L19.27,25.01L17.82,25.75L16.37,26.69L14.93,27.82L13.54,29.12L12.21,30.58L10.97,32.17L9.82,33.87L8.79,35.65L7.89,37.50L7.14,39.38L6.55,41.26L6.12,43.12L5.86,44.93L5.77,46.66L5.86,48.30L5.98,48.96"/><path d="M8.11,52.50L8.50,53.39L8.10,52.48L7.78,51.50L7.55,50.44L7.41,49.30L7.53,50.31"/><path d="M7.55,50.44L7.76,51.41"/><path d="M7.41,49.30L7.35,48.12L7.40,49.22"/><path d="M20.96,25.96L21.97,25.59L23.33,25.30L24.63,25.23L25.85,25.38L26.98,25.75L27.98,26.34L28.87,27.13L29.60,28.12L30.19,29.29L30.62,30.62L30.88,32.09L30.96,33.69L30.88,35.39L30.63,37.16L30.20,38.98L29.62,40.82L28.89,42.65L28.01,44.46L27.00,46.20L25.88,47.86L24.66,49.42L23.37,50.84L22.01,52.12L20.61,53.22L19.18,54.14L17.76,54.86L16.36,55.37L15.00,55.66L13.70,55.73L12.48,55.58L11.35,55.21L10.34,54.62L9.46,53.83L8.73,52.84L8.14,51.67L7.71,50.34L7.53,49.31L7.55,49.62L7.82,51.16L8.27,52.55L8.88,53.77L9.25,54.27L9.92,54.87L10.95,55.47L12.11,55.85L13.36,56.01L14.69,55.94L16.09,55.64L17.53,55.12L18.99,54.38L20.44,53.44L21.88,52.30L23.28,51.00L24.61,49.54L25.86,47.94L27.01,46.24L28.04,44.45L28.94,42.60L29.69,40.71L30.29,38.83L30.72,36.96L30.99,35.14L31.07,33.40L30.98,31.76L30.72,30.25L30.28,28.89L29.68,27.69L28.92,26.68L28.02,25.86L26.98,25.26L26.08,24.96L25.52,24.89L24.16,24.97L22.73,25.27L21.27,25.80L19.78,26.56L18.29,27.52L18.22,27.57"/><path d="M7.53,49.31L7.46,47.95L7.54,46.17L7.58,45.92"/><path d="M7.35,48.12L7.38,47.03L7.35,48.11"/><path d="M7.38,47.03L7.39,46.87L7.44,46.23L7.51,45.58L7.73,44.25L7.63,44.84"/><path d="M8.74,53.78L8.62,53.59L8.98,54.20L9.54,54.91L8.98,54.20L8.74,53.78"/><path d="M8.50,53.39L8.62,53.59"/><path d="M8.10,52.48L7.78,51.50"/><path d="M7.73,44.25L8.03,42.91L8.41,41.56L8.10,42.66"/><path d="M8.42,41.55L8.74,40.62L8.41,41.56"/><path d="M9.54,54.91L9.83,55.19L9.54,54.91"/><path d="M26.08,24.96L26.80,25.05L27.97,25.44L29.03,26.05L29.95,26.88L30.72,27.92L31.33,29.14L31.78,30.53L32.05,32.07L32.14,33.74L32.05,35.52L31.79,37.37L31.35,39.27L30.74,41.20L29.97,43.12L29.05,45.00L28.00,46.83L26.83,48.57L25.55,50.20L24.19,51.69L22.77,53.02L21.31,54.17L19.82,55.13L18.33,55.88L16.86,56.42L15.44,56.72L14.08,56.80L12.80,56.64L11.63,56.25L10.57,55.63L9.65,54.80L9.25,54.27"/><path d="M8.89,54.73L9.52,55.36"/><path d="M8.79,40.47L8.74,40.62L8.89,40.18L9.42,38.84L9.68,38.28L9.43,38.82L9.21,39.37"/><path d="M9.68,38.28L10.05,37.47L10.75,36.15L11.42,35.00L10.92,35.85"/><path d="M12.01,56.56L12.48,56.72L13.10,56.84L12.48,56.72L11.65,56.44L10.88,56.04L10.18,55.53L9.83,55.19"/><path d="M10.92,56.05L11.65,56.44"/><path d="M10.53,55.78L10.18,55.53"/><path d="M26.31,25.89L27.38,26.43L28.31,27.18L29.10,28.14L29.72,29.29L30.18,30.62L30.46,32.10L30.56,33.72L30.47,35.44L30.21,37.24L29.77,39.08L29.17,40.95L28.40,42.81L27.49,44.64L26.44,46.39L25.27,48.05L24.01,49.59L23.13,50.51L22.67,50.99L21.27,52.22L19.84,53.26L18.39,54.10L16.95,54.73L16.31,54.91L15.55,55.12L14.20,55.29L12.93,55.22L11.76,54.92L10.70,54.39L10.35,54.11"/><path d="M10.75,36.15L10.20,37.19"/><path d="M12.01,34.08L11.50,34.86L12.32,33.61L12.90,32.81L12.32,33.61"/><path d="M11.50,34.86L11.42,35.00"/><path d="M13.10,56.84L13.36,56.90L14.19,56.95L13.36,56.90L13.10,56.84"/><path d="M12.90,32.81L13.19,32.42L13.76,31.72L13.19,32.42"/><path d="M14.19,56.95L14.29,56.95L15.26,56.89L14.29,56.95"/><path d="M14.71,30.62L15.07,30.22L14.11,31.29L13.76,31.72L14.11,31.29"/><path d="M15.26,56.89L16.26,56.72L17.28,56.43L18.33,56.03L19.38,55.52L20.44,54.90L21.49,54.18L22.53,53.37L23.55,52.47L24.55,51.48L25.51,50.41L26.42,49.28L27.30,48.09L28.11,46.84L28.87,45.55L29.14,45.04L29.56,44.23L30.18,42.88L30.73,41.52L31.20,40.15L31.59,38.79"/><path d="M15.07,30.22L15.76,29.53L15.29,30.01"/><path d="M15.76,29.53L16.07,29.23L16.38,28.96L16.07,29.23"/><path d="M16.38,28.96L16.96,28.44L16.38,28.96"/><path d="M16.96,28.44L17.09,28.33L18.13,27.52L18.38,27.34L18.13,27.52L17.47,28.03"/><path d="M18.38,27.34L19.18,26.80L18.56,27.22"/><path d="M19.18,26.80L20.12,26.25L19.65,26.52"/><path d="M20.12,26.25L20.24,26.18L20.75,25.94L20.24,26.18"/><path d="M20.75,25.94L21.29,25.67L22.01,25.40L22.33,25.27L22.93,25.10L22.33,25.27L21.84,25.46"/><path d="M19.87,24.80L19.92,24.77L20.65,24.51"/><path d="M22.93,25.10L23.36,24.98L24.02,24.87L23.36,24.98"/><path d="M24.77,24.78L25.11,24.76L24.67,24.79L24.77,24.78"/><path d="M24.66,24.79L24.67,24.79L24.36,24.81L24.66,24.79"/><path d="M25.11,24.76L25.33,24.75L26.21,24.80L25.33,24.75"/><path d="M24.36,24.81L24.02,24.87L24.36,24.81"/><path d="M26.21,24.80L26.32,24.82L27.14,24.98L27.30,25.03L27.14,24.98L26.25,24.80"/><path d="M25.82,24.35L27.05,24.59L27.07,24.60"/><path d="M28.38,25.48L27.96,25.26L28.39,25.49L28.38,25.48"/><path d="M27.96,25.26L27.30,25.03"/><path d="M29.44,26.17L28.73,25.66L29.44,26.17L30.07,26.79L30.63,27.50L31.12,28.31L31.52,29.22L31.84,30.20L32.07,31.26L32.21,32.40"/><path d="M28.73,25.66L28.39,25.49"/><path d="M29.52,26.25L30.07,26.79L30.51,27.34"/><path d="M31.12,28.31L30.63,27.50"/><path d="M31.89,37.44L32.10,36.12"/><path d="M32.23,34.83L32.26,33.59"/></g><g style="stroke:#000000;stroke-width:0.529"><path d="M6.53,51.41L6.25,50.54L6.12,49.79L6.06,49.60L5.80,48.11L5.71,46.49L5.80,44.77L6.05,42.98L6.48,41.14L7.07,39.28L7.81,37.42L8.70,35.59L9.72,33.82L10.40,32.81L10.86,32.14L12.09,30.56L13.40,29.12L14.78,27.83L16.20,26.71L17.64,25.78L19.08,25.06L20.50,24.54L20.65,24.51L21.41,24.23L22.86,23.92L22.93,23.92L24.24,23.84L25.54,24.01L26.73,24.40L27.07,24.60L28.17,25.04L29.18,25.71L30.05,26.57L30.78,27.63L31.12,28.31L31.52,29.21L31.84,30.20L32.07,31.26L32.21,32.40L32.27,33.59L32.23,34.83L32.18,35.47L32.10,36.12L31.89,37.44L31.59,38.79L31.49,39.12L31.20,40.15L30.73,41.52L30.19,42.88L29.56,44.23L28.87,45.55L28.11,46.84L27.30,48.09L26.43,49.28L25.51,50.41L24.55,51.48L23.55,52.47L22.53,53.37L21.49,54.18L20.44,54.90L19.38,55.52L19.05,55.68L18.33,56.03L17.28,56.43L16.26,56.72L15.26,56.89L14.43,56.97L13.12,56.96L11.89,56.72L10.77,56.27L9.76,55.60L9.52,55.36L9.05,55.09L8.11,54.25L7.33,53.20L6.70,51.96L6.53,51.41"/><path d="M7.62,48.59L7.62,48.71L7.90,50.20L8.36,51.52L8.98,52.68L9.77,53.64L10.35,54.11L11.51,54.41L12.78,54.48L14.13,54.31L15.53,53.91L16.97,53.29L18.42,52.45L19.85,51.41L21.25,50.17L22.59,48.78L23.85,47.24L25.02,45.58L26.06,43.82L26.98,42.00L27.75,40.14L28.35,38.27L28.79,36.42L29.05,34.62L29.14,32.90L29.04,31.29L28.76,29.81L28.30,28.48L27.69,27.34L26.89,26.36L26.31,25.89L25.15,25.60L23.88,25.53L22.53,25.69L21.13,26.09L19.69,26.72L18.22,27.57L16.83,28.67L15.40,30.00L14.05,31.49L12.77,33.12L11.60,34.86L11.52,35.00L10.55,36.69L9.63,38.57L8.86,40.49L8.25,42.42L7.81,44.32L7.58,45.92L7.52,47.10L7.62,48.59"/></g></g><g id="Actor_7.4"><g style="stroke:#000000;stroke-width:0.176"><path d="M139.15,111.56L138.87,111.26L138.74,110.79L138.76,110.22L138.95,109.59L139.27,108.98L139.69,108.46L140.16,108.08L140.64,107.88L141.08,107.89"/><path d="M141.68,109.23L141.63,108.78L141.45,108.44L141.16,108.26L140.79,108.26L140.37,108.43L139.96,108.76L139.60,109.21L139.32,109.73L139.17,110.27L139.14,110.77L139.26,111.17L139.49,111.43L139.76,111.51L139.83,111.52L140.23,111.44"/></g><g style="stroke:#000000;stroke-width:0.529"><path d="M137.01,105.55L141.08,107.89L141.41,108.10L141.62,108.49L141.67,109.01L141.68,109.23L141.58,109.76L141.36,110.30L141.04,110.79L140.65,111.19L140.23,111.44L140.00,111.57L139.54,111.67L139.15,111.56L134.96,109.16"/></g></g><g id="Actor_7.5"><g style="stroke:#000000;stroke-width:0.176"><path d="M165.83,93.69L165.40,93.68L164.92,93.88L164.44,94.26L164.02,94.79L163.70,95.39L163.52,96.02L163.51,96.25L163.49,96.59L163.63,97.06L163.90,97.36"/><path d="M164.99,97.24L164.59,97.33L164.25,97.23L164.01,96.97L163.90,96.57L163.92,96.07L164.08,95.53L164.35,95.01L164.72,94.56L165.13,94.23L165.54,94.06L165.91,94.06L166.21,94.24L166.38,94.58L166.43,95.04"/></g><g style="stroke:#000000;stroke-width:0.529"><path d="M161.76,91.35L165.83,93.69L166.17,93.90L166.38,94.29L166.43,94.82L166.43,95.04L166.34,95.56L166.12,96.10L165.80,96.59L165.40,96.99L164.99,97.24L164.76,97.37L164.29,97.47L163.90,97.36L160.24,95.26"/></g></g><g id="Actor_7.6"><g style="stroke:#000000;stroke-width:0.176"><path d="M167.70,101.76L167.42,101.46L167.29,101.00L167.31,100.42L167.50,99.79L167.82,99.19L168.24,98.67L168.71,98.28L169.19,98.09L169.63,98.09"/><path d="M170.22,99.44L170.18,98.98L170.00,98.65L169.71,98.47L169.34,98.46L168.92,98.63L168.51,98.96L168.15,99.41L167.87,99.93L167.72,100.47L167.69,100.97L167.81,101.37L168.04,101.63L168.35,101.72L168.38,101.73L168.78,101.64"/></g><g style="stroke:#000000;stroke-width:0.529"><path d="M166.13,96.08L169.63,98.09L169.96,98.30L170.17,98.69L170.22,99.22L170.22,99.44L170.13,99.96L169.91,100.50L169.59,101.00L169.20,101.39L168.78,101.64L168.55,101.78L168.09,101.87L167.70,101.76L163.51,99.37"/></g></g><g id="Actor_7.7"><g style="stroke:#000000;stroke-width:0.176"><path d="M158.22,96.22L157.95,95.92L157.81,95.46L157.84,94.88L158.02,94.25L158.34,93.65L158.76,93.12L159.24,92.74L159.72,92.55L160.15,92.55"/><path d="M159.31,96.10L158.91,96.19L158.57,96.09L158.33,95.83L158.22,95.43L158.24,94.93L158.40,94.39L158.67,93.87L159.04,93.42L159.45,93.09L159.86,92.92L160.24,92.93L160.53,93.11L160.71,93.44L160.75,93.90"/></g><g style="stroke:#000000;stroke-width:0.529"><path d="M156.08,90.21L160.15,92.55L160.49,92.76L160.70,93.15L160.75,93.68L160.75,93.90L160.66,94.42L160.44,94.96L160.12,95.45L159.73,95.85L159.31,96.10L159.08,96.23L158.61,96.33L158.22,96.22L154.04,93.83"/></g></g><g id="Actor_7.8"><g style="stroke:#000000;stroke-width:0.176"><path d="M135.35,120.32L135.08,120.01L134.94,119.55L134.97,118.97L135.15,118.35L135.40,117.88L135.47,117.74L135.89,117.22L136.37,116.84L136.85,116.64L137.28,116.64"/><path d="M137.88,117.99L137.83,117.53L137.66,117.20L137.36,117.02L136.99,117.01L136.58,117.18L136.17,117.51L135.80,117.96L135.53,118.49L135.37,119.03L135.35,119.52L135.46,119.92L135.70,120.19L136.04,120.28L136.44,120.20"/></g><g style="stroke:#000000;stroke-width:0.529"><path d="M133.21,114.30L137.28,116.64L137.62,116.85L137.83,117.24L137.88,117.77L137.88,117.99L137.79,118.52L137.57,119.05L137.25,119.55L136.86,119.94L136.44,120.20L136.21,120.33L135.74,120.43L135.35,120.32L131.17,117.92"/></g></g><g id="Actor_7.9"><g style="stroke:#000000;stroke-width:0.176"><path d="M144.83,103.91L144.55,103.61L144.42,103.14L144.44,102.56L144.63,101.94L144.94,101.33L145.37,100.81L145.84,100.43L146.32,100.23L146.75,100.24"/><path d="M147.35,101.58L147.31,101.13L147.13,100.79L146.84,100.61L146.46,100.61L146.05,100.78L145.64,101.10L145.28,101.56L145.00,102.08L144.84,102.62L144.82,103.11L144.94,103.52L145.17,103.78L145.51,103.87L145.91,103.79"/></g><g style="stroke:#000000;stroke-width:0.529"><path d="M142.69,97.90L146.75,100.24L147.09,100.44L147.30,100.83L147.35,101.36L147.35,101.58L147.26,102.11L147.04,102.65L146.72,103.14L146.33,103.53L145.91,103.79L145.68,103.92L145.22,104.02L144.83,103.91L140.64,101.51"/></g></g><g><g><path style="stroke:#000000;stroke-width:0.125;stroke-dasharray:2.2 1.5 0.7 1.5" d="M35.20,49.68L18.71,40.22"/><path style="stroke:#000000;stroke-width:0.125;stroke-dasharray:2.2 1.5 0.7 1.5" d="M38.30,51.46L62.49,65.33"/><path style="stroke:#000000;stroke-width:0.125;stroke-dasharray:2.2 1.5 0.7 1.5" d="M91.90,82.20L65.43,67.02"/><path style="stroke:#000000;stroke-width:0.125;stroke-dasharray:2.2 1.5 0.7 1.5" d="M120.09,98.37L95.00,83.98"/></g></g><g><g><path style="stroke:#000000;stroke-width:0.125;stroke-dasharray:2.2 1.5 0.7 1.5" d="M184.47,135.31L159.78,121.15"/><path style="stroke:#000000;stroke-width:0.125;stroke-dasharray:2.2 1.5 0.7 1.5" d="M210.91,150.47L185.32,135.79"/><path style="stroke:#000000;stroke-width:0.125;stroke-dasharray:2.2 1.5 0.7 1.5" d="M212.03,151.12L237.65,165.81"/><path style="stroke:#000000;stroke-width:0.125;stroke-dasharray:2.2 1.5 0.7 1.5" d="M240.75,167.59L266.00,182.07"/><path style="stroke:#000000;stroke-width:0.125;stroke-dasharray:2.2 1.5 0.7 1.5" d="M269.10,183.85L275.90,187.75"/></g></g><g><g><path style="stroke:#000000;stroke-width:0.125" d="M60.98,129.49L90.13,92.33"/></g><g><path style="fill:#000000" d="M90.88,92.33L90.87,92.26L90.86,92.19L90.85,92.12L90.82,92.05L90.79,91.98L90.75,91.92L90.71,91.86L90.66,91.80L90.60,91.75L90.54,91.71L90.48,91.67L90.41,91.64L90.35,91.62L90.27,91.60L90.20,91.59L90.13,91.58L90.05,91.59L89.98,91.60L89.91,91.62L89.84,91.64L89.77,91.67L89.71,91.71L89.65,91.75L89.60,91.80L89.55,91.86L89.50,91.92L89.47,91.98L89.44,92.05L89.41,92.12L89.39,92.19L89.38,92.26L89.38,92.33L89.38,92.41L89.39,92.48L89.41,92.55L89.44,92.62L89.47,92.69L89.50,92.75L89.55,92.81L89.60,92.86L89.65,92.91L89.71,92.96L89.77,93.00L89.84,93.03L89.91,93.05L89.98,93.07L90.05,93.08L90.13,93.08L90.20,93.08L90.27,93.07L90.35,93.05L90.41,93.03L90.48,93.00L90.54,92.96L90.60,92.91L90.66,92.86L90.71,92.81L90.75,92.75L90.79,92.69L90.82,92.62L90.85,92.55L90.86,92.48L90.87,92.41z"/></g><g><text xml:space="preserve" fill="#000000" stroke-width="0" x="51.40" y="134.92" font-size="3.77" opacity="1.00" font-family="Arial">KIT0392</text></g></g><g id="PMI7.0"><g><path style="stroke:#000000;stroke-width:0.125" d="M124.87,166.93L134.00,132.90"/></g><g><path style="fill:#000000" d="M134.75,132.90L134.75,132.83L134.73,132.75L134.72,132.68L134.69,132.61L134.66,132.55L134.62,132.48L134.58,132.43L134.53,132.37L134.47,132.32L134.42,132.28L134.35,132.24L134.29,132.21L134.22,132.18L134.15,132.17L134.07,132.15L134.00,132.15L133.93,132.15L133.85,132.17L133.78,132.18L133.71,132.21L133.65,132.24L133.58,132.28L133.52,132.32L133.47,132.37L133.42,132.43L133.38,132.48L133.34,132.55L133.31,132.61L133.28,132.68L133.26,132.75L133.25,132.83L133.25,132.90L133.25,132.97L133.26,133.05L133.28,133.12L133.31,133.19L133.34,133.25L133.38,133.32L133.42,133.38L133.47,133.43L133.52,133.48L133.58,133.52L133.65,133.56L133.71,133.59L133.78,133.62L133.85,133.64L133.93,133.65L134.00,133.65L134.07,133.65L134.15,133.64L134.22,133.62L134.29,133.59L134.35,133.56L134.42,133.52L134.47,133.48L134.53,133.43L134.58,133.38L134.62,133.32L134.66,133.25L134.69,133.19L134.72,133.12L134.73,133.05L134.75,132.97z"/></g><g><text xml:space="preserve" fill="#000000" stroke-width="0" x="117.11" y="172.37" font-size="3.78" opacity="1.00" font-family="Arial">ND1173</text></g></g><g id="PMI1.0"><g><path style="stroke:#000000;stroke-width:0.125" d="M95.18,148.21L119.50,128.68"/></g><g><path style="fill:#000000" d="M120.25,128.68L120.24,128.61L120.23,128.53L120.22,128.46L120.19,128.39L120.16,128.33L120.12,128.26L120.08,128.20L120.03,128.15L119.97,128.10L119.91,128.06L119.85,128.02L119.78,127.99L119.72,127.96L119.64,127.94L119.57,127.93L119.50,127.93L119.42,127.93L119.35,127.94L119.28,127.96L119.21,127.99L119.14,128.02L119.08,128.06L119.02,128.10L118.97,128.15L118.92,128.20L118.87,128.26L118.84,128.33L118.80,128.39L118.78,128.46L118.76,128.53L118.75,128.61L118.75,128.68L118.75,128.75L118.76,128.83L118.78,128.90L118.80,128.97L118.84,129.03L118.87,129.10L118.92,129.16L118.97,129.21L119.02,129.26L119.08,129.30L119.14,129.34L119.21,129.37L119.28,129.40L119.35,129.41L119.42,129.43L119.50,129.43L119.57,129.43L119.64,129.41L119.72,129.40L119.78,129.37L119.85,129.34L119.91,129.30L119.97,129.26L120.03,129.21L120.08,129.16L120.12,129.10L120.16,129.03L120.19,128.97L120.22,128.90L120.23,128.83L120.24,128.75z"/></g><g><text xml:space="preserve" fill="#000000" stroke-width="0" x="82.23" y="153.64" font-size="3.80" opacity="1.00" font-family="Arial">BPA10727</text></g></g><g/><g><g/><g><text xml:space="preserve" fill="#000000" stroke-width="0" x="7.22" y="11.82" font-size="4.53" opacity="1.00" font-family="Arial" font-weight="bold">BPA10730</text></g></g><g id="paperID" visibility="hidden" opacity="0.00" transform="scale(0.000100)"><path style="stroke:#000000;stroke-width:0.500;fill:#e6e6e6;fill-rule:evenodd" d="M-2000.00,-2000.00L2297.00,-2000.00L2297.00,2210.00L-2000.00,2210.00zM0.00,0.00L297.00,0.00L297.00,210.00L0.00,210.00z"/><path style="fill:#000000;fill-opacity:0.118" d="M3.00,210.00L297.00,210.00L297.00,3.00L300.00,3.00L300.00,213.00L3.00,213.00z"/></g><g id="hotspot.0" onmouseover="ShowHotSpot(evt,'0')" onmouseout="HideHotSpot(evt,'0')" onmousemove="ShowToolTip(evt,'0',&quot;Hotspot 1&quot;)" opacity="0"><path style="fill:#00ff00;fill-rule:evenodd" d="M26.92,24.48L28.76,25.40L30.06,26.66L30.96,27.96L31.88,30.35L32.24,32.55L32.24,35.00L32.06,36.47L31.33,39.77L30.17,42.83L28.51,46.13L26.55,49.13L24.18,51.90L21.88,53.82L20.52,54.84L17.56,56.29L15.85,56.79L12.23,56.79L10.42,56.03L8.03,54.20L7.10,52.74L6.35,50.92L5.81,47.79L5.81,44.91L6.17,42.52L6.86,39.90L8.20,36.65L10.24,33.00L12.16,30.52L14.09,28.40L15.19,27.48L17.68,25.76L20.63,24.48L22.83,23.93L25.09,23.93zM50.97,39.34L53.17,40.44L55.56,41.91L56.68,42.99L57.76,45.04L58.31,47.24L58.31,51.52L57.75,54.27L56.65,57.57L55.50,60.08L53.30,63.58L51.83,65.41L50.34,67.04L49.05,68.14L47.06,69.64L44.49,70.92L42.47,71.47L39.95,71.47L38.30,70.91L34.46,68.70L33.18,67.23L32.23,65.05L31.88,63.21L31.88,59.41L32.55,55.86L33.90,52.25L35.75,48.79L37.50,46.31L39.87,43.54L41.07,42.54L43.20,40.99L45.28,39.95L46.87,39.34L47.79,39.16L50.23,39.16zM80.70,54.03L84.19,56.05L85.49,57.32L86.40,58.62L87.32,61.00L87.69,64.32L87.50,66.94L86.94,69.87L85.60,73.85L83.40,78.26L80.82,81.92L79.81,83.11L77.14,85.58L75.22,86.97L72.76,88.36L70.96,88.95L69.45,89.27L67.30,89.27L65.83,88.91L64.02,87.97L61.44,86.32L60.35,85.03L59.41,83.22L58.85,81.20L58.68,79.54L58.68,77.22L58.99,74.59L59.96,70.97L61.25,67.67L63.00,64.47L64.93,61.63L67.87,58.32L68.97,57.40L71.28,55.68L73.73,54.46L75.32,53.84L78.13,53.47zM107.50,71.84L110.44,73.30L112.46,74.59L113.58,75.85L114.11,76.79L115.03,79.73L115.03,83.82L114.85,85.11L114.11,88.05L112.64,91.72L110.62,95.20L108.42,98.14L106.60,99.99L104.12,101.92L101.26,103.46L99.37,103.96L96.48,103.96L94.84,103.41L91.18,101.19L89.90,99.71L89.14,98.28L88.77,96.99L88.60,95.88L88.60,91.72L89.32,88.22L90.62,84.74L92.47,81.28L94.22,78.80L96.69,75.95L97.79,75.03L101.07,72.80L103.77,71.83L104.88,71.65L106.77,71.65zM203.33,122.85L205.52,123.97L206.83,125.04L208.28,127.45L209.01,129.66L209.38,132.60L209.01,137.06L208.09,140.73L206.57,144.52L204.24,148.80L201.80,152.05L200.40,153.59L197.66,156.17L195.00,157.92L192.68,159.08L190.05,159.76L187.35,159.76L185.88,159.40L184.41,158.66L183.15,157.72L181.86,156.07L180.73,153.16L180.38,150.40L180.38,148.44L180.69,145.44L181.47,142.19L182.77,138.71L183.86,136.51L185.62,133.49L187.46,130.93L189.86,128.19L192.68,125.86L195.00,124.33L197.94,123.05L199.59,122.68L202.40,122.68zM229.76,138.10L232.32,139.39L233.79,140.85L235.27,143.78L235.81,146.36L235.81,150.64L235.08,154.68L234.47,156.46L233.18,159.76L230.86,164.04L228.10,167.71L225.82,170.02L223.44,172.04L220.52,173.71L218.14,174.64L216.11,174.99L214.15,174.99L213.04,174.82L211.24,174.06L209.76,172.96L208.85,171.85L207.72,169.86L207.35,168.77L206.99,166.73L206.99,161.84L207.53,158.70L209.01,154.31L211.16,150.03L213.61,146.43L216.19,143.50L218.37,141.65L220.16,140.31L222.91,138.83L225.11,138.10L226.03,137.92L228.84,137.92zM253.62,155.53L257.86,157.90L258.95,159.01L259.86,160.31L260.78,163.25L260.78,167.53L260.59,168.81L259.68,172.31L258.02,176.15L256.01,179.46L253.43,182.58L252.17,183.70L250.05,185.44L247.19,186.98L244.56,187.66L242.79,187.66L240.76,187.12L237.11,184.89L236.19,184.16L235.25,182.71L234.52,180.51L234.34,179.40L234.34,175.42L234.70,173.21L235.94,169.31L237.65,165.88L238.77,164.06L240.42,161.86L242.16,159.93L243.52,158.72L245.72,157.06L247.13,156.27L249.89,155.35L252.88,155.35zM281.52,171.69L285.56,173.71L286.86,174.79L287.94,176.10L288.87,178.29L289.23,180.69L289.23,182.95L288.68,186.25L287.33,190.23L285.68,193.53L283.72,196.53L281.70,198.92L279.15,201.13L277.30,202.40L274.49,203.64L273.57,203.81L270.50,203.82L269.41,203.44L265.20,201.05L263.89,199.41L262.97,197.22L262.61,194.82L262.61,192.86L262.97,189.92L264.08,186.06L266.59,181.05L268.69,178.19L270.43,176.26L271.79,175.05L273.99,173.40L276.20,172.30L277.97,171.69L279.07,171.51L280.78,171.51zM26.37,25.94L27.31,26.84L28.39,28.70L28.94,30.72L29.12,33.71L28.76,36.65L28.02,39.40L26.55,42.89L24.71,46.01L23.00,48.33L21.60,49.87L20.60,50.71L18.77,52.17L17.50,52.93L15.54,53.90L13.28,54.40L11.87,54.40L10.76,54.22L10.05,53.83L8.93,52.56L8.19,51.10L7.65,48.71L7.65,45.64L8.19,42.70L9.30,39.40L11.13,35.73L12.16,34.00L14.64,30.79L16.77,28.70L18.78,27.23L20.99,26.13L23.19,25.58L25.09,25.58zM53.18,41.54L54.09,42.83L54.82,44.67L55.19,46.87L55.19,49.13L55.00,50.78L54.09,54.46L52.80,57.58L50.96,60.69L48.95,63.45L47.50,64.93L45.84,66.40L43.81,67.85L41.01,69.09L40.08,69.26L37.20,69.26L36.28,68.17L35.54,66.70L35.18,65.04L35.18,60.15L36.03,56.41L37.57,52.80L39.69,49.24L41.26,47.31L43.09,45.29L45.46,43.44L47.79,42.10L50.36,41.36L52.81,41.35zM81.26,57.33L82.56,58.41L83.09,59.54L83.64,61.56L83.64,66.02L82.91,69.51L81.44,73.36L79.23,77.21L78.07,78.81L76.22,81.00L74.02,83.02L70.90,85.04L68.17,85.97L66.01,85.98L64.91,85.42L63.65,84.30L62.71,82.67L62.16,80.83L61.98,79.54L61.98,77.03L62.53,74.09L63.81,70.24L65.59,66.69L67.69,63.65L69.71,61.26L71.16,59.96L72.99,58.49L74.40,57.70L76.42,56.96L77.34,56.78L79.60,56.78zM109.71,74.03L110.44,74.77L111.36,76.60L111.91,79.54L111.91,81.44L111.36,84.93L110.07,88.78L108.61,91.72L105.85,95.76L103.94,97.70L102.65,98.79L101.18,99.90L98.69,101.26L96.80,101.75L93.74,101.76L92.63,100.11L92.08,98.46L91.90,97.72L91.72,96.25L91.72,94.29L92.03,91.66L93.00,88.23L94.29,85.29L96.32,81.82L97.98,79.80L99.90,77.68L103.09,75.38L105.62,74.23L107.08,73.85L109.35,73.84zM203.15,123.95L204.42,124.52L205.72,125.60L206.99,127.27L207.92,129.65L208.28,132.04L208.28,134.85L207.54,139.08L206.26,142.93L204.43,146.60L202.17,150.04L199.83,152.84L198.02,154.51L195.43,156.51L192.62,157.93L189.86,158.66L187.54,158.66L185.51,158.12L184.25,157.17L183.13,155.91L182.02,153.71L181.66,152.24L181.48,150.77L181.48,147.52L181.84,144.76L182.94,140.91L184.42,137.43L186.46,133.96L188.65,131.02L191.12,128.35L194.27,125.99L196.66,124.70L198.86,123.96L199.96,123.78L202.22,123.78zM229.58,139.38L231.06,140.10L232.53,141.38L233.79,143.61L234.53,146.54L234.53,150.46L233.97,153.57L232.87,157.25L231.04,161.10L229.01,164.40L227.31,166.55L225.82,168.19L223.63,170.21L220.89,172.06L218.37,173.21L216.11,173.71L214.34,173.71L212.67,173.35L210.86,172.23L209.56,170.59L208.63,168.40L208.28,166.55L208.28,162.02L208.82,159.08L209.74,155.96L211.40,152.29L213.34,149.09L215.45,146.25L217.84,143.68L220.89,141.41L224.06,139.80L226.21,139.20L228.65,139.20zM255.46,157.54L256.37,158.66L257.29,160.86L257.66,163.06L257.66,165.14L257.47,166.79L256.74,169.91L255.45,173.22L253.62,176.52L251.71,179.20L250.79,180.30L248.77,182.14L246.77,183.63L244.20,184.91L242.18,185.46L240.21,185.46L239.49,185.27L238.38,183.62L237.83,181.98L237.64,181.24L237.65,176.16L238.37,173.02L239.67,169.73L240.97,167.18L242.53,164.89L244.09,162.96L246.40,160.68L248.78,159.02L251.18,157.93L252.46,157.56L254.52,157.36zM283.91,173.89L284.63,174.82L285.37,176.28L285.92,178.67L285.92,182.21L285.19,185.88L283.54,190.11L281.70,193.22L279.98,195.54L279.06,196.64L276.86,198.66L274.46,200.31L271.92,201.44L271.00,201.61L267.94,201.61L266.83,200.15L266.09,197.95L265.92,196.84L265.92,193.23L266.46,190.28L267.57,186.99L269.04,184.05L270.70,181.31L272.72,178.93L274.67,177.01L277.60,174.99L279.81,174.08L281.28,173.71L283.36,173.71z"/></g></g></svg>
