<?xml version="1.0" encoding="UTF-8" standalone="no"?>
<svg xmlns="http://www.w3.org/2000/svg" xmlns:xlink="http://www.w3.org/1999/xlink" width="297.000mm" height="210.000mm" viewBox="0.000000 0.000000 297.000000 210.000000" stroke-linejoin="round" stroke-linecap="round" fill="none" fill-rule="evenodd"><desc>Composer Export</desc><script type="text/ecmascript"><![CDATA[
if(typeof(top) != "undefined")
{
	top.ShowPaper = ShowPaper;
}
function ShowHotSpot(evt,hotspotid)
{
	var svgDocument = evt.target.ownerDocument;
	var strId = "hotspot."+hotspotid;
	var hotspot = svgDocument.getElementById(strId);
	if(hotspot)
		hotspot.setAttribute("opacity",".5");
}
function HideHotSpot(evt,hotspotid)
{
	var svgDocument = evt.target.ownerDocument;
	var strId = "hotspot."+hotspotid;
	var hotspot = svgDocument.getElementById(strId);
	if(hotspot)
		hotspot.setAttribute("opacity","0");

	var toolTip = svgDocument.getElementById('ToolTip');
	if(toolTip)
		toolTip.setAttribute("visibility","hidden");
}
function ShowToolTip(evt,hotspotid,strTooltip)
{
	if(strTooltip=="")
	return;

	// change text
	var svgDocument = evt.target.ownerDocument;
	var tiptext = svgDocument.getElementById('ToolTipText');
	if( !tiptext )
	return;
	tiptext.firstChild.nodeValue = " " + strTooltip + "  " ;

	// show tooltip before, else some refresh issue

	var toolTip = svgDocument.getElementById('ToolTip');
	if(!toolTip)
	return;

	toolTip.setAttribute("visibility","visible");
	toolTip.setAttribute("opacity",".95");

	// move tooltip
	// get viewbox

	var root = svgDocument.documentElement;
	var vbox = (root.getAttribute("viewBox")).split(' ');
	var x0 = parseFloat(vbox[0]);
	var y0 = parseFloat(vbox[1]);
	var vboxW = parseFloat(vbox[2]);
	var vboxH = parseFloat(vbox[3]);

	// get default width of svg

	var strW = root.getAttribute("width");
	var svgW = parseFloat(strW);
	if(strW.indexOf('mm') != -1)
	svgW *= 3.779;

	var strH = root.getAttribute("height");
	var svgH = parseFloat(strH);
	if(strH.indexOf('mm') != -1)
	svgH *= 3.779;  	// 96 dpi  -> 96/25.4 = 3.779

	// update the viewbox / width / height if svg is embedded in html with zoom fit all
	var realx0 = x0;
	var realy0 = y0;
	var realvboxW = vboxW;
	var realvboxH = vboxH;
	var realsvgW = svgW;
	var realsvgH = svgH;

	if ((typeof(top) == "undefined") || (typeof(top.svgctl1) != "undefined")) // embedded in html
	{
		// get window size in pxl

		svgW = window.innerWidth;
		svgH = window.innerHeight;

		// calculate real viewbox

		realsvgW = svgW;
		realsvgH = svgH;
		if((svgW / svgH) > (vboxW / vboxH))
		{
			realvboxW = (vboxH * svgW) / svgH;
			realvboxH = vboxH;
			realx0 = x0 - (realvboxW - vboxW)/2 ;
		}
		else
		{
			realvboxH = (vboxW * svgH) / svgW;
			realvboxW = vboxW;
			realy0 = y0 - (realvboxH - vboxH)/2 ;
		}
	}

	// get user zoom/pan

	var newScale = root.currentScale;
	var translation = root.currentTranslate;

	// transform pxl to user unit

	var xPos = (((evt.clientX+10- translation.x)/newScale) * realvboxW)/realsvgW  + realx0 ;
	var yPos = (((evt.clientY+5- translation.y)/newScale) * realvboxH)/ realsvgH  + realy0 ;
	var scaleForWidth = ( (1 / newScale) * realvboxH) / realsvgH;

	// move tooltip

	toolTip.setAttribute("transform", "translate(" + xPos + "," + yPos + ")" );

	// resize tooltip

	var fontsize = 12;
	tiptext.setAttribute("font-size",fontsize*scaleForWidth);
	tiptext.setAttribute("y", fontsize*scaleForWidth);
	var tipBG = svgDocument.getElementById('ToolTipBG');
	var outline = tiptext.getBBox();
	if(tipBG)
	{
		tipBG.setAttribute("stroke-width", 1*scaleForWidth);
		tipBG.setAttribute("width", Number(outline.width) );
		tipBG.setAttribute("height", Number(outline.height) + fontsize*.5*scaleForWidth );
	}
	var ToolTipShadow = svgDocument.getElementById('ToolTipShadow');
	if(ToolTipShadow)
	{
		ToolTipShadow.setAttribute("width", Number(outline.width) );
		ToolTipShadow.setAttribute("height", Number(outline.height) + fontsize*.5*scaleForWidth );
		ToolTipShadow.setAttribute("x", 3*scaleForWidth);
		ToolTipShadow.setAttribute("y", 3*scaleForWidth);
	}
}
function ShowPaper()
{
  var svgDocument = getDocument();
  var paper = svgDocument.getElementById("paperID");
  if(paper)
  {
    paper.setAttribute("transform","scale(1)");
    paper.setAttribute("opacity","1");
    paper.setAttribute("visibility","visible");
  }
  var svg = svgDocument.getRootElement();
  if(svg)
  {
    svg.setAttribute("width","307.000mm");
    svg.setAttribute("height","220.000mm");
    svg.setAttribute("viewBox","-5.000000 -5.000000 307.000000 220.000000");
  }
}
]]></script><defs/><g><path style="fill:#000000;fill-opacity:0.098;fill-rule:evenodd" d="M142.79,20.11L143.59,19.58L143.89,19.60L143.89,20.95L143.58,21.16L143.17,21.12zM144.93,18.94L143.31,19.12L142.18,19.72L141.65,20.70L141.68,19.71L142.83,18.89L143.56,18.63L144.93,18.66zM134.41,21.07L135.18,20.57L135.48,20.59L135.48,21.96L134.75,21.86zM151.20,21.10L152.32,20.36L152.32,21.70L151.96,22.12L151.59,22.12zM136.52,19.93L134.90,20.11L133.91,20.60L133.27,21.47L133.26,20.71L134.42,19.88L135.15,19.62L136.52,19.65zM153.34,19.93L151.47,20.11L150.59,20.71L150.07,21.69L150.05,20.66L151.00,19.88L151.73,19.62L153.34,19.65zM129.64,22.53L127.72,22.83L126.84,23.43L126.32,24.42L126.33,23.17L127.98,22.34L129.59,22.38zM158.40,23.60L159.39,23.07L160.23,23.07L160.14,24.85L159.48,24.85L158.48,24.32zM127.46,23.83L128.47,23.07L128.48,24.59L127.75,24.67zM151.10,25.60L151.11,25.88L150.07,25.82L147.61,25.32L144.28,25.33L144.28,25.88L145.40,26.06L139.12,26.80L135.16,28.04L133.92,28.78L132.18,30.01L131.43,30.99L130.52,32.32L130.52,33.07L131.92,30.98L134.17,29.28L136.90,28.05L140.60,27.05L143.07,26.80L145.87,26.80L146.87,27.05L146.87,38.27L145.71,38.34L145.60,38.20L143.32,38.18L140.87,38.45L140.77,38.59L139.37,38.68L138.28,39.08L137.36,39.15L136.81,39.60L135.23,39.18L132.53,37.42L131.06,35.68L130.51,34.72L130.47,33.97L130.25,33.48L130.28,31.81L131.16,29.73L133.18,27.79L134.67,26.81L138.61,25.31L141.10,24.82L147.85,24.82zM165.21,26.53L163.59,26.79L162.46,27.39L161.94,28.37L161.96,27.38L163.10,26.54L164.96,26.28zM124.89,26.53L123.28,26.80L122.13,27.38L121.62,28.37L121.60,27.35L122.78,26.54L124.63,26.28zM162.88,27.78L163.87,27.25L164.18,27.27L164.18,28.61L163.87,28.83L163.37,28.87zM122.56,27.78L123.55,27.25L123.85,27.27L123.86,28.61L123.54,28.83L123.05,28.87zM164.59,32.70L165.68,31.99L165.58,33.51L164.94,33.49zM164.34,31.99L163.45,33.10L163.44,32.33L164.35,31.50L165.09,31.25L166.68,31.26zM121.04,32.51L122.15,32.00L122.05,33.50L121.32,33.57L121.10,33.26zM122.04,31.50L120.33,32.25L119.89,33.32L119.88,32.30L120.30,31.74L121.29,31.24L123.14,31.26zM162.89,37.43L164.21,36.70L164.20,38.03L163.98,38.32L163.38,38.52zM122.56,37.43L123.88,36.70L123.87,38.03L123.66,38.32L123.05,38.52zM165.21,36.26L163.35,36.44L162.86,36.69L161.94,37.77L161.96,36.78L163.60,35.95L165.21,35.98zM124.89,36.26L123.02,36.44L122.54,36.69L121.61,37.77L121.63,36.78L123.28,35.95L124.89,35.98zM146.88,38.66L146.87,40.99L141.92,40.90L137.94,40.17L137.19,39.93L136.81,39.60L138.17,39.21L138.28,39.08L140.66,38.74L140.77,38.59L145.71,38.34zM159.15,40.40L157.91,40.89L157.23,41.72L157.25,40.99L158.40,40.15L160.49,40.16zM127.56,41.25L128.22,40.89L129.31,40.89L129.31,42.48L128.04,42.41L127.53,41.90zM158.49,41.23L159.48,40.88L159.48,42.22L159.17,42.43L158.49,42.41zM153.30,42.89L151.97,43.12L150.73,43.61L150.07,44.70L150.09,43.71L150.74,43.13L152.85,42.64zM136.51,42.86L135.14,43.11L134.16,43.62L133.27,44.72L133.23,43.94L133.66,43.36L134.65,42.87L136.27,42.61zM134.40,44.13L135.51,43.63L135.40,45.13L134.76,45.12L134.46,44.61zM151.23,44.14L152.00,43.58L152.30,43.59L152.23,45.13L151.50,45.20L151.28,44.89zM142.82,45.13L143.59,44.57L143.89,44.58L143.81,46.12L143.17,46.11L142.87,45.60zM144.93,43.93L143.56,44.11L142.32,44.60L141.66,45.69L141.68,44.70L142.33,44.12L144.07,43.62L144.92,43.64zM144.30,50.56L151.56,50.14L157.93,48.84L162.37,47.34L167.15,44.94L168.90,43.72L172.10,40.98L173.83,38.51L175.07,35.79L175.31,34.94L175.31,45.93L175.08,47.18L174.33,48.90L172.59,51.62L170.39,53.87L166.93,56.35L162.44,58.54L162.21,61.52L161.95,62.26L159.88,65.87L157.50,67.95L153.72,69.85L149.83,70.91L146.04,71.33L143.15,71.33L141.58,71.18L141.43,61.92L139.36,61.52L139.12,50.28zM146.29,71.83L150.25,71.33L153.97,70.35L156.90,69.08L159.26,67.48L161.14,65.40L162.21,63.40L162.21,64.98L161.14,67.13L159.14,69.34L155.77,71.41L152.00,72.83L148.02,73.56L141.10,73.59L141.38,73.39L141.58,71.82zM143.15,86.00L144.08,85.66L144.63,85.65L144.63,87.52L143.89,87.43L143.15,87.17zM158.74,90.63L158.97,118.18L160.23,118.08L160.24,119.66L158.89,119.81L158.73,134.98L157.17,135.90L154.21,137.14L150.50,138.13L146.04,138.62L142.64,138.64L142.09,138.45L142.07,99.77L147.12,99.63L147.02,97.05L151.06,96.14L154.04,94.91L156.29,93.20L157.68,91.38L158.23,88.89zM127.55,118.68L128.47,118.07L129.30,118.07L129.31,119.66L127.82,119.57L127.55,119.31zM164.94,122.25L164.93,123.87L163.91,123.79L163.18,123.27L163.18,122.63L163.60,122.28L164.73,122.04zM124.61,122.25L124.60,123.87L123.59,123.79L122.85,123.27L122.85,122.63L123.27,122.28L124.41,122.04zM127.84,124.04L128.21,124.04L130.06,122.29L130.07,134.74L129.08,134.14L127.59,132.91L126.33,130.95L125.82,129.97L125.58,128.98L125.58,126.57L126.09,125.10L126.99,123.49L127.32,123.49zM121.10,127.55L121.78,126.98L122.88,126.98L122.88,128.57L121.60,128.50L121.10,128.00zM164.92,127.33L165.58,126.98L166.41,126.98L166.41,128.58L165.40,128.49L164.92,128.22zM163.18,132.28L164.09,131.68L164.93,131.68L164.92,133.53L164.17,133.45L163.18,132.92zM122.85,132.28L123.77,131.68L124.60,131.68L124.60,133.53L123.85,133.45L122.85,132.92zM127.55,136.24L127.97,135.88L129.31,135.89L129.31,137.47L128.07,137.38L127.56,136.87zM158.49,136.23L158.89,135.89L160.23,135.89L160.23,137.47L158.97,137.40L158.49,137.13zM151.31,138.97L151.97,138.61L153.06,138.61L153.05,140.20L152.04,140.12L151.30,139.60zM134.74,138.95L135.14,138.61L136.24,138.61L136.23,140.20L135.22,140.12L134.74,139.85zM143.07,139.86L144.64,139.34L144.64,141.19L143.63,141.11L143.16,140.85zM148.02,142.08L153.22,141.34L156.94,140.36L160.97,138.70L163.96,137.00L166.69,134.77L168.64,132.02L169.62,129.45L169.62,188.18L169.13,189.91L167.40,192.88L164.58,195.50L160.89,197.75L160.74,200.08L155.03,203.51L154.21,203.79L154.04,200.20L151.07,200.79L146.54,201.21L142.66,201.21L139.62,200.99L139.90,200.79L140.10,142.07zM145.71,38.34L140.77,38.59L140.87,38.45L143.32,38.18L145.60,38.20zM140.66,38.74L138.28,39.08L139.37,38.68L140.77,38.59zM138.17,39.21L136.81,39.60L137.36,39.15L138.28,39.08zM163.46,178.92L163.45,180.28L162.95,181.26L162.14,181.93L160.89,181.99L160.68,181.70L160.70,180.49L161.35,179.16L162.12,178.42L162.69,178.42zM163.51,182.04L162.83,182.91L162.36,182.91L163.37,181.90z"/><g id="Actor_.0"><g style="stroke:#000000;stroke-width:0.176"><path d="M169.80,187.71L169.80,128.78L169.43,130.52L168.70,132.22L167.62,133.86L166.20,135.41L165.12,136.30L164.46,136.85L162.44,138.16L160.15,139.32L159.21,139.69L157.64,140.31L154.94,141.13L152.08,141.75L149.12,142.17L146.09,142.38L144.66,142.38L143.03,142.38L140.00,142.17L137.04,141.75L134.18,141.13L131.48,140.31L129.91,139.69L128.97,139.32L126.68,138.16L124.66,136.85L124.00,136.30L122.92,135.41L121.50,133.86L120.42,132.22L119.69,130.52L119.32,128.78L119.32,187.71"/><path d="M119.32,128.78L119.32,127.03"/><path d="M119.32,127.87L119.32,127.92"/><path d="M121.13,128.02L121.15,127.71L121.34,127.43L121.68,127.20L122.14,127.04L122.66,126.98L123.18,127.02L123.66,127.15L124.03,127.37L124.26,127.64L124.33,127.94L124.22,128.24L123.95,128.50L123.55,128.70L123.06,128.81L122.75,128.81L122.53,128.82L122.02,128.73L121.58,128.56L121.28,128.31L121.13,128.02"/><path d="M123.68,133.53L123.25,133.35L122.94,133.10L122.79,132.81L122.81,132.51L123.00,132.22L123.35,131.99L123.80,131.84L124.32,131.77L124.84,131.81L125.32,131.95L125.69,132.16L125.93,132.43L125.99,132.73L125.88,133.03L125.61,133.29L125.21,133.49L124.72,133.60L124.19,133.61L123.68,133.53"/><path d="M123.25,123.76L123.68,123.94L124.19,124.03L124.72,124.01L125.21,123.90L125.61,123.71L125.88,123.45L125.99,123.15L125.93,122.85L125.69,122.57L125.57,122.50L125.32,122.36L124.84,122.23L124.32,122.19L123.80,122.25L123.34,122.41L123.00,122.64L122.81,122.92L122.79,123.22L122.94,123.52L123.25,123.76"/><path d="M158.91,120.73L159.39,121.02L160.91,122.27L162.12,123.63L162.99,125.07L163.49,126.57L163.63,128.09L163.40,129.61L162.80,131.10L161.85,132.53L160.56,133.86L158.96,135.08L158.05,135.64L157.07,136.16L154.95,137.08L152.62,137.82L150.14,138.37L147.54,138.71L144.89,138.84L142.23,138.76L139.62,138.47L137.10,137.98L134.73,137.28L132.55,136.41L130.61,135.37L128.93,134.18L127.56,132.87L126.52,131.47L125.83,129.99L125.51,128.48L125.55,126.95L125.97,125.44L126.75,123.98L127.87,122.60L129.32,121.32L130.21,120.73"/><path d="M162.44,197.09L160.15,198.25L158.11,199.06L157.64,199.25L154.94,200.06L152.08,200.68L149.12,201.10L146.09,201.31L143.03,201.31L140.00,201.10L137.04,200.68L134.80,200.20L134.18,200.06L131.48,199.25L128.97,198.25L126.68,197.09"/><path d="M131.09,135.63L129.68,134.63L128.38,133.38L127.39,132.05L126.73,130.64L126.43,129.20L126.47,127.75L126.87,126.31L127.61,124.92L128.68,123.61L130.06,122.39L130.21,122.29"/><path d="M127.53,136.72L127.52,136.87L127.67,137.16L127.98,137.41L128.41,137.59L128.93,137.67L129.45,137.66L129.94,137.55L130.35,137.36L130.62,137.09L130.73,136.80L130.66,136.50L130.43,136.22L130.05,136.01L129.58,135.88L129.05,135.84L128.53,135.90L128.08,136.06L127.74,136.29L127.54,136.57L127.53,136.72"/><path d="M130.21,118.39L130.05,118.30L129.58,118.16L129.05,118.13L128.53,118.19L128.08,118.34L127.74,118.57L127.54,118.86L127.52,119.16L127.67,119.45L127.98,119.70L128.41,119.88L128.93,119.96L129.45,119.95L129.94,119.84L130.21,119.71"/><path d="M134.63,139.28L134.61,139.59L134.76,139.88L135.06,140.13L135.50,140.30L136.01,140.39L136.54,140.38L137.03,140.27L137.43,140.07L137.70,139.81L137.81,139.51L137.74,139.21L137.51,138.94L137.14,138.72L136.66,138.59L136.14,138.55L135.62,138.61L135.16,138.77L134.82,139.00L134.63,139.28"/><path d="M143.46,141.10L143.85,141.26L144.37,141.34L144.89,141.33L145.38,141.22L145.79,141.02L146.06,140.76L146.17,140.47L146.10,140.16L145.87,139.89L145.49,139.68L145.02,139.54L144.49,139.51L143.97,139.57L143.52,139.72L143.18,139.96L142.98,140.24L142.96,140.54L143.11,140.83L143.42,141.08L143.46,141.10"/><path d="M151.81,140.14L151.78,140.13L151.47,139.88L151.32,139.59L151.34,139.29L151.53,139.00L151.88,138.77L152.34,138.61L152.85,138.55L153.37,138.59L153.85,138.72L154.17,138.91L154.23,138.94L154.46,139.21L154.52,139.51L154.41,139.81L154.14,140.07L153.74,140.27L153.25,140.38L152.72,140.39L152.21,140.30L151.81,140.14"/><path d="M157.82,135.77L158.26,135.49L159.79,134.33L161.02,133.06L161.92,131.70L162.49,130.29L162.72,128.84L162.58,127.39L162.10,125.96L161.27,124.59L160.12,123.29L158.91,122.30"/><path d="M158.41,136.72L158.40,136.87L158.55,137.17L158.86,137.41L159.29,137.59L159.81,137.67L160.33,137.66L160.82,137.55L161.23,137.36L161.50,137.09L161.61,136.80L161.54,136.50L161.31,136.22L160.93,136.01L160.46,135.88L159.93,135.84L159.41,135.90L158.96,136.06L158.62,136.29L158.43,136.57L158.41,136.72"/><path d="M160.58,183.41L160.47,183.34L160.35,183.23L160.15,183.00L159.98,182.67L159.87,182.27L159.83,181.82L159.87,181.34L159.98,180.86L160.17,180.33L160.41,179.83L160.71,179.35L161.06,178.89L161.43,178.48L161.83,178.12L162.24,177.82L162.44,177.70L162.75,177.54L163.03,177.44L163.39,177.36L163.72,177.37L164.01,177.45L164.26,177.63L164.46,177.89L164.59,178.20L164.68,178.59L164.71,179.03L164.68,179.52L164.59,180.03L164.46,180.53L164.26,181.09L164.01,181.61L163.72,182.09L163.39,182.53L163.03,182.91L162.74,183.15L162.24,183.45L161.83,183.60L161.43,183.66L161.05,183.62L160.71,183.50L160.58,183.41L161.21,183.53L161.99,183.31L162.79,182.78L163.53,181.98L164.12,181.01L164.50,179.98L164.63,178.98L164.50,178.14L164.12,177.54L163.81,177.39"/><path d="M158.91,118.37L158.96,118.34L159.41,118.19L159.93,118.13L160.46,118.16L160.93,118.30L161.31,118.51L161.54,118.78L161.61,119.08L161.50,119.38L161.23,119.64L160.82,119.84L160.33,119.95L159.80,119.96L159.29,119.88L158.91,119.72"/><path d="M160.35,183.23L160.41,183.30L160.47,183.34"/><path d="M160.71,181.56L160.86,181.98L161.17,182.26L161.59,182.34L162.07,182.20L162.57,181.87L163.02,181.38L163.39,180.77L163.63,180.13L163.71,179.51L163.63,178.99L163.39,178.62L163.02,178.44L162.57,178.47L162.07,178.71L161.59,179.13L161.17,179.68L160.86,180.31L160.70,180.95L160.68,181.25L160.71,181.56"/><path d="M163.27,132.34L163.16,132.51L163.14,132.81L163.30,133.11L163.60,133.35L164.03,133.53L164.54,133.61L165.07,133.60L165.56,133.49L165.96,133.29L166.23,133.03L166.34,132.73L166.28,132.43L166.04,132.16L165.67,131.94L165.19,131.81L164.67,131.77L164.15,131.84L163.69,131.99L163.35,132.22L163.27,132.34"/><path d="M163.30,122.72L163.16,122.92L163.14,123.22L163.29,123.51L163.60,123.76L164.03,123.94L164.54,124.03L165.07,124.01L165.56,123.90L165.96,123.71L166.23,123.45L166.34,123.15L166.28,122.85L166.04,122.57L165.67,122.36L165.19,122.23L164.67,122.19L164.15,122.25L163.69,122.41L163.35,122.64L163.30,122.72"/><path d="M164.80,127.97L164.80,128.02L164.95,128.31L165.26,128.56L165.69,128.73L166.20,128.82L166.73,128.81L167.22,128.70L167.62,128.50L167.89,128.24L168.00,127.94L167.94,127.64L167.70,127.37L167.33,127.15L166.85,127.02L166.33,126.98L165.81,127.04L165.36,127.20L165.01,127.43L164.82,127.71L164.80,127.97"/><path d="M169.80,128.78L169.80,127.03"/></g><g style="stroke:#000000;stroke-width:0.529"><path d="M169.80,187.71L169.43,189.45L168.70,191.15L167.62,192.79L166.20,194.34L164.46,195.78L162.44,197.09L162.11,197.28L159.87,198.42L157.40,199.40L154.75,200.20L151.94,200.81L149.05,201.22L146.06,201.43L143.06,201.43L140.08,201.22L137.17,200.81L134.37,200.20L131.72,199.40L129.32,198.45L127.01,197.28L126.68,197.09L124.66,195.78L122.92,194.34L121.50,192.79L120.42,191.15L119.69,189.45L119.32,187.71"/><path d="M130.21,115.99L128.97,116.49L126.68,117.65L124.66,118.96L122.92,120.40L121.50,121.95L120.42,123.59L119.69,125.29L119.32,127.03"/><path d="M119.32,127.92L119.32,127.18"/><path d="M158.92,116.00L160.15,116.49L162.44,117.65L164.46,118.96L166.20,120.40L167.62,121.95L168.70,123.59L169.43,125.29L169.80,127.03"/><path d="M169.80,127.88L169.80,127.77"/></g></g><g id="Actor_.1"><g style="stroke:#000000;stroke-width:0.176"><path d="M131.21,87.85L130.98,88.75L130.94,89.66L131.08,90.56L131.40,91.45L131.90,92.32L132.56,93.14L133.40,93.91L134.38,94.63L135.50,95.27L136.74,95.83L138.09,96.31L139.53,96.69L141.03,96.98L142.58,97.16L144.16,97.24L145.75,97.22L147.31,97.08L148.85,96.85L150.32,96.51L151.71,96.08L153.01,95.56L154.19,94.96L155.25,94.28L156.16,93.53L156.91,92.73L157.49,91.89L157.90,91.01L158.13,90.11L158.18,89.27L158.18,89.20L158.04,88.30"/><path d="M142.98,86.48L143.18,86.20L143.52,85.96L143.97,85.81L144.49,85.75L144.66,85.76L145.02,85.78L145.49,85.92L145.87,86.13L146.10,86.41L146.17,86.71L146.06,87.00L145.79,87.26L145.38,87.46L144.89,87.57L144.36,87.58L143.85,87.50L143.42,87.32L143.11,87.07L142.96,86.78L142.98,86.48"/></g><g style="stroke:#000000;stroke-width:0.529"><path d="M158.91,135.00L158.92,91.52L158.69,90.20L158.04,88.30L157.72,87.41L157.22,86.54L156.55,85.72L155.72,84.95L154.74,84.23L153.62,83.59L152.38,83.03L151.03,82.55L149.59,82.17L148.09,81.88L146.53,81.70L144.96,81.62L143.37,81.64L141.80,81.78L140.27,82.01L138.80,82.35L137.41,82.78L136.11,83.30L134.92,83.90L133.87,84.58L132.96,85.33L132.21,86.13L131.62,86.97L131.21,87.85L130.54,89.88L130.22,91.19L130.21,135.00"/></g></g><g id="Actor_.2"><g style="stroke:#000000;stroke-width:0.176"><path d="M130.49,34.46L131.03,33.32L131.98,32.11L133.25,31.00L134.82,30.03L136.64,29.21L138.66,28.57L140.84,28.12L143.11,27.89L145.43,27.86L147.72,28.04L149.92,28.44L151.99,29.03L153.87,29.81L155.50,30.74L156.85,31.82L157.89,33.01L158.57,34.27L158.64,34.54"/></g><g style="stroke:#000000;stroke-width:0.529"><path d="M131.21,35.91L131.98,34.93L133.25,33.83L134.82,32.85L136.64,32.03L138.66,31.39L140.84,30.95L143.11,30.71L145.43,30.68L147.72,30.87L149.92,31.26L151.99,31.86L153.87,32.63L155.50,33.57L156.85,34.64L157.89,35.83L157.93,35.91"/></g></g><g id="Actor_.3"><g style="stroke:#000000;stroke-width:0.176"><path d="M154.31,200.29L154.31,204.07"/></g><g style="stroke:#000000;stroke-width:0.529"><path d="M160.81,197.94L160.81,200.34L154.31,204.07L149.28,201.18"/></g></g><g id="Actor_.4"><g style="stroke:#000000;stroke-width:0.176"><path d="M158.20,41.58L158.68,42.61L159.77,42.77L160.48,42.88L161.80,42.13L161.32,41.10L159.52,40.82L158.20,41.58"/><path d="M158.96,42.65L159.52,42.33L160.42,42.46L160.75,42.54L160.94,42.62"/><path d="M159.52,42.33L159.52,40.82"/><path d="M160.19,42.84L160.24,42.44L159.71,42.45L159.21,42.55L158.98,42.65"/><path d="M160.32,42.86L160.42,42.46L161.04,42.56"/><path d="M160.42,42.46L160.24,42.44"/><path d="M161.32,41.10L161.32,42.40"/></g><g style="stroke:#000000;stroke-width:0.529"><path d="M162.76,42.39L162.76,42.15L162.74,42.06L162.65,41.65L162.60,41.58L162.33,41.21L161.90,40.89L161.84,40.85L161.30,40.61L160.67,40.47L160.00,40.41L159.33,40.47L158.70,40.61L158.16,40.85L158.10,40.89L157.67,41.21L157.40,41.58L157.35,41.65L157.26,42.06L157.24,42.15L157.24,42.35"/></g></g><g id="Actor_.5"><g style="stroke:#000000;stroke-width:0.176"><path d="M131.71,36.58L131.98,36.25L133.25,35.14L134.82,34.17L136.64,33.35L138.66,32.71L140.84,32.27L143.11,32.03L145.43,32.00L147.72,32.19L149.92,32.58L151.99,33.17L153.87,33.95L155.50,34.89L156.85,35.96L157.39,36.58"/></g><g style="stroke:#000000;stroke-width:0.529"><path d="M133.25,37.97L134.82,36.99L136.64,36.18L138.66,35.54L140.84,35.09L143.11,34.85L145.43,34.82L147.72,35.01L149.92,35.41L151.99,36.00L153.87,36.77L155.50,37.71L155.87,38.00"/></g></g><g id="Actor_.6"><g style="stroke:#000000;stroke-width:0.176"><path d="M135.16,45.36L135.72,45.04L135.72,43.54L134.40,44.29L134.89,45.32L136.68,45.60L138.00,44.84L137.52,43.81L137.52,45.12"/><path d="M135.72,45.04L136.62,45.18L136.95,45.25L137.14,45.34"/><path d="M137.25,45.28L136.62,45.18L136.45,45.16L135.92,45.16L135.42,45.27L135.18,45.37"/><path d="M135.72,43.54L137.52,43.81"/><path d="M136.62,45.18L136.52,45.57"/><path d="M136.45,45.16L136.39,45.55"/></g><g style="stroke:#000000;stroke-width:0.529"><path d="M138.96,45.10L138.96,44.87L138.94,44.78L138.85,44.37L138.80,44.29L138.53,43.92L138.10,43.60L138.05,43.57L137.51,43.33L136.88,43.18L136.20,43.13L135.53,43.18L134.90,43.33L134.36,43.57L134.30,43.60L133.87,43.92L133.61,44.29L133.56,44.37L133.46,44.78L133.44,44.87L133.44,45.07"/></g></g><g id="Actor_.7"><g style="stroke:#000000;stroke-width:0.176"><path d="M165.35,33.79L165.91,33.47L165.91,31.96L164.60,32.72L165.08,33.75L166.88,34.03L168.19,33.27L167.71,32.24L165.91,31.96"/><path d="M165.37,33.80L165.61,33.69L166.11,33.59L166.64,33.59L166.58,33.98"/><path d="M165.91,33.47L166.81,33.61L167.14,33.68L167.33,33.77"/><path d="M167.44,33.70L166.81,33.61L166.71,34.00"/><path d="M166.81,33.61L166.64,33.59"/><path d="M167.71,32.24L167.71,33.55"/></g><g style="stroke:#000000;stroke-width:0.529"><path d="M169.15,33.53L169.15,33.30L169.14,33.20L169.04,32.80L168.99,32.72L168.72,32.35L168.30,32.03L168.24,32.00L167.70,31.76L167.07,31.61L166.40,31.56L165.72,31.61L165.09,31.76L164.55,32.00L164.49,32.03L164.07,32.35L163.80,32.72L163.75,32.80L163.66,33.20L163.64,33.30L163.64,33.49"/></g></g><g id="Actor_.8"><g style="stroke:#000000;stroke-width:0.176"><path d="M125.70,38.34L125.70,37.03L126.18,38.06L124.87,38.82L123.07,38.54L122.59,37.51L123.90,36.76L123.90,38.26L123.34,38.59"/><path d="M124.57,38.77L124.63,38.38L124.10,38.38L123.60,38.49L123.36,38.59"/><path d="M125.32,38.56L125.13,38.48L124.80,38.40L125.43,38.50"/><path d="M124.70,38.80L124.80,38.40L123.90,38.26"/><path d="M124.80,38.40L124.63,38.38"/><path d="M123.90,36.76L125.70,37.03"/></g><g style="stroke:#000000;stroke-width:0.529"><path d="M127.14,38.32L127.14,38.09L127.13,38.00L127.03,37.59L126.98,37.51L126.71,37.14L126.29,36.82L126.23,36.79L125.69,36.55L125.06,36.40L124.38,36.35L123.71,36.40L123.08,36.55L122.54,36.79L122.48,36.82L122.06,37.14L121.79,37.51L121.74,37.59L121.64,38.00L121.63,38.09L121.63,38.29"/></g></g><g id="Actor_.9"><g style="stroke:#000000;stroke-width:0.176"><path d="M143.51,21.27L144.08,20.95L144.98,21.08L145.31,21.16L145.50,21.24"/><path d="M144.75,21.46L144.80,21.06L144.27,21.07L143.77,21.17L143.54,21.27"/><path d="M144.08,20.95L144.08,19.44L142.76,20.19L143.24,21.23L145.04,21.50L146.36,20.75L145.88,19.72L145.88,21.02"/><path d="M144.08,19.44L145.88,19.72"/><path d="M144.88,21.48L144.98,21.08L145.60,21.18"/><path d="M144.98,21.08L144.80,21.06"/></g><g style="stroke:#000000;stroke-width:0.529"><path d="M147.32,21.01L147.32,20.77L147.30,20.68L147.21,20.27L147.16,20.20L146.89,19.82L146.46,19.50L146.40,19.47L145.86,19.23L145.23,19.08L144.56,19.03L143.88,19.08L143.26,19.23L142.72,19.47L142.66,19.50L142.23,19.82L141.96,20.20L141.91,20.27L141.82,20.68L141.80,20.77L141.80,20.97"/></g></g><g id="Actor_.10"><g style="stroke:#000000;stroke-width:0.176"><path d="M154.23,43.81L152.43,43.54L151.12,44.29L151.60,45.32L153.40,45.60L154.71,44.84L154.23,43.81L154.23,45.12"/><path d="M151.87,45.36L152.43,45.04L152.43,43.54"/><path d="M151.89,45.37L152.13,45.27L152.63,45.16L153.16,45.16L153.10,45.55"/><path d="M153.23,45.57L153.33,45.18L152.43,45.04"/><path d="M153.85,45.34L153.66,45.25L153.33,45.18L153.16,45.16"/><path d="M153.33,45.18L153.96,45.28"/></g><g style="stroke:#000000;stroke-width:0.529"><path d="M155.67,45.10L155.67,44.87L155.66,44.78L155.56,44.37L155.51,44.29L155.24,43.92L154.82,43.60L154.76,43.57L154.22,43.33L153.59,43.18L152.92,43.13L152.24,43.18L151.61,43.33L151.07,43.57L151.01,43.60L150.59,43.92L150.32,44.29L150.27,44.37L150.18,44.78L150.16,44.87L150.16,45.07"/></g></g><g id="Actor_.11"><g style="stroke:#000000;stroke-width:0.176"><path d="M164.25,27.17L166.05,27.45L166.53,28.48L165.22,29.23L163.42,28.96L162.93,27.93L164.25,27.17L164.25,28.68L163.69,29.00"/><path d="M164.25,28.68L165.15,28.82L165.48,28.89L165.67,28.97"/><path d="M164.92,29.19L164.98,28.79L164.45,28.80L163.95,28.90L163.71,29.00"/><path d="M164.98,28.79L165.15,28.82L165.05,29.21"/><path d="M165.15,28.82L165.78,28.91"/><path d="M166.05,27.45L166.05,28.76"/></g><g style="stroke:#000000;stroke-width:0.529"><path d="M167.49,28.74L167.49,28.50L167.47,28.41L167.38,28.00L167.33,27.93L167.06,27.56L166.63,27.24L166.58,27.20L166.04,26.97L165.41,26.82L164.73,26.76L164.06,26.82L163.43,26.97L162.89,27.20L162.83,27.24L162.41,27.56L162.14,27.93L162.09,28.00L161.99,28.41L161.98,28.50L161.98,28.70"/></g></g><g id="Actor_.12"><g style="stroke:#000000;stroke-width:0.176"><path d="M158.19,29.49L158.09,29.37L158.90,30.63L159.36,31.95L159.45,33.29L159.18,34.62L158.55,35.91L157.58,37.13L156.28,38.25L154.69,39.23L154.53,39.31L152.86,40.07L150.82,40.72L148.63,41.19L146.33,41.45L144.00,41.51L141.67,41.35L141.38,41.30L139.42,40.99L137.30,40.43L135.35,39.69L133.63,38.78L132.18,37.72L131.03,36.56L130.22,35.30L129.76,33.98L129.66,32.64L129.94,31.31L130.27,30.62L130.57,30.02L131.54,28.80"/><path d="M129.56,33.45L129.53,32.98"/><path d="M158.84,33.61L158.91,33.24L158.82,31.94L158.38,30.68L157.60,29.46L156.49,28.34L155.09,27.32L153.44,26.45L151.56,25.73L149.51,25.19L147.34,24.84L145.10,24.69L142.85,24.74L140.64,25.00L138.53,25.45L136.56,26.08L134.79,26.88L133.26,27.83L132.01,28.91L131.07,30.08L130.46,31.33L130.20,32.61L130.28,33.69"/><path d="M129.62,32.31L129.75,31.64"/><path d="M130.03,30.98L130.35,30.33"/><path d="M131.29,29.09L130.81,29.70"/><path d="M131.48,28.86L131.44,28.91"/><path d="M154.14,28.27L153.44,27.90L151.56,27.18L149.51,26.64L147.34,26.29L145.10,26.14L142.85,26.19L140.64,26.45L138.53,26.90L136.56,27.53L134.79,28.33L134.65,28.42"/><path d="M157.35,28.62L158.09,29.37"/><path d="M158.95,30.64L158.53,30.00"/><path d="M159.40,34.46L159.46,34.20"/><path d="M159.54,32.63L159.59,33.24"/><path d="M159.45,31.96L159.22,31.30"/></g><g style="stroke:#000000;stroke-width:0.529"><path d="M130.30,33.91L130.28,33.69L130.46,32.78L131.07,31.54L132.01,30.36L133.26,29.28L134.65,28.42L135.80,27.89L137.78,27.22L139.92,26.73L142.16,26.43L144.45,26.32L146.75,26.41L148.99,26.69L151.14,27.17L153.14,27.82L154.14,28.27L155.09,28.77L156.49,29.79L157.60,30.91L158.38,32.13L158.82,33.40L158.84,33.61L158.65,34.52L158.04,35.76L157.10,36.94L155.85,38.02L154.33,38.97L152.56,39.77L150.59,40.40L148.48,40.85L146.27,41.11L144.02,41.16L141.78,41.01L139.61,40.66L137.56,40.12L135.68,39.40L134.02,38.53L132.63,37.51L131.52,36.38L130.74,35.17L130.30,33.91"/><path d="M131.48,28.86L131.54,28.80L132.84,27.68L134.42,26.69L136.26,25.86L138.30,25.21L140.49,24.74L142.78,24.48L145.12,24.42L147.45,24.58L149.70,24.94L151.82,25.50L153.77,26.24L155.49,27.15L156.94,28.20L157.35,28.62"/></g></g><g id="Actor_.13"><g style="stroke:#000000;stroke-width:0.176"><path d="M125.70,27.45L123.90,27.17L122.59,27.93L123.07,28.96L124.87,29.23L126.18,28.48L125.70,27.45L125.70,28.76"/><path d="M123.34,29.00L123.90,28.68L125.43,28.91"/><path d="M123.36,29.00L123.60,28.90L124.10,28.80L124.63,28.79L124.80,28.82L124.70,29.21"/><path d="M123.90,28.68L123.90,27.17"/><path d="M124.80,28.82L125.13,28.89L125.32,28.97"/><path d="M124.63,28.79L124.57,29.19"/></g><g style="stroke:#000000;stroke-width:0.529"><path d="M127.14,28.74L127.14,28.50L127.13,28.41L127.03,28.00L126.98,27.93L126.71,27.56L126.29,27.24L126.23,27.20L125.69,26.97L125.06,26.82L124.38,26.76L123.71,26.82L123.08,26.97L122.54,27.20L122.48,27.24L122.06,27.56L121.79,27.93L121.74,28.00L121.64,28.41L121.63,28.50L121.63,28.70"/></g></g><g id="Actor_.14"><g style="stroke:#000000;stroke-width:0.176"><path d="M135.72,20.39L137.52,20.67L138.00,21.70L136.68,22.46L134.89,22.18L134.40,21.15L135.72,20.39L135.72,21.90L135.16,22.22"/><path d="M135.72,21.90L136.62,22.04L136.95,22.11L137.14,22.19"/><path d="M137.25,22.13L136.62,22.04L136.45,22.02L135.92,22.02L135.42,22.12L135.18,22.22"/><path d="M136.62,22.04L136.52,22.43"/><path d="M136.45,22.02L136.39,22.41"/><path d="M137.52,21.98L137.52,20.67"/></g><g style="stroke:#000000;stroke-width:0.529"><path d="M138.96,21.96L138.96,21.73L138.94,21.63L138.85,21.23L138.80,21.15L138.53,20.78L138.10,20.46L138.05,20.42L137.51,20.19L136.88,20.04L136.20,19.99L135.53,20.04L134.90,20.19L134.36,20.42L134.30,20.46L133.87,20.78L133.61,21.15L133.56,21.23L133.46,21.63L133.44,21.73L133.44,21.92"/></g></g><g id="Actor_.15"><g style="stroke:#000000;stroke-width:0.176"><path d="M151.24,21.08L151.12,21.15L151.60,22.18L153.40,22.46L154.71,21.70L154.23,20.67L152.43,20.39L151.24,21.08"/><path d="M151.87,22.22L152.43,21.90L152.43,20.39"/><path d="M153.10,22.41L153.16,22.02L152.63,22.02L152.13,22.12L151.89,22.22"/><path d="M152.43,21.90L153.33,22.04L153.66,22.11L153.85,22.19"/><path d="M153.96,22.13L153.33,22.04L153.23,22.43"/><path d="M153.33,22.04L153.16,22.02"/><path d="M154.23,21.98L154.23,20.67"/></g><g style="stroke:#000000;stroke-width:0.529"><path d="M155.67,21.96L155.67,21.73L155.66,21.63L155.56,21.23L155.51,21.15L155.24,20.78L154.82,20.46L154.76,20.42L154.22,20.19L153.59,20.04L152.92,19.99L152.24,20.04L151.61,20.19L151.07,20.42L151.01,20.46L150.59,20.78L150.32,21.15L150.27,21.23L150.18,21.63L150.16,21.73L150.16,21.92"/></g></g><g id="Actor_.16"><g style="stroke:#000000;stroke-width:0.176"><path d="M128.07,24.94L128.64,24.61L129.54,24.75L129.87,24.83L130.06,24.91"/><path d="M129.30,25.13L129.36,24.73L128.83,24.74L128.33,24.84L128.10,24.94"/><path d="M127.93,24.91L127.80,24.89L127.32,23.86L128.64,23.11L130.44,23.38L130.92,24.42L129.60,25.17L127.93,24.91"/><path d="M128.64,24.61L128.64,23.11"/><path d="M129.44,25.15L129.54,24.75L130.16,24.85"/><path d="M129.54,24.75L129.36,24.73"/><path d="M130.44,23.38L130.44,24.69"/></g><g style="stroke:#000000;stroke-width:0.529"><path d="M131.88,24.67L131.88,24.44L131.86,24.35L131.77,23.94L131.71,23.86L131.45,23.49L131.02,23.17L130.96,23.14L130.42,22.90L129.79,22.75L129.12,22.70L128.44,22.75L127.81,22.90L127.28,23.14L127.22,23.17L126.79,23.49L126.52,23.86L126.47,23.94L126.38,24.35L126.36,24.44L126.36,24.64"/></g></g><g id="Actor_.17"><g style="stroke:#000000;stroke-width:0.176"><path d="M175.56,33.62L175.23,35.57L174.53,37.49L173.47,39.35L172.05,41.14L170.30,42.82L168.24,44.39L165.89,45.81L163.28,47.08L160.44,48.17L157.41,49.08L156.38,49.31L154.23,49.79L150.93,50.30L147.55,50.60L144.13,50.68L140.72,50.54L137.36,50.19L134.08,49.64L132.74,49.31L130.93,48.87L127.95,47.92L125.16,46.78L122.62,45.47L120.34,44.01L118.35,42.41L116.68,40.70L115.92,39.66L115.35,38.89L114.38,37.01L113.77,35.08L113.53,33.13"/><path d="M120.55,34.05L120.04,33.64L119.76,33.09L119.80,32.53L120.16,32.00L120.79,31.57L121.64,31.29L122.60,31.17L123.57,31.24L124.46,31.49L125.15,31.89L125.59,32.39L125.71,32.95L125.51,33.51L125.00,33.99L124.25,34.35L123.34,34.56L122.35,34.58L121.41,34.42L120.61,34.09L120.55,34.05"/><path d="M121.46,37.32L121.42,37.89L121.70,38.43L122.27,38.89L123.07,39.22L124.02,39.38L125.00,39.35L125.91,39.15L126.67,38.78L127.17,38.30L127.37,37.75L127.25,37.19L126.82,36.68L126.12,36.28L125.24,36.03L124.26,35.96L123.30,36.08L122.45,36.37L121.82,36.80L121.46,37.32"/><path d="M121.65,28.74L121.42,28.30L121.46,27.74L121.82,27.21L122.45,26.78L123.30,26.49L124.26,26.38L125.24,26.45L126.12,26.69L126.82,27.09L127.25,27.60L127.37,28.16L127.17,28.71L126.66,29.20L125.91,29.56L125.00,29.77L124.02,29.79L123.07,29.63L122.27,29.30L121.70,28.84L121.65,28.74"/><path d="M126.68,62.48L127.04,63.93L127.76,65.34L128.82,66.68L130.21,67.91L131.88,69.02L133.82,69.98L135.97,70.77L138.29,71.38L140.75,71.80L143.28,72.00L145.84,72.00L148.37,71.80L150.82,71.38L153.15,70.77L155.30,69.98L157.24,69.02L158.91,67.91L160.29,66.68L161.36,65.34L162.08,63.93L162.44,62.48"/><path d="M128.21,64.34L128.82,65.11L130.21,66.35L131.88,67.46L133.82,68.42L135.97,69.21L138.29,69.82L140.75,70.23L143.28,70.44L145.84,70.44L148.37,70.23L150.82,69.82L153.15,69.21L155.30,68.42L157.24,67.46L158.91,66.35L160.29,65.11L160.93,64.32L160.75,64.73L159.83,66.05L158.57,67.28L157.02,68.39L155.20,69.36L153.15,70.17L150.92,70.79L148.56,71.23L146.11,71.46L143.63,71.49L141.16,71.31L138.77,70.92L136.51,70.34L134.41,69.58L132.53,68.65L130.91,67.57L129.58,66.37L128.56,65.07L128.21,64.34L127.76,63.78L127.04,62.37L126.69,60.97"/><path d="M126.68,58.69L127.95,59.21L130.93,60.17L134.08,60.93L137.36,61.49L139.22,61.69L140.72,61.84L144.13,61.98L147.55,61.90L147.78,61.88L150.93,61.60L154.23,61.09L157.41,60.38L160.44,59.47L162.44,58.70"/><path d="M127.01,25.24L126.43,24.78L126.15,24.24L126.19,23.67L126.55,23.15L127.19,22.72L128.03,22.43L128.99,22.31L129.97,22.38L130.85,22.63L131.55,23.03L131.98,23.54L132.10,24.10L131.90,24.65L131.40,25.13L130.65,25.50L129.73,25.70L128.75,25.73L127.81,25.57L127.01,25.24"/><path d="M127.52,41.85L127.67,42.14L127.98,42.39L128.41,42.57L128.92,42.65L129.45,42.64L129.94,42.53L130.35,42.34L130.62,42.07L130.73,41.78L130.66,41.48L130.42,41.20L130.05,40.99L129.58,40.85L129.05,40.82L128.53,40.88L128.08,41.03L127.74,41.27L127.54,41.55L127.52,41.85"/><path d="M129.32,34.07L129.16,32.88L129.35,31.50L129.91,30.15L130.84,28.87L132.10,27.69L133.67,26.64L135.51,25.74L137.57,25.01L139.80,24.48L142.15,24.16L144.56,24.05L146.97,24.16L149.32,24.48L151.55,25.01L153.61,25.74L155.45,26.64L157.02,27.69L158.28,28.87L159.21,30.15L159.77,31.50L159.96,32.88L159.77,34.26L159.21,35.61L158.28,36.89L157.02,38.07L155.45,39.13L153.61,40.03L151.55,40.75L149.32,41.28L146.97,41.61L144.56,41.72L142.15,41.61L139.80,41.28L137.57,40.75L135.51,40.03L133.67,39.13L132.10,38.07L130.84,36.89L129.91,35.61L129.35,34.26L129.32,34.07"/><path d="M151.94,25.54L153.41,26.06L155.21,26.94L156.74,27.97L157.97,29.13L158.88,30.38L159.43,31.69L159.62,33.05L159.43,34.40L158.88,35.71L157.97,36.97L156.74,38.12L155.20,39.15L153.41,40.03L151.39,40.74L149.21,41.26L146.91,41.57L144.56,41.68L142.20,41.57L139.91,41.26L137.72,40.74L135.71,40.03L133.91,39.15L132.38,38.12L131.14,36.97L130.24,35.71L129.69,34.40L129.50,33.05L129.69,31.69L130.24,30.38L131.14,29.13L132.38,27.97L133.91,26.94L135.71,26.06L136.23,25.88"/><path d="M158.80,33.80L158.69,33.34L157.99,32.06L156.95,30.86L155.59,29.78L153.94,28.83L152.05,28.05L149.97,27.46L147.74,27.06L145.43,26.87L143.10,26.90L140.81,27.14L138.62,27.59L136.57,28.23L134.74,29.06L133.16,30.04L131.87,31.15L130.92,32.37L130.32,33.66L130.29,33.81"/><path d="M130.44,34.32L130.92,33.29L131.87,32.08L133.16,30.96L134.74,29.98L136.57,29.15L138.62,28.51L140.81,28.06L143.10,27.82L145.43,27.79L147.74,27.98L149.97,28.38L152.05,28.98L153.94,29.76L155.59,30.70L156.95,31.79L157.99,32.98L158.69,34.26L158.70,34.30"/><path d="M157.24,70.75L155.30,71.71L153.15,72.51L150.82,73.11L148.37,73.53L145.84,73.74L143.28,73.74L140.75,73.53L138.29,73.11L135.97,72.50L133.82,71.71L131.88,70.75"/><path d="M131.60,36.47L131.94,36.05L133.21,34.94L134.79,33.96L136.61,33.14L138.64,32.50L140.83,32.05L143.11,31.81L145.43,31.79L147.73,31.97L149.94,32.37L152.01,32.96L153.90,33.74L155.54,34.68L156.89,35.76L157.49,36.45"/><path d="M133.48,45.14L133.24,44.67L133.28,44.10L133.64,43.58L134.27,43.15L135.12,42.86L136.08,42.74L137.06,42.81L137.94,43.06L138.64,43.46L139.07,43.96L139.19,44.52L138.99,45.08L138.48,45.56L137.73,45.93L136.82,46.13L135.83,46.15L134.89,45.99L134.09,45.67L133.52,45.21L133.48,45.14"/><path d="M133.42,21.88L133.52,22.06L134.09,22.52L134.89,22.85L135.83,23.01L136.82,22.99L137.73,22.78L138.48,22.42L138.99,21.93L139.19,21.38L139.07,20.82L138.63,20.32L137.94,19.92L137.06,19.67L136.08,19.60L135.12,19.71L134.27,20.00L133.64,20.43L133.28,20.96L133.24,21.52L133.42,21.88"/><path d="M155.23,38.40L153.94,37.67L152.05,36.88L149.97,36.29L147.74,35.89L145.43,35.70L143.10,35.73L140.81,35.97L138.62,36.42L136.57,37.06L134.74,37.89L133.88,38.42"/><path d="M136.38,39.67L137.78,39.18L139.94,38.67L142.22,38.35L144.56,38.25L146.90,38.35L149.18,38.67L151.34,39.18L152.76,39.68"/><path d="M152.36,39.83L152.05,39.71L149.97,39.11L147.74,38.71L145.43,38.52L143.10,38.55L140.81,38.79L138.62,39.24L136.78,39.82"/><path d="M136.38,25.82L137.72,25.35L138.19,25.24"/><path d="M138.68,25.12L139.91,24.83L140.31,24.78"/><path d="M142.57,24.50L142.20,24.52L141.08,24.67"/><path d="M141.82,46.05L141.59,45.62L141.63,45.06L141.99,44.53L142.63,44.10L143.47,43.81L144.44,43.69L145.41,43.76L146.30,44.01L146.86,44.33L146.99,44.41L147.42,44.92L147.54,45.48L147.34,46.03L146.84,46.51L146.09,46.88L145.17,47.08L144.19,47.11L143.25,46.95L142.45,46.62L141.87,46.16L141.82,46.05"/><path d="M141.84,21.04L141.59,20.57L141.63,20.01L141.99,19.48L142.63,19.05L143.17,18.87L143.47,18.76L144.44,18.65L145.41,18.71L146.30,18.96L146.86,19.28L146.99,19.36L147.42,19.87L147.54,20.43L147.34,20.98L146.84,21.47L146.09,21.83L145.17,22.03L144.19,22.06L143.25,21.90L142.45,21.57L141.87,21.11L141.84,21.04"/><path d="M143.46,24.46L144.56,24.41L144.91,24.43"/><path d="M147.26,24.56L146.91,24.52L145.79,24.47"/><path d="M148.01,24.67L149.21,24.83L149.58,24.92"/><path d="M150.05,44.85L150.23,45.21L150.80,45.67L151.60,45.99L152.55,46.15L153.53,46.13L154.44,45.93L155.20,45.56L155.70,45.08L155.90,44.52L155.78,43.96L155.35,43.46L154.65,43.06L153.77,42.81L152.79,42.74L151.83,42.86L150.98,43.15L150.35,43.58L149.99,44.10L149.95,44.67L150.05,44.85"/><path d="M150.06,25.03L151.39,25.35L151.78,25.49"/><path d="M150.14,21.90L149.95,21.52L149.99,20.96L150.35,20.43L150.98,20.00L151.83,19.71L152.79,19.60L153.77,19.67L154.65,19.92L155.35,20.32L155.78,20.82L155.90,21.38L155.70,21.93L155.20,22.42L154.45,22.78L153.53,22.99L152.55,23.01L151.60,22.85L150.80,22.52L150.23,22.06L150.14,21.90"/><path d="M157.65,42.76L157.32,42.49L157.03,41.95L157.07,41.39L157.43,40.86L158.07,40.43L158.91,40.14L159.88,40.03L160.85,40.10L161.74,40.34L162.43,40.74L162.86,41.25L162.99,41.81L162.78,42.36L162.28,42.85L161.53,43.21L160.61,43.42L159.63,43.44L158.69,43.28L157.89,42.95L157.65,42.76"/><path d="M158.40,24.14L158.43,23.84L158.62,23.55L158.96,23.32L159.42,23.17L159.93,23.10L160.46,23.14L160.94,23.27L161.31,23.49L161.54,23.76L161.61,24.06L161.50,24.36L161.23,24.62L160.82,24.82L160.33,24.93L159.85,24.94L159.80,24.94L159.29,24.86L158.86,24.68L158.55,24.43L158.40,24.14"/><path d="M160.93,64.32L161.36,63.78L162.08,62.37L162.43,60.97"/><path d="M162.01,38.36L162.05,38.43L162.62,38.89L163.42,39.22L164.36,39.38L165.35,39.35L166.26,39.15L167.01,38.78L167.52,38.30L167.72,37.75L167.60,37.19L167.17,36.68L166.47,36.28L165.59,36.03L164.61,35.96L163.65,36.08L162.80,36.37L162.17,36.80L161.81,37.32L161.77,37.89L162.01,38.36"/><path d="M161.93,28.62L161.77,28.30L161.81,27.74L162.17,27.21L162.80,26.78L163.30,26.61L163.65,26.49L164.61,26.38L165.59,26.45L166.47,26.69L167.17,27.09L167.60,27.60L167.72,28.16L167.52,28.71L167.01,29.20L166.26,29.56L165.35,29.77L164.36,29.79L163.42,29.63L162.62,29.30L162.05,28.84L161.93,28.62"/><path d="M164.28,34.09L163.71,33.64L163.43,33.09L163.47,32.53L163.83,32.01L164.46,31.57L165.00,31.39L165.31,31.29L166.27,31.17L167.25,31.24L168.13,31.49L168.83,31.89L169.26,32.39L169.38,32.95L169.18,33.51L168.68,33.99L167.93,34.36L167.01,34.56L166.03,34.58L165.08,34.42L164.28,34.09"/></g><g style="stroke:#000000;stroke-width:0.529"><path d="M126.68,58.69L125.16,58.07L122.62,56.77L120.34,55.30L118.35,53.71L116.68,52.00L115.92,50.96L115.35,50.19L114.38,48.31L113.77,46.38L113.53,44.43L113.53,33.13L113.67,31.17L114.19,29.23L115.07,27.34L115.91,26.10L116.32,25.51L117.90,23.77L119.81,22.14L122.02,20.65L124.50,19.30L125.80,18.74L127.23,18.12L130.17,17.11L133.28,16.30L134.80,16.02L136.53,15.69L139.87,15.29L143.28,15.10L146.56,15.13L150.09,15.37L153.41,15.82L156.40,16.44L156.63,16.49L159.70,17.35L162.59,18.40L165.26,19.62L167.68,21.01L169.81,22.54L171.64,24.20L173.15,25.96L174.30,27.80L175.09,29.71L175.52,31.66L175.56,33.62L175.56,44.92L175.23,46.87L174.53,48.79L173.47,50.65L172.05,52.43L170.45,53.98"/><path d="M162.44,58.70L162.44,60.92L162.43,60.97L162.44,61.01L162.44,64.21L162.08,65.67L161.36,67.07L160.29,68.41L158.91,69.64L157.24,70.75L156.83,70.99L154.96,71.92L152.88,72.69L150.62,73.28L148.25,73.68L145.80,73.88L143.32,73.88L140.87,73.68L138.49,73.28L136.24,72.69L134.16,71.92L132.29,70.99L131.88,70.75L130.21,69.64L128.82,68.41L127.76,67.07L127.04,65.67L126.68,64.21L126.68,61.01L126.68,61.03"/><path d="M126.68,61.01L126.69,60.97L126.68,60.89"/><path d="M126.68,60.92L126.68,58.69"/><path d="M169.48,54.74L168.24,55.68L165.89,57.11L163.28,58.37L162.44,58.70"/></g></g><g id="Actor_.18"><g style="stroke:#000000;stroke-width:0.176"><path d="M163.30,38.28L162.93,37.51L164.25,36.76L166.05,37.03L166.53,38.06L165.22,38.82L163.42,38.54L163.30,38.28"/><path d="M163.69,38.59L164.25,38.26L164.25,36.76"/><path d="M163.71,38.59L163.95,38.49L164.45,38.38L164.98,38.38L165.15,38.40L165.48,38.48L165.67,38.56"/><path d="M164.25,38.26L165.15,38.40L165.05,38.80"/><path d="M165.15,38.40L165.78,38.50"/><path d="M164.98,38.38L164.92,38.77"/><path d="M166.05,38.34L166.05,37.03"/></g><g style="stroke:#000000;stroke-width:0.529"><path d="M167.49,38.32L167.49,38.09L167.47,38.00L167.38,37.59L167.33,37.51L167.06,37.14L166.63,36.82L166.58,36.79L166.04,36.55L165.41,36.40L164.73,36.35L164.06,36.40L163.43,36.55L162.89,36.79L162.83,36.82L162.41,37.14L162.14,37.51L162.09,37.59L161.99,38.00L161.98,38.09L161.98,38.29"/></g></g><g id="Actor_.19"><g style="stroke:#000000;stroke-width:0.176"><path d="M145.50,46.29L145.31,46.21L144.98,46.13L144.08,46.00L143.51,46.32"/><path d="M143.54,46.32L143.77,46.22L144.27,46.12L144.80,46.11L144.75,46.51"/><path d="M145.88,46.07L145.88,44.77L146.36,45.80L145.04,46.55L143.24,46.28L142.76,45.24L144.08,44.49L144.08,46.00"/><path d="M144.08,44.49L145.88,44.77"/><path d="M144.88,46.53L144.98,46.13L145.60,46.23"/><path d="M144.98,46.13L144.80,46.11"/></g><g style="stroke:#000000;stroke-width:0.529"><path d="M147.32,46.06L147.32,45.82L147.30,45.73L147.21,45.32L147.16,45.25L146.89,44.87L146.46,44.55L146.40,44.52L145.86,44.28L145.23,44.13L144.56,44.08L143.88,44.13L143.26,44.28L142.72,44.52L142.66,44.55L142.23,44.87L141.96,45.25L141.91,45.32L141.82,45.73L141.80,45.82L141.80,46.02"/></g></g><g id="Actor_.20"><g style="stroke:#000000;stroke-width:0.176"><path d="M121.41,33.75L123.20,34.03L124.52,33.27L124.04,32.24L122.24,31.96L120.92,32.72L121.41,33.75"/><path d="M122.24,31.96L122.24,33.47L121.68,33.79"/><path d="M122.24,33.47L123.14,33.61L123.47,33.68L123.66,33.77"/><path d="M121.70,33.80L121.94,33.69L122.44,33.59L122.97,33.59L122.91,33.98"/><path d="M123.04,34.00L123.14,33.61L123.77,33.70"/><path d="M123.14,33.61L122.97,33.59"/><path d="M124.04,32.24L124.04,33.55"/></g><g style="stroke:#000000;stroke-width:0.529"><path d="M125.48,33.53L125.48,33.30L125.46,33.20L125.37,32.80L125.32,32.72L125.05,32.35L124.62,32.03L124.57,32.00L124.03,31.76L123.40,31.61L122.72,31.56L122.05,31.61L121.42,31.76L120.88,32.00L120.82,32.03L120.39,32.35L120.13,32.72L120.08,32.80L119.98,33.20L119.96,33.30L119.96,33.49"/></g></g><g><g><path style="stroke:#000000;stroke-width:0.125;stroke-dasharray:3.1 2.1 1.0 2.1" d="M144.54,73.88L144.54,87.58"/></g></g><g><g/><g><text xml:space="preserve" fill="#000000" stroke-width="0" x="5.20" y="6.95" font-size="4.53" opacity="1.00" font-family="Arial" font-weight="bold">BPA10729</text></g></g><g id="PMI.0"><g><path style="stroke:#000000;stroke-width:0.125" d="M192.20,59.13L165.77,53.46"/></g><g><path style="fill:#000000" d="M166.52,53.46L166.51,53.38L166.50,53.31L166.48,53.24L166.46,53.17L166.43,53.10L166.39,53.04L166.35,52.98L166.30,52.93L166.24,52.88L166.18,52.83L166.12,52.80L166.05,52.77L165.98,52.74L165.91,52.72L165.84,52.71L165.77,52.71L165.69,52.71L165.62,52.72L165.55,52.74L165.48,52.77L165.41,52.80L165.35,52.83L165.29,52.88L165.24,52.93L165.19,52.98L165.14,53.04L165.10,53.10L165.07,53.17L165.05,53.24L165.03,53.31L165.02,53.38L165.02,53.46L165.02,53.53L165.03,53.60L165.05,53.68L165.07,53.75L165.10,53.81L165.14,53.87L165.19,53.93L165.24,53.99L165.29,54.04L165.35,54.08L165.41,54.12L165.48,54.15L165.55,54.18L165.62,54.19L165.69,54.20L165.77,54.21L165.84,54.20L165.91,54.19L165.98,54.18L166.05,54.15L166.12,54.12L166.18,54.08L166.24,54.04L166.30,53.99L166.35,53.93L166.39,53.87L166.43,53.81L166.46,53.75L166.48,53.68L166.50,53.60L166.51,53.53z"/></g><g><text xml:space="preserve" fill="#000000" stroke-width="0" x="192.97" y="62.61" font-size="3.80" opacity="1.00" font-family="Arial">BPA10730</text></g></g><g/><g id="paperID" visibility="hidden" opacity="0.00" transform="scale(0.000100)"><path style="stroke:#000000;stroke-width:0.500;fill:#e6e6e6;fill-rule:evenodd" d="M-2000.00,-2000.00L2297.00,-2000.00L2297.00,2210.00L-2000.00,2210.00zM0.00,0.00L297.00,0.00L297.00,210.00L0.00,210.00z"/><path style="fill:#000000;fill-opacity:0.118" d="M3.00,210.00L297.00,210.00L297.00,3.00L300.00,3.00L300.00,213.00L3.00,213.00z"/></g><g id="hotspot.0" onmouseover="ShowHotSpot(evt,'0')" onmouseout="HideHotSpot(evt,'0')" onmousemove="ShowToolTip(evt,'0',&quot;Hotspot 1&quot;)" opacity="0"><a xlink:href=".\BPA10730.svg"><path style="fill:#ff8000;fill-rule:evenodd" d="M153.09,15.69L158.81,16.99L163.76,18.81L166.61,20.38L168.69,21.68L171.30,23.75L173.64,26.62L174.94,29.22L175.46,31.30L175.46,45.68L175.21,46.99L174.16,49.33L172.86,51.41L170.15,54.17L170.87,54.61L169.38,54.68L167.14,56.35L162.63,58.61L162.45,64.15L161.86,66.15L160.38,68.32L158.71,69.77L154.83,71.87L151.52,72.98L147.03,73.69L142.17,73.69L138.25,73.19L133.59,71.61L129.71,69.25L127.89,67.17L127.07,65.64L126.82,64.59L126.57,58.60L122.40,56.53L119.56,54.68L116.96,52.34L115.12,49.77L114.33,48.21L113.81,46.40L113.81,30.59L114.60,28.26L116.05,25.81L118.52,23.08L122.84,20.11L127.26,18.03L133.24,16.21L140.27,15.17L148.67,15.17zM191.26,59.71L191.15,59.56L192.13,59.64zM211.11,61.19L211.02,63.56L209.79,63.54L209.53,63.28L209.53,61.03L209.96,60.65L210.57,60.65zM209.04,61.20L209.01,63.37L208.70,63.58L207.43,63.56L207.37,62.74L207.66,62.76L207.92,63.10L208.42,63.04L208.50,62.53L207.86,62.29L207.85,62.03L208.51,61.57L208.28,61.19L207.86,61.45L207.35,61.56L207.34,60.97L207.88,60.65L208.49,60.65zM204.92,61.35L204.86,62.86L204.50,63.54L203.29,63.54L203.03,63.28L203.01,61.27L203.45,60.65L204.07,60.65zM197.82,60.94L197.84,62.34L196.43,62.49L196.25,63.68L195.94,63.67L195.91,60.67L197.33,60.67zM195.26,61.20L195.22,63.37L194.91,63.58L193.31,63.64L193.31,60.67L194.72,60.67zM200.42,62.50L200.69,63.65L200.19,63.56L199.90,63.03L198.79,63.03L198.58,63.64L198.00,63.65L198.05,63.12L199.07,60.67L199.62,60.66zM204.92,61.35L205.00,60.95L206.96,60.95L206.97,61.27L206.71,61.58L205.85,63.66L205.57,63.67L205.61,62.32L205.91,61.47zM201.08,61.48L202.00,60.68L201.96,63.67L201.66,63.67L201.44,62.00zM210.59,61.42L210.56,63.14L210.06,63.06L210.05,61.26L210.34,61.17zM197.38,61.47L197.33,61.81L196.41,61.81L196.42,61.20L197.06,61.15zM194.74,61.43L194.65,61.73L193.82,61.82L193.82,61.20L194.47,61.16zM204.36,61.71L204.35,62.60L204.05,63.13L203.56,63.06L203.52,61.51L203.75,61.18L204.04,61.18zM199.61,62.37L199.02,62.23L199.40,61.73zM194.65,63.02L193.82,63.11L193.81,62.51L194.73,62.51z"/></a></g></g></svg>
