<?xml version="1.0" encoding="UTF-8" standalone="no"?>
<svg xmlns="http://www.w3.org/2000/svg" xmlns:xlink="http://www.w3.org/1999/xlink" width="297.000mm" height="210.000mm" viewBox="0.000000 0.000000 297.000000 210.000000" stroke-linejoin="round" stroke-linecap="round" fill="none" fill-rule="evenodd"><desc>Composer Export</desc><script type="text/ecmascript"><![CDATA[
if(typeof(top) != "undefined")
{
	top.ShowPaper = ShowPaper;
}
function ShowHotSpot(evt,hotspotid)
{
	var svgDocument = evt.target.ownerDocument;
	var strId = "hotspot."+hotspotid;
	var hotspot = svgDocument.getElementById(strId);
	if(hotspot)
		hotspot.setAttribute("opacity",".5");
}
function HideHotSpot(evt,hotspotid)
{
	var svgDocument = evt.target.ownerDocument;
	var strId = "hotspot."+hotspotid;
	var hotspot = svgDocument.getElementById(strId);
	if(hotspot)
		hotspot.setAttribute("opacity","0");

	var toolTip = svgDocument.getElementById('ToolTip');
	if(toolTip)
		toolTip.setAttribute("visibility","hidden");
}
function ShowToolTip(evt,hotspotid,strTooltip)
{
	if(strTooltip=="")
	return;

	// change text
	var svgDocument = evt.target.ownerDocument;
	var tiptext = svgDocument.getElementById('ToolTipText');
	if( !tiptext )
	return;
	tiptext.firstChild.nodeValue = " " + strTooltip + "  " ;

	// show tooltip before, else some refresh issue

	var toolTip = svgDocument.getElementById('ToolTip');
	if(!toolTip)
	return;

	toolTip.setAttribute("visibility","visible");
	toolTip.setAttribute("opacity",".95");

	// move tooltip
	// get viewbox

	var root = svgDocument.documentElement;
	var vbox = (root.getAttribute("viewBox")).split(' ');
	var x0 = parseFloat(vbox[0]);
	var y0 = parseFloat(vbox[1]);
	var vboxW = parseFloat(vbox[2]);
	var vboxH = parseFloat(vbox[3]);

	// get default width of svg

	var strW = root.getAttribute("width");
	var svgW = parseFloat(strW);
	if(strW.indexOf('mm') != -1)
	svgW *= 3.779;

	var strH = root.getAttribute("height");
	var svgH = parseFloat(strH);
	if(strH.indexOf('mm') != -1)
	svgH *= 3.779;  	// 96 dpi  -> 96/25.4 = 3.779

	// update the viewbox / width / height if svg is embedded in html with zoom fit all
	var realx0 = x0;
	var realy0 = y0;
	var realvboxW = vboxW;
	var realvboxH = vboxH;
	var realsvgW = svgW;
	var realsvgH = svgH;

	if ((typeof(top) == "undefined") || (typeof(top.svgctl1) != "undefined")) // embedded in html
	{
		// get window size in pxl

		svgW = window.innerWidth;
		svgH = window.innerHeight;

		// calculate real viewbox

		realsvgW = svgW;
		realsvgH = svgH;
		if((svgW / svgH) > (vboxW / vboxH))
		{
			realvboxW = (vboxH * svgW) / svgH;
			realvboxH = vboxH;
			realx0 = x0 - (realvboxW - vboxW)/2 ;
		}
		else
		{
			realvboxH = (vboxW * svgH) / svgW;
			realvboxW = vboxW;
			realy0 = y0 - (realvboxH - vboxH)/2 ;
		}
	}

	// get user zoom/pan

	var newScale = root.currentScale;
	var translation = root.currentTranslate;

	// transform pxl to user unit

	var xPos = (((evt.clientX+10- translation.x)/newScale) * realvboxW)/realsvgW  + realx0 ;
	var yPos = (((evt.clientY+5- translation.y)/newScale) * realvboxH)/ realsvgH  + realy0 ;
	var scaleForWidth = ( (1 / newScale) * realvboxH) / realsvgH;

	// move tooltip

	toolTip.setAttribute("transform", "translate(" + xPos + "," + yPos + ")" );

	// resize tooltip

	var fontsize = 12;
	tiptext.setAttribute("font-size",fontsize*scaleForWidth);
	tiptext.setAttribute("y", fontsize*scaleForWidth);
	var tipBG = svgDocument.getElementById('ToolTipBG');
	var outline = tiptext.getBBox();
	if(tipBG)
	{
		tipBG.setAttribute("stroke-width", 1*scaleForWidth);
		tipBG.setAttribute("width", Number(outline.width) );
		tipBG.setAttribute("height", Number(outline.height) + fontsize*.5*scaleForWidth );
	}
	var ToolTipShadow = svgDocument.getElementById('ToolTipShadow');
	if(ToolTipShadow)
	{
		ToolTipShadow.setAttribute("width", Number(outline.width) );
		ToolTipShadow.setAttribute("height", Number(outline.height) + fontsize*.5*scaleForWidth );
		ToolTipShadow.setAttribute("x", 3*scaleForWidth);
		ToolTipShadow.setAttribute("y", 3*scaleForWidth);
	}
}
function ShowPaper()
{
  var svgDocument = getDocument();
  var paper = svgDocument.getElementById("paperID");
  if(paper)
  {
    paper.setAttribute("transform","scale(1)");
    paper.setAttribute("opacity","1");
    paper.setAttribute("visibility","visible");
  }
  var svg = svgDocument.getRootElement();
  if(svg)
  {
    svg.setAttribute("width","307.000mm");
    svg.setAttribute("height","220.000mm");
    svg.setAttribute("viewBox","-5.000000 -5.000000 307.000000 220.000000");
  }
}
]]></script><defs/><g><path style="fill:#000000;fill-opacity:0.098;fill-rule:evenodd" d="M165.70,182.51L165.71,184.43L162.92,186.08L162.87,186.44L163.22,186.38L166.00,184.73L166.26,183.82L166.43,183.84L166.59,182.90L166.36,182.68L167.69,181.93L167.55,185.72L166.31,186.31L166.79,185.89L167.16,185.70L167.18,184.54L166.74,184.72L166.62,185.35L164.35,186.74L163.29,187.52L162.69,187.66L161.76,188.23L161.76,188.64L162.15,188.61L163.05,188.02L163.56,187.97L161.84,189.00L161.23,189.20L161.29,184.23L165.35,181.96zM167.16,185.70L166.79,185.89L166.31,186.31L165.51,186.62L165.02,187.05L163.98,187.47L163.56,187.97L163.05,188.02L162.15,188.61L161.76,188.64L161.76,188.23L162.69,187.66L163.29,187.52L164.35,186.74L166.62,185.35L166.74,184.72L167.18,184.54zM141.48,74.39L141.64,76.30L141.46,77.03L140.86,77.72L140.67,82.85L138.16,84.37L137.55,84.58L137.61,77.22L140.55,75.55L140.57,75.14L140.34,74.76L140.29,74.41L141.05,74.01L141.27,74.03zM135.23,78.80L135.23,80.53L134.97,81.00L130.02,83.97L130.07,84.50L130.46,85.80L130.92,85.78L131.94,85.23L132.65,85.60L133.40,86.14L130.94,87.63L134.30,100.47L134.67,103.96L134.66,126.03L134.44,126.18L134.31,148.99L133.76,150.28L133.12,150.74L131.32,151.69L130.23,151.73L130.14,151.63L131.48,151.12L132.11,149.73L132.10,103.22L131.36,99.74L126.96,83.41L126.77,82.55L128.96,81.18L128.95,81.01L134.62,77.67L134.84,77.70zM121.41,80.27L121.01,80.27L121.21,80.07L121.45,80.07zM126.05,83.40L126.42,85.46L126.03,86.57L120.35,89.88L120.29,91.73L120.91,91.53L122.02,90.93L122.02,92.65L120.29,93.68L120.19,147.36L118.25,148.57L117.91,148.64L117.97,35.73L119.94,34.54L120.16,34.55L120.29,85.86L120.90,85.66L125.44,83.01L125.85,83.02zM115.59,90.19L115.59,91.73L115.20,92.44L111.91,94.29L111.74,99.45L109.47,100.84L108.73,101.10L108.79,93.74L111.73,92.01L111.32,91.10L114.79,89.06L115.20,89.08zM102.18,91.91L101.80,92.62L101.80,94.06L102.01,94.60L101.85,95.06L101.40,95.22L101.07,94.42L101.07,92.26L101.61,91.52L102.74,91.47zM106.04,96.11L105.26,96.63L103.94,96.62L104.69,96.43L104.95,95.95L105.07,95.15L105.48,95.02L105.66,94.22zM155.98,141.93L156.15,142.69L156.14,146.60L155.36,147.10L155.25,148.64L154.73,149.05L153.95,149.36L153.78,151.58L152.42,152.42L152.31,154.32L151.32,155.00L150.77,155.06L150.83,153.21L152.12,152.45L152.13,152.25L150.83,151.48L150.21,151.49L149.17,152.11L148.99,163.14L148.99,149.83L149.36,150.05L149.72,150.11L149.73,146.17L149.48,145.27L155.54,141.75L155.80,141.74zM155.43,149.54L154.80,149.55L154.73,149.05L155.44,149.12zM154.47,151.03L154.26,151.04L154.26,150.38L154.66,150.36zM157.08,151.57L156.09,152.25L155.54,152.31L155.60,150.46L157.08,149.67zM149.83,152.06L150.22,151.83L150.47,151.87L150.47,152.28L150.23,152.46L149.89,152.42zM149.88,153.14L149.86,153.55L150.08,153.73L150.12,154.11L149.49,153.76L149.55,152.95zM160.19,155.22L158.53,156.16L158.53,154.86L160.02,154.07zM162.57,155.91L162.57,158.16L162.02,158.53L161.04,158.84L160.00,159.45L159.44,159.99L156.64,161.62L156.33,161.61L156.33,158.35L162.41,154.99zM157.37,155.78L157.99,155.90L157.35,156.26L157.07,156.89L156.07,157.56L155.62,157.56L154.81,157.00L156.45,156.08L156.81,155.34L157.27,155.18zM165.88,159.75L165.26,159.75L164.42,160.22L163.86,160.36L160.92,162.21L160.74,164.04L160.74,166.18L160.92,167.83L161.50,168.20L161.50,168.45L160.56,169.00L159.94,169.20L159.98,161.82L161.04,161.04L166.55,157.93L167.34,157.72L167.36,160.55zM161.88,159.63L160.36,160.56L160.30,160.15L161.61,159.36L161.85,159.38zM167.37,161.28L166.47,161.33L167.11,160.83L167.36,160.86zM163.20,161.35L164.35,160.66L164.60,162.16L164.45,162.61L163.91,162.82L164.07,162.21L164.23,161.95L163.68,161.39zM166.23,161.84L166.17,161.42L166.47,161.33zM162.50,161.76L163.20,161.35L162.95,162.01zM164.03,163.63L164.39,164.20L164.90,164.19L165.70,163.49L166.02,162.90L166.42,162.74L166.71,161.93L167.10,161.57L167.53,161.58L167.34,166.24L166.24,166.81L166.08,165.80L165.51,165.43L165.08,165.43L164.68,165.82L165.00,166.43L164.55,166.75L163.78,166.73L164.42,165.70L164.41,164.72L164.06,164.52L163.12,164.60L162.92,165.06L162.68,165.64L162.41,165.65L161.84,166.06L161.23,166.26L161.25,164.14L161.47,164.14L161.43,165.28L162.32,165.28L162.58,164.97L162.70,163.44L163.61,162.87L163.91,162.82zM175.36,164.06L175.97,163.85L197.26,151.56L198.01,150.76L198.01,152.12L197.82,152.48L196.92,153.23L175.36,165.63L175.26,168.46L175.07,168.64L174.44,168.83L174.50,161.66L175.01,161.38L175.24,161.40zM159.09,161.67L158.66,161.97L157.62,162.76L157.56,164.04L158.90,165.10L158.89,166.97L157.62,167.73L157.43,167.09L157.19,168.05L156.82,168.09L156.88,166.74L156.27,166.37L155.78,167.71L155.17,168.20L154.44,168.46L154.44,166.35L154.68,166.32L154.89,166.53L154.85,167.48L155.34,167.48L155.62,167.15L155.62,166.77L155.43,166.78L155.35,164.33L155.58,164.31L156.50,164.92L157.06,164.98L157.25,162.21L159.29,161.05zM163.13,168.62L162.76,168.84L162.77,167.31L162.95,167.28zM164.42,167.91L163.97,168.38L163.43,168.47L163.50,167.54L163.81,167.10L164.41,167.09zM167.51,173.99L167.32,173.97L167.14,173.52L166.93,173.49L166.18,173.89L165.67,174.49L163.26,175.92L162.32,176.09L161.77,176.48L161.83,177.64L162.43,177.40L162.40,177.59L161.29,178.19L161.29,173.22L167.47,169.65L167.55,169.67zM158.16,176.47L158.33,177.26L158.65,176.80L158.90,176.81L159.83,177.45L159.21,177.93L158.54,178.13L158.28,178.48L157.62,178.54L157.42,178.12L157.44,178.94L156.87,179.28L156.90,177.91L156.34,177.56L156.15,177.61L155.79,178.92L154.50,179.66L154.50,177.54L154.87,177.76L154.85,178.67L155.18,178.70L155.63,178.15L155.61,177.96L155.43,177.98L155.42,176.08L155.99,176.47L156.33,176.55L156.46,175.52L156.68,175.51zM170.50,178.84L170.47,179.10L170.03,179.10L170.08,178.72L170.31,178.64zM166.05,181.10L166.62,181.04L166.41,181.86L166.06,181.81zM158.35,187.67L158.34,188.46L158.71,187.87L160.20,188.74L160.20,189.94L157.43,191.57L156.82,191.77L156.88,188.95L156.51,188.72L156.28,188.76L155.95,189.73L155.80,191.41L155.36,191.70L155.23,192.49L149.67,195.74L148.93,196.00L148.99,189.11L154.33,192.12L154.44,188.74L154.69,188.73L154.87,188.90L154.81,190.13L155.35,190.05L155.80,189.36L155.81,188.97L155.36,189.02L155.36,187.27L155.58,187.26L156.35,187.72L156.46,186.72L156.68,186.71zM166.17,186.55L165.02,187.05L165.51,186.62L166.31,186.31zM164.89,187.28L163.56,187.97L163.98,187.47L165.02,187.05zM156.15,196.72L155.71,197.57L150.28,200.75L149.66,200.94L149.91,196.53L156.09,192.97L156.17,192.99zM153.19,147.34L153.20,146.77L153.76,146.71zM153.13,146.16L152.10,147.71L152.10,146.77L152.83,145.86L153.34,145.61L153.76,145.60zM156.71,150.55L156.71,151.39L156.55,151.60L156.09,151.76L156.15,150.64L156.54,150.38zM151.94,153.30L151.94,154.14L151.78,154.35L151.32,154.52L151.38,153.39L151.77,153.13zM167.17,164.55L167.20,164.77L166.67,165.20L165.87,165.09L165.67,164.21L165.88,163.78zM163.61,164.19L163.24,164.24L163.31,163.65L163.68,163.60zM167.01,165.44L167.00,165.69L166.72,166.02L166.36,166.07L166.43,165.52L166.67,165.20zM158.56,165.60L158.35,166.25L158.11,165.58L158.37,165.44zM157.62,166.56L157.39,166.61L157.42,166.18zM166.19,171.56L166.61,171.84L166.40,172.65L166.20,172.81L165.91,173.62L163.24,175.20L162.86,175.24L162.86,175.02L165.69,173.40L165.83,170.92L166.04,170.93zM163.13,173.85L162.94,174.69L162.77,174.66L162.70,173.69L162.95,173.67zM163.15,184.89L162.91,185.72L162.71,185.73L162.70,184.70L162.94,184.68zM157.62,188.77L157.39,188.82L157.42,188.39zM153.04,195.63L152.12,196.93L152.10,195.96L152.96,194.99L153.58,194.99z"/><g id="Actor_.0"><g style="stroke:#000000;stroke-width:0.176"><path d="M97.40,83.76L105.39,88.34L108.59,93.88L108.59,101.29L105.39,103.16"/><path d="M103.82,91.91L103.47,91.64L102.63,91.32L101.87,91.36L101.30,91.76L100.95,92.47L100.88,93.42L101.09,94.50L101.56,95.59L102.23,96.59L103.04,97.37L103.47,97.66L103.90,97.87L104.71,98.01L105.38,97.79L105.85,97.23L106.06,96.39L105.99,95.36L105.96,95.27"/><path d="M105.39,88.34L108.59,86.51"/><path d="M108.59,101.29L111.78,99.46"/><path d="M108.59,93.88L111.78,92.05"/></g><g style="stroke:#000000;stroke-width:0.529"><path d="M97.72,98.76L105.39,103.16L108.59,101.33L111.78,99.46L111.78,92.05L108.59,86.51L100.59,81.93L97.40,83.76L97.40,98.58L97.72,98.76"/><path d="M105.47,93.93L105.65,94.25L105.96,95.27"/></g></g><g id="Actor_.1"><g style="stroke:#000000;stroke-width:0.176"><path d="M153.79,145.66L153.47,145.65L153.11,145.78L152.76,146.06L152.44,146.44L152.19,146.89L152.05,147.36L152.03,147.62L152.02,147.79L152.11,148.15L152.30,148.39"/><path d="M152.83,145.86L152.62,146.02L152.32,146.38L152.08,146.81L151.95,147.25L151.93,147.42"/><path d="M153.25,147.79L153.35,147.82L153.48,147.80L153.55,147.77L153.61,147.72L153.74,147.60L153.84,147.45L153.91,147.28L153.94,147.12L153.93,146.97L153.90,146.89L153.88,146.86L153.79,146.80L153.67,146.79L153.55,146.84L153.42,146.94L153.30,147.08L153.21,147.24L153.16,147.41L153.15,147.57L153.16,147.62L153.18,147.70L153.25,147.79L153.20,147.77"/><path d="M153.30,147.80L153.25,147.81"/><path d="M153.39,148.19L153.39,148.19"/><path d="M153.88,146.86L153.84,146.82L153.81,146.77"/></g><g style="stroke:#000000;stroke-width:0.529"><path d="M153.39,148.19L153.06,148.38L152.93,148.42L152.59,148.48L152.30,148.39L152.25,148.34L152.05,148.11L152.02,148.06L152.00,148.00L151.92,147.66L151.93,147.42"/><path d="M153.39,148.19L153.74,147.85L153.98,147.50L154.14,147.12L154.16,147.06L154.24,146.64L154.21,146.27L154.18,146.13L154.03,145.83L153.79,145.66L153.73,145.64L153.66,145.64L153.35,145.62L153.29,145.63L152.95,145.76L152.83,145.86"/></g></g><g id="Actor_.2"><g style="stroke:#000000;stroke-width:0.176"><path d="M149.72,153.03L149.63,152.99L149.51,152.99L149.41,153.05L149.35,153.15L149.33,153.29L149.33,153.60L149.35,153.77L149.41,153.94L149.51,154.10L149.63,154.24L149.76,154.34L149.89,154.39L150.01,154.39L150.10,154.33L150.16,154.23L150.18,154.10L150.03,154.15L150.00,154.13L149.92,154.07L149.87,153.99L149.84,153.91L149.80,153.72L149.80,153.61L149.80,153.64L149.84,153.66L149.93,153.64L149.98,153.62L150.14,153.56L150.16,153.61L150.18,153.78L150.18,154.10"/><path d="M150.03,154.15L150.06,154.16L150.09,154.17L150.17,154.18"/><path d="M149.50,153.00L149.41,153.05"/><path d="M149.80,153.61L149.75,153.54L149.72,153.47L149.72,153.44"/><path d="M149.97,153.23L150.01,153.28L150.10,153.44L150.14,153.56"/><path d="M149.87,152.38L149.89,152.39L149.80,152.29"/><path d="M149.79,152.20L149.82,152.30"/><path d="M149.89,152.39L149.92,152.41"/><path d="M150.17,154.17L150.14,154.18"/><path d="M150.56,152.39L150.56,152.38L150.46,152.34L150.56,152.39L150.56,152.52L150.63,152.51L150.81,152.45"/><path d="M150.46,152.34L150.42,152.32L150.24,152.28L150.17,152.28"/><path d="M150.56,152.38L150.62,152.36L150.69,152.34L150.78,152.34L150.84,152.36L150.89,152.39L150.93,152.37L151.00,152.26"/><path d="M150.99,152.28L150.99,152.20"/><path d="M150.89,152.39L150.81,152.45"/><path d="M150.18,152.51L150.21,152.52L150.42,152.54L150.56,152.52"/><path d="M151.94,154.08L152.00,153.91L152.02,153.74L152.02,153.43L152.00,153.29L151.94,153.18L151.84,153.13L151.73,153.13L151.59,153.18L151.46,153.28L151.40,153.35L151.40,153.39L151.39,153.47L151.36,153.54L151.31,153.61L151.24,153.68L151.21,153.69L151.19,153.75L151.17,153.91L151.17,154.23L151.19,154.37L151.25,154.47L151.35,154.52L151.46,154.53L151.59,154.48L151.73,154.38L151.84,154.24L151.94,154.08"/><path d="M151.21,153.69L151.25,153.58L151.35,153.42L151.40,153.44"/><path d="M151.40,153.35L151.35,153.42"/><path d="M152.71,154.41L152.60,154.37"/><path d="M152.30,154.21L152.30,154.20L152.30,154.22"/><path d="M152.30,154.24L152.30,154.20L152.30,152.45"/><path d="M152.30,154.22L152.33,154.25L152.42,154.31"/><path d="M154.51,150.27L154.42,150.24L154.31,150.24L154.21,150.30L154.15,150.40L154.13,150.54L154.13,150.85L154.15,151.02L154.21,151.19L154.30,151.35L154.42,151.49L154.55,151.59L154.68,151.64L154.80,151.64L154.89,151.58L154.96,151.48L154.98,151.34L154.98,151.30L154.95,151.29L154.88,151.22L154.83,151.15L154.77,151.00L154.66,150.92L154.76,150.98L154.75,150.97L154.78,150.92L154.81,150.88L154.93,150.78L154.89,150.69L154.80,150.53L154.76,150.48"/><path d="M153.85,151.35L153.85,151.31"/><path d="M153.63,151.70L153.66,151.68"/><path d="M153.85,149.56L153.85,149.65"/><path d="M153.85,149.60L153.85,149.66"/><path d="M154.84,157.07L154.87,157.09L154.87,157.10L154.86,157.09L155.54,157.48L155.52,157.47"/><path d="M154.86,157.09L154.84,157.08"/><path d="M154.67,150.93L154.75,150.98"/><path d="M154.98,151.30L154.98,151.02L154.96,150.86L154.93,150.78"/><path d="M154.66,150.92L154.60,150.86L154.55,150.79L154.51,150.71L154.51,150.69"/><path d="M154.77,151.00L154.76,150.98"/><path d="M154.96,149.50L155.00,149.49L155.13,149.51L155.28,149.60L155.35,149.67L155.35,149.69L155.17,149.68L154.98,149.62"/><path d="M154.76,149.45L154.85,149.55L154.83,149.54"/><path d="M154.75,149.36L154.77,149.46"/><path d="M154.85,149.55L154.85,149.55"/><path d="M155.60,164.38L155.58,164.37L156.32,164.79L155.60,164.38"/><path d="M155.54,164.35L155.58,164.37L155.53,164.35L155.47,164.35"/><path d="M155.58,164.37L156.95,165.16"/><path d="M156.32,164.79L156.98,165.18L157.04,165.20L157.13,165.19L157.17,165.18L158.26,164.55"/><path d="M157.13,156.85L157.12,156.88L157.10,156.93L157.06,156.95L155.84,157.65L155.93,157.71L155.54,157.48L155.84,157.65"/><path d="M155.99,157.73L156.01,157.73L155.96,157.72"/><path d="M159.05,156.59L158.64,156.71L158.18,156.74L157.87,156.72L157.83,156.72L157.81,156.72L156.10,157.70L156.06,157.72L156.06,157.72"/><path d="M156.06,157.72L156.01,157.73"/><path d="M155.93,157.71L155.97,157.72L155.99,157.73"/><path d="M155.63,152.67L155.59,152.76"/><path d="M156.14,150.66L156.05,150.83L155.99,151.00L155.97,151.16L155.97,151.48L155.99,151.62L156.05,151.72L156.14,151.77L156.26,151.78L156.39,151.72L156.52,151.63L156.64,151.49L156.73,151.33L156.79,151.15L156.81,150.99L156.81,150.68L156.79,150.54L156.73,150.43L156.64,150.38L156.52,150.38L156.39,150.43L156.26,150.53L156.20,150.60"/><path d="M156.01,150.95L156.04,150.93L156.01,150.94"/><path d="M156.19,150.69L156.19,150.71L156.16,150.79L156.11,150.86L156.04,150.93"/><path d="M155.35,149.67L155.42,149.60L155.57,149.51L155.65,149.50L155.75,149.50"/><path d="M155.35,149.69L155.38,149.69L155.59,149.67L155.73,149.62"/><path d="M155.77,149.61L155.77,149.61"/><path d="M155.85,149.55L155.88,149.53L155.96,149.42"/><path d="M155.94,149.45L155.95,149.36"/><path d="M156.45,166.17L158.63,164.93"/><path d="M156.81,156.28L156.61,156.01L156.68,156.10"/><path d="M156.99,156.43L157.07,156.63L157.07,156.82L157.08,156.85"/><path d="M157.01,156.54L157.01,156.56"/><path d="M156.61,156.01L156.60,156.00"/><path d="M157.35,151.86L157.55,151.97"/><path d="M157.29,151.82L157.32,151.84L157.28,151.82L157.29,151.82"/><path d="M157.09,151.45L157.09,151.49L157.09,151.45"/><path d="M157.09,149.74L157.09,149.79"/><path d="M157.57,164.12L157.57,163.47L157.57,164.14L157.57,164.12L157.57,164.13"/><path d="M157.57,164.14L157.57,164.17"/><path d="M157.57,164.15L157.57,164.15"/><path d="M157.57,163.22L157.57,163.11L157.57,163.47"/><path d="M157.62,162.72L157.59,162.76L157.57,162.81L157.57,162.85L157.57,163.11"/><path d="M157.61,162.74L157.62,162.73L157.65,162.70L157.92,162.55"/><path d="M157.57,162.81L157.57,162.81"/><path d="M159.10,156.52L159.10,156.32L159.16,156.18L159.17,156.17L159.57,155.73L159.60,155.70L160.33,155.28L160.24,155.23L160.21,155.22L160.17,155.21L160.14,155.21L160.10,155.22L160.08,155.23L158.41,156.18L158.36,156.20L158.23,156.21"/><path d="M157.36,151.86L162.34,154.74"/><path d="M159.36,156.41L159.35,156.41L159.54,156.19"/><path d="M159.04,156.59L159.35,156.41"/><path d="M159.36,155.97L159.20,156.14L159.36,155.97"/><path d="M159.20,156.14L159.16,156.19L159.15,156.20"/><path d="M159.10,156.51L159.09,156.56"/><path d="M160.33,155.28L161.32,154.71"/><path d="M162.83,158.33L162.79,158.31"/></g><g style="stroke:#000000;stroke-width:0.529"><path d="M152.30,152.45L152.29,152.41L152.27,152.36L152.25,152.32L152.20,152.29L150.65,151.40L150.60,151.38L150.50,151.38L150.46,151.40L149.15,152.15L149.12,152.17L149.09,152.20L149.07,152.24L149.06,152.28L149.05,152.31L149.05,163.04L149.05,163.08L149.06,163.12L149.07,163.16L149.09,163.20L149.12,163.23L149.18,163.27L155.26,166.75L155.30,166.77L155.35,166.77L155.39,166.77L155.45,166.75L156.45,166.18"/><path d="M149.71,153.39L149.72,153.44L149.76,153.42L149.89,153.32L149.97,153.23L149.89,153.14L149.76,153.04L149.72,153.03L149.71,153.07L149.71,153.39"/><path d="M149.92,152.41L150.02,152.47L150.18,152.51L150.18,152.37L150.17,152.28L150.14,152.28L150.06,152.30L149.98,152.34L149.92,152.41"/><path d="M152.30,152.46L153.62,151.70L153.68,151.66L153.75,151.58L153.81,151.49L153.84,151.38L153.85,151.31L153.85,149.70L153.85,150.10"/><path d="M153.85,149.65L153.85,149.70L153.85,149.56L153.85,149.56"/><path d="M153.85,149.70L153.85,149.66"/><path d="M153.85,149.56L153.85,149.53L153.87,149.49L153.89,149.45L153.91,149.42L153.94,149.40L155.26,148.64L155.30,148.63L155.35,148.63L155.39,148.63L155.45,148.64L157.00,149.54L157.04,149.57L157.06,149.61L157.09,149.66L157.09,149.70L157.09,151.45L157.10,151.52L157.13,151.62L157.19,151.72L157.26,151.80L157.32,151.84L157.36,151.86"/><path d="M154.50,150.64L154.50,150.32L154.51,150.27L154.55,150.29L154.68,150.39L154.76,150.48L154.68,150.57L154.55,150.67L154.51,150.69L154.50,150.64"/><path d="M154.98,149.62L154.96,149.50L154.92,149.51L154.85,149.55L154.98,149.62"/><path d="M156.20,150.64L156.19,150.69L156.15,150.67L156.14,150.66L156.20,150.60L156.20,150.64"/><path d="M155.77,149.61L155.85,149.55L155.80,149.52L155.75,149.50L155.73,149.62L155.77,149.61"/><path d="M157.32,151.84L162.38,154.75L162.42,154.77L162.46,154.80L162.51,154.89L162.51,154.92L162.60,157.95L162.61,158.02L162.65,158.12L162.70,158.22L162.77,158.29L162.83,158.33L163.28,158.59L163.33,158.63L163.37,158.71L163.38,158.76L163.38,158.79"/><path d="M157.09,150.47L157.09,150.74L157.09,149.79"/><path d="M158.63,164.93L159.04,164.69"/><path d="M162.42,154.77L162.42,154.76"/></g></g><g id="Actor_.3"><g style="stroke:#000000;stroke-width:0.176"><path d="M149.79,153.07L149.76,153.09L149.71,153.11"/><path d="M154.50,150.36L154.55,150.34L154.58,150.32"/></g><g style="stroke:#000000;stroke-width:0.529"><path d="M148.70,145.31L148.49,145.43L148.40,145.50L148.32,145.59L148.26,145.70L148.22,145.82L148.21,145.93L148.21,199.10L148.22,199.20L148.28,199.30L148.30,199.32L148.96,199.70"/><path d="M155.30,191.77L155.30,192.48"/><path d="M155.30,147.10L155.30,148.63"/></g></g><g id="Actor_.4"><g style="stroke:#000000;stroke-width:0.176"><path d="M155.35,173.15L155.35,173.28L155.35,169.14L148.96,165.47"/><path d="M149.05,166.08L149.12,166.12L149.12,174.45"/><path d="M149.05,174.38L149.05,174.35"/><path d="M155.19,177.94L155.19,177.46L155.24,177.48L155.31,177.49L155.39,177.49L155.46,177.48L155.51,177.46L155.49,177.16L155.39,176.59L155.35,176.12L155.35,176.04L155.35,176.23L155.37,176.49L155.36,176.38"/><path d="M155.34,176.38L155.34,176.49L155.35,176.23L155.35,175.45L155.34,176.17"/><path d="M155.35,176.23L155.35,176.05"/><path d="M155.35,176.04L155.35,175.44"/><path d="M155.36,176.11L155.36,176.09"/><path d="M155.35,173.34L155.35,173.28L155.35,174.65"/><path d="M155.35,170.50L155.35,172.62"/><path d="M155.35,169.14L159.04,167.03"/><path d="M158.13,176.44L156.77,177.21"/></g><g style="stroke:#000000;stroke-width:0.529"><path d="M149.05,174.35L149.05,166.08L148.96,166.03L148.96,165.47"/><path d="M156.77,177.21L155.51,177.94L155.46,177.96L155.39,177.97L155.31,177.97L155.24,177.96L155.19,177.94L149.12,174.45L149.08,174.42L149.05,174.38"/></g></g><g id="Actor_.5"><g style="stroke:#000000;stroke-width:0.176"><path d="M154.28,177.41L148.96,174.36"/><path d="M155.03,177.84L154.97,177.91L154.87,178.09L154.81,178.28L154.80,178.45L154.84,178.59L154.87,178.63L154.92,178.69L155.03,178.73L155.17,178.70L155.31,178.62L155.45,178.49L155.56,178.32L155.64,178.13L155.68,177.95L155.67,177.85"/><path d="M156.89,179.23L156.83,179.29L156.75,179.34"/><path d="M157.35,177.68L157.33,177.53L157.35,177.35L157.39,177.23L157.44,177.15L157.51,177.08L157.63,176.99L157.86,176.86L157.94,176.90L157.71,177.03L157.59,177.12L157.52,177.19L157.47,177.28L157.43,177.40L157.41,177.58L157.43,177.73L157.47,177.80L157.51,177.82L157.43,177.78L157.39,177.75L157.35,177.68"/><path d="M156.79,177.20L156.89,177.26"/><path d="M157.48,178.12L157.48,178.86L157.71,178.72L157.83,178.64L157.90,178.56L157.95,178.48L157.99,178.36L158.01,178.18L157.99,178.03L157.95,177.96L157.91,177.93L157.86,177.93L157.82,177.93L157.77,177.95L157.70,177.99L157.48,178.12L157.40,178.07L157.62,177.94L157.69,177.91L157.74,177.89L157.78,177.88L157.83,177.89L157.91,177.93"/><path d="M157.48,178.86L157.40,178.81L157.40,178.07"/><path d="M158.04,178.22L158.02,178.09L158.04,177.94L158.08,177.81L158.14,177.70L158.22,177.61L158.33,177.53L158.42,177.49L158.50,177.48L158.57,177.52L158.65,177.56L158.58,177.53L158.50,177.53L158.41,177.57L158.30,177.65L158.22,177.75L158.16,177.86L158.12,177.99L158.10,178.14L158.12,178.27L158.17,178.34L158.09,178.30L158.04,178.22"/><path d="M158.51,177.63L158.53,177.66L158.55,177.78L158.53,177.92L158.50,178.01L158.45,178.10L158.39,178.16L158.33,178.21L158.27,178.23L158.23,178.23"/><path d="M157.57,178.63L157.57,178.72L157.70,178.64L157.80,178.57L157.84,178.52L157.86,178.50L157.89,178.43L157.92,178.32L157.92,178.23L157.91,178.11L157.88,178.06L157.85,178.03L157.81,178.03L157.77,178.04L157.70,178.08L157.57,178.15L157.57,178.63L157.62,178.60L157.72,178.52L157.76,178.48L157.78,178.45L157.81,178.39L157.84,178.28L157.84,178.18L157.83,178.06L157.81,178.03"/><path d="M158.35,178.28L158.41,178.25L158.47,178.21L158.53,178.14L158.58,178.06L158.61,177.96L158.63,177.83L158.61,177.70L158.57,177.65L158.55,177.63L158.49,177.63L158.43,177.65L158.41,177.65L158.34,177.70L158.28,177.78L158.23,177.86L158.20,177.95L158.19,178.09L158.21,178.21L158.24,178.26L158.29,178.28L158.35,178.28"/><path d="M157.51,177.82L157.56,177.83L157.60,177.82L157.65,177.80L157.72,177.77L157.94,177.64L157.94,176.90"/><path d="M158.17,178.34L158.23,178.38L158.32,178.38L158.41,178.34L158.51,178.26L158.59,178.16L158.65,178.06L158.69,177.94L158.71,177.78L158.69,177.64L158.65,177.56"/><path d="M158.44,176.62L158.36,176.57L157.96,176.80L158.04,176.84L158.04,176.93L158.35,176.75L158.35,177.40L158.44,177.36L158.44,176.62L158.04,176.84"/><path d="M157.64,177.64L157.57,177.67L157.53,177.68L157.53,177.68L157.51,177.65L157.50,177.53L157.50,177.44L157.53,177.33L157.56,177.26L157.58,177.23L157.62,177.19L157.72,177.12L157.77,177.08L157.77,177.56L157.64,177.64"/><path d="M157.77,177.08L157.85,177.04L157.85,177.60L157.72,177.68L157.65,177.71L157.61,177.73L157.57,177.73L157.54,177.70L157.53,177.68"/><path d="M157.85,177.60L157.77,177.56"/><path d="M157.96,176.80L157.96,176.89L158.04,176.93"/><path d="M158.27,176.80L158.27,177.36L158.35,177.40"/><path d="M158.90,177.86L159.14,177.73L159.22,177.77L158.90,177.95L158.90,177.30L158.82,177.35L158.74,177.30L158.74,178.04L158.82,178.09L158.82,177.35"/><path d="M158.82,178.09L159.22,177.86L159.22,177.77"/><path d="M159.24,177.07L159.24,177.76L159.25,177.76L159.32,177.80L159.55,177.67L159.67,177.58L159.73,177.52L159.78,177.43L159.80,177.39"/><path d="M159.32,177.80L159.32,177.12"/><path d="M158.59,176.70L158.56,176.77L158.54,176.92L158.57,177.07L158.61,177.14L158.53,177.09L158.49,177.02L158.46,176.88L158.48,176.72L158.51,176.65"/><path d="M159.65,177.31L159.65,177.33L159.62,177.40L159.60,177.42L159.56,177.47L159.46,177.54L159.40,177.57"/><path d="M159.73,177.36L159.73,177.38L159.70,177.45L159.68,177.47L159.64,177.52L159.54,177.59L159.40,177.67L159.40,177.17"/><path d="M158.65,176.73L158.65,176.74L158.63,176.88L158.65,177.00L158.67,177.03L158.69,177.03L158.75,177.01L158.77,177.00L158.83,176.96L158.90,176.88"/><path d="M158.67,177.03L158.68,177.05L158.71,177.07L158.77,177.08L158.83,177.06L158.85,177.05L158.91,177.00L158.98,176.92"/><path d="M158.74,177.30L158.82,177.25L158.90,177.30"/><path d="M158.61,177.14L158.67,177.17L158.76,177.17L158.85,177.13L158.96,177.05L159.04,176.96"/></g><g style="stroke:#000000;stroke-width:0.529"><path d="M149.05,174.31L148.96,174.36L148.96,176.58L154.28,179.64L154.34,179.66L154.40,179.67L154.48,179.67L154.54,179.66L154.60,179.64L155.80,178.95L155.83,178.94L155.86,178.93L155.90,178.93L155.93,178.94L155.96,178.95L156.63,179.33L156.66,179.35L156.69,179.35L156.72,179.35L156.75,179.34"/><path d="M156.76,179.33L159.97,177.49"/></g></g><g id="Actor_.6"><g style="stroke:#000000;stroke-width:0.176"><path d="M162.56,177.45L162.55,177.45"/><path d="M162.56,177.50L162.56,177.49"/><path d="M162.55,177.49L162.55,177.49"/><path d="M162.55,177.48L162.54,177.48"/><path d="M163.37,178.51L163.38,178.52"/><path d="M163.36,178.50L163.37,178.51"/><path d="M162.90,178.23L162.77,178.16L162.92,178.25"/><path d="M162.64,176.75L162.62,176.75L162.63,176.75"/><path d="M167.95,176.28L168.17,176.14L164.98,177.98L166.67,180.92L169.64,179.21L167.95,176.28L164.98,177.98"/><path d="M166.02,174.33L166.02,174.33L165.51,174.61"/><path d="M166.52,182.03L166.49,182.02"/><path d="M166.61,182.01L166.60,182.01L166.69,181.97"/><path d="M166.60,182.01L166.53,182.02"/><path d="M166.55,181.98L166.55,181.98"/><path d="M166.11,181.31L166.10,181.35"/><path d="M166.21,181.21L166.16,181.25L166.16,181.24"/><path d="M166.16,181.25L166.12,181.31"/><path d="M166.17,181.31L166.16,181.31"/><path d="M166.00,174.34L166.02,174.32L166.03,174.30"/><path d="M166.57,173.69L167.26,174.09"/><path d="M166.67,173.75L166.63,173.73"/><path d="M167.28,174.10L167.28,174.10"/><path d="M167.27,174.09L167.28,174.09L167.27,174.09L167.27,174.09"/><path d="M167.16,174.03L166.74,173.79"/><path d="M169.64,179.21L169.87,179.08L168.17,176.14"/><path d="M168.33,174.16L168.34,174.16"/><path d="M170.43,179.78L170.40,179.77"/><path d="M170.02,179.07L170.01,179.10"/><path d="M170.53,179.77L170.52,179.77L170.61,179.73"/><path d="M170.04,179.07L170.08,178.99"/><path d="M170.08,179.00L170.13,178.96"/><path d="M170.45,179.77L170.52,179.77"/><path d="M170.47,179.74L170.47,179.73"/><path d="M170.08,179.07L170.08,179.07"/><path d="M171.48,179.83L171.48,179.83"/></g><g style="stroke:#000000;stroke-width:0.529"><path d="M162.89,178.23L162.77,178.16L162.75,178.14L162.74,178.12L162.73,178.10L162.57,177.51L162.56,177.50L162.55,177.49"/><path d="M162.56,177.49L162.55,177.48L161.79,177.05"/><path d="M171.48,179.83L171.14,180.02L166.06,182.94L166.02,182.95L165.97,182.95L165.92,182.93L165.90,182.90L163.38,178.52L163.36,178.50L163.34,178.49L162.90,178.23"/><path d="M165.51,174.62L162.98,176.07L162.94,176.08L162.89,176.09L162.84,176.09L162.79,176.08L162.75,176.07L162.59,175.98"/><path d="M166.38,181.98L166.49,182.02L166.53,182.02L166.55,181.98L166.57,181.87L166.56,181.72L166.50,181.57L166.40,181.44L166.27,181.35L166.16,181.31L166.12,181.31L166.10,181.35L166.08,181.46L166.09,181.61L166.15,181.76L166.25,181.89L166.38,181.98"/><path d="M171.48,179.83L171.50,179.81L171.52,179.79L171.53,179.78L171.53,179.76L171.54,179.72L171.53,179.70L171.52,179.67L168.35,174.18L168.33,174.16L168.32,174.14L168.30,174.13L167.97,173.94L167.94,173.93L167.92,173.93L167.89,173.93L167.30,174.09L167.29,174.10L167.27,174.09L166.57,173.69"/><path d="M170.04,179.07L170.01,179.10L169.99,179.21L170.01,179.36L170.07,179.51L170.17,179.64L170.30,179.73L170.40,179.77L170.45,179.77L170.47,179.74L170.49,179.63L170.47,179.47L170.41,179.32L170.31,179.19L170.19,179.10L170.08,179.07L170.04,179.07"/></g></g><g id="Actor_.7"><g style="stroke:#000000;stroke-width:0.176"><path d="M146.56,142.89L148.16,143.81L148.65,144.18L149.10,144.70L149.45,145.31L149.68,145.96L149.76,146.58L149.76,150.28"/></g><g style="stroke:#000000;stroke-width:0.529"><path d="M146.56,143.47L146.56,143.82L148.16,144.74L148.40,144.92L148.63,145.18L148.80,145.49L148.92,145.81L148.96,146.12L148.96,149.82L149.76,150.28L156.15,146.61L156.15,142.91L156.07,142.29L155.85,141.65L155.49,141.03L155.05,140.52L154.55,140.14L152.95,139.22L146.56,142.89L146.56,143.47"/></g></g><g id="Actor_.8"><g style="stroke:#000000;stroke-width:0.176"><path d="M148.96,163.25L154.28,166.30L154.34,166.33L154.41,166.34L154.48,166.34L154.52,166.33"/><path d="M155.09,166.66L154.97,166.80L154.87,166.98L154.81,167.17L154.80,167.34L154.84,167.48L154.92,167.58L155.03,167.62L155.17,167.59L155.31,167.51L155.45,167.38L155.56,167.21L155.64,167.02L155.68,166.84L155.67,166.68L155.65,166.64"/><path d="M156.75,168.22L156.83,168.18L156.89,168.12"/><path d="M157.35,166.57L157.33,166.42L157.35,166.24L157.39,166.12L157.44,166.04L157.51,165.96L157.63,165.88L157.86,165.74L157.94,165.79L157.71,165.92L157.59,166.01L157.52,166.08L157.47,166.17L157.43,166.29L157.41,166.47L157.43,166.61L157.47,166.68L157.51,166.71L157.43,166.67L157.39,166.64L157.35,166.57"/><path d="M156.69,166.04L156.89,166.15"/><path d="M157.91,166.82L157.95,166.85L157.99,166.92L158.01,167.07L157.99,167.25L157.95,167.37L157.90,167.45L157.83,167.52L157.71,167.61L157.48,167.74L157.48,167.00L157.40,166.96L157.62,166.83L157.69,166.80L157.74,166.78L157.78,166.77L157.83,166.78L157.91,166.82L157.86,166.81L157.82,166.82L157.77,166.84L157.70,166.88L157.48,167.00"/><path d="M157.57,167.52L157.57,167.61L157.70,167.53L157.80,167.46L157.84,167.41L157.86,167.39L157.89,167.32L157.92,167.21L157.92,167.12L157.91,166.99L157.88,166.95L157.85,166.92L157.81,166.92L157.77,166.93L157.70,166.97L157.57,167.04L157.57,167.52L157.62,167.48L157.72,167.41L157.76,167.37L157.78,167.34L157.81,167.28L157.84,167.16L157.84,167.07L157.83,166.95L157.81,166.92"/><path d="M157.48,167.74L157.40,167.70L157.40,166.96"/><path d="M158.04,167.11L158.09,167.18L158.17,167.23L158.12,167.15L158.10,167.03L158.12,166.88L158.16,166.75L158.22,166.64L158.30,166.54L158.41,166.46L158.50,166.42L158.58,166.42L158.65,166.45L158.57,166.41L158.50,166.37L158.42,166.38L158.33,166.41L158.22,166.50L158.14,166.59L158.08,166.70L158.04,166.83L158.02,166.98L158.04,167.11"/><path d="M158.51,166.52L158.53,166.55L158.55,166.67L158.53,166.81L158.50,166.90L158.45,166.99L158.39,167.05L158.33,167.10L158.27,167.12L158.23,167.12"/><path d="M157.77,166.34L157.77,166.45L157.64,166.52L157.57,166.56L157.53,166.57L157.51,166.54L157.50,166.42L157.50,166.33L157.53,166.21L157.56,166.15L157.58,166.12L157.62,166.08L157.72,166.00L157.77,165.97L157.77,166.34"/><path d="M157.77,166.45L157.85,166.49L157.85,165.93L157.77,165.97"/><path d="M157.53,166.57L157.54,166.59L157.57,166.61L157.61,166.62L157.65,166.60L157.72,166.57L157.85,166.49"/><path d="M158.40,167.15L158.35,167.17L158.29,167.17L158.24,167.14L158.21,167.09L158.19,166.98L158.20,166.84L158.23,166.75L158.28,166.67L158.35,166.59L158.41,166.54L158.43,166.53L158.49,166.51L158.55,166.52L158.57,166.54L158.61,166.59L158.63,166.72L158.61,166.85L158.58,166.95L158.53,167.03L158.47,167.09L158.41,167.14L158.40,167.15"/><path d="M157.51,166.71L157.56,166.72L157.60,166.71L157.65,166.69L157.72,166.66L157.94,166.53L157.94,165.79"/><path d="M158.65,166.45L158.69,166.52L158.71,166.67L158.69,166.83L158.65,166.95L158.59,167.05L158.51,167.15L158.41,167.23L158.32,167.26L158.23,167.27L158.17,167.23"/><path d="M158.04,165.73L158.44,165.50L158.36,165.46L157.96,165.69L158.04,165.73L158.04,165.82L157.96,165.77L157.96,165.69"/><path d="M158.04,165.82L158.35,165.64L158.35,166.29L158.44,166.24L158.44,165.50"/><path d="M158.27,165.69L158.27,166.25L158.35,166.29"/><path d="M158.82,166.24L158.82,166.98L158.74,166.93L158.74,166.19L158.82,166.24L158.90,166.19L158.90,166.84L159.04,166.77"/><path d="M159.04,166.67L158.90,166.75"/><path d="M158.82,166.98L159.04,166.85"/><path d="M159.04,165.22L158.95,165.17L158.86,165.17L158.77,165.21L158.66,165.29L158.58,165.39L158.52,165.49L158.48,165.61L158.46,165.77L158.49,165.91L158.53,165.98L158.61,166.03L158.57,165.96L158.54,165.81L158.56,165.66L158.60,165.54L158.66,165.43L158.74,165.34L158.85,165.26L158.94,165.22L159.03,165.22L159.04,165.22"/><path d="M158.97,165.34L158.99,165.46L158.97,165.60L158.94,165.69L158.90,165.77L158.83,165.85L158.77,165.89L158.75,165.90L158.69,165.92L158.67,165.92L158.65,165.89L158.63,165.76L158.65,165.63L158.68,165.53L158.73,165.45L158.78,165.39L158.85,165.34L158.90,165.32L158.95,165.31L158.97,165.34"/><path d="M158.67,165.92L158.68,165.94L158.71,165.96L158.77,165.97L158.83,165.95L158.85,165.94L158.91,165.89L158.98,165.82L159.02,165.74L159.04,165.70"/><path d="M159.04,165.37L159.02,165.34L158.97,165.31L158.95,165.31"/><path d="M158.74,166.19L158.82,166.14L158.90,166.19"/><path d="M159.04,165.84L158.96,165.94L158.85,166.02L158.76,166.06L158.67,166.06L158.61,166.03"/><path d="M159.01,165.21L159.01,165.21"/></g><g style="stroke:#000000;stroke-width:0.529"><path d="M149.08,163.18L148.96,163.25L148.96,165.47L154.28,168.53L154.34,168.55L154.40,168.56L154.48,168.56L154.54,168.55L154.60,168.53L155.80,167.84L155.83,167.83L155.86,167.82L155.90,167.82L155.93,167.83L155.96,167.84L156.63,168.22L156.66,168.23L156.69,168.24L156.72,168.23L156.75,168.22"/><path d="M156.76,168.22L159.04,166.92"/></g></g><g id="Actor_.9"><g style="stroke:#000000;stroke-width:0.176"><path d="M146.56,199.38L148.16,200.29L148.40,200.39L148.63,200.38L148.80,200.28L148.92,200.09L148.96,199.82L148.96,198.00"/><path d="M148.96,196.12L149.76,196.58L149.76,200.28L149.68,200.81L149.45,201.20L149.10,201.40"/><path d="M149.76,196.58L156.15,192.91"/><path d="M155.84,197.53L155.85,197.53"/></g><g style="stroke:#000000;stroke-width:0.529"><path d="M149.10,201.40L148.65,201.41L148.16,201.22L146.56,200.30L146.56,199.38L148.21,198.43"/><path d="M155.85,197.53L156.07,197.14L156.15,196.62L156.15,192.91L155.35,192.45L148.96,196.12L148.96,198.00"/><path d="M149.10,201.40L155.49,197.74L155.84,197.53"/></g></g><g id="Actor_.10"><g style="stroke:#000000;stroke-width:0.176"><path d="M103.53,96.43L104.06,96.58L104.53,96.50L104.87,96.19L105.05,95.69L105.07,95.38L105.05,95.05L104.87,94.34L104.53,93.64L104.06,93.02L103.53,92.56L102.98,92.29L102.47,92.26L102.07,92.46L101.80,92.87L101.71,93.45"/><path d="M105.06,96.71L105.47,96.34L105.68,95.74L105.71,95.38L105.68,94.98L105.47,94.14L105.06,93.31L104.51,92.57L103.88,92.02L103.22,91.71L102.62,91.67L102.13,91.91"/><path d="M130.04,83.92L130.11,83.79L130.25,82.87L130.11,81.79L129.71,80.66L129.09,79.59L128.31,78.68L127.45,78.02L126.58,77.69L126.42,77.69"/><path d="M141.68,76.04L141.54,75.00L141.14,73.91L141.08,73.81L140.52,72.89L139.75,72.06L138.91,71.50"/></g><g style="stroke:#000000;stroke-width:0.529"><path d="M106.04,96.15L105.06,96.71L104.51,96.81L103.88,96.63L103.53,96.43L102.98,96.06L102.47,95.52L102.07,94.85L101.80,94.14L101.71,93.45L101.71,93.09L101.82,92.40L102.13,91.91L102.94,91.44"/><path d="M111.47,86.26L109.20,87.57"/><path d="M111.78,94.39L115.18,92.44"/><path d="M126.07,86.57L120.26,89.90"/><path d="M122.18,79.78L120.26,80.88"/><path d="M126.03,77.70L126.42,77.69L131.13,74.99"/><path d="M134.84,81.16L130.04,83.92L129.95,84.06"/><path d="M140.72,77.79L141.14,77.55L141.54,76.92L141.68,76.04L141.68,75.67L141.56,74.76L141.21,73.81L140.68,72.95L140.66,72.92L139.99,72.19L139.25,71.70L138.91,71.50L138.34,71.34"/></g></g><g id="Actor_.11"><g style="stroke:#000000;stroke-width:0.176"><path d="M167.66,161.79L167.60,161.66L167.51,161.58L167.40,161.54L167.26,161.56L167.12,161.62L166.97,161.72L166.84,161.87L166.51,162.18L166.56,162.59L166.58,162.74L166.63,162.87L166.72,162.95L166.84,162.99L166.97,162.98L167.12,162.91L167.21,162.84"/><path d="M166.51,162.93L166.56,162.59L166.58,162.41L166.63,162.22L166.72,162.03L166.84,161.87"/><path d="M166.51,162.18L166.17,161.99L166.68,161.36"/><path d="M166.17,162.59L166.17,161.99"/><path d="M166.17,162.00L166.12,162.21"/><path d="M166.73,161.30L167.07,161.49L167.40,161.54L167.63,161.54"/><path d="M166.57,161.43L166.44,161.54L166.29,161.75L166.18,161.98L166.18,161.99"/><path d="M167.64,162.17L167.60,162.31L167.56,162.40"/><path d="M166.84,161.87L167.07,161.49"/><path d="M166.80,161.30L167.05,161.33"/><path d="M167.01,161.32L167.01,161.32"/></g><g style="stroke:#000000;stroke-width:0.529"><path d="M166.57,161.43L166.62,161.39L166.68,161.36L166.73,161.30L166.80,161.30L166.81,161.30L166.98,161.29L167.05,161.33L167.29,161.35L167.63,161.54L167.65,161.75L167.66,161.79L167.68,161.95L167.66,162.12L167.64,162.17L167.63,162.29L167.56,162.40L167.51,162.50L167.40,162.67L167.26,162.81L167.21,162.84L167.07,162.99L166.84,162.99L166.51,162.93L166.17,162.74L166.17,162.59L166.12,162.43L166.11,162.33L166.12,162.22L166.12,162.21"/></g></g><g id="Actor_.12"><g style="stroke:#000000;stroke-width:0.176"><path d="M162.98,168.13L162.98,167.53L163.31,167.72L163.36,168.12L163.38,168.28L163.44,168.41L163.53,168.49L163.64,168.53L163.77,168.51L163.92,168.45L164.02,168.38"/><path d="M163.31,168.47L163.36,168.12L163.38,167.95L163.44,167.76L163.53,167.57L163.64,167.40L163.77,167.26L163.92,167.16L164.07,167.09L164.20,167.08L164.31,167.12L164.40,167.20L164.46,167.33"/><path d="M163.31,167.72L163.64,167.40"/><path d="M163.48,166.90L162.98,167.53L162.98,167.52L163.09,167.29L163.25,167.08L163.38,166.97"/><path d="M162.92,167.75L162.98,167.53"/><path d="M162.98,167.53L162.98,167.53"/><path d="M163.54,166.84L163.87,167.03L164.20,167.08L164.43,167.08"/><path d="M163.85,166.87L163.61,166.84"/><path d="M163.64,167.40L163.87,167.03"/><path d="M164.45,167.71L164.40,167.85L164.36,167.94"/></g><g style="stroke:#000000;stroke-width:0.529"><path d="M163.38,166.97L163.43,166.93L163.48,166.90L163.54,166.84L163.61,166.84L163.61,166.84L163.78,166.83L163.85,166.87L164.10,166.89L164.43,167.08L164.46,167.29L164.46,167.33L164.48,167.48L164.46,167.66L164.45,167.71L164.43,167.83L164.36,167.94L164.31,168.04L164.20,168.20L164.07,168.35L164.02,168.38L163.87,168.52L163.64,168.53L163.31,168.47L162.98,168.28L162.98,168.13L162.92,167.97L162.91,167.87L162.92,167.76L162.92,167.75"/></g></g><g id="Actor_.13"><g style="stroke:#000000;stroke-width:0.176"><path d="M152.30,197.65L152.11,197.41L152.02,197.05L152.05,196.62L152.09,196.49L152.19,196.15L152.44,195.70L152.76,195.32L153.11,195.04L153.47,194.91L153.79,194.93"/><path d="M151.93,196.68L151.95,196.51L152.08,196.07L152.32,195.64L152.62,195.28L152.83,195.12"/><path d="M153.19,196.97L153.18,196.96L153.15,196.83L153.16,196.68L153.21,196.51L153.30,196.34L153.42,196.20L153.55,196.10L153.67,196.05L153.74,196.06L153.79,196.06L153.88,196.12L153.93,196.23L153.94,196.38L153.91,196.54L153.84,196.71L153.74,196.86L153.61,196.99L153.55,197.03L153.48,197.06L153.35,197.08L153.25,197.05L153.19,196.97"/><path d="M153.25,197.05L153.20,197.03"/><path d="M153.30,197.06L153.25,197.07"/><path d="M153.74,197.11L153.74,197.11"/><path d="M153.39,197.45L153.39,197.45"/><path d="M153.88,196.12L153.84,196.08L153.81,196.03L153.81,196.03"/></g><g style="stroke:#000000;stroke-width:0.529"><path d="M151.93,196.68L151.92,196.92L152.00,197.26L152.02,197.32L152.05,197.37L152.25,197.60L152.30,197.65L152.59,197.74L152.93,197.68L153.06,197.64L153.39,197.45"/><path d="M153.74,197.11L153.98,196.76L154.14,196.38L154.16,196.32L154.24,195.90L154.21,195.53L154.18,195.39L154.03,195.09L153.79,194.93L153.73,194.90L153.66,194.90L153.35,194.88L153.29,194.90L152.95,195.02L152.83,195.12"/><path d="M153.74,197.11L153.39,197.45"/></g></g><g id="Actor_.14"><g style="stroke:#000000;stroke-width:0.176"><path d="M148.96,176.58L155.35,180.25L155.35,184.45L155.35,180.25L160.07,177.55"/><path d="M149.12,185.56L149.12,177.23L149.05,177.19"/><path d="M149.05,185.49L149.05,185.46"/><path d="M155.19,189.05L155.19,188.57L155.24,188.59L155.31,188.60L155.39,188.60L155.46,188.59L155.51,188.57L155.49,188.27L155.39,187.70L155.35,187.23L155.35,187.15L155.35,187.34L155.37,187.60L155.36,187.49"/><path d="M155.34,187.49L155.34,187.60L155.35,187.34L155.35,186.56L155.34,187.29"/><path d="M155.35,187.17L155.35,187.34"/><path d="M155.35,187.15L155.35,186.56"/><path d="M155.36,187.22L155.36,187.20"/><path d="M155.35,184.45L155.35,185.05"/><path d="M158.13,187.55L156.77,188.33"/></g><g style="stroke:#000000;stroke-width:0.529"><path d="M149.05,185.46L149.05,177.19L148.96,177.14L148.96,176.58"/><path d="M156.77,188.33L155.51,189.05L155.46,189.07L155.39,189.08L155.31,189.08L155.24,189.07L155.19,189.05L149.12,185.57L149.08,185.53L149.05,185.49"/></g></g><g id="Actor_.15"><g style="stroke:#000000;stroke-width:0.176"><path d="M148.99,189.14L148.99,189.14"/><path d="M148.96,185.47L154.28,188.53"/><path d="M154.31,192.19L154.31,192.19"/><path d="M154.97,188.92L154.93,188.96L154.82,189.16L154.75,189.37L154.72,189.57L154.72,189.88L154.75,190.05L154.82,190.18L154.93,190.25L155.08,190.25L155.24,190.19L155.40,190.07L155.54,189.90L155.66,189.70L155.73,189.49L155.76,189.29L155.76,188.97L155.75,188.91"/><path d="M155.93,191.47L155.94,191.47"/><path d="M156.66,191.89L156.66,191.89"/><path d="M156.94,191.88L157.36,191.64L156.94,191.88"/><path d="M157.35,188.46L157.33,188.65L157.35,188.79L157.39,188.86L157.43,188.89L157.51,188.94L157.47,188.91L157.43,188.84L157.41,188.69L157.43,188.51L157.47,188.39L157.52,188.30L157.59,188.23L157.71,188.15L157.94,188.01L157.86,187.97L157.63,188.10L157.51,188.19L157.44,188.26L157.39,188.34L157.35,188.46"/><path d="M156.79,188.32L156.89,188.38"/><path d="M157.36,191.64L160.13,190.05"/><path d="M157.49,189.40L157.64,189.31L157.78,189.25L157.86,189.24L157.93,189.27L158.01,189.32L157.94,189.29L157.86,189.29L157.72,189.35L157.57,189.44L157.49,189.40L157.49,190.14L157.57,190.18L157.57,189.44"/><path d="M158.05,189.39L158.07,189.52L158.07,189.55L158.07,189.58L158.07,189.60L158.11,189.67L158.12,189.69L158.20,189.73L158.19,189.72L158.15,189.64L158.13,189.49L158.13,189.43L158.15,189.29L158.20,189.16L158.24,189.10L158.31,189.02L158.41,188.94L158.47,188.91L158.55,188.90L158.62,188.93L158.54,188.88L158.47,188.86L158.39,188.87L158.33,188.90L158.23,188.97L158.16,189.06L158.12,189.12L158.07,189.24L158.05,189.39L158.01,189.32"/><path d="M158.07,189.58L158.05,189.69L158.00,189.81L157.94,189.91L157.93,189.92L157.84,190.01L157.71,190.10L157.57,190.18"/><path d="M158.39,189.54L158.33,189.58L158.31,189.60L158.25,189.61L158.23,189.57L158.22,189.44L158.22,189.41L158.24,189.28L158.27,189.19L158.31,189.12L158.35,189.07L158.41,189.03L158.46,189.01L158.49,189.00L158.51,189.05L158.52,189.17L158.52,189.20L158.50,189.34L158.47,189.43L158.44,189.49L158.39,189.54"/><path d="M158.25,189.61L158.26,189.63L158.29,189.65L158.33,189.66L158.39,189.64L158.41,189.63L158.47,189.59L158.52,189.53L158.55,189.47L158.58,189.39L158.60,189.25L158.60,189.22L158.59,189.10L158.56,189.03L158.55,189.02L158.51,189.00L158.49,189.00"/><path d="M157.74,189.90L157.80,189.84L157.81,189.82L157.86,189.75L157.89,189.67L157.90,189.55L157.90,189.53L157.89,189.41L157.87,189.39L157.89,189.39L157.93,189.41L157.97,189.46L157.98,189.57L157.98,189.59L157.97,189.71L157.94,189.79L157.89,189.86L157.88,189.88L157.82,189.94L157.72,190.01L157.65,190.05L157.65,189.96L157.74,189.90"/><path d="M157.87,189.39L157.81,189.40L157.72,189.44L157.65,189.48L157.65,189.96"/><path d="M157.93,189.27L157.93,189.27"/><path d="M158.62,188.93L158.63,188.94L158.67,189.01L158.69,189.17L158.69,189.22L158.66,189.39L158.62,189.50L158.58,189.56L158.51,189.64L158.41,189.72L158.35,189.75L158.27,189.76L158.20,189.73"/><path d="M158.35,188.17L158.35,188.52L158.27,188.47L158.27,188.17L158.27,187.91L158.35,187.86L158.35,188.17"/><path d="M158.35,188.52L158.44,188.47L158.44,187.73L158.04,187.96L158.04,188.04L157.96,188.00L157.96,187.91L158.36,187.68L158.44,187.73"/><path d="M157.53,188.79L157.54,188.81L157.57,188.84L157.61,188.84L157.65,188.83L157.72,188.79L157.85,188.72L157.77,188.67L157.64,188.75L157.57,188.78L157.53,188.79L157.51,188.76L157.50,188.64L157.50,188.55L157.53,188.44L157.56,188.37L157.58,188.34L157.62,188.30L157.72,188.23L157.77,188.20L157.77,188.67"/><path d="M157.85,188.72L157.85,188.15L157.77,188.20"/><path d="M157.51,188.94L157.56,188.94L157.60,188.94L157.65,188.92L157.72,188.88L157.94,188.75L157.94,188.01"/><path d="M158.27,187.91L158.04,188.04"/><path d="M158.04,187.96L157.96,187.91"/><path d="M159.43,188.30L159.30,188.36L159.14,188.45L159.22,188.49L159.22,189.23L159.37,189.15L159.50,189.06L159.59,188.97L159.60,188.96L159.66,188.86L159.71,188.74L159.73,188.60L159.73,188.57L159.71,188.45"/><path d="M159.22,189.23L159.16,189.20L159.16,189.18L158.87,189.35L158.87,188.69L158.79,188.74L158.79,189.48L159.16,189.27L159.16,189.20"/><path d="M158.87,189.26L159.08,189.14L159.14,189.18L159.14,188.45"/><path d="M158.79,189.48L158.71,189.44L158.71,188.70L158.79,188.74"/><path d="M158.71,188.70L158.79,188.65L158.87,188.69"/><path d="M159.39,188.95L159.31,189.01L159.31,188.53L159.37,188.49L159.47,188.45L159.53,188.44L159.54,188.46L159.56,188.58L159.56,188.60L159.54,188.72L159.51,188.80L159.47,188.87L159.45,188.89L159.39,188.95"/><path d="M159.31,189.01L159.31,189.10L159.37,189.06L159.47,189.00L159.53,188.93L159.55,188.91L159.59,188.84L159.62,188.76L159.64,188.64L159.64,188.62L159.62,188.51L159.59,188.46L159.54,188.44L159.53,188.44"/><path d="M158.98,188.04L158.91,188.11L158.85,188.16L158.83,188.17L158.77,188.19L158.71,188.18L158.68,188.16L158.67,188.14L158.69,188.14L158.75,188.12L158.77,188.11L158.83,188.07L158.90,187.99"/><path d="M158.59,187.81L158.56,187.88L158.54,188.04L158.57,188.18L158.61,188.25L158.53,188.21L158.49,188.13L158.46,187.99L158.48,187.83L158.51,187.76"/><path d="M159.22,188.49L159.38,188.40L159.51,188.34"/><path d="M158.61,188.25L158.67,188.28L158.76,188.28L158.85,188.24L158.96,188.16L159.04,188.07"/><path d="M159.14,189.18L159.16,189.18"/><path d="M158.65,187.85L158.65,187.85L158.63,187.99L158.65,188.11L158.67,188.14"/><path d="M160.21,189.93L160.21,189.93L160.21,188.74"/><path d="M160.21,188.81L160.21,188.96"/></g><g style="stroke:#000000;stroke-width:0.529"><path d="M149.05,185.42L148.96,185.47L148.96,189.08L148.96,189.10L148.97,189.11L148.97,189.13L148.99,189.14"/><path d="M148.99,189.14L154.31,192.19"/><path d="M156.66,191.89L155.93,191.47L155.89,191.46L155.86,191.46L155.82,191.47L154.57,192.19L154.52,192.21L154.47,192.22L154.41,192.22L154.36,192.21L154.31,192.19"/><path d="M156.66,191.89L156.70,191.91L156.76,191.92L156.82,191.92L156.88,191.91L156.92,191.89L160.13,190.05L160.17,190.02L160.21,189.96L160.21,189.93"/><path d="M160.21,189.93L160.21,188.96L160.40,188.85"/></g></g><g id="Actor_.16"><g style="stroke:#000000;stroke-width:0.176"><path d="M156.75,186.75L156.64,186.69L157.36,187.11L156.75,186.75"/><path d="M156.56,186.68L156.60,186.68L156.64,186.69L156.61,186.68L156.62,186.68"/><path d="M156.64,186.69L157.56,187.22"/><path d="M157.40,187.13L161.17,189.29"/><path d="M161.71,188.70L161.71,188.17L161.71,188.69L161.71,188.73"/><path d="M161.71,188.69L161.71,188.63"/><path d="M161.71,188.17L161.71,187.70L161.71,187.65L161.71,187.66"/><path d="M161.71,188.71L161.71,188.71"/><path d="M161.71,188.64L161.71,188.66"/><path d="M163.27,187.88L163.28,187.90L163.27,187.88L163.01,187.56L163.00,187.54L162.98,187.54L162.97,187.54L162.94,187.55L161.71,188.26"/><path d="M161.71,187.65L161.73,187.61L161.74,187.59L161.76,187.58L161.79,187.55L164.34,186.09L163.61,186.51"/><path d="M163.16,187.74L163.26,187.69L163.29,187.67L163.31,187.64L163.33,187.61L163.34,187.57L163.34,187.55L163.34,187.42L163.35,187.39L163.36,187.36L163.37,187.33L163.39,187.31L163.40,187.29L163.42,187.27L166.62,185.44L166.65,185.43L166.67,185.41L166.68,185.38L166.70,185.35L166.70,185.32L166.70,185.30L166.70,185.30"/><path d="M163.30,187.94L163.29,187.93L163.30,187.94"/><path d="M163.29,187.93L163.28,187.90"/><path d="M163.29,187.92L163.30,187.94L163.30,187.94"/><path d="M163.30,187.93L163.30,187.94"/><path d="M162.70,185.74L162.73,185.75L162.82,185.80L162.82,186.35"/><path d="M162.82,186.09L162.82,185.80"/><path d="M162.82,186.33L162.82,186.38L162.85,186.43"/><path d="M162.82,186.10L162.82,186.33"/><path d="M162.83,186.40L162.85,186.41"/><path d="M162.82,185.80L163.06,185.94L163.09,185.95L163.11,185.95L163.13,185.95L163.15,185.94L163.26,185.88L163.27,185.87L163.28,185.85L163.29,185.84L163.30,185.82L163.30,185.80L163.30,185.03L163.30,185.01L163.28,184.97L163.26,184.95L162.91,184.75"/><path d="M162.70,185.74L162.70,185.74L162.71,185.74"/><path d="M162.82,184.60L162.82,184.01L162.82,184.58L162.82,184.61L162.82,184.59"/><path d="M162.88,184.73L162.85,184.68L162.82,184.63L162.82,184.60"/><path d="M162.88,184.73L162.92,184.76"/><path d="M162.82,184.01L162.82,183.95L162.82,184.01"/><path d="M162.82,183.95L162.82,183.88L162.85,183.80L162.90,183.72L162.96,183.65L163.01,183.61"/><path d="M163.01,183.61L165.49,182.19"/><path d="M164.34,186.09L167.08,184.51L167.10,184.50L167.10,184.51"/><path d="M166.70,184.73L166.70,185.30"/><path d="M166.34,182.78L166.70,182.98L166.72,183.00L166.74,183.03L166.74,183.05L166.74,183.83L166.74,183.85L166.73,183.87L166.72,183.88L166.71,183.90L166.70,183.90L166.58,183.97L166.57,183.98L166.52,183.98L166.50,183.97L166.16,183.78L166.12,183.76"/><path d="M166.35,182.78L166.36,182.79"/><path d="M167.59,185.57L167.59,185.61"/><path d="M167.10,184.51L167.10,184.51L167.11,184.50"/><path d="M167.10,184.51L167.09,184.51"/></g><g style="stroke:#000000;stroke-width:0.529"><path d="M167.59,185.61L167.59,185.64L167.58,185.67L167.57,185.70L167.56,185.72L167.54,185.75L167.52,185.76L161.34,189.31L161.31,189.32L161.24,189.32L161.20,189.31L157.56,187.22L156.54,187.81L156.51,187.82L156.47,187.82L156.44,187.82L156.40,187.81L155.37,187.22L155.36,187.19L155.35,187.15L155.35,180.39L155.36,180.34L155.37,180.30L155.40,180.25L155.43,180.21L155.47,180.18L160.07,177.55"/><path d="M167.59,182.06L167.59,185.57"/></g></g><g id="Actor_.17"><g style="stroke:#000000;stroke-width:0.176"><path d="M157.02,175.80L156.83,175.69L157.36,175.99L157.02,175.80"/><path d="M156.73,175.63L156.83,175.69L156.64,175.58L156.73,175.63"/><path d="M156.83,175.69L156.61,175.57L156.62,175.57"/><path d="M156.64,175.58L156.60,175.57L156.56,175.57"/><path d="M161.17,178.18L157.36,175.99L157.56,176.11"/><path d="M161.71,176.54L161.71,176.54L161.71,176.59L161.71,177.58L161.71,177.62"/><path d="M161.71,177.60L161.71,177.60"/><path d="M161.71,177.59L161.71,177.59"/><path d="M161.71,177.17L161.71,177.58"/><path d="M161.71,177.15L161.84,177.07"/><path d="M161.71,176.54L161.73,176.50L161.74,176.48L161.76,176.46L161.79,176.44L162.57,175.99L161.89,176.38"/><path d="M162.32,176.13L163.61,175.39L163.09,175.69"/><path d="M162.71,174.63L162.70,174.63L162.70,174.63L162.73,174.64L163.06,174.83L163.09,174.84L163.13,174.84L163.15,174.83L163.26,174.76L163.27,174.76L163.28,174.74L163.29,174.73L163.30,174.71L163.30,174.69L163.30,173.91L163.30,173.89L163.28,173.86L163.26,173.84L162.91,173.64"/><path d="M162.82,174.69L162.82,174.99L162.82,174.69"/><path d="M162.82,175.24L162.82,175.22L162.82,175.27L162.85,175.32"/><path d="M162.82,175.22L162.82,174.99L162.82,175.22"/><path d="M163.61,175.39L164.65,174.80L163.61,175.39"/><path d="M162.83,175.29L162.85,175.30"/><path d="M162.88,173.62L162.88,173.62L162.92,173.65"/><path d="M162.88,173.62L162.85,173.57L162.82,173.52L162.82,173.48"/><path d="M162.82,173.49L162.82,172.84L162.82,172.77L162.85,172.69L162.90,172.60L162.96,172.54L163.01,172.50"/><path d="M162.82,172.84L162.82,173.47L162.82,173.50L162.82,173.48"/><path d="M163.01,172.50L165.87,170.86L165.91,170.84L165.97,170.84"/><path d="M164.65,174.80L167.10,173.39L167.09,173.40"/><path d="M166.70,173.62L166.70,173.77"/><path d="M166.34,171.67L166.70,171.87L166.72,171.89L166.74,171.92L166.74,171.96L166.74,172.72L166.74,172.74L166.73,172.75L166.72,172.77L166.71,172.78L166.70,172.79L166.58,172.86L166.57,172.86L166.52,172.87L166.50,172.86L166.16,172.67L166.12,172.65"/><path d="M166.34,171.66L166.34,171.66L166.34,171.66L166.36,171.68"/><path d="M165.93,170.84L165.95,170.85"/><path d="M167.10,173.39L167.11,173.39"/><path d="M167.10,173.39L167.10,173.39L167.10,173.40"/><path d="M167.59,169.65L167.59,169.70"/></g><g style="stroke:#000000;stroke-width:0.529"><path d="M159.04,167.03L155.47,169.07L155.43,169.10L155.40,169.14L155.37,169.18L155.36,169.23L155.35,169.28L155.35,176.04L155.36,176.08L155.37,176.11L155.40,176.12L156.40,176.70L156.44,176.71L156.51,176.71L156.54,176.69L157.56,176.11L161.20,178.20L161.24,178.21L161.31,178.21L161.34,178.20L162.56,177.49"/><path d="M164.43,167.10L167.53,169.51L167.55,169.52L167.58,169.59L167.59,169.62L167.59,169.65"/><path d="M167.59,169.70L167.59,174.02"/></g></g><g id="Actor_.18"><g style="stroke:#000000;stroke-width:0.176"><path d="M175.26,165.73L175.26,164.24L185.93,158.12"/><path d="M180.50,148.01L180.51,148.62L180.83,149.20L181.46,149.69L182.26,150.15L182.88,150.64L183.21,151.22L183.21,151.83L182.96,152.26"/><path d="M190.59,149.62L191.88,148.88L184.97,144.92"/><path d="M186.85,157.60L196.80,151.89L197.52,151.35L197.96,150.74L197.97,150.73L198.13,150.05"/></g><g style="stroke:#000000;stroke-width:0.529"><path d="M187.99,158.42L196.80,153.37L197.52,152.83L197.97,152.21L198.13,151.54L198.13,150.05L197.97,149.38L197.52,148.76L196.80,148.22L190.41,144.55L189.55,144.20L188.54,144.01L187.48,144.01L186.47,144.20L185.61,144.55L184.97,144.92L184.97,146.40L190.59,149.62L189.16,150.44L182.26,146.48L181.46,146.94L180.83,147.43L180.50,148.01L180.51,150.10L180.83,150.68L181.46,151.17L182.26,151.63L182.88,152.12L182.96,152.26L182.88,152.40L182.26,152.90L171.57,159.03"/><path d="M175.26,165.73L187.08,158.94"/></g></g><g id="Actor_.19"><g style="stroke:#000000;stroke-width:0.176"><path d="M159.23,168.75L159.24,168.75"/><path d="M160.03,169.20L159.93,169.14L159.86,169.03L159.84,168.87L159.84,162.29L159.86,162.11L159.93,161.91L160.03,161.73L160.17,161.58L160.32,161.46L166.47,157.93L166.76,157.81L167.09,157.75L167.45,157.75L167.78,157.81L168.07,157.93L173.98,161.33L174.13,161.44L174.26,161.59L174.37,161.78L174.44,161.97L174.46,162.16L174.46,162.18L174.46,168.73L174.44,168.89L174.37,169.00L174.27,169.07"/><path d="M160.79,166.10L160.63,166.19L160.63,165.27"/><path d="M163.27,160.69L164.07,160.23L164.07,160.42"/></g><g style="stroke:#000000;stroke-width:0.529"><path d="M167.43,165.44L167.45,165.44L167.78,165.50L168.07,165.62L173.98,169.01L174.13,169.07L174.27,169.07L175.17,168.55L175.24,168.43L175.26,168.27L175.26,161.70L175.24,161.51L175.17,161.32L175.06,161.13L174.93,160.98L174.78,160.87L168.87,157.47L168.30,157.24L167.62,157.11L166.92,157.11L166.24,157.24L165.67,157.47L159.52,161.00L159.37,161.12L159.35,161.14L159.23,161.27L159.13,161.46L159.06,161.65L159.04,161.83L159.04,168.41L159.06,168.57L159.13,168.68L159.23,168.75L160.03,169.20L160.17,169.21L160.32,169.15L161.76,168.32"/><path d="M160.63,165.27L160.63,164.06L160.79,163.97"/><path d="M162.23,161.47L162.23,161.29L163.27,160.69"/><path d="M164.18,166.93L165.20,166.35"/></g></g><g id="Actor_.20"><g style="stroke:#000000;stroke-width:0.176"><path d="M122.97,79.94L122.54,79.77L121.71,79.79L121.06,80.17L120.84,80.55"/><path d="M131.77,127.12L132.25,127.40L132.25,105.33L132.17,103.79L131.94,102.17L131.57,100.51L127.21,84.13L126.74,82.82L126.07,81.56L125.23,80.43L124.27,79.50L123.26,78.82L122.27,78.46L121.35,78.41L120.56,78.70"/><path d="M124.74,87.33L125.19,87.33L125.85,86.94L126.27,86.23L126.33,85.79"/><path d="M126.14,146.10L126.14,146.11"/><path d="M126.33,124.56L126.14,124.23"/><path d="M129.56,151.52L129.57,151.53"/><path d="M132.25,127.40L132.72,127.12"/><path d="M134.16,126.30L134.35,126.19"/></g><g style="stroke:#000000;stroke-width:0.529"><path d="M129.57,151.53L130.21,151.74L130.96,151.78L131.50,151.64L131.67,151.58L133.11,150.76L133.55,150.44L133.68,150.33L134.01,149.85L134.09,149.71L134.29,149.11L134.35,148.40L134.35,126.19L134.64,126.02L134.64,103.96L134.57,102.41L134.34,100.80L133.97,99.14L129.61,82.75L129.14,81.44L128.47,80.18L127.63,79.05L126.67,78.12L125.66,77.45L124.66,77.08L123.74,77.04L122.96,77.33L120.56,78.70L120.26,79.01"/><path d="M126.14,146.10L126.14,124.23L124.72,121.77L124.47,121.24L124.31,120.70L124.25,120.19L124.25,100.75L124.20,100.08L124.06,99.37L122.78,94.58L122.55,93.95L122.20,93.36L121.77,92.87"/><path d="M122.97,79.94L123.45,80.13L124.37,80.82L125.19,81.78L125.85,82.92L126.27,84.11L126.41,85.25L126.33,85.79"/><path d="M128.83,151.10L128.21,150.60L127.64,149.98L127.14,149.26L126.71,148.48L126.40,147.67L126.21,146.87L126.14,146.11"/><path d="M128.84,151.11L129.56,151.52"/></g></g><g id="Actor_.21"><g style="stroke:#000000;stroke-width:0.176"><path d="M126.33,67.16L134.32,71.75L137.52,69.91"/><path d="M133.45,75.78L133.36,75.69L132.72,75.23L132.51,75.12L131.68,74.88L130.97,75.02L130.77,75.19"/><path d="M140.72,82.86L137.52,84.69L134.32,86.56"/><path d="M135.21,78.85L135.32,79.73L135.18,80.63L134.77,81.26L134.15,81.57L134.12,81.57"/><path d="M134.32,71.75L137.52,77.29L137.52,84.69"/><path d="M137.52,77.29L140.72,75.45"/></g><g style="stroke:#000000;stroke-width:0.529"><path d="M129.95,84.06L134.32,86.56L137.52,84.73L140.72,82.86L140.72,75.45L137.52,69.91L129.53,65.33L126.33,67.16L126.33,77.69"/><path d="M133.45,75.78L134.15,76.53L134.77,77.57L135.18,78.67L135.21,78.85"/></g></g><g id="Actor_.22"><g style="stroke:#000000;stroke-width:0.176"><path d="M161.45,164.51L161.49,164.45L161.65,164.28L161.65,164.27L161.11,163.96L161.11,166.46L162.71,167.38L163.28,167.06"/><path d="M161.11,166.46L161.81,166.06L162.14,165.81L162.31,165.62"/><path d="M161.25,165.10L161.28,164.89L161.35,164.68"/><path d="M161.28,165.23L161.25,165.08"/><path d="M161.27,165.22L161.32,165.29"/><path d="M160.71,164.01L160.79,164.06L160.79,163.51"/><path d="M160.79,162.30L162.71,163.40L163.99,162.67L162.39,161.75L164.55,160.51L164.55,161.32L164.50,161.73L164.42,161.96"/><path d="M161.65,164.27L162.71,164.88L162.71,163.40"/><path d="M162.23,161.38L162.31,161.43L161.83,161.70"/><path d="M162.71,168.86L162.71,167.38"/><path d="M162.71,164.88L163.41,164.48L163.74,164.35L164.04,164.36L164.28,164.50L164.43,164.76L164.49,165.11L164.43,165.53L164.28,165.97L164.04,166.38L163.74,166.73L163.59,166.84"/><path d="M163.39,164.26L163.32,164.27L163.23,164.24L163.17,164.17L163.14,164.06L163.14,164.03L163.15,163.93L163.20,163.79L163.27,163.66L163.37,163.54L163.45,163.48L163.47,163.46L163.58,163.42L163.68,163.42L163.75,163.48L163.79,163.57L163.80,163.69L163.77,163.82L163.72,163.96L163.63,164.09L163.53,164.19L163.42,164.25L163.39,164.26"/><path d="M163.11,161.63L163.15,161.57L163.31,161.40L163.49,161.28"/><path d="M163.67,161.29L163.58,161.27L163.60,161.26"/><path d="M163.58,161.27L163.45,161.30"/><path d="M162.93,162.06L162.94,162.01L163.02,161.80"/><path d="M166.15,166.89L166.15,166.09L166.10,165.73L165.94,165.47L165.71,165.33L165.40,165.32L165.07,165.45L164.74,165.71L164.47,166.02"/><path d="M166.12,162.45L166.10,162.65L165.94,163.09L165.71,163.50L165.40,163.85L165.07,164.10L164.74,164.23L164.44,164.23L164.20,164.09L164.04,163.83L163.99,163.47L163.99,162.67"/><path d="M164.55,160.51L166.15,161.43L167.43,160.69"/><path d="M165.83,163.68L165.71,164.03L165.65,164.44L165.71,164.80L165.86,165.06L166.10,165.20L166.40,165.20L166.73,165.07L167.43,164.68"/><path d="M166.43,166.11L166.51,166.14L166.62,166.12L166.72,166.06L166.83,165.96L166.91,165.83L166.97,165.69L167.00,165.56L167.00,165.52L166.99,165.44L166.95,165.35L166.87,165.29L166.78,165.29L166.67,165.33L166.56,165.41L166.47,165.53L166.39,165.66L166.35,165.80L166.34,165.93L166.37,166.04L166.43,166.11"/><path d="M165.79,163.78L165.80,163.78"/><path d="M166.15,161.43L166.15,162.09"/></g><g style="stroke:#000000;stroke-width:0.529"><path d="M163.38,168.48L162.71,168.86L160.79,167.76L160.79,166.00L160.63,165.91"/><path d="M161.35,164.68L161.36,164.66L161.45,164.51"/><path d="M160.79,163.51L160.79,162.30L161.83,161.70"/><path d="M163.02,161.80L163.02,161.78L163.11,161.63"/><path d="M164.47,166.02L164.44,166.06L164.20,166.47L164.05,166.88"/><path d="M164.58,165.99L166.15,166.89L167.43,166.16L167.43,164.68L165.85,163.77"/><path d="M163.83,160.37L163.99,160.46L165.51,159.59L167.43,160.69L167.43,161.43"/><path d="M166.37,162.86L166.10,163.18L165.86,163.59L165.83,163.68"/></g></g><g id="Actor_.23"><g style="stroke:#000000;stroke-width:0.176"><path d="M120.26,91.88L122.09,90.83"/><path d="M131.93,85.19L130.48,86.02"/></g><g style="stroke:#000000;stroke-width:0.529"><path d="M120.85,89.56L121.29,89.82L122.09,90.83L122.09,92.68L120.26,93.73"/><path d="M133.52,86.11L133.52,86.12L130.90,87.63"/></g></g><g id="Actor_.24"><g style="stroke:#000000;stroke-width:0.176"><path d="M113.06,151.56L117.86,148.75L117.86,35.78L113.06,27.48L106.67,23.81"/><path d="M112.90,86.43L112.85,86.39L112.02,86.16L111.30,86.29L111.11,86.47"/><path d="M113.06,27.48L115.46,26.10"/><path d="M115.63,91.20L115.52,91.90L115.11,92.54L114.46,92.85"/><path d="M117.86,148.75L120.26,147.38"/><path d="M117.86,35.78L120.26,34.41"/></g><g style="stroke:#000000;stroke-width:0.529"><path d="M106.67,85.41L106.67,23.81L109.07,22.44L115.46,26.10L120.26,34.41L120.26,147.38L115.46,150.18L113.06,151.56L106.67,147.89L106.67,102.43"/><path d="M112.90,86.43L113.70,86.97L114.48,87.81L115.11,88.84L115.52,89.95L115.66,91.01L115.63,91.20"/></g></g><g id="Actor_.25"><g style="stroke:#000000;stroke-width:0.176"><path d="M157.57,162.81L157.92,163.01L157.92,162.41L158.72,162.87L158.72,164.81"/><path d="M157.92,162.41L159.05,161.76"/><path d="M158.72,162.87L159.04,162.68"/><path d="M160.24,160.59L160.24,160.21L159.44,159.75L159.44,161.06"/><path d="M159.44,159.75L159.57,159.67"/><path d="M160.24,160.21L161.91,159.25"/><path d="M159.61,159.65L160.55,159.11"/><path d="M162.70,164.87L162.61,164.90L162.51,164.98L162.41,165.09L162.34,165.22L162.30,165.36L162.29,165.46L162.29,165.49L162.32,165.59L162.37,165.66L161.26,165.02"/><path d="M162.37,165.66L162.46,165.69L162.56,165.67L162.66,165.61L162.76,165.51L162.84,165.39L162.90,165.25L162.93,165.12L162.92,165.00L162.88,164.93"/><path d="M162.81,164.87L162.74,164.86"/><path d="M163.43,161.40L163.37,161.36"/><path d="M163.99,162.73L164.04,162.78L163.99,162.75"/><path d="M164.47,161.99L164.38,161.98L164.27,162.02L164.17,162.10L164.08,162.21L164.00,162.34L163.96,162.48L163.95,162.58L163.95,162.61L163.96,162.65"/><path d="M164.55,162.05L164.58,162.13L164.59,162.24L164.56,162.37L164.51,162.51L164.42,162.63L164.32,162.73L164.22,162.79L164.12,162.81L164.04,162.78"/></g><g style="stroke:#000000;stroke-width:0.529"><path d="M159.04,164.63L158.72,164.81L157.92,164.35L157.92,163.75L157.57,163.55"/><path d="M159.57,159.67L159.61,159.65"/><path d="M160.55,159.11L161.11,158.79L161.91,159.25L161.91,159.63"/><path d="M162.88,164.93L162.88,164.92L162.81,164.87L162.77,164.85"/><path d="M164.55,162.05L164.54,162.04L164.47,161.99L163.43,161.40"/><path d="M164.13,166.66L164.22,166.64L164.32,166.58L164.42,166.48L164.51,166.36L164.56,166.23L164.59,166.09L164.58,165.98L164.55,165.92"/><path d="M166.22,163.04L166.24,163.10L166.25,163.21L166.23,163.35L166.17,163.48L166.09,163.60L165.99,163.70L165.88,163.76L165.80,163.78"/></g></g><g><g><path style="stroke:#000000;stroke-width:0.125;stroke-dasharray:2.2 1.5 0.7 1.5" d="M94.60,164.05L148.21,194.80"/></g></g><g><g><path style="stroke:#000000;stroke-width:0.125;stroke-dasharray:2.2 1.5 0.7 1.5" d="M94.60,112.20L147.33,142.45"/></g></g><g id="PMI.0"><g><path style="stroke:#000000;stroke-width:0.125" d="M212.91,176.85L182.95,155.40"/></g><g><path style="fill:#000000" d="M183.70,155.40L183.70,155.32L183.69,155.25L183.67,155.18L183.64,155.11L183.61,155.04L183.57,154.98L183.53,154.92L183.48,154.87L183.43,154.82L183.37,154.77L183.30,154.74L183.24,154.70L183.17,154.68L183.10,154.66L183.02,154.65L182.95,154.65L182.88,154.65L182.80,154.66L182.73,154.68L182.66,154.70L182.60,154.74L182.53,154.77L182.47,154.82L182.42,154.87L182.37,154.92L182.33,154.98L182.29,155.04L182.26,155.11L182.23,155.18L182.21,155.25L182.20,155.32L182.20,155.40L182.20,155.47L182.21,155.54L182.23,155.62L182.26,155.68L182.29,155.75L182.33,155.81L182.37,155.87L182.42,155.93L182.47,155.98L182.53,156.02L182.60,156.06L182.66,156.09L182.73,156.12L182.80,156.13L182.88,156.14L182.95,156.15L183.02,156.14L183.10,156.13L183.17,156.12L183.24,156.09L183.30,156.06L183.37,156.02L183.43,155.98L183.48,155.93L183.53,155.87L183.57,155.81L183.61,155.75L183.64,155.68L183.67,155.62L183.69,155.54L183.70,155.47z"/></g><g><text xml:space="preserve" fill="#000000" stroke-width="0" x="208.16" y="182.28" font-size="3.80" opacity="1.00" font-family="Arial">BPA16089</text></g></g><g/><g><g/><g><text xml:space="preserve" fill="#000000" stroke-width="0" x="7.25" y="12.02" font-size="4.53" opacity="1.00" font-family="Arial" font-weight="bold">BPA15756</text></g></g><g id="paperID" visibility="hidden" opacity="0.00" transform="scale(0.000100)"><path style="stroke:#000000;stroke-width:0.500;fill:#e6e6e6;fill-rule:evenodd" d="M-2000.00,-2000.00L2297.00,-2000.00L2297.00,2210.00L-2000.00,2210.00zM0.00,0.00L297.00,0.00L297.00,210.00L0.00,210.00z"/><path style="fill:#000000;fill-opacity:0.118" d="M3.00,210.00L297.00,210.00L297.00,3.00L300.00,3.00L300.00,213.00L3.00,213.00z"/></g><g id="hotspot.0" onmouseover="ShowHotSpot(evt,'0')" onmouseout="HideHotSpot(evt,'0')" onmousemove="ShowToolTip(evt,'0',&quot;Hotspot 1&quot;)" opacity="0"><a xlink:href=".\BPA16089.svg"><path style="fill:#ff8000;fill-rule:evenodd" d="M155.05,140.48L155.78,141.58L156.15,142.69L156.14,146.60L155.36,147.10L155.35,148.62L157.08,149.64L157.19,151.74L162.41,154.78L162.76,158.29L163.33,158.65L163.61,158.69L165.82,157.37L166.36,157.19L168.08,157.19L168.63,157.37L171.21,158.84L171.88,158.85L182.81,152.50L182.95,152.22L182.03,151.50L180.76,150.57L180.55,150.23L180.55,147.87L181.42,146.91L182.40,146.52L189.03,150.40L189.29,150.40L190.48,149.65L189.74,149.11L185.15,146.54L185.15,144.77L186.55,144.15L189.38,144.15L189.92,144.34L197.29,148.54L198.01,149.47L198.01,152.12L197.82,152.48L196.92,153.23L187.82,158.47L187.70,158.85L187.27,158.85L175.36,165.63L175.26,168.46L174.45,168.95L173.78,168.93L167.70,165.42L167.47,165.43L167.34,166.24L166.37,166.75L165.88,166.75L165.16,166.36L164.40,166.81L164.39,167.09L167.52,169.49L167.65,173.96L168.25,174.09L171.40,179.40L171.41,179.83L167.71,182.03L167.55,185.72L161.60,189.14L160.92,189.14L160.54,188.91L160.31,188.93L160.21,189.94L157.20,191.71L156.32,191.71L155.97,191.50L155.36,191.70L155.36,192.49L156.17,192.97L156.15,196.72L155.71,197.57L149.31,201.25L148.24,201.25L146.61,200.33L146.55,199.41L148.07,198.55L148.26,145.69L148.63,145.24L147.52,144.34L146.55,143.85L146.55,142.87L152.60,139.37L153.22,139.37zM226.46,180.31L226.45,181.48L226.27,182.04L225.85,182.35L224.98,182.34L224.58,181.78L224.58,181.57L224.95,181.61L225.13,181.83L225.87,181.78L225.92,181.42L224.80,181.23L224.60,180.88L224.60,180.00L224.90,179.57L225.91,179.57zM224.27,180.13L224.26,182.05L223.83,182.35L222.95,182.35L222.39,181.79L222.39,181.30L222.60,180.69L222.60,179.83L222.89,179.57L223.90,179.57zM222.06,179.94L222.06,181.86L221.64,182.36L220.77,182.33L220.40,181.97L220.38,180.00L220.68,179.57L221.69,179.57zM219.88,179.76L219.85,180.21L219.51,180.14L219.28,179.93L218.87,179.94L218.66,180.31L219.49,180.49L219.83,180.69L220.05,181.04L220.04,181.67L219.60,182.34L218.73,182.35L218.18,181.80L218.18,180.18L218.67,179.57L219.68,179.56zM213.07,179.74L213.00,181.06L211.52,181.23L211.39,182.42L210.98,182.42L210.96,179.58L212.89,179.56zM210.32,179.74L210.50,181.86L210.29,182.21L209.69,182.34L208.39,182.40L208.39,179.58L210.14,179.56zM215.82,181.98L215.81,182.41L215.39,182.41L215.07,181.60L214.07,181.58L213.72,182.36L213.36,182.41L213.41,181.65L214.28,179.58L214.88,179.58zM216.65,180.49L216.29,180.57L216.35,180.01L217.05,179.55L217.27,179.56L217.26,182.43L217.05,182.43L216.92,180.31zM170.51,179.40L170.48,179.65L170.09,179.59L170.03,179.21L170.28,179.18zM225.93,180.12L225.85,180.88L225.16,180.88L225.16,180.00L225.73,179.92zM223.73,180.12L223.65,180.51L223.14,180.51L223.14,180.00L223.53,179.92zM221.69,180.49L221.68,181.30L221.48,181.85L220.94,181.79L220.69,180.88L220.95,179.99L221.32,179.92zM212.69,180.30L212.45,180.68L211.52,180.75L211.52,179.94L212.33,179.94zM209.94,180.31L209.89,180.50L208.94,180.56L208.95,179.94L209.57,179.94zM214.90,181.06L214.26,181.12L214.54,180.29zM219.50,181.23L219.43,181.79L218.73,181.79L218.74,181.11L219.13,180.86zM223.72,181.21L223.71,181.85L222.94,181.78L222.95,181.31L223.27,181.03L223.52,181.02zM209.89,181.79L208.94,181.85L208.94,181.23L209.95,181.24z"/></a></g></g></svg>
