<?xml version="1.0" encoding="UTF-8" standalone="no"?>
<svg xmlns="http://www.w3.org/2000/svg" xmlns:xlink="http://www.w3.org/1999/xlink" width="297.000mm" height="210.000mm" viewBox="0.000000 0.000000 297.000000 210.000000" stroke-linejoin="round" stroke-linecap="round" fill="none" fill-rule="evenodd"><desc>Composer Export</desc><script type="text/ecmascript"><![CDATA[
if(typeof(top) != "undefined")
{
	top.ShowPaper = ShowPaper;
}
function ShowPaper()
{
  var svgDocument = getDocument();
  var paper = svgDocument.getElementById("paperID");
  if(paper)
  {
    paper.setAttribute("transform","scale(1)");
    paper.setAttribute("opacity","1");
    paper.setAttribute("visibility","visible");
  }
  var svg = svgDocument.getRootElement();
  if(svg)
  {
    svg.setAttribute("width","307.000mm");
    svg.setAttribute("height","220.000mm");
    svg.setAttribute("viewBox","-5.000000 -5.000000 307.000000 220.000000");
  }
}
]]></script><defs/><g><path style="fill:#000000;fill-opacity:0.098;fill-rule:evenodd" d="M147.02,40.79L150.67,41.30L152.76,41.30L153.14,44.03L153.27,46.55L152.76,49.68L151.28,52.24L149.76,54.36L148.73,55.41L146.45,57.43L143.64,57.44L140.51,56.93L140.21,56.82L140.65,53.97L140.65,51.19L140.20,48.46L141.76,47.02L143.90,44.86L145.07,43.17L146.50,40.65zM133.48,50.68L133.62,51.19L133.63,51.88L133.11,51.57L132.05,50.42L132.06,49.88zM170.47,58.53L169.16,59.58L167.73,61.13L166.62,62.89L166.25,63.82L166.03,64.90L166.03,66.03L166.15,66.69L166.82,67.97L167.60,68.62L168.62,69.03L170.15,69.03L170.93,68.76L172.03,68.04L172.88,67.07L173.45,66.33L174.22,64.64L174.62,63.60L175.01,61.65L175.14,60.29L177.74,62.00L179.05,63.28L180.87,64.98L183.75,68.64L183.73,68.80L163.77,80.23L163.56,80.22L162.38,77.62L161.08,73.06L160.69,69.41L160.69,67.76L161.07,64.63L162.39,61.53L164.55,59.39L167.15,58.35L169.41,58.35zM211.63,60.24L214.19,66.93L215.35,72.93L215.35,78.96L214.18,83.64L211.72,87.30L208.92,89.18L189.93,100.15L189.66,100.13L190.89,99.26L193.23,95.61L194.40,91.06L194.40,84.77L193.23,78.91L190.89,72.67L190.74,72.41L190.71,72.02L211.41,60.15zM145.74,80.98L146.65,81.77L148.99,83.98L151.86,87.62L154.18,91.80L155.87,96.22L156.79,101.04L156.79,105.25L156.66,106.16L155.88,109.15L154.19,111.89L152.25,113.20L98.75,143.92L97.87,144.33L98.22,144.03L99.00,142.99L100.17,141.17L100.95,138.04L100.95,133.06L100.04,128.77L98.29,123.94L153.80,92.09L153.81,91.80L151.33,87.49L148.47,83.85L146.50,81.91L145.45,80.97L145.43,80.85zM270.40,126.16L270.40,126.86L270.15,126.83L222.00,99.21L221.19,98.31L221.16,98.04L221.33,98.03zM84.38,112.25L85.74,111.45L85.74,113.31L84.41,112.48zM284.85,118.61L287.58,118.74L287.73,118.99L288.11,122.12L288.11,124.77L287.59,127.11L286.15,129.71L284.59,131.80L283.03,133.36L281.42,134.75L278.08,134.75L275.17,134.27L275.61,130.63L275.48,128.24L275.22,126.68L275.22,125.68L276.21,124.85L278.86,122.17L280.30,119.95L281.30,118.09zM94.23,122.86L94.05,122.76L94.06,122.50zM96.40,125.90L98.22,129.02L99.65,132.93L99.91,134.10L100.17,137.65L99.52,140.91L97.95,143.50L96.54,144.43L95.73,145.45L93.61,146.84L70.89,159.91L70.11,166.29L68.16,170.84L65.11,173.91L57.03,178.59L53.02,180.18L48.89,180.17L47.58,180.05L42.79,178.34L42.48,178.07L42.76,178.08L46.54,179.40L51.20,179.53L55.03,178.02L57.74,175.27L59.70,170.85L60.35,165.34L59.92,161.41L61.91,161.22L61.78,158.95L59.70,151.93L58.09,148.40L59.26,147.63L66.30,143.59L66.35,143.34L66.06,142.82L66.02,142.43L95.49,125.54L95.50,125.25L94.31,123.17L94.23,122.86L94.32,122.90zM97.77,144.52L97.51,144.51L97.87,144.33zM52.93,152.84L54.36,157.65L54.75,161.04L54.75,163.29L54.37,166.29L53.06,169.28L51.05,171.31L47.53,173.39L44.95,174.45L41.07,174.45L37.45,173.13L37.14,172.87L37.43,172.87L39.64,173.67L41.60,173.79L43.00,173.80L45.53,172.81L47.46,170.84L48.64,168.12L49.02,165.11L49.02,163.51L48.84,161.68L50.85,161.48L50.72,159.86L49.28,155.05L48.19,152.69L51.72,150.61L51.88,150.62zM35.49,153.10L36.14,153.49L37.46,154.79L37.44,155.08L33.41,157.44L32.88,155.97L32.88,154.05L33.41,153.28L34.14,152.83zM17.80,165.46L17.80,165.64L17.66,165.60L17.66,165.32zM19.35,168.59L19.35,170.84L18.78,171.97L17.40,172.79L17.27,173.83L14.53,175.41L14.40,174.57L14.27,172.49L14.27,170.32L16.89,168.77L16.87,168.25L18.83,167.16zM10.51,171.89L11.89,171.18L12.20,171.17L12.34,171.30L12.45,171.98L12.32,172.93L11.77,173.41L10.31,173.65L10.11,173.96L9.33,174.62L8.64,174.84L7.76,174.84L7.32,174.71L7.92,174.51L8.03,174.37L8.12,173.67L9.14,172.74L9.68,171.72L9.85,170.91zM6.94,173.66L7.21,173.51L7.38,173.53L7.35,173.80L7.09,173.81zM149.63,45.59L150.16,45.98L150.28,47.33L149.84,49.66L150.53,49.88L149.89,51.24L148.93,52.62L147.62,53.80L147.42,53.80L147.15,53.27L146.86,53.26L146.33,53.53L145.55,53.80L144.42,53.80L143.65,53.27L143.25,52.63L143.11,52.24L143.12,50.19L143.47,48.85L144.44,47.09L145.60,45.65L146.85,44.81L147.50,44.54L147.81,44.54zM208.84,78.27L208.98,78.65L209.10,80.26L208.85,81.57L207.67,83.90L206.85,84.90L206.12,85.74L204.70,86.91L203.12,87.81L202.03,88.03L201.29,87.90L200.52,87.37L200.12,86.21L200.12,83.51L200.51,81.82L201.17,80.13L202.35,78.19L203.51,77.13L204.76,76.44L205.35,76.32zM150.03,105.84L150.41,106.76L150.41,108.11L150.02,109.54L149.63,110.32L148.98,111.36L147.56,113.07L145.59,114.61L143.87,115.49L142.46,115.50L141.69,114.83L141.42,114.06L141.43,111.10L141.94,108.89L142.87,106.69L144.11,105.06L145.16,104.29L146.07,103.90L146.64,103.90z"/><g id="Actor_1.0"><g style="stroke:#000000;stroke-width:0.176"><path d="M41.71,177.67L46.60,179.40L51.11,179.53L54.95,178.05L57.88,175.06L59.71,170.74L60.34,165.37L59.71,159.29L57.88,152.87L54.95,146.52L51.11,140.64L46.60,135.59L41.71,131.71L36.73,129.22L35.69,129.01L31.99,128.28L27.79,128.96L24.38,131.21L21.97,134.89L20.74,139.77"/><path d="M20.74,138.46L20.74,138.43"/><path d="M28.17,127.05L32.59,126.33L37.58,127.31L42.82,129.93L47.97,134.03L51.80,138.32L52.72,139.34L56.76,145.53L59.84,152.21L61.77,158.97L62.43,165.37L61.77,171.03L59.84,175.57L56.76,178.71"/><path d="M31.24,135.90L31.29,135.87L31.37,135.86"/><path d="M34.27,135.39L34.33,135.38L34.40,135.39"/><path d="M50.89,171.42L50.94,171.40L50.99,171.35"/><path d="M53.11,169.13L53.06,169.23L53.02,169.28"/></g><g style="stroke:#000000;stroke-width:0.529"><path d="M24.69,158.86L24.38,158.28L21.97,151.85L20.74,145.55L20.74,138.43L22.05,133.29L24.58,129.41L28.17,127.05L36.54,122.24L40.96,121.53L45.95,122.51L51.19,125.13L56.34,129.23L61.01,134.45L61.09,134.54L65.13,140.73L68.21,147.41L70.14,154.17L70.80,160.57L70.14,166.23L68.21,170.77L65.13,173.91L56.76,178.71L52.72,180.27L47.97,180.13L42.82,178.32L41.71,177.67L36.73,174.46L31.99,169.95L27.79,164.45L27.71,164.31"/><path d="M37.69,136.04L37.76,136.06L37.83,136.09"/><path d="M41.33,137.84L41.44,137.92"/><path d="M44.83,140.62L44.90,140.67L44.99,140.77"/><path d="M48.08,144.23L48.17,144.32L48.22,144.41"/><path d="M50.89,148.50L50.98,148.67"/><path d="M53.02,153.08L53.09,153.27"/><path d="M54.37,166.17L54.39,166.11L54.40,166.04"/><path d="M54.83,162.14L54.84,162.22L54.83,162.30"/><path d="M54.40,157.90L54.37,157.73"/></g></g><g id="Actor_1.1"><g style="stroke:#000000;stroke-width:0.176"><path d="M36.59,172.58L39.87,173.73L42.90,173.82L45.47,172.83L47.44,170.82L48.67,167.93L49.09,164.32L48.67,160.24L47.44,155.93L45.47,151.67L42.90,147.73L42.59,147.39L39.87,144.34L36.59,141.73L33.25,140.06L30.07,139.43L27.25,139.89L24.96,141.40L23.35,143.87L22.52,147.15"/><path d="M27.63,137.97L30.67,137.48L32.39,137.82L34.10,138.16L37.70,139.96L41.24,142.77L44.50,146.42L47.28,150.68L49.40,155.28L50.73,159.92L51.18,164.32L50.73,168.21L49.40,171.33L47.28,173.50"/><path d="M33.16,156.92L32.85,155.87L32.76,154.96L32.85,154.15L33.13,153.50L33.57,153.05L34.15,152.82L34.82,152.84L35.56,153.10L36.31,153.59L37.02,154.27L37.66,155.10L38.17,156.02L38.53,156.99L38.72,157.94L38.72,158.81L38.53,159.55L38.17,160.10L37.66,160.44L37.02,160.54L36.31,160.40L35.56,160.03L34.82,159.44L34.15,158.68L33.57,157.80L33.16,156.92"/><path d="M75.49,110.79L76.43,110.43L79.69,110.52L83.23,111.77L84.21,112.30L86.37,110.98"/><path d="M76.27,110.00L79.04,108.93L82.31,109.02L85.85,110.27L86.75,110.75L89.45,112.59L92.88,115.85L95.92,119.84L98.39,124.30L100.13,128.96L101.03,133.52L101.03,135.00L101.03,137.69L100.13,141.22L98.39,143.89L95.92,145.52"/><path d="M84.21,112.30L86.83,114.10L90.26,117.35L93.31,121.34L95.78,125.80L97.51,130.46L98.41,135.02L98.41,139.19L97.51,142.73L95.78,145.39L95.47,145.59"/><path d="M86.57,113.91L86.79,113.82L86.97,113.67L87.04,113.57L87.22,113.17L87.29,112.74L87.29,112.55L87.21,111.90L87.11,111.53L87.02,111.35"/><path d="M141.57,114.42L141.39,113.85L141.31,113.28L141.29,112.64L141.31,111.95L141.39,111.21L141.68,109.66L142.18,108.10L142.88,106.64L143.78,105.40L144.29,104.89L144.83,104.46L145.41,104.13L146.00,103.90L147.20,103.75L148.34,104.01L149.31,104.63L150.02,105.57L150.39,106.74L150.44,107.39L150.39,108.07L150.02,109.47L149.31,110.86L148.34,112.18L147.20,113.35L146.00,114.32L145.41,114.72L144.83,115.05L144.29,115.30L143.78,115.48L142.88,115.60L142.18,115.36L141.68,114.77L141.57,114.42"/><path d="M141.56,78.31L145.16,80.64L145.30,80.77L148.59,83.90L151.63,87.88L154.10,92.34L155.84,97.00L156.74,101.56L156.85,103.71"/></g><g style="stroke:#000000;stroke-width:0.529"><path d="M31.19,135.92L27.63,137.97L25.15,139.62L23.42,142.27L22.52,145.80L22.52,151.02L23.35,155.25L24.96,159.57L26.69,162.69L27.25,163.70L30.07,167.40L33.25,170.42L36.59,172.58L37.70,173.22L41.24,174.47L44.50,174.57L47.28,173.50L50.84,171.45"/><path d="M93.39,146.97L95.47,145.59L95.92,145.52L151.63,113.56L154.10,111.93L155.84,109.27L156.74,105.74L156.85,103.71L156.85,102.52L156.74,100.52L155.91,96.29L154.30,91.97L152.01,87.83L149.19,84.14L146.01,81.12L142.67,78.96L141.56,78.31L138.02,77.06L134.76,76.97L131.98,78.04L76.27,110.00L75.49,110.79L73.65,111.50L50.52,124.80"/><path d="M50.96,171.38L50.91,171.41"/><path d="M92.52,147.47L70.74,160.00"/></g></g><g id="Actor_4.0"><g style="stroke:#000000;stroke-width:0.176"><path d="M133.53,50.37L133.36,48.72L133.49,50.13L133.53,50.37L133.68,51.94"/><path d="M133.36,48.72L133.44,47.25L133.92,44.85L140.18,48.43L140.66,51.39L140.74,52.95L140.40,55.97L140.18,56.83"/><path d="M133.92,44.85L134.43,43.82L135.03,42.90L135.46,42.10L136.50,40.62L135.03,42.90"/><path d="M136.50,40.62L137.09,39.96"/><path d="M137.75,39.23L140.20,37.05L146.45,40.63L144.93,43.40L143.88,44.86L142.83,46.33L141.94,47.98L141.28,49.69L140.87,51.39L140.74,52.95L140.87,54.35L141.27,55.58L141.93,56.53L142.81,57.16L143.88,57.45L145.05,57.39L146.35,56.97L147.68,56.20L148.98,55.13L150.15,53.85"/><path d="M140.18,48.43L141.12,47.66L143.88,44.86L145.05,43.57L146.35,42.50L147.68,41.74L148.98,41.32L150.15,41.25L151.21,41.32L152.73,41.23"/><path d="M140.20,37.05L140.69,36.99L142.78,37.02L143.47,37.11"/><path d="M143.92,54.35L144.09,54.50L144.30,54.56L143.92,54.35L143.58,54.04L143.34,53.73L143.09,53.21L142.98,52.85L142.86,52.12L142.85,51.76L142.92,50.69L142.97,50.52L142.91,50.86"/><path d="M143.09,53.21L143.01,53.05L142.98,52.85"/><path d="M143.58,54.04L143.44,53.92L143.34,53.73"/><path d="M144.82,46.52L144.47,47.00L144.54,46.88L144.73,46.62L145.08,46.21L145.80,45.48L146.71,44.85L147.62,44.48L148.04,44.45L148.47,44.41L149.20,44.63L149.77,45.14L150.14,45.90L150.29,46.86L150.22,47.96L150.07,48.55L149.92,49.14L149.41,50.32L148.73,51.42L147.91,52.38L147.47,52.76L147.02,53.13L146.10,53.64L145.22,53.86L144.42,53.78L143.77,53.42L143.29,52.78L143.03,51.91L142.99,50.87L143.18,49.72L143.46,48.89L143.33,49.19L143.23,49.50L142.97,50.52"/><path d="M142.85,51.76L142.83,51.95L142.86,52.12"/><path d="M142.91,50.77L142.92,50.69"/><path d="M143.33,49.19L143.27,49.35L143.23,49.50"/><path d="M143.78,48.15L143.85,48.00L143.93,47.86L143.78,48.15L143.46,48.89"/><path d="M143.90,47.91L143.85,48.00"/><path d="M143.93,47.86L143.96,47.82L143.76,48.20"/><path d="M144.30,54.56L144.88,54.74L144.91,54.74L145.01,54.74L144.92,54.75L144.88,54.74"/><path d="M145.01,54.74L145.58,54.69L146.22,54.53L145.89,54.67L145.58,54.69"/><path d="M143.96,47.82L144.47,47.00"/><path d="M144.73,46.62L144.63,46.74L144.54,46.88"/><path d="M145.08,46.21L145.44,45.78L145.68,45.54L145.56,45.65L145.44,45.78"/><path d="M145.68,45.54L146.43,44.90L146.73,44.70L146.58,44.78L146.43,44.90"/><path d="M146.22,54.53L146.57,54.40L147.29,54.00L146.93,54.25L146.57,54.40"/><path d="M147.29,54.00L147.58,53.79L148.34,53.16L148.57,52.92L149.29,52.08L149.48,51.82L150.08,50.83L150.23,50.55L150.68,49.51L150.50,50.04L150.23,50.55"/><path d="M146.73,44.70L147.45,44.30L147.80,44.16L147.63,44.21L147.45,44.30"/><path d="M146.45,40.63L147.40,40.83L150.15,41.25L151.20,41.53L152.09,42.16L152.75,43.11L153.16,44.34"/><path d="M147.58,53.79L147.97,53.52L148.34,53.16"/><path d="M148.44,44.00L148.64,43.95L149.11,43.95L149.72,44.14L149.55,44.04L149.11,43.95L148.44,44.00L147.80,44.16"/><path d="M148.57,52.92L148.95,52.54L149.29,52.08"/><path d="M149.48,51.82L149.82,51.35L150.08,50.83"/><path d="M150.68,49.51L150.79,49.20L151.05,48.18L151.11,47.84L151.17,46.94L151.16,46.57L151.04,45.85L150.93,45.49L150.67,44.97L150.44,44.66L150.09,44.35L149.72,44.14"/><path d="M150.79,49.20L150.97,48.68L151.05,48.18"/><path d="M150.93,45.49L150.84,45.19L150.67,44.97"/><path d="M150.09,44.35L150.30,44.46L150.44,44.66"/><path d="M151.63,51.58L152.09,50.72L152.75,49.01L153.16,47.31L153.29,45.75"/><path d="M151.11,47.84L151.19,47.37L151.17,46.94"/><path d="M151.16,46.57L151.14,46.18L151.04,45.85"/><path d="M150.84,45.19L150.80,45.13"/></g><g style="stroke:#000000;stroke-width:0.529"><path d="M135.69,38.00L135.14,38.46L133.82,40.02L132.71,41.81L131.89,43.72L131.40,45.64L131.27,47.43L131.27,47.59L131.52,49.19L131.59,49.38L132.22,50.66L132.35,50.83L133.32,51.70L133.50,51.84L133.68,51.94L133.70,52.15L133.92,53.24L140.18,56.83L141.09,57.02L143.88,57.45L144.93,57.51L146.45,57.43L148.94,55.21L150.15,53.85L151.20,52.38L151.63,51.58L152.23,50.66L152.73,49.63L153.21,47.22L153.29,45.75L153.16,44.34L153.13,44.10L152.95,42.33L152.73,41.23L146.48,37.64L143.99,37.18L143.47,37.11L141.69,36.15L141.48,36.07L139.92,35.92L139.71,35.96L138.24,36.32L136.72,37.16L136.59,37.23L136.42,37.38"/></g></g><g id="Actor_2.0"><g style="stroke:#000000;stroke-width:0.176"><path d="M169.71,59.07L170.60,58.39L170.54,58.37L167.27,58.28L164.49,59.35L162.37,61.52L161.04,64.65L160.59,68.54L161.04,72.95L162.37,77.60L164.49,82.21L167.27,86.47L170.54,90.13L174.09,92.95L177.70,94.75L181.13,95.43L184.19,94.94L186.66,93.30L188.40,90.64L189.29,87.10L189.29,82.91L188.40,78.34L186.66,73.68L184.19,69.21L181.13,65.22L177.70,61.95L175.10,60.27L175.10,60.55L174.95,62.02L174.60,63.58L174.05,65.13L173.30,66.55L172.36,67.72L171.83,68.19L171.27,68.57L170.68,68.85L170.08,69.03L168.89,69.08L167.78,68.72L166.87,68.02L166.24,67.01L165.96,65.79L165.95,65.39"/><path d="M160.70,53.05L164.49,51.59L168.93,51.71L173.77,53.42L178.67,56.59L183.35,61.03L187.50,66.47L190.87,72.55L193.24,78.90L193.83,81.92L194.46,85.12L194.46,90.81L193.24,95.63L190.89,99.23L190.87,99.26L187.50,101.49"/><path d="M170.60,58.39L174.09,59.62L175.10,60.27"/><path d="M203.91,76.85L204.59,76.46L205.77,76.19L206.89,76.32L207.86,76.83L208.60,77.67L209.03,78.77L209.12,80.07L208.85,81.47L208.26,82.90L207.40,84.26L206.34,85.50L205.18,86.55L204.01,87.35L202.91,87.85L201.93,88.03L201.13,87.85L200.54,87.33L200.15,86.46L199.98,85.31L200.04,83.93L200.19,83.11L200.23,83.07"/><path d="M200.19,83.11L200.20,83.06"/></g><g style="stroke:#000000;stroke-width:0.529"><path d="M184.42,101.98L183.35,102.16L178.67,101.23L173.77,98.78L168.93,94.94L164.49,89.96L160.70,84.16L157.81,77.89L156.00,71.56L155.38,65.55L156.00,60.25L157.81,56.00L160.70,53.05L181.62,41.04L185.41,39.59L189.86,39.71L194.69,41.42L199.60,44.59L204.27,49.03L208.43,54.46L211.79,60.55L214.16,66.90L215.38,73.12L215.38,78.81L214.16,83.63L211.79,87.26L208.43,89.48L187.50,101.49L185.37,101.83"/><path d="M166.03,64.62L165.95,65.39L166.96,64.63L167.94,63.47L168.74,62.08L169.34,60.56L169.71,59.07L169.48,59.24L168.32,60.37L167.30,61.65L166.51,63.03L166.05,64.44L166.03,64.62"/><path d="M200.30,82.48L200.20,83.06L200.23,83.07L200.98,82.42L202.09,81.21L203.00,79.87L203.63,78.47L203.91,77.08L203.91,76.85L203.45,77.12L202.40,78.12L201.51,79.41L200.81,80.87L200.30,82.48"/></g></g><g id="Actor_3.0"><g style="stroke:#000000;stroke-width:0.176"><path d="M224.68,89.36L223.65,90.18L222.78,91.15L222.70,91.24L221.89,92.48L221.27,93.82L220.89,95.17L220.76,96.45"/><path d="M270.44,126.94L270.60,125.40L270.82,124.63L270.82,129.54"/><path d="M270.82,124.63L270.82,123.37L275.07,125.80L275.55,128.76L275.63,130.32L275.76,128.76L276.17,127.07L276.83,125.35L277.72,123.70L278.77,122.23L276.02,125.03L275.07,125.80"/><path d="M270.82,123.37L276.02,116.90L274.74,117.92L273.31,119.51L272.10,121.37L271.67,122.30"/><path d="M273.96,119.47L273.73,119.75"/><path d="M275.07,134.20L275.29,133.36L275.63,130.32L275.76,131.73L276.17,132.96L276.78,133.85L276.83,133.92L277.72,134.55L278.77,134.82L279.95,134.76L281.24,134.34L282.03,133.88L282.57,133.57L283.87,132.51L285.05,131.22"/><path d="M276.02,116.90L276.22,116.65"/><path d="M277.09,115.57L281.35,118.01L282.29,118.20L285.05,118.63L286.09,118.90L286.98,119.53L287.31,120.00L287.65,120.48L288.05,121.71"/><path d="M287.62,118.60L286.10,118.69L285.05,118.63L283.87,118.69L282.57,119.11L281.24,119.87L279.95,120.94L278.77,122.23L279.82,120.77L281.35,118.01"/><path d="M278.76,115.73L280.85,115.92"/><path d="M286.52,128.96L286.97,128.12L287.64,126.41L288.05,124.72L288.18,123.12"/></g><g style="stroke:#000000;stroke-width:0.529"><path d="M264.42,123.49L221.89,99.12L221.27,98.49L220.89,97.58L220.76,96.45L220.76,95.79L220.87,94.68L221.20,93.52L221.73,92.37L222.43,91.30L223.25,90.38L224.14,89.68L224.68,89.36L225.73,88.84L226.72,88.64L227.61,88.78L276.22,116.65L277.09,115.57L278.76,115.73L279.35,115.61L280.68,115.82L280.85,115.92L283.37,116.16L287.62,118.60L287.84,119.70L288.18,123.12L288.10,124.63L287.62,127.00L287.11,128.05L286.52,128.96L286.08,129.76L285.05,131.22L283.83,132.59L281.35,134.80L280.84,134.86L278.77,134.82L277.56,134.67L275.07,134.20L270.82,131.76L270.82,129.54L270.60,129.02L270.40,127.32L270.44,126.94L265.40,124.06"/></g></g><g id="Actor_5.0"><g style="stroke:#000000;stroke-width:0.176"><path d="M6.88,173.67L6.77,173.56L6.67,173.43L6.59,173.29L6.53,173.14L6.50,172.99L6.50,172.85L6.53,172.73L6.58,172.64L6.66,172.59L6.76,172.57L6.88,172.59L6.99,172.65L7.11,172.74L7.22,172.86L7.31,173.00L7.38,173.15L7.42,173.30L7.44,173.41L7.44,173.45L7.42,173.57L7.38,173.68L7.31,173.75L7.22,173.79L7.12,173.78L7.00,173.74L6.88,173.67"/><path d="M5.80,172.44L5.85,172.13L5.98,171.90L6.16,171.74L6.40,171.67L6.67,171.70L6.96,171.82L7.25,172.03L7.52,172.31L7.76,172.64L7.95,173.01L8.08,173.39L8.13,173.75L8.12,174.08L8.03,174.36L7.88,174.56L7.66,174.67L7.41,174.69L7.12,174.61"/><path d="M6.83,166.76L10.33,166.02L13.21,164.37L12.21,164.58"/><path d="M9.47,174.48L9.75,174.31L10.06,173.96L10.27,173.69L10.45,173.29L10.55,172.97L10.57,172.58L10.50,172.15L10.35,171.70L10.13,171.27L9.85,170.87L9.52,170.54L9.18,170.30L8.84,170.16L8.07,170.08L7.62,170.16L7.28,170.26L7.04,170.39"/><path d="M10.30,173.62L11.72,173.40L12.05,173.23L12.29,172.92L12.43,172.49L12.45,171.97L12.36,171.40L12.16,170.81L11.87,170.24L11.50,169.72L11.07,169.28L10.61,168.96L10.16,168.77L9.74,168.72L9.37,168.83L9.08,169.07L8.26,170.09"/><path d="M10.33,166.02L14.13,170.34L14.27,172.70"/><path d="M13.21,164.37L17.01,168.69L14.13,170.34"/><path d="M17.26,172.87L17.01,168.69"/><path d="M19.44,170.19L19.44,169.68L19.38,169.15L19.11,168.05L18.64,166.94L18.00,165.90L17.62,165.44L17.24,164.99L16.41,164.27"/><path d="M19.44,169.73L19.44,169.74"/></g><g style="stroke:#000000;stroke-width:0.529"><path d="M15.09,175.03L17.31,173.75L17.26,172.87L18.38,172.24L18.93,171.78L19.29,171.08L19.44,170.19L19.44,169.73L19.44,169.28L19.39,168.81L19.14,167.83L18.73,166.84L18.16,165.91L17.49,165.10L16.74,164.46L16.41,164.27L15.55,163.78L14.71,163.56L13.96,163.62L13.34,163.95L12.21,164.58L9.70,165.11L6.83,166.76L7.04,170.39L6.87,170.48L6.60,170.71L6.28,171.03L6.07,171.43L5.92,171.72L5.85,172.09L5.80,172.44L5.82,172.79L5.91,173.16L6.07,173.54L6.29,173.89L6.55,174.20L6.83,174.45L7.12,174.61L7.47,174.75L7.82,174.84L8.25,174.86L8.60,174.84L9.05,174.72L9.35,174.56L9.47,174.48L10.93,176.14L14.22,175.45"/></g></g><g><g><path style="stroke:#000000;stroke-width:0.044;stroke-dasharray:1.6 1.0 0.5 1.0" d="M144.06,47.66L158.09,55.71"/><path style="stroke:#000000;stroke-width:0.044;stroke-dasharray:1.6 1.0 0.5 1.0" d="M167.66,61.19L185.37,71.35"/><path style="stroke:#000000;stroke-width:0.044;stroke-dasharray:1.6 1.0 0.5 1.0" d="M221.81,92.25L201.06,80.35"/></g></g><g><g><path style="stroke:#000000;stroke-width:0.044;stroke-dasharray:1.6 1.0 0.5 1.0" d="M37.86,155.46L18.55,166.54"/><path style="stroke:#000000;stroke-width:0.044;stroke-dasharray:1.6 1.0 0.5 1.0" d="M185.16,70.97L152.92,89.47"/></g></g><g id="PMI4.0"><g><path style="stroke:#000000;stroke-width:0.044" d="M122.77,19.16L140.17,43.44"/></g><g><path style="fill:#000000" d="M140.92,43.44L140.92,43.37L140.91,43.29L140.89,43.22L140.86,43.15L140.83,43.09L140.79,43.02L140.75,42.96L140.70,42.91L140.65,42.86L140.59,42.82L140.52,42.78L140.46,42.75L140.39,42.72L140.32,42.70L140.24,42.69L140.17,42.69L140.10,42.69L140.02,42.70L139.95,42.72L139.88,42.75L139.82,42.78L139.75,42.82L139.69,42.86L139.64,42.91L139.59,42.96L139.55,43.02L139.51,43.09L139.48,43.15L139.45,43.22L139.43,43.29L139.42,43.37L139.42,43.44L139.42,43.51L139.43,43.59L139.45,43.66L139.48,43.73L139.51,43.79L139.55,43.86L139.59,43.92L139.64,43.97L139.69,44.02L139.75,44.06L139.82,44.10L139.88,44.13L139.95,44.16L140.02,44.18L140.10,44.19L140.17,44.19L140.24,44.19L140.32,44.18L140.39,44.16L140.46,44.13L140.52,44.10L140.59,44.06L140.65,44.02L140.70,43.97L140.75,43.92L140.79,43.86L140.83,43.79L140.86,43.73L140.89,43.66L140.91,43.59L140.92,43.51z"/></g><g><text xml:space="preserve" fill="#000000" stroke-width="0" x="113.62" y="17.41" font-size="3.45" opacity="1.00" font-family="Arial">ND0525</text></g></g><g id="PMI2.0"><g><path style="stroke:#000000;stroke-width:0.044" d="M186.93,198.93L184.81,97.97"/></g><g><path style="fill:#000000" d="M185.56,97.97L185.56,97.90L185.55,97.83L185.53,97.75L185.50,97.68L185.47,97.62L185.44,97.56L185.39,97.50L185.34,97.44L185.29,97.39L185.23,97.35L185.17,97.31L185.10,97.28L185.03,97.25L184.96,97.24L184.89,97.23L184.81,97.22L184.74,97.23L184.67,97.24L184.59,97.25L184.52,97.28L184.46,97.31L184.39,97.35L184.34,97.39L184.28,97.44L184.23,97.50L184.19,97.56L184.15,97.62L184.12,97.68L184.09,97.75L184.08,97.83L184.07,97.90L184.06,97.97L184.07,98.05L184.08,98.12L184.09,98.19L184.12,98.26L184.15,98.33L184.19,98.39L184.23,98.45L184.28,98.50L184.34,98.55L184.39,98.60L184.46,98.63L184.52,98.66L184.59,98.69L184.67,98.71L184.74,98.72L184.81,98.72L184.89,98.72L184.96,98.71L185.03,98.69L185.10,98.66L185.17,98.63L185.23,98.60L185.29,98.55L185.34,98.50L185.39,98.45L185.44,98.39L185.47,98.33L185.50,98.26L185.53,98.19L185.55,98.12L185.56,98.05z"/></g><g><text xml:space="preserve" fill="#000000" stroke-width="0" x="177.91" y="203.39" font-size="3.45" opacity="1.00" font-family="Arial">BPA10322</text></g></g><g id="PMI3.0"><g><path style="stroke:#000000;stroke-width:0.044" d="M268.39,198.93L264.59,116.84"/></g><g><path style="fill:#000000" d="M265.34,116.84L265.34,116.77L265.33,116.70L265.31,116.63L265.29,116.56L265.25,116.49L265.22,116.43L265.17,116.37L265.12,116.31L265.07,116.26L265.01,116.22L264.95,116.18L264.88,116.15L264.81,116.13L264.74,116.11L264.67,116.10L264.59,116.09L264.52,116.10L264.45,116.11L264.38,116.13L264.31,116.15L264.24,116.18L264.18,116.22L264.12,116.26L264.06,116.31L264.01,116.37L263.97,116.43L263.93,116.49L263.90,116.56L263.88,116.63L263.86,116.70L263.85,116.77L263.84,116.84L263.85,116.92L263.86,116.99L263.88,117.06L263.90,117.13L263.93,117.20L263.97,117.26L264.01,117.32L264.06,117.37L264.12,117.42L264.18,117.47L264.24,117.50L264.31,117.54L264.38,117.56L264.45,117.58L264.52,117.59L264.59,117.59L264.67,117.59L264.74,117.58L264.81,117.56L264.88,117.54L264.95,117.50L265.01,117.47L265.07,117.42L265.12,117.37L265.17,117.32L265.22,117.26L265.25,117.20L265.29,117.13L265.31,117.06L265.33,116.99L265.34,116.92z"/></g><g><text xml:space="preserve" fill="#000000" stroke-width="0" x="261.60" y="203.39" font-size="3.45" opacity="1.00" font-family="Arial">ND0903</text></g></g><g id="PMI1.0"><g><path style="stroke:#000000;stroke-width:0.044" d="M104.81,198.93L89.54,132.33"/></g><g><path style="fill:#000000" d="M90.29,132.33L90.29,132.26L90.28,132.18L90.26,132.11L90.24,132.04L90.20,131.98L90.17,131.91L90.12,131.86L90.07,131.80L90.02,131.75L89.96,131.71L89.90,131.67L89.83,131.64L89.76,131.61L89.69,131.60L89.62,131.58L89.54,131.58L89.47,131.58L89.40,131.60L89.32,131.61L89.26,131.64L89.19,131.67L89.13,131.71L89.07,131.75L89.01,131.80L88.96,131.86L88.92,131.91L88.88,131.98L88.85,132.04L88.82,132.11L88.81,132.18L88.80,132.26L88.79,132.33L88.80,132.40L88.81,132.48L88.82,132.55L88.85,132.62L88.88,132.68L88.92,132.75L88.96,132.81L89.01,132.86L89.07,132.91L89.13,132.95L89.19,132.99L89.26,133.02L89.32,133.05L89.40,133.07L89.47,133.08L89.54,133.08L89.62,133.08L89.69,133.07L89.76,133.05L89.83,133.02L89.90,132.99L89.96,132.95L90.02,132.91L90.07,132.86L90.12,132.81L90.17,132.75L90.20,132.68L90.24,132.62L90.26,132.55L90.28,132.48L90.29,132.40z"/></g><g><text xml:space="preserve" fill="#000000" stroke-width="0" x="96.44" y="203.39" font-size="3.45" opacity="1.00" font-family="Arial">BPA32676</text></g></g><g><g/><g><text xml:space="preserve" fill="#000000" stroke-width="0" x="5.47" y="8.43" font-size="3.93" opacity="1.00" font-family="Arial" font-weight="bold">BPA15594</text></g></g><g id="PMI5.0"><g><path style="stroke:#000000;stroke-width:0.044" d="M22.96,198.93L13.67,172.42"/></g><g><path style="fill:#000000" d="M14.42,172.42L14.41,172.34L14.40,172.27L14.38,172.20L14.36,172.13L14.33,172.06L14.29,172.00L14.25,171.94L14.20,171.89L14.14,171.84L14.08,171.79L14.02,171.76L13.95,171.72L13.88,171.70L13.81,171.68L13.74,171.67L13.67,171.67L13.59,171.67L13.52,171.68L13.45,171.70L13.38,171.72L13.31,171.76L13.25,171.79L13.19,171.84L13.14,171.89L13.09,171.94L13.04,172.00L13.00,172.06L12.97,172.13L12.95,172.20L12.93,172.27L12.92,172.34L12.92,172.42L12.92,172.49L12.93,172.56L12.95,172.63L12.97,172.70L13.00,172.77L13.04,172.83L13.09,172.89L13.14,172.95L13.19,173.00L13.25,173.04L13.31,173.08L13.38,173.11L13.45,173.13L13.52,173.15L13.59,173.16L13.67,173.17L13.74,173.16L13.81,173.15L13.88,173.13L13.95,173.11L14.02,173.08L14.08,173.04L14.14,173.00L14.20,172.95L14.25,172.89L14.29,172.83L14.33,172.77L14.36,172.70L14.38,172.63L14.40,172.56L14.41,172.49z"/></g><g><text xml:space="preserve" fill="#000000" stroke-width="0" x="15.62" y="203.39" font-size="3.45" opacity="1.00" font-family="Arial">MSR0056</text></g></g><g/><g id="paperID" visibility="hidden" opacity="0.00" transform="scale(0.000100)"><path style="stroke:#000000;stroke-width:0.500;fill:#e6e6e6;fill-rule:evenodd" d="M-2000.00,-2000.00L2297.00,-2000.00L2297.00,2210.00L-2000.00,2210.00zM0.00,0.00L297.00,0.00L297.00,210.00L0.00,210.00z"/><path style="fill:#000000;fill-opacity:0.118" d="M3.00,210.00L297.00,210.00L297.00,3.00L300.00,3.00L300.00,213.00L3.00,213.00z"/></g></g></svg>
