<?xml version="1.0" encoding="UTF-8" standalone="no"?>
<svg xmlns="http://www.w3.org/2000/svg" xmlns:xlink="http://www.w3.org/1999/xlink" width="297.000mm" height="210.000mm" viewBox="0.000000 0.000000 297.000000 210.000000" stroke-linejoin="round" stroke-linecap="round" fill="none" fill-rule="evenodd"><desc>Composer Export</desc><script type="text/ecmascript"><![CDATA[
if(typeof(top) != "undefined")
{
	top.ShowPaper = ShowPaper;
}
function ShowHotSpot(evt,hotspotid)
{
	var svgDocument = evt.target.ownerDocument;
	var strId = "hotspot."+hotspotid;
	var hotspot = svgDocument.getElementById(strId);
	if(hotspot)
		hotspot.setAttribute("opacity",".5");
}
function HideHotSpot(evt,hotspotid)
{
	var svgDocument = evt.target.ownerDocument;
	var strId = "hotspot."+hotspotid;
	var hotspot = svgDocument.getElementById(strId);
	if(hotspot)
		hotspot.setAttribute("opacity","0");

	var toolTip = svgDocument.getElementById('ToolTip');
	if(toolTip)
		toolTip.setAttribute("visibility","hidden");
}
function ShowToolTip(evt,hotspotid,strTooltip)
{
	if(strTooltip=="")
	return;

	// change text
	var svgDocument = evt.target.ownerDocument;
	var tiptext = svgDocument.getElementById('ToolTipText');
	if( !tiptext )
	return;
	tiptext.firstChild.nodeValue = " " + strTooltip + "  " ;

	// show tooltip before, else some refresh issue

	var toolTip = svgDocument.getElementById('ToolTip');
	if(!toolTip)
	return;

	toolTip.setAttribute("visibility","visible");
	toolTip.setAttribute("opacity",".95");

	// move tooltip
	// get viewbox

	var root = svgDocument.documentElement;
	var vbox = (root.getAttribute("viewBox")).split(' ');
	var x0 = parseFloat(vbox[0]);
	var y0 = parseFloat(vbox[1]);
	var vboxW = parseFloat(vbox[2]);
	var vboxH = parseFloat(vbox[3]);

	// get default width of svg

	var strW = root.getAttribute("width");
	var svgW = parseFloat(strW);
	if(strW.indexOf('mm') != -1)
	svgW *= 3.779;

	var strH = root.getAttribute("height");
	var svgH = parseFloat(strH);
	if(strH.indexOf('mm') != -1)
	svgH *= 3.779;  	// 96 dpi  -> 96/25.4 = 3.779

	// update the viewbox / width / height if svg is embedded in html with zoom fit all
	var realx0 = x0;
	var realy0 = y0;
	var realvboxW = vboxW;
	var realvboxH = vboxH;
	var realsvgW = svgW;
	var realsvgH = svgH;

	if ((typeof(top) == "undefined") || (typeof(top.svgctl1) != "undefined")) // embedded in html
	{
		// get window size in pxl

		svgW = window.innerWidth;
		svgH = window.innerHeight;

		// calculate real viewbox

		realsvgW = svgW;
		realsvgH = svgH;
		if((svgW / svgH) > (vboxW / vboxH))
		{
			realvboxW = (vboxH * svgW) / svgH;
			realvboxH = vboxH;
			realx0 = x0 - (realvboxW - vboxW)/2 ;
		}
		else
		{
			realvboxH = (vboxW * svgH) / svgW;
			realvboxW = vboxW;
			realy0 = y0 - (realvboxH - vboxH)/2 ;
		}
	}

	// get user zoom/pan

	var newScale = root.currentScale;
	var translation = root.currentTranslate;

	// transform pxl to user unit

	var xPos = (((evt.clientX+10- translation.x)/newScale) * realvboxW)/realsvgW  + realx0 ;
	var yPos = (((evt.clientY+5- translation.y)/newScale) * realvboxH)/ realsvgH  + realy0 ;
	var scaleForWidth = ( (1 / newScale) * realvboxH) / realsvgH;

	// move tooltip

	toolTip.setAttribute("transform", "translate(" + xPos + "," + yPos + ")" );

	// resize tooltip

	var fontsize = 12;
	tiptext.setAttribute("font-size",fontsize*scaleForWidth);
	tiptext.setAttribute("y", fontsize*scaleForWidth);
	var tipBG = svgDocument.getElementById('ToolTipBG');
	var outline = tiptext.getBBox();
	if(tipBG)
	{
		tipBG.setAttribute("stroke-width", 1*scaleForWidth);
		tipBG.setAttribute("width", Number(outline.width) );
		tipBG.setAttribute("height", Number(outline.height) + fontsize*.5*scaleForWidth );
	}
	var ToolTipShadow = svgDocument.getElementById('ToolTipShadow');
	if(ToolTipShadow)
	{
		ToolTipShadow.setAttribute("width", Number(outline.width) );
		ToolTipShadow.setAttribute("height", Number(outline.height) + fontsize*.5*scaleForWidth );
		ToolTipShadow.setAttribute("x", 3*scaleForWidth);
		ToolTipShadow.setAttribute("y", 3*scaleForWidth);
	}
}
function ShowPaper()
{
  var svgDocument = getDocument();
  var paper = svgDocument.getElementById("paperID");
  if(paper)
  {
    paper.setAttribute("transform","scale(1)");
    paper.setAttribute("opacity","1");
    paper.setAttribute("visibility","visible");
  }
  var svg = svgDocument.getRootElement();
  if(svg)
  {
    svg.setAttribute("width","307.000mm");
    svg.setAttribute("height","220.000mm");
    svg.setAttribute("viewBox","-5.000000 -5.000000 307.000000 220.000000");
  }
}
]]></script><defs/><g><path style="fill:#000000;fill-opacity:0.098;fill-rule:evenodd" d="M48.28,22.56L51.64,23.95L53.41,25.13L55.38,27.50L56.38,29.47L57.36,32.23L57.62,34.54L57.38,33.40L57.16,33.03L55.68,32.65L55.98,34.41L55.98,39.20L55.58,41.97L54.99,44.53L53.41,49.27L51.44,53.41L49.46,56.76L47.69,59.33L46.25,61.05L43.74,63.87L42.38,65.07L40.50,66.55L38.81,67.82L34.60,69.93L31.85,70.72L26.91,70.70L27.58,71.49L28.74,71.90L32.83,71.90L34.53,71.63L34.03,71.92L31.25,72.29L28.75,72.29L26.76,71.91L24.40,70.72L21.85,68.93L20.86,67.74L19.47,65.59L18.48,62.63L18.08,60.45L18.02,59.85L18.48,59.84L18.87,62.04L19.66,64.80L20.29,65.80L20.47,65.85L19.85,63.62L19.39,60.66L20.07,60.52L20.26,56.29L20.46,58.88L20.84,61.65L21.83,64.61L22.64,65.96L24.22,67.74L26.39,69.13L27.75,69.54L29.14,69.73L31.25,69.73L34.08,69.21L37.76,67.56L40.90,65.37L43.76,62.90L45.06,61.44L47.23,58.87L49.27,55.97L51.24,52.43L53.01,48.47L54.20,44.93L54.99,41.18L55.19,39.40L55.19,35.19L54.60,32.04L54.03,30.83L53.32,30.27L53.62,31.72L53.01,31.66L52.63,31.44L51.64,28.68L50.68,27.08L49.46,25.72L48.49,25.12L46.31,24.73L43.29,24.93L41.71,25.33L37.30,27.23L38.15,26.51L41.18,25.00L43.29,24.14L46.44,23.55L48.30,23.41L48.33,23.16L47.49,22.77L46.87,22.54L46.83,22.35zM37.15,27.51L36.75,27.49L37.30,27.23zM119.92,37.56L123.67,38.75L125.44,39.74L128.21,41.70L129.60,43.27L131.56,45.85L133.34,49.41L132.95,49.43L127.84,46.45L126.95,46.63L125.97,47.23L124.87,48.50L124.06,49.86L123.60,51.78L123.87,52.75L128.62,55.50L130.61,56.55L130.58,55.17L131.30,55.14L131.76,53.81L132.86,52.15L134.16,51.25L134.04,50.59L134.93,50.58L135.71,51.17L136.11,52.57L135.91,54.01L135.24,55.51L135.69,63.82L137.10,67.44L138.03,66.78L138.28,66.63L138.19,65.98L139.27,65.97L140.06,66.95L140.05,69.20L139.39,70.72L137.87,72.37L137.87,76.70L137.09,83.01L136.08,86.95L136.10,88.34L135.70,89.92L134.63,91.61L132.15,97.03L129.78,101.36L126.82,105.90L125.26,107.90L124.20,109.99L123.00,111.35L121.63,112.15L119.74,114.01L116.08,117.07L113.03,119.15L109.85,120.91L109.00,123.41L107.99,124.57L106.62,125.57L104.91,125.59L101.37,123.58L101.11,123.58L98.01,125.25L94.20,126.96L93.09,128.41L92.31,129.01L90.85,129.74L90.11,129.74L88.16,128.72L82.42,128.73L80.64,128.54L78.27,127.95L75.54,126.74L65.66,121.02L63.30,119.05L62.31,117.86L59.95,114.70L57.35,113.16L56.76,112.53L56.70,112.15L56.94,112.13L58.94,113.37L59.34,113.41L59.14,112.75L58.32,110.77L58.28,110.37L58.52,110.35L62.91,112.92L66.27,114.77L65.45,111.17L64.86,107.03L64.86,99.59L65.58,93.61L66.98,87.70L69.00,81.23L71.77,74.73L74.94,68.63L78.59,62.80L81.26,59.16L83.82,56.00L86.88,52.54L91.51,48.10L95.39,45.07L100.51,41.70L105.45,39.34L110.58,37.76L112.95,37.36L117.15,37.17zM57.75,39.81L57.62,34.54L57.74,34.62zM57.54,41.36L57.43,41.44L57.56,40.11zM56.97,44.35L56.91,43.70L57.04,43.61zM56.17,47.11L56.12,46.68L56.24,46.57zM55.38,49.48L55.33,49.05L55.45,48.94zM69.83,58.67L69.74,59.08L69.40,59.10L68.42,58.47L67.81,57.86L67.81,57.49zM49.72,59.77L49.47,60.14L49.47,59.72L49.69,59.66zM48.34,61.55L48.09,61.92L48.09,61.49L48.31,61.44zM47.35,62.73L46.89,63.29L46.89,62.90L47.32,62.63zM44.06,66.19L43.67,66.19L44.10,65.75L44.33,65.75zM42.71,67.35L42.28,67.35L42.49,67.14L42.76,67.14zM41.92,67.94L41.49,67.94L41.70,67.73L41.97,67.73zM39.55,69.52L39.12,69.52L39.33,69.31L39.60,69.31zM38.63,69.99L38.16,70.34L37.56,70.34L38.61,69.91zM36.42,71.12L35.72,71.24L36.18,70.89L36.63,70.89zM35.41,71.53L34.53,71.63L35.19,71.30L35.72,71.24zM59.93,78.62L59.86,79.22L59.55,79.20L56.97,77.61L56.52,76.80L56.74,76.81zM173.79,90.06L176.36,91.83L177.55,93.20L178.75,94.97L179.52,96.56L180.30,98.94L180.90,103.08L180.90,106.10L180.30,111.04L179.31,114.98L177.34,120.51L175.77,123.67L173.79,127.22L170.83,131.56L169.39,133.27L166.90,136.12L163.45,139.18L159.32,141.96L156.95,143.14L154.25,144.19L151.43,144.72L147.93,144.72L145.57,144.13L141.62,141.96L139.67,140.56L138.07,138.80L136.69,136.43L136.23,135.04L136.47,135.02L138.28,136.06L138.67,136.11L138.07,133.27L137.87,131.10L137.87,127.42L138.21,124.19L139.44,118.72L141.23,113.79L143.80,108.67L145.88,105.23L148.55,101.58L150.72,99.02L153.80,95.98L157.35,93.22L161.35,90.90L163.46,90.05L165.43,89.46L166.62,89.27L171.03,89.27zM56.40,98.92L56.40,99.58L54.03,98.32L52.83,97.54L52.53,96.78zM219.38,116.16L220.76,116.89L223.35,118.84L224.53,120.43L225.70,122.42L226.67,125.39L227.27,128.93L227.27,133.53L227.07,135.51L226.28,139.65L224.90,144.18L222.73,149.32L220.50,153.40L217.40,158.00L215.96,159.72L213.57,162.46L211.40,164.43L210.01,165.61L207.65,167.39L203.93,169.59L200.18,170.98L198.00,171.36L194.32,171.36L193.12,171.18L190.96,170.38L185.23,167.02L183.87,166.01L182.67,164.66L181.49,162.87L180.47,160.49L180.45,160.27L181.47,160.72L181.70,161.08L184.68,162.87L185.04,162.90L184.45,160.31L184.25,158.93L184.25,152.87L184.84,148.92L185.42,146.55L185.59,146.12L186.04,145.78L187.60,141.23L189.80,136.52L192.28,132.29L195.12,128.42L197.29,125.86L200.37,122.81L203.14,120.65L207.33,117.96L207.30,117.68L210.48,116.35L213.20,115.71L217.21,115.71zM266.35,136.03L268.52,137.02L270.49,138.40L272.28,140.36L273.28,141.74L274.83,144.92L275.82,148.27L276.41,152.42L276.41,156.62L275.62,162.54L274.44,167.28L272.46,172.80L270.69,176.56L268.32,180.89L265.50,185.18L262.73,188.73L261.35,190.31L259.75,192.06L256.99,194.63L253.93,197.10L249.68,199.76L246.16,201.36L242.81,202.35L240.23,202.74L237.73,202.74L234.95,202.36L233.20,201.75L230.84,200.55L228.67,198.78L226.87,196.43L225.49,193.67L224.90,191.49L224.71,190.11L224.51,187.54L224.51,184.05L224.90,179.91L225.88,174.76L227.41,169.78L229.05,165.51L232.01,159.58L234.09,156.14L236.17,153.09L239.33,149.14L241.89,146.38L243.78,144.52L246.15,142.55L249.51,140.18L252.47,138.41L256.82,136.63L258.98,136.03L261.74,135.64L263.98,135.64zM123.50,43.87L122.82,44.06L123.09,44.65L122.47,45.12L121.03,46.44L120.13,48.66L119.46,48.59L119.32,49.88L118.53,49.60L112.56,46.11L112.60,44.32L113.43,42.38L114.80,40.80L115.90,40.12L116.97,40.12zM108.27,47.82L107.63,48.20L107.70,48.86L106.91,49.28L105.73,50.67L104.91,52.63L104.32,52.56L104.15,54.00L97.42,50.19L97.41,48.27L98.23,46.33L99.61,44.75L100.90,44.07L101.77,44.07zM117.35,50.39L121.91,52.95L121.51,52.98L119.52,52.36L118.34,52.17L115.12,52.17L112.55,52.56L109.00,53.76L108.39,53.75L109.46,51.84L109.78,49.39L113.80,49.40zM93.46,52.18L93.69,52.55L93.48,53.62L92.89,54.60L92.21,55.11L91.30,55.12L91.10,54.93L91.10,53.40L91.81,52.34L92.42,51.75L92.68,51.75zM105.53,55.30L104.85,55.71L100.51,58.68L98.15,60.65L94.66,64.09L94.08,62.02L92.90,61.45L92.44,61.62L92.70,62.22L92.24,62.43L91.22,63.20L90.12,64.86L89.72,66.04L89.07,66.19L88.90,66.42L88.94,67.44L88.57,67.37L82.16,63.67L82.21,61.49L83.35,59.27L84.79,57.95L85.71,57.48L86.37,57.48L90.51,59.89L91.03,59.87L93.02,57.89L96.43,55.19L100.12,52.75L100.60,52.56zM122.49,53.74L124.65,54.53L128.42,56.70L128.02,56.73L127.62,56.49L125.84,56.11L123.86,55.92L120.64,56.11L118.67,56.50L118.53,57.16L117.49,57.50L113.93,58.87L112.16,59.86L108.21,62.43L104.86,65.19L102.96,67.05L100.69,69.51L98.72,71.89L95.56,76.22L92.51,81.46L90.11,86.56L88.33,91.49L86.55,98.78L86.12,98.94L85.78,101.96L85.78,107.22L86.17,110.39L86.79,113.00L82.43,110.57L82.22,110.38L80.84,105.45L80.45,102.09L80.45,98.01L80.84,94.07L82.16,88.08L83.94,83.15L85.78,79.07L88.14,74.72L91.61,69.51L94.58,65.96L97.24,63.10L101.30,59.66L105.25,57.10L109.01,55.33L111.37,54.54L117.09,53.35L120.31,53.35zM121.11,69.13L121.50,70.31L121.89,72.89L121.89,76.90L121.69,78.67L120.91,82.62L119.71,86.17L118.47,89.07L117.15,91.69L115.17,95.05L112.22,99.00L109.48,101.78L107.40,103.65L105.82,104.84L103.28,106.44L99.79,107.88L96.96,108.41L94.85,108.41L92.87,108.02L90.91,107.03L90.71,106.24L90.51,104.26L90.45,102.68L93.61,101.11L96.55,99.12L99.41,96.65L101.56,94.46L103.93,91.49L106.90,86.96L109.00,82.75L110.25,79.86L111.44,76.11L112.22,71.96L112.42,70.19L112.36,64.60L113.01,64.38zM83.23,64.79L82.80,64.79L82.75,64.57L83.02,64.57zM111.45,65.56L111.63,68.15L111.43,71.77L110.65,76.11L109.85,78.67L108.08,83.21L105.51,87.94L102.88,91.63L100.71,94.20L99.41,95.66L95.86,98.62L92.71,100.60L91.10,101.36L90.45,101.58L90.71,98.01L91.49,93.86L92.88,89.13L94.66,84.99L95.84,82.62L97.76,79.21L99.51,76.62L102.47,72.87L105.53,69.61L109.80,66.18L110.98,65.37L111.24,65.35zM132.18,70.10L132.75,70.71L133.53,74.47L133.53,80.65L132.94,84.39L131.75,88.93L129.92,93.61L127.35,98.74L124.84,102.74L122.42,105.84L121.04,107.42L119.64,108.98L117.47,110.95L114.41,113.43L110.58,115.71L106.89,117.15L104.07,117.68L100.77,117.68L98.40,117.10L96.43,116.11L95.07,115.10L93.46,113.31L93.41,113.13L94.58,113.15L97.62,112.81L101.30,111.56L104.33,110.05L108.39,107.21L111.94,103.85L113.54,102.09L115.18,100.18L118.28,95.78L121.30,90.32L123.46,84.78L124.65,80.65L125.44,75.91L125.44,69.93L124.85,66.78L124.79,65.96L125.03,65.94zM89.73,68.53L90.71,68.73L88.37,72.18L85.97,76.30L83.21,81.83L82.42,80.98L81.82,80.76L81.42,80.83L81.44,81.62L80.98,81.77L79.79,82.76L78.47,85.40L77.88,85.32L77.70,86.77L70.98,82.95L70.97,81.43L71.57,79.66L72.66,77.99L73.67,77.23L74.45,76.82L75.33,76.82L78.09,78.44L78.46,78.48L80.84,73.74L83.24,69.62L85.51,66.35L85.97,66.35zM78.86,87.90L79.80,87.90L81.22,87.25L80.78,88.67L79.40,94.99L78.86,101.19L78.51,101.11L78.29,100.90L77.21,100.91L77.30,101.56L76.90,101.76L75.83,102.67L75.03,103.84L74.53,105.31L73.73,105.50L73.75,106.70L73.35,106.66L67.21,103.10L66.80,102.49L67.02,100.76L68.15,98.54L69.59,97.22L70.72,96.75L71.17,96.74L71.79,97.14L74.15,98.40L74.33,93.87L75.06,89.07L75.71,86.35L75.92,86.29zM170.24,94.79L171.05,95.56L172.41,97.36L173.34,99.58L176.17,101.30L176.75,103.87L176.95,107.88L176.55,111.63L175.96,114.19L174.77,117.94L172.94,122.23L170.04,127.02L168.00,129.72L166.62,131.30L165.03,133.06L162.36,135.32L159.19,137.48L155.78,139.01L153.01,139.59L149.91,139.59L148.32,139.20L146.18,137.99L144.60,136.61L143.60,135.05L143.00,133.87L142.41,132.09L142.02,130.31L141.82,128.54L141.82,125.44L142.22,122.28L143.19,118.13L144.59,114.39L146.95,109.66L148.55,107.11L150.92,103.95L152.79,101.88L155.18,99.53L158.14,97.36L160.90,95.78L164.05,94.59L167.86,94.19zM79.13,104.54L80.06,109.07L79.67,109.02L77.02,107.46L77.01,107.25L78.08,106.30L79.06,104.46zM81.86,115.89L81.37,116.12L81.44,116.80L80.46,117.37L79.29,118.76L78.47,120.72L77.82,120.62L77.69,121.91L76.89,121.63L71.36,118.48L70.96,118.10L70.97,116.75L71.57,114.99L72.67,113.32L74.12,112.21L75.33,112.15zM93.08,122.42L92.47,122.68L92.51,123.27L91.61,123.97L90.25,125.58L89.72,127.24L89.13,127.15L88.91,127.60L88.96,128.59L82.23,124.78L82.21,122.67L83.33,120.43L84.72,119.06L85.50,118.66L86.58,118.66zM214.63,120.45L216.24,121.21L217.62,122.40L219.18,124.59L219.98,126.56L220.38,126.75L220.76,127.55L221.35,131.50L221.09,136.89L222.15,137.22L222.14,137.87L221.10,141.97L219.31,146.50L217.54,150.04L215.82,152.87L212.86,156.82L210.12,159.60L208.05,161.47L205.98,162.95L204.18,164.12L201.17,165.45L200.37,165.51L200.03,164.65L198.40,164.85L194.11,164.85L191.77,164.04L190.19,162.86L188.98,161.50L187.60,159.13L187.01,157.16L186.62,154.98L186.62,150.31L187.35,146.10L188.98,141.03L191.55,135.90L193.64,132.46L195.91,129.41L198.38,126.74L199.97,125.18L203.59,122.48L205.10,121.63L208.26,120.45L210.24,120.05L213.06,120.05zM102.10,123.41L104.95,122.82L104.94,123.05L104.26,123.20L104.13,124.47L103.74,124.42zM224.32,125.17L225.11,127.74L225.49,131.50L225.30,135.70L224.70,139.06L223.72,142.81L222.27,146.50L219.32,152.42L217.20,155.63L214.25,159.39L212.59,161.08L210.12,163.35L207.65,165.22L204.58,167.08L201.22,168.46L198.40,168.99L195.50,168.99L193.84,168.60L197.66,168.06L201.36,166.83L204.77,164.91L208.05,162.46L210.71,160.00L213.39,156.95L215.17,154.59L217.54,151.04L220.50,145.11L221.75,142.03L223.13,136.89L223.72,132.94L223.72,127.75L223.33,125.18L223.11,124.61L223.13,123.78zM264.38,137.81L266.54,138.60L267.93,139.39L269.52,140.75L271.10,142.73L272.09,144.49L273.65,147.88L274.43,150.64L275.03,154.39L275.03,158.79L274.63,162.15L273.64,166.68L272.26,171.02L269.83,176.69L266.74,182.08L264.31,185.57L261.61,188.99L258.96,191.67L256.50,193.94L253.14,196.51L249.37,198.66L246.02,200.03L244.19,200.57L241.22,200.96L239.51,200.96L236.73,200.58L233.98,199.58L231.63,198.18L230.05,196.80L228.25,194.26L226.86,190.91L226.29,188.13L226.09,186.75L226.09,179.71L226.81,175.11L228.45,169.25L230.56,164.06L233.61,158.22L236.86,153.38L239.33,150.33L241.30,148.15L244.38,145.11L247.93,142.36L251.48,140.18L254.44,138.80L257.80,137.81L258.78,137.62L263.38,137.62z"/><g id="Actor_.0"><g style="stroke:#000000;stroke-width:0.176"><path d="M124.20,39.01L121.97,38.10L119.58,37.50L117.06,37.20L114.42,37.22L111.69,37.55L108.88,38.20L106.01,39.15L103.10,40.40L100.17,41.93L97.24,43.76L94.33,45.85L91.46,48.19L88.65,50.77L85.92,53.57L83.28,56.58L80.76,59.76L78.37,63.10L76.14,66.58L74.06,70.18L72.17,73.86L70.46,77.60L68.96,81.38L67.67,85.17L66.71,88.59L66.61,88.95L65.77,92.68L65.17,96.35L64.81,99.93L64.69,103.40L64.81,106.72L65.17,109.88L65.77,112.86L66.61,115.64L67.67,118.19L68.96,120.51L70.46,122.57L72.17,124.35L74.06,125.86L76.14,127.07"/><path d="M72.27,97.43L72.18,97.26L71.64,96.84L70.93,96.72L70.12,96.91L69.30,97.39L68.50,98.12L67.79,99.04L67.25,100.09L66.90,101.17L66.78,102.19L66.90,103.08L67.25,103.76L67.79,104.18L68.36,104.28"/><path d="M67.97,122.38L67.89,122.34"/><path d="M72.44,119.58L71.87,119.48L71.33,119.07L70.98,118.38L70.86,117.49L70.98,116.47L71.33,115.39L71.87,114.35L72.58,113.42L73.38,112.69L74.20,112.21L75.01,112.02L75.72,112.14L76.26,112.56L76.35,112.73"/><path d="M72.44,84.30L71.87,84.20L71.33,83.78L70.98,83.10L70.86,82.21L70.98,81.19L71.33,80.11L71.87,79.06L72.58,78.14L73.21,77.56L73.38,77.41L74.20,76.93L75.01,76.74L75.72,76.86L76.26,77.28L76.35,77.45"/><path d="M82.67,115.57L82.62,115.55L86.39,117.73L84.72,116.50L83.23,114.98L81.96,113.20L80.89,111.16L80.05,108.88L79.45,106.38L79.14,104.10"/><path d="M81.27,87.18L80.89,88.33L80.05,91.57L79.45,94.75L79.08,97.86L78.96,100.85L79.00,101.66"/><path d="M113.41,54.10L111.55,54.69L109.04,55.78L106.52,57.16L104.01,58.81L101.52,60.73L99.08,62.90L96.72,65.29L94.46,67.88L92.31,70.66L90.31,73.58L88.46,76.63L86.79,79.78L85.30,83.00L84.02,86.25L82.96,89.51L82.12,92.75L81.52,95.94L81.15,99.04L81.03,102.03L81.15,104.89L81.52,107.57L81.87,109.04L81.43,107.89L80.82,105.46L80.45,102.85L80.33,100.06L80.45,97.14L80.82,94.10L81.43,90.98L82.28,87.81L83.35,84.62L84.63,81.44L86.12,78.31L87.80,75.25L89.04,73.28L89.65,72.29L91.66,69.48L93.79,66.82L96.04,64.36L98.38,62.10L100.79,60.09L103.24,58.33L105.70,56.84L108.17,55.64L110.60,54.75L112.97,54.16L113.41,54.10L114.02,53.91L116.42,53.44L118.73,53.28L120.94,53.43L123.02,53.90L124.56,54.53L122.88,53.50L120.95,52.72L118.87,52.25L116.67,52.09L114.35,52.25L111.95,52.73L109.49,53.51L107.86,54.21"/><path d="M81.87,109.04L82.12,110.06L82.96,112.34L84.02,114.38L85.30,116.17L86.79,117.68L87.84,118.45L86.39,117.73"/><path d="M83.59,126.10L83.02,126.00L82.47,125.59L82.13,124.90L82.01,124.01L82.13,122.99L82.47,121.91L83.02,120.87L83.72,119.94L84.52,119.21L85.35,118.73L86.16,118.54L86.86,118.66L87.41,119.08L87.50,119.25"/><path d="M87.50,58.14L87.41,57.97L86.86,57.55L86.16,57.43L85.35,57.62L84.52,58.10L83.72,58.83L83.02,59.76L82.47,60.80L82.13,61.88L82.01,62.91L82.13,63.79L82.47,64.48L83.02,64.89L83.59,64.99"/><path d="M90.91,68.61L90.25,69.47L88.24,72.39L86.39,75.45L84.72,78.59L83.20,81.91"/><path d="M87.84,118.45L88.46,118.91L93.07,121.56L91.40,120.33L89.91,118.81L88.64,117.03L87.57,114.99L86.73,112.71L86.13,110.21L85.76,107.53L85.64,104.68L85.76,101.69L86.13,98.59L86.73,95.40L87.57,92.16L88.63,88.90L89.91,85.64L91.40,82.43L93.07,79.28L94.92,76.23L96.92,73.30L99.07,70.53L101.33,67.93L103.69,65.54L106.13,63.38L108.62,61.46L111.13,59.80L113.66,58.42L116.16,57.34L118.63,56.56L121.03,56.08L123.34,55.92L125.55,56.08L127.63,56.55L129.56,57.33L124.95,54.69L124.56,54.53"/><path d="M111.42,120.14L108.93,121.36L106.47,122.29L104.06,122.91L101.72,123.22L99.48,123.23L97.36,122.92L95.38,122.30L93.55,121.38L91.89,120.16L90.43,118.66L89.16,116.89L88.11,114.87L87.28,112.62L86.68,110.15L86.32,107.50L86.20,104.68L86.23,103.91L86.32,101.72L86.68,98.65L87.28,95.50L88.11,92.29L89.16,89.07L90.43,85.85L90.63,85.41L91.89,82.66L93.55,79.55L95.38,76.53L97.36,73.63L99.48,70.89L101.72,68.32L104.06,65.96L106.47,63.82L108.93,61.92L111.42,60.28L113.92,58.92L116.40,57.84L118.83,57.07L121.20,56.60L123.50,56.44L125.68,56.60L127.74,57.06L129.65,57.83L131.39,58.90L132.95,60.26L134.32,61.90L135.48,63.79L136.43,65.93L137.14,68.30L137.62,70.86L137.86,73.60L137.89,75.03"/><path d="M122.69,61.91L122.53,61.89L120.46,61.91L118.30,62.25L116.06,62.90L113.77,63.86L112.78,64.40L113.12,65.54L113.49,67.72L113.61,70.08L113.49,72.57L113.12,75.17L112.52,77.84L111.69,80.55L110.64,83.25L109.39,85.92L107.96,88.51L106.35,90.99L104.60,93.33L102.73,95.49L100.76,97.45L98.72,99.18L96.64,100.66L94.54,101.86L92.46,102.77L90.42,103.38L90.42,103.59L90.67,106.11L91.15,108.44L91.88,110.56L92.83,112.44L93.32,113.12L94.47,113.20L96.60,113.02L98.80,112.52L101.07,111.72L103.37,110.61L105.67,109.22L107.95,107.56L110.19,105.64L112.36,103.49L114.44,101.13L116.39,98.59L118.20,95.91L119.85,93.10L121.32,90.20L122.60,87.24L123.66,84.26L124.50,81.29L125.11,78.37L125.47,75.52L125.60,72.79L125.47,70.19L125.11,67.76L124.50,65.54L123.66,63.53L122.69,61.91L124.49,62.19L126.30,62.80L127.96,63.71L129.43,64.92L130.70,66.42L131.76,68.18L132.60,70.18L133.21,72.41L133.58,74.84L133.70,77.43L133.58,80.17L133.21,83.02L132.60,85.94L131.76,88.91L130.70,91.89L129.43,94.84L127.96,97.74L126.30,100.55L124.49,103.24L122.54,105.78L120.46,108.14L118.30,110.29L116.06,112.20L113.77,113.87L111.47,115.26L109.17,116.37L106.91,117.17L104.70,117.67L102.58,117.85L100.56,117.71L98.67,117.25L96.94,116.49L95.37,115.43L94.00,114.07L93.32,113.12"/><path d="M90.42,103.38L90.42,101.02"/><path d="M112.21,64.71L112.37,65.71L112.49,68.12L112.37,70.68L112.01,73.34L111.42,76.07L110.59,78.85L109.55,81.62L108.31,84.37L106.88,87.04L105.28,89.62L103.52,92.07L101.64,94.35L99.65,96.44L97.59,98.32L95.47,99.95L93.33,101.32L91.18,102.41L90.42,102.70"/><path d="M111.33,65.20L111.50,66.23L111.63,68.62L111.50,71.15L111.13,73.79L110.52,76.50L109.68,79.25L108.61,82.00L107.34,84.70L105.88,87.33L104.25,89.85L102.47,92.23L100.57,94.43L98.57,96.42L96.50,98.17L94.39,99.67L92.26,100.89L90.42,101.70"/><path d="M116.17,62.87L116.31,62.93L117.75,63.87L119.00,65.10L120.05,66.60L120.88,68.35L121.48,70.33L121.84,72.52L121.96,74.87L121.84,77.36L121.48,79.96L120.88,82.63L120.05,85.34L119.00,88.04L117.75,90.71L116.31,93.30L114.70,95.78L112.95,98.12L111.08,100.28L109.11,102.24L107.07,103.97L104.99,105.45L102.89,106.65L100.81,107.56L98.77,108.17L96.80,108.47L94.93,108.46L93.18,108.13L91.57,107.49L90.86,107.02"/><path d="M91.53,55.25L91.20,55.09L90.99,54.75L90.91,54.27L90.99,53.71L91.20,53.13L91.53,52.58L91.95,52.13L92.40,51.83L92.84,51.71L93.22,51.78L93.50,52.03L93.64,52.44L93.66,52.69L93.64,52.97L93.50,53.55L93.22,54.12L92.84,54.63L92.40,55.01L91.95,55.22L91.53,55.25"/><path d="M93.07,121.56L94.92,122.49L96.92,123.11L99.07,123.43L101.34,123.42"/><path d="M105.83,55.22L104.46,55.97L101.94,57.63L99.45,59.55L97.01,61.71L94.65,64.10L94.43,64.36"/><path d="M98.82,51.53L98.25,51.43L97.70,51.02L97.35,50.33L97.24,49.44L97.35,48.42L97.69,47.38L98.25,46.30L98.95,45.37L99.75,44.64L100.58,44.16L101.39,43.97L102.09,44.09L102.64,44.51L102.72,44.68"/><path d="M110.76,65.58L111.47,65.11L112.78,64.40"/><path d="M117.95,40.67L117.87,40.50L117.32,40.08L116.62,39.96L115.80,40.16L114.98,40.63L114.18,41.36L113.48,42.29L112.93,43.33L112.58,44.41L112.46,45.44L112.58,46.33L112.93,47.01L113.48,47.42L114.04,47.52"/><path d="M122.88,53.50L118.28,50.86"/><path d="M129.10,47.19L129.02,47.03L128.47,46.60L127.75,46.49L126.95,46.68L126.13,47.15L125.33,47.88L124.62,48.81L124.08,49.85L123.73,50.94L123.61,51.96L123.73,52.85L124.08,53.53L124.62,53.94L125.19,54.04"/><path d="M129.56,57.33L131.32,58.41L132.90,59.78L134.28,61.44L135.46,63.35L135.62,63.72"/><path d="M137.89,74.87L137.89,74.71"/></g><g style="stroke:#000000;stroke-width:0.529"><path d="M87.22,128.71L85.92,128.86L83.28,128.88L80.76,128.59L78.37,127.98L76.14,127.07L67.89,122.34L65.82,121.13L63.92,119.63L62.22,117.84L60.72,115.78L59.43,113.47L58.36,110.91L57.53,108.14L56.93,105.16L56.56,101.99L56.44,98.67L56.56,95.20L56.93,91.62L57.53,87.95L58.36,84.22L59.43,80.44L60.72,76.65L62.22,72.87L63.92,69.13L65.82,65.45L67.89,61.86L70.13,58.38L72.52,55.03L75.04,51.85L77.67,48.85L80.41,46.04L83.22,43.46L86.09,41.12L89.00,39.03L91.72,37.34L91.93,37.21L94.86,35.67L97.77,34.42L99.54,33.83L100.64,33.47L103.45,32.83L106.18,32.49L108.82,32.47L111.34,32.77L113.72,33.37L115.96,34.29L124.20,39.01L126.28,40.23L128.17,41.73L129.88,43.52L131.38,45.58L132.67,47.89L133.41,49.66"/><path d="M110.76,65.58L110.81,65.91L110.93,68.22L110.81,70.66L110.47,73.20L109.90,75.81L109.12,78.46L108.12,81.11L106.93,83.73L105.57,86.28L104.04,88.75L102.36,91.08L100.57,93.26L98.67,95.26L96.70,97.05L94.68,98.61L92.63,99.92L90.58,100.96L90.42,101.02"/><path d="M90.42,101.02L90.67,98.13L91.15,95.24L91.88,92.29L92.83,89.31L94.00,86.34L95.37,83.40L96.94,80.55L98.67,77.79L100.56,75.18L102.58,72.73L104.70,70.47L106.91,68.43L109.17,66.64L110.76,65.58"/><path d="M101.24,123.48L100.17,124.15L97.24,125.69L94.33,126.94L93.94,127.07"/><path d="M101.34,123.42L103.69,123.11L106.13,122.48L108.62,121.54L111.13,120.31L111.42,120.14L113.92,118.64L116.40,116.87L118.83,114.85L121.20,112.60L123.50,110.12L125.68,107.47L127.74,104.64L129.65,101.68L131.39,98.61L132.95,95.46L134.32,92.26L135.48,89.03L136.43,85.81L137.14,82.63L137.62,79.51L137.86,76.49L137.89,74.71L137.86,73.27L137.62,70.49L137.13,67.90L136.41,65.51L135.62,63.72L135.65,62.69L135.53,59.37L135.17,56.20L135.09,55.78"/></g></g><g id="Actor_.1"><g style="stroke:#000000;stroke-width:0.176"><path d="M74.63,107.87L74.10,107.48L73.77,106.83L73.66,105.98L73.77,105.00L74.10,103.98L74.63,102.98L75.29,102.10L76.06,101.40L76.85,100.95L77.62,100.77L78.29,100.88"/><path d="M76.50,107.56L75.84,107.71L75.26,107.61L74.81,107.27L74.53,106.71L74.43,105.98L74.53,105.14L74.81,104.25L75.26,103.39L75.84,102.63L76.50,102.03L77.18,101.64L77.84,101.48L78.42,101.58L78.87,101.93L79.15,102.49L79.25,103.22"/></g><g style="stroke:#000000;stroke-width:0.529"><path d="M56.48,99.74L53.67,98.13L53.18,97.82L53.03,97.69L52.64,97.24L52.26,96.50L52.09,95.82L52.03,95.05L52.03,94.91L52.09,94.10L52.26,93.25L52.53,92.39L52.76,91.87L52.91,91.52L53.37,90.70L53.91,89.92L54.51,89.23L55.16,88.63L55.82,88.15L55.94,88.08L56.63,87.72L57.31,87.50L57.64,87.47"/><path d="M71.08,96.75L78.29,100.88L78.81,101.28L79.14,101.93L79.25,102.78L79.25,103.22L79.15,104.06L78.87,104.94L78.42,105.80L77.84,106.56L77.18,107.17L76.06,107.81L75.29,107.99L74.63,107.87L67.16,103.59"/></g></g><g id="Actor_.2"><g style="stroke:#000000;stroke-width:0.176"><path d="M135.94,87.45L135.98,87.53L136.08,88.26"/></g><g style="stroke:#000000;stroke-width:0.529"><path d="M109.54,77.03L109.36,77.43L109.09,78.30L108.99,78.80"/><path d="M136.00,87.25L136.08,87.82L136.08,88.26L135.98,89.10L135.70,89.99L135.25,90.85L134.67,91.61L134.50,91.77"/></g></g><g id="Actor_.3"><g style="stroke:#000000;stroke-width:0.176"><path d="M89.85,129.69L89.33,129.30L89.21,129.06L89.00,128.65L88.89,127.80L89.00,126.82L89.33,125.80L89.85,124.80L90.52,123.92L91.29,123.22L92.08,122.77L92.84,122.59L93.51,122.70"/><path d="M91.72,129.38L91.07,129.53L90.49,129.43L90.04,129.09L89.75,128.53L89.66,127.80L89.75,126.96L90.04,126.07L90.49,125.21L91.07,124.45L91.72,123.85L92.41,123.46L93.07,123.30L93.65,123.40L94.09,123.75L94.38,124.31L94.48,125.04"/></g><g style="stroke:#000000;stroke-width:0.529"><path d="M87.16,128.15L82.38,125.41"/><path d="M88.18,128.73L89.85,129.69L90.52,129.81L91.29,129.63L92.41,128.99L93.07,128.38L93.65,127.62L94.09,126.77L94.38,125.88L94.48,125.04L94.48,124.60L94.36,123.75L94.03,123.10L93.51,122.70L86.31,118.57"/></g></g><g id="Actor_.4"><g style="stroke:#000000;stroke-width:0.176"><path d="M141.63,141.39L141.37,141.13L140.20,139.50L139.25,137.62L138.53,135.51L138.04,133.19L137.80,130.68L137.80,128.02L138.04,125.23L138.53,122.35L139.25,119.41L140.20,116.44L141.37,113.48L142.74,110.56L144.29,107.71L146.02,104.97L147.90,102.36L149.91,99.92L152.03,97.67L154.23,95.64L156.49,93.85L158.78,92.32L161.08,91.08L163.35,90.12L165.58,89.47L167.75,89.14L169.81,89.12L171.76,89.41L173.57,90.02L175.21,90.93"/><path d="M144.29,143.54L142.74,142.48L142.34,142.09"/><path d="M170.27,94.75L171.24,95.11L172.70,96.01L173.96,97.21L175.03,98.68L175.87,100.41L176.48,102.37L176.85,104.54L176.97,106.88L176.85,109.37L176.48,111.96L175.87,114.62L175.03,117.32L173.96,120.01L172.70,122.66L171.24,125.23L169.62,127.68L167.86,129.98L165.97,132.11L164.00,134.01L161.95,135.68L159.87,137.09L157.79,138.21L155.72,139.04L153.71,139.56L151.78,139.76L149.95,139.64L148.25,139.20L146.71,138.45L145.68,137.66"/></g><g style="stroke:#000000;stroke-width:0.529"><path d="M142.21,142.34L144.29,143.54L146.02,144.30L147.90,144.75L149.91,144.89L152.03,144.71L154.23,144.22L156.49,143.42L158.78,142.31L161.08,140.93L163.35,139.27L165.58,137.35L167.75,135.21L169.81,132.86L171.76,130.33L173.57,127.65L175.21,124.85L176.68,121.96L177.95,119.02L179.01,116.05L179.84,113.09L180.45,110.17L180.81,107.34L180.94,104.61L180.81,102.02L180.45,99.60L179.84,97.38L179.01,95.38L177.95,93.63L176.68,92.14L175.21,90.93L172.42,89.33L170.77,88.42L168.96,87.81L167.02,87.51L164.95,87.54L162.79,87.87L160.56,88.52L158.28,89.47L155.98,90.72L153.69,92.25L151.44,94.03L149.24,96.06L147.12,98.31L145.11,100.76L143.23,103.36L141.50,106.11L139.94,108.96L138.57,111.88L137.40,114.84L136.46,117.81L135.73,120.75L135.25,123.63L135.00,126.42L135.00,129.08L135.25,131.59L135.73,133.91L136.46,136.02L137.41,137.90L138.57,139.53L139.94,140.88L141.38,141.86"/><path d="M141.85,129.06L142.01,130.54L142.50,132.61L143.23,134.46L144.18,136.07L145.35,137.40L145.68,137.66L147.15,138.04L148.98,138.16L150.92,137.96L152.93,137.44L154.99,136.61L157.08,135.49L159.16,134.08L161.20,132.41L163.18,130.50L165.06,128.38L166.83,126.08L168.45,123.62L169.90,121.05L171.17,118.41L172.23,115.72L173.07,113.02L173.68,110.36L174.05,107.77L174.17,105.28L174.05,102.94L173.68,100.77L173.07,98.81L172.23,97.08L171.17,95.60L170.27,94.75L169.62,94.52L167.86,94.24L165.97,94.28L164.00,94.64L161.95,95.31L159.87,96.29L157.79,97.56L155.72,99.10L153.71,100.89L151.78,102.91L149.95,105.13L148.25,107.51L146.71,110.02L145.35,112.64L144.18,115.31L143.23,118.01L142.50,120.69L142.01,123.32L141.77,125.87L141.77,128.28L141.85,129.06"/></g></g><g id="Actor_.5"><g style="stroke:#000000;stroke-width:0.176"><path d="M225.90,181.61L225.92,181.43"/><path d="M227.82,193.39L227.90,193.58"/><path d="M231.09,197.78L231.24,197.93"/><path d="M234.54,199.79L234.49,199.76"/><path d="M239.94,200.43L239.91,200.43"/><path d="M251.81,195.70L252.81,195.01"/><path d="M260.05,137.50L260.30,137.47"/><path d="M265.46,138.17L265.70,138.25"/><path d="M268.94,140.21L268.85,140.15"/><path d="M272.13,144.55L272.17,144.62"/><path d="M274.03,156.51L274.03,156.53"/></g><g style="stroke:#000000;stroke-width:0.529"><path d="M223.74,179.22L224.04,177.04L224.43,175.00L224.99,172.56L225.64,170.28L226.40,168.00L227.27,165.72L228.23,163.46L229.30,161.21L230.46,159.01L231.71,156.84L233.04,154.74L234.45,152.70L235.92,150.73L237.46,148.84L239.06,147.05L240.70,145.36L242.38,143.77L244.10,142.31L245.84,140.96L247.59,139.74L249.36,138.66L251.12,137.72L252.88,136.92L254.87,136.18L256.60,135.68L258.29,135.33L259.94,135.14L261.55,135.10L263.10,135.22L263.40,135.26L264.89,135.53L266.31,135.97L267.66,136.56L269.20,137.45L270.37,138.34L271.44,139.36L272.42,140.53L272.61,140.78L273.48,142.07L274.24,143.49L274.89,145.03L275.43,146.69L275.85,148.45L276.20,150.55L276.38,152.48L276.44,154.49L276.38,156.57L276.20,158.71L275.90,160.89L275.48,163.12L274.95,165.38L274.30,167.65L273.55,169.93L272.68,172.21L271.71,174.48L270.79,176.40L270.64,176.72L269.48,178.92L268.24,181.09L266.91,183.19L265.50,185.24L264.02,187.21L262.48,189.09L260.89,190.88L259.25,192.58L257.56,194.16L255.85,195.63L254.11,196.97L252.35,198.19L250.59,199.27L248.83,200.21L247.07,201.01L245.33,201.66L245.08,201.75L243.35,202.25L241.66,202.60L240.00,202.79L238.40,202.83L236.85,202.71L236.54,202.68L235.05,202.40L233.63,201.96L232.29,201.38L230.75,200.48L229.58,199.60L228.50,198.57L227.52,197.40L227.34,197.16L226.47,195.86L225.70,194.44L225.05,192.90L224.51,191.24L224.09,189.49L223.74,187.38L223.56,185.45L223.50,183.44L223.56,181.36L223.65,180.28"/><path d="M226.03,186.43L225.92,185.30L225.86,183.39L225.92,181.43L226.08,179.56L226.37,177.46L226.77,175.32L227.28,173.15L227.90,170.97L228.63,168.78L229.46,166.59L230.39,164.42L231.41,162.26L232.53,160.14L233.67,158.17L235.01,156.04L236.36,154.08L237.77,152.19L239.25,150.38L240.78,148.66L242.36,147.04L243.98,145.52L245.62,144.11L247.30,142.81L248.81,141.77L250.49,140.74L252.17,139.84L253.84,139.08L255.50,138.46L257.13,137.98L258.73,137.65L260.05,137.50L261.51,137.47L262.97,137.58L264.37,137.84L265.46,138.17L266.66,138.70L267.84,139.39L268.85,140.15L269.71,140.97L270.63,142.06L271.45,143.28L272.13,144.55L272.66,145.81L273.17,147.37L273.57,149.04L273.85,150.79L274.03,152.63L274.08,154.55L274.03,156.51L273.87,158.37L273.58,160.47L273.18,162.61L272.67,164.78L272.04,166.96L271.32,169.15L270.48,171.34L269.55,173.52L268.53,175.67L267.42,177.79L266.22,179.86L264.94,181.89L263.59,183.85L262.17,185.74L260.69,187.55L259.16,189.27L257.59,190.90L255.97,192.42L254.32,193.83L252.65,195.12L251.14,196.17L249.46,197.20L247.78,198.09L246.10,198.86L244.45,199.47L242.81,199.95L241.21,200.28L239.90,200.43L238.43,200.47L236.97,200.35L235.58,200.09L234.49,199.76L233.29,199.24L232.11,198.55L231.09,197.78L230.23,196.96L229.32,195.87L228.50,194.65L227.82,193.39L227.28,192.12L226.78,190.56L226.38,188.89L226.09,187.14L226.03,186.43"/></g></g><g id="Actor_.6"><g style="stroke:#000000;stroke-width:0.176"><path d="M131.46,57.64L130.94,57.24L130.75,56.87L130.61,56.59L130.49,55.74L130.61,54.77L130.94,53.74L131.03,53.56L131.46,52.74L132.13,51.86L132.89,51.16L133.68,50.71L134.45,50.53L135.12,50.64"/><path d="M133.33,57.32L132.67,57.47L132.09,57.38L131.64,57.03L131.36,56.47L131.26,55.74L131.36,54.90L131.64,54.01L132.09,53.16L132.67,52.40L133.33,51.79L134.01,51.40L134.67,51.25L135.25,51.35L135.70,51.69L135.98,52.25L136.08,52.98"/></g><g style="stroke:#000000;stroke-width:0.529"><path d="M127.91,46.51L135.12,50.64L135.64,51.04L135.97,51.69L136.08,52.54L136.08,52.98L135.98,53.82L135.70,54.71L135.25,55.57L134.67,56.33L134.01,56.93L132.89,57.57L132.13,57.75L131.46,57.64L123.99,53.35"/></g></g><g id="Actor_.7"><g style="stroke:#000000;stroke-width:0.176"><path d="M189.79,169.72L188.32,168.50L187.68,167.76L187.05,167.01L185.98,165.25L185.14,163.24L184.54,161.02L184.17,158.59L184.05,155.99L184.17,153.26L184.54,150.41L185.14,147.49L185.98,144.52L187.05,141.54L188.32,138.58L189.79,135.68L190.62,134.28L191.44,132.87L193.26,130.19L195.21,127.65L197.28,125.29L199.45,123.14L201.69,121.22L203.97,119.56L205.70,118.49L206.28,118.17L208.58,117.06L210.84,116.26L213.05,115.76L215.17,115.58L217.19,115.72L219.07,116.17L220.81,116.94"/><path d="M184.51,157.50L184.49,157.27L184.49,154.63L184.73,151.86L185.21,149.00L185.93,146.09L186.87,143.14L188.03,140.20L189.39,137.30L190.94,134.47L192.65,131.74L194.52,129.15L196.51,126.73L198.62,124.50L200.80,122.48L203.04,120.71L205.31,119.19L205.88,118.86L207.59,117.95L209.85,117.01L212.07,116.36L214.22,116.03L216.27,116.01L218.20,116.30L219.99,116.90L220.81,117.36L221.63,117.81L223.08,119.01L224.35,120.49L225.40,122.23L226.23,124.21L226.83,126.42L227.19,128.82L227.31,131.39L227.19,134.10L226.83,136.91L226.53,138.36L226.23,139.81L225.40,142.74L224.34,145.69L223.08,148.62L221.63,151.49L219.99,154.27L218.20,156.93L216.27,159.44L214.22,161.77L212.07,163.90L209.85,165.79L207.59,167.44L205.28,168.84L203.04,169.91L200.80,170.71L198.62,171.20L196.51,171.38L194.52,171.24L192.65,170.79L190.94,170.04L189.39,168.98L188.03,167.64L186.87,166.03L185.93,164.16L185.21,162.07L184.73,159.76L184.51,157.50"/><path d="M186.21,167.61L187.13,168.15"/><path d="M189.29,140.34L188.20,143.10L187.33,145.81L186.67,148.51L186.23,151.14L186.01,153.69L186.01,156.13L186.23,158.43L186.67,160.55L187.33,162.49L188.20,164.21L189.27,165.69L190.53,166.93L191.59,167.66L191.95,167.90L193.54,168.60L195.26,169.01L197.10,169.14L198.81,168.99L199.03,168.97L201.05,168.52L203.12,167.79L205.21,166.78L207.37,165.47L209.40,163.99L211.44,162.24L213.42,160.28L215.31,158.13L217.10,155.81L218.75,153.36L219.11,152.75L220.26,150.79L221.60,148.15L222.76,145.45L223.73,142.73L224.50,140.02L225.05,137.36L225.39,134.76L225.50,132.26L225.44,131.03L225.39,129.89L225.05,127.68L224.50,125.64L223.73,123.81L222.76,122.21L221.60,120.84L220.95,120.31L221.54,120.86L222.69,122.36L223.62,124.11L224.33,126.10L224.81,128.30L225.05,130.68L225.05,133.21L224.81,135.87L224.33,138.61L223.68,141.20L223.62,141.41L222.69,144.24L221.54,147.05L220.20,149.82L218.68,152.51L216.99,155.09L215.16,157.52L213.21,159.79L211.16,161.85L209.04,163.69L206.88,165.27L204.69,166.60L202.51,167.64L200.37,168.38L198.28,168.82L196.28,168.95L194.39,168.77L193.17,168.44"/><path d="M203.33,122.67L203.50,122.55L204.55,121.91L205.61,121.34L207.70,120.42L209.75,119.81L209.96,119.77L211.73,119.51L213.62,119.52L215.38,119.85L216.83,120.43L217.00,120.50L218.44,121.44L219.70,122.68L220.76,124.19L221.59,125.96L222.20,127.95L222.56,130.14L222.68,132.51L222.56,135.02L222.41,136.12L222.20,137.64L221.59,140.32L220.76,143.05L219.70,145.77L218.44,148.45L217.00,151.06L215.38,153.55L215.29,153.68L213.62,155.91L211.83,157.97L211.73,158.08L209.75,160.06L207.70,161.80L205.61,163.28L203.50,164.49L201.40,165.41L199.35,166.02L197.37,166.32L195.49,166.31L193.72,165.97L193.04,165.70L192.11,165.33L190.66,164.38L189.40,163.15L188.35,161.64L188.17,161.27L187.51,159.87L186.91,157.88L186.54,155.68L186.42,153.31L186.45,152.66"/><path d="M216.21,121.17L217.29,121.87L218.50,123.06L219.51,124.51L220.32,126.21L220.90,128.13L221.25,130.25L221.37,132.53L221.25,134.95L220.90,137.46L220.32,140.05L219.51,142.67L218.50,145.29L217.29,147.88L215.89,150.39L214.34,152.79L212.64,155.06L210.83,157.15L208.92,159.05L206.94,160.73L204.92,162.16L202.89,163.32L200.88,164.21L198.90,164.80L196.99,165.09L195.18,165.07L193.48,164.75L191.92,164.13L191.48,163.84"/><path d="M196.09,164.78L194.32,164.72L193.89,164.62"/><path d="M195.47,129.94L195.26,130.20L194.75,130.90"/><path d="M220.95,120.31L220.26,119.74L218.75,118.90L217.10,118.35L215.31,118.08L213.42,118.10L211.64,118.38L211.44,118.41L209.40,119.00L207.31,119.87L205.74,120.70L205.21,121.01L203.12,122.41L201.05,124.05L199.03,125.91L197.09,127.97L195.51,129.89"/><path d="M210.84,164.99L210.74,165.08"/><path d="M213.05,162.96L212.92,163.07"/><path d="M215.10,160.78L215.17,160.70"/><path d="M215.69,120.88L215.89,120.96L216.20,121.16"/><path d="M217.30,158.09L217.06,158.40"/><path d="M218.55,123.55L217.94,122.80"/><path d="M219.11,155.58L219.03,155.69"/><path d="M220.82,152.87L220.80,152.90"/><path d="M222.40,149.97L222.34,150.07"/><path d="M223.80,146.96L223.69,147.22"/><path d="M224.93,144.07L224.82,144.37"/><path d="M225.88,141.09L225.87,141.14"/></g><g style="stroke:#000000;stroke-width:0.529"><path d="M180.17,159.55L180.14,159.48L179.65,157.15L179.41,154.63L179.41,151.96L179.65,149.17L180.14,146.28L180.87,143.33L181.82,140.35L182.99,137.38L184.36,134.45L185.93,131.59L187.66,128.83L189.55,126.22L191.56,123.77L193.69,121.51L195.89,119.47L198.16,117.68L200.46,116.15L201.03,115.81L202.76,114.90L205.04,113.94L207.28,113.29L209.45,112.95L211.53,112.93L213.48,113.23L215.29,113.84L216.94,114.75L217.18,114.91L220.81,116.94L222.37,118.00L223.75,119.36L224.92,120.99L225.87,122.87L226.59,124.99L227.08,127.32L227.33,129.84L227.33,132.51L227.08,135.30L226.83,136.91L226.59,138.19L226.23,139.81L225.87,141.14L225.40,142.74L224.92,144.12L224.34,145.69L223.08,148.62L221.63,151.49L220.81,152.88L219.99,154.27L218.20,156.93L216.27,159.44L215.17,160.70L214.22,161.77L213.05,162.96L212.07,163.90L210.84,164.99L209.85,165.79L208.58,166.79L206.28,168.32L203.97,169.57L201.69,170.53L199.45,171.18L197.28,171.51L195.21,171.54L193.26,171.24L191.44,170.63L189.79,169.72L187.13,168.15L185.93,167.53L184.36,166.47L182.99,165.11L181.82,163.48L180.87,161.60L180.17,159.55"/><path d="M186.72,155.76L186.56,154.84L186.45,152.66L186.54,150.81L186.91,148.19L187.51,145.50L188.35,142.78L189.29,140.34L190.53,137.71L191.95,135.10L193.54,132.59L194.75,130.90L195.51,129.89L197.37,127.74L199.35,125.77L201.40,124.03L203.33,122.67L203.91,122.31L204.92,121.77L206.94,120.88L208.92,120.29L210.83,120.00L211.83,120.01L212.64,120.02L214.34,120.34L215.69,120.88L216.20,121.16L217.47,122.23L217.94,122.80L218.49,124.27L218.97,126.39L219.21,128.71L219.21,131.18L218.97,133.77L218.49,136.45L217.77,139.19L216.83,141.94L215.68,144.68L214.29,147.43L212.80,149.97L211.11,152.44L209.29,154.76L207.35,156.90L205.32,158.83L203.23,160.52L201.11,161.95L198.98,163.10L196.87,163.96L194.81,164.51L193.89,164.62L192.68,164.36L191.48,163.84L190.53,163.22L189.32,162.03L188.30,160.58L187.50,158.88L186.92,156.96L186.72,155.76"/></g></g><g id="Actor_.8"><g style="stroke:#000000;stroke-width:0.176"><path d="M105.08,125.69L104.56,125.29L104.23,124.64L104.12,123.79L104.21,122.97"/><path d="M106.95,125.37L106.29,125.53L105.72,125.43L105.27,125.08L104.98,124.52L104.88,123.79L104.98,122.95L105.04,122.76"/><path d="M106.51,125.62L106.51,125.62"/><path d="M109.71,121.03L109.70,121.01"/></g><g style="stroke:#000000;stroke-width:0.529"><path d="M109.71,121.01L109.71,121.03L109.61,121.87L109.32,122.76L108.87,123.62L108.30,124.38L107.64,124.98L106.51,125.62L105.75,125.80L105.08,125.69L101.14,123.42"/></g></g><g id="Actor_.9"><g style="stroke:#000000;stroke-width:0.176"><path d="M122.18,111.91L121.75,112.01"/></g><g style="stroke:#000000;stroke-width:0.529"><path d="M100.66,93.16L100.20,93.58L99.60,94.28L99.57,94.31"/><path d="M121.57,112.20L121.74,112.16L122.87,111.52L123.52,110.92L124.10,110.15L124.55,109.30L124.79,108.55"/></g></g><g id="Actor_.10"><g style="stroke:#000000;stroke-width:0.176"><path d="M89.85,68.58L89.33,68.19L89.00,67.54L88.89,66.69L89.00,65.71L89.33,64.69L89.85,63.69L90.52,62.81L91.29,62.11L91.72,61.86L92.08,61.66L92.84,61.48L93.51,61.59"/><path d="M91.72,68.27L91.07,68.42L90.49,68.32L90.04,67.98L89.75,67.42L89.66,66.69L89.75,65.85L90.04,64.96L90.49,64.10L91.07,63.34L91.72,62.74L92.41,62.35L93.07,62.20L93.65,62.29L94.09,62.64L94.38,63.20L94.48,63.93"/></g><g style="stroke:#000000;stroke-width:0.529"><path d="M69.58,59.23L68.90,58.84L68.41,58.53L68.26,58.40L67.86,57.95L67.49,57.21L67.32,56.53L67.26,55.76L67.26,55.62L67.31,54.81L67.48,53.96L67.76,53.10L68.14,52.24L68.60,51.41L69.14,50.63L69.74,49.94L70.38,49.34L71.05,48.86L71.17,48.79L71.86,48.43L72.54,48.21L73.18,48.14L73.37,48.13L73.97,48.21L74.16,48.28L74.70,48.52L76.87,49.77"/><path d="M86.31,57.46L93.51,61.59L94.03,61.99L94.36,62.64L94.48,63.49L94.48,63.93L94.38,64.77L94.09,65.66L93.65,66.51L93.07,67.27L92.41,67.88L91.29,68.52L90.52,68.70L89.85,68.58L82.38,64.30"/></g></g><g id="Actor_.11"><g style="stroke:#000000;stroke-width:0.176"><path d="M78.71,123.17L78.19,122.78L77.85,122.13L77.74,121.28L77.85,120.30L78.19,119.28L78.62,118.45L78.71,118.28L79.38,117.40L80.14,116.70L80.93,116.25L81.70,116.07L82.37,116.18"/><path d="M80.58,122.86L79.92,123.01L79.34,122.91L78.89,122.57L78.61,122.01L78.51,121.28L78.61,120.44L78.89,119.55L79.34,118.69L79.92,117.93L80.58,117.33L81.26,116.94L81.92,116.78L82.50,116.88L82.95,117.23L83.23,117.79L83.33,118.52"/></g><g style="stroke:#000000;stroke-width:0.529"><path d="M60.19,114.83L57.75,113.43L57.26,113.12L57.11,112.99L56.72,112.54L56.34,111.80L56.17,111.12L56.11,110.35L56.11,110.21L56.17,109.40L56.34,108.55L56.61,107.69L56.99,106.83L57.19,106.47"/><path d="M75.16,112.05L82.37,116.18L82.89,116.58L83.22,117.23L83.33,118.08L83.33,118.52L83.23,119.36L82.99,120.13L82.95,120.25L82.50,121.10L81.92,121.86L81.26,122.47L80.14,123.11L79.37,123.29L78.71,123.17L71.24,118.89"/></g></g><g id="Actor_.12"><g style="stroke:#000000;stroke-width:0.176"><path d="M140.16,68.28L140.06,67.55L139.78,66.99L139.33,66.65L138.75,66.55L138.09,66.70L137.41,67.09L137.00,67.47"/><path d="M136.76,66.66L136.97,66.46L137.76,66.01L138.53,65.83L139.20,65.95"/></g><g style="stroke:#000000;stroke-width:0.529"><path d="M135.72,63.95L139.20,65.95L139.72,66.34L140.05,66.99L140.16,67.84L140.16,68.28L140.06,69.12L139.78,70.01L139.33,70.87L138.75,71.63L138.09,72.23L137.78,72.41"/></g></g><g id="Actor_.13"><g style="stroke:#000000;stroke-width:0.176"><path d="M120.31,51.12L119.79,50.72L119.58,50.31L119.46,50.07L119.34,49.22L119.46,48.25L119.50,48.12L119.79,47.22L120.31,46.22L120.98,45.34L121.74,44.64L122.29,44.33L122.54,44.19L123.30,44.01L123.97,44.12"/><path d="M122.18,50.80L121.52,50.95L120.94,50.86L120.50,50.51L120.21,49.95L120.11,49.22L120.21,48.38L120.50,47.49L120.94,46.64L121.52,45.88L122.18,45.27L122.87,44.88L123.52,44.73L124.10,44.83L124.55,45.17L124.84,45.73L124.93,46.46"/></g><g style="stroke:#000000;stroke-width:0.529"><path d="M99.02,34.00L99.06,33.94L99.60,33.17L100.20,32.47L100.84,31.88L101.51,31.39L101.62,31.33L102.32,30.96L102.99,30.74L103.64,30.67L103.83,30.66L104.43,30.74L104.62,30.81L105.15,31.05L107.65,32.48"/><path d="M116.77,39.99L123.97,44.12L124.49,44.52L124.82,45.17L124.93,46.02L124.93,46.46L124.84,47.30L124.57,48.12L124.55,48.19L124.10,49.05L123.52,49.81L122.87,50.41L121.74,51.05L120.98,51.23L120.31,51.12L112.84,46.83"/></g></g><g id="Actor_.14"><g style="stroke:#000000;stroke-width:0.176"><path d="M48.67,23.01L46.79,22.88L44.81,23.07L42.74,23.56L40.62,24.36L40.40,24.47L38.47,25.45L36.33,26.82L34.21,28.45L32.14,30.33L30.16,32.42L28.28,34.70L26.52,37.15L24.92,39.73L23.49,42.41L22.24,45.15L21.21,47.93L20.38,50.70L19.79,53.43L19.43,56.09L19.31,58.65L19.43,61.07L19.79,63.32L20.38,65.37L21.21,67.20L22.24,68.78L21.33,67.72L20.30,66.16L19.50,64.37L18.91,62.35L18.56,60.14L18.44,57.77L18.56,55.26L18.91,52.64L19.50,49.96L20.30,47.23L21.33,44.51L22.55,41.81L23.95,39.18L25.53,36.64L27.25,34.24L29.10,32.00L31.05,29.94L33.08,28.10L35.16,26.50L37.27,25.15L39.38,24.08L41.46,23.29L43.49,22.81L45.44,22.62L47.29,22.75L48.67,23.01L50.20,23.39"/><path d="M18.12,60.88L17.98,60.26L17.73,57.95L17.73,55.48L17.98,52.89L18.47,50.21L19.20,47.48L20.15,44.73L21.32,42.00L22.69,39.32L24.24,36.74L25.95,34.29L27.79,32.00L29.74,29.91L31.78,28.03L33.88,26.40L36.00,25.04L38.13,23.96L39.09,23.60L39.03,23.63L36.90,24.71L34.77,26.07L32.66,27.69L30.61,29.55L28.64,31.63L26.78,33.90L25.04,36.32L23.44,38.88L22.02,41.54L20.79,44.27L19.76,47.02L18.94,49.77L18.35,52.48L17.99,55.13L17.87,57.66L17.99,60.06L18.18,61.22"/><path d="M28.39,72.14L28.95,72.23L28.26,72.12L27.04,71.76L25.90,71.24L24.85,70.57L23.89,69.76L23.02,68.80L22.26,67.72L21.61,66.50L21.07,65.16L20.65,63.71L20.34,62.16L20.16,60.51L20.10,58.79L20.16,56.99L20.35,55.14L20.65,53.23L20.81,52.50L20.65,53.23"/><path d="M20.65,63.71L20.89,64.53"/><path d="M40.68,25.40L42.14,24.86L44.13,24.40L46.05,24.26L47.85,24.43L49.52,24.92L51.03,25.70L52.37,26.78L53.51,28.14L54.44,29.76L55.16,31.62L55.64,33.69L55.88,35.94L55.88,38.35L55.64,40.88L55.16,43.50L54.44,46.18L53.50,48.88L52.37,51.54L51.03,54.15L49.52,56.67L47.85,59.07L46.04,61.31L45.86,61.51L44.13,63.36L42.14,65.19L40.09,66.79L38.22,67.99L38.01,68.12L35.94,69.17L33.89,69.93L31.89,70.38L29.98,70.52L28.18,70.35L26.51,69.87L25.00,69.08L23.66,68.00L22.52,66.64L21.59,65.03L20.87,63.17L20.39,61.10L20.37,60.87L20.38,61.04L20.73,63.23L21.31,65.24L22.11,67.02L22.89,68.21L23.36,68.71L24.73,69.70L26.27,70.41L27.95,70.83L29.75,70.95L31.65,70.77L33.63,70.29L35.66,69.53L37.71,68.48L39.77,67.17L41.80,65.61L43.78,63.81L45.68,61.81L47.48,59.62L49.16,57.28L50.69,54.81L52.07,52.25L53.26,49.62L54.25,46.96L55.04,44.31L55.61,41.69L55.95,39.14L56.07,36.69L56.01,35.49L55.95,34.38L55.61,32.22L55.04,30.26L54.25,28.51L53.26,26.99L52.07,25.73L50.69,24.74L49.16,24.03L48.37,23.84L47.10,23.75L45.16,23.93L43.14,24.42L41.07,25.20L38.98,26.26L36.88,27.60L36.42,27.95"/><path d="M20.37,60.87L20.26,58.68L20.38,56.18L20.40,56.01"/><path d="M21.61,66.50L21.26,65.62"/><path d="M20.81,52.50L21.07,51.30L21.61,49.34L22.27,47.38L23.03,45.41L23.89,43.47L24.85,41.55L25.91,39.68L27.04,37.85L28.26,36.10L29.55,34.42L30.89,32.83L32.29,31.33L33.74,29.95L35.21,28.68L36.71,27.54L38.23,26.52L38.99,26.07L39.75,25.65L41.27,24.92L42.58,24.42L41.49,24.84"/><path d="M22.24,68.78L23.44,70.05"/><path d="M22.89,68.21L23.13,68.57L24.34,69.86L25.74,70.87L27.31,71.59L29.02,72.01L30.86,72.14L32.80,71.96L34.81,71.47L36.88,70.69L38.98,69.63L41.07,68.29L43.14,66.69L45.16,64.86L47.10,62.82L48.93,60.59L50.65,58.20L52.21,55.68L53.61,53.07L54.82,50.39L55.84,47.68L56.64,44.97L57.22,42.30L57.58,39.70L57.69,37.21L57.58,34.85L57.22,32.65L56.64,30.65L55.84,28.86L54.82,27.32L53.61,26.03L52.21,25.02L50.65,24.30L48.93,23.87L48.37,23.84"/><path d="M22.26,67.72L21.98,67.19"/><path d="M24.60,68.03L25.12,68.45L26.60,69.22L28.23,69.69L29.99,69.86L31.85,69.72L33.80,69.28L35.80,68.54L37.83,67.51L39.85,66.21L41.85,64.66L43.80,62.87L45.66,60.87L47.42,58.68L49.05,56.34L50.53,53.88L51.83,51.33L52.95,48.72L53.86,46.10L53.90,45.94L54.55,43.49L55.02,40.93L55.26,38.46L55.26,36.11L55.02,33.91L54.55,31.89L53.86,30.07L52.95,28.49L51.83,27.17L50.53,26.12L49.05,25.35L48.90,25.30"/><path d="M28.26,72.12L27.30,71.83"/><path d="M28.95,72.23L29.55,72.32L30.89,72.37L32.29,72.25"/><path d="M39.09,23.60L40.16,23.20"/><path d="M42.58,24.42L42.77,24.35L44.25,23.92L43.68,24.08"/><path d="M44.25,23.92L45.69,23.65L47.09,23.54L47.18,23.54L48.43,23.59L49.72,23.79L50.94,24.15L52.08,24.67L52.34,24.83L53.13,25.33L54.09,26.15L54.96,27.10L55.72,28.19L56.37,29.41"/><path d="M50.23,23.94L50.76,24.10"/></g><g style="stroke:#000000;stroke-width:0.529"><path d="M18.56,63.02L18.35,62.29L18.18,61.22L17.89,59.96L17.64,57.68L17.64,55.24L17.89,52.67L18.37,50.02L19.09,47.31L20.04,44.59L21.20,41.88L22.55,39.24L24.08,36.68L25.77,34.26L27.60,31.99L29.53,29.91L31.55,28.05L33.63,26.44L35.73,25.09L37.83,24.03L39.91,23.26L40.16,23.20L41.13,22.84L43.18,22.35L45.15,22.16L47.02,22.29L48.76,22.72L50.20,23.39L50.43,23.44L52.03,24.18L53.46,25.22L54.70,26.53L55.74,28.12L56.37,29.41L56.91,30.74L57.33,32.19L57.64,33.75L57.82,35.39L57.88,37.12L57.82,38.91L57.64,40.77L57.33,42.67L56.91,44.60L56.37,46.56L55.72,48.53L54.96,50.49L54.09,52.44L53.75,53.12L53.13,54.35L52.08,56.23L50.94,58.05L49.72,59.81L49.03,60.71L48.44,61.49L47.09,63.08L45.69,64.57L44.25,65.96L42.77,67.23L41.27,68.37L39.75,69.38L38.99,69.84L38.23,70.25L36.71,70.98L35.21,71.56L33.73,71.99L32.29,72.25L30.16,72.43L28.28,72.31L26.52,71.87L24.92,71.13L22.02,69.02L20.79,67.71L19.76,66.14L18.94,64.33L18.56,63.02"/><path d="M20.63,60.66L20.39,58.46L20.39,56.11L20.40,56.01L20.73,53.59L21.31,50.92L22.11,48.21L23.13,45.50L24.34,42.82L25.74,40.20L27.31,37.69L29.02,35.30L30.86,33.07L32.80,31.02L34.81,29.19L36.42,27.95L37.83,27.05L39.85,26.03L41.85,25.29L43.80,24.85L45.66,24.71L47.42,24.88L48.90,25.30L49.68,25.93L50.79,27.26L51.71,28.84L52.40,30.65L52.87,32.67L53.10,34.87L53.10,36.09L53.10,37.22L52.87,39.70L52.40,42.25L51.71,44.86L50.79,47.49L49.68,50.09L48.37,52.64L46.90,55.11L45.27,57.45L43.51,59.63L41.64,61.63L39.70,63.42L37.70,64.98L35.67,66.28L33.64,67.30L31.64,68.04L29.70,68.48L27.83,68.62L26.08,68.45L24.60,68.03L23.82,67.40L22.70,66.07L21.79,64.49L21.10,62.68L20.63,60.66"/></g></g><g id="Actor_.15"><g style="stroke:#000000;stroke-width:0.176"><path d="M78.71,87.89L78.19,87.50L77.85,86.85L77.74,86.00L77.85,85.02L78.19,84.00L78.71,83.00L79.37,82.12L80.14,81.42L80.93,80.96L81.70,80.79L82.37,80.90"/><path d="M80.58,87.58L79.92,87.73L79.34,87.63L78.89,87.29L78.61,86.73L78.51,86.00L78.61,85.16L78.89,84.27L79.34,83.41L79.92,82.65L80.58,82.05L81.26,81.66L81.92,81.50L82.50,81.60L82.95,81.94L83.23,82.50L83.33,83.23"/></g><g style="stroke:#000000;stroke-width:0.529"><path d="M59.81,79.33L57.75,78.15L57.26,77.84L57.11,77.71L56.72,77.26L56.34,76.51L56.17,75.84L56.11,75.07L56.11,74.93L56.17,74.12L56.34,73.27L56.61,72.40L56.99,71.54L57.45,70.72L57.99,69.94L58.59,69.25L59.24,68.65L59.90,68.17L60.02,68.10L60.71,67.74L61.39,67.52L62.03,67.45L62.22,67.44L62.83,67.52L63.02,67.59L63.55,67.82L64.36,68.29"/><path d="M75.16,76.77L82.37,80.90L82.89,81.30L83.22,81.95L83.33,82.79L83.33,83.23L83.23,84.08L83.19,84.22L82.95,84.96L82.50,85.82L81.92,86.58L81.26,87.18L80.14,87.83L79.38,88.01L78.71,87.89L71.24,83.61"/></g></g><g id="Actor_.16"><g style="stroke:#000000;stroke-width:0.176"><path d="M105.08,55.12L104.56,54.73L104.23,54.08L104.12,53.23L104.23,52.25L104.56,51.23L104.82,50.72L105.08,50.23L105.75,49.35L106.51,48.65L107.31,48.20L108.07,48.02L108.74,48.13"/><path d="M106.95,54.81L106.29,54.96L105.72,54.86L105.27,54.52L104.98,53.96L104.88,53.23L104.98,52.39L105.27,51.50L105.72,50.64L106.29,49.88L106.95,49.28L107.64,48.89L108.30,48.73L108.87,48.83L109.32,49.18L109.61,49.74L109.71,50.47"/></g><g style="stroke:#000000;stroke-width:0.529"><path d="M92.83,36.73L89.92,35.05L89.39,34.82L89.20,34.75L88.60,34.67L88.41,34.68L87.77,34.75L87.09,34.97L86.40,35.33L86.28,35.40L85.61,35.88L84.97,36.48L84.37,37.17L83.83,37.95L83.36,38.77L82.99,39.64L82.71,40.50L82.54,41.35L82.49,42.16L82.49,42.30L82.54,43.07L82.72,43.75L82.78,43.87"/><path d="M101.54,44.00L108.74,48.13L109.26,48.53L109.59,49.18L109.70,50.03L109.71,50.47L109.61,51.31L109.32,52.19L108.87,53.05L108.30,53.81L107.64,54.42L106.51,55.06L105.75,55.24L105.08,55.12L97.61,50.84"/></g></g><g><g><path style="stroke:#000000;stroke-width:0.125;stroke-dasharray:2.4 1.6 0.8 1.6" d="M66.73,63.87L37.33,47.00"/></g></g><g><g><path style="stroke:#000000;stroke-width:0.125;stroke-dasharray:2.4 1.6 0.8 1.6" d="M96.67,81.04L141.23,106.60"/><path style="stroke:#000000;stroke-width:0.125;stroke-dasharray:2.4 1.6 0.8 1.6" d="M146.84,109.81L185.66,132.08"/><path style="stroke:#000000;stroke-width:0.125;stroke-dasharray:2.4 1.6 0.8 1.6" d="M231.00,158.08L191.71,135.55"/><path style="stroke:#000000;stroke-width:0.125;stroke-dasharray:2.4 1.6 0.8 1.6" d="M249.97,168.97L233.04,159.26"/></g></g><g id="PMI.0"><g><path style="stroke:#000000;stroke-width:0.125" d="M89.42,146.93L87.31,124.61"/></g><g><path style="fill:#000000" d="M88.06,124.61L88.06,124.53L88.04,124.46L88.03,124.39L88.00,124.32L87.97,124.25L87.93,124.19L87.89,124.13L87.84,124.08L87.78,124.03L87.73,123.98L87.66,123.95L87.60,123.91L87.53,123.89L87.46,123.87L87.38,123.86L87.31,123.86L87.24,123.86L87.16,123.87L87.09,123.89L87.02,123.91L86.96,123.95L86.89,123.98L86.83,124.03L86.78,124.08L86.73,124.13L86.69,124.19L86.65,124.25L86.62,124.32L86.59,124.39L86.57,124.46L86.56,124.53L86.56,124.61L86.56,124.68L86.57,124.75L86.59,124.82L86.62,124.89L86.65,124.96L86.69,125.02L86.73,125.08L86.78,125.14L86.83,125.19L86.89,125.23L86.96,125.27L87.02,125.30L87.09,125.32L87.16,125.34L87.24,125.35L87.31,125.36L87.38,125.35L87.46,125.34L87.53,125.32L87.60,125.30L87.66,125.27L87.73,125.23L87.78,125.19L87.84,125.14L87.89,125.08L87.93,125.02L87.97,124.96L88.00,124.89L88.03,124.82L88.04,124.75L88.06,124.68z"/></g><g><text xml:space="preserve" fill="#000000" stroke-width="0" x="82.79" y="152.36" font-size="3.78" opacity="1.00" font-family="Arial">ND1122</text></g></g><g><g><path style="stroke:#000000;stroke-width:0.125" d="M126.31,171.40L142.95,139.93"/></g><g><path style="fill:#000000" d="M143.70,139.93L143.69,139.85L143.68,139.78L143.66,139.71L143.64,139.64L143.61,139.57L143.57,139.51L143.53,139.45L143.48,139.40L143.42,139.35L143.36,139.30L143.30,139.27L143.23,139.23L143.16,139.21L143.09,139.19L143.02,139.18L142.95,139.18L142.87,139.18L142.80,139.19L142.73,139.21L142.66,139.23L142.59,139.27L142.53,139.30L142.47,139.35L142.42,139.40L142.37,139.45L142.32,139.51L142.28,139.57L142.25,139.64L142.23,139.71L142.21,139.78L142.20,139.85L142.20,139.93L142.20,140.00L142.21,140.07L142.23,140.15L142.25,140.21L142.28,140.28L142.32,140.34L142.37,140.40L142.42,140.46L142.47,140.51L142.53,140.55L142.59,140.59L142.66,140.62L142.73,140.65L142.80,140.66L142.87,140.67L142.95,140.68L143.02,140.67L143.09,140.66L143.16,140.65L143.23,140.62L143.30,140.59L143.36,140.55L143.42,140.51L143.48,140.46L143.53,140.40L143.57,140.34L143.61,140.28L143.64,140.21L143.66,140.15L143.68,140.07L143.69,140.00z"/></g><g><text xml:space="preserve" fill="#000000" stroke-width="0" x="117.52" y="176.83" font-size="3.77" opacity="1.00" font-family="Arial">KIT0394</text></g></g><g id="PMI.1"><g><path style="stroke:#000000;stroke-width:0.125" d="M183.34,195.87L225.07,179.20"/></g><g><path style="fill:#000000" d="M225.82,179.20L225.82,179.13L225.80,179.05L225.79,178.98L225.76,178.91L225.73,178.85L225.69,178.78L225.65,178.72L225.60,178.67L225.54,178.62L225.49,178.58L225.42,178.54L225.36,178.51L225.29,178.48L225.22,178.47L225.14,178.45L225.07,178.45L225.00,178.45L224.92,178.47L224.85,178.48L224.78,178.51L224.72,178.54L224.65,178.58L224.59,178.62L224.54,178.67L224.49,178.72L224.45,178.78L224.41,178.85L224.38,178.91L224.35,178.98L224.33,179.05L224.32,179.13L224.32,179.20L224.32,179.27L224.33,179.35L224.35,179.42L224.38,179.49L224.41,179.55L224.45,179.62L224.49,179.68L224.54,179.73L224.59,179.78L224.65,179.82L224.72,179.86L224.78,179.89L224.85,179.92L224.92,179.94L225.00,179.95L225.07,179.95L225.14,179.95L225.22,179.94L225.29,179.92L225.36,179.89L225.42,179.86L225.49,179.82L225.54,179.78L225.60,179.73L225.65,179.68L225.69,179.62L225.73,179.55L225.76,179.49L225.79,179.42L225.80,179.35L225.82,179.27z"/></g><g><text xml:space="preserve" fill="#000000" stroke-width="0" x="167.25" y="201.30" font-size="3.84" opacity="1.00" font-family="Arial">ZOR0167</text></g></g><g/><g><g/><g><text xml:space="preserve" fill="#000000" stroke-width="0" x="7.92" y="12.61" font-size="4.53" opacity="1.00" font-family="Arial" font-weight="bold">BPA28908</text></g></g><g id="paperID" visibility="hidden" opacity="0.00" transform="scale(0.000100)"><path style="stroke:#000000;stroke-width:0.500;fill:#e6e6e6;fill-rule:evenodd" d="M-2000.00,-2000.00L2297.00,-2000.00L2297.00,2210.00L-2000.00,2210.00zM0.00,0.00L297.00,0.00L297.00,210.00L0.00,210.00z"/><path style="fill:#000000;fill-opacity:0.118" d="M3.00,210.00L297.00,210.00L297.00,3.00L300.00,3.00L300.00,213.00L3.00,213.00z"/></g><g id="hotspot.0" onmouseover="ShowHotSpot(evt,'0')" onmouseout="HideHotSpot(evt,'0')" onmousemove="ShowToolTip(evt,'0',&quot;Hotspot 1&quot;)" opacity="0"><path style="fill:#00ff00;fill-rule:evenodd" d="M48.28,22.56L51.64,23.95L53.41,25.13L55.38,27.50L56.57,29.87L57.15,31.65L57.75,34.60L57.75,39.80L56.96,44.33L55.39,49.47L53.22,54.20L50.45,58.73L48.42,61.44L46.42,63.79L42.88,67.15L38.63,70.01L36.64,70.98L34.02,71.91L31.25,72.29L28.75,72.29L26.76,71.91L24.40,70.72L21.85,68.93L20.86,67.74L19.47,65.59L18.48,62.63L17.89,59.66L17.69,57.89L17.69,54.99L18.03,51.77L19.07,47.49L20.66,43.15L22.82,38.81L25.11,35.17L28.07,31.43L31.44,28.09L35.00,25.53L37.96,23.95L42.11,22.57L44.67,22.17L45.91,22.17zM168.46,87.69L170.44,88.28L173.79,90.06L176.36,91.83L177.55,93.20L178.75,94.97L179.52,96.56L180.30,98.94L180.90,103.08L180.90,106.10L180.30,111.04L179.31,114.98L177.34,120.51L175.77,123.67L173.79,127.22L170.83,131.56L169.39,133.27L166.90,136.12L163.45,139.18L159.32,141.96L156.95,143.14L154.25,144.19L151.43,144.72L147.93,144.72L145.57,144.13L141.59,141.99L139.67,140.56L138.07,138.80L136.69,136.43L135.69,133.68L135.31,131.69L135.11,129.92L135.11,125.44L135.64,121.24L136.84,116.71L137.87,113.60L140.07,108.69L142.33,104.83L144.80,101.19L147.56,97.83L149.25,95.97L150.52,94.87L152.42,93.21L156.17,90.65L159.58,88.93L162.68,87.88L165.05,87.49L167.08,87.49zM215.04,113.74L220.76,116.89L223.35,118.84L224.53,120.43L225.70,122.42L226.67,125.39L227.27,128.93L227.27,133.53L227.07,135.51L226.28,139.65L224.90,144.18L222.73,149.32L220.50,153.40L217.40,158.00L215.96,159.72L213.57,162.46L211.40,164.43L210.01,165.61L207.65,167.39L203.93,169.59L200.18,170.98L198.00,171.36L194.32,171.36L193.12,171.18L190.96,170.38L185.23,167.02L183.87,166.01L182.67,164.66L181.49,162.87L180.49,160.51L179.71,157.35L179.51,155.38L179.51,151.10L179.85,147.88L180.88,143.19L182.87,137.67L185.43,132.55L187.72,128.71L190.88,124.57L193.25,122.01L195.83,119.46L200.18,116.31L203.53,114.53L207.08,113.34L209.25,112.95L211.88,112.95zM129.60,174.30L129.99,175.59L131.10,174.09L131.56,174.10L131.72,175.75L131.96,175.94L131.55,176.97L131.11,176.97L130.97,176.29L129.73,176.30L129.14,176.91L128.39,176.91L127.97,176.50L127.93,176.09L128.46,176.04L128.61,176.51L128.92,176.51L129.23,175.92L128.46,176.04L128.02,175.69L128.01,174.38L128.33,174.11L129.41,174.10zM127.44,174.29L127.36,175.30L127.62,175.69L127.63,176.37L127.18,176.91L126.21,176.91L125.80,176.50L125.77,176.08L126.20,176.10L126.39,176.34L127.03,176.37L127.02,175.71L126.56,175.55L126.62,175.20L127.03,174.96L127.06,174.71L126.84,174.48L126.57,174.49L126.35,174.70L125.76,174.79L125.82,174.40L126.16,174.11L127.24,174.10zM125.45,174.70L125.46,176.37L125.01,176.91L124.06,176.89L123.65,176.31L123.66,174.77L123.97,174.10L125.07,174.10zM121.20,174.37L121.20,174.14L123.50,174.14L123.51,174.37L122.61,174.51L122.47,176.98L122.24,176.98L122.10,174.51zM118.34,175.00L119.25,174.11L119.92,174.11L119.12,174.99L119.12,175.49L120.15,176.70L120.13,176.96L119.53,176.89L118.55,175.69L118.34,175.74L118.13,176.97L117.69,176.97L117.69,174.10L118.13,174.10zM120.69,176.98L120.46,176.98L120.46,174.09L120.69,174.09zM48.49,25.12L49.46,25.72L50.47,26.89L51.44,28.29L52.43,30.65L53.02,33.81L53.02,38.41L52.43,42.16L51.24,46.31L49.47,50.45L47.23,54.54L44.86,57.89L42.36,60.91L40.11,63.00L38.03,64.68L36.27,65.87L32.69,67.62L30.27,68.35L28.29,68.54L27.36,68.55L25.77,68.36L24.41,67.95L23.02,66.37L21.83,64.61L20.84,61.65L20.46,58.88L20.46,55.78L20.99,52.37L22.18,48.03L23.94,43.68L26.20,39.42L28.77,35.67L31.53,32.32L34.21,29.67L37.37,27.30L41.12,25.53L43.29,24.93L46.31,24.73zM170.24,94.79L171.45,95.95L172.80,98.15L173.79,101.30L174.19,104.86L173.99,108.27L173.20,112.62L171.62,117.35L169.85,121.10L167.67,124.84L165.04,128.34L162.74,130.97L159.70,133.66L155.64,136.30L152.23,137.63L150.05,138.01L147.35,138.01L145.58,137.61L144.01,135.82L143.00,133.87L142.41,132.09L142.02,130.31L141.82,128.54L141.82,125.44L142.22,122.28L143.19,118.13L144.59,114.39L146.95,109.66L148.55,107.11L150.92,103.95L152.79,101.88L155.18,99.53L158.14,97.36L160.90,95.78L164.05,94.59L167.86,94.19zM215.23,120.64L216.61,121.43L217.80,122.61L218.59,124.58L219.18,128.14L219.18,131.76L218.98,133.73L218.39,136.89L217.15,140.98L215.37,145.31L213.19,149.25L211.48,151.88L208.72,155.44L205.98,158.22L203.60,160.19L201.42,161.75L197.61,163.67L194.85,164.46L193.32,164.46L191.55,163.86L190.19,162.86L188.98,161.50L187.60,159.13L187.01,157.16L186.62,154.98L186.62,150.31L187.35,146.10L188.98,141.03L191.55,135.90L193.64,132.46L195.91,129.41L198.38,126.74L199.98,125.18L203.59,122.48L205.10,121.63L208.26,120.45L210.24,120.05L213.06,120.05zM129.22,174.69L129.20,175.38L128.53,175.38L128.60,174.56L129.00,174.48zM125.06,175.32L124.84,176.36L124.25,176.31L124.26,174.56L124.67,174.48zM130.97,175.76L130.49,175.70L130.91,175.29L131.00,175.32zM128.46,176.04L129.23,175.92L128.92,176.51L128.61,176.51z"/></g></g></svg>
