<?xml version="1.0" encoding="UTF-8" standalone="no"?>
<svg xmlns="http://www.w3.org/2000/svg" xmlns:xlink="http://www.w3.org/1999/xlink" width="297.000mm" height="210.000mm" viewBox="0.000000 0.000000 297.000000 210.000000" stroke-linejoin="round" stroke-linecap="round" fill="none" fill-rule="evenodd"><desc>Composer Export</desc><script type="text/ecmascript"><![CDATA[
if(typeof(top) != "undefined")
{
	top.ShowPaper = ShowPaper;
}
function ShowHotSpot(evt,hotspotid)
{
	var svgDocument = evt.target.ownerDocument;
	var strId = "hotspot."+hotspotid;
	var hotspot = svgDocument.getElementById(strId);
	if(hotspot)
		hotspot.setAttribute("opacity",".5");
}
function HideHotSpot(evt,hotspotid)
{
	var svgDocument = evt.target.ownerDocument;
	var strId = "hotspot."+hotspotid;
	var hotspot = svgDocument.getElementById(strId);
	if(hotspot)
		hotspot.setAttribute("opacity","0");

	var toolTip = svgDocument.getElementById('ToolTip');
	if(toolTip)
		toolTip.setAttribute("visibility","hidden");
}
function ShowToolTip(evt,hotspotid,strTooltip)
{
	if(strTooltip=="")
	return;

	// change text
	var svgDocument = evt.target.ownerDocument;
	var tiptext = svgDocument.getElementById('ToolTipText');
	if( !tiptext )
	return;
	tiptext.firstChild.nodeValue = " " + strTooltip + "  " ;

	// show tooltip before, else some refresh issue

	var toolTip = svgDocument.getElementById('ToolTip');
	if(!toolTip)
	return;

	toolTip.setAttribute("visibility","visible");
	toolTip.setAttribute("opacity",".95");

	// move tooltip
	// get viewbox

	var root = svgDocument.documentElement;
	var vbox = (root.getAttribute("viewBox")).split(' ');
	var x0 = parseFloat(vbox[0]);
	var y0 = parseFloat(vbox[1]);
	var vboxW = parseFloat(vbox[2]);
	var vboxH = parseFloat(vbox[3]);

	// get default width of svg

	var strW = root.getAttribute("width");
	var svgW = parseFloat(strW);
	if(strW.indexOf('mm') != -1)
	svgW *= 3.779;

	var strH = root.getAttribute("height");
	var svgH = parseFloat(strH);
	if(strH.indexOf('mm') != -1)
	svgH *= 3.779;  	// 96 dpi  -> 96/25.4 = 3.779

	// update the viewbox / width / height if svg is embedded in html with zoom fit all
	var realx0 = x0;
	var realy0 = y0;
	var realvboxW = vboxW;
	var realvboxH = vboxH;
	var realsvgW = svgW;
	var realsvgH = svgH;

	if ((typeof(top) == "undefined") || (typeof(top.svgctl1) != "undefined")) // embedded in html
	{
		// get window size in pxl

		svgW = window.innerWidth;
		svgH = window.innerHeight;

		// calculate real viewbox

		realsvgW = svgW;
		realsvgH = svgH;
		if((svgW / svgH) > (vboxW / vboxH))
		{
			realvboxW = (vboxH * svgW) / svgH;
			realvboxH = vboxH;
			realx0 = x0 - (realvboxW - vboxW)/2 ;
		}
		else
		{
			realvboxH = (vboxW * svgH) / svgW;
			realvboxW = vboxW;
			realy0 = y0 - (realvboxH - vboxH)/2 ;
		}
	}

	// get user zoom/pan

	var newScale = root.currentScale;
	var translation = root.currentTranslate;

	// transform pxl to user unit

	var xPos = (((evt.clientX+10- translation.x)/newScale) * realvboxW)/realsvgW  + realx0 ;
	var yPos = (((evt.clientY+5- translation.y)/newScale) * realvboxH)/ realsvgH  + realy0 ;
	var scaleForWidth = ( (1 / newScale) * realvboxH) / realsvgH;

	// move tooltip

	toolTip.setAttribute("transform", "translate(" + xPos + "," + yPos + ")" );

	// resize tooltip

	var fontsize = 12;
	tiptext.setAttribute("font-size",fontsize*scaleForWidth);
	tiptext.setAttribute("y", fontsize*scaleForWidth);
	var tipBG = svgDocument.getElementById('ToolTipBG');
	var outline = tiptext.getBBox();
	if(tipBG)
	{
		tipBG.setAttribute("stroke-width", 1*scaleForWidth);
		tipBG.setAttribute("width", Number(outline.width) );
		tipBG.setAttribute("height", Number(outline.height) + fontsize*.5*scaleForWidth );
	}
	var ToolTipShadow = svgDocument.getElementById('ToolTipShadow');
	if(ToolTipShadow)
	{
		ToolTipShadow.setAttribute("width", Number(outline.width) );
		ToolTipShadow.setAttribute("height", Number(outline.height) + fontsize*.5*scaleForWidth );
		ToolTipShadow.setAttribute("x", 3*scaleForWidth);
		ToolTipShadow.setAttribute("y", 3*scaleForWidth);
	}
}
function ShowPaper()
{
  var svgDocument = getDocument();
  var paper = svgDocument.getElementById("paperID");
  if(paper)
  {
    paper.setAttribute("transform","scale(1)");
    paper.setAttribute("opacity","1");
    paper.setAttribute("visibility","visible");
  }
  var svg = svgDocument.getRootElement();
  if(svg)
  {
    svg.setAttribute("width","307.000mm");
    svg.setAttribute("height","220.000mm");
    svg.setAttribute("viewBox","-5.000000 -5.000000 307.000000 220.000000");
  }
}
]]></script><defs/><g><path style="fill:#000000;fill-opacity:0.098;fill-rule:evenodd" d="M85.50,55.13L85.68,55.39L84.19,56.30L84.18,55.74L84.37,54.99L84.92,54.93zM68.61,64.86L68.79,65.12L67.40,65.96L67.06,66.03L67.43,64.67L68.04,64.67zM121.99,69.86L121.76,69.80L122.03,69.65zM129.53,68.77L124.03,71.89L123.85,72.64L123.24,73.13L122.68,74.04L122.12,74.10L122.13,73.70L122.38,73.51L122.40,73.31L121.57,73.29L101.27,84.94L100.90,85.66L100.36,86.22L99.73,87.26L99.17,87.32L99.19,86.91L99.44,86.72L99.45,86.54L98.88,86.34L81.20,96.43L81.09,97.25L80.64,97.53L79.91,98.64L79.22,98.63L79.23,98.35L79.62,98.11L79.62,97.92L79.06,97.72L58.26,109.66L58.14,110.27L57.53,110.76L57.02,111.72L56.39,111.72L56.40,111.52L56.65,111.33L56.69,110.97L56.05,110.92L53.82,112.22L53.48,112.29L53.54,111.54L129.55,67.98zM48.96,76.26L48.97,76.45L47.47,77.41L47.48,76.85L47.60,76.05L48.40,76.05zM133.78,76.47L133.11,76.41L133.30,76.21L133.78,76.24zM99.05,83.08L98.81,83.02L99.08,82.87zM32.08,85.99L32.08,86.19L30.91,86.90L30.33,86.89L30.77,85.64L30.96,85.60zM110.19,89.44L110.84,89.47L110.83,89.70L110.23,89.63zM109.33,89.70L109.30,89.27L109.50,89.22zM78.08,94.02L78.30,94.02L78.34,94.66L78.11,94.44zM90.38,100.84L90.75,100.62L91.00,100.65L91.00,100.87L90.76,101.06L90.41,101.02zM89.46,100.63L89.69,100.64L89.73,101.08L89.51,101.04zM175.97,101.24L176.17,101.22L176.17,101.62L175.97,101.60zM177.46,101.63L176.99,101.63L176.99,101.39L177.46,101.39zM55.13,107.24L55.36,107.25L55.40,107.68L55.19,107.65zM66.57,113.72L66.76,113.69L66.77,114.30L66.55,114.08zM68.06,114.11L67.59,114.11L67.59,113.87L68.06,113.87zM154.56,114.52L154.12,114.86L154.12,114.47L154.51,114.41zM134.88,126.03L134.21,125.97L134.40,125.78L134.88,125.80zM221.34,126.58L220.67,126.52L220.86,126.33L221.34,126.35zM220.75,130.01L220.53,129.99L200.03,141.84L199.79,142.52L199.30,142.94L198.67,143.98L198.14,144.04L197.81,143.23L197.58,143.21L180.28,153.12L180.03,153.96L179.57,154.24L179.28,154.86L178.84,155.35L178.17,155.35L177.99,154.44L157.19,166.37L157.07,166.99L155.73,168.61L155.36,168.63L155.05,167.67L152.78,168.97L152.41,169.01L152.48,168.26L228.49,124.70L228.47,125.50L222.96,128.61L222.79,129.36L222.16,129.83L221.62,130.76L221.08,130.83zM232.33,133.20L232.08,133.20L232.08,132.96L232.33,132.96zM111.94,139.25L111.27,139.25L111.27,139.03L111.94,139.03zM198.39,139.80L197.72,139.74L197.91,139.54L198.39,139.57zM209.38,146.42L209.14,146.42L209.14,146.17L209.38,146.17zM177.26,151.01L177.01,151.01L177.01,150.76L177.26,150.76zM178.56,151.19L178.09,151.19L178.09,150.95L178.56,150.95zM188.64,157.34L188.48,157.64L188.38,157.20zM189.37,157.41L189.57,157.39L189.57,157.79L189.37,157.77zM274.49,157.72L274.72,157.73L274.75,158.16L274.54,158.13zM275.47,161.42L254.72,173.22L254.55,173.96L253.94,174.46L253.80,174.87L253.37,175.36L252.81,175.42L252.83,175.02L253.08,174.83L253.10,174.64L252.26,174.62L235.03,184.55L234.89,184.96L233.54,186.75L233.04,186.77L232.79,186.53L233.45,186.22L233.45,186.04L232.89,185.83L212.24,197.56L211.58,198.73L210.59,199.96L210.10,199.96L210.05,199.61L210.50,199.44L210.50,199.25L209.84,199.05L207.18,200.59L207.12,199.78L282.94,156.24L283.17,156.26L283.19,156.90L277.61,160.13L277.49,160.75L276.89,161.24L276.74,161.65L276.14,162.37L275.75,162.39L275.77,161.99L276.02,161.80L276.03,161.62zM154.07,163.96L154.30,163.97L154.34,164.40L154.13,164.37zM155.62,164.41L155.15,164.41L155.15,164.16L155.62,164.16zM166.60,170.82L166.36,170.76L166.63,170.61zM251.54,170.93L251.77,170.95L251.81,171.38L251.60,171.35zM233.06,182.58L232.81,182.58L232.81,182.34L233.06,182.34zM210.12,195.80L209.87,195.80L209.87,195.55L210.12,195.55z"/><g id="Actor_.0"><g style="stroke:#000000;stroke-width:0.176"><path d="M275.13,161.56L275.13,161.71L275.35,161.77L275.42,161.80L275.63,161.85L276.13,161.86L276.13,161.46"/><path d="M276.50,161.72L276.32,161.80L276.26,161.81L276.13,161.86L275.97,161.86L275.86,161.87L275.63,161.85L275.35,161.77"/><path d="M275.13,161.71L275.06,161.59"/><path d="M276.26,161.81L276.50,161.72L276.76,161.52"/><path d="M276.50,161.72L276.64,161.61L276.67,161.59"/><path d="M276.87,161.44L276.87,161.44"/></g><g style="stroke:#000000;stroke-width:0.529"><path d="M274.97,161.65L274.97,161.66L275.03,161.82L275.05,161.85L275.20,161.99L275.23,162.01L275.44,162.11L275.69,162.17L275.97,162.18L276.23,162.13L276.46,162.04L276.48,162.02L276.65,161.89L276.67,161.86L276.75,161.70L276.76,161.66L276.76,161.52L276.87,161.44"/><path d="M276.87,161.44L276.87,161.28"/></g></g><g id="Actor_.1"><g style="stroke:#000000;stroke-width:0.176"><path d="M232.42,186.05L232.42,186.21L232.64,186.27L232.71,186.30L232.92,186.35L232.64,186.27"/><path d="M232.42,186.21L232.35,186.09"/><path d="M232.92,186.35L233.42,186.36L233.42,185.96"/><path d="M233.42,186.36L233.79,186.22L234.05,186.02"/><path d="M233.96,186.08L233.93,186.11L233.79,186.21"/><path d="M233.79,186.22L233.60,186.30L233.55,186.31"/><path d="M233.42,186.36L233.26,186.36L233.15,186.37L232.92,186.35"/><path d="M234.15,185.94L234.16,185.94"/><path d="M234.04,186.20L234.04,186.20"/></g><g style="stroke:#000000;stroke-width:0.529"><path d="M234.04,186.20L233.95,186.36L233.93,186.39L233.77,186.52L233.74,186.54L233.52,186.63L233.26,186.67L232.98,186.67L232.72,186.61L232.51,186.51L232.49,186.49L232.34,186.35L232.32,186.32L232.26,186.16L232.26,186.15"/><path d="M234.15,185.94L234.05,186.02L234.04,186.16L234.04,186.20"/><path d="M234.16,185.94L234.16,185.77"/></g></g><g id="Actor_.2"><g style="stroke:#000000;stroke-width:0.176"><path d="M122.65,74.06L122.51,74.14L122.34,74.19L122.14,74.21L121.95,74.18L121.78,74.12"/><path d="M121.00,69.77L121.02,69.99L121.16,70.20L121.41,70.37L121.74,70.48L122.10,70.52"/><path d="M121.82,70.03L121.92,70.05L122.07,69.97L122.07,69.59L121.73,69.77L121.82,70.03"/><path d="M123.34,69.82L123.29,70.04L123.12,70.24L122.85,70.40L122.50,70.50L122.16,70.52"/><path d="M122.51,69.98L122.61,69.93L122.51,69.68L122.51,69.98L122.41,70.03L122.29,70.01L122.25,70.00L122.12,70.00L121.99,70.02L121.92,70.05L122.26,70.11L122.35,70.06L122.37,70.03L122.29,70.01L122.07,69.97"/><path d="M121.92,70.05L121.92,70.05"/><path d="M122.37,70.03L122.40,70.04L122.35,70.06"/><path d="M122.40,70.04L122.41,70.03"/><path d="M122.07,69.59L122.51,69.68"/></g><g style="stroke:#000000;stroke-width:0.529"><path d="M122.76,73.88L122.74,73.96L122.65,74.06L122.58,74.11L122.46,74.18L122.31,74.22L122.15,74.23L121.98,74.21L121.84,74.16L121.78,74.12L121.65,74.04L121.58,73.93L121.58,73.88"/><path d="M121.27,70.34L121.25,70.32"/><path d="M121.14,70.23L121.07,70.13"/><path d="M121.01,69.92L121.02,70.02"/><path d="M123.34,69.88L123.34,69.82L123.26,69.61L123.06,69.42L122.77,69.27L122.41,69.19L122.02,69.19L121.65,69.25L121.34,69.38L121.11,69.56L121.00,69.77L121.00,69.82"/><path d="M123.31,70.02L123.33,69.91"/><path d="M123.19,70.23L123.27,70.13"/></g></g><g id="Actor_.3"><g style="stroke:#000000;stroke-width:0.176"><path d="M60.49,115.75L152.27,168.39L228.51,124.65"/><path d="M68.52,114.64L68.89,114.49L69.16,114.28L69.29,114.02L69.27,113.76L69.11,113.51L68.81,113.31L68.41,113.18L67.96,113.12L67.50,113.16L67.09,113.27L66.77,113.46L66.56,113.69L66.51,113.96L66.60,114.22L66.84,114.44L67.27,114.63"/><path d="M90.21,101.47L89.78,101.28L89.55,101.05L89.45,100.80L89.51,100.53L89.71,100.30L90.04,100.11L90.43,100.00L90.91,99.96L91.36,100.02L91.75,100.15L92.05,100.35L92.22,100.60L92.23,100.86L92.10,101.12L91.84,101.33L91.46,101.48"/><path d="M109.98,90.13L109.55,89.94L109.31,89.72L109.22,89.46L109.28,89.20L109.48,88.96L109.80,88.77L110.22,88.66L110.67,88.62L111.12,88.68L111.52,88.81L111.82,89.02L111.98,89.26L112.00,89.52L111.87,89.78L111.60,89.99L111.23,90.15"/><path d="M111.04,139.74L110.61,139.55L110.37,139.32L110.28,139.06L110.34,138.80L110.54,138.56L110.86,138.38L111.28,138.26L111.73,138.23L112.18,138.28L112.58,138.42L112.88,138.62L113.04,138.87L113.06,139.13L112.93,139.38L112.66,139.60L112.31,139.74"/><path d="M134.17,76.99L134.55,76.83L134.82,76.62L134.95,76.36L134.93,76.10L134.76,75.85L134.46,75.65L134.07,75.52L133.62,75.46L133.16,75.50L132.75,75.61L132.42,75.80L132.22,76.04L132.16,76.30L132.26,76.56L132.49,76.78L132.92,76.97"/><path d="M133.98,126.58L133.55,126.39L133.32,126.16L133.22,125.90L133.28,125.64L133.48,125.40L133.81,125.22L134.22,125.10L134.68,125.07L135.13,125.12L135.52,125.26L135.82,125.46L135.99,125.71L136.01,125.97L135.87,126.22L135.61,126.44L135.25,126.58"/><path d="M152.27,169.21L152.27,168.39"/><path d="M155.02,115.24L155.37,115.10L155.64,114.88L155.77,114.63L155.76,114.37L155.59,114.12L155.29,113.92L154.89,113.78L154.45,113.73L153.99,113.76L153.57,113.88L153.25,114.06L153.05,114.30L152.99,114.56L153.08,114.82L153.32,115.05L153.75,115.24"/><path d="M156.08,164.85L156.43,164.70L156.70,164.49L156.83,164.23L156.81,163.97L156.65,163.72L156.35,163.52L155.95,163.39L155.50,163.33L155.05,163.37L154.63,163.48L154.31,163.67L154.11,163.91L154.05,164.17L154.16,164.44L154.38,164.65L154.81,164.84"/><path d="M176.69,102.08L176.26,101.89L176.03,101.66L175.93,101.40L175.99,101.14L176.19,100.90L176.52,100.72L176.93,100.60L177.39,100.57L177.84,100.62L178.23,100.76L178.53,100.96L178.70,101.21L178.72,101.47L178.59,101.72L178.32,101.94L177.96,102.08"/><path d="M177.75,151.68L177.32,151.49L177.09,151.27L176.99,151.01L177.05,150.75L177.25,150.51L177.58,150.32L177.99,150.21L178.45,150.17L178.90,150.23L179.29,150.36L179.59,150.56L179.76,150.81L179.78,151.07L179.65,151.33L179.38,151.54L179.02,151.69"/><path d="M197.52,140.34L197.09,140.15L196.86,139.93L196.76,139.67L196.82,139.41L197.02,139.17L197.35,138.98L197.76,138.87L198.22,138.84L198.66,138.89L199.06,139.03L199.36,139.23L199.53,139.47L199.55,139.74L199.40,140.00L199.15,140.20L198.79,140.35"/><path d="M220.46,127.18L220.03,126.99L219.80,126.77L219.71,126.51L219.76,126.25L219.96,126.01L220.29,125.82L220.70,125.71L221.16,125.68L221.61,125.73L222.00,125.86L222.30,126.07L222.47,126.31L222.49,126.58L222.36,126.83L222.09,127.04L221.73,127.19"/></g><g style="stroke:#000000;stroke-width:0.529"><path d="M166.52,89.10L228.51,124.65L228.51,125.47L152.27,169.21L60.49,116.56L60.49,115.75L136.74,72.01L165.55,88.54"/><path d="M67.27,114.63L67.62,114.71L68.08,114.72L68.52,114.64"/><path d="M90.21,101.47L90.56,101.55L91.02,101.56L91.46,101.48"/><path d="M109.98,90.13L110.33,90.21L110.79,90.22L111.25,90.14"/><path d="M111.04,139.74L111.39,139.81L111.85,139.82L112.31,139.74"/><path d="M134.17,76.99L133.73,77.06L133.27,77.05L132.92,76.97"/><path d="M133.98,126.58L134.33,126.65L134.79,126.66L135.23,126.59"/><path d="M153.75,115.24L154.10,115.32L154.56,115.33L155.02,115.24"/><path d="M154.81,164.84L155.15,164.92L155.62,164.93L156.08,164.85"/><path d="M176.69,102.08L177.04,102.16L177.50,102.17L177.96,102.08"/><path d="M177.75,151.68L178.10,151.76L178.56,151.77L179.02,151.69"/><path d="M197.52,140.34L197.87,140.42L198.31,140.43L198.79,140.35"/><path d="M220.46,127.18L220.82,127.26L221.27,127.27L221.72,127.20"/></g></g><g id="Actor_.4"><g style="stroke:#000000;stroke-width:0.176"><path d="M121.45,73.39L121.45,73.56L121.67,73.62L121.74,73.65L121.96,73.70L122.46,73.70L122.59,73.65L122.64,73.63L122.82,73.55L122.59,73.65"/><path d="M121.67,73.62L121.96,73.70"/><path d="M121.45,73.56L121.37,73.44"/><path d="M122.82,73.55L122.95,73.44L122.99,73.42L122.82,73.55"/><path d="M121.96,73.70L122.19,73.71L122.30,73.70L122.46,73.70L122.46,73.30"/><path d="M122.99,73.42L123.06,73.36"/><path d="M122.65,73.62L122.65,73.62"/><path d="M122.95,73.44L122.95,73.44"/></g><g style="stroke:#000000;stroke-width:0.529"><path d="M121.27,73.49L121.28,73.51L121.34,73.68L121.36,73.71L121.52,73.85L121.54,73.86L121.76,73.96L122.02,74.01L122.29,74.02L122.55,73.97L122.77,73.87L122.80,73.86L122.96,73.72L122.98,73.69L123.05,73.53L123.06,73.49L123.06,73.36L123.18,73.27L123.18,73.12"/></g></g><g id="Actor_.5"><g style="stroke:#000000;stroke-width:0.176"><path d="M132.39,76.40L132.46,76.62L132.65,76.81L132.94,76.96L133.29,77.04L133.68,77.06L134.05,77.00L134.09,76.98L134.37,76.87L134.60,76.70L134.72,76.49"/><path d="M133.33,76.16L133.33,76.53L133.29,76.58L133.10,76.38L133.33,76.16L133.80,76.16L133.80,76.54L133.83,76.57L134.02,76.39L133.80,76.16"/><path d="M133.33,76.53L133.56,76.53L133.45,76.54L133.33,76.57L133.30,76.59L133.32,76.62L133.79,76.62L133.82,76.59L133.71,76.55L133.59,76.53L133.56,76.53L133.80,76.54"/><path d="M133.29,76.58L133.30,76.59"/><path d="M133.83,76.57L133.82,76.59"/></g><g style="stroke:#000000;stroke-width:0.529"><path d="M132.56,76.78L132.47,76.69"/><path d="M132.43,76.58L132.39,76.47"/><path d="M132.39,76.46L132.39,76.40L132.44,76.18L132.62,75.98L132.90,75.83L132.99,75.81L133.25,75.74L133.64,75.72L134.01,75.77L134.34,75.88L134.58,76.06L134.71,76.27L134.72,76.49L134.72,76.54"/><path d="M134.46,76.87L134.49,76.84"/><path d="M134.60,76.75L134.67,76.64"/></g></g><g id="Actor_.6"><g style="stroke:#000000;stroke-width:0.176"><path d="M252.19,174.72L252.19,174.87L252.12,174.76"/><path d="M253.56,174.88L253.37,174.96L253.32,174.97L253.19,175.02L253.03,175.02L252.92,175.03L252.69,175.01L252.47,174.96L252.41,174.93L252.69,175.01L253.19,175.02L253.19,174.62"/><path d="M252.41,174.93L252.19,174.87"/><path d="M253.82,174.68L253.56,174.88L253.32,174.97"/><path d="M253.56,174.88L253.70,174.77L253.73,174.75"/></g><g style="stroke:#000000;stroke-width:0.529"><path d="M252.03,174.81L252.03,174.82L252.09,174.98L252.11,175.01L252.26,175.15L252.28,175.17L252.49,175.27L252.75,175.33L253.02,175.34L253.29,175.29L253.51,175.20L253.54,175.19L253.70,175.05L253.72,175.02L253.80,174.86L253.81,174.82L253.82,174.68L253.92,174.60L253.92,174.44"/></g></g><g id="Actor_.7"><g style="stroke:#000000;stroke-width:0.176"><path d="M283.28,156.07L207.03,199.80L159.38,172.46"/><path d="M167.42,171.36L167.78,171.21L168.05,170.99L168.18,170.74L168.16,170.48L167.99,170.23L167.69,170.03L167.30,169.90L166.85,169.84L166.39,169.87L165.98,169.99L165.65,170.18L165.45,170.41L165.39,170.68L165.49,170.93L165.72,171.16L166.08,171.33L166.15,171.35"/><path d="M189.10,158.19L189.02,158.17L188.67,158.00L188.44,157.78L188.34,157.52L188.40,157.25L188.60,157.02L188.92,156.83L189.34,156.71L189.79,156.68L190.24,156.74L190.64,156.87L190.94,157.07L191.10,157.32L191.12,157.58L190.99,157.83L190.72,158.05L190.37,158.20"/><path d="M207.03,199.80L207.03,200.62"/><path d="M210.13,146.86L210.49,146.71L210.76,146.50L210.89,146.24L210.87,145.98L210.70,145.73L210.41,145.53L210.01,145.40L209.56,145.34L209.10,145.38L208.69,145.49L208.37,145.68L208.16,145.92L208.11,146.18L208.20,146.44L208.44,146.67L208.79,146.83L208.86,146.85"/><path d="M210.84,196.26L211.20,196.11L211.46,195.90L211.60,195.65L211.58,195.38L211.41,195.14L211.11,194.93L210.72,194.80L210.27,194.75L209.81,194.78L209.40,194.89L209.07,195.08L208.87,195.32L208.81,195.58L208.91,195.84L209.14,196.06L209.49,196.23L209.57,196.25"/><path d="M231.81,133.69L231.73,133.67L231.38,133.50L231.15,133.28L231.05,133.02L231.11,132.75L231.31,132.52L231.63,132.33L232.05,132.22L232.50,132.18L232.96,132.24L233.35,132.37L233.65,132.57L233.81,132.82L233.83,133.09L233.70,133.34L233.44,133.55L233.08,133.70"/><path d="M233.78,183.10L234.14,182.95L234.41,182.74L234.54,182.49L234.52,182.22L234.35,181.98L234.06,181.77L233.66,181.64L233.21,181.59L232.75,181.62L232.34,181.73L232.02,181.92L231.81,182.16L231.76,182.42L231.85,182.68L232.09,182.90L232.44,183.07L232.51,183.09"/><path d="M253.55,171.76L253.91,171.61L254.18,171.40L254.31,171.15L254.29,170.88L254.12,170.64L253.82,170.44L253.43,170.30L252.98,170.25L252.52,170.28L252.11,170.40L251.78,170.58L251.58,170.82L251.52,171.08L251.62,171.34L251.85,171.57L252.20,171.74L252.28,171.75"/><path d="M275.23,158.59L275.15,158.58L274.80,158.41L274.56,158.18L274.47,157.92L274.53,157.66L274.73,157.42L275.05,157.23L275.47,157.12L275.92,157.09L276.37,157.14L276.77,157.28L277.06,157.48L277.23,157.72L277.25,157.99L277.12,158.24L276.85,158.45L276.50,158.60"/></g><g style="stroke:#000000;stroke-width:0.529"><path d="M247.70,135.66L235.62,128.73L159.38,172.46L159.38,173.28L207.03,200.62L283.28,156.88L283.28,156.07L248.59,136.17"/><path d="M167.42,171.36L166.96,171.44L166.50,171.43L166.15,171.35"/><path d="M189.11,158.19L189.45,158.27L189.91,158.28L190.37,158.20"/><path d="M208.88,146.85L209.22,146.93L209.68,146.94L210.13,146.86"/><path d="M209.58,196.25L209.92,196.33L210.38,196.34L210.84,196.26"/><path d="M232.53,183.09L232.87,183.17L233.33,183.18L233.78,183.10"/><path d="M231.81,133.69L232.16,133.77L232.62,133.78L233.08,133.70"/><path d="M252.28,171.75L252.63,171.83L253.09,171.84L253.55,171.76"/><path d="M275.23,158.59L275.58,158.67L276.04,158.68L276.50,158.60"/></g></g><g id="Actor_.8"><g style="stroke:#000000;stroke-width:0.176"><path d="M231.29,133.01L231.29,133.23L231.43,133.44L231.67,133.61L231.99,133.73L232.33,133.77"/><path d="M232.42,133.77L232.75,133.76L233.10,133.66L233.38,133.51L233.56,133.31L233.62,133.10"/><path d="M232.68,133.30L232.69,133.29L232.58,133.27L232.54,133.26L232.41,133.25L232.28,133.27L232.21,133.30L232.53,133.37L232.68,133.30L232.66,133.29L232.58,133.27L232.36,133.22L232.36,132.85L232.01,133.02L232.09,133.28L232.20,133.30L232.36,133.22"/><path d="M232.69,133.29L232.80,133.24L232.80,132.93L232.36,132.85"/><path d="M232.66,133.29L232.65,133.31"/><path d="M232.21,133.30L232.20,133.30"/><path d="M232.80,132.93L232.88,133.20L232.80,133.24"/></g><g style="stroke:#000000;stroke-width:0.529"><path d="M231.40,133.45L231.33,133.35"/><path d="M231.54,133.58L231.49,133.55"/><path d="M231.29,133.24L231.29,133.13"/><path d="M231.29,133.06L231.29,133.01L231.41,132.80L231.64,132.62L231.96,132.50L232.33,132.44L232.72,132.45L233.07,132.54L233.36,132.69L233.55,132.88L233.62,133.10L233.62,133.14"/><path d="M233.43,133.52L233.52,133.42"/><path d="M233.58,133.31L233.61,133.20"/></g></g><g id="Actor_.9"><g style="stroke:#000000;stroke-width:0.176"><path d="M209.72,199.07L209.99,199.12L210.57,199.10L211.10,198.98L211.54,198.77"/><path d="M211.39,198.12L211.34,198.15L211.32,198.16"/></g><g style="stroke:#000000;stroke-width:0.529"><path d="M211.95,197.80L211.95,198.16L211.84,198.49L211.54,198.77L211.50,198.79L211.08,199.00L210.56,199.12L210.00,199.13L209.71,199.08"/></g></g><g id="Actor_.10"><g style="stroke:#000000;stroke-width:0.176"><path d="M277.20,161.11L276.76,161.32L276.22,161.44L275.65,161.46L275.38,161.41"/><path d="M277.04,160.46L276.99,160.49L276.97,160.50"/></g><g style="stroke:#000000;stroke-width:0.529"><path d="M275.37,161.42L275.65,161.47L276.21,161.46L276.73,161.34L277.16,161.13L277.20,161.11"/><path d="M277.20,161.11L277.49,160.83L277.61,160.51L277.61,160.14"/></g></g><g id="Actor_.11"><g style="stroke:#000000;stroke-width:0.176"><path d="M155.00,168.04L154.78,167.94L154.95,168.03L155.00,168.04L155.12,168.10L155.12,167.70"/><path d="M154.65,167.84L154.78,167.94L154.78,167.94"/><path d="M155.12,168.10L155.63,168.11L155.93,168.03L155.85,168.06L155.63,168.11L155.40,168.12L155.27,168.10"/><path d="M154.74,168.21L154.74,168.21"/><path d="M156.14,167.63L156.14,167.98L156.30,167.76L156.34,167.67"/><path d="M155.93,168.03L156.14,167.98"/><path d="M156.32,167.99L156.32,167.99"/></g><g style="stroke:#000000;stroke-width:0.529"><path d="M156.40,167.55L156.34,167.67L156.34,167.78L156.32,167.95L156.32,167.99L156.30,168.02L156.19,168.18L156.01,168.30L155.99,168.31L155.75,168.39L155.48,168.43L155.21,168.41L154.96,168.34L154.76,168.23L154.74,168.21"/><path d="M154.74,168.21L154.61,168.06L154.59,168.03L154.56,167.89"/></g></g><g id="Actor_.12"><g style="stroke:#000000;stroke-width:0.176"><path d="M220.62,130.00L220.89,130.05L221.46,130.03L222.00,129.91L222.43,129.70"/><path d="M222.21,129.09L222.23,129.08L222.28,129.05"/></g><g style="stroke:#000000;stroke-width:0.529"><path d="M222.84,128.73L222.85,129.09L222.73,129.42L222.43,129.70L222.40,129.72L221.97,129.93L221.45,130.05L220.89,130.06L220.60,130.01"/></g></g><g id="Actor_.13"><g style="stroke:#000000;stroke-width:0.176"><path d="M232.67,185.91L232.94,185.96L233.51,185.94L234.05,185.82L234.49,185.61"/><path d="M234.26,185.00L234.28,184.99L234.33,184.96"/><path d="M234.90,185.00L234.90,185.00"/></g><g style="stroke:#000000;stroke-width:0.529"><path d="M232.65,185.92L232.94,185.97L233.50,185.96L234.02,185.84L234.45,185.63L234.49,185.61L234.78,185.33L234.90,185.00"/><path d="M234.89,184.63L234.90,185.00"/></g></g><g id="Actor_.14"><g style="stroke:#000000;stroke-width:0.176"><path d="M197.67,143.16L197.94,143.21L198.52,143.19L199.05,143.07L199.49,142.86"/><path d="M199.26,142.25L199.29,142.24L199.34,142.21"/></g><g style="stroke:#000000;stroke-width:0.529"><path d="M197.66,143.17L197.95,143.22L198.51,143.21L199.03,143.09L199.45,142.88L199.49,142.86L199.78,142.58L199.90,142.25L199.90,141.89"/></g></g><g id="Actor_.15"><g style="stroke:#000000;stroke-width:0.176"><path d="M209.47,199.21L209.47,199.37L209.41,199.25"/><path d="M209.98,199.51L209.76,199.46L209.69,199.43L209.98,199.51L210.48,199.52L210.48,199.12"/><path d="M210.48,199.52L210.84,199.38L211.10,199.18"/><path d="M210.48,199.52L210.32,199.52L210.21,199.53L209.98,199.51"/><path d="M209.69,199.43L209.47,199.37"/><path d="M210.85,199.37L210.99,199.27L211.02,199.24"/><path d="M210.60,199.47L210.66,199.46L210.84,199.38"/></g><g style="stroke:#000000;stroke-width:0.529"><path d="M211.21,198.93L211.21,199.10L211.10,199.18L211.10,199.32L211.09,199.36L211.01,199.52L210.99,199.55L210.82,199.68L210.80,199.70L210.58,199.79L210.31,199.83L210.04,199.83L209.78,199.77L209.57,199.67L209.54,199.65L209.40,199.51L209.38,199.48L209.32,199.32L209.32,199.31"/></g></g><g id="Actor_.16"><g style="stroke:#000000;stroke-width:0.176"><path d="M252.44,174.57L252.70,174.62L253.28,174.60L253.81,174.48L254.25,174.27"/><path d="M254.03,173.66L254.05,173.65L254.10,173.62"/></g><g style="stroke:#000000;stroke-width:0.529"><path d="M252.42,174.58L252.71,174.63L253.27,174.62L253.79,174.50L254.22,174.29L254.25,174.27L254.55,173.99L254.67,173.67L254.66,173.30"/></g></g><g id="Actor_.17"><g style="stroke:#000000;stroke-width:0.176"><path d="M57.84,110.61L57.40,110.83L56.87,110.95L56.29,110.96L56.03,110.91"/><path d="M57.62,110.00L57.64,109.99L57.69,109.96"/></g><g style="stroke:#000000;stroke-width:0.529"><path d="M58.25,109.64L58.26,110.01L58.14,110.33L57.84,110.61L57.81,110.63L57.38,110.84L56.86,110.96L56.30,110.97L56.01,110.92"/></g></g><g id="Actor_.18"><g style="stroke:#000000;stroke-width:0.176"><path d="M156.78,167.36L156.34,167.57L155.80,167.69L155.23,167.71L154.96,167.66"/><path d="M156.62,166.71L156.57,166.74L156.55,166.75"/></g><g style="stroke:#000000;stroke-width:0.529"><path d="M154.95,167.67L155.24,167.72L155.79,167.71L156.31,167.59L156.74,167.38L156.78,167.36L157.07,167.08L157.19,166.75L157.19,166.38"/></g></g><g id="Actor_.19"><g style="stroke:#000000;stroke-width:0.176"><path d="M220.31,130.18L220.43,130.29L220.61,130.37L220.65,130.38L220.43,130.29"/><path d="M220.43,130.29L220.43,130.29"/><path d="M220.93,130.44L221.05,130.46L221.29,130.45L221.51,130.40L221.58,130.37L221.29,130.45L220.78,130.44L220.78,130.04"/><path d="M221.58,130.37L221.79,130.32L221.79,129.97"/><path d="M220.78,130.44L220.65,130.38"/><path d="M222.00,130.01L221.96,130.10L221.79,130.32"/><path d="M221.85,130.52L221.85,130.52"/><path d="M221.98,130.29L221.98,130.29"/><path d="M221.97,130.33L221.97,130.33"/></g><g style="stroke:#000000;stroke-width:0.529"><path d="M221.85,130.52L221.66,130.64L221.64,130.65L221.41,130.74L221.14,130.77L220.86,130.75L220.62,130.68L220.42,130.57L220.39,130.55L220.27,130.40L220.25,130.37L220.22,130.23"/><path d="M221.85,130.52L221.95,130.36L221.97,130.33"/><path d="M221.97,130.33L221.98,130.29L221.99,130.13L222.00,130.01L222.05,129.89"/></g></g><g id="Actor_.20"><g style="stroke:#000000;stroke-width:0.176"><path d="M55.80,111.05L55.80,111.22L55.71,111.09"/><path d="M56.30,111.35L56.08,111.31L56.01,111.28L56.30,111.35L56.53,111.37L56.64,111.36L56.80,111.36L56.80,110.96"/><path d="M56.30,111.35L56.80,111.36L56.93,111.31L56.98,111.29L57.16,111.21L56.93,111.31"/><path d="M56.01,111.28L55.80,111.22"/><path d="M57.16,111.21L57.30,111.10L57.33,111.07L57.16,111.21L57.16,111.21"/><path d="M57.30,111.10L57.30,111.10"/><path d="M57.33,111.07L57.41,111.02"/></g><g style="stroke:#000000;stroke-width:0.529"><path d="M57.52,110.77L57.52,110.93L57.41,111.02L57.40,111.15L57.40,111.19L57.32,111.35L57.30,111.38L57.14,111.52L57.12,111.53L56.90,111.63L56.63,111.67L56.52,111.67L56.36,111.67L56.10,111.62L55.89,111.52L55.86,111.51L55.71,111.37L55.69,111.34L55.62,111.17L55.62,111.15"/></g></g><g id="Actor_.21"><g style="stroke:#000000;stroke-width:0.176"><path d="M111.77,89.65L111.66,89.86L111.42,90.03L111.11,90.16L110.73,90.22L110.35,90.20L109.99,90.12L109.70,89.97L109.51,89.78L109.44,89.56"/><path d="M110.39,89.32L110.39,89.69L110.34,89.74L110.15,89.55L110.39,89.32L110.85,89.32L110.85,89.70L110.62,89.69L110.51,89.70L110.39,89.73L110.36,89.75L110.38,89.78L110.84,89.78L110.87,89.75L110.77,89.71L110.64,89.69L110.62,89.69L110.39,89.69"/><path d="M110.34,89.74L110.36,89.75"/><path d="M110.85,89.32L111.08,89.55L110.89,89.73L110.85,89.70"/><path d="M110.87,89.75L110.89,89.73"/></g><g style="stroke:#000000;stroke-width:0.529"><path d="M109.61,89.94L109.52,89.85"/><path d="M109.44,89.62L109.44,89.56L109.50,89.34L109.68,89.14L109.96,88.99L110.31,88.90L110.69,88.88L111.07,88.93L111.39,89.05L111.64,89.22L111.77,89.43L111.77,89.65L111.77,89.71"/><path d="M109.48,89.73L109.45,89.63"/><path d="M111.55,90.00L111.51,90.03"/><path d="M111.66,89.91L111.73,89.80"/></g></g><g id="Actor_.22"><g style="stroke:#000000;stroke-width:0.176"><path d="M98.51,86.55L98.51,86.72L98.72,86.78L98.80,86.81L99.01,86.86L98.72,86.78"/><path d="M98.51,86.72L98.42,86.60"/><path d="M99.52,86.46L99.52,86.86L99.01,86.86"/><path d="M99.74,86.77L99.64,86.81L99.69,86.79L99.87,86.71L99.74,86.77"/><path d="M99.64,86.81L99.52,86.86L99.35,86.86L99.24,86.87L99.01,86.86"/><path d="M99.87,86.71L100.04,86.58L99.93,86.67"/><path d="M100.01,86.60L100.01,86.60"/><path d="M100.04,86.58L100.12,86.52"/></g><g style="stroke:#000000;stroke-width:0.529"><path d="M98.33,86.65L98.33,86.67L98.40,86.84L98.42,86.87L98.57,87.01L98.60,87.02L98.81,87.12L99.07,87.17L99.35,87.18L99.61,87.13L99.83,87.03L99.85,87.02L100.01,86.88L100.03,86.85L100.11,86.69L100.12,86.65L100.12,86.52L100.23,86.43L100.23,86.28"/></g></g><g id="Actor_.23"><g style="stroke:#000000;stroke-width:0.176"><path d="M123.50,72.95L123.06,73.17L122.52,73.29L121.95,73.30L121.68,73.25"/><path d="M123.35,72.30L123.30,72.33L123.27,72.34"/></g><g style="stroke:#000000;stroke-width:0.529"><path d="M121.67,73.26L121.96,73.31L122.51,73.30L123.04,73.18L123.46,72.98L123.50,72.95L123.79,72.67L123.91,72.35L123.91,71.98"/></g></g><g id="Actor_.24"><g style="stroke:#000000;stroke-width:0.176"><path d="M178.07,154.54L178.07,154.94L178.57,154.94L178.87,154.87L178.80,154.90L178.57,154.94L178.34,154.95L178.22,154.94"/><path d="M177.79,154.82L177.72,154.78L177.90,154.87L177.94,154.88L177.79,154.82"/><path d="M177.72,154.78L177.59,154.68"/><path d="M178.07,154.94L177.94,154.88"/><path d="M177.68,155.05L177.68,155.05"/><path d="M179.29,154.51L179.24,154.60L179.08,154.82L179.08,154.47"/><path d="M178.87,154.87L179.08,154.82"/><path d="M179.14,155.02L179.14,155.01"/><path d="M179.27,154.79L179.27,154.79"/><path d="M179.26,154.83L179.26,154.83"/></g><g style="stroke:#000000;stroke-width:0.529"><path d="M179.14,155.02L178.95,155.14L178.93,155.15L178.69,155.23L178.42,155.27L178.15,155.25L177.90,155.18L177.71,155.07L177.68,155.05"/><path d="M177.68,155.05L177.56,154.90L177.54,154.87L177.50,154.73"/><path d="M179.14,155.01L179.24,154.86L179.26,154.83"/><path d="M179.26,154.83L179.27,154.79"/><path d="M179.27,154.79L179.28,154.62L179.29,154.51L179.34,154.39"/></g></g><g id="Actor_.25"><g style="stroke:#000000;stroke-width:0.176"><path d="M274.71,157.91L274.71,158.13L274.84,158.34L275.09,158.51L275.41,158.63L275.75,158.68"/><path d="M276.34,162.23L276.20,162.30L276.02,162.35L275.83,162.36L275.63,162.34L275.47,162.28"/><path d="M275.83,158.68L276.17,158.66L276.52,158.57L276.80,158.41L276.98,158.22L277.04,158.00"/><path d="M276.22,157.84L275.78,157.75L275.78,158.13L276.11,158.19L276.22,158.14L276.22,157.84L276.30,158.10L276.22,158.14"/><path d="M275.78,157.75L275.43,157.92L275.51,158.18L275.62,158.20L275.78,158.13"/><path d="M275.62,158.20L275.62,158.20L275.70,158.18L275.83,158.16L275.96,158.16L276.00,158.17L276.08,158.19L276.09,158.20L276.07,158.21L276.08,158.19"/><path d="M276.07,158.21L275.95,158.27L275.62,158.20"/><path d="M276.11,158.19L276.09,158.20"/></g><g style="stroke:#000000;stroke-width:0.529"><path d="M274.81,158.36L274.75,158.25"/><path d="M274.71,158.15L274.71,158.04"/><path d="M277.04,158.05L277.04,158.00L276.97,157.78L276.78,157.59L276.49,157.44L276.13,157.36L275.75,157.34L275.38,157.40L275.06,157.52L274.82,157.70L274.71,157.91L274.71,157.96"/><path d="M275.27,162.03L275.28,162.08L275.34,162.19L275.47,162.28L275.53,162.31L275.67,162.37L275.83,162.39L276.00,162.38L276.15,162.34L276.27,162.27L276.34,162.23L276.43,162.13L276.46,162.04"/><path d="M274.96,158.48L274.91,158.45"/><path d="M276.94,158.32L276.85,158.42"/><path d="M277.00,158.22L277.02,158.11"/></g></g><g id="Actor_.26"><g style="stroke:#000000;stroke-width:0.176"><path d="M80.79,97.45L80.35,97.67L79.81,97.79L79.24,97.80L78.97,97.75"/><path d="M80.63,96.80L80.58,96.83L80.56,96.84"/></g><g style="stroke:#000000;stroke-width:0.529"><path d="M81.20,96.48L81.20,96.85L81.08,97.17L80.79,97.45L80.75,97.47L80.32,97.68L79.80,97.80L79.24,97.81L78.96,97.76"/></g></g><g id="Actor_.27"><g style="stroke:#000000;stroke-width:0.176"><path d="M179.72,154.20L179.28,154.41L178.75,154.53L178.17,154.55L177.91,154.50"/><path d="M179.57,153.55L179.52,153.58L179.50,153.59"/></g><g style="stroke:#000000;stroke-width:0.529"><path d="M180.13,153.22L180.14,153.59L180.02,153.92L179.72,154.20L179.68,154.22L179.26,154.43L178.74,154.54L178.18,154.56L177.89,154.51"/></g></g><g id="Actor_.28"><g style="stroke:#000000;stroke-width:0.176"><path d="M135.78,126.09L135.66,126.30L135.43,126.48L135.23,126.56L135.11,126.60L134.74,126.66L134.35,126.65L134.00,126.56L133.71,126.41L133.52,126.22L133.45,126.00"/><path d="M134.35,126.18L134.39,126.14L134.39,125.76L134.85,125.76L134.85,126.14L134.89,126.18"/><path d="M134.39,125.76L134.16,125.99L134.38,126.22L134.85,126.22L134.94,126.13L135.08,125.99L134.85,125.76"/><path d="M134.85,126.14L134.62,126.14L134.51,126.15L134.39,126.18L134.36,126.20"/><path d="M134.88,126.19L134.77,126.16L134.64,126.14L134.62,126.14L134.39,126.14"/></g><g style="stroke:#000000;stroke-width:0.529"><path d="M135.78,126.15L135.78,126.09L135.77,125.87L135.64,125.66L135.40,125.49L135.07,125.37L134.70,125.32L134.31,125.34L133.96,125.44L133.68,125.59L133.50,125.78L133.45,126.00L133.45,126.06"/><path d="M133.48,126.18L133.45,126.07"/><path d="M133.62,126.39L133.52,126.29"/><path d="M135.66,126.36L135.72,126.25"/><path d="M135.52,126.47L135.54,126.46"/></g></g><g id="Actor_.29"><g style="stroke:#000000;stroke-width:0.176"><path d="M78.66,97.93L78.74,98.06L78.74,97.89"/><path d="M79.88,98.14L80.11,98.05L79.93,98.13L79.88,98.14L79.75,98.20L79.59,98.20L79.47,98.21L79.24,98.19L79.75,98.20L79.75,97.80"/><path d="M79.24,98.19L78.96,98.12L79.03,98.15L79.24,98.19"/><path d="M78.74,98.06L78.96,98.12"/><path d="M80.11,98.05L80.24,97.94L80.28,97.91L80.11,98.05"/><path d="M80.24,97.94L80.24,97.94"/><path d="M80.28,97.91L80.35,97.86"/></g><g style="stroke:#000000;stroke-width:0.529"><path d="M80.46,97.61L80.46,97.77L80.35,97.86L80.35,97.99L80.34,98.03L80.26,98.19L80.25,98.22L80.08,98.36L80.06,98.37L79.84,98.47L79.58,98.51L79.30,98.51L79.04,98.46L78.83,98.36L78.81,98.34L78.65,98.21L78.63,98.18L78.57,98.01L78.56,97.99"/></g></g><g id="Actor_.30"><g style="stroke:#000000;stroke-width:0.176"><path d="M89.68,100.90L89.75,101.12L89.94,101.31L90.22,101.46L90.58,101.54L90.87,101.55L90.97,101.55L91.34,101.50L91.66,101.37L91.89,101.20L92.01,100.98"/><path d="M90.61,101.11L91.08,101.12L91.11,101.09L91.00,101.05L90.87,101.03L90.85,101.03L90.74,101.04L90.62,101.07L90.59,101.09L90.61,101.11"/><path d="M90.62,100.65L90.62,101.03L90.57,101.08L90.39,100.88L90.62,100.65L91.08,100.66L91.08,101.03L90.62,101.03"/><path d="M90.57,101.08L90.59,101.09"/><path d="M91.08,100.66L91.31,100.89L91.12,101.07L91.08,101.03"/><path d="M91.12,101.07L91.11,101.09"/></g><g style="stroke:#000000;stroke-width:0.529"><path d="M89.85,101.28L89.75,101.18"/><path d="M89.72,101.08L89.68,100.97"/><path d="M92.01,101.04L92.01,100.98L92.00,100.76L91.87,100.56L91.63,100.38L91.30,100.27L90.92,100.21L90.54,100.24L90.19,100.33L89.91,100.48L89.73,100.68L89.68,100.90L89.68,100.96"/><path d="M91.74,101.37L91.78,101.34"/><path d="M91.89,101.25L91.95,101.14"/></g></g><g id="Actor_.31"><g style="stroke:#000000;stroke-width:0.176"><path d="M188.58,157.51L188.58,157.73L188.71,157.93L188.96,158.11L189.28,158.23L189.62,158.27"/><path d="M189.65,157.34L190.09,157.43L190.09,157.73L189.82,157.87L189.38,157.78L189.30,157.52L189.65,157.34L189.65,157.72L189.49,157.80"/><path d="M189.65,157.72L189.87,157.76L189.83,157.76L189.70,157.75L189.57,157.77L189.49,157.80"/><path d="M189.70,158.27L190.04,158.25L190.39,158.16L190.67,158.01L190.85,157.81L190.91,157.59"/><path d="M189.98,157.79L189.87,157.76L189.95,157.79L189.94,157.81"/><path d="M189.95,157.79L189.96,157.79"/><path d="M190.09,157.43L190.17,157.69L190.09,157.73"/></g><g style="stroke:#000000;stroke-width:0.529"><path d="M188.69,157.95L188.62,157.85"/><path d="M188.82,158.08L188.78,158.05"/><path d="M188.58,157.55L188.58,157.51L188.70,157.29L188.93,157.12L189.25,156.99L189.62,156.94L190.00,156.95L190.36,157.04L190.65,157.18L190.84,157.38L190.91,157.59L190.91,157.64"/><path d="M188.58,157.74L188.58,157.63"/><path d="M190.89,157.70L190.87,157.81"/><path d="M190.72,158.01L190.81,157.92"/></g></g><g id="Actor_.32"><g style="stroke:#000000;stroke-width:0.176"><path d="M100.56,86.11L100.12,86.33L99.58,86.45L99.01,86.46L98.74,86.41"/><path d="M100.40,85.46L100.35,85.49L100.33,85.50"/></g><g style="stroke:#000000;stroke-width:0.529"><path d="M100.96,85.14L100.97,85.51L100.85,85.83L100.56,86.11L100.52,86.14L100.09,86.34L99.57,86.46L99.01,86.47L98.72,86.42"/></g></g><g id="Actor_.33"><g style="stroke:#000000;stroke-width:0.176"><path d="M197.83,143.20L197.83,143.60L198.34,143.61L198.11,143.62L197.98,143.60"/><path d="M197.71,143.54L197.49,143.45L197.66,143.53L197.71,143.54L197.83,143.60"/><path d="M198.34,143.61L198.64,143.53L198.56,143.56L198.34,143.61"/><path d="M197.49,143.45L197.36,143.34"/><path d="M198.85,143.13L198.85,143.48L198.64,143.53"/><path d="M198.85,143.48L199.01,143.26L199.05,143.17"/><path d="M198.90,143.68L198.90,143.68"/><path d="M199.04,143.45L199.04,143.45"/><path d="M199.03,143.49L199.03,143.49"/></g><g style="stroke:#000000;stroke-width:0.529"><path d="M198.90,143.68L198.72,143.80L198.70,143.82L198.46,143.90L198.19,143.93L197.92,143.91L197.67,143.84L197.48,143.73L197.45,143.71L197.32,143.56L197.30,143.53L197.27,143.39"/><path d="M198.90,143.68L199.01,143.52L199.03,143.49"/><path d="M199.03,143.49L199.04,143.45"/><path d="M199.11,143.05L199.05,143.17L199.05,143.29L199.04,143.45"/></g></g><g id="Actor_.34"><g style="stroke:#000000;stroke-width:0.176"><path d="M165.63,170.67L165.64,170.89L165.77,171.10L166.01,171.27L166.34,171.39L166.68,171.43"/><path d="M167.96,170.75L167.91,170.97L167.73,171.17L167.45,171.32L167.10,171.41L166.76,171.43"/><path d="M166.71,170.50L166.35,170.68L166.44,170.94L166.87,171.03L167.14,170.90L167.14,170.59L166.71,170.50L166.71,170.88L167.04,170.95"/><path d="M166.99,170.97L167.00,170.95L166.92,170.93L166.88,170.92L166.75,170.91L166.62,170.93L166.55,170.96"/><path d="M167.14,170.59L167.23,170.85L167.14,170.90"/><path d="M166.55,170.96L166.71,170.88"/><path d="M167.00,170.95L167.02,170.96"/></g><g style="stroke:#000000;stroke-width:0.529"><path d="M165.68,171.01L165.74,171.11"/><path d="M165.88,171.24L165.84,171.21"/><path d="M165.64,170.90L165.63,170.79"/><path d="M165.63,170.71L165.63,170.67L165.75,170.46L165.98,170.28L166.30,170.15L166.67,170.10L167.06,170.11L167.42,170.20L167.70,170.34L167.89,170.54L167.96,170.75L167.96,170.80"/><path d="M167.78,171.18L167.87,171.08"/><path d="M167.92,170.97L167.95,170.86"/></g></g><g id="Actor_.35"><g style="stroke:#000000;stroke-width:0.176"><path d="M179.55,151.20L179.43,151.41L179.20,151.58L178.88,151.71L178.51,151.77L178.12,151.75L177.77,151.67L177.48,151.52L177.29,151.33L177.22,151.11"/><path d="M177.92,155.32L178.07,155.40L178.25,155.44L178.45,155.45L178.64,155.42L178.80,155.36"/><path d="M178.15,151.33L178.13,151.30L178.16,151.28L178.28,151.25L178.39,151.24L178.63,151.25L178.66,151.28L178.85,151.10L178.63,150.87L178.16,150.87L178.16,151.24L178.42,151.24L178.54,151.26L178.65,151.30L178.62,151.33L178.15,151.33"/><path d="M178.16,151.24L178.12,151.29L177.93,151.10L178.16,150.87"/><path d="M178.13,151.30L178.12,151.29"/><path d="M178.63,151.25L178.63,150.87"/><path d="M178.66,151.28L178.65,151.30"/></g><g style="stroke:#000000;stroke-width:0.529"><path d="M177.26,151.29L177.22,151.18"/><path d="M177.29,151.40L177.39,151.49"/><path d="M179.55,151.26L179.55,151.20L179.54,150.98L179.41,150.77L179.17,150.60L178.84,150.48L178.47,150.43L178.08,150.45L177.73,150.54L177.45,150.69L177.27,150.89L177.22,151.11L177.22,151.17"/><path d="M177.79,155.11L177.83,155.23L177.92,155.32L178.00,155.37L178.12,155.43L178.27,155.47L178.44,155.47L178.60,155.45L178.74,155.40L178.80,155.36L178.92,155.27L178.98,155.16L178.98,155.12"/><path d="M179.29,151.58L179.30,151.57"/><path d="M179.44,151.46L179.49,151.36"/></g></g><g id="Actor_.36"><g style="stroke:#000000;stroke-width:0.176"><path d="M110.50,139.16L110.57,139.38L110.76,139.57L111.05,139.72L111.41,139.81L111.79,139.82L112.16,139.76L112.38,139.68L112.48,139.64L112.71,139.46L112.83,139.25"/><path d="M111.42,139.36L111.45,139.34L111.57,139.31L111.68,139.30L111.91,139.30L111.91,138.92L111.45,138.92L111.45,139.30L111.40,139.34"/><path d="M111.45,139.30L111.68,139.30L111.70,139.30L111.83,139.32L111.93,139.35"/><path d="M111.91,138.92L112.14,139.15L111.90,139.38L111.44,139.38L111.21,139.15L111.45,138.92"/><path d="M111.91,139.30L111.95,139.34"/></g><g style="stroke:#000000;stroke-width:0.529"><path d="M112.83,139.31L112.83,139.25L112.83,139.03L112.70,138.82L112.45,138.65L112.13,138.53L111.75,138.48L111.37,138.50L111.02,138.60L110.74,138.75L110.56,138.95L110.50,139.16L110.50,139.22"/><path d="M110.54,139.34L110.51,139.24"/><path d="M110.68,139.55L110.58,139.45"/><path d="M112.72,139.52L112.79,139.40"/><path d="M112.57,139.63L112.60,139.61"/></g></g><g id="Actor_.37"><g style="stroke:#000000;stroke-width:0.176"><path d="M199.32,139.86L199.20,140.07L198.97,140.25L198.65,140.37L198.27,140.43L197.89,140.41L197.53,140.33L197.25,140.18L197.06,139.99L196.99,139.77"/><path d="M197.69,143.99L197.84,144.06L198.02,144.10L198.22,144.11L198.41,144.08L198.57,144.02"/><path d="M197.93,139.53L197.93,139.90L198.16,139.91L198.05,139.91L197.93,139.95L197.90,139.96L197.92,139.99L198.38,139.99L198.42,139.96L198.31,139.92L198.18,139.91L198.16,139.91L198.39,139.91L198.43,139.95L198.62,139.76L198.39,139.53L197.93,139.53L197.69,139.76L197.88,139.95L197.93,139.90"/><path d="M197.88,139.95L197.90,139.96"/><path d="M198.39,139.91L198.39,139.53"/><path d="M198.43,139.95L198.42,139.96"/></g><g style="stroke:#000000;stroke-width:0.529"><path d="M197.15,140.15L197.06,140.06"/><path d="M196.99,139.83L196.99,139.77L197.04,139.55L197.22,139.36L197.50,139.20L197.85,139.11L198.23,139.09L198.61,139.14L198.94,139.26L199.18,139.43L199.31,139.64L199.32,139.86L199.32,139.92"/><path d="M197.02,139.94L196.99,139.84"/><path d="M197.56,143.77L197.59,143.89L197.69,143.99L197.77,144.03L197.89,144.09L198.04,144.13L198.21,144.14L198.37,144.11L198.50,144.06L198.57,144.02L198.69,143.93L198.75,143.82L198.75,143.78"/><path d="M199.05,140.24L199.07,140.23"/><path d="M199.20,140.12L199.27,140.00"/></g></g><g id="Actor_.38"><g style="stroke:#000000;stroke-width:0.176"><path d="M82.35,53.95L81.38,53.42L80.45,52.98L79.65,52.67L79.06,52.51"/><path d="M82.84,54.23L84.26,55.04L84.26,55.45L84.23,55.67L84.15,55.89L84.02,56.11L83.93,56.21"/><path d="M84.26,55.04L84.62,54.83"/></g><g style="stroke:#000000;stroke-width:0.529"><path d="M74.77,50.76L76.45,49.79"/><path d="M85.81,55.23L85.81,55.37L84.09,56.36"/></g></g><g id="Actor_.39"><g style="stroke:#000000;stroke-width:0.176"><path d="M65.41,63.67L64.44,63.14L63.51,62.70L62.71,62.38L62.12,62.23"/><path d="M66.99,65.93L67.08,65.83L67.20,65.61L67.28,65.38L67.31,65.17L67.31,64.76L65.90,63.94"/><path d="M67.31,64.76L67.68,64.55"/></g><g style="stroke:#000000;stroke-width:0.529"><path d="M59.51,59.51L57.83,60.48"/><path d="M67.14,66.08L68.86,65.09L68.86,64.95"/></g></g><g id="Actor_.40"><g style="stroke:#000000;stroke-width:0.176"><path d="M28.70,84.72L27.73,84.20L26.80,83.76L26.00,83.44L25.41,83.28"/><path d="M29.18,85.00L30.60,85.81L30.60,86.22L30.57,86.44L30.49,86.67L30.37,86.89L30.28,86.99"/><path d="M30.60,85.81L30.96,85.60"/></g><g style="stroke:#000000;stroke-width:0.529"><path d="M22.80,80.57L21.11,81.54"/><path d="M32.15,86.01L32.15,86.15L30.43,87.14"/></g></g><g id="Actor_.41"><g style="stroke:#000000;stroke-width:0.176"><path d="M153.21,114.67L153.28,114.88L153.47,115.08L153.76,115.22L154.12,115.31L154.50,115.32L154.88,115.26L155.20,115.14L155.43,114.96L155.55,114.75"/><path d="M154.16,114.42L154.62,114.43L154.85,114.66L154.61,114.88L154.15,114.88L153.92,114.65L154.16,114.42L154.16,114.80L154.11,114.84"/><path d="M154.66,114.84L154.62,114.80L154.39,114.80L154.28,114.81L154.16,114.84L154.13,114.86"/><path d="M154.62,114.80L154.62,114.43"/><path d="M154.16,114.80L154.39,114.80L154.41,114.80L154.54,114.82L154.64,114.86"/></g><g style="stroke:#000000;stroke-width:0.529"><path d="M155.55,114.81L155.55,114.75L155.54,114.53L155.41,114.32L155.16,114.15L155.15,114.15L154.84,114.03L154.46,113.98L154.08,114.00L153.73,114.10L153.45,114.25L153.27,114.45L153.21,114.67L153.21,114.72"/><path d="M153.25,114.83L153.22,114.74"/><path d="M153.38,115.04L153.29,114.95"/><path d="M155.43,115.02L155.49,114.91"/><path d="M155.28,115.13L155.31,115.11"/></g></g><g id="Actor_.42"><g style="stroke:#000000;stroke-width:0.176"><path d="M176.16,101.51L176.23,101.72L176.42,101.92L176.71,102.06L177.06,102.15L177.45,102.16L177.82,102.10L178.14,101.98L178.37,101.80L178.49,101.59"/><path d="M177.10,101.26L177.10,101.64L177.06,101.68L176.87,101.49L177.10,101.26L177.57,101.26L177.57,101.64L177.60,101.68L177.79,101.50L177.57,101.26"/><path d="M177.10,101.64L177.33,101.64L177.23,101.65L177.11,101.68L177.07,101.70L177.10,101.72L177.56,101.72L177.59,101.69L177.49,101.66L177.36,101.64L177.33,101.64L177.57,101.64"/><path d="M177.06,101.68L177.07,101.70"/><path d="M177.60,101.68L177.59,101.69"/></g><g style="stroke:#000000;stroke-width:0.529"><path d="M178.49,101.65L178.49,101.59L178.48,101.37L178.35,101.16L178.11,100.99L177.78,100.87L177.41,100.82L177.02,100.84L176.67,100.94L176.39,101.09L176.22,101.29L176.16,101.51L176.16,101.56"/><path d="M176.19,101.67L176.16,101.58"/><path d="M176.33,101.89L176.24,101.79"/><path d="M178.23,101.97L178.25,101.96"/><path d="M178.44,101.73L178.38,101.86"/></g></g><g id="Actor_.43"><g style="stroke:#000000;stroke-width:0.176"><path d="M98.06,82.93L98.07,83.15L98.22,83.36L98.46,83.53L98.80,83.64L99.16,83.68"/><path d="M99.71,87.22L99.57,87.30L99.39,87.35L99.20,87.37L99.00,87.34L98.83,87.29"/><path d="M99.21,83.68L99.56,83.66L99.90,83.56L100.18,83.40L100.35,83.20L100.39,82.98"/><path d="M98.98,83.21L99.32,83.27L99.41,83.22L99.43,83.19L99.35,83.17L99.13,83.13L99.13,82.75L99.57,82.84L99.57,83.14L99.47,83.19L99.35,83.17L99.30,83.16L99.17,83.16L99.05,83.18L98.98,83.21L98.97,83.21L99.13,83.13"/><path d="M99.13,82.75L98.78,82.93L98.88,83.19L98.97,83.21"/><path d="M99.57,82.84L99.66,83.10L99.57,83.14"/><path d="M99.43,83.19L99.45,83.20L99.41,83.22"/><path d="M99.47,83.19L99.45,83.20"/></g><g style="stroke:#000000;stroke-width:0.529"><path d="M98.13,83.29L98.20,83.39"/><path d="M98.33,83.50L98.31,83.48"/><path d="M98.07,83.19L98.06,83.07"/><path d="M100.39,83.04L100.39,82.98L100.31,82.77L100.12,82.58L99.82,82.44L99.46,82.35L99.08,82.35L98.71,82.41L98.39,82.54L98.17,82.72L98.06,82.93L98.06,82.98"/><path d="M99.81,87.04L99.80,87.12L99.71,87.22L99.63,87.27L99.51,87.34L99.37,87.38L99.20,87.39L99.04,87.37L98.90,87.32L98.83,87.29L98.71,87.20L98.64,87.09L98.63,87.04"/><path d="M100.32,83.29L100.24,83.39"/><path d="M100.36,83.18L100.39,83.07"/></g></g><g id="Actor_.44"><g style="stroke:#000000;stroke-width:0.176"><path d="M155.86,168.52L155.70,168.58L155.51,168.61L155.31,168.60L155.13,168.56L154.98,168.48"/><path d="M154.27,164.27L154.34,164.49L154.53,164.68L154.82,164.83L155.18,164.91L155.56,164.93L155.93,164.87L156.25,164.74L156.49,164.57L156.60,164.36"/><path d="M155.13,164.40L155.21,164.49L155.67,164.49L155.72,164.44L155.68,164.41L155.68,164.03L155.22,164.03L154.98,164.26L155.13,164.40"/><path d="M155.70,164.46L155.60,164.42L155.47,164.40L155.45,164.40L155.34,164.41L155.22,164.44L155.19,164.46"/><path d="M155.72,164.44L155.91,164.26L155.68,164.03"/><path d="M155.17,164.45L155.22,164.40L155.22,164.03"/><path d="M155.22,164.40L155.68,164.41"/></g><g style="stroke:#000000;stroke-width:0.529"><path d="M156.04,168.28L156.04,168.32L155.98,168.43L155.86,168.52L155.79,168.56L155.66,168.61L155.50,168.63L155.33,168.63L155.18,168.59L155.05,168.53L154.98,168.48L154.88,168.39L154.85,168.27"/><path d="M154.45,164.66L154.35,164.56"/><path d="M154.28,164.34L154.31,164.45"/><path d="M156.60,164.42L156.60,164.36L156.60,164.14L156.47,163.93L156.22,163.76L155.90,163.64L155.52,163.59L155.14,163.61L154.79,163.70L154.51,163.85L154.33,164.05L154.27,164.27L154.27,164.33"/><path d="M156.34,164.74L156.36,164.73"/><path d="M156.49,164.62L156.55,164.51"/></g></g><g id="Actor_.45"><g style="stroke:#000000;stroke-width:0.176"><path d="M209.05,195.57L209.06,195.79L209.19,196.00L209.43,196.17L209.76,196.29L210.10,196.34"/><path d="M209.81,199.94L209.98,200.00L210.17,200.02L210.36,200.01L210.54,199.96L210.69,199.89"/><path d="M211.38,195.66L211.32,195.88L211.15,196.07L210.87,196.23L210.51,196.32L210.18,196.34"/><path d="M210.56,195.80L210.64,195.76L210.56,195.50L210.56,195.80L210.45,195.85L210.34,195.83L210.42,195.85L210.41,195.87L210.29,195.93L209.97,195.86L210.04,195.84L210.17,195.82L210.30,195.82L210.34,195.83L210.12,195.78L210.12,195.41L209.77,195.58L209.86,195.84L209.96,195.86L210.12,195.78"/><path d="M210.45,195.85L210.44,195.86L210.42,195.85"/><path d="M210.41,195.87L210.44,195.86"/><path d="M209.96,195.86L209.97,195.86"/><path d="M210.12,195.41L210.56,195.50"/></g><g style="stroke:#000000;stroke-width:0.529"><path d="M209.30,196.14L209.26,196.11"/><path d="M211.38,195.71L211.38,195.66L211.31,195.44L211.12,195.25L210.83,195.10L210.48,195.01L210.09,195.00L209.72,195.06L209.40,195.18L209.17,195.36L209.05,195.57L209.05,195.62"/><path d="M209.16,196.02L209.09,195.91"/><path d="M209.05,195.80L209.05,195.70"/><path d="M209.62,199.69L209.62,199.74L209.69,199.85L209.81,199.94L209.87,199.97L210.01,200.02L210.18,200.05L210.34,200.04L210.48,200.00L210.49,200.00L210.61,199.93L210.69,199.89L210.78,199.79L210.80,199.70"/><path d="M211.20,196.08L211.29,195.98"/><path d="M211.34,195.88L211.37,195.77"/></g></g><g id="Actor_.46"><g style="stroke:#000000;stroke-width:0.176"><path d="M252.52,175.44L252.69,175.50L252.88,175.52L253.08,175.51L253.26,175.47L253.40,175.39"/><path d="M251.76,171.07L251.77,171.29L251.90,171.50L252.14,171.67L252.47,171.79L252.81,171.84"/><path d="M252.84,171.29L252.84,170.91L252.48,171.08L252.57,171.34L252.68,171.36L252.84,171.29L253.17,171.35L253.27,171.30L253.27,171.00L253.36,171.26L253.27,171.30"/><path d="M254.09,171.16L254.04,171.38L253.86,171.57L253.58,171.73L253.23,171.82L252.89,171.84"/><path d="M253.05,171.33L253.01,171.32L252.88,171.32L252.75,171.34L252.68,171.36L253.00,171.43L253.12,171.37L253.13,171.35L253.05,171.33"/><path d="M253.17,171.35L253.15,171.36L253.13,171.35"/><path d="M253.15,171.36L253.12,171.37"/><path d="M252.68,171.36L252.68,171.36"/><path d="M252.84,170.91L253.27,171.00"/></g><g style="stroke:#000000;stroke-width:0.529"><path d="M253.51,175.20L253.49,175.29L253.40,175.39L253.32,175.43L253.20,175.50L253.05,175.54L252.89,175.55L252.73,175.53L252.59,175.47L252.52,175.44L252.40,175.35L252.33,175.24L252.33,175.19"/><path d="M252.01,171.64L251.97,171.61"/><path d="M251.87,171.52L251.81,171.42"/><path d="M251.77,171.31L251.76,171.20"/><path d="M254.09,171.21L254.09,171.16L254.02,170.94L253.83,170.75L253.55,170.60L253.19,170.52L252.80,170.50L252.43,170.56L252.11,170.68L251.88,170.86L251.76,171.07L251.76,171.12"/><path d="M253.91,171.58L254.00,171.48"/><path d="M254.05,171.38L254.08,171.27"/></g></g><g id="Actor_.47"><g style="stroke:#000000;stroke-width:0.176"><path d="M208.34,146.17L208.35,146.39L208.48,146.60L208.72,146.77L209.05,146.89L209.39,146.93"/><path d="M209.42,146.01L209.85,146.09L209.85,146.40L209.59,146.53L209.15,146.44L209.07,146.18L209.42,146.01L209.42,146.38L209.75,146.45"/><path d="M209.42,146.38L209.26,146.46"/><path d="M209.26,146.46L209.34,146.43L209.46,146.41L209.59,146.42L209.64,146.43L209.72,146.45L209.70,146.47"/><path d="M210.67,146.26L210.62,146.47L210.44,146.67L210.16,146.82L209.81,146.92L209.48,146.93"/><path d="M209.85,146.09L209.94,146.36L209.85,146.40"/><path d="M209.72,146.45L209.73,146.46"/></g><g style="stroke:#000000;stroke-width:0.529"><path d="M208.59,146.74L208.55,146.71"/><path d="M208.45,146.61L208.39,146.51"/><path d="M210.67,146.31L210.67,146.26L210.60,146.04L210.42,145.85L210.13,145.70L209.77,145.61L209.39,145.60L209.01,145.66L208.69,145.78L208.46,145.96L208.34,146.17L208.34,146.22"/><path d="M208.35,146.40L208.35,146.29"/><path d="M210.58,146.58L210.49,146.68"/><path d="M210.63,146.47L210.66,146.36"/></g></g><g id="Actor_.48"><g style="stroke:#000000;stroke-width:0.176"><path d="M55.35,107.43L55.36,107.65L55.50,107.86L55.75,108.02L56.08,108.14L56.45,108.18"/><path d="M56.12,111.78L56.29,111.84L56.49,111.86L56.52,111.86L56.68,111.85L56.86,111.80L57.00,111.72"/><path d="M56.50,108.18L56.84,108.16L57.19,108.06L57.46,107.90L57.63,107.70L57.68,107.48"/><path d="M56.26,107.71L56.17,107.69L56.07,107.43L56.42,107.25L56.42,107.63L56.26,107.71L56.27,107.71L56.33,107.68L56.46,107.66L56.59,107.66L56.63,107.67L56.42,107.63"/><path d="M56.42,107.25L56.85,107.33L56.95,107.59L56.85,107.64L56.85,107.33"/><path d="M56.27,107.71L56.60,107.77L56.70,107.72L56.72,107.69L56.63,107.67L56.76,107.69L56.85,107.64"/><path d="M56.76,107.69L56.74,107.70L56.72,107.69"/><path d="M56.70,107.72L56.74,107.70"/></g><g style="stroke:#000000;stroke-width:0.529"><path d="M57.68,107.54L57.68,107.48L57.60,107.27L57.40,107.08L57.11,106.93L56.75,106.85L56.37,106.84L56.00,106.91L55.68,107.04L55.46,107.22L55.35,107.43L55.35,107.48"/><path d="M55.35,107.57L55.36,107.68"/><path d="M55.92,111.54L55.92,111.59L56.00,111.70L56.12,111.78L56.19,111.82L56.33,111.87L56.49,111.89L56.65,111.88L56.80,111.84L56.92,111.77L57.00,111.72L57.08,111.62L57.10,111.54"/><path d="M55.48,107.89L55.42,107.79"/><path d="M55.61,107.99L55.60,107.98"/><path d="M57.61,107.79L57.53,107.89"/><path d="M57.68,107.57L57.65,107.68"/></g></g><g id="Actor_.49"><g style="stroke:#000000;stroke-width:0.176"><path d="M79.39,95.02L79.03,94.98L78.70,94.86L78.45,94.69L78.31,94.49L78.29,94.27"/><path d="M79.94,98.56L79.80,98.64L79.63,98.69L79.43,98.70L79.24,98.68L79.07,98.62"/><path d="M80.63,94.32L80.58,94.54L80.41,94.74L80.14,94.90L79.79,95.00L79.45,95.02"/><path d="M79.36,94.09L79.80,94.17L79.89,94.43L79.70,94.53L79.58,94.51L79.54,94.50L79.40,94.50L79.28,94.52L79.21,94.55L79.55,94.61L79.64,94.56L79.66,94.53L79.58,94.51L79.36,94.47L79.21,94.55L79.11,94.53L79.01,94.27L79.36,94.09L79.36,94.47"/><path d="M79.21,94.55L79.21,94.55"/><path d="M79.66,94.53L79.68,94.54L79.64,94.56"/><path d="M79.68,94.54L79.70,94.53"/><path d="M79.80,94.48L79.80,94.17"/></g><g style="stroke:#000000;stroke-width:0.529"><path d="M78.36,94.63L78.43,94.73"/><path d="M78.56,94.83L78.55,94.82"/><path d="M78.31,94.52L78.30,94.41"/><path d="M80.63,94.38L80.63,94.32L80.55,94.11L80.35,93.92L80.05,93.77L79.70,93.69L79.31,93.68L78.94,93.75L78.63,93.88L78.40,94.06L78.29,94.27L78.29,94.32"/><path d="M78.86,98.38L78.87,98.43L78.94,98.54L79.07,98.62L79.13,98.66L79.27,98.71L79.43,98.73L79.60,98.72L79.75,98.67L79.86,98.61L79.94,98.56L80.03,98.46L80.05,98.38"/><path d="M80.47,94.73L80.56,94.63"/><path d="M80.60,94.52L80.62,94.41"/></g></g><g id="Actor_.50"><g style="stroke:#000000;stroke-width:0.176"><path d="M66.73,114.06L66.80,114.28L66.99,114.47L67.28,114.62L67.64,114.70L68.02,114.72L68.39,114.66L68.71,114.53L68.83,114.44L68.94,114.36L69.06,114.15"/><path d="M67.60,113.89L67.44,114.04L67.63,114.24L67.68,114.19L67.68,113.82L67.60,113.89"/><path d="M67.68,113.82L68.14,113.82L68.14,114.19L67.91,114.19L67.80,114.20L67.68,114.23L67.64,114.25L67.67,114.27L68.13,114.28L68.16,114.25L68.06,114.21L67.93,114.19L67.91,114.19L67.68,114.19"/><path d="M67.63,114.24L67.64,114.25"/><path d="M68.14,113.82L68.37,114.05L68.18,114.23L68.14,114.19"/><path d="M68.18,114.23L68.16,114.25"/></g><g style="stroke:#000000;stroke-width:0.529"><path d="M66.91,114.44L66.81,114.35"/><path d="M69.06,114.20L69.06,114.15L69.06,113.92L68.92,113.72L68.68,113.54L68.36,113.43L67.98,113.38L67.60,113.40L67.25,113.49L66.97,113.64L66.79,113.84L66.73,114.06L66.73,114.12"/><path d="M66.77,114.24L66.73,114.13"/><path d="M68.80,114.53L68.83,114.50"/><path d="M68.95,114.41L69.02,114.28"/></g></g><g id="Actor_.51"><g style="stroke:#000000;stroke-width:0.176"><path d="M231.99,182.41L232.00,182.63L232.13,182.84L232.37,183.01L232.70,183.13L233.04,183.17"/><path d="M233.07,182.25L232.72,182.42L232.80,182.68L232.91,182.70L233.07,182.62L233.07,182.25L233.51,182.34L233.51,182.64L233.40,182.69L233.07,182.62"/><path d="M232.75,186.78L232.92,186.84L233.11,186.86L233.31,186.85L233.49,186.80L233.63,186.73"/><path d="M233.12,183.18L233.46,183.16L233.81,183.07L234.09,182.91L234.27,182.72L234.32,182.50"/><path d="M233.24,182.77L233.35,182.71L233.37,182.69L233.29,182.67L233.24,182.66L233.11,182.66L232.99,182.68L232.91,182.70L233.24,182.77"/><path d="M233.51,182.34L233.59,182.60L233.51,182.64"/><path d="M233.40,182.69L233.38,182.70L233.37,182.69"/><path d="M233.38,182.70L233.35,182.71"/><path d="M232.91,182.70L232.91,182.70"/></g><g style="stroke:#000000;stroke-width:0.529"><path d="M233.75,186.54L233.72,186.63L233.63,186.73L233.55,186.77L233.43,186.84L233.28,186.88L233.12,186.89L232.96,186.86L232.82,186.81L232.75,186.78L232.63,186.69L232.56,186.58L232.56,186.53"/><path d="M232.10,182.86L232.04,182.75"/><path d="M232.24,182.98L232.20,182.95"/><path d="M234.32,182.55L234.32,182.50L234.26,182.28L234.07,182.09L233.78,181.94L233.42,181.85L233.04,181.84L232.66,181.90L232.35,182.02L232.11,182.20L231.99,182.41L231.99,182.46"/><path d="M232.00,182.65L232.00,182.53"/><path d="M234.28,182.72L234.31,182.61"/><path d="M234.23,182.82L234.14,182.92"/></g></g><g id="Actor_.52"><g style="stroke:#000000;stroke-width:0.176"><path d="M219.93,126.61L220.00,126.83L220.19,127.02L220.48,127.17L220.83,127.25L221.22,127.27L221.59,127.21L221.64,127.19L221.91,127.09L222.14,126.91L222.26,126.70"/><path d="M220.64,130.83L220.78,130.90L220.96,130.94L221.16,130.95L221.35,130.92L221.52,130.86"/><path d="M220.87,126.74L221.11,126.75L221.00,126.75L220.88,126.79L220.84,126.80L220.87,126.83L221.33,126.83L221.36,126.80L221.26,126.76L221.13,126.75L221.11,126.75L221.34,126.75L221.37,126.79L221.56,126.60L221.34,126.37L220.87,126.37L220.87,126.74L220.83,126.79L220.64,126.60L220.87,126.37"/><path d="M221.34,126.75L221.34,126.37"/><path d="M220.84,126.80L220.83,126.79"/><path d="M221.37,126.79L221.36,126.80"/></g><g style="stroke:#000000;stroke-width:0.529"><path d="M221.69,130.62L221.69,130.66L221.63,130.77L221.52,130.86L221.45,130.90L221.31,130.95L221.15,130.98L220.99,130.97L220.83,130.93L220.71,130.87L220.64,130.83L220.54,130.73L220.50,130.61"/><path d="M222.26,126.76L222.26,126.70L222.25,126.48L222.12,126.27L221.88,126.10L221.64,126.01L221.55,125.98L221.18,125.93L220.79,125.95L220.44,126.04L220.16,126.20L219.99,126.39L219.93,126.61L219.93,126.67"/><path d="M219.97,126.78L219.93,126.68"/><path d="M220.10,126.99L220.01,126.90"/><path d="M222.00,127.08L222.02,127.07"/><path d="M222.15,126.96L222.21,126.85"/></g></g><g id="Actor_.53"><g style="stroke:#000000;stroke-width:0.176"><path d="M129.58,67.91L53.33,111.64L10.27,86.94"/><path d="M50.50,95.04L51.22,94.63L38.51,87.34L29.01,84.13L22.80,79.75"/><path d="M39.74,70.03L45.96,74.41L55.45,77.63L68.16,84.91L67.45,85.32"/><path d="M53.33,111.64L53.33,112.46"/><path d="M55.88,108.10L55.52,107.96L55.26,107.74L55.12,107.49L55.14,107.22L55.31,106.98L55.61,106.78L56.00,106.64L56.45,106.59L56.91,106.62L57.32,106.74L57.65,106.92L57.85,107.16L57.91,107.42L57.81,107.68L57.58,107.91L57.22,108.08L57.15,108.09"/><path d="M59.51,58.69L65.72,63.07L75.22,66.29L87.93,73.58L87.21,73.99"/><path d="M76.47,48.99L82.67,53.35L92.16,56.57L104.87,63.86L104.16,64.27"/><path d="M80.09,94.93L80.17,94.92L80.52,94.75L80.76,94.52L80.85,94.26L80.79,94.00L80.59,93.76L80.27,93.58L79.85,93.46L79.40,93.43L78.95,93.48L78.55,93.62L78.25,93.82L78.09,94.06L78.07,94.33L78.20,94.58L78.47,94.79L78.82,94.94"/><path d="M99.86,83.60L99.94,83.58L100.29,83.41L100.52,83.18L100.62,82.92L100.56,82.66L100.36,82.42L100.03,82.24L99.62,82.12L99.16,82.09L98.71,82.14L98.32,82.28L98.02,82.48L97.85,82.73L97.83,82.99L97.97,83.24L98.23,83.46L98.59,83.60"/><path d="M121.53,70.44L121.18,70.30L120.91,70.08L120.78,69.83L120.80,69.57L120.97,69.32L121.26,69.12L121.66,68.98L122.11,68.93L122.57,68.96L122.98,69.08L123.30,69.26L123.51,69.50L123.56,69.76L123.47,70.02L123.23,70.25L122.88,70.42L122.80,70.44"/></g><g style="stroke:#000000;stroke-width:0.529"><path d="M115.95,60.09L129.58,67.91L129.58,68.73L53.33,112.46L10.27,87.76L10.27,86.94L20.33,81.17L27.95,84.73L33.57,90.18L46.27,97.47L50.50,95.04L38.51,88.16L29.01,84.94L22.80,80.57L22.80,79.75L37.27,71.45L44.90,75.01L50.51,80.46L63.22,87.75L67.45,85.32L55.45,78.44L45.96,75.22L39.74,70.85L39.74,70.03L57.04,60.11L64.66,63.68L70.28,69.12L82.98,76.41L87.21,73.98L75.22,67.11L65.72,63.89L59.51,59.51L59.51,58.69L73.98,50.39L81.61,53.96L87.22,59.40L99.93,66.69L104.16,64.27L92.16,57.39L82.67,54.17L76.47,49.80L76.45,48.98L86.51,43.21L115.07,59.58"/><path d="M55.88,108.10L56.34,108.18L56.80,108.17L57.15,108.09"/><path d="M80.09,94.93L79.74,95.01L79.28,95.02L78.82,94.94"/><path d="M99.86,83.60L99.51,83.67L99.05,83.69L98.59,83.60"/><path d="M121.54,70.44L121.99,70.52L122.45,70.51L122.80,70.44"/></g></g><g id="Actor_.54"><g style="stroke:#000000;stroke-width:0.176"><path d="M45.64,75.00L44.67,74.48L43.74,74.04L42.94,73.72L42.35,73.56"/><path d="M46.13,75.28L47.54,76.10L47.54,76.50L47.52,76.72L47.44,76.95L47.31,77.17L47.22,77.27"/><path d="M47.54,76.10L47.91,75.89"/></g><g style="stroke:#000000;stroke-width:0.529"><path d="M39.74,70.85L38.06,71.82"/><path d="M49.10,76.29L49.10,76.43L47.37,77.42"/></g></g><g><g><path style="stroke:#000000;stroke-width:0.125" d="M136.26,42.81L110.32,64.09"/></g><g><path style="fill:#000000" d="M111.07,64.09L111.07,64.02L111.06,63.95L111.04,63.88L111.01,63.81L110.98,63.74L110.94,63.68L110.90,63.62L110.85,63.56L110.80,63.51L110.74,63.47L110.67,63.43L110.61,63.40L110.54,63.38L110.47,63.36L110.39,63.35L110.32,63.34L110.25,63.35L110.17,63.36L110.10,63.38L110.03,63.40L109.97,63.43L109.90,63.47L109.85,63.51L109.79,63.56L109.74,63.62L109.70,63.68L109.66,63.74L109.63,63.81L109.60,63.88L109.59,63.95L109.57,64.02L109.57,64.09L109.57,64.17L109.59,64.24L109.60,64.31L109.63,64.38L109.66,64.45L109.70,64.51L109.74,64.57L109.79,64.62L109.85,64.67L109.90,64.72L109.97,64.76L110.03,64.79L110.10,64.81L110.17,64.83L110.25,64.84L110.32,64.84L110.39,64.84L110.47,64.83L110.54,64.81L110.61,64.79L110.67,64.76L110.74,64.72L110.80,64.67L110.85,64.62L110.90,64.57L110.94,64.51L110.98,64.45L111.01,64.38L111.04,64.31L111.06,64.24L111.07,64.17z"/></g><g><text xml:space="preserve" fill="#000000" stroke-width="0" x="132.90" y="42.04" font-size="3.77" opacity="1.00" font-family="Arial">KIT0389</text></g></g><g><g><path style="stroke:#000000;stroke-width:0.125" d="M190.88,75.31L156.44,94.04"/></g><g><path style="fill:#000000" d="M157.19,94.04L157.19,93.96L157.18,93.89L157.16,93.82L157.14,93.75L157.11,93.68L157.07,93.62L157.02,93.56L156.97,93.51L156.92,93.46L156.86,93.41L156.80,93.38L156.73,93.34L156.66,93.32L156.59,93.30L156.52,93.29L156.44,93.29L156.37,93.29L156.30,93.30L156.23,93.32L156.16,93.34L156.09,93.38L156.03,93.41L155.97,93.46L155.91,93.51L155.86,93.56L155.82,93.62L155.78,93.68L155.75,93.75L155.73,93.82L155.71,93.89L155.70,93.96L155.69,94.04L155.70,94.11L155.71,94.18L155.73,94.26L155.75,94.32L155.78,94.39L155.82,94.45L155.86,94.51L155.91,94.57L155.97,94.62L156.03,94.66L156.09,94.70L156.16,94.73L156.23,94.76L156.30,94.77L156.37,94.78L156.44,94.79L156.52,94.78L156.59,94.77L156.66,94.76L156.73,94.73L156.80,94.70L156.86,94.66L156.92,94.62L156.97,94.57L157.02,94.51L157.07,94.45L157.11,94.39L157.14,94.32L157.16,94.26L157.18,94.18L157.19,94.11z"/></g><g><text xml:space="preserve" fill="#000000" stroke-width="0" x="189.43" y="74.53" font-size="3.77" opacity="1.00" font-family="Arial">KIT0390</text></g></g><g><g><path style="stroke:#000000;stroke-width:0.125" d="M252.63,107.61L245.53,152.44"/></g><g><path style="fill:#000000" d="M246.28,152.44L246.27,152.36L246.26,152.29L246.25,152.22L246.22,152.15L246.19,152.08L246.15,152.02L246.11,151.96L246.06,151.90L246.00,151.86L245.95,151.81L245.88,151.77L245.82,151.74L245.75,151.72L245.67,151.70L245.60,151.69L245.53,151.69L245.45,151.69L245.38,151.70L245.31,151.72L245.24,151.74L245.17,151.77L245.11,151.81L245.05,151.86L245.00,151.90L244.95,151.96L244.90,152.02L244.87,152.08L244.84,152.15L244.81,152.22L244.79,152.29L244.78,152.36L244.78,152.44L244.78,152.51L244.79,152.58L244.81,152.65L244.84,152.72L244.87,152.79L244.90,152.85L244.95,152.91L245.00,152.97L245.05,153.01L245.11,153.06L245.17,153.10L245.24,153.13L245.31,153.15L245.38,153.17L245.45,153.18L245.53,153.19L245.60,153.18L245.67,153.17L245.75,153.15L245.82,153.13L245.88,153.10L245.95,153.06L246.00,153.01L246.06,152.97L246.11,152.91L246.15,152.85L246.19,152.79L246.22,152.72L246.25,152.65L246.26,152.58L246.27,152.51z"/></g><g><text xml:space="preserve" fill="#000000" stroke-width="0" x="245.97" y="106.84" font-size="3.77" opacity="1.00" font-family="Arial">KIT0391</text></g></g><g/><g><g/><g><text xml:space="preserve" fill="#000000" stroke-width="0" x="7.25" y="12.02" font-size="4.53" opacity="1.00" font-family="Arial" font-weight="bold">BPA27435</text></g></g><g id="paperID" visibility="hidden" opacity="0.00" transform="scale(0.000100)"><path style="stroke:#000000;stroke-width:0.500;fill:#e6e6e6;fill-rule:evenodd" d="M-2000.00,-2000.00L2297.00,-2000.00L2297.00,2210.00L-2000.00,2210.00zM0.00,0.00L297.00,0.00L297.00,210.00L0.00,210.00z"/><path style="fill:#000000;fill-opacity:0.118" d="M3.00,210.00L297.00,210.00L297.00,3.00L300.00,3.00L300.00,213.00L3.00,213.00z"/></g></g></svg>
