<?xml version="1.0" encoding="UTF-8" standalone="no"?>
<svg xmlns="http://www.w3.org/2000/svg" xmlns:xlink="http://www.w3.org/1999/xlink" width="297.000mm" height="210.000mm" viewBox="0.000000 0.000000 297.000000 210.000000" stroke-linejoin="round" stroke-linecap="round" fill="none" fill-rule="evenodd"><desc>Composer Export</desc><script type="text/ecmascript"><![CDATA[
if(typeof(top) != "undefined")
{
	top.ShowPaper = ShowPaper;
}
function ShowPaper()
{
  var svgDocument = getDocument();
  var paper = svgDocument.getElementById("paperID");
  if(paper)
  {
    paper.setAttribute("transform","scale(1)");
    paper.setAttribute("opacity","1");
    paper.setAttribute("visibility","visible");
  }
  var svg = svgDocument.getRootElement();
  if(svg)
  {
    svg.setAttribute("width","307.000mm");
    svg.setAttribute("height","220.000mm");
    svg.setAttribute("viewBox","-5.000000 -5.000000 307.000000 220.000000");
  }
}
]]></script><defs/><g><path style="fill:#000000;fill-opacity:0.098;fill-rule:evenodd" d="M152.06,21.09L152.54,21.26L153.02,25.76L153.02,32.87L152.54,37.69L152.54,41.66L152.70,42.79L153.36,44.37L154.32,45.66L155.90,46.65L156.88,46.80L158.75,46.80L160.09,46.53L162.45,45.36L164.44,43.97L166.85,42.04L168.22,40.84L169.98,39.23L171.12,37.96L172.25,36.68L174.32,33.93L176.00,36.35L175.83,37.85L174.55,42.83L172.62,48.13L169.20,55.47L168.24,58.53L167.96,60.34L167.96,63.99L168.44,65.76L169.08,66.88L169.74,67.68L169.41,67.70L147.88,55.31L144.35,54.02L140.01,53.38L136.59,53.38L132.89,53.86L128.55,54.98L124.43,56.65L120.58,58.58L116.67,60.93L112.01,64.31L107.35,68.32L104.77,70.88L102.76,73.05L99.47,76.82L95.86,81.56L92.65,86.22L89.59,91.36L86.47,97.39L83.80,103.55L81.82,109.12L80.38,114.11L79.08,119.88L78.33,125.56L77.97,131.43L78.33,137.07L78.81,140.44L79.92,144.96L80.25,145.27L108.87,161.69L107.88,157.96L107.24,153.77L107.08,152.01L106.87,147.67L107.24,141.94L108.00,136.43L109.16,131.01L110.73,125.67L112.71,120.10L115.38,113.94L118.51,107.90L121.95,102.19L124.77,98.11L127.83,94.09L128.71,93.05L131.75,89.51L133.05,88.08L136.11,85.03L138.74,82.68L140.98,80.90L145.10,77.80L149.81,74.96L154.26,72.82L157.63,71.53L161.97,70.41L165.66,69.93L170.37,70.09L172.94,70.57L175.34,71.39L175.85,71.37L171.77,68.95L174.34,68.96L179.04,68.21L182.37,67.20L184.04,66.40L184.03,70.63L182.74,72.87L181.62,74.65L181.61,75.23L182.28,75.69L185.01,78.90L186.75,81.81L188.36,85.51L189.49,89.36L190.29,94.02L190.61,98.36L190.45,105.16L189.81,110.29L188.84,115.11L187.39,120.57L185.63,125.87L183.38,131.50L180.65,137.12L177.92,142.10L174.38,147.72L171.50,151.74L169.36,154.42L166.46,157.79L165.16,159.22L161.70,162.82L158.02,166.05L153.84,169.26L149.58,172.07L144.62,174.66L140.49,176.31L136.12,177.56L132.41,178.03L127.65,178.03L124.10,177.40L122.60,176.88L121.86,178.24L119.76,181.92L116.51,183.82L115.91,183.82L100.66,175.12L100.27,175.27L97.76,178.72L94.07,183.86L91.34,187.08L87.81,190.61L86.63,191.68L84.76,191.68L83.41,191.57L83.58,191.04L85.24,186.91L86.52,181.94L87.33,176.31L87.33,173.85L87.01,172.08L86.84,171.77L80.58,168.21L80.21,168.22L78.32,168.92L75.05,171.11L71.67,173.51L67.25,176.15L61.90,178.68L61.30,178.69L45.74,169.67L44.27,167.73L44.22,167.42L44.42,167.40L59.54,176.12L59.96,176.11L62.75,172.78L65.80,168.44L68.32,164.05L70.62,159.29L71.42,156.71L71.91,153.99L71.91,152.01L71.59,150.08L71.27,149.59L65.17,146.06L60.61,146.39L52.95,146.39L51.77,146.28L51.83,142.26L56.58,139.14L60.11,136.41L62.93,133.92L66.28,130.54L68.05,128.28L69.44,125.99L70.62,123.46L71.42,121.06L71.91,118.01L71.91,116.03L71.59,114.25L71.13,113.76L51.84,102.68L51.04,101.07L49.44,99.30L48.31,98.34L46.54,96.74L44.27,94.48L44.24,94.32L44.42,94.32L59.54,103.04L59.80,103.02L61.59,98.69L62.05,98.51L65.64,97.92L71.06,96.60L76.25,94.72L78.75,93.37L80.84,91.60L82.19,90.22L84.11,87.49L85.40,85.24L86.52,82.35L87.16,79.78L87.33,78.49L87.33,76.03L86.52,71.05L85.39,66.72L83.95,62.38L83.46,61.26L83.47,60.67L86.37,57.12L86.54,57.07L88.29,57.88L98.08,61.74L99.87,62.07L101.58,61.90L103.97,61.08L106.46,59.39L107.57,58.41L109.81,55.84L111.42,53.27L112.86,50.22L113.66,47.81L114.95,42.67L115.76,37.85L116.08,34.16L116.19,30.74L119.57,28.78L119.76,28.80L121.40,31.36L123.97,36.02L124.75,37.64L126.19,41.02L127.18,42.61L128.28,43.59L129.73,44.23L132.26,44.23L134.23,43.64L136.17,42.53L138.04,41.02L140.01,38.98L143.06,34.64L145.80,29.82L147.72,25.81L149.44,20.94zM235.75,125.18L238.96,126.31L241.53,127.91L243.63,129.99L245.57,132.71L246.99,135.78L247.95,139.00L248.60,143.01L248.76,146.71L248.44,152.22L247.63,156.88L246.66,160.57L245.22,165.06L242.65,171.34L240.89,174.71L237.46,180.44L233.60,185.73L231.25,188.52L227.57,192.23L224.02,195.28L224.02,181.14L226.75,178.40L229.32,175.03L231.57,171.50L233.61,167.43L234.94,164.10L236.07,160.41L236.71,157.04L236.87,154.79L236.87,152.17L236.71,150.08L236.06,147.36L229.97,143.81L228.86,141.38L228.04,140.28L227.56,140.12L224.13,140.28L221.39,141.08L218.83,142.37L215.78,144.30L213.05,146.55L211.28,148.31L210.22,149.50L208.21,151.99L205.89,155.45L203.89,159.07L202.33,162.66L201.49,165.19L200.57,168.76L200.09,172.14L200.09,176.74L200.24,178.36L200.88,180.93L201.85,183.01L203.47,185.25L205.72,186.85L208.11,187.67L209.56,187.83L210.96,187.83L212.94,187.66L212.93,201.69L209.85,202.62L206.62,203.09L203.62,203.09L202.01,202.93L199.44,202.29L195.27,200.20L190.30,197.29L187.89,195.36L185.95,192.97L184.34,190.08L183.65,187.98L183.85,187.96L189.17,191.06L189.49,191.05L188.52,187.03L188.20,183.65L188.20,178.72L188.79,173.37L189.96,168.11L191.84,162.29L193.50,158.33L195.52,154.08L198.34,149.19L201.47,144.61L204.36,140.91L206.78,138.19L208.87,136.11L211.33,133.91L215.30,130.81L218.88,128.61L223.01,126.63L226.38,125.50L229.91,124.86L233.50,124.86zM165.55,107.35L166.21,107.82L166.84,110.89L166.98,114.09L166.68,117.68L166.03,120.90L164.75,125.08L163.30,128.45L161.53,131.66L159.28,135.19L157.04,138.08L153.67,141.46L153.50,147.08L144.62,152.17L143.98,152.40L143.87,147.17L141.41,147.51L140.65,147.51L138.56,147.36L136.32,146.55L134.24,145.09L132.62,143.02L131.65,141.09L130.86,137.87L130.70,136.11L130.70,132.62L130.97,130.00L131.49,127.31L132.58,123.74L134.23,119.77L136.18,116.10L138.26,112.88L140.59,109.91L143.50,106.87L146.23,104.63L149.28,102.69L151.69,101.58L153.78,100.92L154.31,100.92z"/><g id="Actor_.0"><g style="stroke:#000000;stroke-width:0.176"><path d="M43.96,167.22L59.77,176.29L60.72,175.24L62.27,173.40L63.75,171.47L65.14,169.47L66.47,167.38L67.72,165.23L69.80,161.16L70.91,158.56L71.63,155.95L71.95,153.46L71.85,151.16L71.32,149.19L70.40,147.63L69.13,146.54L67.55,145.96L65.74,145.93L63.68,146.19L61.88,146.36L60.01,146.48L58.06,146.54L56.05,146.54L53.96,146.49L51.79,146.37L51.77,144.34L51.79,142.28L35.98,133.21"/><path d="M45.73,89.58L61.54,98.65L59.77,103.21L43.96,94.14"/><path d="M51.79,146.37L51.53,146.22"/><path d="M51.79,142.28L53.05,141.53L55.11,140.21L57.02,138.87L59.02,137.35L60.88,135.81L62.67,134.20L64.39,132.52L65.74,131.15L67.55,129.04L69.12,126.66L70.40,124.11L71.32,121.48L71.85,118.91L71.95,116.51L71.63,114.37L70.91,112.59L69.80,111.26L68.41,110.07L64.45,106.82L59.77,103.21"/><path d="M59.77,176.29L60.64,177.58L61.54,178.83"/><path d="M61.54,98.65L64.99,98.09L67.08,97.66L69.10,97.17L71.05,96.63L72.94,96.02L76.18,94.79L78.21,93.76L80.21,92.24L82.10,90.31L83.81,88.06L85.24,85.57L86.34,82.97L87.07,80.36L87.39,77.86L87.28,75.57L86.93,73.25L86.56,71.27L86.09,69.25L85.54,67.20L85.25,66.26L84.90,65.13L84.17,63.02L83.34,60.89L67.53,51.82"/><path d="M67.00,176.28L68.09,175.71L70.14,174.52L72.11,173.27L74.01,171.94L76.18,170.31L78.21,169.02L80.21,168.24L82.10,168.00L83.81,168.30L85.24,169.14L86.34,170.47L87.07,172.25L87.39,174.39L87.28,176.80L86.73,180.77L86.32,182.88L85.82,184.92L85.24,186.88L84.58,188.76L83.82,190.55L83.34,191.57"/><path d="M70.59,48.02L86.40,57.09L83.34,60.89"/><path d="M171.04,68.62L176.81,71.93L173.39,70.68L169.72,70.03L165.81,69.96L161.71,70.49L157.48,71.60L153.15,73.29L148.77,75.54L144.39,78.32L140.06,81.59L135.83,85.34L131.73,89.51L127.83,94.05L124.15,98.93L120.74,104.08L119.54,106.15L117.64,109.45L114.88,114.98L112.49,120.61L110.50,126.28L108.93,131.92L107.80,137.48L107.11,142.89L106.88,148.09L107.11,153.04L107.80,157.66L108.93,161.91L110.50,165.75L112.49,169.14L114.88,172.03L117.64,174.39L119.03,175.22L91.84,159.63L88.74,157.82L85.98,155.45L83.60,152.56L81.60,149.18L80.03,145.34L78.90,141.08L78.21,136.46L77.98,131.54L78.21,126.31L78.90,120.90L80.03,115.35L81.60,109.70L83.60,104.03L85.98,98.41L88.74,92.87L89.07,92.31L91.84,87.51L95.25,82.35L98.93,77.48L102.84,72.93L106.93,68.76L111.16,65.02L115.49,61.74L119.87,58.96L124.25,56.72L128.58,55.03L132.82,53.91L136.91,53.39L140.82,53.45L144.50,54.11L147.90,55.35L171.04,68.62L172.19,69.02L174.00,69.05L176.05,68.78L177.68,68.51L179.19,68.19L180.59,67.82L181.88,67.40L183.04,66.92L184.09,66.39"/><path d="M86.40,57.09L92.67,59.70L95.77,60.90L98.33,61.84L100.03,62.15L101.93,61.90L103.93,61.12L105.95,59.84L107.91,58.11L109.72,56.00L111.29,53.62L112.57,51.06L113.48,48.46L114.27,45.61L114.84,43.20L115.32,40.76L115.69,38.30L115.95,35.81L116.12,33.30L116.18,30.77L100.36,21.70"/><path d="M100.55,175.07L101.93,173.67L103.93,172.15L105.95,171.11L107.91,170.60L109.72,170.63L111.29,171.20L112.57,172.29L113.49,173.86L114.61,176.67L115.11,178.15L115.38,179.06L115.83,180.90L116.04,182.16L116.16,183.36L116.18,184.03"/><path d="M116.18,30.77L117.94,29.73L119.71,28.74L119.52,28.63"/><path d="M119.69,175.60L119.03,175.22L120.19,175.89L119.69,175.60"/><path d="M119.71,28.74L121.49,31.55L122.50,33.27L123.43,34.96L124.28,36.63L125.05,38.26L126.25,41.12L127.18,42.69L128.45,43.78L130.03,44.36L131.83,44.39L133.79,43.87L135.82,42.83L137.82,41.31L139.71,39.39L141.41,37.13L143.11,34.55L144.45,32.34L145.69,30.11L146.81,27.84L147.82,25.56L148.71,23.24L149.49,20.90L151.03,21.02L152.54,21.19"/><path d="M120.19,175.89L120.74,176.21L120.19,175.89"/><path d="M120.74,176.21L122.57,176.87"/><path d="M143.91,147.19L143.91,152.59L153.63,147.02L130.62,133.85L130.56,135.03L130.86,138.20L131.62,141.01L132.82,143.39L134.41,145.28L136.38,146.63L138.65,147.41L141.19,147.60L143.91,147.19L131.34,139.98"/><path d="M130.62,133.85L130.72,131.58L131.34,127.94L132.40,124.20L133.88,120.46L135.74,116.81L137.92,113.34L140.38,110.15L143.06,107.31L145.88,104.89L148.77,102.97L151.66,101.57L154.46,100.76L157.16,100.53L159.62,100.90L161.81,101.85L163.66,103.38L165.14,105.42L166.20,107.95L166.82,110.88L166.98,114.14L166.68,117.66L165.92,121.34L164.73,125.09L163.13,128.81L161.16,132.41L158.89,135.80L156.35,138.90L153.63,141.62L153.63,147.02"/><path d="M131.20,128.76L153.63,141.62"/><path d="M133.68,11.83L149.49,20.90"/><path d="M174.35,33.94L173.21,35.55L171.94,37.12L170.56,38.65L169.07,40.15L167.45,41.61L165.72,43.03L163.56,44.68L161.54,45.96L159.53,46.74L157.64,46.99L155.94,46.68L154.51,45.84L153.40,44.51L152.67,42.73L152.36,40.59L152.46,38.19L152.93,34.16L153.07,31.90L153.12,29.61L153.09,27.42"/><path d="M168.54,57.49L168.11,59.03L167.79,61.54L167.90,63.82L168.42,65.79L169.35,67.35L170.40,68.26"/><path d="M176.81,71.93L179.90,73.74L181.42,75.05"/></g><g style="stroke:#000000;stroke-width:0.529"><path d="M66.26,72.67L66.67,71.69L67.40,69.08L67.72,66.58L67.61,64.29L67.15,60.90L67.00,59.10L66.95,57.38L66.99,55.78L67.12,54.16L67.35,52.67L67.53,51.82L70.59,48.02L72.26,48.42L74.20,49.00L75.78,49.53L78.66,50.56L80.36,50.86L82.26,50.62L84.26,49.84L86.28,48.56L88.24,46.82L90.05,44.72L91.62,42.34L92.90,39.78L93.82,37.16L95.03,33.01L95.80,30.81L96.65,28.68L97.58,26.63L98.59,24.66L99.68,22.77L100.36,21.70L102.13,20.66L103.90,19.67L119.52,28.63L120.04,28.10L121.74,25.85L124.31,22.07L125.82,20.06L127.40,18.13L129.01,16.32L130.78,14.50L132.58,12.80L133.68,11.83L135.21,11.95L136.74,12.12L152.55,21.20L152.73,22.60L152.95,24.96L153.09,27.40L155.08,26.40L157.23,25.42L158.53,24.87L174.35,33.94L175.25,35.19L176.11,36.48L175.83,37.91L175.26,40.31L174.56,42.76L173.80,45.05L172.92,47.39L171.94,49.70L169.94,53.82L168.84,56.42L168.54,57.48L184.09,66.39L184.12,68.43L184.09,70.49L183.51,71.62L182.42,73.50L181.44,75.05L182.66,76.10L185.05,78.99L187.04,82.38L188.61,86.22L189.74,90.47L190.43,95.10L190.66,100.04L190.43,105.24L189.74,110.65L188.61,116.21L187.04,121.85L185.05,127.52L182.66,133.15L179.90,138.68L179.36,139.62L176.80,144.05L173.39,149.20L169.72,154.08L165.81,158.63L161.71,162.79L157.48,166.54L153.15,169.82L148.77,172.59L144.39,174.84L140.06,176.53L135.83,177.64L131.73,178.17L127.83,178.11L124.15,177.45L122.58,176.88L121.97,178.13L120.89,180.11L119.71,182.00L117.94,183.04L116.18,184.03L100.54,175.08L100.03,175.59L98.33,177.85L96.62,180.42L95.28,182.29L93.52,184.56L91.85,186.51L90.11,188.38L88.29,190.17L86.40,191.87L84.86,191.75L83.34,191.57L67.53,182.50L67.24,180.07L67.05,177.65L66.98,176.29L65.98,176.82L63.79,177.86L61.54,178.83L45.73,169.75L44.82,168.51L43.96,167.22L44.48,164.74L45.12,162.27L45.47,161.11L45.87,159.83L46.72,157.41L47.69,155.02L48.76,152.65L50.13,149.88L51.24,147.28L51.53,146.22L35.99,137.31L35.96,135.27L35.98,133.21L37.03,131.26L38.20,129.33L38.80,128.44L39.48,127.44L40.88,125.58L42.40,123.75L44.03,121.96L46.07,119.87L47.88,117.76L49.45,115.38L50.73,112.82L51.65,110.20L52.18,107.63L52.28,105.23L51.96,103.09L51.24,101.31L50.13,99.97L48.14,98.25L46.27,96.55L44.82,95.11L43.96,94.14L45.73,89.58L46.87,88.60L48.13,87.66L49.51,86.77L51.01,85.92L52.62,85.12L54.35,84.36L56.51,83.51L58.54,82.47L60.54,80.96L62.43,79.03L64.14,76.77L65.57,74.29L65.79,73.76"/></g></g><g id="Actor_.1"><g style="stroke:#000000;stroke-width:0.176"><path d="M196.69,201.03L194.25,199.15L192.17,196.74L190.50,193.82L189.25,190.46L188.44,186.69L188.08,182.57L188.19,178.18L188.76,173.57L189.78,168.81L191.23,163.98L193.10,159.16L195.35,154.40L197.95,149.79L200.86,145.40L204.04,141.29L207.44,137.53L211.01,134.17L214.69,131.26L218.42,128.86L219.96,128.08L222.16,126.98L225.83,125.66L229.40,124.94L232.80,124.80L233.76,124.94"/><path d="M212.96,187.65L210.24,187.95L207.73,187.66L205.49,186.79L203.57,185.34L202.75,184.31"/><path d="M217.81,177.90L223.89,181.38L223.89,195.47"/><path d="M223.89,181.38L226.60,178.57L229.11,175.40L231.35,171.95L233.28,168.30L234.83,164.54L235.98,160.77L236.68,157.09L236.94,153.57L236.73,150.31L236.07,147.40L234.97,144.90L233.45,142.87L231.57,141.37L229.35,140.43L228.02,140.25"/><path d="M238.89,126.31L235.98,125.26L234.71,125.08"/></g><g style="stroke:#000000;stroke-width:0.529"><path d="M233.99,123.50L232.82,122.83L229.91,121.78L226.73,121.32L223.33,121.45L219.76,122.18L216.09,123.49L212.35,125.37L208.62,127.78L204.94,130.69L201.37,134.05L197.97,137.81L194.79,141.92L191.88,146.31L189.28,150.92L187.03,155.67L185.16,160.50L183.71,165.33L182.69,170.09L182.12,174.70L182.01,179.09L182.37,183.20L183.17,186.97L184.43,190.34L186.06,193.17L186.10,193.25L188.18,195.67L190.62,197.55L196.69,201.03L199.47,202.36L202.53,203.09L205.83,203.24L209.33,202.78L212.96,201.74L212.96,187.65L206.89,184.16L204.17,184.47L202.75,184.31L202.01,183.37L200.87,180.91L200.16,178.04L199.91,174.81L200.11,171.32L200.78,167.64L201.88,163.88L203.39,160.11L205.28,156.45L207.49,152.97L209.98,149.77L212.67,146.92L215.51,144.50L218.42,142.57L221.33,141.16L224.17,140.33L226.87,140.08L228.02,140.25L228.90,141.41L230.00,143.92L230.66,146.83L230.87,150.09L230.61,153.60L229.90,157.29L228.76,161.06L227.21,164.82L225.28,168.47L223.04,171.92L220.53,175.09L217.81,177.90L217.81,191.99L223.89,195.47L227.52,192.35L231.01,188.79L234.32,184.86L237.38,180.61L240.15,176.11L242.59,171.42L244.67,166.63L246.35,161.79L247.61,156.92L248.41,152.29L248.76,147.77L248.65,143.50L248.09,139.54L247.07,135.95L245.61,132.79L243.75,130.10L241.50,127.93L238.89,126.31L234.87,124.00"/></g></g><g><g><path style="stroke:#000000;stroke-width:0.044;stroke-dasharray:1.9 1.3 0.6 1.3" d="M190.94,147.97L135.97,116.44"/><path style="stroke:#000000;stroke-width:0.044;stroke-dasharray:1.9 1.3 0.6 1.3" d="M215.39,161.99L205.40,156.26"/></g></g><g id="PMI.0"><g><path style="stroke:#000000;stroke-width:0.044" d="M51.47,48.60L69.61,79.28"/></g><g><path style="fill:#000000" d="M70.36,79.28L70.36,79.21L70.35,79.13L70.33,79.06L70.31,78.99L70.27,78.93L70.24,78.86L70.19,78.80L70.14,78.75L70.09,78.70L70.03,78.66L69.97,78.62L69.90,78.59L69.83,78.56L69.76,78.54L69.69,78.53L69.61,78.53L69.54,78.53L69.47,78.54L69.40,78.56L69.33,78.59L69.26,78.62L69.20,78.66L69.14,78.70L69.08,78.75L69.03,78.80L68.99,78.86L68.95,78.93L68.92,78.99L68.90,79.06L68.88,79.13L68.87,79.21L68.86,79.28L68.87,79.35L68.88,79.43L68.90,79.50L68.92,79.57L68.95,79.63L68.99,79.70L69.03,79.76L69.08,79.81L69.14,79.86L69.20,79.90L69.26,79.94L69.33,79.97L69.40,80.00L69.47,80.01L69.54,80.03L69.61,80.03L69.69,80.03L69.76,80.01L69.83,80.00L69.90,79.97L69.97,79.94L70.03,79.90L70.09,79.86L70.14,79.81L70.19,79.76L70.24,79.70L70.27,79.63L70.31,79.57L70.33,79.50L70.35,79.43L70.36,79.35z"/></g><g><text xml:space="preserve" fill="#000000" stroke-width="0" x="41.52" y="46.85" font-size="3.45" opacity="1.00" font-family="Arial">KKR0043</text></g></g><g><g/><g><text xml:space="preserve" fill="#000000" stroke-width="0" x="2.97" y="6.05" font-size="3.93" opacity="1.00" font-family="Arial" font-weight="bold">BPA2836</text></g></g><g id="PMI.1"><g><path style="stroke:#000000;stroke-width:0.044" d="M238.59,97.11L232.88,133.70"/></g><g><path style="fill:#000000" d="M233.63,133.70L233.62,133.63L233.61,133.55L233.59,133.48L233.57,133.41L233.54,133.35L233.50,133.28L233.46,133.22L233.41,133.17L233.35,133.12L233.29,133.08L233.23,133.04L233.16,133.01L233.09,132.98L233.02,132.96L232.95,132.95L232.88,132.95L232.80,132.95L232.73,132.96L232.66,132.98L232.59,133.01L232.52,133.04L232.46,133.08L232.40,133.12L232.35,133.17L232.30,133.22L232.25,133.28L232.21,133.35L232.18,133.41L232.16,133.48L232.14,133.55L232.13,133.63L232.13,133.70L232.13,133.77L232.14,133.85L232.16,133.92L232.18,133.99L232.21,134.05L232.25,134.12L232.30,134.18L232.35,134.23L232.40,134.28L232.46,134.32L232.52,134.36L232.59,134.39L232.66,134.42L232.73,134.44L232.80,134.45L232.88,134.45L232.95,134.45L233.02,134.44L233.09,134.42L233.16,134.39L233.23,134.36L233.29,134.32L233.35,134.28L233.41,134.23L233.46,134.18L233.50,134.12L233.54,134.05L233.57,133.99L233.59,133.92L233.61,133.85L233.62,133.77z"/></g><g><text xml:space="preserve" fill="#000000" stroke-width="0" x="231.06" y="95.36" font-size="3.45" opacity="1.00" font-family="Arial">BPA0250</text></g></g><g/><g id="paperID" visibility="hidden" opacity="0.00" transform="scale(0.000100)"><path style="stroke:#000000;stroke-width:0.500;fill:#e6e6e6;fill-rule:evenodd" d="M-2000.00,-2000.00L2297.00,-2000.00L2297.00,2210.00L-2000.00,2210.00zM0.00,0.00L297.00,0.00L297.00,210.00L0.00,210.00z"/><path style="fill:#000000;fill-opacity:0.118" d="M3.00,210.00L297.00,210.00L297.00,3.00L300.00,3.00L300.00,213.00L3.00,213.00z"/></g></g></svg>
