<?xml version="1.0" encoding="UTF-8" standalone="no"?>
<svg xmlns="http://www.w3.org/2000/svg" xmlns:xlink="http://www.w3.org/1999/xlink" width="297.000mm" height="210.000mm" viewBox="0.000000 0.000000 297.000000 210.000000" stroke-linejoin="round" stroke-linecap="round" fill="none" fill-rule="evenodd"><desc>Composer Export</desc><script type="text/ecmascript"><![CDATA[
if(typeof(top) != "undefined")
{
	top.ShowPaper = ShowPaper;
}
function ShowHotSpot(evt,hotspotid)
{
	var svgDocument = evt.target.ownerDocument;
	var strId = "hotspot."+hotspotid;
	var hotspot = svgDocument.getElementById(strId);
	if(hotspot)
		hotspot.setAttribute("opacity",".5");
}
function HideHotSpot(evt,hotspotid)
{
	var svgDocument = evt.target.ownerDocument;
	var strId = "hotspot."+hotspotid;
	var hotspot = svgDocument.getElementById(strId);
	if(hotspot)
		hotspot.setAttribute("opacity","0");

	var toolTip = svgDocument.getElementById('ToolTip');
	if(toolTip)
		toolTip.setAttribute("visibility","hidden");
}
function ShowToolTip(evt,hotspotid,strTooltip)
{
	if(strTooltip=="")
	return;

	// change text
	var svgDocument = evt.target.ownerDocument;
	var tiptext = svgDocument.getElementById('ToolTipText');
	if( !tiptext )
	return;
	tiptext.firstChild.nodeValue = " " + strTooltip + "  " ;

	// show tooltip before, else some refresh issue

	var toolTip = svgDocument.getElementById('ToolTip');
	if(!toolTip)
	return;

	toolTip.setAttribute("visibility","visible");
	toolTip.setAttribute("opacity",".95");

	// move tooltip
	// get viewbox

	var root = svgDocument.documentElement;
	var vbox = (root.getAttribute("viewBox")).split(' ');
	var x0 = parseFloat(vbox[0]);
	var y0 = parseFloat(vbox[1]);
	var vboxW = parseFloat(vbox[2]);
	var vboxH = parseFloat(vbox[3]);

	// get default width of svg

	var strW = root.getAttribute("width");
	var svgW = parseFloat(strW);
	if(strW.indexOf('mm') != -1)
	svgW *= 3.779;

	var strH = root.getAttribute("height");
	var svgH = parseFloat(strH);
	if(strH.indexOf('mm') != -1)
	svgH *= 3.779;  	// 96 dpi  -> 96/25.4 = 3.779

	// update the viewbox / width / height if svg is embedded in html with zoom fit all
	var realx0 = x0;
	var realy0 = y0;
	var realvboxW = vboxW;
	var realvboxH = vboxH;
	var realsvgW = svgW;
	var realsvgH = svgH;

	if ((typeof(top) == "undefined") || (typeof(top.svgctl1) != "undefined")) // embedded in html
	{
		// get window size in pxl

		svgW = window.innerWidth;
		svgH = window.innerHeight;

		// calculate real viewbox

		realsvgW = svgW;
		realsvgH = svgH;
		if((svgW / svgH) > (vboxW / vboxH))
		{
			realvboxW = (vboxH * svgW) / svgH;
			realvboxH = vboxH;
			realx0 = x0 - (realvboxW - vboxW)/2 ;
		}
		else
		{
			realvboxH = (vboxW * svgH) / svgW;
			realvboxW = vboxW;
			realy0 = y0 - (realvboxH - vboxH)/2 ;
		}
	}

	// get user zoom/pan

	var newScale = root.currentScale;
	var translation = root.currentTranslate;

	// transform pxl to user unit

	var xPos = (((evt.clientX+10- translation.x)/newScale) * realvboxW)/realsvgW  + realx0 ;
	var yPos = (((evt.clientY+5- translation.y)/newScale) * realvboxH)/ realsvgH  + realy0 ;
	var scaleForWidth = ( (1 / newScale) * realvboxH) / realsvgH;

	// move tooltip

	toolTip.setAttribute("transform", "translate(" + xPos + "," + yPos + ")" );

	// resize tooltip

	var fontsize = 12;
	tiptext.setAttribute("font-size",fontsize*scaleForWidth);
	tiptext.setAttribute("y", fontsize*scaleForWidth);
	var tipBG = svgDocument.getElementById('ToolTipBG');
	var outline = tiptext.getBBox();
	if(tipBG)
	{
		tipBG.setAttribute("stroke-width", 1*scaleForWidth);
		tipBG.setAttribute("width", Number(outline.width) );
		tipBG.setAttribute("height", Number(outline.height) + fontsize*.5*scaleForWidth );
	}
	var ToolTipShadow = svgDocument.getElementById('ToolTipShadow');
	if(ToolTipShadow)
	{
		ToolTipShadow.setAttribute("width", Number(outline.width) );
		ToolTipShadow.setAttribute("height", Number(outline.height) + fontsize*.5*scaleForWidth );
		ToolTipShadow.setAttribute("x", 3*scaleForWidth);
		ToolTipShadow.setAttribute("y", 3*scaleForWidth);
	}
}
function ShowPaper()
{
  var svgDocument = getDocument();
  var paper = svgDocument.getElementById("paperID");
  if(paper)
  {
    paper.setAttribute("transform","scale(1)");
    paper.setAttribute("opacity","1");
    paper.setAttribute("visibility","visible");
  }
  var svg = svgDocument.getRootElement();
  if(svg)
  {
    svg.setAttribute("width","307.000mm");
    svg.setAttribute("height","220.000mm");
    svg.setAttribute("viewBox","-5.000000 -5.000000 307.000000 220.000000");
  }
}
]]></script><defs/><g><path style="fill:#000000;fill-opacity:0.098;fill-rule:evenodd" d="M192.65,36.39L192.64,43.41L91.09,101.68L90.48,101.88L90.48,94.50L192.47,36.06zM188.65,48.70L187.98,48.70L187.98,48.47L188.65,48.47zM172.86,71.29L173.47,71.28L173.46,72.11L172.89,72.03L172.88,71.68L173.06,71.48zM174.42,71.95L174.58,73.01L173.83,73.57L173.64,72.77L173.20,72.60L173.19,72.42L173.97,72.23L174.38,71.86zM180.07,75.30L180.04,75.94L179.68,75.88L179.45,75.39L179.46,75.11L179.86,75.10zM181.03,75.95L181.15,76.84L180.89,77.15L180.35,77.22L180.21,76.61L179.78,76.44L179.77,76.25L180.96,75.87zM166.54,25.16L72.09,79.41L72.09,75.38L166.54,21.25zM150.96,83.89L151.55,83.89L151.54,84.71L150.98,84.63zM151.28,85.21L151.27,85.02L152.13,84.73L152.47,84.26L152.40,85.92L151.86,85.98L151.72,85.37zM158.14,87.94L158.14,88.34L157.51,88.34L157.54,87.72zM159.08,88.39L159.24,89.45L159.05,89.64L158.43,89.82L158.29,89.21L157.86,89.04L157.85,88.85L158.60,88.65L159.03,88.29zM129.04,96.49L129.61,96.48L129.43,97.31L129.07,97.25zM130.54,98.39L130.30,98.55L129.93,98.58L129.80,97.98L129.37,97.81L129.36,97.63L130.28,97.21L130.56,96.88zM124.84,98.86L125.43,98.87L125.42,99.69L124.86,99.61zM126.54,100.59L125.93,101.08L124.85,101.10L124.63,100.94L124.64,100.35L126.01,99.71L126.34,99.24zM99.74,99.54L99.10,99.85L99.10,99.49L99.69,99.43zM136.22,100.95L135.58,100.95L135.63,100.58L136.21,100.52zM137.07,101.23L137.27,101.45L137.32,102.06L137.13,102.24L136.51,102.42L136.37,101.81L135.94,101.65L135.94,101.46L137.13,100.90zM132.02,102.91L132.02,103.32L131.39,103.32L131.42,102.69zM133.10,103.61L133.04,104.54L132.31,104.92L131.62,104.93L131.21,104.78L131.21,104.19L132.58,103.53L132.92,103.27zM195.89,45.92L94.00,104.42L94.00,104.07L196.07,45.54L196.15,45.57zM172.76,105.04L172.66,104.56L173.04,104.33L173.46,104.34L173.46,105.17zM164.08,106.19L164.52,104.98L164.83,104.70L165.22,104.69L165.23,106.92L165.45,107.29L165.43,107.69L164.81,108.03L164.52,108.02zM179.24,108.55L179.62,108.17L180.03,108.17L180.04,109.00L179.68,108.95zM185.88,109.90L185.64,109.90L185.64,109.65L185.88,109.65zM102.92,111.47L103.49,111.45L103.31,112.29L102.95,112.23zM104.46,111.95L104.62,113.01L103.82,113.69L102.93,113.70L102.71,113.55L102.72,112.96L104.16,112.19L104.42,111.85zM176.77,111.93L176.02,112.47L175.97,108.75L176.53,108.35L176.74,108.36zM110.10,115.52L110.10,115.92L109.47,115.92L109.50,115.30zM173.46,115.55L173.12,115.78L172.68,115.95L172.72,111.17L173.47,111.11zM111.19,116.85L110.75,117.32L109.28,117.39L109.30,116.79L110.82,115.92L110.99,115.49zM150.84,117.65L150.74,117.16L151.12,116.93L151.54,116.94L151.54,117.77zM140.75,120.63L140.97,121.59L140.23,122.14L139.84,121.36L139.84,119.38L140.34,118.78L140.79,118.62zM157.37,120.86L158.12,120.78L158.12,121.61L157.76,121.56L157.38,121.33zM81.43,124.25L81.43,124.87L80.98,124.68L80.99,124.26L80.81,124.07L81.22,124.05zM149.17,125.18L149.19,129.46L148.26,130.01L148.24,125.41L148.55,124.97zM82.39,124.90L82.52,125.80L81.90,126.29L81.02,126.30L80.79,126.15L80.80,125.56L82.32,124.83zM152.46,125.97L152.23,126.11L151.49,126.35L151.55,122.69L152.04,122.42L152.45,122.42zM87.99,128.54L87.55,128.54L87.60,128.15L87.99,128.10zM89.12,128.39L89.27,129.45L88.83,129.93L87.36,129.99L87.38,129.39L88.82,128.63L89.07,128.29zM128.93,130.25L128.80,129.74L129.00,129.54L129.63,129.55L129.62,130.37zM124.72,132.63L124.62,132.14L125.00,131.91L125.42,131.92L125.42,132.75zM116.95,133.23L117.38,135.13L116.78,135.62L116.48,135.61L116.10,134.32L116.10,133.46L116.42,132.50L117.23,132.13zM135.40,133.99L135.46,133.46L136.20,133.39L136.20,134.21zM131.25,135.84L132.00,135.76L132.00,136.58L131.64,136.53L131.26,136.31zM137.73,137.55L137.59,137.25L138.05,137.06L138.15,140.22L138.59,140.40L138.76,137.12L185.65,110.17L185.88,110.19L185.88,115.01L90.48,169.75L89.75,170.01L89.76,164.60L89.97,164.60L90.12,167.80L90.56,167.98L90.72,164.69L137.82,137.61zM174.01,139.12L173.46,139.32L173.41,132.50L173.81,132.34L174.01,131.93zM128.73,139.51L128.54,139.68L127.92,139.87L127.98,136.20L128.48,135.93L128.71,135.94zM180.59,142.97L179.97,142.97L179.98,136.33L180.61,136.15zM125.42,143.14L124.69,143.52L124.68,138.75L125.43,138.69zM185.52,144.36L185.46,145.46L138.03,172.75L137.85,171.76L137.79,170.85L185.35,143.64zM102.81,145.23L102.68,144.72L102.88,144.52L103.51,144.53L103.50,145.35zM92.71,148.39L92.94,149.18L92.19,149.72L91.80,148.94L91.82,146.80L92.50,146.16L92.73,146.18zM109.28,148.97L109.34,148.43L110.08,148.37L110.08,149.19zM152.04,151.67L151.30,151.74L151.30,145.09L151.90,144.93L152.11,144.72zM100.97,152.74L100.95,157.20L100.22,157.59L100.22,152.82L100.52,152.56L100.78,152.55zM104.25,153.57L104.07,153.75L103.45,153.93L103.51,150.27L104.01,149.99L104.23,150.01zM158.61,155.52L158.06,155.58L158.07,148.93L158.68,148.37zM80.60,157.50L80.98,157.12L81.40,157.13L81.40,157.95L81.04,157.91zM87.36,161.57L87.42,161.04L88.16,160.97L88.16,161.79zM129.99,164.34L129.38,164.34L129.38,157.70L130.01,157.52zM125.92,166.65L125.18,166.72L125.18,160.07L125.78,159.91L125.99,159.70zM136.70,168.11L135.95,168.18L135.96,161.53L136.58,161.21L136.76,160.98zM132.49,170.49L131.94,170.56L131.95,163.91L132.35,163.76L132.55,163.34zM137.48,172.13L137.42,173.04L90.54,199.95L89.94,200.14L89.80,199.53L89.75,198.43L137.31,171.21zM103.87,179.32L103.26,179.32L103.26,172.68L103.89,172.50zM110.58,183.09L109.83,183.15L109.84,176.51L110.46,176.19L110.64,175.95zM81.96,191.92L81.34,191.92L81.35,185.28L81.98,185.10zM88.66,195.69L87.92,195.76L87.92,189.12L88.72,188.74zM164.16,24.06L163.90,24.36L163.36,24.43L163.42,23.68L163.72,23.42L164.15,23.43zM75.21,75.02L74.95,75.32L74.40,75.38L74.45,74.82L74.76,74.37L75.19,74.39z"/><g id="Actor_3.0"><g style="stroke:#000000;stroke-width:0.176"><path d="M109.30,182.84L109.30,182.99"/><path d="M109.30,176.07L109.37,176.19L109.50,176.29L109.67,176.37L109.89,176.40L110.11,176.40L110.31,176.35L110.48,176.27L110.59,176.16L110.64,176.04"/><path d="M109.61,175.69L109.49,175.77L109.42,175.86L109.41,175.97L109.47,176.07L109.57,176.16L109.72,176.22L109.90,176.25L110.08,176.24L110.25,176.21L110.39,176.14L110.49,176.05L110.53,175.94L110.50,175.84L110.42,175.74"/><path d="M110.64,182.85L110.64,183.00"/></g><g style="stroke:#000000;stroke-width:0.529"><path d="M109.30,182.84L109.30,176.07L109.31,175.94L109.39,175.82L109.54,175.73L109.61,175.69L109.76,175.63L109.94,175.61L110.13,175.62L110.29,175.67L110.42,175.74L110.51,175.80L110.61,175.91L110.64,176.04L110.64,182.85"/></g></g><g id="Actor_6.0"><g style="stroke:#000000;stroke-width:0.176"><path d="M90.57,168.00L90.57,164.71L137.88,137.58"/><path d="M90.57,164.71L90.10,164.44"/></g><g style="stroke:#000000;stroke-width:0.529"><path d="M90.10,167.33L90.10,167.73L90.57,168.00L137.88,140.86L137.88,137.58L137.41,137.30L90.10,164.44L90.10,167.33"/></g></g><g id="Actor_3.1"><g style="stroke:#000000;stroke-width:0.176"><path d="M150.75,151.48L150.75,151.61L150.74,151.61"/><path d="M150.75,144.65L150.78,144.77L150.89,144.89L151.05,144.97L151.25,145.02L151.30,145.02L151.47,145.03L151.68,145.00L151.87,144.93L152.00,144.83L152.08,144.71"/><path d="M151.79,144.32L151.91,144.41L151.97,144.51L151.97,144.61L151.91,144.71L151.79,144.79L151.64,144.85L151.46,144.88L151.28,144.87L151.11,144.83L150.98,144.76L150.89,144.66L150.86,144.56L150.89,144.45L150.97,144.36"/><path d="M152.08,151.57L152.08,151.56L152.08,151.54L152.08,151.64"/><path d="M152.08,151.54L152.08,151.47"/></g><g style="stroke:#000000;stroke-width:0.529"><path d="M150.75,151.48L150.75,144.65L150.78,144.53L150.89,144.41L150.97,144.36L151.11,144.29L151.28,144.25L151.46,144.24L151.64,144.27L151.79,144.32L151.87,144.37L152.00,144.47L152.08,144.59L152.08,151.47"/></g></g><g id="Actor_3.2"><g style="stroke:#000000;stroke-width:0.176"><path d="M124.63,166.45L124.63,166.60"/><path d="M124.63,159.68L124.70,159.80L124.83,159.90L125.00,159.97L125.22,160.01L125.44,160.01L125.64,159.96L125.81,159.88L125.92,159.77L125.97,159.65"/><path d="M125.75,159.35L125.83,159.45L125.86,159.55L125.82,159.65L125.72,159.75L125.58,159.81L125.52,159.83L125.41,159.85L125.23,159.86L125.05,159.83L124.90,159.77L124.80,159.68L124.74,159.58L124.75,159.47L124.82,159.38L124.94,159.29"/><path d="M125.97,166.46L125.97,166.60"/></g><g style="stroke:#000000;stroke-width:0.529"><path d="M124.63,166.45L124.63,159.68L124.64,159.55L124.72,159.43L124.86,159.34L124.94,159.29L125.09,159.24L125.27,159.22L125.46,159.23L125.62,159.28L125.75,159.35L125.84,159.41L125.94,159.52L125.97,159.65L125.97,166.46"/></g></g><g id="Actor_6.1"><g style="stroke:#000000;stroke-width:0.176"><path d="M75.43,156.03L75.90,156.30L87.83,149.46"/><path d="M93.49,146.21L92.64,146.70"/><path d="M112.24,135.46L95.95,144.80"/><path d="M117.90,132.21L117.05,132.70"/><path d="M123.22,129.16L120.36,130.80"/></g><g style="stroke:#000000;stroke-width:0.529"><path d="M87.83,148.92L75.43,156.03L75.43,159.32L75.52,159.37"/><path d="M112.24,134.92L95.47,144.53"/><path d="M123.22,129.16L122.74,128.89L119.89,130.53"/></g></g><g id="Actor_4.0"><g style="stroke:#000000;stroke-width:0.176"><path d="M88.51,130.06L88.51,129.34L88.18,129.26L87.90,129.22L87.61,129.22L87.28,129.26L87.15,129.02L87.03,128.86L86.92,128.73L86.79,128.61"/><path d="M87.28,129.26L87.28,129.99"/><path d="M88.51,129.34L88.71,129.12L88.88,128.98L88.69,129.09L88.44,129.17L88.17,129.22L87.90,129.22L87.63,129.18L87.38,129.11L87.18,128.99L87.03,128.86L86.96,128.71L86.95,128.54L86.95,128.43"/><path d="M87.30,128.02L87.24,128.13L87.24,128.27L87.33,128.41L87.50,128.53L87.64,128.58L87.72,128.60L87.97,128.64L88.23,128.62L88.46,128.56L88.55,128.51L88.65,128.45L88.76,128.32L88.80,128.18L88.75,128.03L88.62,127.90L88.43,127.81L88.19,127.75L87.93,127.74L87.68,127.78L87.47,127.87L87.32,127.98L87.30,128.02"/><path d="M87.24,128.26L87.32,128.13L87.47,128.01L87.68,127.92L87.93,127.88L88.19,127.89L88.43,127.95L88.62,128.04L88.75,128.17L88.78,128.26"/><path d="M87.73,128.61L87.64,128.57L87.52,128.49L87.46,128.39L87.45,128.28L87.51,128.18L87.62,128.10L87.77,128.03L87.95,128.00L88.14,128.01L88.31,128.05L88.45,128.12L88.55,128.21L88.58,128.32L88.56,128.43L88.47,128.52L88.36,128.58"/><path d="M89.08,128.49L89.08,128.68L89.01,128.84L88.88,128.98L89.04,128.86L89.24,128.77"/><path d="M88.67,128.10L88.75,128.17"/></g><g style="stroke:#000000;stroke-width:0.529"><path d="M87.42,130.02L87.28,129.99L87.15,129.87L87.03,129.74L86.92,129.57L86.79,129.34L86.79,128.61L86.95,128.43L86.95,128.24L86.96,128.20L87.07,128.01L87.09,127.98L87.29,127.82L87.32,127.80L87.59,127.70L87.91,127.65L88.23,127.66L88.54,127.73L88.79,127.85L88.82,127.87L88.99,128.04L89.01,128.07L89.08,128.27L89.08,128.31L89.08,128.49L89.11,128.53L89.24,128.77L89.24,129.49L89.05,129.71L88.88,129.86L88.71,129.97L88.51,130.06L88.18,130.10L87.90,130.10L87.61,130.07L87.42,130.02"/></g></g><g id="Actor_6.2"><g style="stroke:#000000;stroke-width:0.176"><path d="M138.64,140.43L138.64,137.14L138.17,136.87"/><path d="M138.64,137.14L185.95,110.00"/></g><g style="stroke:#000000;stroke-width:0.529"><path d="M138.64,140.43L185.95,113.29L185.95,110.00L185.48,109.73L138.17,136.87L138.17,140.16L138.64,140.43"/></g></g><g id="Actor_5.0"><g style="stroke:#000000;stroke-width:0.176"><path d="M79.45,84.08L79.73,83.91L72.17,79.56L72.03,79.36L71.97,79.13L71.97,75.40L71.69,75.24"/><path d="M71.97,75.40L166.60,21.13"/><path d="M74.38,75.31L74.40,75.37L74.49,75.46L74.62,75.48L74.78,75.44L74.93,75.34L75.07,75.18L75.19,74.99L75.26,74.79L75.29,74.60L75.26,74.44L75.19,74.32L75.07,74.26L74.98,74.27"/><path d="M75.95,86.08L89.86,94.06L90.04,94.19L90.19,94.38L90.32,94.60L90.40,94.83L90.43,95.04L90.43,101.73L90.48,101.96L90.54,102.06L90.71,102.22L93.93,104.07L93.93,104.40"/><path d="M93.93,104.07L196.13,45.45"/><path d="M100.20,99.89L100.27,99.74L100.25,99.62L100.15,99.50L100.00,99.41L99.80,99.36L99.58,99.34L99.36,99.37L99.17,99.43L99.03,99.53L98.95,99.65L98.94,99.77L99.01,99.90"/><path d="M163.93,23.26L164.02,23.25L164.14,23.30L164.21,23.42L164.24,23.58L164.21,23.77L164.14,23.97L164.02,24.16L163.88,24.32L163.72,24.42L163.57,24.46L163.44,24.44L163.35,24.35L163.33,24.29"/><path d="M189.15,48.87L189.23,48.72L189.20,48.60L189.10,48.48L188.95,48.39L188.75,48.34L188.53,48.32L188.31,48.35L188.12,48.41L187.98,48.51L187.90,48.63L187.89,48.75L187.96,48.88"/></g><g style="stroke:#000000;stroke-width:0.529"><path d="M71.73,79.22L71.69,78.97L71.69,75.24L166.32,20.96L166.60,21.13L166.60,24.85L166.66,25.08L166.80,25.28L174.36,29.63L178.15,27.46L192.06,35.44L192.23,35.58L192.39,35.76L192.52,35.98L192.60,36.21L192.63,36.43L192.63,43.11L192.68,43.34L192.74,43.45L192.91,43.60L196.13,45.45L196.13,45.78L93.93,104.40L90.71,102.55L90.54,102.42L90.38,102.23L90.25,102.02L90.17,101.79L90.14,101.57L90.14,94.88L90.09,94.66L89.95,94.46L75.95,86.41L75.95,86.08L79.45,84.08L72.26,79.95L72.08,79.82L71.92,79.64L71.80,79.42L71.73,79.22"/><path d="M74.55,75.24L74.38,75.31L74.35,75.24L74.35,75.05L74.40,74.85L74.49,74.65L74.62,74.48L74.78,74.35L74.93,74.27L74.98,74.27L75.00,74.44L74.98,74.63L74.90,74.83L74.79,75.02L74.65,75.17L74.55,75.24"/><path d="M99.31,100.07L99.13,100.00L99.01,99.90L99.17,99.76L99.36,99.70L99.58,99.67L99.80,99.69L100.00,99.74L100.15,99.83L100.20,99.89L100.12,99.97L99.95,100.06L99.75,100.10L99.52,100.11L99.31,100.07"/><path d="M163.35,23.83L163.30,24.03L163.30,24.21L163.33,24.29L163.44,24.26L163.60,24.15L163.74,24.00L163.85,23.81L163.93,23.61L163.95,23.42L163.93,23.26L163.88,23.25L163.72,23.33L163.57,23.46L163.44,23.63L163.35,23.83"/><path d="M188.29,48.69L188.12,48.74L187.96,48.88L188.08,48.98L188.26,49.05L188.47,49.09L188.69,49.08L188.90,49.04L189.07,48.95L189.15,48.87L189.10,48.81L188.95,48.72L188.75,48.67L188.53,48.65L188.29,48.69"/></g></g><g id="Actor_4.1"><g style="stroke:#000000;stroke-width:0.176"><path d="M150.54,85.95L150.54,85.23L150.86,85.22L151.14,85.24L151.41,85.30L151.74,85.41L151.74,86.14"/><path d="M150.54,85.23L150.45,84.98L150.38,84.81L150.31,84.67L150.22,84.54"/><path d="M150.35,84.44L150.34,84.65L150.38,84.81L150.49,84.95L150.66,85.08L150.88,85.18L151.14,85.24L151.41,85.26L151.69,85.24L151.95,85.18L152.17,85.08L151.97,85.21L151.74,85.41"/><path d="M151.01,84.61L150.82,84.51L150.72,84.42L150.69,84.39L150.63,84.24L150.66,84.10L150.78,83.96L150.96,83.86L151.19,83.79L151.30,83.79L151.45,83.77L151.70,83.81L151.92,83.88L152.09,83.99L152.18,84.13L152.19,84.28L152.18,84.30L152.12,84.42L151.97,84.54L151.76,84.63L151.51,84.67L151.25,84.66L151.01,84.61"/><path d="M151.72,84.63L151.82,84.60L151.93,84.51L151.98,84.41L151.97,84.30L151.90,84.20L151.78,84.12L151.62,84.06L151.44,84.04L151.25,84.05L151.08,84.10L150.95,84.18L150.87,84.27L150.85,84.38L150.89,84.48L150.98,84.58L151.08,84.63"/><path d="M150.65,84.30L150.66,84.24L150.78,84.10L150.96,84.00L151.19,83.93L151.45,83.92L151.70,83.95L151.92,84.02L152.09,84.13L152.18,84.27L152.18,84.30"/><path d="M152.48,84.57L152.49,84.65L152.45,84.81L152.34,84.96L152.17,85.08L152.37,84.98L152.61,84.91"/></g><g style="stroke:#000000;stroke-width:0.529"><path d="M150.86,86.06L151.14,86.12L151.41,86.15L151.74,86.14L151.97,86.06L152.17,85.96L152.38,85.83L152.61,85.63L152.61,84.91L152.52,84.66L152.48,84.57L152.48,84.44L152.46,84.24L152.45,84.20L152.43,84.16L152.31,83.98L152.09,83.83L152.06,83.81L151.78,83.72L151.46,83.68L151.13,83.70L150.83,83.78L150.60,83.92L150.57,83.94L150.42,84.11L150.40,84.15L150.35,84.35L150.35,84.39L150.35,84.44L150.22,84.54L150.22,85.27L150.31,85.51L150.38,85.69L150.45,85.83L150.54,85.95L150.86,86.06"/></g></g><g id="Actor_2.0"><g style="stroke:#000000;stroke-width:0.176"><path d="M106.71,188.67L89.62,198.47L76.00,190.65"/><path d="M80.73,191.66L80.67,191.72L80.65,191.70L80.62,191.56L80.67,191.41L80.73,191.36"/><path d="M80.67,191.72L80.76,191.83L80.94,191.93L81.17,192.00L81.42,192.02L81.67,191.99L81.89,191.91L82.05,191.80L82.14,191.66L82.15,191.52L82.08,191.38L82.06,191.36"/><path d="M82.06,191.66L82.08,191.68L82.10,191.72"/><path d="M87.35,195.16L87.30,195.21L87.25,195.36L87.28,195.50L87.39,195.63L87.57,195.73L87.79,195.80L88.05,195.82L88.29,195.79L88.51,195.71L88.68,195.60L88.77,195.46L88.78,195.32L88.71,195.18L88.68,195.16"/><path d="M87.35,195.46L87.30,195.52"/><path d="M89.62,198.47L89.91,200.27"/><path d="M88.68,195.46L88.71,195.48L88.73,195.52"/><path d="M104.01,178.77L104.04,178.79L104.11,178.93L104.10,179.07L104.00,179.21L103.84,179.32L103.62,179.39L103.38,179.42L103.12,179.41L102.92,179.35L102.72,179.24L102.61,179.11L102.58,178.96L102.63,178.82L102.68,178.77"/><path d="M102.62,179.13L102.68,179.07"/><path d="M104.06,179.13L104.04,179.09L104.01,179.07"/><path d="M137.32,171.11L107.85,188.01"/><path d="M109.30,182.57L109.25,182.62L109.20,182.76L109.23,182.91L109.34,183.04L109.52,183.14L109.75,183.20L110.00,183.22L110.25,183.19L110.47,183.12L110.63,183.01L110.72,182.87L110.73,182.73L110.66,182.59L110.64,182.57"/><path d="M109.25,182.93L109.30,182.87"/><path d="M110.68,182.93L110.66,182.89L110.64,182.87"/><path d="M124.63,166.18L124.58,166.23L124.53,166.37L124.56,166.52L124.58,166.54L124.63,166.48"/><path d="M125.97,166.18L125.99,166.20L126.06,166.34L126.05,166.48L125.95,166.62L125.80,166.73L125.58,166.80L125.33,166.83L125.08,166.81L124.86,166.75L124.67,166.65L124.58,166.54"/><path d="M126.01,166.54L125.99,166.50L125.97,166.48"/><path d="M131.26,169.98L131.20,170.03L131.15,170.17L131.18,170.32L131.20,170.34L131.26,170.28"/><path d="M132.59,169.98L132.61,170.00L132.69,170.14L132.67,170.28L132.58,170.42L132.42,170.53L132.20,170.60L131.95,170.63L131.70,170.61L131.48,170.55L131.30,170.45L131.20,170.34"/><path d="M132.63,170.34L132.61,170.30L132.59,170.28"/></g><g style="stroke:#000000;stroke-width:0.529"><path d="M108.96,189.35L89.91,200.27L75.71,192.13L76.00,190.65L80.73,187.94"/><path d="M102.68,175.35L82.06,187.17"/><path d="M124.63,163.84L123.69,163.30L104.01,174.58"/><path d="M132.59,168.40L137.32,171.11L137.60,172.92L110.09,188.70"/><path d="M131.26,167.64L125.97,164.60"/></g></g><g id="Actor_4.2"><g style="stroke:#000000;stroke-width:0.176"><path d="M156.85,88.34L156.93,88.47L157.01,88.61L157.08,88.78L157.17,89.03L157.49,89.01L157.76,89.04L158.04,89.10L158.36,89.21L158.36,89.93"/><path d="M156.97,88.24L156.97,88.45L157.01,88.61L157.11,88.75L157.28,88.88L157.51,88.98L157.76,89.04L158.04,89.06L158.32,89.04L158.58,88.98L158.80,88.88L158.60,89.01L158.36,89.21"/><path d="M157.17,89.03L157.17,89.75"/><path d="M157.40,87.76L157.29,87.90L157.26,88.04L157.31,88.19L157.44,88.31L157.64,88.41L157.71,88.43L157.61,88.38L157.51,88.28L157.47,88.18L157.49,88.07L157.58,87.97L157.71,87.90L157.88,87.85L158.06,87.84L158.25,87.86L158.41,87.92L158.53,88.00L158.60,88.10L158.60,88.20L158.55,88.31L158.44,88.39L158.35,88.43L158.38,88.43L158.59,88.34L158.74,88.22L158.82,88.08L158.81,87.93L158.71,87.79L158.55,87.68L158.32,87.60L158.07,87.57L157.82,87.59L157.58,87.66L157.40,87.76"/><path d="M157.28,88.09L157.29,88.04L157.40,87.90L157.58,87.80L157.82,87.73L158.07,87.72L158.32,87.75L158.55,87.82L158.71,87.93L158.81,88.07L158.81,88.10"/><path d="M158.35,88.43L158.14,88.47L157.88,88.46L157.71,88.43"/><path d="M159.23,88.71L159.00,88.78L158.80,88.88L158.96,88.76L159.07,88.61L159.11,88.44L159.11,88.37"/></g><g style="stroke:#000000;stroke-width:0.529"><path d="M156.85,89.07L156.85,88.34L156.97,88.24L156.97,88.19L156.98,88.15L157.02,87.95L157.04,87.91L157.19,87.74L157.23,87.72L157.46,87.58L157.75,87.50L158.08,87.48L158.40,87.52L158.69,87.61L158.71,87.63L158.93,87.78L159.05,87.96L159.08,88.00L159.09,88.04L159.10,88.24L159.11,88.37L159.15,88.46L159.23,88.71L159.23,89.43L159.00,89.63L158.80,89.76L158.60,89.86L158.36,89.93L158.04,89.95L157.76,89.92L157.49,89.86L157.17,89.75L157.08,89.63L157.01,89.49L156.93,89.31L156.85,89.07"/></g></g><g id="Actor_1.0"><g style="stroke:#000000;stroke-width:0.176"><path d="M75.52,156.52L89.72,164.66L137.79,137.09"/><path d="M80.65,157.37L80.62,157.51L80.67,157.66L80.80,157.78L80.94,157.85L81.00,157.87L81.23,157.93L81.49,157.93L81.73,157.89L81.82,157.86L81.93,157.81L82.08,157.69L82.15,157.55L82.14,157.41L82.05,157.27L81.89,157.16L81.67,157.08L81.42,157.05L81.17,157.07L80.94,157.14L80.76,157.24L80.65,157.37"/><path d="M87.42,161.02L87.39,161.04L87.28,161.17L87.25,161.31L87.30,161.46L87.43,161.58L87.62,161.67L87.86,161.73L88.11,161.73L88.35,161.69L88.56,161.61L88.71,161.49L88.78,161.35L88.77,161.20L88.68,161.07L88.51,160.96L88.29,160.88L88.05,160.85L87.79,160.87L87.57,160.94L87.42,161.02"/><path d="M89.72,170.14L89.72,164.66"/><path d="M102.59,144.87L102.58,144.92L102.63,145.06L102.76,145.19L102.95,145.28L103.19,145.34L103.44,145.34L103.68,145.30L103.89,145.22L104.04,145.10L104.11,144.96L104.10,144.81L104.01,144.68L103.84,144.57L103.62,144.49L103.38,144.46L103.12,144.48L102.90,144.54L102.80,144.59L102.72,144.65L102.61,144.78L102.59,144.87"/><path d="M109.52,148.34L109.75,148.28L110.00,148.26L110.25,148.29L110.47,148.37L110.63,148.48L110.72,148.61L110.73,148.76L110.66,148.90L110.51,149.02L110.31,149.10L110.06,149.14L109.81,149.14L109.57,149.08L109.38,148.99L109.25,148.86L109.20,148.72L109.23,148.58L109.34,148.45L109.52,148.34"/><path d="M124.66,132.55L124.71,132.60L124.90,132.69L125.14,132.74L125.39,132.75L125.64,132.71L125.84,132.62L125.99,132.51L126.06,132.37L126.05,132.22L125.96,132.09L125.80,131.97L125.58,131.90L125.33,131.87L125.08,131.89L124.85,131.95L124.75,132.00L124.67,132.05L124.56,132.19L124.53,132.33L124.58,132.47L124.66,132.55"/><path d="M131.18,135.98L131.30,135.85L131.47,135.75L131.70,135.69L131.95,135.67L132.20,135.70L132.42,135.77L132.58,135.88L132.68,136.02L132.68,136.17L132.61,136.30L132.47,136.42L132.26,136.51L132.02,136.55L131.76,136.54L131.53,136.49L131.33,136.40L131.21,136.27L131.15,136.13L131.18,135.98"/></g><g style="stroke:#000000;stroke-width:0.529"><path d="M87.83,149.46L75.52,156.52L75.52,162.00L89.72,170.14L137.79,142.57L137.79,140.92"/><path d="M93.49,146.21L92.64,146.70"/><path d="M95.95,144.80L112.24,135.46"/><path d="M117.90,132.21L117.05,132.70"/><path d="M120.36,130.80L123.59,128.95L137.79,137.09L137.79,137.52"/></g></g><g id="Actor_4.3"><g style="stroke:#000000;stroke-width:0.176"><path d="M103.84,113.67L103.84,112.95L103.51,112.87L103.23,112.83L102.94,112.83L102.61,112.87L102.61,113.59"/><path d="M102.61,112.87L102.48,112.63L102.36,112.47L102.25,112.33L102.12,112.22"/><path d="M103.84,112.95L104.04,112.73L104.21,112.58L104.01,112.70L103.77,112.78L103.50,112.83L103.23,112.83L102.96,112.79L102.71,112.71L102.51,112.60L102.36,112.47L102.29,112.31L102.28,112.15L102.28,112.04"/><path d="M103.11,111.37L103.01,111.39L102.80,111.47L102.64,111.59L102.57,111.73L102.57,111.88L102.66,112.02L102.83,112.14L103.05,112.21L103.28,112.24L103.30,112.25L103.56,112.23L103.79,112.17L103.88,112.11L103.98,112.06L104.09,111.93L104.13,111.78L104.08,111.64L103.95,111.51L103.76,111.41L103.52,111.36L103.26,111.35L103.11,111.37"/><path d="M103.69,112.19L103.80,112.13L103.89,112.04L103.91,111.93L103.88,111.82L103.78,111.73L103.64,111.66L103.47,111.62L103.28,111.61L103.10,111.64L102.95,111.70L102.84,111.79L102.78,111.89L102.79,112.00L102.85,112.10L102.97,112.18L103.06,112.21"/><path d="M102.57,111.86L102.64,111.73L102.80,111.61L103.01,111.53L103.26,111.49L103.52,111.50L103.76,111.55L103.95,111.65L104.08,111.78L104.00,111.70"/><path d="M104.57,112.38L104.37,112.47L104.21,112.58L104.34,112.45L104.41,112.29L104.41,112.10"/><path d="M104.08,111.78L104.11,111.87"/></g><g style="stroke:#000000;stroke-width:0.529"><path d="M102.94,113.68L102.61,113.59L102.48,113.48L102.36,113.35L102.25,113.18L102.12,112.94L102.12,112.22L102.28,112.04L102.28,111.85L102.29,111.81L102.40,111.62L102.42,111.59L102.62,111.43L102.65,111.41L102.92,111.30L103.24,111.25L103.56,111.26L103.87,111.34L104.12,111.46L104.15,111.48L104.32,111.65L104.34,111.68L104.41,111.88L104.41,111.92L104.41,112.10L104.44,112.14L104.57,112.38L104.57,113.10L104.38,113.31L104.21,113.47L104.04,113.58L103.84,113.67L103.51,113.71L103.23,113.71L102.94,113.68"/></g></g><g id="Actor_4.4"><g style="stroke:#000000;stroke-width:0.176"><path d="M125.79,101.08L125.79,100.36L125.46,100.27L125.18,100.24L124.90,100.24L124.56,100.28L124.43,100.04L124.32,99.87L124.20,99.74L124.07,99.63"/><path d="M124.24,99.45L124.23,99.56L124.24,99.72L124.32,99.87L124.46,100.01L124.66,100.12L124.91,100.20L125.18,100.24L125.46,100.23L125.73,100.19L125.97,100.11L126.16,99.99L125.99,100.14L125.79,100.36"/><path d="M124.56,100.28L124.56,101.00"/><path d="M124.60,99.00L124.75,98.88L124.96,98.80L125.21,98.76L125.47,98.77L125.71,98.82L125.90,98.92L126.03,99.05L126.08,99.19L126.05,99.34L125.93,99.47L125.74,99.57L125.64,99.60L125.76,99.54L125.84,99.44L125.87,99.34L125.83,99.23L125.74,99.14L125.60,99.07L125.42,99.03L125.24,99.02L125.14,99.04L125.06,99.05L124.90,99.11L124.79,99.20L124.76,99.25L124.73,99.30L124.74,99.41L124.81,99.51L124.92,99.59L125.01,99.62L125.00,99.62L124.78,99.54L124.76,99.52L124.62,99.43L124.53,99.29L124.52,99.14L124.60,99.00"/><path d="M125.01,99.62L125.25,99.65L125.51,99.64L125.64,99.60"/><path d="M124.53,99.27L124.60,99.14L124.75,99.02L124.96,98.94L125.21,98.90L125.47,98.91L125.71,98.96L125.90,99.06L126.03,99.19L125.96,99.11"/><path d="M126.36,99.51L126.36,99.70L126.29,99.85L126.16,99.99L126.33,99.88L126.53,99.78"/><path d="M126.03,99.19L126.06,99.27"/></g><g style="stroke:#000000;stroke-width:0.529"><path d="M124.40,100.86L124.32,100.75L124.20,100.59L124.07,100.35L124.07,99.63L124.24,99.45L124.24,99.26L124.25,99.22L124.35,99.03L124.37,98.99L124.57,98.84L124.60,98.82L124.87,98.71L125.19,98.66L125.52,98.67L125.82,98.74L126.07,98.87L126.10,98.88L126.27,99.05L126.29,99.09L126.36,99.29L126.37,99.33L126.36,99.51L126.39,99.55L126.53,99.78L126.53,100.51L126.33,100.72L126.16,100.87L125.99,100.99L125.79,101.08L125.46,101.12L125.18,101.12L124.90,101.08L124.56,101.00L124.43,100.89L124.40,100.86"/></g></g><g id="Actor_4.5"><g style="stroke:#000000;stroke-width:0.176"><path d="M81.89,126.26L81.89,125.54L81.55,125.46L81.27,125.42L80.99,125.42L80.66,125.46L80.66,126.19"/><path d="M80.66,125.46L80.52,125.22L80.41,125.06L80.30,124.93L80.16,124.81"/><path d="M81.89,125.54L82.08,125.32L82.25,125.18L82.06,125.29L81.82,125.37L81.82,125.38L81.55,125.42L81.27,125.42L81.00,125.38L80.76,125.31L80.55,125.19L80.41,125.06L80.33,124.91L80.33,124.74L80.33,124.63"/><path d="M81.74,124.79L81.84,124.76L82.02,124.66L82.14,124.52L82.17,124.38L82.12,124.23L82.00,124.10L81.80,124.01L81.56,123.95L81.30,123.94L81.06,123.98L80.84,124.07L80.69,124.19L80.61,124.33L80.62,124.47L80.71,124.61L80.87,124.73L81.09,124.81L81.35,124.84L81.60,124.82L81.74,124.79L81.85,124.72L81.93,124.63L81.96,124.52L81.92,124.42L81.83,124.32L81.69,124.25L81.52,124.21L81.33,124.21L81.15,124.23L80.99,124.30L80.88,124.38L80.83,124.48L80.83,124.59L80.90,124.69L81.02,124.78L81.10,124.81"/><path d="M82.15,124.46L82.12,124.37L82.00,124.24L81.80,124.15L81.56,124.09L81.30,124.08L81.06,124.12L80.84,124.21L80.69,124.33L80.62,124.46"/><path d="M82.46,124.69L82.45,124.88L82.39,125.04L82.25,125.18L82.42,125.06L82.62,124.97"/></g><g style="stroke:#000000;stroke-width:0.529"><path d="M80.66,126.19L80.99,126.27L81.27,126.30L81.55,126.30L81.89,126.26L82.08,126.17L82.25,126.06L82.42,125.91L82.62,125.69L82.62,124.97L82.48,124.73L82.46,124.69L82.46,124.51L82.45,124.47L82.39,124.27L82.36,124.24L82.19,124.07L82.16,124.05L81.91,123.93L81.61,123.86L81.28,123.85L80.96,123.90L80.69,124.00L80.67,124.02L80.46,124.18L80.44,124.21L80.34,124.40L80.33,124.44L80.33,124.63L80.16,124.81L80.16,125.54L80.30,125.77L80.41,125.94L80.52,126.07L80.66,126.19"/></g></g><g id="Actor_4.6"><g style="stroke:#000000;stroke-width:0.176"><path d="M128.59,98.54L128.59,97.82L128.91,97.81L129.18,97.83L129.46,97.89L129.78,98.00L130.02,97.81L130.22,97.67L130.42,97.58L130.66,97.50"/><path d="M128.59,97.82L128.50,97.57L128.43,97.40L128.35,97.26L128.27,97.13"/><path d="M128.39,97.03L128.39,97.24L128.43,97.40L128.53,97.54L128.70,97.67L128.93,97.77L129.18,97.83L129.46,97.85L129.74,97.83L130.00,97.77L130.22,97.67L130.39,97.55L130.50,97.40L130.53,97.24L130.53,97.16"/><path d="M128.80,96.58L128.71,96.69L128.68,96.83L128.73,96.98L128.86,97.11L129.06,97.20L129.13,97.22L129.03,97.17L128.93,97.08L128.89,96.97L128.92,96.86L129.00,96.77L129.13,96.69L129.30,96.64L129.48,96.63L129.67,96.65L129.83,96.71L129.95,96.79L130.02,96.89L130.03,97.00L129.97,97.10L129.86,97.19L129.77,97.23L129.81,97.22L130.02,97.13L130.17,97.01L130.24,96.87L130.23,96.72L130.13,96.59L129.97,96.47L129.75,96.40L129.49,96.37L129.24,96.39L129.01,96.45L128.82,96.55L128.80,96.58"/><path d="M130.23,96.89L130.23,96.86L130.13,96.73L129.97,96.61L129.75,96.54L129.49,96.51L129.24,96.53L129.01,96.59L128.82,96.70L128.71,96.83L128.70,96.89"/><path d="M129.78,98.00L129.78,98.73"/><path d="M129.13,97.22L129.30,97.26L129.56,97.26L129.77,97.23"/></g><g style="stroke:#000000;stroke-width:0.529"><path d="M128.50,98.42L128.59,98.54L128.91,98.65L129.18,98.71L129.46,98.74L129.78,98.73L130.02,98.65L130.22,98.55L130.42,98.42L130.66,98.23L130.66,97.50L130.57,97.25L130.53,97.16L130.52,97.03L130.51,96.83L130.50,96.79L130.48,96.75L130.35,96.57L130.13,96.42L130.11,96.41L129.82,96.31L129.50,96.27L129.18,96.29L128.88,96.38L128.65,96.51L128.62,96.53L128.47,96.70L128.44,96.74L128.40,96.94L128.39,96.98L128.39,97.03L128.27,97.13L128.27,97.86L128.35,98.11L128.43,98.28L128.50,98.42"/></g></g><g id="Actor_3.3"><g style="stroke:#000000;stroke-width:0.176"><path d="M128.79,164.07L128.79,164.20L128.79,164.21"/><path d="M130.12,157.30L130.05,157.42L129.92,157.52L129.73,157.59L129.52,157.62L129.30,157.61L129.10,157.56L128.93,157.48L128.83,157.37L128.79,157.24"/><path d="M129.84,156.91L129.95,157.00L130.01,157.10L130.01,157.20L129.95,157.30L129.84,157.39L129.69,157.44L129.51,157.47L129.33,157.46L129.16,157.42L129.02,157.35L128.93,157.25L128.90,157.15L128.93,157.05L129.02,156.95"/><path d="M130.13,164.16L130.12,164.15L130.12,164.14L130.12,164.23"/><path d="M130.12,164.14L130.12,164.06"/></g><g style="stroke:#000000;stroke-width:0.529"><path d="M130.12,164.06L130.12,157.18L130.05,157.06L129.91,156.96L129.84,156.91L129.69,156.86L129.51,156.83L129.32,156.84L129.16,156.88L129.02,156.95L128.93,157.01L128.83,157.12L128.79,157.24L128.79,164.07"/></g></g><g id="Actor_4.7"><g style="stroke:#000000;stroke-width:0.176"><path d="M135.21,101.62L135.12,101.37L135.05,101.20L135.16,101.34L135.33,101.47L135.55,101.57L135.81,101.63L135.53,101.61L135.21,101.62L135.21,102.34"/><path d="M135.02,100.83L135.01,101.04L135.05,101.20L134.98,101.06L134.89,100.93"/><path d="M135.45,100.35L135.33,100.49L135.30,100.63L135.36,100.78L135.49,100.91L135.68,101.00L135.75,101.02L135.65,100.97L135.56,100.88L135.52,100.77L135.54,100.66L135.62,100.57L135.75,100.49L135.77,100.49L135.92,100.44L136.11,100.43L136.29,100.45L136.45,100.51L136.57,100.59L136.64,100.69L136.65,100.80L136.60,100.90L136.49,100.99L136.39,101.03L136.43,101.02L136.64,100.93L136.79,100.81L136.86,100.67L136.85,100.52L136.76,100.39L136.59,100.27L136.37,100.20L136.12,100.17L135.86,100.18L135.63,100.25L135.45,100.35"/><path d="M135.32,100.69L135.33,100.63L135.45,100.50L135.63,100.39L135.86,100.33L136.12,100.31L136.37,100.34L136.59,100.41L136.76,100.53L136.85,100.66L136.85,100.69"/><path d="M136.41,102.53L136.41,101.80L136.08,101.69L135.81,101.63L136.08,101.65L136.36,101.63L136.62,101.57L136.84,101.47L136.64,101.61L136.41,101.80"/><path d="M136.39,101.03L136.18,101.06L135.92,101.06L135.75,101.02"/><path d="M137.15,100.96L137.16,101.04L137.12,101.20L137.01,101.35L136.84,101.47L137.04,101.38L137.28,101.30"/></g><g style="stroke:#000000;stroke-width:0.529"><path d="M135.61,102.47L135.53,102.45L135.21,102.34L135.12,102.22L135.05,102.08L134.98,101.90L134.89,101.66L134.89,100.93L135.02,100.83L135.02,100.78L135.02,100.74L135.07,100.54L135.09,100.50L135.24,100.33L135.27,100.31L135.50,100.18L135.80,100.09L136.13,100.07L136.45,100.11L136.73,100.20L136.76,100.22L136.98,100.37L137.10,100.55L137.13,100.59L137.13,100.63L137.15,100.83L137.15,100.96L137.19,101.05L137.28,101.30L137.28,102.03L137.05,102.22L136.84,102.35L136.64,102.45L136.41,102.53L136.08,102.54L135.81,102.51L135.61,102.47"/></g></g><g id="Actor_4.8"><g style="stroke:#000000;stroke-width:0.176"><path d="M173.69,73.54L173.69,72.82L173.37,72.71L173.09,72.65L172.82,72.62L172.49,72.63L172.49,73.36"/><path d="M172.49,72.63L172.41,72.39L172.33,72.21L172.26,72.07L172.17,71.95"/><path d="M173.69,72.82L173.93,72.62L174.13,72.49L173.91,72.59L173.65,72.65L173.37,72.67L173.09,72.65L172.84,72.59L172.61,72.49L172.44,72.36L172.33,72.21L172.30,72.06L172.30,71.85"/><path d="M172.60,71.60L172.59,71.65L172.64,71.80L172.77,71.92L172.97,72.02L173.21,72.07L173.47,72.08L173.71,72.04L173.87,71.97L173.92,71.95L174.07,71.83L174.15,71.69L174.14,71.54L174.04,71.40L173.88,71.29L173.65,71.21L173.40,71.18L173.15,71.20L172.91,71.27L172.73,71.37L172.62,71.50L172.60,71.60"/><path d="M173.04,72.03L172.94,71.98L172.84,71.89L172.80,71.79L172.82,71.68L172.91,71.58L173.04,71.51L173.21,71.46L173.39,71.45L173.58,71.47L173.74,71.52L173.86,71.61L173.93,71.71L173.93,71.81L173.88,71.92L173.77,72.00L173.68,72.04"/><path d="M174.14,71.70L174.14,71.68L174.04,71.54L173.88,71.43L173.65,71.35L173.40,71.32L173.15,71.34L172.91,71.41L172.73,71.51L172.62,71.64L172.61,71.70"/><path d="M174.56,72.32L174.33,72.39L174.13,72.49L174.29,72.36L174.40,72.21L174.44,72.05L174.44,71.98"/></g><g style="stroke:#000000;stroke-width:0.529"><path d="M172.60,73.39L172.49,73.36L172.41,73.23L172.33,73.10L172.26,72.92L172.17,72.67L172.17,71.95L172.30,71.85L172.30,71.80L172.31,71.75L172.35,71.56L172.37,71.52L172.52,71.34L172.56,71.33L172.79,71.19L173.08,71.11L173.41,71.09L173.73,71.12L174.02,71.22L174.04,71.24L174.26,71.39L174.38,71.57L174.41,71.60L174.42,71.65L174.43,71.85L174.44,71.98L174.48,72.07L174.56,72.32L174.56,73.04L174.33,73.24L174.13,73.37L173.93,73.47L173.69,73.54L173.37,73.55L173.09,73.53L172.82,73.47L172.60,73.39"/></g></g><g id="Actor_2.1"><g style="stroke:#000000;stroke-width:0.176"><path d="M124.63,163.40L124.07,163.08"/><path d="M131.26,167.20L125.97,164.17"/><path d="M130.12,163.78L130.15,163.81L130.23,163.95L130.21,164.09L130.12,164.23L129.96,164.34L129.74,164.41L129.49,164.44L129.24,164.43L129.01,164.36L128.84,164.26L128.72,164.13L128.69,163.98L128.74,163.84L128.79,163.80"/><path d="M128.74,164.15L128.79,164.10"/><path d="M130.14,164.10L130.17,164.16"/><path d="M137.98,172.70L137.69,170.90L132.59,167.97"/><path d="M136.75,167.58L136.78,167.61L136.85,167.75L136.84,167.89L136.75,168.03L136.58,168.14L136.37,168.21L136.12,168.24L135.87,168.22L135.64,168.16L135.46,168.06L135.35,167.93L135.32,167.78L135.37,167.64L135.42,167.59"/><path d="M135.37,167.95L135.42,167.90"/><path d="M137.69,170.90L168.27,153.36"/><path d="M136.80,167.95L136.77,167.90"/><path d="M150.75,151.20L150.70,151.25L150.65,151.39L150.68,151.54L150.79,151.67L150.97,151.77L151.20,151.83L151.45,151.85L151.69,151.82L151.91,151.75L152.08,151.64L152.17,151.50L152.18,151.36L152.11,151.22L152.08,151.19"/><path d="M150.70,151.56L150.75,151.50"/><path d="M152.13,151.56L152.10,151.51"/><path d="M157.37,155.00L157.32,155.05L157.27,155.19L157.30,155.34L157.41,155.47L157.59,155.57L157.82,155.63L158.07,155.65L158.32,155.62L158.54,155.55L158.70,155.44L158.79,155.30L158.80,155.15L158.73,155.02L158.70,154.99"/><path d="M157.32,155.36L157.37,155.30"/><path d="M158.75,155.36L158.72,155.31"/><path d="M185.39,143.54L169.21,152.82"/><path d="M172.70,138.61L172.65,138.66L172.60,138.80L172.63,138.94L172.74,139.07L172.93,139.18L173.15,139.24L173.40,139.26L173.65,139.23L173.87,139.15L174.02,139.05L174.08,138.97L174.05,138.92"/><path d="M172.65,138.97L172.70,138.91"/><path d="M174.08,138.97L174.12,138.91L174.13,138.76L174.06,138.62L174.03,138.60"/><path d="M179.32,142.71L179.27,142.76L179.26,142.74L179.22,142.60L179.28,142.46L179.32,142.41"/><path d="M179.27,142.76L179.37,142.87L179.55,142.98L179.77,143.04L180.02,143.06L180.27,143.03L180.49,142.95L180.65,142.84L180.75,142.71L180.76,142.56L180.68,142.42L180.65,142.40"/><path d="M180.70,142.77L180.67,142.72"/></g><g style="stroke:#000000;stroke-width:0.529"><path d="M123.99,163.47L124.07,163.08L124.63,162.75"/><path d="M128.79,160.37L125.97,161.99"/><path d="M150.75,147.78L130.12,159.61"/><path d="M169.90,154.39L137.98,172.70L137.52,172.44"/><path d="M152.08,147.01L171.76,135.72L172.70,136.26"/><path d="M170.83,153.86L185.67,145.35L185.39,143.54L180.65,140.82"/><path d="M179.32,140.06L174.03,137.03"/></g></g><g id="Actor_3.4"><g style="stroke:#000000;stroke-width:0.176"><path d="M80.73,191.64L80.73,191.79"/><path d="M80.73,184.86L80.79,184.98L80.92,185.09L81.10,185.16L81.31,185.19L81.53,185.19L81.73,185.14L81.90,185.06L82.01,184.95L82.06,184.83"/><path d="M81.03,184.48L80.91,184.56L80.84,184.66L80.84,184.76L80.89,184.86L81.00,184.95L81.15,185.01L81.32,185.04L81.51,185.04L81.68,185.00L81.82,184.93L81.91,184.84L81.95,184.74L81.93,184.63L81.84,184.54"/><path d="M82.06,191.64L82.06,191.79"/></g><g style="stroke:#000000;stroke-width:0.529"><path d="M80.73,191.64L80.73,184.86L80.74,184.74L80.82,184.62L80.96,184.52L81.03,184.48L81.19,184.42L81.37,184.40L81.55,184.42L81.71,184.46L81.84,184.54L81.93,184.59L82.03,184.70L82.06,184.83L82.06,191.64"/></g></g><g id="Actor_4.9"><g style="stroke:#000000;stroke-width:0.176"><path d="M178.80,75.75L178.89,75.87L178.96,76.01L179.03,76.19L179.12,76.43L179.44,76.42L179.72,76.45L179.99,76.51L180.31,76.62L180.31,77.34"/><path d="M179.12,76.43L179.12,77.16"/><path d="M178.92,75.65L178.92,75.86L178.96,76.01L179.06,76.16L179.24,76.29L179.46,76.39L179.72,76.45L179.99,76.47L180.27,76.45L180.53,76.39L180.75,76.29L180.55,76.42L180.31,76.62"/><path d="M179.29,75.24L179.24,75.30L179.21,75.45L179.26,75.59L179.39,75.72L179.50,75.77L179.59,75.82L179.83,75.87L180.09,75.88L180.34,75.84L180.49,75.77L180.55,75.75L180.70,75.63L180.77,75.49L180.76,75.34L180.67,75.20L180.50,75.09L180.28,75.01L180.03,74.98L179.77,75.00L179.54,75.07L179.36,75.17L179.29,75.24"/><path d="M179.23,75.50L179.24,75.44L179.36,75.31L179.54,75.21L179.77,75.14L180.03,75.12L180.28,75.15L180.50,75.23L180.67,75.34L180.76,75.48L180.76,75.50"/><path d="M179.66,75.83L179.56,75.78L179.46,75.69L179.42,75.59L179.45,75.48L179.53,75.38L179.66,75.31L179.83,75.26L180.02,75.25L180.20,75.27L180.36,75.32L180.48,75.41L180.55,75.51L180.56,75.61L180.50,75.72L180.40,75.80L180.30,75.84"/><path d="M181.19,76.12L180.95,76.19L180.75,76.29L180.92,76.16L181.03,76.01L181.06,75.85L181.06,75.77"/></g><g style="stroke:#000000;stroke-width:0.529"><path d="M179.12,77.16L179.03,77.03L178.96,76.89L178.89,76.72L178.80,76.47L178.80,75.75L178.92,75.65L178.92,75.60L178.93,75.55L178.98,75.35L179.00,75.32L179.15,75.14L179.18,75.12L179.41,74.99L179.71,74.91L180.03,74.89L180.36,74.92L180.64,75.02L180.66,75.04L180.88,75.18L181.01,75.37L181.03,75.40L181.04,75.45L181.06,75.65L181.06,75.77L181.10,75.87L181.19,76.12L181.19,76.84L180.95,77.03L180.75,77.17L180.55,77.27L180.31,77.34L179.99,77.35L179.72,77.33L179.44,77.27L179.12,77.16"/></g></g><g id="Actor_1.1"><g style="stroke:#000000;stroke-width:0.176"><path d="M84.71,139.55L84.84,139.55L84.99,139.60L102.97,149.91L103.11,150.03L103.24,150.18L103.35,150.36L103.42,150.55L103.44,150.73L103.44,154.02"/><path d="M92.87,146.12L92.59,146.13L92.06,146.43L91.73,147.01L91.61,147.79L91.73,148.70L92.06,149.66L92.59,150.56L93.24,151.33L93.98,151.88L94.71,152.17L95.37,152.16L95.89,151.85L96.03,151.62"/><path d="M101.07,152.67L100.78,152.55L100.52,152.56L100.31,152.68L100.17,152.91L100.13,153.22L100.13,157.60"/></g><g style="stroke:#000000;stroke-width:0.529"><path d="M84.51,140.37L84.51,140.98L86.88,142.33L87.17,142.55L87.43,142.86L87.64,143.22L87.78,143.61L87.83,143.97L87.83,150.55L100.13,157.60L101.07,157.06L101.07,152.67L103.44,154.02L104.38,153.48L104.38,150.19L104.36,150.01L104.29,149.82L104.19,149.64L104.06,149.48L103.91,149.37L85.93,139.06L85.79,139.00L85.65,139.00L84.60,139.61L84.54,139.72L84.51,139.88L84.51,140.37"/><path d="M93.02,149.14L93.01,149.11L92.67,148.16L92.56,147.24L92.67,146.46L92.87,146.12L93.24,146.12L93.98,146.40L94.71,146.96L95.37,147.72L95.89,148.63L96.23,149.59L96.34,150.50L96.23,151.28L96.03,151.62L95.65,151.63L94.92,151.34L94.19,150.79L93.53,150.02L93.02,149.14"/></g></g><g id="Actor_1.2"><g style="stroke:#000000;stroke-width:0.176"><path d="M109.12,125.54L109.25,125.54L109.40,125.60L127.38,135.91L127.53,136.02L127.66,136.18L127.76,136.36L127.83,136.55L127.85,136.73L127.85,140.02"/><path d="M117.29,132.12L117.00,132.13L116.48,132.43L116.14,133.00L116.02,133.78L116.14,134.70L116.48,135.65L117.00,136.56L117.66,137.33L118.39,137.88L119.12,138.17L119.78,138.15L120.30,137.85L120.44,137.62"/><path d="M124.54,143.60L124.54,139.22L124.59,138.90L124.72,138.68L124.93,138.55L125.19,138.55L125.49,138.66"/></g><g style="stroke:#000000;stroke-width:0.529"><path d="M108.93,126.97L108.93,125.88L108.95,125.72L109.02,125.61L110.07,125.00L110.20,125.00L110.35,125.06L128.33,135.37L128.47,135.48L128.60,135.63L128.71,135.81L128.78,136.01L128.80,136.19L128.80,139.48L127.85,140.02L125.49,138.66L125.49,143.06L124.54,143.60L112.24,136.54L112.24,129.97L112.19,129.60L112.06,129.22L111.85,128.86L111.59,128.55L111.29,128.33L108.93,126.97"/><path d="M117.30,134.76L117.42,135.11L117.95,136.02L118.61,136.78L119.34,137.34L120.07,137.62L120.44,137.62L120.64,137.28L120.76,136.50L120.64,135.58L120.30,134.63L119.78,133.72L119.12,132.95L118.39,132.40L117.66,132.11L117.29,132.12L117.09,132.46L116.97,133.24L117.09,134.15L117.30,134.76"/></g></g><g id="Actor_1.3"><g style="stroke:#000000;stroke-width:0.176"><path d="M185.86,109.52L137.79,137.09L123.59,128.95"/><path d="M128.69,129.94L128.72,129.80L128.84,129.67L128.92,129.61L129.01,129.56L129.24,129.50L129.49,129.48L129.74,129.51L129.96,129.59L130.12,129.70L130.21,129.83L130.23,129.98L130.15,130.12L130.01,130.24L129.93,130.27L129.80,130.32L129.56,130.36L129.30,130.36L129.07,130.30L128.87,130.21L128.74,130.08L128.69,129.94"/><path d="M135.34,133.64L135.32,133.74L135.37,133.88L135.50,134.01L135.69,134.10L135.93,134.15L136.18,134.16L136.42,134.12L136.63,134.03L136.75,133.94L136.78,133.92L136.85,133.78L136.84,133.64L136.75,133.50L136.58,133.39L136.36,133.31L136.12,133.28L135.87,133.30L135.64,133.36L135.46,133.47L135.35,133.60L135.34,133.64"/><path d="M137.79,140.92L137.79,142.57"/><path d="M137.79,137.52L137.79,137.09"/><path d="M150.65,117.35L150.68,117.21L150.79,117.07L150.87,117.02L150.97,116.97L151.20,116.91L151.45,116.89L151.70,116.92L151.91,116.99L152.08,117.10L152.17,117.24L152.18,117.39L152.11,117.52L151.96,117.64L151.75,117.73L151.51,117.77L151.26,117.76L151.02,117.71L150.83,117.62L150.70,117.49L150.65,117.35"/><path d="M157.32,121.29L157.45,121.42L157.65,121.51L157.88,121.56L158.13,121.57L158.38,121.53L158.58,121.44L158.73,121.32L158.80,121.18L158.79,121.04L158.70,120.90L158.54,120.79L158.32,120.72L158.07,120.69L157.82,120.71L157.59,120.77L157.41,120.87L157.30,121.00L157.27,121.15L157.32,121.29"/><path d="M172.81,104.44L172.74,104.48L172.63,104.61L172.60,104.76L172.65,104.90L172.78,105.02L172.98,105.12L173.21,105.17L173.46,105.18L173.71,105.14L173.91,105.05L174.03,104.96L174.06,104.93L174.13,104.79L174.12,104.65L174.03,104.51L173.87,104.40L173.65,104.33L173.40,104.30L173.15,104.32L172.92,104.38L172.81,104.44"/><path d="M179.22,108.56L179.26,108.41L179.37,108.28L179.45,108.23L179.55,108.18L179.77,108.12L180.03,108.10L180.27,108.13L180.49,108.20L180.65,108.31L180.75,108.45L180.76,108.59L180.68,108.73L180.54,108.85L180.33,108.93L180.09,108.98L179.84,108.97L179.60,108.92L179.41,108.82L179.28,108.70L179.22,108.56"/></g><g style="stroke:#000000;stroke-width:0.529"><path d="M135.90,121.89L123.59,128.95"/><path d="M137.79,142.57L185.86,115.00L185.86,113.35"/><path d="M141.56,118.64L140.71,119.13"/><path d="M160.31,107.89L144.02,117.23"/><path d="M165.98,104.64L165.12,105.13"/><path d="M185.86,109.95L185.86,109.52L171.67,101.37L168.43,103.23"/></g></g><g id="Actor_3.5"><g style="stroke:#000000;stroke-width:0.176"><path d="M157.37,155.28L157.37,155.41L157.37,155.41"/><path d="M157.37,148.45L157.41,148.57L157.51,148.68L157.67,148.77L157.88,148.82L158.10,148.83L158.31,148.80L158.49,148.73L158.63,148.63L158.70,148.51"/><path d="M157.60,148.16L157.51,148.25L157.48,148.36L157.51,148.46L157.60,148.55L157.73,148.63L157.90,148.67L158.09,148.68L158.26,148.65L158.42,148.59L158.53,148.51L158.59,148.41L158.59,148.30L158.53,148.21L158.42,148.12"/><path d="M158.71,155.37L158.70,155.36L158.70,155.34L158.70,155.44"/><path d="M158.70,155.34L158.70,155.27"/></g><g style="stroke:#000000;stroke-width:0.529"><path d="M157.37,155.28L157.37,148.45L157.41,148.32L157.51,148.21L157.60,148.16L157.73,148.09L157.90,148.05L158.08,148.04L158.26,148.06L158.42,148.12L158.49,148.17L158.63,148.27L158.70,148.38L158.70,155.27"/></g></g><g id="Actor_1.4"><g style="stroke:#000000;stroke-width:0.176"><path d="M175.92,112.45L175.92,109.16L175.90,108.98L175.83,108.78L175.73,108.60L175.60,108.45L175.45,108.34L157.47,98.03L157.33,97.97L157.19,97.97"/><path d="M165.36,104.55L165.07,104.55L164.55,104.86L164.21,105.43L164.10,106.21L164.21,107.12L164.55,108.08L165.07,108.99L165.73,109.75L166.46,110.31L167.19,110.59L167.85,110.58L168.38,110.28L168.51,110.04"/><path d="M173.56,111.09L173.27,110.98L173.00,110.98L172.79,111.10L172.66,111.33L172.61,111.64L172.61,116.03"/></g><g style="stroke:#000000;stroke-width:0.529"><path d="M157.95,99.95L159.36,100.76L159.66,100.98L159.92,101.28L160.13,101.65L160.26,102.03L160.31,102.40L160.31,108.97L172.61,116.03L173.56,115.49L173.56,111.09L175.92,112.45L176.87,111.90L176.87,108.62L176.85,108.43L176.78,108.24L176.68,108.06L176.54,107.91L176.40,107.80L158.42,97.48L158.27,97.43L158.14,97.43L157.09,98.03L157.02,98.15L157.00,98.30L157.00,99.40L157.95,99.95"/><path d="M165.65,107.81L165.49,107.54L165.16,106.58L165.04,105.67L165.16,104.89L165.36,104.55L165.73,104.54L166.46,104.83L167.19,105.38L167.85,106.15L168.38,107.05L168.71,108.01L168.83,108.92L168.71,109.70L168.51,110.04L168.14,110.05L167.41,109.77L166.68,109.21L166.02,108.44L165.65,107.81"/></g></g><g id="Actor_4.10"><g style="stroke:#000000;stroke-width:0.176"><path d="M132.42,104.88L132.42,104.15L132.08,104.07L131.80,104.04L131.52,104.04L131.19,104.08L131.05,103.84L130.94,103.67L130.83,103.54L130.69,103.43"/><path d="M130.86,103.25L130.86,103.36L130.86,103.52L130.94,103.67L131.08,103.81L131.29,103.92L131.53,104.00L131.80,104.04L132.08,104.03L132.35,103.99L132.59,103.91L132.78,103.79L132.62,103.94L132.42,104.15"/><path d="M131.19,104.08L131.19,104.80"/><path d="M131.63,103.42L131.41,103.34L131.38,103.32L131.24,103.23L131.15,103.09L131.15,102.94L131.22,102.80L131.38,102.68L131.59,102.60L131.84,102.56L132.09,102.57L132.33,102.62L132.53,102.72L132.66,102.85L132.71,102.99L132.67,103.14L132.55,103.27L132.37,103.37L132.27,103.40L132.38,103.34L132.46,103.24L132.49,103.14L132.45,103.03L132.36,102.94L132.22,102.87L132.05,102.83L132.04,102.83L131.86,102.82L131.68,102.85L131.53,102.91L131.41,103.00L131.36,103.10L131.36,103.21L131.43,103.31L131.55,103.39L131.63,103.42L131.63,103.42"/><path d="M131.63,103.42L131.88,103.45L132.13,103.44L132.27,103.40"/><path d="M131.15,103.07L131.22,102.94L131.38,102.82L131.59,102.74L131.84,102.70L132.09,102.71L132.33,102.76L132.53,102.86L132.66,102.99L132.58,102.91"/><path d="M132.99,103.31L132.99,103.49L132.92,103.65L132.78,103.79L132.95,103.68L133.15,103.58"/><path d="M132.66,102.99L132.69,103.07"/></g><g style="stroke:#000000;stroke-width:0.529"><path d="M131.13,104.75L131.05,104.69L130.94,104.55L130.83,104.39L130.69,104.15L130.69,103.43L130.86,103.25L130.86,103.06L130.87,103.02L130.97,102.83L131.00,102.79L131.20,102.63L131.23,102.62L131.50,102.51L131.81,102.46L132.14,102.47L132.45,102.54L132.69,102.67L132.72,102.68L132.89,102.85L132.92,102.89L132.98,103.08L132.99,103.13L132.99,103.31L133.02,103.35L133.15,103.58L133.15,104.31L132.95,104.52L132.78,104.67L132.62,104.79L132.42,104.88L132.08,104.92L131.80,104.92L131.52,104.88L131.19,104.80L131.13,104.75"/></g></g><g id="Actor_6.3"><g style="stroke:#000000;stroke-width:0.176"><path d="M135.90,121.89L123.97,128.73L123.50,128.46"/><path d="M140.71,119.13L141.56,118.64"/><path d="M144.02,117.23L160.31,107.89"/><path d="M165.12,105.13L165.98,104.64"/><path d="M168.43,103.23L171.29,101.59"/></g><g style="stroke:#000000;stroke-width:0.529"><path d="M123.50,129.00L123.50,128.46L135.90,121.35"/><path d="M143.55,116.96L160.31,107.34"/><path d="M171.29,101.59L170.81,101.32L167.96,102.96"/></g></g><g id="Actor_3.6"><g style="stroke:#000000;stroke-width:0.176"><path d="M135.42,167.87L135.42,168.00L135.42,168.01"/><path d="M135.42,161.04L135.45,161.17L135.56,161.28L135.61,161.30L135.72,161.36L135.92,161.41L136.14,161.42L136.35,161.39L136.54,161.32L136.67,161.22L136.75,161.10"/><path d="M136.46,160.71L136.58,160.80L136.64,160.90L136.64,161.00L136.58,161.10L136.46,161.19L136.31,161.24L136.13,161.27L135.95,161.26L135.78,161.22L135.65,161.15L135.56,161.05L135.53,160.95L135.56,160.85L135.64,160.75"/><path d="M136.75,167.96L136.75,167.95L136.75,167.94L136.75,168.03"/><path d="M136.75,167.94L136.75,167.86"/></g><g style="stroke:#000000;stroke-width:0.529"><path d="M135.42,167.87L135.42,161.04L135.45,160.92L135.56,160.81L135.64,160.75L135.78,160.68L135.95,160.64L136.13,160.63L136.31,160.66L136.46,160.71L136.54,160.76L136.67,160.86L136.75,160.98L136.75,167.86"/></g></g><g id="Actor_3.7"><g style="stroke:#000000;stroke-width:0.176"><path d="M172.70,138.88L172.70,139.01L172.70,139.02"/><path d="M172.70,132.06L172.74,132.18L172.84,132.29L173.00,132.38L173.21,132.43L173.43,132.44L173.64,132.41L173.82,132.34L173.96,132.24L174.03,132.12"/><path d="M173.75,131.73L173.86,131.81L173.92,131.91L173.92,132.02L173.86,132.12L173.75,132.20L173.72,132.21L173.59,132.26L173.42,132.29L173.23,132.28L173.06,132.23L172.93,132.16L172.84,132.07L172.81,131.97L172.84,131.86L172.93,131.77"/><path d="M174.04,138.98L174.03,138.96L174.03,138.95L174.03,139.04"/><path d="M174.03,138.95L174.03,138.88"/></g><g style="stroke:#000000;stroke-width:0.529"><path d="M172.70,138.88L172.70,132.06L172.74,131.93L172.84,131.82L172.93,131.77L173.06,131.70L173.23,131.66L173.41,131.65L173.59,131.67L173.75,131.73L173.82,131.77L173.96,131.87L174.03,131.99L174.03,138.88"/></g></g><g id="Actor_3.8"><g style="stroke:#000000;stroke-width:0.176"><path d="M87.35,195.44L87.35,195.59"/><path d="M88.68,188.63L88.64,188.75L88.53,188.86L88.36,188.94L88.15,188.99L87.93,188.99L87.72,188.96L87.54,188.88L87.41,188.78L87.35,188.66"/><path d="M88.47,188.34L88.55,188.43L88.57,188.54L88.53,188.64L88.44,188.73L88.30,188.80L88.13,188.84L87.95,188.84L87.77,188.81L87.62,188.75L87.51,188.66L87.46,188.56L87.47,188.46L87.53,188.36L87.65,188.28"/><path d="M88.68,195.59L88.68,195.44"/></g><g style="stroke:#000000;stroke-width:0.529"><path d="M88.68,195.44L88.68,188.63L88.66,188.50L88.56,188.39L88.47,188.34L88.34,188.26L88.17,188.22L87.99,188.20L87.81,188.22L87.65,188.28L87.58,188.32L87.44,188.42L87.36,188.53L87.35,188.66L87.35,195.44"/></g></g><g id="Actor_1.5"><g style="stroke:#000000;stroke-width:0.176"><path d="M132.78,111.97L132.91,111.97L133.06,112.03L151.04,122.34L151.18,122.45L151.31,122.61L151.42,122.79L151.49,122.98L151.51,123.16L151.51,126.45"/><path d="M144.10,124.05L143.96,124.28L143.44,124.59L142.78,124.60L142.05,124.31L141.32,123.76L140.66,122.99L140.13,122.08L139.80,121.13L139.68,120.21L139.80,119.43L140.13,118.86L140.66,118.56L140.94,118.55"/><path d="M149.15,125.09L148.85,124.98L148.59,124.98L148.38,125.11L148.24,125.33L148.20,125.65L148.20,130.03"/></g><g style="stroke:#000000;stroke-width:0.529"><path d="M132.62,113.42L134.95,114.76L135.24,114.98L135.51,115.29L135.72,115.65L135.85,116.03L135.90,116.40L135.90,122.98L148.20,130.03L149.14,129.49L149.15,125.09L151.51,126.45L152.46,125.91L152.46,122.62L152.43,122.44L152.37,122.24L152.26,122.06L152.13,121.91L151.98,121.80L134.00,111.49L133.86,111.43L133.73,111.43L132.67,112.04L132.61,112.15L132.58,112.31L132.58,113.40L132.62,113.42"/><path d="M140.99,121.28L141.08,121.54L141.60,122.45L142.26,123.22L142.99,123.77L143.72,124.05L144.10,124.05L144.30,123.71L144.41,122.93L144.30,122.01L143.96,121.06L143.44,120.15L142.78,119.38L142.05,118.83L141.32,118.54L140.94,118.55L140.74,118.89L140.63,119.67L140.74,120.58L140.99,121.28"/></g></g><g id="Actor_3.9"><g style="stroke:#000000;stroke-width:0.176"><path d="M179.32,142.68L179.32,142.81L179.32,142.82"/><path d="M179.32,135.86L179.36,135.98L179.47,136.09L179.63,136.18L179.83,136.23L180.05,136.24L180.26,136.21L180.45,136.14L180.58,136.04L180.65,135.92"/><path d="M180.37,135.53L180.48,135.61L180.54,135.71L180.54,135.82L180.48,135.92L180.37,136.00L180.22,136.06L180.04,136.08L179.86,136.08L179.69,136.03L179.55,135.96L179.47,135.87L179.43,135.77L179.46,135.66L179.55,135.57"/><path d="M180.66,142.78L180.66,142.76L180.65,142.75L180.65,142.84"/><path d="M180.65,142.75L180.65,142.68"/></g><g style="stroke:#000000;stroke-width:0.529"><path d="M179.32,142.68L179.32,135.86L179.36,135.73L179.46,135.62L179.55,135.57L179.69,135.50L179.86,135.46L180.04,135.45L180.22,135.47L180.37,135.53L180.45,135.57L180.58,135.67L180.65,135.79L180.65,142.68"/></g></g><g id="Actor_3.10"><g style="stroke:#000000;stroke-width:0.176"><path d="M131.26,170.25L131.26,170.40"/><path d="M131.26,163.48L131.32,163.60L131.45,163.70L131.63,163.77L131.84,163.81L132.06,163.80L132.26,163.76L132.43,163.68L132.55,163.57L132.59,163.44"/><path d="M132.38,163.15L132.46,163.25L132.48,163.35L132.44,163.45L132.35,163.54L132.21,163.61L132.04,163.65L131.85,163.66L131.68,163.63L131.53,163.56L131.42,163.48L131.37,163.38L131.38,163.27L131.44,163.17L131.56,163.09"/><path d="M132.59,170.26L132.59,170.40"/></g><g style="stroke:#000000;stroke-width:0.529"><path d="M131.26,170.25L131.26,163.48L131.27,163.35L131.35,163.23L131.49,163.14L131.56,163.09L131.72,163.04L131.90,163.02L132.08,163.03L132.25,163.08L132.38,163.15L132.47,163.21L132.56,163.32L132.59,163.44L132.59,170.26"/></g></g><g id="Actor_3.11"><g style="stroke:#000000;stroke-width:0.176"><path d="M102.68,179.05L102.68,179.19"/><path d="M102.68,172.27L102.74,172.39L102.87,172.49L103.05,172.57L103.26,172.60L103.48,172.60L103.69,172.55L103.85,172.47L103.97,172.36L104.01,172.24"/><path d="M103.80,171.94L103.88,172.04L103.90,172.14L103.86,172.25L103.77,172.34L103.63,172.41L103.46,172.44L103.28,172.45L103.10,172.42L102.95,172.36L102.84,172.27L102.79,172.17L102.80,172.07L102.86,171.97L102.98,171.89"/><path d="M104.01,179.05L104.01,179.20"/></g><g style="stroke:#000000;stroke-width:0.529"><path d="M102.68,179.05L102.68,172.27L102.69,172.14L102.77,172.03L102.91,171.93L102.98,171.89L103.14,171.83L103.32,171.81L103.50,171.82L103.67,171.87L103.80,171.94L103.89,172.00L103.99,172.11L104.01,172.24L104.01,179.05"/></g></g><g id="Actor_4.11"><g style="stroke:#000000;stroke-width:0.176"><path d="M110.46,117.47L110.46,116.75L110.13,116.66L109.85,116.63L109.57,116.63L109.23,116.67L109.23,117.39"/><path d="M109.23,116.67L109.10,116.43L108.99,116.27L108.87,116.13L108.74,116.02"/><path d="M110.46,116.75L110.66,116.53L110.83,116.38L110.64,116.50L110.40,116.58L110.13,116.63L109.85,116.63L109.58,116.59L109.33,116.51L109.13,116.40L108.99,116.27L108.91,116.11L108.90,115.95L108.91,115.84"/><path d="M109.60,115.98L109.67,116.01L109.92,116.04L110.18,116.03L110.41,115.97L110.60,115.86L110.72,115.73L110.75,115.58L110.70,115.44L110.57,115.31L110.38,115.21L110.14,115.16L109.88,115.15L109.63,115.19L109.42,115.27L109.27,115.39L109.19,115.53L109.20,115.68L109.29,115.82L109.45,115.93L109.60,115.98"/><path d="M109.68,116.01L109.59,115.98L109.48,115.90L109.41,115.80L109.40,115.69L109.46,115.59L109.57,115.50L109.73,115.44L109.91,115.41L110.09,115.42L110.27,115.46L110.41,115.53L110.50,115.62L110.54,115.73L110.51,115.83L110.43,115.93L110.31,115.99"/><path d="M110.73,115.67L110.70,115.58L110.57,115.45L110.38,115.35L110.14,115.30L109.88,115.29L109.63,115.33L109.42,115.41L109.27,115.53L109.20,115.66"/><path d="M111.04,115.90L111.03,116.09L110.96,116.24L110.83,116.38L111.00,116.27L111.20,116.18"/><path d="M110.63,115.50L110.70,115.58"/></g><g style="stroke:#000000;stroke-width:0.529"><path d="M109.23,117.39L109.10,117.28L108.99,117.15L108.87,116.98L108.74,116.74L108.74,116.02L108.91,115.84L108.91,115.65L108.92,115.61L109.02,115.42L109.04,115.38L109.25,115.23L109.27,115.21L109.54,115.10L109.86,115.05L110.19,115.06L110.49,115.13L110.74,115.26L110.77,115.28L110.94,115.45L110.96,115.48L111.03,115.68L111.04,115.72L111.04,115.90L111.06,115.94L111.20,116.18L111.20,116.90L111.00,117.11L110.83,117.26L110.66,117.38L110.46,117.47L110.13,117.51L109.85,117.51L109.57,117.48L109.23,117.39"/></g></g><g><g><path style="stroke:#000000;stroke-width:0.125;stroke-dasharray:2.2 1.5 0.7 1.5" d="M173.37,122.16L173.37,131.97"/></g></g><g><g><path style="stroke:#000000;stroke-width:0.125;stroke-dasharray:2.2 1.5 0.7 1.5" d="M179.99,118.36L179.99,135.77"/></g></g><g><g><path style="stroke:#000000;stroke-width:0.125;stroke-dasharray:2.2 1.5 0.7 1.5" d="M151.42,134.75L151.42,144.56"/></g></g><g><g><path style="stroke:#000000;stroke-width:0.125;stroke-dasharray:2.2 1.5 0.7 1.5" d="M173.37,104.09L173.37,73.55"/></g></g><g><g><path style="stroke:#000000;stroke-width:0.125;stroke-dasharray:2.2 1.5 0.7 1.5" d="M158.04,130.95L158.04,148.36"/></g></g><g><g><path style="stroke:#000000;stroke-width:0.125;stroke-dasharray:2.2 1.5 0.7 1.5" d="M179.99,107.89L179.99,77.35"/></g></g><g><g><path style="stroke:#000000;stroke-width:0.125;stroke-dasharray:2.2 1.5 0.7 1.5" d="M129.46,147.34L129.46,157.16"/></g></g><g><g><path style="stroke:#000000;stroke-width:0.125;stroke-dasharray:2.2 1.5 0.7 1.5" d="M125.31,149.73L125.31,159.54"/></g></g><g><g><path style="stroke:#000000;stroke-width:0.125;stroke-dasharray:2.2 1.5 0.7 1.5" d="M151.42,116.68L151.42,86.15"/></g></g><g><g><path style="stroke:#000000;stroke-width:0.125;stroke-dasharray:2.2 1.5 0.7 1.5" d="M136.09,143.55L136.09,160.96"/></g></g><g><g><path style="stroke:#000000;stroke-width:0.125;stroke-dasharray:2.2 1.5 0.7 1.5" d="M131.93,145.93L131.93,163.34"/></g></g><g><g><path style="stroke:#000000;stroke-width:0.125;stroke-dasharray:2.2 1.5 0.7 1.5" d="M158.04,120.48L158.04,89.95"/></g></g><g><g><path style="stroke:#000000;stroke-width:0.125;stroke-dasharray:2.2 1.5 0.7 1.5" d="M103.35,162.32L103.35,172.13"/></g></g><g><g><path style="stroke:#000000;stroke-width:0.125;stroke-dasharray:2.2 1.5 0.7 1.5" d="M129.46,129.27L129.46,98.74"/></g></g><g><g><path style="stroke:#000000;stroke-width:0.125;stroke-dasharray:2.2 1.5 0.7 1.5" d="M125.30,131.66L125.30,101.12"/></g></g><g><g><path style="stroke:#000000;stroke-width:0.125;stroke-dasharray:2.2 1.5 0.7 1.5" d="M109.98,158.52L109.98,175.93"/></g></g><g><g><path style="stroke:#000000;stroke-width:0.125;stroke-dasharray:2.2 1.5 0.7 1.5" d="M136.09,133.07L136.09,102.54"/></g></g><g><g><path style="stroke:#000000;stroke-width:0.125;stroke-dasharray:2.2 1.5 0.7 1.5" d="M131.92,135.46L131.92,104.92"/></g></g><g><g><path style="stroke:#000000;stroke-width:0.125;stroke-dasharray:2.2 1.5 0.7 1.5" d="M81.40,165.37L81.40,184.73"/></g></g><g><g><path style="stroke:#000000;stroke-width:0.125;stroke-dasharray:2.2 1.5 0.7 1.5" d="M103.34,144.25L103.34,113.71"/></g></g><g><g><path style="stroke:#000000;stroke-width:0.125;stroke-dasharray:2.2 1.5 0.7 1.5" d="M88.02,169.17L88.02,188.52"/></g></g><g><g><path style="stroke:#000000;stroke-width:0.125;stroke-dasharray:2.2 1.5 0.7 1.5" d="M109.97,148.05L109.97,117.51"/></g></g><g><g><path style="stroke:#000000;stroke-width:0.125;stroke-dasharray:2.2 1.5 0.7 1.5" d="M81.39,156.84L81.39,126.30"/></g></g><g><g><path style="stroke:#000000;stroke-width:0.125;stroke-dasharray:2.2 1.5 0.7 1.5" d="M88.01,160.64L88.01,130.10"/></g></g><g><g><path style="stroke:#000000;stroke-width:0.125" d="M190.44,166.97L161.78,148.63"/></g><g><path style="fill:#000000" d="M162.53,148.63L162.53,148.56L162.52,148.49L162.50,148.42L162.47,148.35L162.44,148.28L162.41,148.22L162.36,148.16L162.31,148.10L162.26,148.05L162.20,148.01L162.14,147.97L162.07,147.94L162.00,147.92L161.93,147.90L161.86,147.89L161.78,147.88L161.71,147.89L161.64,147.90L161.56,147.92L161.49,147.94L161.43,147.97L161.36,148.01L161.31,148.05L161.25,148.10L161.20,148.16L161.16,148.22L161.12,148.28L161.09,148.35L161.06,148.42L161.05,148.49L161.04,148.56L161.03,148.63L161.04,148.71L161.05,148.78L161.06,148.85L161.09,148.92L161.12,148.99L161.16,149.05L161.20,149.11L161.25,149.16L161.31,149.21L161.36,149.26L161.43,149.30L161.49,149.33L161.56,149.35L161.64,149.37L161.71,149.38L161.78,149.38L161.86,149.38L161.93,149.37L162.00,149.35L162.07,149.33L162.14,149.30L162.20,149.26L162.26,149.21L162.31,149.16L162.36,149.11L162.41,149.05L162.44,148.99L162.47,148.92L162.50,148.85L162.52,148.78L162.53,148.71z"/></g><g><text xml:space="preserve" fill="#000000" stroke-width="0" x="188.14" y="172.40" font-size="3.77" opacity="1.00" font-family="Arial">KIT0010</text></g></g><g><g><path style="stroke:#000000;stroke-width:0.125" d="M136.03,197.07L98.27,185.60"/></g><g><path style="fill:#000000" d="M99.02,185.60L99.01,185.53L99.00,185.46L98.98,185.39L98.96,185.32L98.93,185.25L98.89,185.19L98.85,185.13L98.80,185.07L98.74,185.02L98.68,184.98L98.62,184.94L98.55,184.91L98.48,184.89L98.41,184.87L98.34,184.86L98.27,184.85L98.19,184.86L98.12,184.87L98.05,184.89L97.98,184.91L97.91,184.94L97.85,184.98L97.79,185.02L97.74,185.07L97.69,185.13L97.64,185.19L97.60,185.25L97.57,185.32L97.55,185.39L97.53,185.46L97.52,185.53L97.52,185.60L97.52,185.68L97.53,185.75L97.55,185.82L97.57,185.89L97.60,185.96L97.64,186.02L97.69,186.08L97.74,186.13L97.79,186.18L97.85,186.23L97.91,186.26L97.98,186.30L98.05,186.32L98.12,186.34L98.19,186.35L98.27,186.35L98.34,186.35L98.41,186.34L98.48,186.32L98.55,186.30L98.62,186.26L98.68,186.23L98.74,186.18L98.80,186.13L98.85,186.08L98.89,186.02L98.93,185.96L98.96,185.89L98.98,185.82L99.00,185.75L99.01,185.68z"/></g><g><text xml:space="preserve" fill="#000000" stroke-width="0" x="136.81" y="201.81" font-size="3.77" opacity="1.00" font-family="Arial">KIT0010</text></g></g><g/><g><g/><g><text xml:space="preserve" fill="#000000" stroke-width="0" x="7.19" y="11.52" font-size="4.53" opacity="1.00" font-family="Arial" font-weight="bold">BPA27704</text></g></g><g id="paperID" visibility="hidden" opacity="0.00" transform="scale(0.000100)"><path style="stroke:#000000;stroke-width:0.500;fill:#e6e6e6;fill-rule:evenodd" d="M-2000.00,-2000.00L2297.00,-2000.00L2297.00,2210.00L-2000.00,2210.00zM0.00,0.00L297.00,0.00L297.00,210.00L0.00,210.00z"/><path style="fill:#000000;fill-opacity:0.118" d="M3.00,210.00L297.00,210.00L297.00,3.00L300.00,3.00L300.00,213.00L3.00,213.00z"/></g><g id="hotspot.0" onmouseover="ShowHotSpot(evt,'0')" onmouseout="HideHotSpot(evt,'0')" onmousemove="ShowToolTip(evt,'0',&quot;Hotspot 1&quot;)" opacity="0"><path style="fill:#00ff00;fill-rule:evenodd" d="M126.19,99.03L126.52,99.79L126.53,100.59L125.93,101.08L124.86,101.08L124.33,100.88L124.13,100.54L124.13,99.47L124.63,98.88L124.99,98.68L125.61,98.68zM132.74,102.70L133.10,103.44L133.04,104.54L132.31,104.92L131.63,104.92L130.90,104.54L130.90,102.96L131.56,102.52L132.37,102.52zM104.27,111.63L104.61,112.40L104.62,113.01L103.82,113.69L102.95,113.69L102.42,113.48L102.21,113.14L102.22,112.08L102.52,111.47L103.69,111.28zM111.01,115.49L111.19,116.85L110.75,117.32L109.17,117.32L108.81,116.96L108.79,115.92L109.33,115.18L110.46,115.13zM82.15,124.07L82.50,124.81L82.51,125.80L81.90,126.29L81.03,126.29L80.31,125.91L80.30,124.68L80.60,124.07L80.97,123.89L81.78,123.89zM88.88,127.93L89.27,128.83L89.27,129.45L88.83,129.93L87.25,129.93L86.89,129.56L86.87,128.52L87.18,127.91L87.54,127.73L88.54,127.73zM125.98,159.69L126.10,164.69L131.29,167.61L131.44,163.23L132.39,163.15L132.57,163.33L132.73,168.47L137.32,171.19L137.48,172.13L137.42,173.04L109.64,188.92L109.41,189.22L109.09,189.29L90.30,200.08L89.45,200.06L75.87,192.28L75.91,191.17L76.22,190.56L80.69,187.91L80.85,184.60L81.79,184.52L81.97,184.71L82.14,187.18L102.59,175.47L102.76,171.99L103.71,171.92L103.89,172.10L104.05,174.58L123.70,163.36L124.52,163.78L124.63,159.52L124.99,159.32L125.61,159.32zM151.19,199.70L151.19,201.24L150.75,201.90L149.88,201.92L149.52,201.55L149.28,200.27L149.62,199.30L149.83,199.15L150.83,199.14zM146.65,199.30L146.98,200.07L146.81,201.60L146.38,201.91L145.52,201.90L145.14,201.36L145.14,199.57L145.44,199.14L146.44,199.15zM144.79,199.89L144.80,201.24L144.36,201.90L143.49,201.91L143.15,201.71L142.95,201.18L142.95,199.75L143.24,199.14L144.44,199.14zM140.49,199.39L140.49,199.17L142.81,199.17L142.81,199.39L141.98,199.51L141.86,201.98L141.45,201.98L141.32,199.51zM147.45,200.13L147.46,199.72L148.21,199.12L148.43,199.14L148.42,201.99L148.21,201.99L148.07,200.05zM137.66,200.15L138.69,199.14L139.30,199.14L138.33,200.24L139.34,201.73L139.31,201.97L138.76,201.90L138.01,200.80L137.67,200.84L137.47,201.98L137.06,201.98L137.06,199.14L137.47,199.13zM140.02,201.99L139.81,201.99L139.81,199.13L140.02,199.13zM150.65,199.68L150.58,201.36L150.03,201.42L149.87,201.19L149.87,199.74L150.03,199.51L150.46,199.49zM144.26,199.68L144.18,201.36L143.50,201.36L143.48,199.74L143.64,199.51L144.06,199.49zM146.44,199.87L146.44,201.06L146.24,201.42L145.69,201.36L145.69,199.57L146.24,199.51z"/></g><g id="hotspot.1" onmouseover="ShowHotSpot(evt,'1')" onmouseout="HideHotSpot(evt,'1')" onmousemove="ShowToolTip(evt,'1',&quot;Hotspot 1&quot;)" opacity="0"><path style="fill:#00ff00;fill-rule:evenodd" d="M174.38,71.66L174.58,73.01L173.97,73.50L172.90,73.50L172.34,73.15L172.37,71.54L173.03,71.10L173.65,71.10zM180.96,75.30L181.13,76.05L181.07,76.96L180.35,77.34L179.67,77.34L178.94,76.96L178.93,75.54L179.47,75.00L180.41,74.94zM152.47,84.25L152.48,85.81L151.86,86.10L150.99,86.10L150.45,85.91L150.25,85.37L150.25,84.50L150.75,83.90L151.11,83.70L151.73,83.70zM159.05,87.91L159.23,89.46L158.43,89.94L157.75,89.94L157.15,89.80L157.00,89.59L157.02,87.98L157.68,87.54L158.49,87.55zM130.55,96.86L130.54,98.39L129.94,98.70L129.07,98.71L128.54,98.51L128.33,98.16L128.34,97.10L128.64,96.49L129.81,96.31zM136.92,100.35L137.12,100.70L137.32,102.06L136.33,102.55L135.23,102.41L134.91,101.81L134.91,100.94L135.45,100.20L136.58,100.14zM174.01,131.94L174.13,137.11L179.33,140.03L179.48,135.64L180.43,135.57L180.61,135.75L180.77,140.89L185.35,143.62L185.52,144.36L185.46,145.46L138.22,172.58L137.83,172.71L137.46,172.14L137.32,171.19L132.73,168.47L132.57,163.33L132.39,163.15L131.44,163.23L131.29,167.61L126.10,164.69L126.15,161.95L128.65,160.43L128.88,157.02L129.83,156.94L130.01,157.12L130.17,159.60L150.63,147.89L150.75,144.54L151.11,144.34L151.73,144.34L152.10,144.71L152.22,146.81L152.95,146.55L171.84,135.78L172.56,136.20L172.73,132.00L173.03,131.74L173.65,131.74zM124.14,163.04L124.51,162.97L124.52,163.79L124.14,163.53zM202.51,170.29L202.52,171.83L202.08,172.49L201.21,172.51L200.84,172.14L200.61,170.86L200.95,169.89L201.15,169.74L202.16,169.73zM197.98,169.89L198.31,170.66L198.13,172.20L197.71,172.50L196.84,172.49L196.46,171.95L196.46,170.16L196.76,169.73L197.77,169.74zM196.11,170.48L196.12,171.83L195.69,172.49L194.82,172.50L194.48,172.30L194.27,171.77L194.27,170.35L194.57,169.73L195.77,169.73zM191.82,169.98L191.82,169.77L194.13,169.77L194.14,169.98L193.30,170.11L193.18,172.57L192.77,172.57L192.65,170.11zM198.78,170.73L198.78,170.32L199.53,169.71L199.76,169.73L199.75,172.58L199.54,172.58L199.40,170.64zM188.99,170.74L190.02,169.73L190.63,169.73L189.65,170.83L190.67,172.32L190.64,172.56L190.09,172.50L189.34,171.39L188.99,171.43L188.80,172.57L188.39,172.57L188.39,169.73L188.80,169.73zM191.35,172.58L191.14,172.58L191.14,169.72L191.35,169.72zM201.98,170.28L201.90,171.96L201.36,172.01L201.20,171.78L201.20,170.33L201.36,170.11L201.78,170.08zM195.59,170.28L195.51,171.95L194.83,171.95L194.81,170.33L194.97,170.11L195.39,170.08zM197.77,170.47L197.77,171.65L197.56,172.01L197.02,171.96L197.02,170.16L197.56,170.11z"/></g></g></svg>
