<?xml version="1.0" encoding="UTF-8" standalone="no"?>
<svg xmlns="http://www.w3.org/2000/svg" xmlns:xlink="http://www.w3.org/1999/xlink" width="297.000mm" height="210.000mm" viewBox="0.000000 0.000000 297.000000 210.000000" stroke-linejoin="round" stroke-linecap="round" fill="none" fill-rule="evenodd"><desc>Composer Export</desc><script type="text/ecmascript"><![CDATA[
if(typeof(top) != "undefined")
{
	top.ShowPaper = ShowPaper;
}
function ShowPaper()
{
  var svgDocument = getDocument();
  var paper = svgDocument.getElementById("paperID");
  if(paper)
  {
    paper.setAttribute("transform","scale(1)");
    paper.setAttribute("opacity","1");
    paper.setAttribute("visibility","visible");
  }
  var svg = svgDocument.getRootElement();
  if(svg)
  {
    svg.setAttribute("width","307.000mm");
    svg.setAttribute("height","220.000mm");
    svg.setAttribute("viewBox","-5.000000 -5.000000 307.000000 220.000000");
  }
}
]]></script><defs/><g><path style="fill:#000000;fill-opacity:0.098;fill-rule:evenodd" d="M208.18,74.77L208.18,75.38L207.61,76.66L206.16,76.41L203.79,73.84L203.18,73.85L202.63,74.04L201.35,74.95L200.51,75.94L199.40,77.75L198.84,79.77L198.84,80.24L202.49,81.90L203.06,83.16L203.98,83.56L204.31,83.54L204.27,83.17L206.70,83.43L207.19,81.53L208.18,80.14L209.20,79.51L209.83,79.33L208.90,77.68L208.90,77.13L209.65,77.85L210.91,80.43L210.90,81.40L210.73,82.14L210.18,83.23L208.67,84.65L207.38,84.81L205.05,84.82L203.43,83.72L199.76,85.79L199.21,85.93L196.49,84.26L193.87,80.41L194.08,80.41L196.48,81.76L199.41,74.10L205.00,70.91L205.44,70.90zM193.94,79.33L193.94,79.58L193.74,79.53L193.74,79.13zM180.24,123.16L180.23,123.79L179.66,125.07L178.22,124.81L175.84,122.24L175.10,122.31L173.40,123.36L172.57,124.35L171.45,126.15L170.89,128.17L170.89,128.64L174.55,130.31L175.12,131.56L175.83,131.95L176.37,131.94L176.32,131.57L178.76,131.84L179.25,129.93L180.24,128.54L181.25,127.91L181.88,127.74L180.89,125.87L181.14,125.72L181.70,126.26L182.96,128.83L182.96,129.81L182.78,130.54L182.23,131.64L180.72,133.05L179.61,133.22L177.11,133.23L175.48,132.12L171.81,134.20L171.27,134.33L168.54,132.66L165.92,128.81L166.13,128.81L168.54,130.16L171.46,122.51L177.06,119.32L177.49,119.31zM166.00,127.73L165.97,128.00L165.74,127.99L165.71,127.56zM208.19,139.61L208.18,140.03L207.62,141.31L206.16,141.25L204.88,139.79L203.81,138.52L203.61,138.56L202.26,139.06L201.33,139.78L200.15,141.15L199.21,142.95L198.78,144.96L199.02,145.10L202.33,146.54L203.06,147.82L203.58,148.21L204.32,148.18L204.29,148.01L206.71,148.07L207.19,146.37L207.91,145.26L208.89,144.41L209.80,144.07L208.85,142.14L209.26,142.15L209.81,142.71L210.91,145.27L210.91,146.25L210.36,147.71L209.29,149.01L208.30,149.49L206.65,149.66L205.42,149.67L203.98,148.91L203.60,148.54L203.36,148.54L199.71,150.58L199.02,150.59L196.83,149.30L194.10,145.61L194.03,145.27L194.27,145.24L196.14,146.37L196.46,146.44L199.49,138.85L205.20,135.56L205.41,135.59zM193.92,144.24L193.68,144.24L193.68,143.99L193.92,143.99zM154.10,148.07L98.39,180.05L98.39,61.31L153.87,29.44L154.10,29.45zM180.24,188.02L180.24,188.43L179.67,189.72L178.22,189.66L176.93,188.20L176.02,187.11L175.04,187.09L174.19,187.52L173.30,188.27L172.12,189.66L171.21,191.49L170.84,193.36L174.57,195.12L174.93,196.04L175.65,196.62L176.18,196.65L176.34,196.43L177.48,196.42L178.78,196.65L179.07,195.14L180.05,193.57L181.07,192.76L181.87,192.39L180.96,190.93L180.95,190.38L181.71,190.91L182.96,193.67L182.96,194.47L182.54,195.88L181.52,197.22L180.54,197.89L178.88,198.06L177.47,198.07L176.22,197.50L175.66,196.95L175.42,196.94L171.76,198.99L171.08,198.99L168.89,197.71L167.82,196.40L166.15,194.02L166.09,193.67L166.32,193.65L168.17,194.80L168.52,194.84L171.54,187.25L177.25,183.97L177.47,183.99zM165.97,192.64L165.73,192.64L165.73,192.40L165.97,192.40zM148.44,41.70L148.81,42.25L148.80,44.14L148.25,45.97L146.90,48.27L145.08,49.91L143.45,50.49L142.78,50.48L142.05,50.29L141.31,49.38L141.12,49.02L140.88,47.56L141.27,45.74L141.68,44.51L142.43,43.25L143.81,41.52L145.63,40.41L146.25,40.41zM209.47,81.51L209.46,82.14L209.02,82.80L208.29,82.88L208.35,81.77L208.84,81.32L209.27,81.31zM120.51,90.10L120.86,90.84L120.86,92.36L120.68,93.28L119.76,95.47L118.50,97.13L117.12,98.31L115.70,98.89L114.63,98.89L113.93,98.50L113.18,97.43L112.94,95.97L113.49,93.40L114.84,91.10L116.31,89.64L117.33,89.02L118.30,88.81zM148.61,106.56L148.81,107.09L148.80,108.80L148.44,110.27L147.89,111.36L146.61,113.37L145.35,114.48L144.01,115.15L142.40,115.15L141.69,114.76L141.12,113.87L140.88,112.41L141.26,110.39L142.33,108.17L143.43,106.72L145.09,105.45L146.09,105.09zM181.53,129.91L181.51,130.54L181.08,131.21L180.34,131.28L180.41,130.18L180.89,129.73L181.33,129.71zM209.44,146.18L209.45,146.99L208.85,147.68L208.35,147.67L208.34,146.60L208.89,146.04L209.11,146.00zM120.66,154.97L120.86,155.50L120.86,157.21L120.44,158.80L118.85,161.59L117.40,162.89L116.06,163.55L114.27,163.55L113.57,162.98L113.18,162.27L112.93,160.63L113.32,158.80L114.38,156.58L115.49,155.12L117.14,153.86L118.14,153.50zM181.49,194.59L181.50,195.39L180.91,196.08L180.35,196.13L180.39,195.00L180.94,194.45L181.16,194.41z"/><g id="Actor_.0"><g style="stroke:#000000;stroke-width:0.176"><path d="M205.33,70.71L199.41,74.10L196.45,81.74L193.66,80.13"/><path d="M199.41,74.10L196.62,72.50L193.82,79.72"/><path d="M199.41,85.98L196.45,81.74"/><path d="M196.62,72.50L200.07,70.52"/><path d="M201.54,82.80L201.93,82.77L201.44,82.89L200.78,82.98L200.18,82.90L199.67,82.63L199.26,82.21L198.97,81.63L198.81,80.93L198.79,80.13L198.90,79.26L199.15,78.35L199.52,77.44L200.00,76.57L200.57,75.77L201.22,75.07L201.90,74.49L202.60,74.06L203.30,73.79L203.96,73.70L204.56,73.79L205.07,74.05L205.48,74.48L205.77,75.06L205.97,75.75L206.08,75.98L206.06,75.94"/><path d="M200.07,70.52L200.07,70.52"/><path d="M206.20,76.27L206.46,76.54L205.55,76.67L205.07,76.85L204.59,77.15L204.12,77.55L203.68,78.03L203.28,78.58L202.95,79.18L202.70,79.81L202.53,80.43L202.45,81.03L202.46,81.58L202.57,82.06L202.91,82.85L203.21,83.28L203.48,83.64"/><path d="M202.63,82.74L202.80,82.78L202.30,82.74L201.93,82.77"/><path d="M202.80,82.78L202.89,82.80"/><path d="M210.85,80.19L210.58,79.70L210.46,79.62L210.16,79.41L209.62,79.36L209.01,79.55L208.38,79.96L207.80,80.56L207.31,81.29L206.96,82.09L206.78,82.89L206.78,83.61L206.96,84.20L207.31,84.59L207.80,84.76"/><path d="M207.63,76.64L207.03,76.57L206.51,76.53L206.46,76.54"/><path d="M206.08,75.98L206.47,76.54"/><path d="M208.17,82.27L208.16,82.55L208.22,82.77L208.35,82.91L208.53,82.96L208.75,82.92L208.98,82.78L209.20,82.56L209.38,82.29L209.50,81.99L209.55,81.70L209.52,81.45L209.42,81.27L209.26,81.17L209.08,81.17L209.06,81.17L208.83,81.26L208.61,81.44L208.41,81.69L208.25,81.98L208.17,82.27"/></g><g style="stroke:#000000;stroke-width:0.529"><path d="M200.07,70.52L199.24,70.25L198.28,70.35L197.25,70.78L196.21,71.53L195.25,72.54L194.42,73.75L193.79,75.07L193.40,76.40L193.39,76.42L193.25,77.69L193.39,78.81L193.79,79.70L193.82,79.72"/><path d="M203.48,83.64L199.41,85.98L196.62,84.37L193.66,80.13L193.82,79.72"/><path d="M200.07,70.52L202.53,69.11L205.33,70.71L208.29,74.95L207.63,76.64"/><path d="M207.63,76.64L207.72,76.66L208.36,76.91L208.85,77.13L209.42,77.54L209.80,77.93L210.06,78.46L210.85,80.19L210.95,80.86L210.85,81.63L210.58,82.43L210.16,83.21L209.90,83.56L209.62,83.88L209.01,84.39L208.38,84.69L207.80,84.76L206.38,84.92L205.78,84.97L205.26,84.84L204.62,84.56L204.18,84.25L203.63,83.83L203.48,83.64"/></g></g><g id="Actor_.1"><g style="stroke:#000000;stroke-width:0.176"><path d="M199.41,150.74L196.45,146.50L193.66,144.90"/><path d="M193.82,144.49L196.62,137.26L199.41,138.87L196.45,146.50"/><path d="M196.62,137.26L200.07,135.28"/><path d="M201.54,147.57L201.93,147.53L201.44,147.66L200.78,147.75L200.18,147.66L199.67,147.40L199.26,146.97L198.97,146.39L198.81,145.69L198.79,144.89L198.90,144.02L199.15,143.11L199.52,142.21L200.00,141.34L200.57,140.53L201.22,139.83L201.90,139.25L202.60,138.82L203.30,138.56L203.96,138.47L204.56,138.55L205.07,138.82L205.48,139.24L205.77,139.82L205.97,140.52L206.08,140.75L206.06,140.71"/><path d="M199.41,138.87L205.33,135.47"/><path d="M200.07,135.28L200.07,135.28"/><path d="M206.20,141.03L206.46,141.30L205.55,141.44L205.07,141.62L204.59,141.91L204.12,142.31L203.68,142.80L203.28,143.35L202.95,143.95L202.70,144.57L202.53,145.19L202.45,145.79L202.46,146.35L202.57,146.83L202.91,147.62L203.21,148.04L203.48,148.40"/><path d="M202.63,147.51L202.80,147.55L202.30,147.51L201.93,147.53"/><path d="M202.80,147.55L202.89,147.57"/><path d="M210.85,144.96L210.58,144.46L210.16,144.18L209.62,144.12L209.01,144.31L208.38,144.72L207.80,145.32L207.31,146.05L206.96,146.85L206.78,147.65L206.78,148.38L206.96,148.96L207.31,149.36L207.80,149.53"/><path d="M206.46,141.30L206.51,141.30L207.03,141.33L207.63,141.41"/><path d="M206.08,140.75L206.47,141.30"/><path d="M208.36,147.68L208.35,147.68L208.22,147.53L208.16,147.31L208.17,147.04L208.25,146.74L208.41,146.45L208.61,146.21L208.81,146.04L208.83,146.03L209.06,145.93L209.26,145.93L209.42,146.03L209.52,146.22L209.55,146.47L209.50,146.76L209.38,147.05L209.20,147.33L208.98,147.54L208.75,147.68L208.53,147.73L208.36,147.68"/></g><g style="stroke:#000000;stroke-width:0.529"><path d="M200.07,135.28L199.24,135.02L198.28,135.11L197.24,135.54L196.21,136.29L195.25,137.31L194.42,138.52L193.79,139.84L193.39,141.18L193.25,142.46L193.39,143.58L193.79,144.46L193.82,144.49"/><path d="M203.48,148.40L199.41,150.74L196.62,149.14L193.66,144.90L193.82,144.49"/><path d="M207.63,141.41L208.29,139.71L205.33,135.47L202.53,133.87L200.07,135.28"/><path d="M206.09,149.71L205.78,149.73L205.26,149.61L204.62,149.32L204.18,149.02L203.63,148.59L203.48,148.40"/><path d="M207.06,149.61L207.80,149.53L208.38,149.46L209.01,149.16L209.62,148.65L209.90,148.33L210.16,147.97L210.58,147.20L210.85,146.39L210.95,145.62L210.85,144.96L210.06,143.22L209.80,142.69L209.42,142.31L208.85,141.90L208.36,141.68L207.72,141.42L207.63,141.41"/></g></g><g id="Actor_.2"><g style="stroke:#000000;stroke-width:0.176"><path d="M154.21,29.24L98.30,61.30L79.67,50.61"/><path d="M98.30,180.04L98.30,61.30"/><path d="M113.97,163.30L113.48,162.85L113.08,161.96L112.95,160.84L113.08,159.57L113.48,158.22L114.12,156.90L114.94,155.69L115.90,154.68L116.94,153.93L117.97,153.50L118.91,153.41L119.76,153.67L120.39,154.26L120.79,155.15L120.93,156.26L120.79,157.54L120.39,158.88L119.76,160.21L118.93,161.41L117.97,162.43L116.94,163.18L115.90,163.61L114.94,163.70L114.12,163.44L113.97,163.30"/><path d="M113.97,98.54L113.48,98.08L113.08,97.20L112.95,96.08L113.08,94.80L113.48,93.46L114.12,92.14L114.94,90.93L115.90,89.92L116.94,89.17L117.97,88.73L118.91,88.64L119.76,88.90L120.39,89.50L120.79,90.38L120.93,91.50L120.79,92.77L120.39,94.12L119.76,95.44L118.93,96.65L117.97,97.66L116.94,98.41L115.90,98.85L114.94,98.94L114.12,98.68L113.97,98.54"/><path d="M141.59,114.58L141.43,114.43L141.04,113.55L140.90,112.43L141.04,111.15L141.43,109.81L142.07,108.49L142.89,107.28L143.86,106.26L144.89,105.51L145.92,105.08L146.89,104.99L147.71,105.25L148.35,105.84L148.75,106.73L148.88,107.85L148.75,109.13L148.35,110.47L147.71,111.79L146.89,113.00L145.92,114.01L144.89,114.76L143.86,115.20L142.89,115.29L142.07,115.03L141.59,114.58"/><path d="M141.43,49.67L141.04,48.78L140.90,47.66L141.04,46.39L141.43,45.04L142.07,43.72L142.89,42.51L143.86,41.50L144.89,40.75L145.92,40.32L146.20,40.29L146.89,40.23L147.71,40.49L148.35,41.08L148.75,41.97L148.88,43.09L148.75,44.36L148.35,45.70L147.71,47.02L146.89,48.23L145.92,49.25L144.89,50.00L143.86,50.43L142.89,50.52L142.07,50.26L141.43,49.67"/></g><g style="stroke:#000000;stroke-width:0.529"><path d="M80.58,169.87L79.67,169.35L79.67,50.61L135.57,18.55L154.21,29.24L154.21,147.97L98.30,180.04L80.58,169.87"/></g></g><g id="Actor_.3"><g style="stroke:#000000;stroke-width:0.176"><path d="M172.12,118.93L168.66,120.92L171.46,122.52L168.50,130.15L165.70,128.55"/><path d="M168.66,120.92L165.86,128.14"/><path d="M171.46,134.39L168.50,130.15"/><path d="M178.10,124.36L178.13,124.40L178.02,124.17L177.82,123.47L177.53,122.89L177.12,122.47L176.60,122.20L176.00,122.12L175.35,122.21L174.65,122.47L173.95,122.90L173.26,123.48L172.67,124.13L172.62,124.19L172.05,124.99L171.57,125.86L171.20,126.77L170.95,127.67L170.83,128.54L170.85,129.23L170.86,129.34L171.02,130.05L171.31,130.62L171.72,131.05L172.23,131.31L172.83,131.40L173.49,131.31L173.97,131.19L173.58,131.22"/><path d="M171.46,122.52L177.38,119.12"/><path d="M172.12,118.93L172.11,118.93"/><path d="M175.53,132.06L175.25,131.70L174.95,131.27L174.62,130.48L174.51,130.00L174.49,129.44L174.57,128.84L174.74,128.22L175.00,127.60L175.33,127.00L175.72,126.45L176.17,125.96L176.64,125.57L177.12,125.27L177.60,125.09L178.51,124.95L178.25,124.68"/><path d="M174.68,131.16L174.93,131.22"/><path d="M174.85,131.20L174.35,131.16L173.97,131.19"/><path d="M178.13,124.40L178.52,124.95L178.51,124.95"/><path d="M179.85,133.18L179.36,133.01L179.01,132.61L178.82,132.03L178.82,131.30L179.01,130.51L179.36,129.71L179.85,128.97L180.43,128.38L181.05,127.96L181.66,127.78L182.20,127.83L182.63,128.11L182.90,128.61"/><path d="M178.52,124.95L178.56,124.95L179.08,124.98L179.68,125.06"/><path d="M180.40,131.33L180.58,131.38L180.80,131.33L181.03,131.19L181.25,130.98L181.42,130.70L181.54,130.41L181.59,130.12L181.57,129.87L181.47,129.68L181.31,129.59L181.11,129.58L180.88,129.68L180.65,129.86L180.45,130.11L180.31,130.38L180.22,130.69L180.20,130.96L180.27,131.18L180.40,131.33"/></g><g style="stroke:#000000;stroke-width:0.529"><path d="M175.53,132.06L171.46,134.39L168.66,132.79L165.70,128.55L165.86,128.14"/><path d="M165.86,128.14L165.84,128.11L165.44,127.23L165.30,126.11L165.44,124.83L165.84,123.49L166.47,122.17L167.30,120.96L168.21,120.00L168.26,119.95L169.29,119.20L170.32,118.76L171.29,118.67L172.12,118.93"/><path d="M179.68,125.06L180.33,123.36L177.38,119.12L174.58,117.52L172.12,118.93"/><path d="M179.68,125.06L179.77,125.07L180.41,125.33L180.90,125.55L181.47,125.96L181.85,126.34L182.11,126.87L182.90,128.61L182.99,129.27L182.90,130.04L182.63,130.85L182.20,131.62L181.95,131.98L181.66,132.30L181.05,132.81L180.43,133.11L179.85,133.18L178.42,133.33L177.83,133.39L177.30,133.26L176.66,132.98L176.22,132.67L175.68,132.24L175.53,132.06"/></g></g><g id="Actor_.4"><g style="stroke:#000000;stroke-width:0.176"><path d="M171.46,199.16L168.50,194.92L165.70,193.31"/><path d="M168.50,194.92L171.46,187.28L168.66,185.68L165.86,192.90"/><path d="M172.12,183.70L168.66,185.68"/><path d="M178.10,189.12L178.13,189.16L178.02,188.93L177.82,188.24L177.53,187.66L177.12,187.23L176.60,186.97L176.00,186.88L175.35,186.97L174.65,187.24L173.95,187.67L173.26,188.25L172.67,188.89L172.62,188.95L172.05,189.75L171.57,190.62L171.20,191.53L170.95,192.44L170.83,193.31L170.85,193.85L170.86,194.11L171.02,194.81L171.31,195.39L171.72,195.81L172.23,196.08L172.83,196.16L173.49,196.07L173.97,195.95L173.58,195.98"/><path d="M171.46,187.28L177.38,183.89"/><path d="M172.11,183.70L172.12,183.70"/><path d="M178.25,189.45L178.51,189.72L177.60,189.85L177.12,190.03L176.64,190.33L176.17,190.73L175.72,191.21L175.33,191.76L175.00,192.36L174.74,192.99L174.57,193.61L174.49,194.21L174.51,194.76L174.62,195.24L174.95,196.03L175.25,196.46L175.53,196.82"/><path d="M174.93,195.98L174.68,195.92"/><path d="M174.85,195.96L174.35,195.92L173.97,195.95"/><path d="M178.13,189.16L178.52,189.72L178.51,189.72"/><path d="M182.90,193.38L182.63,192.88L182.20,192.59L181.66,192.54L181.05,192.73L180.43,193.14L179.85,193.74L179.36,194.47L179.01,195.27L178.82,196.07L178.82,196.79L179.01,197.38L179.36,197.77L179.85,197.94"/><path d="M178.52,189.72L178.56,189.71L179.08,189.75L179.68,189.82"/><path d="M180.58,196.14L180.80,196.10L181.03,195.96L181.25,195.74L181.42,195.47L181.54,195.17L181.59,194.88L181.57,194.63L181.47,194.45L181.31,194.35L181.11,194.35L180.88,194.44L180.65,194.62L180.63,194.65L180.45,194.87L180.30,195.16L180.22,195.45L180.21,195.49L180.20,195.73L180.27,195.95L180.40,196.09L180.58,196.14"/></g><g style="stroke:#000000;stroke-width:0.529"><path d="M175.53,196.82L171.46,199.16L168.66,197.55L165.70,193.31L165.86,192.90"/><path d="M172.12,183.70L171.29,183.44L170.32,183.53L169.29,183.96L168.26,184.71L167.30,185.72L166.47,186.93L165.84,188.25L165.44,189.60L165.30,190.87L165.44,191.99L165.84,192.88L165.86,192.90"/><path d="M179.68,189.82L180.33,188.13L177.38,183.89L174.58,182.29L172.12,183.70"/><path d="M179.68,189.82L179.77,189.84L180.41,190.09L180.90,190.31L181.47,190.72L181.85,191.11L182.11,191.64L182.90,193.38L182.99,194.04L182.90,194.81L182.63,195.61L182.20,196.39L181.95,196.74L181.66,197.06L181.05,197.57L180.43,197.88L179.85,197.94L178.42,198.10L177.83,198.15L177.30,198.02L176.66,197.74L176.22,197.43L175.68,197.01L175.53,196.82"/></g></g><g><g><path style="stroke:#000000;stroke-width:0.125;stroke-dasharray:2.2 1.5 0.7 1.5" d="M148.36,112.13L166.34,122.44"/><path style="stroke:#000000;stroke-width:0.125;stroke-dasharray:2.2 1.5 0.7 1.5" d="M182.24,131.56L194.41,138.54"/></g></g><g><g><path style="stroke:#000000;stroke-width:0.125;stroke-dasharray:2.2 1.5 0.7 1.5" d="M120.41,160.55L166.46,186.96"/></g></g><g><g><path style="stroke:#000000;stroke-width:0.125;stroke-dasharray:2.2 1.5 0.7 1.5" d="M148.36,47.37L194.41,73.78"/></g></g><g><g><path style="stroke:#000000;stroke-width:0.125;stroke-dasharray:2.2 1.5 0.7 1.5" d="M120.41,95.78L166.46,122.19"/></g></g><g id="PMI.0"><g><path style="stroke:#000000;stroke-width:0.125" d="M215.28,176.28L204.70,143.93"/></g><g><path style="fill:#000000" d="M205.45,143.93L205.45,143.86L205.44,143.78L205.42,143.71L205.39,143.64L205.36,143.58L205.32,143.51L205.28,143.46L205.23,143.40L205.18,143.35L205.12,143.31L205.05,143.27L204.99,143.24L204.92,143.21L204.85,143.20L204.77,143.18L204.70,143.18L204.63,143.18L204.55,143.20L204.48,143.21L204.41,143.24L204.35,143.27L204.28,143.31L204.23,143.35L204.17,143.40L204.12,143.46L204.08,143.51L204.04,143.58L204.01,143.64L203.98,143.71L203.97,143.78L203.95,143.86L203.95,143.93L203.95,144.00L203.97,144.08L203.98,144.15L204.01,144.22L204.04,144.28L204.08,144.35L204.12,144.41L204.17,144.46L204.23,144.51L204.28,144.55L204.35,144.59L204.41,144.62L204.48,144.65L204.55,144.67L204.63,144.68L204.70,144.68L204.77,144.68L204.85,144.67L204.92,144.65L204.99,144.62L205.05,144.59L205.12,144.55L205.18,144.51L205.23,144.46L205.28,144.41L205.32,144.35L205.36,144.28L205.39,144.22L205.42,144.15L205.44,144.08L205.45,144.00z"/></g><g><text xml:space="preserve" fill="#000000" stroke-width="0" x="207.86" y="181.72" font-size="3.81" opacity="1.00" font-family="Arial">MSR0055</text></g></g><g/><g><g/><g><text xml:space="preserve" fill="#000000" stroke-width="0" x="7.38" y="11.70" font-size="4.53" opacity="1.00" font-family="Arial" font-weight="bold">BPA27193</text></g></g><g id="paperID" visibility="hidden" opacity="0.00" transform="scale(0.000100)"><path style="stroke:#000000;stroke-width:0.500;fill:#e6e6e6;fill-rule:evenodd" d="M-2000.00,-2000.00L2297.00,-2000.00L2297.00,2210.00L-2000.00,2210.00zM0.00,0.00L297.00,0.00L297.00,210.00L0.00,210.00z"/><path style="fill:#000000;fill-opacity:0.118" d="M3.00,210.00L297.00,210.00L297.00,3.00L300.00,3.00L300.00,213.00L3.00,213.00z"/></g></g></svg>
