<?xml version="1.0" encoding="UTF-8" standalone="no"?>
<svg xmlns="http://www.w3.org/2000/svg" xmlns:xlink="http://www.w3.org/1999/xlink" width="297.000mm" height="210.000mm" viewBox="0.000000 0.000000 297.000000 210.000000" stroke-linejoin="round" stroke-linecap="round" fill="none" fill-rule="evenodd"><desc>Composer Export</desc><script type="text/ecmascript"><![CDATA[
if(typeof(top) != "undefined")
{
	top.ShowPaper = ShowPaper;
}
function ShowHotSpot(evt,hotspotid)
{
	var svgDocument = evt.target.ownerDocument;
	var strId = "hotspot."+hotspotid;
	var hotspot = svgDocument.getElementById(strId);
	if(hotspot)
		hotspot.setAttribute("opacity",".5");
}
function HideHotSpot(evt,hotspotid)
{
	var svgDocument = evt.target.ownerDocument;
	var strId = "hotspot."+hotspotid;
	var hotspot = svgDocument.getElementById(strId);
	if(hotspot)
		hotspot.setAttribute("opacity","0");

	var toolTip = svgDocument.getElementById('ToolTip');
	if(toolTip)
		toolTip.setAttribute("visibility","hidden");
}
function ShowToolTip(evt,hotspotid,strTooltip)
{
	if(strTooltip=="")
	return;

	// change text
	var svgDocument = evt.target.ownerDocument;
	var tiptext = svgDocument.getElementById('ToolTipText');
	if( !tiptext )
	return;
	tiptext.firstChild.nodeValue = " " + strTooltip + "  " ;

	// show tooltip before, else some refresh issue

	var toolTip = svgDocument.getElementById('ToolTip');
	if(!toolTip)
	return;

	toolTip.setAttribute("visibility","visible");
	toolTip.setAttribute("opacity",".95");

	// move tooltip
	// get viewbox

	var root = svgDocument.documentElement;
	var vbox = (root.getAttribute("viewBox")).split(' ');
	var x0 = parseFloat(vbox[0]);
	var y0 = parseFloat(vbox[1]);
	var vboxW = parseFloat(vbox[2]);
	var vboxH = parseFloat(vbox[3]);

	// get default width of svg

	var strW = root.getAttribute("width");
	var svgW = parseFloat(strW);
	if(strW.indexOf('mm') != -1)
	svgW *= 3.779;

	var strH = root.getAttribute("height");
	var svgH = parseFloat(strH);
	if(strH.indexOf('mm') != -1)
	svgH *= 3.779;  	// 96 dpi  -> 96/25.4 = 3.779

	// update the viewbox / width / height if svg is embedded in html with zoom fit all
	var realx0 = x0;
	var realy0 = y0;
	var realvboxW = vboxW;
	var realvboxH = vboxH;
	var realsvgW = svgW;
	var realsvgH = svgH;

	if ((typeof(top) == "undefined") || (typeof(top.svgctl1) != "undefined")) // embedded in html
	{
		// get window size in pxl

		svgW = window.innerWidth;
		svgH = window.innerHeight;

		// calculate real viewbox

		realsvgW = svgW;
		realsvgH = svgH;
		if((svgW / svgH) > (vboxW / vboxH))
		{
			realvboxW = (vboxH * svgW) / svgH;
			realvboxH = vboxH;
			realx0 = x0 - (realvboxW - vboxW)/2 ;
		}
		else
		{
			realvboxH = (vboxW * svgH) / svgW;
			realvboxW = vboxW;
			realy0 = y0 - (realvboxH - vboxH)/2 ;
		}
	}

	// get user zoom/pan

	var newScale = root.currentScale;
	var translation = root.currentTranslate;

	// transform pxl to user unit

	var xPos = (((evt.clientX+10- translation.x)/newScale) * realvboxW)/realsvgW  + realx0 ;
	var yPos = (((evt.clientY+5- translation.y)/newScale) * realvboxH)/ realsvgH  + realy0 ;
	var scaleForWidth = ( (1 / newScale) * realvboxH) / realsvgH;

	// move tooltip

	toolTip.setAttribute("transform", "translate(" + xPos + "," + yPos + ")" );

	// resize tooltip

	var fontsize = 12;
	tiptext.setAttribute("font-size",fontsize*scaleForWidth);
	tiptext.setAttribute("y", fontsize*scaleForWidth);
	var tipBG = svgDocument.getElementById('ToolTipBG');
	var outline = tiptext.getBBox();
	if(tipBG)
	{
		tipBG.setAttribute("stroke-width", 1*scaleForWidth);
		tipBG.setAttribute("width", Number(outline.width) );
		tipBG.setAttribute("height", Number(outline.height) + fontsize*.5*scaleForWidth );
	}
	var ToolTipShadow = svgDocument.getElementById('ToolTipShadow');
	if(ToolTipShadow)
	{
		ToolTipShadow.setAttribute("width", Number(outline.width) );
		ToolTipShadow.setAttribute("height", Number(outline.height) + fontsize*.5*scaleForWidth );
		ToolTipShadow.setAttribute("x", 3*scaleForWidth);
		ToolTipShadow.setAttribute("y", 3*scaleForWidth);
	}
}
function ShowPaper()
{
  var svgDocument = getDocument();
  var paper = svgDocument.getElementById("paperID");
  if(paper)
  {
    paper.setAttribute("transform","scale(1)");
    paper.setAttribute("opacity","1");
    paper.setAttribute("visibility","visible");
  }
  var svg = svgDocument.getRootElement();
  if(svg)
  {
    svg.setAttribute("width","307.000mm");
    svg.setAttribute("height","220.000mm");
    svg.setAttribute("viewBox","-5.000000 -5.000000 307.000000 220.000000");
  }
}
]]></script><defs/><g><path style="fill:#000000;fill-opacity:0.098;fill-rule:evenodd" d="M247.91,38.18L248.00,38.65L247.69,38.58L247.49,38.40L247.28,38.40L246.84,38.81L246.84,39.57L247.19,39.77L247.20,39.95L246.45,39.97L246.48,38.75L247.27,38.08zM248.66,40.31L249.27,39.55L249.48,39.56L249.49,40.31L248.94,40.76L248.65,40.74zM253.49,47.98L253.38,47.52L253.96,47.51L253.95,48.08zM229.49,48.69L229.49,49.06L228.92,48.98L228.46,49.37L228.49,50.16L228.83,50.35L228.84,50.53L227.91,50.54L227.99,49.51L228.15,49.53L228.66,48.55L228.97,48.49zM211.14,49.31L212.12,50.81L212.44,52.81L212.44,54.70L212.13,54.63L204.76,50.36L204.76,50.18L206.60,49.17L207.92,48.67L210.13,48.67zM272.81,50.89L272.24,50.88L272.30,50.37L272.80,50.32zM231.14,50.72L230.91,51.15L230.24,51.21L230.41,50.65L230.92,50.13L231.13,50.15zM200.70,52.70L201.30,52.31L202.35,52.13L202.36,53.86L201.18,53.81L200.70,53.47zM286.21,55.10L286.19,64.44L266.02,76.01L265.47,76.19L265.35,66.76L285.81,54.94L286.04,54.93zM258.35,58.44L258.70,58.23L258.91,58.25L258.91,58.83L258.40,58.76zM209.80,67.36L210.47,67.84L200.70,73.53L200.15,73.71L200.21,61.89zM243.22,67.84L244.04,69.34L244.19,70.50L244.19,85.11L232.12,92.07L231.97,78.92L231.47,78.60L230.74,78.59L230.30,78.84L230.29,72.86L230.97,71.72L238.18,67.53L239.83,66.86L241.72,66.86zM225.17,66.75L225.78,66.36L226.82,66.19L226.84,67.92L225.66,67.87L225.17,67.53zM232.80,67.76L229.25,69.84L228.41,70.48L227.81,71.70L227.67,76.36L226.66,77.02L226.66,69.90L232.57,66.50L232.78,66.52zM216.25,78.33L217.06,77.49L218.17,76.95L219.83,76.62L221.05,76.61L221.05,78.67L219.50,78.77L218.18,79.11L216.84,79.75L216.57,80.14L216.42,80.12L216.23,79.61zM189.79,86.93L190.22,86.70L190.95,86.70L190.94,88.27L190.63,88.20L189.79,87.70zM245.46,87.87L233.28,94.88L233.28,92.72L245.31,85.85L245.51,85.87zM198.40,91.74L182.68,100.84L182.51,99.10L182.17,99.82L179.04,101.65L178.89,102.98L153.24,117.70L153.08,116.30L152.84,116.62L149.60,118.51L149.45,119.85L119.01,137.38L118.84,135.48L118.50,136.36L115.21,138.19L114.98,139.62L89.58,154.25L89.41,152.51L89.07,153.23L85.94,155.06L85.76,156.38L69.90,165.49L69.90,162.67L198.33,89.01L198.40,89.03zM163.26,102.40L163.65,101.96L164.48,101.74L164.50,103.30L163.50,102.74zM212.12,108.86L212.12,110.75L211.07,110.85L208.97,110.83L208.82,110.69L205.83,112.39L205.68,114.89L205.29,115.33L204.99,116.20L204.99,116.81L205.17,117.12L204.84,117.86L202.52,119.19L202.51,114.20L203.36,112.57L205.11,111.35L210.61,108.25L211.63,108.20zM221.15,112.99L221.53,112.98L221.69,114.50L222.04,115.52L221.54,115.88L221.03,114.65L220.89,116.04L220.70,116.35L219.23,117.20L218.72,116.15L218.35,115.14L218.90,114.86L218.91,114.49L218.56,113.98L218.55,113.54L218.74,113.48L219.17,114.22L219.87,114.15L220.01,114.55L220.89,114.32L220.66,113.82L221.22,113.54zM217.59,115.81L217.41,116.70L216.70,117.14L216.01,117.19L216.26,115.83L216.41,115.82L216.57,116.20L216.70,115.83L217.41,115.49zM207.48,116.36L207.75,115.97L208.32,115.65L208.32,116.88L207.83,117.21L206.71,117.59L206.83,117.37L206.93,116.12L207.14,116.12zM206.68,117.04L206.09,117.46L205.61,117.49L206.00,117.03L206.26,116.44L206.48,116.46zM215.07,117.03L215.53,116.10L215.74,116.12L215.76,116.88L215.24,117.34L215.09,117.32zM206.63,117.69L206.26,117.64L206.71,117.59zM136.32,117.78L136.97,117.29L137.53,117.29L137.53,118.69L136.86,118.46L136.55,118.28zM217.64,119.20L217.74,119.66L216.41,120.34L215.03,120.50L214.89,119.58L215.43,119.84L215.53,119.29L216.09,119.14L216.20,119.50L216.87,119.46L217.36,119.10zM221.81,117.63L218.39,119.68L218.39,119.37L219.49,117.96L222.66,116.13L222.85,116.12zM209.64,120.33L209.20,121.38L207.75,121.50L207.76,120.77L209.25,120.44L209.64,119.78zM209.33,121.68L208.59,121.93L207.73,121.97L207.73,121.78L208.93,121.62L209.20,121.38L209.67,121.29zM208.50,124.57L207.91,124.62L207.97,124.23zM213.83,119.55L213.60,121.33L213.04,122.25L209.43,124.42L208.74,124.47L208.75,123.92L211.28,122.65L212.79,121.68L213.11,121.17L213.21,119.44L213.77,119.44zM182.68,125.73L182.68,127.62L181.63,127.72L179.69,127.72L179.39,127.55L176.39,129.26L176.24,131.75L175.91,132.26L175.55,133.23L175.74,134.22L175.40,134.72L173.34,135.99L173.04,136.06L173.07,131.24L173.57,130.08L174.35,129.04L181.29,125.07L182.19,125.06zM119.28,127.39L120.12,127.04L120.49,127.04L120.50,128.61L119.83,128.38L119.34,128.05zM191.71,129.87L192.11,129.71L192.27,130.38L192.25,131.20L192.61,132.02L192.55,132.52L192.06,132.58L191.60,131.52L191.45,132.91L191.27,133.22L189.79,134.07L188.91,132.01L189.63,131.68L189.07,130.49L189.30,130.36L189.79,131.03L190.43,131.02L190.63,131.36L191.30,131.25L191.43,131.02L191.43,130.60L191.78,130.41zM188.14,132.49L188.14,133.24L187.98,133.57L186.75,134.19L186.42,134.18L186.66,133.73L186.82,132.71L187.15,132.90L187.90,132.34zM178.04,133.40L178.31,132.84L178.88,132.51L178.88,133.74L178.54,134.06L177.28,134.46L177.56,133.04L177.87,133.01zM177.25,133.49L177.24,133.90L176.66,134.36L176.33,134.34L176.70,133.65L176.81,133.32L177.06,133.31zM186.33,133.74L185.92,134.02L185.59,134.01L186.09,132.97L186.31,132.99zM177.20,134.56L176.82,134.50L177.28,134.46zM188.33,136.14L188.31,136.53L187.10,137.16L185.76,137.38L185.78,136.66L186.11,136.17L186.65,136.01L186.81,136.31L187.43,136.34L187.92,135.97L188.14,135.95zM192.41,134.54L189.40,136.35L189.06,136.37L189.21,135.97L190.06,134.83L193.06,133.16L193.25,133.15zM180.20,137.38L179.76,138.25L178.32,138.36L178.32,137.64L179.86,137.36L180.20,136.64zM180.15,138.45L179.16,138.80L178.46,138.84L178.46,138.65L179.50,138.49L179.76,138.25L180.23,138.16zM179.06,141.30L179.05,141.51L178.65,141.50L178.71,141.10zM184.28,137.98L183.52,139.21L179.99,141.29L179.31,141.34L179.31,140.79L182.18,139.35L183.44,138.46L183.68,138.20L183.78,136.31L184.33,136.31zM92.43,143.55L92.31,142.92L92.82,142.60L93.55,142.60L93.56,144.14zM148.10,144.93L148.45,145.57L148.45,147.29L147.23,147.40L145.31,147.38L145.15,147.24L142.11,148.89L142.01,151.43L141.58,151.84L141.33,152.57L141.36,153.51L141.50,153.75L140.94,154.50L138.85,155.74L138.84,150.58L139.69,149.12L140.78,148.23L146.89,144.74L147.80,144.74zM155.51,150.77L155.82,150.69L156.06,150.54L156.39,151.09L157.07,150.77L157.04,150.28L157.37,150.09L157.50,149.53L157.86,149.53L158.03,151.05L158.37,152.02L158.17,152.21L157.71,152.21L157.37,151.36L157.22,152.42L157.05,152.75L155.83,153.53L155.40,153.52L154.69,151.69L155.25,151.25L155.09,150.85L154.87,150.55L154.89,150.09L155.08,150.03zM152.41,152.40L152.74,152.34L152.91,153.26L153.02,152.36L153.75,152.03L153.73,153.23L153.03,153.70L152.03,153.86L152.43,153.07zM152.10,152.83L152.08,153.40L151.58,153.89L151.42,153.87L151.40,153.57L151.60,153.24L151.55,152.84L151.95,152.68zM143.64,152.89L144.26,152.34L144.64,152.34L144.65,153.25L144.47,153.56L143.04,154.12L143.27,152.66zM26.07,152.74L27.01,152.36L27.73,152.35L27.73,154.07L26.72,154.02L26.07,153.68zM142.82,153.74L142.61,153.88L142.26,153.91L142.31,153.40L142.76,152.84L142.83,152.85zM142.96,154.24L142.59,154.18L143.04,154.12zM153.98,155.76L154.02,156.16L152.87,156.83L151.36,157.06L151.25,156.33L150.87,155.98L151.07,155.98L151.76,156.38L151.87,155.84L152.42,155.69L152.53,156.04L153.18,155.99L153.69,155.64zM159.08,152.78L158.14,154.17L154.81,156.16L154.50,156.17L155.73,154.58L159.06,152.71zM145.81,157.22L145.53,157.92L144.09,158.04L144.10,157.32L145.58,157.00L145.80,156.48zM145.83,158.05L144.93,158.49L144.06,158.52L144.06,158.33L145.10,158.16L145.53,157.92zM66.09,157.87L66.71,157.64L67.08,157.63L67.10,159.19L66.09,158.64zM144.83,161.12L144.24,161.17L144.31,160.78zM149.94,157.71L149.25,158.85L145.58,160.97L145.08,161.02L145.08,160.46L146.31,159.87L149.21,158.14L149.44,157.54L149.55,155.98L149.93,155.98zM21.44,161.12L24.42,162.78L24.44,174.59L12.35,181.53L12.35,167.30L12.67,165.13L13.59,162.59L15.17,160.03L16.92,158.15L18.58,156.99L21.07,155.47L21.27,155.48zM119.02,162.27L119.02,164.16L117.80,164.27L116.02,164.27L115.72,164.10L112.67,165.76L112.57,168.30L112.19,168.75L111.89,169.44L111.89,170.23L112.06,170.53L111.72,171.25L109.42,172.60L109.41,167.62L110.17,166.06L111.35,165.09L117.51,161.66L118.53,161.61zM29.08,162.11L29.06,162.49L28.06,163.01L27.82,162.28L28.16,161.76L28.55,161.77zM128.05,166.41L128.43,166.39L128.59,167.91L128.93,168.94L128.44,169.29L127.93,168.06L127.78,169.46L127.63,169.64L126.13,170.61L125.78,169.89L125.25,168.56L125.81,168.13L125.62,167.57L125.46,167.39L125.45,166.96L125.64,166.89L126.13,167.59L126.38,167.56L126.64,167.39L126.90,167.96L127.46,167.80L127.63,167.63L127.57,167.24L128.10,166.82zM50.50,166.92L51.48,166.41L52.21,166.41L52.21,168.13L51.20,168.08L50.55,167.74zM124.48,169.22L124.31,170.11L123.59,170.56L122.91,170.60L123.10,169.19L123.28,169.22L123.46,169.61L123.60,169.24L124.31,168.91zM114.38,169.77L114.82,169.22L115.22,169.06L115.22,170.29L114.73,170.63L113.60,170.99L113.83,169.54L114.04,169.53zM122.11,169.72L122.65,169.54L122.66,170.29L122.26,170.57L121.92,170.56L122.17,170.10zM113.58,170.04L113.58,170.45L112.97,170.88L112.67,170.89L113.16,169.86L113.39,169.86zM55.18,169.87L54.96,169.87L51.13,172.04L50.83,172.11L50.88,170.77L56.78,167.39L56.85,170.77zM43.77,170.57L43.78,170.92L42.78,171.44L42.60,171.06L42.60,170.44L42.89,170.20L43.27,170.20zM113.53,171.10L113.16,171.05L113.60,170.99zM58.16,171.70L58.17,177.57L57.27,178.15L56.49,179.36L56.35,192.78L44.52,199.66L44.21,199.73L44.26,185.16L44.58,183.16L45.53,180.64L47.17,178.14L48.67,176.50L51.54,174.57L57.27,171.36L57.83,171.36zM124.54,172.62L124.58,173.02L123.31,173.75L121.92,173.92L121.78,173.00L122.30,173.09L122.64,172.55L122.96,172.53L123.10,172.92L123.74,172.86L124.25,172.51zM128.70,171.04L125.28,173.09L125.29,172.78L126.39,171.37L129.56,169.54L129.75,169.53zM116.54,173.75L116.11,174.79L114.65,174.91L114.66,174.19L116.14,173.86L116.54,173.20zM116.39,174.91L115.49,175.35L114.63,175.38L114.63,175.19L115.66,175.03L116.11,174.79zM115.39,177.85L115.39,178.04L114.80,178.04L114.81,177.66L115.03,177.62zM120.73,172.97L120.50,174.74L119.93,175.66L116.32,177.84L115.64,177.89L115.64,177.33L118.18,176.06L119.69,175.09L120.01,174.58L120.11,172.85L120.67,172.85zM29.54,185.64L30.05,184.83L31.68,183.99L32.47,183.78L34.35,183.77L34.35,185.82L32.30,185.93L30.82,186.43L29.89,187.15L29.55,186.75zM57.49,195.74L46.03,202.30L45.37,202.53L45.42,200.53L57.28,193.67L57.49,193.69zM285.54,60.98L285.14,61.41L284.66,61.48L284.71,60.47L284.98,60.24L285.54,60.24zM267.18,70.83L267.14,71.51L266.63,72.01L266.35,72.01L266.36,71.06L266.86,70.66z"/><g id="Actor_1.0"><g style="stroke:#000000;stroke-width:0.176"><path d="M200.17,61.84L200.17,73.80"/><path d="M209.90,48.57L208.19,48.54L206.30,49.28L204.60,50.26"/></g><g style="stroke:#000000;stroke-width:0.529"><path d="M212.42,54.75L212.42,52.86L212.12,50.84L211.25,49.36L209.90,48.57L207.45,47.17L205.74,47.14L203.85,47.88L197.11,51.74L196.73,52.03L196.39,52.42L196.12,52.89L195.95,53.39L195.89,53.86L195.89,59.25L197.23,60.03"/><path d="M210.60,67.82L200.17,73.80L197.72,72.39L197.72,60.44"/></g></g><g id="Actor_2.0"><g style="stroke:#000000;stroke-width:0.176"><path d="M219.55,116.27L219.62,115.74L219.51,114.99L219.21,114.21L219.00,113.84L218.76,113.49L218.20,112.90L217.59,112.51L217.02,112.36"/><path d="M219.68,116.61L219.97,116.33L220.15,115.77L220.14,115.06L219.93,114.28L219.55,113.52L219.04,112.85L218.45,112.36L217.85,112.08L217.30,112.06L216.91,112.26"/><path d="M219.23,115.44L219.22,115.34L218.87,114.45L218.63,114.02L218.35,113.61L217.71,112.94L217.57,112.85"/></g><g style="stroke:#000000;stroke-width:0.529"><path d="M216.86,112.22L216.87,112.20L217.19,111.67L217.69,111.40L218.33,111.42L218.61,111.55L219.02,111.73L219.70,112.30L220.29,113.07L220.72,113.95L220.96,114.84L220.98,115.65L220.77,116.28"/><path d="M219.77,116.83L219.78,116.83L219.83,116.82"/></g></g><g id="Actor_2.1"><g style="stroke:#000000;stroke-width:0.176"><path d="M150.42,152.79L150.45,152.61L150.53,152.48L150.65,152.42L150.80,152.43L150.97,152.51L151.13,152.66L151.28,152.84L151.38,153.06L151.43,153.27L151.43,153.47L151.38,153.62L151.28,153.71L151.13,153.74L150.97,153.69"/><path d="M150.55,152.31L150.70,152.24L150.88,152.25L151.08,152.34L151.28,152.51L151.45,152.74L151.57,152.99L151.63,153.25L151.63,153.48L151.57,153.67L151.45,153.78"/></g><g style="stroke:#000000;stroke-width:0.529"><path d="M152.01,153.46L151.45,153.78L151.28,153.81L151.08,153.76L150.97,153.69L150.80,153.58L150.65,153.42L150.53,153.21L150.45,152.99L150.42,152.79L150.42,152.67L150.45,152.46L150.55,152.31L151.11,151.98"/><path d="M156.50,148.37L156.77,148.39L157.08,148.54L157.11,148.55L157.40,148.81L157.66,149.15L157.85,149.54L157.95,149.93L157.95,150.32L157.84,150.61"/></g></g><g id="Actor_1.1"><g style="stroke:#000000;stroke-width:0.176"><path d="M233.25,94.90L233.25,92.77L196.50,71.69"/><path d="M224.27,80.16L224.69,79.37L224.63,78.56L224.11,77.80L223.19,77.17L221.96,76.75L220.57,76.58L219.15,76.69L217.87,77.05L216.86,77.62L216.24,78.36L216.06,79.17L216.35,79.97L216.53,80.14"/><path d="M245.50,85.74L233.25,92.77"/></g><g style="stroke:#000000;stroke-width:0.529"><path d="M197.72,70.99L196.50,71.69L196.50,73.82L233.25,94.90L245.50,87.87L245.50,85.74L244.28,85.04"/><path d="M217.11,80.68L217.08,80.67L216.53,80.14L216.86,79.75L217.87,79.17L219.15,78.81L220.57,78.71L221.96,78.88L223.19,79.30L224.11,79.92L224.27,80.16L223.45,80.82L222.29,81.30L220.92,81.53L219.50,81.50L218.17,81.20L217.11,80.68"/></g></g><g id="Actor_2.2"><g style="stroke:#000000;stroke-width:0.176"><path d="M223.00,115.96L219.33,118.07L218.10,119.83"/><path d="M219.33,118.07L218.80,117.41"/></g><g style="stroke:#000000;stroke-width:0.529"><path d="M218.61,119.53L218.10,119.83L217.57,119.17L218.80,117.41L222.47,115.30L223.00,115.96L221.78,117.72L218.61,119.53"/></g></g><g id="Actor_2.3"><g style="stroke:#000000;stroke-width:0.176"><path d="M201.28,119.35L201.28,119.51L201.36,119.66L201.52,119.78L208.26,123.65L208.48,123.74L208.74,123.79L209.01,123.79L209.27,123.74L209.48,123.65L212.55,121.89L212.74,121.75L212.91,121.55L213.04,121.31L213.13,121.07L213.16,120.83L213.16,119.41L213.77,119.35"/><path d="M201.28,120.22L201.28,120.22"/><path d="M219.78,116.85L219.16,117.20L218.56,115.65L217.96,114.44L217.16,113.37L216.23,112.56L215.27,112.07L214.38,111.95L206.42,112.71L205.81,112.36"/><path d="M206.42,112.71L207.03,112.36"/></g><g style="stroke:#000000;stroke-width:0.529"><path d="M201.28,120.22L201.36,120.37L201.52,120.49L208.26,124.36L208.48,124.45L208.74,124.50L209.01,124.50L209.27,124.45L209.48,124.36L212.55,122.60L212.93,122.31L213.27,121.92L213.54,121.45L213.71,120.95L213.77,120.48L213.77,119.35L217.70,118.98"/><path d="M201.77,118.94L201.52,119.08L201.36,119.21L201.28,119.35L201.28,120.22"/><path d="M219.78,116.85L219.17,115.30L218.57,114.09L217.77,113.02L216.84,112.21L215.89,111.71L214.99,111.60L207.03,112.36L206.42,112.01"/></g></g><g id="Actor_2.4"><g style="stroke:#000000;stroke-width:0.176"><path d="M204.93,116.51L204.96,116.34L205.04,116.21L205.16,116.15L205.32,116.16L205.48,116.24L205.65,116.38L205.79,116.57L205.89,116.78L205.95,117.00L205.95,117.19L205.89,117.35L205.79,117.44L205.65,117.47L205.48,117.42"/><path d="M205.96,117.51L206.08,117.40L206.15,117.21L206.15,116.98L206.08,116.72L205.96,116.47L205.79,116.24L205.59,116.07L205.39,115.98L205.21,115.96L205.06,116.04"/></g><g style="stroke:#000000;stroke-width:0.529"><path d="M206.52,117.18L205.96,117.51L205.79,117.54L205.59,117.49L205.48,117.42L205.32,117.31L205.16,117.14L205.04,116.94L204.96,116.72L204.93,116.51L204.93,116.40L204.96,116.19L205.06,116.04L205.63,115.71"/></g></g><g id="Actor_2.5"><g style="stroke:#000000;stroke-width:0.176"><path d="M208.00,111.93L208.00,111.93"/></g><g style="stroke:#000000;stroke-width:0.529"><path d="M207.79,112.28L208.00,111.93L208.51,111.66L209.14,111.68L209.83,112.00L209.93,112.08"/></g></g><g id="Actor_2.6"><g style="stroke:#000000;stroke-width:0.176"><path d="M215.84,120.41L215.62,120.51L215.36,120.57L215.30,120.57L215.07,120.58L214.80,120.53L214.57,120.44"/></g><g style="stroke:#000000;stroke-width:0.529"><path d="M214.32,119.39L214.32,120.15L214.40,120.30L214.57,120.44L214.67,120.49L214.86,120.57L215.09,120.61L215.33,120.61L215.55,120.56L215.73,120.47L215.84,120.41L215.93,120.32"/></g></g><g id="Actor_1.2"><g style="stroke:#000000;stroke-width:0.176"><path d="M229.57,78.58L230.19,78.93L230.19,73.54L230.25,73.06L230.42,72.57L230.69,72.10L231.03,71.70L231.41,71.41L238.15,67.55L240.04,66.81L241.75,66.84"/><path d="M230.19,78.93L230.80,78.58L231.18,78.43L231.52,78.43L231.79,78.59L231.96,78.89L232.02,79.29L232.02,92.07"/></g><g style="stroke:#000000;stroke-width:0.529"><path d="M227.74,77.37L227.74,77.52L229.57,78.58L229.57,90.66L232.02,92.07L244.28,85.04L244.28,71.13L243.98,69.11L243.11,67.63L241.75,66.84L239.30,65.43L237.59,65.41L235.70,66.14L228.96,70.01L228.58,70.30L228.24,70.69L227.97,71.16L227.80,71.66L227.74,72.13L227.74,77.37"/></g></g><g id="Actor_1.3"><g style="stroke:#000000;stroke-width:0.176"><path d="M197.23,53.06L226.63,69.92L232.76,66.41"/><path d="M200.59,53.27L200.64,53.40L200.91,53.66L201.31,53.85L201.81,53.96L202.33,53.97L202.84,53.89L203.27,53.71L203.57,53.46L203.72,53.17L203.70,52.87L203.51,52.59L203.17,52.36L202.72,52.20L202.20,52.14L201.68,52.18L201.20,52.31L200.83,52.53L200.60,52.80L200.53,53.10L200.59,53.27"/><path d="M225.13,67.42L225.14,67.45L225.41,67.71L225.81,67.90L226.31,68.01L226.83,68.03L227.34,67.94L227.77,67.76L228.07,67.52L228.23,67.23L228.20,66.93L228.01,66.64L227.67,66.41L227.22,66.26L226.70,66.20L226.18,66.23L225.70,66.37L225.33,66.58L225.10,66.85L225.03,67.15L225.13,67.42"/><path d="M226.63,77.02L226.63,69.92"/></g><g style="stroke:#000000;stroke-width:0.529"><path d="M232.76,67.83L232.76,66.41L203.36,49.55L197.23,53.06L197.23,60.16L226.63,77.02L227.74,76.39"/></g></g><g id="Actor_2.7"><g style="stroke:#000000;stroke-width:0.176"><path d="M219.66,112.27L219.48,112.04L218.56,111.22L217.60,110.73L216.71,110.62L208.75,111.37L208.14,111.02"/><path d="M208.75,111.37L209.36,111.02"/><path d="M216.10,119.13L216.10,119.14L216.13,119.35L216.22,119.49L216.35,119.57L216.52,119.58L216.71,119.50L217.61,118.99"/><path d="M215.49,119.19L215.49,119.50L215.55,119.90L215.72,120.20L215.99,120.35"/><path d="M222.10,115.51L221.49,115.87L220.89,114.31L220.74,114.02"/></g><g style="stroke:#000000;stroke-width:0.529"><path d="M207.52,111.37L207.52,112.31"/><path d="M208.75,110.67L209.36,111.02L217.32,110.26L218.21,110.38L219.17,110.87L220.10,111.69L220.90,112.75L221.50,113.96L222.10,115.51"/><path d="M217.88,119.54L216.71,120.21L216.33,120.36L215.99,120.35L214.18,119.31"/></g></g><g id="Actor_2.8"><g style="stroke:#000000;stroke-width:0.176"><path d="M202.38,119.29L202.38,115.03L202.47,114.32L202.73,113.58L203.14,112.88L203.65,112.28L204.22,111.85L210.34,108.34L210.91,108.12L211.42,108.13"/><path d="M208.20,110.99L208.81,110.64L208.81,110.71"/></g><g style="stroke:#000000;stroke-width:0.529"><path d="M212.18,110.75L212.18,109.41L212.09,108.81L211.83,108.36L211.42,108.13L210.81,107.77L210.30,107.77L209.73,107.99L207.57,109.23L203.60,111.50L203.04,111.93L202.52,112.53L202.12,113.23L201.86,113.97L201.77,114.68L201.77,118.94L202.38,119.29L204.77,117.92L205.20,117.18"/><path d="M208.20,110.99L205.75,112.39L205.75,114.85"/></g></g><g id="Actor_2.9"><g style="stroke:#000000;stroke-width:0.176"><path d="M206.11,117.42L206.12,117.43L206.34,117.44L206.51,117.35L206.62,117.18L206.66,116.93L206.66,116.89L206.62,116.64L206.51,116.33L206.34,116.05L206.15,115.85L206.12,115.81L205.89,115.66L205.66,115.59L205.46,115.63L205.31,115.76L205.26,115.92"/><path d="M206.27,117.33L206.28,117.34L206.49,117.35L206.52,117.34"/><path d="M205.52,114.98L205.93,114.98L206.50,114.89L206.91,115.55L207.48,116.10L207.40,116.81L207.48,117.42"/><path d="M205.50,115.18L205.73,115.05L205.93,114.98L206.16,115.01L206.42,115.11L206.67,115.30L206.91,115.55L207.11,115.84L207.27,116.17L207.27,116.17L207.36,116.50L207.40,116.81L207.36,117.08L207.27,117.30L207.11,117.45L207.02,117.49"/><path d="M205.53,115.62L205.47,115.67L205.41,115.83"/><path d="M207.48,116.10L208.29,115.64"/><path d="M206.50,114.89L207.31,114.42"/><path d="M208.33,115.85L208.38,116.25L208.34,116.58"/><path d="M208.38,116.25L208.38,116.25"/><path d="M208.17,115.44L207.89,114.98L207.57,114.67"/></g><g style="stroke:#000000;stroke-width:0.529"><path d="M208.38,116.25L208.35,115.93L208.33,115.85L208.29,115.64L208.17,115.44L208.09,115.27L207.89,114.98L207.66,114.73L207.57,114.67L207.31,114.42L206.91,114.42L206.33,114.52L205.52,114.98L205.50,115.18L205.44,115.21L205.39,115.25L205.20,115.43L205.17,115.48L205.07,115.76L205.07,116.03"/><path d="M205.91,117.52L205.93,117.53L206.24,117.68L206.59,117.70L206.64,117.69L206.88,117.57L207.02,117.49L207.48,117.42L208.29,116.95L208.34,116.58L208.35,116.52L208.38,116.25"/></g></g><g id="Actor_3.0"><g style="stroke:#000000;stroke-width:0.176"><path d="M198.46,88.92L69.83,162.69L61.26,157.78"/><path d="M65.97,158.05L65.90,158.17L65.90,158.37L66.01,158.56L66.22,158.72L68.67,160.13L68.95,160.25L69.29,160.31L69.64,160.31L69.98,160.25L70.26,160.13L70.47,159.97L70.58,159.77L70.58,159.57L70.47,159.38L70.26,159.22L67.81,157.81L67.53,157.69L67.19,157.63L66.84,157.63L66.50,157.69L66.22,157.81L66.01,157.97L65.97,158.05"/><path d="M69.83,162.69L69.83,165.53"/><path d="M85.76,155.12L85.76,154.27"/><path d="M88.32,153.65L89.08,153.21L89.34,152.77L89.43,152.17L89.43,154.29"/><path d="M92.74,143.72L92.56,143.62L92.35,143.45L92.24,143.26L92.24,143.06L92.35,142.87L92.56,142.70L92.84,142.58L93.18,142.52L93.53,142.52L93.86,142.59L94.15,142.70L96.60,144.11L96.81,144.27L96.92,144.46L96.91,144.68L96.81,144.86L96.60,145.02L96.31,145.14L95.98,145.20L95.63,145.20L95.29,145.14L95.01,145.02L92.74,143.72"/><path d="M115.16,137.41L115.16,138.26"/><path d="M118.83,137.43L118.83,135.30L118.74,135.90L118.48,136.35L117.72,136.79"/><path d="M119.19,127.80L119.19,127.60L119.30,127.41L119.51,127.25L119.79,127.13L120.13,127.06L120.48,127.06L120.81,127.13L121.10,127.25L123.55,128.65L123.76,128.81L123.87,129.01L123.86,129.22L123.76,129.40L123.55,129.56L123.26,129.68L122.93,129.75L122.58,129.75L122.24,129.68L121.96,129.56L119.51,128.16L119.30,128.00L119.19,127.80"/><path d="M136.91,118.46L136.66,118.32L136.45,118.16L136.34,117.97L136.34,117.76L136.45,117.57L136.66,117.41L136.94,117.29L137.28,117.23L137.63,117.23L137.96,117.29L138.25,117.41L140.70,118.81L140.91,118.98L141.02,119.17L141.02,119.37L140.91,119.56L140.70,119.73L140.41,119.85L140.08,119.91L139.73,119.91L139.39,119.85L139.12,119.73L136.91,118.46"/><path d="M149.46,117.73L149.46,118.59"/><path d="M152.02,117.11L152.78,116.67L153.04,116.23L153.13,115.62L153.13,117.75"/><path d="M163.40,102.11L163.29,102.31L163.29,102.51L163.41,102.70L163.61,102.86L166.06,104.27L166.34,104.39L166.68,104.45L167.03,104.45L167.36,104.39L167.65,104.27L167.81,104.14L167.86,104.11L167.97,103.91L167.97,103.71L167.86,103.52L167.65,103.36L165.20,101.95L164.91,101.83L164.58,101.77L164.23,101.77L163.89,101.83L163.61,101.95L163.40,102.11"/><path d="M178.86,100.87L178.86,101.72"/><path d="M182.53,100.89L182.53,98.76L182.44,99.37L182.17,99.82L181.42,100.25"/><path d="M189.74,87.59L189.63,87.40L189.63,87.20L189.74,87.01L189.95,86.84L190.23,86.73L190.57,86.66L190.92,86.66L191.25,86.72L191.54,86.84L193.99,88.25L194.20,88.42L194.30,88.61L194.30,88.81L194.20,89.00L193.99,89.16L193.70,89.28L193.37,89.34L193.02,89.34L192.68,89.28L192.40,89.16L189.95,87.76L189.74,87.59"/></g><g style="stroke:#000000;stroke-width:0.529"><path d="M106.86,131.62L189.88,84.00L198.46,88.92L198.46,91.75L182.53,100.89L181.42,100.25L180.85,100.58L178.86,101.72L178.86,103.00L153.13,117.75L152.02,117.11L151.26,117.55L149.46,118.59L149.46,119.86L118.83,137.43L117.72,136.79L117.03,137.18L115.16,138.26L115.16,139.53L89.43,154.29L88.33,153.66L86.12,154.92L85.76,155.12L85.76,156.40L69.83,165.53L61.26,160.61L61.26,157.78L106.01,132.10"/></g></g><g id="Actor_5.0"><g style="stroke:#000000;stroke-width:0.176"><path d="M245.78,39.41L245.74,39.14L245.79,38.82"/><path d="M246.11,38.16L245.91,38.49"/><path d="M246.32,40.00L246.32,38.94L245.81,38.65"/><path d="M246.67,40.04L246.56,39.98L246.49,39.94L246.36,39.75L246.32,39.47L246.36,39.15L246.49,38.81L246.68,38.49L246.72,38.44L246.80,38.36"/><path d="M246.56,39.98L246.44,39.79L246.39,39.51L246.44,39.19L246.56,38.85L246.75,38.53L246.89,38.38"/><path d="M246.89,39.69L246.91,39.69L247.29,39.91"/><path d="M246.96,40.07L246.99,40.06L247.21,39.96"/><path d="M246.32,38.94L246.79,38.35"/><path d="M247.06,38.14L247.18,38.06L247.44,37.99L247.51,37.99L247.65,38.03L247.73,38.07L247.51,38.03L247.25,38.10L247.03,38.25"/><path d="M247.12,37.95L247.91,38.03"/><path d="M247.61,38.50L247.62,38.51L247.98,38.72"/><path d="M247.73,38.07L247.89,38.22L247.91,38.28"/><path d="M249.40,39.52L249.26,39.50L249.10,39.54L248.94,39.65L248.82,39.79L248.80,39.81L248.68,40.01L248.60,40.21L248.57,40.41L248.60,40.58L248.68,40.70"/><path d="M249.18,40.63L249.05,40.69L248.93,40.70L248.83,40.65L248.77,40.55L248.74,40.41L248.77,40.25L248.83,40.08L248.93,39.91L249.05,39.78L249.18,39.69L249.31,39.66L249.42,39.68L249.51,39.75L249.55,39.87"/><path d="M249.55,39.76L249.55,39.76"/></g><g style="stroke:#000000;stroke-width:0.529"><path d="M247.19,37.70L247.41,37.74L247.91,38.03L247.91,38.28L247.97,38.45L247.98,38.60L247.98,38.72L249.40,39.52L249.50,39.62L249.55,39.76L249.55,39.87L249.55,40.03L249.51,40.20L249.42,40.37L249.31,40.52L249.18,40.63L249.10,40.67L248.94,40.75L248.80,40.76L248.68,40.70L247.29,39.91L247.25,39.94L247.21,39.96L247.12,40.08L246.96,40.07L246.75,40.08L246.67,40.04L246.32,40.00L245.81,39.71L245.78,39.41L245.77,39.36L245.74,39.14L245.77,38.89L245.79,38.82L245.81,38.65L245.91,38.49L245.98,38.35L246.11,38.16"/></g></g><g id="Actor_2.10"><g style="stroke:#000000;stroke-width:0.176"><path d="M214.67,117.16L214.84,117.20L214.98,117.18L215.08,117.08L215.13,116.93L215.13,116.73L215.08,116.52L214.98,116.31L214.84,116.12L214.76,116.05L214.67,115.98L214.50,115.90L214.35,115.89L214.23,115.95L214.15,116.07L214.12,116.25"/><path d="M214.25,115.77L214.40,115.70L214.58,115.71L214.78,115.81L214.98,115.98L215.15,116.20L215.27,116.46L215.34,116.71L215.34,116.95L215.27,117.13L215.15,117.24"/></g><g style="stroke:#000000;stroke-width:0.529"><path d="M214.81,115.45L214.25,115.77L214.15,115.92L214.12,116.13L214.12,116.25L214.15,116.46L214.23,116.67L214.35,116.88L214.50,117.04L214.67,117.16L214.78,117.22L214.98,117.28L215.15,117.24L215.71,116.92"/><path d="M220.20,111.83L220.47,111.85L220.78,112.00L220.81,112.01L221.10,112.27L221.36,112.61L221.55,113.00L221.65,113.39L221.65,113.78L221.54,114.07"/></g></g><g id="Actor_2.11"><g style="stroke:#000000;stroke-width:0.176"><path d="M206.36,120.85L206.52,121.17L206.85,121.43L207.32,121.62L207.86,121.72L208.43,121.70L208.96,121.58L208.97,121.58L209.40,121.37L209.69,121.09L209.81,120.77"/></g><g style="stroke:#000000;stroke-width:0.529"><path d="M209.62,120.31L209.74,120.45L209.81,120.77L209.81,121.05L209.69,121.37L209.40,121.66L208.96,121.87L208.87,121.89L208.43,121.99L207.86,122.00L207.32,121.91L206.91,121.74L206.85,121.72L206.52,121.45L206.36,121.14L206.36,120.85L206.38,120.53L206.53,120.31"/></g></g><g id="Actor_2.12"><g style="stroke:#000000;stroke-width:0.176"><path d="M207.46,124.51L207.70,124.61L207.97,124.65L208.25,124.65L208.52,124.59L208.71,124.49"/><path d="M206.53,120.16L207.10,120.38L207.66,120.81L208.43,120.59L208.08,120.62L207.72,120.59L207.38,120.51L207.10,120.38L206.88,120.22L206.74,120.03L206.69,119.82L206.74,119.62L206.87,119.43L207.10,119.26L207.28,119.18"/><path d="M207.66,120.81L207.66,121.53L206.81,121.04"/><path d="M207.53,121.45L207.47,121.44L207.21,121.34"/><path d="M209.62,119.68L209.41,120.03L209.28,120.22L209.06,120.38L208.77,120.51L208.43,120.59L209.21,120.57L209.41,120.03L209.46,119.82L209.42,119.62L209.28,119.42"/><path d="M208.94,121.34L208.79,121.41L208.36,121.51L207.90,121.52L207.83,121.50L208.95,121.33"/><path d="M207.83,121.50L207.66,121.53"/><path d="M208.69,119.11L208.43,119.05L208.27,119.04"/><path d="M209.21,120.57L209.21,121.29"/><path d="M209.46,120.75L209.31,121.07"/></g><g style="stroke:#000000;stroke-width:0.529"><path d="M207.22,123.76L207.22,124.22L207.30,124.38L207.46,124.51L207.56,124.57L207.76,124.65L207.99,124.69L208.22,124.68L208.45,124.63L208.63,124.54L208.72,124.49"/><path d="M207.21,121.34L207.10,121.29L206.83,121.08L206.81,121.04L206.53,120.88L206.53,120.16L206.74,119.62L206.94,119.27L207.28,119.18L207.39,119.13L207.72,119.05L208.07,119.03L208.27,119.04L208.49,119.04L208.69,119.11L208.77,119.13L209.06,119.26L209.28,119.42L209.62,119.68L209.62,120.41L209.46,120.75L209.46,120.76L209.37,121.02L209.31,121.07L209.21,121.29L208.95,121.33L208.94,121.34"/></g></g><g id="Actor_2.13"><g style="stroke:#000000;stroke-width:0.176"><path d="M215.30,117.16L215.31,117.16L215.52,117.18L215.70,117.09L215.81,116.91L215.85,116.67L215.81,116.37L215.70,116.07L215.52,115.78L215.41,115.66L215.31,115.55L215.07,115.39L214.84,115.33L214.65,115.36L214.50,115.50L214.44,115.66"/><path d="M214.72,115.35L214.66,115.41L214.60,115.57"/><path d="M214.71,114.72L215.11,114.72L215.69,114.62L216.09,115.28L216.67,115.84L216.58,116.55L216.67,117.15"/><path d="M216.21,117.23L216.30,117.18L216.45,117.04L216.55,116.82L216.58,116.55L216.55,116.24L216.45,115.91L216.45,115.90L216.30,115.57L216.09,115.28L215.86,115.03L215.60,114.85L215.35,114.74L215.11,114.72L214.92,114.78L214.69,114.91"/><path d="M215.46,117.07L215.47,117.07L215.68,117.08L215.71,117.07"/><path d="M215.69,114.62L216.50,114.16"/><path d="M216.67,115.84L217.48,115.38"/><path d="M216.76,114.41L217.08,114.72L217.36,115.18"/><path d="M217.51,115.59L217.57,115.98L217.53,116.32"/><path d="M217.57,115.98L217.57,115.98"/></g><g style="stroke:#000000;stroke-width:0.529"><path d="M217.57,115.98L217.54,116.25L217.53,116.32L217.48,116.69L216.67,117.15L216.21,117.23L216.06,117.30L215.83,117.42L215.77,117.44L215.43,117.42L215.12,117.27L215.09,117.25"/><path d="M217.57,115.98L217.54,115.67L217.51,115.59L217.48,115.38L217.36,115.18L217.28,115.01L217.08,114.72L216.85,114.47L216.76,114.41L216.50,114.16L216.10,114.15L215.52,114.25L214.71,114.72L214.69,114.91L214.63,114.95L214.58,114.99L214.39,115.17L214.36,115.21L214.26,115.50L214.26,115.76"/></g></g><g id="Actor_4.0"><g style="stroke:#000000;stroke-width:0.176"><path d="M265.48,76.29L265.48,67.78L265.42,67.30L265.25,66.81L264.98,66.34L264.64,65.94L264.26,65.65L251.39,58.28L249.05,56.53L247.58,54.49L247.08,52.30"/><path d="M253.39,47.55L253.31,47.65L253.28,47.75L253.32,47.86L253.42,47.95L253.56,48.02L253.73,48.05L253.91,48.06L254.09,48.03L254.24,47.97L254.35,47.88L254.40,47.78L254.40,47.67L254.33,47.57L254.21,47.49L254.05,47.44L253.87,47.41L253.68,47.43L253.52,47.47L253.39,47.55"/><path d="M258.34,58.58L258.37,58.66L258.46,58.75L258.60,58.82L258.78,58.86L258.96,58.86L259.14,58.83L259.29,58.77L259.40,58.69L259.45,58.58L259.44,58.48L259.38,58.38L259.26,58.30L259.10,58.24L258.92,58.22L258.73,58.23L258.57,58.28L258.43,58.36L258.36,58.45L258.33,58.56L258.34,58.58"/><path d="M266.64,70.74L266.66,70.72L266.84,70.63L267.01,70.62L267.14,70.69L267.23,70.83L267.26,71.02L267.23,71.24L267.14,71.47L267.01,71.69L266.84,71.87L266.66,71.99L266.49,72.04L266.33,72.02L266.22,71.91L266.16,71.75L266.16,71.57"/><path d="M272.57,50.95L272.40,50.91L272.26,50.84L272.16,50.75L272.12,50.65L272.14,50.54L272.23,50.45L272.36,50.37L272.52,50.32L272.71,50.31L272.89,50.33L273.05,50.39L273.17,50.47L273.24,50.57L273.24,50.67L273.19,50.77L273.08,50.86L272.93,50.92L272.75,50.95L272.57,50.95"/><path d="M285.01,60.20L285.04,60.18L285.22,60.10L285.38,60.08L285.52,60.15L285.60,60.29L285.63,60.48L285.60,60.70L285.52,60.93L285.38,61.15L285.22,61.33L285.04,61.45L284.86,61.50L284.71,61.48L284.60,61.37L284.54,61.21L284.54,61.03"/></g><g style="stroke:#000000;stroke-width:0.529"><path d="M270.74,73.28L265.48,76.29L264.87,75.94L264.87,67.43L264.84,67.19L264.75,66.94L264.62,66.71L264.45,66.51L264.26,66.36L251.39,58.99L249.05,57.24L247.58,55.20L247.08,53.01L247.08,52.30L247.58,50.12L249.05,48.08L251.39,46.33L254.44,44.99L258.00,44.15L261.67,43.87L261.81,43.86L265.62,44.15L269.17,44.99L272.22,46.33L285.08,53.71L285.46,54.00L285.80,54.39L286.07,54.86L286.25,55.36L286.31,55.83L286.31,64.35L271.65,72.75"/><path d="M266.53,71.12L266.40,71.34L266.23,71.52L266.16,71.57L266.16,71.54L266.22,71.31L266.33,71.08L266.49,70.87L266.64,70.74L266.62,70.89L266.53,71.12"/><path d="M284.78,60.79L284.61,60.98L284.54,61.03L284.54,61.00L284.60,60.77L284.71,60.54L284.86,60.33L285.01,60.20L284.99,60.35L284.91,60.58L284.78,60.79"/></g></g><g id="Actor_5.1"><g style="stroke:#000000;stroke-width:0.176"><path d="M227.41,49.36L227.37,49.68L227.40,49.95"/><path d="M227.44,49.19L227.94,49.48L227.94,50.54"/><path d="M228.29,50.58L228.19,50.52L228.06,50.33L228.02,50.05L228.06,49.73L228.19,49.39L228.38,49.07L228.62,48.81L228.88,48.64L229.13,48.57L229.35,48.61L229.51,48.76L229.54,48.82"/><path d="M228.19,50.52L228.11,50.48L227.99,50.29L227.94,50.01L227.99,49.69L228.11,49.35L228.30,49.03L228.34,48.98L228.54,48.77L228.81,48.60L229.06,48.53L229.14,48.53L228.74,48.49L227.94,49.48"/><path d="M228.51,50.23L228.53,50.23L228.91,50.45"/><path d="M228.03,48.40L227.77,48.65L227.54,49.03"/><path d="M228.74,48.49L228.24,48.20"/><path d="M228.59,50.60L228.62,50.60L228.84,50.50"/><path d="M229.24,49.04L229.25,49.05L229.60,49.26"/><path d="M229.35,48.61L229.28,48.57L229.14,48.53L229.54,48.56"/><path d="M231.02,50.06L230.89,50.04L230.73,50.08L230.57,50.19L230.42,50.35L230.30,50.55L230.23,50.75L230.21,50.84L230.20,50.95L230.23,51.12L230.30,51.24"/><path d="M230.81,51.17L230.67,51.23L230.55,51.24L230.45,51.19L230.39,51.09L230.37,50.95L230.38,50.84L230.39,50.79L230.45,50.62L230.55,50.45L230.67,50.32L230.81,50.23L230.94,50.20L231.05,50.22L231.13,50.29L231.17,50.41"/></g><g style="stroke:#000000;stroke-width:0.529"><path d="M227.44,50.26L227.44,50.25L227.40,49.95L227.39,49.90L227.37,49.68L227.39,49.43L227.41,49.36L227.44,49.19L227.54,49.03L227.60,48.89L227.77,48.65L227.96,48.45L228.03,48.40L228.24,48.20L228.56,48.20L229.03,48.28L229.54,48.56L229.54,48.82L229.60,48.99L229.61,49.14L229.60,49.26L231.02,50.06L231.12,50.15L231.17,50.30L231.17,50.41L231.17,50.57L231.13,50.74L231.08,50.84L231.05,50.91L230.94,51.06L230.81,51.17L230.73,51.21L230.57,51.29L230.42,51.30L230.30,51.24L228.91,50.45L228.88,50.48L228.84,50.50L228.74,50.62L228.59,50.60L228.38,50.62L228.29,50.58L227.94,50.54L227.44,50.26"/></g></g><g id="Actor_2.14"><g style="stroke:#000000;stroke-width:0.176"><path d="M150.07,155.89L149.46,155.95L149.46,157.37L149.43,157.60L149.34,157.85L149.21,158.09L149.04,158.29L148.85,158.43L145.78,160.19L145.56,160.28L145.31,160.32L145.04,160.32L144.78,160.28L144.56,160.19L137.82,156.32L137.66,156.19L137.58,156.05L137.58,155.89"/><path d="M142.11,148.89L142.72,149.25L150.68,148.49L151.57,148.60L152.53,149.09L153.45,149.91L154.26,150.98L154.86,152.19L155.46,153.74L156.08,153.39"/><path d="M142.72,149.25L143.33,148.89"/></g><g style="stroke:#000000;stroke-width:0.529"><path d="M138.07,155.48L137.82,155.62L137.66,155.74L137.58,155.89L137.58,156.76L137.66,156.90L137.82,157.03L144.56,160.89L144.78,160.99L145.04,161.03L145.31,161.03L145.56,160.99L145.78,160.89L148.85,159.14L149.22,158.85L149.57,158.45L149.80,158.05L149.84,157.98L150.01,157.49L150.07,157.02L150.07,155.89L154.00,155.52"/><path d="M156.08,153.39L155.47,151.83L154.87,150.63L154.07,149.56L153.14,148.74L152.18,148.25L151.29,148.14L143.33,148.89L142.72,148.54"/></g></g><g id="Actor_2.15"><g style="stroke:#000000;stroke-width:0.176"><path d="M155.10,153.95L155.63,154.61L154.40,156.36"/><path d="M155.63,154.61L159.30,152.50"/></g><g style="stroke:#000000;stroke-width:0.529"><path d="M153.98,155.84L154.40,156.36L158.08,154.26L159.30,152.50L158.77,151.84L155.10,153.95L153.87,155.70L153.98,155.84"/></g></g><g id="Actor_2.16"><g style="stroke:#000000;stroke-width:0.176"><path d="M142.83,156.70L143.40,156.92L143.96,157.35L144.73,157.13L145.51,157.11L145.71,156.56L145.58,156.75L145.36,156.92L145.06,157.05L144.73,157.13L144.38,157.15L144.02,157.13L143.68,157.05L143.40,156.92L143.18,156.76L143.04,156.56L142.99,156.36L143.04,156.15L143.17,155.96L143.40,155.80L143.58,155.71"/><path d="M143.11,157.58L143.83,157.99L143.77,157.98L143.51,157.88"/><path d="M145.01,161.03L144.82,161.12L144.55,161.18L144.27,161.19L143.99,161.14L143.76,161.05"/><path d="M143.83,157.99L143.96,158.07L145.25,157.87"/><path d="M143.96,158.07L143.96,157.35"/><path d="M145.24,157.88L145.08,157.95L144.66,158.04L144.20,158.06L144.13,158.04"/><path d="M144.57,155.58L144.73,155.59L144.99,155.65"/><path d="M145.51,157.11L145.51,157.83"/><path d="M145.76,157.29L145.61,157.61"/><path d="M145.58,155.96L145.71,156.15L145.76,156.36L145.71,156.56L145.92,156.22"/><path d="M145.36,155.80L145.36,155.80"/></g><g style="stroke:#000000;stroke-width:0.529"><path d="M145.01,161.03L144.93,161.08L144.75,161.17L144.52,161.22L144.29,161.23L144.06,161.19L143.86,161.11L143.76,161.05L143.60,160.91L143.52,160.76L143.51,160.30"/><path d="M145.36,155.80L145.07,155.67L144.99,155.65L144.79,155.57L144.57,155.58L144.37,155.56L144.02,155.59L143.69,155.67L143.58,155.71L143.24,155.81L143.04,156.15L142.83,156.70L142.83,157.42L143.11,157.58L143.13,157.62L143.40,157.83L143.51,157.88"/><path d="M145.36,155.80L145.58,155.96L145.92,156.22L145.92,156.94L145.76,157.29L145.76,157.30L145.67,157.56L145.61,157.61L145.51,157.83L145.25,157.87L145.24,157.88"/></g></g><g id="Actor_2.17"><g style="stroke:#000000;stroke-width:0.176"><path d="M152.14,156.94L151.92,157.05L151.66,157.11L151.37,157.11L151.10,157.07L150.87,156.97"/></g><g style="stroke:#000000;stroke-width:0.529"><path d="M150.62,155.93L150.62,156.68L150.70,156.84L150.87,156.97L150.97,157.03L151.16,157.11L151.39,157.15L151.63,157.14L151.85,157.10L152.03,157.01L152.14,156.94L152.23,156.86"/></g></g><g id="Actor_2.18"><g style="stroke:#000000;stroke-width:0.176"><path d="M151.60,153.69L151.61,153.70L151.82,153.71L152.00,153.63L152.11,153.45L152.15,153.20L152.12,153.01L152.11,152.91L152.00,152.61L151.82,152.32L151.68,152.17L151.61,152.09L151.37,151.93L151.14,151.87L150.95,151.90L150.80,152.03L150.74,152.20"/><path d="M151.02,151.89L150.96,151.94L150.90,152.11"/><path d="M151.01,151.25L151.41,151.26L151.21,151.32L150.99,151.45"/><path d="M152.01,153.61L151.98,153.62L151.76,153.61L151.76,153.60"/><path d="M152.51,153.77L152.59,153.72L152.75,153.57L152.85,153.35L152.88,153.08L152.85,152.77L152.75,152.44L152.59,152.11L152.39,151.82L152.16,151.57L151.90,151.39L151.65,151.28L151.41,151.26L151.99,151.16L152.39,151.82L152.97,152.38L152.88,153.08L152.97,153.69"/><path d="M151.99,151.16L152.80,150.69"/><path d="M152.97,152.38L153.78,151.91"/><path d="M153.66,151.72L153.38,151.25L153.06,150.94"/><path d="M153.81,152.13L153.87,152.52L153.83,152.85"/></g><g style="stroke:#000000;stroke-width:0.529"><path d="M151.39,153.79L151.42,153.81L151.73,153.95L152.07,153.98L152.12,153.96L152.36,153.84L152.51,153.77L152.97,153.69L153.78,153.22L153.83,152.85L153.84,152.79L153.87,152.52L153.84,152.20L153.81,152.13L153.78,151.91L153.66,151.72L153.58,151.54L153.38,151.25L153.15,151.01L153.06,150.94L152.80,150.69L152.40,150.69L151.82,150.79L151.01,151.25L150.99,151.45L150.93,151.49L150.88,151.52L150.68,151.70L150.66,151.75L150.56,152.04L150.56,152.30"/></g></g><g id="Actor_2.19"><g style="stroke:#000000;stroke-width:0.176"><path d="M141.55,152.46L141.61,152.30L141.76,152.17L141.96,152.13L142.18,152.19L142.42,152.35L142.43,152.36L142.64,152.59L142.81,152.87L142.92,153.18L142.93,153.27L142.96,153.47L142.92,153.72L142.81,153.89L142.64,153.98L142.42,153.96L142.41,153.96"/><path d="M141.82,151.52L142.23,151.52L142.80,151.42L143.21,152.08L143.78,152.64L143.70,153.35L143.78,153.95"/><path d="M141.80,151.71L142.03,151.58L142.23,151.52L142.46,151.54L142.72,151.65L142.97,151.84L143.21,152.08L143.41,152.38L143.57,152.70L143.66,153.04L143.70,153.35L143.66,153.62L143.57,153.84L143.41,153.99L143.32,154.03"/><path d="M141.83,152.15L141.77,152.21L141.71,152.37"/><path d="M142.82,153.87L142.79,153.89L142.58,153.87L142.57,153.87"/><path d="M142.80,151.42L143.61,150.96"/><path d="M143.78,152.64L144.59,152.18"/><path d="M144.47,151.98L144.19,151.52L143.87,151.21"/><path d="M144.62,152.39L144.68,152.78L144.64,153.12"/></g><g style="stroke:#000000;stroke-width:0.529"><path d="M142.20,154.06L142.23,154.07L142.54,154.22L142.88,154.24L142.94,154.22L143.17,154.11L143.32,154.03L143.78,153.95L144.59,153.49L144.64,153.12L144.65,153.05L144.68,152.78L144.65,152.47L144.62,152.39L144.59,152.18L144.47,151.98L144.39,151.81L144.19,151.52L143.96,151.27L143.87,151.21L143.61,150.96L143.21,150.96L142.63,151.05L141.82,151.52L141.80,151.71L141.74,151.75L141.69,151.79L141.50,151.97L141.47,152.02L141.37,152.30L141.37,152.57"/></g></g><g id="Actor_2.20"><g style="stroke:#000000;stroke-width:0.176"><path d="M185.20,132.43L185.26,132.27L185.32,132.21L185.25,132.23L185.10,132.36L185.04,132.52"/><path d="M187.27,134.01L187.18,133.41L187.27,132.70L186.69,132.14L186.29,131.49L185.71,131.58L185.31,131.58"/><path d="M185.32,132.21L185.44,132.19L185.67,132.26L185.91,132.41L186.12,132.65L186.22,132.80L186.30,132.93L186.41,133.24L186.45,133.53L186.41,133.78L186.30,133.95L186.12,134.04L185.91,134.02L185.90,134.02"/><path d="M186.81,134.09L186.90,134.05L187.05,133.90L187.15,133.68L187.18,133.41L187.15,133.10L187.05,132.77L187.05,132.77L186.90,132.44L186.69,132.14L186.46,131.90L186.20,131.71L185.95,131.60L185.71,131.58L185.51,131.64L185.29,131.78"/><path d="M186.06,133.93L186.07,133.93L186.28,133.95L186.31,133.93"/><path d="M186.29,131.49L187.10,131.02"/><path d="M187.27,132.70L188.08,132.24"/><path d="M187.96,132.04L187.68,131.58L187.36,131.27"/><path d="M188.11,132.45L188.17,132.84L188.13,133.18"/></g><g style="stroke:#000000;stroke-width:0.529"><path d="M185.69,134.12L185.72,134.13L186.03,134.28L186.37,134.30L186.43,134.29L186.66,134.17L186.81,134.09L187.27,134.01L188.08,133.55L188.13,133.18L188.14,133.12L188.17,132.84L188.14,132.53L188.11,132.45L188.08,132.24L187.96,132.04L187.88,131.87L187.68,131.58L187.45,131.33L187.36,131.27L187.10,131.02L186.70,131.02L186.12,131.11L185.31,131.58L185.29,131.78L185.23,131.81L185.18,131.85L184.99,132.03L184.96,132.08L184.86,132.36L184.86,132.63"/></g></g><g id="Actor_2.21"><g style="stroke:#000000;stroke-width:0.176"/><g style="stroke:#000000;stroke-width:0.529"><path d="M144.09,148.82L144.30,148.47L144.81,148.20L145.44,148.22L146.13,148.53L146.23,148.62"/></g></g><g id="Actor_2.22"><g style="stroke:#000000;stroke-width:0.176"><path d="M179.88,136.29L180.02,136.48L180.06,136.69L180.01,136.89L179.88,137.08L179.66,137.25L179.36,137.37L179.03,137.45L178.68,137.48L178.32,137.45L177.98,137.37L177.70,137.25L177.48,137.08L177.34,136.89L177.29,136.68L177.34,136.48L177.47,136.29L177.70,136.12L177.88,136.04"/><path d="M177.13,137.02L177.70,137.25L178.26,137.67L179.03,137.45L179.81,137.43L180.01,136.89L180.22,136.55"/><path d="M177.81,138.20L178.07,138.31L178.13,138.32L177.41,137.91"/><path d="M179.31,141.36L179.12,141.45L178.85,141.51L178.57,141.52L178.30,141.47L178.06,141.37"/><path d="M179.54,138.20L179.38,138.28L178.96,138.37L178.50,138.38L178.43,138.37L179.55,138.20"/><path d="M178.13,138.32L178.26,138.39L178.43,138.37"/><path d="M178.26,138.39L178.26,137.67"/><path d="M179.81,137.43L179.81,138.16"/><path d="M180.06,137.61L179.91,137.94"/><path d="M179.29,135.98L179.03,135.92L178.87,135.90"/></g><g style="stroke:#000000;stroke-width:0.529"><path d="M177.81,138.20L177.70,138.15L177.43,137.94L177.41,137.91L177.13,137.74L177.13,137.02L177.34,136.48L177.54,136.14L177.88,136.04L177.99,135.99L178.32,135.92L178.67,135.89L178.87,135.90L179.09,135.90L179.29,135.98L179.37,136.00L179.66,136.12L179.88,136.29L180.22,136.55L180.22,137.27L180.06,137.61L180.06,137.63L179.97,137.88L179.91,137.94L179.81,138.16L179.55,138.20L179.54,138.20"/><path d="M179.32,141.36L179.23,141.41L179.05,141.50L178.82,141.55L178.59,141.55L178.36,141.51L178.16,141.43L178.06,141.37L177.90,141.24L177.82,141.08L177.82,140.62"/></g></g><g id="Actor_2.23"><g style="stroke:#000000;stroke-width:0.176"><path d="M176.71,134.28L176.72,134.29L176.94,134.30L177.11,134.22L177.22,134.04L177.26,133.79L177.26,133.76L177.22,133.50L177.11,133.20L176.94,132.91L176.72,132.68L176.48,132.52L176.26,132.46L176.06,132.49L175.91,132.63L175.86,132.79"/><path d="M176.13,132.48L176.07,132.53L176.01,132.70"/><path d="M176.12,131.84L176.53,131.85L177.10,131.75L177.51,132.41L178.08,132.97L178.00,133.67L178.08,134.28"/><path d="M177.62,134.36L177.71,134.31L177.87,134.17L177.96,133.95L178.00,133.67L177.96,133.36L177.87,133.03L177.87,133.03L177.71,132.70L177.51,132.41L177.27,132.16L177.02,131.98L176.76,131.87L176.53,131.85L176.33,131.91L176.10,132.04"/><path d="M177.12,134.20L177.09,134.21L176.88,134.20L176.87,134.19"/><path d="M177.10,131.75L177.91,131.29"/><path d="M178.08,132.97L178.89,132.50"/><path d="M178.17,131.54L178.49,131.84L178.77,132.31"/><path d="M178.93,132.72L178.98,133.11L178.94,133.45"/></g><g style="stroke:#000000;stroke-width:0.529"><path d="M175.67,132.89L175.67,132.63L175.77,132.34L175.80,132.29L175.99,132.11L176.04,132.08L176.10,132.04L176.12,131.84L176.93,131.38L177.51,131.28L177.91,131.29L178.17,131.54L178.26,131.60L178.49,131.84L178.69,132.14L178.77,132.31L178.89,132.50L178.93,132.72L178.95,132.79L178.98,133.11L178.95,133.38L178.94,133.45L178.89,133.81L178.08,134.28L177.62,134.36L177.47,134.43L177.24,134.55L177.18,134.57L176.84,134.55L176.53,134.40L176.51,134.38"/></g></g><g id="Actor_2.24"><g style="stroke:#000000;stroke-width:0.176"><path d="M184.72,133.11L184.75,132.94L184.83,132.81L184.95,132.75L185.10,132.76L185.27,132.84L185.43,132.98L185.58,133.17L185.68,133.38L185.73,133.60L185.73,133.79L185.68,133.95L185.58,134.04L185.43,134.07L185.27,134.02"/><path d="M184.85,132.63L185.00,132.56L185.18,132.57L185.38,132.67L185.49,132.76L185.58,132.84L185.75,133.06L185.87,133.32L185.93,133.58L185.93,133.81L185.87,133.99L185.75,134.11"/></g><g style="stroke:#000000;stroke-width:0.529"><path d="M185.41,132.31L184.85,132.63L184.75,132.78L184.72,133.00L184.72,133.11L184.75,133.32L184.83,133.54L184.95,133.74L184.95,133.74L185.10,133.91L185.27,134.02L185.38,134.08L185.58,134.14L185.75,134.11L186.31,133.78"/><path d="M192.14,130.93L192.25,130.65L192.25,130.25L192.15,129.86L191.96,129.47L191.70,129.13L191.41,128.88L191.38,128.86L191.07,128.71L190.80,128.70"/></g></g><g id="Actor_2.25"><g style="stroke:#000000;stroke-width:0.176"><path d="M185.17,137.30L185.40,137.39L185.67,137.44L185.96,137.43L186.22,137.37L186.36,137.31"/></g><g style="stroke:#000000;stroke-width:0.529"><path d="M184.92,136.30L184.92,137.01L185.00,137.17L185.17,137.30L185.27,137.36L185.46,137.44L185.69,137.48L185.93,137.47L186.15,137.42L186.33,137.33L186.37,137.31"/></g></g><g id="Actor_2.26"><g style="stroke:#000000;stroke-width:0.176"><path d="M138.68,155.83L138.68,151.57L138.77,150.86L139.03,150.12L139.44,149.41L139.95,148.82L140.52,148.39L141.01,148.11L146.64,144.88L147.21,144.65L147.72,144.66"/><path d="M144.50,147.52L145.11,147.17L145.11,147.24"/></g><g style="stroke:#000000;stroke-width:0.529"><path d="M148.48,147.29L148.48,145.95L148.39,145.34L148.13,144.90L147.72,144.66L147.11,144.31L146.60,144.30L146.03,144.52L141.32,147.22L139.90,148.04L139.34,148.47L138.82,149.06L138.42,149.77L138.16,150.51L138.07,151.22L138.07,155.48L138.68,155.83L141.07,154.46L141.50,153.72"/><path d="M144.50,147.52L142.05,148.93L142.05,151.39"/></g></g><g id="Actor_2.27"><g style="stroke:#000000;stroke-width:0.176"><path d="M146.11,157.31L145.99,157.63L145.70,157.91L145.26,158.12L144.73,158.24L144.16,158.25L143.61,158.16L143.15,157.97L142.82,157.70L142.66,157.39"/></g><g style="stroke:#000000;stroke-width:0.529"><path d="M142.83,156.84L142.68,157.06L142.66,157.39L142.66,157.67L142.82,157.99L143.15,158.25L143.61,158.44L144.16,158.54L144.73,158.52L145.26,158.40L145.70,158.19L145.99,157.91L146.11,157.59L146.11,157.31L146.04,156.98L145.92,156.85"/></g></g><g id="Actor_2.28"><g style="stroke:#000000;stroke-width:0.176"><path d="M180.41,137.63L180.29,137.95L180.00,138.23L179.56,138.45L179.03,138.56L178.46,138.58L177.91,138.49L177.45,138.30L177.12,138.03L176.96,137.72"/></g><g style="stroke:#000000;stroke-width:0.529"><path d="M177.13,137.17L176.98,137.39L176.96,137.72L176.96,138.00L177.12,138.31L177.45,138.58L177.91,138.77L178.46,138.86L179.03,138.85L179.22,138.81L179.56,138.73L180.00,138.52L180.29,138.24L180.41,137.92L180.41,137.63L180.34,137.31L180.22,137.17"/></g></g><g id="Actor_2.29"><g style="stroke:#000000;stroke-width:0.176"><path d="M141.23,153.05L141.26,152.88L141.34,152.75L141.46,152.69L141.62,152.70L141.78,152.78L141.95,152.92L142.09,153.11L142.19,153.32L142.25,153.54L142.25,153.73L142.19,153.88L142.09,153.98L141.95,154.00L141.78,153.96"/><path d="M142.26,154.05L142.38,153.93L142.45,153.75L142.45,153.63L142.45,153.52L142.38,153.26L142.26,153.00L142.09,152.78L141.89,152.61L141.72,152.53L141.69,152.51L141.51,152.50L141.36,152.57"/></g><g style="stroke:#000000;stroke-width:0.529"><path d="M141.93,152.25L141.36,152.57L141.26,152.72L141.23,152.94L141.23,153.05L141.26,153.26L141.34,153.48L141.43,153.63L141.46,153.68L141.62,153.85L141.78,153.96L141.89,154.02L142.09,154.08L142.26,154.05L142.82,153.72"/></g></g><g id="Actor_2.30"><g style="stroke:#000000;stroke-width:0.176"><path d="M155.85,152.80L155.92,152.28L155.81,151.53L155.51,150.75L155.30,150.37L155.06,150.02L154.50,149.43L153.89,149.04L153.32,148.90"/><path d="M153.21,148.80L153.60,148.60L154.15,148.62L154.75,148.89L155.34,149.39L155.85,150.06L156.23,150.82L156.44,151.60L156.45,152.30L156.27,152.87L155.98,153.15"/><path d="M155.53,151.98L155.52,151.88L155.17,150.98L154.93,150.55L154.65,150.15L154.01,149.47L153.87,149.38"/></g><g style="stroke:#000000;stroke-width:0.529"><path d="M153.16,148.76L153.17,148.74L153.49,148.20L153.99,147.93L154.62,147.96L155.32,148.27L155.99,148.84L156.58,149.61L157.02,150.48L157.26,151.38L157.28,152.19L157.07,152.82"/><path d="M156.13,153.36L156.07,153.37L156.07,153.37"/></g></g><g id="Actor_2.31"><g style="stroke:#000000;stroke-width:0.176"><path d="M155.96,148.81L155.78,148.58L154.86,147.76L153.90,147.27L153.01,147.15L145.05,147.91L144.44,147.56"/><path d="M145.05,147.91L145.66,147.56"/><path d="M151.79,155.73L151.79,156.03L151.85,156.44L152.02,156.73L152.29,156.89"/><path d="M153.91,155.52L153.01,156.04L152.82,156.11L152.65,156.11L152.52,156.03L152.43,155.88L152.40,155.68L152.40,155.67"/><path d="M157.04,150.56L157.19,150.85L157.79,152.40L158.40,152.05"/></g><g style="stroke:#000000;stroke-width:0.529"><path d="M143.82,147.91L143.82,148.85"/><path d="M158.40,152.05L157.80,150.50L157.20,149.29L156.40,148.23L155.47,147.41L154.51,146.92L153.62,146.80L145.66,147.56L145.05,147.21"/><path d="M150.48,155.85L152.29,156.89L152.63,156.90L153.01,156.75L154.17,156.08"/></g></g><g id="Actor_1.4"><g style="stroke:#000000;stroke-width:0.176"><path d="M45.36,202.66L45.36,200.54L8.61,179.46"/><path d="M29.84,187.16L29.49,186.64L29.43,185.82L29.83,185.04L30.66,184.37L31.82,183.90L33.19,183.67L34.61,183.70L35.94,184.00L37.03,184.53L37.76,185.23L38.05,186.03L37.88,186.84L37.58,187.19"/><path d="M45.36,200.54L57.61,193.51"/></g><g style="stroke:#000000;stroke-width:0.529"><path d="M9.84,178.75L8.61,179.46L8.61,181.59L45.36,202.66L57.61,195.64L57.61,193.51L56.39,192.81"/><path d="M41.71,184.38L24.54,174.54"/><path d="M30.91,188.02L30.01,187.40L29.84,187.16L30.66,186.50L31.82,186.03L33.19,185.80L34.61,185.83L35.94,186.13L37.03,186.65L37.58,187.19L37.25,187.57L36.24,188.15L34.96,188.51L33.55,188.61L32.15,188.45L30.91,188.02"/></g></g><g id="Actor_1.5"><g style="stroke:#000000;stroke-width:0.176"><path d="M57.72,171.31L57.38,171.30L57.00,171.45L50.26,175.32L48.37,176.75L46.66,178.74L45.31,181.08L44.44,183.56L44.14,185.93L44.14,199.83"/></g><g style="stroke:#000000;stroke-width:0.529"><path d="M41.69,198.43L41.69,184.52L41.99,182.16L42.86,179.68L44.21,177.33L45.92,175.34L47.81,173.91L54.55,170.05L54.93,169.90L55.27,169.90L57.99,171.47L58.17,171.76L58.23,172.17L58.23,177.56L57.61,177.91L57.24,178.20L56.89,178.60L56.62,179.07L56.45,179.56L56.39,180.03L56.39,192.81L44.14,199.83L41.69,198.43"/></g></g><g id="Actor_1.6"><g style="stroke:#000000;stroke-width:0.176"><path d="M21.35,153.94L50.75,170.81L56.88,167.29"/><path d="M26.50,153.96L26.44,153.94L26.10,153.71L25.91,153.43L25.89,153.13L26.04,152.84L26.34,152.59L26.77,152.41L27.28,152.33L27.81,152.34L28.30,152.45L28.70,152.65L28.97,152.91L29.08,153.20L29.01,153.50L28.78,153.77L28.41,153.99L27.94,154.12L27.41,154.16L26.90,154.10L26.50,153.96"/><path d="M28.63,163.79L28.36,163.55L28.12,163.24L27.95,162.88L27.86,162.52L27.86,162.19L27.95,161.94L28.12,161.78L28.36,161.73L28.63,161.81L28.91,162.00L29.17,162.28L29.38,162.62L29.51,162.98L29.56,163.33L29.51,163.63L29.38,163.84L29.17,163.94L28.91,163.93L28.63,163.79"/><path d="M42.65,171.32L42.82,171.67L43.06,171.99L43.33,172.22L43.61,172.36L43.87,172.37L44.08,172.27L44.21,172.06L44.26,171.77L44.21,171.42L44.08,171.05L43.87,170.71L43.61,170.43L43.33,170.24L43.06,170.17L43.03,170.17L42.82,170.21L42.65,170.37L42.56,170.62L42.56,170.95L42.65,171.32"/><path d="M50.75,172.22L50.75,170.81"/><path d="M50.39,167.18L50.54,166.89L50.85,166.64L51.27,166.47L51.78,166.38L52.31,166.39L52.80,166.50L53.20,166.70L53.47,166.96L53.58,167.25L53.51,167.55L53.28,167.83L52.91,168.04L52.44,168.17L51.91,168.21L51.40,168.15L50.94,167.99L50.60,167.76L50.41,167.48L50.39,167.18"/></g><g style="stroke:#000000;stroke-width:0.529"><path d="M46.08,175.22L21.35,161.04L21.35,153.94L27.48,150.43L56.88,167.29L56.88,170.83"/></g></g><g id="Actor_2.32"><g style="stroke:#000000;stroke-width:0.176"><path d="M115.04,164.42L115.65,164.77L123.61,164.02L124.50,164.13L125.46,164.62L126.38,165.44L126.56,165.67"/><path d="M115.65,164.77L116.26,164.42"/><path d="M122.89,173.75L122.62,173.60L122.45,173.30L122.39,172.90L122.39,172.59"/><path d="M124.51,172.39L123.61,172.90L123.42,172.98L123.25,172.97L123.12,172.89L123.03,172.75L123.00,172.54L123.00,172.53"/><path d="M129.00,168.91L128.39,169.27L127.79,167.71L127.64,167.42"/></g><g style="stroke:#000000;stroke-width:0.529"><path d="M114.42,165.71L114.42,164.77"/><path d="M115.65,164.07L116.26,164.42L124.22,163.66L125.11,163.78L126.07,164.27L126.99,165.09L127.80,166.15L128.40,167.36L129.00,168.91"/><path d="M124.77,172.95L123.61,173.61L123.23,173.76L122.89,173.75L121.08,172.71"/></g></g><g id="Actor_1.7"><g style="stroke:#000000;stroke-width:0.176"><path d="M12.29,181.56L12.29,167.66L12.59,165.29L13.46,162.82L14.81,160.47L16.52,158.48L18.41,157.05L21.35,155.36"/></g><g style="stroke:#000000;stroke-width:0.529"><path d="M24.54,162.86L24.54,174.54L12.29,181.56L9.84,180.16L9.84,166.25L10.14,163.89L11.01,161.41L12.36,159.06L14.07,157.08L15.96,155.64L22.70,151.78L23.08,151.63L23.42,151.64L24.40,152.20"/></g></g><g id="Actor_2.33"><g style="stroke:#000000;stroke-width:0.176"><path d="M114.90,165.33L114.90,165.33"/></g><g style="stroke:#000000;stroke-width:0.529"><path d="M116.83,165.48L116.73,165.40L116.04,165.08L115.41,165.06L114.90,165.33L114.69,165.69"/></g></g><g id="Actor_2.34"><g style="stroke:#000000;stroke-width:0.176"><path d="M122.74,173.81L122.52,173.91L122.26,173.97L121.97,173.98L121.70,173.93L121.47,173.84"/></g><g style="stroke:#000000;stroke-width:0.529"><path d="M121.22,172.80L121.22,173.55L121.30,173.70L121.47,173.84L121.57,173.90L121.76,173.97L121.99,174.01L122.23,174.01L122.45,173.96L122.63,173.87L122.74,173.81L122.83,173.72"/></g></g><g id="Actor_2.35"><g style="stroke:#000000;stroke-width:0.176"><path d="M188.70,136.69L189.93,134.93L193.60,132.83"/><path d="M189.93,134.93L189.40,134.27"/></g><g style="stroke:#000000;stroke-width:0.529"><path d="M188.80,136.63L188.70,136.69L188.17,136.03L189.40,134.27L193.07,132.17L193.60,132.83L192.38,134.58L188.80,136.63"/></g></g><g id="Actor_2.36"><g style="stroke:#000000;stroke-width:0.176"><path d="M123.92,165.76L124.49,165.91L125.10,166.30L125.66,166.89L125.90,167.24L126.11,167.61L126.41,168.39L126.52,169.14L126.45,169.67"/><path d="M126.13,168.84L126.12,168.75L125.77,167.85L125.53,167.42L125.25,167.02L124.61,166.34L124.47,166.25"/><path d="M126.58,170.01L126.87,169.73L127.05,169.17L127.04,168.46L126.83,167.68L126.45,166.92L125.94,166.25L125.35,165.76L124.75,165.49L124.20,165.47L123.81,165.66"/></g><g style="stroke:#000000;stroke-width:0.529"><path d="M123.76,165.62L123.77,165.60L124.09,165.07L124.59,164.80L125.22,164.82L125.92,165.13L126.59,165.70L127.18,166.47L127.62,167.35L127.86,168.24L127.88,169.05L127.67,169.68"/><path d="M126.67,170.23L126.67,170.23L126.73,170.22"/></g></g><g id="Actor_2.37"><g style="stroke:#000000;stroke-width:0.176"><path d="M190.15,133.13L190.22,132.61L190.11,131.85L189.81,131.07L189.60,130.70L189.36,130.35L188.80,129.76L188.19,129.37L187.62,129.22"/><path d="M187.51,129.13L187.90,128.93L188.45,128.95L189.05,129.22L189.64,129.72L190.15,130.38L190.53,131.15L190.74,131.92L190.75,132.63L190.57,133.19L190.28,133.47"/><path d="M189.83,132.31L189.82,132.21L189.47,131.31L189.23,130.88L188.95,130.48L188.31,129.80L188.17,129.71"/></g><g style="stroke:#000000;stroke-width:0.529"><path d="M187.46,129.09L187.47,129.06L187.79,128.53L188.29,128.26L188.93,128.28L189.62,128.60L190.29,129.17L190.88,129.93L191.32,130.81L191.56,131.70L191.58,132.52L191.37,133.14"/><path d="M190.43,133.68L190.37,133.69L190.37,133.69"/></g></g><g id="Actor_2.38"><g style="stroke:#000000;stroke-width:0.176"><path d="M129.90,169.36L126.23,171.47L125.00,173.23"/><path d="M125.70,170.81L126.23,171.47"/></g><g style="stroke:#000000;stroke-width:0.529"><path d="M124.47,172.57L125.00,173.23L128.68,171.12L129.90,169.36L129.37,168.70L125.70,170.81L124.47,172.57"/></g></g><g id="Actor_2.39"><g style="stroke:#000000;stroke-width:0.176"><path d="M116.18,172.83L116.31,173.02L116.36,173.23L116.31,173.43L116.18,173.62L115.95,173.78L115.66,173.91L115.33,173.99L114.98,174.02L114.62,173.99L114.28,173.91L113.99,173.78L113.78,173.62L113.64,173.43L113.59,173.22L113.64,173.02L113.77,172.83L113.99,172.66L114.18,172.58"/><path d="M116.52,173.09L116.31,173.43L116.11,173.97L115.33,173.99L114.56,174.21L113.99,173.78L113.43,173.56"/><path d="M114.56,174.21L114.56,174.93L113.71,174.44"/><path d="M114.36,177.91L114.59,178.01L114.87,178.05L115.15,178.05L115.42,177.99L115.61,177.89"/><path d="M114.56,174.93L115.85,174.73"/><path d="M114.43,174.85L114.37,174.84L114.11,174.74"/><path d="M114.73,174.91L114.80,174.92L115.26,174.91L115.68,174.81L115.84,174.74"/><path d="M115.59,172.51L115.33,172.45L115.17,172.44"/><path d="M116.11,174.69L116.11,173.97"/><path d="M116.21,174.47L116.36,174.15"/><path d="M115.95,172.66L115.96,172.66"/></g><g style="stroke:#000000;stroke-width:0.529"><path d="M114.11,174.74L113.99,174.69L113.73,174.48L113.71,174.44L113.43,174.28L113.43,173.56L113.64,173.02L113.84,172.67L114.18,172.58L114.29,172.53L114.62,172.45L114.97,172.43L115.17,172.44L115.39,172.44L115.59,172.51L115.67,172.53L115.95,172.66"/><path d="M114.11,177.16L114.12,177.62L114.20,177.78L114.36,177.91L114.46,177.97L114.66,178.05L114.83,178.08L114.89,178.09L115.12,178.08L115.34,178.03L115.53,177.95L115.61,177.89"/><path d="M115.96,172.66L116.18,172.83L116.52,173.09L116.52,173.81L116.36,174.15L116.36,174.16L116.27,174.42L116.21,174.47L116.11,174.69L115.85,174.73L115.84,174.74"/></g></g><g id="Actor_2.40"><g style="stroke:#000000;stroke-width:0.176"><path d="M171.88,136.22L171.88,136.37L171.96,136.52L172.12,136.65L178.86,140.51L179.08,140.60L179.34,140.65L179.61,140.65L179.87,140.60L180.08,140.51L183.15,138.75L183.34,138.61L183.51,138.41L183.64,138.18L183.73,137.93L183.76,137.69L183.76,136.27L184.37,136.22"/><path d="M190.38,133.71L189.76,134.06L189.16,132.51L188.56,131.30L187.76,130.24L186.83,129.42L185.87,128.93L184.98,128.81L177.02,129.57L176.41,129.22"/><path d="M177.02,129.57L177.63,129.22"/></g><g style="stroke:#000000;stroke-width:0.529"><path d="M184.75,136.18L184.37,136.22L184.37,137.34L184.31,137.82L184.14,138.31L183.87,138.78L183.53,139.18L183.15,139.46L180.08,141.22L179.87,141.31L179.61,141.36L179.34,141.36L179.08,141.31L178.86,141.22L172.12,137.36L171.96,137.23L171.88,137.08L171.88,136.22L171.96,136.07L172.12,135.94L172.37,135.80"/><path d="M190.38,133.71L189.77,132.16L189.17,130.95L188.37,129.89L187.44,129.07L186.49,128.58L185.59,128.46L177.63,129.22L177.02,128.87"/><path d="M186.22,136.04L188.30,135.84"/></g></g><g id="Actor_2.41"><g style="stroke:#000000;stroke-width:0.176"><path d="M111.83,169.91L111.86,169.74L111.94,169.61L112.06,169.55L112.22,169.56L112.38,169.64L112.55,169.78L112.69,169.97L112.79,170.18L112.84,170.40L112.84,170.59L112.79,170.75L112.69,170.84L112.55,170.87L112.38,170.82"/><path d="M112.86,170.91L112.98,170.80L113.05,170.61L113.05,170.38L113.00,170.21L112.98,170.12L112.86,169.87L112.69,169.64L112.49,169.47L112.29,169.38L112.11,169.36L111.96,169.44"/></g><g style="stroke:#000000;stroke-width:0.529"><path d="M113.42,170.58L112.86,170.91L112.69,170.94L112.49,170.89L112.38,170.82L112.22,170.71L112.06,170.54L111.94,170.34L111.86,170.12L111.83,169.91L111.83,169.80L111.86,169.59L111.96,169.44L112.53,169.11"/></g></g><g id="Actor_2.42"><g style="stroke:#000000;stroke-width:0.176"><path d="M175.53,133.38L175.56,133.20L175.64,133.08L175.76,133.01L175.92,133.02L176.08,133.10L176.25,133.25L176.39,133.43L176.49,133.65L176.51,133.74L176.55,133.86L176.55,134.06L176.49,134.21L176.39,134.30L176.25,134.33L176.08,134.28"/><path d="M176.56,134.37L176.68,134.26L176.75,134.08L176.75,133.84L176.68,133.58L176.56,133.33L176.39,133.10L176.19,132.93L175.99,132.84L175.81,132.83L175.66,132.90"/></g><g style="stroke:#000000;stroke-width:0.529"><path d="M176.23,132.57L175.66,132.90L175.56,133.05L175.53,133.26L175.53,133.38L175.56,133.59L175.64,133.80L175.76,134.01L175.92,134.17L176.08,134.28L176.19,134.35L176.39,134.40L176.56,134.37L177.12,134.05"/></g></g><g id="Actor_2.43"><g style="stroke:#000000;stroke-width:0.176"><path d="M109.28,172.69L109.28,168.43L109.37,167.73L109.63,166.98L110.04,166.28L110.55,165.68L111.12,165.25L114.83,163.12L117.24,161.74L117.81,161.52L118.32,161.53"/><path d="M115.10,164.39L115.71,164.04L115.71,164.11"/></g><g style="stroke:#000000;stroke-width:0.529"><path d="M112.10,170.58L111.67,171.32L109.28,172.69L108.67,172.34L108.67,168.08L108.76,167.37L109.02,166.63L109.42,165.93L109.94,165.33L110.50,164.90L110.88,164.68L116.63,161.39L117.20,161.17L117.71,161.17L118.32,161.53L118.73,161.76L118.99,162.21L119.08,162.81L119.08,164.15"/><path d="M115.10,164.39L112.65,165.79L112.65,168.25"/></g></g><g id="Actor_2.44"><g style="stroke:#000000;stroke-width:0.176"><path d="M116.71,174.17L116.59,174.49L116.30,174.77L115.86,174.98L115.33,175.10L114.83,175.11L114.76,175.12L114.21,175.02L113.75,174.83L113.42,174.57L113.26,174.25"/></g><g style="stroke:#000000;stroke-width:0.529"><path d="M116.52,173.71L116.64,173.85L116.71,174.17L116.71,174.45L116.59,174.77L116.30,175.06L115.86,175.27L115.33,175.39L114.76,175.40L114.21,175.31L114.16,175.29L113.75,175.12L113.42,174.85L113.26,174.54L113.26,174.25L113.28,173.93L113.43,173.71"/></g></g><g id="Actor_2.45"><g style="stroke:#000000;stroke-width:0.176"><path d="M122.20,170.56L122.21,170.56L122.42,170.58L122.60,170.49L122.71,170.31L122.75,170.07L122.71,169.77L122.60,169.47L122.42,169.18L122.39,169.15L122.21,168.95L121.97,168.79L121.74,168.73L121.54,168.76L121.40,168.90L121.34,169.06"/><path d="M122.61,170.47L122.58,170.49L122.36,170.47L122.35,170.47"/><path d="M123.57,170.55L123.48,169.95L123.57,169.24L122.99,168.68L122.59,168.02L122.01,168.12L121.61,168.12"/><path d="M123.11,170.63L123.19,170.59L123.35,170.44L123.45,170.22L123.48,169.95L123.45,169.64L123.35,169.30L123.19,168.97L122.99,168.68L122.76,168.44L122.50,168.25L122.25,168.14L122.01,168.12L121.81,168.18L121.59,168.31"/><path d="M121.62,168.75L121.56,168.81L121.50,168.97"/><path d="M123.57,169.24L124.38,168.78"/><path d="M122.59,168.02L123.40,167.56"/><path d="M124.43,169.72L124.47,169.38L124.41,168.99"/><path d="M124.26,168.58L123.98,168.12L123.66,167.81"/></g><g style="stroke:#000000;stroke-width:0.529"><path d="M121.99,170.65L122.02,170.67L122.33,170.82L122.67,170.84L122.72,170.82L122.96,170.71L123.11,170.63L123.57,170.55L124.38,170.09L124.43,169.72L124.44,169.65L124.47,169.38L124.43,169.07L124.41,168.99L124.38,168.78L124.26,168.58L124.18,168.41L123.98,168.12L123.75,167.87L123.66,167.81L123.40,167.56L123.00,167.55L122.42,167.65L121.61,168.12L121.59,168.31L121.52,168.35L121.48,168.39L121.28,168.57L121.26,168.61L121.16,168.90L121.16,169.17"/></g></g><g id="Actor_2.46"><g style="stroke:#000000;stroke-width:0.176"><path d="M178.74,127.89L179.35,128.24L187.31,127.48L188.20,127.59L189.16,128.08L190.08,128.90L190.26,129.14"/><path d="M179.35,128.24L179.96,127.89"/><path d="M188.21,135.85L187.31,136.37L187.12,136.44L186.95,136.44L186.82,136.36L186.73,136.21L186.70,136.01L186.70,135.99"/><path d="M192.70,132.38L192.09,132.73L191.49,131.18L191.34,130.89"/></g><g style="stroke:#000000;stroke-width:0.529"><path d="M178.12,128.24L178.12,129.17"/><path d="M179.35,127.53L179.96,127.89L187.92,127.13L188.81,127.24L189.77,127.73L190.70,128.55L191.50,129.62L192.10,130.83L192.70,132.38"/><path d="M188.48,136.41L187.52,136.95"/></g></g><g id="Actor_2.47"><g style="stroke:#000000;stroke-width:0.176"><path d="M121.02,169.65L121.05,169.47L121.13,169.35L121.25,169.29L121.40,169.30L121.57,169.38L121.73,169.52L121.87,169.71L121.98,169.92L122.03,170.13L122.03,170.33L121.98,170.48L121.87,170.58L121.73,170.60L121.57,170.56"/><path d="M121.15,169.17L121.29,169.10L121.48,169.11L121.68,169.21L121.88,169.38L122.04,169.60L122.17,169.86L122.23,170.11L122.23,170.35L122.17,170.53L122.04,170.64"/></g><g style="stroke:#000000;stroke-width:0.529"><path d="M122.61,170.32L122.04,170.64L121.88,170.68L121.68,170.62L121.57,170.56L121.40,170.45L121.25,170.28L121.13,170.08L121.05,169.86L121.02,169.65L121.02,169.53L121.05,169.32L121.15,169.17L121.71,168.85"/><path d="M127.10,165.23L127.37,165.25L127.68,165.40L127.71,165.41L128.00,165.67L128.26,166.01L128.45,166.40L128.55,166.79L128.55,167.18L128.44,167.47"/></g></g><g id="Actor_2.48"><g style="stroke:#000000;stroke-width:0.176"><path d="M112.15,169.32L112.21,169.16L112.36,169.03L112.43,169.02L112.37,169.07L112.31,169.23"/><path d="M112.42,168.38L112.83,168.38L113.40,168.29L113.81,168.95L114.38,169.51L114.30,170.21L114.38,170.82"/><path d="M113.01,170.82L113.02,170.83L113.24,170.84L113.41,170.76L113.52,170.58L113.56,170.33L113.52,170.04L113.41,169.73L113.24,169.46L113.24,169.45L113.02,169.22L112.78,169.06L112.55,168.99L112.43,169.02"/><path d="M112.40,168.58L112.63,168.45L112.83,168.38L113.06,168.41L113.32,168.51L113.57,168.70L113.81,168.95L114.01,169.24L114.16,169.57L114.26,169.90L114.30,170.21L114.26,170.48L114.16,170.70L114.01,170.85L113.92,170.89"/><path d="M113.42,170.74L113.39,170.75L113.18,170.74L113.17,170.73"/><path d="M113.40,168.29L114.21,167.82"/><path d="M114.38,169.51L115.19,169.04"/><path d="M115.07,168.84L114.79,168.38L114.47,168.07"/><path d="M115.22,169.25L115.28,169.65L115.24,169.98"/></g><g style="stroke:#000000;stroke-width:0.529"><path d="M112.80,170.92L112.83,170.93L113.14,171.08L113.48,171.11L113.54,171.09L113.77,170.97L113.92,170.89L114.38,170.82L115.19,170.35L115.24,169.98L115.25,169.92L115.28,169.65L115.25,169.33L115.22,169.25L115.19,169.04L115.07,168.84L114.99,168.67L114.79,168.38L114.56,168.14L114.47,168.07L114.21,167.82L113.81,167.82L113.23,167.92L112.42,168.38L112.40,168.58L112.34,168.61L112.29,168.65L112.10,168.83L112.07,168.88L111.97,169.16L111.97,169.43"/></g></g><g id="Actor_2.49"><g style="stroke:#000000;stroke-width:0.176"><path d="M172.98,136.15L172.98,131.90L173.07,131.19L173.33,130.44L173.74,129.74L174.25,129.14L174.82,128.71L177.76,127.03L180.94,125.20L181.51,124.98L182.02,124.99"/><path d="M178.80,127.85L179.41,127.50L179.41,127.57"/></g><g style="stroke:#000000;stroke-width:0.529"><path d="M175.80,134.04L175.37,134.78L172.98,136.15L172.37,135.80L172.37,131.55L172.46,130.84L172.72,130.09L173.12,129.39L173.64,128.79L174.20,128.36L180.25,124.89L180.33,124.85L180.90,124.63L181.41,124.64L182.02,124.99L182.43,125.23L182.69,125.67L182.78,126.28L182.78,127.62"/><path d="M178.80,127.85L176.35,129.26L176.35,131.72"/></g></g><g id="Actor_2.50"><g style="stroke:#000000;stroke-width:0.176"><path d="M178.60,128.79L178.60,128.79"/></g><g style="stroke:#000000;stroke-width:0.529"><path d="M180.53,128.94L180.43,128.86L179.74,128.55L179.11,128.52L178.60,128.79L178.39,129.15"/></g></g><g id="Actor_2.51"><g style="stroke:#000000;stroke-width:0.176"><path d="M108.18,173.62L108.18,173.62"/><path d="M120.67,172.75L120.06,172.81L120.06,174.23L120.03,174.47L119.94,174.72L119.81,174.95L119.64,175.15L119.45,175.29L116.38,177.05L116.16,177.14L115.91,177.19L115.64,177.19L115.38,177.14L115.16,177.05L108.42,173.18L108.26,173.06L108.18,172.91L108.18,172.76"/><path d="M126.68,170.25L126.06,170.60L125.46,169.05L124.86,167.84L124.05,166.78L123.13,165.96L122.17,165.47L121.28,165.35L113.32,166.11L113.93,165.76"/><path d="M113.32,166.11L112.71,165.76"/></g><g style="stroke:#000000;stroke-width:0.529"><path d="M124.60,172.38L120.67,172.75L120.67,173.88L120.61,174.35L120.44,174.85L120.17,175.32L119.82,175.71L119.45,176.00L116.38,177.76L116.16,177.85L115.91,177.90L115.64,177.90L115.38,177.85L115.16,177.76L108.42,173.89L108.26,173.77L108.18,173.62"/><path d="M108.18,173.62L108.18,172.76L108.26,172.61L108.42,172.48L108.67,172.34"/><path d="M113.32,165.41L113.93,165.76L121.89,165.00L122.78,165.12L123.74,165.61L124.67,166.42L125.47,167.49L126.07,168.70L126.68,170.25"/></g></g><g><g><path style="stroke:#000000;stroke-width:0.125;stroke-dasharray:2.0 1.3 0.7 1.3" d="M249.15,40.18L256.63,44.47"/><path style="stroke:#000000;stroke-width:0.125;stroke-dasharray:2.0 1.3 0.7 1.3" d="M285.08,60.79L284.69,60.57"/></g></g><g><g><path style="stroke:#000000;stroke-width:0.125;stroke-dasharray:2.0 1.3 0.7 1.3" d="M264.87,70.28L230.77,50.72"/><path style="stroke:#000000;stroke-width:0.125;stroke-dasharray:2.0 1.3 0.7 1.3" d="M266.71,71.33L266.32,71.11"/></g></g><g id="PMI5.0"><g><path style="stroke:#000000;stroke-width:0.125" d="M197.53,23.69L247.12,37.95"/></g><g><path style="fill:#000000" d="M247.87,37.95L247.86,37.88L247.85,37.80L247.83,37.73L247.81,37.66L247.78,37.60L247.74,37.53L247.69,37.47L247.65,37.42L247.59,37.37L247.53,37.33L247.47,37.29L247.40,37.26L247.33,37.23L247.26,37.21L247.19,37.20L247.12,37.20L247.04,37.20L246.97,37.21L246.90,37.23L246.83,37.26L246.76,37.29L246.70,37.33L246.64,37.37L246.58,37.42L246.54,37.47L246.49,37.53L246.45,37.60L246.42,37.66L246.40,37.73L246.38,37.80L246.37,37.88L246.37,37.95L246.37,38.02L246.38,38.10L246.40,38.17L246.42,38.24L246.45,38.30L246.49,38.37L246.54,38.43L246.58,38.48L246.64,38.53L246.70,38.57L246.76,38.61L246.83,38.64L246.90,38.67L246.97,38.69L247.04,38.70L247.12,38.70L247.19,38.70L247.26,38.69L247.33,38.67L247.40,38.64L247.47,38.61L247.53,38.57L247.59,38.53L247.65,38.48L247.69,38.43L247.74,38.37L247.78,38.30L247.81,38.24L247.83,38.17L247.85,38.10L247.86,38.02z"/></g><g><text xml:space="preserve" fill="#000000" stroke-width="0" x="182.90" y="23.80" font-size="3.78" opacity="1.00" font-family="Arial">ND0839</text></g></g><g id="PMI4.0"><g><path style="stroke:#000000;stroke-width:0.125" d="M275.97,127.85L269.88,57.87"/></g><g><path style="fill:#000000" d="M270.63,57.87L270.63,57.80L270.62,57.72L270.60,57.65L270.57,57.58L270.54,57.52L270.50,57.45L270.46,57.39L270.41,57.34L270.36,57.29L270.30,57.25L270.23,57.21L270.17,57.18L270.10,57.15L270.03,57.13L269.95,57.12L269.88,57.12L269.81,57.12L269.73,57.13L269.66,57.15L269.59,57.18L269.53,57.21L269.46,57.25L269.40,57.29L269.35,57.34L269.30,57.39L269.26,57.45L269.22,57.52L269.19,57.58L269.16,57.65L269.14,57.72L269.13,57.80L269.13,57.87L269.13,57.94L269.14,58.02L269.16,58.09L269.19,58.16L269.22,58.22L269.26,58.29L269.30,58.35L269.35,58.40L269.40,58.45L269.46,58.49L269.53,58.53L269.59,58.56L269.66,58.59L269.73,58.61L269.81,58.62L269.88,58.62L269.95,58.62L270.03,58.61L270.10,58.59L270.17,58.56L270.23,58.53L270.30,58.49L270.36,58.45L270.41,58.40L270.46,58.35L270.50,58.29L270.54,58.22L270.57,58.16L270.60,58.09L270.62,58.02L270.63,57.94z"/></g><g><text xml:space="preserve" fill="#000000" stroke-width="0" x="268.23" y="133.28" font-size="3.79" opacity="1.00" font-family="Arial">BPA8006</text></g></g><g id="PMI3.0"><g><path style="stroke:#000000;stroke-width:0.125" d="M73.04,93.21L108.41,134.15"/></g><g><path style="fill:#000000" d="M109.16,134.15L109.16,134.08L109.15,134.00L109.13,133.93L109.11,133.86L109.07,133.80L109.04,133.73L108.99,133.67L108.94,133.62L108.89,133.57L108.83,133.53L108.77,133.49L108.70,133.46L108.63,133.43L108.56,133.41L108.49,133.40L108.41,133.40L108.34,133.40L108.27,133.41L108.19,133.43L108.13,133.46L108.06,133.49L108.00,133.53L107.94,133.57L107.88,133.62L107.83,133.67L107.79,133.73L107.75,133.80L107.72,133.86L107.69,133.93L107.68,134.00L107.67,134.08L107.66,134.15L107.67,134.22L107.68,134.30L107.69,134.37L107.72,134.44L107.75,134.50L107.79,134.57L107.83,134.63L107.88,134.68L107.94,134.73L108.00,134.77L108.06,134.81L108.13,134.84L108.19,134.87L108.27,134.89L108.34,134.90L108.41,134.90L108.49,134.90L108.56,134.89L108.63,134.87L108.70,134.84L108.77,134.81L108.83,134.77L108.89,134.73L108.94,134.68L108.99,134.63L109.04,134.57L109.07,134.50L109.11,134.44L109.13,134.37L109.15,134.30L109.16,134.22z"/></g><g><text xml:space="preserve" fill="#000000" stroke-width="0" x="62.34" y="92.43" font-size="3.79" opacity="1.00" font-family="Arial">BPA5441</text></g></g><g id="PMI2.0"><g><path style="stroke:#000000;stroke-width:0.125" d="M217.96,158.77L182.45,134.00"/></g><g><path style="fill:#000000" d="M183.20,134.00L183.20,133.93L183.19,133.85L183.17,133.78L183.15,133.71L183.12,133.65L183.08,133.58L183.03,133.52L182.99,133.47L182.93,133.42L182.87,133.38L182.81,133.34L182.74,133.31L182.67,133.28L182.60,133.26L182.53,133.25L182.45,133.25L182.38,133.25L182.31,133.26L182.24,133.28L182.17,133.31L182.10,133.34L182.04,133.38L181.98,133.42L181.92,133.47L181.88,133.52L181.83,133.58L181.79,133.65L181.76,133.71L181.74,133.78L181.72,133.85L181.71,133.93L181.70,134.00L181.71,134.07L181.72,134.15L181.74,134.22L181.76,134.29L181.79,134.35L181.83,134.42L181.88,134.48L181.92,134.53L181.98,134.58L182.04,134.62L182.10,134.66L182.17,134.69L182.24,134.72L182.31,134.73L182.38,134.75L182.45,134.75L182.53,134.75L182.60,134.73L182.67,134.72L182.74,134.69L182.81,134.66L182.87,134.62L182.93,134.58L182.99,134.53L183.03,134.48L183.08,134.42L183.12,134.35L183.15,134.29L183.17,134.22L183.19,134.15L183.20,134.07z"/></g><g><text xml:space="preserve" fill="#000000" stroke-width="0" x="213.32" y="164.20" font-size="3.80" opacity="1.00" font-family="Arial">BPA27770</text></g></g><g/><g><g/><g><text xml:space="preserve" fill="#000000" stroke-width="0" x="4.96" y="9.00" font-size="4.53" opacity="1.00" font-family="Arial" font-weight="bold">BPA27772</text></g></g><g id="paperID" visibility="hidden" opacity="0.00" transform="scale(0.000100)"><path style="stroke:#000000;stroke-width:0.500;fill:#e6e6e6;fill-rule:evenodd" d="M-2000.00,-2000.00L2297.00,-2000.00L2297.00,2210.00L-2000.00,2210.00zM0.00,0.00L297.00,0.00L297.00,210.00L0.00,210.00z"/><path style="fill:#000000;fill-opacity:0.118" d="M3.00,210.00L297.00,210.00L297.00,3.00L300.00,3.00L300.00,213.00L3.00,213.00z"/></g><g id="hotspot.0" onmouseover="ShowHotSpot(evt,'0')" onmouseout="HideHotSpot(evt,'0')" onmousemove="ShowToolTip(evt,'0',&quot;Hotspot 1&quot;)" opacity="0"><a xlink:href=".\BPA27770.svg"><path style="fill:#ff8000;fill-rule:evenodd" d="M182.18,125.07L182.68,125.73L182.79,127.63L186.76,127.22L188.80,127.21L189.79,127.72L190.62,128.54L191.44,128.87L191.96,129.51L192.27,130.37L192.25,131.20L192.72,132.24L193.12,132.19L193.59,132.84L192.41,134.54L189.08,136.50L188.48,136.50L187.66,136.89L186.43,137.32L185.16,137.31L184.99,137.15L184.82,136.30L184.45,136.30L184.28,137.98L183.52,139.21L179.98,141.29L179.15,141.44L178.20,141.46L177.88,141.28L177.73,140.60L172.10,137.30L171.93,137.14L171.91,136.19L172.25,135.87L172.42,131.25L172.58,130.41L173.27,129.28L174.18,128.38L180.63,124.74L181.53,124.74zM177.21,128.78L177.84,128.35L178.04,128.36L178.05,129.10L177.20,129.04z"/></a></g><g id="hotspot.1" onmouseover="ShowHotSpot(evt,'1')" onmouseout="HideHotSpot(evt,'1')" onmousemove="ShowToolTip(evt,'1',&quot;Hotspot 1&quot;)" opacity="0"><a xlink:href=".\BPA27770.svg"><path style="fill:#ff8000;fill-rule:evenodd" d="M148.10,144.93L148.45,145.57L148.56,147.30L152.36,146.90L154.41,146.89L155.57,147.55L157.23,148.70L157.88,149.54L158.02,151.05L158.32,151.91L159.07,152.16L159.21,152.58L158.14,154.17L154.83,156.16L154.01,156.15L152.87,156.83L152.03,156.99L150.90,157.01L150.71,156.88L150.60,155.99L150.04,155.99L149.94,157.71L149.25,158.85L145.91,160.79L144.92,161.13L143.81,161.12L143.65,160.96L143.47,160.31L137.70,156.99L137.70,155.72L138.04,155.40L138.18,150.42L138.94,148.87L140.12,147.90L146.23,144.41L147.30,144.41zM142.75,148.54L143.61,148.03L143.81,148.04L143.82,148.78L142.95,148.73z"/></a></g><g id="hotspot.2" onmouseover="ShowHotSpot(evt,'2')" onmouseout="HideHotSpot(evt,'2')" onmousemove="ShowToolTip(evt,'2',&quot;Hotspot 1&quot;)" opacity="0"><a xlink:href=".\BPA27770.svg"><path style="fill:#ff8000;fill-rule:evenodd" d="M118.52,161.62L119.02,162.27L119.12,164.17L122.92,163.77L125.14,163.76L125.79,164.10L126.79,164.92L127.94,165.58L128.44,166.41L128.59,167.91L128.94,168.75L129.43,168.75L129.77,169.23L129.77,169.61L128.79,170.96L125.41,173.05L124.58,173.01L123.75,173.52L122.76,173.86L121.49,173.86L121.32,173.69L121.15,172.84L120.78,172.84L120.50,174.74L119.93,175.66L116.32,177.84L115.48,177.99L114.53,178.00L114.21,177.82L114.06,177.15L108.26,173.86L108.26,172.59L108.59,172.42L108.75,167.45L109.25,166.30L110.03,165.26L111.35,164.43L116.85,161.33L117.86,161.28zM113.54,165.32L114.17,164.90L114.38,164.91L114.38,165.65L113.53,165.58z"/></a></g><g id="hotspot.3" onmouseover="ShowHotSpot(evt,'3')" onmouseout="HideHotSpot(evt,'3')" onmousemove="ShowToolTip(evt,'3',&quot;Hotspot 1&quot;)" opacity="0"><a xlink:href=".\BPA27770.svg"><path style="fill:#ff8000;fill-rule:evenodd" d="M211.62,108.20L212.12,108.86L212.23,110.76L216.19,110.36L218.07,110.35L218.73,110.68L219.89,111.50L221.03,112.19L221.55,112.99L221.69,114.50L222.03,115.32L222.53,115.48L222.88,115.81L222.88,116.19L221.81,117.63L218.52,119.63L217.91,119.63L216.85,120.11L215.87,120.45L214.59,120.44L214.42,120.28L214.25,119.43L213.88,119.43L213.60,121.33L213.04,122.25L209.42,124.43L208.59,124.58L207.63,124.59L207.32,124.41L207.14,123.76L201.36,120.44L201.37,119.18L201.69,119.00L201.85,114.04L202.35,112.88L203.13,111.84L210.06,107.87L210.96,107.87zM183.02,133.49L183.34,134.50L217.93,159.44L218.09,159.85L183.17,134.64L182.01,134.66L181.85,134.50L181.85,133.56L182.11,133.33L182.86,133.33zM231.33,161.58L231.62,162.45L231.63,163.33L231.46,163.83L231.09,164.28L230.29,164.28L229.98,164.09L229.80,163.61L229.79,161.99L230.23,161.44L231.14,161.45zM223.04,161.94L223.04,162.51L222.86,162.83L221.79,163.76L223.04,163.94L223.05,164.31L220.54,164.27L220.21,163.44L219.32,163.42L218.88,164.33L218.51,164.34L218.55,163.65L219.49,161.42L219.89,161.43L220.06,161.61L221.05,164.01L221.88,163.01L222.55,162.33L222.56,162.11L222.38,161.93L221.80,161.93L221.52,162.34L221.15,162.35L221.18,162.00L221.64,161.44L222.54,161.45zM218.24,161.77L218.25,162.85L218.07,163.01L216.68,163.27L216.57,164.34L216.20,164.34L216.18,161.45L217.91,161.44zM215.41,161.63L215.61,161.95L215.57,162.95L215.77,163.27L215.77,163.66L215.53,164.10L214.87,164.27L213.54,164.33L213.54,161.45L215.10,161.44zM227.58,161.83L227.58,161.46L229.49,161.46L229.49,161.83L229.00,162.52L228.29,164.34L228.11,164.34L228.14,163.15L228.68,162.16L228.66,161.95zM225.43,161.83L225.43,161.46L227.34,161.46L227.34,161.83L226.65,162.82L226.27,164.29L225.95,164.34L225.99,163.15L226.53,162.16L226.51,161.95zM223.28,161.83L223.28,161.46L225.19,161.46L225.19,161.83L224.51,162.82L224.12,164.29L223.80,164.34L223.84,163.32L224.38,162.16L224.36,161.95zM206.44,112.01L207.27,111.48L207.47,111.49L207.49,112.24L206.62,112.18zM217.76,162.10L217.69,162.62L216.68,162.67L216.68,161.94L217.59,161.93zM215.12,162.11L215.05,162.45L214.03,162.50L214.03,161.95L214.95,161.93zM231.14,162.27L231.14,163.34L230.90,163.77L230.42,163.83L230.28,163.63L230.28,162.15L230.42,161.95L230.96,161.95zM220.06,162.94L219.48,163.00L219.67,162.12zM215.04,163.78L214.04,163.83L214.04,163.10L215.10,163.10z"/></a></g></g></svg>
