<?xml version="1.0" encoding="UTF-8" standalone="no"?>
<svg xmlns="http://www.w3.org/2000/svg" xmlns:xlink="http://www.w3.org/1999/xlink" width="297.000mm" height="210.000mm" viewBox="0.000000 0.000000 297.000000 210.000000" stroke-linejoin="round" stroke-linecap="round" fill="none" fill-rule="evenodd"><desc>Composer Export</desc><script type="text/ecmascript"><![CDATA[
if(typeof(top) != "undefined")
{
	top.ShowPaper = ShowPaper;
}
function ShowPaper()
{
  var svgDocument = getDocument();
  var paper = svgDocument.getElementById("paperID");
  if(paper)
  {
    paper.setAttribute("transform","scale(1)");
    paper.setAttribute("opacity","1");
    paper.setAttribute("visibility","visible");
  }
  var svg = svgDocument.getRootElement();
  if(svg)
  {
    svg.setAttribute("width","307.000mm");
    svg.setAttribute("height","220.000mm");
    svg.setAttribute("viewBox","-5.000000 -5.000000 307.000000 220.000000");
  }
}
]]></script><defs/><g><path style="fill:#000000;fill-opacity:0.098;fill-rule:evenodd" d="M106.83,23.01L110.84,20.72L111.06,20.74L111.07,25.50L107.77,23.69L106.87,23.17zM113.68,27.07L112.39,26.37L112.38,21.27L113.28,21.12L113.49,20.98L113.66,20.21zM59.93,57.61L60.64,58.12L59.23,59.07L58.71,59.20L52.46,55.53L52.46,53.48L52.64,53.43zM176.08,59.36L176.44,60.22L176.44,147.05L176.22,148.05L175.50,149.41L174.62,150.28L171.35,152.22L170.64,152.28L170.64,61.27L171.93,60.65L174.52,59.24L174.99,58.99L175.39,58.99zM169.97,59.51L170.17,59.54L170.20,59.74L170.00,59.70zM117.32,90.19L169.94,60.04L170.53,60.04L170.53,60.81L170.36,60.99L170.19,69.69L124.03,96.21L123.24,96.21L117.32,92.74zM229.50,137.76L229.43,137.95L228.88,138.01L228.88,137.60L229.32,137.58zM227.23,140.10L226.79,140.10L226.79,139.86L227.23,139.86zM228.25,141.43L227.56,141.83L226.98,142.02L227.04,140.79L228.10,140.21zM226.54,141.16L226.36,141.35L226.30,140.71L226.51,140.71zM230.54,142.01L230.09,142.01L230.09,141.78L230.54,141.78zM229.78,143.01L229.40,143.06L229.41,142.64L229.83,142.63zM223.16,143.52L223.92,143.17L223.92,143.92zM224.61,144.55L224.38,144.61L224.44,144.38zM215.06,146.62L215.06,150.20L214.51,150.54L214.52,147.52L214.30,146.63L214.88,146.44zM222.55,147.13L222.70,147.56L222.47,147.72L222.11,147.76L222.12,146.97zM212.44,147.93L212.29,148.13L211.86,148.29L211.85,146.81L212.44,146.81zM210.54,149.06L210.51,176.96L210.18,177.15L210.12,148.89L210.34,148.86zM226.17,150.54L226.17,148.62L226.53,148.28L226.69,146.01L230.17,144.09L230.34,142.53L231.33,141.95L231.51,137.79L231.92,137.43L231.90,173.48L231.56,173.68L231.39,166.80L231.17,166.78L228.18,168.56L227.86,168.63L227.71,166.45L227.55,166.44L227.54,166.61L227.35,166.85L226.97,166.88L227.04,165.58L226.46,165.67L226.36,165.08L223.39,166.72L223.39,163.22L225.94,161.42L227.68,160.38L227.73,158.97L227.52,158.96L227.30,159.16L226.99,159.19L227.04,158.10L226.46,158.19L226.36,157.61L223.39,159.24L223.34,155.87L226.17,153.83L227.73,152.96L227.72,151.49L227.36,151.74L226.98,151.70L227.06,150.13zM226.69,151.34L226.87,152.30L226.35,152.63L226.16,152.23L226.16,151.37L226.36,151.16zM169.66,152.00L169.82,153.16L169.62,153.16L169.41,151.86zM219.75,155.73L219.69,155.19L219.89,155.03L220.05,154.45L220.24,154.44L220.26,155.96L220.10,156.12L219.91,155.73zM219.40,156.44L219.34,156.22L219.54,156.19zM222.33,156.99L222.12,156.99L222.18,156.41L222.36,156.38zM175.75,157.63L175.91,157.61L176.09,158.12L176.10,181.17L175.93,181.34zM218.53,158.36L218.47,158.13L218.67,158.10zM226.72,158.98L226.65,159.51L226.87,159.76L226.33,160.10L226.33,159.67L226.19,159.51L226.08,158.98L226.28,158.78L226.53,158.78zM218.05,159.26L217.83,159.59L217.83,159.21L218.02,159.17zM191.39,159.75L190.95,159.90L190.98,159.51L191.23,159.48zM191.85,159.50L192.26,159.50L192.29,159.91L191.90,160.62zM217.32,159.92L216.95,160.28L216.90,159.86zM194.29,158.82L193.22,159.48L192.90,160.22L192.36,160.21L192.79,159.75L192.96,159.05L194.38,158.31zM219.79,161.35L219.57,161.68L219.57,161.30L219.76,161.25zM220.02,161.95L221.95,158.66L222.81,158.11L222.87,158.50L222.64,158.66L221.83,159.58L220.42,162.00L220.26,163.43L220.10,163.59L219.68,163.02L219.69,162.66L219.90,162.45zM219.56,164.11L219.33,164.11L219.33,163.67L219.56,163.67zM222.37,164.29L222.18,164.47L222.12,163.83L222.34,163.84zM226.71,166.46L226.64,167.16L226.84,167.34L226.88,168.11L226.34,168.46L226.34,167.32L226.19,167.16L226.17,166.16L226.35,166.11zM229.50,170.79L229.43,170.99L228.88,171.05L228.88,170.64L229.32,170.61zM184.96,171.40L184.63,171.36L183.21,172.08L182.52,172.80L182.47,172.41L183.91,171.39L184.97,170.82zM182.14,172.70L180.77,173.48L180.72,173.28L181.97,172.53L182.17,172.54zM172.44,175.05L172.21,175.05L172.21,174.81L172.44,174.81zM172.27,176.82L172.10,176.99L172.05,175.66L172.25,175.66zM173.14,177.63L173.31,177.60L173.30,178.71zM212.43,179.86L212.45,180.97L211.91,181.32L211.91,179.73L212.10,179.67zM215.05,180.19L215.05,183.58L214.90,183.78L214.46,183.92L214.52,181.08L214.31,180.20L214.87,179.86zM169.67,182.54L169.47,182.88L169.47,179.55L169.66,179.15zM157.32,185.23L157.11,185.44L156.36,185.41L157.14,184.91zM158.13,185.42L159.25,184.92L159.25,185.11L158.65,185.62L158.32,185.61zM160.28,186.02L160.10,186.20L160.07,185.81L160.29,185.60zM155.93,186.43L155.33,186.83L154.98,186.81L155.78,186.29zM156.97,186.86L156.75,187.02L156.38,187.06L156.39,185.94L156.81,185.77zM159.41,186.68L158.66,187.18L158.11,187.22L158.11,187.02L159.18,186.26L159.41,186.29zM154.13,187.50L153.76,187.50L153.94,187.31L154.18,187.31zM158.17,187.77L160.39,186.46L160.47,186.48L160.20,186.98L158.11,188.19L157.82,188.77L157.31,189.14L157.31,187.74L157.83,187.54zM153.33,187.41L152.81,187.77L152.39,187.93L152.39,186.82L153.33,186.30zM155.91,188.62L157.00,188.23L156.74,188.57L156.81,189.31L156.44,189.67L156.27,188.88L156.08,189.81L155.88,189.96L155.76,191.06L154.70,191.76L154.65,190.81L155.58,190.19L155.57,188.71L155.35,188.69L154.70,189.15L154.70,188.09L155.76,187.51zM154.39,189.07L154.36,189.47L153.77,189.79L153.37,189.71L153.47,188.95L154.20,188.87zM155.35,189.43L154.98,189.48L154.98,189.27L155.43,189.09zM153.37,189.71L153.32,189.84L152.81,190.20L152.39,190.37L152.38,189.59L153.15,189.59zM154.18,190.80L153.96,190.86L154.02,190.64zM192.28,192.53L192.28,192.77L191.92,193.50L191.90,192.42L192.11,192.36zM191.22,192.78L190.99,192.78L190.99,192.55L191.22,192.55zM194.29,191.85L193.09,192.56L192.71,193.26L192.37,193.25L192.79,192.79L193.04,192.00L194.38,191.35zM227.85,141.45L227.50,141.50L227.57,140.77L227.91,140.72zM231.23,142.62L231.24,142.88L231.02,143.24L230.63,143.24L230.66,142.88L230.96,142.46z"/><g id="Actor_8.0"><g style="stroke:#000000;stroke-width:0.176"><path d="M182.35,172.06L182.35,171.99L182.38,171.94L182.41,171.91L182.46,171.91L182.52,171.93L182.57,171.97L182.62,172.02L182.66,172.09L182.69,172.17L182.70,172.24L182.68,172.29L182.66,172.33L182.61,172.35L182.56,172.35L182.50,172.32"/><path d="M182.73,172.36L182.76,172.31L182.78,172.24L182.77,172.15L182.74,172.06L182.69,171.98L182.63,171.90L182.56,171.85L182.49,171.83L182.43,171.84"/><path d="M183.99,170.68L184.10,170.66L184.22,170.70L184.34,170.79L184.45,170.92L184.54,171.07L184.60,171.23"/><path d="M183.87,171.01L184.05,170.91L184.06,170.90"/></g><g style="stroke:#000000;stroke-width:0.529"><path d="M184.88,171.39L184.91,171.37L184.92,171.36L184.98,171.27L184.99,171.26L185.01,171.14L185.01,171.13L185.00,170.98L184.95,170.83L184.86,170.69L184.76,170.57L184.64,170.48L184.63,170.48L184.51,170.44L184.50,170.44L184.39,170.45L184.38,170.46L183.99,170.68L183.91,170.74L183.87,170.85L183.87,170.99L183.87,171.01L182.43,171.84L182.38,171.87L182.36,171.94L182.35,172.02L182.35,172.06L182.37,172.13L182.40,172.20L182.45,172.27L182.50,172.32L182.54,172.34L182.61,172.37L182.67,172.38L182.73,172.36L183.72,171.79"/></g></g><g id="Actor_6.0"><g style="stroke:#000000;stroke-width:0.176"><path d="M191.23,160.59L191.43,160.68L191.61,160.68L191.75,160.60L191.84,160.44L191.87,160.23L191.83,159.97L191.73,159.71L191.57,159.47L191.48,159.37L191.39,159.27L191.18,159.15L190.99,159.10L190.82,159.14L190.70,159.26L190.64,159.45"/><path d="M191.59,160.18L191.56,159.93L191.56,159.92L191.56,159.93L191.55,159.81L191.48,159.73L191.44,159.75L191.52,159.87L191.56,159.92L191.39,159.74L190.96,159.98L191.30,160.35L191.60,160.26L191.59,160.18L191.30,160.35"/><path d="M191.44,159.75L191.40,159.64L191.48,159.73"/><path d="M191.56,159.93L191.56,159.93"/><path d="M190.96,159.98L190.91,159.53L191.21,159.45L191.37,159.62L191.39,159.74"/><path d="M192.17,160.16L192.21,160.04L192.20,159.83L192.14,159.61L192.03,159.38L191.88,159.19L191.71,159.06L191.93,159.24"/><path d="M191.02,159.00L191.23,159.05L191.45,159.19L191.66,159.40L191.82,159.66L191.93,159.95L191.98,160.22L191.95,160.46L191.85,160.63"/><path d="M191.37,159.62L191.40,159.64"/><path d="M191.72,158.43L191.92,158.38L192.15,158.43L192.40,158.59L192.62,158.82L192.77,159.06L192.81,159.11L192.93,159.42L192.98,159.73L192.95,159.99L192.84,160.18"/><path d="M191.71,159.06L191.70,159.05L191.61,159.00L191.53,158.97L191.49,158.97"/><path d="M192.16,159.58L192.20,159.83"/><path d="M192.18,159.70L192.18,159.68"/><path d="M193.03,159.58L193.00,159.36L192.88,159.06L192.71,158.79L192.50,158.57L192.44,158.53"/><path d="M193.98,157.86L194.11,157.98L194.23,158.13L194.28,158.22L194.32,158.31L194.37,158.49L194.38,158.66"/></g><g style="stroke:#000000;stroke-width:0.529"><path d="M190.68,159.28L190.64,159.38L190.64,159.45L190.65,159.69L190.72,159.95L190.85,160.21L191.03,160.43L191.23,160.59L191.28,160.62L191.50,160.72L191.69,160.72L191.85,160.63L192.16,160.21L192.17,160.16L192.35,160.24L192.45,160.27L192.66,160.27L192.84,160.18L192.87,160.15L192.90,160.11L193.00,159.93L193.01,159.89L193.04,159.64L193.03,159.58L194.26,158.87L194.34,158.79L194.38,158.66L194.38,158.52L194.38,158.39L194.34,158.26L194.27,158.13L194.18,158.01L194.08,157.92L193.98,157.86L193.90,157.83L193.84,157.80L193.71,157.80L192.44,158.53L192.27,158.42L192.00,158.36L191.96,158.36L191.77,158.41L191.72,158.43L191.58,158.57L191.51,158.80L191.49,158.88L191.49,158.97L191.37,158.97L191.02,159.00L190.84,159.04L190.71,159.18L190.68,159.28"/></g></g><g id="Actor_7.0"><g style="stroke:#000000;stroke-width:0.176"><path d="M200.25,189.14L200.43,188.99L200.53,188.74L200.54,188.42L200.48,188.17L200.45,188.06L200.29,187.70L200.06,187.38L199.79,187.14L199.50,186.99L199.24,186.96L199.03,187.05"/><path d="M200.08,188.54L200.08,188.55L199.98,188.63L199.86,188.65L199.71,188.60L199.56,188.50L199.43,188.34L199.32,188.16L199.26,187.97L199.24,187.79L199.27,187.64L199.34,187.53L199.45,187.49L199.48,187.49"/></g><g style="stroke:#000000;stroke-width:0.529"><path d="M200.40,189.05L200.25,189.14L200.01,189.17L199.73,189.08L199.45,188.88L199.20,188.60L199.00,188.25L198.87,187.89L198.83,187.54L198.89,187.25L199.03,187.05L199.20,186.95L199.41,186.86L199.68,186.89L199.96,187.04L200.23,187.28L200.46,187.60L200.63,187.96L200.71,188.32L200.70,188.59"/><path d="M199.88,188.50L199.74,188.40L199.60,188.25L199.50,188.07L199.43,187.87L199.41,187.69L199.44,187.54L199.48,187.49L199.59,187.50L199.74,187.58L199.88,187.71L200.00,187.87L200.09,188.06L200.13,188.25L200.13,188.42L200.08,188.54L200.03,188.55L199.88,188.50"/></g></g><g id="Actor_6.1"><g style="stroke:#000000;stroke-width:0.176"><path d="M191.80,192.89L191.77,192.81L191.63,192.56L191.46,192.34L191.26,192.19L191.06,192.11L190.88,192.12L190.74,192.22L190.66,192.39L190.64,192.61"/><path d="M191.42,193.70L191.42,193.70"/><path d="M191.80,192.90L191.85,193.07L191.87,193.31L191.82,193.51L191.71,193.65L191.55,193.70L191.36,193.66"/><path d="M191.41,192.71L191.44,192.70L191.40,192.65L191.41,192.71L191.49,192.84L191.52,192.89L191.36,192.69L191.36,192.61L191.26,192.47L190.93,192.50L190.93,192.93L191.26,193.33L191.58,193.30L191.58,193.15L191.26,193.33"/><path d="M191.44,192.70L191.58,192.87L191.58,192.95L191.52,192.89L191.58,192.95L191.58,193.15"/><path d="M191.36,192.69L190.93,192.93"/><path d="M191.40,192.65L191.36,192.61"/><path d="M190.90,192.02L191.09,192.01L191.31,192.10L191.53,192.26L191.72,192.50L191.87,192.77L191.89,192.85"/><path d="M191.58,192.95L191.58,192.95"/><path d="M191.49,191.98L191.59,192.00L191.68,192.04L191.76,192.10L191.93,192.26L192.07,192.47L192.17,192.69L192.17,192.71"/><path d="M191.92,193.54L191.98,193.32L191.97,193.24"/><path d="M192.17,192.63L192.18,192.70"/><path d="M191.79,191.40L192.00,191.39L192.24,191.48L192.48,191.67L192.69,191.92L192.86,192.22L192.96,192.54L192.98,192.83L192.93,193.02"/><path d="M191.97,192.27L191.76,192.10"/><path d="M191.89,192.20L191.89,192.21"/><path d="M192.43,191.53L192.57,191.64L192.78,191.88L192.93,192.17L193.02,192.47L193.03,192.58"/><path d="M193.95,190.86L194.02,190.91L194.16,191.03L194.27,191.20L194.35,191.38L194.38,191.56"/></g><g style="stroke:#000000;stroke-width:0.529"><path d="M192.04,193.38L191.92,193.54L191.80,193.68L191.63,193.74L191.42,193.70L191.15,193.55L190.96,193.36L190.80,193.13L190.69,192.87L190.64,192.61L190.64,192.55L190.66,192.31L190.75,192.13L190.90,192.02L191.42,191.97L191.49,191.98L191.50,191.81L191.53,191.72L191.62,191.52L191.79,191.40L191.83,191.39L191.87,191.38L192.08,191.37L192.12,191.38L192.35,191.47L192.43,191.53L193.64,190.84L193.75,190.80L193.88,190.82L193.95,190.86L194.06,190.92L194.11,190.96L194.21,191.05L194.30,191.18L194.36,191.31L194.38,191.45L194.38,191.56L194.37,191.71L194.31,191.83L194.22,191.90L193.03,192.58L193.04,192.74L192.99,192.97L192.97,193.01L192.95,193.04L192.94,193.05"/></g></g><g id="Actor_2.0"><g style="stroke:#000000;stroke-width:0.176"><path d="M208.07,142.61L213.43,145.68L213.76,145.93L214.06,146.28L214.29,146.69L214.44,147.12L214.50,147.53L214.50,150.02L214.44,150.37L214.29,150.63L214.06,150.77"/><path d="M210.64,149.05L210.00,148.68L210.00,177.22L210.64,176.85"/><path d="M210.00,177.22L213.43,179.18L213.76,179.43L214.06,179.78L214.29,180.19L214.44,180.62L214.50,181.04L214.50,183.52L214.44,183.87L214.29,184.13L214.06,184.27"/><path d="M212.94,181.45L212.94,181.51L212.92,181.71L212.83,181.85L212.70,181.92L212.54,181.93L212.35,181.86L212.17,181.72L212.01,181.53L211.88,181.30L211.79,181.06L211.77,180.83L211.77,180.09L211.79,179.90L211.88,179.75L212.01,179.68L212.17,179.67L212.35,179.75L212.41,179.79"/><path d="M212.94,148.44L212.94,148.50L212.92,148.70L212.83,148.84L212.70,148.92L212.54,148.92L212.35,148.85L212.17,148.71L212.01,148.52L211.88,148.29L211.79,148.06L211.77,147.83L211.77,147.08L211.79,146.89L211.88,146.75L212.01,146.67L212.18,146.67L212.35,146.74L212.41,146.78"/></g><g style="stroke:#000000;stroke-width:0.529"><path d="M208.07,180.89L208.07,181.07L213.43,184.14L213.76,184.27L214.06,184.27L214.70,183.90L214.94,183.76L215.09,183.50L215.14,183.15L215.14,180.67L215.09,180.25L214.94,179.82L214.70,179.41L214.40,179.06L214.07,178.81L210.64,176.85L210.64,149.05L213.43,150.64L213.76,150.77L214.06,150.77L214.94,150.26L215.09,150.00L215.14,149.65L215.14,147.17L215.09,146.75L214.94,146.32L214.70,145.91L214.40,145.56L214.07,145.31L208.71,142.24L208.07,142.61L208.07,180.89"/><path d="M212.52,180.93L212.44,180.69L212.41,180.47L212.41,179.79L212.54,179.88L212.70,180.07L212.83,180.30L212.92,180.54L212.94,180.77L212.94,181.45L212.82,181.35L212.65,181.16L212.52,180.93"/><path d="M212.44,147.69L212.41,147.46L212.41,146.78L212.54,146.88L212.70,147.07L212.83,147.29L212.92,147.53L212.94,147.76L212.94,148.44L212.82,148.34L212.65,148.15L212.52,147.93L212.44,147.69"/></g></g><g id="Actor_7.1"><g style="stroke:#000000;stroke-width:0.176"><path d="M199.48,154.48L199.36,154.51L199.28,154.61L199.24,154.75L199.25,154.93L199.31,155.12L199.41,155.30L199.54,155.46L199.68,155.58L199.83,155.64L199.96,155.63L200.06,155.57L200.08,155.53"/><path d="M200.20,156.15L200.40,156.02L200.44,155.94L200.52,155.79L200.54,155.48L200.48,155.13L200.33,154.77L200.11,154.44L199.84,154.17L199.56,154.01L199.29,153.95L199.07,154.02"/></g><g style="stroke:#000000;stroke-width:0.529"><path d="M198.88,154.90L198.96,155.17L199.15,155.53L199.40,155.83L199.67,156.04L199.95,156.16L200.20,156.15L200.38,156.05L200.57,155.92L200.69,155.69L200.71,155.39L200.65,155.03L200.50,154.67L200.28,154.34L200.01,154.07L199.73,153.91L199.46,153.85L199.24,153.92L199.07,154.02L198.91,154.20L198.84,154.47L198.85,154.81L198.88,154.90"/><path d="M200.08,155.53L200.12,155.44L200.14,155.28L200.10,155.10L200.02,154.91L199.91,154.73L199.77,154.59L199.62,154.51L199.48,154.48L199.48,154.48L199.45,154.51L199.41,154.65L199.42,154.83L199.48,155.02L199.58,155.21L199.71,155.36L199.85,155.48L200.00,155.54L200.08,155.53"/></g></g><g id="Actor_8.1"><g style="stroke:#000000;stroke-width:0.176"><path d="M180.21,173.30L180.21,173.24L180.24,173.19L180.27,173.17L180.28,173.16L180.32,173.16L180.38,173.18L180.43,173.22L180.49,173.28L180.52,173.35L180.55,173.43L180.55,173.50L180.54,173.55L180.51,173.59L180.47,173.61L180.41,173.60L180.36,173.57"/><path d="M180.58,173.62L180.62,173.57L180.64,173.50L180.63,173.41L180.60,173.32L180.55,173.24L180.49,173.16L180.42,173.11L180.35,173.08L180.29,173.09"/><path d="M180.39,173.59L180.39,173.59"/><path d="M182.03,172.79L182.20,172.69L182.21,172.68L182.21,172.68"/><path d="M181.86,171.93L181.97,171.92L182.09,171.96L182.21,172.05L182.32,172.18L182.41,172.34L182.46,172.50L182.47,172.64L182.44,172.77L182.37,172.85"/><path d="M181.73,172.26L181.91,172.16L181.92,172.15"/></g><g style="stroke:#000000;stroke-width:0.529"><path d="M182.55,171.77L182.51,171.74L182.50,171.74L182.38,171.69L182.37,171.69L182.26,171.70L182.25,171.71L181.86,171.93L181.78,171.99L181.73,172.09L181.72,172.23L181.73,172.26L180.29,173.09L180.24,173.12L180.21,173.18L180.21,173.26L180.21,173.30L180.22,173.38L180.26,173.45L180.30,173.51L180.36,173.57L180.46,173.63L180.53,173.64L180.58,173.62L182.03,172.79L182.04,172.80L182.16,172.87L182.28,172.88L182.37,172.85L182.76,172.63L182.77,172.62L182.84,172.54L182.84,172.52L182.87,172.40L182.87,172.39L182.86,172.28"/></g></g><g id="Actor_1.0"><g style="stroke:#000000;stroke-width:0.176"><path d="M52.15,55.30L58.85,59.22"/><path d="M52.42,55.46L52.42,53.59L52.47,53.44L52.61,53.41L60.80,58.09"/><path d="M117.22,92.63L117.04,92.52L117.76,92.94L117.22,92.63L117.22,90.76L117.19,90.56L117.12,90.34L117.00,90.14L116.85,89.96L116.69,89.84L52.69,53.13L52.52,53.06L52.37,53.07"/><path d="M105.49,83.73L116.77,90.21L116.90,90.40L116.95,90.61L116.95,92.47L117.04,92.52"/><path d="M106.47,22.91L111.08,25.56"/><path d="M106.73,23.07L111.12,20.55"/><path d="M117.76,92.94L123.65,96.38L122.97,95.99"/><path d="M123.65,96.38L170.16,69.70L170.23,69.65L170.24,68.61L170.24,60.98L170.43,61.06L170.66,61.10L170.89,61.10L171.12,61.06L171.31,60.98L174.31,59.26L174.97,59.00L175.57,59.01"/><path d="M169.90,178.95L169.64,179.08L169.49,179.34L169.44,179.70L169.44,182.18L169.33,182.88L169.03,183.40L168.55,183.68"/><path d="M175.42,181.65L175.66,181.51L175.81,181.25L175.86,180.89L175.86,158.57L175.81,158.15L175.66,157.72L175.42,157.31L175.12,156.96L174.79,156.71L170.51,154.25L170.18,154.00L169.88,153.66L169.64,153.25L169.49,152.81L169.44,152.40L169.44,151.78L169.70,151.93"/><path d="M170.02,59.36L169.86,59.36L169.70,59.43L169.88,59.57L170.03,59.74L170.16,60.00L170.24,60.05L170.24,60.98L170.24,60.35L170.16,60.00"/><path d="M170.24,60.98L170.51,60.82"/><path d="M170.08,59.83L170.24,59.74"/><path d="M170.24,60.05L170.51,59.89"/><path d="M172.48,177.77L172.61,177.99L172.72,178.05L172.81,178.00L172.83,177.88L172.80,177.79L172.65,177.61L172.55,177.59L172.51,177.61L172.48,177.77"/><path d="M173.37,178.64L173.11,178.79L173.11,177.92L173.04,177.67L172.88,177.44L172.78,177.37L172.03,176.94L172.30,176.78"/><path d="M172.03,176.94L172.03,175.51L172.30,175.66"/><path d="M172.47,174.73L172.36,174.70L172.29,174.72L172.24,174.77L172.21,174.95L172.29,175.17L172.63,175.76L172.62,175.83"/><path d="M173.11,178.79L174.34,179.50L174.34,179.19"/><path d="M173.34,175.40L173.36,175.40"/><path d="M173.37,175.04L173.11,174.88L173.09,175.55"/><path d="M175.23,179.49L175.21,179.58L175.15,179.66L175.00,179.67L174.91,179.62L174.76,179.44L174.41,178.85L174.35,178.83"/><path d="M174.83,178.55L175.41,178.87L175.41,178.56"/><path d="M174.86,176.79L174.70,176.68L174.63,176.53L174.63,176.40L174.70,176.34L174.84,176.40L174.95,176.56L174.96,176.71L174.91,176.78L174.86,176.79"/></g><g style="stroke:#000000;stroke-width:0.529"><path d="M105.49,83.73L60.80,58.09L58.85,59.22L52.15,55.30L52.15,53.44L52.18,53.27L52.25,53.14L105.39,22.66L105.54,22.65L105.71,22.72L105.87,22.65L106.02,22.66L106.47,22.91L110.85,20.40L111.12,20.55L111.12,25.51L111.08,25.56L170.14,59.43L170.21,59.56L170.24,59.74L170.51,59.89L170.51,60.82L170.72,60.88L170.84,60.88L171.04,60.82L174.03,59.11L174.70,58.84L175.30,58.85L176.04,59.29L176.35,59.80L176.45,60.51L176.45,146.81L176.35,147.62L176.04,148.50L175.57,149.32L174.97,150.02L174.31,150.52L171.31,152.24L171.12,152.32L170.89,152.36L170.66,152.36L170.43,152.32L169.70,151.93L169.70,152.25L169.76,152.66L169.91,153.09L170.15,153.50L170.44,153.85L170.78,154.10L175.06,156.56L175.39,156.81L175.69,157.16L175.93,157.57L176.08,158.00L176.13,158.41L176.13,180.75L176.08,181.10L175.93,181.36L175.42,181.65L175.12,181.66L174.79,181.53L170.51,179.07L170.18,178.94L169.90,178.95L169.76,179.19L169.70,179.54L169.70,182.02L169.60,182.73L169.30,183.25L168.55,183.68L167.96,183.69L167.29,183.43L105.71,148.11L105.57,148.00L105.49,147.86L105.49,83.73"/><path d="M172.30,176.78L172.30,175.66L172.62,175.83L172.88,175.68L172.90,175.63L172.51,174.91L172.48,174.73L172.69,174.94L173.05,175.55L173.08,175.56L173.36,175.40L173.37,175.04L174.34,175.59L174.34,176.46L174.40,176.71L174.47,176.83L174.66,177.01L175.41,177.44L175.41,178.56L175.09,178.40L174.82,178.56L174.81,178.60L175.15,179.21L175.23,179.49L175.02,179.28L174.65,178.67L174.35,178.83L174.34,179.19L173.37,178.64L173.37,177.77L173.31,177.51L173.15,177.29L173.05,177.21L172.30,176.78"/></g></g><g id="Actor_5.0"><g style="stroke:#000000;stroke-width:0.176"><path d="M153.42,187.20L153.48,187.19L153.55,187.22L153.62,187.27L153.69,187.35L153.73,187.44L153.76,187.53L153.77,187.61L153.76,187.64"/><path d="M153.74,187.69L153.71,187.73L153.66,187.74L153.59,187.73L153.52,187.69L153.45,187.63L153.40,187.55L153.36,187.46L153.34,187.37L153.34,187.35L153.35,187.29L153.37,187.24"/><path d="M153.71,187.73L153.74,187.71"/><path d="M154.12,186.80L154.16,186.77"/><path d="M155.13,185.79L155.13,186.21L154.84,186.38L154.12,185.97"/><path d="M155.81,186.52L155.19,186.88"/><path d="M154.84,186.38L154.79,186.41"/><path d="M155.13,186.21L155.50,186.00L155.51,185.99"/><path d="M155.13,185.36L156.26,186.00L156.26,187.20L156.79,186.89L156.99,187.01L157.05,186.87L157.03,186.80L156.95,186.65L156.85,186.53L156.79,186.48L156.79,186.89"/><path d="M155.13,185.94L155.00,185.87"/><path d="M156.26,189.70L156.26,188.97"/><path d="M156.26,187.20L157.28,187.78L157.28,189.09"/><path d="M155.78,186.54L155.80,186.54"/><path d="M156.26,186.00L156.79,185.70L156.79,186.48"/><path d="M157.27,185.29L157.20,185.25L157.17,185.20L157.15,185.13L157.15,185.05L157.18,184.96L157.23,184.87L157.29,184.79L157.36,184.74L156.25,185.38"/><path d="M156.05,185.27L156.68,185.63"/><path d="M156.93,188.45L156.89,188.47"/><path d="M156.89,188.47L156.91,188.47"/><path d="M156.79,188.81L156.62,188.71"/><path d="M157.28,187.78L157.81,187.48L157.81,187.88L160.32,186.44L160.35,186.43L160.35,186.92"/><path d="M157.81,187.48L156.99,187.01"/><path d="M156.53,187.98L156.61,187.93L156.62,187.92"/><path d="M156.79,185.70L156.71,185.65"/><path d="M157.92,185.06L157.35,185.33"/><path d="M158.34,187.32L157.90,187.07L158.60,186.67L159.57,186.01L159.51,186.07L159.45,186.14L159.41,186.23L159.38,186.33L159.38,186.41L159.39,186.48L159.43,186.52L159.49,186.56"/><path d="M159.30,184.76L158.30,185.28L158.08,185.40L158.05,185.38L158.51,185.64"/><path d="M157.36,184.74L157.36,184.74"/><path d="M157.80,184.97L157.87,184.93"/><path d="M159.01,185.93L158.97,185.91"/><path d="M159.00,185.93L158.97,185.91"/><path d="M160.08,186.09L160.08,186.20L159.84,186.06L159.78,186.06L159.73,186.08L160.08,185.89L160.08,186.09"/><path d="M160.08,186.20L160.13,186.23"/><path d="M160.35,186.43L160.37,186.40L160.40,186.38"/><path d="M160.13,186.33L159.60,186.62"/><path d="M160.08,185.89L160.35,185.36"/></g><g style="stroke:#000000;stroke-width:0.529"><path d="M152.25,187.90L152.23,187.94L152.23,188.00L152.23,188.02L152.24,188.11L152.28,188.20L152.34,188.28L152.40,188.34L152.48,188.38L152.53,188.39"/><path d="M153.36,189.83L153.35,189.87L153.34,189.89"/><path d="M153.37,187.24L153.37,187.23L153.42,187.20L154.12,186.80"/><path d="M154.12,186.02L154.12,185.97L154.65,185.67L155.00,185.87L155.13,185.79L155.13,185.36L155.67,185.05L156.05,185.27L157.16,184.63L157.19,184.61L157.26,184.61L157.36,184.64L157.87,184.93L158.15,184.79L159.15,184.67L159.30,184.76L159.30,185.14L158.51,185.64L158.97,185.91L159.19,185.79L160.19,185.27L160.35,185.36L160.35,185.74L160.13,186.23L160.40,186.38L160.42,186.40L160.42,186.42L160.43,186.45L160.43,186.48L160.43,186.52L160.43,186.57L160.42,186.62L160.41,186.72L160.38,186.82L160.35,186.92L160.32,186.94L157.81,188.38L157.81,188.78L157.28,189.09L156.79,188.81L156.79,189.39L156.26,189.70L156.21,189.67"/><path d="M156.68,185.63L156.71,185.65L156.75,185.62L157.35,185.33L157.27,185.29L156.68,185.63"/><path d="M158.34,187.32L158.36,187.34L159.60,186.62L159.49,186.56L158.60,187.17L158.34,187.32"/></g></g><g id="Actor_3.0"><g style="stroke:#000000;stroke-width:0.176"><path d="M113.77,20.59L113.66,20.81L113.44,21.00L113.12,21.14L112.74,21.21L112.55,21.21L112.34,21.21L111.97,21.13L111.66,20.99L111.44,20.79L111.35,20.57"/><path d="M111.92,19.91L111.68,20.06L111.60,20.15L111.54,20.24L111.50,20.44L111.58,20.63L111.77,20.80L112.04,20.93L112.37,21.00L112.72,21.00L113.05,20.94L113.33,20.82L113.53,20.65L113.62,20.46L113.59,20.26L113.46,20.07L113.23,19.92"/><path d="M111.83,19.97L111.83,19.97"/><path d="M111.56,20.13L111.56,20.13"/></g><g style="stroke:#000000;stroke-width:0.529"><path d="M111.56,20.13L111.92,19.91L112.23,19.82L112.58,19.79L112.92,19.83L113.23,19.92L113.32,19.98L113.59,20.15L113.74,20.36L113.77,20.59L113.77,25.24L113.66,25.47L113.59,25.53L113.44,25.65L113.12,25.79L112.74,25.86L112.34,25.86L111.97,25.78L111.66,25.64L111.44,25.44L111.35,25.22L111.35,20.57L111.39,20.34L111.46,20.23L111.56,20.13"/></g></g><g id="Actor_4.0"><g style="stroke:#000000;stroke-width:0.176"><path d="M219.79,156.34L219.88,156.40L219.68,156.28L219.78,156.34"/><path d="M219.58,156.22L219.58,156.32"/><path d="M219.68,156.28L219.32,156.07L219.32,156.07"/><path d="M219.32,156.07L219.31,156.07"/><path d="M219.33,156.07L219.56,156.21"/><path d="M219.53,156.19L219.55,156.21"/><path d="M219.50,156.18L219.46,156.15"/><path d="M219.82,154.91L219.59,155.05L219.58,155.06L219.56,155.09L219.56,155.10L219.56,155.62L219.56,155.63L219.57,155.65L219.58,155.66L219.59,155.67L219.66,155.71L219.68,155.72L219.70,155.72L219.72,155.71L219.94,155.58L219.97,155.57"/><path d="M219.81,154.92L219.83,154.91L219.82,154.91"/><path d="M219.98,156.45L220.90,156.98L219.88,156.40"/><path d="M220.90,156.98L221.29,157.20"/><path d="M222.06,155.47L222.06,155.47L220.14,154.37L220.11,154.36L220.08,154.36"/><path d="M222.13,156.24L221.89,156.37L221.88,156.38L221.86,156.41L221.86,156.42L221.86,156.94L221.86,156.95L221.87,156.97L221.88,156.98L221.89,156.99L221.97,157.03L221.98,157.04L222.01,157.04L222.02,157.03L222.25,156.90L222.26,156.90L222.27,156.90L222.26,156.90"/><path d="M221.29,157.20L220.93,156.99L222.87,158.11L222.90,158.13L222.91,158.15L222.92,158.17L222.93,158.19L222.93,158.21L222.93,158.49"/><path d="M222.90,158.13L222.89,158.13"/><path d="M222.93,158.21L222.93,158.59L222.84,158.54"/><path d="M222.93,158.89L222.93,158.88L222.93,158.89"/><path d="M222.93,158.88L222.93,158.59"/><path d="M222.19,156.94L222.19,157.31"/><path d="M222.16,157.35L222.18,157.34L222.17,157.36"/><path d="M222.18,157.34L222.18,157.33L222.19,157.30L222.19,157.07"/><path d="M222.19,156.14L222.19,155.94L222.19,156.12L222.19,156.14L222.19,156.13"/><path d="M222.14,156.22L222.12,156.24"/><path d="M222.19,156.13L222.18,156.15L222.17,156.19L222.14,156.22"/><path d="M222.19,155.70L222.19,155.94L222.19,155.70L222.18,155.65L222.16,155.60L222.13,155.54L222.09,155.50L222.06,155.47"/><path d="M223.29,159.28L226.14,157.65L225.71,157.89"/><path d="M226.14,157.65L226.34,157.53"/><path d="M226.38,157.53L226.35,157.53L226.33,157.54"/><path d="M226.34,157.53L226.34,157.53"/></g><g style="stroke:#000000;stroke-width:0.529"><path d="M222.36,158.82L223.18,159.29L223.20,159.30L223.25,159.30L223.27,159.29L225.71,157.89L226.39,158.28L226.41,158.29L226.44,158.29L226.46,158.29L226.49,158.28L227.17,157.89L227.19,157.87L227.19,157.84L227.19,153.31L227.19,153.28L227.17,153.25L227.16,153.22L227.13,153.19L227.11,153.18L222.99,150.81L222.96,150.80L222.94,150.80L221.10,151.86L219.03,153.47L219.02,153.48L218.99,153.52L218.99,153.54L218.99,156.49"/></g></g><g id="Actor_3.1"><g style="stroke:#000000;stroke-width:0.176"/><g style="stroke:#000000;stroke-width:0.529"><path d="M111.53,25.81L111.43,25.61L111.43,25.41"/><path d="M113.69,25.40L113.69,25.59L113.61,25.80L113.41,25.98L113.12,26.12L112.77,26.19L112.39,26.19L112.09,26.14"/></g></g><g id="Actor_4.1"><g style="stroke:#000000;stroke-width:0.176"><path d="M231.47,158.21L227.19,160.67L224.03,158.85"/><path d="M226.19,166.05L225.33,165.55"/><path d="M227.12,166.23L227.18,165.59L227.18,165.46L227.12,165.89L227.08,166.24L227.11,166.25L227.18,165.59L227.16,166.26L227.11,166.25"/><path d="M227.18,165.46L227.19,165.39L227.19,165.30L227.19,165.42L227.18,165.59L227.16,166.26L227.16,166.26"/><path d="M227.16,166.26L227.22,166.26L227.21,165.67L227.25,166.25L227.26,166.25L227.30,166.24L227.30,166.56"/><path d="M227.22,165.58L227.20,165.58"/><path d="M227.21,165.67L227.20,165.50L227.19,165.42L227.19,164.89L227.19,164.91"/><path d="M227.18,165.43L227.18,165.35L227.18,165.43"/><path d="M227.18,165.35L227.18,165.32"/><path d="M227.19,164.89L227.19,165.30L227.19,165.30"/><path d="M227.25,166.25L227.22,166.26"/><path d="M227.19,164.89L227.19,163.77L227.19,164.26"/><path d="M227.19,164.99L227.19,164.90"/><path d="M227.19,160.67L227.19,163.52L227.19,164.26"/><path d="M227.19,163.52L227.19,163.48"/><path d="M227.19,163.88L227.19,163.77"/><path d="M227.19,163.73L227.19,163.77"/><path d="M227.19,163.56L227.19,163.52"/><path d="M227.19,162.18L227.19,161.92"/><path d="M227.19,162.94L227.19,163.22"/><path d="M231.41,158.62L231.37,158.64L231.37,163.88"/></g><g style="stroke:#000000;stroke-width:0.529"><path d="M226.19,166.05L227.08,166.56L227.11,166.57L227.16,166.58L227.22,166.58L227.26,166.57L227.30,166.56L230.70,164.61"/><path d="M231.41,163.94L231.41,158.62L231.47,158.58L231.47,158.21L231.44,158.19"/></g></g><g id="Actor_4.2"><g style="stroke:#000000;stroke-width:0.176"><path d="M220.67,164.95L220.60,164.91L220.59,164.90L220.57,164.88L220.56,164.86L220.55,164.84L220.55,164.82L220.55,164.73L220.55,164.71L220.54,164.69L220.53,164.67L220.52,164.66L220.51,164.64L220.50,164.63L219.64,164.14L219.62,164.13L219.61,164.12L219.59,164.10L219.59,164.08L219.58,164.06L219.58,163.67"/><path d="M218.99,164.25L218.99,164.26"/><path d="M219.32,163.52L219.78,163.78L219.32,163.52L219.32,163.52"/><path d="M219.32,163.52L219.31,163.51"/><path d="M219.57,163.66L220.61,164.26L219.88,163.84"/><path d="M219.97,163.02L219.94,163.03L219.72,163.16L219.70,163.16L219.68,163.16L219.66,163.16L219.59,163.11L219.58,163.11L219.57,163.10L219.57,163.09L219.56,163.08L219.56,163.06L219.56,162.56L219.56,162.53L219.58,162.51L219.59,162.49L219.82,162.36"/><path d="M219.81,162.37L219.82,162.36"/><path d="M220.57,165.09L220.59,165.05L220.60,165.04L220.77,164.82L220.78,164.82L220.79,164.81L220.79,164.81L220.80,164.81L220.82,164.82L222.93,166.03L222.93,165.65L222.93,165.66"/><path d="M220.57,165.07L220.58,165.07"/><path d="M220.59,165.05L220.60,165.04"/><path d="M220.58,165.08L220.58,165.08L220.58,165.08"/><path d="M220.58,165.08L220.58,165.07"/><path d="M220.61,164.26L221.29,164.64"/><path d="M222.06,162.92L222.06,162.92L220.39,161.96"/><path d="M222.26,164.34L222.27,164.34L222.26,164.34L222.25,164.35L222.02,164.48L222.01,164.48L221.98,164.48L221.97,164.48L221.89,164.43L221.88,164.43L221.87,164.42L221.87,164.41L221.86,164.40L221.86,164.39L221.86,163.86L221.86,163.85L221.88,163.83L221.89,163.82L222.13,163.68"/><path d="M221.29,164.65L220.93,164.44L222.87,165.55L222.90,165.57L222.89,165.57"/><path d="M222.93,166.34L222.93,166.33L222.93,166.34"/><path d="M222.90,165.57L222.91,165.60L222.93,165.62L222.93,165.64L222.93,165.93"/><path d="M222.93,166.33L222.93,166.03"/><path d="M222.26,164.34L222.26,164.34"/><path d="M222.19,164.38L222.19,164.75"/><path d="M222.19,164.52L222.19,164.74L222.18,164.77L222.18,164.78L222.16,164.79"/><path d="M222.17,164.81L222.18,164.78"/><path d="M222.19,163.58L222.19,163.22L222.19,163.57L222.19,163.59L222.19,163.57"/><path d="M222.14,163.66L222.12,163.69"/><path d="M222.19,163.58L222.18,163.60L222.17,163.64L222.14,163.67"/><path d="M222.06,162.92L222.09,162.94L222.13,162.99L222.16,163.04L222.18,163.10L222.19,163.14L222.19,163.22L222.19,163.14"/><path d="M223.29,166.72L225.78,165.30L225.71,165.34"/><path d="M225.82,165.27L226.14,165.09L225.78,165.30L225.82,165.27"/><path d="M226.14,165.09L226.34,164.97"/><path d="M226.34,164.97L226.34,164.97"/><path d="M226.33,164.98L226.35,164.97L226.38,164.97"/></g><g style="stroke:#000000;stroke-width:0.529"><path d="M224.03,158.85L227.11,160.62L227.13,160.64L227.16,160.66L227.17,160.70L227.19,160.73L227.19,160.76L227.19,165.29L227.19,165.31L227.17,165.33L226.49,165.73L226.46,165.74L226.44,165.74L226.41,165.74L226.39,165.73L225.71,165.34L223.27,166.73L223.25,166.74L223.20,166.74L223.18,166.73L219.04,164.36L219.02,164.35L219.01,164.33L219.00,164.31L218.99,164.29L218.99,164.28L218.99,164.26"/><path d="M218.99,161.88L218.99,164.25"/></g></g><g id="Actor_4.3"><g style="stroke:#000000;stroke-width:0.176"><path d="M227.76,140.64L227.72,140.62L227.70,140.61"/><path d="M229.77,171.21L229.79,171.28L229.77,171.45L229.71,171.57L229.61,171.64L229.48,171.65L229.33,171.59L229.18,171.48L229.05,171.32L228.95,171.13L228.89,170.94L228.88,170.76L228.91,170.61L229.00,170.51L229.11,170.47L229.26,170.50L229.41,170.59L229.42,170.60"/><path d="M229.42,137.60L229.41,137.58L229.26,137.49L229.11,137.47L229.00,137.51L228.91,137.61L228.88,137.75L228.89,137.93L228.95,138.13L229.05,138.31L229.18,138.47L229.33,138.58L229.48,138.64L229.61,138.63L229.71,138.56L229.77,138.44L229.79,138.27L229.77,138.20"/><path d="M230.92,142.45L230.94,142.47L230.97,142.48"/></g><g style="stroke:#000000;stroke-width:0.529"><path d="M231.98,166.57L231.98,173.29L231.97,173.36L231.93,173.43L231.91,173.44L231.44,173.71L231.42,173.72L231.35,173.72L231.27,173.69L227.41,171.48L227.35,171.43L227.30,171.37L227.26,171.30L227.23,171.22L227.22,171.14L227.22,168.38"/><path d="M231.98,164.82L231.98,137.68L231.97,137.60L231.94,137.52L231.90,137.44L231.84,137.38L231.78,137.34L227.93,135.12L227.85,135.09L227.78,135.09L227.76,135.10L227.28,135.37L227.27,135.38L227.23,135.45L227.22,135.52L227.22,139.48"/><path d="M229.72,171.17L229.59,171.01L229.49,170.83L229.43,170.63L229.42,170.60L229.55,170.72L229.67,170.90L229.75,171.09L229.77,171.21L229.72,171.17"/><path d="M229.72,138.16L229.59,138.01L229.49,137.82L229.43,137.63L229.42,137.60L229.55,137.72L229.67,137.89L229.75,138.08L229.77,138.20L229.72,138.16"/></g></g><g id="Actor_4.4"><g style="stroke:#000000;stroke-width:0.176"><path d="M224.97,159.24L225.06,159.19L225.09,159.14L225.10,159.05L225.09,158.95L225.07,158.86L225.03,158.80L224.98,158.73L224.91,158.68L224.90,158.67L224.83,158.64L224.78,158.64L224.72,158.67L224.78,158.67L224.85,158.70L224.86,158.71L224.92,158.76L224.98,158.83L225.01,158.89L225.04,158.98L225.05,159.08L225.04,159.17L225.01,159.22L224.97,159.24L224.91,159.24L224.85,159.21L224.78,159.16L224.72,159.10L224.68,159.02L224.65,158.94L224.64,158.85L224.65,158.76L224.68,158.70L224.72,158.67"/><path d="M225.02,159.21L225.02,159.21"/><path d="M224.97,159.15L224.95,159.15L224.90,159.13L224.86,159.10L224.82,159.05L224.79,159.00L224.76,158.94L224.75,158.85L224.76,158.77L224.77,158.74"/><path d="M224.89,159.18L224.85,159.16L224.81,159.13L224.77,159.08L224.73,159.03L224.71,158.97L224.70,158.88L224.71,158.80L224.73,158.76L224.76,158.74L224.80,158.74L224.85,158.76L224.89,158.79L224.93,158.83L224.96,158.89L224.98,158.95L224.99,159.04L224.98,159.12L224.96,159.16L224.93,159.18L224.89,159.18"/><path d="M224.87,158.38L224.87,158.58L224.81,158.55L224.81,158.41"/><path d="M224.87,158.58L224.92,158.55L224.92,158.34"/><path d="M224.52,158.57L224.54,158.62L224.57,158.70L224.58,158.80L224.56,158.91L224.54,158.95L224.50,158.97L224.59,158.92L224.62,158.88L224.63,158.77L224.62,158.67L224.60,158.59L224.57,158.54"/><path d="M224.34,158.68L224.34,158.79L224.43,158.85L224.49,158.87L224.50,158.87"/><path d="M225.06,158.29L225.07,158.27L225.09,158.27L225.14,158.29L225.18,158.32L225.22,158.36L225.26,158.42L225.28,158.48L225.29,158.57L225.28,158.65L225.27,158.68L225.24,158.68L225.19,158.66L225.15,158.63L225.11,158.58L225.08,158.53L225.06,158.47L225.05,158.37L225.06,158.30L225.06,158.29"/><path d="M224.48,158.60L224.49,158.62L224.51,158.67L224.52,158.77L224.52,158.82L224.50,158.88L224.48,158.90L224.47,158.91L224.44,158.91L224.37,158.88L224.28,158.82L224.34,158.79"/><path d="M224.28,158.82L224.28,158.71"/><path d="M225.27,158.68L225.26,158.69L225.23,158.71L225.19,158.71L225.14,158.69L225.10,158.66L225.06,158.61L225.03,158.56L225.01,158.50L224.99,158.41L225.00,158.33L225.02,158.29L225.06,158.27L225.07,158.27"/><path d="M224.23,158.74L224.23,158.85L224.38,158.94L224.46,158.97L224.50,158.97"/><path d="M225.13,158.23L225.14,158.23L225.21,158.28L225.26,158.35L225.31,158.42L225.34,158.51L225.35,158.60L225.34,158.69L225.31,158.74L225.26,158.77L225.21,158.77L225.14,158.75L225.13,158.74L225.06,158.69L225.01,158.62L224.98,158.55L224.95,158.47L224.94,158.37L224.94,158.33"/><path d="M225.82,159.63L225.85,159.58L225.86,159.48L225.85,159.37L225.83,159.29L225.80,159.24L225.76,159.19L225.73,159.16L225.70,159.14L225.66,159.11L225.51,159.03L225.46,159.06L225.60,159.14L225.65,159.17L225.68,159.20L225.70,159.22L225.74,159.27L225.77,159.33L225.80,159.40L225.81,159.51L225.80,159.61L225.77,159.66L225.73,159.68L225.82,159.63"/><path d="M225.39,159.46L225.39,159.52L225.12,159.36L225.12,158.87L225.18,158.90L225.18,159.34L225.39,159.46L225.44,159.43L225.23,159.31L225.23,158.87L225.18,158.90"/><path d="M225.44,159.43L225.44,159.49L225.39,159.52"/><path d="M225.46,159.06L225.46,159.56L225.61,159.64L225.69,159.68L225.73,159.68"/><path d="M225.76,159.09L225.61,159.01L225.57,158.98L225.54,158.96L225.51,158.94L225.47,158.89L225.44,158.83L225.42,158.75L225.41,158.64L225.42,158.54L225.45,158.49L225.48,158.47L225.52,158.47L225.61,158.51L225.76,158.60L225.76,159.09L225.82,159.06L225.82,158.57L225.66,158.48L225.58,158.44L225.54,158.44L225.48,158.47"/><path d="M225.73,159.58L225.72,159.58L225.66,159.55L225.57,159.50L225.51,159.53L225.60,159.58L225.67,159.61L225.70,159.61L225.71,159.61L225.73,159.59L225.75,159.53L225.75,159.47L225.74,159.37L225.72,159.33L225.70,159.28L225.68,159.25L225.65,159.23L225.60,159.20L225.57,159.18L225.57,159.50"/><path d="M225.51,159.53L225.51,159.15L225.57,159.18"/><path d="M225.18,159.34L225.23,159.31"/><path d="M225.23,158.87L225.17,158.84L225.12,158.87"/><path d="M225.82,158.57L225.76,158.60"/><path d="M225.18,158.20L225.19,158.20L225.26,158.25L225.32,158.32L225.36,158.39L225.39,158.48L225.40,158.57L225.39,158.66L225.36,158.71L225.32,158.74L225.26,158.77"/><path d="M225.52,158.59L225.52,158.65L225.53,158.75L225.55,158.80L225.57,158.84L225.59,158.87L225.62,158.89L225.67,158.92L225.70,158.94L225.70,158.62L225.61,158.57L225.55,158.54L225.54,158.54L225.52,158.59"/><path d="M225.70,158.94L225.70,159.00L225.61,158.95L225.57,158.92L225.54,158.90L225.52,158.87L225.49,158.83L225.48,158.78L225.47,158.68L225.47,158.62L225.49,158.57L225.51,158.54L225.52,158.54L225.54,158.54"/><path d="M226.25,160.05L226.20,160.02L226.16,159.98"/><path d="M226.98,159.05L226.97,159.09L226.99,159.21L227.03,159.34L227.10,159.46L227.19,159.55L227.29,159.62L227.38,159.64L227.46,159.63L227.52,159.57L227.55,159.49L227.55,159.37L227.52,159.25L227.46,159.13L227.41,159.05"/><path d="M226.23,158.62L226.16,158.66"/><path d="M227.91,158.77L231.44,156.74"/></g><g style="stroke:#000000;stroke-width:0.529"><path d="M231.41,156.72L231.44,156.74L231.44,158.23L227.91,160.25L227.87,160.27L227.82,160.28L227.78,160.28L227.73,160.27L227.69,160.25L226.89,159.79L226.87,159.79L226.85,159.78L226.82,159.78L226.80,159.79L226.78,159.79L226.33,160.05L226.31,160.06L226.29,160.06L226.27,160.06L226.25,160.05L224.10,158.82"/></g></g><g id="Actor_4.5"><g style="stroke:#000000;stroke-width:0.176"><path d="M223.95,151.27L223.93,151.28L223.93,151.10"/><path d="M224.03,150.92L224.04,150.90"/><path d="M223.98,150.98L223.98,150.98"/><path d="M223.95,149.95L223.93,149.89L223.93,150.01L223.93,149.84L223.94,149.81L223.95,149.80"/><path d="M223.58,150.43L223.58,150.43"/><path d="M224.09,150.74L224.09,150.56L224.03,150.32L224.02,150.29L224.00,150.28L223.91,150.20L223.83,150.08L223.78,149.96L223.76,149.84L223.77,149.73L223.78,149.70"/><path d="M223.93,149.89L223.93,149.84"/><path d="M223.93,150.01L223.93,150.07L223.94,150.10L224.02,150.29"/><path d="M223.93,150.04L223.93,149.98"/><path d="M224.97,151.79L224.97,151.80L224.91,151.80L224.85,151.77L224.78,151.72L224.72,151.65L224.68,151.58L224.65,151.49L224.64,151.40L224.65,151.31L224.68,151.26L224.72,151.23L224.78,151.23L224.85,151.26L224.86,151.26L224.92,151.32L224.98,151.38L225.01,151.45L225.04,151.53L225.05,151.63L225.04,151.72L225.01,151.77L224.97,151.79"/><path d="M224.97,151.80L225.06,151.74L225.09,151.69L225.10,151.60L225.09,151.50L225.07,151.42L225.03,151.35L224.98,151.28L224.91,151.23L224.90,151.23L224.83,151.20L224.78,151.20L224.72,151.23"/><path d="M224.47,150.99L224.50,151.01L224.53,151.04L224.57,151.09L224.60,151.14L224.62,151.22L224.63,151.33L224.62,151.43L224.59,151.48L224.50,151.53L224.54,151.51L224.56,151.46L224.58,151.36L224.57,151.25L224.54,151.17L224.51,151.12L224.47,151.07L224.45,151.04L224.42,151.02L224.37,150.99L224.23,150.91L224.28,150.88L224.43,150.96L224.47,150.99"/><path d="M224.25,150.32L224.31,150.29L224.35,150.29L224.43,150.33L224.58,150.42L224.58,150.91L224.53,150.94L224.53,150.45L224.38,150.36L224.29,150.32L224.25,150.32L224.22,150.34L224.19,150.39L224.18,150.49L224.19,150.60L224.21,150.68L224.24,150.73L224.28,150.78L224.31,150.81L224.34,150.83L224.38,150.86L224.53,150.94"/><path d="M224.77,151.29L224.76,151.32L224.75,151.40L224.76,151.49L224.79,151.55L224.82,151.61L224.86,151.65L224.90,151.68L224.95,151.70L224.97,151.70"/><path d="M224.50,151.43L224.49,151.43L224.43,151.40L224.34,151.35L224.34,151.03L224.28,151.00L224.28,151.38L224.37,151.43L224.44,151.46L224.47,151.46L224.48,151.46L224.50,151.43L224.52,151.38L224.52,151.32L224.51,151.22L224.49,151.17L224.47,151.13L224.45,151.10L224.42,151.08L224.37,151.05L224.34,151.03"/><path d="M224.47,150.79L224.44,150.77L224.39,150.74L224.36,150.72L224.34,150.69L224.32,150.65L224.30,150.60L224.29,150.50L224.29,150.44L224.31,150.39L224.29,150.39L224.28,150.39L224.26,150.42L224.24,150.47L224.23,150.53L224.25,150.63L224.26,150.68L224.29,150.72L224.31,150.75L224.34,150.77L224.38,150.80L224.47,150.85L224.47,150.47L224.38,150.42L224.32,150.39L224.31,150.39"/><path d="M225.06,150.86L225.05,150.93L225.06,151.02L225.08,151.08L225.11,151.14L225.15,151.18L225.19,151.21L225.24,151.23L225.27,151.23L225.26,151.24L225.23,151.26L225.19,151.26L225.14,151.24L225.10,151.21L225.06,151.17L225.03,151.11L225.01,151.05L224.99,150.96L225.00,150.89L225.02,150.85L225.06,150.83L225.07,150.83L225.06,150.86"/><path d="M224.28,151.38L224.34,151.35"/><path d="M224.71,151.52L224.70,151.44L224.71,151.35L224.73,151.31L224.76,151.30L224.80,151.29L224.85,151.31L224.89,151.34L224.93,151.39L224.96,151.44L224.98,151.50L224.99,151.60L224.98,151.67L224.96,151.71L224.93,151.73L224.89,151.73L224.85,151.71L224.81,151.69L224.77,151.64L224.73,151.58L224.71,151.52"/><path d="M224.23,150.91L224.23,151.40L224.38,151.49L224.46,151.53L224.50,151.53"/><path d="M225.02,150.76L225.07,150.76L225.14,150.79L225.21,150.84L225.26,150.90L225.31,150.98L225.34,151.07L225.35,151.16L225.34,151.25L225.31,151.30L225.26,151.33L225.21,151.33L225.14,151.30L225.13,151.29L225.06,151.24L225.01,151.18L224.98,151.11L224.95,151.02L224.94,150.93L224.95,150.83L224.98,150.79L225.07,150.73L225.13,150.73L225.19,150.76L225.26,150.81L225.32,150.87L225.36,150.95L225.39,151.04L225.40,151.12L225.39,151.21L225.36,151.27L225.32,151.30L225.26,151.33"/><path d="M224.87,151.13L224.87,150.64L224.60,150.48L224.65,150.45L224.92,150.61L224.92,151.10L224.87,151.13L224.81,151.10L224.81,150.66L224.60,150.54L224.60,150.48"/><path d="M225.27,151.23L225.28,151.20L225.29,151.12L225.28,151.03L225.26,150.97L225.22,150.92L225.18,150.87L225.14,150.84L225.09,150.83L225.07,150.83"/><path d="M225.02,151.76L225.02,151.76"/><path d="M224.09,150.75L224.09,150.79"/><path d="M224.92,150.61L224.87,150.64"/><path d="M224.58,150.42L224.53,150.45"/><path d="M225.82,152.18L225.85,152.14L225.86,152.03L225.85,151.93L225.83,151.85L225.80,151.79L225.76,151.74L225.73,151.72L225.70,151.70L225.66,151.67L225.51,151.58L225.46,151.61L225.60,151.70L225.65,151.73L225.68,151.75L225.70,151.77L225.74,151.82L225.77,151.88L225.80,151.96L225.81,152.06L225.80,152.17L225.77,152.22L225.73,152.23L225.82,152.18"/><path d="M225.18,151.78L225.18,151.89L225.39,152.01L225.39,152.07L225.12,151.92L225.12,151.42L225.18,151.45L225.18,151.78"/><path d="M225.39,152.01L225.44,151.98L225.23,151.86L225.23,151.42L225.18,151.45"/><path d="M225.39,152.07L225.44,152.04L225.44,151.98"/><path d="M225.23,151.86L225.18,151.89"/><path d="M225.72,152.14L225.66,152.11L225.57,152.05L225.57,151.74L225.60,151.76L225.65,151.78L225.68,151.81L225.70,151.84L225.72,151.88L225.74,151.93L225.75,152.03L225.75,152.08L225.73,152.14L225.72,152.14"/><path d="M225.73,152.14L225.73,152.14L225.71,152.16L225.70,152.17L225.67,152.17L225.60,152.14L225.51,152.08L225.57,152.05"/><path d="M225.51,152.08L225.51,151.71L225.57,151.74"/><path d="M225.46,151.61L225.46,152.11L225.61,152.20L225.69,152.23L225.73,152.23"/><path d="M225.23,151.42L225.17,151.39L225.12,151.42"/><path d="M225.82,151.12L225.66,151.03L225.58,151.00L225.54,151.00L225.48,151.03L225.52,151.03L225.61,151.06L225.76,151.15L225.76,151.65L225.82,151.62L225.82,151.12L225.76,151.15"/><path d="M225.52,151.15L225.52,151.20L225.53,151.30L225.55,151.35L225.57,151.40L225.59,151.42L225.62,151.45L225.67,151.47L225.70,151.50L225.70,151.18L225.61,151.13L225.55,151.10L225.54,151.10L225.52,151.15"/><path d="M225.70,151.50L225.70,151.56L225.61,151.51L225.57,151.48L225.54,151.45L225.52,151.43L225.49,151.38L225.48,151.33L225.47,151.23L225.47,151.18L225.49,151.12L225.51,151.10L225.52,151.10L225.54,151.10"/><path d="M225.48,151.03L225.45,151.05L225.42,151.09L225.41,151.20L225.42,151.30L225.44,151.38L225.47,151.44L225.51,151.49L225.54,151.51L225.57,151.54L225.61,151.56L225.76,151.65"/><path d="M226.25,152.61L226.20,152.58L226.16,152.54"/><path d="M226.99,151.54L226.99,151.55L226.97,151.65L226.99,151.77L227.03,151.90L227.10,152.01L227.19,152.11L227.29,152.17L227.38,152.20L227.46,152.18L227.52,152.13L227.55,152.04L227.55,151.93L227.52,151.81L227.46,151.68L227.38,151.57L227.36,151.56"/><path d="M226.16,151.22L226.29,151.14"/><path d="M231.44,149.29L227.91,151.32L227.87,151.34L227.82,151.34L227.78,151.34L227.74,151.34"/></g><g style="stroke:#000000;stroke-width:0.529"><path d="M231.37,149.25L231.44,149.29L231.44,150.78L227.91,152.81L227.87,152.83L227.82,152.83L227.78,152.83L227.73,152.83L227.69,152.81L226.89,152.35L226.87,152.34L226.85,152.34L226.82,152.34L226.80,152.34L226.78,152.35L226.33,152.61L226.31,152.61L226.29,152.62L226.27,152.61L226.25,152.61L223.93,151.28L223.93,151.07L223.94,151.05L223.95,151.02L223.96,151.00L224.04,150.90L224.09,150.75L224.09,150.74L223.62,150.47L223.59,150.45L223.58,150.43L223.58,149.59"/></g></g><g id="Actor_4.6"><g style="stroke:#000000;stroke-width:0.176"><path d="M217.13,160.34L217.14,160.33"/><path d="M217.07,160.34L217.06,160.35L216.98,160.33"/><path d="M216.99,160.32L217.01,160.33"/><path d="M217.05,160.28L217.05,160.29"/><path d="M217.00,160.33L217.00,160.33"/><path d="M217.61,159.97L219.60,161.11L220.74,159.14L218.60,157.91L218.75,158.00L217.61,159.97L217.46,159.88L218.60,157.91"/><path d="M217.37,159.93L217.37,159.92"/><path d="M217.35,159.87L217.35,159.86L217.29,159.80"/><path d="M217.29,159.80L217.30,159.81"/><path d="M217.27,159.88L217.29,159.88"/><path d="M220.74,159.14L218.75,158.00"/><path d="M218.49,156.58L218.49,156.59"/><path d="M219.76,161.84L219.75,161.84"/><path d="M219.61,161.83L219.69,161.85L219.70,161.85"/><path d="M219.63,161.84L219.63,161.84L219.63,161.84"/><path d="M219.68,161.79L219.67,161.78"/><path d="M219.63,161.84L219.61,161.83"/><path d="M219.22,156.55L219.23,156.55"/><path d="M219.20,156.54L219.19,156.54"/><path d="M219.20,156.54L219.20,156.54"/><path d="M219.21,156.54L219.21,156.54L219.21,156.54"/><path d="M220.00,161.43L220.00,161.42"/><path d="M219.98,161.38L219.97,161.36L219.91,161.30"/><path d="M219.93,161.31L219.91,161.31"/><path d="M219.90,161.39L219.91,161.39"/><path d="M220.03,156.68L220.04,156.69L220.06,156.70L220.04,156.70"/><path d="M220.38,156.89L220.06,156.70"/><path d="M221.82,159.50L221.82,159.50"/><path d="M222.25,159.22L222.29,159.06L222.25,159.22"/><path d="M222.36,158.42L222.37,158.41L222.36,158.42"/><path d="M222.35,158.83L222.35,158.84L222.35,158.83"/><path d="M222.34,158.87L222.35,158.84L222.29,159.04L222.33,158.91"/><path d="M222.29,159.04L222.29,159.06L222.29,159.04"/><path d="M222.36,158.82L222.35,158.83"/><path d="M222.36,158.82L222.36,158.82"/><path d="M222.36,158.81L222.36,158.81L222.36,158.81"/><path d="M222.88,158.51L222.37,158.81"/><path d="M222.52,158.72L222.67,158.64"/></g><g style="stroke:#000000;stroke-width:0.529"><path d="M222.88,158.52L222.37,158.81L222.36,158.81L222.36,158.82L222.35,158.83L222.25,159.22L222.23,159.25L222.22,159.27L221.83,159.49L221.82,159.50L221.81,159.51L220.12,162.44L220.11,162.46L220.08,162.47L220.04,162.48L220.02,162.47L216.61,160.51L216.38,160.38L216.37,160.37L216.36,160.36L216.35,160.35L216.35,160.33L216.35,160.31L216.35,160.29L216.35,160.28L218.48,156.60L218.49,156.58L218.50,156.57L218.51,156.57L218.74,156.44L218.76,156.43L218.77,156.43L218.79,156.43L219.18,156.54L219.19,156.54L219.20,156.54L219.67,156.27"/><path d="M217.36,160.10L217.35,160.12L217.30,160.22L217.22,160.29L217.14,160.33L217.07,160.34L217.05,160.29L217.05,160.20L217.07,160.09L217.13,160.00L217.21,159.92L217.29,159.88L217.35,159.87L217.37,159.93L217.38,160.02L217.36,160.10"/><path d="M219.76,161.84L219.70,161.85L219.68,161.79L219.67,161.70L219.70,161.60L219.75,161.50L219.83,161.43L219.91,161.39L219.98,161.38L220.00,161.43L220.00,161.52L219.98,161.63L219.92,161.72L219.84,161.80L219.76,161.84"/><path d="M219.20,156.54L219.20,156.54"/><path d="M222.34,157.80L222.23,157.86L222.21,157.87L222.17,157.88L222.14,157.88L222.10,157.87L222.08,157.86L220.38,156.89"/><path d="M222.35,158.83L222.35,158.83"/></g></g><g id="Actor_3.2"><g style="stroke:#000000;stroke-width:0.176"><path d="M111.36,25.45L111.37,25.68L111.42,25.75"/><path d="M112.21,26.20L112.49,26.24L112.88,26.22L113.25,26.12L113.53,25.96L113.72,25.76L113.77,25.53L113.77,25.53"/></g><g style="stroke:#000000;stroke-width:0.529"><path d="M111.40,25.35L111.36,25.45L111.36,25.72"/><path d="M113.77,27.10L113.77,25.53"/><path d="M113.71,25.36L113.77,25.53"/></g></g><g id="Actor_4.7"><g style="stroke:#000000;stroke-width:0.176"><path d="M222.90,150.76L227.19,153.22L231.47,150.76"/><path d="M226.19,158.60L225.33,158.11"/><path d="M227.17,158.18L227.18,158.14L227.16,158.82L227.16,158.82L227.18,158.02L227.12,158.44L227.08,158.79L227.11,158.81L227.17,158.18"/><path d="M227.18,158.02L227.18,157.91L227.18,158.01L227.19,157.94L227.19,157.85"/><path d="M227.19,157.47L227.19,157.45L227.19,157.97L227.18,158.14L227.12,158.79"/><path d="M227.11,158.81L227.16,158.82"/><path d="M227.16,158.82L227.22,158.82L227.21,158.22L227.25,158.81L227.22,158.82"/><path d="M227.30,159.12L227.30,158.79L227.26,158.81L227.25,158.81"/><path d="M227.21,158.22L227.19,157.97L227.19,156.29L227.19,156.35"/><path d="M227.21,158.13L227.20,158.14"/><path d="M227.19,157.54L227.19,157.46"/><path d="M227.18,157.91L227.18,157.88"/><path d="M227.19,155.45L227.19,155.38L227.19,156.29"/><path d="M227.19,156.53L227.19,156.39L227.19,156.53"/><path d="M227.19,156.65L227.19,156.98"/><path d="M227.19,156.12L227.19,156.04"/><path d="M227.19,154.90L227.19,154.48L227.19,155.38"/><path d="M227.19,155.50L227.19,155.54"/><path d="M227.19,155.55L227.19,155.77"/><path d="M227.19,154.48L227.19,153.22"/><path d="M231.41,151.17L231.37,151.20L231.37,156.78"/></g><g style="stroke:#000000;stroke-width:0.529"><path d="M223.58,150.38L222.90,150.76L222.90,150.82"/><path d="M226.19,158.60L227.08,159.12L227.11,159.13L227.16,159.14L227.22,159.14L227.26,159.13L227.30,159.12L231.37,156.78L231.39,156.76L231.41,156.73L231.41,155.94L231.41,156.73"/><path d="M231.41,155.94L231.41,151.17L231.47,151.14L231.47,150.76L231.44,150.75"/></g></g><g id="Actor_4.8"><g style="stroke:#000000;stroke-width:0.176"><path d="M223.99,167.23L226.13,168.46"/><path d="M223.93,167.15L223.93,166.35"/><path d="M223.93,166.98L223.93,166.99"/><path d="M223.93,167.13L223.93,167.12"/><path d="M223.93,166.40L223.93,166.50"/><path d="M224.96,166.34L224.99,166.37L225.04,166.44L225.05,166.46L225.08,166.55L225.09,166.66L225.09,166.70L225.07,166.78L225.04,166.82L224.98,166.85L225.01,166.81L225.04,166.73L225.04,166.69L225.03,166.58L225.00,166.50L224.98,166.47L224.94,166.40L224.89,166.35L224.85,166.32L224.78,166.30L224.73,166.30L224.71,166.31L224.76,166.28L224.79,166.27L224.83,166.26L224.90,166.29L224.94,166.32L224.96,166.34"/><path d="M224.46,166.05L224.54,166.11L224.59,166.16L224.60,166.17L224.64,166.24L224.66,166.32L224.67,166.39L224.68,166.35L224.71,166.31"/><path d="M224.41,166.08L224.48,166.14L224.53,166.19L224.54,166.20L224.58,166.27L224.61,166.35L224.62,166.45L224.62,166.46L224.61,166.54L224.58,166.59L224.63,166.56L224.66,166.51L224.66,166.50L224.67,166.59L224.70,166.67L224.71,166.69L224.75,166.75L224.80,166.81L224.85,166.84L224.91,166.87L224.96,166.86L224.98,166.85"/><path d="M224.79,166.38L224.77,166.45L224.77,166.48L224.78,166.58L224.80,166.64L224.82,166.67L224.85,166.71L224.88,166.74L224.90,166.75L224.94,166.77L224.95,166.77L224.94,166.78L224.92,166.80L224.89,166.80L224.85,166.78L224.83,166.77L224.79,166.74L224.77,166.70L224.75,166.67L224.73,166.61L224.72,166.51L224.72,166.48L224.73,166.41L224.75,166.38L224.78,166.36L224.79,166.36L224.79,166.38"/><path d="M224.52,166.51L224.54,166.51L224.55,166.49L224.56,166.43L224.56,166.42L224.55,166.33L224.53,166.27L224.50,166.22L224.44,166.16L224.39,166.13L224.39,166.45L224.44,166.47L224.52,166.51"/><path d="M224.54,166.51L224.53,166.53L224.50,166.54L224.47,166.54L224.38,166.51L224.34,166.48L224.34,166.12"/><path d="M224.34,166.48L224.39,166.45"/><path d="M224.79,166.36L224.81,166.36L224.85,166.38L224.88,166.41L224.92,166.44L224.95,166.49L224.97,166.55L224.98,166.66L224.98,166.68L224.96,166.75L224.95,166.77"/><path d="M224.67,166.39L224.66,166.43L224.66,166.47L224.66,166.50"/><path d="M224.28,166.15L224.28,166.51L224.38,166.56L224.49,166.61L224.53,166.61L224.58,166.59"/><path d="M224.92,165.79L224.92,165.99L224.87,166.02L224.87,165.82"/><path d="M225.06,165.74L225.07,165.72L225.09,165.72L225.14,165.73L225.18,165.76L225.22,165.81L225.26,165.86L225.28,165.92L225.29,166.01L225.28,166.09L225.27,166.12L225.24,166.12L225.19,166.10L225.15,166.07L225.11,166.03L225.08,165.97L225.06,165.91L225.05,165.82L225.06,165.75L225.06,165.74"/><path d="M224.39,166.13L224.36,166.11"/><path d="M225.27,166.12L225.26,166.13L225.23,166.15L225.19,166.15L225.14,166.13L225.10,166.10L225.06,166.06L225.03,166.00L225.01,165.94L224.99,165.85L225.00,165.78L225.02,165.74L225.06,165.72L225.07,165.72"/><path d="M225.13,165.67L225.14,165.68L225.21,165.73L225.26,165.79L225.31,165.87L225.34,165.96L225.35,166.05L225.34,166.13L225.31,166.19L225.26,166.22L225.21,166.22L225.14,166.19L225.13,166.18L225.06,166.13L225.01,166.07L224.98,166.00L224.95,165.91L224.94,165.82L224.94,165.78"/><path d="M224.87,166.02L224.81,165.99L224.81,165.85"/><path d="M225.69,167.22L225.74,167.19L225.77,167.15L225.78,167.07L225.78,167.06L225.77,166.96L225.75,166.88L225.70,166.81L225.70,166.80L225.65,166.74L225.54,166.67L225.45,166.61L225.39,166.64L225.49,166.70L225.59,166.77L225.64,166.83L225.65,166.84L225.69,166.91L225.72,166.99L225.73,167.09L225.73,167.10L225.72,167.18L225.69,167.22L225.64,167.24L225.59,167.24L225.49,167.20L225.39,167.14L225.39,167.03L225.35,167.06L225.16,166.95L225.16,166.51L225.21,166.48L225.21,166.92L225.16,166.95"/><path d="M225.82,166.34L225.82,166.51L225.76,166.54L225.76,166.04L225.61,165.95L225.52,165.92L225.48,165.92L225.54,165.89L225.58,165.89L225.66,165.92L225.82,166.01L225.82,166.34"/><path d="M225.67,166.36L225.62,166.34L225.59,166.31L225.57,166.29L225.55,166.24L225.53,166.19L225.52,166.09L225.52,166.04L225.54,165.99L225.55,165.99L225.61,166.02L225.70,166.07L225.70,166.39L225.67,166.36"/><path d="M225.54,165.99L225.52,165.99L225.51,165.99L225.49,166.01L225.47,166.07L225.47,166.12L225.48,166.22L225.49,166.27L225.52,166.32L225.54,166.34L225.57,166.37L225.61,166.39L225.70,166.45L225.70,166.39"/><path d="M225.63,167.15L225.55,167.11L225.50,167.09L225.45,167.12L225.49,167.14L225.58,167.18L225.61,167.18L225.64,167.16L225.65,167.15L225.63,167.15"/><path d="M225.50,167.09L225.50,166.77L225.45,166.73L225.45,167.12"/><path d="M225.35,167.06L225.35,167.12L225.39,167.09"/><path d="M225.16,166.51L225.10,166.48L225.15,166.45L225.21,166.48"/><path d="M225.10,166.48L225.10,166.97L225.35,167.12"/><path d="M225.21,166.92L225.39,167.02L225.39,167.03"/><path d="M225.39,167.02L225.39,166.64"/><path d="M225.76,166.54L225.61,166.45L225.57,166.43L225.54,166.40L225.51,166.38L225.47,166.33L225.44,166.27L225.42,166.19L225.41,166.09L225.42,165.98L225.45,165.94L225.48,165.92"/><path d="M225.65,167.15L225.66,167.13L225.67,167.06L225.67,167.05L225.66,166.96L225.64,166.91L225.61,166.85L225.55,166.80L225.50,166.77"/><path d="M225.18,165.64L225.19,165.65L225.26,165.70L225.32,165.76L225.36,165.84L225.39,165.92L225.40,166.01L225.39,166.10L225.36,166.16L225.32,166.19L225.26,166.22"/><path d="M225.82,166.01L225.76,166.04"/><path d="M226.87,168.18L226.87,168.18"/><path d="M226.80,168.18L226.80,168.19"/><path d="M227.45,166.47L227.47,166.50L227.55,166.63L227.60,166.77L227.61,166.91L227.61,167.12L227.60,167.23L227.55,167.32L227.47,167.36L227.37,167.36L227.26,167.32L227.16,167.24L227.06,167.13L226.98,167.00L226.93,166.85L226.92,166.72L226.92,166.51L226.92,166.47"/><path d="M226.16,166.11L226.23,166.07"/><path d="M227.91,166.21L230.70,164.61"/><path d="M231.42,166.64L231.42,166.64"/></g><g style="stroke:#000000;stroke-width:0.529"><path d="M223.81,166.43L223.93,166.50L223.93,167.15L223.94,167.17L223.96,167.21L223.99,167.23L226.14,168.46L226.17,168.48L226.21,168.48L226.24,168.48L226.28,168.48L226.31,168.46L226.80,168.19"/><path d="M223.93,167.15L223.93,167.15"/><path d="M223.93,166.99L223.93,167.12"/><path d="M226.80,168.18L226.82,168.18L226.84,168.18L226.86,168.18L226.87,168.18L227.72,168.67L227.74,168.68L227.78,168.69L227.82,168.69L227.86,168.68L227.88,168.67L231.42,166.64"/><path d="M227.95,168.63L227.88,168.67L227.94,168.63"/><path d="M231.44,165.75L231.44,166.60L231.44,166.61L231.44,166.62L231.43,166.63L231.42,166.64"/></g></g><g id="Actor_4.9"><g style="stroke:#000000;stroke-width:0.176"><path d="M226.12,150.55L226.14,150.54L226.10,150.57L226.06,150.58L226.00,150.58L225.97,150.57L222.97,148.85"/><path d="M222.97,149.16L222.97,148.94"/><path d="M224.07,148.24L224.01,148.16L223.98,148.14L222.86,147.50L222.85,147.49L222.83,147.47L222.82,147.45L222.81,147.42L222.81,147.41L222.81,147.28L223.32,147.57L223.72,147.66L223.75,147.66L223.83,147.65L223.85,147.64L223.84,147.65"/><path d="M222.81,147.28L222.15,146.90"/><path d="M222.20,145.97L222.18,145.98"/><path d="M223.79,147.65L223.83,147.65"/><path d="M223.80,147.48L224.01,147.60L224.20,147.79L224.38,148.03L224.47,148.22L224.49,148.24L225.09,148.59L224.51,148.25L224.54,148.27"/><path d="M224.05,147.64L224.13,147.71"/><path d="M223.96,147.58L223.85,147.64"/><path d="M223.62,147.45L223.81,147.49"/><path d="M223.96,147.58L223.97,147.58"/><path d="M224.68,144.76L224.68,144.63L224.64,144.54L224.36,144.23L224.34,144.22L223.85,143.93L223.93,143.89L223.96,143.89L223.98,143.89L224.01,143.89L224.02,143.90L225.13,144.53L225.16,144.55L225.22,144.56L225.26,144.56"/><path d="M223.20,143.56L223.20,143.56L223.20,143.56L223.20,143.56"/><path d="M223.20,143.56L223.85,143.93"/><path d="M223.20,143.56L223.19,143.55"/><path d="M226.44,151.23L225.01,150.41"/><path d="M225.70,149.74L225.70,149.00L225.70,149.13L224.87,148.65L224.85,148.64L224.81,148.64L224.79,148.65"/><path d="M224.81,148.68L224.70,148.75L224.68,148.76L224.60,148.86"/><path d="M224.81,148.68L224.80,148.68"/><path d="M224.51,148.25L224.49,148.24L224.51,148.25"/><path d="M224.71,144.81L224.99,144.89L225.29,144.91L225.50,144.90L225.53,144.90L225.54,144.90L226.69,145.56L226.72,145.57L226.71,145.57L226.71,145.57"/><path d="M224.51,144.69L224.51,144.69L224.38,144.55"/><path d="M224.51,144.69L224.72,144.81"/><path d="M224.69,144.79L224.68,144.76"/><path d="M225.70,149.75L225.70,149.74L225.70,149.87L225.70,149.88L225.70,149.87"/><path d="M225.70,149.74L225.70,149.74"/><path d="M225.70,149.88L225.70,149.88"/><path d="M225.67,148.92L225.67,148.93L225.64,148.91L225.09,148.59"/><path d="M225.70,149.00L225.70,148.98L225.70,148.96L225.70,148.98"/><path d="M225.70,148.96L225.69,148.95L225.67,148.93"/><path d="M225.70,149.42L225.70,149.28"/><path d="M225.70,149.20L225.70,149.13"/><path d="M226.00,144.98L226.02,145.03L226.04,145.05L226.86,145.53L226.80,145.56L226.78,145.57L226.78,145.57"/><path d="M226.09,144.71L226.04,144.84L226.04,144.97L226.03,144.98"/><path d="M225.90,141.62L225.87,141.63"/><path d="M226.02,141.39L226.02,141.37"/><path d="M226.02,140.20L226.02,140.20"/><path d="M227.02,150.03L227.04,150.03L226.14,150.54L227.02,150.03"/><path d="M227.06,150.01L227.05,150.02L227.06,150.01"/><path d="M227.05,150.02L227.04,150.03L227.07,150.01L227.11,150.01"/><path d="M226.74,145.57L226.74,145.57L226.73,145.57L226.74,145.57L226.78,145.57"/><path d="M226.72,145.57L226.73,145.57L226.72,145.57"/><path d="M226.73,145.57L226.73,145.57"/><path d="M227.07,145.41L227.06,145.41L227.53,145.14"/><path d="M226.86,145.53L227.06,145.41L226.94,145.48"/><path d="M226.62,140.80L226.58,140.75L226.49,140.68L226.41,140.65L226.33,140.65L226.26,140.69L226.22,140.76L226.21,140.85L226.21,141.06L226.22,141.17L226.26,141.28L226.33,141.39L226.41,141.49L226.49,141.55L226.58,141.59L226.66,141.58L226.72,141.55L226.76,141.48L226.78,141.39L226.78,141.18L226.76,141.07L226.75,141.03L226.73,141.02L226.68,140.97L226.65,140.93L226.63,140.88L226.63,140.86"/><path d="M227.06,142.19L227.03,142.24"/><path d="M226.66,140.84L226.72,140.95L226.75,141.03"/><path d="M226.94,140.14L226.97,140.16L227.10,140.19L227.19,140.19L227.19,140.18L227.14,140.13L227.04,140.07L226.99,140.06L226.93,140.06"/><path d="M226.80,140.04L226.81,140.05L226.79,139.99"/><path d="M226.87,140.11L226.86,140.10"/><path d="M226.81,140.05L226.86,140.10"/><path d="M227.75,140.58L227.81,140.56L227.89,140.56L227.95,140.60L227.99,140.66L228.01,140.76L228.01,140.97L227.99,141.08L227.95,141.19L227.89,141.30L227.81,141.39L227.72,141.46L227.64,141.49L227.56,141.49L227.50,141.46L227.45,141.39L227.44,141.29L227.44,141.08L227.45,140.97L227.47,140.92L227.55,140.99L227.57,141.01L227.59,141.05L227.59,141.05L227.65,141.02L227.58,141.07L227.59,141.05"/><path d="M227.89,140.56L227.95,140.60"/><path d="M227.58,141.02L227.58,141.06"/><path d="M227.58,141.06L227.58,141.05"/><path d="M227.58,141.07L227.56,141.11L227.54,141.17L227.50,141.23L227.46,141.26L227.44,141.27"/><path d="M227.59,141.05L227.65,141.02L227.70,140.97L227.73,140.93L227.75,140.88L227.75,140.86"/><path d="M228.20,141.28L228.20,141.30"/><path d="M227.58,140.72L227.56,140.75L227.50,140.86L227.47,140.92"/><path d="M227.19,140.19L227.24,140.19L227.38,140.17L227.44,140.14"/><path d="M227.45,140.06L227.42,140.06L227.34,140.07L227.24,140.13L227.19,140.18"/><path d="M227.50,140.12L227.49,140.12"/><path d="M227.56,140.06L227.56,140.06L227.59,140.01L227.59,140.01"/><path d="M228.20,140.13L228.20,140.19"/><path d="M227.56,140.06L227.52,140.09"/><path d="M228.96,143.35L229.04,143.35"/><path d="M229.24,143.22L229.24,143.21L229.24,143.22"/><path d="M229.23,143.24L229.24,143.21L229.24,142.88"/><path d="M229.24,143.19L229.24,142.43L229.24,143.21"/><path d="M229.24,142.43L229.24,142.07L229.24,142.43"/><path d="M229.23,143.22L229.21,143.25"/><path d="M229.16,143.28L229.22,143.25"/><path d="M229.24,142.07L229.24,142.05"/><path d="M228.35,141.54L228.32,141.52"/><path d="M229.42,142.69L229.44,142.60L229.48,142.53L229.54,142.49L229.62,142.49L229.71,142.53L229.79,142.59L229.83,142.64L229.83,142.67L229.84,142.72L229.86,142.77L229.90,142.82L229.94,142.86L229.96,142.87L229.98,142.91L229.99,143.02L229.99,143.23L229.98,143.32L229.94,143.39L229.87,143.43L229.79,143.43L229.71,143.40L229.62,143.33L229.54,143.24L229.48,143.13L229.44,143.01L229.42,142.90L229.42,142.69"/><path d="M229.96,142.87L229.94,142.79L229.87,142.69L229.84,142.70"/><path d="M229.87,142.69L229.83,142.64"/><path d="M230.12,141.95L230.13,141.95L230.11,141.89"/><path d="M230.18,142.01L230.19,142.01L230.13,141.95"/><path d="M230.18,142.00L230.21,141.98L230.25,141.96L230.31,141.96L230.36,141.98L230.40,141.99L230.49,141.95L230.61,141.92L230.66,141.92"/><path d="M230.19,142.01L230.29,142.06L230.40,142.09L230.40,141.99"/><path d="M230.68,142.78L230.82,142.84L230.88,142.85L230.91,142.83L230.91,142.81L230.91,142.89L230.88,143.02L230.86,143.07L230.83,143.12L230.78,143.16L230.75,143.18L230.72,143.16L230.66,143.14L230.65,142.93L230.67,142.82L230.71,142.70L230.77,142.59L230.80,142.56"/><path d="M230.66,143.14L230.67,143.23L230.71,143.30L230.77,143.34L230.85,143.34L230.94,143.30L231.03,143.24L231.10,143.14L231.17,143.04L231.21,142.92L231.22,142.81L231.22,142.60L231.21,142.51L231.17,142.44L231.15,142.43L231.17,142.44"/><path d="M230.91,142.81L230.94,142.77L230.96,142.72L230.97,142.70"/><path d="M230.66,143.20L230.69,143.20L230.66,143.19"/><path d="M230.91,142.83L230.91,142.89"/><path d="M230.91,142.87L230.91,142.88"/><path d="M230.75,143.18L230.73,143.19L230.72,143.19L230.69,143.20"/><path d="M231.15,142.43L231.11,142.41L231.15,142.43"/><path d="M231.11,142.41L231.10,142.40L231.03,142.40L230.97,142.42"/><path d="M230.82,142.02L230.81,142.03"/><path d="M230.88,141.97L230.88,141.97L230.91,141.91"/><path d="M230.91,141.92L230.91,141.91"/><path d="M230.88,141.97L230.83,142.01"/><path d="M230.47,141.96L230.40,142.00"/><path d="M230.40,142.09L230.42,142.09L230.56,142.09L230.65,142.08"/></g><g style="stroke:#000000;stroke-width:0.529"><path d="M222.39,143.71L222.33,145.72L222.32,145.77L222.30,145.84L222.26,145.90L222.22,145.95L222.18,145.98L221.88,146.15L221.85,146.18L221.83,146.20L221.82,146.24L221.81,146.26L221.81,148.11L221.82,148.13L221.82,148.16L221.84,148.18L221.86,148.20L221.88,148.22L222.97,148.85L222.97,148.94"/><path d="M222.97,148.85L222.97,149.16L222.97,149.19L222.99,149.22L223.00,149.25L223.03,149.27L225.01,150.41"/><path d="M222.97,149.16L222.97,149.16"/><path d="M222.37,144.50L222.39,143.70"/><path d="M222.39,143.70L222.39,143.67L222.41,143.64L222.42,143.61L222.45,143.59L225.87,141.63L225.91,141.60L225.96,141.55L225.99,141.48L226.02,141.42L226.02,141.37L226.02,140.77"/><path d="M226.02,140.20L226.02,141.37L226.02,140.66"/><path d="M228.20,140.20L228.20,140.10L228.19,140.08L228.18,140.05L228.17,140.03L228.15,140.01L228.13,139.99L227.25,139.49L227.23,139.48L227.19,139.48L227.16,139.48L227.13,139.49L226.09,140.09L226.06,140.11L226.04,140.14L226.03,140.17L226.02,140.20"/><path d="M228.20,140.19L228.20,141.28L228.20,141.32L228.22,141.39L228.26,141.46L228.31,141.51L228.35,141.54L229.24,142.05L229.24,142.01L229.26,141.98L229.27,141.95L229.30,141.93L230.34,141.33L230.38,141.32L230.44,141.32L230.47,141.33L231.35,141.84L231.37,141.85L231.38,141.87L231.40,141.90L231.41,141.92L231.41,141.95L231.41,149.14L231.41,149.16L231.41,149.19L231.40,149.21L231.38,149.24L231.37,149.26L231.32,149.29L227.25,151.62L227.23,151.63L227.19,151.63L227.16,151.63L227.13,151.62L226.44,151.23"/><path d="M226.63,140.86L226.62,140.82L226.62,140.80L226.66,140.84L226.65,140.85L226.63,140.86"/><path d="M226.87,140.11L226.94,140.14L226.93,140.06L226.89,140.07L226.86,140.10L226.87,140.11"/><path d="M227.72,140.59L227.64,140.66L227.58,140.72L227.64,140.78L227.72,140.85L227.75,140.86L227.76,140.82L227.76,140.61L227.75,140.58L227.72,140.59"/><path d="M227.52,140.09L227.49,140.12L227.44,140.14L227.45,140.06L227.48,140.07L227.52,140.09"/><path d="M230.94,142.69L230.97,142.70L230.97,142.67L230.97,142.46L230.97,142.42L230.94,142.43L230.85,142.50L230.80,142.56L230.85,142.62L230.94,142.69"/><path d="M230.65,141.99L230.66,141.92L230.68,141.92L230.73,141.94L230.79,141.97L230.83,142.01L230.81,142.03L230.70,142.07L230.65,142.08L230.65,141.99"/></g></g><g id="Actor_5.1"><g style="stroke:#000000;stroke-width:0.176"><path d="M151.81,189.41L151.76,189.45L151.73,189.51L151.73,189.59L151.74,189.68L151.78,189.77L151.84,189.86L151.91,189.92L151.95,189.95L151.98,189.97L152.05,189.98L152.11,189.96L152.15,189.91L152.17,189.84L152.16,189.75L152.13,189.66L152.08,189.57L152.02,189.49L151.97,189.45L151.95,189.44L151.88,189.41L151.81,189.41"/><path d="M151.44,189.00L151.90,189.26L152.13,189.35L152.33,189.35L152.49,189.25L152.59,189.08L152.63,188.84L152.59,188.56L152.53,188.40L152.53,188.39"/><path d="M152.05,187.50L151.98,187.48L151.91,187.44L151.84,187.38L151.78,187.29L151.74,187.20L151.73,187.11L151.73,187.08L151.73,187.02L151.76,186.96L151.81,186.93L151.88,186.93L151.95,186.95L152.02,187.01L152.08,187.09L152.13,187.18L152.16,187.27L152.17,187.36L152.16,187.38L152.15,187.43L152.11,187.48L152.05,187.50"/><path d="M154.60,188.99L154.60,188.14L153.74,187.65L153.74,188.19L153.71,188.43L153.60,188.60L153.44,188.70L153.24,188.70L153.02,188.61L152.80,188.44L152.59,188.21L152.43,187.93L152.33,187.64L152.30,187.36L152.30,186.82L151.44,186.33"/><path d="M153.39,189.86L153.24,189.69L153.02,189.52L152.80,189.43L152.59,189.43L152.43,189.53L152.33,189.70L152.30,189.94L152.30,190.48"/><path d="M152.51,188.33L152.53,188.40"/><path d="M152.30,186.82L153.37,186.21L154.81,187.04L153.74,187.65"/><path d="M153.90,190.67L153.87,190.73L153.87,190.82L153.89,190.91L153.93,191.00L153.98,191.09L154.05,191.15L154.13,191.19L154.19,191.21L154.25,191.19L154.29,191.14L154.31,191.07L154.31,191.05L154.30,190.98L154.27,190.89L154.23,190.80L154.16,190.72L154.09,190.66L154.04,190.65L154.02,190.64L153.95,190.64L153.90,190.67"/><path d="M154.60,191.80L154.60,190.81L154.13,190.54L154.10,190.52"/><path d="M154.48,189.07L154.13,188.87L153.91,188.78L153.71,188.78L153.55,188.88L153.44,189.05L153.41,189.29L153.44,189.57L153.51,189.76"/><path d="M153.94,188.17L153.90,188.19L153.87,188.25L153.87,188.33L153.89,188.43L153.93,188.52L153.98,188.60L154.05,188.67L154.13,188.71L154.19,188.73L154.25,188.71L154.29,188.66L154.31,188.59L154.30,188.50L154.27,188.41L154.23,188.31L154.16,188.24L154.09,188.18L154.02,188.16L153.95,188.16L153.94,188.17"/><path d="M153.37,186.21L153.37,186.75L153.40,187.03L153.46,187.18"/><path d="M154.14,186.76L154.25,186.85L154.32,186.94"/><path d="M154.14,186.76L154.05,186.72L153.95,186.71"/><path d="M153.95,186.74L154.00,186.71"/><path d="M154.60,190.81L155.67,190.20L155.20,189.93L155.07,189.83"/><path d="M154.60,188.14L155.88,187.40"/><path d="M154.45,187.24L154.42,187.13L154.38,187.06"/><path d="M155.19,187.01L154.87,186.82L155.19,186.64"/><path d="M155.67,190.20L155.67,189.40"/></g><g style="stroke:#000000;stroke-width:0.529"><path d="M153.35,189.88L152.30,190.48L151.44,189.99L151.44,189.00L152.50,188.39"/><path d="M152.51,188.33L152.49,188.27L152.33,187.99L152.13,187.76L151.90,187.59L151.44,187.32L151.44,186.33L152.72,185.59L153.74,186.18L154.06,185.99L155.19,186.64L155.19,187.01L155.88,187.40L155.88,188.07"/><path d="M156.20,189.01L156.20,189.70L155.88,189.89L155.88,191.06L154.60,191.80L153.74,191.31L153.74,190.78"/><path d="M154.38,187.06L154.35,186.98L154.32,186.94"/></g></g><g><g><path style="stroke:#000000;stroke-width:0.125;stroke-dasharray:2.1 1.4 0.7 1.4" d="M200.01,187.88L194.29,191.16"/><path style="stroke:#000000;stroke-width:0.125;stroke-dasharray:2.1 1.4 0.7 1.4" d="M200.47,187.61L212.90,180.48"/><path style="stroke:#000000;stroke-width:0.125;stroke-dasharray:2.1 1.4 0.7 1.4" d="M214.72,179.44L229.65,170.87"/><path style="stroke:#000000;stroke-width:0.125;stroke-dasharray:2.1 1.4 0.7 1.4" d="M231.98,169.54L233.38,168.73"/></g></g><g><g><path style="stroke:#000000;stroke-width:0.125;stroke-dasharray:2.1 1.4 0.7 1.4" d="M200.00,154.87L194.28,158.15"/><path style="stroke:#000000;stroke-width:0.125;stroke-dasharray:2.1 1.4 0.7 1.4" d="M200.46,154.61L212.90,147.48"/><path style="stroke:#000000;stroke-width:0.125;stroke-dasharray:2.1 1.4 0.7 1.4" d="M214.93,146.31L229.65,137.87"/><path style="stroke:#000000;stroke-width:0.125;stroke-dasharray:2.1 1.4 0.7 1.4" d="M231.78,136.64L231.18,136.99"/></g></g><g><g><path style="stroke:#000000;stroke-width:0.125;stroke-dasharray:2.1 1.4 0.7 1.4" d="M158.75,185.78L174.44,176.78"/><path style="stroke:#000000;stroke-width:0.125;stroke-dasharray:2.1 1.4 0.7 1.4" d="M182.41,172.21L176.13,175.81"/><path style="stroke:#000000;stroke-width:0.125;stroke-dasharray:2.1 1.4 0.7 1.4" d="M224.42,148.11L184.91,170.77"/></g></g><g><g><path style="stroke:#000000;stroke-width:0.125;stroke-dasharray:2.1 1.4 0.7 1.4" d="M172.28,178.04L172.78,177.75"/><path style="stroke:#000000;stroke-width:0.125;stroke-dasharray:2.1 1.4 0.7 1.4" d="M173.28,177.46L174.45,176.79"/><path style="stroke:#000000;stroke-width:0.125;stroke-dasharray:2.1 1.4 0.7 1.4" d="M176.13,175.82L180.38,173.39"/></g></g><g><g><path style="stroke:#000000;stroke-width:0.125;stroke-dasharray:2.1 1.4 0.7 1.4" d="M174.42,176.78L174.92,176.49"/><path style="stroke:#000000;stroke-width:0.125;stroke-dasharray:2.1 1.4 0.7 1.4" d="M182.52,172.13L176.13,175.80"/></g></g><g id="PMI4.0"><g><path style="stroke:#000000;stroke-width:0.125" d="M253.21,198.34L230.05,162.73"/></g><g><path style="fill:#000000" d="M230.80,162.73L230.80,162.66L230.79,162.58L230.77,162.51L230.74,162.44L230.71,162.38L230.67,162.31L230.63,162.25L230.58,162.20L230.53,162.15L230.47,162.11L230.40,162.07L230.34,162.04L230.27,162.01L230.20,161.99L230.12,161.98L230.05,161.98L229.98,161.98L229.90,161.99L229.83,162.01L229.76,162.04L229.70,162.07L229.63,162.11L229.57,162.15L229.52,162.20L229.47,162.25L229.43,162.31L229.39,162.38L229.36,162.44L229.33,162.51L229.31,162.58L229.30,162.66L229.30,162.73L229.30,162.80L229.31,162.88L229.33,162.95L229.36,163.02L229.39,163.08L229.43,163.15L229.47,163.21L229.52,163.26L229.57,163.31L229.63,163.35L229.70,163.39L229.76,163.42L229.83,163.45L229.90,163.47L229.98,163.48L230.05,163.48L230.12,163.48L230.20,163.47L230.27,163.45L230.34,163.42L230.40,163.39L230.47,163.35L230.53,163.31L230.58,163.26L230.63,163.21L230.67,163.15L230.71,163.08L230.74,163.02L230.77,162.95L230.79,162.88L230.80,162.80z"/></g><g><text xml:space="preserve" fill="#000000" stroke-width="0" x="247.44" y="203.77" font-size="3.79" opacity="1.00" font-family="Arial">ELA0220</text></g></g><g id="PMI7.0"><g><path style="stroke:#000000;stroke-width:0.125" d="M219.52,198.34L200.43,188.99"/></g><g><path style="fill:#000000" d="M201.18,188.99L201.17,188.92L201.16,188.84L201.15,188.77L201.12,188.70L201.09,188.64L201.05,188.57L201.01,188.51L200.96,188.46L200.90,188.41L200.85,188.37L200.78,188.33L200.72,188.30L200.65,188.27L200.57,188.25L200.50,188.24L200.43,188.24L200.36,188.24L200.28,188.25L200.21,188.27L200.14,188.30L200.07,188.33L200.01,188.37L199.95,188.41L199.90,188.46L199.85,188.51L199.80,188.57L199.77,188.64L199.74,188.70L199.71,188.77L199.69,188.84L199.68,188.92L199.68,188.99L199.68,189.06L199.69,189.14L199.71,189.21L199.74,189.28L199.77,189.34L199.80,189.41L199.85,189.47L199.90,189.52L199.95,189.57L200.01,189.61L200.07,189.65L200.14,189.68L200.21,189.71L200.28,189.73L200.36,189.74L200.43,189.74L200.50,189.74L200.57,189.73L200.65,189.71L200.72,189.68L200.78,189.65L200.85,189.61L200.90,189.57L200.96,189.52L201.01,189.47L201.05,189.41L201.09,189.34L201.12,189.28L201.15,189.21L201.16,189.14L201.17,189.06z"/></g><g><text xml:space="preserve" fill="#000000" stroke-width="0" x="218.92" y="203.77" font-size="3.78" opacity="1.00" font-family="Arial">ND0593</text></g></g><g id="PMI6.0"><g><path style="stroke:#000000;stroke-width:0.125" d="M195.08,198.34L192.22,192.68"/></g><g><path style="fill:#000000" d="M192.97,192.68L192.97,192.61L192.96,192.53L192.94,192.46L192.92,192.39L192.88,192.33L192.85,192.26L192.80,192.20L192.75,192.15L192.70,192.10L192.64,192.06L192.58,192.02L192.51,191.99L192.44,191.96L192.37,191.94L192.30,191.93L192.22,191.93L192.15,191.93L192.08,191.94L192.01,191.96L191.94,191.99L191.87,192.02L191.81,192.06L191.75,192.10L191.69,192.15L191.64,192.20L191.60,192.26L191.56,192.33L191.53,192.39L191.51,192.46L191.49,192.53L191.48,192.61L191.47,192.68L191.48,192.75L191.49,192.83L191.51,192.90L191.53,192.97L191.56,193.03L191.60,193.10L191.64,193.16L191.69,193.21L191.75,193.26L191.81,193.30L191.87,193.34L191.94,193.37L192.01,193.40L192.08,193.42L192.15,193.43L192.22,193.43L192.30,193.43L192.37,193.42L192.44,193.40L192.51,193.37L192.58,193.34L192.64,193.30L192.70,193.26L192.75,193.21L192.80,193.16L192.85,193.10L192.88,193.03L192.92,192.97L192.94,192.90L192.96,192.83L192.97,192.75z"/></g><g><text xml:space="preserve" fill="#000000" stroke-width="0" x="189.71" y="203.77" font-size="3.78" opacity="1.00" font-family="Arial">ND1337</text></g></g><g id="PMI8.0"><g><path style="stroke:#000000;stroke-width:0.125" d="M169.03,198.34L184.60,171.23"/></g><g><path style="fill:#000000" d="M185.35,171.23L185.34,171.16L185.33,171.08L185.31,171.01L185.29,170.94L185.26,170.88L185.22,170.81L185.18,170.75L185.13,170.70L185.07,170.65L185.01,170.61L184.95,170.57L184.88,170.54L184.81,170.51L184.74,170.49L184.67,170.48L184.60,170.48L184.52,170.48L184.45,170.49L184.38,170.51L184.31,170.54L184.24,170.57L184.18,170.61L184.12,170.65L184.07,170.70L184.02,170.75L183.97,170.81L183.93,170.88L183.90,170.94L183.88,171.01L183.86,171.08L183.85,171.16L183.85,171.23L183.85,171.30L183.86,171.38L183.88,171.45L183.90,171.52L183.93,171.58L183.97,171.65L184.02,171.70L184.07,171.76L184.12,171.81L184.18,171.85L184.24,171.89L184.31,171.92L184.38,171.95L184.45,171.96L184.52,171.98L184.60,171.98L184.67,171.98L184.74,171.96L184.81,171.95L184.88,171.92L184.95,171.89L185.01,171.85L185.07,171.81L185.13,171.76L185.18,171.70L185.22,171.65L185.26,171.58L185.29,171.52L185.31,171.45L185.33,171.38L185.34,171.30z"/></g><g><text xml:space="preserve" fill="#000000" stroke-width="0" x="160.32" y="203.77" font-size="3.78" opacity="1.00" font-family="Arial">ND0015</text></g></g><g id="PMI5.0"><g><path style="stroke:#000000;stroke-width:0.125" d="M142.36,198.34L156.63,188.12"/></g><g><path style="fill:#000000" d="M157.38,188.12L157.38,188.04L157.37,187.97L157.35,187.90L157.33,187.83L157.30,187.76L157.26,187.70L157.21,187.64L157.16,187.59L157.11,187.54L157.05,187.49L156.99,187.46L156.92,187.42L156.85,187.40L156.78,187.38L156.71,187.37L156.63,187.37L156.56,187.37L156.49,187.38L156.42,187.40L156.35,187.42L156.28,187.46L156.22,187.49L156.16,187.54L156.10,187.59L156.05,187.64L156.01,187.70L155.97,187.76L155.94,187.83L155.92,187.90L155.90,187.97L155.89,188.04L155.88,188.12L155.89,188.19L155.90,188.26L155.92,188.34L155.94,188.40L155.97,188.47L156.01,188.53L156.05,188.59L156.10,188.65L156.16,188.70L156.22,188.74L156.28,188.78L156.35,188.81L156.42,188.84L156.49,188.85L156.56,188.86L156.63,188.87L156.71,188.86L156.78,188.85L156.85,188.84L156.92,188.81L156.99,188.78L157.05,188.74L157.11,188.70L157.16,188.65L157.21,188.59L157.26,188.53L157.30,188.47L157.33,188.40L157.35,188.34L157.37,188.26L157.38,188.19z"/></g><g><text xml:space="preserve" fill="#000000" stroke-width="0" x="130.24" y="203.77" font-size="3.79" opacity="1.00" font-family="Arial">ELA0221</text></g></g><g/><g><g/><g><text xml:space="preserve" fill="#000000" stroke-width="0" x="5.96" y="10.80" font-size="4.53" opacity="1.00" font-family="Arial" font-weight="bold">BPA24590</text></g></g><g id="paperID" visibility="hidden" opacity="0.00" transform="scale(0.000100)"><path style="stroke:#000000;stroke-width:0.500;fill:#e6e6e6;fill-rule:evenodd" d="M-2000.00,-2000.00L2297.00,-2000.00L2297.00,2210.00L-2000.00,2210.00zM0.00,0.00L297.00,0.00L297.00,210.00L0.00,210.00z"/><path style="fill:#000000;fill-opacity:0.118" d="M3.00,210.00L297.00,210.00L297.00,3.00L300.00,3.00L300.00,213.00L3.00,213.00z"/></g></g></svg>
