<?xml version="1.0" encoding="UTF-8" standalone="no"?>
<svg xmlns="http://www.w3.org/2000/svg" xmlns:xlink="http://www.w3.org/1999/xlink" width="297.000mm" height="210.000mm" viewBox="0.000000 0.000000 297.000000 210.000000" stroke-linejoin="round" stroke-linecap="round" fill="none" fill-rule="evenodd"><desc>Composer Export</desc><script type="text/ecmascript"><![CDATA[
if(typeof(top) != "undefined")
{
	top.ShowPaper = ShowPaper;
}
function ShowHotSpot(evt,hotspotid)
{
	var svgDocument = evt.target.ownerDocument;
	var strId = "hotspot."+hotspotid;
	var hotspot = svgDocument.getElementById(strId);
	if(hotspot)
		hotspot.setAttribute("opacity",".5");
}
function HideHotSpot(evt,hotspotid)
{
	var svgDocument = evt.target.ownerDocument;
	var strId = "hotspot."+hotspotid;
	var hotspot = svgDocument.getElementById(strId);
	if(hotspot)
		hotspot.setAttribute("opacity","0");

	var toolTip = svgDocument.getElementById('ToolTip');
	if(toolTip)
		toolTip.setAttribute("visibility","hidden");
}
function ShowToolTip(evt,hotspotid,strTooltip)
{
	if(strTooltip=="")
	return;

	// change text
	var svgDocument = evt.target.ownerDocument;
	var tiptext = svgDocument.getElementById('ToolTipText');
	if( !tiptext )
	return;
	tiptext.firstChild.nodeValue = " " + strTooltip + "  " ;

	// show tooltip before, else some refresh issue

	var toolTip = svgDocument.getElementById('ToolTip');
	if(!toolTip)
	return;

	toolTip.setAttribute("visibility","visible");
	toolTip.setAttribute("opacity",".95");

	// move tooltip
	// get viewbox

	var root = svgDocument.documentElement;
	var vbox = (root.getAttribute("viewBox")).split(' ');
	var x0 = parseFloat(vbox[0]);
	var y0 = parseFloat(vbox[1]);
	var vboxW = parseFloat(vbox[2]);
	var vboxH = parseFloat(vbox[3]);

	// get default width of svg

	var strW = root.getAttribute("width");
	var svgW = parseFloat(strW);
	if(strW.indexOf('mm') != -1)
	svgW *= 3.779;

	var strH = root.getAttribute("height");
	var svgH = parseFloat(strH);
	if(strH.indexOf('mm') != -1)
	svgH *= 3.779;  	// 96 dpi  -> 96/25.4 = 3.779

	// update the viewbox / width / height if svg is embedded in html with zoom fit all
	var realx0 = x0;
	var realy0 = y0;
	var realvboxW = vboxW;
	var realvboxH = vboxH;
	var realsvgW = svgW;
	var realsvgH = svgH;

	if ((typeof(top) == "undefined") || (typeof(top.svgctl1) != "undefined")) // embedded in html
	{
		// get window size in pxl

		svgW = window.innerWidth;
		svgH = window.innerHeight;

		// calculate real viewbox

		realsvgW = svgW;
		realsvgH = svgH;
		if((svgW / svgH) > (vboxW / vboxH))
		{
			realvboxW = (vboxH * svgW) / svgH;
			realvboxH = vboxH;
			realx0 = x0 - (realvboxW - vboxW)/2 ;
		}
		else
		{
			realvboxH = (vboxW * svgH) / svgW;
			realvboxW = vboxW;
			realy0 = y0 - (realvboxH - vboxH)/2 ;
		}
	}

	// get user zoom/pan

	var newScale = root.currentScale;
	var translation = root.currentTranslate;

	// transform pxl to user unit

	var xPos = (((evt.clientX+10- translation.x)/newScale) * realvboxW)/realsvgW  + realx0 ;
	var yPos = (((evt.clientY+5- translation.y)/newScale) * realvboxH)/ realsvgH  + realy0 ;
	var scaleForWidth = ( (1 / newScale) * realvboxH) / realsvgH;

	// move tooltip

	toolTip.setAttribute("transform", "translate(" + xPos + "," + yPos + ")" );

	// resize tooltip

	var fontsize = 12;
	tiptext.setAttribute("font-size",fontsize*scaleForWidth);
	tiptext.setAttribute("y", fontsize*scaleForWidth);
	var tipBG = svgDocument.getElementById('ToolTipBG');
	var outline = tiptext.getBBox();
	if(tipBG)
	{
		tipBG.setAttribute("stroke-width", 1*scaleForWidth);
		tipBG.setAttribute("width", Number(outline.width) );
		tipBG.setAttribute("height", Number(outline.height) + fontsize*.5*scaleForWidth );
	}
	var ToolTipShadow = svgDocument.getElementById('ToolTipShadow');
	if(ToolTipShadow)
	{
		ToolTipShadow.setAttribute("width", Number(outline.width) );
		ToolTipShadow.setAttribute("height", Number(outline.height) + fontsize*.5*scaleForWidth );
		ToolTipShadow.setAttribute("x", 3*scaleForWidth);
		ToolTipShadow.setAttribute("y", 3*scaleForWidth);
	}
}
function ShowPaper()
{
  var svgDocument = getDocument();
  var paper = svgDocument.getElementById("paperID");
  if(paper)
  {
    paper.setAttribute("transform","scale(1)");
    paper.setAttribute("opacity","1");
    paper.setAttribute("visibility","visible");
  }
  var svg = svgDocument.getRootElement();
  if(svg)
  {
    svg.setAttribute("width","307.000mm");
    svg.setAttribute("height","220.000mm");
    svg.setAttribute("viewBox","-5.000000 -5.000000 307.000000 220.000000");
  }
}
]]></script><defs/><g><path style="fill:#000000;fill-opacity:0.098;fill-rule:evenodd" d="M34.09,28.37L35.58,29.26L37.04,30.91L38.12,33.12L38.49,35.20L38.11,35.16L32.64,32.02L31.72,31.85L28.71,31.89L28.71,31.68L30.69,31.24L31.79,31.41L32.27,31.55L31.79,31.41L30.69,31.24L30.60,31.12L29.83,31.12L27.82,31.47L25.82,32.39L23.26,34.04L20.87,36.39L18.95,38.86L17.41,41.34L16.01,44.50L15.09,47.79L14.66,51.03L14.92,53.22L15.30,54.70L15.48,54.73L15.28,53.03L15.28,49.62L15.48,48.98L15.65,49.16L15.65,52.48L15.82,54.14L16.20,54.85L30.10,62.88L32.66,64.22L32.45,62.17L32.45,59.85L32.62,58.56L33.53,55.08L33.79,54.80L33.91,55.60L34.58,55.59L35.02,55.11L35.03,54.28L34.84,54.10L34.58,54.10L33.79,54.80L34.04,53.95L35.01,51.81L35.67,50.65L35.80,50.59L35.68,51.82L36.41,51.75L36.85,51.09L36.83,50.48L36.49,50.29L35.80,50.59L36.39,49.36L38.50,46.71L40.98,44.27L43.53,42.62L46.27,41.52L47.60,41.33L49.63,41.70L50.90,42.43L52.18,43.90L53.09,46.09L53.46,48.65L53.27,51.26L52.72,53.82L51.99,56.01L50.55,58.96L50.19,58.30L49.55,58.31L49.24,58.74L49.26,59.81L49.56,59.82L50.19,59.43L50.19,59.64L49.62,60.58L48.16,62.59L47.68,63.02L47.97,61.96L47.61,61.59L47.37,61.59L47.07,61.87L46.68,62.59L46.68,63.08L47.56,63.09L47.68,63.02L47.62,63.33L47.08,63.88L45.08,65.72L44.57,65.95L45.07,65.15L45.08,64.52L44.88,64.32L44.44,64.33L43.95,64.95L43.89,65.88L44.57,65.95L44.51,66.06L43.59,66.78L40.80,68.20L38.97,68.56L37.75,68.56L36.46,68.39L23.87,61.23L21.07,61.99L18.19,61.99L16.01,61.25L13.11,59.41L12.01,58.50L10.70,56.52L10.49,55.55L12.75,56.73L12.53,55.78L12.36,54.13L12.36,50.90L12.54,49.07L13.45,45.42L15.04,41.52L17.03,38.04L18.95,35.39L21.77,32.37L23.06,31.28L25.27,29.84L27.33,28.79L28.92,28.19L31.37,27.84zM48.74,47.15L49.07,47.77L49.24,47.57L49.50,47.85L49.64,48.34L49.61,47.94L49.50,47.85L49.79,47.70L50.36,48.27L50.53,49.75L50.49,52.16L50.71,52.33L50.73,52.71L50.12,54.87L48.70,58.20L47.97,59.30L46.71,60.96L45.71,62.15L43.59,63.87L41.53,64.92L38.66,64.91L37.98,64.66L38.41,64.35L39.41,64.18L38.21,64.15L37.98,64.66L37.37,64.54L37.36,64.17L36.48,63.79L36.24,63.44L38.42,62.90L39.78,62.24L41.51,61.06L43.59,58.94L45.60,56.01L46.87,52.90L47.43,50.90L47.61,48.10L47.36,46.45L47.59,46.43zM49.64,48.34L49.50,47.85L49.61,47.94zM25.32,54.31L25.50,54.90L25.71,54.67L26.43,55.39L24.24,56.74L23.64,56.93L23.49,56.52L23.48,54.53L23.97,54.12L24.98,54.12zM48.52,54.38L48.47,53.98L48.58,53.89zM22.21,54.72L22.71,53.75L22.76,56.14L22.97,57.29L22.79,57.26L22.40,56.51L22.22,55.78zM46.39,58.61L46.16,58.96L46.16,58.56L46.36,58.51zM83.04,60.89L82.44,61.25L82.21,62.48L82.16,61.78L81.96,61.58L81.53,61.60L81.41,62.23L81.03,62.61L80.97,62.95L81.21,63.11L81.60,62.99L82.21,62.48L82.13,62.77L82.13,63.43L82.50,63.66L82.85,63.69L83.51,62.33L84.08,61.78L84.51,61.78L84.73,61.94L85.05,62.70L84.57,63.20L84.51,62.34L83.91,62.35L83.38,63.32L83.34,63.69L84.08,63.62L84.57,63.20L84.52,63.52L83.60,64.23L83.41,64.98L83.05,64.93L81.77,64.18L80.32,63.62L79.14,63.61L78.78,63.99L77.74,63.98L76.76,64.16L76.36,64.85L76.29,63.98L75.69,63.99L75.56,64.42L75.19,64.79L75.12,65.33L75.86,65.26L76.36,64.85L76.30,65.16L75.86,65.62L75.01,65.84L74.40,65.62L73.73,66.07L73.74,67.35L72.94,68.37L71.68,68.37L71.15,69.16L71.18,69.63L71.37,69.83L71.36,70.44L71.06,71.06L71.01,70.18L70.82,69.98L70.56,69.98L69.83,71.28L70.05,71.51L70.55,71.49L71.06,71.06L71.00,71.37L70.40,71.86L69.47,72.03L68.99,72.99L68.07,72.56L67.45,72.56L66.97,73.01L66.95,72.65L67.89,70.59L68.07,70.39L68.26,70.93L69.35,71.53L69.81,70.36L70.38,69.65L70.83,69.37L69.71,68.72L69.29,68.73L68.97,68.99L68.98,68.65L70.57,66.54L70.62,67.45L71.73,68.06L72.37,66.71L72.95,66.18L73.37,66.01L72.47,65.44L71.64,65.27L73.75,63.27L73.54,63.86L73.50,64.78L74.28,65.30L74.63,65.33L75.11,64.15L76.10,63.26L74.75,62.52L76.29,61.50L77.01,61.23L76.46,62.40L76.47,63.07L77.58,63.67L78.22,62.33L79.04,61.60L78.03,60.92L78.03,60.72L80.30,60.32L80.33,60.40L79.87,60.70L79.33,61.60L79.58,61.97L79.70,62.77L80.50,63.13L80.85,62.04L81.54,61.26L81.78,61.10L81.79,60.91L81.33,60.52L82.33,60.51zM45.11,60.25L44.50,60.95L44.50,60.61L45.08,60.17zM42.81,62.52L42.42,62.52L42.62,62.32L42.86,62.32zM86.54,63.79L86.53,64.79L86.16,65.52L85.74,65.83L84.65,65.82L84.47,65.65L84.66,65.51L85.25,64.06L85.91,63.61L86.35,63.59zM38.41,64.35L37.98,64.66L38.21,64.15L39.41,64.18zM87.45,66.52L87.43,67.35L87.23,66.91L86.50,66.92L86.45,66.56L86.82,66.34L87.26,66.33zM69.55,73.47L69.54,74.66L69.19,75.22L68.20,75.87L67.88,76.66L67.53,76.62L67.16,76.40L66.54,76.40L65.68,77.38L65.68,76.83L66.42,74.02L66.61,74.77L67.17,75.13L67.70,75.21L68.01,74.22L68.81,73.37L69.36,73.27zM68.64,77.30L68.63,78.31L68.32,78.73L68.42,77.66L67.83,77.69L67.70,78.11L67.25,78.61L67.38,79.12L67.82,79.15L68.32,78.73L68.08,79.22L67.89,80.14L67.53,80.09L67.16,79.87L66.54,79.87L65.81,80.61L65.51,81.60L65.50,78.24L65.71,78.58L66.26,78.97L66.72,78.99L67.43,77.48L68.01,77.12L68.45,77.11zM64.80,79.13L64.36,79.54L64.04,79.52L64.03,79.02L64.62,78.95zM62.24,81.32L65.72,83.22L65.70,82.06L66.43,82.46L66.73,82.45L67.43,80.95L68.01,80.59L68.45,80.58L68.64,80.78L68.80,81.53L79.02,87.38L79.34,87.97L79.76,88.11L260.25,191.67L260.58,191.75L260.76,191.11L261.13,191.86L261.49,192.23L264.06,193.71L264.42,193.75L264.38,192.05L264.59,191.89L264.93,188.76L265.03,188.68L264.97,189.90L264.97,192.58L265.14,193.70L265.51,194.05L268.99,196.08L269.36,196.13L269.43,195.63L269.67,196.29L270.82,196.99L271.17,196.97L271.13,196.62L271.55,196.46L271.55,193.55L271.72,192.08L272.65,189.35L274.31,186.27L275.77,184.44L276.78,183.26L279.34,181.44L281.17,180.71L283.42,180.56L283.62,180.34L283.97,180.52L285.64,182.15L286.54,183.99L286.71,185.46L286.53,188.44L285.80,191.00L285.01,192.58L283.60,195.01L282.45,196.42L281.43,197.59L279.35,199.16L277.89,199.89L276.42,200.25L274.64,200.27L272.64,199.53L268.63,197.33L266.44,196.60L263.88,195.14L261.68,194.05L80.87,90.28L79.58,89.20L76.29,87.35L75.69,87.56L74.79,87.57L74.59,87.37L74.66,86.44L74.08,86.06L73.85,86.08L73.95,86.83L74.11,87.00L73.70,87.20L72.94,88.10L71.89,88.11L71.89,87.42L72.37,86.44L73.20,85.76L73.20,85.57L72.09,84.98L71.35,85.25L71.37,86.15L71.18,86.70L70.79,87.09L70.99,87.44L69.72,87.58L69.12,87.20L69.54,86.70L70.00,85.71L70.83,84.98L69.89,84.42L69.66,84.44L69.19,85.26L68.20,85.91L68.08,86.51L64.25,84.43L60.96,82.43L59.84,81.17L59.48,80.44L59.48,79.68zM48.89,88.53L48.65,88.53L48.65,88.28L48.89,88.28zM50.56,88.18L49.74,88.68L49.37,88.71L49.36,88.30L50.55,87.55zM279.26,177.43L279.23,177.67L278.88,177.61L277.94,177.06L276.85,176.69L274.58,176.86L273.33,177.43L272.71,177.54L273.87,176.88L276.60,176.33L277.59,176.32zM272.58,177.78L272.16,177.91L272.38,177.58L272.71,177.54zM271.84,178.35L271.48,178.34L271.85,177.96L272.16,177.91zM271.14,178.88L270.74,178.88L270.94,178.68L271.18,178.68zM281.95,179.48L281.71,179.42L281.98,179.27zM269.05,180.81L268.82,181.15L268.82,180.76L269.01,180.71zM266.60,184.61L266.60,184.05L266.92,183.62L267.00,183.63zM269.34,193.35L269.24,193.43L269.36,192.02zM269.24,194.17L269.13,194.08L269.13,193.52L269.24,193.43zM269.43,195.63L269.32,195.55L269.24,194.17L269.34,194.24zM26.26,30.38L26.25,31.00L25.63,32.03L24.77,32.04L24.77,30.79L25.26,30.20L25.88,30.00zM36.68,31.27L36.66,32.10L36.47,32.45L35.68,33.15L35.19,33.14L35.18,31.89L35.85,31.10L36.49,31.09zM47.98,42.22L47.62,43.24L47.19,43.56L46.89,43.54L46.69,43.35L46.68,42.86L47.08,42.13L47.44,41.88zM45.05,42.62L45.07,43.23L44.88,43.60L44.27,44.11L43.96,44.10L43.97,43.05L44.60,42.44zM50.36,42.82L50.38,43.22L49.76,44.10L49.20,44.16L49.26,43.05L49.74,42.60zM15.83,43.17L15.84,43.97L15.47,44.70L15.05,45.01L14.36,45.01L14.36,43.76L15.04,42.96L15.47,42.96zM42.16,44.43L42.15,44.87L41.52,45.73L40.98,45.79L40.80,45.34L41.17,44.46L41.52,44.24L41.96,44.23zM52.02,44.61L52.01,45.24L51.57,45.91L50.89,45.92L50.89,45.04L51.39,44.43L51.82,44.41zM45.45,46.06L45.79,46.82L46.35,47.17L46.51,48.10L46.51,50.72L46.33,51.81L45.73,53.77L44.33,56.56L42.79,58.68L41.05,60.23L38.96,61.61L37.33,61.99L36.47,61.98L35.36,61.81L35.19,60.70L35.19,58.02L35.36,56.73L36.29,54.01L37.56,51.44L39.32,49.00L41.34,47.01L42.81,46.09L44.16,45.38L44.71,45.37zM39.23,47.18L39.22,47.80L38.61,48.50L38.11,48.48L38.10,47.60L38.77,46.82zM52.93,47.35L52.92,48.17L52.48,48.65L51.80,48.66L51.80,47.97L52.18,47.24L52.74,47.15zM36.83,50.48L36.85,51.09L36.41,51.75L35.68,51.82L35.80,50.59L36.49,50.29zM52.93,50.82L52.92,51.64L52.48,52.12L51.80,52.13L51.80,51.44L52.18,50.71L52.74,50.62zM35.03,54.28L35.02,55.11L34.58,55.59L33.91,55.60L33.79,54.80L34.58,54.10L34.84,54.10zM50.89,55.09L51.38,54.48L52.00,54.48L52.00,55.30L51.57,55.96L50.89,55.97zM15.85,57.22L15.84,58.03L15.22,58.87L14.30,58.94L14.38,57.67L14.85,57.04L15.30,56.87zM34.12,58.13L34.11,58.76L33.67,59.43L32.99,59.44L32.99,58.56L33.48,57.94L33.92,57.93zM34.12,61.60L34.11,62.23L33.67,62.90L32.99,62.91L32.99,62.03L33.48,61.41L33.92,61.40zM82.16,61.78L82.21,62.48L81.60,62.99L81.21,63.11L80.97,62.95L81.03,62.61L81.41,62.23L81.53,61.60L81.96,61.58zM47.97,61.96L47.68,63.02L47.56,63.09L46.68,63.08L46.68,62.59L47.07,61.87L47.37,61.59L47.61,61.59zM79.23,62.32L79.22,63.15L78.77,63.63L78.30,63.64L78.31,62.97L78.78,62.13L79.04,62.13zM84.57,63.20L84.08,63.62L83.34,63.69L83.38,63.32L83.91,62.35L84.51,62.34zM35.03,64.33L35.02,65.16L34.58,65.63L33.91,65.65L33.92,64.79L34.39,64.15L34.84,64.14zM45.08,64.52L45.07,65.15L44.57,65.95L43.89,65.88L43.95,64.95L44.44,64.33L44.88,64.32zM76.36,64.85L75.86,65.26L75.12,65.33L75.19,64.79L75.56,64.42L75.69,63.99L76.29,63.98zM85.91,65.45L85.16,65.51L85.24,64.97L85.60,64.60L85.73,64.17L86.35,64.17zM42.15,66.36L41.95,67.16L41.34,67.67L41.04,67.65L40.85,67.46L40.83,66.97L41.23,66.25L41.53,65.98L41.76,65.98zM36.87,66.17L36.85,66.61L36.24,67.48L35.68,67.54L35.74,66.43L36.23,65.98L36.66,65.97zM73.38,66.70L73.38,67.53L72.93,68.01L72.45,68.03L72.46,67.35L72.95,66.54L73.19,66.51zM39.20,66.73L39.22,67.53L38.78,68.00L38.05,68.08L38.12,67.16L38.86,66.54zM71.01,70.18L71.06,71.06L70.55,71.49L70.05,71.51L69.83,71.28L70.56,69.98L70.82,69.98zM69.36,74.00L69.17,74.83L68.82,75.23L68.42,75.35L68.19,75.19L68.25,74.65L68.61,74.28L68.75,73.85L69.18,73.83zM67.38,79.12L67.25,78.61L67.70,78.11L67.83,77.69L68.42,77.66L68.32,78.73L67.82,79.15zM68.26,82.15L68.01,82.44L67.27,82.50L67.34,81.96L67.70,81.59L67.83,81.16L68.42,81.13zM69.00,83.15L68.01,84.27L67.70,85.25L67.17,85.17L66.61,84.81L66.60,83.58L66.90,83.16L67.88,82.85L68.43,82.79zM69.36,84.05L69.17,84.88L68.82,85.28L68.42,85.40L68.19,85.23L68.25,84.70L68.61,84.33L68.75,83.89L69.18,83.87zM70.99,85.72L71.00,86.53L70.57,87.00L69.82,87.01L70.53,85.53zM73.38,86.43L73.38,87.26L72.93,87.74L72.45,87.75L72.46,87.08L72.95,86.26L73.19,86.23zM75.76,87.04L75.76,87.25L75.36,87.23L75.11,87.04L75.11,86.83L75.36,86.79zM284.71,184.17L284.83,184.78L285.61,185.10L285.79,185.83L285.80,187.53L285.62,188.99L284.88,191.17L283.91,193.13L282.07,195.86L280.33,197.40L278.24,198.78L276.61,199.16L275.56,199.16L274.84,198.97L274.29,198.42L273.38,197.87L272.63,196.61L272.46,195.69L272.46,192.82L272.78,191.32L273.50,189.11L275.12,186.35L276.68,184.44L277.77,183.52L279.89,182.17L280.86,181.97z"/><g id="Actor_.0"><g style="stroke:#000000;stroke-width:0.176"><path d="M59.45,65.15L59.49,64.87L59.60,64.59L59.76,64.33L59.97,64.12L60.18,63.98"/><path d="M69.09,68.86L68.93,68.97L68.62,69.29L68.38,69.68L68.22,70.10L68.16,70.48"/><path d="M70.35,70.51L70.04,70.84L70.20,70.63L70.32,70.39L70.39,70.14L70.39,70.10L70.39,70.09L70.39,70.09L70.35,70.51L71.01,70.89L70.39,71.55L69.86,71.38L69.87,71.25L70.39,71.55"/><path d="M69.87,71.25L69.90,70.99L70.04,70.84L69.90,70.95L69.90,70.99"/><path d="M69.90,70.95L69.94,70.56L70.39,70.09"/><path d="M70.39,70.09L70.57,69.90L71.10,70.07L71.01,70.89"/></g><g style="stroke:#000000;stroke-width:0.529"><path d="M61.36,66.57L59.58,65.55L59.48,65.38L59.45,65.15L59.45,65.04L59.49,64.81L59.58,64.57L59.72,64.34L59.90,64.16L60.08,64.04L60.18,63.98L60.40,63.92L60.58,63.96L62.29,64.95"/><path d="M68.16,70.48L68.15,70.51L68.20,70.86L68.35,71.11L69.55,71.80L69.78,71.92L69.83,71.94L70.16,71.93L70.48,71.78L70.51,71.77L70.81,71.51L71.07,71.17L71.27,70.78L71.38,70.38L71.38,69.98L71.29,69.69L71.27,69.65L71.07,69.45L71.03,69.42L69.84,68.74L69.57,68.68L69.25,68.76L69.09,68.86"/></g></g><g id="Actor_.1"><g style="stroke:#000000;stroke-width:0.176"><path d="M73.51,85.72L73.50,85.74"/><path d="M75.16,86.67L75.16,86.67"/><path d="M75.17,86.68L75.15,86.70"/><path d="M75.16,86.67L75.11,87.10L75.64,87.27L75.12,86.97"/><path d="M75.84,87.06L75.64,87.27"/></g><g style="stroke:#000000;stroke-width:0.529"><path d="M76.09,87.20L76.07,87.23L75.76,87.48L75.74,87.50L75.42,87.64L75.38,87.65L75.08,87.66L75.04,87.64L74.80,87.51L73.73,86.90"/></g></g><g id="Actor_.2"><g style="stroke:#000000;stroke-width:0.176"><path d="M56.78,72.77L56.82,72.50L56.92,72.21L57.09,71.95L57.29,71.74L57.51,71.60"/><path d="M65.48,78.10L65.54,77.72L65.70,77.30L65.95,76.91L66.25,76.59L66.42,76.48"/><path d="M67.71,79.17L67.19,78.87L67.18,79.00L67.71,79.17L68.33,78.52L67.67,78.14L67.36,78.46L67.52,78.25L67.64,78.01L67.71,77.76L67.71,77.72L67.67,78.14"/><path d="M67.23,78.58L67.22,78.61L67.36,78.46L67.23,78.58L67.27,78.18L67.71,77.71L67.71,77.72L67.72,77.71L67.89,77.52L68.42,77.69L68.33,78.52"/><path d="M67.22,78.61L67.19,78.87"/><path d="M67.72,77.71L67.71,77.71"/></g><g style="stroke:#000000;stroke-width:0.529"><path d="M58.86,74.29L56.91,73.17L56.81,73.00L56.78,72.77L56.78,72.67L56.81,72.43L56.90,72.19L57.04,71.96L57.22,71.78L57.41,71.66L57.51,71.60L57.72,71.55L57.90,71.59L59.19,72.33"/><path d="M66.42,76.48L66.58,76.38L66.89,76.30L67.16,76.36L68.36,77.04L68.39,77.08L68.59,77.27L68.61,77.31L68.71,77.60L68.70,78.01L68.59,78.40L68.40,78.79L68.13,79.13L67.83,79.39L67.81,79.40L67.49,79.55L67.15,79.56L67.11,79.55L66.87,79.42L65.67,78.73L65.52,78.48L65.48,78.13L65.48,78.10"/></g></g><g id="Actor_.3"><g style="stroke:#000000;stroke-width:0.176"><path d="M57.70,68.95L57.74,68.68L57.85,68.40L58.01,68.14L58.21,67.92L58.43,67.78"/><path d="M66.41,74.28L66.46,73.91L66.62,73.48L66.87,73.09L67.17,72.77L67.34,72.67"/><path d="M68.12,75.05L68.10,75.18L68.63,75.35L68.12,75.05L68.14,74.79L68.28,74.64L68.44,74.43L68.56,74.19L68.63,73.95L68.64,73.91L68.59,74.32L68.28,74.64L68.15,74.76L68.14,74.79"/><path d="M68.15,74.76L68.19,74.36L68.64,73.89L68.64,73.91L68.64,73.89L68.81,73.71L69.34,73.88L69.26,74.70L68.63,75.35"/><path d="M68.59,74.32L69.26,74.70"/><path d="M68.64,73.89L68.64,73.89"/></g><g style="stroke:#000000;stroke-width:0.529"><path d="M60.39,68.67L58.82,67.77L58.64,67.73L58.43,67.78L58.33,67.84L58.14,67.96L57.97,68.14L57.83,68.37L57.73,68.61L57.70,68.85L57.70,68.95L57.73,69.18L57.83,69.35L59.69,70.42"/><path d="M66.41,74.28L66.40,74.31L66.45,74.66L66.60,74.91L67.79,75.60L68.03,75.73L68.07,75.74L68.41,75.73L68.73,75.59L68.75,75.57L69.06,75.32L69.32,74.98L69.52,74.59L69.62,74.19L69.63,73.79L69.53,73.49L69.51,73.45L69.32,73.26L69.28,73.23L68.09,72.54L67.81,72.48L67.50,72.56L67.34,72.67"/></g></g><g id="Actor_.4"><g style="stroke:#000000;stroke-width:0.176"><path d="M59.45,80.78L59.49,80.50L59.54,80.38"/><path d="M68.16,86.11L68.21,85.77"/><path d="M69.86,87.01L70.39,87.18L69.87,86.88L69.86,87.01"/><path d="M70.39,87.18L71.01,86.53L70.35,86.14L70.39,85.73L70.39,85.72L69.94,86.19L69.90,86.58L70.04,86.47L70.20,86.26L70.32,86.02L70.39,85.77L70.39,85.72L70.39,85.72"/><path d="M69.87,86.88L69.90,86.62L70.35,86.14"/><path d="M69.90,86.58L69.90,86.62"/><path d="M71.01,86.53L71.10,85.70L70.57,85.53L70.39,85.72"/></g><g style="stroke:#000000;stroke-width:0.529"><path d="M60.27,81.57L59.58,81.18L59.48,81.01L59.45,80.78L59.45,80.67L59.49,80.44L59.52,80.36"/><path d="M68.22,86.52L68.20,86.49L68.15,86.14L68.16,86.11"/><path d="M69.60,84.31L69.84,84.37L71.03,85.05L71.07,85.08L71.27,85.28L71.29,85.32L71.38,85.61L71.38,86.01L71.27,86.41L71.07,86.80L70.81,87.14L70.51,87.40L70.48,87.41L70.16,87.56L69.83,87.57L69.78,87.55L69.55,87.43L69.03,87.13"/></g></g><g id="Actor_.5"><g style="stroke:#000000;stroke-width:0.176"><path d="M71.28,85.31L71.34,85.25L71.51,85.14"/><path d="M72.80,87.83L72.27,87.66L72.28,87.53L72.80,87.83L73.43,87.17L72.76,86.79L72.45,87.12L72.61,86.91L72.73,86.67L72.80,86.42L72.81,86.38L72.76,86.79"/><path d="M72.28,87.53L72.31,87.26L72.45,87.12L72.32,87.23L72.36,86.83L72.81,86.37L72.81,86.38L72.81,86.36L72.98,86.18L73.51,86.35L73.43,87.17"/><path d="M72.32,87.23L72.31,87.26"/><path d="M72.81,86.37L72.81,86.36"/></g><g style="stroke:#000000;stroke-width:0.529"><path d="M71.51,85.14L71.67,85.04L71.98,84.96L72.25,85.02L73.45,85.70L73.49,85.73L73.68,85.92L73.70,85.96L73.80,86.26L73.80,86.30L73.79,86.66L73.68,87.06L73.49,87.45L73.23,87.79L72.92,88.04L72.90,88.06L72.58,88.20L72.54,88.21L72.24,88.22L72.20,88.20L71.96,88.07L70.77,87.39L70.68,87.25"/></g></g><g id="Actor_.6"><g style="stroke:#000000;stroke-width:0.176"><path d="M86.59,66.86L86.74,66.72L87.27,66.88L87.23,67.23"/></g><g style="stroke:#000000;stroke-width:0.529"><path d="M86.05,65.57L87.20,66.23L87.24,66.27L87.43,66.46L87.46,66.50L87.55,66.79L87.55,66.83L87.55,67.20L87.50,67.38"/></g></g><g id="Actor_.7"><g style="stroke:#000000;stroke-width:0.176"><path d="M57.70,78.99L57.74,78.71L57.85,78.43L58.01,78.17L58.21,77.96L58.43,77.82"/><path d="M66.41,84.32L66.46,83.94L66.62,83.52L66.87,83.13L67.03,82.96"/><path d="M68.57,85.37L68.10,85.22L68.12,85.09L68.57,85.35"/><path d="M68.46,84.44L68.44,84.47L68.28,84.68L68.59,84.35L68.64,83.94L68.63,83.98L68.56,84.23L68.46,84.44"/><path d="M68.59,84.35L69.26,84.73L69.34,83.91L68.81,83.74L68.64,83.92L68.64,83.94L68.64,83.93L68.19,84.40L68.15,84.79L68.28,84.68L68.14,84.82L68.12,85.09"/><path d="M68.14,84.82L68.15,84.79"/><path d="M68.64,83.92L68.64,83.93"/></g><g style="stroke:#000000;stroke-width:0.529"><path d="M59.54,80.37L57.83,79.39L57.73,79.22L57.70,78.99L57.70,78.88L57.73,78.65L57.83,78.41L57.97,78.18L58.14,78.00L58.33,77.88L58.43,77.82L58.64,77.76L58.82,77.80L58.85,77.82"/><path d="M68.45,85.75L68.41,85.77L68.37,85.77L68.07,85.78L68.03,85.76L67.79,85.64L66.60,84.95L66.45,84.70L66.40,84.35L66.41,84.32"/><path d="M69.43,84.79L69.52,84.62L69.62,84.22L69.63,83.82L69.53,83.53L69.51,83.48L69.32,83.29L69.28,83.26L68.13,82.60"/></g></g><g id="Actor_.8"><g style="stroke:#000000;stroke-width:0.176"><path d="M83.46,64.20L83.41,64.53"/><path d="M85.64,65.60L85.12,65.30L85.10,65.43L85.64,65.60L86.26,64.95L86.35,64.12L85.81,63.96L85.64,64.14L85.59,64.57L86.26,64.95"/><path d="M85.19,64.61L85.64,64.14L85.64,64.15L85.63,64.19L85.57,64.44L85.45,64.68L85.28,64.89L85.15,65.01L85.19,64.61"/><path d="M85.59,64.57L85.15,65.04L85.12,65.30"/><path d="M85.15,65.01L85.15,65.04"/><path d="M85.64,64.14L85.64,64.14"/></g><g style="stroke:#000000;stroke-width:0.529"><path d="M83.58,65.13L83.45,64.91L83.40,64.56L83.41,64.53"/><path d="M84.84,62.74L85.09,62.79L86.28,63.47L86.32,63.51L86.51,63.70L86.53,63.74L86.63,64.03L86.63,64.07L86.62,64.44L86.52,64.83L86.32,65.22L86.06,65.56L85.76,65.82L85.73,65.83L85.41,65.98L85.37,65.98L85.08,65.99"/></g></g><g id="Actor_.9"><g style="stroke:#000000;stroke-width:0.176"><path d="M56.78,76.23L56.82,75.95L56.92,75.67L57.09,75.41L57.29,75.20L57.51,75.06"/><path d="M66.42,79.94L66.25,80.05L65.95,80.37L65.70,80.76L65.54,81.18L65.48,81.56"/><path d="M67.18,82.46L67.22,82.06L67.36,81.92L67.52,81.71L67.64,81.47L67.71,81.22L67.71,81.18L67.67,81.59L68.33,81.97L67.71,82.63L67.18,82.46"/><path d="M67.19,82.33L67.71,82.63"/><path d="M68.33,81.97L68.42,81.15L67.89,80.98L67.72,81.17L67.71,81.18L67.71,81.17L67.27,81.64L67.23,82.03L67.36,81.92L67.67,81.59"/><path d="M67.22,82.06L67.23,82.03"/><path d="M67.71,81.17L67.72,81.17"/></g><g style="stroke:#000000;stroke-width:0.529"><path d="M58.84,77.74L56.91,76.63L56.81,76.46L56.78,76.23L56.78,76.12L56.81,75.89L56.90,75.65L56.96,75.56L57.04,75.42L57.22,75.24L57.41,75.12L57.51,75.06L57.72,75.00L57.90,75.04L58.74,75.53"/><path d="M66.42,79.94L66.58,79.84L66.89,79.76L67.16,79.82L68.36,80.50L68.39,80.53L68.59,80.72L68.61,80.77L68.71,81.06L68.70,81.46L68.59,81.86L68.40,82.25L68.13,82.59L67.83,82.85L67.81,82.86L67.49,83.01L67.15,83.02L67.11,83.00L66.87,82.88L65.67,82.19L65.52,81.94L65.48,81.59L65.48,81.56"/></g></g><g id="Actor_.10"><g style="stroke:#000000;stroke-width:0.176"><path d="M67.69,57.32L67.73,57.05L67.84,56.77L68.00,56.50L68.21,56.29L68.42,56.15"/><path d="M76.40,62.65L76.45,62.28L76.62,61.85L76.86,61.46L77.17,61.14L77.33,61.03"/><path d="M78.59,62.69L78.27,63.01L78.44,62.80L78.56,62.56L78.62,62.32L78.63,62.28L78.59,62.69L79.25,63.07L78.63,63.72L78.11,63.42L78.09,63.55L78.63,63.72"/><path d="M78.11,63.42L78.14,63.16L78.27,63.01L78.14,63.13L78.18,62.73L78.63,62.26L78.63,62.28L78.63,62.26L78.80,62.08L79.34,62.25L79.25,63.07"/><path d="M78.14,63.13L78.14,63.16"/><path d="M78.63,62.26L78.63,62.26"/></g><g style="stroke:#000000;stroke-width:0.529"><path d="M68.71,58.23L67.82,57.72L67.72,57.55L67.69,57.32L67.69,57.22L67.73,56.98L67.82,56.74L67.96,56.51L68.13,56.33L68.32,56.21L68.42,56.15L68.63,56.10L68.82,56.14L70.69,57.22"/><path d="M77.33,61.03L77.49,60.93L77.81,60.85L78.08,60.91L79.27,61.60L79.31,61.63L79.50,61.82L79.52,61.86L79.62,62.16L79.62,62.56L79.51,62.95L79.31,63.35L79.05,63.69L78.75,63.94L78.72,63.96L78.40,64.10L78.07,64.11L78.02,64.10L77.78,63.97L76.59,63.28L76.44,63.03L76.39,62.68L76.40,62.65"/></g></g><g id="Actor_.11"><g style="stroke:#000000;stroke-width:0.176"><path d="M68.67,81.57L69.22,82.80L69.59,83.15"/><path d="M68.18,79.08L68.35,80.50"/><path d="M68.56,75.66L68.41,76.16L68.32,77.02"/><path d="M69.31,73.25L69.94,71.94"/><path d="M72.09,68.45L71.27,69.65"/><path d="M74.87,65.72L74.11,66.27L73.80,66.60"/><path d="M77.89,64.03L76.54,64.60"/><path d="M79.43,88.09L80.02,89.25L80.33,89.63"/><path d="M79.58,88.41L79.26,87.45L79.06,86.37L78.99,85.20L79.06,83.96L79.26,82.66L79.58,81.33L80.02,80.00L80.58,78.65L81.24,77.34L82.00,76.07L82.85,74.88L83.76,73.78L84.73,72.78L85.74,71.90L86.77,71.15L87.81,70.56L88.85,70.11L89.85,69.84L90.82,69.72L90.47,69.76L90.51,69.76"/><path d="M78.92,63.79L80.27,63.67L80.66,63.79"/><path d="M90.82,69.72L91.67,69.78"/><path d="M263.13,194.68L263.70,195.01"/><path d="M266.48,196.60L265.27,195.37L264.51,193.59L264.25,191.37L264.51,188.85L265.27,186.20L266.48,183.58L268.06,181.15L269.93,179.06L271.95,177.46L274.00,176.43L275.94,176.05L277.70,176.32"/><path d="M279.39,177.78L279.23,177.52L277.84,176.60L276.13,176.33L274.20,176.71L272.17,177.72L270.18,179.30L268.35,181.36L266.79,183.75L265.59,186.33L264.85,188.95L264.59,191.42L264.85,193.61L265.17,194.36L265.59,195.36L266.79,196.58L268.35,197.18L267.11,196.44L265.85,195.27L265.07,193.52L264.80,191.30L265.07,188.79L265.85,186.13L267.11,183.52L268.74,181.13L270.64,179.13L272.68,177.65L274.72,176.79L276.63,176.61L278.26,177.12L279.48,177.83"/><path d="M268.35,197.18L268.44,197.20"/><path d="M282.57,179.60L280.93,179.08L279.03,179.26L276.99,180.12L274.95,181.60L273.05,183.60L271.42,185.99L270.16,188.60L269.38,191.26L269.11,193.78L269.38,195.99L270.16,197.74L271.39,198.89"/><path d="M282.96,179.96L282.59,179.75L280.98,179.24L279.10,179.42L277.08,180.27L275.06,181.74L273.73,183.14L273.18,183.72L271.57,186.08L270.33,188.66L269.55,191.29L269.28,193.78L269.55,195.96L270.33,197.69L271.57,198.85L271.97,199.08"/><path d="M275.23,200.36L273.63,199.86L272.41,198.72L271.64,197.01L271.38,194.85L271.64,192.40L272.41,189.81L273.63,187.27L275.23,184.94L277.08,182.99L279.07,181.54L281.06,180.70L282.91,180.53L284.51,181.03L285.73,182.17"/><path d="M272.53,196.42L272.25,194.35L272.53,191.97L273.34,189.47L274.61,187.04L276.24,184.89L278.10,183.19L280.04,182.08L281.90,181.64L283.53,181.92L284.80,182.89L285.60,184.44L285.75,185.56L285.88,186.54L285.61,188.92L284.80,191.43L283.53,193.85L281.90,196.00L280.04,197.70L278.10,198.82L276.24,199.25L274.61,198.97L273.34,198.00L272.53,196.42"/><path d="M274.06,198.37L273.18,197.70"/><path d="M276.51,175.64L274.35,174.40"/><path d="M274.91,174.65L275.32,174.92"/></g><g style="stroke:#000000;stroke-width:0.529"><path d="M58.43,74.04L58.52,74.76L58.76,75.31"/><path d="M58.62,69.81L58.52,70.15L58.34,71.84"/><path d="M60.11,65.85L59.28,67.57L59.16,67.97"/><path d="M62.41,62.36L62.10,62.69L61.04,64.23"/><path d="M65.35,59.73L63.95,60.74L63.73,60.97"/><path d="M68.47,58.41L67.93,58.46L67.33,58.71"/><path d="M69.26,82.96L69.59,83.15L70.51,84.01L80.33,89.63L80.58,89.94L81.24,90.49L262.65,194.54L263.43,194.94L263.72,195.02L266.48,196.60L268.06,197.22L268.44,197.20L271.42,198.91L271.97,199.08L273.14,199.76L274.75,200.27L275.23,200.36L277.08,200.19L279.07,199.35L281.06,197.91L282.91,195.95L284.51,193.62L285.73,191.08L286.49,188.49L286.76,186.04L286.49,183.88L285.73,182.17L285.41,181.82L284.17,180.66L282.96,179.96L282.57,179.60L279.48,177.83L279.11,177.25L277.70,176.32L275.32,174.92L274.74,174.44L93.34,70.40L92.58,70.01L91.67,69.78L81.95,64.19L80.66,63.79L80.33,63.60"/></g></g><g id="Actor_.12"><g style="stroke:#000000;stroke-width:0.176"><path d="M70.53,56.76L70.57,56.49L70.68,56.21L70.84,55.94L70.93,55.86L71.04,55.73L71.26,55.59"/><path d="M80.17,60.47L80.00,60.58L79.70,60.90L79.46,61.29L79.32,61.64"/><path d="M80.95,62.86L80.93,62.99L81.47,63.16L80.95,62.86L80.98,62.60L81.11,62.45L81.28,62.24L81.40,62.00L81.46,61.76L81.47,61.72L81.42,62.13L82.09,62.51L81.47,63.16"/><path d="M80.98,62.60L80.98,62.57L81.11,62.45L81.42,62.13"/><path d="M80.98,62.57L81.02,62.17L81.47,61.70L81.47,61.72L81.47,61.70L81.64,61.52L82.18,61.69L82.09,62.51"/><path d="M81.47,61.70L81.47,61.70"/></g><g style="stroke:#000000;stroke-width:0.529"><path d="M73.30,56.52L71.65,55.58L71.47,55.54L71.26,55.59L71.16,55.65L70.97,55.77L70.80,55.95L70.66,56.18L70.56,56.42L70.53,56.66L70.53,56.76L70.56,56.99L70.66,57.16L70.73,57.20"/><path d="M79.55,62.79L80.62,63.41L80.86,63.54L80.90,63.55L81.24,63.54L81.56,63.40L81.59,63.38L81.89,63.13L82.15,62.79L82.35,62.40L82.45,62.00L82.46,61.60L82.36,61.30L82.34,61.26L82.15,61.07L82.11,61.04L80.92,60.35L80.65,60.29L80.33,60.37L80.17,60.47"/></g></g><g id="Actor_.13"><g style="stroke:#000000;stroke-width:0.176"><path d="M48.56,87.97L48.66,87.93L48.79,87.95L48.86,87.99L48.93,88.03L49.06,88.15L49.17,88.31L49.24,88.48L49.28,88.66L49.27,88.81L49.21,88.92L49.12,88.99"/><path d="M48.76,88.06L48.66,88.04L48.57,88.07L48.51,88.15L48.48,88.26L48.48,88.33L48.49,88.40L48.54,88.54L48.61,88.68L48.71,88.80L48.76,88.84L48.83,88.89L48.94,88.93L49.04,88.92L49.12,88.87L49.16,88.77L49.17,88.65L49.14,88.50L49.08,88.36L48.99,88.22L48.88,88.12L48.76,88.06L48.76,88.06"/><path d="M48.59,88.38L48.69,88.18L48.82,88.24L48.59,88.38L48.72,88.68L49.02,88.51L49.06,88.60L48.96,88.79L48.72,88.68"/><path d="M48.82,88.24L48.92,88.29L49.02,88.51"/><path d="M50.14,87.24L50.28,87.35L50.40,87.49L50.49,87.66L50.55,87.84L50.56,88.00"/></g><g style="stroke:#000000;stroke-width:0.529"><path d="M50.32,88.30L50.45,88.23L50.53,88.14L50.56,88.00L50.56,87.59L50.56,87.56L50.55,87.52L50.53,87.49L50.51,87.46L50.48,87.44L50.14,87.24L50.01,87.20L49.89,87.20L48.56,87.97L48.48,88.06L48.45,88.19L48.45,88.27L48.46,88.36L48.49,88.44L48.52,88.53L48.61,88.70L48.73,88.84L48.87,88.95L49.00,89.00L49.12,88.99L49.24,88.92"/></g></g><g id="Actor_.14"><g style="stroke:#000000;stroke-width:0.176"><path d="M64.71,59.03L64.75,58.76L64.85,58.48L65.02,58.22L65.22,58.00L65.44,57.86"/><path d="M73.41,64.36L73.47,63.99L73.63,63.56L73.88,63.17L74.18,62.85L74.35,62.75"/><path d="M76.26,64.78L75.64,65.43L75.11,65.26L75.15,64.87L75.29,64.73L75.45,64.52L75.57,64.27L75.64,64.03L75.64,63.99L75.60,64.40L76.26,64.78L76.35,63.96L75.82,63.79L75.65,63.97L75.64,63.99L75.64,63.97L75.65,63.97"/><path d="M75.60,64.40L75.29,64.73L75.16,64.84L75.20,64.44L75.64,63.97"/><path d="M75.16,64.84L75.15,64.87"/><path d="M75.12,65.14L75.64,65.43"/></g><g style="stroke:#000000;stroke-width:0.529"><path d="M66.19,60.21L64.84,59.43L64.74,59.26L64.71,59.03L64.71,58.93L64.74,58.69L64.83,58.45L64.98,58.23L65.15,58.04L65.34,57.92L65.44,57.86L65.65,57.81L65.83,57.85L67.72,58.94"/><path d="M73.41,64.36L73.41,64.40L73.46,64.74L73.61,65.00L74.80,65.68L75.04,65.81L75.08,65.82L75.42,65.81L75.74,65.67L75.76,65.65L76.07,65.40L76.33,65.06L76.52,64.67L76.63,64.27L76.64,63.87L76.54,63.57L76.52,63.53L76.32,63.34L76.29,63.31L75.09,62.62L74.82,62.56L74.51,62.64L74.35,62.75"/></g></g><g id="Actor_.15"><g style="stroke:#000000;stroke-width:0.176"><path d="M64.19,79.78L64.08,79.58L64.01,79.37L63.99,79.17L64.04,79.01L64.13,78.90L64.26,78.85L64.42,78.88L64.46,78.90L64.58,78.97L64.73,79.12L64.86,79.32L64.95,79.53L64.99,79.74L64.97,79.92L64.91,80.05L64.80,80.13L64.66,80.13L64.50,80.07L64.34,79.95L64.19,79.78"/><path d="M65.48,78.18L65.32,79.98L65.48,81.56"/><path d="M65.51,81.81L65.58,82.55L66.37,84.69L67.63,86.29L68.19,86.62"/><path d="M65.51,77.94L65.58,77.10L66.37,74.06L67.63,71.01L68.34,69.78"/><path d="M68.57,81.90L68.89,82.61L70.18,83.82L70.37,83.88"/><path d="M67.99,80.01L68.02,80.31"/><path d="M74.15,62.89L73.54,63.31L71.31,65.50L69.30,68.11L68.61,69.30"/><path d="M77.40,60.99L75.90,61.66L74.36,62.74"/><path d="M77.17,64.00L77.56,63.84"/><path d="M77.57,60.91L78.25,60.61L80.49,60.24L82.49,60.55"/><path d="M81.75,64.13L81.62,64.00L79.94,63.48L79.16,63.55"/></g><g style="stroke:#000000;stroke-width:0.529"><path d="M68.18,86.63L62.66,83.47L60.99,82.49L59.73,80.89L58.95,78.74L58.68,76.17L58.95,73.29L59.73,70.25L60.99,67.21L62.66,64.31L64.67,61.70L65.07,61.30L66.91,59.51L69.26,57.85L71.61,56.81L73.85,56.43L75.85,56.74L82.49,60.55L83.22,60.97"/><path d="M67.90,79.33L67.99,80.01"/><path d="M67.99,76.83L68.08,75.97L68.15,75.74"/><path d="M68.98,73.05L69.58,71.81"/><path d="M70.41,87.44L71.03,87.54"/><path d="M71.75,68.26L70.98,69.39"/><path d="M73.63,87.17L73.95,87.03"/><path d="M73.66,66.21L73.80,66.06L74.53,65.53"/><path d="M76.63,64.23L77.17,64.00"/><path d="M84.87,62.42L85.22,62.87"/><path d="M86.22,65.36L86.25,65.69"/></g></g><g id="Actor_.16"><g style="stroke:#000000;stroke-width:0.176"><path d="M16.32,61.37L14.57,60.02L13.27,58.04L12.46,55.54L12.19,52.60L12.46,49.35L13.27,45.92L14.57,42.45L16.32,39.08L18.44,35.96L20.85,33.21L23.45,30.94L26.14,29.24L28.79,28.19L31.31,27.82L33.59,28.16L35.54,29.19"/><path d="M13.84,59.95L13.83,59.95"/><path d="M14.28,57.89L14.19,58.25L14.19,58.59L14.28,58.85L14.46,59.01L14.70,59.05L14.97,58.97L15.26,58.78L15.52,58.50L15.73,58.15L15.87,57.78L15.92,57.43L15.87,57.13L15.73,56.91L15.52,56.81L15.26,56.83L14.97,56.96L14.70,57.20L14.46,57.52L14.28,57.89"/><path d="M14.19,44.65L14.28,44.91L14.46,45.07L14.70,45.12L14.97,45.04L15.26,44.85L15.52,44.56L15.73,44.22L15.87,43.85L15.92,43.49L15.87,43.19L15.73,42.98L15.52,42.87L15.26,42.89L14.97,43.03L14.70,43.27L14.46,43.59L14.28,43.95L14.19,44.32L14.19,44.65"/><path d="M15.19,54.44L14.95,53.79L14.68,51.17L14.95,48.23L15.75,45.14L17.03,42.03L18.74,39.07L20.79,36.41L23.06,34.18L25.46,32.49L27.86,31.43L30.14,31.04L32.19,31.36L32.60,31.60L30.56,31.28L28.28,31.66L25.88,32.73L23.48,34.42L21.20,36.65L19.16,39.31L17.45,42.27L16.16,45.37L15.36,48.47L15.09,51.41L15.36,54.03L16.16,56.22L17.45,57.85L17.73,58.02L17.03,57.61L15.75,55.98L15.19,54.44"/><path d="M18.75,58.61L17.73,58.02L19.16,58.85L19.95,58.97L17.82,57.72L16.56,56.12L15.77,53.98L15.51,51.41L15.77,48.53L16.56,45.49L17.82,42.44L19.49,39.54L21.50,36.93L23.73,34.74L26.09,33.09L28.44,32.04L30.68,31.67L32.68,31.98L34.77,33.17L34.31,32.60L32.60,31.60"/><path d="M18.74,58.61L19.16,58.85"/><path d="M19.95,58.97L23.78,61.17"/><path d="M22.16,55.43L22.15,55.21L22.19,54.72L22.33,54.26L22.55,53.87L22.85,53.55L23.20,53.31L23.33,53.27L22.89,53.68L22.60,54.48L22.60,55.51L22.89,56.65L23.43,57.78L24.17,58.76L25.03,59.51L25.92,59.93L26.73,59.98L27.13,59.79L27.10,59.82L26.85,60.00L26.42,60.09L25.83,59.98L25.41,59.80L24.97,59.55L24.51,59.22L23.79,58.58L23.20,57.90L22.84,57.38L22.55,56.84L22.33,56.29L22.19,55.74L22.16,55.43"/><path d="M24.17,57.78L23.91,57.44L23.51,56.62L23.30,55.78L23.30,55.02L23.51,54.43L23.91,54.06L24.46,53.96L25.09,54.14L25.38,54.33L25.38,54.59L25.59,55.43L25.99,56.25L26.53,56.98L27.17,57.53L27.23,57.56L27.24,57.66L27.13,58.34L26.82,58.83L26.34,59.07L25.74,59.03L25.09,58.72L24.46,58.17L24.17,57.78"/><path d="M23.33,53.27L23.79,53.13L24.05,53.11L24.51,53.17L24.97,53.32L25.41,53.58L25.83,53.92L26.42,54.64L26.56,54.85L26.86,55.40L27.10,55.99L27.29,56.59L27.43,57.19L27.51,57.77L27.54,58.31L27.51,58.80L27.43,59.22L27.29,59.56L27.13,59.79"/><path d="M25.38,54.33L25.50,54.41L25.50,54.64L25.70,55.42L26.07,56.20L26.58,56.88L27.18,57.39L27.21,57.41L27.13,56.85L26.82,56.01L26.34,55.22L25.74,54.58L25.50,54.41"/><path d="M25.49,32.03L25.39,32.10L25.11,32.17L24.87,32.13L24.70,31.97L24.60,31.71L24.60,31.37L24.70,31.01L24.74,30.93L24.87,30.64L25.11,30.32L25.41,30.08L25.68,29.95L25.94,29.93L26.15,30.03L26.29,30.25L26.34,30.55L26.29,30.90L26.15,31.27L25.94,31.62L25.68,31.90L25.49,32.03"/><path d="M27.21,57.41L27.23,57.56"/><path d="M49.48,41.61L47.48,41.30L45.24,41.68L42.89,42.72L40.53,44.38L38.30,46.57L36.29,49.18L34.62,52.08L33.36,55.13L32.57,58.16L32.31,61.04L32.57,63.62L33.36,65.76L34.62,67.36L36.29,68.34"/><path d="M53.46,49.00L53.20,46.45L53.00,45.90L52.42,44.33L51.17,42.74L49.51,41.77L47.52,41.46L45.30,41.83L42.97,42.87L40.63,44.51L38.42,46.68L36.43,49.27L35.84,50.28L34.76,52.15L33.51,55.17L32.74,58.19L32.47,61.04L32.74,63.60L33.51,65.72L34.76,67.31L36.43,68.28L38.42,68.59L40.63,68.22L42.97,67.18"/><path d="M33.10,62.98L32.96,62.86L32.89,62.66L32.89,62.61L32.89,62.41L32.96,62.13L33.10,61.85L33.28,61.61L33.49,61.42L33.71,61.32L33.91,61.31L34.07,61.39L34.17,61.55L34.21,61.78L34.17,62.05L34.07,62.33L33.91,62.59L33.71,62.81L33.49,62.96L33.28,63.02L33.10,62.98"/><path d="M33.25,59.55L33.10,59.52L32.96,59.40L32.89,59.20L32.89,58.95L32.96,58.67L33.10,58.39L33.28,58.15L33.49,57.97L33.71,57.86L33.91,57.85L34.07,57.93L34.17,58.09L34.21,58.32L34.17,58.59L34.07,58.87L33.91,59.14L33.71,59.35L33.49,59.50L33.28,59.56L33.25,59.55"/><path d="M34.35,65.73L34.20,65.77L34.02,65.74L33.88,65.62L33.81,65.42L33.81,65.20L33.81,65.17L33.88,64.89L34.02,64.61L34.20,64.37L34.41,64.18L34.61,64.09L34.63,64.08L34.83,64.07L34.99,64.14L35.10,64.31L35.13,64.54L35.10,64.81L34.99,65.09L34.83,65.35L34.63,65.57L34.41,65.72L34.35,65.73"/><path d="M34.02,55.71L34.20,55.74L34.41,55.68L34.63,55.53L34.83,55.32L34.99,55.05L35.10,54.77L35.13,54.50L35.10,54.27L34.99,54.11L34.83,54.03L34.63,54.04L34.61,54.05L34.41,54.15L34.20,54.33L34.02,54.57L33.88,54.85L33.81,55.13L33.81,55.38L33.88,55.58L34.02,55.71"/><path d="M35.02,59.49L35.28,57.05L36.07,54.37L37.34,51.73L38.99,49.32L40.91,47.29L42.97,45.80L45.03,44.93L45.88,44.85L46.95,44.75L48.60,45.27L49.87,46.45L50.66,48.22L50.93,50.46L50.66,53.00L49.87,55.68L48.67,58.17L48.60,58.32L46.95,60.73L45.03,62.75L42.97,64.25L40.91,65.12L38.99,65.30L37.34,64.78L36.07,63.59L35.28,61.82L35.00,59.59L35.02,59.49L35.27,61.59L36.05,63.32L36.74,63.96L37.58,64.23L39.46,64.05L41.48,63.20L43.49,61.74L45.38,59.75L46.99,57.39L48.23,54.81L49.01,52.18L49.27,49.69L49.01,47.51L48.23,45.78L47.54,45.13L48.32,45.38L49.56,46.54L50.34,48.27L50.60,50.46L50.34,52.95L49.56,55.57L48.32,58.15L46.70,60.52L44.82,62.50L42.80,63.96L40.78,64.81L38.90,64.99L37.29,64.48L36.74,63.96"/><path d="M35.36,61.78L36.97,62.06L38.84,61.62L40.79,60.51L42.66,58.80L44.30,56.64L45.57,54.20L46.38,51.68L46.66,49.29L46.38,47.22L45.57,45.63L44.82,45.05L46.70,44.87L47.54,45.13"/><path d="M36.14,61.76L35.27,61.55"/><path d="M34.77,33.17L38.57,35.36"/><path d="M35.29,33.12L35.12,32.96L35.02,32.70L35.02,32.37L35.12,32.00L35.29,31.64L35.53,31.32L35.81,31.08L36.10,30.94L36.36,30.92L36.57,31.03L36.71,31.24L36.75,31.54L36.71,31.90L36.57,32.27L36.36,32.61L36.10,32.90L35.81,33.09L35.53,33.16L35.29,33.12"/><path d="M36.57,67.16L36.39,67.36L36.17,67.51L35.96,67.57L35.77,67.53L35.64,67.41L35.57,67.21L35.57,66.96L35.64,66.68L35.77,66.40L35.96,66.16L36.17,65.97L36.39,65.87L36.59,65.86L36.75,65.94L36.85,66.10L36.89,66.33L36.85,66.60L36.75,66.88L36.57,67.16"/><path d="M35.77,51.90L35.96,51.94L36.17,51.88L36.39,51.73L36.59,51.51L36.75,51.25L36.85,50.97L36.89,50.70L36.85,50.47L36.75,50.31L36.59,50.23L36.39,50.24L36.17,50.34L35.96,50.53L35.77,50.77L35.64,51.05L35.57,51.33L35.57,51.58L35.64,51.78L35.77,51.90"/><path d="M47.99,45.28L49.00,46.22L49.78,47.95L50.05,50.14L49.78,52.63L49.00,55.25L47.76,57.83L46.15,60.20L46.00,60.36L44.27,62.18L42.25,63.64L40.23,64.49L38.35,64.67L37.06,64.26"/><path d="M38.79,68.02L38.58,68.15L38.37,68.21L38.19,68.18L38.05,68.06L37.98,67.86L37.98,67.60L38.05,67.32L38.19,67.05L38.37,66.80L38.58,66.62L38.80,66.52L39.00,66.50L39.16,66.58L39.27,66.75L39.30,66.98L39.27,67.25L39.16,67.53L39.00,67.79L38.79,68.02"/><path d="M38.19,48.48L38.37,48.52L38.58,48.46L38.80,48.31L39.00,48.10L39.16,47.83L39.27,47.55L39.30,47.28L39.27,47.05L39.16,46.89L39.00,46.81L38.80,46.82L38.58,46.93L38.37,47.11L38.19,47.35L38.05,47.63L37.98,47.91L37.98,48.04L37.98,48.16L38.05,48.36L38.19,48.48"/><path d="M40.89,67.50L40.82,67.30L40.82,67.05L40.89,66.77L41.03,66.49L41.21,66.25L41.42,66.06L41.64,65.96L41.84,65.94L42.00,66.02L42.10,66.19L42.14,66.42L42.10,66.69L42.00,66.97L41.84,67.23L41.64,67.45L41.42,67.59L41.21,67.65L41.03,67.62L40.89,67.50"/><path d="M40.89,45.66L40.82,45.47L40.82,45.21L40.89,44.93L41.03,44.66L41.13,44.51L41.21,44.41L41.42,44.23L41.64,44.13L41.84,44.11L42.00,44.19L42.10,44.35L42.14,44.58L42.10,44.85L42.00,45.14L41.84,45.40L41.64,45.62L41.42,45.76L41.21,45.82L41.03,45.79L40.89,45.66"/><path d="M44.67,45.81L43.97,45.40L43.64,45.54L43.67,45.57L44.16,46.29L44.47,47.04L44.53,47.78L44.34,48.39L43.94,48.84L43.38,49.04L42.75,48.97L42.14,48.62L41.61,48.02L41.20,47.27L41.15,47.12"/><path d="M42.03,46.48L42.14,46.73L42.62,47.44L43.20,48.00L43.81,48.36L44.30,48.44"/><path d="M42.88,45.86L43.64,45.54"/><path d="M44.33,65.90L44.20,65.94L44.01,65.91L43.88,65.79L43.81,65.59L43.81,65.56L43.81,65.33L43.88,65.05L44.01,64.78L44.20,64.53L44.41,64.35L44.62,64.25L44.82,64.23L44.99,64.31L45.09,64.47L45.13,64.70L45.09,64.97L44.99,65.26L44.82,65.52L44.62,65.74L44.41,65.88L44.33,65.90"/><path d="M44.82,45.05L43.97,45.40"/><path d="M44.33,44.07L44.20,44.11L44.01,44.08L43.88,43.95L43.81,43.75L43.81,43.63L43.81,43.50L43.88,43.22L44.01,42.94L44.20,42.70L44.41,42.52L44.62,42.41L44.82,42.40L44.99,42.48L45.09,42.64L45.13,42.87L45.09,43.14L44.99,43.42L44.82,43.69L44.62,43.90L44.41,44.05L44.33,44.07"/><path d="M47.25,63.18L47.46,63.04L47.66,62.82L47.82,62.56L47.93,62.28L47.96,62.01L47.93,61.78L47.82,61.61L47.66,61.54L47.46,61.55L47.25,61.65L47.03,61.84L46.85,62.08L46.72,62.36L46.66,62.60L46.65,62.64L46.65,62.89L46.72,63.09L46.85,63.21L47.03,63.24L47.25,63.18"/><path d="M47.46,43.34L47.25,43.49L47.03,43.55L46.85,43.52L46.72,43.39L46.66,43.22L46.65,43.19L46.65,42.94L46.72,42.66L46.85,42.38L47.03,42.14L47.25,41.96L47.46,41.85L47.66,41.84L47.82,41.92L47.93,42.08L47.96,42.31L47.94,42.49L47.93,42.58L47.82,42.86L47.66,43.13L47.46,43.34"/><path d="M49.87,59.63L49.66,59.77L49.45,59.83L49.27,59.79L49.13,59.67L49.06,59.47L49.06,59.22L49.13,58.94L49.27,58.66L49.45,58.42L49.66,58.24L49.88,58.13L50.08,58.12L50.24,58.20L50.34,58.36L50.38,58.59L50.34,58.86L50.24,59.14L50.08,59.41L49.87,59.63"/><path d="M49.45,44.20L49.66,44.14L49.88,43.99L50.08,43.77L50.24,43.51L50.34,43.23L50.38,42.96L50.34,42.73L50.24,42.57L50.08,42.49L49.88,42.50L49.66,42.60L49.45,42.79L49.27,43.03L49.13,43.31L49.06,43.59L49.06,43.84L49.13,44.04L49.27,44.16L49.45,44.20"/><path d="M50.89,55.87L51.02,55.99L51.20,56.02L51.33,55.99L51.42,55.96L51.63,55.82L51.83,55.60L51.99,55.34L52.10,55.06L52.13,54.78L52.10,54.56L51.99,54.39L51.83,54.31L51.63,54.33L51.42,54.43L51.20,54.61L51.02,54.86L50.89,55.13L50.82,55.41L50.82,55.67L50.89,55.87"/><path d="M50.89,45.83L50.82,45.63L50.82,45.38L50.89,45.10L51.02,44.82L51.20,44.58L51.42,44.40L51.63,44.29L51.83,44.28L51.99,44.36L52.10,44.52L52.13,44.75L52.10,45.02L51.99,45.30L51.83,45.57L51.63,45.78L51.42,45.93L51.33,45.95L51.20,45.99L51.02,45.95L50.89,45.83"/><path d="M51.74,51.85L51.81,52.05L51.94,52.17L52.13,52.21L52.34,52.15L52.56,52.00L52.76,51.78L52.92,51.52L53.02,51.24L53.06,50.97L53.02,50.74L52.92,50.58L52.76,50.50L52.56,50.51L52.34,50.61L52.13,50.80L51.94,51.04L51.81,51.32L51.74,51.60L51.74,51.85"/><path d="M51.81,47.86L51.74,48.14L51.74,48.39L51.81,48.59L51.94,48.71L52.13,48.75L52.34,48.69L52.56,48.54L52.76,48.33L52.92,48.06L53.02,47.78L53.06,47.51L53.02,47.28L52.92,47.12L52.76,47.04L52.56,47.05L52.34,47.16L52.13,47.34L51.94,47.58L51.81,47.86"/></g><g style="stroke:#000000;stroke-width:0.529"><path d="M28.62,63.94L36.29,68.34L38.30,68.65L40.53,68.27L42.89,67.23L42.97,67.18L45.30,65.54L47.52,63.37L49.51,60.78L51.17,57.90L52.42,54.88L53.11,52.22L53.20,51.86L53.46,49.00L53.46,48.91L53.20,46.33L52.42,44.19L51.16,42.59L49.48,41.61L38.57,35.36L38.13,33.12L37.07,30.86L35.54,29.19L33.05,27.76L31.10,26.74L28.82,26.40L26.30,26.76L24.38,27.52L23.65,27.81L20.97,29.51L18.37,31.78L15.95,34.53L13.83,37.66L12.08,41.02L12.05,41.11L10.78,44.49L9.97,47.92L9.70,51.17L9.97,54.11L10.78,56.62L12.08,58.59L13.83,59.95L16.32,61.37L18.44,62.06L20.85,62.05L23.45,61.34L23.78,61.17L27.78,63.46"/></g></g><g id="Actor_.17"><g style="stroke:#000000;stroke-width:0.176"><path d="M47.99,45.28L49.00,46.22L49.78,47.95L50.05,50.14L49.78,52.63L49.00,55.25L47.76,57.84L46.15,60.20L44.27,62.18L42.25,63.64L40.23,64.49L38.35,64.67L37.06,64.26"/></g><g style="stroke:#000000;stroke-width:0.529"><path d="M47.90,45.25L48.84,46.13L49.62,47.86L49.89,50.05L49.62,52.54L48.84,55.16L47.60,57.74L45.99,60.11L44.11,62.09L42.09,63.55L40.07,64.40L38.19,64.58L36.99,64.20"/></g></g><g id="Actor_.18"><g style="stroke:#000000;stroke-width:0.176"><path d="M73.68,56.24L73.46,56.38L73.33,56.52"/><path d="M82.36,61.29L82.42,61.23L82.59,61.12"/><path d="M83.35,63.64L83.88,63.81L83.36,63.51L83.35,63.64"/><path d="M83.88,63.81L84.50,63.16L83.84,62.78L83.89,62.35L83.88,62.35L83.88,62.36L83.88,62.40L83.81,62.65L83.69,62.89L83.53,63.10L83.84,62.78"/><path d="M83.36,63.51L83.39,63.25L83.53,63.10L83.39,63.21L83.44,62.82L83.88,62.35"/><path d="M83.89,62.35L84.06,62.16L84.59,62.33L84.50,63.16"/><path d="M83.39,63.25L83.39,63.21"/></g><g style="stroke:#000000;stroke-width:0.529"><path d="M74.64,56.55L74.07,56.23L73.89,56.19L73.68,56.24L73.58,56.30L73.39,56.42L73.29,56.52"/><path d="M81.76,63.23L81.84,63.37L83.04,64.06L83.27,64.18L83.32,64.20L83.61,64.19L83.66,64.19L83.97,64.04L84.00,64.03L84.30,63.77L84.57,63.43L84.76,63.04L84.87,62.64L84.88,62.24L84.78,61.95L84.76,61.91L84.56,61.72L84.53,61.68L83.33,61.00L83.06,60.94L82.75,61.02L82.59,61.12"/></g></g><g id="Actor_.19"><g style="stroke:#000000;stroke-width:0.176"><path d="M38.32,64.39L38.19,64.37"/><path d="M40.88,63.69L40.81,63.71"/><path d="M48.51,45.99L48.58,46.07"/><path d="M49.35,48.49L49.36,48.55"/></g><g style="stroke:#000000;stroke-width:0.529"><path d="M47.87,45.24L48.51,45.99L49.05,47.14L49.35,48.49L49.41,50.07L49.22,51.81L48.78,53.62L48.11,55.45L47.23,57.24L46.16,58.93L44.94,60.47L43.62,61.81L42.22,62.90L40.81,63.71L39.49,64.19L38.18,64.37L37.14,64.25"/><path d="M36.97,64.18L37.08,64.23"/></g></g><g id="Actor_.20"><g style="stroke:#000000;stroke-width:0.176"><path d="M61.87,61.73L61.91,61.46L62.02,61.17L62.18,60.91L62.38,60.70L62.60,60.56"/><path d="M71.51,65.44L71.34,65.55L71.04,65.87L70.79,66.26L70.63,66.68L70.57,67.06"/><path d="M72.81,66.67L72.36,67.14L72.32,67.54L72.45,67.42L72.31,67.57L72.28,67.83L72.80,68.13L73.43,67.48L72.76,67.10L72.81,66.69L72.81,66.67L72.81,66.67L72.80,66.72L72.73,66.97L72.61,67.21L72.45,67.42L72.76,67.10"/><path d="M72.80,68.13L72.27,67.96L72.28,67.83"/><path d="M72.32,67.54L72.31,67.57"/><path d="M72.81,66.67L72.98,66.49L73.51,66.65L73.43,67.48"/></g><g style="stroke:#000000;stroke-width:0.529"><path d="M63.62,63.06L62.00,62.13L61.90,61.96L61.87,61.73L61.87,61.63L61.90,61.39L62.00,61.15L62.14,60.92L62.31,60.74L62.50,60.62L62.60,60.56L62.81,60.51L62.99,60.55L64.79,61.58"/><path d="M70.57,67.06L70.57,67.09L70.62,67.44L70.77,67.69L71.96,68.38L72.20,68.51L72.24,68.52L72.58,68.51L72.90,68.36L72.92,68.35L73.23,68.09L73.49,67.75L73.68,67.36L73.79,66.97L73.80,66.56L73.70,66.27L73.68,66.23L73.49,66.04L73.45,66.00L72.25,65.32L71.98,65.26L71.67,65.34L71.51,65.44"/></g></g><g><g><path style="stroke:#000000;stroke-width:0.125;stroke-dasharray:2.2 1.5 0.7 1.5" d="M59.06,64.29L37.30,51.81"/></g></g><g><g><path style="stroke:#000000;stroke-width:0.125;stroke-dasharray:2.2 1.5 0.7 1.5" d="M64.85,79.30L50.54,87.50"/></g></g><g id="PMI.0"><g><path style="stroke:#000000;stroke-width:0.125" d="M19.01,92.99L29.23,60.43"/></g><g><path style="fill:#000000" d="M29.98,60.43L29.97,60.36L29.96,60.29L29.94,60.21L29.92,60.14L29.89,60.08L29.85,60.02L29.80,59.96L29.76,59.90L29.70,59.85L29.64,59.81L29.58,59.77L29.51,59.74L29.44,59.71L29.37,59.70L29.30,59.69L29.23,59.68L29.15,59.69L29.08,59.70L29.01,59.71L28.94,59.74L28.87,59.77L28.81,59.81L28.75,59.85L28.69,59.90L28.65,59.96L28.60,60.02L28.56,60.08L28.53,60.14L28.51,60.21L28.49,60.29L28.48,60.36L28.48,60.43L28.48,60.51L28.49,60.58L28.51,60.65L28.53,60.72L28.56,60.79L28.60,60.85L28.65,60.91L28.69,60.96L28.75,61.01L28.81,61.06L28.87,61.09L28.94,61.12L29.01,61.15L29.08,61.17L29.15,61.18L29.23,61.18L29.30,61.18L29.37,61.17L29.44,61.15L29.51,61.12L29.58,61.09L29.64,61.06L29.70,61.01L29.76,60.96L29.80,60.91L29.85,60.85L29.89,60.79L29.92,60.72L29.94,60.65L29.96,60.58L29.97,60.51z"/></g><g><text xml:space="preserve" fill="#000000" stroke-width="0" x="8.95" y="98.42" font-size="3.80" opacity="1.00" font-family="Arial">BPA11249</text></g></g><g id="PMI.1"><g><path style="stroke:#000000;stroke-width:0.125" d="M59.74,116.19L69.26,84.73"/></g><g><path style="fill:#000000" d="M70.01,84.73L70.00,84.66L69.99,84.59L69.97,84.52L69.95,84.45L69.92,84.38L69.88,84.32L69.84,84.26L69.79,84.20L69.73,84.15L69.67,84.11L69.61,84.07L69.54,84.04L69.47,84.02L69.40,84.00L69.33,83.99L69.26,83.98L69.18,83.99L69.11,84.00L69.04,84.02L68.97,84.04L68.90,84.07L68.84,84.11L68.78,84.15L68.73,84.20L68.68,84.26L68.63,84.32L68.59,84.38L68.56,84.45L68.54,84.52L68.52,84.59L68.51,84.66L68.51,84.73L68.51,84.81L68.52,84.88L68.54,84.95L68.56,85.02L68.59,85.09L68.63,85.15L68.68,85.21L68.73,85.26L68.78,85.31L68.84,85.36L68.90,85.40L68.97,85.43L69.04,85.45L69.11,85.47L69.18,85.48L69.26,85.48L69.33,85.48L69.40,85.47L69.47,85.45L69.54,85.43L69.61,85.40L69.67,85.36L69.73,85.31L69.79,85.26L69.84,85.21L69.88,85.15L69.92,85.09L69.95,85.02L69.97,84.95L69.99,84.88L70.00,84.81z"/></g><g><text xml:space="preserve" fill="#000000" stroke-width="0" x="51.87" y="121.62" font-size="3.78" opacity="1.00" font-family="Arial">ND1121</text></g></g><g id="PMI.2"><g><path style="stroke:#000000;stroke-width:0.125" d="M40.25,104.50L50.22,88.24"/></g><g><path style="fill:#000000" d="M50.97,88.24L50.97,88.17L50.95,88.10L50.94,88.02L50.91,87.96L50.88,87.89L50.84,87.83L50.80,87.77L50.75,87.71L50.70,87.66L50.64,87.62L50.57,87.58L50.51,87.55L50.44,87.52L50.37,87.51L50.29,87.50L50.22,87.49L50.15,87.50L50.07,87.51L50.00,87.52L49.93,87.55L49.87,87.58L49.80,87.62L49.74,87.66L49.69,87.71L49.64,87.77L49.60,87.83L49.56,87.89L49.53,87.96L49.50,88.02L49.48,88.10L49.47,88.17L49.47,88.24L49.47,88.32L49.48,88.39L49.50,88.46L49.53,88.53L49.56,88.60L49.60,88.66L49.64,88.72L49.69,88.77L49.74,88.82L49.80,88.87L49.87,88.90L49.93,88.94L50.00,88.96L50.07,88.98L50.15,88.99L50.22,88.99L50.29,88.99L50.37,88.98L50.44,88.96L50.51,88.94L50.57,88.90L50.64,88.87L50.70,88.82L50.75,88.77L50.80,88.72L50.84,88.66L50.88,88.60L50.91,88.53L50.94,88.46L50.95,88.39L50.97,88.32z"/></g><g><text xml:space="preserve" fill="#000000" stroke-width="0" x="31.42" y="109.93" font-size="3.78" opacity="1.00" font-family="Arial">ND1241</text></g></g><g/><g><g/><g><text xml:space="preserve" fill="#000000" stroke-width="0" x="7.38" y="11.52" font-size="4.53" opacity="1.00" font-family="Arial" font-weight="bold">BPA28950</text></g></g><g id="paperID" visibility="hidden" opacity="0.00" transform="scale(0.000100)"><path style="stroke:#000000;stroke-width:0.500;fill:#e6e6e6;fill-rule:evenodd" d="M-2000.00,-2000.00L2297.00,-2000.00L2297.00,2210.00L-2000.00,2210.00zM0.00,0.00L297.00,0.00L297.00,210.00L0.00,210.00z"/><path style="fill:#000000;fill-opacity:0.118" d="M3.00,210.00L297.00,210.00L297.00,3.00L300.00,3.00L300.00,213.00L3.00,213.00z"/></g><g id="hotspot.0" onmouseover="ShowHotSpot(evt,'0')" onmouseout="HideHotSpot(evt,'0')" onmousemove="ShowToolTip(evt,'0',&quot;Hotspot 1&quot;)" opacity="0"><a xlink:href=".\BPA11249.svg"><path style="fill:#ff8000;fill-rule:evenodd" d="M31.00,26.72L31.36,26.91L35.58,29.26L37.04,30.91L37.93,32.76L38.61,35.36L50.90,42.43L52.18,43.90L53.09,46.09L53.46,48.65L53.27,51.26L52.54,54.55L51.45,57.29L49.62,60.58L47.61,63.32L46.17,64.80L43.59,66.78L40.80,68.20L38.97,68.56L37.75,68.56L36.46,68.39L28.62,63.97L28.14,64.10L28.07,63.63L23.87,61.23L21.07,61.99L18.19,61.99L16.01,61.25L13.11,59.41L12.01,58.50L10.70,56.52L9.98,53.95L9.74,50.48L10.11,47.37L10.89,44.13L12.48,40.25L14.47,36.75L16.21,34.30L18.69,31.48L21.62,29.11L23.63,27.83L26.54,26.72L27.83,26.55L29.71,26.55zM19.11,93.84L19.06,93.43L19.17,93.34zM27.17,96.13L27.17,98.04L26.72,98.51L25.86,98.53L25.51,98.33L25.45,97.77L25.85,97.78L26.03,98.02L26.57,97.97L26.63,97.60L25.63,97.48L25.49,97.26L25.51,96.01L25.80,95.76L26.80,95.76zM22.97,96.32L22.97,96.75L22.77,97.12L21.77,97.96L22.98,98.15L22.98,98.57L21.05,98.57L21.11,98.02L21.61,97.42L22.23,96.93L22.44,96.31L22.24,96.11L21.79,96.11L21.47,96.57L21.07,96.58L21.10,96.20L21.41,95.76L22.61,95.76zM13.99,96.49L13.76,97.24L12.29,97.41L12.17,98.60L11.76,98.60L11.74,95.77L13.66,95.75zM11.10,95.93L11.26,97.23L11.21,98.34L10.48,98.52L9.19,98.58L9.19,95.77L10.92,95.75zM16.75,98.52L16.20,98.52L15.83,97.79L14.85,97.78L14.54,98.59L14.12,98.59L14.17,98.02L15.04,95.77L15.64,95.77zM19.59,96.67L19.24,96.76L19.30,96.20L19.99,95.74L20.21,95.75L20.20,98.60L19.99,98.60L19.86,96.50zM17.40,96.67L17.04,96.75L17.04,96.34L17.79,95.74L18.02,95.75L18.01,98.60L17.80,98.60L17.67,96.50zM24.73,97.28L24.96,97.45L24.96,97.81L24.74,97.98L24.57,98.60L24.38,98.60L24.23,97.96L23.06,97.84L23.14,97.31L24.37,95.74L24.59,95.75zM26.63,96.30L26.54,97.07L26.07,97.06L25.86,96.86L25.86,96.39L26.18,96.11L26.43,96.10zM13.46,96.49L13.22,96.86L12.29,96.94L12.29,96.13L13.10,96.13zM10.75,96.31L10.68,96.68L9.73,96.75L9.73,96.14L10.56,96.12zM15.66,97.24L15.03,97.30L15.06,96.92L15.25,96.66L15.44,96.67zM24.22,97.31L23.79,97.24L24.16,96.66L24.24,96.68zM10.67,97.97L9.73,98.03L9.73,97.42L10.73,97.42z"/></a></g></g></svg>
