<?xml version="1.0" encoding="UTF-8" standalone="no"?>
<svg xmlns="http://www.w3.org/2000/svg" xmlns:xlink="http://www.w3.org/1999/xlink" width="297.000mm" height="210.000mm" viewBox="0.000000 0.000000 297.000000 210.000000" stroke-linejoin="round" stroke-linecap="round" fill="none" fill-rule="evenodd"><desc>Composer Export</desc><script type="text/ecmascript"><![CDATA[
if(typeof(top) != "undefined")
{
	top.ShowPaper = ShowPaper;
}
function ShowPaper()
{
  var svgDocument = getDocument();
  var paper = svgDocument.getElementById("paperID");
  if(paper)
  {
    paper.setAttribute("transform","scale(1)");
    paper.setAttribute("opacity","1");
    paper.setAttribute("visibility","visible");
  }
  var svg = svgDocument.getRootElement();
  if(svg)
  {
    svg.setAttribute("width","307.000mm");
    svg.setAttribute("height","220.000mm");
    svg.setAttribute("viewBox","-5.000000 -5.000000 307.000000 220.000000");
  }
}
]]></script><defs/><g><path style="fill:#000000;fill-opacity:0.098;fill-rule:evenodd" d="M13.46,44.12L13.68,44.41L12.62,43.94L9.05,41.91L9.05,41.59zM14.64,44.79L14.86,45.08L13.80,44.62L13.68,44.41zM15.82,45.47L16.04,45.76L14.98,45.30L14.86,45.08zM17.01,46.14L17.22,46.43L16.16,45.97L16.04,45.76zM18.19,46.82L18.40,47.11L17.34,46.65L17.22,46.43zM19.37,47.49L19.59,47.78L18.53,47.32L18.40,47.11zM24.94,50.70L25.16,50.99L24.11,50.52L19.71,48.00L19.59,47.78L19.87,47.84zM26.12,51.38L26.34,51.67L25.28,51.21L25.16,50.99zM27.31,52.05L27.52,52.34L26.46,51.88L26.34,51.67zM28.49,52.73L28.70,53.02L27.64,52.56L27.52,52.34zM29.67,53.40L29.89,53.69L28.83,53.23L28.70,53.02zM36.42,57.29L36.64,57.58L35.59,57.11L30.01,53.91L29.89,53.69L30.17,53.75zM37.61,57.96L37.82,58.25L36.76,57.79L36.64,57.58zM38.79,58.64L39.00,58.93L37.94,58.47L37.82,58.25zM39.97,59.31L40.19,59.60L39.13,59.14L39.00,58.93zM41.15,59.99L41.37,60.28L40.31,59.82L40.19,59.60zM47.91,63.87L48.12,64.16L47.07,63.69L41.49,60.49L41.37,60.28L41.65,60.33zM49.09,64.55L49.30,64.84L48.24,64.38L48.12,64.16zM50.27,65.22L50.48,65.51L49.43,65.05L49.30,64.84zM51.45,65.90L51.67,66.19L50.61,65.73L50.48,65.51zM52.63,66.57L52.85,66.86L51.79,66.40L51.67,66.19zM59.39,70.46L59.60,70.75L58.55,70.28L52.97,67.08L52.85,66.86L53.13,66.92zM60.57,71.13L60.78,71.42L59.72,70.96L59.60,70.75zM61.75,71.81L61.97,72.10L60.91,71.64L60.78,71.42zM62.93,72.48L63.15,72.77L62.09,72.31L61.97,72.10zM64.11,73.16L64.33,73.45L63.27,72.99L63.15,72.77zM69.69,76.37L69.90,76.66L68.85,76.19L64.45,73.66L64.33,73.45L64.62,73.50zM70.87,77.04L71.08,77.33L70.02,76.87L69.90,76.66zM72.05,77.72L72.27,78.01L71.21,77.55L71.08,77.33zM73.23,78.39L73.45,78.68L72.39,78.22L72.27,78.01zM74.41,79.07L74.63,79.36L73.57,78.90L73.45,78.68zM75.60,79.74L75.81,80.03L74.75,79.57L74.63,79.36zM81.17,82.95L81.38,83.24L80.33,82.77L75.93,80.25L75.81,80.03L76.10,80.09zM82.35,83.63L82.57,83.92L81.51,83.46L81.38,83.24zM83.53,84.30L83.75,84.59L82.69,84.13L82.57,83.92zM84.71,84.98L84.93,85.27L83.87,84.81L83.75,84.59zM85.90,85.65L86.11,85.94L85.05,85.48L84.93,85.27zM92.65,89.53L92.87,89.83L91.81,89.36L86.23,86.16L86.11,85.94L86.40,86.00zM93.83,90.21L94.05,90.50L92.99,90.04L92.87,89.83zM95.01,90.89L95.23,91.18L94.17,90.72L94.05,90.50zM96.20,91.56L96.41,91.85L95.35,91.39L95.23,91.18zM97.38,92.24L97.59,92.53L96.53,92.07L96.41,91.85zM104.13,96.12L104.35,96.41L103.30,95.94L97.72,92.74L97.59,92.53L97.88,92.58zM105.31,96.80L105.53,97.09L104.47,96.63L104.35,96.41zM106.49,97.47L106.71,97.76L105.65,97.30L105.53,97.09zM107.68,98.15L107.89,98.44L106.83,97.98L106.71,97.76zM108.86,98.82L109.07,99.11L108.01,98.65L107.89,98.44zM114.43,102.03L114.65,102.32L113.59,101.85L109.20,99.33L109.07,99.11L109.36,99.17zM115.61,102.71L115.83,103.00L114.77,102.54L114.65,102.32zM116.79,103.38L117.01,103.67L115.95,103.21L115.83,103.00zM117.98,104.06L118.19,104.35L117.13,103.89L117.01,103.67zM119.16,104.73L119.37,105.02L118.31,104.56L118.19,104.35zM120.34,105.41L120.56,105.70L119.50,105.24L119.37,105.02zM125.91,108.61L126.13,108.91L125.08,108.44L120.68,105.91L120.56,105.70L120.84,105.75zM127.09,109.29L127.31,109.58L126.25,109.12L126.13,108.91zM128.28,109.97L128.49,110.26L127.43,109.80L127.31,109.58zM129.46,110.64L129.67,110.93L128.61,110.47L128.49,110.26zM130.64,111.32L130.86,111.61L129.80,111.15L129.67,110.93zM131.82,111.99L132.04,112.28L130.98,111.82L130.86,111.61zM137.39,115.20L137.61,115.49L136.56,115.02L132.16,112.50L132.04,112.28L132.32,112.34zM138.58,115.88L138.79,116.17L137.73,115.71L137.61,115.49zM139.76,116.55L139.97,116.84L138.91,116.38L138.79,116.17zM140.94,117.23L141.16,117.52L140.10,117.06L139.97,116.84zM142.12,117.90L142.34,118.19L141.28,117.73L141.16,117.52zM148.88,121.78L149.09,122.08L148.04,121.61L142.46,118.41L142.34,118.19L142.62,118.24zM150.06,122.46L150.27,122.75L149.21,122.29L149.09,122.08zM151.24,123.14L151.45,123.43L150.40,122.97L150.27,122.75zM152.42,123.81L152.64,124.10L151.58,123.64L151.45,123.43zM153.60,124.49L153.82,124.78L152.76,124.32L152.64,124.10zM160.36,128.37L160.57,128.66L159.52,128.19L153.94,124.99L153.82,124.78L154.10,124.83zM161.54,129.05L161.75,129.34L160.69,128.88L160.57,128.66zM162.72,129.72L162.94,130.01L161.88,129.55L161.75,129.34zM163.90,130.40L164.12,130.69L163.06,130.23L162.94,130.01zM165.08,131.07L165.30,131.36L164.24,130.90L164.12,130.69zM170.66,134.28L170.87,134.57L169.82,134.10L165.42,131.58L165.30,131.36L165.59,131.41zM171.84,134.96L172.05,135.25L170.99,134.79L170.87,134.57zM173.02,135.63L173.24,135.92L172.18,135.46L172.05,135.25zM174.20,136.31L174.42,136.60L173.36,136.14L173.24,135.92zM175.38,136.98L175.60,137.27L174.54,136.81L174.42,136.60zM176.57,137.66L176.78,137.95L175.72,137.49L175.60,137.27zM182.14,140.86L182.35,141.16L181.30,140.69L176.90,138.16L176.78,137.95L177.07,138.00zM183.32,141.54L183.54,141.83L182.48,141.37L182.35,141.16zM184.50,142.22L184.72,142.51L183.66,142.05L183.54,141.83zM185.68,142.89L185.90,143.18L184.84,142.72L184.72,142.51zM186.87,143.57L187.08,143.86L186.02,143.40L185.90,143.18zM193.62,147.45L193.84,147.74L192.78,147.27L187.20,144.07L187.08,143.86L187.37,143.91zM194.80,148.13L195.02,148.42L193.96,147.96L193.84,147.74zM195.98,148.80L196.20,149.09L195.14,148.63L195.02,148.42zM197.16,149.48L197.38,149.77L196.32,149.31L196.20,149.09zM198.35,150.15L198.56,150.44L197.50,149.98L197.38,149.77zM205.10,154.03L205.32,154.33L204.26,153.86L198.69,150.66L198.56,150.44L198.85,150.49zM206.28,154.71L206.50,155.00L205.44,154.54L205.32,154.33zM207.46,155.39L207.68,155.68L206.62,155.22L206.50,155.00zM208.65,156.06L208.86,156.35L207.80,155.89L207.68,155.68zM209.83,156.74L210.04,157.03L208.98,156.57L208.86,156.35zM216.58,160.62L216.80,160.91L215.75,160.44L210.17,157.24L210.04,157.03L210.33,157.08zM217.76,161.29L217.98,161.59L216.92,161.13L216.80,160.91zM218.95,161.97L219.16,162.26L218.10,161.80L217.98,161.59zM220.13,162.65L220.34,162.94L219.28,162.48L219.16,162.26zM221.31,163.32L221.53,163.61L220.47,163.15L220.34,162.94zM226.88,166.53L227.10,166.82L226.05,166.35L221.65,163.83L221.53,163.61L221.81,163.66zM228.06,167.20L228.28,167.50L227.22,167.04L227.10,166.82zM229.25,167.88L229.46,168.17L228.40,167.71L228.28,167.50zM230.43,168.56L230.64,168.85L229.58,168.39L229.46,168.17zM231.61,169.23L231.83,169.52L230.77,169.06L230.64,168.85zM232.79,169.91L233.01,170.20L231.95,169.74L231.83,169.52zM238.36,173.11L238.58,173.40L237.53,172.94L233.13,170.41L233.01,170.20L233.29,170.25zM239.55,173.79L239.76,174.08L238.70,173.62L238.58,173.40zM240.73,174.46L240.94,174.76L239.88,174.30L239.76,174.08zM241.91,175.14L242.13,175.43L241.07,174.97L240.94,174.76zM243.09,175.82L243.31,176.11L242.25,175.65L242.13,175.43zM249.85,179.70L250.06,179.99L249.01,179.52L243.43,176.32L243.31,176.11L243.59,176.16zM251.03,180.37L251.24,180.67L250.18,180.21L250.06,179.99zM252.21,181.05L252.42,181.34L251.36,180.88L251.24,180.67zM253.39,181.73L253.61,182.02L252.55,181.56L252.42,181.34zM254.57,182.40L254.79,182.69L253.73,182.23L253.61,182.02zM261.33,186.28L261.54,186.57L260.49,186.11L254.91,182.91L254.79,182.69L255.07,182.74zM262.51,186.96L262.72,187.25L261.66,186.79L261.54,186.57zM263.69,187.63L263.91,187.93L262.85,187.47L262.72,187.25zM264.87,188.31L265.09,188.60L264.03,188.14L263.91,187.93zM266.05,188.99L266.27,189.28L265.21,188.82L265.09,188.60zM272.81,192.87L273.03,193.17L271.11,192.21L266.39,189.49L266.27,189.28L266.56,189.33zM276.02,190.50L276.01,191.76L275.67,192.60L275.20,192.97L275.84,191.58L275.86,191.01L275.16,190.50L274.77,190.49L274.07,191.17L273.63,192.08L273.62,193.07L273.76,193.27L274.76,193.20L275.20,192.97L274.77,193.55L273.81,193.74L273.14,193.38L273.03,193.17L273.31,193.10L273.41,191.86L274.08,190.84L274.93,190.17L275.68,190.17zM287.67,197.43L287.66,198.51L287.32,199.35L286.43,200.15L285.45,200.15L285.07,199.80L285.57,198.11L286.63,197.14L287.33,197.09zM284.58,199.27L284.78,199.31L284.81,199.50L284.62,199.47zM275.86,191.01L275.84,191.58L275.20,192.97L274.76,193.20L273.76,193.27L273.62,193.07L273.63,192.08L274.07,191.17L274.77,190.49L275.16,190.50zM287.16,198.10L287.16,198.85L286.82,199.35L286.42,199.65L285.96,199.66L285.75,199.52L285.79,198.49L286.42,197.75L286.81,197.76z"/><g id="Actor_.0"><g style="stroke:#000000;stroke-width:0.176"><path d="M285.47,200.14L285.27,199.83L285.23,199.56L285.20,199.39L285.27,198.87L285.47,198.33L285.78,197.83L286.16,197.41"/><path d="M284.92,199.56L284.86,199.20L284.93,198.68L285.13,198.14L285.44,197.63L285.67,197.39"/><path d="M285.65,199.35L285.61,199.10L285.61,199.12"/><path d="M285.65,199.34L285.75,199.49"/><path d="M285.61,199.10L285.65,198.78L285.78,198.43L285.99,198.10L286.24,197.82L286.51,197.64"/><path d="M286.48,197.66L286.73,197.59"/><path d="M286.69,197.60L286.88,197.64"/><path d="M287.34,197.08L286.99,197.02L286.59,197.13"/></g><g style="stroke:#000000;stroke-width:0.529"><path d="M285.45,196.51L285.38,196.52L285.03,196.69L284.68,196.98L284.38,197.38L284.17,197.83L284.05,198.29L284.04,198.50L284.05,198.70L284.17,199.02L284.23,199.10L284.45,199.30L284.92,199.56L284.93,199.64L285.13,199.95L285.47,200.14L285.78,200.30L286.16,200.27L286.58,200.07L286.99,199.72L287.34,199.25L287.60,198.72L287.73,198.18L287.73,197.70L287.60,197.32L287.34,197.08L287.00,196.89L286.65,196.82L286.52,196.86"/></g></g><g id="Actor_.1"><g style="stroke:#000000;stroke-width:0.176"><path d="M273.56,193.57L273.34,193.22L273.26,192.72L273.34,192.14L273.56,191.53L273.91,190.96L274.34,190.50L274.81,190.18L274.96,190.14L275.27,190.06L275.66,190.13"/><path d="M273.60,192.97L273.78,193.25L274.06,193.39L274.41,193.37L274.79,193.19L275.16,192.87L275.48,192.44L275.71,191.96L275.84,191.47L275.84,191.03L275.71,190.68L275.48,190.47L275.16,190.41L274.79,190.51L274.41,190.77L274.06,191.14L273.78,191.60L273.60,192.10L273.53,192.57L273.60,192.97"/></g><g style="stroke:#000000;stroke-width:0.529"><path d="M9.28,41.98L9.04,41.84L8.81,41.49L8.74,41.00L8.81,40.42L9.04,39.81L9.39,39.24L9.82,38.77L10.29,38.46L10.74,38.33L11.14,38.40L275.66,190.13L275.95,190.39L276.10,190.82L276.10,191.37L275.95,191.97L275.64,192.60L275.27,193.09L274.81,193.49L274.34,193.71L273.91,193.74L273.56,193.57L9.28,41.98"/></g></g><g><g><path style="stroke:#000000;stroke-width:0.125;stroke-dasharray:2.0 1.4 0.7 1.4" d="M274.34,191.71L284.35,197.45"/></g></g><g id="PMI.0"><g><path style="stroke:#000000;stroke-width:0.125" d="M277.46,161.33L286.16,197.41"/></g><g><path style="fill:#000000" d="M286.91,197.41L286.91,197.34L286.90,197.26L286.88,197.19L286.86,197.12L286.82,197.06L286.79,196.99L286.74,196.93L286.69,196.88L286.64,196.83L286.58,196.79L286.52,196.75L286.45,196.72L286.38,196.69L286.31,196.67L286.24,196.66L286.16,196.66L286.09,196.66L286.02,196.67L285.94,196.69L285.88,196.72L285.81,196.75L285.75,196.79L285.69,196.83L285.63,196.88L285.58,196.93L285.54,196.99L285.50,197.06L285.47,197.12L285.44,197.19L285.43,197.26L285.42,197.34L285.41,197.41L285.42,197.48L285.43,197.56L285.44,197.63L285.47,197.70L285.50,197.76L285.54,197.83L285.58,197.89L285.63,197.94L285.69,197.99L285.75,198.03L285.81,198.07L285.88,198.10L285.94,198.13L286.02,198.15L286.09,198.16L286.16,198.16L286.24,198.16L286.31,198.15L286.38,198.13L286.45,198.10L286.52,198.07L286.58,198.03L286.64,197.99L286.69,197.94L286.74,197.89L286.79,197.83L286.82,197.76L286.86,197.70L286.88,197.63L286.90,197.56L286.91,197.48z"/></g><g><text xml:space="preserve" fill="#000000" stroke-width="0" x="268.38" y="160.55" font-size="3.81" opacity="1.00" font-family="Arial">MBB0013</text></g></g><g/><g><g/><g><text xml:space="preserve" fill="#000000" stroke-width="0" x="4.84" y="9.18" font-size="4.53" opacity="1.00" font-family="Arial" font-weight="bold">BPA27883</text></g></g><g id="paperID" visibility="hidden" opacity="0.00" transform="scale(0.000100)"><path style="stroke:#000000;stroke-width:0.500;fill:#e6e6e6;fill-rule:evenodd" d="M-2000.00,-2000.00L2297.00,-2000.00L2297.00,2210.00L-2000.00,2210.00zM0.00,0.00L297.00,0.00L297.00,210.00L0.00,210.00z"/><path style="fill:#000000;fill-opacity:0.118" d="M3.00,210.00L297.00,210.00L297.00,3.00L300.00,3.00L300.00,213.00L3.00,213.00z"/></g></g></svg>
