<?xml version="1.0" encoding="UTF-8" standalone="no"?>
<svg xmlns="http://www.w3.org/2000/svg" xmlns:xlink="http://www.w3.org/1999/xlink" width="297.000mm" height="210.000mm" viewBox="0.000000 0.000000 297.000000 210.000000" stroke-linejoin="round" stroke-linecap="round" fill="none" fill-rule="evenodd"><desc>Composer Export</desc><script type="text/ecmascript"><![CDATA[
if(typeof(top) != "undefined")
{
	top.ShowPaper = ShowPaper;
}
function ShowPaper()
{
  var svgDocument = getDocument();
  var paper = svgDocument.getElementById("paperID");
  if(paper)
  {
    paper.setAttribute("transform","scale(1)");
    paper.setAttribute("opacity","1");
    paper.setAttribute("visibility","visible");
  }
  var svg = svgDocument.getRootElement();
  if(svg)
  {
    svg.setAttribute("width","307.000mm");
    svg.setAttribute("height","220.000mm");
    svg.setAttribute("viewBox","-5.000000 -5.000000 307.000000 220.000000");
  }
}
]]></script><defs/><g><path style="fill:#000000;fill-opacity:0.098;fill-rule:evenodd" d="M159.66,24.77L159.62,21.67L161.47,20.99L163.16,20.66L166.26,20.54L167.46,17.69L167.95,16.94L167.95,20.21L167.22,21.84L166.26,23.75L165.23,23.91L165.08,36.25L164.84,36.85L164.16,37.52L162.83,38.22L160.11,38.22L160.69,38.10L160.69,24.70zM129.80,42.24L128.89,42.34L128.89,39.23L130.91,38.55L132.94,38.22L135.64,38.05L136.54,35.74L137.22,34.67L137.22,37.77L137.04,38.10L136.54,39.63L136.15,40.25L135.65,41.26L134.46,41.60L134.35,54.15L133.94,54.76L132.27,55.79L131.42,55.95L130.06,56.01L129.98,42.42zM162.04,50.53L162.04,51.62L160.12,51.72L158.66,52.28L157.65,53.15L157.66,51.96L158.09,51.38L159.33,50.76L159.95,50.54L161.20,50.39zM168.83,53.32L168.62,54.99L167.54,56.27L165.87,57.30L163.51,57.98L160.12,58.03L160.12,56.95L163.16,56.79L164.86,56.46L166.37,55.78L167.79,54.83L168.62,53.63L168.79,53.23zM189.05,71.31L189.37,73.32L189.22,74.58L188.57,75.95L186.10,77.55L186.53,80.44L186.19,83.53L185.43,85.14L184.26,86.50L182.93,87.19L181.90,87.35L179.53,87.33L179.07,87.74L179.20,86.51L179.26,83.30L178.58,80.27L177.40,77.39L176.04,74.86L175.18,73.67L175.16,73.49L176.73,72.98L177.56,74.02L178.88,76.27L179.38,76.22L181.06,75.17L181.29,75.17L181.46,75.34L182.12,77.06L182.48,77.79L185.68,76.59L185.68,76.04L184.83,73.84L184.25,72.64L188.21,70.34L188.23,69.96L188.02,69.63L188.02,69.11zM131.31,69.18L129.73,69.28L128.04,69.79L126.92,70.71L126.90,69.66L127.70,68.77L129.39,68.10L131.31,68.09zM129.40,75.58L129.39,74.51L132.78,74.35L134.30,74.02L136.56,72.91L137.65,71.80L138.06,70.96L138.01,72.16L137.38,73.39L135.86,74.57L133.79,75.37L131.59,75.70L129.77,75.71zM164.78,74.60L164.56,75.93L164.56,75.08L164.74,74.50zM172.40,79.33L172.84,80.94L172.68,82.35L171.78,83.13L171.34,86.75L167.77,88.75L166.37,89.04L165.36,89.38L164.35,89.89L162.36,89.89L161.97,89.71L163.68,89.55L164.40,89.10L165.03,87.87L165.24,87.07L165.42,85.16L165.41,83.35L166.60,82.80L167.11,83.96L167.44,85.90L167.76,83.34L168.05,82.95L171.18,81.17L171.17,80.77L170.97,80.43L170.98,79.81L172.12,79.22zM173.29,79.57L173.68,79.57L174.02,80.94L174.02,82.34L173.86,83.02L173.29,83.98L172.77,83.97L173.47,82.97L173.52,80.59L173.33,80.10zM158.97,81.61L158.61,82.15L158.25,82.17L158.41,81.76L158.78,81.24L159.00,81.26zM164.06,85.32L164.24,87.08L164.00,87.51L161.28,89.20L159.97,89.21L159.79,89.03L160.69,88.76L161.20,87.75L161.30,87.01L162.04,86.85L161.68,85.67L161.63,85.17L163.56,84.15zM145.66,93.59L146.67,94.27L147.36,95.10L147.85,95.96L148.36,97.99L148.37,104.80L136.20,105.94L134.02,104.73L133.82,104.40L133.63,104.38L120.67,111.89L120.51,128.61L116.46,135.70L106.15,141.62L106.15,122.52L106.47,120.15L107.44,117.40L109.11,114.35L110.97,111.99L112.22,110.87L113.86,109.64L141.38,93.93L142.90,93.43L144.98,93.43zM177.42,116.04L177.56,117.25L177.91,118.34L176.33,119.28L176.06,119.27L174.88,117.56L174.86,116.78L175.55,115.78L176.90,115.71zM191.25,125.33L188.99,126.71L188.55,126.71L185.12,118.07L187.48,116.71L187.86,116.72zM167.29,121.78L167.43,122.65L167.79,123.83L167.79,124.20L165.52,125.54L165.20,125.57L164.89,124.68L164.67,123.16L165.07,122.01L165.69,121.45L166.77,121.45zM178.92,125.17L181.14,131.15L179.04,132.45L178.54,132.50L175.18,124.15L175.14,123.83L177.52,122.44L177.73,122.46zM127.59,122.81L127.75,123.83L128.11,125.01L128.05,125.33L126.02,126.53L125.52,126.59L125.22,125.86L125.00,124.33L125.34,123.14L126.01,122.63L127.27,122.63zM129.98,125.48L130.30,126.42L129.96,126.38L129.12,125.66L128.78,125.16L128.77,124.65zM171.83,140.95L171.82,141.37L173.00,142.79L167.38,145.94L166.37,146.28L164.90,146.29L162.56,145.08L157.09,141.89L157.59,141.72L158.50,141.71L162.56,144.09L162.88,144.15L162.87,141.26L165.24,141.04L165.57,142.06L165.93,142.56L166.59,142.92L167.61,142.79L171.96,140.35L172.15,140.34zM189.90,134.86L174.47,143.77L174.13,143.75L179.42,136.36L194.76,127.52L194.95,127.51zM132.68,149.36L131.25,149.32L129.90,149.66L126.86,151.36L126.59,151.35L125.72,150.34L125.72,149.36L126.52,148.47L129.90,146.62L131.08,146.28L132.66,146.27zM133.44,164.06L133.44,161.13L135.48,160.97L136.48,160.63L150.23,152.77L151.23,151.90L152.24,150.21L152.58,149.03L152.69,142.22L155.29,142.05L155.28,147.18L155.11,148.53L154.60,150.21L153.76,152.07L152.53,153.71L151.58,154.79L150.34,155.74L137.16,163.33L135.65,164.02L134.28,164.18zM148.86,182.07L149.54,184.10L149.54,186.69L148.87,188.04L147.12,189.16L146.43,189.67L146.67,190.85L146.67,194.62L146.51,195.47L145.94,196.93L144.74,198.44L143.08,199.31L139.68,199.44L139.39,199.86L139.40,199.35L139.58,198.50L139.58,195.41L138.90,192.38L137.72,189.33L136.03,186.46L135.50,185.79L135.52,185.51L136.65,185.10L137.21,185.11L137.57,185.60L139.20,188.38L139.75,188.21L141.38,187.29L141.61,187.28L141.78,187.46L142.62,189.68L143.25,189.68L146.00,188.71L146.00,188.15L144.60,184.60L148.55,182.31L148.35,181.74L148.35,181.23zM124.95,187.25L125.05,186.31L125.25,186.13zM124.89,188.05L124.85,187.32L124.95,187.25zM134.01,191.67L134.34,193.05L134.34,194.45L134.18,195.13L133.45,196.12L133.10,196.09L133.67,195.30L133.84,194.79L133.84,192.71L133.65,192.21L133.67,191.57L133.86,191.51zM132.83,191.70L133.17,193.43L132.83,194.63L132.15,195.13L131.81,198.00L131.81,198.79L128.22,200.82L126.52,201.15L124.51,202.01L122.68,202.01L122.41,201.77L124.00,201.67L125.06,200.70L125.56,199.18L125.52,195.57L126.70,194.88L126.91,194.90L127.43,196.08L127.76,198.01L128.08,195.45L128.38,195.07L131.48,193.26L131.50,192.88L131.09,192.03L132.27,191.34L132.65,191.35zM119.16,193.95L118.63,194.29L118.62,193.95L119.28,193.19L119.47,193.19zM124.39,197.43L124.56,199.01L124.32,199.63L122.30,200.81L121.61,201.32L120.67,201.33L120.10,201.16L121.03,200.72L121.35,200.37L121.45,199.12L122.20,199.02L122.19,198.28L122.00,197.78L121.96,197.28L123.66,196.24L123.88,196.22z"/><g id="Actor_.0"><g style="stroke:#000000;stroke-width:0.176"><path d="M106.07,141.68L106.07,123.29L106.17,121.79L106.46,120.22L106.81,119.04L106.94,118.62L107.59,117.01L108.40,115.45L109.34,113.97L110.41,112.61L111.56,111.39L112.77,110.36L114.01,109.54L140.47,94.36L141.71,93.76L142.92,93.41L144.00,93.30L144.07,93.30L145.13,93.44L146.08,93.84"/><path d="M131.21,105.80L133.85,104.29L133.85,104.59"/></g><g style="stroke:#000000;stroke-width:0.529"><path d="M148.41,104.80L148.41,99.00L148.31,97.62L148.02,96.39L147.54,95.33L146.89,94.47L146.08,93.84L143.44,92.32L142.49,91.92L141.43,91.78L140.28,91.89L139.06,92.25L137.82,92.84L111.36,108.02L110.12,108.85L108.91,109.88L107.76,111.09L106.70,112.45L105.75,113.94L104.94,115.49L104.29,117.10L103.81,118.70L103.52,120.27L103.43,121.77L103.43,140.16L106.07,141.68L116.39,135.76L120.62,128.43L120.62,111.87L131.21,105.80"/></g></g><g id="Actor_.1"><g style="stroke:#000000;stroke-width:0.176"><path d="M171.75,74.07L171.01,73.45L169.88,72.75L168.75,72.31L167.68,72.16L166.71,72.30L165.87,72.72L165.20,73.41L164.73,74.34L164.47,75.47L164.45,75.93"/><path d="M178.77,88.32L179.18,86.91L179.36,85.32L179.29,83.59L179.00,81.75L178.48,79.86L177.74,77.97L176.81,76.12L176.28,75.22L175.71,74.36L174.46,72.74L173.11,71.30L171.68,70.08L170.22,69.10L168.76,68.40L167.33,67.99L165.98,67.89"/><path d="M168.05,68.01L168.92,68.06L170.09,68.15L171.33,68.51L172.60,69.12L173.88,69.96L175.12,71.03L176.29,72.28L177.37,73.69L177.87,74.44L178.33,75.22L179.14,76.83L179.78,78.47L180.24,80.12L180.49,81.71L180.55,83.22L180.40,84.61L180.04,85.82L179.21,87.47"/><path d="M168.41,67.81L169.72,67.06L170.74,66.75L171.87,66.71L173.08,66.93L174.35,67.41L175.62,68.14L176.88,69.10L177.97,70.14L178.10,70.26L179.23,71.60L180.25,73.07L181.14,74.65L181.86,76.28L182.41,77.93L182.77,79.56L182.81,79.89L182.93,81.12L182.88,82.57L182.62,83.87L182.17,85.00L181.54,85.91L180.73,86.60L179.57,87.26"/><path d="M168.92,68.06L168.90,68.06"/><path d="M175.86,81.20L176.04,82.60L176.00,83.90L175.74,85.03L175.27,85.96L174.60,86.65L173.76,87.07L172.79,87.21L171.72,87.06L171.16,86.84"/></g><g style="stroke:#000000;stroke-width:0.529"><path d="M182.96,70.46L182.24,69.43L180.94,67.90L179.55,66.56L178.10,65.46L176.63,64.62L175.18,64.06L173.79,63.81L172.49,63.85L171.31,64.20L170.30,64.85L169.47,65.78L168.84,66.95L168.41,67.81L168.05,68.01L165.98,67.89L164.74,68.09L163.64,68.59L162.71,69.38L161.98,70.43L161.46,71.73L161.17,73.23L161.11,74.90L161.29,76.69L161.38,77.08"/><path d="M183.88,71.95L184.44,72.94L185.28,74.81L185.91,76.71L186.32,78.58L186.50,80.38L186.44,82.04L186.15,83.54L185.63,84.84L184.90,85.89L183.97,86.68L182.87,87.18L181.63,87.38L179.57,87.26L179.21,87.47L178.77,88.32L178.15,89.50L177.31,90.42L176.30,91.07L175.13,91.42L173.83,91.47L172.43,91.21L170.98,90.65L169.51,89.81L168.06,88.71L168.00,88.65"/><path d="M175.86,81.20L175.46,79.72L174.86,78.25L174.09,76.84L173.16,75.54L172.13,74.39L171.75,74.07"/></g></g><g id="Actor_.2"><g style="stroke:#000000;stroke-width:0.176"><path d="M132.06,186.15L131.33,185.53L130.19,184.83L129.06,184.39L127.99,184.24L127.02,184.38L126.19,184.79L125.52,185.49L125.04,186.42L124.78,187.55L124.76,188.01"/><path d="M139.09,200.39L139.49,198.99L139.67,197.40L139.61,195.67L139.31,193.83L138.79,191.94L138.05,190.05L137.12,188.19L136.59,187.30L136.02,186.44L134.78,184.82L133.42,183.38L132.00,182.15L130.53,181.18L129.07,180.48L127.64,180.07L126.29,179.97"/><path d="M128.36,180.09L129.23,180.14L130.40,180.23L131.64,180.59L132.91,181.19L134.19,182.04L135.43,183.10L136.61,184.36L137.69,185.77L138.18,186.52L138.64,187.29L139.45,188.90L140.09,190.55L140.55,192.20L140.81,193.79L140.86,195.30L140.71,196.68L140.35,197.90L139.52,199.54"/><path d="M129.23,180.14L129.22,180.14"/><path d="M139.88,199.34L141.04,198.68L141.85,197.99L142.49,197.08L142.94,195.95L143.19,194.64L143.24,193.19L143.12,192.03L143.08,191.64L142.73,190.01L142.18,188.36L141.45,186.73L140.56,185.15L139.54,183.68L138.41,182.34L138.28,182.22L137.20,181.18L135.93,180.22L134.66,179.49L133.40,179.01L132.19,178.79L131.06,178.83L130.04,179.13L128.72,179.88"/><path d="M131.47,198.92L132.03,199.13L133.10,199.29L134.07,199.15L134.91,198.73L135.58,198.04L136.05,197.11L136.31,195.97L136.36,194.68L136.18,193.28"/></g><g style="stroke:#000000;stroke-width:0.529"><path d="M121.69,189.15L121.61,188.77L121.43,186.97L121.48,185.31L121.77,183.81L122.02,183.18"/><path d="M128.31,200.73L128.38,200.79L129.83,201.89L131.30,202.73L132.75,203.29L134.14,203.54L135.44,203.50L136.61,203.14L137.63,202.50L138.46,201.57L139.09,200.39L139.52,199.54L139.88,199.34L141.95,199.46L143.19,199.26L144.28,198.76L145.21,197.97L145.94,196.92L146.46,195.62L146.75,194.12L146.81,192.45L146.63,190.66L146.22,188.79L145.59,186.89L144.75,185.01L143.73,183.20L142.56,181.51L141.25,179.97L139.86,178.64L138.41,177.54L136.94,176.70L135.49,176.14L134.10,175.88L132.80,175.93L131.63,176.28L130.61,176.93L129.78,177.85L129.15,179.03L128.72,179.88L128.36,180.09L126.29,179.97L125.05,180.17L123.95,180.67L123.03,181.46L122.43,182.31"/><path d="M132.06,186.15L132.44,186.47L133.47,187.61L134.40,188.92L135.18,190.33L135.78,191.80L136.18,193.28"/></g></g><g id="Actor_.3"><g style="stroke:#000000;stroke-width:0.176"><path d="M155.29,141.94L152.64,142.19L152.64,148.32L152.55,149.17L152.28,150.06L151.86,150.94L151.32,151.74L150.68,152.41L149.99,152.91L136.76,160.50L135.99,160.84L135.09,161.05L134.12,161.12L133.15,161.05L132.25,160.84L131.47,160.50L127.72,158.34L102.38,143.81L101.77,143.36L101.40,142.84L101.27,142.28"/><path d="M120.89,111.72L123.53,113.24L157.91,109.97L159.46,109.97L161.10,110.26L162.79,110.85L164.52,111.71L166.25,112.83L167.94,114.19L169.58,115.78L171.14,117.55L172.57,119.49L173.87,121.56L175.02,123.72L175.98,125.94L178.58,132.65L181.22,131.13"/><path d="M123.53,113.24L126.18,111.72"/><path d="M134.59,149.90L135.29,149.38L135.66,148.81L135.73,148.20L135.51,147.60L135.00,147.07L134.24,146.64L133.88,146.52L133.31,146.34L132.27,146.21L131.21,146.26L130.21,146.47L129.36,146.84L126.71,148.35L126.07,148.84L125.70,149.42L125.62,150.02L125.85,150.62L126.36,151.16L126.76,151.39"/><path d="M130.53,127.82L130.43,128.53L130.11,129.17L129.59,129.57L128.92,129.68L128.16,129.50L127.37,129.05L126.61,128.36L125.95,127.48L125.43,126.49L125.10,125.47L124.99,124.50L125.10,123.65L125.43,123.01L125.95,122.61L126.61,122.50L127.37,122.68L127.65,122.84"/><path d="M170.22,126.68L170.12,127.38L169.79,128.03L169.28,128.42L168.61,128.54L167.85,128.36L167.06,127.90L166.30,127.21L165.64,126.33L165.12,125.35L164.79,124.32L164.68,123.35L164.79,122.51L165.12,121.87L165.64,121.47L166.30,121.36L167.06,121.53L167.34,121.70"/></g><g style="stroke:#000000;stroke-width:0.529"><path d="M103.43,140.16L102.38,140.76L101.77,141.21L101.40,141.73L101.27,142.28L101.27,145.35L101.40,145.90L101.77,146.42L102.38,146.87L131.47,163.56L132.25,163.90L133.15,164.12L134.12,164.19L135.09,164.12L135.99,163.90L136.76,163.56L149.99,155.97L151.03,155.26L152.02,154.34L152.93,153.25L153.74,152.03L154.39,150.72L154.88,149.38L155.18,148.06L155.29,146.81L155.29,141.94L172.26,140.33"/><path d="M123.53,110.21L126.18,111.72L160.55,108.45L162.10,108.45L163.74,108.75L165.44,109.33L167.17,110.19L168.89,111.31L170.59,112.68L172.23,114.26L173.78,116.04L175.22,117.98L176.52,120.04L177.66,122.20L178.62,124.42L181.22,131.13"/><path d="M127.13,151.18L126.76,151.39L127.11,151.59L128.05,151.88L129.09,152.01L130.15,151.97L131.15,151.76L132.00,151.39L134.59,149.90L134.24,149.70L133.31,149.41L132.27,149.28L131.21,149.32L130.21,149.54L129.36,149.90L127.13,151.18"/><path d="M128.08,124.97L127.75,123.95L127.64,122.98L127.65,122.84L128.16,123.13L128.92,123.82L129.59,124.70L130.11,125.69L130.43,126.71L130.55,127.68L130.53,127.82L130.02,127.53L129.26,126.84L128.59,125.96L128.08,124.97"/><path d="M167.39,122.41L167.44,122.81L167.76,123.83L168.28,124.82L168.95,125.69L169.71,126.39L170.22,126.68L170.23,126.54L170.12,125.57L169.79,124.55L169.28,123.56L168.61,122.68L167.85,121.99L167.34,121.70L167.32,121.83L167.39,122.41"/></g></g><g id="Actor_.4"><g style="stroke:#000000;stroke-width:0.176"><path d="M176.99,133.56L179.28,136.40L173.99,143.99"/><path d="M179.28,136.40L195.15,127.30"/></g><g style="stroke:#000000;stroke-width:0.529"><path d="M172.13,141.67L171.70,141.14L176.99,133.56L192.86,124.45L195.15,127.30L189.86,134.88L173.99,143.99L172.13,141.67"/></g></g><g id="Actor_.5"><g style="stroke:#000000;stroke-width:0.176"><path d="M130.94,105.96L133.59,107.47L136.24,105.96"/><path d="M133.59,107.47L167.96,104.20L169.51,104.20L171.15,104.50L172.85,105.08L174.57,105.94L176.30,107.06L178.00,108.43L179.64,110.01L181.19,111.79L182.63,113.73L183.93,115.79L185.07,117.96L186.03,120.17L188.63,126.88L191.28,125.36"/><path d="M164.24,146.00L163.59,145.45L163.10,144.67L162.80,143.70L162.69,142.56L162.69,141.24"/><path d="M171.86,140.36L167.99,142.59L167.30,142.88L166.66,142.94L166.50,142.88L166.11,142.76L165.69,142.37L165.43,141.78L165.34,140.98"/><path d="M177.40,115.93L177.11,115.77L176.36,115.59L175.69,115.70L175.17,116.10L174.84,116.74L174.76,117.36"/><path d="M177.80,122.53L177.91,122.59L178.66,122.77L179.33,122.65L179.85,122.26L180.18,121.61L180.27,120.91"/></g><g style="stroke:#000000;stroke-width:0.529"><path d="M130.39,126.59L129.85,126.27L129.19,125.72L128.70,124.94L128.40,123.97L128.34,123.29"/><path d="M128.30,107.47L128.30,111.52"/><path d="M133.59,104.44L136.24,105.96L170.61,102.68L172.16,102.69L173.80,102.98L175.50,103.57L177.22,104.42L178.95,105.54L180.64,106.91L182.28,108.49L183.84,110.27L185.27,112.21L186.58,114.28L187.72,116.44L188.68,118.66L191.28,125.36"/><path d="M156.90,141.79L164.22,145.99L165.05,146.31L165.96,146.35L166.95,146.13L167.99,145.65L173.01,142.77"/><path d="M177.49,117.04L177.38,116.07L177.40,115.93L177.91,116.22L178.66,116.91L179.33,117.79L179.85,118.78L180.18,119.80L180.29,120.77L180.27,120.91L179.76,120.62L179.00,119.93L178.34,119.05L177.82,118.06L177.49,117.04"/></g></g><g id="Actor_.6"><g style="stroke:#000000;stroke-width:0.176"><path d="M171.49,85.83L171.86,85.96L172.85,86.03L173.72,85.79L174.10,85.56L174.43,85.26L174.95,84.47L175.26,83.46L175.34,82.26L175.18,80.94L174.95,80.09L174.81,79.55L174.22,78.17L173.45,76.86L172.54,75.67L171.53,74.67L171.45,74.61L170.46,73.90L169.39,73.40L168.37,73.19L167.43,73.27L166.64,73.66L166.02,74.32L165.60,75.23L165.50,75.81"/><path d="M171.66,84.31L172.09,84.30L172.76,84.00L173.26,83.44L173.56,82.64L173.65,81.67L173.51,80.57L173.16,79.42L172.61,78.30L171.91,77.26L171.09,76.39L170.22,75.72L169.33,75.31L168.50,75.18L167.76,75.33L167.17,75.77L167.56,75.34"/><path d="M172.97,84.07L173.24,83.96L173.43,83.78L173.85,83.06L174.05,82.13L174.03,81.04L173.77,79.86L173.31,78.71L173.30,78.66L172.64,77.52L171.84,76.52L170.95,75.70L170.02,75.14L169.11,74.85L168.29,74.86L167.59,75.18L167.07,75.77L167.04,75.83"/><path d="M167.17,75.77L167.12,75.86"/><path d="M168.51,76.36L168.95,76.27L168.90,76.27"/><path d="M167.96,75.01L167.81,75.12"/><path d="M168.95,76.27L169.40,76.31L169.93,76.50L169.90,76.48"/><path d="M172.84,81.18L172.77,80.51L172.58,79.80L172.30,79.10L171.93,78.42L171.48,77.79L170.98,77.25L170.44,76.80L169.93,76.50"/><path d="M172.09,84.30L172.67,84.18"/><path d="M171.66,84.34L172.05,84.40L172.81,84.23L173.14,84.04L173.24,83.96"/><path d="M172.59,82.39L172.44,82.64L172.11,82.93"/><path d="M172.84,81.17L172.81,81.75L172.66,82.27"/><path d="M172.67,82.26L172.63,82.33"/></g><g style="stroke:#000000;stroke-width:0.529"><path d="M164.66,75.90L164.71,75.27L164.89,74.44L165.19,73.71"/><path d="M165.33,73.49L165.56,73.16"/><path d="M166.11,72.60L165.94,72.76"/><path d="M172.82,87.05L172.79,87.05L172.01,86.93L171.32,86.70"/><path d="M172.90,87.05L173.29,87.03"/><path d="M174.14,86.86L173.77,86.97"/></g></g><g id="Actor_.7"><g style="stroke:#000000;stroke-width:0.176"><path d="M131.80,197.91L132.18,198.04L133.16,198.10L134.03,197.87L134.41,197.64L134.74,197.34L135.26,196.55L135.57,195.53L135.65,194.34L135.50,193.02L135.46,192.88L135.12,191.63L134.53,190.25L133.76,188.94L132.85,187.75L131.84,186.75L130.77,185.98L129.70,185.48L128.68,185.26L127.75,185.35L126.95,185.73L126.33,186.40L125.91,187.30L125.81,187.89"/><path d="M132.98,196.26L132.40,196.38L133.07,196.08L133.57,195.52L133.87,194.72L133.96,193.75L133.82,192.65L133.47,191.50L132.92,190.38L132.22,189.34L131.59,188.66L131.41,188.46L130.53,187.80L129.64,187.39L128.81,187.26L128.07,187.41L127.48,187.85L127.88,187.41"/><path d="M133.28,196.15L133.55,196.03L133.74,195.86L134.16,195.14L134.37,194.21L134.34,193.12L134.08,191.94L133.63,190.79L133.61,190.74L132.95,189.60L132.15,188.60L131.26,187.78L130.33,187.22L129.43,186.93L128.60,186.94L127.90,187.25L127.38,187.84L127.36,187.91"/><path d="M127.48,187.85L127.43,187.94"/><path d="M128.12,187.20L128.27,187.09"/><path d="M129.21,188.34L129.71,188.39L130.24,188.58L130.21,188.56"/><path d="M129.26,188.35L128.82,188.44"/><path d="M130.24,188.58L130.76,188.88L131.29,189.32L131.79,189.87L132.24,190.50L132.61,191.18L132.90,191.88L133.08,192.59L133.15,193.26"/><path d="M131.97,196.41L132.36,196.47L133.13,196.31L133.46,196.12L133.55,196.03"/><path d="M132.40,196.38L131.97,196.39"/><path d="M132.42,195.01L132.76,194.72L132.90,194.47"/><path d="M132.94,194.41L132.98,194.34L132.98,194.35"/><path d="M132.98,194.34L133.12,193.83L133.15,193.25"/></g><g style="stroke:#000000;stroke-width:0.529"><path d="M125.50,185.79L125.20,186.52L125.02,187.35L124.97,187.98"/><path d="M125.87,185.23L125.65,185.57"/><path d="M126.42,184.68L126.25,184.83"/><path d="M133.13,199.13L133.10,199.13L132.32,199.01L131.63,198.78"/><path d="M133.60,199.11L133.21,199.13"/><path d="M134.45,198.94L134.09,199.04"/></g></g><g id="Actor_.8"><g style="stroke:#000000;stroke-width:0.176"><path d="M154.69,18.83L155.26,18.98L156.25,19.35L157.14,19.79L158.09,20.24L159.22,20.57L160.44,20.75L161.71,20.79L162.92,20.68L161.71,20.93L160.35,21.34L159.58,21.63L159.58,24.75L165.23,23.88"/><path d="M157.64,23.94L158.23,24.21L159.00,24.42L155.91,22.64"/><path d="M159.58,21.63L159.02,21.13L158.02,20.36L157.14,19.79L156.36,19.24L155.78,18.60L155.46,17.90L155.39,17.17L155.59,16.47L156.03,15.82L156.71,15.20L157.61,14.69L158.67,14.30L159.82,14.05L161.03,13.93L162.30,13.97L163.52,14.16L164.65,14.49L165.60,14.93L166.40,15.50L166.97,16.14L167.29,16.84L167.35,17.56L167.15,18.25L166.72,18.91L166.03,19.52L165.13,20.03L164.07,20.43L162.92,20.68L164.13,20.56L165.49,20.55L166.26,20.60L166.26,23.72"/><path d="M158.72,37.62L159.62,38.00L160.68,38.21L161.79,38.24L162.87,38.07L163.81,37.73"/><path d="M159.58,24.75L159.00,24.42"/><path d="M160.29,24.64L160.85,24.71L162.24,24.68L163.58,24.48L164.80,24.10L165.11,23.94"/><path d="M166.26,20.60L166.47,19.99L166.83,19.00L167.15,18.25L167.47,17.62L167.84,17.05L168.05,16.77"/><path d="M167.36,21.38L166.63,22.92"/></g><g style="stroke:#000000;stroke-width:0.529"><path d="M154.69,21.94L154.69,18.83L154.90,18.21L155.26,17.23L155.59,16.47L155.91,15.84L156.28,15.27L156.48,15.00L157.26,14.71L158.61,14.29L159.82,14.05L161.03,13.92L162.39,13.92L163.16,13.97L163.73,14.12L164.72,14.49L165.60,14.93L166.51,15.52L167.50,16.29L168.05,16.77L168.05,19.89L167.36,21.38L167.15,22.17L166.63,22.92L166.26,23.72L165.23,23.88L165.11,23.94L165.11,36.02L164.99,36.66L164.54,37.25L163.81,37.73L163.41,37.97L162.62,38.25L161.72,38.39L160.79,38.37L159.91,38.19L159.16,37.88L158.72,37.62L158.06,37.11L157.69,36.50L157.65,35.86L157.64,23.94L157.14,23.71L156.28,23.09L155.91,22.64L154.69,21.94"/></g></g><g id="Actor_.9"><g style="stroke:#000000;stroke-width:0.176"><path d="M123.21,70.00L123.29,70.90L123.40,71.14"/><path d="M138.15,70.45L137.91,71.34L137.35,72.18L136.49,72.93L135.39,73.56L134.08,74.05L132.62,74.37L131.07,74.51L129.51,74.47L128.00,74.23L126.60,73.83L125.39,73.26L124.40,72.56L123.88,71.98"/><path d="M126.93,70.84L126.84,70.71L126.76,70.07L127.00,69.44L127.53,68.88L128.32,68.42L129.31,68.12L130.40,67.98L131.51,68.02L132.56,68.25L133.46,68.63L134.13,69.15L134.52,69.75L134.60,70.39L134.43,70.84"/></g><g style="stroke:#000000;stroke-width:0.529"><path d="M123.21,71.23L123.21,70.00L123.45,69.12L124.01,68.28L124.86,67.53L125.97,66.89L127.28,66.40L128.74,66.08L130.29,65.94L131.85,65.99L133.36,66.22L134.75,66.63L135.97,67.19L136.96,67.89L137.67,68.69L138.07,69.56L138.15,70.45L138.15,71.68L137.91,72.56L137.35,73.40L136.49,74.15L135.39,74.79L134.08,75.28L132.62,75.60L131.07,75.74L129.51,75.69L128.00,75.46L126.60,75.05L125.39,74.49L124.40,73.79L123.69,72.99L123.34,72.23"/><path d="M126.97,70.75L126.93,70.84L127.23,71.31L127.90,71.82L128.80,72.20L129.84,72.43L130.96,72.47L132.05,72.34L133.03,72.03L133.82,71.58L134.36,71.01L134.43,70.84L134.13,70.37L133.46,69.86L132.56,69.47L131.51,69.25L130.40,69.21L129.31,69.34L128.32,69.65L127.53,70.10L127.00,70.67L126.97,70.75"/></g></g><g id="Actor_.10"><g style="stroke:#000000;stroke-width:0.176"><path d="M161.89,88.78L162.59,88.90L163.27,88.73L163.81,88.27L164.14,87.57L164.26,86.67L164.14,85.63L163.81,84.54L163.27,83.48L162.59,82.52L161.79,81.74L160.95,81.19L160.12,80.91L159.37,80.93L158.75,81.24L158.32,81.83L158.18,82.31"/><path d="M159.38,80.93L159.00,81.44L158.86,81.92"/><path d="M159.35,78.24L159.70,78.28L160.38,78.30L161.09,78.26L160.38,78.44L159.18,79.13"/><path d="M161.90,78.15L162.94,77.97L163.58,77.84L163.92,78.53L164.61,79.70L165.32,80.69L164.53,79.82L163.65,79.10L162.75,78.58L161.88,78.30L161.09,78.26L161.90,78.15"/><path d="M163.64,88.41L163.27,88.51L162.57,88.39"/><path d="M163.58,77.84L167.08,75.83"/><path d="M165.81,89.12L166.02,88.99L166.62,88.57L167.07,87.93L167.35,87.10L167.44,86.15L167.49,85.09L167.66,83.84L167.81,83.10L167.17,82.57L166.14,81.61L165.32,80.69L166.02,81.68L166.62,82.79L167.07,83.95L167.35,85.09L167.44,86.15L167.49,87.14L167.66,88.19L167.81,88.76"/><path d="M167.81,83.10L171.31,81.09"/></g><g style="stroke:#000000;stroke-width:0.529"><path d="M161.00,89.21L161.78,89.66L162.45,89.91L163.09,90.03L163.32,90.04L163.93,90.01L164.47,89.83L164.71,89.75L165.81,89.12L166.14,89.08L167.17,88.89L167.81,88.76L171.31,86.75L171.46,86.01L171.64,84.76L171.69,83.71L171.63,82.69L171.46,81.64L171.31,81.09L170.96,80.38L170.28,79.22L169.57,78.24L168.76,77.32L167.72,76.36L167.08,75.83L166.74,75.79L166.05,75.77L165.34,75.82L164.52,75.92L163.48,76.10L162.84,76.24L159.35,78.24L159.20,78.96L159.18,79.13L158.97,79.25L158.50,79.57L158.32,79.73L157.94,80.19L157.56,80.96L157.39,81.62L157.34,82.38L157.34,82.55L157.36,82.83"/></g></g><g id="Actor_.11"><g style="stroke:#000000;stroke-width:0.176"><path d="M122.20,200.86L122.90,200.97L123.59,200.81L124.12,200.35L124.46,199.65L124.57,198.75L124.46,197.71L124.12,196.62L123.59,195.56L122.90,194.60L122.10,193.81L121.26,193.26L120.43,192.99L119.68,193.01L119.07,193.32L118.63,193.91L118.49,194.39"/><path d="M119.17,194.00L119.31,193.52L119.69,193.01"/><path d="M119.66,190.32L120.01,190.36L120.69,190.38L121.40,190.34L120.70,190.52L119.49,191.21"/><path d="M121.40,190.34L122.21,190.23L123.25,190.05L123.89,189.92L124.23,190.61L124.92,191.78L125.63,192.76L124.84,191.90L123.96,191.18L123.07,190.66L122.19,190.38L121.40,190.34"/><path d="M122.88,200.47L123.58,200.58L123.96,200.49"/><path d="M123.89,189.92L127.39,187.91"/><path d="M126.12,201.20L126.33,201.07L126.94,200.65L127.38,200.00L127.66,199.17L127.75,198.22L127.80,197.17L127.98,195.92L128.13,195.18L127.49,194.65L126.45,193.68L125.63,192.76L126.33,193.76L126.94,194.87L127.38,196.03L127.66,197.17L127.75,198.22L127.80,199.22L127.98,200.27L128.13,200.84"/><path d="M128.13,195.18L131.62,193.17"/></g><g style="stroke:#000000;stroke-width:0.529"><path d="M117.67,194.90L117.65,194.63L117.65,194.45L117.70,193.70L117.87,193.04L118.25,192.26L118.63,191.81L118.81,191.65L119.28,191.32L119.49,191.21L119.51,191.04L119.66,190.32L123.16,188.31L123.79,188.18L124.83,188.00L125.65,187.89L126.36,187.85L127.05,187.87L127.39,187.91L128.03,188.43L129.07,189.40L129.88,190.32L130.59,191.30L131.27,192.46L131.62,193.17L131.77,193.72L131.95,194.77L132.00,195.78L131.95,196.84L131.77,198.09L131.62,198.83L128.13,200.84L127.49,200.97L126.45,201.15L126.12,201.20L125.02,201.83L124.79,201.91L124.24,202.09L123.63,202.12L123.40,202.11L122.76,201.99L122.09,201.74L121.31,201.29"/></g></g><g id="Actor_.12"><g style="stroke:#000000;stroke-width:0.176"><path d="M153.90,52.40L153.98,53.29L154.38,54.16L155.09,54.96L155.25,55.07L156.08,55.66L157.29,56.22L158.69,56.63L160.20,56.86L161.76,56.91L163.31,56.77L164.77,56.45L166.08,55.96L167.19,55.32L168.04,54.57L168.60,53.73L168.84,52.85"/><path d="M165.12,53.23L165.29,52.78L165.21,52.14L164.82,51.54L164.15,51.03L163.25,50.64L162.21,50.42L161.09,50.37L160.00,50.51L159.02,50.82L158.23,51.27L157.69,51.84L157.45,52.46L157.53,53.10L157.62,53.24"/></g><g style="stroke:#000000;stroke-width:0.529"><path d="M153.98,54.52L154.38,55.39L155.09,56.19L156.08,56.88L157.29,57.45L158.69,57.86L160.20,58.09L161.76,58.14L163.31,57.99L164.77,57.67L166.08,57.18L167.19,56.55L168.04,55.80L168.60,54.96L168.84,54.07L168.84,52.85L168.76,51.95L168.36,51.08L167.65,50.28L166.66,49.59L165.45,49.02L164.05,48.62L162.54,48.38L160.98,48.34L159.43,48.48L157.97,48.80L156.66,49.29L155.55,49.92L154.70,50.67L154.14,51.51L153.90,52.40L153.90,53.62L153.98,54.52"/><path d="M158.59,54.22L157.92,53.70L157.62,53.24L157.69,53.06L158.23,52.50L159.02,52.04L160.00,51.74L161.09,51.60L162.21,51.65L163.25,51.87L164.15,52.26L164.82,52.77L165.12,53.23L165.05,53.41L164.52,53.97L163.73,54.43L162.74,54.73L161.65,54.87L160.54,54.82L159.49,54.60L158.59,54.22"/></g></g><g id="Actor_.13"><g style="stroke:#000000;stroke-width:0.176"><path d="M156.78,84.87L156.88,84.17L157.17,83.65L157.61,83.35L158.18,83.29L158.82,83.49L159.48,83.92L160.09,84.55L160.61,85.32L160.98,86.17L161.17,87.01L161.17,87.77L160.98,88.38L160.61,88.80L160.09,88.98L159.48,88.91L158.82,88.59"/><path d="M157.78,82.54L158.46,82.48L159.23,82.71L160.02,83.23L160.75,83.99L161.37,84.91L161.81,85.92L162.04,86.93L162.04,87.59L162.04,87.84L161.81,88.58L161.37,89.08"/><path d="M172.14,82.91L172.14,82.90"/></g><g style="stroke:#000000;stroke-width:0.529"><path d="M163.77,87.70L161.37,89.08L160.75,89.30L160.02,89.21L159.23,88.83L158.82,88.59L158.18,88.05L157.61,87.34L157.17,86.53L156.88,85.68L156.78,84.87L156.78,84.37L156.90,83.53L157.24,82.90L157.78,82.54L160.15,81.18"/><path d="M168.03,76.65L168.42,76.43"/><path d="M168.47,76.40L168.56,76.35"/><path d="M171.66,83.18L172.14,82.91"/><path d="M172.16,82.89L172.14,82.90"/><path d="M180.13,67.12L182.05,66.01L182.78,65.77L183.39,65.73L183.57,65.75L184.22,65.86L184.89,66.12L185.68,66.57L186.33,67.07L186.96,67.68L187.54,68.38L188.07,69.15L188.52,69.98L188.88,70.83L189.14,71.68L189.31,72.52L189.36,73.32L189.36,73.46"/><path d="M186.08,77.49L187.79,76.51L188.26,76.19L188.40,76.07L188.78,75.61L189.14,74.88L189.24,74.46"/></g></g><g id="Actor_.14"><g style="stroke:#000000;stroke-width:0.176"><path d="M124.00,36.43L124.57,36.58L125.56,36.95L126.45,37.39L125.67,36.85L125.09,36.20L124.76,35.50L124.70,34.77L124.90,34.08L125.33,33.42L126.02,32.81L126.92,32.30L127.98,31.90L129.13,31.65L130.34,31.54L131.61,31.57L132.83,31.76L133.96,32.09L134.91,32.54L135.70,33.10L136.27,33.74L136.60,34.44L136.66,35.16L136.46,35.86L136.02,36.51L135.34,37.12L134.44,37.64L133.38,38.03L132.23,38.28L131.02,38.40L129.75,38.36L128.53,38.17L127.40,37.84L126.45,37.39L127.33,37.96L128.32,38.74L128.89,39.23L128.89,42.35L125.22,40.25"/><path d="M126.95,41.55L127.54,41.81L128.31,42.02"/><path d="M133.12,55.33L132.17,55.68L131.10,55.84L129.98,55.82L128.93,55.61L128.03,55.23"/><path d="M128.89,42.35L134.54,41.48"/><path d="M128.89,39.23L129.66,38.94L131.02,38.53L132.23,38.28L133.43,38.16L134.79,38.16L135.57,38.21L135.77,37.59L136.14,36.61L136.46,35.86L136.78,35.23L137.14,34.66L137.36,34.38"/><path d="M129.59,42.24L130.16,42.31L131.55,42.29L132.89,42.08L134.11,41.70L134.42,41.55"/><path d="M135.57,41.33L135.57,38.21"/><path d="M136.66,38.98L135.94,40.53"/></g><g style="stroke:#000000;stroke-width:0.529"><path d="M126.95,45.56L126.95,41.55L126.45,41.32L125.58,40.69L125.22,40.25L124.00,39.55L124.00,36.43L124.21,35.82L124.57,34.83L124.90,34.08L125.22,33.45L125.58,32.87L125.79,32.60L126.56,32.31L127.92,31.90L129.13,31.65L130.34,31.53L131.70,31.52L132.47,31.57L133.03,31.73L134.03,32.09L134.91,32.54L135.82,33.12L136.81,33.90L137.36,34.38L137.36,37.50L136.66,38.98L136.46,39.78L135.94,40.53L135.57,41.33L134.54,41.48L134.42,41.55L134.42,53.63L134.29,54.26L133.85,54.85L133.12,55.33L132.72,55.57L131.93,55.86L131.03,56.00L130.10,55.98L129.22,55.80L128.47,55.48L128.03,55.23L127.37,54.71L127.00,54.11L126.96,53.47L126.95,46.53"/></g></g><g id="Actor_.15"><g style="stroke:#000000;stroke-width:0.176"><path d="M117.09,196.95L117.19,196.25L117.48,195.73L117.93,195.42L118.49,195.37L119.14,195.57L119.79,196.00L120.41,196.63L120.92,197.40L121.29,198.24L121.48,199.08L121.48,199.85L121.29,200.46L120.92,200.88L120.41,201.06L119.79,200.99L119.14,200.67"/><path d="M121.68,201.16L122.12,200.66L122.36,199.92L122.36,199.00L122.12,198.00L121.68,196.99L121.06,196.07L120.33,195.31L119.54,194.79L118.77,194.55L118.09,194.62"/><path d="M132.45,194.98L132.45,194.98"/></g><g style="stroke:#000000;stroke-width:0.529"><path d="M124.08,199.78L121.68,201.16L121.06,201.37L120.33,201.29L119.54,200.90L119.14,200.67L118.49,200.13L117.93,199.42L117.48,198.61L117.19,197.76L117.09,196.95L117.09,196.44L117.21,195.61L117.55,194.98L118.09,194.62L120.46,193.26"/><path d="M128.35,188.73L128.73,188.51"/><path d="M128.87,188.43L128.78,188.48"/><path d="M131.97,195.26L132.45,194.98"/><path d="M132.47,194.97L132.45,194.98"/><path d="M146.39,189.57L148.10,188.59L148.57,188.27L148.71,188.14L149.09,187.69L149.18,187.52L149.45,186.96L149.62,186.29L149.67,185.53L149.67,185.40L149.62,184.60L149.46,183.76L149.19,182.91L148.83,182.05L148.38,181.23L147.86,180.46L147.38,179.88L147.27,179.76L146.64,179.15L145.99,178.65L145.20,178.19L144.53,177.94L143.88,177.83L143.70,177.81L143.09,177.85L142.36,178.09L140.44,179.20"/></g></g><g><g><path style="stroke:#000000;stroke-width:0.125;stroke-dasharray:2.0 1.4 0.7 1.4" d="M134.12,164.19L134.12,180.53"/><path style="stroke:#000000;stroke-width:0.125;stroke-dasharray:2.0 1.4 0.7 1.4" d="M134.12,150.18L134.12,149.66"/></g></g><g><g><path style="stroke:#000000;stroke-width:0.125;stroke-dasharray:2.0 1.4 0.7 1.4" d="M161.37,89.43L161.37,103.56"/><path style="stroke:#000000;stroke-width:0.125;stroke-dasharray:2.0 1.4 0.7 1.4" d="M161.37,77.08L161.37,77.04"/><path style="stroke:#000000;stroke-width:0.125;stroke-dasharray:2.0 1.4 0.7 1.4" d="M161.37,58.12L161.37,72.20"/><path style="stroke:#000000;stroke-width:0.125;stroke-dasharray:2.0 1.4 0.7 1.4" d="M161.37,38.38L161.37,54.86"/></g></g><g><g><path style="stroke:#000000;stroke-width:0.125;stroke-dasharray:2.0 1.4 0.7 1.4" d="M130.68,75.73L130.68,151.86"/><path style="stroke:#000000;stroke-width:0.125;stroke-dasharray:2.0 1.4 0.7 1.4" d="M130.68,55.99L130.68,72.46"/></g></g><g><g><path style="stroke:#000000;stroke-width:0.125;stroke-dasharray:2.0 1.4 0.7 1.4" d="M173.81,91.46L173.81,116.07"/></g></g><g><g><path style="stroke:#000000;stroke-width:0.125" d="M72.23,163.91L124.08,183.44"/></g><g><path style="fill:#000000" d="M124.83,183.44L124.83,183.37L124.82,183.30L124.80,183.23L124.77,183.16L124.74,183.09L124.70,183.03L124.66,182.97L124.61,182.91L124.56,182.86L124.50,182.82L124.43,182.78L124.37,182.75L124.30,182.73L124.23,182.71L124.15,182.70L124.08,182.69L124.01,182.70L123.93,182.71L123.86,182.73L123.79,182.75L123.73,182.78L123.66,182.82L123.61,182.86L123.55,182.91L123.50,182.97L123.46,183.03L123.42,183.09L123.39,183.16L123.36,183.23L123.35,183.30L123.33,183.37L123.33,183.44L123.33,183.52L123.35,183.59L123.36,183.66L123.39,183.73L123.42,183.80L123.46,183.86L123.50,183.92L123.55,183.98L123.61,184.02L123.66,184.07L123.73,184.11L123.79,184.14L123.86,184.16L123.93,184.18L124.01,184.19L124.08,184.19L124.15,184.19L124.23,184.18L124.30,184.16L124.37,184.14L124.43,184.11L124.50,184.07L124.56,184.02L124.61,183.98L124.66,183.92L124.70,183.86L124.74,183.80L124.77,183.73L124.80,183.66L124.82,183.59L124.83,183.52z"/></g><g><text xml:space="preserve" fill="#000000" stroke-width="0" x="57.15" y="163.25" font-size="3.77" opacity="1.00" font-family="Arial">KIT0012</text></g></g><g id="PMI.0"><g><path style="stroke:#000000;stroke-width:0.125" d="M71.13,95.85L125.24,70.82"/></g><g><path style="fill:#000000" d="M125.99,70.82L125.99,70.74L125.98,70.67L125.96,70.60L125.94,70.53L125.91,70.46L125.87,70.40L125.82,70.34L125.77,70.29L125.72,70.24L125.66,70.19L125.60,70.16L125.53,70.12L125.46,70.10L125.39,70.08L125.32,70.07L125.24,70.07L125.17,70.07L125.10,70.08L125.03,70.10L124.96,70.12L124.89,70.16L124.83,70.19L124.77,70.24L124.71,70.29L124.66,70.34L124.62,70.40L124.58,70.46L124.55,70.53L124.53,70.60L124.51,70.67L124.50,70.74L124.49,70.82L124.50,70.89L124.51,70.96L124.53,71.04L124.55,71.10L124.58,71.17L124.62,71.23L124.66,71.29L124.71,71.35L124.77,71.40L124.83,71.44L124.89,71.48L124.96,71.51L125.03,71.54L125.10,71.55L125.17,71.56L125.24,71.57L125.32,71.56L125.39,71.55L125.46,71.54L125.53,71.51L125.60,71.48L125.66,71.44L125.72,71.40L125.77,71.35L125.82,71.29L125.87,71.23L125.91,71.17L125.94,71.10L125.96,71.04L125.98,70.96L125.99,70.89z"/></g><g><text xml:space="preserve" fill="#000000" stroke-width="0" x="57.49" y="101.29" font-size="3.78" opacity="1.00" font-family="Arial">ND0594</text></g></g><g><g><path style="stroke:#000000;stroke-width:0.125" d="M227.03,91.63L179.46,69.35"/></g><g><path style="fill:#000000" d="M180.21,69.35L180.21,69.28L180.19,69.20L180.18,69.13L180.15,69.06L180.12,69.00L180.08,68.93L180.04,68.87L179.99,68.82L179.93,68.77L179.88,68.73L179.81,68.69L179.75,68.66L179.68,68.63L179.61,68.61L179.53,68.60L179.46,68.60L179.39,68.60L179.31,68.61L179.24,68.63L179.17,68.66L179.11,68.69L179.04,68.73L178.98,68.77L178.93,68.82L178.88,68.87L178.84,68.93L178.80,69.00L178.77,69.06L178.74,69.13L178.72,69.20L178.71,69.28L178.71,69.35L178.71,69.42L178.72,69.50L178.74,69.57L178.77,69.64L178.80,69.70L178.84,69.77L178.88,69.83L178.93,69.88L178.98,69.93L179.04,69.97L179.11,70.01L179.17,70.04L179.24,70.07L179.31,70.08L179.39,70.10L179.46,70.10L179.53,70.10L179.61,70.08L179.68,70.07L179.75,70.04L179.81,70.01L179.88,69.97L179.93,69.93L179.99,69.88L180.04,69.83L180.08,69.77L180.12,69.70L180.15,69.64L180.18,69.57L180.19,69.50L180.21,69.42z"/></g><g><text xml:space="preserve" fill="#000000" stroke-width="0" x="226.51" y="97.06" font-size="3.77" opacity="1.00" font-family="Arial">KIT0012</text></g></g><g id="PMI.1"><g><path style="stroke:#000000;stroke-width:0.125" d="M72.13,38.11L128.65,46.29"/></g><g><path style="fill:#000000" d="M129.40,46.29L129.40,46.22L129.39,46.15L129.37,46.08L129.34,46.01L129.31,45.94L129.27,45.88L129.23,45.82L129.18,45.76L129.13,45.71L129.07,45.67L129.00,45.63L128.94,45.60L128.87,45.58L128.80,45.56L128.72,45.55L128.65,45.54L128.58,45.55L128.50,45.56L128.43,45.58L128.36,45.60L128.30,45.63L128.23,45.67L128.18,45.71L128.12,45.76L128.07,45.82L128.03,45.88L127.99,45.94L127.96,46.01L127.93,46.08L127.92,46.15L127.90,46.22L127.90,46.29L127.90,46.37L127.92,46.44L127.93,46.51L127.96,46.58L127.99,46.65L128.03,46.71L128.07,46.77L128.12,46.82L128.18,46.87L128.23,46.92L128.30,46.95L128.36,46.99L128.43,47.01L128.50,47.03L128.58,47.04L128.65,47.04L128.72,47.04L128.80,47.03L128.87,47.01L128.94,46.99L129.00,46.95L129.07,46.92L129.13,46.87L129.18,46.82L129.23,46.77L129.27,46.71L129.31,46.65L129.34,46.58L129.37,46.51L129.39,46.44L129.40,46.37z"/></g><g><text xml:space="preserve" fill="#000000" stroke-width="0" x="57.49" y="39.32" font-size="3.78" opacity="1.00" font-family="Arial">ND0846</text></g></g><g/><g><g/><g><text xml:space="preserve" fill="#000000" stroke-width="0" x="4.96" y="9.00" font-size="4.53" opacity="1.00" font-family="Arial" font-weight="bold">BPA27770</text></g></g><g id="paperID" visibility="hidden" opacity="0.00" transform="scale(0.000100)"><path style="stroke:#000000;stroke-width:0.500;fill:#e6e6e6;fill-rule:evenodd" d="M-2000.00,-2000.00L2297.00,-2000.00L2297.00,2210.00L-2000.00,2210.00zM0.00,0.00L297.00,0.00L297.00,210.00L0.00,210.00z"/><path style="fill:#000000;fill-opacity:0.118" d="M3.00,210.00L297.00,210.00L297.00,3.00L300.00,3.00L300.00,213.00L3.00,213.00z"/></g></g></svg>
