<?xml version="1.0" encoding="UTF-8" standalone="no"?>
<svg xmlns="http://www.w3.org/2000/svg" xmlns:xlink="http://www.w3.org/1999/xlink" width="297.000mm" height="210.000mm" viewBox="0.000000 0.000000 297.000000 210.000000" stroke-linejoin="round" stroke-linecap="round" fill="none" fill-rule="evenodd"><desc>Composer Export</desc><script type="text/ecmascript"><![CDATA[
if(typeof(top) != "undefined")
{
	top.ShowPaper = ShowPaper;
}
function ShowPaper()
{
  var svgDocument = getDocument();
  var paper = svgDocument.getElementById("paperID");
  if(paper)
  {
    paper.setAttribute("transform","scale(1)");
    paper.setAttribute("opacity","1");
    paper.setAttribute("visibility","visible");
  }
  var svg = svgDocument.getRootElement();
  if(svg)
  {
    svg.setAttribute("width","307.000mm");
    svg.setAttribute("height","220.000mm");
    svg.setAttribute("viewBox","-5.000000 -5.000000 307.000000 220.000000");
  }
}
]]></script><defs/><g><path style="fill:#000000;fill-opacity:0.098;fill-rule:evenodd" d="M257.97,48.85L259.69,47.92L259.68,50.36L258.52,50.35L258.01,49.19zM261.33,46.89L258.51,47.18L257.48,47.60L256.49,48.44L256.01,49.44L256.01,48.15L256.88,47.19L257.98,46.65L259.25,46.27L261.33,46.27zM250.54,52.49L250.54,53.10L250.21,53.06L247.56,53.39L246.26,54.11L245.23,55.47L245.23,54.36L246.28,53.21L248.10,52.48L249.99,52.29zM247.19,55.01L249.10,53.95L249.08,56.38L248.86,56.53L247.99,56.50zM284.35,50.74L263.51,62.77L263.34,65.34L262.62,66.08L261.63,66.56L259.62,66.57L259.83,66.42L259.80,64.89L252.92,68.80L252.74,71.37L252.56,71.73L251.10,72.65L249.38,72.83L249.28,70.94L247.02,72.21L246.28,72.47L246.34,65.15L284.35,43.35zM222.53,69.12L224.19,68.16L224.42,68.18L224.37,70.58L223.15,70.57L222.57,69.47zM225.90,67.16L223.08,67.45L221.33,68.45L220.58,69.72L220.60,68.45L221.26,67.65L223.08,66.73L224.00,66.55L225.90,66.54zM193.56,85.18L193.58,85.78L192.77,85.72L190.57,86.09L189.27,86.80L188.24,88.16L188.24,87.05L188.98,86.14L190.58,85.37L191.12,85.17L193.20,84.98zM242.81,74.59L228.20,82.99L228.09,85.43L227.64,86.08L226.20,86.83L224.18,86.84L224.60,86.70L224.61,85.16L224.38,85.15L195.93,101.50L195.75,104.06L195.52,104.37L194.24,105.28L193.31,105.45L192.45,105.46L192.29,103.63L190.03,104.91L189.30,105.17L189.36,97.84L242.64,67.25L242.87,67.26zM190.20,87.71L192.11,86.64L192.09,89.07L191.88,89.22L191.00,89.20zM165.54,101.81L167.21,100.86L167.43,100.87L167.38,103.27L166.16,103.26L165.58,102.16zM168.91,99.86L166.09,100.15L164.34,101.14L163.59,102.42L163.61,101.14L164.27,100.34L165.00,99.79L167.01,99.25L168.91,99.24zM185.90,107.18L171.22,115.69L171.10,118.13L170.65,118.78L169.21,119.53L167.19,119.53L167.61,119.39L167.62,117.86L167.39,117.84L129.44,139.67L129.27,142.24L128.55,142.98L127.57,143.46L125.90,143.51L125.81,141.81L123.15,143.27L122.81,143.34L122.87,136.02L185.65,99.94L185.88,99.96zM127.08,123.78L125.55,123.91L123.54,124.45L122.68,125.05L121.78,126.18L121.76,125.22L122.49,124.32L123.77,123.59L125.55,123.17L127.08,123.17zM123.90,125.74L125.62,124.82L125.61,127.25L125.38,127.41L124.87,127.39L124.33,127.18L123.95,126.47zM99.08,139.97L100.96,138.88L100.90,141.45L99.67,141.44zM102.42,138.03L100.34,138.15L99.06,138.52L98.04,139.14L97.10,140.40L97.10,139.29L97.97,138.33L99.42,137.60L100.16,137.42L102.42,137.42zM119.41,145.35L104.78,153.74L104.61,156.30L103.71,157.23L102.54,157.71L100.90,157.72L101.10,157.57L101.14,155.87L72.45,172.37L72.28,174.94L71.75,175.49L70.58,176.15L68.92,176.21L68.82,174.50L66.16,175.96L65.82,176.04L65.82,168.66L119.41,137.96zM70.09,156.48L67.45,156.77L66.55,157.15L65.69,157.75L64.79,158.88L64.77,157.92L65.51,157.02L66.37,156.42L67.46,156.04L68.56,155.87L70.09,155.86zM66.92,158.44L68.39,157.48L68.61,157.49L68.63,159.77L68.36,160.08L67.89,160.09L67.34,159.88L66.97,159.17zM42.09,172.66L43.98,171.58L43.96,174.01L43.74,174.16L42.68,174.13zM45.43,170.73L43.35,170.85L42.07,171.21L41.05,171.83L40.11,173.10L40.11,171.99L40.98,171.03L42.30,170.35L43.17,170.12L45.43,170.11zM31.47,178.71L33.20,177.79L33.18,180.22L32.95,180.38L32.45,180.37L32.04,180.21L31.52,179.25zM34.65,176.75L32.21,177.05L31.29,177.42L30.18,178.13L29.50,179.14L29.29,179.14L29.65,177.78L30.62,176.93L32.02,176.32L34.65,176.14zM62.43,178.05L47.80,186.43L47.62,188.99L47.02,189.67L45.55,190.40L43.91,190.41L44.11,190.27L44.15,188.56L37.02,192.64L36.84,195.21L36.58,195.67L35.14,196.43L33.48,196.48L33.38,194.78L25.09,199.52L24.36,199.78L24.42,192.46L62.42,170.66z"/><g id="Actor_.0"><g style="stroke:#000000;stroke-width:0.176"><path d="M262.50,66.12L261.66,66.42L260.69,66.56L259.70,66.50L258.80,66.26L258.08,65.87"/><path d="M259.55,50.51L261.19,50.76L261.57,50.54L261.46,50.50L261.10,50.42L260.71,50.38L259.94,50.41L259.55,50.51L258.56,50.35L257.86,48.85L259.78,47.74L262.41,48.15L263.11,49.65L261.63,50.50L259.78,50.22L259.78,47.74"/><path d="M259.34,50.47L259.78,50.22"/><path d="M261.63,50.50L261.57,50.54"/><path d="M262.41,50.06L262.41,48.15"/></g><g style="stroke:#000000;stroke-width:0.529"><path d="M264.96,49.56L264.84,48.92L264.75,48.80L264.23,48.11L263.37,47.53L263.28,47.48L262.20,47.09L260.97,46.90L259.69,46.93L258.48,47.17L257.46,47.61L257.36,47.66L256.58,48.27L256.50,48.38L256.06,49.11L256.03,49.26L256.01,49.54"/><path d="M258.05,65.84L258.08,65.87L258.44,66.09L259.06,66.42L259.82,66.62L260.66,66.67L261.48,66.56L262.19,66.30L262.50,66.12L263.12,65.67L263.46,65.14L263.47,64.56L263.48,62.73"/></g></g><g id="Actor_.1"><g style="stroke:#000000;stroke-width:0.176"><path d="M35.97,196.05L35.13,196.36L34.16,196.49L33.17,196.43L32.27,196.20L31.55,195.80"/><path d="M31.60,179.35L31.33,178.78L33.25,177.67L33.25,180.15L32.81,180.40L32.03,180.29L31.60,179.35"/><path d="M32.81,180.40L33.02,180.44L33.41,180.34L34.18,180.31L34.57,180.35L35.10,180.43L35.88,179.99L35.88,178.08L33.25,177.67"/><path d="M33.02,180.44L34.66,180.69L35.04,180.47L34.93,180.43L34.57,180.35L33.25,180.15"/><path d="M35.10,180.43L35.04,180.47"/><path d="M35.88,179.99L36.58,179.59L35.88,178.08"/></g><g style="stroke:#000000;stroke-width:0.529"><path d="M38.43,179.49L38.31,178.86L38.22,178.73L37.70,178.04L36.84,177.47L36.75,177.41L35.67,177.02L34.44,176.83L33.16,176.86L31.95,177.10L30.93,177.54L30.83,177.59L30.05,178.20L29.97,178.32L29.53,179.04L29.50,179.19L29.48,179.47"/><path d="M31.52,195.77L31.55,195.80L31.91,196.02L32.53,196.36L33.29,196.56L34.13,196.60L34.95,196.49L35.66,196.23L35.97,196.05L36.59,195.60L36.93,195.07L36.94,194.50L36.95,192.66"/></g></g><g id="Actor_.2"><g style="stroke:#000000;stroke-width:0.176"><path d="M68.40,160.14L67.41,159.99L66.71,158.48L68.63,157.38L68.63,159.86L70.48,160.14L70.42,160.18L70.31,160.13L69.95,160.06L69.56,160.02L68.79,160.05L68.40,160.14L70.04,160.40L70.42,160.18"/><path d="M71.35,175.76L70.51,176.06L69.54,176.19L68.56,176.14L68.02,176.00L67.65,175.90L66.93,175.51"/><path d="M68.19,160.11L68.63,159.86"/><path d="M68.63,157.38L71.26,157.79L71.26,159.70L70.48,160.14"/><path d="M71.26,159.70L71.96,159.29L71.26,157.79"/></g><g style="stroke:#000000;stroke-width:0.529"><path d="M73.81,159.20L73.69,158.56L73.60,158.44L73.08,157.74L72.22,157.17L72.13,157.12L71.05,156.73L69.82,156.54L68.54,156.57L68.14,156.65L67.34,156.81L66.31,157.25L66.21,157.30L65.43,157.91L65.36,158.02L64.91,158.75L64.88,158.90L64.86,159.18"/><path d="M66.90,175.48L66.93,175.51L67.29,175.73L67.91,176.06L68.67,176.26L69.51,176.31L70.33,176.20L71.05,175.94L71.35,175.76L71.97,175.31L72.31,174.77L72.32,174.20L72.33,172.37"/></g></g><g id="Actor_.3"><g style="stroke:#000000;stroke-width:0.176"><path d="M42.72,189.94L42.95,190.07L43.86,190.30L44.48,190.34"/><path d="M43.94,171.55L42.01,172.65L42.72,174.16L43.49,174.28L43.94,174.02L43.94,171.55L46.57,171.95L47.27,173.46L46.57,173.86L46.57,171.95"/><path d="M43.94,174.02L45.25,174.22L44.87,174.18L44.10,174.21L43.71,174.31L45.35,174.56L45.73,174.34L45.62,174.30L45.25,174.22L45.79,174.31L45.73,174.34"/><path d="M43.71,174.31L43.49,174.28"/><path d="M45.79,174.31L46.57,173.86"/></g><g style="stroke:#000000;stroke-width:0.529"><path d="M49.12,173.36L48.99,172.73L48.91,172.60L48.38,171.91L47.52,171.34L47.44,171.28L46.36,170.90L45.12,170.71L43.85,170.73L42.64,170.97L41.61,171.41L41.52,171.47L40.74,172.07L40.66,172.19L40.22,172.91L40.19,173.06L40.17,173.34"/><path d="M44.98,190.45L44.82,190.47L43.98,190.43L43.21,190.23L42.66,189.93"/><path d="M47.64,186.53L47.63,188.37L47.62,188.94L47.28,189.48L46.73,189.87"/></g></g><g id="Actor_.4"><g style="stroke:#000000;stroke-width:0.176"><path d="M231.99,57.01L246.24,65.18L246.24,72.61L245.53,73.02"/><path d="M245.58,56.15L246.48,56.87L247.74,57.39L249.22,57.64L250.77,57.61L252.21,57.28L253.39,56.71L254.18,55.95L254.50,55.08L254.31,54.20L253.63,53.40L252.53,52.77L251.66,52.53L251.14,52.38L249.61,52.27L248.09,52.45L246.76,52.91L245.76,53.59L245.20,54.41L245.14,55.30L245.58,56.15"/><path d="M246.24,72.61L271.13,58.33"/><path d="M270.85,51.06L246.24,65.18"/><path d="M255.85,48.81L255.82,49.17L256.26,50.02L257.16,50.74L258.42,51.26L259.90,51.51L261.45,51.48L262.41,51.26L262.89,51.15L264.07,50.58L264.87,49.82L265.18,48.95L264.99,48.07L264.66,47.68L264.31,47.27L263.22,46.64L261.83,46.25L260.29,46.14L258.78,46.32L257.45,46.78L256.45,47.46L255.89,48.28L255.85,48.81"/><path d="M284.47,43.25L271.79,50.53"/><path d="M272.06,57.80L284.47,50.68"/></g><g style="stroke:#000000;stroke-width:0.529"><path d="M272.06,57.80L283.76,51.10L284.47,50.68L284.47,43.25L270.22,35.08L231.99,57.01L231.99,57.15L232.80,61.29"/><path d="M242.91,71.53L245.53,73.02L271.13,58.34"/></g></g><g id="Actor_.5"><g style="stroke:#000000;stroke-width:0.176"><path d="M32.69,187.67L24.22,192.53L9.97,184.35"/><path d="M23.51,200.37L24.22,199.95L24.22,192.53"/><path d="M24.22,199.95L41.97,189.77"/><path d="M29.47,179.45L29.29,179.10L29.36,178.22L29.92,177.39L30.92,176.71L32.25,176.26L33.76,176.08L35.30,176.19L36.69,176.57L37.78,177.20L38.46,178.00L38.65,178.88L38.34,179.75L37.54,180.51L36.36,181.09L34.92,181.41L33.37,181.45L31.89,181.19L30.63,180.68L29.73,179.95L29.47,179.45"/><path d="M62.45,170.60L33.91,186.97"/><path d="M40.34,173.68L40.42,173.82L41.32,174.55L42.58,175.06L44.06,175.32L45.61,175.28L47.05,174.96L48.23,174.38L49.02,173.62L49.34,172.75L49.15,171.87L48.47,171.07L47.37,170.45L45.98,170.06L44.45,169.95L42.93,170.13L41.60,170.58L40.60,171.26L40.04,172.09L39.98,172.97L40.34,173.68"/><path d="M62.45,178.02L43.20,189.07"/></g><g style="stroke:#000000;stroke-width:0.529"><path d="M41.98,189.77L23.51,200.37L11.75,193.63L9.97,184.49L9.97,184.35L48.20,162.43L62.45,170.60L62.45,178.02L61.74,178.44L43.21,189.07"/></g></g><g id="Actor_.6"><g style="stroke:#000000;stroke-width:0.176"><path d="M222.70,86.17L223.42,86.56L224.32,86.79L224.45,86.80L225.31,86.85L226.28,86.72L227.12,86.41"/><path d="M223.18,70.65L223.96,70.77L224.40,70.51L226.25,70.80L227.03,70.35L227.03,68.44L224.40,68.04L222.48,69.14L223.18,70.65"/><path d="M224.40,70.51L224.40,68.04"/><path d="M224.17,70.80L225.81,71.05L226.19,70.83L226.08,70.79L225.72,70.71L225.33,70.67L224.56,70.70L224.17,70.80L223.96,70.77"/><path d="M226.25,70.80L226.19,70.83"/><path d="M227.03,68.44L227.73,69.95L227.03,70.35"/></g><g style="stroke:#000000;stroke-width:0.529"><path d="M229.58,69.85L229.46,69.22L229.37,69.09L228.85,68.40L227.99,67.83L227.90,67.78L226.82,67.39L225.59,67.20L224.31,67.22L223.32,67.42L223.10,67.47L222.08,67.90L221.98,67.96L221.20,68.56L221.12,68.68L220.68,69.41L220.65,69.55L220.63,69.84"/><path d="M228.10,83.02L228.09,84.86L228.08,85.43L227.74,85.97L227.12,86.41L226.81,86.59L226.10,86.85L225.28,86.96L224.44,86.92L223.68,86.72L223.06,86.38L222.70,86.17L222.67,86.14"/></g></g><g id="Actor_.7"><g style="stroke:#000000;stroke-width:0.176"><path d="M123.92,142.82L124.64,143.22L125.54,143.45L125.83,143.47L126.53,143.51L127.50,143.37L128.34,143.07"/><path d="M126.96,127.38L127.47,127.45L128.95,126.61L128.25,125.10L125.62,124.69L123.70,125.80L124.40,127.30L125.18,127.42L125.62,127.17L126.20,127.26L126.94,127.37L126.55,127.33L125.78,127.36L125.39,127.46L127.03,127.71L127.41,127.49L127.30,127.45L126.94,127.37"/><path d="M125.62,124.69L125.62,127.17"/><path d="M125.18,127.42L125.39,127.46"/><path d="M127.47,127.45L127.41,127.49"/><path d="M128.25,127.01L128.25,125.10"/></g><g style="stroke:#000000;stroke-width:0.529"><path d="M130.80,126.51L130.68,125.87L130.59,125.75L130.07,125.06L129.21,124.48L129.12,124.43L128.04,124.04L126.81,123.85L125.53,123.88L124.32,124.12L123.30,124.56L123.20,124.61L122.42,125.22L122.34,125.34L121.90,126.06L121.87,126.21L121.85,126.49"/><path d="M129.32,139.68L129.31,141.52L129.30,142.09L128.96,142.62L128.34,143.07L128.03,143.25L127.32,143.51L126.50,143.62L125.66,143.57L124.90,143.37L124.28,143.04L123.92,142.82L123.89,142.79"/></g></g><g id="Actor_.8"><g style="stroke:#000000;stroke-width:0.176"><path d="M103.08,157.44L102.81,157.54L101.84,157.67L100.85,157.62L99.94,157.38L99.22,156.99"/><path d="M100.93,138.86L100.93,141.33L102.24,141.54L101.86,141.50L101.08,141.53L100.70,141.62L99.71,141.47L99.00,139.96L100.93,138.86L103.55,139.26L104.26,140.77L103.55,141.17L103.55,139.26"/><path d="M100.48,141.59L100.93,141.33"/><path d="M103.55,141.17L102.78,141.62L102.24,141.54L102.61,141.61L102.72,141.65L102.33,141.87L100.70,141.62"/><path d="M102.72,141.65L102.78,141.62"/></g><g style="stroke:#000000;stroke-width:0.529"><path d="M106.11,140.67L105.98,140.04L105.90,139.91L105.37,139.22L104.51,138.65L104.43,138.60L103.34,138.21L102.11,138.02L100.83,138.05L99.76,138.26L99.63,138.29L98.60,138.72L98.51,138.78L97.72,139.39L97.65,139.50L97.21,140.23L97.18,140.38L97.16,140.66"/><path d="M99.19,156.96L99.22,156.99L99.59,157.21L100.20,157.54L100.97,157.74L101.81,157.79L102.63,157.67L103.16,157.48"/><path d="M104.11,156.90L104.27,156.79L104.60,156.25L104.62,155.68L104.62,153.84"/></g></g><g id="Actor_.9"><g style="stroke:#000000;stroke-width:0.176"><path d="M165.50,101.82L165.49,101.83L166.19,103.33L167.18,103.49L167.57,103.39L168.34,103.36L168.73,103.40L167.41,103.20L167.41,100.72L165.50,101.82"/><path d="M165.71,118.85L166.43,119.25L167.34,119.48L168.33,119.54L168.90,119.46L169.29,119.40L170.13,119.10"/><path d="M167.18,103.49L168.82,103.74L169.20,103.52L169.09,103.48L168.73,103.40L169.26,103.48L169.20,103.52"/><path d="M166.97,103.45L167.41,103.20"/><path d="M167.41,100.72L170.04,101.13L170.75,102.63L170.04,103.04L170.04,101.13"/><path d="M169.26,103.48L170.04,103.04"/></g><g style="stroke:#000000;stroke-width:0.529"><path d="M172.59,102.54L172.47,101.90L172.38,101.78L171.86,101.09L171.00,100.51L170.91,100.46L169.83,100.07L168.60,99.88L167.32,99.91L166.12,100.15L165.09,100.59L164.99,100.64L164.21,101.25L164.14,101.37L163.69,102.09L163.66,102.24L163.64,102.52"/><path d="M171.11,115.71L171.10,117.55L171.09,118.12L170.76,118.65L170.13,119.10L169.83,119.28L169.11,119.54L168.29,119.65L167.45,119.60L166.69,119.40L166.08,119.07L165.71,118.85L165.68,118.82"/></g></g><g id="Actor_.10"><g style="stroke:#000000;stroke-width:0.176"><path d="M122.05,143.85L122.76,143.43L122.76,136.00L108.52,127.83"/><path d="M121.67,126.00L121.66,126.12L122.10,126.97L123.00,127.70L124.26,128.21L125.74,128.46L127.29,128.43L128.73,128.11L129.91,127.53L130.70,126.77L131.02,125.90L130.83,125.02L130.15,124.22L129.06,123.59L127.67,123.20L126.13,123.09L124.62,123.28L123.29,123.73L122.29,124.41L121.72,125.24L121.67,126.00"/><path d="M122.76,143.43L154.72,125.10"/><path d="M122.76,136.00L149.46,120.69"/><path d="M185.93,99.77L150.34,120.19"/><path d="M155.60,124.59L185.93,107.20"/><path d="M164.26,103.30L163.89,103.00L163.45,102.15L163.52,101.26L164.08,100.44L165.08,99.76L166.41,99.31L167.92,99.12L169.46,99.23L170.85,99.62L171.94,100.25L172.62,101.05L172.81,101.93L172.50,102.80L171.70,103.56L170.52,104.13L169.08,104.46L167.54,104.49L166.05,104.24L164.79,103.72L164.26,103.30"/></g><g style="stroke:#000000;stroke-width:0.529"><path d="M109.32,132.11L108.52,127.97L108.52,127.83L171.68,91.60L185.93,99.77L185.93,107.20L155.61,124.60"/><path d="M154.73,125.11L122.05,143.85L119.44,142.35"/></g></g><g id="Actor_.11"><g style="stroke:#000000;stroke-width:0.176"><path d="M175.00,89.70L189.25,97.87L189.25,105.30L188.54,105.71"/><path d="M188.18,87.59L188.15,87.99L188.59,88.84L189.49,89.56L190.75,90.08L192.23,90.33L193.78,90.29L195.22,89.97L196.40,89.40L197.19,88.63L197.51,87.76L197.32,86.88L196.64,86.09L195.54,85.46L194.15,85.07L192.62,84.96L191.10,85.14L189.77,85.60L188.78,86.27L188.21,87.10L188.18,87.59"/><path d="M189.25,105.30L214.39,90.88"/><path d="M189.25,97.87L211.98,84.83"/><path d="M212.81,84.35L242.91,67.09"/><path d="M242.91,74.51L215.22,90.40"/><path d="M221.05,70.45L220.88,70.32L220.44,69.46L220.51,68.58L221.07,67.75L222.07,67.07L223.40,66.62L224.91,66.44L226.45,66.55L227.84,66.94L228.93,67.56L229.61,68.36L229.80,69.24L229.49,70.11L228.69,70.87L227.51,71.45L226.07,71.77L224.52,71.81L223.04,71.55L221.78,71.04L221.05,70.45"/></g><g style="stroke:#000000;stroke-width:0.529"><path d="M175.81,93.97L175.00,89.83L175.00,89.70L228.67,58.92L242.91,67.09L242.91,74.51L215.23,90.40"/><path d="M214.39,90.88L188.54,105.71L185.93,104.21"/></g></g><g id="Actor_.12"><g style="stroke:#000000;stroke-width:0.176"><path d="M251.82,72.25L250.98,72.55L250.01,72.68L249.36,72.65L249.02,72.63L248.11,72.39L247.39,72.00"/><path d="M247.48,55.62L247.88,56.48L248.65,56.60L249.10,56.35L250.95,56.63L251.72,56.19L251.72,54.28L249.10,53.87L247.17,54.97L247.48,55.62"/><path d="M249.10,53.87L249.10,56.35"/><path d="M249.25,56.54L250.03,56.51L250.41,56.55L250.78,56.62L250.89,56.67L250.51,56.89L248.87,56.63L249.25,56.54"/><path d="M248.87,56.63L248.65,56.60"/><path d="M250.95,56.63L250.89,56.67"/><path d="M251.72,54.28L252.43,55.78L251.72,56.19"/></g><g style="stroke:#000000;stroke-width:0.529"><path d="M254.28,55.69L254.15,55.05L254.07,54.93L253.54,54.23L252.68,53.66L252.60,53.61L251.51,53.22L250.28,53.03L249.00,53.06L247.80,53.30L246.77,53.74L246.68,53.79L245.90,54.40L245.82,54.51L245.38,55.24L245.35,55.39L245.33,55.67"/><path d="M252.79,68.86L252.79,70.69L252.78,71.26L252.44,71.80L251.82,72.25L251.51,72.43L250.80,72.69L249.98,72.80L249.14,72.75L248.37,72.55L247.76,72.22L247.39,72.00L247.36,71.97"/></g></g><g id="Actor_.13"><g style="stroke:#000000;stroke-width:0.176"><path d="M65.06,176.53L65.78,176.12L65.78,168.69L51.53,160.52"/><path d="M65.75,160.17L65.11,159.66L64.67,158.81L64.74,157.92L65.30,157.10L65.96,156.65L66.30,156.42L67.63,155.96L69.15,155.78L70.68,155.89L72.07,156.28L73.16,156.91L73.84,157.71L74.03,158.59L73.71,159.46L72.92,160.22L71.74,160.79L70.30,161.11L68.76,161.15L67.27,160.90L66.01,160.38L65.75,160.17"/><path d="M65.78,176.12L100.62,156.13"/><path d="M65.78,168.69L93.89,152.56"/><path d="M94.87,152.00L119.44,137.91"/><path d="M97.41,141.14L96.97,140.29L97.03,139.40L97.59,138.57L98.59,137.90L99.92,137.44L101.44,137.26L102.97,137.37L104.36,137.76L105.46,138.39L106.14,139.18L106.33,140.06L106.01,140.94L105.22,141.70L104.04,142.27L102.60,142.59L101.05,142.63L99.57,142.38L98.31,141.86L97.41,141.14"/><path d="M119.44,145.34L101.60,155.57"/></g><g style="stroke:#000000;stroke-width:0.529"><path d="M101.61,155.57L119.44,145.34L119.44,137.91L105.19,129.74L51.53,160.52L51.53,160.66L52.33,164.80"/><path d="M100.63,156.14L65.06,176.53L62.45,175.04"/></g></g><g id="Actor_.14"><g style="stroke:#000000;stroke-width:0.176"><path d="M194.83,104.93L193.99,105.24L193.02,105.37L192.03,105.32L191.12,105.08L190.40,104.69"/><path d="M192.11,86.56L190.18,87.66L190.89,89.17L191.66,89.29L192.11,89.03L193.42,89.24L193.04,89.20L192.27,89.23L191.88,89.32L193.52,89.57L193.90,89.35L193.79,89.31L193.42,89.24L193.96,89.32L195.44,88.47L194.74,86.96L192.11,86.56L192.11,89.03"/><path d="M191.66,89.29L191.88,89.32"/><path d="M194.74,88.87L194.74,86.96"/><path d="M193.90,89.35L193.96,89.32"/></g><g style="stroke:#000000;stroke-width:0.529"><path d="M197.29,88.37L197.16,87.74L197.08,87.61L196.55,86.92L195.69,86.35L195.61,86.30L194.53,85.91L193.29,85.72L192.02,85.75L190.81,85.99L189.78,86.42L189.69,86.48L188.91,87.09L188.83,87.20L188.39,87.93L188.36,88.08L188.34,88.36"/><path d="M195.81,101.54L195.80,103.38L195.79,103.95L195.45,104.49L194.83,104.93L194.52,105.11L193.81,105.37L192.99,105.49L192.15,105.44L191.38,105.24L190.77,104.91L190.40,104.69L190.37,104.66"/></g></g><g><g><path style="stroke:#000000;stroke-width:0.125" d="M272.61,84.77L271.16,46.53"/></g><g><path style="fill:#000000" d="M271.91,46.53L271.90,46.46L271.89,46.39L271.87,46.32L271.85,46.25L271.82,46.18L271.78,46.12L271.74,46.06L271.69,46.00L271.63,45.95L271.57,45.91L271.51,45.87L271.44,45.84L271.37,45.82L271.30,45.80L271.23,45.79L271.16,45.78L271.08,45.79L271.01,45.80L270.94,45.82L270.87,45.84L270.80,45.87L270.74,45.91L270.68,45.95L270.63,46.00L270.58,46.06L270.53,46.12L270.49,46.18L270.46,46.25L270.44,46.32L270.42,46.39L270.41,46.46L270.41,46.53L270.41,46.61L270.42,46.68L270.44,46.75L270.46,46.82L270.49,46.89L270.53,46.95L270.58,47.01L270.63,47.06L270.68,47.11L270.74,47.16L270.80,47.20L270.87,47.23L270.94,47.25L271.01,47.27L271.08,47.28L271.16,47.28L271.23,47.28L271.30,47.27L271.37,47.25L271.44,47.23L271.51,47.20L271.57,47.16L271.63,47.11L271.69,47.06L271.74,47.01L271.78,46.95L271.82,46.89L271.85,46.82L271.87,46.75L271.89,46.68L271.90,46.61z"/></g><g><text xml:space="preserve" fill="#000000" stroke-width="0" x="265.58" y="90.20" font-size="3.77" opacity="1.00" font-family="Arial">KIT0068</text></g></g><g><g><path style="stroke:#000000;stroke-width:0.125" d="M223.46,112.35L210.15,78.96"/></g><g><path style="fill:#000000" d="M210.90,78.96L210.90,78.89L210.89,78.82L210.87,78.75L210.85,78.68L210.81,78.61L210.78,78.55L210.73,78.49L210.68,78.43L210.63,78.38L210.57,78.34L210.51,78.30L210.44,78.27L210.37,78.25L210.30,78.23L210.23,78.22L210.15,78.21L210.08,78.22L210.01,78.23L209.93,78.25L209.87,78.27L209.80,78.30L209.74,78.34L209.68,78.38L209.62,78.43L209.57,78.49L209.53,78.55L209.49,78.61L209.46,78.68L209.43,78.75L209.42,78.82L209.41,78.89L209.40,78.96L209.41,79.04L209.42,79.11L209.43,79.18L209.46,79.25L209.49,79.32L209.53,79.38L209.57,79.44L209.62,79.49L209.68,79.54L209.74,79.59L209.80,79.62L209.87,79.66L209.93,79.68L210.01,79.70L210.08,79.71L210.15,79.71L210.23,79.71L210.30,79.70L210.37,79.68L210.44,79.66L210.51,79.62L210.57,79.59L210.63,79.54L210.68,79.49L210.73,79.44L210.78,79.38L210.81,79.32L210.85,79.25L210.87,79.18L210.89,79.11L210.90,79.04z"/></g><g><text xml:space="preserve" fill="#000000" stroke-width="0" x="217.54" y="117.79" font-size="3.77" opacity="1.00" font-family="Arial">KIT0069</text></g></g><g><g><path style="stroke:#000000;stroke-width:0.125" d="M172.95,139.75L145.62,116.85"/></g><g><path style="fill:#000000" d="M146.37,116.85L146.36,116.78L146.35,116.70L146.33,116.63L146.31,116.56L146.28,116.50L146.24,116.43L146.20,116.37L146.15,116.32L146.09,116.27L146.03,116.23L145.97,116.19L145.90,116.16L145.83,116.13L145.76,116.11L145.69,116.10L145.62,116.10L145.54,116.10L145.47,116.11L145.40,116.13L145.33,116.16L145.26,116.19L145.20,116.23L145.14,116.27L145.09,116.32L145.04,116.37L144.99,116.43L144.95,116.50L144.92,116.56L144.90,116.63L144.88,116.70L144.87,116.78L144.87,116.85L144.87,116.92L144.88,117.00L144.90,117.07L144.92,117.14L144.95,117.20L144.99,117.27L145.04,117.33L145.09,117.38L145.14,117.43L145.20,117.47L145.26,117.51L145.33,117.54L145.40,117.57L145.47,117.59L145.54,117.60L145.62,117.60L145.69,117.60L145.76,117.59L145.83,117.57L145.90,117.54L145.97,117.51L146.03,117.47L146.09,117.43L146.15,117.38L146.20,117.33L146.24,117.27L146.28,117.20L146.31,117.14L146.33,117.07L146.35,117.00L146.36,116.92z"/></g><g><text xml:space="preserve" fill="#000000" stroke-width="0" x="169.51" y="145.18" font-size="3.77" opacity="1.00" font-family="Arial">KIT0070</text></g></g><g><g><path style="stroke:#000000;stroke-width:0.125" d="M122.76,167.33L87.50,148.64"/></g><g><path style="fill:#000000" d="M88.25,148.64L88.25,148.56L88.24,148.49L88.22,148.42L88.19,148.35L88.16,148.28L88.13,148.22L88.08,148.16L88.03,148.11L87.98,148.06L87.92,148.01L87.86,147.97L87.79,147.94L87.72,147.92L87.65,147.90L87.58,147.89L87.50,147.89L87.43,147.89L87.36,147.90L87.28,147.92L87.21,147.94L87.15,147.97L87.08,148.01L87.03,148.06L86.97,148.11L86.92,148.16L86.88,148.22L86.84,148.28L86.81,148.35L86.78,148.42L86.77,148.49L86.76,148.56L86.75,148.64L86.76,148.71L86.77,148.78L86.78,148.85L86.81,148.92L86.84,148.99L86.88,149.05L86.92,149.11L86.97,149.17L87.03,149.22L87.08,149.26L87.15,149.30L87.21,149.33L87.28,149.35L87.36,149.37L87.43,149.38L87.50,149.39L87.58,149.38L87.65,149.37L87.72,149.35L87.79,149.33L87.86,149.30L87.92,149.26L87.98,149.22L88.03,149.17L88.08,149.11L88.13,149.05L88.16,148.99L88.19,148.92L88.22,148.85L88.24,148.78L88.25,148.71z"/></g><g><text xml:space="preserve" fill="#000000" stroke-width="0" x="121.47" y="172.77" font-size="3.77" opacity="1.00" font-family="Arial">KIT0069</text></g></g><g><g><path style="stroke:#000000;stroke-width:0.125" d="M72.65,196.22L25.53,185.56"/></g><g><path style="fill:#000000" d="M26.28,185.56L26.28,185.49L26.27,185.41L26.25,185.34L26.23,185.27L26.20,185.21L26.16,185.14L26.11,185.08L26.06,185.03L26.01,184.98L25.95,184.94L25.89,184.90L25.82,184.87L25.75,184.84L25.68,184.82L25.61,184.81L25.53,184.81L25.46,184.81L25.39,184.82L25.32,184.84L25.25,184.87L25.18,184.90L25.12,184.94L25.06,184.98L25.00,185.03L24.95,185.08L24.91,185.14L24.87,185.21L24.84,185.27L24.82,185.34L24.80,185.41L24.79,185.49L24.78,185.56L24.79,185.63L24.80,185.71L24.82,185.78L24.84,185.85L24.87,185.91L24.91,185.98L24.95,186.04L25.00,186.09L25.06,186.14L25.12,186.18L25.18,186.22L25.25,186.25L25.32,186.28L25.39,186.30L25.46,186.31L25.53,186.31L25.61,186.31L25.68,186.30L25.75,186.28L25.82,186.25L25.89,186.22L25.95,186.18L26.01,186.14L26.06,186.09L26.11,186.04L26.16,185.98L26.20,185.91L26.23,185.85L26.25,185.78L26.27,185.71L26.28,185.63z"/></g><g><text xml:space="preserve" fill="#000000" stroke-width="0" x="73.43" y="200.35" font-size="3.77" opacity="1.00" font-family="Arial">KIT0067</text></g></g><g/><g><g/><g><text xml:space="preserve" fill="#000000" stroke-width="0" x="7.56" y="11.88" font-size="4.53" opacity="1.00" font-family="Arial" font-weight="bold">BPA21925</text></g></g><g id="paperID" visibility="hidden" opacity="0.00" transform="scale(0.000100)"><path style="stroke:#000000;stroke-width:0.500;fill:#e6e6e6;fill-rule:evenodd" d="M-2000.00,-2000.00L2297.00,-2000.00L2297.00,2210.00L-2000.00,2210.00zM0.00,0.00L297.00,0.00L297.00,210.00L0.00,210.00z"/><path style="fill:#000000;fill-opacity:0.118" d="M3.00,210.00L297.00,210.00L297.00,3.00L300.00,3.00L300.00,213.00L3.00,213.00z"/></g></g></svg>
