<?xml version="1.0" encoding="UTF-8" standalone="no"?>
<svg xmlns="http://www.w3.org/2000/svg" xmlns:xlink="http://www.w3.org/1999/xlink" width="297.000mm" height="210.000mm" viewBox="0.000000 0.000000 297.000000 210.000000" stroke-linejoin="round" stroke-linecap="round" fill="none" fill-rule="evenodd"><desc>Composer Export</desc><script type="text/ecmascript"><![CDATA[
if(typeof(top) != "undefined")
{
	top.ShowPaper = ShowPaper;
}
function ShowPaper()
{
  var svgDocument = getDocument();
  var paper = svgDocument.getElementById("paperID");
  if(paper)
  {
    paper.setAttribute("transform","scale(1)");
    paper.setAttribute("opacity","1");
    paper.setAttribute("visibility","visible");
  }
  var svg = svgDocument.getRootElement();
  if(svg)
  {
    svg.setAttribute("width","307.000mm");
    svg.setAttribute("height","220.000mm");
    svg.setAttribute("viewBox","-5.000000 -5.000000 307.000000 220.000000");
  }
}
]]></script><defs/><g><path style="fill:#000000;fill-opacity:0.098;fill-rule:evenodd" d="M124.09,20.04L123.70,20.09L123.71,19.87L124.12,19.83zM123.91,20.72L124.65,20.54L124.60,23.17L124.07,23.23zM117.14,24.03L116.75,24.08L116.76,23.86L117.17,23.83zM116.96,24.71L117.70,24.53L117.65,27.17L117.12,27.23zM110.20,28.02L109.80,28.08L109.82,27.86L110.23,27.82zM110.02,28.71L110.75,28.53L110.70,31.16L110.18,31.22zM103.25,32.02L102.86,32.07L102.87,31.85L103.28,31.82zM123.27,34.69L123.74,34.42L123.97,34.45L123.97,34.65L123.56,34.82L122.92,34.80L122.73,34.62L122.74,34.08zM103.82,34.86L103.63,35.20L103.05,35.21L103.06,32.72L103.80,32.52zM96.30,36.01L95.91,36.07L95.92,35.85L96.33,35.81zM116.32,38.68L116.79,38.41L117.03,38.45L117.02,38.64L116.61,38.81L115.95,38.82L115.73,38.67L115.79,38.07zM96.63,39.15L96.11,39.21L96.11,36.71L96.71,36.54zM89.22,40.06L88.98,40.06L88.98,39.83L89.22,39.83zM109.37,42.68L109.84,42.41L110.08,42.44L110.07,42.64L109.67,42.80L108.83,42.80L108.85,42.07zM89.69,43.14L89.16,43.21L89.16,40.70L89.51,40.49L89.74,40.51zM102.48,46.73L102.38,46.84L101.89,46.79L101.90,46.06zM103.14,46.64L102.48,46.73L102.89,46.40L103.13,46.44zM95.25,50.49L96.01,50.43L96.00,50.63L95.60,50.79L94.94,50.79L94.96,50.05zM88.18,54.40L88.70,54.47L89.06,54.43L89.06,54.62L88.65,54.79L87.99,54.78L87.99,54.23zM222.96,85.41L221.57,86.44L221.51,89.41L222.01,89.33L222.98,88.83L222.91,89.14L221.48,90.03L221.16,90.10L221.06,88.29L205.53,97.15L205.41,98.25L203.27,99.41L203.35,100.62L203.50,100.85L202.92,101.04L202.82,99.76L196.90,103.11L196.73,106.24L194.64,107.47L194.64,105.89L196.15,104.96L196.21,103.60L196.04,103.62L196.03,101.55L205.25,96.32L205.27,96.11L204.71,95.74L204.48,95.74L195.16,101.03L195.01,103.13L178.61,112.61L178.51,114.59L176.57,115.79L176.57,115.46L178.15,114.24L178.15,111.53L178.00,111.38L176.87,111.93L176.23,111.97L176.18,111.22L222.74,84.44L222.95,84.45zM123.64,95.37L123.51,95.06L123.71,94.86L124.13,94.88L124.13,95.48zM125.01,96.18L124.61,96.65L123.89,96.64L124.29,96.51L124.47,95.64L125.01,95.42zM116.69,99.36L116.56,99.06L116.76,98.85L117.18,98.87L117.18,99.47zM118.06,100.17L117.66,100.64L116.95,100.64L117.34,100.50L117.52,99.64L118.06,99.41zM109.74,103.36L109.61,103.05L109.81,102.85L110.23,102.86L110.24,103.47zM209.26,102.94L207.32,104.16L207.32,103.64L209.25,102.54zM111.06,104.11L110.72,104.64L110.00,104.63L110.40,104.50L110.58,103.63L111.12,103.41zM122.58,106.33L122.58,107.12L122.28,107.34L122.23,106.67L122.07,106.51L121.69,106.76L121.69,107.41L122.28,107.34L122.21,107.62L122.01,107.77L121.17,107.74L120.88,107.35L121.30,107.23L121.65,106.37L122.40,106.15zM120.88,107.35L120.58,107.25L120.65,107.03zM102.79,107.35L102.67,107.05L102.87,106.84L103.29,106.86L103.29,107.46zM104.16,107.98L103.75,108.61L103.05,108.63L103.45,108.49L103.63,107.63L104.17,107.40zM95.86,111.36L95.72,111.03L95.93,110.83L96.16,110.85L96.19,111.44zM133.57,112.51L133.69,113.36L133.51,113.71L132.93,114.19L132.46,114.19L132.11,113.97L132.11,113.67L132.29,113.68L132.74,112.77L133.28,112.41zM97.22,111.98L96.80,112.61L96.10,112.62L96.50,112.49L96.68,111.62L96.98,111.36L97.20,111.38zM88.91,115.35L88.77,115.03L88.98,114.82L89.22,114.85L89.24,115.44zM90.27,115.97L89.86,116.60L89.17,116.62L89.36,116.48L89.51,115.74L90.04,115.36L90.26,115.37zM202.83,120.40L202.80,124.12L202.11,124.49L201.93,122.84L201.72,122.82L197.60,125.17L197.42,127.25L197.20,127.41L196.84,127.44L196.91,123.44L197.53,122.85L202.05,120.24L202.65,120.22zM95.46,122.14L95.20,122.80L95.14,122.31L94.95,122.12L94.71,122.13L94.30,122.63L94.37,121.99L95.14,121.62zM94.43,123.04L94.71,123.05L95.20,122.80L95.14,123.10L94.72,123.39L94.07,123.39L93.54,123.00L93.51,122.84L94.01,122.85L94.30,122.63zM69.75,126.91L70.05,126.66L70.63,126.66L70.63,127.62L69.75,127.36zM106.43,128.21L106.42,129.17L105.66,129.82L105.21,129.81L104.80,129.28L105.18,129.15L105.50,128.43L106.01,128.05L106.25,128.03zM73.07,127.93L72.19,128.48L72.19,127.95L72.85,127.51L73.07,127.54zM73.93,129.35L73.35,129.35L73.35,128.57L73.93,128.57zM71.85,128.62L71.62,128.77L71.25,129.29L70.92,129.35L70.98,128.64L71.88,128.25zM76.36,130.02L75.37,130.61L75.44,129.80L76.14,129.42L76.37,129.44zM75.37,130.61L74.28,131.27L74.22,130.49L74.93,130.12L75.13,130.15zM73.42,130.56L73.36,130.33L73.56,130.30zM74.56,133.46L75.32,133.26L75.32,134.21L74.75,134.20L74.60,133.99zM81.58,133.87L81.39,134.21L81.41,132.78L81.58,132.75zM80.37,133.52L78.30,134.74L77.52,135.01L76.11,135.88L75.79,135.95L75.84,135.24L77.73,134.18L79.08,133.27L80.37,132.58zM87.65,137.27L83.49,139.58L82.90,139.77L82.96,139.06L84.85,138.00L86.20,137.09L87.50,136.40zM81.51,137.60L81.86,137.25L82.44,137.26L82.44,138.03L81.88,138.01zM109.48,152.36L109.82,152.02L110.41,152.02L110.41,152.80L109.84,152.78zM108.16,152.96L108.10,152.74L108.30,152.70zM113.47,153.25L111.21,154.49L110.87,154.53L110.87,153.95L112.97,152.57L113.31,152.34L113.53,152.36zM118.19,154.59L118.37,154.62L118.39,155.41zM125.70,159.51L123.72,159.50L122.56,159.90L120.49,161.31L118.75,163.40L118.74,160.95L119.02,156.02L119.72,154.96L119.90,156.62L120.50,156.55zM143.00,160.36L143.59,160.38L143.61,160.76L143.03,160.52zM145.09,161.59L145.86,161.24L145.78,161.95L145.49,161.96zM166.79,174.08L167.57,174.10L167.58,174.48zM169.05,175.31L169.83,174.96L169.75,175.67L169.46,175.68zM184.42,184.29L184.32,184.00L184.93,183.99L184.93,184.39zM186.41,185.36L186.96,185.00L187.18,185.02L187.18,185.62L186.62,185.57zM171.50,185.77L171.76,186.03L171.47,186.08L171.48,186.31L171.71,186.32L171.76,186.03L177.10,189.04L176.40,189.03L174.78,189.19L173.10,190.12L171.56,191.53L170.31,193.08L170.32,190.30L170.61,185.55L171.30,184.49L171.38,184.50zM202.39,195.64L202.75,195.11L203.11,194.77L203.67,194.75L203.62,196.74L204.15,196.69L205.94,195.62L205.93,196.38L203.62,197.54L203.66,198.57L203.16,199.86L199.80,201.90L199.31,201.90L199.09,201.69L199.33,201.43L199.33,197.56L199.50,197.56L200.31,196.48L200.74,196.34L201.17,196.33L201.53,195.79L201.96,195.65zM205.25,97.12L205.02,97.31L204.69,97.92L204.49,97.92L204.54,97.39L205.10,96.97zM196.48,102.54L196.15,102.60L196.31,102.00L196.50,101.81L196.89,101.82zM122.23,106.67L122.28,107.34L121.69,107.41L121.69,106.76L122.07,106.51zM95.14,122.31L95.20,122.80L94.71,123.05L94.43,123.04L94.30,122.63L94.71,122.13L94.95,122.12zM171.71,186.32L171.48,186.31L171.47,186.08L171.76,186.03z"/><g id="Actor_.0"><g style="stroke:#000000;stroke-width:0.176"><path d="M176.50,115.90L176.51,115.68L176.57,115.56L176.62,115.49L177.87,114.69L177.97,114.61L178.07,114.50L178.14,114.37L178.19,114.23L178.20,114.10L178.20,111.72L178.19,111.61L178.14,111.53L178.07,111.48L177.97,111.47L177.87,111.51L176.62,112.15L176.57,112.14L176.54,112.12L176.51,112.08L176.50,111.87L178.46,110.74"/><path d="M176.57,112.14L176.30,111.99"/></g><g style="stroke:#000000;stroke-width:0.529"><path d="M87.68,61.39L87.68,62.18L87.66,62.31L87.62,62.44L87.54,62.57L87.45,62.69L87.35,62.77L86.10,63.57L86.05,63.63L85.99,63.76L85.98,63.98L176.50,115.90L178.46,114.78L178.46,110.74"/></g></g><g id="Actor_.1"><g style="stroke:#000000;stroke-width:0.176"><path d="M202.83,101.30L207.19,103.80L207.19,104.30"/><path d="M207.19,103.80L209.36,102.55"/></g><g style="stroke:#000000;stroke-width:0.529"><path d="M203.56,102.22L207.19,104.30L209.36,103.06L209.36,102.55L205.01,100.05L202.83,101.30L202.83,101.81L203.56,102.22"/></g></g><g id="Actor_.2"><g style="stroke:#000000;stroke-width:0.176"><path d="M223.07,85.16L221.11,86.28L221.11,90.31"/><path d="M223.00,88.92L222.96,88.91L222.91,88.93L221.71,89.55L221.60,89.58L221.51,89.58L221.44,89.53L221.39,89.45L221.37,89.34L221.37,87.98"/></g><g style="stroke:#000000;stroke-width:0.529"><path d="M219.36,89.31L221.11,90.31L223.07,89.19L223.07,89.04L223.06,88.98L223.04,88.94L223.00,88.92L221.37,87.98"/><path d="M223.07,85.16L223.07,85.31L223.06,85.38L223.04,85.45L223.00,85.51L222.96,85.57L222.91,85.61L221.71,86.37L221.60,86.45L221.51,86.56L221.44,86.69L221.39,86.83L221.37,86.96L221.37,87.98"/></g></g><g id="Actor_.3"><g style="stroke:#000000;stroke-width:0.176"><path d="M191.95,105.05L194.57,106.55L194.57,107.56"/><path d="M194.57,106.55L196.74,105.30"/></g><g style="stroke:#000000;stroke-width:0.529"><path d="M191.95,105.05L191.95,106.06L194.57,107.56L196.74,106.31L196.74,105.30"/></g></g><g id="Actor_.4"><g style="stroke:#000000;stroke-width:0.176"><path d="M196.31,103.52L196.31,104.59L196.29,104.74L196.23,104.90L196.15,105.05L196.04,105.18L195.91,105.27L194.76,105.93L194.70,105.98L194.65,106.04L194.60,106.12L194.58,106.20L194.57,106.27L194.57,106.55"/><path d="M196.50,100.40L196.74,100.26"/></g><g style="stroke:#000000;stroke-width:0.529"><path d="M196.74,103.28L196.74,105.30L194.57,106.55L191.93,105.04"/></g></g><g id="Actor_.5"><g style="stroke:#000000;stroke-width:0.176"><path d="M73.16,129.29L73.12,129.28"/><path d="M76.34,129.41L75.30,130.01L74.95,129.66L74.53,129.42L74.70,129.27L74.76,129.10L74.75,129.06L74.73,128.92L74.59,128.77L74.37,128.64L74.10,128.56L73.79,128.54L73.49,128.58L73.23,128.67L72.82,128.44L72.47,128.39"/><path d="M73.23,128.67L73.23,129.15L73.27,129.14L73.29,129.14L73.30,129.15L73.31,129.15L73.32,129.16L73.32,129.17L73.32,129.17L73.31,129.18L73.30,129.20L73.27,129.23L73.23,129.26L73.23,129.41"/><path d="M73.19,129.29L73.19,129.29L73.22,129.28L73.23,129.26"/><path d="M73.23,129.15L73.22,129.11L73.19,129.07L73.19,129.06"/><path d="M75.30,130.77L75.30,130.01"/><path d="M74.53,129.42L74.53,129.47"/></g><g style="stroke:#000000;stroke-width:0.529"><path d="M72.47,128.42L72.47,128.39L73.51,127.79L73.86,127.84L75.99,129.06L76.34,129.41L76.34,130.17L75.30,130.77L75.25,130.76"/></g></g><g id="Actor_.6"><g style="stroke:#000000;stroke-width:0.176"><path d="M81.22,56.93L176.09,111.35L223.09,84.39"/><path d="M88.09,54.90L87.88,54.70L87.80,54.46L87.85,54.23L88.03,54.02L88.32,53.85L88.69,53.75L89.10,53.72L89.51,53.77L89.86,53.89L90.13,54.07L90.28,54.29L90.29,54.52L90.17,54.75L89.93,54.94L89.67,55.05L89.72,54.95L89.71,54.83L89.63,54.71L89.49,54.61L89.30,54.54L89.08,54.52L88.86,54.53L88.66,54.59L88.50,54.68L88.40,54.80L88.37,54.92L88.43,55.06L88.09,54.90"/><path d="M94.85,50.70L94.76,50.47L94.81,50.24L95.03,50.00L95.28,49.86L95.66,49.75L96.06,49.72L96.47,49.77L96.82,49.89L97.09,50.07L97.24,50.29L97.26,50.53L97.14,50.76L96.90,50.95L96.63,51.06L96.68,50.96L96.68,50.83L96.59,50.71L96.45,50.62L96.26,50.55L96.04,50.52L95.82,50.54L95.62,50.60L95.46,50.69L95.36,50.80L95.34,50.93L95.39,51.06L95.06,50.91L94.85,50.70"/><path d="M101.81,46.71L101.72,46.48L101.77,46.24L101.96,46.03L102.25,45.86L102.62,45.76L103.03,45.73L103.43,45.78L103.79,45.90L104.05,46.08L104.20,46.30L104.22,46.54L104.10,46.76L103.86,46.95L103.60,47.06L103.65,46.97L103.64,46.84L103.56,46.72L103.41,46.62L103.22,46.56L103.00,46.53L102.78,46.55L102.58,46.60L102.42,46.69L102.33,46.81L102.30,46.94L102.36,47.07L102.02,46.91L101.81,46.71"/><path d="M108.77,42.71L108.69,42.48L108.74,42.25L108.92,42.04L109.21,41.87L109.58,41.76L109.99,41.73L110.40,41.78L110.75,41.90L111.02,42.09L111.17,42.31L111.18,42.54L111.06,42.77L110.82,42.96L110.56,43.07L110.61,42.97L110.60,42.84L110.52,42.73L110.38,42.63L110.19,42.56L109.97,42.54L109.75,42.55L109.55,42.61L109.39,42.70L109.29,42.81L109.26,42.94L109.32,43.07L108.98,42.92L108.77,42.71"/><path d="M115.95,38.92L116.28,39.08L116.23,38.95L116.25,38.82L116.36,38.70L116.51,38.61L116.71,38.56L116.93,38.54L117.15,38.57L117.34,38.63L117.49,38.73L117.57,38.85L117.57,38.98L117.52,39.07L117.79,38.97L118.03,38.77L118.15,38.55L118.13,38.31L117.98,38.09L117.71,37.91L117.36,37.79L116.95,37.74L116.55,37.77L116.17,37.87L115.88,38.04L115.70,38.25L115.65,38.49L115.74,38.72L115.95,38.92"/><path d="M122.70,34.73L122.61,34.49L122.67,34.26L122.85,34.05L123.14,33.88L123.51,33.78L123.92,33.75L124.32,33.80L124.68,33.92L124.94,34.10L125.09,34.32L125.11,34.55L124.99,34.78L124.75,34.97L124.49,35.08L124.54,34.98L124.53,34.86L124.45,34.74L124.30,34.64L124.12,34.58L123.89,34.55L123.67,34.56L123.47,34.62L123.31,34.71L123.22,34.83L123.19,34.95L123.24,35.09L122.91,34.93L122.70,34.73"/><path d="M176.09,111.35L176.09,112.10"/></g><g style="stroke:#000000;stroke-width:0.529"><path d="M82.01,58.14L81.22,57.69L81.22,56.93L128.22,29.97L223.09,84.39L223.09,85.15L176.09,112.10L82.01,58.14"/><path d="M88.43,55.06L88.50,54.97L88.66,54.87L88.86,54.82L89.08,54.80L89.30,54.83L89.49,54.89L89.63,54.99L89.67,55.05L89.20,55.15L88.79,55.14L88.43,55.06"/><path d="M95.61,51.11L95.76,51.14L96.17,51.15L96.63,51.06L96.59,51.00L96.45,50.90L96.26,50.84L96.04,50.81L95.82,50.82L95.62,50.88L95.46,50.97L95.39,51.06L95.61,51.11"/><path d="M102.72,47.15L102.36,47.07L102.42,46.98L102.58,46.89L102.78,46.83L103.00,46.82L103.22,46.84L103.41,46.91L103.56,47.00L103.60,47.06L103.13,47.16L102.72,47.15"/><path d="M109.68,43.16L109.32,43.07L109.39,42.98L109.55,42.89L109.75,42.84L109.97,42.82L110.19,42.85L110.38,42.91L110.52,43.01L110.56,43.07L110.09,43.17L109.68,43.16"/><path d="M116.36,39.10L116.28,39.08L116.36,38.98L116.51,38.90L116.71,38.84L116.93,38.83L117.15,38.85L117.34,38.92L117.49,39.02L117.52,39.07L117.06,39.17L116.65,39.16L116.36,39.10"/><path d="M123.61,35.17L124.02,35.18L124.49,35.08L124.45,35.02L124.30,34.92L124.12,34.86L123.89,34.83L123.67,34.85L123.47,34.90L123.31,34.99L123.24,35.09L123.61,35.17"/></g></g><g id="Actor_.7"><g style="stroke:#000000;stroke-width:0.176"><path d="M178.51,112.74L178.51,110.72L196.26,100.53"/></g><g style="stroke:#000000;stroke-width:0.529"><path d="M178.46,112.71L178.51,112.74L195.00,103.28"/></g></g><g id="Actor_.8"><g style="stroke:#000000;stroke-width:0.176"><path d="M203.31,96.49L221.07,86.31"/></g><g style="stroke:#000000;stroke-width:0.529"><path d="M205.45,97.28L221.07,88.32L221.07,86.31"/></g></g><g id="Actor_.9"><g style="stroke:#000000;stroke-width:0.176"><path d="M100.47,145.65L110.05,151.14"/><path d="M110.06,151.07L100.65,145.67"/><path d="M110.44,150.86L100.93,145.41"/><path d="M117.92,155.79L117.90,155.78L117.89,155.75L117.88,155.72L117.88,155.63L113.53,153.14"/><path d="M113.53,152.63L117.88,155.13L117.88,155.04L117.89,155.00L117.90,154.96L117.92,154.93L117.95,154.90L117.98,154.87L118.31,154.68L118.34,154.67L118.36,154.67"/><path d="M117.88,155.63L117.95,155.60L113.53,153.06"/><path d="M117.95,155.60L117.95,155.70L117.95,155.70L117.96,155.71L117.97,155.71L118.31,155.52L118.32,155.51L118.33,155.49L118.34,155.46L118.34,155.37L118.34,154.78L118.33,154.76L118.33,154.76L118.32,154.76L118.31,154.76L117.97,154.96L117.96,154.97L117.95,154.99L117.95,155.09L117.88,155.13"/></g><g style="stroke:#000000;stroke-width:0.529"><path d="M110.01,151.25L100.49,145.79L100.48,145.77L100.47,145.74L100.47,145.65L100.54,145.61L100.65,145.67L100.90,145.53L100.92,145.51L100.93,145.50L100.93,145.48L100.93,145.41L100.47,145.15L100.47,145.06L100.48,145.02L100.49,144.98L100.51,144.94L100.54,144.91L100.57,144.89L100.90,144.70L100.93,144.69L100.96,144.69L118.39,154.69L118.40,154.71L118.40,154.74L118.40,155.42L118.40,155.46L118.39,155.50L118.36,155.54L118.35,155.56L118.34,155.57L118.31,155.59L117.98,155.78L117.95,155.79L117.92,155.79L113.53,153.27"/></g></g><g id="Actor_.10"><g style="stroke:#000000;stroke-width:0.176"><path d="M77.00,130.17L78.71,131.15L78.78,131.11L78.78,131.19"/><path d="M78.78,131.11L77.00,130.09"/><path d="M79.20,130.19L79.17,130.19L79.14,130.20L78.81,130.39L78.78,130.41L78.75,130.44L78.73,130.48L78.72,130.52L78.71,130.56L78.71,130.65L77.00,129.66"/><path d="M78.71,130.65L78.78,130.61L78.78,130.52L78.78,130.51L78.79,130.50L78.79,130.48L78.80,130.47L78.81,130.47L79.14,130.28L79.15,130.27L79.16,130.27L79.16,130.28L79.17,130.29L79.17,130.30L79.17,130.98L79.17,130.99L79.16,131.00L79.16,131.02L79.15,131.03L79.14,131.03L78.82,131.21"/></g><g style="stroke:#000000;stroke-width:0.529"><path d="M73.21,126.76L70.49,125.20L70.46,125.20L70.43,125.21L70.11,125.40L70.08,125.42L70.05,125.45L70.03,125.49L70.01,125.53L70.01,125.57L70.01,125.65L70.03,125.67"/><path d="M78.89,131.25L79.14,131.11L79.17,131.09L79.20,131.06L79.20,131.04L79.22,131.02L79.23,130.98L79.24,130.94L79.24,130.26L79.23,130.23L79.22,130.20L74.47,127.48"/></g></g><g id="Actor_.11"><g style="stroke:#000000;stroke-width:0.176"><path d="M199.66,201.88L199.49,201.79L199.39,201.61L199.35,201.36L199.35,198.29L199.39,198.00L199.49,197.70L199.66,197.42L199.86,197.18L200.09,197.01L202.75,195.48L202.98,195.39L203.18,195.40"/><path d="M199.39,201.72L199.39,201.72"/></g><g style="stroke:#000000;stroke-width:0.529"><path d="M199.39,201.72L199.28,201.54L199.24,201.30L199.24,198.22L199.28,197.94L199.39,197.64L199.55,197.36L199.76,197.12L199.98,196.94L202.64,195.42L202.87,195.33L203.07,195.33L203.18,195.40L203.35,195.49L203.45,195.67L203.49,195.92L203.49,198.99L203.45,199.28L203.35,199.58L203.18,199.86L202.98,200.10L202.75,200.27L200.09,201.80L199.86,201.88L199.66,201.88"/><path d="M199.39,201.72L199.66,201.88"/></g></g><g id="Actor_.12"><g style="stroke:#000000;stroke-width:0.176"><path d="M71.38,129.01L71.73,129.06L73.86,130.28L74.21,130.63L74.21,131.39"/><path d="M72.22,129.80L72.22,129.80L72.23,129.88L72.22,129.94L72.19,129.99L72.15,130.01L72.09,130.01L72.03,129.99L71.69,129.79L71.63,129.74L71.57,129.68L71.53,129.61L71.50,129.53L71.49,129.45L71.50,129.39L71.53,129.34L71.57,129.31L71.63,129.31L71.69,129.34L71.76,129.38L71.79,129.46L71.83,129.53L71.89,129.60L71.95,129.64L72.22,129.80L72.19,129.72L72.17,129.68L71.95,129.55L71.91,129.52L71.88,129.49L71.85,129.44L71.85,129.43L72.03,129.54L72.09,129.58L72.15,129.65L72.17,129.68"/><path d="M71.76,129.38L71.85,129.43"/><path d="M73.19,129.39L73.13,129.35L73.00,129.20L72.96,129.02L73.03,128.85L73.19,128.70"/><path d="M73.36,130.52L73.37,130.60L73.40,130.68L73.44,130.75L73.50,130.82L73.56,130.86L73.91,131.06L73.97,131.09L74.02,131.09L74.06,131.06L74.09,131.01L74.10,130.95L74.09,130.87L74.09,130.87L73.82,130.71L73.76,130.67L73.70,130.60L73.66,130.53L73.63,130.45L73.56,130.41L73.50,130.39L73.44,130.39L73.40,130.41L73.37,130.46L73.36,130.52"/><path d="M74.21,130.63L75.25,130.03"/><path d="M74.09,130.87L74.06,130.79L74.04,130.75L73.82,130.63L73.78,130.60L73.75,130.56L73.72,130.51L73.72,130.50L73.63,130.45"/><path d="M73.72,130.50L73.91,130.61L73.97,130.66L74.02,130.72L74.04,130.75"/><path d="M74.02,131.09L74.02,131.09"/></g><g style="stroke:#000000;stroke-width:0.529"><path d="M72.03,130.29L71.73,130.12L71.38,129.77L71.38,129.01L72.43,128.41L72.77,128.46L73.19,128.70L73.19,129.17L73.15,129.21L73.13,129.24L73.13,129.26L73.12,129.27L73.12,129.28L73.12,129.28L73.13,129.29L73.13,129.29L73.14,129.30L73.15,129.29L73.19,129.28L73.19,129.39L73.35,129.48L73.62,129.56L73.93,129.58L74.23,129.54L74.49,129.45L74.91,129.68L75.25,130.03L75.25,130.79L74.21,131.39L73.86,131.34L72.03,130.29"/></g></g><g id="Actor_.13"><g style="stroke:#000000;stroke-width:0.176"><path d="M119.88,154.92L119.67,155.05L118.97,156.26L118.32,155.88"/><path d="M118.62,163.71L118.62,162.70L118.97,156.26"/><path d="M119.67,155.05L119.01,154.67"/><path d="M119.88,156.19L119.88,156.69L119.90,156.76L119.93,156.81L119.97,156.84L120.03,156.84L120.10,156.81L120.34,156.68"/></g><g style="stroke:#000000;stroke-width:0.529"><path d="M125.59,159.68L125.59,159.72L124.54,159.51L123.36,159.68L122.10,160.23L120.85,161.12L119.69,162.28L119.67,162.30L118.62,163.71L117.97,163.34L117.97,162.33L118.32,155.88L119.01,154.67L119.23,154.55L119.88,154.92L119.88,156.19"/></g></g><g id="Actor_.14"><g style="stroke:#000000;stroke-width:0.176"><path d="M169.89,185.46L170.54,185.84L170.19,192.29L170.19,193.29"/><path d="M170.54,185.84L171.24,184.63L171.46,184.50"/><path d="M170.59,184.25L171.24,184.63"/><path d="M171.91,186.26L171.67,186.39L171.61,186.42L171.55,186.42L171.50,186.39L171.47,186.34L171.46,186.27L171.46,185.77"/></g><g style="stroke:#000000;stroke-width:0.529"><path d="M177.16,189.26L177.16,189.30L176.11,189.09L174.93,189.26L173.68,189.81L172.42,190.70L172.01,191.11L171.24,191.88L170.19,193.29L169.54,192.92L169.54,191.91L169.89,185.46L170.59,184.25L170.80,184.13L171.46,184.50L171.46,185.77"/></g></g><g id="Actor_.15"><g style="stroke:#000000;stroke-width:0.176"><path d="M108.30,152.83L108.32,152.90L108.37,152.98L108.42,153.04L108.48,153.09L108.75,153.24L108.76,153.25L108.77,153.32L108.76,153.39L108.73,153.43L108.68,153.46L108.63,153.46L108.57,153.44L108.22,153.24L108.16,153.19L108.11,153.13L108.06,153.05L108.03,152.97L108.03,152.90L108.03,152.83L108.06,152.79L108.11,152.76L108.16,152.76L108.22,152.78L108.57,152.98L108.63,153.03L108.68,153.09L108.70,153.13L108.48,153.00L108.45,152.97L108.41,152.93L108.39,152.89L108.38,152.88"/><path d="M107.92,152.46L108.26,152.51L110.40,153.73L110.75,154.08L110.75,154.84"/><path d="M109.72,152.14L109.56,152.29L109.50,152.47L109.53,152.64L109.67,152.80L109.72,152.83"/><path d="M108.75,153.24L108.73,153.17L108.70,153.13"/><path d="M110.50,154.53L110.44,154.51L110.09,154.31L110.03,154.26L109.98,154.20L109.93,154.13L109.91,154.05L109.90,153.97L109.91,153.91L109.93,153.86L109.98,153.83L110.03,153.83L110.09,153.86L110.17,153.90L110.20,153.98L110.24,154.05L110.29,154.12L110.35,154.16L110.63,154.32L110.63,154.32L110.64,154.40L110.63,154.46L110.60,154.51L110.56,154.53L110.50,154.53"/><path d="M110.75,154.08L111.79,153.48"/><path d="M110.35,154.07L110.32,154.04L110.28,154.01L110.26,153.96L110.25,153.95L110.44,154.06L110.50,154.10L110.56,154.17L110.58,154.20L110.35,154.07"/><path d="M110.25,153.95L110.17,153.90"/><path d="M110.58,154.20L110.60,154.24L110.63,154.32"/></g><g style="stroke:#000000;stroke-width:0.529"><path d="M108.26,153.56L107.92,153.21L107.92,152.46L108.96,151.86L109.31,151.91L109.72,152.14L109.72,152.62L109.69,152.65L109.67,152.69L109.66,152.70L109.66,152.71L109.66,152.72L109.66,152.73L109.66,152.73L109.67,152.74L109.68,152.74L109.69,152.74L109.72,152.73L109.72,152.83L109.88,152.93L110.16,153.00L110.47,153.02L110.77,152.98L111.03,152.89L111.44,153.13L111.79,153.48L111.79,154.24L110.75,154.84L110.40,154.79L108.26,153.56"/></g></g><g id="Actor_.16"><g style="stroke:#000000;stroke-width:0.176"><path d="M109.66,152.73L109.69,152.74"/><path d="M109.00,151.83L109.35,151.88L109.77,152.12L110.03,152.03L110.33,151.99L110.63,152.01L110.91,152.09L111.13,152.21L111.26,152.37L111.30,152.55L111.23,152.72L111.07,152.87L111.49,153.11L111.83,153.46L112.88,152.86"/><path d="M109.77,152.12L109.77,152.60L109.81,152.59L109.83,152.59L109.84,152.59L109.85,152.60L109.85,152.60L109.85,152.61L109.85,152.62L109.85,152.63L109.84,152.65L109.81,152.67L109.77,152.70L109.77,152.86"/><path d="M109.72,152.74L109.73,152.74L109.75,152.72L109.77,152.70"/><path d="M109.72,152.51L109.73,152.51L109.75,152.56L109.77,152.60"/><path d="M109.73,152.74L109.73,152.74"/><path d="M111.83,153.46L111.83,154.21"/><path d="M111.07,152.87L111.07,152.92"/></g><g style="stroke:#000000;stroke-width:0.529"><path d="M109.00,151.86L109.00,151.83L110.05,151.23L110.40,151.28L112.53,152.51L112.88,152.86L112.88,153.61L111.83,154.21L111.79,154.21"/></g></g><g id="Actor_.17"><g style="stroke:#000000;stroke-width:0.176"><path d="M203.49,198.05L203.49,198.01L203.51,197.97L203.53,197.93L203.56,197.90L203.59,197.88L203.91,197.69L203.94,197.68L203.97,197.68"/><path d="M203.49,198.73L203.49,198.76L203.51,198.78L203.53,198.80"/><path d="M203.55,198.08L203.55,198.69L203.55,198.70L203.56,198.71L203.57,198.71L203.58,198.71L203.59,198.71L203.91,198.52L203.91,198.52L203.92,198.51L203.93,198.50L203.94,198.49L203.94,198.48L203.94,198.47L203.94,198.38L203.55,198.15"/><path d="M203.83,197.81L203.91,197.77L203.92,197.76L203.93,197.76L203.94,197.77L203.94,197.77L203.94,197.78L203.94,197.87"/><path d="M203.57,198.71L203.57,198.71"/><path d="M203.94,198.38L204.01,198.34"/></g><g style="stroke:#000000;stroke-width:0.529"><path d="M203.49,197.40L203.97,197.68L203.99,197.69L204.00,197.72L204.01,197.75L204.01,197.84L203.94,197.87L203.83,197.81L203.59,197.95L203.58,197.96L203.57,197.97L203.56,197.98L203.55,198.00L203.55,198.01L203.55,198.08"/><path d="M203.49,198.77L203.53,198.80L203.56,198.80L203.59,198.78L203.91,198.60L203.94,198.57L203.97,198.54L203.99,198.51L204.00,198.47L204.01,198.43L204.01,198.34L203.55,198.08"/></g></g><g id="Actor_.18"><g style="stroke:#000000;stroke-width:0.176"><path d="M84.02,135.20L81.56,133.79"/><path d="M84.46,134.95L81.56,133.29"/><path d="M84.08,135.16L81.56,133.72"/><path d="M87.51,137.20L91.30,139.38"/><path d="M87.51,136.70L91.69,139.10"/><path d="M91.36,139.34L87.51,137.13"/><path d="M92.25,138.69L92.22,138.69L92.19,138.70L91.87,138.89L91.84,138.91L91.81,138.94L91.79,138.98L91.78,139.02L91.77,139.03"/><path d="M91.85,138.97L91.87,138.96L91.88,138.95"/></g><g style="stroke:#000000;stroke-width:0.529"><path d="M92.25,138.69L79.09,131.14"/><path d="M83.90,135.27L81.56,133.93"/><path d="M91.20,139.45L87.51,137.34"/></g></g><g id="Actor_.19"><g style="stroke:#000000;stroke-width:0.176"><path d="M81.94,134.14L81.91,134.32L81.81,134.39L81.73,134.38L81.63,134.33L81.42,134.13"/><path d="M81.94,134.18L81.78,134.05"/><path d="M88.69,138.01L88.67,138.15L88.63,138.23L88.56,138.26L88.47,138.25L88.37,138.20L88.17,138.00L88.10,137.87L88.06,137.66"/><path d="M88.69,138.06L88.52,137.92"/><path d="M199.42,202.03L199.27,201.94L199.17,201.78L199.14,201.55L199.14,198.10L199.17,197.83L199.27,197.56L199.48,197.22L199.61,197.07L199.82,196.91L202.80,195.20L203.01,195.12L203.20,195.12"/></g><g style="stroke:#000000;stroke-width:0.529"><path d="M81.22,125.15L74.60,121.36L74.41,121.35L74.20,121.44L73.14,122.04L71.22,123.15L71.01,123.31L70.81,123.53L70.66,123.79L70.57,124.07L70.53,124.33L70.53,125.22"/><path d="M75.23,130.80L76.58,131.58"/><path d="M80.29,133.70L83.46,135.52"/><path d="M97.77,134.65L82.48,125.88"/><path d="M90.81,139.74L87.17,137.65"/><path d="M100.90,145.53L91.72,140.26"/><path d="M203.49,195.92L203.49,195.60L203.45,195.38L203.36,195.21L203.20,195.12L98.68,135.17"/><path d="M118.36,155.54L118.48,155.61"/><path d="M170.05,185.19L119.88,156.41"/><path d="M171.46,185.99L199.42,202.03L199.61,202.04L199.82,201.95L202.80,200.24L203.01,200.08L203.08,200.00L203.20,199.86L203.36,199.60L203.45,199.32L203.49,198.99"/></g></g><g id="Actor_.20"><g style="stroke:#000000;stroke-width:0.176"><path d="M144.69,161.56L144.58,161.45L144.17,161.21L144.33,161.06L144.39,160.89L144.36,160.72L144.22,160.56L144.01,160.43L143.73,160.36L143.43,160.33L143.13,160.37L142.86,160.46L142.86,160.51"/><path d="M142.86,160.46L142.45,160.23L142.34,160.21"/><path d="M145.98,161.20L145.02,161.75"/><path d="M144.17,161.21L144.17,161.26"/></g><g style="stroke:#000000;stroke-width:0.529"><path d="M142.19,160.13L143.15,159.58L143.49,159.63L145.63,160.85L145.98,161.20L145.98,161.96L145.68,162.13"/></g></g><g id="Actor_.21"><g style="stroke:#000000;stroke-width:0.176"><path d="M183.66,183.91L183.77,183.93L184.19,184.17L184.45,184.07L184.75,184.04L185.05,184.06L185.33,184.13L185.55,184.26L185.68,184.42L185.69,184.44L185.72,184.59L185.65,184.76L185.49,184.91L185.91,185.15L186.01,185.26"/><path d="M184.19,184.17L184.19,184.21"/><path d="M185.49,184.91L185.49,184.96"/><path d="M187.30,184.90L186.34,185.45"/></g><g style="stroke:#000000;stroke-width:0.529"><path d="M183.52,183.83L184.47,183.28L184.82,183.33L186.95,184.55L187.30,184.90L187.30,185.66L187.00,185.83"/></g></g><g id="Actor_.22"><g style="stroke:#000000;stroke-width:0.176"><path d="M168.60,175.28L168.50,175.17L168.08,174.93L168.24,174.78L168.31,174.61L168.27,174.43L168.14,174.27L167.92,174.15L167.65,174.07L167.34,174.05L167.04,174.09L166.78,174.18L166.78,174.23"/><path d="M166.78,174.18L166.36,173.94L166.26,173.93"/><path d="M168.08,174.93L168.08,174.98"/><path d="M168.94,175.47L169.89,174.92"/></g><g style="stroke:#000000;stroke-width:0.529"><path d="M166.11,173.84L167.06,173.30L167.41,173.34L168.45,173.94L169.54,174.57L169.89,174.92L169.89,175.68L169.60,175.84"/></g></g><g id="Actor_.23"><g style="stroke:#000000;stroke-width:0.176"><path d="M202.40,194.66L202.51,194.68L202.92,194.91L203.18,194.82L203.48,194.78L203.79,194.80L204.07,194.88L204.28,195.00L204.42,195.16L204.45,195.34L204.39,195.51L204.23,195.66L204.64,195.90L204.99,196.25L204.99,197.01"/><path d="M202.92,194.91L202.92,194.96"/><path d="M204.99,196.25L206.03,195.65"/><path d="M204.23,195.66L204.23,195.71"/></g><g style="stroke:#000000;stroke-width:0.529"><path d="M202.25,194.57L203.20,194.03L203.55,194.08L205.69,195.30L206.03,195.65L206.03,196.41L204.99,197.01L204.95,197.00"/></g></g><g id="Actor_.24"><g style="stroke:#000000;stroke-width:0.176"><path d="M204.95,196.27L203.90,196.87L203.90,197.63"/><path d="M203.49,196.48L203.55,196.52L203.67,196.64"/></g><g style="stroke:#000000;stroke-width:0.529"><path d="M203.90,197.63L204.95,197.03L204.95,196.27L204.60,195.92L204.18,195.69L203.92,195.78L203.62,195.82L203.49,195.81"/></g></g><g id="Actor_.25"><g style="stroke:#000000;stroke-width:0.176"><path d="M204.50,98.12L204.51,98.12L204.43,98.01"/><path d="M205.31,97.23L205.12,97.38L205.02,97.45L204.92,97.56L204.84,97.68L204.78,97.80L204.74,97.93L204.73,98.06L204.74,98.17L204.78,98.26L204.84,98.31L204.92,98.34L205.02,98.33"/><path d="M204.78,97.80L204.86,97.49L205.12,97.38L205.22,97.34L205.32,97.33L205.40,97.36L205.46,97.41L205.50,97.50L205.51,97.61L205.50,97.69"/><path d="M204.78,97.80L204.63,98.08L204.78,98.26L204.86,98.40"/><path d="M204.63,98.08L204.37,97.92"/><path d="M204.99,98.34L205.00,98.34"/><path d="M204.48,97.63L204.48,97.63L204.56,97.42L204.55,97.43L204.47,97.59L204.41,97.76L204.41,97.81L204.40,97.84"/><path d="M204.41,97.81L204.48,97.63L204.48,97.63"/><path d="M204.86,97.49L204.59,97.34L204.56,97.42"/><path d="M204.77,97.21L204.67,97.29L204.66,97.30L204.93,97.15"/><path d="M204.66,97.30L204.59,97.34"/><path d="M205.46,97.87L205.46,97.87"/><path d="M205.10,98.30L205.12,98.29"/><path d="M205.24,98.19L205.32,98.12L205.36,98.06"/></g><g style="stroke:#000000;stroke-width:0.529"><path d="M204.40,97.84L204.37,97.92L204.43,98.01L204.43,98.04L204.50,98.12L204.51,98.12L204.59,98.25L204.86,98.40L204.99,98.34"/><path d="M205.10,98.30L205.00,98.34"/><path d="M204.77,97.21L204.79,97.20L204.92,97.15L204.93,97.15L205.05,97.08L205.31,97.23L205.46,97.41L205.54,97.56L205.50,97.69L205.50,97.74L205.46,97.87L205.40,98.00L205.36,98.06L205.31,98.14L205.24,98.19L205.22,98.22L205.12,98.29"/></g></g><g id="Actor_.26"><g style="stroke:#000000;stroke-width:0.176"><path d="M110.05,151.08L112.88,152.71L112.88,153.71"/><path d="M112.88,152.71L113.53,152.33"/></g><g style="stroke:#000000;stroke-width:0.529"><path d="M112.79,153.66L112.88,153.71L113.53,153.34L113.53,152.33L110.70,150.71L110.05,151.08L110.05,151.23"/></g></g><g id="Actor_.27"><g style="stroke:#000000;stroke-width:0.176"><path d="M79.76,134.01L79.76,133.00L76.93,131.38"/><path d="M79.76,133.00L80.41,132.63"/></g><g style="stroke:#000000;stroke-width:0.529"><path d="M76.93,131.38L77.58,131.00L80.41,132.63L80.41,133.63L79.76,134.01"/></g></g><g id="Actor_.28"><g style="stroke:#000000;stroke-width:0.176"><path d="M86.85,137.83L86.85,136.82L84.02,135.20"/><path d="M86.85,136.82L87.51,136.45"/></g><g style="stroke:#000000;stroke-width:0.529"><path d="M84.02,135.20L84.68,134.82L87.51,136.45L87.51,137.45L86.85,137.83"/></g></g><g id="Actor_.29"><g style="stroke:#000000;stroke-width:0.176"><path d="M120.68,106.67L120.62,106.90L120.63,106.83L120.69,106.61L120.68,106.67"/><path d="M121.56,108.03L121.43,107.79L121.18,107.48L120.56,107.13L120.69,107.37L120.75,107.44"/><path d="M120.62,106.90L120.56,107.13"/><path d="M120.41,107.04L120.41,107.04"/><path d="M120.69,106.61L120.80,106.40L120.87,106.29L120.69,106.61"/><path d="M122.31,106.08L122.00,106.33L121.56,106.51L121.43,107.03L121.37,107.25L121.34,107.46L121.36,107.64L121.43,107.79L121.53,107.88L121.67,107.93L121.83,107.91"/><path d="M121.81,106.74L121.84,106.71L121.79,106.77L121.77,106.79L121.85,106.70L121.98,106.61L122.10,106.57L122.21,106.59L122.29,106.65L122.33,106.76L122.33,106.91L122.30,107.07L122.22,107.23L122.12,107.37L122.00,107.48L121.87,107.54L121.76,107.55L121.66,107.51L121.60,107.42L121.58,107.29L121.59,107.14L121.57,107.23L121.56,107.30L121.56,107.26L121.56,107.27"/><path d="M121.61,107.08L121.61,107.08L121.62,107.05L121.60,107.12L121.61,107.08L121.61,107.08"/><path d="M121.60,107.12L121.59,107.14"/><path d="M121.69,106.90L121.69,106.90L121.71,106.87L121.68,106.93L121.69,106.90L121.69,106.90"/><path d="M121.79,106.77L121.81,106.74"/><path d="M121.84,106.71L121.92,106.64L121.98,106.60L121.95,106.61"/><path d="M121.56,107.30L121.57,107.39L121.58,107.45L121.62,107.55L121.69,107.61L121.74,107.63L121.80,107.64L121.87,107.63L121.83,107.65L121.83,107.65"/><path d="M121.87,107.63L121.93,107.62L122.01,107.57L121.97,107.60"/><path d="M121.58,107.45L121.57,107.43"/><path d="M121.18,107.48L121.43,107.03"/><path d="M121.43,107.03L121.53,106.82L121.67,106.62L121.83,106.45L122.00,106.33L122.16,106.26L122.32,106.24L122.46,106.29L122.56,106.38L122.63,106.53L122.65,106.71L122.63,106.85"/><path d="M121.56,107.26L121.56,107.26L121.57,107.23"/><path d="M121.68,106.93L121.68,106.93L121.71,106.87L121.71,106.87"/><path d="M121.62,107.05L121.63,107.03L121.59,107.14"/><path d="M121.63,107.03L121.68,106.93"/><path d="M121.77,106.79L121.71,106.87"/><path d="M121.57,107.43L121.57,107.39"/><path d="M121.69,107.61L121.71,107.63L121.71,107.63"/><path d="M121.74,107.63L121.71,107.63L121.71,107.63"/><path d="M121.80,107.64L121.83,107.65L121.83,107.65"/><path d="M121.39,105.85L121.26,105.91L121.09,106.03L121.06,106.07L121.26,105.91L121.43,105.84L121.47,105.82L121.39,105.85"/><path d="M121.56,106.51L120.94,106.16L120.87,106.29"/><path d="M121.06,106.07L120.94,106.16"/><path d="M121.43,105.84L121.43,105.84"/><path d="M121.56,105.78L121.47,105.82"/><path d="M121.99,107.84L122.00,107.84"/><path d="M121.98,106.60L122.06,106.56L122.12,106.54L122.19,106.53L122.25,106.54L122.30,106.56L122.37,106.62L122.41,106.72L122.40,106.68L122.40,106.68"/><path d="M122.41,106.72L122.42,106.78L122.42,106.87L122.43,106.82"/><path d="M122.42,106.78L122.43,106.82"/><path d="M122.41,107.00L122.39,107.06L122.42,106.94L122.42,106.87"/><path d="M122.42,106.94L122.41,107.00"/><path d="M122.39,107.06L122.37,107.12L122.31,107.24L122.28,107.30L122.20,107.40L122.15,107.46L122.07,107.53L122.01,107.57"/><path d="M122.37,107.12L122.35,107.18L122.35,107.18"/><path d="M122.20,107.40L122.24,107.36L122.24,107.36"/><path d="M122.15,107.46L122.11,107.50"/><path d="M122.40,106.68L122.37,106.62L122.33,106.57"/><path d="M121.93,107.62L121.97,107.60L121.97,107.60"/><path d="M122.07,107.53L122.11,107.50"/><path d="M122.39,107.46L122.32,107.55L122.20,107.68"/><path d="M122.28,107.30L122.24,107.36L122.24,107.36"/><path d="M122.31,107.24L122.35,107.18L122.35,107.18"/><path d="M121.92,106.64L121.95,106.61"/><path d="M122.06,106.56L122.09,106.54L122.09,106.54"/><path d="M122.12,106.54L122.09,106.54L122.09,106.54"/><path d="M122.19,106.53L122.22,106.53L122.22,106.53"/><path d="M122.30,106.56L122.33,106.57"/><path d="M122.22,106.53L122.22,106.53L122.25,106.54"/></g><g style="stroke:#000000;stroke-width:0.529"><path d="M120.41,107.04L120.49,107.22L120.50,107.25L120.52,107.27L120.66,107.38L120.75,107.44L120.94,107.67L121.56,108.03L121.79,107.93L121.83,107.91L122.00,107.84L122.16,107.72L122.20,107.68L122.31,107.59L122.39,107.46L122.46,107.35L122.56,107.14L122.63,106.92L122.63,106.85L122.69,106.62L122.56,106.38L122.31,106.08L121.69,105.73L121.56,105.78L121.43,105.73L121.40,105.72L121.37,105.72L121.18,105.74L120.97,105.84L120.95,105.85L120.76,106.03L120.59,106.26L120.47,106.52L120.41,106.78L120.41,107.04"/></g></g><g id="Actor_.30"><g style="stroke:#000000;stroke-width:0.176"><path d="M196.10,102.67L196.36,102.82L196.51,102.55L196.57,102.42L196.65,102.30L196.75,102.20L196.85,102.13L197.04,101.98"/><path d="M196.13,102.59L196.14,102.56L196.14,102.50L196.20,102.33L196.28,102.17L196.29,102.16L196.21,102.37L196.21,102.37"/><path d="M196.14,102.56L196.21,102.37L196.21,102.37"/><path d="M196.24,102.86L196.24,102.86L196.16,102.75"/><path d="M197.23,102.44L197.24,102.35L197.23,102.24L197.19,102.16L197.13,102.10L197.05,102.07L196.95,102.08L196.85,102.13L196.59,102.23L196.32,102.08L196.29,102.16"/><path d="M196.59,102.23L196.51,102.55L196.47,102.68L196.46,102.80L196.47,102.91L196.51,103.00L196.57,103.06L196.65,103.08L196.75,103.08"/><path d="M196.59,103.14L196.51,103.00L196.36,102.82"/><path d="M197.19,102.61L197.19,102.61"/><path d="M196.72,103.09L196.73,103.08"/><path d="M196.82,103.04L196.85,103.03"/><path d="M197.09,102.80L197.05,102.86L196.97,102.94"/><path d="M196.66,101.89L196.39,102.05L196.40,102.04L196.50,101.95"/><path d="M196.32,102.08L196.39,102.05"/></g><g style="stroke:#000000;stroke-width:0.529"><path d="M196.72,103.09L196.59,103.14L196.32,102.99L196.24,102.86L196.24,102.86L196.17,102.78L196.16,102.75L196.10,102.67L196.13,102.59"/><path d="M196.85,103.03L196.95,102.96L196.97,102.94L197.04,102.88L197.09,102.80L197.13,102.74L197.19,102.61L197.23,102.48L197.23,102.44L197.27,102.30L197.19,102.16L197.04,101.98L196.78,101.82L196.66,101.89L196.65,101.89L196.52,101.94L196.50,101.95"/><path d="M196.73,103.08L196.82,103.04"/></g></g><g id="Actor_.31"><g style="stroke:#000000;stroke-width:0.176"><path d="M94.36,123.63L94.23,123.39L93.98,123.09L94.23,122.63L94.36,122.11L94.80,121.93L95.11,121.68"/><path d="M94.63,123.51L94.47,123.53L94.33,123.49L94.23,123.39L94.16,123.24L94.14,123.06L94.17,122.85L94.23,122.63"/><path d="M93.43,122.43L93.49,122.21L93.67,121.90L93.60,122.00L93.49,122.21L93.42,122.50L93.43,122.43"/><path d="M93.37,122.72L93.42,122.50"/><path d="M93.21,122.64L93.21,122.64"/><path d="M93.21,122.38L93.21,122.38"/><path d="M94.06,121.51L93.89,121.63L93.86,121.67L94.06,121.51L94.23,121.44L94.27,121.42L94.06,121.51"/><path d="M93.67,121.90L93.74,121.76L93.86,121.67"/><path d="M93.74,121.76L94.36,122.11"/><path d="M94.61,122.34L94.64,122.31L94.59,122.37L94.57,122.39L94.65,122.30L94.78,122.21L94.90,122.17L95.01,122.19L95.09,122.26L95.13,122.37L95.13,122.51L95.10,122.67L95.02,122.83L94.92,122.97L94.80,123.08L94.67,123.14L94.56,123.16L94.46,123.11L94.40,123.02L94.38,122.90L94.39,122.75L94.37,122.83L94.36,122.90L94.36,122.87L94.36,122.87"/><path d="M94.41,122.68L94.41,122.68L94.40,122.72L94.42,122.65L94.41,122.68L94.41,122.68"/><path d="M94.40,122.72L94.39,122.75"/><path d="M94.49,122.50L94.49,122.50L94.51,122.47L94.48,122.53L94.49,122.50L94.49,122.50"/><path d="M94.59,122.37L94.61,122.34"/><path d="M95.13,122.17L95.17,122.22L95.20,122.28L95.21,122.32L95.17,122.22L95.13,122.18"/><path d="M95.23,122.42L95.22,122.48L95.22,122.38L95.21,122.32"/><path d="M95.22,122.38L95.23,122.43"/><path d="M94.36,122.90L94.37,122.99L94.38,123.06L94.42,123.16L94.49,123.21L94.54,123.24L94.60,123.24L94.67,123.24L94.73,123.22L94.81,123.18L94.87,123.14L94.95,123.06L95.00,123.01L95.08,122.90L95.11,122.84L95.17,122.73L95.19,122.66L95.22,122.55L95.22,122.48"/><path d="M95.22,122.55L95.21,122.60L95.21,122.60"/><path d="M95.17,122.73L95.15,122.79L95.15,122.78"/><path d="M95.08,122.90L95.04,122.96"/><path d="M94.95,123.06L94.91,123.11"/><path d="M94.81,123.18L94.77,123.20L94.77,123.21"/><path d="M94.73,123.22L94.77,123.20L94.77,123.20"/><path d="M94.67,123.24L94.63,123.25L94.63,123.25"/><path d="M94.54,123.24L94.51,123.23"/><path d="M94.38,123.06L94.37,123.03"/><path d="M94.23,122.63L94.33,122.42L94.47,122.22L94.63,122.05L94.80,121.93L94.96,121.86L95.12,121.85L95.26,121.89L95.36,121.99L95.42,122.13L95.45,122.31L95.43,122.45"/><path d="M94.36,122.86L94.36,122.87L94.37,122.83"/><path d="M94.48,122.53L94.48,122.53L94.51,122.47L94.51,122.47"/><path d="M94.42,122.65L94.48,122.53"/><path d="M94.41,122.68L94.41,122.68"/><path d="M94.64,122.31L94.75,122.21"/><path d="M94.72,122.24L94.78,122.20L94.75,122.21L94.74,122.22"/><path d="M94.36,122.87L94.36,122.87"/><path d="M94.37,123.03L94.37,122.99"/><path d="M94.49,123.21L94.51,123.23"/><path d="M94.60,123.24L94.63,123.25L94.63,123.25"/><path d="M95.20,122.28L95.20,122.28"/><path d="M94.87,123.14L94.91,123.10"/><path d="M94.39,122.74L94.43,122.63"/><path d="M95.19,122.66L95.21,122.60L95.21,122.60"/><path d="M95.00,123.01L95.04,122.96"/><path d="M94.57,122.39L94.51,122.47"/><path d="M95.11,122.84L95.15,122.79L95.14,122.79"/><path d="M95.00,123.28L95.12,123.16L95.19,123.06"/><path d="M94.78,122.20L94.86,122.16L94.92,122.14L94.89,122.14"/><path d="M94.92,122.14L94.99,122.13L95.05,122.14L95.02,122.13"/><path d="M94.99,122.13L95.02,122.13"/><path d="M95.05,122.14L95.10,122.16L95.13,122.18"/><path d="M95.10,122.16L95.13,122.17"/><path d="M94.23,121.44L94.23,121.44"/><path d="M94.89,122.14L94.86,122.16"/><path d="M94.27,121.42L94.36,121.38"/></g><g style="stroke:#000000;stroke-width:0.529"><path d="M93.21,122.38L93.27,122.12L93.39,121.86L93.56,121.63L93.75,121.46L93.77,121.45L93.98,121.34L94.17,121.32L94.20,121.32L94.23,121.33L94.36,121.38L94.49,121.33L95.11,121.68L95.36,121.99L95.49,122.22L95.43,122.45L95.42,122.52L95.36,122.74L95.26,122.95L95.19,123.06L95.11,123.19L95.00,123.28L94.96,123.32L94.79,123.44L94.63,123.51L94.59,123.53L94.36,123.63L94.06,123.45"/><path d="M93.21,122.38L93.21,122.64"/><path d="M93.26,122.74L93.21,122.64"/></g></g><g id="Actor_.32"><g style="stroke:#000000;stroke-width:0.176"><path d="M88.48,40.53L88.53,40.55"/><path d="M88.17,40.13L88.27,40.32L88.48,40.49L88.60,40.54"/><path d="M89.72,43.23L89.56,43.31L89.37,43.35L89.17,43.36L88.98,43.32L88.81,43.26"/><path d="M89.35,40.14L89.32,40.26L89.14,40.29L88.98,40.20L89.01,40.19L89.11,40.15L89.15,40.14L89.36,40.11L89.51,40.20L89.55,40.22L89.55,40.22L89.55,40.22L89.51,40.20L89.46,40.18L89.35,40.14L89.23,40.14L89.15,40.14L88.94,40.17L88.94,39.88L88.83,40.11L88.94,40.18L88.94,40.17"/><path d="M89.36,40.11L89.36,39.81L88.94,39.88"/><path d="M88.94,40.18L88.98,40.20"/><path d="M89.55,40.22L89.66,39.99L89.36,39.81"/><path d="M89.55,40.22L89.32,40.26"/><path d="M90.08,40.50L89.85,40.60"/><path d="M90.33,40.08L90.26,40.28L90.08,40.45L89.84,40.57"/><path d="M89.86,40.62L89.86,40.63"/></g><g style="stroke:#000000;stroke-width:0.529"><path d="M89.86,41.28L89.86,43.02L89.82,43.13L89.72,43.23L89.65,43.27L89.52,43.34L89.36,43.37L89.18,43.38L89.01,43.35L88.87,43.29L88.81,43.26L88.69,43.16L88.64,43.05L88.64,41.51"/><path d="M89.86,40.66L89.86,40.62L90.08,40.50L90.26,40.32L90.33,40.12L90.33,40.08L90.29,39.87L90.13,39.69L89.88,39.54L89.56,39.45L89.20,39.43L88.85,39.47L88.54,39.57L88.31,39.73L88.18,39.92L88.17,40.13L88.17,40.17L88.27,40.37L88.48,40.53L88.52,40.56"/></g></g><g id="Actor_.33"><g style="stroke:#000000;stroke-width:0.176"><path d="M117.93,24.52L117.66,24.65L117.32,24.73L116.96,24.74L116.62,24.68L116.33,24.56"/><path d="M118.19,24.10L118.11,24.30L117.93,24.48L117.66,24.61L117.32,24.69L116.96,24.69L116.62,24.64L116.36,24.53L116.33,24.52L116.12,24.35L116.02,24.15"/><path d="M117.57,27.26L117.41,27.33L117.23,27.38L117.02,27.38L116.83,27.35L116.66,27.28"/><path d="M116.65,24.75L116.49,24.65"/><path d="M117.21,23.84L116.80,23.90L116.80,24.20L117.21,24.14L117.21,23.84L117.51,24.01L117.40,24.25L117.36,24.22L117.31,24.20L117.20,24.17L117.17,24.28L117.40,24.25L117.36,24.22L117.21,24.14"/><path d="M117.40,24.25L117.40,24.25L117.40,24.25"/><path d="M116.80,23.90L116.69,24.14L116.80,24.20L116.80,24.20"/><path d="M117.20,24.17L117.08,24.16L117.00,24.17L116.96,24.17L116.86,24.21L116.84,24.23L116.99,24.31L117.17,24.28"/><path d="M116.80,24.20L116.84,24.23"/><path d="M117.58,24.73L117.58,24.72L117.71,24.65"/></g><g style="stroke:#000000;stroke-width:0.529"><path d="M116.36,24.58L116.33,24.56L116.12,24.39L116.02,24.19L116.02,24.15L116.03,23.95L116.16,23.76L116.40,23.60L116.70,23.49L117.05,23.45L117.41,23.48L117.73,23.57L117.99,23.71L118.14,23.90L118.19,24.10L118.19,24.14L118.11,24.34L117.93,24.52L117.71,24.65L117.71,27.05L117.67,27.16L117.57,27.26L117.50,27.30L117.37,27.36L117.21,27.40L117.03,27.40L116.87,27.37L116.72,27.32L116.66,27.28L116.55,27.19L116.49,27.07L116.49,24.65L116.36,24.58"/></g></g><g id="Actor_.34"><g style="stroke:#000000;stroke-width:0.176"><path d="M95.18,111.10L95.32,111.33L95.46,111.69L95.46,112.41L95.32,112.18L95.29,112.10"/><path d="M95.46,111.69L95.97,111.70L95.75,111.65L95.56,111.56L95.41,111.45L95.32,111.33L95.29,111.19L95.32,111.05L95.41,110.92"/><path d="M95.77,112.50L95.97,112.55L96.49,112.56L96.32,112.56L96.21,112.57L95.97,112.55L95.75,112.50L95.68,112.47L95.77,112.50"/><path d="M95.68,112.47L95.46,112.41"/><path d="M95.90,111.49L95.86,111.48L95.93,111.50L95.99,111.51L95.86,111.47L95.75,111.39L95.68,111.30L95.67,111.20L95.73,111.10L95.83,111.02L95.97,110.96L96.14,110.93L96.23,110.93L96.32,110.93L96.49,110.97L96.62,111.03L96.71,111.12L96.75,111.22L96.73,111.32L96.65,111.41L96.52,111.49L96.40,111.52L96.44,111.51L96.51,111.49L96.48,111.51"/><path d="M96.08,111.53L96.12,111.54L96.12,111.54L96.04,111.53L96.05,111.53L96.08,111.53"/><path d="M96.12,111.54L96.08,111.53L96.08,111.53"/><path d="M95.93,111.50L95.89,111.49"/><path d="M95.86,111.48L95.77,111.43L95.72,111.40L95.74,111.42"/><path d="M95.77,111.43L95.74,111.42"/><path d="M95.72,111.40L95.66,111.34L95.63,111.29L95.64,111.32"/><path d="M95.66,111.34L95.64,111.32"/><path d="M95.59,111.20L95.60,111.17L95.60,111.23L95.63,111.29"/><path d="M95.60,111.23L95.59,111.20"/><path d="M95.62,111.09L95.64,111.06L95.61,111.12L95.60,111.17"/><path d="M95.61,111.12L95.62,111.09"/><path d="M95.97,111.70L96.21,111.72L96.45,111.70L96.67,111.65L96.86,111.56L96.49,111.85L96.49,112.56L96.62,112.51L96.67,112.50L96.86,112.42L97.13,112.22"/><path d="M95.97,111.70L96.49,111.85"/><path d="M96.28,111.54L96.29,111.54"/><path d="M96.08,111.53L96.08,111.53L96.05,111.53"/><path d="M96.25,111.54L96.25,111.54L96.32,111.53L96.29,111.54L96.25,111.54"/><path d="M96.25,111.54L96.12,111.54"/><path d="M96.04,111.53L95.99,111.51"/><path d="M96.32,111.53L96.40,111.52"/><path d="M95.64,111.06L95.68,111.01L95.77,110.94L95.91,110.89L95.98,110.87L96.10,110.85L96.17,110.84L96.30,110.84L96.43,110.86"/><path d="M95.91,110.89L95.85,110.90L95.77,110.94L95.71,110.98"/><path d="M96.10,110.85L96.03,110.85"/><path d="M96.17,110.84L96.24,110.84"/><path d="M96.37,110.85L96.49,110.88L96.55,110.90L96.65,110.95L96.70,110.98L96.76,111.04L96.79,111.09L96.81,111.15L96.82,111.20L96.81,111.26L96.78,111.32L96.74,111.37L96.64,111.44L96.51,111.49"/><path d="M95.56,110.81L95.56,110.81"/><path d="M95.68,111.01L95.71,110.98"/><path d="M95.85,110.90L95.85,110.90"/><path d="M95.98,110.87L96.03,110.85"/><path d="M96.23,110.84L96.30,110.84"/><path d="M96.08,110.67L95.97,110.68L95.80,110.72"/><path d="M97.04,112.28L97.01,112.31L96.86,112.42L96.62,112.51"/><path d="M96.82,111.20L96.82,111.23"/><path d="M96.78,111.32L96.76,111.34L96.74,111.37"/><path d="M96.44,111.51L96.48,111.51"/><path d="M96.74,110.76L96.86,110.81L97.01,110.93L97.10,111.05L97.13,111.19L97.10,111.33L97.01,111.46L96.86,111.56L97.24,111.41"/><path d="M96.76,111.34L96.76,111.34"/><path d="M96.81,111.26L96.82,111.23"/><path d="M96.81,111.12L96.81,111.12L96.81,111.15"/><path d="M96.79,111.09L96.81,111.12L96.81,111.11"/><path d="M96.55,110.90L96.61,110.92"/><path d="M96.70,110.98L96.74,111.01"/><path d="M96.76,111.04L96.74,111.01L96.74,111.01"/><path d="M96.65,110.95L96.61,110.92"/><path d="M96.49,110.88L96.43,110.86L96.41,110.86"/></g><g style="stroke:#000000;stroke-width:0.529"><path d="M95.56,110.81L95.75,110.73L95.80,110.72L95.93,110.67L96.08,110.67L96.21,110.66L96.45,110.68L96.67,110.73L96.74,110.76L96.96,110.82L97.10,111.05L97.24,111.41L97.24,112.13L97.13,112.22L97.13,112.30L97.12,112.34L97.03,112.50L97.02,112.52L96.85,112.66L96.83,112.67L96.59,112.77L96.32,112.82L96.03,112.81L95.76,112.75L95.54,112.64L95.52,112.63L95.37,112.49L95.35,112.46L95.29,112.29L95.29,112.26L95.29,112.10L95.18,111.82L95.18,111.10L95.38,110.95L95.41,110.92L95.56,110.81"/></g></g><g id="Actor_.35"><g style="stroke:#000000;stroke-width:0.176"><path d="M78.45,134.76L78.45,133.75L75.62,132.13"/><path d="M78.45,133.75L79.11,133.38"/></g><g style="stroke:#000000;stroke-width:0.529"><path d="M75.62,132.13L76.28,131.75L79.11,133.38L79.11,134.38L78.45,134.76"/></g></g><g id="Actor_.36"><g style="stroke:#000000;stroke-width:0.176"><path d="M85.55,138.58L85.55,137.57L82.72,135.95"/><path d="M85.55,137.57L86.20,137.19"/></g><g style="stroke:#000000;stroke-width:0.529"><path d="M82.72,135.95L83.37,135.57L86.20,137.19L86.20,138.20L85.55,138.58"/></g></g><g id="Actor_.37"><g style="stroke:#000000;stroke-width:0.176"><path d="M84.89,138.95L84.89,137.94L82.07,136.32"/><path d="M84.89,137.94L85.55,137.57"/></g><g style="stroke:#000000;stroke-width:0.529"><path d="M84.81,138.90L84.89,138.95L85.55,138.58L85.55,137.57L82.72,135.95L82.07,136.32L82.07,136.47"/></g></g><g id="Actor_.38"><g style="stroke:#000000;stroke-width:0.176"><path d="M195.00,101.26L195.87,101.76L195.87,103.77"/><path d="M195.87,101.76L205.45,96.27"/></g><g style="stroke:#000000;stroke-width:0.529"><path d="M205.45,97.90L205.45,98.28L195.87,103.77L195.00,103.28L195.00,101.26L204.58,95.77L205.45,96.27L205.45,97.40"/></g></g><g id="Actor_.39"><g style="stroke:#000000;stroke-width:0.176"><path d="M74.97,132.50L75.20,132.64"/><path d="M77.80,135.13L77.80,134.12L77.57,133.99"/><path d="M77.80,134.12L78.45,133.75"/></g><g style="stroke:#000000;stroke-width:0.529"><path d="M77.67,135.06L77.80,135.13L78.45,134.76L78.45,133.75L75.62,132.13L74.97,132.50L74.97,132.60"/></g></g><g id="Actor_.40"><g style="stroke:#000000;stroke-width:0.176"><path d="M203.49,197.01L203.90,196.77"/></g><g style="stroke:#000000;stroke-width:0.529"><path d="M203.56,197.97L203.84,197.81"/><path d="M203.49,196.54L203.90,196.77L203.90,197.64"/></g></g><g id="Actor_.41"><g style="stroke:#000000;stroke-width:0.176"><path d="M88.49,116.03L88.49,116.40L88.35,116.17L88.32,116.09"/><path d="M88.49,116.40L88.72,116.46L88.79,116.49L89.01,116.55L88.72,116.46"/><path d="M88.45,114.92L88.45,114.92"/><path d="M88.59,114.81L88.59,114.81"/><path d="M90.16,116.21L89.90,116.41L89.71,116.49L89.65,116.51L89.52,116.56L89.01,116.55L89.24,116.56L89.36,116.56L89.52,116.56L89.52,115.84L89.90,115.56L90.04,115.45L90.14,115.32L90.17,115.18L90.14,115.05L90.05,114.92L89.90,114.81L89.77,114.75"/><path d="M89.52,115.84L89.01,115.69L88.76,115.69"/><path d="M89.01,115.69L88.79,115.64"/><path d="M90.28,115.41L89.90,115.56L89.71,115.64L89.48,115.69L89.24,115.71L89.01,115.69"/><path d="M89.65,116.51L89.90,116.41L90.04,116.30L90.08,116.27"/><path d="M88.77,115.09L88.87,115.01L89.01,114.95L89.18,114.92L89.36,114.93L89.52,114.96L89.66,115.03L89.75,115.12L89.78,115.22L89.76,115.32L89.68,115.41L89.56,115.48L89.44,115.51L89.48,115.51L89.55,115.49L89.52,115.50"/><path d="M89.12,115.53L89.16,115.53L89.16,115.53L89.08,115.52L89.08,115.52L89.12,115.53"/><path d="M89.16,115.53L89.12,115.53L89.12,115.53"/><path d="M88.89,115.46L88.90,115.46L89.02,115.51L88.97,115.49L88.90,115.47L88.93,115.49"/><path d="M88.97,115.49L88.93,115.49"/><path d="M88.69,115.05L88.72,115.01L88.81,114.93L88.94,114.88L89.01,114.86L89.13,114.84L89.21,114.83L89.33,114.84L89.41,114.85L89.52,114.87L89.59,114.90L89.68,114.94L89.77,115.00L89.78,115.00"/><path d="M88.72,115.01L88.75,114.98L88.81,114.93L88.89,114.90L88.94,114.88"/><path d="M89.21,114.83L89.27,114.83"/><path d="M89.41,114.85L89.47,114.85"/><path d="M89.59,114.90L89.64,114.91"/><path d="M89.74,114.98L89.80,115.03L89.83,115.08L89.85,115.14L89.85,115.20L89.84,115.25L89.81,115.31L89.77,115.36L89.68,115.43L89.55,115.49"/><path d="M89.48,115.51L89.52,115.50"/><path d="M89.32,115.53L89.32,115.53"/><path d="M89.44,115.51L89.32,115.53L89.16,115.53"/><path d="M89.12,115.53L89.12,115.53L89.08,115.52"/><path d="M89.08,115.52L89.02,115.51"/><path d="M88.90,115.47L88.88,115.46"/><path d="M88.74,114.98L88.75,114.98"/><path d="M89.68,114.94L89.64,114.91"/><path d="M88.89,114.90L88.89,114.90"/><path d="M89.07,114.84L89.07,114.84L89.01,114.86"/><path d="M89.52,114.87L89.47,114.85"/><path d="M89.28,115.53L89.36,115.53"/><path d="M89.13,114.84L89.07,114.84L89.07,114.84"/><path d="M89.27,114.83L89.33,114.84"/><path d="M89.12,114.66L89.01,114.67L88.84,114.71"/><path d="M89.83,115.08L89.85,115.11"/><path d="M89.85,115.20L89.86,115.23"/><path d="M89.81,115.31L89.80,115.34"/><path d="M89.77,115.36L89.80,115.34"/><path d="M89.84,115.25L89.86,115.23"/><path d="M89.85,115.14L89.85,115.11L89.85,115.11"/><path d="M89.80,115.03L89.77,115.00L89.76,114.99"/></g><g style="stroke:#000000;stroke-width:0.529"><path d="M88.59,114.81L88.78,114.73L88.84,114.71L88.97,114.66L89.12,114.66L89.25,114.65L89.49,114.67L89.71,114.72L89.77,114.75L90.00,114.82L90.14,115.05L90.28,115.41L90.28,116.13L90.16,116.21L90.16,116.30L90.16,116.33L90.07,116.49L90.05,116.52L89.88,116.66L89.86,116.67L89.63,116.76L89.35,116.81L89.07,116.80L88.80,116.74L88.58,116.64L88.56,116.63L88.41,116.48L88.39,116.46L88.33,116.29L88.32,116.26L88.32,116.09L88.25,115.90"/><path d="M88.45,114.92L88.59,114.81"/></g></g><g id="Actor_.42"><g style="stroke:#000000;stroke-width:0.176"><path d="M110.61,31.25L110.45,31.33L110.26,31.37L110.06,31.37L109.87,31.34L109.70,31.27"/><path d="M109.37,28.55L109.66,28.67L110.00,28.73L110.36,28.72L110.69,28.65L110.97,28.51"/><path d="M111.22,28.09L111.15,28.30L110.97,28.47L110.69,28.61L110.36,28.68L110.00,28.69L109.66,28.63L109.37,28.51L109.16,28.34L109.06,28.15"/><path d="M109.69,28.74L109.53,28.64"/><path d="M110.25,28.13L110.40,28.22L110.44,28.24L110.21,28.28L110.24,28.16L110.35,28.19L110.40,28.22L110.44,28.24L110.55,28.01L110.25,27.83L109.83,27.90L109.83,28.19L110.25,28.13L110.25,27.83"/><path d="M110.44,28.24L110.44,28.24L110.44,28.24"/><path d="M109.83,27.90L109.72,28.13L109.83,28.20L109.83,28.19"/><path d="M110.24,28.16L110.12,28.15L110.04,28.16L110.00,28.17L109.90,28.20L109.87,28.22L110.03,28.31L110.21,28.28"/><path d="M109.83,28.20L109.87,28.22"/><path d="M110.61,28.72L110.62,28.72L110.75,28.64"/></g><g style="stroke:#000000;stroke-width:0.529"><path d="M109.58,31.18L109.70,31.27L109.76,31.31L109.90,31.37L110.07,31.40L110.24,31.39L110.41,31.36L110.54,31.29L110.61,31.25L110.71,31.15L110.75,31.04L110.75,28.64L110.97,28.51L111.15,28.34L111.22,28.14L111.22,28.09L111.18,27.89L111.02,27.71L110.77,27.56L110.45,27.47L110.09,27.44L109.74,27.49L109.43,27.59L109.20,27.75L109.07,27.94L109.06,28.15L109.06,28.19L109.16,28.38L109.37,28.55L109.53,28.64L109.53,31.07L109.58,31.18"/></g></g><g id="Actor_.43"><g style="stroke:#000000;stroke-width:0.176"><path d="M101.92,126.27L101.78,126.38L101.65,126.53L101.58,126.67L101.56,126.71L101.50,126.89L101.49,127.06"/><path d="M101.60,127.30L101.60,127.30"/><path d="M104.81,128.70L104.81,128.70L105.00,128.22L105.45,128.48L105.32,128.99L105.27,129.17"/><path d="M106.52,128.81L106.54,128.67L106.52,128.49L106.45,128.35L106.35,128.25L106.21,128.21L106.05,128.22L105.89,128.29L105.72,128.41L105.56,128.58L105.42,128.78L105.32,128.99L105.19,129.23"/><path d="M104.97,129.39L104.62,129.19"/><path d="M104.81,128.70L104.70,128.98L104.71,128.91L104.79,128.64L104.94,128.37"/><path d="M104.83,129.49L104.74,129.35"/><path d="M104.70,128.98L104.67,129.06"/><path d="M105.55,127.90L105.00,128.22"/><path d="M105.31,128.01L105.13,128.14"/><path d="M105.45,128.48L105.89,128.29L106.20,128.04"/></g><g style="stroke:#000000;stroke-width:0.529"><path d="M104.83,129.49L104.74,129.38L104.74,129.35L104.62,129.19L104.67,129.06L101.60,127.30"/><path d="M106.52,128.86L106.52,128.81L106.58,128.58L106.45,128.35L106.20,128.04L105.75,127.78L105.55,127.90L105.34,127.98L105.31,128.01L102.19,126.22L102.06,126.22L101.92,126.27L101.86,126.30L101.74,126.40L101.63,126.53L101.55,126.68L101.50,126.84L101.49,126.99L101.49,127.06L101.52,127.21L101.60,127.30"/></g></g><g id="Actor_.44"><g style="stroke:#000000;stroke-width:0.176"><path d="M70.54,125.96L70.03,125.66"/><path d="M73.52,127.67L73.80,127.83"/><path d="M76.07,130.70L76.04,130.71L76.02,130.71L75.99,130.70L75.96,130.67L75.93,130.64L75.91,130.60L75.90,130.56L75.90,130.53L75.91,130.50L75.93,130.48L75.96,130.48L75.99,130.49L76.02,130.51L76.04,130.54L76.07,130.57L76.08,130.61L76.09,130.65L76.08,130.68L76.07,130.70"/><path d="M81.35,134.17L81.35,132.91L76.78,130.29L76.78,129.53L76.05,129.12"/><path d="M76.78,130.29L77.00,130.17"/><path d="M76.78,129.53L77.00,129.41"/><path d="M80.86,133.53L80.82,133.48L80.80,133.42L80.78,133.37L80.78,133.32L80.80,133.28L80.82,133.26L80.86,133.25L80.90,133.26L80.94,133.29L80.98,133.33L81.01,133.38L81.04,133.44L81.04,133.49L81.03,133.54L81.01,133.57L80.98,133.59L80.94,133.58L80.90,133.56L80.86,133.53"/><path d="M81.35,132.91L81.56,132.79"/></g><g style="stroke:#000000;stroke-width:0.529"><path d="M72.59,126.88L70.25,125.54L70.03,125.66L70.03,126.04"/><path d="M80.41,133.63L81.35,134.17L81.56,134.05L81.56,132.79L77.00,130.17L77.00,129.41L73.85,127.60"/><path d="M76.70,131.51L75.35,130.73"/></g></g><g id="Actor_.45"><g style="stroke:#000000;stroke-width:0.176"><path d="M97.30,36.08L97.22,36.28L97.04,36.46L96.77,36.59L96.43,36.67L96.07,36.68L95.73,36.62L95.44,36.50L95.23,36.33L95.13,36.13"/><path d="M96.68,39.24L96.52,39.32L96.34,39.36L96.13,39.36L95.94,39.33L95.77,39.26"/><path d="M95.44,36.54L95.73,36.66L96.07,36.72L96.43,36.71L96.77,36.63L97.04,36.50"/><path d="M95.76,36.73L95.60,36.63"/><path d="M95.91,36.18L96.11,36.15L96.19,36.14L96.32,36.15L96.42,36.18L96.47,36.20L96.51,36.23L96.62,35.99L96.32,35.82L95.91,35.88L95.80,36.12L95.91,36.18L95.91,36.18L95.91,35.88"/><path d="M95.91,36.18L95.95,36.21L95.97,36.19L96.07,36.16L96.11,36.15L96.32,36.12L96.32,35.82"/><path d="M95.95,36.21L96.10,36.29L96.28,36.27L96.32,36.15"/><path d="M96.32,36.12L96.47,36.20L96.51,36.23L96.51,36.23L96.51,36.23"/><path d="M96.51,36.23L96.28,36.27"/><path d="M96.69,36.71L96.69,36.71L96.82,36.63"/></g><g style="stroke:#000000;stroke-width:0.529"><path d="M95.14,35.93L95.27,35.74L95.51,35.58L95.81,35.47L96.16,35.43L96.52,35.46L96.84,35.55L97.10,35.69L97.25,35.88L97.30,36.08L97.30,36.12L97.22,36.32L97.04,36.50L96.82,36.63L96.82,39.03L96.78,39.14L96.68,39.24L96.61,39.28L96.48,39.34L96.32,39.38L96.14,39.38L95.98,39.36L95.83,39.30L95.77,39.26L95.66,39.17L95.60,39.06L95.60,36.63L95.44,36.54L95.23,36.37L95.13,36.17L95.13,36.13L95.14,35.93"/></g></g><g id="Actor_.46"><g style="stroke:#000000;stroke-width:0.176"><path d="M102.74,35.27L102.90,35.34L103.10,35.37L103.30,35.36L103.49,35.32L103.64,35.25"/><path d="M104.00,32.51L103.73,32.64L103.40,32.71L103.04,32.72L102.69,32.66L102.40,32.55"/><path d="M104.26,32.09L104.19,32.29L104.00,32.47L103.73,32.60L103.40,32.67L103.04,32.68L102.69,32.62L102.40,32.50L102.19,32.34L102.09,32.14"/><path d="M103.25,32.27L103.28,32.16L103.39,32.19L103.43,32.21L103.48,32.23L103.47,32.24L103.06,32.30L102.91,32.21L102.93,32.20L103.04,32.16L103.08,32.16L102.87,32.19L102.87,31.89L102.76,32.13L102.87,32.19L102.87,32.19"/><path d="M102.72,32.73L102.56,32.64"/><path d="M102.87,31.89L103.28,31.83L103.28,32.12L103.08,32.16L103.16,32.15L103.28,32.16"/><path d="M102.87,32.19L102.91,32.21"/><path d="M103.65,32.72L103.66,32.71L103.79,32.63"/><path d="M103.28,31.83L103.59,32.00L103.48,32.23"/><path d="M103.47,32.24L103.43,32.21L103.28,32.12"/></g><g style="stroke:#000000;stroke-width:0.529"><path d="M102.62,35.17L102.56,35.06L102.56,32.64L102.40,32.55L102.19,32.38L102.09,32.18L102.09,32.14L102.11,31.93L102.24,31.74L102.47,31.59L102.78,31.48L103.06,31.45L103.13,31.44L103.48,31.46L103.81,31.55L104.06,31.70L104.22,31.88L104.26,32.09L104.26,32.13L104.19,32.33L104.00,32.51L103.79,32.63L103.79,35.03L103.75,35.15L103.64,35.25L103.58,35.28L103.44,35.35L103.28,35.39L103.11,35.39L102.94,35.36L102.80,35.30L102.74,35.27L102.62,35.17"/></g></g><g id="Actor_.47"><g style="stroke:#000000;stroke-width:0.176"><path d="M110.54,104.52L110.79,104.43L110.60,104.51L110.54,104.52L110.41,104.58L110.25,104.57L110.13,104.58L109.90,104.56L109.68,104.51L109.61,104.48L109.90,104.56L110.41,104.58L110.41,103.86L110.79,103.58L111.17,103.43"/><path d="M109.61,104.48L109.38,104.42L109.38,103.70L109.24,103.34L109.33,103.46L109.48,103.58L109.68,103.66L109.90,103.71L109.38,103.70"/><path d="M109.67,103.43L109.64,103.41L109.70,103.44L109.79,103.49L109.86,103.51L109.82,103.50L109.82,103.50"/><path d="M109.70,103.44L109.67,103.43"/><path d="M109.56,103.33L109.56,103.33L109.55,103.30L109.59,103.35L109.64,103.41"/><path d="M109.59,103.35L109.56,103.33L109.57,103.33"/><path d="M109.11,103.11L109.24,103.34L109.21,103.20L109.24,103.06L109.34,102.93"/><path d="M109.21,104.11L109.24,104.19L109.38,104.42"/><path d="M109.86,103.51L109.91,103.52L109.79,103.48L109.67,103.40L109.61,103.31L109.60,103.21L109.65,103.11L109.76,103.03L109.90,102.97L110.07,102.94L110.25,102.94L110.41,102.98L110.55,103.05L110.64,103.13L110.67,103.23L110.65,103.33L110.57,103.43L110.45,103.50L110.33,103.53L110.37,103.52L110.44,103.51L110.40,103.52"/><path d="M109.52,103.22L109.53,103.19L109.53,103.24L109.55,103.30"/><path d="M109.55,103.10L109.57,103.07L109.54,103.13L109.53,103.19"/><path d="M109.54,103.13L109.55,103.10"/><path d="M109.64,103.00L109.70,102.95L109.83,102.90L109.78,102.91L109.70,102.95L109.64,103.00L109.61,103.03L109.64,103.00"/><path d="M109.48,102.83L109.48,102.83"/><path d="M109.53,103.24L109.52,103.22"/><path d="M109.57,103.07L109.61,103.03"/><path d="M109.63,103.00L109.64,103.00"/><path d="M110.01,103.55L110.01,103.55L109.97,103.54L110.05,103.55L110.01,103.55L110.01,103.55"/><path d="M110.05,103.55L110.05,103.55L109.97,103.54L109.97,103.54"/><path d="M110.66,103.38L110.69,103.36L110.70,103.33L110.66,103.38L110.57,103.45L110.44,103.51"/><path d="M110.37,103.52L110.41,103.52"/><path d="M110.41,103.86L109.90,103.71"/><path d="M109.90,103.71L110.13,103.73L110.37,103.71L110.60,103.66L110.79,103.58L110.93,103.47L111.03,103.34L111.06,103.20L111.03,103.06L110.94,102.94L110.79,102.83L110.66,102.77"/><path d="M110.79,104.43L110.97,104.29L110.93,104.32L110.82,104.40"/><path d="M110.21,103.55L110.21,103.55"/><path d="M109.82,103.50L109.82,103.50L109.79,103.49"/><path d="M110.17,103.55L110.25,103.55L110.21,103.55L110.05,103.55"/><path d="M110.69,103.36L110.69,103.36"/><path d="M109.91,103.52L109.97,103.54"/><path d="M110.33,103.53L110.25,103.55"/><path d="M109.83,102.90L109.90,102.88L110.02,102.86L110.10,102.85L110.22,102.86L110.30,102.86L110.41,102.89L110.48,102.91L110.57,102.96L110.63,102.99L110.69,103.05L110.72,103.10L110.74,103.16L110.74,103.22L110.73,103.27L110.70,103.33"/><path d="M110.10,102.85L110.16,102.85"/><path d="M110.48,102.91L110.53,102.93"/><path d="M110.63,102.99L110.67,103.02"/><path d="M110.72,103.10L110.74,103.13"/><path d="M110.74,103.22L110.75,103.25"/><path d="M110.73,103.27L110.75,103.24"/><path d="M110.74,103.16L110.74,103.13L110.74,103.13"/><path d="M110.69,103.05L110.66,103.02L110.66,103.02"/><path d="M110.57,102.96L110.53,102.93"/><path d="M110.36,102.87L110.36,102.87L110.41,102.89"/><path d="M109.78,102.91L109.78,102.91"/><path d="M109.96,102.86L109.96,102.86L109.90,102.88"/><path d="M110.36,102.87L110.36,102.87L110.30,102.86"/><path d="M110.22,102.86L110.16,102.85"/><path d="M110.02,102.86L109.96,102.86L109.96,102.86"/><path d="M110.01,102.68L109.90,102.69L109.73,102.73"/><path d="M110.97,104.29L111.05,104.23"/></g><g style="stroke:#000000;stroke-width:0.529"><path d="M109.69,104.76L109.47,104.66L109.45,104.64L109.30,104.50L109.28,104.47L109.22,104.30L109.21,104.27L109.21,104.11L109.11,103.83L109.11,103.11L109.30,102.96L109.34,102.93L109.48,102.83L109.67,102.74L109.73,102.73L109.86,102.68L110.01,102.68L110.14,102.67L110.37,102.69L110.60,102.74L110.66,102.77L110.89,102.84L111.03,103.06L111.17,103.43L111.17,104.14L111.05,104.23L111.05,104.32L111.05,104.35L110.96,104.51L110.94,104.54L110.77,104.67L110.75,104.69L110.52,104.78L110.24,104.83L109.96,104.82L109.69,104.76"/></g></g><g id="Actor_.48"><g style="stroke:#000000;stroke-width:0.176"><path d="M79.11,134.38L79.11,133.38L76.28,131.75"/><path d="M79.11,133.38L79.76,133.00"/></g><g style="stroke:#000000;stroke-width:0.529"><path d="M76.28,131.75L76.93,131.38L79.76,133.00L79.76,134.01L79.11,134.38"/></g></g><g id="Actor_.49"><g style="stroke:#000000;stroke-width:0.176"><path d="M123.94,95.56L123.97,95.56L123.98,95.56L123.90,95.55L123.90,95.55L123.94,95.56"/><path d="M123.03,95.12L123.17,95.35L123.31,95.71L123.31,96.43L123.53,96.49L123.60,96.52L123.82,96.58L123.53,96.49"/><path d="M123.31,95.71L123.82,95.72L123.60,95.67L123.41,95.59L123.26,95.48L123.17,95.35L123.14,95.21L123.17,95.08L123.26,94.95"/><path d="M124.07,96.58L123.82,96.58L124.06,96.59L124.18,96.59L124.34,96.59L124.07,96.58"/><path d="M123.82,95.72L124.06,95.74L124.30,95.72L124.52,95.67L124.72,95.59L124.34,95.87L124.34,96.59L124.47,96.54L124.53,96.52L124.72,96.44L124.98,96.24"/><path d="M123.82,95.72L124.34,95.87"/><path d="M123.94,95.56L123.94,95.56L123.97,95.56"/><path d="M123.98,95.56L124.14,95.56"/><path d="M124.10,95.56L124.17,95.56L124.14,95.56L124.12,95.56"/><path d="M123.90,95.55L123.94,95.56L123.92,95.56"/><path d="M123.31,96.43L123.17,96.20L123.14,96.12"/><path d="M123.75,95.52L123.72,95.50L123.78,95.52L123.84,95.54L123.71,95.49L123.60,95.42L123.54,95.32L123.53,95.22L123.58,95.12L123.68,95.04L123.83,94.98L124.00,94.95L124.12,94.95L124.17,94.96L124.34,94.99L124.47,95.06L124.56,95.15L124.60,95.25L124.58,95.35L124.50,95.44L124.38,95.51L124.26,95.54L124.30,95.54L124.36,95.52L124.33,95.53"/><path d="M123.72,95.50L123.63,95.46L123.57,95.42L123.59,95.44"/><path d="M123.63,95.46L123.59,95.44"/><path d="M123.57,95.42L123.51,95.36L123.48,95.32L123.49,95.34"/><path d="M123.51,95.36L123.49,95.34"/><path d="M123.48,95.32L123.46,95.26L123.45,95.20L123.45,95.23"/><path d="M123.46,95.26L123.45,95.23"/><path d="M123.45,95.20L123.47,95.14L123.50,95.08L123.54,95.04L123.63,94.96L123.76,94.91L123.83,94.89L123.95,94.87L124.02,94.86L124.12,94.87L124.15,94.87L124.22,94.88L124.34,94.90L124.41,94.93L124.50,94.97L124.55,95.01L124.61,95.06L124.65,95.11L124.67,95.17L124.67,95.23L124.66,95.28L124.63,95.34L124.59,95.39L124.50,95.46L124.36,95.52"/><path d="M123.47,95.14L123.47,95.11L123.47,95.11"/><path d="M123.76,94.91L123.70,94.93L123.63,94.96L123.56,95.01"/><path d="M123.95,94.87L123.89,94.87"/><path d="M123.41,94.84L123.41,94.84"/><path d="M123.75,95.52L123.78,95.52"/><path d="M123.50,95.08L123.47,95.11L123.47,95.11"/><path d="M123.54,95.04L123.56,95.01"/><path d="M123.71,94.93L123.70,94.93"/><path d="M123.84,95.54L123.90,95.55"/><path d="M123.83,94.89L123.89,94.87"/><path d="M124.02,94.86L124.09,94.86"/><path d="M124.09,94.86L124.15,94.87"/><path d="M123.93,94.69L123.82,94.70L123.66,94.74"/><path d="M124.59,94.78L124.72,94.84L124.86,94.95L124.95,95.08L124.99,95.21L124.95,95.35L124.86,95.48L124.72,95.59L125.09,95.44"/><path d="M124.47,96.54L124.72,96.44L124.86,96.33L124.90,96.30"/><path d="M124.17,95.56L124.26,95.54"/><path d="M124.34,94.90L124.29,94.88L124.29,94.88"/><path d="M124.50,94.97L124.46,94.94L124.46,94.94"/><path d="M124.55,95.01L124.59,95.03"/><path d="M124.65,95.11L124.67,95.14"/><path d="M124.67,95.23L124.67,95.26"/><path d="M124.33,95.53L124.30,95.54"/><path d="M124.59,95.39L124.62,95.37"/><path d="M124.62,95.37L124.63,95.34"/><path d="M124.66,95.28L124.67,95.26"/><path d="M124.67,95.17L124.66,95.14L124.66,95.14"/><path d="M124.61,95.06L124.59,95.03L124.59,95.03"/><path d="M124.46,94.94L124.46,94.94L124.41,94.93"/><path d="M124.28,94.88L124.29,94.88L124.22,94.88"/></g><g style="stroke:#000000;stroke-width:0.529"><path d="M123.41,94.84L123.26,94.95L123.23,94.97L123.03,95.12L123.03,95.84L123.14,96.12L123.14,96.29L123.15,96.32L123.21,96.49L123.22,96.51L123.38,96.66L123.40,96.67L123.62,96.77L123.88,96.83L124.17,96.84L124.45,96.79L124.68,96.70L124.70,96.69L124.87,96.55L124.89,96.53L124.97,96.36L124.98,96.33L124.98,96.24L125.09,96.16L125.09,95.44L124.95,95.08L124.82,94.85L124.59,94.78L124.52,94.75L124.30,94.70L124.07,94.68L123.93,94.69L123.79,94.69L123.66,94.74L123.60,94.76L123.41,94.84"/></g></g><g id="Actor_.50"><g style="stroke:#000000;stroke-width:0.176"><path d="M86.20,138.20L86.20,137.19L83.37,135.57"/><path d="M86.20,137.19L86.85,136.82"/></g><g style="stroke:#000000;stroke-width:0.529"><path d="M86.20,138.20L86.85,137.83L86.85,136.82L84.02,135.20L83.37,135.57"/></g></g><g id="Actor_.51"><g style="stroke:#000000;stroke-width:0.176"><path d="M116.07,99.12L116.21,99.34L116.35,99.71L116.35,100.42L116.21,100.20L116.18,100.11"/><path d="M116.35,100.42L116.57,100.49L116.64,100.52L116.86,100.57L116.57,100.49"/><path d="M116.35,99.71L116.86,99.72L116.64,99.67L116.45,99.58L116.30,99.47L116.21,99.34L116.18,99.21L116.21,99.07L116.30,98.94"/><path d="M116.86,100.57L117.38,100.58L117.21,100.58L117.10,100.59L116.86,100.57"/><path d="M117.51,100.53L117.75,100.43L117.90,100.33L117.93,100.30L117.75,100.43L117.56,100.52L117.51,100.53L117.38,100.58L117.38,99.87L116.86,99.72"/><path d="M116.79,99.51L116.75,99.50L116.82,99.52L116.88,99.53L116.75,99.49L116.64,99.41L116.57,99.32L116.56,99.21L116.62,99.12L116.72,99.03L116.86,98.97L117.03,98.95L117.21,98.95L117.37,98.99L117.51,99.05L117.60,99.14L117.64,99.24L117.62,99.34L117.54,99.43L117.41,99.50L117.29,99.54L117.33,99.53L117.40,99.51L117.37,99.52"/><path d="M117.01,99.55L116.93,99.54L116.94,99.54L117.01,99.55L117.18,99.56L117.17,99.56"/><path d="M116.82,99.52L116.78,99.51"/><path d="M116.75,99.50L116.66,99.45L116.61,99.41L116.63,99.44"/><path d="M116.66,99.45L116.63,99.43"/><path d="M116.53,99.34L116.52,99.31L116.55,99.36L116.61,99.41"/><path d="M116.55,99.36L116.53,99.33"/><path d="M116.52,99.31L116.49,99.25L116.49,99.19L116.48,99.22"/><path d="M116.49,99.25L116.48,99.22"/><path d="M117.40,99.51L117.53,99.46L117.63,99.38L117.66,99.34L117.70,99.28L117.71,99.22L117.70,99.17L117.68,99.11L117.65,99.06L117.59,99.00L117.54,98.96L117.44,98.92L117.38,98.90L117.26,98.87L117.19,98.86L117.06,98.86L116.99,98.86L116.87,98.88L116.80,98.90L116.66,98.96L116.57,99.03L116.53,99.08L116.50,99.14L116.49,99.19"/><path d="M116.80,98.90L116.74,98.92L116.66,98.96L116.60,99.00"/><path d="M116.86,99.72L117.09,99.74L117.34,99.72L117.56,99.67L117.75,99.58L117.38,99.87"/><path d="M116.97,99.55L116.97,99.55"/><path d="M117.18,99.56L117.18,99.56L117.29,99.54"/><path d="M117.37,99.52L117.33,99.53"/><path d="M117.01,99.55L116.97,99.55L116.94,99.54"/><path d="M116.88,99.53L116.93,99.54"/><path d="M116.51,99.11L116.51,99.11L116.50,99.14"/><path d="M116.53,99.08L116.51,99.11L116.51,99.11"/><path d="M116.57,99.03L116.60,99.00"/><path d="M117.44,98.92L117.50,98.94"/><path d="M116.74,98.92L116.74,98.92"/><path d="M117.38,98.90L117.32,98.88L117.32,98.88"/><path d="M117.14,99.56L117.21,99.55"/><path d="M116.99,98.86L116.92,98.87"/><path d="M117.26,98.87L117.32,98.88L117.32,98.88"/><path d="M116.45,98.83L116.45,98.83"/><path d="M116.87,98.88L116.92,98.87"/><path d="M117.13,98.85L117.12,98.85"/><path d="M116.97,98.69L116.86,98.70L116.69,98.74"/><path d="M117.19,98.86L117.12,98.85L117.06,98.86"/><path d="M117.93,100.30L118.02,100.23"/><path d="M117.59,99.00L117.63,99.03"/><path d="M117.68,99.11L117.70,99.14"/><path d="M117.71,99.22L117.71,99.25"/><path d="M117.66,99.34L117.65,99.36L117.63,99.38"/><path d="M117.63,98.78L117.75,98.83L117.90,98.94L117.99,99.07L118.02,99.21L117.99,99.34L117.90,99.47L117.75,99.58L118.13,99.43"/><path d="M117.65,99.36L117.65,99.36"/><path d="M117.70,99.28L117.71,99.25"/><path d="M117.70,99.17L117.70,99.13L117.70,99.13"/><path d="M117.65,99.06L117.63,99.03L117.63,99.03"/><path d="M117.54,98.96L117.50,98.94"/></g><g style="stroke:#000000;stroke-width:0.529"><path d="M116.45,98.83L116.64,98.75L116.69,98.74L116.82,98.68L116.97,98.69L117.10,98.68L117.34,98.70L117.56,98.75L117.63,98.78L117.85,98.84L117.99,99.07L118.13,99.43L118.13,100.15L118.02,100.23L118.02,100.32L118.01,100.35L117.92,100.52L117.91,100.54L117.74,100.68L117.72,100.69L117.48,100.79L117.21,100.83L116.92,100.83L116.65,100.77L116.43,100.66L116.41,100.65L116.26,100.50L116.24,100.48L116.18,100.31L116.18,100.28L116.18,100.11L116.07,99.83L116.07,99.12L116.27,98.97L116.30,98.94L116.45,98.83"/></g></g><g id="Actor_.52"><g style="stroke:#000000;stroke-width:0.176"><path d="M102.14,107.10L102.28,107.33L102.42,107.69L102.42,108.41L102.64,108.48L102.71,108.51L102.93,108.56L102.64,108.48"/><path d="M102.93,108.56L103.17,108.58L103.29,108.57L103.45,108.57L102.93,108.56"/><path d="M102.42,108.41L102.28,108.18L102.25,108.10"/><path d="M102.86,107.50L102.83,107.48L102.89,107.51L102.95,107.52L102.82,107.48L102.71,107.40L102.65,107.30L102.64,107.20L102.69,107.10L102.79,107.02L102.94,106.96L103.11,106.93L103.28,106.94L103.45,106.98L103.58,107.04L103.67,107.13L103.71,107.23L103.69,107.33L103.61,107.42L103.49,107.49L103.37,107.53L103.41,107.52L103.47,107.50L103.44,107.51"/><path d="M103.05,107.54L103.08,107.54L103.01,107.53L102.95,107.52"/><path d="M102.89,107.51L102.86,107.50"/><path d="M102.70,107.42L102.68,107.40L102.74,107.44L102.83,107.48"/><path d="M102.74,107.44L102.70,107.42"/><path d="M102.68,107.40L102.62,107.35L102.59,107.30L102.60,107.32"/><path d="M102.62,107.35L102.60,107.32"/><path d="M102.59,107.30L102.57,107.24L102.56,107.18L102.56,107.21"/><path d="M102.57,107.24L102.56,107.21"/><path d="M102.56,107.18L102.58,107.13L102.61,107.07L102.65,107.02L102.74,106.95L102.87,106.89L102.82,106.91L102.74,106.95L102.67,106.99"/><path d="M102.58,107.13L102.58,107.09L102.58,107.09"/><path d="M102.61,107.07L102.58,107.09L102.58,107.09"/><path d="M102.65,107.02L102.67,106.99"/><path d="M102.87,106.89L102.94,106.87L103.06,106.85L103.13,106.85L103.26,106.85L103.33,106.86L103.45,106.88L103.52,106.91L103.61,106.95L103.66,106.99L103.72,107.05L103.76,107.09L103.78,107.15L103.78,107.21L103.77,107.27L103.74,107.33L103.70,107.37L103.61,107.44L103.47,107.50"/><path d="M103.06,106.85L103.00,106.86"/><path d="M102.37,106.93L102.28,107.06L102.25,107.20L102.28,107.33L102.37,107.46L102.52,107.57L102.71,107.65L102.93,107.71L102.42,107.69"/><path d="M102.93,107.71L103.45,107.85L103.83,107.57L104.20,107.42"/><path d="M102.52,106.82L102.52,106.82"/><path d="M102.93,107.71L103.17,107.72L103.41,107.71L103.63,107.65L103.83,107.57L103.97,107.46L104.06,107.33L104.10,107.19L104.06,107.06L103.97,106.93L103.83,106.82L103.70,106.77"/><path d="M103.01,107.53L103.05,107.54L103.06,107.54"/><path d="M103.01,107.53L103.09,107.54L103.08,107.54"/><path d="M102.82,106.91L102.82,106.91"/><path d="M102.94,106.87L103.00,106.86"/><path d="M103.04,106.68L102.93,106.68L102.77,106.72"/><path d="M103.45,107.85L103.45,108.57L103.58,108.52L103.64,108.50L103.83,108.42L104.01,108.29L103.97,108.31L103.83,108.42L103.58,108.52"/><path d="M104.01,108.29L104.09,108.22"/><path d="M103.13,106.85L103.20,106.84"/><path d="M103.33,106.86L103.40,106.87"/><path d="M103.52,106.91L103.57,106.93"/><path d="M103.66,106.99L103.70,107.01L103.70,107.02"/><path d="M103.76,107.09L103.78,107.12"/><path d="M103.78,107.21L103.78,107.24"/><path d="M103.41,107.52L103.44,107.51"/><path d="M103.25,107.55L103.25,107.55"/><path d="M103.21,107.54L103.25,107.55L103.28,107.54L103.21,107.54L103.21,107.54"/><path d="M103.09,107.54L103.21,107.54"/><path d="M103.73,107.35L103.70,107.37"/><path d="M103.73,107.35L103.74,107.33"/><path d="M103.77,107.27L103.78,107.24"/><path d="M103.78,107.15L103.78,107.12L103.77,107.12"/><path d="M103.72,107.05L103.70,107.01L103.70,107.01"/><path d="M103.61,106.95L103.57,106.93"/><path d="M103.45,106.88L103.39,106.87"/><path d="M103.37,107.53L103.28,107.54"/><path d="M103.26,106.85L103.20,106.84"/></g><g style="stroke:#000000;stroke-width:0.529"><path d="M102.51,108.65L102.49,108.64L102.33,108.49L102.32,108.47L102.26,108.30L102.25,108.27L102.25,108.10L102.14,107.82L102.14,107.10L102.34,106.96L102.37,106.93L102.52,106.82L102.71,106.74L102.77,106.72L102.90,106.67L103.04,106.68L103.18,106.67L103.41,106.68L103.63,106.74L103.70,106.77L103.93,106.83L104.06,107.06L104.20,107.42L104.20,108.14L104.09,108.22L104.09,108.31L104.08,108.34L104.00,108.51L103.98,108.53L103.81,108.67L103.79,108.68L103.56,108.78L103.28,108.82L102.99,108.82L102.73,108.76L102.51,108.65"/></g></g><g id="Actor_.53"><g style="stroke:#000000;stroke-width:0.176"><path d="M186.74,118.21L196.71,123.93L196.71,127.71"/><path d="M187.18,117.46L197.14,123.18L196.71,123.93"/><path d="M197.14,123.18L199.38,121.90"/><path d="M200.27,123.75L201.68,122.95"/><path d="M200.40,121.31L202.34,120.19"/><path d="M201.94,123.07L201.94,124.71"/></g><g style="stroke:#000000;stroke-width:0.529"><path d="M202.78,123.45L202.78,124.23L201.94,124.71L200.27,123.75L197.55,125.32L197.55,127.23L196.71,127.71L186.74,122.00L186.74,118.21L187.18,117.46L192.38,114.48L202.34,120.19L202.78,120.45L202.78,122.40"/></g></g><g id="Actor_.54"><g style="stroke:#000000;stroke-width:0.176"><path d="M82.76,140.07L82.76,139.32L82.41,138.97L80.28,137.74L79.93,137.70"/><path d="M80.31,138.07L80.34,138.14L80.38,138.22L80.44,138.28L80.50,138.33L80.77,138.48L80.77,138.48L80.78,138.56L80.77,138.63L80.74,138.67L80.70,138.70L80.65,138.70L80.59,138.67L80.24,138.48L80.18,138.43L80.12,138.37L80.08,138.29L80.05,138.21L80.04,138.14L80.05,138.07L80.08,138.02L80.12,138.00L80.18,138.00L80.24,138.02L80.59,138.22L80.65,138.27L80.70,138.33L80.72,138.36L80.50,138.24L80.46,138.21L80.43,138.17L80.40,138.12L80.40,138.11"/><path d="M80.72,138.36L80.74,138.41L80.77,138.48"/><path d="M81.92,139.29L81.91,139.21L81.92,139.14L81.95,139.10L81.99,139.07L82.05,139.07L82.11,139.09L82.18,139.14L82.21,139.21L82.25,139.29L82.31,139.35L82.37,139.40L82.64,139.55L82.64,139.56L82.65,139.63L82.64,139.70L82.62,139.75L82.57,139.77L82.52,139.77L82.46,139.75L82.11,139.55L82.05,139.50L81.99,139.44L81.95,139.36L81.92,139.29"/><path d="M81.74,137.38L81.58,137.53L81.51,137.70L81.55,137.88L81.68,138.04L81.74,138.07"/><path d="M82.76,139.32L83.81,138.72"/><path d="M82.64,139.55L82.62,139.48L82.59,139.44L82.37,139.31L82.33,139.28L82.30,139.24L82.27,139.20L82.27,139.19L82.18,139.14"/><path d="M82.27,139.19L82.46,139.29L82.52,139.34L82.57,139.40L82.59,139.44"/></g><g style="stroke:#000000;stroke-width:0.529"><path d="M80.43,138.89L82.41,140.03L82.76,140.07L83.81,139.48L83.81,138.72L83.46,138.37L83.04,138.13L82.78,138.22L82.48,138.26L82.18,138.24L81.90,138.16L81.74,138.07L81.74,137.97L81.71,137.98L81.69,137.98L81.68,137.98L81.68,137.97L81.68,137.97L81.67,137.96L81.68,137.95L81.68,137.94L81.69,137.92L81.71,137.89L81.74,137.86L81.74,137.38L81.33,137.14L80.98,137.10L79.93,137.70L79.93,138.45L80.28,138.80L80.43,138.89"/></g></g><g id="Actor_.55"><g style="stroke:#000000;stroke-width:0.176"><path d="M129.12,110.67L128.98,110.78L128.85,110.93L128.76,111.11L128.70,111.29L128.69,111.46"/><path d="M128.80,111.70L128.80,111.70"/><path d="M132.27,113.85L132.52,113.39L132.46,113.61L132.43,113.82L132.46,114.01L132.52,114.15L132.27,113.85L131.82,113.59"/><path d="M131.87,113.46L132.01,113.10"/><path d="M133.72,113.21L133.74,113.07L133.72,112.89L133.65,112.74L133.55,112.65L133.41,112.60L133.25,112.62L133.09,112.69L132.92,112.81L132.76,112.98L132.62,113.18L132.52,113.39L132.65,112.87L132.20,112.62L132.75,112.30"/><path d="M132.92,114.27L132.76,114.29L132.62,114.25L132.52,114.15L132.65,114.39"/><path d="M131.94,113.75L132.03,113.89"/><path d="M132.01,113.10L132.14,112.77L132.00,113.04L131.91,113.31L131.90,113.38"/><path d="M132.65,112.87L133.09,112.69L133.40,112.44"/><path d="M132.14,112.77L132.20,112.62"/><path d="M132.33,112.54L132.51,112.41"/><path d="M133.09,114.20L133.08,114.20"/><path d="M133.29,114.04L133.41,113.91L133.48,113.82"/></g><g style="stroke:#000000;stroke-width:0.529"><path d="M133.08,114.20L132.65,114.39L132.20,114.13L132.03,113.89L131.94,113.78L131.94,113.75L131.82,113.59L131.87,113.46L128.80,111.70"/><path d="M133.09,114.20L133.25,114.08L133.29,114.04L133.40,113.95L133.48,113.82L133.55,113.71L133.65,113.50L133.72,113.28L133.72,113.21L133.78,112.98L133.65,112.74L133.40,112.44L132.95,112.18L132.75,112.30L132.54,112.38L132.51,112.41L129.39,110.62L129.26,110.61L129.12,110.67L129.06,110.70L128.94,110.80L128.83,110.93L128.75,111.08L128.70,111.24L128.69,111.39L128.69,111.46L128.72,111.60L128.80,111.70"/></g></g><g id="Actor_.56"><g style="stroke:#000000;stroke-width:0.176"><path d="M77.80,134.23L76.76,134.82L76.41,134.47L75.99,134.24L76.15,134.09L76.22,133.91L76.18,133.74L76.05,133.58L75.83,133.46L75.56,133.38L75.36,133.37L75.25,133.36L74.95,133.40L74.69,133.49L74.28,133.25L73.93,133.20"/><path d="M74.69,133.49L74.69,133.96L74.73,133.96L74.75,133.96L74.76,133.96L74.77,133.97L74.77,133.97L74.77,133.98L74.77,133.99L74.77,134.00L74.76,134.01L74.73,134.04L74.69,134.07L74.69,134.23"/><path d="M74.65,134.11L74.65,134.11L74.68,134.09L74.69,134.07"/><path d="M74.58,134.09L74.62,134.11"/><path d="M74.65,133.88L74.65,133.88L74.68,133.93L74.69,133.96"/><path d="M75.99,134.24L75.99,134.29"/><path d="M76.76,135.58L76.76,134.82"/></g><g style="stroke:#000000;stroke-width:0.529"><path d="M76.71,135.57L76.76,135.58L77.80,134.98L77.80,134.23L77.45,133.87L75.32,132.65L74.97,132.60L73.93,133.20L73.93,133.23"/></g></g><g id="Actor_.57"><g style="stroke:#000000;stroke-width:0.176"><path d="M73.68,134.61L73.68,134.62L73.69,134.69L73.68,134.76L73.65,134.80L73.61,134.83L73.55,134.83L73.49,134.81L73.14,134.61L73.08,134.56L73.03,134.50L73.00,134.44L72.99,134.42L72.96,134.34L72.95,134.27L72.96,134.20L72.99,134.15L73.03,134.13L73.08,134.13L73.14,134.15L73.49,134.35L73.55,134.40L73.61,134.46L73.65,134.54L73.68,134.61L73.40,134.46L73.34,134.41L73.29,134.35L73.25,134.27L73.22,134.20"/><path d="M72.84,133.83L73.19,133.87L75.32,135.10L75.67,135.45L75.67,136.20"/><path d="M73.63,134.49L73.40,134.37L73.37,134.34L73.33,134.30L73.31,134.25L73.30,134.24"/><path d="M75.36,135.88L75.01,135.68L74.95,135.63L74.90,135.57L74.86,135.49L74.83,135.42L74.82,135.34L74.83,135.28L74.86,135.23L74.90,135.20L74.95,135.20L75.01,135.23L75.09,135.27L75.12,135.34L75.16,135.42L75.22,135.48L75.28,135.53L75.55,135.69L75.55,135.69L75.56,135.76L75.55,135.83L75.52,135.88L75.48,135.90L75.42,135.90L75.36,135.88L75.36,135.88"/><path d="M75.55,135.69L75.52,135.61L75.50,135.57L75.28,135.44L75.24,135.41L75.21,135.37L75.18,135.33L75.18,135.32L75.09,135.27"/><path d="M75.18,135.32L75.36,135.43L75.42,135.47L75.48,135.53L75.50,135.57"/><path d="M74.65,133.51L74.49,133.66L74.42,133.84L74.46,134.01L74.59,134.17L74.65,134.20"/><path d="M75.67,135.45L76.71,134.85"/></g><g style="stroke:#000000;stroke-width:0.529"><path d="M72.84,134.58L72.84,133.83L73.88,133.23L74.23,133.28L74.65,133.51L74.65,133.99L74.61,134.02L74.59,134.05L74.58,134.07L74.58,134.08L74.58,134.09L74.58,134.10L74.58,134.10L74.59,134.11L74.60,134.11L74.61,134.11L74.65,134.10L74.65,134.20L74.81,134.29L75.08,134.37L75.39,134.39L75.69,134.35L75.95,134.26L76.36,134.50L76.71,134.85L76.71,135.61L75.67,136.20L75.32,136.16L73.19,134.93L72.84,134.58"/></g></g><g id="Actor_.58"><g style="stroke:#000000;stroke-width:0.176"><path d="M84.89,138.09L83.85,138.69L83.50,138.34L83.09,138.11L83.25,137.96L83.31,137.78L83.31,137.78L83.28,137.61L83.14,137.45L82.93,137.32L82.65,137.25L82.35,137.23L82.05,137.27L81.78,137.36L81.78,137.83L81.77,137.80L81.74,137.75L81.74,137.75"/><path d="M81.74,137.98L81.74,137.98L81.77,137.96L81.78,137.94L81.78,138.10"/><path d="M81.67,137.96L81.71,137.98"/><path d="M81.78,137.94L81.82,137.91L81.85,137.88L81.86,137.87L81.87,137.86L81.87,137.85L81.87,137.84L81.86,137.84L81.86,137.83L81.84,137.83L81.82,137.83L81.78,137.83"/><path d="M81.78,137.36L81.37,137.12L81.02,137.07"/><path d="M83.09,138.11L83.09,138.16"/><path d="M83.85,139.45L83.85,138.69"/></g><g style="stroke:#000000;stroke-width:0.529"><path d="M83.81,139.44L83.85,139.45L84.89,138.85L84.89,138.09L84.55,137.74L82.41,136.52L82.07,136.47L81.02,137.07L81.02,137.10"/></g></g><g id="Actor_.59"><g style="stroke:#000000;stroke-width:0.176"><path d="M125.15,20.11L125.08,20.31L124.89,20.48L124.62,20.62L124.29,20.69L123.93,20.70L123.58,20.64L123.42,20.57L123.29,20.52L123.08,20.36L122.98,20.16"/><path d="M123.63,23.29L123.79,23.35L123.99,23.39L124.19,23.38L124.38,23.34L124.53,23.26"/><path d="M123.29,20.56L123.58,20.68L123.93,20.74L124.29,20.73L124.62,20.66L124.89,20.53"/><path d="M124.17,19.84L123.76,19.91L123.65,20.14L123.76,20.21L123.76,20.20L124.17,20.14L124.17,19.84L124.48,20.02L124.37,20.25L124.32,20.23L124.28,20.21L124.17,20.17L124.05,20.17L123.97,20.17L123.93,20.18L123.82,20.22L123.80,20.23L123.95,20.32L124.12,20.29L124.14,20.29L124.17,20.17"/><path d="M123.76,20.20L123.76,19.91"/><path d="M123.76,20.21L123.80,20.23"/><path d="M123.61,20.75L123.45,20.66"/><path d="M124.17,20.14L124.32,20.23L124.36,20.25L124.36,20.25L124.37,20.25"/><path d="M124.14,20.29L124.36,20.25"/><path d="M124.54,20.74L124.55,20.73L124.68,20.65"/></g><g style="stroke:#000000;stroke-width:0.529"><path d="M122.98,20.20L123.08,20.40L123.29,20.56L123.45,20.66L123.45,23.08L123.51,23.19L123.63,23.29L123.69,23.32L123.83,23.38L124.00,23.41L124.17,23.40L124.33,23.37L124.47,23.30L124.53,23.26L124.64,23.16L124.68,23.05L124.68,20.65L124.89,20.53L125.08,20.35L125.15,20.15L125.15,20.11L125.11,19.90L124.95,19.72L124.70,19.57L124.37,19.48L124.02,19.46L123.67,19.50L123.36,19.60L123.13,19.76L123.00,19.95L122.98,20.16L122.98,20.20"/></g></g><g id="Actor_.60"><g style="stroke:#000000;stroke-width:0.176"><path d="M202.83,99.78L202.83,101.81"/><path d="M204.82,100.17L203.66,100.83L203.54,100.88L203.43,100.87L203.34,100.82L203.29,100.73L203.27,100.60L203.27,99.53"/><path d="M202.83,96.77L203.07,96.63"/></g><g style="stroke:#000000;stroke-width:0.529"><path d="M202.83,101.81L201.07,100.79"/><path d="M203.57,99.36L204.89,100.12"/></g></g><g id="Actor_.61"><g style="stroke:#000000;stroke-width:0.176"><path d="M68.12,127.14L68.47,127.19L69.13,127.57"/><path d="M68.27,127.74L68.26,127.73L68.24,127.66L68.23,127.58L68.24,127.51L68.26,127.47L68.31,127.44L68.36,127.44L68.42,127.46L68.50,127.51L68.52,127.58L68.57,127.66L68.59,127.68"/><path d="M68.74,127.65L68.58,127.56L68.59,127.57L68.61,127.61L68.65,127.65L68.66,127.67"/><path d="M68.58,127.56L68.50,127.51"/><path d="M69.92,126.83L69.76,126.98L69.70,127.15L69.73,127.32L69.83,127.43"/><path d="M70.23,128.95L70.29,128.99L70.64,129.19L70.70,129.22L70.76,129.21L70.80,129.19L70.83,129.14L70.84,129.08L70.83,129.00L70.83,129.00L70.55,128.84L70.49,128.80L70.44,128.73L70.40,128.66L70.37,128.58L70.29,128.54L70.23,128.51L70.18,128.52L70.13,128.54L70.11,128.59L70.10,128.65L70.11,128.73L70.13,128.81L70.18,128.88L70.23,128.95"/><path d="M70.83,129.00L70.80,128.92L70.78,128.88L70.55,128.75L70.52,128.73L70.48,128.69L70.46,128.64L70.45,128.63L70.37,128.58"/><path d="M70.76,129.21L70.76,129.21"/><path d="M70.95,129.52L70.95,128.76L70.60,128.41L70.39,128.29"/><path d="M70.45,128.63L70.64,128.74L70.70,128.78L70.76,128.85L70.78,128.88"/><path d="M70.95,128.76L71.99,128.16"/></g><g style="stroke:#000000;stroke-width:0.529"><path d="M69.87,127.42L69.87,127.42L69.86,127.42L69.86,127.41L69.86,127.40L69.86,127.40L69.86,127.39L69.87,127.37L69.89,127.34L69.92,127.30L69.92,126.83L69.51,126.59L69.16,126.54L68.12,127.14L68.12,127.77"/><path d="M71.38,129.27L70.95,129.52L70.60,129.47L69.02,128.57"/><path d="M69.91,127.42L69.92,127.41L69.92,127.41"/><path d="M71.83,128.00L71.99,128.16L71.99,128.66"/></g></g><g id="Actor_.62"><g style="stroke:#000000;stroke-width:0.176"><path d="M71.47,127.10L71.46,127.05L71.33,126.89L71.11,126.77L70.83,126.69L70.53,126.67L70.23,126.71L69.97,126.80L69.55,126.56L69.20,126.51"/><path d="M69.97,126.80L69.97,127.28L70.01,127.27L70.03,127.27L70.04,127.27L70.05,127.28L70.05,127.29L70.05,127.29L70.05,127.30L70.05,127.31L70.04,127.33L70.01,127.35L69.97,127.38L69.97,127.40"/><path d="M69.89,127.42L69.86,127.41"/><path d="M69.97,127.38L69.95,127.40L69.95,127.41"/><path d="M69.92,127.19L69.93,127.20L69.95,127.24L69.97,127.28"/><path d="M71.89,127.99L72.03,128.14L72.50,127.87"/><path d="M72.03,128.64L72.03,128.14"/></g><g style="stroke:#000000;stroke-width:0.529"><path d="M72.30,126.94L70.60,125.96L70.25,125.92L69.20,126.51L69.20,126.55"/><path d="M73.08,128.04L73.08,127.76"/></g></g><g><g><path style="stroke:#000000;stroke-width:0.125;stroke-dasharray:2.1 1.4 0.7 1.4" d="M122.00,107.09L128.80,110.99"/></g></g><g><g><path style="stroke:#000000;stroke-width:0.125;stroke-dasharray:2.1 1.4 0.7 1.4" d="M121.50,84.35L121.50,106.05"/></g></g><g><g><path style="stroke:#000000;stroke-width:0.125;stroke-dasharray:2.1 1.4 0.7 1.4" d="M94.79,122.69L101.52,126.80"/></g></g><g><g><path style="stroke:#000000;stroke-width:0.125;stroke-dasharray:2.1 1.4 0.7 1.4" d="M124.06,95.56L124.06,85.82"/><path style="stroke:#000000;stroke-width:0.125;stroke-dasharray:2.1 1.4 0.7 1.4" d="M124.06,23.41L124.06,35.17"/></g></g><g><g><path style="stroke:#000000;stroke-width:0.125;stroke-dasharray:2.1 1.4 0.7 1.4" d="M117.09,81.82L117.09,99.56"/><path style="stroke:#000000;stroke-width:0.125;stroke-dasharray:2.1 1.4 0.7 1.4" d="M117.09,27.40L117.09,39.17"/></g></g><g><g><path style="stroke:#000000;stroke-width:0.125;stroke-dasharray:2.1 1.4 0.7 1.4" d="M110.13,77.83L110.13,103.55"/><path style="stroke:#000000;stroke-width:0.125;stroke-dasharray:2.1 1.4 0.7 1.4" d="M110.13,31.39L110.13,43.16"/></g></g><g><g><path style="stroke:#000000;stroke-width:0.125;stroke-dasharray:2.1 1.4 0.7 1.4" d="M103.17,73.84L103.17,107.54"/><path style="stroke:#000000;stroke-width:0.125;stroke-dasharray:2.1 1.4 0.7 1.4" d="M103.17,35.39L103.17,47.15"/></g></g><g><g><path style="stroke:#000000;stroke-width:0.125;stroke-dasharray:2.1 1.4 0.7 1.4" d="M94.30,121.65L94.30,68.75"/></g></g><g><g><path style="stroke:#000000;stroke-width:0.125;stroke-dasharray:2.1 1.4 0.7 1.4" d="M96.20,69.84L96.20,111.54"/><path style="stroke:#000000;stroke-width:0.125;stroke-dasharray:2.1 1.4 0.7 1.4" d="M96.20,39.38L96.20,51.15"/></g></g><g><g><path style="stroke:#000000;stroke-width:0.125;stroke-dasharray:2.1 1.4 0.7 1.4" d="M89.24,65.85L89.24,115.53"/><path style="stroke:#000000;stroke-width:0.125;stroke-dasharray:2.1 1.4 0.7 1.4" d="M89.24,43.38L89.24,55.14"/></g></g><g><g><path style="stroke:#000000;stroke-width:0.125;stroke-dasharray:2.1 1.4 0.7 1.4" d="M194.76,126.60L194.76,192.30"/><path style="stroke:#000000;stroke-width:0.125;stroke-dasharray:2.1 1.4 0.7 1.4" d="M194.76,107.45L194.76,118.83"/></g></g><g id="PMI.0"><g><path style="stroke:#000000;stroke-width:0.125" d="M50.93,131.70L93.98,123.09"/></g><g><path style="fill:#000000" d="M94.73,123.09L94.73,123.01L94.72,122.94L94.70,122.87L94.68,122.80L94.64,122.73L94.61,122.67L94.56,122.61L94.51,122.56L94.46,122.51L94.40,122.46L94.34,122.42L94.27,122.39L94.20,122.37L94.13,122.35L94.06,122.34L93.98,122.34L93.91,122.34L93.84,122.35L93.77,122.37L93.70,122.39L93.63,122.42L93.57,122.46L93.51,122.51L93.45,122.56L93.40,122.61L93.36,122.67L93.32,122.73L93.29,122.80L93.27,122.87L93.25,122.94L93.24,123.01L93.23,123.09L93.24,123.16L93.25,123.23L93.27,123.30L93.29,123.37L93.32,123.44L93.36,123.50L93.40,123.56L93.45,123.62L93.51,123.67L93.57,123.71L93.63,123.75L93.70,123.78L93.77,123.80L93.84,123.82L93.91,123.83L93.98,123.84L94.06,123.83L94.13,123.82L94.20,123.80L94.27,123.78L94.34,123.75L94.40,123.71L94.46,123.67L94.51,123.62L94.56,123.56L94.61,123.50L94.64,123.44L94.68,123.37L94.70,123.30L94.72,123.23L94.73,123.16z"/></g><g><text xml:space="preserve" fill="#000000" stroke-width="0" x="36.30" y="135.57" font-size="3.78" opacity="1.00" font-family="Arial">ND0526</text></g></g><g id="PMI.1"><g><path style="stroke:#000000;stroke-width:0.125" d="M47.48,171.99L106.51,128.85"/></g><g><path style="fill:#000000" d="M107.26,128.85L107.26,128.78L107.25,128.71L107.23,128.64L107.21,128.57L107.17,128.50L107.14,128.44L107.09,128.38L107.04,128.32L106.99,128.27L106.93,128.23L106.87,128.19L106.80,128.16L106.73,128.14L106.66,128.12L106.59,128.11L106.51,128.10L106.44,128.11L106.37,128.12L106.29,128.14L106.23,128.16L106.16,128.19L106.10,128.23L106.04,128.27L105.98,128.32L105.93,128.38L105.89,128.44L105.85,128.50L105.82,128.57L105.79,128.64L105.78,128.71L105.77,128.78L105.76,128.85L105.77,128.93L105.78,129.00L105.79,129.07L105.82,129.14L105.85,129.21L105.89,129.27L105.93,129.33L105.98,129.38L106.04,129.43L106.10,129.48L106.16,129.52L106.23,129.55L106.29,129.57L106.37,129.59L106.44,129.60L106.51,129.60L106.59,129.60L106.66,129.59L106.73,129.57L106.80,129.55L106.87,129.52L106.93,129.48L106.99,129.43L107.04,129.38L107.09,129.33L107.14,129.27L107.17,129.21L107.21,129.14L107.23,129.07L107.25,129.00L107.26,128.93z"/></g><g><text xml:space="preserve" fill="#000000" stroke-width="0" x="36.30" y="177.43" font-size="3.78" opacity="1.00" font-family="Arial">ND0743</text></g></g><g id="PMI.2"><g><path style="stroke:#000000;stroke-width:0.125" d="M49.02,94.31L88.79,115.64"/></g><g><path style="fill:#000000" d="M89.54,115.64L89.53,115.57L89.52,115.50L89.50,115.42L89.48,115.36L89.45,115.29L89.41,115.23L89.37,115.17L89.32,115.11L89.26,115.06L89.20,115.02L89.14,114.98L89.07,114.95L89.00,114.92L88.93,114.91L88.86,114.90L88.79,114.89L88.71,114.90L88.64,114.91L88.57,114.92L88.50,114.95L88.43,114.98L88.37,115.02L88.31,115.06L88.26,115.11L88.21,115.17L88.16,115.23L88.13,115.29L88.09,115.36L88.07,115.42L88.05,115.50L88.04,115.57L88.04,115.64L88.04,115.72L88.05,115.79L88.07,115.86L88.09,115.93L88.13,116.00L88.16,116.06L88.21,116.12L88.26,116.17L88.31,116.22L88.37,116.27L88.43,116.30L88.50,116.34L88.57,116.36L88.64,116.38L88.71,116.39L88.79,116.39L88.86,116.39L88.93,116.38L89.00,116.36L89.07,116.34L89.14,116.30L89.20,116.27L89.26,116.22L89.32,116.17L89.37,116.12L89.41,116.06L89.45,116.00L89.48,115.93L89.50,115.86L89.52,115.79L89.53,115.72z"/></g><g><text xml:space="preserve" fill="#000000" stroke-width="0" x="36.30" y="93.54" font-size="3.78" opacity="1.00" font-family="Arial">ND0526</text></g></g><g id="PMI.3"><g><path style="stroke:#000000;stroke-width:0.125" d="M50.93,47.94L89.89,40.79"/></g><g><path style="fill:#000000" d="M90.64,40.79L90.63,40.72L90.62,40.65L90.60,40.57L90.58,40.50L90.55,40.44L90.51,40.38L90.47,40.32L90.42,40.26L90.36,40.21L90.30,40.17L90.24,40.13L90.17,40.10L90.10,40.07L90.03,40.06L89.96,40.05L89.89,40.04L89.81,40.05L89.74,40.06L89.67,40.07L89.60,40.10L89.53,40.13L89.47,40.17L89.41,40.21L89.36,40.26L89.31,40.32L89.26,40.38L89.22,40.44L89.19,40.50L89.17,40.57L89.15,40.65L89.14,40.72L89.14,40.79L89.14,40.87L89.15,40.94L89.17,41.01L89.19,41.08L89.22,41.15L89.26,41.21L89.31,41.27L89.36,41.32L89.41,41.37L89.47,41.42L89.53,41.45L89.60,41.48L89.67,41.51L89.74,41.53L89.81,41.54L89.89,41.54L89.96,41.54L90.03,41.53L90.10,41.51L90.17,41.48L90.24,41.45L90.30,41.42L90.36,41.37L90.42,41.32L90.47,41.27L90.51,41.21L90.55,41.15L90.58,41.08L90.60,41.01L90.62,40.94L90.63,40.87z"/></g><g><text xml:space="preserve" fill="#000000" stroke-width="0" x="36.30" y="51.68" font-size="3.78" opacity="1.00" font-family="Arial">ND0252</text></g></g><g id="PMI.4"><g><path style="stroke:#000000;stroke-width:0.125" d="M244.81,142.12L197.90,120.70"/></g><g><path style="fill:#000000" d="M198.65,120.70L198.65,120.62L198.64,120.55L198.62,120.48L198.60,120.41L198.57,120.34L198.53,120.28L198.48,120.22L198.43,120.17L198.38,120.12L198.32,120.07L198.26,120.03L198.19,120.00L198.12,119.98L198.05,119.96L197.98,119.95L197.90,119.95L197.83,119.95L197.76,119.96L197.69,119.98L197.62,120.00L197.55,120.03L197.49,120.07L197.43,120.12L197.37,120.17L197.32,120.22L197.28,120.28L197.24,120.34L197.21,120.41L197.19,120.48L197.17,120.55L197.16,120.62L197.15,120.70L197.16,120.77L197.17,120.84L197.19,120.91L197.21,120.98L197.24,121.05L197.28,121.11L197.32,121.17L197.37,121.23L197.43,121.28L197.49,121.32L197.55,121.36L197.62,121.39L197.69,121.41L197.76,121.43L197.83,121.44L197.90,121.45L197.98,121.44L198.05,121.43L198.12,121.41L198.19,121.39L198.26,121.36L198.32,121.32L198.38,121.28L198.43,121.23L198.48,121.17L198.53,121.11L198.57,121.05L198.60,120.98L198.62,120.91L198.64,120.84L198.65,120.77z"/></g><g><text xml:space="preserve" fill="#000000" stroke-width="0" x="244.89" y="147.55" font-size="3.78" opacity="1.00" font-family="Arial">PE0052</text></g></g><g/><g><g/><g><text xml:space="preserve" fill="#000000" stroke-width="0" x="7.68" y="11.85" font-size="4.53" opacity="1.00" font-family="Arial" font-weight="bold">BPA27854</text></g></g><g id="paperID" visibility="hidden" opacity="0.00" transform="scale(0.000100)"><path style="stroke:#000000;stroke-width:0.500;fill:#e6e6e6;fill-rule:evenodd" d="M-2000.00,-2000.00L2297.00,-2000.00L2297.00,2210.00L-2000.00,2210.00zM0.00,0.00L297.00,0.00L297.00,210.00L0.00,210.00z"/><path style="fill:#000000;fill-opacity:0.118" d="M3.00,210.00L297.00,210.00L297.00,3.00L300.00,3.00L300.00,213.00L3.00,213.00z"/></g></g></svg>
