<?xml version="1.0" encoding="UTF-8" standalone="no"?>
<svg xmlns="http://www.w3.org/2000/svg" xmlns:xlink="http://www.w3.org/1999/xlink" width="297.000mm" height="210.000mm" viewBox="0.000000 0.000000 297.000000 210.000000" stroke-linejoin="round" stroke-linecap="round" fill="none" fill-rule="evenodd"><desc>Composer Export</desc><script type="text/ecmascript"><![CDATA[
if(typeof(top) != "undefined")
{
	top.ShowPaper = ShowPaper;
}
function ShowHotSpot(evt,hotspotid)
{
	var svgDocument = evt.target.ownerDocument;
	var strId = "hotspot."+hotspotid;
	var hotspot = svgDocument.getElementById(strId);
	if(hotspot)
		hotspot.setAttribute("opacity",".5");
}
function HideHotSpot(evt,hotspotid)
{
	var svgDocument = evt.target.ownerDocument;
	var strId = "hotspot."+hotspotid;
	var hotspot = svgDocument.getElementById(strId);
	if(hotspot)
		hotspot.setAttribute("opacity","0");

	var toolTip = svgDocument.getElementById('ToolTip');
	if(toolTip)
		toolTip.setAttribute("visibility","hidden");
}
function ShowToolTip(evt,hotspotid,strTooltip)
{
	if(strTooltip=="")
	return;

	// change text
	var svgDocument = evt.target.ownerDocument;
	var tiptext = svgDocument.getElementById('ToolTipText');
	if( !tiptext )
	return;
	tiptext.firstChild.nodeValue = " " + strTooltip + "  " ;

	// show tooltip before, else some refresh issue

	var toolTip = svgDocument.getElementById('ToolTip');
	if(!toolTip)
	return;

	toolTip.setAttribute("visibility","visible");
	toolTip.setAttribute("opacity",".95");

	// move tooltip
	// get viewbox

	var root = svgDocument.documentElement;
	var vbox = (root.getAttribute("viewBox")).split(' ');
	var x0 = parseFloat(vbox[0]);
	var y0 = parseFloat(vbox[1]);
	var vboxW = parseFloat(vbox[2]);
	var vboxH = parseFloat(vbox[3]);

	// get default width of svg

	var strW = root.getAttribute("width");
	var svgW = parseFloat(strW);
	if(strW.indexOf('mm') != -1)
	svgW *= 3.779;

	var strH = root.getAttribute("height");
	var svgH = parseFloat(strH);
	if(strH.indexOf('mm') != -1)
	svgH *= 3.779;  	// 96 dpi  -> 96/25.4 = 3.779

	// update the viewbox / width / height if svg is embedded in html with zoom fit all
	var realx0 = x0;
	var realy0 = y0;
	var realvboxW = vboxW;
	var realvboxH = vboxH;
	var realsvgW = svgW;
	var realsvgH = svgH;

	if ((typeof(top) == "undefined") || (typeof(top.svgctl1) != "undefined")) // embedded in html
	{
		// get window size in pxl

		svgW = window.innerWidth;
		svgH = window.innerHeight;

		// calculate real viewbox

		realsvgW = svgW;
		realsvgH = svgH;
		if((svgW / svgH) > (vboxW / vboxH))
		{
			realvboxW = (vboxH * svgW) / svgH;
			realvboxH = vboxH;
			realx0 = x0 - (realvboxW - vboxW)/2 ;
		}
		else
		{
			realvboxH = (vboxW * svgH) / svgW;
			realvboxW = vboxW;
			realy0 = y0 - (realvboxH - vboxH)/2 ;
		}
	}

	// get user zoom/pan

	var newScale = root.currentScale;
	var translation = root.currentTranslate;

	// transform pxl to user unit

	var xPos = (((evt.clientX+10- translation.x)/newScale) * realvboxW)/realsvgW  + realx0 ;
	var yPos = (((evt.clientY+5- translation.y)/newScale) * realvboxH)/ realsvgH  + realy0 ;
	var scaleForWidth = ( (1 / newScale) * realvboxH) / realsvgH;

	// move tooltip

	toolTip.setAttribute("transform", "translate(" + xPos + "," + yPos + ")" );

	// resize tooltip

	var fontsize = 12;
	tiptext.setAttribute("font-size",fontsize*scaleForWidth);
	tiptext.setAttribute("y", fontsize*scaleForWidth);
	var tipBG = svgDocument.getElementById('ToolTipBG');
	var outline = tiptext.getBBox();
	if(tipBG)
	{
		tipBG.setAttribute("stroke-width", 1*scaleForWidth);
		tipBG.setAttribute("width", Number(outline.width) );
		tipBG.setAttribute("height", Number(outline.height) + fontsize*.5*scaleForWidth );
	}
	var ToolTipShadow = svgDocument.getElementById('ToolTipShadow');
	if(ToolTipShadow)
	{
		ToolTipShadow.setAttribute("width", Number(outline.width) );
		ToolTipShadow.setAttribute("height", Number(outline.height) + fontsize*.5*scaleForWidth );
		ToolTipShadow.setAttribute("x", 3*scaleForWidth);
		ToolTipShadow.setAttribute("y", 3*scaleForWidth);
	}
}
function ShowPaper()
{
  var svgDocument = getDocument();
  var paper = svgDocument.getElementById("paperID");
  if(paper)
  {
    paper.setAttribute("transform","scale(1)");
    paper.setAttribute("opacity","1");
    paper.setAttribute("visibility","visible");
  }
  var svg = svgDocument.getRootElement();
  if(svg)
  {
    svg.setAttribute("width","307.000mm");
    svg.setAttribute("height","220.000mm");
    svg.setAttribute("viewBox","-5.000000 -5.000000 307.000000 220.000000");
  }
}
]]></script><defs/><g><path style="fill:#000000;fill-opacity:0.098;fill-rule:evenodd" d="M161.47,21.85L161.46,26.64L161.22,27.38L160.72,27.88L160.48,30.36L159.90,31.51L158.98,32.57L155.70,34.24L154.44,34.46L154.30,50.64L154.05,51.14L152.74,51.80L150.98,51.88L150.82,34.96L150.00,34.55L149.74,28.77L153.23,28.30L155.44,27.54L157.90,26.29L159.73,24.65L160.73,22.94L160.72,20.35zM186.79,55.65L185.12,55.51L185.60,55.24L186.71,55.26zM188.46,56.20L188.92,57.23L188.92,59.04L188.69,60.29L187.93,62.01L186.45,64.00L185.15,64.92L183.71,64.91L182.01,64.15L181.49,63.42L181.26,63.45L181.02,64.75L179.80,65.76L178.70,66.14L176.23,66.21L175.97,65.16L176.47,63.41L177.79,62.26L178.44,61.92L180.78,61.91L181.24,62.18L181.50,63.02L181.69,60.72L181.83,60.61L181.98,62.19L182.46,63.51L182.73,63.45L182.74,61.76L183.22,59.78L184.49,57.58L185.12,56.73L186.79,55.65L187.95,55.73zM182.08,59.85L181.83,60.61L182.00,59.69zM177.45,66.89L179.76,66.46L181.15,65.63L181.78,65.16L181.78,65.71L180.79,66.75L178.95,67.38L176.27,67.37L176.21,66.87zM184.67,67.37L183.62,67.44L183.61,67.16L184.14,66.84L184.73,66.87zM176.23,68.08L178.95,67.87L181.04,67.14L181.02,67.96L180.77,68.46L179.77,69.18L178.46,69.61L176.46,69.69zM171.15,68.18L170.24,68.18L170.24,67.88L171.15,67.88zM170.85,70.34L170.86,71.41L170.54,71.62L170.04,71.60L170.37,70.06zM185.98,67.97L184.39,69.11L184.21,70.70L183.66,70.70L183.49,69.85L181.18,71.34L181.01,111.25L179.75,111.17L177.06,109.41L176.56,108.93L176.56,73.03L177.04,73.31L177.23,74.92L177.52,74.92L177.97,72.58L185.64,67.08L185.95,67.10zM178.87,70.74L178.63,71.25L178.79,70.58zM178.62,71.50L177.78,71.92L177.68,71.35L178.63,71.25zM153.29,97.24L153.07,97.89L151.81,98.63L151.49,100.54L150.72,100.61L150.76,100.05L151.05,99.78L150.51,99.61L150.49,98.54L151.29,98.35L152.81,97.36L153.10,97.04zM151.56,112.67L151.07,112.69L150.73,112.46L150.83,111.71L151.30,111.63zM154.60,112.55L155.30,117.18L154.56,117.94L153.23,118.82L153.50,119.08L153.53,120.13L152.76,120.80L152.85,121.64L152.23,122.05L152.05,130.07L151.49,130.07L151.48,121.30L152.33,121.07L151.48,120.83L152.04,120.63L152.29,119.53L151.47,119.57L151.85,119.11L152.07,119.13L152.06,117.10L151.81,115.37L151.74,113.89L154.23,112.35zM151.49,152.56L151.48,130.70L152.48,130.42L152.82,130.20L152.82,133.77L152.24,134.43L152.09,152.80zM156.05,153.43L156.52,154.45L156.51,156.02L155.69,158.41L154.70,159.90L153.54,161.21L151.75,162.14L150.56,162.13L149.57,161.39L149.35,161.12L149.00,159.41L149.58,157.00L150.84,154.80L152.80,153.05L153.45,152.71L155.29,152.71zM100.58,155.92L100.59,156.95L100.10,156.97L99.78,156.76L99.78,155.67zM99.53,154.94L98.36,155.78L98.36,155.30L99.27,154.69L100.38,154.70zM116.91,163.10L116.40,163.69L115.26,163.49L115.61,163.10L116.48,162.87zM140.42,162.69L137.96,164.21L137.96,160.72L140.13,159.36L140.42,159.37zM115.17,163.67L115.19,164.33L116.96,165.32L116.67,166.18L115.96,166.07L114.12,165.16L114.17,164.68L114.89,163.61L115.26,163.49zM114.70,166.34L113.95,167.14L113.72,167.10L113.96,165.81zM131.12,172.68L131.67,172.25L132.77,172.25L132.26,173.08L131.79,172.75zM131.28,173.50L133.02,174.50L133.06,174.81L132.75,175.33L132.02,175.25L130.78,174.46L130.02,174.56L130.01,174.08L130.92,172.73L131.12,172.68zM130.79,175.49L130.24,175.76L130.02,176.31L129.96,175.21zM137.70,177.06L137.96,175.07L140.46,173.75L140.46,177.07L137.96,178.56zM150.09,181.40L149.25,181.40L147.87,182.26L146.60,184.70L146.62,186.11L146.88,186.35L151.07,188.88L151.49,188.86L152.05,186.68L153.32,184.98L154.45,184.37L155.29,184.36L155.58,184.58L156.04,185.63L155.78,187.19L155.03,188.68L153.97,189.59L153.81,190.42L153.23,190.84L152.47,190.91L152.51,190.32L150.33,188.84L148.13,187.61L146.54,187.68L146.34,187.39L146.03,184.38L148.26,181.16L151.07,180.65L151.07,181.77L150.58,181.70zM144.92,185.37L144.92,185.70L144.65,185.64L144.65,185.10zM169.09,199.56L168.83,199.74L169.09,199.98L169.15,200.80L168.80,201.45L167.81,201.70L167.06,202.23L166.58,202.22L166.90,177.54L169.15,176.23zM186.97,57.72L187.45,57.75L187.68,59.81L187.87,57.68L188.16,57.68L188.18,60.04L187.19,62.26L185.40,63.93L184.12,63.91L185.17,63.64L185.21,63.39L183.69,63.45L183.40,63.25L183.46,60.51L184.61,58.20L185.62,57.20L186.20,57.20zM167.65,177.79L168.05,177.44L168.88,177.44L168.13,178.03L167.90,179.28L167.67,179.24zM168.85,198.60L168.56,198.52L168.88,179.17zM168.49,199.64L167.87,201.33L167.59,201.33L167.63,200.04L168.07,199.42z"/><g id="Actor_.0"><g style="stroke:#000000;stroke-width:0.176"><path d="M176.98,71.69L177.64,71.99L178.47,71.81"/><path d="M176.78,71.06L177.21,71.19L177.64,71.46L178.16,71.28L178.67,71.23L178.76,70.85L178.69,70.98L178.56,71.11L178.37,71.21L178.16,71.28L177.92,71.31L177.66,71.31L177.42,71.26L177.21,71.19L177.04,71.09L176.92,70.96L176.86,70.82L176.86,70.68L176.93,70.54L177.07,70.41L177.20,70.34"/><path d="M177.41,75.12L177.59,75.18L177.80,75.20L178.01,75.18L178.20,75.13L178.34,75.04"/><path d="M178.45,71.82L178.39,71.86L178.11,71.94L177.79,71.97L177.77,71.97"/><path d="M177.64,71.99L177.64,71.46"/><path d="M177.52,71.94L177.48,71.94L177.21,71.85L177.17,71.82"/><path d="M178.12,70.24L177.96,70.22L177.84,70.22"/><path d="M178.67,71.23L178.67,71.77"/><path d="M178.76,71.45L178.73,71.58"/><path d="M178.85,70.60L178.76,70.85L178.77,70.71L178.71,70.57L178.59,70.44"/></g><g style="stroke:#000000;stroke-width:0.529"><path d="M177.17,71.82L177.00,71.71L176.98,71.69L176.78,71.59L176.78,71.06L176.86,70.68L176.95,70.43L177.20,70.34L177.25,70.31L177.47,70.25L177.71,70.21L177.84,70.22L177.99,70.20L178.12,70.24L178.21,70.26L178.42,70.33L178.59,70.44L178.63,70.46L178.85,70.60L178.85,71.14L178.76,71.45L178.74,71.56L178.73,71.58L178.67,71.77L178.47,71.81L178.45,71.82"/><path d="M177.17,73.35L177.18,74.79L177.19,74.91L177.27,75.03L177.41,75.12L177.47,75.15L177.63,75.20L177.80,75.22L177.98,75.21L178.13,75.16L178.34,75.04"/><path d="M178.45,73.47L178.45,74.81L178.43,74.93L178.34,75.04"/></g></g><g id="Actor_.1"><g style="stroke:#000000;stroke-width:0.176"><path d="M151.08,129.86L151.06,129.88L151.03,130.00L151.07,130.12L151.17,130.23L151.33,130.31L151.47,130.34L151.52,130.35L151.73,130.36L151.94,130.33L152.10,130.27L152.11,130.26L152.24,130.17L152.30,130.05L152.30,129.93L152.25,129.85"/></g><g style="stroke:#000000;stroke-width:0.529"><path d="M152.92,132.55L152.91,133.91L152.91,133.94L152.78,134.17L152.76,134.20L152.52,134.38L152.49,134.40L152.16,134.53L151.79,134.58L151.40,134.57L151.04,134.48L150.75,134.33L150.72,134.31L150.52,134.11L150.50,134.08L150.42,133.84L150.42,133.81L150.43,130.02L150.44,129.98L150.56,129.76L150.59,129.73L150.83,129.54L150.85,129.53L151.08,129.44"/><path d="M152.92,131.53L152.93,130.12L152.92,130.08L152.85,129.85L152.82,129.81L152.63,129.61L152.60,129.59L152.31,129.44L152.25,129.43"/></g></g><g id="Actor_.2"><g style="stroke:#000000;stroke-width:0.176"><path d="M148.73,112.20L149.07,112.39L149.07,118.17L149.08,118.27L149.13,118.34L149.19,118.38"/><path d="M151.35,119.62L149.78,118.72L149.84,118.84L150.10,119.46L150.81,119.51L151.35,119.62L151.70,119.82L151.65,119.79L151.63,119.73L151.64,119.64L151.73,119.29L151.75,119.25L151.78,119.23L151.81,119.22L151.85,119.23L152.06,119.31L152.14,119.33L152.21,119.31L152.27,119.27L152.30,119.20L152.31,119.11L152.31,118.71L151.76,114.73L151.76,114.29L151.74,114.17L151.70,114.05L151.63,113.93L151.55,113.83L151.45,113.76L149.18,112.46L149.18,118.23L149.20,118.33L149.21,118.36L149.14,118.32L149.10,118.25L149.09,118.16L149.09,112.41L150.22,111.75L150.22,112.41L150.28,112.52L150.41,112.62L150.58,112.69L150.78,112.72L150.99,112.72L151.19,112.68L151.35,112.60L151.46,112.49L151.50,112.38L151.50,112.06L151.57,112.10L151.53,112.08L151.51,112.06"/><path d="M149.21,118.36L149.22,118.38"/><path d="M149.78,118.72L149.53,118.57"/><path d="M149.07,112.39L150.22,111.73L150.22,111.42L150.24,111.54L150.32,111.64L150.41,111.70L150.46,111.73L150.63,111.78L150.83,111.81L151.03,111.80L151.21,111.75L151.36,111.67L151.46,111.57L151.50,111.46L151.50,112.06"/><path d="M149.09,112.41L149.18,112.46L150.22,111.86"/><path d="M149.45,111.59L149.33,111.66L149.45,111.73"/><path d="M148.90,111.67L149.12,111.80L149.16,111.83L149.18,111.87L149.18,111.91L149.16,111.94L149.12,111.97L148.91,112.10L148.90,112.09"/><path d="M150.67,121.10L150.40,120.89L150.32,120.72L150.67,120.92L151.18,121.06L151.74,121.10L152.30,121.03L152.79,120.87L153.03,120.70L152.99,120.82L152.75,121.05L152.39,121.23L151.96,121.32L151.50,121.33L151.08,121.26L151.05,121.26L150.67,121.10"/><path d="M150.52,121.84L150.85,122.02L151.27,122.14L151.73,122.17L152.18,122.12L152.58,121.98"/><path d="M150.67,121.92L150.67,121.92"/><path d="M150.10,119.46L150.10,120.64"/><path d="M150.32,120.72L150.27,120.69"/><path d="M151.14,120.87L151.50,120.90L151.18,120.88L150.26,120.68"/><path d="M150.09,112.54L150.06,112.55L150.06,112.72L150.04,112.71L150.04,112.52L150.08,112.51L150.11,112.57L150.08,112.58L150.09,112.55"/><path d="M150.14,112.60L150.14,112.60L150.13,112.59L150.11,112.61L150.11,112.79L150.13,112.81L150.13,112.63L150.16,112.62L150.14,112.60L150.13,112.63"/><path d="M150.07,112.51L150.05,112.46L150.05,112.46L150.02,112.46L150.02,112.64L150.03,112.66L150.03,112.49L150.06,112.48"/><path d="M150.04,112.46L150.04,112.43L150.04,112.43L150.03,112.41L150.01,112.43L150.04,112.43"/><path d="M150.03,112.37L150.01,112.40L150.03,112.40L150.03,112.34L150.03,112.34L150.01,112.34L150.01,112.37L150.03,112.37"/><path d="M150.03,112.40L150.04,112.40L150.03,112.41"/><path d="M150.01,112.34L150.03,112.31L150.03,112.34"/><path d="M150.05,112.25L150.06,112.23L150.04,112.25L150.05,112.25L150.06,112.26L150.05,112.25L150.04,112.28L150.04,112.28L150.03,112.31"/><path d="M150.03,112.31L150.01,112.31L150.04,112.28"/><path d="M150.04,112.25L150.04,112.27L150.05,112.25"/><path d="M150.04,112.28L150.02,112.28L150.04,112.27"/><path d="M150.10,112.17L150.09,112.17L150.09,112.16L150.10,112.17L150.10,112.17L150.06,112.22L150.07,112.22L150.06,112.23"/><path d="M150.06,112.22L150.05,112.22L150.08,112.20"/><path d="M150.10,112.16L150.12,112.15L150.09,112.16"/><path d="M150.08,112.19L150.07,112.19L150.09,112.17"/><path d="M150.66,112.82L150.63,112.85L150.62,112.82L150.66,112.82L150.68,112.86L150.68,113.04L150.67,113.04L150.70,113.05L150.68,113.04"/><path d="M150.66,112.82L150.67,113.04"/><path d="M150.67,112.83L150.72,112.83L150.74,112.86L150.77,112.83L150.81,112.84L150.79,112.87L150.77,112.84"/><path d="M150.52,112.80L150.52,112.79L150.52,113.02L150.53,113.01L150.53,112.83L150.56,112.81L150.52,112.80L150.53,112.83"/><path d="M150.52,112.79L150.46,112.78L150.43,112.76L150.39,112.79L150.39,112.75L150.42,112.77"/><path d="M150.52,113.01L150.48,113.00L150.48,112.82L150.47,112.78"/><path d="M150.52,113.02L150.57,113.02L150.57,112.80L150.56,112.81"/><path d="M150.53,113.01L150.56,113.02"/><path d="M150.57,112.80L150.62,112.82"/><path d="M150.57,112.81L150.58,112.84L150.61,112.82"/><path d="M150.47,112.78L150.47,113.00L150.48,113.00"/><path d="M150.46,112.78L150.44,112.80L150.43,112.77"/><path d="M150.39,112.79L150.39,112.97L150.43,112.98L150.43,112.76"/><path d="M150.39,112.75L150.30,112.71L150.27,112.73L150.27,112.69L150.30,112.71"/><path d="M150.38,112.75L150.35,112.77L150.34,112.73"/><path d="M150.34,112.73L150.35,112.95L150.35,112.77"/><path d="M150.33,112.73L150.30,112.75L150.30,112.72"/><path d="M150.30,112.71L150.30,112.93L150.27,112.91L150.27,112.73"/><path d="M150.27,112.69L150.26,112.69L150.23,112.71L150.23,112.67L150.26,112.69"/><path d="M150.23,112.67L150.20,112.65L150.19,112.68L150.22,112.67"/><path d="M150.23,112.71L150.23,112.89L150.19,112.87L150.19,112.68"/><path d="M150.20,112.65L150.20,112.65L150.17,112.63L150.16,112.66L150.19,112.64"/><path d="M150.17,112.63L150.17,112.62L150.16,112.62"/><path d="M150.13,112.59L150.12,112.57L150.11,112.61"/><path d="M150.11,112.57L150.12,112.57L150.12,112.57"/><path d="M150.68,112.86L150.71,112.83"/><path d="M150.38,112.75L150.38,112.97L150.42,112.98"/><path d="M150.39,112.97L150.39,112.97"/><path d="M150.57,113.02L150.61,113.03L150.66,113.04"/><path d="M150.61,113.03L150.58,113.02L150.58,112.84"/><path d="M150.61,113.03L150.61,112.81"/><path d="M150.62,113.04L150.63,113.03L150.66,113.04"/><path d="M150.63,112.85L150.63,113.03"/><path d="M150.48,112.82L150.51,112.79"/><path d="M150.13,112.81L150.16,112.84L150.16,112.66"/><path d="M150.16,112.84L150.19,112.87"/><path d="M150.01,112.40L150.01,112.59L150.01,112.43"/><path d="M150.70,113.05L150.77,113.05L150.77,112.83"/><path d="M150.57,113.03L150.58,113.02"/><path d="M150.51,113.01L150.47,113.00"/><path d="M150.47,113.00L150.44,112.99L150.44,112.80"/><path d="M150.44,112.99L150.43,112.99L150.46,113.00"/><path d="M150.43,112.98L150.43,112.99"/><path d="M150.35,112.95L150.38,112.97"/><path d="M150.34,112.95L150.30,112.93L150.30,112.75"/><path d="M150.27,112.91L150.23,112.89"/><path d="M150.08,112.51L150.06,112.55"/><path d="M150.08,112.58L150.08,112.76L150.11,112.78"/><path d="M150.06,112.49L150.04,112.52"/><path d="M150.04,112.69L150.03,112.68L150.03,112.66"/><path d="M150.05,112.46L150.03,112.49"/><path d="M150.02,112.46L150.04,112.43"/><path d="M150.08,112.76L150.06,112.73L150.06,112.72"/><path d="M150.03,112.34L150.01,112.37L150.01,112.56"/><path d="M150.02,112.63L150.01,112.62L150.01,112.59"/><path d="M150.05,112.22L150.05,112.24"/><path d="M150.07,112.20L150.07,112.19"/><path d="M150.01,112.31L150.01,112.33"/><path d="M150.02,112.28L150.02,112.30"/><path d="M150.55,111.54L150.47,111.49L150.44,111.46L150.39,111.41L150.40,111.44L150.50,111.52L150.57,111.55L150.72,111.59L150.88,111.60L151.04,111.58L151.12,111.56L151.19,111.53L151.29,111.46L151.35,111.37L151.36,111.28L151.35,111.26L151.37,111.32L151.33,111.42L151.25,111.50L151.16,111.54L151.07,111.57"/><path d="M150.39,111.41L150.36,111.35L150.36,111.25L150.38,111.22L150.36,111.30L150.37,111.38"/><path d="M150.70,111.58L150.80,111.60L150.96,111.60L151.02,111.58"/><path d="M150.53,111.09L150.42,111.16L150.38,111.22L150.39,111.21L150.48,111.12L150.58,111.07L150.53,111.09"/><path d="M150.30,111.31L150.30,111.30L150.32,111.40L150.40,111.50L150.53,111.57L150.70,111.62L150.88,111.63L151.06,111.61L151.22,111.56L151.30,111.50L151.34,111.48L151.41,111.38L151.42,111.27L151.42,111.30L151.43,111.31L151.45,111.42L151.41,111.52L151.32,111.61L151.18,111.68L151.01,111.72L150.83,111.73L150.65,111.71L150.49,111.66L150.37,111.58L150.29,111.49L150.27,111.38L150.30,111.31L150.30,111.39L150.32,111.49L150.40,111.59L150.53,111.66L150.70,111.71L150.88,111.72L151.06,111.70L151.22,111.64L151.34,111.56L151.41,111.46L151.42,111.30"/><path d="M150.12,112.14L150.12,112.14L150.12,112.15L150.18,112.09L150.14,112.11L150.15,112.11"/><path d="M150.18,112.09L150.21,112.07L150.17,112.09"/><path d="M150.22,112.05L150.21,112.07L150.21,112.06"/><path d="M150.59,111.55L150.64,111.57L150.69,111.58"/><path d="M150.22,111.42L150.26,111.32"/><path d="M150.30,111.30L150.31,111.26"/><path d="M150.58,111.07L150.63,111.06L150.58,111.07"/><path d="M150.67,111.05L150.63,111.06L150.68,111.04L150.70,111.04L150.67,111.05"/><path d="M150.14,112.11L150.14,112.12L150.12,112.14"/><path d="M150.22,111.75L150.22,111.73"/><path d="M150.48,111.08L150.57,111.03L150.68,111.01L150.68,110.88L150.48,110.76"/><path d="M150.68,111.01L150.75,111.00L150.80,110.99L150.80,110.81L150.68,110.88"/><path d="M150.70,111.04L150.84,111.02L151.00,111.03L151.15,111.07L151.19,111.10L151.08,111.05L150.92,111.02L150.76,111.03L150.73,111.03"/><path d="M151.19,152.95L151.33,153.03L151.50,153.08L151.70,153.09L151.88,153.07L152.05,153.01"/><path d="M151.99,152.75L151.93,152.77L151.95,152.78L151.91,152.81L151.81,152.84L151.71,152.86L151.79,152.85L152.01,152.81L152.02,152.80L152.03,152.78L151.99,152.75L152.05,152.73L152.17,152.65L152.20,152.67L152.25,152.67L152.25,152.60"/><path d="M151.71,152.86L151.56,152.85L151.45,152.82L151.40,152.79L151.42,152.77L151.35,152.75L151.32,152.78L151.33,152.80L151.36,152.82L151.40,152.79"/><path d="M151.65,152.86L151.56,152.86L151.36,152.82"/><path d="M150.82,152.43L150.85,152.60L150.97,152.75L151.18,152.87L151.45,152.94L151.75,152.96L152.03,152.91L152.25,152.83L152.28,152.82L152.45,152.68L152.52,152.51"/><path d="M152.18,152.92L152.03,152.98L151.75,153.02L151.45,153.01L151.18,152.93"/><path d="M150.82,152.49L150.82,152.49"/><path d="M151.35,152.75L151.19,152.66L151.11,152.56L151.08,152.48"/><path d="M151.42,152.77L151.50,152.79L151.70,152.81L151.88,152.78L151.93,152.77"/><path d="M151.08,122.12L151.32,122.19L151.72,122.22L152.12,122.17L152.25,122.12"/><path d="M151.50,120.90L152.25,120.97L152.92,120.65L153.30,120.41"/><path d="M151.70,119.82L151.77,119.81L151.86,119.77L151.93,119.73L152.25,119.79L153.14,119.21L153.81,118.89"/><path d="M151.80,113.34L151.75,113.33L151.66,113.30L151.60,113.25L151.57,113.19L151.57,113.16L151.61,113.10L151.68,113.05L151.77,113.02L151.88,113.01L151.98,113.02L152.07,113.05L152.15,113.09L152.20,113.14L152.20,113.19L152.19,113.24L152.13,113.29L152.05,113.33L151.95,113.35L151.85,113.35L151.80,113.34"/><path d="M151.89,113.29L151.76,113.11L151.76,113.14L151.89,113.32L151.89,113.29L151.92,113.27L151.92,113.30L151.89,113.32"/><path d="M151.57,113.19L151.57,113.13L151.61,113.07L151.68,113.03L151.77,113.00L151.88,112.99L151.98,112.99L152.07,113.02L152.15,113.06L152.20,113.12L152.21,113.18L152.20,113.19"/><path d="M151.62,112.16L151.62,112.16L151.61,112.15L151.61,112.16L151.63,112.19L151.64,112.19L151.65,112.21L151.65,112.22L151.65,112.22L151.66,112.24L151.69,112.33L151.69,112.33L151.69,112.33L151.69,112.36L151.69,112.36L151.69,112.36L151.69,112.39L151.69,112.39L151.69,112.39L151.69,112.42L151.68,112.42L151.69,112.42L151.67,112.45L151.68,112.45L151.66,112.48L151.67,112.48L151.65,112.50L151.68,112.51L151.67,112.48"/><path d="M151.67,112.24L151.69,112.27L151.68,112.27"/><path d="M151.66,112.24L151.68,112.24L151.68,112.25"/><path d="M151.65,112.21L151.66,112.22L151.66,112.23L151.65,112.22"/><path d="M151.69,112.30L151.70,112.30L151.71,112.32L151.69,112.30"/><path d="M151.69,112.33L151.71,112.33L151.71,112.36L151.69,112.33"/><path d="M151.69,112.39L151.71,112.39L151.69,112.36"/><path d="M151.69,112.42L151.71,112.42L151.69,112.39"/><path d="M151.67,112.47L151.69,112.48L151.70,112.64L151.70,112.64L151.71,112.57L151.71,112.58"/><path d="M151.65,112.50L151.65,112.50L151.65,112.51L151.62,112.56L151.61,112.56L151.61,112.56L151.57,112.61L151.60,112.62L151.59,112.59"/><path d="M151.64,112.53L151.67,112.54L151.65,112.51"/><path d="M151.60,112.62L151.60,112.81L151.57,112.83L151.57,112.65L151.53,112.64L151.50,112.66L151.43,112.70L151.43,112.74L151.40,112.72L151.43,112.71"/><path d="M151.57,112.61L151.56,112.61L151.56,112.62L151.54,112.64"/><path d="M151.59,112.59L151.62,112.60L151.61,112.56"/><path d="M151.57,112.65L151.56,112.62"/><path d="M151.51,112.66L151.54,112.68L151.53,112.64"/><path d="M151.43,112.74L151.43,112.93L151.43,112.70"/><path d="M151.40,112.72L151.35,112.74L151.35,112.78L151.32,112.76L151.35,112.75"/><path d="M151.47,112.68L151.50,112.70L151.50,112.66"/><path d="M151.39,112.72L151.39,112.94L151.43,112.93"/><path d="M151.36,112.74L151.39,112.76L151.39,112.73"/><path d="M151.35,112.74L151.35,112.96L151.31,112.98L151.31,112.76L151.26,112.77L151.26,112.99L151.30,112.98L151.30,112.80L151.31,112.76"/><path d="M151.35,112.78L151.35,112.96L151.35,112.96"/><path d="M151.35,112.96L151.39,112.94"/><path d="M151.32,112.76L151.31,112.76"/><path d="M151.26,112.77L151.22,112.79L151.21,112.83L151.18,112.80L151.17,112.80L151.16,112.84L151.12,112.81L151.11,112.85L151.08,112.82L151.12,112.81L151.12,113.03L151.13,113.03L151.16,113.02L151.16,112.84"/><path d="M151.26,112.99L151.25,113.00L151.25,112.81L151.23,112.79"/><path d="M151.27,112.99L151.31,112.98L151.30,112.98"/><path d="M151.13,112.81L151.17,112.80L151.17,113.02L151.21,113.01L151.21,112.83"/><path d="M151.13,113.03L151.17,113.02L151.16,113.02"/><path d="M151.22,112.79L151.18,112.80"/><path d="M151.11,112.85L151.11,113.03L151.08,113.04L151.07,113.04L151.07,112.82L151.08,112.82"/><path d="M151.08,113.04L151.12,113.03L151.11,113.03"/><path d="M151.05,113.04L151.03,113.05L151.07,113.04L151.05,113.04L151.05,112.85L151.07,112.82L151.03,112.83L151.05,112.85"/><path d="M151.03,112.83L150.97,112.83L150.95,112.86L150.93,112.84L150.97,112.83"/><path d="M151.02,112.83L151.02,113.04L151.03,113.05"/><path d="M150.97,112.83L150.97,113.05L150.97,113.05L150.92,113.05L150.92,112.83L150.93,112.84"/><path d="M150.92,113.05L150.90,113.05L150.90,112.87L150.92,112.84L150.88,112.84L150.90,112.87"/><path d="M150.93,113.05L150.95,113.05L150.97,113.05"/><path d="M151.02,112.83L151.00,112.86L150.98,112.83"/><path d="M150.95,112.86L150.95,113.05"/><path d="M150.92,112.84L150.92,112.83"/><path d="M150.88,112.84L150.86,112.84L150.84,112.87L150.82,112.84L150.81,112.84"/><path d="M150.79,112.87L150.79,113.05L150.81,113.06L150.82,113.05L150.82,112.83"/><path d="M150.77,113.05L150.79,113.05"/><path d="M150.76,113.05L150.74,113.05L150.72,113.05"/><path d="M150.72,112.83L150.72,113.05"/><path d="M150.74,112.86L150.74,113.05"/><path d="M150.76,112.83L150.72,112.83"/><path d="M151.43,112.92L151.50,112.88L151.57,112.83"/><path d="M151.54,112.86L151.54,112.68"/><path d="M151.27,112.78L151.30,112.80"/><path d="M151.31,112.98L151.31,112.98"/><path d="M151.32,112.98L151.35,112.96"/><path d="M151.22,112.79L151.22,113.01L151.26,113.00"/><path d="M151.22,113.01L151.21,113.01"/><path d="M151.25,112.81L151.26,112.78"/><path d="M150.84,112.87L150.84,113.05L150.86,113.06L150.92,113.06"/><path d="M150.97,113.05L151.00,113.04L151.00,112.86"/><path d="M150.86,112.84L150.82,112.84"/><path d="M151.69,112.36L151.71,112.36L151.71,112.57L151.71,112.42"/><path d="M151.68,112.44L151.70,112.45L151.69,112.42"/><path d="M151.68,112.51L151.68,112.70L151.67,112.71"/><path d="M151.62,112.56L151.65,112.57L151.63,112.54"/><path d="M151.60,112.80L151.65,112.75L151.65,112.57"/><path d="M151.44,112.70L151.47,112.72L151.47,112.69"/><path d="M151.39,112.95L151.39,112.76"/><path d="M151.25,113.00L151.23,113.01"/><path d="M151.18,113.02L151.22,113.01"/><path d="M151.02,113.04L150.98,113.05"/><path d="M151.00,113.04L151.02,113.05"/><path d="M150.90,113.05L150.88,113.06"/><path d="M150.87,113.05L150.87,112.83"/><path d="M150.86,113.06L150.82,113.06L150.84,113.05"/><path d="M150.82,113.05L150.82,113.06"/><path d="M150.81,113.06L150.77,113.05"/><path d="M151.83,113.15L151.80,113.12L151.95,113.15L151.87,113.20L151.83,113.15L151.92,113.17"/><path d="M151.76,113.11L151.79,113.09L152.12,113.16L152.08,113.18L151.98,113.16L151.98,113.19L152.08,113.21L152.08,113.18"/><path d="M151.47,112.90L151.47,112.72"/><path d="M151.70,112.62L151.70,112.45"/><path d="M151.70,112.64L151.69,112.67L151.68,112.68"/><path d="M151.67,112.54L151.67,112.72L151.65,112.74"/><path d="M151.62,112.77L151.62,112.60"/><path d="M151.51,112.88L151.50,112.70"/><path d="M151.68,112.45L151.69,112.48"/><path d="M151.71,112.36L151.71,112.36"/><path d="M151.68,112.27L151.70,112.30"/><path d="M151.69,112.29L151.69,112.27"/><path d="M151.63,112.19L151.64,112.18L151.64,112.19L151.64,112.19"/><path d="M151.71,112.33L151.71,112.32"/><path d="M151.68,112.24L151.66,112.23"/><path d="M151.66,112.22L151.64,112.19"/><path d="M151.64,112.18L151.62,112.16"/><path d="M151.61,112.15L151.60,112.13L151.61,112.15"/><path d="M151.35,111.26L151.35,111.23L151.32,111.20L151.35,111.26"/><path d="M151.27,111.14L151.32,111.20L151.30,111.17L151.23,111.12L151.19,111.10L151.27,111.14"/><path d="M151.56,112.10L151.60,112.13L151.60,112.13L151.59,112.13"/><path d="M152.09,110.71L152.07,110.70L151.31,111.13L151.26,111.08L151.11,111.02L150.93,110.99L150.83,110.99L150.97,110.91L150.80,110.81"/><path d="M151.30,111.12L152.09,110.66"/><path d="M151.31,111.13L151.36,111.17L151.42,111.27"/><path d="M151.56,111.70L151.55,111.67L151.61,111.51L151.76,111.37L151.97,111.27L152.23,111.21L152.51,111.21L152.78,111.25L153.01,111.34L153.17,111.48L153.26,111.63L153.24,111.79L153.14,111.94L152.96,112.07L152.72,112.15L152.44,112.18L152.16,112.16L151.91,112.09L151.71,111.98L151.59,111.83L151.56,111.70L151.61,111.56L151.76,111.42L151.97,111.31L152.23,111.26L152.51,111.25L152.78,111.29L153.01,111.39L153.17,111.52L153.25,111.67"/><path d="M151.50,111.46L151.48,111.35L151.41,111.26"/><path d="M151.36,111.34L151.36,111.30"/><path d="M151.38,111.20L152.16,110.75"/><path d="M151.57,112.10L151.60,112.13"/><path d="M151.50,111.66L152.20,110.73"/><path d="M150.83,110.99L150.80,110.99"/><path d="M152.04,153.02L152.05,153.02"/><path d="M152.25,152.67L152.25,152.67"/><path d="M152.17,152.65L152.23,152.56"/><path d="M152.35,152.47L152.35,152.40L152.27,152.28L152.25,152.27L152.25,152.34"/><path d="M152.25,152.27L152.25,152.12"/><path d="M151.99,152.81L151.95,152.78"/><path d="M152.48,122.04L152.47,122.05"/><path d="M152.25,120.97L152.25,119.79"/><path d="M152.21,119.31L154.66,117.91"/><path d="M153.73,118.70L151.93,119.73"/><path d="M151.84,114.86L154.74,113.19L155.27,117.02L155.27,117.08L152.39,118.73L151.85,114.86L154.73,113.21L155.27,117.08L152.37,118.74L152.37,118.68L151.84,114.86L151.85,114.86"/><path d="M152.81,117.72L152.82,117.71L152.84,117.69L152.85,117.69L152.86,117.69L152.86,117.70L152.80,117.75L152.80,117.77L152.81,117.78L152.83,117.77L152.87,117.74L152.87,117.75L152.89,117.74L152.87,117.68L152.87,117.67L152.84,117.68L152.81,117.70L152.80,117.73L152.81,117.72"/><path d="M152.78,117.80L152.77,117.69L152.78,117.80L152.77,117.81L152.75,117.72L152.73,117.83L152.75,117.72L152.75,117.72"/><path d="M152.77,117.69L152.74,117.71L152.72,117.82L152.67,117.75L152.71,117.81"/><path d="M152.67,117.86L152.66,117.77L152.67,117.86L152.66,117.87L152.64,117.76L152.67,117.75"/><path d="M152.66,117.77L152.71,117.84L152.73,117.83"/><path d="M152.82,117.76L152.82,117.75L152.82,117.74L152.86,117.71L152.86,117.73L152.85,117.75L152.82,117.76"/><path d="M152.39,118.73L152.37,118.72"/><path d="M152.80,117.77L152.80,117.78"/><path d="M152.73,117.78L152.74,117.71"/><path d="M152.64,117.76L152.65,117.84"/><path d="M152.97,117.58L152.95,117.58L152.96,117.62L152.93,117.63L152.90,117.65L152.90,117.69L152.91,117.71L152.93,117.72L152.95,117.70L152.97,117.68L152.97,117.69L152.98,117.68L152.97,117.58L152.98,117.64"/><path d="M152.59,117.21L152.50,117.25L152.59,117.21L152.68,117.15L152.75,117.05L152.68,117.15"/><path d="M152.75,117.05L152.79,116.94L152.75,117.05"/><path d="M152.79,116.94L152.81,116.82L152.81,116.71L152.77,116.62L152.71,116.55L152.77,116.62"/><path d="M152.64,116.93L152.52,116.70L152.48,117.03L152.64,116.93"/><path d="M152.43,117.21L152.37,117.17L152.32,117.09L152.30,117.00L152.31,116.89L152.34,116.79L152.40,116.69L152.47,116.61L152.55,116.57L152.63,116.56L152.70,116.58L152.75,116.64L152.78,116.72L152.79,116.83L152.77,116.93L152.73,117.04L152.67,117.12L152.59,117.18L152.51,117.21L152.43,117.21"/><path d="M152.71,116.55L152.63,116.53L152.55,116.54L152.46,116.59L152.42,116.63L152.45,116.60"/><path d="M152.50,117.25L152.42,117.24L152.35,117.19L152.30,117.11L152.28,117.01L152.29,116.89L152.32,116.78L152.38,116.67L152.42,116.63"/><path d="M152.51,117.21L152.59,117.18"/><path d="M152.26,115.11L152.90,114.74L152.26,115.11L152.23,115.13L152.20,115.18L152.20,115.26L152.33,116.18L152.35,116.23L152.37,116.24L152.39,116.24L152.41,116.23L152.90,115.96L152.41,116.23"/><path d="M152.70,115.47L152.72,115.48L152.76,115.72L152.72,115.80L152.53,115.91L152.48,115.88L152.45,115.64L152.47,115.60L152.44,115.58L152.41,115.34L152.44,115.26L152.63,115.15L152.68,115.19L152.72,115.42L152.70,115.47"/><path d="M152.67,115.45L152.49,115.55L152.45,115.32L152.64,115.21L152.67,115.45"/><path d="M152.71,115.75L152.68,115.51L152.49,115.61L152.53,115.85L152.71,115.75"/><path d="M152.55,116.54L152.63,116.53"/><path d="M152.20,115.25L152.22,115.45"/><path d="M152.21,115.15L152.23,115.13"/><path d="M152.90,114.74L153.57,114.36L152.90,114.74"/><path d="M151.92,113.27L151.89,113.24L151.98,113.19"/><path d="M151.98,113.16L151.88,113.22L151.89,113.24"/><path d="M152.12,113.16L152.12,113.19L152.08,113.21"/><path d="M153.03,120.70L153.08,120.67"/><path d="M153.02,117.66L153.05,117.65L153.08,117.62L153.09,117.60L153.07,117.61L153.06,117.63L153.04,117.64L153.02,117.64L153.02,117.63L153.09,117.59L153.08,117.56L153.06,117.56L153.04,117.57L153.01,117.59L153.00,117.61L153.00,117.64L153.02,117.66"/><path d="M152.91,117.67L152.92,117.65L152.93,117.64L152.95,117.63L152.96,117.64L152.96,117.67L152.94,117.70L152.92,117.70L152.91,117.67"/><path d="M152.91,117.64L152.93,117.63"/><path d="M152.95,117.58L152.96,117.62L152.95,117.62"/><path d="M153.19,117.48L153.19,117.49L153.17,117.50L153.18,117.57L153.16,117.58L153.15,117.51L153.14,117.52L153.14,117.51L153.15,117.50L153.15,117.48L153.16,117.47L153.19,117.45L153.19,117.46L153.17,117.48L153.17,117.49L153.19,117.48"/><path d="M153.22,117.54L153.25,117.53L153.28,117.50L153.29,117.48L153.28,117.45L153.26,117.44L153.24,117.45L153.21,117.48L153.20,117.52L153.22,117.54"/><path d="M153.73,116.54L153.65,116.61L153.73,116.54L153.80,116.45L153.85,116.33L153.87,116.21L153.86,116.10L153.83,116.01L153.77,115.95L153.69,115.92L153.60,115.93L153.51,115.98L153.44,116.06L153.51,115.98L153.54,115.97L153.60,115.93L153.69,115.92"/><path d="M153.65,116.61L153.56,116.64L153.48,116.63L153.41,116.59L153.48,116.63"/><path d="M153.35,117.41L153.33,117.42L153.32,117.44L153.33,117.49L153.31,117.50L153.30,117.42L153.32,117.41L153.32,117.42L153.33,117.40L153.35,117.39L153.35,117.41"/><path d="M153.61,117.33L153.59,117.33L153.57,117.33L153.56,117.31L153.56,117.28L153.60,117.24L153.63,117.23L153.65,117.25L153.65,117.28L153.64,117.31L153.61,117.33"/><path d="M153.68,117.20L153.70,117.19L153.70,117.20L153.68,117.21L153.69,117.25L153.70,117.26L153.71,117.26L153.71,117.27L153.68,117.28L153.68,117.27L153.67,117.22L153.66,117.22L153.66,117.21L153.67,117.21L153.66,117.19L153.68,117.17L153.68,117.20L153.68,117.17"/><path d="M153.55,117.36L153.53,117.25L153.55,117.36L153.53,117.37L153.52,117.28L153.49,117.39L153.48,117.40L153.43,117.33L153.44,117.42L153.42,117.43L153.41,117.32L153.44,117.31L153.48,117.37L153.44,117.31"/><path d="M153.49,117.39L153.52,117.28L153.52,117.28"/><path d="M153.44,117.42L153.43,117.33L153.48,117.40"/><path d="M153.48,117.37L153.49,117.38L153.51,117.27L153.53,117.25"/><path d="M153.71,117.16L153.73,117.16L153.73,117.14L153.71,117.15L153.71,117.16"/><path d="M153.74,117.25L153.73,117.17L153.71,117.18L153.73,117.26L153.74,117.25"/><path d="M153.84,117.14L153.84,117.16L153.83,117.20L153.78,117.22L153.76,117.22L153.75,117.19L153.76,117.16L153.78,117.14L153.81,117.12L153.83,117.13L153.84,117.14"/><path d="M153.91,117.08L153.89,117.09L153.88,117.11L153.88,117.17L153.87,117.18L153.86,117.10L153.87,117.09L153.87,117.10L153.90,117.07L153.92,117.06L153.93,117.07L153.94,117.13L153.93,117.14L153.92,117.09L153.91,117.08"/><path d="M153.04,117.58L153.02,117.60L153.01,117.62L153.07,117.59L153.06,117.57L153.04,117.58"/><path d="M153.42,116.56L153.38,116.49L153.36,116.39L153.37,116.29L153.40,116.18L153.45,116.08L153.52,116.01L153.60,115.96L153.68,115.95L153.75,115.97L153.81,116.03L153.84,116.12L153.85,116.22L153.83,116.33L153.79,116.43L153.72,116.52L153.65,116.58L153.57,116.61L153.49,116.60L153.42,116.56"/><path d="M153.79,117.14L153.78,117.16L153.77,117.18L153.77,117.20L153.78,117.21L153.81,117.20L153.83,117.17L153.82,117.15L153.81,117.14L153.79,117.14"/><path d="M153.24,117.46L153.22,117.48L153.22,117.50L153.22,117.52L153.23,117.53L153.26,117.51L153.27,117.49L153.26,117.46L153.24,117.46"/><path d="M153.58,117.29L153.59,117.32L153.61,117.31L153.63,117.29L153.63,117.26L153.62,117.25L153.60,117.25L153.58,117.27L153.58,117.29"/><path d="M153.63,116.61L153.56,116.64"/><path d="M153.66,117.19L153.67,117.21"/><path d="M153.00,117.64L153.00,117.62"/><path d="M153.35,117.39L153.34,117.39"/><path d="M153.41,116.59L153.36,116.51L153.34,116.40L153.34,116.29L153.38,116.17L153.44,116.06L153.38,116.17"/><path d="M153.50,117.31L153.51,117.27"/><path d="M153.41,117.32L153.42,117.40"/><path d="M153.80,116.45L153.73,116.54"/><path d="M152.90,115.96L153.79,115.45L152.90,115.96"/><path d="M153.10,115.59L153.05,115.55L153.01,115.32L153.03,115.27L153.01,115.26L152.97,115.02L153.01,114.93L153.19,114.83L153.25,114.86L153.28,115.10L153.26,115.14L153.29,115.16L153.32,115.39L153.29,115.48L153.10,115.59"/><path d="M153.23,115.45L153.09,115.53L153.06,115.29L153.24,115.18L153.28,115.42L153.23,115.45"/><path d="M153.63,116.47L153.51,116.23L153.67,116.14L153.63,116.47"/><path d="M153.79,115.45L154.00,115.32L153.79,115.45"/><path d="M154.60,114.98L154.00,115.32L154.60,114.98L154.63,114.96L154.66,114.90L154.67,114.84L154.54,113.90L154.51,113.86L154.49,113.85L154.47,113.85L154.45,113.85L153.57,114.36"/><path d="M153.57,114.93L153.54,114.69L153.58,114.61L153.76,114.50L153.81,114.54L153.85,114.77L153.83,114.82L153.86,114.83L153.89,115.07L153.85,115.15L153.67,115.26L153.61,115.23L153.58,114.99L153.60,114.95L153.57,114.93"/><path d="M153.77,114.56L153.80,114.80L153.62,114.90L153.58,114.67L153.77,114.56"/><path d="M153.84,115.10L153.81,114.86L153.63,114.96L153.66,115.20L153.84,115.10"/><path d="M153.24,115.12L153.05,115.23L153.02,114.99L153.20,114.89L153.24,115.12"/><path d="M153.62,114.33L154.45,113.85"/><path d="M153.36,112.26L153.41,112.24L153.44,112.24L153.46,112.25L153.46,112.23L153.44,112.21L153.41,112.21L153.31,112.26L153.33,112.27L153.36,112.26"/><path d="M153.46,112.31L153.51,112.28L153.54,112.29L153.57,112.30L153.57,112.28L153.56,112.27L153.51,112.26L153.48,112.27L153.40,112.31L153.42,112.33L153.46,112.31"/><path d="M153.57,112.30L153.48,112.36L153.42,112.33"/><path d="M153.37,112.33L153.25,112.26L153.37,112.20L153.43,112.18L153.46,112.19L153.49,112.21L153.50,112.24L153.57,112.24L153.59,112.25L153.62,112.28L153.61,112.30L153.59,112.32L153.47,112.39L153.37,112.33"/><path d="M153.47,112.39L153.47,112.42L153.59,112.35L153.61,112.32L153.62,112.28"/><path d="M153.47,112.42L153.25,112.29L153.25,112.26"/><path d="M153.58,112.15L153.62,112.16L153.70,112.20L153.74,112.25L153.75,112.30L153.76,112.29L153.74,112.23L153.70,112.17L153.62,112.13L153.53,112.10L153.42,112.10L153.32,112.11L153.23,112.14L153.16,112.19L153.12,112.24L153.12,112.31L153.12,112.27L153.16,112.21L153.23,112.17L153.32,112.14L153.42,112.12L153.53,112.13L153.58,112.15"/><path d="M153.75,112.30L153.73,112.35L153.68,112.40L153.60,112.44L153.50,112.46L153.40,112.46L153.30,112.45L153.21,112.41L153.15,112.36L153.12,112.31"/><path d="M153.33,112.27L153.37,112.30L153.46,112.25"/><path d="M153.50,112.24L153.49,112.24L153.50,112.23"/><path d="M154.18,116.92L154.25,116.68L154.18,116.92L154.31,117.08L154.22,117.13L154.12,117.01L154.15,117.18L154.07,117.22L154.02,116.82L154.07,117.22"/><path d="M154.16,116.74L154.09,116.78L154.11,116.91L154.16,116.74L154.82,116.36L154.66,116.45"/><path d="M154.16,116.54L154.32,116.32L154.01,116.76L154.16,116.68L154.25,116.54L154.16,116.68"/><path d="M154.25,116.54L154.35,116.40L154.58,116.43L154.73,116.35L154.40,116.30L154.73,116.35"/><path d="M154.61,117.14L154.67,117.05L154.48,117.33L154.61,117.14"/><path d="M154.35,117.31L154.48,117.33L154.08,117.27L154.35,117.31"/><path d="M154.56,116.78L154.54,116.65L154.58,116.93L154.65,116.89L154.63,116.74L154.66,116.72L154.72,116.85L154.79,116.80L154.72,116.66L154.75,116.62L154.76,116.58L154.76,116.54L154.76,116.58"/><path d="M154.76,116.54L154.75,116.49L154.73,116.47L154.70,116.45L154.67,116.45L154.64,116.46"/><path d="M154.43,116.68L154.47,116.99L154.43,116.68L154.50,116.64L154.49,116.55"/><path d="M154.27,116.67L154.28,116.76L154.35,116.72L154.40,117.03L154.47,116.99"/><path d="M154.35,116.72L154.40,117.03"/><path d="M154.61,116.58L154.62,116.65L154.67,116.62L154.68,116.60L154.68,116.57L154.67,116.55L154.65,116.55L154.61,116.58L154.65,116.55"/><path d="M154.67,117.05L154.80,116.86L154.65,116.95L154.46,117.22L154.59,117.04"/><path d="M154.54,116.65L154.52,116.53"/><path d="M154.23,117.19L154.46,117.22L154.23,117.19L154.08,117.27"/><path d="M154.02,116.82L154.09,116.78"/><path d="M154.35,116.40L154.58,116.43"/><path d="M154.71,116.00L154.62,116.03L154.53,116.03L154.46,115.98L154.42,115.90L154.39,115.80L154.40,115.68L154.44,115.56L154.49,115.46L154.57,115.38L154.66,115.33L154.75,115.31L154.82,115.34L154.88,115.40L154.92,115.50L154.93,115.61L154.91,115.73L154.86,115.84L154.79,115.93L154.71,116.00"/><path d="M154.81,115.59L154.60,115.82L154.57,115.61L154.81,115.59"/><path d="M154.54,115.45L154.51,115.48L154.45,115.57L154.42,115.68L154.42,115.79L154.44,115.88L154.48,115.95L154.55,116.00L154.62,116.00L154.70,115.97L154.78,115.91L154.84,115.83L154.89,115.72L154.90,115.61L154.90,115.51L154.86,115.43L154.81,115.37L154.74,115.34L154.66,115.36L154.58,115.40L154.54,115.45"/><path d="M154.82,116.36L155.15,116.17"/><path d="M154.32,116.32L154.33,116.30L154.40,116.30"/><path d="M154.18,114.90L154.15,114.67L154.16,114.62L154.14,114.61L154.10,114.37L154.14,114.28L154.33,114.18L154.38,114.21L154.41,114.45L154.40,114.49L154.42,114.51L154.46,114.74L154.42,114.83L154.23,114.94L154.18,114.90"/><path d="M154.37,114.47L154.33,114.24L154.15,114.35L154.18,114.58L154.37,114.47"/><path d="M154.41,114.77L154.23,114.88L154.19,114.64L154.38,114.53L154.41,114.77"/><path d="M154.66,115.33L154.57,115.38"/><path d="M154.73,113.21L154.72,113.20"/></g><g style="stroke:#000000;stroke-width:0.529"><path d="M152.25,130.14L152.25,122.12L152.47,122.05L152.58,121.98L152.88,121.78L153.05,121.53L153.07,121.26L153.08,120.67L153.15,120.62L153.30,120.41L153.81,120.07L153.81,118.89L153.73,118.70L154.28,118.39L154.37,118.32L154.47,118.23L154.55,118.12L154.62,118.01L154.66,117.91L155.23,117.58L155.29,117.54L155.32,117.47L155.33,117.38L155.33,116.98L154.78,113.00L154.78,112.55L154.76,112.44L154.72,112.32L154.65,112.20L154.57,112.10L154.47,112.03L152.20,110.73L152.16,110.75L152.09,110.71L152.09,110.66L151.75,110.47L151.35,110.70L151.30,110.72L151.23,110.73L151.17,110.73L151.10,110.72L151.05,110.70L150.82,110.57L150.48,110.76L150.48,111.08L150.43,111.10L150.34,111.19L150.31,111.26L150.26,111.31L150.26,111.32L149.50,111.76L149.45,111.73L149.45,111.59L149.24,111.47L148.90,111.67L148.90,112.09L148.91,112.10L148.73,112.20L148.73,117.97L148.74,118.07L148.79,118.14L149.19,118.38L149.22,118.38L149.24,118.40L149.53,118.57L149.53,119.41L149.59,119.58L149.84,120.15L150.10,120.64L150.26,120.68L150.27,120.69L150.26,121.33L150.32,121.60L150.52,121.84L150.96,122.09L151.08,122.12L151.08,130.14"/><path d="M152.25,134.49L152.25,152.12L152.37,152.19L152.50,152.34L152.52,152.51L152.52,152.58L152.45,152.74L152.28,152.88L152.18,152.92L152.18,152.93L152.04,153.02L151.88,153.08L151.69,153.10L151.51,153.09L151.34,153.04L151.19,152.95L151.18,152.93L150.97,152.82L150.85,152.66L150.82,152.49L150.82,152.42L150.84,152.41L150.87,152.40L150.90,152.41L151.08,152.48L151.08,134.49"/><path d="M152.25,152.60L152.25,152.67L152.27,152.65L152.35,152.53L152.35,152.47L152.27,152.35L152.25,152.34L152.25,152.54L152.23,152.56L152.25,152.60"/></g></g><g id="Actor_.3"><g style="stroke:#000000;stroke-width:0.176"><path d="M150.35,99.00L150.35,99.72L150.46,99.76L150.58,99.80L150.61,99.78L150.75,99.80L150.98,99.80L151.20,99.76L151.39,99.68L151.52,99.58L151.60,99.45L151.60,99.20"/><path d="M150.33,99.00L150.33,99.73L150.35,99.72"/><path d="M151.64,99.45L151.63,99.60L151.54,99.74L151.43,99.82L151.37,99.86L151.15,99.93L150.89,99.96L150.63,99.94L150.40,99.88L150.22,99.77L150.10,99.64L150.07,99.49"/><path d="M150.61,99.78L150.61,98.94"/><path d="M150.26,99.02L150.26,99.68L150.33,99.73"/><path d="M150.26,99.66L150.19,99.61L150.13,99.54L150.13,99.05"/><path d="M150.12,99.36L150.12,99.44L150.13,99.47"/><path d="M150.58,99.80L150.58,98.94"/><path d="M150.20,99.62L150.24,99.69L150.37,99.79L150.56,99.87L150.77,99.91L151.00,99.90L151.22,99.85L151.39,99.77L151.51,99.66L151.55,99.53"/><path d="M150.35,97.90L150.24,97.99L150.32,97.93L150.36,97.90"/><path d="M150.24,97.99L150.19,98.05"/><path d="M150.34,97.90L150.34,97.90L150.34,97.90"/><path d="M151.20,98.79L151.20,99.60L151.20,99.61L151.21,99.62L151.23,99.64L151.23,99.63L151.23,99.61L151.23,98.79"/><path d="M151.23,99.64L151.24,99.64L151.25,99.64L151.26,99.64L151.51,99.49L151.52,99.48L151.54,99.47L151.54,99.46L151.55,99.44L151.55,99.43L151.55,98.71"/><path d="M151.49,98.72L151.49,98.86L151.49,98.86L151.49,98.87L151.48,98.87L151.48,98.88L151.47,98.88L151.29,98.99L151.28,98.99L151.28,98.99L151.29,98.99L151.29,98.99L151.30,98.99L151.48,98.89L151.49,98.88L151.49,98.88L151.49,98.87L151.50,98.87L151.50,98.86L151.50,98.72"/><path d="M151.31,98.77L151.31,98.77L151.31,98.78L151.31,98.95L151.31,98.95L151.31,98.95L151.31,98.95L151.30,98.95L151.30,98.95L151.30,98.94L151.30,98.77"/><path d="M151.28,98.77L151.28,98.98L151.28,98.99"/><path d="M151.31,98.95L151.31,98.95L151.32,98.95L151.37,98.93L151.37,98.92L151.37,98.91L151.38,98.91L151.38,98.85L151.37,98.84L151.37,98.84L151.36,98.84L151.36,98.84L151.37,98.84L151.37,98.84"/><path d="M151.60,98.97L151.60,98.90L151.59,98.83L151.59,98.78L151.59,98.70"/><path d="M151.60,99.45L151.60,99.37"/><path d="M151.56,98.05L151.57,98.08L151.58,98.09L151.60,98.18L151.60,98.23"/><path d="M151.58,98.09L151.58,98.11"/><path d="M151.60,98.18L151.61,98.25L151.60,98.25"/><path d="M151.61,98.25L151.61,98.26"/><path d="M151.55,98.04L152.10,97.73L152.09,97.72L152.09,97.72L152.08,97.71L152.07,97.71L152.06,97.72L151.55,98.01"/><path d="M151.37,98.82L151.36,98.81L151.36,98.81L151.36,98.80L151.36,98.80L151.36,98.79L151.37,98.78L151.37,98.78L151.38,98.77L151.38,98.77L151.39,98.77L151.40,98.78L151.39,98.78L151.39,98.78L151.38,98.78L151.38,98.79L151.37,98.79L151.37,98.80L151.37,98.81L151.37,98.81L151.37,98.82L151.37,98.82L151.38,98.82L151.38,98.82L151.39,98.81L151.39,98.81L151.40,98.80L151.40,98.79L151.40,98.79L151.40,98.78L151.40,98.78"/><path d="M151.40,98.76L151.41,98.76L151.41,98.76L151.42,98.77L151.42,98.79L151.41,98.80L151.41,98.81L151.40,98.83L151.39,98.84L151.39,98.86L151.39,98.86L151.39,98.87L151.39,98.86L151.39,98.86L151.38,98.86L151.39,98.83L151.39,98.82L151.40,98.81L151.41,98.79L151.41,98.78L151.41,98.77L151.41,98.76L151.40,98.76L151.40,98.76L151.39,98.75L151.39,98.75L151.39,98.75"/><path d="M151.40,98.76L151.39,98.75L151.39,98.75"/><path d="M151.36,98.84L151.36,98.83L151.35,98.82L151.35,98.81L151.36,98.80L151.36,98.78L151.37,98.77L151.37,98.76L151.38,98.76L151.38,98.75"/><path d="M151.39,98.87L151.40,98.87L151.40,98.87L151.40,98.87L151.43,98.85L151.44,98.83L151.46,98.80L151.47,98.77L151.47,98.75L151.47,98.73"/><path d="M151.04,97.78L150.83,97.90"/><path d="M151.59,98.12L151.58,98.11"/><path d="M152.08,98.67L151.60,98.95"/><path d="M151.37,98.81L151.37,98.81"/><path d="M151.49,97.77L151.86,97.56L151.87,97.55L151.88,97.55L151.94,97.59L152.00,97.63L152.04,97.68L152.09,97.72"/><path d="M151.63,97.45L151.63,97.45L151.62,97.45L151.62,97.45"/><path d="M151.90,97.56L151.90,97.55L151.89,97.54L151.88,97.54L151.87,97.54L151.86,97.54L151.48,97.75"/><path d="M151.26,97.79L151.78,97.50L151.76,97.49L151.71,97.47L151.66,97.46L151.63,97.45"/><path d="M151.78,97.50L151.79,97.50L151.80,97.49L151.81,97.49L151.88,97.54"/><path d="M151.87,97.35L151.96,97.34L152.11,97.40L152.25,97.51L152.38,97.67L152.48,97.85L152.54,98.04L152.56,98.22L152.52,98.37L152.48,98.42"/><path d="M152.06,97.72L151.88,97.57L151.98,97.63"/><path d="M152.50,97.00L152.59,97.00L152.73,97.06L152.87,97.17L152.95,97.26L152.95,97.24L153.26,97.12"/><path d="M152.50,96.98L152.60,96.99L152.73,97.04L152.86,97.14L152.95,97.24"/><path d="M151.88,97.57L151.86,97.56"/><path d="M152.95,98.15L152.95,98.15L152.98,98.13"/><path d="M153.20,97.86L153.23,97.87L153.26,97.85L153.29,97.83L153.32,97.80L153.35,97.77L153.37,97.73L153.39,97.68L153.39,97.65L153.39,97.62L153.38,97.61L153.36,97.59L153.33,97.58L153.30,97.58L153.27,97.60L153.29,97.60L153.31,97.60L153.33,97.62L153.33,97.64L153.33,97.67L153.32,97.71L153.30,97.74L153.28,97.76L153.26,97.78L153.23,97.79L153.21,97.79L153.19,97.78L153.19,97.76L153.18,97.79L153.18,97.82L153.18,97.84L153.19,97.85L153.20,97.86"/><path d="M152.95,98.15L152.95,98.15"/><path d="M152.95,97.26L153.26,97.14"/><path d="M153.19,97.76L153.19,97.73L153.20,97.70L153.21,97.68L153.24,97.63L153.27,97.60"/></g><g style="stroke:#000000;stroke-width:0.529"><path d="M150.12,99.05L150.12,99.36L150.07,99.49L150.07,100.41L150.10,100.56L150.22,100.69L150.40,100.80L150.63,100.86L150.89,100.88L151.15,100.85L151.37,100.77L151.54,100.66L151.63,100.52L151.64,100.37L151.64,99.45L151.60,99.37L151.60,98.97L152.06,98.70L152.07,98.69L152.08,98.68L152.08,98.67L152.44,98.47L152.48,98.42L152.95,98.15L152.95,98.15L152.98,98.13L153.07,98.08L153.34,97.86L153.41,97.77L153.43,97.62L153.41,97.45L153.34,97.27L153.26,97.14L153.26,97.12L153.15,97.00L153.03,96.91L152.91,96.86L152.80,96.86L152.50,96.98L152.50,97.00L152.39,97.05L151.87,97.35L151.83,97.35L151.64,97.45L151.62,97.45L151.60,97.46L151.04,97.78L150.90,97.77L150.70,97.78L150.51,97.82L150.34,97.90"/><path d="M150.17,98.06L150.21,98.00L150.34,97.90"/><path d="M150.41,97.87L150.34,97.90"/></g></g><g id="Actor_.4"><g style="stroke:#000000;stroke-width:0.176"><path d="M163.98,198.73L163.98,198.56L164.02,198.37L164.12,198.18L164.24,198.01L164.39,197.89"/><path d="M169.35,200.26L169.28,200.11L169.17,200.01L169.03,199.96L168.87,199.98L168.69,200.05L168.51,200.18L168.35,200.35L168.21,200.55L168.10,200.78L168.03,201.01L168.01,201.23L168.03,201.42L168.10,201.57L168.21,201.67L168.35,201.71L168.51,201.70L168.69,201.63L168.81,201.54"/><path d="M168.17,199.63L168.63,199.90L168.35,200.35L167.95,200.74L168.01,201.23L167.95,201.65"/><path d="M167.95,200.74L167.49,200.48L167.49,201.13"/><path d="M167.66,200.20L167.59,200.35L168.06,199.77L167.85,199.95L167.66,200.20"/><path d="M167.59,200.35L167.49,200.48"/><path d="M167.45,200.86L167.45,200.77L167.49,200.63"/><path d="M168.06,199.77L168.08,199.75"/><path d="M169.33,200.72L169.28,200.89L169.23,201.01"/><path d="M169.31,199.96L169.03,199.96L168.63,199.90"/><path d="M168.37,199.65L168.55,199.67"/></g><g style="stroke:#000000;stroke-width:0.529"><path d="M164.88,197.92L164.78,197.86L164.67,197.81L164.53,197.82L164.39,197.89L164.32,197.93L164.20,198.03L164.09,198.17L164.02,198.33L163.98,198.49L163.98,198.73L164.02,198.87L164.12,198.95L164.88,199.39"/><path d="M167.45,200.86L167.45,200.90L167.45,201.03L167.49,201.13L167.49,201.38L167.95,201.65L168.35,201.71L168.63,201.71L168.81,201.54L168.87,201.50L169.03,201.33L169.17,201.12L169.23,201.01L169.31,200.87L169.33,200.72L169.35,200.66L169.37,200.45L169.35,200.26L169.31,199.96L168.85,199.70L168.55,199.67L168.50,199.64L168.37,199.65L168.17,199.63L168.08,199.75"/></g></g><g id="Actor_.5"><g style="stroke:#000000;stroke-width:0.176"><path d="M181.00,63.78L181.41,63.40L181.46,63.37L181.15,63.47"/><path d="M181.46,63.37L181.47,63.37"/><path d="M181.25,63.70L181.33,63.57"/><path d="M183.46,63.28L183.73,63.40L184.33,63.33L184.97,63.00L185.62,62.42L186.21,61.65L186.71,60.74L187.06,59.78L187.24,58.84L187.24,57.99L187.06,57.31L186.71,56.85L186.52,56.77"/></g><g style="stroke:#000000;stroke-width:0.529"><path d="M173.07,64.65L173.09,64.29L173.20,62.75L173.52,61.34L174.05,60.09L174.38,59.38L175.13,58.28L175.70,57.71L176.64,56.82L177.75,56.17L178.49,55.82L179.73,55.41L181.10,55.26L181.85,55.19L183.27,55.29L184.57,55.60"/><path d="M181.15,64.52L181.17,64.28L181.32,63.59L181.33,63.57L181.47,63.37"/><path d="M181.47,63.37L181.50,63.36"/></g></g><g id="Actor_.6"><g style="stroke:#000000;stroke-width:0.176"><path d="M164.39,175.68L164.24,175.80L164.12,175.97L164.02,176.16L163.98,176.35L163.98,176.52"/><path d="M168.81,179.33L168.69,179.41L168.51,179.49L168.35,179.50L168.21,179.46L168.10,179.36L168.03,179.21L167.95,178.53L167.49,178.26L167.49,178.92"/><path d="M167.95,178.53L168.35,178.14L168.21,178.34L168.10,178.57L168.03,178.80L168.01,179.02L167.95,179.44"/><path d="M167.59,178.14L168.06,177.56L167.85,177.74L167.66,177.99L167.59,178.14L167.49,178.26"/><path d="M167.49,178.42L167.45,178.56L167.45,178.65"/><path d="M169.35,178.05L169.28,177.90L169.17,177.79L169.03,177.75L168.87,177.77L168.69,177.84L168.51,177.97L168.35,178.14L168.63,177.68L168.17,177.42"/><path d="M168.06,177.56L168.08,177.54"/><path d="M169.23,178.79L169.28,178.68L169.33,178.51"/><path d="M168.63,177.68L169.03,177.75L169.31,177.75"/><path d="M168.37,177.44L168.55,177.46"/></g><g style="stroke:#000000;stroke-width:0.529"><path d="M165.58,176.11L164.78,175.65L164.67,175.60L164.53,175.61L164.39,175.68L164.32,175.72L164.20,175.82L164.09,175.96L164.02,176.12L163.98,176.28L163.98,176.52L164.02,176.66L164.12,176.74L164.88,177.18"/><path d="M167.45,178.65L167.45,178.69L167.45,178.82L167.49,178.92L167.49,179.17L167.95,179.44L168.35,179.50L168.63,179.50L168.81,179.33L168.87,179.29L169.03,179.11L169.17,178.91L169.23,178.79L169.31,178.66L169.33,178.51L169.35,178.45L169.37,178.24L169.35,178.05L169.31,177.75L168.85,177.48L168.55,177.46L168.50,177.43L168.37,177.44L168.17,177.42L168.08,177.54"/></g></g><g id="Actor_.7"><g style="stroke:#000000;stroke-width:0.176"><path d="M168.30,199.06L167.29,199.63L167.29,199.37L168.73,198.55L168.95,198.68L168.30,199.06"/><path d="M167.29,199.37L167.29,180.13L168.39,179.50"/><path d="M168.95,198.68L168.95,190.29"/><path d="M168.73,198.55L168.73,190.39"/><path d="M168.95,189.23L168.95,179.19"/><path d="M168.73,179.41L168.73,189.34"/></g><g style="stroke:#000000;stroke-width:0.529"><path d="M169.27,177.73L169.27,176.40L169.26,176.34L169.20,176.22L169.14,176.17L169.09,176.14L167.35,175.15L167.29,175.14L167.22,175.17L165.11,176.38L165.04,176.44L164.97,176.51L164.92,176.60L164.89,176.69L164.88,176.78L164.88,201.26L164.89,201.34L164.92,201.39L166.71,202.42L166.78,202.44L166.84,202.44L166.92,202.44L166.97,202.42L168.23,201.69"/><path d="M169.27,200.93L169.26,200.99L169.25,201.05L169.22,201.10L169.18,201.14L169.13,201.18"/><path d="M169.27,190.14L169.27,199.94"/><path d="M169.27,189.09L169.27,178.72"/></g></g><g id="Actor_.8"><g style="stroke:#000000;stroke-width:0.176"><path d="M144.69,29.98L143.58,29.35L142.50,28.32"/><path d="M145.86,30.53L147.40,31.06L149.74,31.48L152.18,31.57L154.58,31.31L156.81,30.74L158.74,29.87L160.24,28.77L160.60,28.32"/><path d="M148.71,34.62L150.71,34.88L152.98,34.83L154.45,34.59"/></g><g style="stroke:#000000;stroke-width:0.529"><path d="M154.45,34.59L155.17,34.47L157.13,33.81L158.74,32.88L159.89,31.76L160.53,30.51L160.60,29.20L160.60,28.32L161.25,27.49L161.69,26.11L161.70,23.26L161.60,22.28L161.49,21.74L161.10,20.79L160.81,20.36L160.16,19.49L159.27,18.69L158.15,18.00L157.83,17.81L156.59,17.26L155.20,16.84L153.71,16.55L152.16,16.42L150.70,16.44L150.58,16.44L149.04,16.61L147.57,16.93L146.22,17.38L145.02,17.97L144.68,18.16L143.62,18.88L142.78,19.70L141.91,21.03L141.58,21.99L141.48,22.52L141.44,23.51L141.44,25.41L141.59,26.81L142.32,28.15L142.50,28.32L142.50,29.53L142.71,30.80"/><path d="M143.21,31.63L143.48,32.06L144.76,33.14L146.47,34.00L148.49,34.59L148.71,34.62"/><path d="M148.71,34.62L148.71,50.21L148.74,50.76L149.09,51.27L149.70,51.68L150.52,51.96L151.45,52.07L152.39,52.00L153.24,51.76L153.91,51.38L154.33,50.89L154.45,50.35L154.45,34.59"/></g></g><g id="Actor_.9"><g style="stroke:#000000;stroke-width:0.176"><path d="M97.88,156.77L98.08,156.93L98.64,157.25L98.63,157.26"/><path d="M98.59,157.29L98.66,157.34"/><path d="M98.60,157.23L98.63,157.29"/><path d="M99.36,156.62L98.51,156.13"/><path d="M98.39,156.03L98.45,156.08"/><path d="M98.39,155.97L98.39,155.96L98.43,156.03"/><path d="M98.42,155.92L98.43,155.91L98.43,156.00"/><path d="M98.46,155.93L98.49,155.87"/><path d="M99.63,156.78L100.96,157.54"/><path d="M99.60,155.41L99.51,155.63L99.51,156.04L99.58,156.45"/><path d="M99.67,154.99L99.65,155.01"/><path d="M114.03,165.03L113.90,165.32L113.76,165.93L100.44,158.28"/><path d="M115.22,163.42L114.68,163.94L114.57,164.09L100.41,155.96L100.22,155.88"/><path d="M100.59,156.19L100.60,156.19"/><path d="M100.42,155.97L100.45,156.17"/><path d="M100.28,155.91L100.18,155.91"/><path d="M100.39,154.93L100.38,154.93"/><path d="M114.34,167.58L114.00,167.25L113.82,166.73L113.81,166.08L113.98,165.36L114.30,164.64L114.76,163.98L115.29,163.46L115.86,163.13L115.94,163.11L116.40,163.01L116.86,163.12"/><path d="M114.84,167.68L114.24,167.34L114.18,167.28L114.14,167.19L114.14,167.08L114.17,166.95L114.23,166.82L114.31,166.70L114.40,166.62L114.51,166.55L114.60,166.53L114.68,166.55L115.90,167.25"/><path d="M113.91,167.15L113.74,166.69L113.74,166.01"/><path d="M116.60,166.51L114.48,165.29L114.40,165.27L114.30,165.29L114.20,165.35L114.10,165.44L114.02,165.56L113.97,165.69L113.94,165.82L113.94,165.93L113.97,166.02L114.03,166.08L115.51,166.93L115.54,167.01L115.60,167.06L115.70,167.12L115.71,167.14"/><path d="M113.76,165.93L113.74,166.00"/><path d="M117.10,165.62L116.73,165.41L116.67,165.35L116.64,165.27L115.16,164.43L115.10,164.37L115.07,164.28L115.07,164.16L115.10,164.03L115.16,163.90L115.21,163.82L115.33,163.70L115.43,163.64L115.50,163.62L115.53,163.62L115.61,163.64L117.39,164.66"/><path d="M114.57,164.09L114.53,164.15"/><path d="M116.29,162.97L115.78,163.08L115.23,163.41"/><path d="M115.91,167.24L115.73,167.15"/><path d="M115.51,166.93L117.96,168.33"/><path d="M117.39,164.65L116.52,164.15L116.46,164.09L116.43,164.00L116.43,163.88L116.46,163.76L116.51,163.63L116.59,163.51L116.69,163.42L116.79,163.36L116.89,163.34L116.97,163.36L117.22,163.51"/><path d="M116.64,165.27L121.29,167.94"/><path d="M119.35,169.13L129.76,175.10L129.90,174.49L130.03,174.21"/><path d="M122.69,168.74L130.58,173.27L130.68,173.12L131.22,172.60"/><path d="M129.91,176.33L129.74,175.87L129.74,175.19"/><path d="M129.76,175.10L129.74,175.18"/><path d="M132.87,172.30L132.40,172.19L131.86,172.30L131.29,172.64L130.90,173.02L130.76,173.16L130.30,173.81L129.98,174.54L129.81,175.26L129.82,175.92L130.00,176.43L130.34,176.76"/><path d="M132.60,175.69L130.48,174.47L130.40,174.45L130.30,174.47L130.20,174.53L130.11,174.62L130.03,174.74L129.97,174.87L129.94,174.99L129.94,175.11L129.97,175.20L130.03,175.26L131.51,176.11L131.54,176.18L131.60,176.24L131.71,176.32L130.69,175.73L130.60,175.71L130.52,175.73L130.41,175.79L130.31,175.88L130.23,176.00L130.18,176.13L130.15,176.25L130.15,176.37L130.18,176.46L130.24,176.52L130.84,176.86"/><path d="M130.58,173.27L130.54,173.33"/><path d="M131.51,176.11L144.36,183.48"/><path d="M131.91,176.42L131.71,176.32"/><path d="M131.90,176.43L131.73,176.33"/><path d="M133.39,173.84L131.61,172.82L131.53,172.80L131.43,172.82L131.33,172.88L131.24,172.97L131.16,173.08L131.10,173.21L131.07,173.34L131.07,173.46L131.10,173.55L131.16,173.61L132.64,174.45L132.67,174.53L132.73,174.59L133.10,174.80"/><path d="M131.23,172.59L131.78,172.26L132.29,172.15"/><path d="M132.64,174.45L137.95,177.50"/><path d="M133.23,172.69L132.97,172.54L132.89,172.52L132.79,172.54L132.69,172.60L132.60,172.69L132.52,172.81L132.46,172.93L132.43,173.06L132.43,173.18L132.46,173.27L132.52,173.33L133.39,173.83"/><path d="M145.21,181.66L139.05,178.13"/><path d="M146.48,188.01L145.95,184.83L144.74,184.13L145.00,185.70"/><path d="M147.89,180.41L147.08,180.53L144.74,184.13"/><path d="M145.95,184.83L148.29,181.22L147.08,180.53"/><path d="M151.38,182.18L150.39,181.61L149.81,181.47L149.14,181.62L148.43,182.04L147.76,182.69L147.19,183.51L146.78,184.41L146.57,185.32L146.58,186.13L146.81,186.78L147.24,187.19L148.22,187.75"/><path d="M151.16,180.79L148.29,181.22"/><path d="M153.93,190.08L153.77,190.52L153.72,190.21L153.09,190.38L153.26,190.32L153.59,190.13L153.83,189.87L153.29,190.10L152.62,190.16L152.05,189.94L151.87,189.86L151.74,189.76L151.58,189.68L151.63,189.96L151.80,190.19L151.94,190.29L152.11,190.37L152.47,190.44L152.87,190.43L153.04,190.39L152.42,190.56L151.46,190.01"/><path d="M152.42,190.56L152.47,190.88L151.72,190.45"/><path d="M151.74,189.76L152.03,189.93"/><path d="M152.47,190.88L153.10,190.71"/><path d="M153.77,190.52L153.14,190.69"/><path d="M153.72,190.21L153.84,189.86L153.83,189.87"/><path d="M153.84,189.86L153.93,189.82L154.06,189.73"/><path d="M153.94,190.05L153.98,189.95"/></g><g style="stroke:#000000;stroke-width:0.529"><path d="M116.31,168.53L114.84,167.68L114.81,167.69L114.34,167.58L114.27,167.54L113.93,167.21L113.91,167.15L98.29,158.19L97.94,157.90L97.78,157.60L97.75,157.50L97.75,157.06L97.88,156.77L97.73,156.64L97.58,156.34L97.54,156.24L97.54,155.90L97.54,155.80L97.73,155.39L98.00,155.11L98.90,154.42L99.31,154.18L99.72,154.04L100.16,154.00L100.64,154.06L101.02,154.21L116.29,162.97L116.32,162.97L116.79,163.08L116.86,163.12L117.20,163.45L117.22,163.51L132.29,172.15L132.33,172.14L132.79,172.26L132.87,172.30L133.21,172.63L133.23,172.69L137.95,175.40"/><path d="M99.00,157.46L98.64,157.25L98.63,157.29L98.66,157.34L98.74,157.40L113.74,166.01L113.74,166.00L100.84,158.60L100.52,158.37L100.44,158.28L99.00,157.46"/><path d="M98.52,156.13L98.51,156.13L98.45,156.08L98.43,156.03L98.43,156.00L98.46,155.93L98.59,155.80L99.48,155.11L99.65,155.01L99.90,154.93L100.17,154.90L100.39,154.93L100.58,155.00L115.23,163.41L115.22,163.41L100.85,155.17L100.55,155.05L100.45,155.02L100.17,155.00L100.05,155.02L99.74,155.19L99.65,155.29L99.60,155.41L99.51,155.44L99.10,155.68L98.52,156.13"/><path d="M99.63,156.78L99.36,156.62L99.58,156.45L99.63,156.78"/><path d="M100.74,157.25L100.90,157.48L100.96,157.54L114.03,165.03L114.23,164.59L114.53,164.15L100.78,156.26L100.60,156.19L100.45,156.17L100.56,156.80L100.62,157.02L100.74,157.25"/><path d="M117.82,168.35L115.90,167.25L115.91,167.24L117.84,168.35"/><path d="M119.47,168.16L116.60,166.51L116.90,166.07L117.10,165.62L121.17,167.96"/><path d="M122.81,167.77L117.39,164.66L117.39,164.65L122.82,167.76"/><path d="M117.70,169.33L129.91,176.33L129.93,176.39L130.27,176.72L130.34,176.76L130.81,176.87L130.84,176.86L144.26,184.56"/><path d="M119.21,169.15L129.74,175.19L129.74,175.18L119.23,169.15"/><path d="M122.56,168.76L130.54,173.33L130.23,173.77L130.03,174.21L120.86,168.96"/><path d="M122.96,167.85L131.22,172.59L131.23,172.59L122.96,167.84"/><path d="M144.34,183.56L131.90,176.43L131.91,176.42L144.34,183.55"/><path d="M144.66,182.61L132.60,175.69L132.91,175.24L133.10,174.80L137.95,177.58"/><path d="M137.95,176.45L133.39,173.84L133.39,173.83L137.95,176.44"/><path d="M138.97,178.17L145.17,181.72"/><path d="M139.97,177.60L145.20,180.60L145.83,180.97L139.96,177.60"/><path d="M146.65,180.38L140.60,176.92"/><path d="M145.00,185.70L145.27,187.32L146.48,188.01L148.22,187.75L151.58,189.68L151.46,190.01L151.51,190.33L151.72,190.45L151.75,190.53L151.99,190.82L152.13,190.91L152.29,190.98L152.67,191.05L153.01,191.03L153.33,190.93L153.66,190.73L153.87,190.50L153.91,190.41L154.00,190.15L154.00,190.06L153.98,189.95L154.06,189.73L154.26,189.60L154.54,189.36L155.10,188.73L155.57,187.99L155.89,187.19L156.06,186.40L156.05,185.61L155.85,185.02L155.81,184.94L155.45,184.53L155.39,184.49L151.38,182.18L151.16,180.79L149.95,180.10L147.89,180.41"/><path d="M144.73,182.46L144.42,182.28L144.37,182.23L144.35,182.16L144.35,182.07L144.37,181.98L144.41,181.88L144.47,181.79L144.55,181.72L144.62,181.67L144.70,181.66L144.76,181.67L145.08,181.86"/></g></g><g id="Actor_.10"><g style="stroke:#000000;stroke-width:0.176"><path d="M137.96,178.75L137.96,175.25L140.60,173.74"/><path d="M138.56,177.35L138.07,177.72L138.56,177.53L138.56,177.45L138.87,177.28L138.87,177.79L140.37,176.93L140.37,174.30L140.22,174.39L140.22,174.48L139.02,175.17L139.02,175.08L138.87,175.17L138.87,177.26L138.56,177.43L138.56,177.35"/><path d="M137.96,175.25L137.95,175.25"/><path d="M139.02,177.17L140.22,176.48L140.22,174.56L139.02,175.26L139.02,177.17"/><path d="M139.44,175.74L139.43,175.67L139.44,175.59L139.47,175.51L139.56,175.30L139.62,175.09L139.68,175.23L139.77,175.34L139.80,175.39L139.81,175.46L139.80,175.54L139.76,175.62L139.71,175.69L139.65,175.75L139.59,175.79L139.53,175.80L139.48,175.78L139.44,175.74"/><path d="M139.56,175.37L139.56,175.37L139.55,175.37L139.55,175.38L139.54,175.38L139.48,175.51L139.47,175.55L139.46,175.59L139.46,175.60L139.46,175.61L139.46,175.61L139.46,175.61L139.47,175.61L139.48,175.61L139.48,175.61L139.49,175.60L139.49,175.59L139.50,175.55L139.51,175.52L139.57,175.40L139.57,175.39L139.57,175.38L139.57,175.38L139.57,175.37L139.56,175.37"/></g><g style="stroke:#000000;stroke-width:0.529"><path d="M137.96,178.75L140.60,177.23L140.60,173.74L140.59,173.73L137.95,175.25L137.95,178.74L137.96,178.75"/></g></g><g id="Actor_.11"><g style="stroke:#000000;stroke-width:0.176"><path d="M137.96,164.33L137.96,160.83L137.95,160.83"/><path d="M138.56,162.06L138.56,162.14L138.87,161.96L138.87,160.75L139.02,160.66L139.02,160.75L139.41,160.52L140.22,160.06L140.22,159.97L140.37,159.88L140.37,162.51L138.87,163.37L138.87,161.98L138.56,162.15L138.56,162.23L138.07,162.43L138.56,162.06"/><path d="M137.96,160.83L140.60,159.31"/><path d="M139.02,161.62L139.02,161.88L140.22,161.18L140.22,160.14L139.02,160.84L139.02,161.62"/><path d="M139.70,160.83L139.68,160.81L139.62,160.66L139.56,160.88L139.47,161.09L139.44,161.17L139.43,161.25L139.44,161.32L139.48,161.36L139.53,161.38L139.59,161.37L139.65,161.33L139.70,161.29L139.71,161.27L139.76,161.20L139.80,161.11L139.81,161.03L139.80,160.97L139.77,160.92L139.70,160.83"/><path d="M139.46,161.17L139.47,161.13L139.48,161.09L139.54,160.97L139.54,160.96L139.55,160.96L139.55,160.95L139.56,160.95L139.56,160.95L139.57,160.95L139.57,160.95L139.57,160.96L139.57,160.97L139.57,160.98L139.51,161.10L139.50,161.13L139.49,161.17L139.49,161.18L139.48,161.19L139.48,161.19L139.47,161.19L139.46,161.19L139.46,161.19L139.46,161.19L139.46,161.18L139.46,161.17"/></g><g style="stroke:#000000;stroke-width:0.529"><path d="M137.95,163.82L137.95,164.32L137.96,164.33L140.60,162.81L140.60,159.31L140.59,159.31L137.95,160.83L137.95,163.82"/></g></g><g id="Actor_.12"><g style="stroke:#000000;stroke-width:0.176"><path d="M181.15,111.05L181.16,111.06"/><path d="M181.14,106.10L181.14,111.31"/></g><g style="stroke:#000000;stroke-width:0.529"><path d="M173.05,71.44L173.05,104.81L173.15,105.15L173.36,105.56L173.67,106.03L174.07,106.56L174.56,107.13L175.11,107.72L175.72,108.31L176.37,108.89L177.04,109.45L177.71,109.97L178.36,110.43L178.98,110.82L179.55,111.13L180.05,111.36L180.47,111.50L180.80,111.53L181.02,111.47L181.14,111.31L181.16,111.06L181.14,106.10L181.14,71.57"/><path d="M173.05,67.32L173.05,67.70"/><path d="M181.14,67.34L181.14,67.77"/></g></g><g id="Actor_.13"><g style="stroke:#000000;stroke-width:0.176"><path d="M186.78,55.27L186.13,55.21L185.39,55.41L184.62,55.88L183.86,56.59L183.16,57.48L182.54,58.52L182.26,59.17L182.06,59.64L181.73,60.78L181.58,61.87L181.62,62.84L181.84,63.65L182.23,64.24L182.77,64.58"/><path d="M183.03,64.60L182.65,64.03L182.43,63.22L182.40,62.25L182.55,61.16L182.87,60.02L183.35,58.90L183.97,57.86L184.51,57.17L184.67,56.96L185.43,56.26L186.20,55.79L186.94,55.59L187.33,55.63"/><path d="M184.14,65.16L183.37,64.78L182.86,63.93L182.69,62.71L182.86,61.24L183.36,59.68L184.13,58.21L185.09,56.98L186.14,56.12L186.88,55.84L187.16,55.73L188.04,55.85"/><path d="M183.40,63.19L183.42,63.29L183.83,63.98L183.98,64.05L184.75,63.95L185.61,63.43L186.44,62.57L187.16,61.45L187.68,60.19L187.96,58.94L187.96,57.83L187.68,56.97L187.35,56.66L187.65,56.70L188.18,57.21L188.46,58.06L188.46,59.17L188.18,60.43L187.66,61.68L186.94,62.80L186.11,63.66L185.25,64.18L184.46,64.29L183.98,64.05"/><path d="M186.73,56.80L186.98,56.83L187.46,57.29L187.71,58.06L187.71,59.07L187.46,60.20L186.99,61.33L186.34,62.34L185.59,63.12L184.81,63.58L184.10,63.68L183.70,63.49"/><path d="M186.90,56.96L187.04,57.09L187.30,57.87L187.30,58.87L187.05,60.00L186.57,61.13L185.92,62.15L185.17,62.93L184.40,63.39L183.95,63.45"/><path d="M187.35,56.66L186.93,56.60L186.50,56.76"/></g><g style="stroke:#000000;stroke-width:0.529"><path d="M181.50,63.36L181.45,63.28L181.28,62.05L181.45,60.58L181.95,59.03L182.72,57.55L183.68,56.32L184.73,55.47L185.75,55.08L186.64,55.20L186.78,55.27L187.32,55.61L187.33,55.63L187.59,55.65L188.04,55.85L188.69,56.47L189.04,57.52L189.04,58.89L188.70,60.42L188.06,61.96L187.18,63.33L186.16,64.39L185.11,65.02L184.14,65.16L183.58,64.95L183.04,64.62L183.03,64.60L182.77,64.58L181.96,64.12L181.50,63.36"/><path d="M183.95,63.45L183.70,63.49L183.53,63.41L183.40,63.19L183.27,62.29L183.41,61.09L183.82,59.82L184.45,58.62L185.24,57.62L186.09,56.92L186.50,56.76L186.73,56.80L186.90,56.96"/></g></g><g id="Actor_.14"><g style="stroke:#000000;stroke-width:0.176"/><g style="stroke:#000000;stroke-width:0.529"><path d="M145.03,185.90L144.91,185.83L144.49,185.42L144.26,184.78L144.25,183.97L144.39,183.37L144.46,183.07L144.86,182.17L145.42,181.36L145.96,180.84L146.09,180.71L146.79,180.30L147.47,180.15L148.04,180.29L148.17,180.36"/></g></g><g id="Actor_.15"><g style="stroke:#000000;stroke-width:0.176"><path d="M182.17,65.33L182.01,66.03L181.57,66.68L180.87,67.25L179.94,67.71L178.85,68.03L177.86,68.17L177.67,68.19L176.44,68.19L175.26,68.01L174.18,67.68L173.27,67.21L172.59,66.63L172.17,65.97L172.03,65.28"/><path d="M182.11,64.21L182.00,64.89L181.30,65.76L180.15,66.46L178.67,66.90L177.02,67.04L175.38,66.87L173.92,66.40L172.81,65.68L172.17,64.80L172.06,63.85"/><path d="M182.08,64.87L182.01,65.17L181.57,65.82L180.87,66.40L179.94,66.86L179.86,66.88L178.85,67.18L177.67,67.34L176.44,67.33L175.26,67.16L174.18,66.82L173.27,66.35L172.59,65.77L172.17,65.12L172.12,64.88"/><path d="M173.10,64.18L173.04,64.32L173.08,64.68L173.60,65.40L173.69,65.45"/><path d="M173.14,63.57L172.99,63.90L173.04,64.32"/><path d="M180.08,65.73L180.09,65.73"/><path d="M180.73,65.20L180.53,65.46L180.50,65.48"/><path d="M181.13,64.55L181.10,64.75L180.90,65.00"/><path d="M181.21,64.06L181.17,64.34L181.16,64.33"/><path d="M181.17,64.34L181.16,64.39"/></g><g style="stroke:#000000;stroke-width:0.529"><path d="M173.32,62.22L172.49,62.92L172.06,63.85L172.03,64.42L172.12,64.88L172.03,65.28L172.17,66.29L172.81,67.17L173.92,67.88L175.38,68.35L177.02,68.53L178.67,68.38L180.15,67.94L181.30,67.25L182.00,66.38L182.16,65.42L182.17,65.33L182.08,64.87L182.17,64.47L182.17,64.24"/><path d="M176.47,66.44L175.70,66.36L174.51,65.98L173.69,65.45"/><path d="M177.49,66.46L177.04,66.50L176.51,66.45"/><path d="M180.08,65.73L179.59,66.03L178.38,66.39L177.68,66.45"/><path d="M180.33,65.58L180.50,65.48"/></g></g><g id="Actor_.16"><g style="stroke:#000000;stroke-width:0.176"><path d="M178.05,73.58L178.05,72.71L168.09,68.08"/><path d="M173.10,67.89L173.11,68.01"/><path d="M173.04,67.31L173.05,67.43"/><path d="M178.05,72.71L186.11,67.00"/><path d="M181.16,67.33L181.18,67.39L181.14,67.61"/><path d="M181.07,68.00L181.10,67.87"/></g><g style="stroke:#000000;stroke-width:0.529"><path d="M169.42,67.15L168.09,68.08L168.09,68.96L178.05,73.58L186.11,67.87L186.11,67.00L184.89,66.43"/><path d="M172.03,65.29L169.89,66.81"/><path d="M173.97,69.00L173.64,68.79L173.45,68.53"/><path d="M173.11,68.01L173.12,68.07L173.24,68.24"/><path d="M174.97,69.51L174.53,69.36L174.21,69.15"/><path d="M175.27,69.61L175.70,69.74L176.20,69.80"/><path d="M176.54,69.84L177.02,69.89L177.53,69.84"/><path d="M178.81,69.64L178.35,69.77L177.87,69.82"/><path d="M179.90,69.21L179.55,69.42L179.12,69.55"/><path d="M180.69,68.60L180.48,68.86L180.14,69.07"/><path d="M181.07,68.00L181.05,68.16L180.84,68.42"/><path d="M183.81,65.93L182.14,65.15"/></g></g><g id="Actor_.17"><g style="stroke:#000000;stroke-width:0.176"><path d="M184.39,70.76L184.24,70.84L184.06,70.90L183.85,70.92L183.70,70.90L183.64,70.89L183.46,70.83"/><path d="M183.03,67.41L183.69,67.71L183.69,67.18L183.25,66.91L183.08,66.80L182.96,66.68L182.90,66.54L182.91,66.39L182.98,66.26L183.11,66.13L183.24,66.06"/><path d="M183.69,67.18L184.20,66.99L183.96,67.03L183.71,67.02L183.47,66.98L183.25,66.91L182.82,66.78"/><path d="M183.69,67.71L184.51,67.53"/><path d="M183.57,67.66L183.53,67.65L183.25,67.56L183.22,67.54"/><path d="M184.72,67.48L184.72,66.95L184.81,66.57L184.74,66.70L184.61,66.83L184.42,66.93L184.20,66.99L184.72,66.95"/><path d="M183.81,67.68L183.84,67.69L184.15,67.66L184.43,67.58L184.50,67.54"/><path d="M184.81,67.17L184.77,67.30"/><path d="M184.64,66.16L184.76,66.28L184.81,66.42L184.81,66.57L184.89,66.32"/><path d="M184.17,65.96L184.01,65.93L183.89,65.93"/></g><g style="stroke:#000000;stroke-width:0.529"><path d="M184.39,70.76L184.18,70.88L184.02,70.93L183.85,70.94L183.67,70.92L183.52,70.87L183.46,70.83L183.32,70.74L183.24,70.63L183.22,70.51L183.22,70.10"/><path d="M184.50,67.54L184.51,67.53L184.72,67.48L184.77,67.30L184.79,67.28L184.81,67.17L184.89,66.85L184.89,66.32L184.67,66.18L184.64,66.16L184.46,66.05L184.25,65.98L184.17,65.96L184.03,65.92L183.89,65.93L183.76,65.93L183.51,65.96L183.30,66.03L183.24,66.06L183.00,66.15L182.91,66.39L182.82,66.78L182.82,67.31L183.03,67.41L183.04,67.43L183.22,67.54"/><path d="M184.50,69.19L184.50,70.53L184.48,70.65L184.39,70.76"/></g></g><g id="Actor_.18"><g style="stroke:#000000;stroke-width:0.176"><path d="M149.87,161.90L149.28,160.98L149.08,159.67L149.28,158.14L149.87,156.53L150.79,155.03L151.92,153.80L153.16,152.97L154.37,152.64L155.41,152.83"/></g><g style="stroke:#000000;stroke-width:0.529"><path d="M149.60,161.48L149.27,160.97L149.07,159.67L149.27,158.13L149.87,156.53L150.78,155.03L151.92,153.80L153.16,152.97L154.36,152.63L155.40,152.82L155.41,152.83L156.17,153.52L156.57,154.65L156.63,155.34L156.57,156.09L156.17,157.69L155.41,159.26L154.37,160.64L153.16,161.69L151.92,162.28L150.79,162.35L149.87,161.90L149.60,161.48"/></g></g><g id="Actor_.19"><g style="stroke:#000000;stroke-width:0.176"><path d="M186.11,67.87L178.05,73.58L168.09,68.96"/><path d="M178.05,73.76L178.05,73.58"/></g><g style="stroke:#000000;stroke-width:0.529"><path d="M186.11,67.87L186.11,68.05L178.05,73.76L168.09,69.13L168.09,68.96"/></g></g><g id="Actor_.20"><g style="stroke:#000000;stroke-width:0.176"><path d="M169.73,66.88L169.60,66.95L169.47,67.07L169.40,67.21L169.39,67.35L169.45,67.49L169.57,67.62L169.74,67.72L169.95,67.80L170.20,67.84L170.45,67.84L170.69,67.81L170.91,67.74L171.09,67.64L171.23,67.52L171.30,67.38L171.21,67.76L170.69,67.81L170.17,67.99L169.74,67.72L169.31,67.59"/><path d="M169.94,71.65L170.13,71.71L170.33,71.73L170.54,71.71L170.73,71.66L170.88,71.57"/><path d="M171.00,68.34L170.17,68.53L170.17,67.99"/><path d="M169.52,68.22L170.06,68.47L170.02,68.47L169.74,68.38L169.71,68.36"/><path d="M170.98,68.35L170.92,68.39L170.64,68.47L170.33,68.50L170.30,68.50"/><path d="M170.06,68.47L170.17,68.53"/><path d="M170.38,66.75L170.50,66.75L170.66,66.78"/><path d="M171.21,68.30L171.21,67.76"/><path d="M171.12,66.97L171.24,67.10L171.30,67.24L171.30,67.38L171.38,67.14"/><path d="M171.26,68.11L171.30,67.98"/></g><g style="stroke:#000000;stroke-width:0.529"><path d="M169.71,68.36L169.53,68.24L169.52,68.22L169.31,68.12L169.31,67.59L169.40,67.21L169.48,66.96L169.73,66.88L169.78,66.85L170.00,66.78L170.24,66.75L170.38,66.75L170.52,66.74L170.66,66.78L170.74,66.79L170.95,66.87L171.12,66.97L171.16,67.00L171.38,67.14L171.38,67.67L171.30,67.98L171.27,68.09L171.26,68.11L171.21,68.30L171.00,68.34L170.98,68.35"/><path d="M169.71,69.88L169.71,71.33L169.72,71.45L169.80,71.56L169.94,71.65L170.01,71.69L170.16,71.74L170.34,71.76L170.51,71.74L170.67,71.69L170.87,71.57"/><path d="M170.88,71.57L170.96,71.46L170.99,71.34L170.98,70.48"/></g></g><g><g><path style="stroke:#000000;stroke-width:0.125;stroke-dasharray:3.1 2.1 1.0 2.1" d="M150.86,100.88L150.86,111.31"/></g></g><g><g><path style="stroke:#000000;stroke-width:0.125;stroke-dasharray:3.1 2.1 1.0 2.1" d="M135.52,181.81L164.08,198.20"/></g></g><g><g><path style="stroke:#000000;stroke-width:0.125;stroke-dasharray:3.1 2.1 1.0 2.1" d="M135.52,159.60L164.08,175.98"/></g></g><g id="PMI.0"><g><path style="stroke:#000000;stroke-width:0.125" d="M82.42,56.33L147.24,29.44"/></g><g><path style="fill:#000000" d="M147.99,29.44L147.98,29.37L147.97,29.29L147.95,29.22L147.93,29.15L147.90,29.09L147.86,29.02L147.82,28.96L147.77,28.91L147.71,28.86L147.65,28.82L147.59,28.78L147.52,28.75L147.45,28.72L147.38,28.70L147.31,28.69L147.24,28.69L147.16,28.69L147.09,28.70L147.02,28.72L146.95,28.75L146.88,28.78L146.82,28.82L146.76,28.86L146.71,28.91L146.66,28.96L146.61,29.02L146.58,29.09L146.54,29.15L146.52,29.22L146.50,29.29L146.49,29.37L146.49,29.44L146.49,29.51L146.50,29.59L146.52,29.66L146.54,29.73L146.58,29.79L146.61,29.86L146.66,29.92L146.71,29.97L146.76,30.02L146.82,30.06L146.88,30.10L146.95,30.13L147.02,30.16L147.09,30.18L147.16,30.19L147.24,30.19L147.31,30.19L147.38,30.18L147.45,30.16L147.52,30.13L147.59,30.10L147.65,30.06L147.71,30.02L147.77,29.97L147.82,29.92L147.86,29.86L147.90,29.79L147.93,29.73L147.95,29.66L147.97,29.59L147.98,29.51z"/></g><g><text xml:space="preserve" fill="#000000" stroke-width="0" x="66.84" y="60.79" font-size="3.79" opacity="1.00" font-family="Arial">HHZ0237</text></g></g><g id="PMI.1"><g><path style="stroke:#000000;stroke-width:0.125" d="M83.81,172.82L123.00,168.22"/></g><g><path style="fill:#000000" d="M123.75,168.22L123.75,168.15L123.74,168.08L123.72,168.01L123.69,167.94L123.66,167.87L123.62,167.81L123.58,167.75L123.53,167.69L123.48,167.64L123.42,167.60L123.35,167.56L123.29,167.53L123.22,167.51L123.15,167.49L123.07,167.48L123.00,167.47L122.93,167.48L122.85,167.49L122.78,167.51L122.71,167.53L122.65,167.56L122.58,167.60L122.52,167.64L122.47,167.69L122.42,167.75L122.38,167.81L122.34,167.87L122.31,167.94L122.28,168.01L122.26,168.08L122.25,168.15L122.25,168.22L122.25,168.30L122.26,168.37L122.28,168.44L122.31,168.51L122.34,168.58L122.38,168.64L122.42,168.70L122.47,168.75L122.52,168.80L122.58,168.85L122.65,168.89L122.71,168.92L122.78,168.94L122.85,168.96L122.93,168.97L123.00,168.97L123.07,168.97L123.15,168.96L123.22,168.94L123.29,168.92L123.35,168.89L123.42,168.85L123.48,168.80L123.53,168.75L123.58,168.70L123.62,168.64L123.66,168.58L123.69,168.51L123.72,168.44L123.74,168.37L123.75,168.30z"/></g><g><text xml:space="preserve" fill="#000000" stroke-width="0" x="66.84" y="175.22" font-size="3.79" opacity="1.00" font-family="Arial">HHZ0241</text></g></g><g><g/><g><text xml:space="preserve" fill="#000000" stroke-width="0" x="4.42" y="6.69" font-size="4.53" opacity="1.00" font-family="Arial" font-weight="bold">BPA23627</text></g></g><g id="PMI.2"><g><path style="stroke:#000000;stroke-width:0.125" d="M210.96,110.39L152.40,132.24"/></g><g><path style="fill:#000000" d="M153.15,132.24L153.15,132.16L153.14,132.09L153.12,132.02L153.10,131.95L153.06,131.88L153.03,131.82L152.98,131.76L152.93,131.71L152.88,131.66L152.82,131.61L152.76,131.57L152.69,131.54L152.62,131.52L152.55,131.50L152.48,131.49L152.40,131.49L152.33,131.49L152.26,131.50L152.19,131.52L152.12,131.54L152.05,131.57L151.99,131.61L151.93,131.66L151.87,131.71L151.82,131.76L151.78,131.82L151.74,131.88L151.71,131.95L151.69,132.02L151.67,132.09L151.66,132.16L151.65,132.24L151.66,132.31L151.67,132.38L151.69,132.45L151.71,132.52L151.74,132.59L151.78,132.65L151.82,132.71L151.87,132.77L151.93,132.82L151.99,132.86L152.05,132.90L152.12,132.93L152.19,132.95L152.26,132.97L152.33,132.98L152.40,132.99L152.48,132.98L152.55,132.97L152.62,132.95L152.69,132.93L152.76,132.90L152.82,132.86L152.88,132.82L152.93,132.77L152.98,132.71L153.03,132.65L153.06,132.59L153.10,132.52L153.12,132.45L153.14,132.38L153.15,132.31z"/></g><g><text xml:space="preserve" fill="#000000" stroke-width="0" x="211.18" y="108.64" font-size="3.79" opacity="1.00" font-family="Arial">HHZ0240</text></g></g><g id="PMI.3"><g><path style="stroke:#000000;stroke-width:0.125" d="M83.87,114.53L151.59,98.21"/></g><g><path style="fill:#000000" d="M152.34,98.21L152.34,98.13L152.33,98.06L152.31,97.99L152.29,97.92L152.25,97.85L152.22,97.79L152.17,97.73L152.12,97.68L152.07,97.63L152.01,97.58L151.95,97.55L151.88,97.51L151.81,97.49L151.74,97.47L151.67,97.46L151.59,97.46L151.52,97.46L151.45,97.47L151.38,97.49L151.31,97.51L151.24,97.55L151.18,97.58L151.12,97.63L151.06,97.68L151.01,97.73L150.97,97.79L150.93,97.85L150.90,97.92L150.88,97.99L150.86,98.06L150.85,98.13L150.84,98.21L150.85,98.28L150.86,98.35L150.88,98.42L150.90,98.49L150.93,98.56L150.97,98.62L151.01,98.68L151.06,98.74L151.12,98.79L151.18,98.83L151.24,98.87L151.31,98.90L151.38,98.92L151.45,98.94L151.52,98.95L151.59,98.96L151.67,98.95L151.74,98.94L151.81,98.92L151.88,98.90L151.95,98.87L152.01,98.83L152.07,98.79L152.12,98.74L152.17,98.68L152.22,98.62L152.25,98.56L152.29,98.49L152.31,98.42L152.33,98.35L152.34,98.28z"/></g><g><text xml:space="preserve" fill="#000000" stroke-width="0" x="67.10" y="118.00" font-size="3.79" opacity="1.00" font-family="Arial">EGL0026</text></g></g><g id="PMI.4"><g><path style="stroke:#000000;stroke-width:0.125" d="M212.61,169.42L168.18,190.12"/></g><g><path style="fill:#000000" d="M168.93,190.12L168.92,190.05L168.91,189.98L168.89,189.91L168.87,189.84L168.84,189.77L168.80,189.71L168.76,189.65L168.71,189.59L168.65,189.54L168.59,189.50L168.53,189.46L168.46,189.43L168.39,189.41L168.32,189.39L168.25,189.38L168.18,189.37L168.10,189.38L168.03,189.39L167.96,189.41L167.89,189.43L167.82,189.46L167.76,189.50L167.70,189.54L167.65,189.59L167.60,189.65L167.55,189.71L167.52,189.77L167.48,189.84L167.46,189.91L167.44,189.98L167.43,190.05L167.43,190.12L167.43,190.20L167.44,190.27L167.46,190.34L167.48,190.41L167.52,190.48L167.55,190.54L167.60,190.60L167.65,190.65L167.70,190.70L167.76,190.75L167.82,190.78L167.89,190.82L167.96,190.84L168.03,190.86L168.10,190.87L168.18,190.87L168.25,190.87L168.32,190.86L168.39,190.84L168.46,190.82L168.53,190.78L168.59,190.75L168.65,190.70L168.71,190.65L168.76,190.60L168.80,190.54L168.84,190.48L168.87,190.41L168.89,190.34L168.91,190.27L168.92,190.20z"/></g><g><text xml:space="preserve" fill="#000000" stroke-width="0" x="211.18" y="167.68" font-size="3.79" opacity="1.00" font-family="Arial">HHZ0242</text></g></g><g/><g id="paperID" visibility="hidden" opacity="0.00" transform="scale(0.000100)"><path style="stroke:#000000;stroke-width:0.500;fill:#e6e6e6;fill-rule:evenodd" d="M-2000.00,-2000.00L2297.00,-2000.00L2297.00,2210.00L-2000.00,2210.00zM0.00,0.00L297.00,0.00L297.00,210.00L0.00,210.00z"/><path style="fill:#000000;fill-opacity:0.118" d="M3.00,210.00L297.00,210.00L297.00,3.00L300.00,3.00L300.00,213.00L3.00,213.00z"/></g><g id="hotspot.0" onmouseover="ShowHotSpot(evt,'0')" onmouseout="HideHotSpot(evt,'0')" onmousemove="ShowToolTip(evt,'0',&quot;Hotspot 1&quot;)" opacity="0"><a xlink:href=".\HHZ0237.svg"><path style="fill:#ff8000;fill-rule:evenodd" d="M155.18,16.72L158.30,18.03L160.09,19.36L161.16,20.89L161.67,22.72L161.68,26.18L160.91,27.75L160.39,30.88L159.10,32.45L157.55,33.50L154.64,34.49L154.41,50.64L154.15,51.16L152.76,51.86L150.48,51.86L148.93,51.06L148.67,34.68L145.82,33.63L143.74,32.32L143.20,31.57L142.35,31.33L142.66,31.10L142.44,28.16L141.64,26.89L141.63,21.74L142.61,19.85L143.99,18.64L145.55,17.59L149.37,16.47L153.61,16.47zM80.79,59.13L81.08,61.30L80.71,61.72L79.49,61.73L79.21,61.44L79.14,60.93L79.47,60.90L79.78,61.19L80.47,61.21L80.56,60.92L79.91,60.48L80.02,60.03L80.31,59.70L80.29,59.37L79.96,59.34L79.63,59.64L79.14,59.74L79.21,59.23L79.67,58.83L80.28,58.83zM78.71,59.13L78.73,60.27L77.82,61.20L78.75,61.49L78.76,61.78L77.04,61.80L77.15,61.04L78.23,59.99L78.20,59.37L77.87,59.34L77.55,59.64L77.06,59.74L77.13,59.23L77.59,58.83L78.20,58.83zM76.65,59.37L76.65,61.30L76.29,61.72L75.06,61.74L75.07,59.21L75.51,58.83L76.11,58.83zM72.60,59.19L72.60,58.89L74.58,58.87L74.58,59.46L73.14,61.20L74.60,61.49L74.60,61.79L72.36,61.80L72.47,61.04L73.80,59.46zM81.19,59.44L81.18,59.15L83.16,59.13L83.18,59.45L82.92,59.76L82.06,61.84L81.76,61.85L81.82,60.75L82.11,59.65zM70.56,60.01L71.44,60.01L71.63,58.82L71.93,58.82L71.93,61.85L71.63,61.86L71.44,60.67L70.56,60.67L70.38,61.84L69.80,61.84L69.80,58.83L70.38,58.83zM67.69,60.00L68.85,60.00L69.03,58.82L69.33,58.82L69.33,61.85L69.03,61.86L68.85,60.67L67.69,60.67L67.51,61.86L67.21,61.85L67.21,58.82L67.51,58.82zM76.13,59.60L76.02,61.23L75.60,61.23L75.60,59.44L75.89,59.35z"/></a></g></g></svg>
