<?xml version="1.0" encoding="UTF-8" standalone="no"?>
<svg xmlns="http://www.w3.org/2000/svg" xmlns:xlink="http://www.w3.org/1999/xlink" width="297.000mm" height="210.000mm" viewBox="0.000000 0.000000 297.000000 210.000000" stroke-linejoin="round" stroke-linecap="round" fill="none" fill-rule="evenodd"><desc>Composer Export</desc><script type="text/ecmascript"><![CDATA[
if(typeof(top) != "undefined")
{
	top.ShowPaper = ShowPaper;
}
function ShowHotSpot(evt,hotspotid)
{
	var svgDocument = evt.target.ownerDocument;
	var strId = "hotspot."+hotspotid;
	var hotspot = svgDocument.getElementById(strId);
	if(hotspot)
		hotspot.setAttribute("opacity",".5");
}
function HideHotSpot(evt,hotspotid)
{
	var svgDocument = evt.target.ownerDocument;
	var strId = "hotspot."+hotspotid;
	var hotspot = svgDocument.getElementById(strId);
	if(hotspot)
		hotspot.setAttribute("opacity","0");

	var toolTip = svgDocument.getElementById('ToolTip');
	if(toolTip)
		toolTip.setAttribute("visibility","hidden");
}
function ShowToolTip(evt,hotspotid,strTooltip)
{
	if(strTooltip=="")
	return;

	// change text
	var svgDocument = evt.target.ownerDocument;
	var tiptext = svgDocument.getElementById('ToolTipText');
	if( !tiptext )
	return;
	tiptext.firstChild.nodeValue = " " + strTooltip + "  " ;

	// show tooltip before, else some refresh issue

	var toolTip = svgDocument.getElementById('ToolTip');
	if(!toolTip)
	return;

	toolTip.setAttribute("visibility","visible");
	toolTip.setAttribute("opacity",".95");

	// move tooltip
	// get viewbox

	var root = svgDocument.documentElement;
	var vbox = (root.getAttribute("viewBox")).split(' ');
	var x0 = parseFloat(vbox[0]);
	var y0 = parseFloat(vbox[1]);
	var vboxW = parseFloat(vbox[2]);
	var vboxH = parseFloat(vbox[3]);

	// get default width of svg

	var strW = root.getAttribute("width");
	var svgW = parseFloat(strW);
	if(strW.indexOf('mm') != -1)
	svgW *= 3.779;

	var strH = root.getAttribute("height");
	var svgH = parseFloat(strH);
	if(strH.indexOf('mm') != -1)
	svgH *= 3.779;  	// 96 dpi  -> 96/25.4 = 3.779

	// update the viewbox / width / height if svg is embedded in html with zoom fit all
	var realx0 = x0;
	var realy0 = y0;
	var realvboxW = vboxW;
	var realvboxH = vboxH;
	var realsvgW = svgW;
	var realsvgH = svgH;

	if ((typeof(top) == "undefined") || (typeof(top.svgctl1) != "undefined")) // embedded in html
	{
		// get window size in pxl

		svgW = window.innerWidth;
		svgH = window.innerHeight;

		// calculate real viewbox

		realsvgW = svgW;
		realsvgH = svgH;
		if((svgW / svgH) > (vboxW / vboxH))
		{
			realvboxW = (vboxH * svgW) / svgH;
			realvboxH = vboxH;
			realx0 = x0 - (realvboxW - vboxW)/2 ;
		}
		else
		{
			realvboxH = (vboxW * svgH) / svgW;
			realvboxW = vboxW;
			realy0 = y0 - (realvboxH - vboxH)/2 ;
		}
	}

	// get user zoom/pan

	var newScale = root.currentScale;
	var translation = root.currentTranslate;

	// transform pxl to user unit

	var xPos = (((evt.clientX+10- translation.x)/newScale) * realvboxW)/realsvgW  + realx0 ;
	var yPos = (((evt.clientY+5- translation.y)/newScale) * realvboxH)/ realsvgH  + realy0 ;
	var scaleForWidth = ( (1 / newScale) * realvboxH) / realsvgH;

	// move tooltip

	toolTip.setAttribute("transform", "translate(" + xPos + "," + yPos + ")" );

	// resize tooltip

	var fontsize = 12;
	tiptext.setAttribute("font-size",fontsize*scaleForWidth);
	tiptext.setAttribute("y", fontsize*scaleForWidth);
	var tipBG = svgDocument.getElementById('ToolTipBG');
	var outline = tiptext.getBBox();
	if(tipBG)
	{
		tipBG.setAttribute("stroke-width", 1*scaleForWidth);
		tipBG.setAttribute("width", Number(outline.width) );
		tipBG.setAttribute("height", Number(outline.height) + fontsize*.5*scaleForWidth );
	}
	var ToolTipShadow = svgDocument.getElementById('ToolTipShadow');
	if(ToolTipShadow)
	{
		ToolTipShadow.setAttribute("width", Number(outline.width) );
		ToolTipShadow.setAttribute("height", Number(outline.height) + fontsize*.5*scaleForWidth );
		ToolTipShadow.setAttribute("x", 3*scaleForWidth);
		ToolTipShadow.setAttribute("y", 3*scaleForWidth);
	}
}
function ShowPaper()
{
  var svgDocument = getDocument();
  var paper = svgDocument.getElementById("paperID");
  if(paper)
  {
    paper.setAttribute("transform","scale(1)");
    paper.setAttribute("opacity","1");
    paper.setAttribute("visibility","visible");
  }
  var svg = svgDocument.getRootElement();
  if(svg)
  {
    svg.setAttribute("width","307.000mm");
    svg.setAttribute("height","220.000mm");
    svg.setAttribute("viewBox","-5.000000 -5.000000 307.000000 220.000000");
  }
}
]]></script><defs/><g><path style="fill:#000000;fill-opacity:0.098;fill-rule:evenodd" d="M31.53,50.16L30.81,53.64L30.81,57.42L30.98,58.34L31.35,59.43L32.46,61.24L34.28,62.35L35.92,62.90L38.05,62.90L39.94,62.41L42.42,61.05L44.52,59.32L46.03,57.90L45.98,58.21L44.80,59.41L42.52,61.33L40.67,62.41L38.47,63.31L36.96,63.63L35.37,63.63L34.27,63.46L32.28,62.52L30.82,61.05L30.25,60.17L30.26,54.55L30.98,51.07L32.02,48.10L33.12,45.90L33.24,45.85zM104.97,61.80L106.61,62.35L107.52,62.91L106.98,62.90L104.23,62.35L101.62,62.35L99.24,62.89L97.11,63.87L94.73,65.32L92.91,66.79L91.65,67.90L89.55,70.19L87.64,72.66L85.97,75.37L83.96,79.39L82.63,83.36L81.95,86.88L81.95,92.30L82.30,93.96L82.67,94.51L83.59,95.05L83.78,95.77L84.16,96.12L84.72,96.37L84.33,93.95L84.28,89.21L84.39,89.14L84.51,93.58L84.69,94.87L85.06,96.32L87.24,97.61L87.56,98.38L88.74,98.92L88.34,96.50L88.34,91.45L89.06,87.60L90.53,83.22L92.85,78.60L95.30,75.03L97.04,72.93L98.32,71.47L99.50,70.46L101.62,68.75L104.18,67.10L107.46,65.82L109.47,65.45L111.36,65.45L113.01,65.81L114.48,66.54L113.91,66.56L113.18,66.37L110.94,66.37L109.84,66.55L107.84,67.10L105.45,68.19L103.14,69.71L99.98,72.21L98.50,73.66L96.59,75.95L95.02,78.04L93.03,81.53L91.44,85.42L90.11,90.84L89.80,93.82L89.80,96.51L89.98,98.15L90.49,100.02L91.29,100.53L91.64,100.59L91.27,98.15L91.27,93.09L91.99,89.25L93.45,84.87L95.78,80.25L98.23,76.67L100.23,74.30L102.90,71.66L106.19,69.29L109.30,67.83L111.30,67.28L113.73,67.10L115.93,67.46L117.38,68.20L118.87,69.28L118.29,69.30L115.56,68.01L113.55,67.65L112.58,67.65L110.39,68.02L107.83,68.92L104.73,70.76L101.43,73.48L98.95,76.30L96.67,79.50L94.92,82.68L93.27,86.33L92.12,90.30L91.63,93.46L91.63,97.42L92.18,100.34L94.38,101.62L95.11,102.34L95.86,102.76L95.47,100.89L95.28,99.43L95.28,96.75L95.59,93.77L96.37,90.52L97.48,87.43L99.85,82.68L102.33,78.95L104.53,76.40L106.73,74.22L110.02,71.85L113.13,70.39L114.95,69.84L116.23,69.65L118.12,69.66L119.77,70.01L121.59,70.95L121.04,70.94L118.30,70.39L115.32,70.39L113.12,70.93L111.00,71.91L108.19,73.67L105.35,76.12L102.79,79.04L100.68,82.05L98.70,85.73L97.11,89.62L96.19,93.09L95.83,95.83L95.83,99.43L96.19,101.63L96.58,102.52L97.30,102.89L97.85,103.99L98.21,104.20L98.57,104.20L98.39,103.08L98.39,98.57L98.93,95.10L100.03,91.26L101.13,88.53L102.59,85.60L104.52,82.42L106.36,80.05L107.81,78.41L110.20,76.05L113.49,73.67L116.60,72.22L118.42,71.66L119.52,71.48L121.77,71.48L122.69,71.65L123.59,72.03L125.08,73.10L126.35,74.57L127.80,77.50L128.34,80.25L128.89,82.45L129.26,85.18L129.08,88.53L128.71,90.35L127.61,94.01L126.34,96.75L124.50,99.85L122.32,102.77L120.87,104.25L118.68,106.07L117.59,106.81L115.50,108.01L109.35,110.08L106.92,110.39L106.06,110.39L103.86,110.03L101.31,108.75L97.84,106.73L95.65,105.82L90.55,102.88L89.63,101.98L87.27,100.68L84.16,98.86L81.22,97.05L77.40,94.85L76.48,94.12L75.37,92.67L74.64,91.21L74.42,90.44L79.76,93.40L81.62,94.68L81.95,94.69L81.58,93.22L81.40,92.12L81.40,87.61L81.89,84.45L83.41,79.57L85.60,75.19L87.27,72.47L88.91,70.28L90.64,68.36L93.03,66.00L96.14,63.81L97.42,63.08L100.34,61.98L102.53,61.62zM47.25,36.22L48.91,37.30L50.72,40.43L51.45,42.44L51.45,46.33L51.08,48.15L49.99,51.45L48.18,54.76L47.86,55.53L47.74,55.59L46.24,57.39L46.03,57.90L44.52,59.32L42.42,61.05L39.94,62.41L38.05,62.90L35.92,62.90L34.28,62.35L32.46,61.24L31.35,59.43L30.98,58.34L30.81,57.42L30.81,53.64L31.53,50.16L33.24,45.85L33.67,45.36L33.97,44.57L34.29,44.34L34.34,44.02L35.01,43.23L35.07,42.92L35.56,42.51L35.62,42.19L36.48,41.41L36.53,41.10L38.84,39.03L40.62,37.69L42.26,36.78L43.71,36.22L44.63,36.05L46.52,36.05zM122.13,75.50L124.33,76.79L120.80,76.78L120.08,76.97L119.93,77.37L119.33,77.50L116.60,78.79L114.10,80.67L112.74,81.88L111.01,83.80L108.82,86.72L106.61,90.90L105.28,94.87L104.78,97.29L104.37,97.42L104.24,98.57L104.23,101.25L104.61,103.88L104.24,103.83L101.69,102.34L101.31,100.89L101.13,99.25L101.13,97.11L101.44,94.50L102.22,91.63L103.51,88.34L105.43,84.79L107.81,81.51L109.66,79.52L112.08,77.56L114.46,76.11L116.96,75.13L117.88,74.95L120.31,74.95zM25.33,22.53L26.60,23.08L27.91,24.15L29.16,26.37L29.71,28.74L29.71,31.90L29.53,33.36L28.79,36.10L27.83,38.60L26.43,41.40L24.05,44.87L21.87,47.08L19.77,48.81L16.92,50.35L15.04,50.84L12.54,50.85L10.89,50.30L9.64,49.36L8.54,48.08L7.95,47.00L7.99,46.10L7.79,45.18L7.79,40.67L8.33,37.92L9.62,34.46L11.47,31.01L13.65,28.08L15.41,26.18L17.24,24.73L18.70,23.81L19.61,23.26L21.61,22.52L22.71,22.35L24.60,22.35zM48.89,35.86L50.19,37.12L51.26,38.79L51.99,41.53L51.99,45.24L51.26,48.71L50.29,51.21L48.52,54.73L47.86,55.53L48.18,54.76L49.99,51.45L51.08,48.15L51.45,46.33L51.45,42.44L50.72,40.43L48.91,37.30L47.25,36.22L46.52,36.05L44.63,36.05L43.71,36.22L42.26,36.78L40.62,37.69L38.84,39.03L36.53,41.10L36.75,40.58L38.66,38.84L40.07,37.69L42.50,36.29L43.89,35.67L45.55,35.32L47.62,35.31zM36.48,41.41L35.62,42.19L35.83,41.68L36.53,41.10zM35.56,42.51L35.07,42.92L35.28,42.40L35.62,42.19zM35.01,43.23L34.34,44.02L34.74,43.14L35.07,42.92zM34.29,44.34L33.97,44.57L34.10,44.14L34.34,44.02zM33.67,45.36L33.24,45.85L33.74,44.70L33.97,44.57zM70.63,48.28L71.17,48.65L72.48,49.72L73.74,51.93L74.28,54.31L74.28,57.29L73.74,60.40L72.81,63.13L71.72,65.51L70.26,68.07L68.25,70.81L66.72,72.38L65.43,73.47L63.86,74.64L61.44,75.87L59.43,76.41L57.29,76.41L56.37,76.24L54.57,75.30L53.27,73.86L52.52,72.58L52.56,71.67L52.36,70.94L52.12,68.19L52.54,64.96L53.45,61.67L55.04,58.15L57.21,54.84L59.41,52.29L60.58,51.26L62.77,49.62L64.96,48.53L66.18,48.10L67.10,47.92L69.16,47.92zM47.84,55.70L46.88,57.11L46.03,57.90L46.24,57.39L47.74,55.59L47.86,55.53zM107.89,63.44L109.53,63.99L110.64,64.72L110.27,64.74L108.61,64.00L107.34,63.63L104.54,63.63L103.63,63.81L101.44,64.55L100.89,64.55L103.26,63.62L106.43,63.26zM100.40,64.95L99.73,65.21L99.98,64.88zM99.60,65.44L98.45,65.94L98.94,65.51L99.73,65.21zM98.31,66.19L97.94,66.18L98.45,65.94zM97.63,66.71L97.17,66.85L97.43,66.52L97.65,66.53zM96.85,67.29L96.50,67.29L96.86,66.91L97.17,66.85zM95.94,68.02L95.58,68.02L95.98,67.62L96.19,67.62zM94.00,69.73L94.01,69.35L94.36,69.26zM92.60,71.22L92.37,71.56L92.37,71.16L92.57,71.12zM91.69,72.31L91.46,72.66L91.46,72.26L91.66,72.21zM91.14,73.04L90.91,73.39L90.91,72.99L91.11,72.94zM90.23,74.32L90.00,74.67L90.00,74.27L90.19,74.22zM88.77,76.70L88.53,77.04L88.53,76.64L88.73,76.60zM86.94,80.17L86.69,80.86L86.69,80.27L86.90,80.07zM86.15,82.33L86.10,81.93L86.21,81.83zM85.61,83.96L85.30,84.57L85.41,83.76L85.67,83.29zM85.31,84.76L84.94,86.03L85.04,85.04L85.30,84.57zM84.69,87.80L84.39,89.14L84.51,87.61L84.75,86.76zM155.56,89.93L157.02,90.84L158.14,91.92L159.23,93.56L159.94,95.04L160.68,98.15L160.68,102.77L160.49,104.23L159.76,107.52L158.12,112.09L156.29,115.56L154.46,118.48L151.73,121.95L150.28,123.43L147.08,126.08L144.44,127.63L143.09,128.29L140.53,129.02L138.70,129.20L137.84,129.20L135.82,128.85L133.28,127.56L130.91,125.90L129.44,123.72L128.85,122.23L130.56,123.04L130.17,121.16L129.99,119.70L129.99,116.47L130.48,112.94L131.63,108.98L132.85,106.00L134.50,102.72L136.95,99.14L138.41,97.31L140.87,94.65L142.06,93.65L144.18,92.12L146.73,90.66L149.83,89.56L150.94,89.38L153.37,89.38zM103.17,98.52L103.15,98.74L102.35,99.27L101.86,99.26L101.86,98.21L102.16,97.95L102.41,97.94zM186.07,107.82L187.71,108.38L189.74,109.82L190.84,111.28L192.10,113.85L192.64,116.42L192.64,121.22L192.27,123.60L191.17,127.61L189.66,131.21L188.44,133.64L186.61,136.56L184.42,139.49L181.79,142.15L180.50,143.24L178.42,144.81L176.20,146.06L174.00,146.97L171.76,147.47L169.26,147.47L167.61,147.11L165.42,146.01L162.51,144.17L161.04,142.54L159.93,140.53L159.94,139.96L162.14,141.28L162.51,141.32L162.14,139.43L161.95,137.79L161.95,135.10L162.44,131.21L163.60,127.25L165.37,123.17L167.35,119.68L169.64,116.49L171.65,114.30L173.77,112.21L176.75,110.08L179.67,108.62L181.44,108.01L184.60,107.64zM216.94,125.55L217.67,125.57L218.02,125.92L218.94,126.28L220.61,127.54L222.05,129.57L222.96,131.94L223.51,134.86L223.51,138.03L223.33,139.67L222.59,143.14L221.32,146.98L219.49,150.81L217.48,154.09L215.29,157.02L211.93,160.42L209.10,162.52L206.53,163.97L203.96,164.87L201.90,165.18L200.50,165.18L199.21,165.01L197.03,164.09L195.40,163.16L194.12,162.06L192.83,160.07L192.23,158.58L193.21,159.03L192.82,156.42L192.82,151.73L193.31,148.56L194.83,143.69L197.70,137.97L200.51,134.02L203.07,131.28L204.51,129.99L206.34,128.52L208.72,127.07L210.85,126.10L212.67,125.55L213.77,125.37L216.02,125.37zM252.37,145.46L253.67,146.35L255.13,148.00L255.66,148.93L256.57,151.12L257.12,154.04L257.12,157.57L256.75,160.13L255.79,163.91L254.50,167.19L252.56,171.09L250.54,174.19L248.53,176.75L246.91,178.41L244.99,180.14L242.79,181.78L239.71,183.45L237.93,184.04L236.42,184.36L233.19,184.37L231.55,183.81L229.74,182.88L227.37,181.42L225.90,180.15L224.97,178.70L224.41,177.61L224.35,177.05L224.59,177.02L226.46,178.16L226.80,178.23L226.43,175.60L226.43,171.09L226.92,167.92L228.07,163.96L230.11,159.42L232.38,155.67L234.85,152.47L235.87,151.30L238.67,148.80L241.77,146.61L244.83,145.28L245.91,144.90L247.01,144.73L250.18,144.73zM284.52,163.90L285.43,164.45L286.92,165.71L288.36,167.92L289.27,170.66L289.64,174.15L289.27,178.39L288.71,180.76L287.26,185.15L285.74,188.38L283.60,191.90L281.72,194.41L279.60,196.86L276.95,199.14L273.92,201.23L270.99,202.50L268.75,202.99L265.89,202.99L264.42,202.63L263.17,202.06L260.79,200.60L259.51,199.51L258.22,197.51L257.78,196.23L258.01,196.21L258.95,196.81L259.32,196.85L258.95,194.77L258.70,191.67L259.13,187.89L259.99,184.19L261.50,180.22L262.60,178.03L264.34,175.03L266.18,172.48L268.28,170.01L270.21,168.11L273.14,165.92L275.69,164.45L278.44,163.55L279.16,163.36L282.69,163.36zM25.14,23.63L26.24,24.17L27.35,25.43L28.06,26.74L28.63,27.63L28.98,29.47L28.98,31.90L28.80,33.36L28.25,35.74L27.28,38.24L25.51,41.77L23.63,44.27L22.24,45.80L20.59,47.26L18.31,48.81L16.51,49.57L14.49,49.93L13.64,49.93L12.53,49.76L10.91,49.00L9.64,47.53L8.88,45.91L8.52,44.45L8.52,40.49L9.25,37.19L10.89,33.18L13.38,29.46L14.84,27.81L16.50,26.18L18.33,24.91L20.39,23.86L21.80,23.44L23.51,23.28zM69.90,49.20L70.81,49.75L71.92,51.00L72.62,52.50L73.20,53.20L73.55,55.59L73.36,58.75L72.63,61.67L71.30,65.09L69.29,68.38L67.83,70.20L66.72,71.46L64.24,73.55L61.08,75.14L58.69,75.51L57.10,75.33L55.48,74.57L54.18,73.13L53.45,71.67L53.09,70.02L53.09,65.88L53.63,63.31L54.92,59.85L56.69,56.69L57.86,55.12L58.87,53.93L59.97,52.67L62.54,50.66L64.54,49.56L66.18,49.01L68.25,48.83zM121.96,81.89L122.50,82.44L122.87,84.27L122.82,87.46L123.03,87.46L123.23,86.33L123.23,84.27L122.82,82.23L123.03,82.23L125.61,83.72L126.15,84.27L126.52,86.09L126.54,89.37L126.72,89.56L126.15,92.18L124.88,95.47L123.41,98.02L121.59,100.58L119.32,102.89L116.60,104.73L114.96,105.47L111.36,105.46L110.44,105.28L108.81,104.16L108.56,103.80L110.78,103.43L110.82,103.26L108.07,103.26L107.52,102.17L107.15,101.08L106.98,99.97L106.98,97.11L107.51,94.18L108.80,90.72L110.57,87.56L112.56,84.98L114.77,82.81L116.05,81.90L118.98,80.42L119.39,80.41zM154.29,90.65L155.21,91.37L156.11,92.30L157.58,95.04L158.49,95.59L159.40,96.32L159.95,99.06L159.95,102.77L159.58,105.33L158.85,108.25L157.69,111.30L155.50,115.68L153.55,118.66L150.92,121.88L147.90,124.52L145.27,126.28L142.96,127.43L140.34,128.10L137.29,128.11L135.12,127.36L133.66,126.26L132.36,124.64L131.26,122.09L130.90,120.43L130.66,117.14L131.21,112.76L132.49,108.38L134.50,103.99L137.31,99.69L139.05,97.58L140.71,95.77L143.64,93.40L145.88,92.00L148.02,91.03L150.02,90.48L151.90,90.29zM186.26,108.55L187.34,109.84L188.81,112.57L191.38,114.03L191.92,115.31L192.28,118.06L192.28,120.13L191.91,123.23L191.00,126.88L189.35,131.09L187.16,135.10L183.87,139.49L182.43,140.97L180.51,142.70L178.42,144.26L175.96,145.64L173.60,146.57L171.03,146.92L170.17,146.92L168.15,146.56L166.33,145.64L164.53,143.98L163.41,141.99L162.86,140.35L162.50,138.33L162.50,134.01L162.99,130.84L163.78,127.98L165.24,124.33L167.43,120.30L169.46,117.40L171.47,115.03L173.59,112.94L176.51,110.75L179.67,109.16L182.54,108.38L185.33,108.38zM211.25,127.57L210.60,127.68L211.03,127.35L211.45,127.35zM216.20,128.11L217.69,128.99L218.94,130.48L220.95,134.32L221.50,136.33L221.50,140.95L220.95,143.69L219.86,146.98L218.58,149.72L216.75,152.82L214.48,155.85L213.30,157.23L210.65,159.50L208.37,161.06L206.52,161.95L204.28,162.63L201.04,162.63L199.40,162.08L197.41,160.97L196.11,159.53L195.19,157.70L194.83,156.42L194.65,155.32L194.65,150.81L195.37,146.97L196.84,142.96L198.30,140.04L199.97,137.32L202.06,134.66L204.16,132.38L205.26,131.46L208.29,129.38L210.67,128.29L213.04,127.74L214.74,127.74zM210.32,127.95L209.75,127.94L210.10,127.73L210.60,127.68zM208.91,128.53L208.47,128.86L208.09,128.84L208.68,128.45zM207.59,129.37L207.13,129.50L207.39,129.17L207.61,129.18zM206.99,129.76L206.62,129.74L206.79,129.56L207.13,129.50zM206.29,130.29L205.90,130.29L206.09,130.09L206.34,130.09zM205.35,131.04L204.99,131.04L205.39,130.64L205.60,130.64zM222.06,132.67L222.60,135.59L222.60,138.76L222.05,142.23L220.95,145.87L219.80,148.56L218.58,151.00L216.75,153.91L214.76,156.49L213.76,157.68L211.84,159.41L209.47,161.25L207.01,162.63L204.51,163.60L202.26,163.90L201.22,163.90L199.93,163.74L199.45,163.48L200.31,163.54L202.81,163.54L205.05,163.04L207.25,162.14L209.55,160.78L212.20,158.68L214.38,156.47L216.38,153.91L218.21,150.99L219.67,148.25L221.14,144.42L221.87,141.50L222.23,138.94L222.23,135.59L221.60,132.31zM204.34,131.81L202.50,133.65L202.50,133.30L204.11,131.73zM201.65,134.60L201.42,134.94L201.42,134.54L201.61,134.50zM200.92,135.51L200.69,135.86L200.69,135.46L200.88,135.41zM200.37,136.24L200.14,136.59L200.14,136.19L200.34,136.14zM199.46,137.52L199.22,137.86L199.22,137.47L199.42,137.42zM198.54,138.98L198.31,139.33L198.31,138.93L198.51,138.88zM197.63,140.63L197.40,140.97L197.40,140.57L197.60,140.53zM250.73,145.64L251.64,146.55L253.11,149.47L255.29,150.76L256.02,151.30L256.57,153.68L256.57,158.30L255.85,162.32L254.74,165.60L253.10,169.26L250.72,173.27L247.99,176.75L246.54,178.23L244.25,180.14L242.89,181.16L240.68,182.41L238.48,183.32L236.24,183.81L234.10,183.81L232.27,183.46L230.28,182.34L228.99,180.89L228.26,179.79L227.33,177.62L226.98,175.78L226.73,172.86L227.16,169.08L228.07,165.23L230.09,160.31L232.59,156.06L234.58,153.48L236.04,151.83L238.25,149.66L241.23,147.52L243.79,146.25L246.10,145.46L247.38,145.27L249.45,145.28zM195.56,145.35L195.51,144.95L195.63,144.85zM195.01,146.99L194.96,146.59L195.08,146.49zM282.69,164.45L283.81,164.98L285.25,166.64L286.15,168.67L286.52,169.03L287.44,169.57L288.17,170.11L288.72,172.67L288.72,177.11L288.17,180.22L287.39,182.91L285.80,186.80L283.73,190.58L281.05,194.28L278.51,196.86L276.86,198.32L273.69,200.44L270.59,201.73L268.20,202.08L267.16,202.08L264.96,201.73L262.98,200.60L261.50,198.98L260.79,197.86L259.85,195.15L259.68,193.86L259.68,188.99L260.21,185.87L261.44,181.99L263.14,178.21L265.54,174.39L267.64,171.75L269.10,170.10L270.45,168.90L272.27,167.43L273.93,166.34L276.12,165.24L278.43,164.45L279.35,164.27L281.96,164.27z"/><g id="Actor_.0"><g style="stroke:#000000;stroke-width:0.176"><path d="M285.09,164.22L283.97,163.68L282.75,163.34L281.45,163.18L280.08,163.21L278.65,163.44L277.18,163.86L275.68,164.46L274.16,165.24L272.65,166.20L271.15,167.32L269.68,168.59L268.25,170.00L266.88,171.53L265.58,173.18L264.36,174.93L263.24,176.75L262.22,178.64L261.32,180.57L260.54,182.52L259.89,184.48L259.38,186.43L259.01,188.34L258.79,190.21L258.71,192.00L258.79,193.72L259.01,195.33L259.38,196.82L259.89,198.18L260.54,199.40L261.32,200.45L262.22,201.35L263.24,202.07"/><path d="M283.54,164.71L284.28,165.02L285.30,165.68L286.21,166.52L287.00,167.53L287.65,168.70L288.17,170.02L288.54,171.47L288.77,173.05L288.84,174.72L288.77,176.49L288.54,178.32L288.17,180.20L287.65,182.11L287.00,184.03L286.21,185.95L285.30,187.83L284.28,189.67L283.15,191.44L281.93,193.12L280.63,194.70L279.26,196.16L277.84,197.49L276.39,198.68L274.91,199.70L273.42,200.55L271.94,201.23L270.49,201.71L269.07,202.01L267.70,202.12L266.40,202.03L265.18,201.74L264.05,201.27L263.03,200.61L262.92,200.50"/></g><g style="stroke:#000000;stroke-width:0.529"><path d="M257.92,196.85L257.51,195.74L257.14,194.25L256.92,192.64L256.84,190.93L256.92,189.13L257.14,187.27L257.51,185.35L258.02,183.41L258.67,181.45L259.44,179.49L260.35,177.56L261.37,175.68L262.49,173.85L263.71,172.11L265.01,170.46L266.38,168.92L267.81,167.51L269.28,166.24L270.78,165.12L272.29,164.17L273.81,163.39L275.31,162.78L276.78,162.37L278.20,162.14L279.57,162.11L280.88,162.26L282.09,162.61L283.22,163.15L285.09,164.22L286.11,164.94L287.01,165.83L287.79,166.89L288.44,168.11L288.95,169.47L289.32,170.96L289.54,172.57L289.61,174.26L289.54,176.08L289.32,177.94L288.95,179.86L288.44,181.80L287.79,183.76L287.01,185.72L286.11,187.65L285.09,189.53L283.97,191.36L282.75,193.10L281.45,194.75L280.08,196.29L278.65,197.70L277.18,198.97L275.87,199.95L275.68,200.09L274.16,201.04L272.65,201.82L271.15,202.43L269.68,202.84L268.25,203.07L266.88,203.11L265.58,202.95L264.36,202.60L263.24,202.07L261.37,200.99L260.35,200.27L259.44,199.38L258.67,198.32L258.02,197.10L257.92,196.85"/><path d="M260.15,196.24L259.79,194.81L259.56,193.24L259.49,191.56L259.56,189.80L259.79,187.97L260.16,186.09L260.68,184.17L261.33,182.25L261.40,182.07L262.12,180.34L263.03,178.45L264.05,176.62L265.18,174.85L266.40,173.17L267.70,171.58L269.07,170.12L270.49,168.79L271.94,167.61L272.02,167.55L273.42,166.59L274.91,165.73L276.39,165.06L277.84,164.57L279.26,164.27L280.63,164.17L281.93,164.26L283.15,164.54L283.54,164.71L284.34,165.44L285.13,166.45L285.78,167.63L286.30,168.95L286.67,170.40L286.89,171.97L286.97,173.65L286.89,175.41L286.67,177.24L286.30,179.13L285.78,181.04L285.13,182.96L284.34,184.87L283.43,186.76L282.40,188.59L281.28,190.36L280.06,192.04L278.76,193.63L277.39,195.09L275.97,196.42L274.51,197.60L273.03,198.62L271.55,199.48L270.07,200.15L268.61,200.64L267.19,200.94L265.83,201.04L264.53,200.95L263.31,200.67L262.92,200.50L262.12,199.77L261.33,198.76L260.68,197.58L260.15,196.24"/></g></g><g id="Actor_.1"><g style="stroke:#000000;stroke-width:0.176"><path d="M197.16,164.17L196.15,163.45L195.24,162.55L194.47,161.49L193.82,160.27L193.31,158.91L192.94,157.42L192.72,155.81L192.65,154.09L192.72,152.30L192.95,150.43L193.32,148.52L193.83,146.57L194.48,144.61L195.26,142.65L196.16,140.73L197.18,138.84L198.31,137.02L199.53,135.27L200.83,133.63L202.20,132.09L203.63,130.68L205.10,129.41L206.60,128.30L208.12,127.34L209.63,126.56L211.13,125.96L212.60,125.55L214.02,125.32L215.39,125.29L216.69,125.45L217.91,125.79L219.03,126.33"/><path d="M194.11,156.46L194.13,156.67L194.48,158.06L194.95,159.33L195.55,160.46L196.28,161.45L197.12,162.28L198.06,162.95L198.27,163.05L199.11,163.45L200.24,163.78L201.45,163.92L202.73,163.89L204.06,163.68L205.43,163.30L206.82,162.74L207.59,162.34L208.23,162.01L209.65,161.12L211.04,160.08L212.41,158.90L213.74,157.59L215.02,156.16L216.23,154.62L217.37,153.00L218.34,151.41L218.41,151.30L219.36,149.54L220.20,147.75L220.93,145.93L221.54,144.10L222.01,142.29L222.36,140.51L222.57,138.77L222.64,137.10L222.57,135.50L222.36,134.00L222.02,132.61L221.55,131.34L221.23,130.75L220.94,130.21L220.22,129.22L219.38,128.39L218.43,127.72L217.68,127.36L217.39,127.22L216.25,126.89L215.04,126.74L213.77,126.78L212.44,126.98L211.07,127.37L209.65,127.94L208.26,128.66L206.85,129.55L205.45,130.59L204.08,131.77L202.75,133.08L201.48,134.51L200.26,136.05L199.13,137.67L198.70,138.37L198.08,139.37L197.13,141.12L196.29,142.92L195.56,144.74L194.96,146.56L194.73,147.45L194.48,148.38L194.14,150.16L193.93,151.90L193.86,153.57L193.93,155.17L194.11,156.46"/><path d="M194.61,155.23L194.61,155.25"/><path d="M196.01,159.38L196.11,159.55"/><path d="M197.04,160.64L196.97,160.56"/><path d="M198.29,162.99L198.78,163.17"/><path d="M198.02,161.35L198.12,161.41"/><path d="M222.19,135.38L222.16,135.16L222.21,135.55L222.28,136.69L222.27,137.87L222.20,139.09L222.04,140.35L221.82,141.63L221.52,142.93L221.16,144.25L220.72,145.56L220.23,146.88L219.66,148.19L219.04,149.48L218.36,150.75L217.63,151.99L216.85,153.20L216.03,154.37L215.16,155.49L214.26,156.55L213.32,157.56L212.36,158.50L211.37,159.38L210.37,160.18L209.36,160.90L208.34,161.54L207.32,162.10L206.15,162.64L205.13,163.02L204.13,163.31L203.16,163.51L202.20,163.60L201.04,163.61L200.15,163.52L199.29,163.33L199.09,163.27"/><path d="M199.24,161.86L199.34,161.90"/><path d="M201.60,162.09L201.39,162.09"/><path d="M205.09,161.18L205.12,161.17"/><path d="M210.33,128.39L210.44,128.35"/><path d="M213.90,127.68L213.99,127.67"/><path d="M216.21,128.06L215.98,128.00"/><path d="M217.15,128.56L217.38,128.69"/><path d="M218.35,129.60L218.17,129.42"/><path d="M218.40,127.78L218.77,128.06L219.58,128.85L220.15,129.54L220.64,130.31L220.76,130.51L221.19,131.35L221.55,132.27L221.83,133.24L222.05,134.28L222.10,134.71L222.08,134.56"/><path d="M219.15,130.78L219.10,130.69"/><path d="M220.40,135.21L220.39,135.08"/><path d="M222.10,134.71L222.16,135.16L222.10,134.71"/><path d="M222.21,135.52L222.21,135.55"/></g><g style="stroke:#000000;stroke-width:0.529"><path d="M191.87,157.50L192.05,158.19L192.55,159.55L193.20,160.76L193.98,161.83L194.88,162.72L195.90,163.44L197.16,164.17L198.29,164.70L199.50,165.05L200.80,165.21L202.17,165.18L203.60,164.95L205.07,164.54L206.57,163.94L207.68,163.37L208.08,163.16L209.60,162.20L211.10,161.09L212.57,159.82L214.00,158.41L215.37,156.87L216.67,155.22L217.73,153.71L217.89,153.48L219.01,151.66L220.03,149.77L220.94,147.84L221.72,145.89L222.37,143.93L222.88,141.98L223.25,140.07L223.47,138.20L223.55,136.40L223.48,134.69L223.25,133.08L222.94,131.81L222.89,131.59L222.38,130.22L221.73,129.01L220.95,127.95L220.05,127.05L219.03,126.33L217.77,125.61L216.64,125.07L215.43,124.72L214.13,124.56L212.76,124.59L211.33,124.82L209.86,125.23L208.36,125.83L206.85,126.62L205.33,127.57L203.83,128.69L202.36,129.95L200.93,131.36L199.56,132.90L198.26,134.55L197.04,136.29L195.92,138.12L194.90,140.00L194.02,141.86L193.21,143.88L192.56,145.84L192.05,147.79L191.68,149.70L191.46,151.57L191.38,153.37L191.45,155.08L191.68,156.69L191.87,157.50"/><path d="M195.30,157.96L195.67,158.79L196.01,159.38L196.49,160.03L196.97,160.56L197.45,160.98L198.02,161.35L198.58,161.63L199.24,161.86L199.88,162.00L200.72,162.09L201.39,162.09L202.27,162.00L203.21,161.81L204.16,161.53L205.08,161.18L205.95,160.78L206.94,160.24L207.93,159.62L208.91,158.92L209.88,158.14L210.83,157.30L211.76,156.38L212.67,155.41L213.55,154.37L214.39,153.29L215.19,152.16L215.94,150.99L216.65,149.78L217.30,148.56L217.91,147.29L218.46,146.03L218.94,144.75L219.36,143.47L219.71,142.20L220.00,140.94L220.22,139.70L220.37,138.48L220.44,137.30L220.45,136.15L220.39,135.08L220.27,134.16L220.06,133.17L219.79,132.24L219.45,131.37L219.10,130.69L218.69,130.05L218.17,129.42L217.77,129.03L217.15,128.56L216.69,128.30L215.98,128.00L215.43,127.84L214.61,127.71L213.90,127.68L213.10,127.72L212.18,127.86L211.24,128.09L210.33,128.39L209.46,128.76L208.48,129.25L207.49,129.84L206.51,130.50L205.53,131.24L204.57,132.05L203.63,132.93L202.71,133.87L201.81,134.88L200.96,135.94L200.14,137.04L199.36,138.20L198.62,139.38L197.94,140.60L197.31,141.84L196.74,143.10L196.22,144.38L195.77,145.65L195.39,146.93L195.07,148.19L194.81,149.45L194.63,150.67L194.52,151.88L194.48,153.04L194.51,154.17L194.61,155.22L194.75,156.10L194.99,157.06L195.30,157.96"/></g></g><g id="Actor_.2"><g style="stroke:#000000;stroke-width:0.176"><path d="M30.69,56.57L30.69,56.51"/><path d="M31.90,60.50L31.80,60.32"/><path d="M32.74,61.44L32.64,61.34"/><path d="M33.71,62.06L33.56,61.98"/><path d="M34.84,62.39L34.66,62.34"/><path d="M36.12,62.42L36.11,62.42"/><path d="M40.99,60.51L40.97,60.52"/><path d="M42.08,36.84L42.01,36.87"/><path d="M45.30,35.96L45.28,35.96"/><path d="M47.13,36.18L47.30,36.22"/><path d="M49.01,37.44L49.15,37.60"/><path d="M48.14,36.67L48.32,36.77"/><path d="M49.79,38.67L49.81,38.70"/><path d="M50.58,43.88L50.57,43.92"/></g><g style="stroke:#000000;stroke-width:0.529"><path d="M30.15,59.88L29.82,59.11L29.76,58.94L29.50,58.08L29.32,57.16L29.21,56.19L29.17,55.16L29.21,54.10L29.32,52.99L29.50,51.86L29.78,50.65L30.10,49.50L30.49,48.34L30.95,47.18L31.47,46.04L32.05,44.92L32.38,44.35L32.69,43.82L33.37,42.76L34.10,41.74L34.87,40.76L35.67,39.85L36.51,38.99L37.42,38.15L38.30,37.43L39.20,36.78L40.10,36.22L41.01,35.75L41.90,35.36L42.79,35.07L43.66,34.87L43.84,34.84L44.69,34.73L45.51,34.73L46.29,34.82L46.52,34.86L47.27,35.05L47.97,35.33L48.20,35.44L48.84,35.82L49.44,36.29L49.63,36.45L50.16,37.01L50.63,37.65L50.74,37.83L51.14,38.55L51.47,39.34L51.73,40.20L51.92,41.13L51.95,41.28L52.06,42.25L52.09,43.27L52.06,44.33L51.95,45.43L51.76,46.56L51.50,47.71L51.18,48.87L50.78,50.03L50.69,50.27L50.32,51.19L49.80,52.34L49.22,53.47L48.58,54.57L47.89,55.64L47.16,56.67L46.39,57.64L45.58,58.57L44.74,59.43L44.66,59.50L43.87,60.22L42.99,60.94L42.10,61.58L41.20,62.14L40.30,62.61L39.41,63.00L39.26,63.05L38.37,63.35L37.50,63.55L36.65,63.65L35.84,63.65L35.62,63.64L34.83,63.55L34.09,63.36L33.85,63.28L33.15,63.00L32.51,62.62L32.30,62.47L31.70,62.00L31.17,61.44L31.02,61.27L30.56,60.63L30.15,59.88"/><path d="M31.26,59.19L31.21,59.07L30.96,58.25L30.79,57.37L30.69,56.51L30.65,55.58L30.69,54.55L30.80,53.49L30.98,52.39L31.23,51.28L31.54,50.16L31.93,49.03L32.37,47.91L32.88,46.79L33.44,45.70L34.06,44.63L34.73,43.59L35.44,42.60L36.19,41.65L36.97,40.76L37.78,39.92L38.62,39.16L39.47,38.46L40.34,37.84L41.21,37.29L42.01,36.87L42.82,36.53L43.67,36.25L44.49,36.06L45.28,35.96L45.86,35.96L46.60,36.04L47.13,36.18L47.71,36.42L48.14,36.67L48.65,37.07L49.01,37.44L49.43,38.02L49.79,38.67L50.04,39.27L50.29,40.09L50.47,40.97L50.57,41.91L50.61,42.89L50.58,43.88L50.47,44.88L50.29,45.98L50.05,47.09L49.73,48.22L49.34,49.35L48.90,50.48L48.39,51.59L47.82,52.69L47.20,53.76L46.54,54.80L45.82,55.80L45.07,56.74L44.29,57.64L43.47,58.48L42.63,59.25L41.78,59.94L40.97,60.52L40.13,61.05L39.26,61.50L38.40,61.87L37.55,62.15L36.72,62.34L36.11,62.42L35.34,62.42L34.66,62.34L34.14,62.21L33.56,61.98L33.11,61.71L32.64,61.34L32.24,60.92L31.80,60.32L31.52,59.82L31.26,59.19"/></g></g><g id="Actor_.3"><g style="stroke:#000000;stroke-width:0.176"><path d="M252.65,145.61L251.52,145.08L250.31,144.73L249.01,144.57L247.63,144.61L246.21,144.83L244.74,145.25L243.24,145.85L241.72,146.64L240.21,147.59L238.71,148.71L237.24,149.98L235.81,151.39L234.44,152.93L233.14,154.58L231.92,156.32L230.80,158.14L229.78,160.03L228.88,161.96L228.10,163.91L227.45,165.87L226.94,167.82L226.57,169.73L226.35,171.60L226.27,173.40L226.35,175.11L226.57,176.72L226.94,178.21L227.45,179.57L228.10,180.79L228.88,181.85L229.78,182.74L230.80,183.46"/><path d="M229.86,181.88L230.26,182.26L231.27,182.94L232.39,183.44L233.60,183.76L234.89,183.88L236.25,183.81L237.67,183.55L239.12,183.10L240.60,182.47L242.10,181.65L243.58,180.67L245.05,179.53L246.49,178.24L247.87,176.81L249.21,175.26L250.46,173.60L251.63,171.85L252.69,170.03L253.65,168.16L254.49,166.25L255.21,164.32L255.79,162.40L256.23,160.49L256.52,158.63L256.67,156.82L256.67,155.10L256.52,153.46L256.23,151.94L255.79,150.54L255.21,149.28L254.49,148.17L253.65,147.22L252.69,146.45L251.63,145.85L250.73,145.54"/></g><g style="stroke:#000000;stroke-width:0.529"><path d="M224.42,177.57L224.04,176.55L223.67,175.06L223.45,173.45L223.37,171.73L223.45,169.94L223.67,168.07L224.04,166.16L224.55,164.21L225.20,162.25L225.98,160.30L226.88,158.37L227.90,156.48L229.02,154.66L230.24,152.91L231.54,151.26L232.91,149.73L234.34,148.32L235.81,147.05L237.31,145.93L238.83,144.97L240.34,144.19L241.84,143.59L243.31,143.17L244.74,142.94L246.11,142.91L247.41,143.07L248.63,143.41L249.75,143.95L252.65,145.61L253.67,146.33L254.57,147.22L255.35,148.28L256.00,149.50L256.51,150.86L256.88,152.35L257.10,153.96L257.17,155.67L257.10,157.47L256.88,159.33L256.51,161.25L256.00,163.20L255.35,165.16L254.57,167.11L253.67,169.04L252.65,170.92L251.52,172.75L250.31,174.49L249.01,176.14L247.63,177.68L246.21,179.09L244.74,180.36L243.24,181.48L241.72,182.43L240.21,183.22L238.71,183.82L237.24,184.23L235.81,184.46L234.44,184.50L233.14,184.34L231.92,183.99L230.80,183.46L227.90,181.80L226.88,181.08L225.98,180.19L225.20,179.13L224.55,177.91L224.42,177.57"/><path d="M227.36,177.61L227.42,177.85L227.93,179.18L228.58,180.37L229.36,181.39L229.86,181.88L230.70,182.10L232.00,182.22L233.36,182.15L234.77,181.89L236.23,181.44L237.71,180.80L239.20,179.99L240.69,179.01L242.16,177.87L243.59,176.57L244.76,175.37L244.98,175.15L246.31,173.60L247.56,171.94L248.73,170.19L249.80,168.37L250.76,166.50L251.60,164.59L252.31,162.66L252.89,160.74L253.33,158.83L253.63,156.97L253.77,155.16L253.77,153.43L253.63,151.80L253.33,150.27L252.89,148.88L252.31,147.61L251.60,146.51L250.76,145.56L250.73,145.54L250.46,145.44L249.21,145.23L247.88,145.20L246.49,145.36L245.05,145.72L243.58,146.26L242.10,146.99L240.60,147.89L239.12,148.95L237.67,150.17L236.25,151.53L234.89,153.02L233.60,154.63L232.39,156.33L231.27,158.12L230.26,159.97L229.36,161.86L228.58,163.78L227.93,165.71L227.42,167.63L227.22,168.67L227.05,169.51L226.83,171.35L226.75,173.12L226.83,174.80L227.05,176.38L227.36,177.61"/></g></g><g id="Actor_.4"><g style="stroke:#000000;stroke-width:0.176"><path d="M188.25,108.67L187.12,108.14L185.90,107.79L184.60,107.63L183.23,107.67L181.81,107.89L180.33,108.31L178.83,108.91L177.32,109.70L175.81,110.65L174.31,111.77L172.84,113.04L171.41,114.45L170.04,115.99L168.74,117.64L167.52,119.38L166.40,121.20L165.38,123.09L164.47,125.02L163.69,126.97L163.05,128.93L162.54,130.88L162.17,132.79L161.94,134.66L161.87,136.46L161.94,138.17L162.17,139.78L162.54,141.27L163.05,142.63L163.69,143.85L164.47,144.91L165.38,145.80L166.40,146.52"/><path d="M186.33,108.60L187.22,108.91L188.29,109.51L189.25,110.28L190.09,111.23L190.81,112.34L191.39,113.60L191.83,115.00L192.12,116.52L192.27,118.16L192.27,119.88L192.12,121.69L191.83,123.55L191.39,125.46L190.81,127.38L190.09,129.31L189.25,131.22L188.29,133.10L187.22,134.91L186.06,136.66L184.80,138.32L183.48,139.87L182.09,141.30L180.65,142.59L179.18,143.73L177.69,144.71L176.20,145.53L174.72,146.16L173.27,146.61L171.85,146.87L170.49,146.94L169.20,146.82L167.99,146.50L166.87,146.00L165.85,145.32L165.46,144.94"/></g><g style="stroke:#000000;stroke-width:0.529"><path d="M159.67,139.68L159.64,139.61L159.27,138.12L159.05,136.51L158.97,134.79L159.05,133.00L159.27,131.13L159.64,129.22L160.15,127.27L160.80,125.31L161.58,123.36L162.48,121.43L163.50,119.54L164.62,117.72L165.84,115.97L167.14,114.33L168.51,112.79L169.94,111.38L171.41,110.11L172.91,108.99L174.42,108.03L175.94,107.25L177.44,106.65L178.91,106.23L180.34,106.01L181.71,105.97L183.01,106.13L184.23,106.48L185.35,107.01L188.25,108.67L189.26,109.39L190.17,110.28L190.95,111.34L191.59,112.56L192.11,113.94L192.47,115.41L192.70,117.02L192.77,118.73L192.70,120.53L192.68,120.64L192.47,122.40L192.11,124.31L191.59,126.26L190.95,128.22L190.17,130.17L189.26,132.10L188.25,133.98L187.12,135.81L185.90,137.55L184.60,139.20L183.23,140.74L181.81,142.15L180.33,143.42L178.83,144.54L177.32,145.49L175.81,146.28L174.31,146.88L172.84,147.30L171.41,147.52L170.04,147.56L168.74,147.40L167.52,147.05L166.40,146.52L163.50,144.86L162.48,144.14L161.58,143.25L160.80,142.19L160.15,140.97L159.67,139.68"/><path d="M163.02,140.90L162.65,139.45L162.43,137.86L162.35,136.18L162.43,134.41L162.65,132.57L163.02,130.69L163.53,128.77L164.18,126.84L164.95,124.92L165.85,123.03L166.87,121.18L167.99,119.39L169.20,117.69L170.49,116.08L171.85,114.59L173.27,113.23L174.72,112.01L176.20,110.95L177.69,110.05L179.18,109.32L180.65,108.78L182.09,108.42L183.48,108.26L184.80,108.29L186.06,108.50L186.33,108.60L187.20,109.57L187.91,110.68L188.49,111.94L188.93,113.34L189.22,114.86L189.37,116.49L189.37,118.22L189.22,120.03L188.93,121.89L188.49,123.80L187.91,125.72L187.20,127.65L186.35,129.56L185.40,131.43L184.33,133.25L183.16,135.00L181.91,136.66L180.58,138.21L179.19,139.64L177.75,140.93L176.28,142.07L174.80,143.05L173.30,143.87L171.82,144.50L170.37,144.95L168.96,145.21L167.60,145.28L166.30,145.16L165.46,144.94L164.95,144.46L164.18,143.43L163.53,142.24L163.02,140.90"/></g></g><g id="Actor_.5"><g style="stroke:#000000;stroke-width:0.176"><path d="M131.09,124.32L130.56,122.93L130.19,121.44L129.97,119.83L129.89,118.12L129.97,116.32L130.19,114.45L130.56,112.54L131.07,110.59L131.72,108.63L132.50,106.68L133.40,104.75L134.42,102.86L135.54,101.04L136.76,99.30L138.06,97.65L139.43,96.11L140.86,94.70L142.33,93.43L143.83,92.31L145.34,91.36L146.86,90.57L148.36,89.97L149.83,89.55L151.26,89.33L152.63,89.29L153.93,89.45L155.15,89.80L156.27,90.33"/><path d="M134.42,128.18L133.40,127.46L132.50,126.57L131.72,125.51L131.33,124.79"/><path d="M134.10,126.61L134.21,126.72L135.23,127.38L136.36,127.85L137.58,128.14L138.88,128.23L140.25,128.12L141.67,127.83L143.12,127.34L144.60,126.66L146.09,125.81L147.57,124.79L149.02,123.61L150.44,122.28L151.81,120.81L153.11,119.23L154.33,117.55L155.46,115.78L156.48,113.94L157.39,112.06L158.18,110.15L158.83,108.22L159.35,106.31L159.72,104.43L159.95,102.60L160.02,100.84L159.95,99.16L159.72,97.59L159.35,96.13L158.83,94.81L158.18,93.64L157.39,92.63L156.48,91.79L155.46,91.13L154.72,90.82"/></g><g style="stroke:#000000;stroke-width:0.529"><path d="M130.20,124.91L129.85,124.43L129.20,123.22L128.69,121.86L128.32,120.36L128.10,118.75L128.02,117.04L128.10,115.24L128.32,113.38L128.69,111.46L129.20,109.52L129.85,107.56L130.62,105.60L131.53,103.68L132.55,101.79L133.67,99.97L134.89,98.22L136.19,96.57L137.56,95.03L138.99,93.62L140.46,92.35L141.96,91.24L143.47,90.28L144.99,89.50L146.49,88.90L147.96,88.48L149.38,88.25L150.75,88.22L152.06,88.37L153.27,88.72L154.40,89.26L156.27,90.33L157.29,91.05L158.19,91.94L158.97,93.00L159.62,94.22L160.13,95.58L160.50,97.07L160.72,98.68L160.80,100.39L160.72,102.19L160.50,104.05L160.13,105.97L159.62,107.92L158.97,109.88L158.19,111.83L157.29,113.76L156.27,115.64L155.15,117.47L153.93,119.21L152.63,120.86L151.26,122.40L149.83,123.81L148.36,125.08L146.86,126.20L145.34,127.15L143.83,127.94L142.33,128.54L140.86,128.95L139.43,129.18L138.06,129.22L136.76,129.06L135.54,128.71L134.42,128.18L132.55,127.10L131.53,126.39L130.86,125.72"/><path d="M131.75,123.43L131.34,122.38L130.97,120.92L130.74,119.35L130.67,117.67L130.74,115.91L130.97,114.08L131.34,112.20L131.86,110.29L132.51,108.36L133.30,106.45L134.21,104.57L135.23,102.73L136.36,100.96L137.58,99.28L138.88,97.70L140.25,96.23L140.43,96.06L141.67,94.90L143.12,93.72L144.60,92.70L146.09,91.85L147.57,91.17L149.02,90.68L150.44,90.39L151.81,90.28L153.11,90.37L154.33,90.65L154.72,90.82L155.52,91.56L156.31,92.57L156.96,93.74L157.48,95.06L157.85,96.51L158.07,98.08L158.15,99.76L158.07,101.52L157.85,103.36L157.48,105.24L156.96,107.15L156.31,109.07L155.52,110.98L154.61,112.87L153.58,114.70L152.46,116.47L151.24,118.16L149.94,119.74L148.57,121.20L147.15,122.53L145.69,123.71L144.21,124.74L142.73,125.59L141.25,126.26L139.79,126.75L138.37,127.05L137.01,127.15L135.71,127.06L134.49,126.78L134.10,126.61L133.30,125.88L132.51,124.87L131.86,123.70L131.75,123.43"/></g></g><g id="Actor_.6"><g style="stroke:#000000;stroke-width:0.176"><path d="M55.61,75.88L54.72,75.30L53.95,74.55L53.31,73.62L52.80,72.54L52.42,71.32L52.20,69.98L52.13,68.53L52.20,66.99L52.42,65.39L52.80,63.74L53.31,62.07L53.95,60.41L54.72,58.77L55.61,57.17L56.60,55.64L57.68,54.20L58.83,52.87L60.05,51.66L61.30,50.59L62.58,49.68L63.88,48.94L65.16,48.38L66.42,48.00L67.63,47.82L68.78,47.83L69.86,48.03L70.85,48.43"/><path d="M70.07,49.26L70.96,49.78L71.73,50.48L72.38,51.35L72.89,52.37L73.26,53.54L73.49,54.83L73.56,56.23L73.49,57.72L73.26,59.27L72.89,60.86L72.38,62.47L71.73,64.08L70.96,65.66L70.08,67.19L69.10,68.64L68.03,70.00L66.89,71.25L65.70,72.36L64.48,73.32L63.23,74.13L61.99,74.75L60.76,75.20L59.57,75.45L58.43,75.51L57.36,75.37L56.38,75.05L56.07,74.86"/></g><g style="stroke:#000000;stroke-width:0.529"><path d="M52.48,72.37L52.10,71.13L51.87,69.79L51.80,68.34L51.87,66.80L52.10,65.20L52.47,63.55L52.98,61.89L53.62,60.22L54.40,58.58L55.28,56.98L56.27,55.45L57.35,54.01L58.50,52.68L59.72,51.47L60.97,50.40L62.26,49.49L63.55,48.75L64.83,48.19L66.09,47.82L67.30,47.63L68.45,47.64L69.53,47.84L70.52,48.24L70.85,48.43L71.74,49.01L72.51,49.76L73.15,50.69L73.67,51.77L74.04,52.99L74.26,54.34L74.34,55.79L74.26,57.32L74.04,58.92L73.67,60.57L73.15,62.24L72.51,63.90L71.74,65.55L70.85,67.14L69.86,68.67L68.78,70.11L67.63,71.45L66.42,72.65L65.16,73.72L63.88,74.63L62.58,75.37L61.30,75.93L60.05,76.31L58.83,76.49L57.68,76.48L56.60,76.28L55.61,75.88L55.28,75.70L54.40,75.12L53.62,74.36L52.98,73.43L52.48,72.37"/><path d="M53.57,71.94L53.20,70.77L52.97,69.48L52.90,68.14L52.90,68.08L52.97,66.60L53.20,65.05L53.57,63.45L54.08,61.84L54.73,60.23L55.50,58.65L56.38,57.13L57.36,55.67L58.43,54.31L59.57,53.07L60.76,51.95L61.99,50.99L63.23,50.19L64.48,49.56L65.70,49.12L66.89,48.86L68.03,48.80L69.10,48.94L70.07,49.26L70.64,49.59L71.41,50.29L72.05,51.16L72.56,52.18L72.93,53.35L73.16,54.64L73.24,56.04L73.16,57.53L72.93,59.08L72.56,60.67L72.05,62.28L71.41,63.89L70.64,65.47L69.75,67.00L68.77,68.45L67.70,69.81L66.57,71.06L65.38,72.17L64.82,72.61L64.15,73.14L62.90,73.94L61.66,74.56L60.43,75.01L59.24,75.26L58.10,75.32L57.03,75.18L56.07,74.86L55.50,74.53L54.73,73.83L54.08,72.97L53.57,71.94"/></g></g><g id="Actor_.7"><g style="stroke:#000000;stroke-width:0.176"><path d="M83.53,98.35L82.71,97.50L81.95,96.41L81.33,95.17L80.85,93.79L80.51,92.27L80.32,90.64L80.28,88.91L80.40,87.09L80.66,85.22L81.07,83.29L81.62,81.34L82.31,79.39L83.13,77.45L84.08,75.53L85.13,73.67L86.29,71.88L87.54,70.18L88.87,68.57L90.27,67.09L91.71,65.75L93.20,64.55L94.70,63.51L96.21,62.64L97.72,61.95L99.20,61.45L100.65,61.14L102.04,61.02L103.37,61.10L104.62,61.37L104.75,61.41"/><path d="M106.75,62.38L105.59,61.92L104.34,61.65L103.01,61.57L101.62,61.69L100.17,62.00L98.69,62.51L97.18,63.20L95.67,64.06L94.16,65.10L92.67,66.31L91.23,67.65L89.84,69.13L88.51,70.73L87.26,72.43L86.10,74.23L85.04,76.09L84.10,78.00L83.28,79.94L82.59,81.90L82.03,83.85L81.62,85.77L81.36,87.65L81.25,89.46L81.29,91.19L81.47,92.82L81.81,94.34L82.29,95.72L82.92,96.97L83.67,98.05L84.56,98.97L85.56,99.71"/><path d="M82.29,93.83L82.21,93.61L81.92,92.09L81.76,90.46L81.76,88.74L81.92,86.94L82.21,85.08L82.66,83.18L83.25,81.26L83.97,79.35L84.82,77.44L85.79,75.58L86.86,73.78L88.04,72.05L89.30,70.41L90.64,68.89L92.03,67.49L93.47,66.23L94.94,65.13L96.42,64.19L97.91,63.43L99.37,62.85L100.82,62.45L102.21,62.25L103.55,62.24L104.81,62.43L105.61,62.69L104.88,62.65L103.49,62.77L102.04,63.08L100.56,63.58L99.37,64.13L99.05,64.27L97.54,65.14L96.03,66.18L94.55,67.38L93.11,68.72L91.71,70.20L90.38,71.80L89.13,73.51L87.97,75.30L86.92,77.16L85.97,79.07L85.15,81.02L84.46,82.97L83.91,84.92L83.50,86.84L83.23,88.72L83.12,90.53L83.16,92.27L83.35,93.90L83.68,95.41L84.17,96.80L84.79,98.04L85.09,98.47L84.82,98.26L83.97,97.33L83.25,96.24L82.66,94.99L82.29,93.83"/><path d="M88.45,101.37L87.45,100.63L86.57,99.71L85.81,98.63L85.19,97.39L84.71,96.00L84.37,94.48L84.18,92.85L84.15,91.12L84.26,89.31L84.52,87.43L84.93,85.51L85.48,83.56L86.17,81.60L87.00,79.66L87.94,77.75L89.00,75.89L90.15,74.10L91.41,72.39L92.73,70.79L94.13,69.31L95.57,67.96L97.06,66.76L98.56,65.73L100.08,64.86L101.58,64.17L103.07,63.67L104.51,63.35L105.91,63.23L107.24,63.31L108.49,63.58L109.65,64.04"/><path d="M84.72,94.95L84.58,94.32L84.39,92.71L84.36,91.01L84.47,89.22L84.73,87.37L85.13,85.47L85.68,83.55L86.36,81.62L87.17,79.70L88.10,77.82L89.14,75.98L90.28,74.22L91.52,72.54L92.83,70.96L94.20,69.50L95.63,68.17L97.09,66.99L98.57,65.97L100.07,65.11L101.55,64.43L103.01,63.93L104.44,63.63L105.81,63.51L107.13,63.58L108.36,63.85L109.50,64.31L110.18,64.70L108.90,64.62L107.48,64.74L106.02,65.06L104.51,65.57L102.98,66.27L102.31,66.65L101.45,67.15L99.92,68.20L98.42,69.42L96.95,70.78L95.54,72.28L94.19,73.91L92.92,75.63L91.75,77.45L90.68,79.34L89.72,81.28L88.89,83.25L88.19,85.23L87.62,87.23L87.21,89.16L86.94,91.06L86.83,92.90L86.87,94.65L87.06,96.31L87.40,97.85L87.89,99.25L88.52,100.51L89.16,101.43L88.61,101.11L87.62,100.38L86.75,99.48L86.00,98.41L85.39,97.18L84.91,95.82L84.72,94.95"/><path d="M86.77,100.29L86.43,100.04L85.55,99.12L85.09,98.47"/><path d="M114.02,66.21L112.84,65.74L111.58,65.46L110.23,65.39L108.81,65.51L107.35,65.82L105.84,66.33L104.32,67.03L102.78,67.91L101.26,68.97L99.75,70.18L98.29,71.55L96.87,73.05L95.52,74.67L94.26,76.40L93.08,78.22L92.01,80.10L91.05,82.04L90.22,84.01L89.52,86.00L88.96,87.97L88.54,89.92L88.28,91.83L88.16,93.66L88.20,95.42L88.39,97.07L88.73,98.61L89.22,100.02L89.85,101.27L90.62,102.37L91.52,103.30L92.53,104.05"/><path d="M89.60,101.94L89.29,101.61L89.16,101.43"/><path d="M115.18,66.94L114.41,66.63L113.14,66.36L111.79,66.28L110.38,66.40L108.91,66.72L107.41,67.23L105.88,67.93L104.35,68.81L102.82,69.86L101.32,71.08L99.85,72.44L98.44,73.94L97.09,75.57L95.82,77.30L94.64,79.11L93.57,81.00L92.62,82.94L91.78,84.91L91.08,86.90L90.52,88.87L90.11,90.82L89.84,92.72L89.73,94.56L89.76,96.32L89.96,97.97L90.30,99.51L90.79,100.91L91.42,102.17L92.18,103.27L93.08,104.20L93.62,104.60"/><path d="M95.45,105.73L94.43,104.98L93.54,104.05L92.77,102.95L92.14,101.69L91.65,100.28L91.31,98.75L91.12,97.09L91.08,95.34L91.19,93.50L91.46,91.60L91.88,89.64L92.44,87.67L93.14,85.68L93.97,83.71L94.93,81.78L96.00,79.89L97.17,78.07L98.44,76.34L99.79,74.72L101.20,73.22L102.67,71.85L104.17,70.64L105.70,69.59L107.23,68.71L108.76,68.01L110.26,67.50L111.73,67.18L113.14,67.06L114.49,67.14L115.76,67.41L116.94,67.88"/><path d="M118.13,69.26L116.65,68.40L115.50,67.95L114.27,67.68L112.96,67.61L111.59,67.72L110.16,68.03L108.70,68.53L107.21,69.21L105.72,70.06L104.24,71.09L102.77,72.27L101.35,73.60L99.97,75.06L98.66,76.64L97.43,78.32L96.29,80.08L95.24,81.92L94.31,83.80L93.50,85.72L92.82,87.65L92.28,89.57L91.87,91.47L91.62,93.32L91.50,95.10L91.54,96.81L91.73,98.42L92.06,99.91L92.53,101.28L93.15,102.50L93.89,103.57L94.76,104.48L95.75,105.21L97.11,105.98L96.61,105.47L95.86,104.39L95.23,103.15L94.75,101.76L94.41,100.24L94.23,98.61L94.19,96.88L94.30,95.07L94.56,93.19L94.97,91.27L95.53,89.33L96.22,87.36L97.04,85.42L97.98,83.51L99.04,81.65L100.20,79.86L101.45,78.15L102.78,76.55L104.17,75.07L105.62,73.72L107.10,72.53L108.60,71.49L110.12,70.62L111.63,69.93L113.11,69.43L114.56,69.11L115.95,68.99L117.28,69.07L118.53,69.34L119.13,69.58"/><path d="M99.52,107.72L98.52,106.98L97.64,106.06L96.88,104.97L96.26,103.73L95.77,102.35L95.44,100.83L95.25,99.20L95.21,97.47L95.32,95.66L95.59,93.78L96.00,91.86L96.55,89.91L97.24,87.95L98.06,86.01L99.01,84.10L100.06,82.23L101.22,80.44L102.47,78.74L103.80,77.14L105.20,75.66L106.64,74.31L108.12,73.11L109.63,72.07L111.14,71.21L112.65,70.52L114.13,70.01L115.58,69.70L116.97,69.58L118.30,69.66L119.55,69.93L120.71,70.39"/><path d="M95.96,100.53L95.88,100.10L95.73,98.47L95.73,96.75L95.88,94.95L96.18,93.09L96.62,91.19L97.21,89.27L97.93,87.35L98.78,85.45L99.75,83.59L100.83,81.79L101.75,80.43L102.00,80.06L103.26,78.42L104.60,76.90L105.99,75.50L107.43,74.24L108.90,73.14L110.39,72.20L111.87,71.44L113.34,70.85L114.78,70.46L116.18,70.26L117.51,70.25L118.77,70.44L119.58,70.70L118.85,70.66L117.45,70.78L116.01,71.09L114.52,71.59L113.02,72.28L111.77,72.99L111.50,73.15L110.00,74.19L108.51,75.38L107.90,75.96L107.07,76.73L105.67,78.21L104.35,79.81L103.28,81.26L103.09,81.52L101.94,83.31L100.88,85.17L99.93,87.08L99.11,89.03L98.42,90.98L97.87,92.93L97.46,94.85L97.20,96.73L97.08,98.54L97.12,100.27L97.31,101.91L97.65,103.42L98.13,104.81L98.75,106.05L99.05,106.48L98.78,106.27L97.93,105.34L97.21,104.25L96.62,103.00L96.18,101.62L95.96,100.53"/><path d="M97.88,106.67L97.50,106.39L97.11,105.98"/><path d="M99.05,106.48L99.51,107.13L100.39,108.05L100.74,108.30"/><path d="M107.95,108.27L104.86,106.50L103.92,105.86L103.10,105.04L102.41,104.04L101.86,102.90L101.44,101.60L101.18,100.18L101.06,98.65L101.10,97.03L101.29,95.33L101.63,93.58L102.12,91.81L102.74,90.02L103.50,88.24L104.38,86.50L105.37,84.82L106.46,83.21L107.64,81.69L108.89,80.29L110.20,79.02L111.55,77.89L112.92,76.93L113.61,76.51L114.30,76.14L115.68,75.52L117.03,75.10L118.34,74.87L119.59,74.84L120.77,75.00L121.86,75.36L122.85,75.91L125.94,77.68L124.95,77.13L123.86,76.77L122.68,76.61L121.43,76.64L120.12,76.87L118.77,77.30L117.39,77.91L116.70,78.28L116.01,78.70L114.64,79.67L113.29,80.79L111.98,82.06L110.73,83.46L109.55,84.98L108.46,86.59L107.47,88.27L106.59,90.01L105.83,91.79L105.21,93.58L104.72,95.36L104.38,97.10L104.19,98.80L104.15,100.42L104.27,101.96L104.53,103.38L104.95,104.67L105.50,105.82L106.19,106.81L107.01,107.63L107.95,108.27L108.99,108.72L110.13,108.99L111.34,109.05L112.25,108.96"/><path d="M101.94,99.41L102.01,99.54L102.13,99.72L102.27,99.90L102.42,100.05L102.58,100.19L102.74,100.29L102.90,100.37L103.05,100.41L103.19,100.43L103.32,100.40L103.43,100.35L103.52,100.26L103.61,100.11L103.64,100.01L103.66,99.84L103.66,99.65L103.64,99.46L103.59,99.25L103.52,99.04L103.43,98.84L103.32,98.64L103.19,98.46L103.05,98.30L102.90,98.16L102.74,98.06L102.58,97.98L102.42,97.94L102.27,97.93L102.13,97.96L102.01,98.02L101.90,98.11L101.82,98.24L101.77,98.38L101.74,98.55L101.74,98.74L101.77,98.93L101.80,99.08L101.90,99.34L101.94,99.41"/><path d="M116.90,107.26L115.54,107.95L114.19,108.46L112.88,108.78L111.62,108.91L110.42,108.85L109.30,108.59L108.30,108.16L107.35,107.51L106.55,106.70L105.87,105.73L105.32,104.60L104.91,103.32L104.65,101.93L104.54,100.42L104.58,98.82L104.76,97.15L105.10,95.43L105.23,94.95L105.58,93.68L106.19,91.92L106.94,90.17L107.80,88.45L108.78,86.79L109.85,85.21L111.01,83.72L112.24,82.34L113.53,81.09L114.86,79.98L116.21,79.03L116.90,78.62L117.58,78.25L118.93,77.65L120.26,77.23L121.55,77.00L122.78,76.97L123.94,77.13L125.01,77.48L125.99,78.02L126.86,78.74L127.60,79.64L128.21,80.69L128.69,81.90L129.03,83.23L129.21,84.69L129.25,86.24"/><path d="M105.61,62.69L106.21,62.72L107.46,62.99L108.01,63.21"/><path d="M107.00,100.53L107.24,101.66L107.65,102.78L108.20,103.74L108.88,104.54L109.69,105.17L110.60,105.61L111.61,105.86L112.70,105.91L113.85,105.77L115.05,105.43L116.28,104.90L117.51,104.19L118.74,103.31L119.94,102.28L121.09,101.10L122.18,99.80L123.19,98.39L124.11,96.90L124.91,95.35L125.59,93.76L126.14,92.17L126.56,90.58L126.82,89.03L126.93,87.54L126.90,86.13L126.71,84.82L126.37,83.64L125.89,82.59L125.27,81.71L124.52,80.99L123.66,80.46L122.70,80.11L121.65,79.96L120.52,80.01L119.35,80.25L118.35,80.60L118.13,80.68L116.90,81.30L115.66,82.10L114.45,83.06L113.27,84.17L112.14,85.41L111.09,86.77L110.13,88.22L109.53,89.28L109.27,89.74L108.52,91.31L107.91,92.91L107.42,94.50L107.09,96.07L106.90,97.60L106.86,99.05L106.97,100.41L107.00,100.53"/><path d="M106.86,98.88L106.97,100.16L107.23,101.38L107.63,102.48L108.07,103.24L108.15,103.26L109.20,103.32L110.31,103.18L111.46,102.85L112.64,102.34L113.83,101.66L115.00,100.82L116.16,99.82L117.27,98.69L118.32,97.43L119.29,96.08L119.84,95.19L120.17,94.65L120.94,93.16L121.60,91.63L122.13,90.10L122.52,88.57L122.78,87.08L122.89,85.65L122.85,84.29L122.67,83.03L122.34,81.90L121.88,80.89L121.33,80.10L121.78,80.16L122.23,80.81L122.70,81.83L123.03,82.99L123.22,84.27L123.25,85.65L123.14,87.13L122.88,88.63L122.48,90.19L121.94,91.75L121.27,93.31L120.49,94.83L121.28,93.31L121.95,91.76L122.49,90.19L122.89,88.63L123.15,87.11L123.26,85.65L123.23,84.26L123.04,82.98L122.71,81.82L122.24,80.80L121.79,80.16L122.39,80.25L123.34,80.59L124.18,81.11L124.91,81.81L125.52,82.68L125.99,83.70L126.32,84.87L126.51,86.15L126.55,87.53L126.44,88.99L126.18,90.51L125.77,92.07L125.23,93.64L124.56,95.19L123.77,96.71L122.88,98.17L121.89,99.55L120.82,100.83L119.69,101.99L118.51,103.00L117.31,103.87L117.24,103.91L116.10,104.56L114.89,105.08L113.72,105.41L112.59,105.55L111.52,105.50L110.53,105.26L109.63,104.82L108.84,104.21L108.34,103.62L109.30,103.67L110.43,103.53L111.61,103.20L112.81,102.68L114.03,101.98L115.23,101.12L116.41,100.10L117.54,98.95L118.60,97.67L119.59,96.29L118.60,97.66L117.53,98.94L116.40,100.09L115.23,101.11L114.02,101.97L112.81,102.67L111.61,103.18L110.44,103.52L109.31,103.66L108.33,103.61L108.34,103.62"/><path d="M108.07,103.24L108.17,103.42L108.33,103.61"/><path d="M110.18,64.70L110.24,64.70L110.86,64.83"/><path d="M121.33,80.10L120.26,80.15L119.10,80.38L117.91,80.81L116.78,81.38"/><path d="M119.59,96.29L120.41,94.95L120.49,94.83L119.59,96.29"/><path d="M119.58,70.70L120.18,70.73L121.43,71.00L121.98,71.22"/><path d="M121.79,80.16L121.78,80.16"/><path d="M122.59,71.46L122.63,71.49"/><path d="M125.94,77.68L126.82,78.41L127.57,79.32L128.20,80.39L128.39,80.87"/><path d="M129.25,86.08L129.25,86.03"/></g><g style="stroke:#000000;stroke-width:0.529"><path d="M73.69,88.30L73.59,87.78L73.46,86.64L73.41,85.45L73.43,84.08L73.52,82.82L73.68,81.52L73.92,80.21L74.23,78.87L74.61,77.53L75.06,76.17L75.57,74.82L76.14,73.48L76.78,72.15L77.47,70.85L78.22,69.57L79.02,68.32L79.86,67.12L80.74,65.97L81.66,64.86L82.62,63.82L83.60,62.84L84.60,61.92L85.63,61.08L86.66,60.32L87.71,59.63L88.89,58.95L89.94,58.44L90.98,58.01L92.02,57.67L93.03,57.43L94.02,57.29L94.21,57.27L95.18,57.22L96.11,57.27L97.01,57.42L97.86,57.66L98.06,57.72L98.87,58.06L104.75,61.41L105.78,61.83L106.75,62.38L107.81,63.03L108.01,63.21L108.62,63.46L109.65,64.04L110.70,64.69L110.86,64.83L111.51,64.97L112.69,65.44L114.02,66.21L115.09,66.86L115.18,66.94L115.58,67.10L116.94,67.88L118.01,68.54L118.96,69.38L119.13,69.58L119.69,69.80L120.71,70.39L121.77,71.04L121.98,71.22L122.59,71.46L123.67,72.08L124.41,72.56L125.25,73.26L125.87,73.91L126.42,74.65L126.91,75.47L127.42,76.54L127.77,77.50L128.05,78.53L128.25,79.62L128.39,80.87L128.68,81.61L129.02,82.97L129.21,84.45L129.25,86.24L129.14,87.88L128.88,89.58L128.47,91.32L127.92,93.08L127.24,94.83L126.44,96.57L125.51,98.26L124.49,99.88L123.37,101.42L122.17,102.86L120.91,104.18L119.60,105.36L118.26,106.39L116.70,107.37L115.32,108.07L113.96,108.59L112.63,108.92L112.25,108.96L111.78,109.19L110.73,109.62L109.69,109.96L108.67,110.20L107.67,110.35L106.50,110.41L105.56,110.36L104.66,110.22L103.79,109.98L103.60,109.91L102.78,109.57L101.39,108.79L100.74,108.30L100.63,108.27L99.52,107.72L98.50,107.13L97.88,106.67L97.80,106.66L96.57,106.29L95.45,105.73L94.10,104.95L93.62,104.60L92.53,104.05L91.20,103.29L90.18,102.54L89.60,101.94L88.45,101.37L87.43,100.78L86.77,100.29L86.67,100.26L85.56,99.71L84.59,99.15L83.59,98.41L83.53,98.35L78.14,95.27L77.41,94.79L76.58,94.09L75.96,93.44L75.41,92.71L74.92,91.90L74.42,90.84L74.07,89.88L73.80,88.86L73.69,88.30"/></g></g><g id="Actor_.8"><g style="stroke:#000000;stroke-width:0.176"><path d="M11.07,50.33L10.18,49.76L9.41,49.00L8.76,48.07L8.25,46.99L7.88,45.77L7.66,44.43L7.58,42.98L7.66,41.44L7.88,39.84L8.25,38.19L8.76,36.53L9.41,34.86L10.18,33.22L11.07,31.62L12.06,30.09L13.13,28.65L14.29,27.32L15.50,26.11L16.76,25.04L18.04,24.13L19.33,23.39L20.10,23.06L20.62,22.83L21.87,22.46L23.09,22.27L24.24,22.28L25.32,22.48L26.31,22.88"/><path d="M25.52,23.71L26.42,24.23L27.19,24.93L27.84,25.80L28.35,26.82L28.72,27.99L28.94,29.28L29.02,30.68L28.94,32.17L28.72,33.72L28.35,35.31L27.84,36.92L27.19,38.53L26.42,40.11L25.54,41.64L24.56,43.09L23.49,44.45L22.35,45.70L21.16,46.81L19.93,47.77L18.69,48.58L17.44,49.20L16.21,49.65L15.02,49.90L13.89,49.96L12.82,49.82L11.84,49.50L11.52,49.31"/></g><g style="stroke:#000000;stroke-width:0.529"><path d="M7.62,45.80L7.92,46.80L8.43,47.88L9.08,48.81L9.85,49.57L10.74,50.15L11.07,50.33L12.06,50.73L13.13,50.93L14.29,50.94L15.50,50.76L16.76,50.38L18.04,49.82L19.33,49.08L20.62,48.17L21.87,47.10L23.09,45.90L24.24,44.56L25.32,43.12L26.31,41.59L27.19,40.00L27.97,38.35L28.61,36.69L29.12,35.02L29.49,33.38L29.72,31.77L29.79,30.24L29.72,28.79L29.49,27.44L29.12,26.22L28.61,25.14L27.97,24.22L27.19,23.46L26.31,22.88L25.98,22.69L24.99,22.30L23.91,22.09L22.76,22.08L21.54,22.27L20.29,22.64L19.00,23.20L17.71,23.95L16.43,24.86L15.17,25.92L13.96,27.13L12.81,28.46L11.73,29.90L10.74,31.43L9.85,33.03L9.08,34.67L8.43,36.34L7.92,38.00L7.68,39.10L7.55,39.65L7.33,41.25L7.25,42.79L7.33,44.24L7.55,45.58L7.62,45.80"/><path d="M8.93,46.10L8.65,45.23L8.43,43.93L8.35,42.53L8.43,41.05L8.65,39.50L9.03,37.90L9.54,36.29L10.18,34.68L10.21,34.63L10.95,33.11L11.84,31.58L12.82,30.12L13.89,28.76L15.02,27.52L16.21,26.40L17.44,25.44L18.69,24.64L19.93,24.01L21.16,23.57L22.33,23.32L23.49,23.25L24.56,23.39L25.52,23.71L26.09,24.04L26.86,24.74L27.51,25.61L28.02,26.63L28.39,27.80L28.62,29.09L28.69,30.49L28.62,31.98L28.39,33.53L28.02,35.12L27.51,36.73L26.86,38.34L26.09,39.92L25.21,41.45L24.23,42.90L23.16,44.26L22.02,45.51L20.83,46.62L19.60,47.59L18.36,48.39L17.11,49.02L15.89,49.46L14.69,49.71L13.56,49.77L12.49,49.64L11.52,49.31L10.95,48.98L10.18,48.28L9.54,47.42L9.03,46.39L8.93,46.10"/></g></g><g><g><path style="stroke:#000000;stroke-width:0.125;stroke-dasharray:2.2 1.5 0.7 1.5" d="M18.52,36.51L32.33,44.43"/><path style="stroke:#000000;stroke-width:0.125;stroke-dasharray:2.2 1.5 0.7 1.5" d="M33.72,45.23L55.02,57.45"/><path style="stroke:#000000;stroke-width:0.125;stroke-dasharray:2.2 1.5 0.7 1.5" d="M77.70,70.46L55.90,57.95"/></g></g><g><g><path style="stroke:#000000;stroke-width:0.125;stroke-dasharray:2.2 1.5 0.7 1.5" d="M109.77,88.85L132.50,101.88"/><path style="stroke:#000000;stroke-width:0.125;stroke-dasharray:2.2 1.5 0.7 1.5" d="M134.93,103.28L163.45,119.64"/><path style="stroke:#000000;stroke-width:0.125;stroke-dasharray:2.2 1.5 0.7 1.5" d="M195.86,138.23L166.69,121.50"/><path style="stroke:#000000;stroke-width:0.125;stroke-dasharray:2.2 1.5 0.7 1.5" d="M198.44,139.71L227.85,156.58"/><path style="stroke:#000000;stroke-width:0.125;stroke-dasharray:2.2 1.5 0.7 1.5" d="M231.09,158.44L261.32,175.77"/><path style="stroke:#000000;stroke-width:0.125;stroke-dasharray:2.2 1.5 0.7 1.5" d="M273.23,182.61L263.75,177.17"/></g></g><g><g><path style="stroke:#000000;stroke-width:0.125" d="M118.86,148.34L131.04,124.30"/></g><g><path style="fill:#000000" d="M131.79,124.30L131.79,124.23L131.78,124.16L131.76,124.08L131.74,124.01L131.71,123.95L131.67,123.89L131.62,123.83L131.57,123.77L131.52,123.72L131.46,123.68L131.40,123.64L131.33,123.61L131.26,123.58L131.19,123.57L131.12,123.56L131.04,123.55L130.97,123.56L130.90,123.57L130.83,123.58L130.76,123.61L130.69,123.64L130.63,123.68L130.57,123.72L130.51,123.77L130.46,123.83L130.42,123.89L130.38,123.95L130.35,124.01L130.33,124.08L130.31,124.16L130.30,124.23L130.29,124.30L130.30,124.38L130.31,124.45L130.33,124.52L130.35,124.59L130.38,124.66L130.42,124.72L130.46,124.78L130.51,124.83L130.57,124.88L130.63,124.93L130.69,124.96L130.76,124.99L130.83,125.02L130.90,125.04L130.97,125.05L131.04,125.05L131.12,125.05L131.19,125.04L131.26,125.02L131.33,124.99L131.40,124.96L131.46,124.93L131.52,124.88L131.57,124.83L131.62,124.78L131.67,124.72L131.71,124.66L131.74,124.59L131.76,124.52L131.78,124.45L131.79,124.38z"/></g><g><text xml:space="preserve" fill="#000000" stroke-width="0" x="110.14" y="153.77" font-size="3.77" opacity="1.00" font-family="Arial">KIT0393</text></g></g><g/><g><g/><g><text xml:space="preserve" fill="#000000" stroke-width="0" x="7.92" y="12.61" font-size="4.53" opacity="1.00" font-family="Arial" font-weight="bold">BPA28899</text></g></g><g id="paperID" visibility="hidden" opacity="0.00" transform="scale(0.000100)"><path style="stroke:#000000;stroke-width:0.500;fill:#e6e6e6;fill-rule:evenodd" d="M-2000.00,-2000.00L2297.00,-2000.00L2297.00,2210.00L-2000.00,2210.00zM0.00,0.00L297.00,0.00L297.00,210.00L0.00,210.00z"/><path style="fill:#000000;fill-opacity:0.118" d="M3.00,210.00L297.00,210.00L297.00,3.00L300.00,3.00L300.00,213.00L3.00,213.00z"/></g><g id="hotspot.0" onmouseover="ShowHotSpot(evt,'0')" onmouseout="HideHotSpot(evt,'0')" onmousemove="ShowToolTip(evt,'0',&quot;Hotspot 1&quot;)" opacity="0"><path style="fill:#00ff00;fill-rule:evenodd" d="M25.15,22.34L26.61,23.08L27.91,24.15L29.16,26.37L29.71,28.74L29.71,31.90L29.53,33.36L28.79,36.10L27.83,38.60L26.43,41.40L24.05,44.87L21.87,47.08L19.77,48.81L16.92,50.35L15.04,50.84L12.54,50.85L10.89,50.30L9.64,49.36L8.54,48.08L7.97,47.01L7.43,44.81L7.43,40.67L7.96,37.92L8.88,35.19L10.84,31.30L12.55,28.81L14.57,26.62L16.14,25.09L18.69,23.44L21.24,22.34L22.35,22.16L24.23,22.16zM46.89,34.94L48.89,35.86L50.19,37.12L51.26,38.79L51.99,41.53L51.99,45.24L51.81,46.33L50.90,49.80L49.44,53.09L47.56,56.14L46.09,57.96L44.80,59.41L42.52,61.33L40.67,62.41L38.47,63.31L36.96,63.63L35.37,63.63L34.27,63.46L32.28,62.52L30.82,61.05L30.07,59.79L29.52,58.16L29.35,57.23L29.35,52.91L30.07,49.61L31.36,46.33L33.13,43.17L34.85,40.88L35.94,39.59L37.51,38.05L39.88,36.41L41.58,35.56L43.35,34.95L44.45,34.77L45.78,34.77zM69.72,47.91L71.17,48.65L72.48,49.72L73.74,51.93L74.28,54.31L74.28,57.29L73.74,60.40L72.81,63.13L71.72,65.51L70.26,68.07L68.25,70.81L66.72,72.38L65.43,73.47L63.86,74.64L61.44,75.87L59.43,76.41L57.29,76.41L56.37,76.24L54.57,75.30L53.27,73.86L52.36,72.03L52.17,71.49L52.00,70.38L52.00,66.06L52.53,63.31L53.82,59.85L55.30,56.95L57.58,53.75L59.68,51.46L62.40,49.44L64.59,48.34L66.73,47.74L68.98,47.74zM152.27,88.47L153.92,89.02L156.68,90.64L158.14,91.92L159.23,93.56L159.94,95.04L160.68,98.15L160.68,102.77L160.49,104.23L159.76,107.52L158.12,112.09L156.29,115.56L154.46,118.48L151.73,121.95L150.28,123.43L147.08,126.08L144.44,127.63L143.09,128.29L140.53,129.02L138.70,129.20L137.84,129.20L135.82,128.85L133.27,127.56L130.49,125.59L129.07,122.99L128.34,120.44L128.16,119.15L128.16,114.83L128.65,111.67L129.93,107.28L132.00,102.77L134.03,99.51L135.68,97.32L137.59,95.03L139.43,93.22L142.35,91.03L144.91,89.56L148.01,88.46L149.29,88.29L151.36,88.29zM183.14,106.19L184.79,106.73L187.71,108.37L189.74,109.82L190.84,111.28L192.10,113.85L192.64,116.42L192.64,121.22L192.27,123.60L191.17,127.61L189.66,131.21L188.44,133.64L186.61,136.56L184.42,139.49L181.79,142.15L180.50,143.24L178.42,144.81L176.20,146.06L174.00,146.97L171.76,147.47L169.26,147.47L167.61,147.11L165.42,146.01L162.51,144.17L161.04,142.54L159.76,139.98L159.21,137.60L159.03,135.59L159.03,134.01L159.34,130.66L160.49,126.33L162.08,122.26L164.43,118.04L166.27,115.49L168.09,113.29L170.85,110.57L173.82,108.43L176.75,106.98L178.52,106.37L180.35,106.00L181.86,106.00zM216.39,124.99L218.58,126.09L220.61,127.54L222.05,129.57L222.96,131.94L223.51,134.86L223.51,138.03L223.33,139.67L222.59,143.14L221.32,146.98L219.49,150.81L217.48,154.09L215.29,157.02L211.93,160.42L209.10,162.52L206.53,163.97L203.96,164.87L201.90,165.18L200.50,165.18L199.21,165.01L197.03,164.09L195.40,163.16L194.12,162.06L192.83,160.07L191.90,157.71L191.55,155.68L191.54,150.99L192.03,147.83L193.37,143.50L195.02,139.85L196.40,137.40L198.68,134.02L200.97,131.38L202.99,129.38L205.92,127.19L209.08,125.61L211.40,124.82L212.49,124.63L214.74,124.64zM248.72,143.44L249.81,143.99L253.67,146.35L255.13,148.00L255.66,148.93L256.57,151.12L257.12,154.04L257.12,157.57L256.75,160.13L255.79,163.91L254.50,167.19L252.56,171.09L250.54,174.19L248.53,176.75L246.91,178.41L244.99,180.14L242.79,181.78L239.71,183.45L237.93,184.04L236.42,184.36L233.19,184.37L231.55,183.81L229.74,182.88L227.37,181.42L225.90,180.15L224.97,178.70L224.05,176.52L223.69,175.05L223.51,173.77L223.51,169.63L224.05,166.15L225.46,161.53L227.16,157.93L229.10,154.57L230.66,152.48L232.02,150.74L235.51,147.28L238.97,144.91L241.71,143.62L243.91,143.08L247.44,143.08zM124.35,151.28L124.27,152.21L124.51,152.57L124.52,153.38L124.10,153.88L123.22,153.87L122.65,153.30L122.64,153.10L123.04,153.11L123.25,153.30L123.97,153.38L123.99,152.74L123.33,152.43L123.33,152.24L124.00,151.92L124.00,151.66L123.79,151.45L123.37,151.48L123.15,151.86L122.87,151.87L122.85,151.17L124.17,151.10zM122.33,151.47L122.33,153.38L121.89,153.85L121.03,153.87L120.67,153.67L120.61,153.11L121.01,153.13L121.18,153.36L121.79,153.37L121.79,152.95L120.86,152.76L120.67,152.58L120.67,151.36L120.97,151.11L121.97,151.11zM120.14,151.48L120.08,152.21L120.33,152.76L120.27,153.32L119.72,153.87L118.83,153.88L118.45,153.50L118.42,153.11L118.82,153.13L118.99,153.36L119.72,153.31L119.77,152.77L119.13,152.44L119.14,152.24L119.62,151.91L119.59,151.48L119.15,151.45L118.86,151.89L118.42,151.72L118.47,151.37L118.78,151.11L119.77,151.11zM118.12,151.85L118.13,153.20L117.69,153.86L116.82,153.87L116.48,153.67L116.28,153.14L116.28,151.72L116.57,151.10L117.78,151.10zM113.82,151.35L113.83,151.13L116.14,151.13L116.14,151.35L115.31,151.48L115.19,153.94L114.78,153.94L114.66,151.48zM111.00,152.11L112.02,151.10L112.64,151.10L111.66,152.20L112.67,153.69L112.64,153.93L112.09,153.86L111.34,152.76L111.00,152.80L110.81,153.94L110.39,153.94L110.39,151.10L110.81,151.09zM113.35,153.95L113.14,153.95L113.14,151.09L113.35,151.09zM282.15,162.62L285.43,164.45L286.92,165.71L288.36,167.92L289.27,170.66L289.64,174.15L289.27,178.39L288.71,180.76L287.26,185.15L285.74,188.38L283.60,191.90L281.72,194.41L279.60,196.86L276.95,199.14L273.92,201.23L270.99,202.50L268.75,202.99L265.89,202.99L264.42,202.63L263.17,202.06L260.79,200.60L259.51,199.51L258.22,197.51L257.47,195.70L257.12,194.04L256.94,192.58L256.94,189.35L257.48,185.51L258.58,181.68L260.35,177.60L262.70,173.57L264.27,171.48L266.18,169.19L268.39,167.01L271.31,164.82L273.86,163.36L276.60,162.44L277.52,162.26L280.87,162.26zM25.14,23.63L26.24,24.17L27.35,25.43L28.07,26.73L28.61,28.92L28.61,32.09L28.43,33.36L27.52,36.84L25.69,40.67L23.32,44.14L21.69,45.80L20.04,47.26L18.20,48.52L16.15,49.39L14.13,49.74L13.27,49.74L12.16,49.57L10.91,49.00L9.64,47.53L8.88,45.91L8.52,44.45L8.52,40.49L9.25,37.19L10.89,33.18L13.38,29.46L14.84,27.81L16.50,26.18L18.33,24.91L20.39,23.86L21.80,23.44L23.51,23.28zM47.25,36.22L48.91,37.30L49.98,39.15L50.53,41.34L50.53,44.51L50.17,46.70L49.43,49.07L48.16,52.00L46.70,54.55L44.43,57.58L42.24,59.60L39.53,61.44L36.78,62.35L34.64,62.35L33.54,61.98L32.28,61.05L31.35,59.43L30.98,58.34L30.81,57.42L30.81,53.64L31.53,50.16L33.18,46.15L35.30,42.78L37.49,40.23L38.84,39.03L40.62,37.69L42.26,36.78L43.71,36.22L44.63,36.05L46.52,36.05zM69.90,49.20L70.81,49.75L72.09,51.20L72.81,53.04L73.18,54.68L73.18,57.47L72.63,60.39L71.66,63.26L69.90,66.79L67.70,69.90L66.08,71.56L64.07,73.20L61.86,74.46L59.98,75.14L56.73,75.14L55.48,74.57L54.18,73.13L53.45,71.67L53.09,70.02L53.09,65.88L53.63,63.31L54.92,59.85L56.69,56.69L57.86,55.12L58.87,53.93L59.97,52.67L62.54,50.66L64.54,49.56L66.18,49.01L68.25,48.83zM154.29,90.65L155.54,91.59L156.66,93.21L157.57,95.41L158.12,98.51L158.12,101.13L157.57,104.97L157.02,106.97L155.56,110.99L153.91,114.09L151.73,117.57L148.63,121.23L146.08,123.43L144.05,124.87L141.26,126.28L138.70,127.01L135.47,127.01L134.55,126.84L133.66,126.27L132.36,124.64L131.26,122.09L130.90,120.43L130.66,117.14L131.21,112.76L132.49,108.38L134.50,103.99L137.31,99.69L139.05,97.58L140.71,95.77L143.64,93.40L145.88,92.00L148.02,91.03L150.02,90.48L151.90,90.29zM186.26,108.55L186.82,109.09L188.08,111.12L188.99,113.49L189.35,116.05L189.35,118.85L188.80,122.50L187.70,126.33L185.88,130.54L183.43,134.66L180.95,137.84L179.51,139.32L177.59,141.06L175.49,142.62L172.92,144.06L170.36,144.97L167.73,145.28L165.96,145.10L165.25,144.71L164.17,143.43L163.04,141.08L162.68,139.62L162.50,138.33L162.50,134.01L162.99,130.84L163.78,127.98L165.24,124.33L167.43,120.30L169.46,117.40L171.47,115.03L173.59,112.94L176.51,110.75L179.67,109.16L182.54,108.38L185.33,108.38zM216.20,128.11L217.69,128.99L218.78,130.28L219.85,132.50L220.40,135.05L220.40,138.39L220.22,139.85L219.49,143.14L217.79,147.65L215.42,151.85L212.92,155.20L210.65,157.50L207.81,159.77L204.15,161.59L201.53,162.08L200.49,162.08L199.39,161.91L197.96,161.33L196.49,160.06L195.38,158.25L194.83,156.42L194.65,155.32L194.65,150.81L195.37,146.97L196.84,142.96L198.30,140.04L199.97,137.32L202.06,134.66L204.16,132.38L205.26,131.46L208.29,129.38L210.67,128.29L213.04,127.74L214.74,127.74zM250.37,145.45L251.48,146.35L252.92,148.93L253.65,151.85L253.65,157.02L252.92,160.68L251.64,164.51L249.81,168.35L247.72,171.74L245.25,174.92L243.62,176.58L241.33,178.49L239.97,179.51L237.51,180.89L235.15,181.82L232.95,182.17L231.37,182.17L230.26,182.00L229.55,181.61L228.44,180.16L227.33,177.62L226.98,175.78L226.73,172.86L227.16,169.08L228.07,165.23L230.09,160.31L232.59,156.06L234.58,153.48L236.04,151.83L238.25,149.66L241.23,147.52L243.79,146.25L246.10,145.46L247.38,145.27L249.45,145.28zM121.81,151.63L121.98,152.09L121.70,152.41L121.23,152.41L121.03,152.20L121.03,151.74L121.35,151.46zM117.59,151.65L117.52,153.32L116.83,153.32L116.81,151.70L116.97,151.48L117.39,151.45zM283.61,164.81L285.08,166.44L286.35,169.01L286.89,171.76L286.89,175.65L286.71,177.11L285.79,180.94L284.15,185.34L281.95,189.35L279.04,193.37L277.32,195.12L275.13,197.14L271.86,199.34L268.76,200.63L266.56,200.98L264.97,200.98L263.13,200.63L261.70,199.33L260.79,197.86L259.85,195.15L259.68,193.86L259.68,188.99L260.21,185.87L261.44,181.99L263.14,178.21L265.54,174.39L267.64,171.75L269.10,170.10L270.45,168.90L272.27,167.43L273.93,166.34L276.12,165.24L278.43,164.45L279.35,164.27L281.96,164.27z"/></g></g></svg>
