<?xml version="1.0" encoding="UTF-8" standalone="no"?>
<svg xmlns="http://www.w3.org/2000/svg" xmlns:xlink="http://www.w3.org/1999/xlink" width="297.000mm" height="210.000mm" viewBox="0.000000 0.000000 297.000000 210.000000" stroke-linejoin="round" stroke-linecap="round" fill="none" fill-rule="evenodd"><desc>Composer Export</desc><script type="text/ecmascript"><![CDATA[
if(typeof(top) != "undefined")
{
	top.ShowPaper = ShowPaper;
}
function ShowPaper()
{
  var svgDocument = getDocument();
  var paper = svgDocument.getElementById("paperID");
  if(paper)
  {
    paper.setAttribute("transform","scale(1)");
    paper.setAttribute("opacity","1");
    paper.setAttribute("visibility","visible");
  }
  var svg = svgDocument.getRootElement();
  if(svg)
  {
    svg.setAttribute("width","307.000mm");
    svg.setAttribute("height","220.000mm");
    svg.setAttribute("viewBox","-5.000000 -5.000000 307.000000 220.000000");
  }
}
]]></script><defs/><g><path style="fill:#000000;fill-opacity:0.098;fill-rule:evenodd" d="M126.54,27.28L129.15,26.28L129.12,27.63zM132.53,31.79L132.03,31.78L132.64,31.02zM140.63,159.58L139.10,160.30L137.27,160.82L137.60,29.60L137.77,28.02L140.78,26.73L141.11,26.77zM115.66,169.05L92.60,170.53L92.69,170.05L96.10,166.19L112.20,165.21zM128.55,175.51L129.90,175.69L129.90,176.26L125.09,176.16L125.05,175.94L127.54,174.93L128.36,174.94zM173.78,179.92L174.95,179.94L188.46,174.23L188.71,173.93L188.98,173.92L188.91,174.68L184.75,176.52L184.49,186.49L184.17,187.91L169.96,193.90L164.46,193.73L164.24,193.41L164.21,192.88L169.29,192.99L169.29,181.16L153.48,182.16L153.31,184.74L129.37,194.71L128.54,194.99L128.53,181.91L141.59,182.17L149.49,182.17L153.97,176.92L170.27,175.94zM91.26,180.16L91.49,180.42L90.98,180.44L86.71,179.67L86.72,190.18L87.39,190.18L101.10,184.41L101.43,181.15L101.45,184.76L100.98,185.54L87.15,191.41L81.46,191.16L81.38,190.40L86.48,190.41L86.21,179.68L77.19,177.94L76.90,177.67L77.99,177.68zM121.90,181.66L122.05,184.51L125.89,184.65L126.12,185.76L126.57,184.65L126.88,184.60L127.15,184.88L127.13,188.98L114.65,194.22L113.83,194.50L113.82,181.41zM73.26,182.72L73.02,182.69L72.73,183.79L72.43,183.78L72.76,181.47L73.24,181.39zM73.01,184.22L73.25,183.39L73.18,184.93L70.74,184.93L69.98,184.65L69.92,184.15L70.65,184.45zM208.97,187.88L209.28,188.31L194.47,187.91L190.19,187.64L190.14,187.40zM209.28,188.31L210.45,188.25L210.66,186.20L210.89,185.88L211.17,185.88L211.20,188.75L210.86,189.15L209.69,189.15zM139.61,155.68L139.61,157.11L139.37,157.35L139.37,155.44zM141.10,186.05L140.87,186.28L140.79,184.62L141.07,184.62zM184.25,186.25L183.98,186.97L170.45,192.66L169.70,192.75L169.69,181.16L174.70,180.69L184.27,176.69z"/><g id="Actor_.0"><g style="stroke:#000000;stroke-width:0.176"><path d="M131.74,31.83L131.65,31.85L131.40,31.82L131.16,31.71L130.98,31.53L130.85,31.29L130.81,31.03L130.86,30.77L130.98,30.55L131.17,30.37L131.40,30.28L131.66,30.26L131.90,30.33L132.12,30.48L132.28,30.70L132.36,30.95L132.37,31.08L132.36,31.21L132.27,31.46L132.12,31.66L131.90,31.79L131.74,31.83"/><path d="M131.09,30.12L131.41,29.99L131.75,29.97L132.06,30.06"/><path d="M132.09,32.00L132.07,32.01L132.36,31.83L132.57,31.56L132.66,31.30"/><path d="M132.69,31.10L132.69,31.08"/><path d="M132.64,30.76L132.61,30.68"/><path d="M132.49,30.44L132.42,30.35"/><path d="M132.28,30.21L132.09,30.08"/></g><g style="stroke:#000000;stroke-width:0.529"><path d="M131.54,29.93L131.09,30.12L130.84,30.35L130.68,30.65L130.62,31.00L130.68,31.34L130.84,31.66L131.09,31.90L131.40,32.05L131.74,32.09L132.07,32.01"/><path d="M132.31,31.91L132.09,32.00"/></g></g><g id="Actor_.1"><g style="stroke:#000000;stroke-width:0.176"><path d="M86.67,179.63L87.83,179.85L76.83,177.77"/><path d="M92.04,180.65L91.60,180.49L91.21,180.23L90.89,179.90L90.68,179.58L88.51,174.91L78.86,173.13"/><path d="M88.51,174.91L89.08,174.87L84.68,174.06"/><path d="M88.61,180.00L88.98,180.07L87.83,179.85L88.61,180.00"/><path d="M88.98,180.07L90.52,180.36"/><path d="M148.67,182.38L149.03,182.30L149.44,182.11L149.85,181.79L150.13,181.49L150.41,181.11L153.89,176.88L170.15,175.89L169.81,175.82L153.55,176.82L150.06,181.05L149.50,181.44L148.82,181.69L148.37,181.73L92.51,180.05L91.89,179.90L91.37,179.55L91.13,179.27L89.08,174.87"/><path d="M90.14,180.29L90.74,180.40"/><path d="M91.73,171.07L92.42,170.44L95.92,166.21L95.57,166.15"/><path d="M95.92,166.21L112.17,165.22"/><path d="M125.88,176.26L125.14,176.20L124.87,176.15L124.76,176.10L124.80,176.04L127.42,174.95L127.62,174.90L127.97,174.86L128.42,174.83L129.45,174.82L139.68,175.13L140.56,175.20L140.82,175.24L140.94,175.30L140.89,175.36L139.82,175.80"/><path d="M153.55,176.82L153.89,176.88"/><path d="M165.18,181.37L166.41,181.29L165.43,181.35"/><path d="M166.41,181.29L174.25,180.81L174.24,180.81L174.16,180.70L173.81,180.00L173.97,180.10L174.28,180.15L188.56,174.18L188.57,174.09L188.53,173.78L188.51,173.72L186.28,168.94L186.86,168.90"/><path d="M170.15,175.89L173.62,179.69L173.81,180.00"/><path d="M174.29,180.81L174.25,180.81"/><path d="M176.63,167.16L186.28,168.94"/></g><g style="stroke:#000000;stroke-width:0.529"><path d="M90.52,180.36L91.30,180.51L77.01,177.89L76.87,177.83L76.75,177.66L76.68,177.42L76.69,177.11L76.79,176.77L78.86,173.13L79.44,173.10L84.68,174.06"/><path d="M84.68,174.06L91.41,171.25L91.73,171.07L91.92,170.65L92.08,170.38L95.56,166.15L111.83,165.15L112.17,165.22L115.63,169.02L116.20,169.37L116.88,169.62L117.33,169.67L160.08,170.96"/><path d="M90.74,180.40L92.04,180.65L92.51,180.71L148.37,182.40L174.29,180.81L188.55,174.85L188.67,174.79L188.82,174.65L188.95,174.40L189.01,174.08L189.00,173.70L188.91,173.30L186.86,168.90L177.21,167.13L176.63,167.16L174.56,170.80L174.33,171.01L173.81,171.27L173.18,171.35L161.12,170.99"/><path d="M125.96,176.26L125.88,176.26L127.42,175.61L127.62,175.56L128.42,175.49L129.45,175.49L139.82,175.80L138.28,176.45L138.07,176.50L137.72,176.54L137.27,176.57L136.24,176.57L125.96,176.26"/><path d="M164.10,181.44L165.18,181.37"/><path d="M165.26,181.37L165.43,181.35"/></g></g><g id="Actor_.2"><g style="stroke:#000000;stroke-width:0.176"><path d="M190.30,185.73L190.22,185.90L190.16,186.15L190.11,186.48L190.10,186.83L190.11,187.17L190.15,187.46L190.21,187.68L190.29,187.79"/><path d="M210.87,185.51L210.86,185.74L210.80,185.95L210.71,186.19L210.63,186.52L210.58,186.91L210.55,187.32L210.51,187.74L210.38,188.24L209.33,188.20L209.59,188.90"/><path d="M209.33,188.20L209.39,186.35L210.44,186.39L210.67,186.15L210.80,185.95L210.90,185.80L211.00,185.76L211.10,185.83L211.19,185.99"/><path d="M209.39,186.26L209.34,186.44L209.28,186.93L209.25,187.45L209.27,187.96L209.32,188.38"/><path d="M209.70,185.72L209.39,186.35"/><path d="M210.44,186.39L210.54,186.89L210.55,187.32L210.55,187.73L210.58,188.12L210.63,188.47L210.70,188.73L210.79,188.90L210.89,188.96L210.99,188.92L211.09,188.77"/><path d="M210.74,189.21L210.75,188.95L210.70,188.73L210.59,188.50L210.38,188.24"/></g><g style="stroke:#000000;stroke-width:0.529"><path d="M190.68,187.81L190.29,187.79L190.16,187.64L190.09,187.55L190.03,187.36L190.00,187.10L189.99,186.81L190.01,186.51L190.04,186.23L190.10,186.01L190.17,185.86L190.30,185.73L190.39,185.67L209.39,186.26L209.44,186.06L209.50,185.91L209.56,185.80L209.69,185.72L209.70,185.72L209.82,185.47L210.87,185.51L211.08,185.77L211.19,185.99L211.26,186.25L211.31,186.60L211.34,186.99L211.34,187.41L211.31,187.81L211.26,188.20L211.18,188.53L211.09,188.77L210.96,188.97L210.74,189.21L209.69,189.18L209.59,188.90L209.54,188.90L209.42,188.73L209.33,188.41L209.32,188.38L190.68,187.81"/></g></g><g id="Actor_.3"><g style="stroke:#000000;stroke-width:0.176"><path d="M70.66,181.53L70.62,181.58L70.50,181.83L70.44,182.08L70.44,182.38L70.33,182.87L70.30,183.29L70.31,183.70L70.35,184.07L70.41,184.38L70.49,184.59L70.43,184.42L70.43,184.22L71.98,184.27L72.05,183.97"/><path d="M70.43,184.22L70.33,183.72L70.30,183.29L70.31,182.88L70.35,182.47L70.42,182.11L70.50,181.83L70.60,181.63L70.62,181.58"/><path d="M70.49,184.59L70.58,184.72"/><path d="M70.44,182.38L71.99,182.42L72.05,182.73"/><path d="M70.30,181.51L70.30,181.51"/><path d="M72.64,183.47L72.65,183.39L72.66,183.08L72.65,182.89"/><path d="M72.73,182.44L72.73,182.47L72.77,182.72L72.77,182.75L72.78,183.07L72.77,183.41L72.77,183.43L72.73,183.73L72.72,183.76L72.68,183.94"/><path d="M72.73,183.73L72.75,183.59L72.77,183.43"/><path d="M71.98,184.27L72.10,184.38"/><path d="M72.68,183.94L72.70,183.89L72.72,183.76"/><path d="M72.75,183.59L72.75,183.59"/><path d="M72.70,183.89L72.70,183.89"/><path d="M72.77,183.41L72.78,183.25L72.79,183.07L72.78,182.90L72.77,182.75"/><path d="M72.77,182.72L72.76,182.58L72.73,182.47"/><path d="M71.99,182.42L72.12,182.25"/><path d="M72.78,182.90L72.78,182.90"/><path d="M72.76,182.58L72.76,182.58"/><path d="M72.78,183.25L72.78,183.25"/><path d="M72.39,181.34L72.39,181.34"/></g><g style="stroke:#000000;stroke-width:0.529"><path d="M70.30,181.51L70.23,181.52L70.17,181.55L70.05,181.65L70.00,181.69L69.97,181.75L69.87,181.98L69.78,182.34L69.72,182.78L69.70,183.26L69.72,183.72L69.77,184.11L69.86,184.40L69.88,184.45L69.99,184.61L70.04,184.66L70.10,184.69L70.16,184.70L70.58,184.72L70.61,184.77L70.83,184.97L72.28,185.02"/><path d="M70.30,181.51L70.66,181.53L70.84,181.29L72.39,181.34L72.39,181.34"/></g></g><g id="Actor_.4"><g style="stroke:#000000;stroke-width:0.529"><path d="M129.91,176.38L129.91,175.50"/></g></g><g id="Actor_.5"><g style="stroke:#000000;stroke-width:0.176"><path d="M121.96,184.54L121.96,184.54"/></g><g style="stroke:#000000;stroke-width:0.529"><path d="M127.17,184.69L121.96,184.54L121.96,181.60"/></g></g><g id="Actor_.6"><g style="stroke:#000000;stroke-width:0.176"><path d="M112.41,181.31L113.70,181.35L113.67,194.64"/><path d="M126.37,184.67L126.35,185.06L126.31,185.40L126.24,185.68L126.15,185.87L126.06,185.94L125.97,185.88L125.89,185.71L125.84,185.44L125.81,185.10L125.80,184.92L125.81,184.73L125.82,184.65"/><path d="M125.88,176.26L127.42,175.61"/></g><g style="stroke:#000000;stroke-width:0.529"><path d="M112.41,181.31L112.37,194.60L113.67,194.64L127.15,189.00"/></g></g><g id="Actor_.7"><g style="stroke:#000000;stroke-width:0.176"><path d="M141.02,26.66L140.97,26.72L138.49,27.75L138.28,27.81L137.49,27.87L136.46,27.88L126.74,27.59L125.87,27.52L125.60,27.47L125.49,27.42"/><path d="M126.18,27.38L128.67,26.35L128.79,26.31L129.27,26.27L129.89,26.27L139.60,26.56L140.12,26.60L140.28,26.63L140.35,26.66L140.32,26.70L137.84,27.73L137.72,27.77L137.25,27.81L136.62,27.81L126.91,27.52L126.62,27.50L126.22,27.45L126.16,27.42L126.18,27.38"/><path d="M131.49,32.06L131.66,32.11L132.02,32.09L132.19,32.02L131.86,32.16L131.50,32.18L131.15,32.08L130.84,31.86L130.62,31.56L130.50,31.21L130.51,30.84L130.62,30.49L130.85,30.20L131.15,30.01L131.24,29.99L131.01,30.13L130.85,30.34"/><path d="M130.76,30.49L130.84,30.36"/><path d="M132.19,32.02L132.46,31.78L132.63,31.45L132.69,31.09L132.63,30.72L132.46,30.39L132.20,30.13L131.86,29.97L131.50,29.93L131.24,29.99"/><path d="M139.44,157.23L139.53,157.05L139.60,156.77L139.64,156.42L139.66,156.05L139.64,155.69L139.60,155.38L139.53,155.16L139.45,155.04L139.36,155.05L139.27,155.18L139.19,155.41L139.13,155.73L139.10,156.10L139.10,156.47L139.13,156.81L139.19,157.08L139.26,157.25L139.35,157.30L139.44,157.23"/></g><g style="stroke:#000000;stroke-width:0.529"><path d="M140.89,74.81L141.02,26.66L140.91,26.61L140.64,26.56L139.77,26.49L130.05,26.20L129.02,26.21L128.28,26.27L128.02,26.33L125.54,27.36L125.49,27.42L125.12,160.34L125.24,160.39L125.51,160.44L126.38,160.50L136.09,160.80L137.12,160.79L137.92,160.72L138.13,160.67L140.61,159.64L140.66,159.58L140.89,75.80"/></g></g><g id="Actor_.8"><g style="stroke:#000000;stroke-width:0.176"><path d="M72.78,185.18L72.63,184.98L72.52,184.58L72.44,184.04L72.41,183.40L72.44,182.74L72.52,182.13L72.64,181.64L72.79,181.31L72.96,181.19"/><path d="M72.69,183.99L72.75,184.21L72.84,184.32L72.93,184.31L73.02,184.18L73.10,183.95L73.16,183.63L73.19,183.27L73.19,182.89L73.16,182.55L73.10,182.28L73.03,182.11L72.94,182.06L72.84,182.13L72.76,182.31L72.74,182.39"/></g><g style="stroke:#000000;stroke-width:0.529"><path d="M72.78,185.18L72.39,185.17L72.25,184.97L72.13,184.57L72.05,184.03L72.03,183.39L72.05,182.73L72.13,182.12L72.26,181.63L72.41,181.30L72.57,181.18L72.96,181.19L73.11,181.29L73.25,181.59L73.35,182.06L73.40,182.66L73.40,183.32L73.34,183.96L73.24,184.52L73.10,184.94L72.95,185.17L72.78,185.18"/><path d="M72.74,182.39L72.69,182.59L72.65,182.94L72.63,183.31L72.64,183.67L72.69,183.98L72.69,183.99"/><path d="M72.74,182.39L72.77,182.54L72.80,182.88L72.80,183.25L72.77,183.62L72.71,183.94L72.69,183.99"/></g></g><g id="Actor_.9"><g style="stroke:#000000;stroke-width:0.176"><path d="M169.28,181.12L169.25,192.04L169.27,192.69L169.34,193.25L169.46,193.67L169.61,193.91L169.77,193.95"/><path d="M184.23,176.66L184.20,185.79L184.19,186.12L184.15,186.43L184.09,186.69L184.02,186.87L183.93,186.96L169.77,192.88L169.69,192.86L169.62,192.74L169.56,192.53L169.52,192.25L169.51,191.93L169.51,190.67"/></g><g style="stroke:#000000;stroke-width:0.529"><path d="M184.49,176.54L184.47,185.67L184.44,186.34L184.36,186.97L184.24,187.49L184.10,187.85L183.93,188.02L169.77,193.95L164.59,193.79L164.43,193.75L164.28,193.51L164.16,193.09L164.09,192.53L164.06,191.88L164.09,181.44"/><path d="M169.51,190.67L178.75,186.80L178.83,186.72L178.91,186.53L178.97,186.27L179.01,185.96L179.02,185.63L179.04,178.82"/><path d="M169.54,181.10L169.51,190.67"/></g></g><g id="Actor_.10"><g style="stroke:#000000;stroke-width:0.176"><path d="M127.17,181.76L128.47,181.80L128.43,195.09"/><path d="M140.83,186.38L140.92,186.31L141.00,186.13L141.07,185.85L141.12,185.50L141.13,185.13L141.12,184.77L141.08,184.46L141.01,184.24L140.92,184.12L140.83,184.13L140.74,184.26L140.66,184.49L140.61,184.81L140.58,185.18L140.57,185.55L140.60,185.83L140.60,185.89L140.66,186.16L140.74,186.33L140.83,186.38"/></g><g style="stroke:#000000;stroke-width:0.529"><path d="M153.26,182.10L153.25,184.71L128.43,195.09L127.14,195.05L127.17,181.76"/></g></g><g id="Actor_.11"><g style="stroke:#000000;stroke-width:0.176"><path d="M86.37,179.61L86.34,189.54L86.37,190.19L86.44,190.75L86.56,191.17L86.70,191.41L86.87,191.44"/><path d="M101.31,180.98L101.30,183.28L101.29,183.62L101.25,183.93L101.19,184.19L101.11,184.37L101.03,184.46L86.87,190.38L86.79,190.36L86.72,190.24L86.66,190.03L86.62,189.75L86.61,189.43L86.61,188.17"/></g><g style="stroke:#000000;stroke-width:0.529"><path d="M81.19,178.66L81.16,189.38L81.19,190.03L81.26,190.59L81.38,191.01L81.52,191.25L81.69,191.29L86.87,191.44L101.03,185.52L101.19,185.35L101.34,184.98L101.46,184.47L101.54,183.84L101.56,183.17L101.57,180.98"/><path d="M86.61,188.17L95.85,184.30L95.93,184.22L96.01,184.03L96.07,183.77L96.10,183.46L96.12,183.13L96.12,180.82"/><path d="M86.61,188.17L86.64,179.66"/></g></g><g><g><path style="stroke:#000000;stroke-width:0.125;stroke-dasharray:3.0 2.0 1.0 2.0" d="M81.18,183.44L72.63,183.19"/><path style="stroke:#000000;stroke-width:0.125;stroke-dasharray:3.0 2.0 1.0 2.0" d="M86.62,183.61L112.40,184.39"/><path style="stroke:#000000;stroke-width:0.125;stroke-dasharray:3.0 2.0 1.0 2.0" d="M125.81,184.79L126.09,184.80L126.09,184.66"/><path style="stroke:#000000;stroke-width:0.125;stroke-dasharray:3.0 2.0 1.0 2.0" d="M126.27,160.50L126.15,176.27"/><path style="stroke:#000000;stroke-width:0.125;stroke-dasharray:3.0 2.0 1.0 2.0" d="M139.10,156.23L139.49,156.25L139.54,175.92"/><path style="stroke:#000000;stroke-width:0.125;stroke-dasharray:3.0 2.0 1.0 2.0" d="M164.08,185.95L140.58,185.24"/><path style="stroke:#000000;stroke-width:0.125;stroke-dasharray:3.0 2.0 1.0 2.0" d="M189.99,186.73L169.53,186.11"/></g></g><g id="PMI.0"><g><path style="stroke:#000000;stroke-width:0.125" d="M176.36,137.07L159.65,173.01"/></g><g><path style="fill:#000000" d="M160.40,173.01L160.40,172.94L160.39,172.87L160.37,172.80L160.35,172.73L160.32,172.66L160.28,172.60L160.23,172.54L160.19,172.48L160.13,172.43L160.07,172.39L160.01,172.35L159.94,172.32L159.87,172.30L159.80,172.28L159.73,172.27L159.65,172.26L159.58,172.27L159.51,172.28L159.44,172.30L159.37,172.32L159.30,172.35L159.24,172.39L159.18,172.43L159.12,172.48L159.08,172.54L159.03,172.60L158.99,172.66L158.96,172.73L158.94,172.80L158.92,172.87L158.91,172.94L158.90,173.01L158.91,173.09L158.92,173.16L158.94,173.23L158.96,173.30L158.99,173.37L159.03,173.43L159.08,173.49L159.12,173.54L159.18,173.59L159.24,173.64L159.30,173.68L159.37,173.71L159.44,173.73L159.51,173.75L159.58,173.76L159.65,173.76L159.73,173.76L159.80,173.75L159.87,173.73L159.94,173.71L160.01,173.68L160.07,173.64L160.13,173.59L160.19,173.54L160.23,173.49L160.28,173.43L160.32,173.37L160.35,173.30L160.37,173.23L160.39,173.16L160.40,173.09z"/></g><g><text xml:space="preserve" fill="#000000" stroke-width="0" x="168.72" y="135.32" font-size="3.80" opacity="1.00" font-family="Arial">BPA29752</text></g></g><g id="PMI.1"><g><path style="stroke:#000000;stroke-width:0.125" d="M167.94,82.00L132.54,73.24"/></g><g><path style="fill:#000000" d="M133.29,73.24L133.29,73.17L133.28,73.09L133.26,73.02L133.24,72.95L133.20,72.89L133.17,72.82L133.12,72.76L133.07,72.71L133.02,72.66L132.96,72.62L132.90,72.58L132.83,72.55L132.76,72.52L132.69,72.50L132.62,72.49L132.54,72.49L132.47,72.49L132.40,72.50L132.32,72.52L132.26,72.55L132.19,72.58L132.13,72.62L132.07,72.66L132.01,72.71L131.96,72.76L131.92,72.82L131.88,72.89L131.85,72.95L131.82,73.02L131.81,73.09L131.80,73.17L131.79,73.24L131.80,73.31L131.81,73.39L131.82,73.46L131.85,73.53L131.88,73.59L131.92,73.66L131.96,73.72L132.01,73.77L132.07,73.82L132.13,73.86L132.19,73.90L132.26,73.93L132.32,73.96L132.40,73.98L132.47,73.99L132.54,73.99L132.62,73.99L132.69,73.98L132.76,73.96L132.83,73.93L132.90,73.90L132.96,73.86L133.02,73.82L133.07,73.77L133.12,73.72L133.17,73.66L133.20,73.59L133.24,73.53L133.26,73.46L133.28,73.39L133.29,73.31z"/></g><g><text xml:space="preserve" fill="#000000" stroke-width="0" x="168.72" y="85.79" font-size="3.80" opacity="1.00" font-family="Arial">BPA29753</text></g></g><g/><g><g/><g><text xml:space="preserve" fill="#000000" stroke-width="0" x="12.31" y="16.07" font-size="4.53" opacity="1.00" font-family="Arial" font-weight="bold">BPA29754</text></g></g><g id="paperID" visibility="hidden" opacity="0.00" transform="scale(0.000100)"><path style="stroke:#000000;stroke-width:0.500;fill:#e6e6e6;fill-rule:evenodd" d="M-2000.00,-2000.00L2297.00,-2000.00L2297.00,2210.00L-2000.00,2210.00zM0.00,0.00L297.00,0.00L297.00,210.00L0.00,210.00z"/><path style="fill:#000000;fill-opacity:0.118" d="M3.00,210.00L297.00,210.00L297.00,3.00L300.00,3.00L300.00,213.00L3.00,213.00z"/></g></g></svg>
