<?xml version="1.0" encoding="UTF-8" standalone="no"?>
<svg xmlns="http://www.w3.org/2000/svg" xmlns:xlink="http://www.w3.org/1999/xlink" width="297.000mm" height="210.000mm" viewBox="0.000000 0.000000 297.000000 210.000000" stroke-linejoin="round" stroke-linecap="round" fill="none" fill-rule="evenodd"><desc>Composer Export</desc><script type="text/ecmascript"><![CDATA[
if(typeof(top) != "undefined")
{
	top.ShowPaper = ShowPaper;
}
function ShowPaper()
{
  var svgDocument = getDocument();
  var paper = svgDocument.getElementById("paperID");
  if(paper)
  {
    paper.setAttribute("transform","scale(1)");
    paper.setAttribute("opacity","1");
    paper.setAttribute("visibility","visible");
  }
  var svg = svgDocument.getRootElement();
  if(svg)
  {
    svg.setAttribute("width","307.000mm");
    svg.setAttribute("height","220.000mm");
    svg.setAttribute("viewBox","-5.000000 -5.000000 307.000000 220.000000");
  }
}
]]></script><defs/><g><path style="fill:#000000;fill-opacity:0.098;fill-rule:evenodd" d="M150.50,24.59L150.55,19.70L156.07,16.59L156.63,16.59L156.63,54.31L155.90,54.59L150.55,57.70L150.40,29.27L144.87,32.41L144.98,31.52L153.60,26.61L153.63,26.40zM145.36,25.68L145.24,25.03L145.76,24.70L146.51,24.70L146.50,25.44L146.32,25.95L145.82,25.90zM141.21,30.51L141.94,30.79L144.87,32.41L144.80,32.53L130.05,40.90L125.49,43.60L122.64,45.14L117.46,48.23L116.90,48.42L116.90,47.67L123.89,43.60L123.03,43.11L122.86,41.43L122.54,41.24L121.61,41.25L121.02,41.83L120.82,41.62L120.84,40.98L121.29,40.58L121.79,40.41L122.70,40.40L122.80,41.15L123.38,41.25L125.73,42.61L126.41,42.85L126.52,42.10L132.66,38.60L132.66,36.34L134.87,37.71L135.18,37.78L135.44,37.00L142.30,33.06L139.42,31.29L139.24,31.12L139.22,30.49L139.73,29.98L141.10,29.76zM129.79,35.74L130.56,35.34L131.48,35.34L131.48,36.09L130.73,36.17L130.28,36.93L129.97,36.88L129.79,36.70zM176.07,36.43L175.54,36.77L175.49,33.32L175.83,33.12L176.05,33.14zM170.63,37.21L170.82,37.70L170.14,38.11L169.96,37.73L169.96,36.40L170.26,35.98L170.47,36.00zM113.18,46.54L114.44,47.15L114.42,49.92L109.52,52.79L107.28,53.92L105.06,55.25L74.08,73.07L73.17,73.50L70.54,75.10L62.03,79.93L61.22,80.46L60.29,80.88L60.34,80.09L66.65,76.45L63.77,74.68L63.60,74.51L63.60,73.73L64.21,73.33L65.46,73.33L65.61,74.02L66.30,74.18L69.01,75.76L69.12,75.02L76.09,71.02L75.95,70.81L73.38,69.29L73.03,68.96L73.03,68.49L73.33,68.09L74.18,67.76L74.92,67.76L75.02,68.50L75.59,68.60L78.29,70.15L78.62,70.19L78.80,69.51L114.27,49.09L114.11,48.85L111.38,47.33L111.38,46.37L112.00,45.98L113.07,45.80zM176.06,48.24L175.91,48.44L175.49,48.59L175.49,43.28L175.83,43.08L176.05,43.10zM170.64,49.20L170.82,49.52L170.14,49.93L169.96,49.55L169.95,48.22L170.44,47.82L170.63,47.81zM176.06,58.20L175.91,58.40L175.49,58.55L175.49,55.10L175.83,54.90L176.05,54.92zM196.66,60.15L196.66,60.73L195.93,61.36L194.87,61.39L194.88,61.19L196.26,60.83L196.47,60.50L196.47,59.82zM145.32,62.08L145.76,61.85L146.51,61.85L146.50,62.41L146.30,62.55L145.32,62.71zM130.11,63.22L130.46,63.89L131.09,63.90L132.15,62.93L132.49,62.08L132.61,58.48L146.12,50.68L146.33,50.70L146.28,59.15L40.47,119.82L39.91,120.00L38.95,118.41L36.09,116.72L35.22,115.71L34.39,115.74L34.15,114.71L34.57,113.90L34.90,113.85L34.85,114.38L35.17,114.39L35.75,114.02L38.10,115.40L38.56,115.40L39.62,114.76L39.79,111.21L40.08,110.96L40.63,111.24L45.55,108.46L45.70,112.17L45.87,112.34L46.67,112.35L47.56,111.55L47.90,110.88L48.06,106.99L54.93,103.04L55.14,106.44L55.33,106.77L56.45,106.76L57.35,105.64L57.52,105.14L57.69,101.42L61.02,99.48L61.23,99.49L61.40,103.22L61.74,103.41L62.20,103.41L63.05,102.73L63.61,101.77L63.72,97.99L70.48,94.07L70.69,94.09L70.85,97.49L71.03,97.82L71.98,97.81L72.55,97.37L73.06,96.53L73.22,95.85L73.39,92.47L104.59,74.49L104.79,74.50L104.96,78.06L105.13,78.23L106.11,78.24L106.83,77.61L107.33,76.26L107.50,72.89L114.44,68.95L114.59,72.66L114.76,72.83L115.56,72.84L116.28,72.21L116.79,71.20L116.95,67.48L120.51,65.40L120.67,69.11L120.84,69.28L121.64,69.30L122.53,68.50L122.87,67.83L123.03,63.94L129.97,59.99zM197.67,62.09L196.10,63.39L194.88,63.41L194.88,63.22L195.81,63.10L195.97,62.08L197.09,61.34L197.66,61.34zM197.67,64.12L196.93,64.72L196.49,65.46L196.10,65.75L194.88,65.79L194.88,65.41L195.76,65.24L195.97,64.11L197.27,63.35L197.66,63.36zM141.10,67.66L140.19,67.76L139.50,68.10L139.19,68.17L139.24,67.48L139.86,67.08L141.10,66.91zM153.76,64.44L145.49,69.17L144.92,69.35L144.98,68.66L153.55,63.68L153.76,63.69zM178.14,70.54L178.26,71.18L178.15,71.27L177.85,70.78L178.08,70.47zM178.10,71.55L177.19,71.99L176.49,72.04L176.48,71.65L177.69,71.49L178.15,71.27zM131.47,73.05L130.40,73.33L129.79,73.74L129.79,72.88L130.57,72.49L131.49,72.49zM179.25,72.71L178.01,73.66L177.36,74.02L176.47,74.05L176.47,73.86L177.41,73.74L177.57,72.72L178.58,72.04L179.25,71.80zM142.28,71.03L135.62,74.86L135.31,74.93L135.30,74.18L142.07,70.27L142.27,70.28zM179.27,74.76L178.76,75.09L178.01,76.03L177.36,76.38L176.49,76.43L176.49,75.86L177.41,75.76L177.57,74.75L178.58,74.06L179.28,73.85zM122.69,78.11L121.29,78.58L120.77,78.63L120.84,78.13L121.62,77.55L122.71,77.55zM177.00,79.09L179.26,78.79L181.29,77.95L182.41,76.72L182.64,76.44L182.80,75.52L182.80,106.99L182.59,108.13L181.55,109.29L180.38,109.97L178.00,110.80L177.36,111.17L176.47,111.20L176.47,111.00L177.43,110.86L177.42,110.66L176.39,110.65L175.65,110.54L175.65,79.07zM54.64,78.98L55.43,78.39L56.52,78.40L56.51,78.96L55.94,79.07L55.26,79.93L55.00,79.93L54.63,79.42zM60.29,80.88L60.16,81.10L55.49,83.69L48.23,87.91L45.72,89.28L32.36,97.03L31.80,97.21L31.85,89.08L32.36,89.02L33.86,89.87L33.88,91.25L34.34,91.25L35.01,90.71L35.40,90.71L38.60,92.59L39.28,92.82L39.40,92.08L48.24,87.00L48.09,86.84L48.06,84.80L48.24,84.95L50.61,86.22L50.77,85.55L57.64,81.60L57.69,79.40zM132.82,76.43L126.58,79.99L126.52,79.24L132.77,75.68L132.84,75.70zM113.08,83.70L112.16,83.79L111.38,84.22L111.33,83.47L111.83,83.13L113.07,82.95zM45.20,84.37L45.65,83.97L46.15,83.80L47.06,83.80L47.06,84.54L46.31,84.64L45.80,85.33L45.37,85.33L45.19,85.16zM123.89,81.51L116.95,85.56L116.96,84.70L123.89,80.76zM37.59,88.03L38.10,88.20L38.08,88.35L36.41,88.36L36.24,88.19L36.24,87.58L36.52,87.35L37.29,87.17zM266.44,89.31L266.31,88.87L266.38,88.86zM265.05,90.03L264.98,91.81L265.17,91.81L265.38,91.47L265.65,89.88L266.44,89.31L266.55,89.40L266.39,91.47L266.24,91.66L265.19,92.14L265.37,93.43L265.37,94.66L265.21,95.52L264.98,95.96L264.21,96.88L134.51,171.32L133.94,171.50L134.12,170.93L134.35,170.49L134.52,168.75L134.18,167.04L133.82,166.21L133.83,165.59L264.54,90.60L264.52,89.93L264.87,89.85zM22.05,93.49L27.42,90.36L27.63,90.37L27.65,97.20L25.55,95.95L25.80,95.51L25.80,95.11L25.27,94.76L24.70,94.94L24.43,95.33L22.24,94.09L22.05,93.93zM194.05,100.08L194.05,68.60L197.33,68.33L198.96,67.76L200.39,66.83L201.05,65.80L201.21,64.88L201.21,96.52L200.99,97.49L200.30,98.48L198.62,99.51L196.60,100.02L195.93,100.53L194.88,100.56L194.87,100.36L195.82,100.18zM197.60,101.36L196.59,102.04L195.92,102.28L195.97,101.25L197.10,100.52L197.68,100.36zM120.67,103.43L120.84,103.38L120.85,104.30L120.29,104.75L119.23,104.78L119.23,104.59L120.63,104.23zM73.03,105.64L73.33,105.24L74.00,104.90L74.92,104.90L74.92,105.65L73.83,105.74L73.32,106.10L73.05,106.10zM119.99,106.48L120.16,105.64L121.45,104.73L122.02,104.73L122.03,105.48L120.44,106.76L119.24,106.80L119.30,106.61zM114.44,86.91L79.08,107.30L78.74,107.34L78.79,106.65L114.21,86.31L114.42,86.33zM122.03,107.51L121.18,108.18L120.68,109.03L119.31,109.36L119.25,108.79L120.00,108.69L120.16,107.67L121.63,106.75L122.02,106.75zM65.46,111.05L64.55,111.15L63.85,111.50L63.55,111.57L63.60,110.87L64.21,110.48L65.46,110.30zM179.25,111.88L178.85,112.15L177.57,112.92L177.57,111.89L178.58,111.22L179.25,110.97zM76.04,108.96L69.17,112.92L69.12,112.17L75.88,108.25L76.10,108.28zM102.24,114.06L102.45,113.86L102.44,114.42L102.27,114.39zM102.03,114.86L102.23,114.68L102.44,114.70L102.47,114.92L101.71,115.39L100.84,115.42L100.91,115.05zM54.64,116.12L55.43,115.54L56.50,115.36L56.51,116.12L55.77,116.22L54.93,116.58L54.64,116.57zM266.44,116.66L266.31,116.22L266.38,116.21zM265.05,117.38L264.98,119.16L265.17,119.16L265.38,118.82L265.65,117.23L266.44,116.66L266.55,116.75L266.39,118.82L266.24,119.01L265.19,119.49L265.37,120.78L265.37,122.02L265.21,122.87L264.98,123.32L264.21,124.23L134.28,198.81L133.95,198.80L134.35,197.84L134.52,196.10L134.18,194.39L133.82,193.56L133.83,192.94L264.54,117.96L264.52,117.28L264.87,117.20zM103.61,116.11L102.37,117.06L101.71,117.41L100.83,117.44L100.83,117.25L101.60,117.13L101.71,116.23L102.89,115.38L103.61,115.19zM66.63,114.42L60.39,117.99L60.34,117.24L66.43,113.66L66.63,113.67zM103.63,118.15L102.56,118.94L102.37,119.43L101.71,119.78L100.85,119.83L100.85,119.26L101.60,119.16L101.76,118.31L102.71,117.57L103.63,117.24zM47.06,121.69L45.81,121.79L45.19,122.20L45.20,121.51L45.97,120.94L47.06,120.94zM100.68,122.48L103.62,122.19L105.40,121.44L106.76,120.27L107.16,119.25L107.16,150.73L106.82,151.74L106.33,152.26L105.08,153.20L103.05,153.88L101.71,154.56L100.83,154.59L100.83,154.39L101.61,154.24L101.63,154.07L100.22,154.07L100.01,153.93L100.01,122.46zM57.70,119.51L51.28,123.20L50.71,123.38L50.77,122.69L57.71,118.76zM34.90,126.07L35.07,127.41L34.56,127.76L34.38,127.57L34.15,126.53L34.57,125.72L34.90,125.67zM40.30,126.24L40.08,126.39L39.74,126.42L39.74,121.12L40.08,120.92L40.30,120.94zM48.25,124.91L39.46,129.97L39.40,129.23L48.24,124.16zM40.31,136.04L40.16,136.24L39.74,136.39L39.79,132.99L40.08,132.74L40.29,132.75zM118.41,143.47L118.41,111.99L121.69,111.72L123.31,111.16L124.75,110.23L125.41,109.30L125.40,140.77L125.06,141.44L124.14,142.21L122.98,142.90L120.94,143.40L120.29,143.93L119.23,143.95L119.23,143.76L120.01,143.58zM122.03,144.66L121.87,144.84L120.62,145.61L120.11,145.67L120.17,144.82L121.45,143.90L122.02,143.90zM103.61,155.28L102.38,156.07L101.70,156.31L101.71,155.40L102.89,154.56L103.61,154.37zM131.49,166.86L131.44,168.08L130.97,168.46L130.76,169.26L130.07,169.76L129.56,169.81L129.96,167.61L130.63,167.26L130.62,166.77L131.09,166.51L131.30,166.53zM129.33,167.83L129.46,169.14L129.06,169.59L128.95,170.32L128.39,170.77L127.69,170.76L127.94,170.32L128.20,168.73L128.79,168.30L128.90,167.70L129.26,167.71zM127.61,168.88L127.60,170.32L126.84,170.93L126.39,170.93L126.36,170.76L126.92,170.32L127.05,169.77L127.24,169.61L127.19,168.72L127.42,168.70zM131.49,194.22L131.44,195.43L130.97,195.81L130.76,196.61L130.07,197.11L129.56,197.16L129.96,194.96L130.63,194.61L130.62,194.13L131.09,193.87L131.30,193.89zM129.33,195.18L129.46,196.50L129.06,196.94L128.95,197.67L128.39,198.12L127.69,198.11L127.94,197.67L128.20,196.08L128.79,195.65L128.90,195.06L129.26,195.06zM127.61,196.23L127.60,197.67L126.84,198.28L126.39,198.28L126.36,198.12L126.92,197.67L127.05,197.12L127.24,196.97L127.19,196.08L127.42,196.05zM153.93,21.51L153.94,22.07L153.60,22.74L153.03,23.21L152.59,23.20L152.41,23.02L152.40,22.22L153.02,21.32L153.60,21.31zM153.96,51.55L153.89,52.07L153.37,53.07L152.59,53.25L152.42,53.08L152.40,52.27L152.76,51.62L153.20,51.20L153.42,51.20zM144.31,56.96L144.32,57.70L143.59,58.67L142.95,58.66L142.94,57.51L143.57,56.77L143.97,56.77z"/><g id="Actor_.0"><g style="stroke:#000000;stroke-width:0.176"><path d="M124.88,166.78L125.21,166.80L125.55,166.78L125.22,166.89L124.95,167.13L124.79,167.50L124.74,167.90"/><path d="M126.52,166.62L126.85,167.24L127.19,167.72L126.80,167.31L126.37,167.00L125.94,166.82L125.55,166.78L125.96,166.73L126.52,166.62L127.32,166.16"/><path d="M126.48,170.83L126.80,170.97L127.19,171.00L127.52,170.90L127.79,170.66L127.95,170.29L128.01,169.83L128.04,170.32L128.15,170.84"/><path d="M128.01,169.83L127.95,169.31L127.79,168.76L127.52,168.21L127.19,167.72L127.60,168.17L128.15,168.65L128.04,169.31L128.01,169.83"/><path d="M128.15,168.65L128.95,168.19"/></g><g style="stroke:#000000;stroke-width:0.529"><path d="M126.22,170.74L126.52,171.00L126.85,171.02L127.19,171.00L127.59,170.95L128.15,170.84L128.95,170.38L129.07,169.73L129.10,169.21L129.07,168.72L128.95,168.19L128.62,167.58L128.28,167.09L127.87,166.65L127.32,166.16L126.99,166.14L126.64,166.16L126.24,166.21L125.68,166.32L124.88,166.78L124.77,167.43L124.74,167.91"/></g></g><g id="Actor_.1"><g style="stroke:#000000;stroke-width:0.176"><path d="M195.79,65.23L195.79,64.31L196.31,63.88L196.74,63.60L196.27,63.80L195.70,63.94L195.10,63.98L194.50,63.94L193.95,63.81L193.47,63.60L193.10,63.32L192.87,63.00L193.03,63.38L193.21,63.91L193.21,64.83"/><path d="M192.90,62.27L192.87,62.31L192.79,62.66L192.87,63.00L192.71,62.70L192.52,62.43"/><path d="M193.21,63.91L193.91,63.89L194.50,63.94L195.10,64.07L195.79,64.31"/><path d="M193.70,63.01L193.67,62.98L193.65,62.93"/><path d="M193.83,63.13L193.93,63.23L193.97,63.25"/><path d="M194.17,63.35L194.31,63.42L194.37,63.43"/><path d="M194.61,63.48L194.79,63.52L194.82,63.52"/><path d="M195.28,63.53L195.29,63.53L195.35,63.52"/><path d="M195.83,63.43L195.78,63.45L195.60,63.48"/><path d="M197.68,63.22L197.17,63.38L196.74,63.60L197.10,63.32L197.34,63.00L197.42,62.65L197.35,62.37"/><path d="M196.04,63.35L196.19,63.28L196.23,63.25"/><path d="M196.51,63.01L196.49,63.05L196.38,63.13"/></g><g style="stroke:#000000;stroke-width:0.529"><path d="M197.36,62.36L197.50,62.69L197.68,63.22L197.68,64.15L197.18,64.57L196.74,64.86L196.31,65.07L195.79,65.23L195.10,65.26L194.50,65.20L193.91,65.07L193.21,64.83L193.03,64.57L192.87,64.26L192.71,63.89L192.52,63.35L192.52,62.43L192.85,62.16"/><path d="M195.28,63.53L195.10,63.53"/><path d="M194.85,63.52L194.82,63.52"/></g></g><g id="Actor_.2"><g style="stroke:#000000;stroke-width:0.176"><path d="M129.93,169.82L129.81,169.30L129.78,168.81L129.73,168.30L129.56,167.74L129.30,167.19L128.96,166.70L128.62,166.22L128.29,165.60L127.73,165.71L127.33,165.76L126.99,165.87L126.73,166.11L126.71,166.15"/><path d="M126.65,165.76L126.99,165.78L127.33,165.76L127.72,165.80L128.14,165.98L128.57,166.29L128.96,166.70L129.37,167.15L129.93,167.64L130.72,167.18"/><path d="M129.93,167.64L129.81,168.29L129.78,168.81L129.73,169.27L129.56,169.64L129.30,169.88L129.02,169.97"/><path d="M128.29,165.60L129.09,165.15"/></g><g style="stroke:#000000;stroke-width:0.529"><path d="M129.02,169.98L129.37,169.93L129.93,169.82L130.72,169.37L130.84,168.71L130.87,168.19L130.84,167.70L130.72,167.18L130.39,166.56L130.05,166.08L129.65,165.63L129.09,165.15L128.76,165.12L128.42,165.14L128.01,165.19L127.45,165.30L126.65,165.76L126.58,166.16"/></g></g><g id="Actor_.3"><g style="stroke:#000000;stroke-width:0.176"><path d="M174.81,73.34L174.81,72.41L174.62,71.88L174.46,71.50L174.30,71.20L174.12,70.93"/><path d="M174.81,72.41L175.51,72.39L176.10,72.44L175.55,72.31L175.06,72.10L174.69,71.82L174.46,71.50L174.38,71.17L174.46,70.82L174.70,70.49L175.06,70.22L175.53,70.01L176.10,69.88L176.21,69.87"/><path d="M175.49,71.70L175.47,71.68L175.52,71.73L175.57,71.76"/><path d="M175.26,71.45L175.24,71.42L175.22,71.38"/><path d="M175.24,71.42L175.26,71.48L175.29,71.51"/><path d="M175.42,71.64L175.47,71.68"/><path d="M175.17,71.15L175.15,71.20L175.17,71.23"/><path d="M175.86,71.90L175.84,71.89L175.91,71.92L175.97,71.93"/><path d="M176.32,72.01L176.29,72.01"/><path d="M177.48,72.40L177.29,72.44L176.69,72.49L176.10,72.44L176.68,72.57L177.39,72.81L177.39,73.74"/><path d="M176.44,72.03L176.38,72.03L176.30,72.01"/><path d="M175.84,71.89L175.76,71.85"/><path d="M175.52,71.73L175.50,71.72"/><path d="M177.43,71.93L177.37,71.96L177.29,71.97L177.31,71.96"/><path d="M177.29,71.97L177.19,71.99"/><path d="M177.39,72.81L177.47,72.74"/><path d="M176.95,72.03L176.89,72.04L176.80,72.04"/><path d="M177.15,69.87L177.30,69.88L177.51,69.93"/><path d="M178.46,70.32L178.70,70.50L178.93,70.82L179.01,71.16L178.93,71.50L178.70,71.83L178.44,72.02"/><path d="M179.28,71.73L178.77,71.89L178.44,72.05"/></g><g style="stroke:#000000;stroke-width:0.529"><path d="M176.45,69.83L176.00,69.85L175.49,70.01L175.06,70.22L174.63,70.51L174.12,70.93L174.12,71.86L174.30,72.39L174.46,72.77L174.62,73.07L174.81,73.34L175.51,73.58L176.10,73.71L176.69,73.76L177.39,73.74L177.46,73.71"/><path d="M176.20,71.99L176.29,72.01"/><path d="M176.82,72.04L176.80,72.04L176.70,72.03"/><path d="M177.51,69.93L177.30,69.88L177.14,69.87"/><path d="M178.46,70.20L178.59,70.25L178.77,70.52L178.93,70.82L179.09,71.19L179.28,71.73L179.28,72.65L178.77,73.08L178.42,73.31"/></g></g><g id="Actor_.4"><g style="stroke:#000000;stroke-width:0.176"><path d="M265.59,119.36L265.48,118.84L265.44,118.35L265.39,117.84L265.22,117.28L264.96,116.73L264.63,116.24L264.28,115.76L263.95,115.14L263.40,115.25L262.99,115.31L262.80,115.36"/><path d="M266.39,116.72L265.59,117.18L265.03,116.69L264.63,116.24L264.24,115.83L263.81,115.52L263.38,115.34L262.99,115.31L262.75,115.32"/><path d="M263.95,115.14L264.75,114.69"/><path d="M265.59,117.18L265.48,117.83L265.44,118.35L265.39,118.81L265.22,119.18L265.05,119.34"/></g><g style="stroke:#000000;stroke-width:0.529"><path d="M265.10,119.46L265.59,119.36L266.39,118.91L266.50,118.25L266.53,117.73L266.50,117.24L266.39,116.72L266.06,116.10L265.72,115.62L265.31,115.17L264.75,114.69L264.42,114.66L264.08,114.68L263.67,114.73L263.12,114.84L262.57,115.16"/></g></g><g id="Actor_.5"><g style="stroke:#000000;stroke-width:0.176"><path d="M265.59,92.01L265.48,91.48L265.44,91.00L265.39,90.48L265.22,89.93L264.96,89.38L264.63,88.89L264.28,88.41L263.95,87.79L263.40,87.90L262.99,87.95L262.80,88.01"/><path d="M266.39,89.36L265.59,89.82L265.03,89.34L264.63,88.89L264.24,88.48L263.81,88.17L263.38,87.99L262.99,87.95L262.75,87.96"/><path d="M263.95,87.79L264.75,87.33"/><path d="M265.05,91.98L265.22,91.82L265.39,91.45L265.44,91.00L265.48,90.48L265.59,89.82"/></g><g style="stroke:#000000;stroke-width:0.529"><path d="M262.57,87.80L263.12,87.49L263.67,87.38L264.08,87.33L264.42,87.31L264.75,87.33L265.31,87.82L265.72,88.26L266.06,88.75L266.39,89.36L266.50,89.88L266.53,90.37L266.50,90.89L266.39,91.55L265.59,92.01L265.10,92.11"/></g></g><g id="Actor_.6"><g style="stroke:#000000;stroke-width:0.176"><path d="M174.49,72.83L174.46,72.87L174.38,73.22L174.46,73.56L174.30,73.26L174.12,72.99"/><path d="M177.44,74.46L177.30,74.50L176.69,74.54L176.10,74.50L175.51,74.44L174.81,74.47L174.81,75.39"/><path d="M174.81,74.47L174.62,73.93L174.46,73.56L174.69,73.87L175.06,74.15L175.55,74.37L176.10,74.50L176.69,74.62L177.39,74.86L177.39,75.79"/><path d="M175.29,73.57L175.26,73.54L175.24,73.49"/><path d="M175.42,73.69L175.52,73.79L175.57,73.81"/><path d="M175.97,73.99L175.91,73.97L175.76,73.90"/><path d="M176.41,74.08L176.38,74.08L176.20,74.04"/><path d="M177.39,74.86L177.44,74.82"/><path d="M176.87,74.09L176.89,74.09L176.95,74.08"/><path d="M177.19,74.04L177.37,74.01L177.43,73.99"/><path d="M178.94,72.93L179.01,73.21L178.93,73.56L178.70,73.88L178.41,74.10"/><path d="M179.28,73.78L178.77,73.94L178.41,74.12"/></g><g style="stroke:#000000;stroke-width:0.529"><path d="M177.43,75.78L177.39,75.79L176.69,75.81L176.10,75.76L175.51,75.63L174.81,75.39L174.62,75.12L174.46,74.82L174.30,74.44L174.12,73.91L174.12,72.99L174.44,72.72"/><path d="M176.44,74.08L176.41,74.08"/><path d="M176.70,74.09L176.87,74.09"/><path d="M178.95,72.92L179.09,73.25L179.28,73.78L179.28,74.71L178.77,75.12L178.39,75.38"/></g></g><g id="Actor_.7"><g style="stroke:#000000;stroke-width:0.176"><path d="M31.78,97.32L31.78,89.42L31.82,89.20L31.91,89.03L32.07,88.95L32.26,88.94L32.47,89.03L33.95,89.88"/><path d="M31.66,88.08L32.04,88.07L32.46,88.23L39.28,92.14L39.28,92.93L35.10,90.54L34.84,90.91L34.58,91.13L34.31,91.26L34.06,91.28L33.86,91.18L33.74,90.98L33.71,90.83"/><path d="M35.10,90.54L34.42,90.14"/><path d="M36.10,87.71L36.09,87.93L36.20,88.13L36.42,88.31L36.73,88.44L37.09,88.50L37.47,88.49L37.83,88.41L38.12,88.27L38.31,88.09L38.39,87.87L38.35,87.65L38.18,87.46L37.91,87.30L37.57,87.21L37.19,87.18L36.82,87.23L36.49,87.34L36.24,87.50L36.10,87.71"/><path d="M38.16,88.24L37.91,88.09L37.57,88.00L37.19,87.97L36.82,88.02L36.49,88.13L36.33,88.24"/><path d="M39.28,92.14L48.28,86.98L48.28,87.77L48.01,87.93L48.01,88.01"/><path d="M39.28,92.93L45.55,89.34"/><path d="M56.87,80.96L57.82,81.51L50.74,85.58L48.01,84.01L47.57,83.83L47.05,83.73L46.51,83.73L45.99,83.83L45.55,84.01L45.23,84.26L45.07,84.56L45.07,84.87L45.24,85.17L45.55,85.42L45.71,85.51"/><path d="M45.20,85.11L45.23,85.05L45.55,84.80L45.99,84.62L46.28,84.56"/><path d="M48.01,87.93L47.93,87.97"/><path d="M47.33,86.44L48.28,86.98"/><path d="M48.01,86.83L48.01,84.80L50.74,86.36L50.74,85.58"/><path d="M48.01,84.80L47.57,84.62L47.33,84.57"/><path d="M50.74,86.36L55.10,83.86"/><path d="M55.26,80.04L55.10,79.95L54.78,79.69L54.62,79.41L54.61,79.09L54.78,78.79L55.10,78.54L55.54,78.35L56.05,78.26L56.60,78.26L57.11,78.35L57.55,78.54L60.28,80.10L60.28,80.89L57.55,79.33L57.55,81.35"/><path d="M54.75,79.64L54.78,79.58L55.10,79.33L55.54,79.14L55.83,79.09"/><path d="M56.87,79.10L57.11,79.14L57.55,79.33"/><path d="M57.55,82.54L57.55,82.46L57.82,82.30L57.82,81.51"/><path d="M57.55,82.46L57.48,82.50"/><path d="M60.28,80.89L61.23,80.34"/><path d="M60.28,80.10L66.69,76.43L66.69,77.21L63.69,78.94L63.69,79.02"/><path d="M63.69,78.94L63.61,78.98"/><path d="M69.14,75.81L69.14,75.02L66.41,73.45L65.98,73.27L65.46,73.17L64.92,73.18L64.40,73.27L63.96,73.45L63.64,73.71L63.47,74.00L63.47,74.31L63.61,74.55L63.64,74.50L63.96,74.24L64.40,74.06L64.92,73.96L65.46,73.96L65.98,74.06L66.41,74.24L69.14,75.81L70.78,74.87"/><path d="M63.61,74.55L63.64,74.61L63.96,74.86L66.69,76.43"/><path d="M69.14,75.02L73.41,72.57"/><path d="M73.02,68.84L73.02,68.53L73.19,68.23L73.50,67.98L73.94,67.80L74.46,67.70L75.00,67.70L75.52,67.80L75.96,67.98L78.69,69.54L78.69,70.33L75.97,68.78L75.52,68.59L75.00,68.49L74.46,68.49L73.94,68.59L73.50,68.77L73.19,69.02L73.16,69.09L73.02,68.84"/><path d="M73.23,73.55L73.23,73.46L73.72,73.18"/><path d="M73.23,73.46L73.16,73.50"/><path d="M74.24,72.09L76.23,70.95L76.23,71.74L74.55,72.71"/><path d="M73.16,69.09L73.19,69.14L73.51,69.39L76.23,70.95"/><path d="M78.69,70.33L104.86,55.32"/><path d="M78.69,69.54L114.41,49.05L114.41,49.84L107.24,53.95"/><path d="M107.32,53.91L107.32,54.00"/><path d="M114.50,46.29L114.14,46.08L113.70,45.90L113.18,45.80L112.64,45.80L112.12,45.90L111.68,46.08L111.36,46.33L111.19,46.63L111.20,46.95L111.36,47.23L111.69,47.49L114.41,49.05"/><path d="M111.33,47.18L111.36,47.12L111.68,46.87L112.12,46.69L112.64,46.59L113.18,46.59L113.71,46.69L114.14,46.87L114.41,47.03"/><path d="M120.54,46.32L116.86,48.44L116.86,47.65L115.52,46.87"/><path d="M116.18,48.05L116.86,48.44L116.86,48.52"/><path d="M116.86,47.65L123.95,43.58L123.95,44.37L122.99,44.92L123.00,45.00"/><path d="M121.02,41.86L120.91,41.76L120.75,41.48L120.74,41.16L120.91,40.86L121.23,40.61L121.66,40.43L122.18,40.33L122.72,40.33L123.25,40.43L123.68,40.61L126.41,42.17L126.41,42.96L123.69,41.40L123.24,41.21L122.72,41.12L122.76,41.14L122.94,41.44L123.00,41.84L123.00,43.03L123.95,43.58"/><path d="M121.64,41.23L121.23,41.40L120.91,41.65L120.87,41.71"/><path d="M123.00,43.03L122.32,42.64"/><path d="M122.27,41.12L122.72,41.12"/><path d="M122.92,44.96L122.99,44.92"/><path d="M126.41,42.96L130.09,40.85"/><path d="M126.41,42.17L132.81,38.50L132.54,38.34L132.54,36.31L135.27,37.88L135.27,37.09L142.36,33.02L142.36,33.81L135.27,37.88"/><path d="M135.27,37.09L132.54,35.52L132.10,35.34L131.59,35.25L131.04,35.25L130.53,35.34L130.09,35.53L129.77,35.78L129.60,36.07L129.60,36.38L129.77,36.68L130.09,36.94L130.25,37.02"/><path d="M130.82,36.08L130.53,36.13L130.09,36.31L129.77,36.57L129.74,36.62"/><path d="M132.47,39.49L132.54,39.44L132.54,39.53"/><path d="M132.54,39.44L132.81,39.29L132.81,38.50"/><path d="M132.54,38.34L131.86,37.95"/><path d="M132.54,36.31L132.10,36.13L131.86,36.09"/><path d="M139.30,30.32L139.15,30.61L139.15,30.91L139.28,31.15L139.31,31.09L139.63,30.84L140.07,30.66L140.59,30.56L141.13,30.56L141.65,30.66L142.09,30.84L144.81,32.40L144.81,31.61L142.09,30.05L141.65,29.87L141.13,29.77L140.59,29.77L140.07,29.87L139.63,30.05L139.30,30.32"/><path d="M139.28,31.15L139.31,31.21L139.63,31.46L142.36,33.02"/><path d="M144.81,31.61L153.81,26.45"/><path d="M144.81,32.40L146.31,31.54"/><path d="M146.31,25.93L146.17,25.94L145.81,25.88L145.50,25.75L145.27,25.57L145.16,25.36L145.18,25.14L145.32,24.94L145.56,24.77L145.89,24.66L146.25,24.62L146.64,24.64L146.98,24.74L147.25,24.89L147.42,25.09L147.47,25.31L147.39,25.52L147.23,25.67"/><path d="M145.40,25.67L145.56,25.56L145.89,25.45L146.31,25.41"/></g><g style="stroke:#000000;stroke-width:0.529"><path d="M70.13,66.01L31.36,88.25L31.17,88.58L31.10,89.03L31.10,96.93L31.78,97.32L45.55,89.42L45.55,89.34L46.64,88.72L47.93,87.97L48.01,88.01L55.10,83.95L55.10,83.86L55.12,83.85L57.48,82.50L57.55,82.54L61.23,80.43L61.23,80.34L61.88,79.98L63.61,78.98L63.69,79.02L70.78,74.95L70.78,74.87L72.09,74.12L73.16,73.50L73.23,73.55L73.75,73.25"/><path d="M33.74,90.36L33.69,90.70L33.71,90.83L33.90,90.74L34.16,90.52L34.42,90.14L33.95,89.88L33.86,90.02L33.74,90.36"/><path d="M45.77,85.35L45.71,85.51L47.33,86.44L47.33,84.57L47.05,84.52L46.51,84.52L46.28,84.56L46.06,84.82L45.77,85.35"/><path d="M55.26,80.04L55.33,79.82L55.60,79.35L55.83,79.09L56.05,79.05L56.60,79.05L56.87,79.10L56.87,80.96L55.26,80.04"/><path d="M70.96,65.54L114.01,40.84"/><path d="M114.41,49.84L114.41,49.93L107.32,54.00L107.24,53.95L106.88,54.16L104.86,55.32L104.86,55.40L74.58,72.77"/><path d="M114.58,47.13L114.41,47.03L114.41,49.05"/><path d="M114.92,40.32L146.19,22.38L146.57,22.38L146.99,22.54L153.81,26.45L153.81,27.24L146.31,31.54L146.31,31.63L144.68,32.57L132.54,39.53L132.47,39.49L130.82,40.43L130.09,40.85L130.09,40.93L123.00,45.00L122.92,44.96L120.54,46.32L120.54,46.41L116.86,48.52L116.18,48.13L116.18,48.05L115.59,47.71"/><path d="M121.23,42.02L121.02,41.86L121.39,41.41L121.66,41.21L122.27,41.12L122.32,41.45L122.32,42.64L121.23,42.02"/><path d="M130.31,37.06L130.25,37.02L130.32,36.81L130.59,36.34L130.82,36.08L131.04,36.04L131.59,36.04L131.86,36.09L131.86,37.95L130.31,37.06"/><path d="M146.91,25.85L146.55,25.93L146.31,25.93L146.31,25.41L146.64,25.43L146.98,25.53L147.23,25.67L146.91,25.85"/></g></g><g id="Actor_.8"><g style="stroke:#000000;stroke-width:0.176"><path d="M129.93,197.18L129.81,196.65L129.78,196.17L129.73,195.65L129.56,195.09L129.30,194.55L128.96,194.06L128.62,193.57L128.29,192.96L127.73,193.06L127.33,193.12L126.99,193.22L126.73,193.47L126.71,193.51"/><path d="M126.65,193.11L126.99,193.14L127.33,193.12L127.72,193.15L128.14,193.33L128.57,193.65L128.96,194.06L129.37,194.50L129.93,194.99L129.81,195.65L129.78,196.17L129.73,196.62L129.56,196.99L129.30,197.24L129.02,197.32"/><path d="M128.29,192.96L129.09,192.50"/><path d="M129.93,194.99L130.72,194.53"/></g><g style="stroke:#000000;stroke-width:0.529"><path d="M129.02,197.33L129.37,197.29L129.93,197.18L130.72,196.72L130.84,196.06L130.87,195.54L130.84,195.05L130.72,194.53L130.39,193.91L130.05,193.43L129.65,192.98L129.09,192.50L128.76,192.48L128.42,192.49L128.01,192.55L127.45,192.65L126.65,193.11L126.58,193.52"/></g></g><g id="Actor_.9"><g style="stroke:#000000;stroke-width:0.176"><path d="M94.93,119.35L95.33,120.28L96.15,121.11L97.33,121.79L98.19,122.07"/><path d="M102.56,153.95L102.06,154.04L100.40,154.07L99.49,153.94"/><path d="M107.14,119.11L106.86,120.05L106.14,120.91L105.05,121.63L103.65,122.16L102.06,122.45L100.40,122.48L99.40,122.34"/><path d="M102.56,118.87L102.53,119.17L102.35,119.44L102.02,119.66L101.58,119.81L101.09,119.87L100.58,119.84L100.13,119.71L99.77,119.50L99.55,119.24L99.48,118.95L99.48,118.91"/><path d="M99.48,114.13L99.55,114.42L99.77,114.68L100.13,114.89L100.58,115.02L101.09,115.05L101.58,114.99L102.02,114.84L102.35,114.62L102.53,114.35L102.56,114.06"/><path d="M100.07,113.47L99.86,113.67L99.77,113.90L99.82,114.14L100.00,114.35L100.30,114.52L100.67,114.62L101.08,114.65L101.48,114.60L101.83,114.48L102.10,114.30L102.25,114.08L102.27,113.84L102.15,113.62L101.91,113.42"/></g><g style="stroke:#000000;stroke-width:0.529"><path d="M95.77,117.24L95.50,117.48L94.99,118.39L94.93,119.35L94.93,150.94L95.33,151.87L96.15,152.70L97.33,153.37L98.78,153.84L99.49,153.94"/><path d="M98.63,115.79L97.67,116.05L96.53,116.62"/><path d="M102.56,114.46L102.56,114.06L102.41,113.78L102.12,113.54L101.91,113.42L101.57,113.29L101.18,113.22L100.77,113.23L100.38,113.32L100.07,113.47L99.85,113.60L99.59,113.85L99.48,114.13L99.48,114.53"/><path d="M100.58,156.30L100.87,156.34L101.28,156.34L101.33,156.32"/><path d="M103.61,115.83L104.02,115.93L105.35,116.50L106.36,117.27L106.97,118.16L107.14,119.11L107.14,150.70L106.86,151.64L106.14,152.50L105.05,153.22L103.65,153.75L102.56,153.95"/></g></g><g id="Actor_.10"><g style="stroke:#000000;stroke-width:0.176"><path d="M34.92,101.37L34.24,101.76L21.56,94.49L21.20,94.21L21.02,93.88L21.02,131.79"/><path d="M21.02,93.88L21.02,93.54"/><path d="M24.41,95.34L22.24,94.10L22.06,93.96L21.97,93.80L21.97,93.62L22.06,93.46L22.24,93.32L27.69,90.19"/><path d="M25.08,94.70L25.35,94.65L25.57,94.72L25.71,94.89L25.78,95.16L25.76,95.48L25.65,95.83L25.56,96.00"/><path d="M24.87,95.61L27.69,97.23"/><path d="M34.24,139.67L39.69,136.48L40.37,136.09"/><path d="M35.01,125.59L34.76,125.60L34.44,125.78L34.24,126.13L34.17,126.60L34.24,127.15L34.44,127.73L34.76,128.28L35.16,128.75L35.60,129.08L38.33,130.65L39.69,133.01L39.69,136.48"/><path d="M35.01,113.75L34.76,113.75L34.44,113.94L34.24,114.28L34.17,114.76L34.24,115.31L34.44,115.89L34.76,116.44L35.16,116.90L35.60,117.24L38.33,118.80L39.01,118.41"/><path d="M34.24,101.76L39.69,111.21L39.69,114.69L38.33,115.48"/><path d="M38.33,130.65L39.01,130.26"/><path d="M40.37,126.14L38.33,127.33"/><path d="M39.69,126.53L39.69,121.16L38.33,118.80"/><path d="M39.69,133.01L40.37,132.62"/><path d="M39.69,121.16L40.37,120.77"/><path d="M39.69,114.69L40.37,114.29"/><path d="M39.69,111.21L40.37,110.82"/></g><g style="stroke:#000000;stroke-width:0.529"><path d="M21.02,131.79L21.20,132.12L21.56,132.40L34.24,139.67L34.92,139.28L40.37,136.09L40.37,132.62L39.01,130.26L36.28,128.69L35.84,128.36L35.44,127.89L35.12,127.34L34.92,126.76L34.85,126.21L34.92,125.74L35.01,125.59L35.16,125.59L35.60,125.76L38.33,127.33L40.37,126.14L40.37,120.77L39.01,118.41L36.28,116.84L35.84,116.51L35.44,116.04L35.12,115.50L34.92,114.92L34.85,114.36L34.92,113.89L35.01,113.75L35.16,113.75L35.60,113.92L38.33,115.48L40.37,114.29L40.37,110.82L34.92,101.37L27.69,97.23L27.69,90.19L27.01,89.80L21.56,92.93L21.20,93.21L21.02,93.54"/><path d="M24.75,94.92L24.58,95.09L24.41,95.34L24.87,95.61L24.97,95.44L25.08,95.09L25.10,94.77L25.08,94.70L24.97,94.75L24.83,94.85L24.75,94.92"/></g></g><g id="Actor_.11"><g style="stroke:#000000;stroke-width:0.176"><path d="M117.54,106.18L117.54,105.26L117.35,104.73L117.20,104.35L117.04,104.05L116.85,103.78"/><path d="M117.54,105.26L118.24,105.24L118.83,105.29L118.28,105.16L117.79,104.95L117.42,104.67L117.20,104.35L117.12,104.01L117.20,103.66L117.43,103.34L117.79,103.07L118.27,102.86L118.83,102.72L118.94,102.72"/><path d="M117.99,104.29L117.97,104.27L117.99,104.33L118.03,104.36"/><path d="M117.90,104.00L117.89,104.04L117.90,104.07"/><path d="M117.95,104.22L117.97,104.27"/><path d="M118.60,104.74L118.57,104.73L118.64,104.77L118.70,104.78"/><path d="M118.23,104.55L118.20,104.53L118.16,104.48"/><path d="M119.06,104.86L119.03,104.85L119.11,104.87L119.18,104.87"/><path d="M119.85,105.30L119.42,105.33L118.83,105.29L119.42,105.42L119.88,105.57"/><path d="M119.03,104.85L119.03,104.85"/><path d="M118.30,104.60L118.25,104.58L118.20,104.53"/><path d="M118.50,104.70L118.57,104.73"/><path d="M119.68,104.87L119.62,104.88L119.54,104.88"/><path d="M120.84,104.36L120.82,104.40L120.74,104.46"/><path d="M120.75,104.45L120.77,104.43"/><path d="M120.79,105.07L121.07,104.95L120.80,105.12"/><path d="M120.59,102.86L121.07,103.07L121.44,103.35L121.67,103.66L121.74,104.00L121.67,104.35L121.43,104.67L121.07,104.95L121.50,104.73L122.01,104.57"/><path d="M120.93,104.15L120.93,104.18L120.91,104.22"/><path d="M120.93,104.18L120.96,104.12L120.96,104.08"/></g><g style="stroke:#000000;stroke-width:0.529"><path d="M119.97,106.59L119.42,106.61L118.83,106.55L118.24,106.42L117.54,106.18L117.35,105.92L117.20,105.61L117.04,105.24L116.85,104.70L116.85,103.78L117.36,103.35L117.79,103.07L118.23,102.86L118.74,102.70L119.18,102.68"/><path d="M118.94,104.83L119.03,104.85"/><path d="M119.43,104.88L119.54,104.88L119.56,104.88"/><path d="M120.59,102.85L120.62,102.85L121.32,103.09L121.51,103.36L121.67,103.66L121.82,104.04L122.01,104.57L122.01,105.50L121.50,105.92L121.07,106.21L120.90,106.29"/></g></g><g id="Actor_.12"><g style="stroke:#000000;stroke-width:0.176"><path d="M113.31,108.31L113.48,109.26L113.63,109.47L114.09,110.15L115.10,110.91L116.43,111.49L117.98,111.84L119.64,111.94L120.45,111.86"/><path d="M117.89,143.41L117.99,143.43L119.64,143.53L120.96,143.40"/><path d="M120.21,109.19L119.75,109.30L119.24,109.31L118.75,109.22L118.34,109.06L118.05,108.82L117.90,108.54L117.90,108.36"/><path d="M119.78,104.47L119.75,104.48L119.24,104.49L118.75,104.41L118.34,104.24L118.05,104.00L117.90,103.72"/><path d="M118.62,102.83L118.35,103.01L118.20,103.23L118.19,103.46L118.30,103.69L118.54,103.88L118.88,104.02L119.28,104.09L119.69,104.08L119.74,104.07"/><path d="M125.52,108.07L125.46,109.03L124.96,109.94L124.05,110.74L122.79,111.37L121.40,111.75"/><path d="M120.70,104.09L120.87,103.93L120.97,103.65"/><path d="M120.62,103.15L120.63,103.17L120.68,103.40L120.65,103.50"/></g><g style="stroke:#000000;stroke-width:0.529"><path d="M117.89,143.41L116.43,143.08L115.10,142.50L114.09,141.74L113.48,140.85L113.31,139.90L113.31,108.31L113.60,107.37L114.31,106.50L115.41,105.78L116.80,105.26L117.03,105.22"/><path d="M119.62,102.67L119.38,102.66L118.98,102.71L118.62,102.83L118.43,102.94L118.11,103.16L117.92,103.43L117.90,103.72L117.90,104.12"/><path d="M119.68,145.77L119.48,145.79L119.07,145.76L118.98,145.74"/><path d="M120.96,143.40L121.28,143.37L122.79,142.96L124.05,142.33L124.96,141.53L125.46,140.62L125.52,139.66L125.52,108.07L125.13,107.14L124.31,106.31L123.13,105.63L122.01,105.27"/><path d="M120.97,104.04L120.97,103.65L120.91,103.36L120.69,103.10L120.61,103.05"/></g></g><g id="Actor_.13"><g style="stroke:#000000;stroke-width:0.176"><path d="M116.85,105.83L117.04,106.10L117.20,106.40L117.12,106.06L117.20,105.72L117.23,105.67"/><path d="M117.54,108.24L117.54,107.31L117.35,106.78L117.20,106.40L117.42,106.72L117.79,107.00L118.28,107.21L118.83,107.34L119.42,107.39L120.03,107.34L120.04,107.34"/><path d="M120.07,107.69L119.42,107.47L118.83,107.34L118.24,107.29L117.54,107.31"/><path d="M118.03,106.41L117.99,106.38L117.98,106.33"/><path d="M118.50,106.75L118.64,106.82L118.70,106.83"/><path d="M118.94,106.89L119.11,106.93L119.15,106.93"/><path d="M118.16,106.54L118.25,106.63L118.30,106.66"/><path d="M120.12,108.63L120.12,108.26"/><path d="M119.61,106.94L119.62,106.94L119.68,106.93"/><path d="M120.00,106.87L119.93,106.89"/><path d="M120.97,107.06L121.07,107.00L121.43,106.73L121.67,106.40L121.74,106.06L121.68,105.77"/><path d="M122.01,106.63L121.50,106.79L121.07,107.00L120.97,107.04"/></g><g style="stroke:#000000;stroke-width:0.529"><path d="M120.16,108.62L120.12,108.63L119.42,108.66L118.83,108.61L118.24,108.48L117.54,108.24L117.35,107.97L117.20,107.67L117.04,107.29L116.85,106.76L116.85,105.83L117.17,105.56"/><path d="M119.18,106.93L119.15,106.93"/><path d="M119.61,106.94L119.43,106.93"/><path d="M121.08,108.25L121.51,107.97L122.01,107.55L122.01,106.63L121.82,106.09L121.69,105.77"/></g></g><g id="Actor_.14"><g style="stroke:#000000;stroke-width:0.176"><path d="M263.94,116.63L263.94,116.63"/><path d="M264.62,117.73L264.46,117.83"/></g><g style="stroke:#000000;stroke-width:0.529"><path d="M264.74,118.47L264.73,118.26L264.62,117.73L264.29,117.12L263.94,116.63"/><path d="M263.25,115.94L263.54,116.19L263.94,116.63"/></g></g><g id="Actor_.15"><g style="stroke:#000000;stroke-width:0.176"><path d="M125.83,197.90L126.20,198.04L126.54,198.03L126.80,197.85L126.95,197.53L126.98,197.11L126.89,196.63L126.68,196.14L126.38,195.69L126.08,195.40L126.02,195.34L125.64,195.13L125.27,195.06L124.97,195.16L124.76,195.41L124.67,195.79"/><path d="M126.87,198.17L127.17,197.96L127.35,197.59L127.39,197.09L127.28,196.52L127.03,195.95L126.68,195.42L126.25,195.01L125.81,194.75L125.38,194.68L125.03,194.80"/><path d="M126.00,198.00L126.03,198.02"/><path d="M133.35,199.29L134.03,198.57L134.43,197.51L134.51,196.19L134.27,194.72L133.73,193.19L132.92,191.73L131.91,190.45L130.78,189.43L129.60,188.75L128.46,188.47L127.46,188.60"/><path d="M129.04,192.50L129.19,192.41L129.54,192.29L129.96,192.37L130.41,192.63L130.84,193.04L131.19,193.56L131.44,194.14L131.46,194.28L131.55,194.71L131.51,195.20L131.33,195.57L130.85,195.88"/><path d="M264.93,118.99L264.62,118.12L263.81,116.66L263.03,115.65"/><path d="M266.60,117.50L266.56,116.96L266.38,116.39L266.08,115.83L265.68,115.35L265.24,115.01"/><path d="M266.58,117.31L266.60,117.25"/></g><g style="stroke:#000000;stroke-width:0.529"><path d="M127.21,197.97L126.87,198.17L126.47,198.19L126.03,198.02L125.83,197.90L125.45,197.61L125.11,197.21L124.88,196.77L124.70,196.24L124.67,195.53L124.78,195.09L125.03,194.80L125.37,194.60"/><path d="M126.19,193.57L125.95,192.65L125.87,191.24L126.11,190.04L126.65,189.14L127.46,188.60L219.30,135.92"/><path d="M171.88,177.19L133.35,199.29L132.44,199.63L131.36,199.56L130.19,199.07L129.02,198.22L128.71,197.88"/><path d="M229.33,144.24L172.80,176.67"/><path d="M263.03,115.65L262.81,115.37L261.67,114.35L260.49,113.67L259.36,113.39L258.35,113.52L220.18,135.41"/><path d="M230.21,143.74L264.24,124.22L264.92,123.49L265.32,122.43L265.40,121.11L265.16,119.64L264.93,118.99"/><path d="M265.05,114.94L265.24,115.01L265.44,115.13L265.82,115.42L266.16,115.83L266.41,116.30L266.57,116.79L266.60,117.50L266.53,117.77"/></g></g><g id="Actor_.16"><g style="stroke:#000000;stroke-width:0.176"><path d="M188.98,64.91L189.15,65.86L189.77,66.75L190.77,67.51L192.10,68.09L193.65,68.44L195.31,68.54L196.95,68.37L198.46,67.96L199.72,67.33L200.63,66.53L201.14,65.62L201.19,64.67"/><path d="M196.64,99.99L195.31,100.13L193.66,100.03L193.56,100.01"/><path d="M196.64,64.90L196.64,65.06L196.54,65.35L196.28,65.60L195.89,65.79L195.42,65.89L194.91,65.90L194.43,65.82L194.01,65.65L193.72,65.41L193.57,65.14L193.57,64.96"/><path d="M193.57,60.32L193.72,60.60L194.01,60.83L194.43,61.00L194.91,61.09L195.42,61.07L195.89,60.97L196.28,60.78L196.54,60.53L196.64,60.24"/><path d="M194.29,59.42L194.03,59.60L193.88,59.82L193.86,60.06L193.98,60.29L194.22,60.48L194.55,60.62L194.95,60.68L195.36,60.68L195.74,60.59L196.06,60.44L196.27,60.23L196.35,60.00L196.30,59.77L196.12,59.55"/></g><g style="stroke:#000000;stroke-width:0.529"><path d="M192.70,61.81L192.47,61.86L191.08,62.38L189.98,63.10L189.27,63.96L188.98,64.91L188.98,96.50L189.15,97.45L189.77,98.34L190.77,99.10L192.10,99.68L193.56,100.01"/><path d="M196.64,60.64L196.64,60.24L196.58,59.96L196.36,59.69L195.83,59.39L195.46,59.28L195.05,59.25L194.65,59.30L194.29,59.42L194.11,59.53L193.78,59.76L193.59,60.03L193.57,60.32L193.57,60.71"/><path d="M194.65,102.33L194.75,102.36L195.15,102.39L195.35,102.36"/><path d="M201.19,67.83L201.19,96.26L201.14,97.21L200.63,98.12L199.72,98.92L198.46,99.55L196.95,99.96L196.64,99.99"/><path d="M197.68,61.87L198.80,62.23L199.98,62.90L200.80,63.74L201.19,64.67L201.19,66.37"/></g></g><g id="Actor_.17"><g style="stroke:#000000;stroke-width:0.176"><path d="M263.94,89.28L263.94,89.28"/><path d="M264.62,90.38L264.46,90.47"/></g><g style="stroke:#000000;stroke-width:0.529"><path d="M263.25,88.58L263.54,88.83L263.94,89.28"/><path d="M263.94,89.28L264.29,89.77L264.62,90.38L264.73,90.91L264.74,91.12"/></g></g><g id="Actor_.18"><g style="stroke:#000000;stroke-width:0.176"><path d="M150.40,29.20L150.40,57.71"/><path d="M150.40,24.50L150.40,19.81L155.86,16.68L156.10,16.58L156.39,16.52L156.69,16.52L156.98,16.58L157.22,16.68L169.90,23.95L175.35,33.40L175.35,36.87L173.99,37.67"/><path d="M150.40,19.81L149.72,19.41"/><path d="M153.25,51.21L153.40,51.15L153.63,51.16L153.82,51.29L153.92,51.51L153.95,51.81L153.88,52.15L153.73,52.50L153.52,52.81L153.26,53.06L153.13,53.15L153.00,53.21L152.74,53.26L152.53,53.19L152.38,53.01L152.33,52.81"/><path d="M152.33,22.80L152.38,23.00L152.53,23.18L152.74,23.25L153.00,23.20L153.13,23.14L153.26,23.05L153.52,22.80L153.73,22.49L153.88,22.14L153.95,21.80L153.92,21.50L153.82,21.28L153.63,21.15L153.40,21.14L153.25,21.20"/><path d="M170.67,47.78L170.42,47.79L170.11,47.97L169.90,48.32L169.83,48.79L169.90,49.34L170.11,49.92L170.42,50.47L170.48,50.53L170.82,50.93L171.26,51.27L173.99,52.83L174.67,52.44"/><path d="M170.67,35.93L170.42,35.94L170.11,36.12L169.90,36.47L169.83,36.94L169.90,37.49L170.11,38.07L170.42,38.62L170.82,39.09L171.26,39.42L173.99,40.99L175.35,43.35L175.35,48.72L173.99,49.51"/><path d="M176.04,58.28L175.35,58.67L169.90,61.86"/><path d="M169.90,23.95L170.58,23.56"/><path d="M173.99,52.83L175.35,55.19L176.04,54.80"/><path d="M173.99,40.99L174.67,40.59"/><path d="M175.35,58.67L175.35,55.19"/><path d="M175.35,48.72L176.04,48.33"/><path d="M175.35,43.35L176.04,42.96"/><path d="M175.35,36.87L176.04,36.48"/><path d="M175.35,33.40L176.04,33.01"/></g><g style="stroke:#000000;stroke-width:0.529"><path d="M149.72,24.11L149.72,19.41L155.18,16.29L155.66,16.08L156.24,15.98L156.84,15.98L157.41,16.08L157.90,16.29L170.58,23.56L176.04,33.01L176.04,36.48L173.99,37.67L171.26,36.10L170.82,35.93L170.67,35.94L170.58,36.08L170.51,36.55L170.58,37.10L170.79,37.68L171.10,38.23L171.50,38.70L171.95,39.03L174.67,40.59L176.04,42.96L176.04,48.33L173.99,49.51L171.26,47.95L170.82,47.78L170.67,47.78L170.58,47.92L170.51,48.40L170.58,48.95L170.79,49.53L171.10,50.08L171.50,50.54L171.95,50.88L174.67,52.44L176.04,54.80L176.04,58.28L170.58,61.47L169.90,61.86L157.22,54.59L156.98,54.48L156.69,54.43L156.39,54.43L156.10,54.48L155.86,54.59L150.40,57.71L149.72,57.32L149.72,29.59"/><path d="M152.39,52.78L152.33,52.81L152.32,52.75L152.34,52.42L152.45,52.07L152.63,51.74L152.86,51.46L153.13,51.25L153.25,51.21L153.26,51.42L153.20,51.76L153.05,52.11L152.84,52.42L152.58,52.67L152.39,52.78"/><path d="M152.33,22.80L152.32,22.74L152.34,22.41L152.45,22.06L152.63,21.73L152.86,21.45L153.13,21.24L153.25,21.20L153.26,21.41L153.20,21.75L153.05,22.10L152.84,22.41L152.58,22.66L152.33,22.80"/></g></g><g id="Actor_.19"><g style="stroke:#000000;stroke-width:0.176"><path d="M192.52,60.38L192.71,60.65L192.87,60.95L193.03,61.32L193.21,61.86L193.21,62.78"/><path d="M193.21,61.86L193.91,61.83L194.50,61.89L195.09,62.01L195.79,62.25L195.79,63.18"/><path d="M194.61,59.31L194.50,59.32L193.94,59.46L193.47,59.66L193.10,59.94L192.87,60.26L192.79,60.61L192.87,60.95L193.10,61.26L193.47,61.54L193.95,61.75L194.50,61.89L195.09,61.93L195.69,61.89L196.26,61.75L196.74,61.54L196.30,61.83L195.79,62.25"/><path d="M194.27,61.34L194.24,61.33L194.31,61.36L194.37,61.38"/><path d="M194.24,61.33L194.17,61.29"/><path d="M193.90,61.14L193.87,61.13L193.93,61.18L193.97,61.20"/><path d="M193.66,60.89L193.64,60.86L193.67,60.92L193.70,60.96"/><path d="M193.63,60.82L193.64,60.86"/><path d="M193.83,61.08L193.87,61.13"/><path d="M193.57,60.59L193.56,60.64L193.57,60.67"/><path d="M195.60,61.43L195.69,61.41L195.71,61.41"/><path d="M195.69,61.41L195.78,61.40L195.83,61.38"/><path d="M194.73,61.45L194.70,61.45"/><path d="M195.35,61.47L195.29,61.48L195.21,61.48"/><path d="M194.85,61.47L194.79,61.47L194.71,61.45"/><path d="M195.56,59.31L195.70,59.32L196.25,59.45L196.74,59.66L197.11,59.94L197.34,60.26L197.42,60.60L197.34,60.95L197.10,61.27L196.74,61.54L197.17,61.33L197.68,61.17"/><path d="M196.60,60.75L196.60,60.78L196.58,60.82"/><path d="M196.60,60.78L196.63,60.71L196.63,60.68"/><path d="M196.44,61.02L196.43,61.04L196.38,61.08"/><path d="M196.43,61.04L196.49,60.99L196.51,60.96"/><path d="M195.78,61.40L195.75,61.41"/><path d="M196.04,61.29L196.19,61.23L196.23,61.20"/></g><g style="stroke:#000000;stroke-width:0.529"><path d="M194.85,59.28L194.41,59.29L193.90,59.45L193.47,59.66L193.03,59.95L192.52,60.38L192.52,61.30L192.71,61.84L192.87,62.21L193.03,62.51L193.21,62.78L193.91,63.02L194.50,63.15L195.10,63.20L195.79,63.18L196.31,63.02L196.74,62.81L197.17,62.52L197.68,62.09L197.68,61.17L197.50,60.64L197.34,60.26L197.18,59.96L196.99,59.69L196.29,59.45L195.70,59.32L195.55,59.31"/><path d="M194.61,61.43L194.70,61.45"/><path d="M195.23,61.48L195.21,61.48L195.10,61.48"/></g></g><g id="Actor_.20"><g style="stroke:#000000;stroke-width:0.176"><path d="M170.58,75.46L170.75,76.42L171.36,77.30L172.37,78.07L173.70,78.64L175.25,79.00L176.91,79.09L177.38,79.05"/><path d="M178.23,110.55L176.91,110.68L175.25,110.59L175.16,110.56"/><path d="M177.42,76.36L177.01,76.45L176.51,76.46L176.02,76.38L175.61,76.21L175.31,75.97L175.17,75.69L175.17,75.51"/><path d="M177.49,71.52L177.01,71.63L176.51,71.64L176.02,71.56L175.61,71.39L175.31,71.15L175.17,70.88"/><path d="M175.89,69.98L175.62,70.16L175.47,70.38L175.45,70.62L175.57,70.84L175.81,71.04L176.15,71.17L176.54,71.24L176.95,71.23L177.34,71.15L177.49,71.07"/><path d="M182.79,75.22L182.73,76.18L182.22,77.09L181.31,77.89L180.05,78.52L178.55,78.93L178.33,78.95"/></g><g style="stroke:#000000;stroke-width:0.529"><path d="M175.16,110.56L173.70,110.23L172.37,109.66L171.36,108.89L170.75,108.00L170.58,107.05L170.58,75.46L170.86,74.52L171.58,73.66L172.67,72.94L174.07,72.41L174.30,72.37"/><path d="M177.51,69.99L177.42,69.94L177.05,69.84L176.64,69.81L176.24,69.86L175.89,69.98L175.70,70.09L175.37,70.31L175.19,70.58L175.17,70.88L175.17,71.27"/><path d="M176.95,112.92L176.75,112.95L176.34,112.92L176.25,112.89"/><path d="M179.28,72.43L180.40,72.79L181.57,73.46L182.39,74.30L182.79,75.22L182.79,106.81L182.73,107.77L182.22,108.68L181.31,109.48L180.05,110.11L178.55,110.52L178.23,110.55"/></g></g><g id="Actor_.21"><g style="stroke:#000000;stroke-width:0.176"><path d="M101.72,119.19L101.72,118.27L102.23,117.84L102.66,117.56L102.19,117.77L101.62,117.90L101.02,117.95L100.43,117.90L99.87,117.77L99.39,117.56L99.02,117.28L98.79,116.96L98.95,117.34L99.14,117.87L99.14,118.80"/><path d="M98.82,116.23L98.79,116.27L98.71,116.62L98.79,116.96L98.63,116.66L98.44,116.39"/><path d="M99.14,117.87L99.83,117.85L100.43,117.90L101.02,118.03L101.72,118.27"/><path d="M99.68,117.03L99.59,116.94L99.57,116.90"/><path d="M99.81,117.16L99.85,117.19L99.99,117.26"/><path d="M100.41,117.42L100.23,117.38L100.19,117.35"/><path d="M100.74,117.48L100.71,117.48L100.65,117.47"/><path d="M101.40,117.46L101.22,117.50L101.20,117.50"/><path d="M101.64,117.42L101.70,117.41L101.86,117.35"/><path d="M102.23,117.15L102.12,117.24L102.06,117.26"/><path d="M102.46,116.90L102.41,117.01L102.37,117.04"/><path d="M103.61,117.18L103.09,117.35L102.66,117.56L103.02,117.29L103.26,116.96L103.34,116.61L103.27,116.33"/></g><g style="stroke:#000000;stroke-width:0.529"><path d="M98.77,116.12L98.44,116.39L98.44,117.32L98.63,117.85L98.79,118.22L98.95,118.53L99.14,118.80L99.83,119.03L100.43,119.16L101.02,119.22L101.72,119.19L102.23,119.03L102.66,118.82L103.10,118.53L103.61,118.11L103.61,117.18L103.42,116.65L103.28,116.33"/><path d="M100.90,117.49L100.74,117.48"/><path d="M101.15,117.49L101.20,117.50"/></g></g><g id="Actor_.22"><g style="stroke:#000000;stroke-width:0.176"><path d="M101.72,117.14L101.72,116.21L101.01,115.97L100.43,115.85L99.83,115.79L99.14,115.82L98.95,115.28L98.79,114.91L98.63,114.61L98.44,114.34"/><path d="M101.72,116.21L102.22,115.80L102.66,115.50L102.18,115.71L101.62,115.85L101.01,115.89L100.43,115.85L99.87,115.72L99.39,115.50L99.02,115.22L98.79,114.91L98.71,114.57L98.79,114.22L99.02,113.90L99.39,113.63L99.86,113.42L100.43,113.28L100.58,113.27"/><path d="M99.14,115.82L99.14,116.74"/><path d="M99.99,115.21L99.92,115.17L99.90,115.16"/><path d="M99.92,115.17L99.85,115.14L99.81,115.10"/><path d="M99.63,114.92L99.64,114.94L99.68,114.98"/><path d="M99.51,114.64L99.51,114.67L99.52,114.71"/><path d="M99.57,114.85L99.59,114.89L99.64,114.94"/><path d="M99.49,114.56L99.48,114.60L99.51,114.67"/><path d="M100.77,115.43L100.80,115.43"/><path d="M100.30,115.34L100.32,115.34L100.41,115.36"/><path d="M100.65,115.42L100.71,115.43L100.79,115.43"/><path d="M100.19,115.30L100.23,115.32L100.32,115.34"/><path d="M101.15,115.44L101.22,115.44L101.25,115.44"/><path d="M101.22,115.44L101.30,115.43"/><path d="M101.75,115.34L101.77,115.33L101.70,115.36L101.64,115.37"/><path d="M102.23,115.10L102.12,115.19L102.06,115.21"/><path d="M101.77,115.33L101.86,115.30"/><path d="M102.37,114.98L102.41,114.95L102.44,114.89L102.42,114.92"/><path d="M103.61,115.13L103.09,115.29L102.66,115.50L103.02,115.23L103.26,114.91L103.34,114.56L103.26,114.22L103.03,113.90L102.66,113.63L102.17,113.41L101.62,113.28L101.49,113.27"/><path d="M102.54,114.64L102.55,114.60L102.55,114.67L102.54,114.71"/><path d="M102.46,114.85L102.44,114.89"/><path d="M102.55,114.56L102.55,114.60"/></g><g style="stroke:#000000;stroke-width:0.529"><path d="M101.47,113.27L101.62,113.28L102.21,113.41L102.91,113.65L103.10,113.92L103.26,114.22L103.42,114.60L103.61,115.13L103.61,116.06L103.09,116.48L102.66,116.77L102.23,116.98L101.72,117.14L101.02,117.16L100.43,117.11L99.83,116.98L99.14,116.74L98.95,116.47L98.79,116.17L98.63,115.80L98.44,115.26L98.44,114.34L98.96,113.91L99.39,113.63L99.82,113.42L100.33,113.25L100.72,113.24"/><path d="M100.90,115.43L100.80,115.43"/><path d="M101.40,115.41L101.30,115.43L101.27,115.43"/></g></g><g id="Actor_.23"><g style="stroke:#000000;stroke-width:0.176"><path d="M120.12,143.48L120.12,143.70"/></g><g style="stroke:#000000;stroke-width:0.529"><path d="M120.91,143.40L120.63,143.54L120.12,143.70L119.42,143.72L118.83,143.67L118.24,143.54L117.79,143.39"/></g></g><g id="Actor_.24"><g style="stroke:#000000;stroke-width:0.176"><path d="M34.87,114.50L35.75,114.00"/><path d="M34.92,126.76L39.28,129.26L48.28,124.10"/><path d="M39.28,129.26L39.28,130.05"/><path d="M45.55,108.38L40.37,111.35"/><path d="M45.20,122.23L45.07,121.99L45.07,121.68L45.23,121.38L45.55,121.13L45.99,120.95L46.51,120.85L47.05,120.85L47.57,120.95L48.01,121.13L50.73,122.69L50.73,123.48"/><path d="M55.10,102.90L48.01,106.97L48.01,110.13L47.95,110.60L47.77,111.10L47.50,111.57L47.16,111.97L46.78,112.25L46.40,112.40L46.06,112.40L45.79,112.24L45.65,112.01"/><path d="M48.01,106.97L47.33,106.58"/><path d="M50.73,122.69L57.82,118.63"/><path d="M60.28,118.01L60.28,117.22L57.55,115.66L57.11,115.47L56.60,115.38L56.05,115.38L55.54,115.47L55.10,115.66L54.78,115.91L54.61,116.20L54.61,116.51L54.75,116.75"/><path d="M56.87,101.10L57.55,101.49L57.55,104.65L57.49,105.13L57.32,105.62L57.05,106.09L56.70,106.49L56.32,106.78L55.95,106.93L55.60,106.92L55.33,106.76L55.20,106.53"/><path d="M57.55,101.49L61.23,99.38"/><path d="M60.28,117.22L66.69,113.54"/><path d="M70.78,93.91L63.69,97.97L63.69,101.13L63.63,101.61L63.45,102.10L63.18,102.57L62.84,102.97L62.46,103.26L62.08,103.41L61.74,103.40L61.47,103.24L61.33,103.01"/><path d="M69.14,112.93L69.14,112.14L66.41,110.57L65.98,110.39L65.46,110.29L64.92,110.29L64.40,110.39L63.96,110.57L63.64,110.82L63.47,111.12L63.48,111.44L63.61,111.67"/><path d="M63.69,97.97L63.01,97.58"/><path d="M69.14,112.14L76.23,108.07"/><path d="M72.55,92.11L73.23,92.50L73.23,95.66L73.17,96.13L73.00,96.63L72.73,97.10L72.38,97.50L72.00,97.79L71.63,97.93L71.28,97.93L71.01,97.77L70.88,97.54"/><path d="M73.15,106.20L73.02,105.96L73.02,105.65L73.19,105.35L73.50,105.10L73.94,104.91L74.46,104.82L75.00,104.82L75.52,104.91L75.96,105.10L78.69,106.66L78.69,107.45"/><path d="M73.23,92.50L81.12,87.97"/><path d="M78.69,106.66L87.85,101.41"/><path d="M104.86,74.36L81.95,87.50"/><path d="M114.41,86.17L88.68,100.93"/><path d="M106.64,72.56L107.32,72.95L107.32,76.11L107.26,76.58L107.08,77.08L106.81,77.55L106.47,77.95L106.09,78.23L105.71,78.38L105.37,78.38L105.11,78.22L104.96,77.99"/><path d="M107.32,72.95L114.41,68.88"/><path d="M111.33,84.30L111.19,84.06L111.19,83.75L111.36,83.45L111.68,83.20L112.12,83.02L112.64,82.92L113.18,82.92L113.70,83.02L114.14,83.20L116.86,84.76L117.94,84.15"/><path d="M116.76,71.22L116.63,71.60L116.36,72.07L116.01,72.47L115.64,72.76L115.26,72.91L114.91,72.90L114.64,72.74L114.51,72.52"/><path d="M116.86,85.55L116.86,84.76"/><path d="M116.18,67.08L116.40,67.21"/><path d="M120.54,65.36L117.36,67.19"/><path d="M118.85,83.63L123.95,80.70"/><path d="M120.87,78.83L120.74,78.59L120.74,78.27L120.91,77.98L121.23,77.73L121.66,77.54L122.18,77.45L122.72,77.45L123.24,77.54L123.68,77.73L126.41,79.29L126.41,80.08"/><path d="M120.64,69.00L120.78,69.22L121.05,69.38L121.39,69.39L121.77,69.24L122.15,68.95L122.49,68.55L122.76,68.08L122.94,67.59L123.00,67.11L123.00,63.96L122.32,63.56"/><path d="M123.00,63.96L130.09,59.89"/><path d="M126.41,79.29L132.81,75.62"/><path d="M129.74,73.74L129.60,73.50L129.60,73.19L129.77,72.90L130.09,72.64L130.53,72.46L131.04,72.36L131.59,72.36L132.10,72.46L132.54,72.64L135.27,74.21L135.27,75.00"/><path d="M146.31,50.58L132.54,58.48L132.54,61.64L132.48,62.11L132.31,62.61L132.04,63.08L131.69,63.48L131.32,63.77L130.94,63.91L130.59,63.91L130.32,63.75L130.19,63.52"/><path d="M132.54,58.48L131.86,58.09"/><path d="M135.27,74.21L142.36,70.14"/><path d="M153.81,63.57L144.81,68.73L142.09,67.17L141.65,66.99L141.13,66.89L140.59,66.89L140.07,66.99L139.63,67.17L139.31,67.42L139.15,67.72L139.15,68.03L139.28,68.27"/><path d="M143.70,56.68L143.79,56.64L144.03,56.62L144.23,56.72L144.36,56.92L144.40,57.21L144.36,57.54L144.23,57.89L144.03,58.21L143.79,58.48L143.52,58.66L143.26,58.73L143.03,58.69L142.88,58.55L142.78,58.29"/><path d="M144.81,68.73L144.81,69.52"/><path d="M145.39,62.80L145.20,62.59L145.16,62.37L145.24,62.16L145.43,61.97L145.72,61.83L146.08,61.75L146.46,61.74L146.82,61.80L147.13,61.93L147.35,62.11L147.46,62.32L147.45,62.53L147.31,62.74L147.22,62.79"/></g><g style="stroke:#000000;stroke-width:0.529"><path d="M88.16,102.02L78.69,107.45L75.96,105.89L75.52,105.70L75.00,105.61L74.46,105.61L73.94,105.70L73.50,105.89L73.19,106.14L73.15,106.20L73.19,106.25L73.50,106.51L76.23,108.07L76.23,108.86L69.14,112.93L66.41,111.36L65.98,111.18L65.46,111.08L64.92,111.08L64.40,111.18L63.96,111.36L63.64,111.61L63.61,111.67L63.64,111.73L63.96,111.98L66.69,113.54L66.69,114.33L60.28,118.01L57.55,116.45L57.11,116.26L56.60,116.17L56.05,116.17L55.54,116.26L55.10,116.44L54.78,116.70L54.75,116.75L54.78,116.81L55.10,117.06L57.82,118.63L57.82,119.42L50.73,123.48L48.01,121.92L47.57,121.74L47.05,121.64L46.51,121.64L45.99,121.74L45.55,121.92L45.23,122.17L45.20,122.23L45.24,122.29L45.55,122.54L48.28,124.10L48.28,124.89L39.28,130.05L35.40,127.83"/><path d="M40.26,110.63L44.87,107.98L45.55,108.38L45.55,111.53L45.61,111.94L45.65,112.01L45.72,112.01L46.10,111.86L46.48,111.57L46.82,111.18L47.09,110.71L47.27,110.21L47.33,109.74L47.33,106.58L54.42,102.51L55.10,102.90L55.10,106.06L55.16,106.47L55.20,106.53L55.26,106.54L55.64,106.39L56.02,106.10L56.36,105.70L56.64,105.23L56.81,104.74L56.87,104.26L56.87,101.10L60.55,98.99L61.23,99.38L61.23,102.54L61.29,102.95L61.33,103.01L61.40,103.02L61.78,102.87L62.16,102.58L62.49,102.19L62.77,101.71L62.95,101.22L63.01,100.74L63.01,97.58L70.10,93.52L70.78,93.91L70.78,97.07L70.84,97.47L70.88,97.54L70.94,97.54L71.32,97.39L71.70,97.11L72.04,96.71L72.32,96.24L72.49,95.74L72.55,95.27L72.55,92.11L80.82,87.37"/><path d="M81.65,86.89L104.18,73.97L104.86,74.36L104.86,77.52L104.92,77.92L104.96,77.99L105.03,77.99L105.41,77.84L105.79,77.56L106.13,77.16L106.40,76.69L106.58,76.19L106.64,75.72L106.64,72.56L113.73,68.49L114.41,68.88L114.41,72.04L114.47,72.45L114.51,72.52L114.57,72.52L114.95,72.37L115.33,72.08L115.68,71.68L115.95,71.21L116.12,70.72L116.18,70.24L116.18,67.08L116.38,66.97"/><path d="M88.99,101.54L114.41,86.96L114.41,86.17L111.68,84.61L111.38,84.37L111.33,84.30L111.36,84.24L111.68,83.99L112.12,83.81L112.64,83.71L113.18,83.71L113.70,83.81L114.14,83.99L116.86,85.55L118.00,84.90"/><path d="M118.92,84.38L123.95,81.49L123.95,80.70L121.23,79.13L120.91,78.88L120.87,78.83L120.91,78.77L121.23,78.52L121.66,78.33L122.18,78.24L122.72,78.24L123.24,78.33L123.68,78.52L126.41,80.08L132.81,76.40L132.81,75.62L130.09,74.05L129.77,73.80L129.74,73.74L129.77,73.69L130.09,73.43L130.53,73.25L131.04,73.15L131.59,73.15L132.10,73.25L132.54,73.43L135.27,75.00L142.36,70.93L142.36,70.14L139.63,68.58L139.31,68.32L139.28,68.27L139.31,68.21L139.63,67.96L140.07,67.77L140.59,67.68L141.13,67.68L141.65,67.78L142.09,67.96L144.81,69.52L153.81,64.36L153.81,63.57L146.99,59.66L146.78,59.50L146.59,59.28L146.44,59.02L146.35,58.74L146.31,58.48L146.31,50.58L145.63,50.19L131.86,58.09L131.86,61.25L131.80,61.72L131.63,62.22L131.36,62.69L131.01,63.09L130.63,63.37L130.25,63.52L130.19,63.52L130.15,63.45L130.09,63.05L130.09,59.89L129.41,59.50L122.32,63.56L122.32,66.72L122.26,67.20L122.08,67.69L121.81,68.16L121.47,68.56L121.09,68.85L120.71,69.00L120.64,69.00L120.60,68.93L120.54,68.52L120.54,65.36L119.86,64.97L117.29,66.45"/><path d="M142.84,58.27L143.11,58.09L143.35,57.82L143.55,57.50L143.68,57.15L143.72,56.81L143.70,56.68L143.52,56.77L143.26,57.00L143.03,57.30L142.87,57.64L142.78,57.98L142.78,58.28L142.84,58.27"/><path d="M146.25,63.05L145.98,63.03L145.64,62.94L145.39,62.80L145.72,62.62L146.08,62.54L146.46,62.53L146.82,62.59L147.13,62.72L147.22,62.79L147.06,62.90L146.73,63.02L146.36,63.06L146.25,63.05"/></g></g><g id="Actor_.25"><g style="stroke:#000000;stroke-width:0.176"><path d="M125.83,170.55L126.20,170.69L126.54,170.67L126.80,170.50L126.95,170.18L126.98,169.76L126.89,169.27L126.68,168.78L126.38,168.34L126.02,167.99L125.64,167.77L125.27,167.71L124.97,167.81L124.76,168.06L124.67,168.43"/><path d="M126.87,170.81L127.17,170.61L127.35,170.23L127.39,169.74L127.28,169.17L127.03,168.59L126.68,168.07L126.25,167.66L126.00,167.51L125.81,167.40L125.38,167.33L125.03,167.44"/><path d="M126.00,170.64L126.03,170.67"/><path d="M133.35,171.94L134.03,171.21L134.43,170.15L134.51,168.84L134.44,168.45L134.27,167.36L133.73,165.84L132.92,164.38L132.75,164.16L131.91,163.09L130.78,162.07L129.60,161.40L128.46,161.11L127.46,161.25"/><path d="M129.04,165.14L129.19,165.06L129.17,165.08"/><path d="M129.19,165.06L129.54,164.94L129.96,165.02L130.08,165.08L130.41,165.27L130.84,165.69L131.19,166.21L131.44,166.78L131.55,167.35L131.51,167.85L131.33,168.22L130.85,168.53"/><path d="M264.93,91.64L264.62,90.76L263.81,89.30L263.03,88.30"/><path d="M266.60,90.15L266.56,89.61L266.38,89.03L266.08,88.47L265.68,88.00L265.24,87.66"/><path d="M266.58,89.95L266.60,89.90"/></g><g style="stroke:#000000;stroke-width:0.529"><path d="M125.37,167.25L125.03,167.44L124.78,167.74L124.67,168.18L124.70,168.89L124.86,169.38L125.11,169.86L125.45,170.26L125.83,170.55L126.03,170.67L126.47,170.84L126.87,170.81L127.21,170.62"/><path d="M126.19,166.22L125.95,165.29L125.87,163.88L126.11,162.68L126.65,161.78L127.46,161.25L258.35,86.17L259.36,86.04L260.49,86.32L261.67,87.00L262.81,88.02L263.03,88.30"/><path d="M128.71,170.52L129.02,170.86L130.19,171.72L131.36,172.20L132.44,172.28L133.35,171.94L209.84,128.07"/><path d="M264.93,91.64L265.16,92.29L265.40,93.76L265.32,95.08L264.92,96.14L264.24,96.86L210.73,127.56"/><path d="M265.06,87.59L265.24,87.66L265.44,87.78L265.82,88.07L266.16,88.47L266.41,88.95L266.57,89.44L266.60,90.15L266.53,90.41"/></g></g><g id="Actor_.26"><g style="stroke:#000000;stroke-width:0.176"><path d="M98.73,153.83L98.79,154.08L98.95,154.46L99.14,154.99L99.83,154.96L100.43,155.02L101.02,155.06L101.62,155.02L102.19,154.88L102.66,154.67L102.23,154.96L101.72,155.39L101.72,156.31"/><path d="M98.64,153.80L98.79,154.08L99.02,154.40L99.39,154.67L99.87,154.89L100.43,155.02L101.02,155.15L101.72,155.39"/><path d="M99.14,154.99L99.14,155.91"/><path d="M99.61,154.07L99.59,154.06L99.57,154.01"/><path d="M99.87,154.32L99.85,154.31L99.79,154.26"/><path d="M100.27,154.50L100.23,154.50L100.16,154.46"/><path d="M100.74,154.60L100.71,154.60L100.61,154.58"/><path d="M101.20,154.61L101.22,154.61L101.25,154.61"/><path d="M101.73,154.52L101.70,154.53L101.60,154.55"/><path d="M102.14,154.35L102.12,154.36L102.03,154.40"/><path d="M102.42,154.11L102.41,154.12L102.35,154.17"/><path d="M103.61,154.30L103.09,154.46L102.66,154.67L103.02,154.40L103.26,154.08L103.32,153.81"/></g><g style="stroke:#000000;stroke-width:0.529"><path d="M103.42,153.79L103.61,154.30L103.61,155.23L103.10,155.65L102.66,155.94L102.23,156.15L101.72,156.31L101.02,156.34L100.43,156.28L99.83,156.15L99.14,155.91L98.95,155.64L98.79,155.34L98.63,154.97L98.44,154.43L98.44,153.74"/><path d="M100.74,154.60L100.74,154.60"/><path d="M101.11,154.61L101.20,154.61"/></g></g><g id="Actor_.27"><g style="stroke:#000000;stroke-width:0.176"><path d="M192.80,99.83L192.87,100.12L193.03,100.50L193.21,101.03L193.21,101.95"/><path d="M192.71,99.81L192.87,100.12L193.10,100.43L193.47,100.71L193.95,100.93L194.50,101.06L195.10,101.19L195.79,101.42L195.79,102.35"/><path d="M193.21,101.03L193.91,101.00L194.50,101.06L195.10,101.10L195.70,101.06L196.27,100.92L196.74,100.71L196.31,101.00L195.79,101.42"/><path d="M193.72,100.15L193.67,100.10L193.66,100.08"/><path d="M194.00,100.39L193.93,100.35L193.91,100.33"/><path d="M194.41,100.56L194.31,100.54L194.29,100.52"/><path d="M194.82,100.64L194.79,100.64L194.75,100.63"/><path d="M195.28,100.65L195.29,100.65L195.39,100.64"/><path d="M195.75,100.58L195.78,100.57L195.86,100.54"/><path d="M197.68,100.34L197.17,100.50L196.74,100.71L197.10,100.44L197.34,100.12L197.40,99.84"/><path d="M196.25,100.35L196.19,100.40L196.17,100.41"/><path d="M196.52,100.11L196.49,100.16L196.47,100.18"/></g><g style="stroke:#000000;stroke-width:0.529"><path d="M197.50,99.81L197.68,100.34L197.68,101.27L197.18,101.68L196.74,101.98L196.31,102.19L195.79,102.35L195.10,102.37L194.50,102.32L193.91,102.19L193.21,101.95L193.03,101.68L192.87,101.38L192.71,101.01L192.52,100.47L192.52,99.77"/><path d="M194.89,100.64L194.82,100.64"/><path d="M195.28,100.65L195.26,100.65"/></g></g><g id="Actor_.28"><g style="stroke:#000000;stroke-width:0.176"><path d="M124.88,194.13L125.21,194.15L125.55,194.14L125.22,194.24L124.95,194.49L124.79,194.85L124.74,195.25"/><path d="M126.52,193.97L125.96,194.08L125.55,194.14L125.94,194.17L126.37,194.35L126.80,194.66L127.19,195.07L126.85,194.59L126.52,193.97L127.32,193.52"/><path d="M126.48,198.19L126.80,198.32L127.19,198.36L127.52,198.25L127.79,198.01L127.95,197.65L128.01,197.18L128.04,197.68L128.15,198.19"/><path d="M128.01,197.18L127.95,196.67L127.79,196.11L127.52,195.56L127.19,195.07L127.60,195.52L128.15,196.01L128.04,196.66L128.01,197.18"/><path d="M128.15,196.01L128.95,195.55"/></g><g style="stroke:#000000;stroke-width:0.529"><path d="M124.74,195.27L124.77,194.79L124.88,194.13L125.68,193.67L126.24,193.56L126.64,193.51L126.99,193.49L127.32,193.52L127.87,194.00L128.28,194.45L128.62,194.93L128.95,195.55L129.07,196.08L129.10,196.56L129.07,197.08L128.95,197.74L128.15,198.19L127.59,198.30L127.19,198.36L126.85,198.37L126.52,198.35L126.22,198.09"/></g></g><g id="Actor_.29"><g style="stroke:#000000;stroke-width:0.176"><path d="M117.54,145.36L117.54,144.43L117.35,143.90L117.20,143.52L117.13,143.24"/><path d="M120.12,145.75L120.12,144.83L120.63,144.40L121.07,144.12L120.59,144.33L120.03,144.46L119.42,144.51L118.83,144.46L118.24,144.41L117.54,144.43"/><path d="M120.12,144.83L119.42,144.59L118.83,144.46L118.28,144.33L117.79,144.12L117.42,143.84L117.20,143.52L117.03,143.22"/><path d="M118.05,143.55L117.99,143.50L117.99,143.48"/><path d="M118.24,143.73L118.25,143.75L118.33,143.79"/><path d="M118.74,143.96L118.64,143.94L118.61,143.93"/><path d="M119.15,144.05L119.11,144.04L119.08,144.04"/><path d="M119.61,144.06L119.62,144.06L119.72,144.04"/><path d="M120.19,143.94L120.11,143.97L120.08,143.98"/><path d="M122.01,143.74L121.50,143.91L121.07,144.12L121.43,143.85L121.67,143.52L121.73,143.24"/><path d="M120.58,143.76L120.52,143.80L120.49,143.82"/><path d="M120.85,143.51L120.82,143.57L120.80,143.58"/></g><g style="stroke:#000000;stroke-width:0.529"><path d="M121.83,143.22L122.01,143.74L122.01,144.67L121.51,145.09L121.07,145.38L120.63,145.59L120.12,145.75L119.42,145.78L118.83,145.72L118.24,145.60L117.54,145.36L117.35,145.09L117.20,144.79L117.04,144.41L116.85,143.88L116.85,143.18"/><path d="M119.22,144.05L119.15,144.05"/><path d="M119.61,144.06L119.59,144.06"/></g></g><g id="Actor_.30"><g style="stroke:#000000;stroke-width:0.176"><path d="M177.39,110.85L177.39,110.64"/></g><g style="stroke:#000000;stroke-width:0.529"><path d="M178.18,110.56L177.90,110.69L177.39,110.85L176.69,110.88L176.10,110.82L175.51,110.70L175.05,110.54"/></g></g><g id="Actor_.31"><g style="stroke:#000000;stroke-width:0.176"><path d="M101.72,154.04L101.72,154.26"/></g><g style="stroke:#000000;stroke-width:0.529"><path d="M102.52,153.96L102.23,154.10L101.72,154.26L101.02,154.28L100.43,154.23L99.83,154.10L99.30,153.92"/></g></g><g id="Actor_.32"><g style="stroke:#000000;stroke-width:0.176"><path d="M174.40,110.39L174.46,110.68L174.30,110.37"/><path d="M174.81,112.51L174.81,111.59L175.51,111.56L176.10,111.61L176.69,111.66L177.30,111.61L177.86,111.48L178.33,111.27L177.90,111.56L177.39,111.98L177.39,112.91"/><path d="M174.81,111.59L174.62,111.05L174.46,110.68L174.69,110.99L175.06,111.27L175.55,111.48L176.10,111.61L176.69,111.74L177.39,111.98"/><path d="M175.31,110.70L175.26,110.65L175.25,110.63"/><path d="M176.41,111.20L176.38,111.20L176.35,111.19"/><path d="M175.60,110.94L175.52,110.90L175.50,110.89"/><path d="M176.00,111.11L175.91,111.09L175.88,111.08"/><path d="M176.87,111.21L176.89,111.21L176.99,111.19"/><path d="M177.46,111.09L177.37,111.13L177.34,111.13"/><path d="M179.28,110.90L178.77,111.06L178.33,111.27L178.70,111.00L178.93,110.68L178.99,110.40"/><path d="M177.85,110.91L177.79,110.96L177.76,110.97"/><path d="M178.11,110.66L178.08,110.72L178.06,110.74"/></g><g style="stroke:#000000;stroke-width:0.529"><path d="M174.12,110.33L174.12,111.03L174.30,111.56L174.46,111.94L174.62,112.24L174.81,112.51L175.51,112.75L176.10,112.88L176.69,112.93L177.39,112.91L177.90,112.75L178.33,112.53L178.77,112.24L179.28,111.82L179.28,110.90L179.09,110.37"/><path d="M176.48,111.20L176.41,111.20"/><path d="M176.85,111.21L176.87,111.21"/></g></g><g id="Actor_.33"><g style="stroke:#000000;stroke-width:0.176"><path d="M195.79,100.30L195.79,100.08"/></g><g style="stroke:#000000;stroke-width:0.529"><path d="M196.58,100.00L196.31,100.13L195.79,100.30L195.10,100.32L194.50,100.27L193.91,100.14L193.46,99.98"/></g></g><g><g><path style="stroke:#000000;stroke-width:0.125;stroke-dasharray:2.0 1.4 0.7 1.4" d="M140.86,67.24L170.58,84.29"/><path style="stroke:#000000;stroke-width:0.125;stroke-dasharray:2.0 1.4 0.7 1.4" d="M182.79,91.29L188.98,94.84"/></g></g><g><g><path style="stroke:#000000;stroke-width:0.125;stroke-dasharray:2.0 1.4 0.7 1.4" d="M170.72,49.92L177.75,53.95"/><path style="stroke:#000000;stroke-width:0.125;stroke-dasharray:2.0 1.4 0.7 1.4" d="M178.69,54.50L191.90,62.07"/><path style="stroke:#000000;stroke-width:0.125;stroke-dasharray:2.0 1.4 0.7 1.4" d="M232.61,100.93L216.65,91.77L216.65,76.27L201.44,67.54"/><path style="stroke:#000000;stroke-width:0.125;stroke-dasharray:2.0 1.4 0.7 1.4" d="M244.88,107.97L256.46,114.61"/></g></g><g><g><path style="stroke:#000000;stroke-width:0.125;stroke-dasharray:2.0 1.4 0.7 1.4" d="M122.45,77.80L170.58,105.40"/></g></g><g><g><path style="stroke:#000000;stroke-width:0.125;stroke-dasharray:2.0 1.4 0.7 1.4" d="M170.72,38.08L177.92,42.21"/><path style="stroke:#000000;stroke-width:0.125;stroke-dasharray:2.0 1.4 0.7 1.4" d="M178.88,42.75L207.47,59.16"/><path style="stroke:#000000;stroke-width:0.125;stroke-dasharray:2.0 1.4 0.7 1.4" d="M208.32,59.64L256.46,87.25"/></g></g><g><g><path style="stroke:#000000;stroke-width:0.125;stroke-dasharray:2.0 1.4 0.7 1.4" d="M142.36,33.04L177.76,53.34"/><path style="stroke:#000000;stroke-width:0.125;stroke-dasharray:2.0 1.4 0.7 1.4" d="M178.70,53.88L192.75,61.94"/></g></g><g><g><path style="stroke:#000000;stroke-width:0.125;stroke-dasharray:2.0 1.4 0.7 1.4" d="M174.35,72.50L123.95,43.59"/></g></g><g><g><path style="stroke:#000000;stroke-width:0.125;stroke-dasharray:2.0 1.4 0.7 1.4" d="M65.19,110.64L94.93,127.71"/><path style="stroke:#000000;stroke-width:0.125;stroke-dasharray:2.0 1.4 0.7 1.4" d="M113.31,138.25L107.14,134.71"/></g></g><g><g><path style="stroke:#000000;stroke-width:0.125;stroke-dasharray:2.0 1.4 0.7 1.4" d="M46.78,121.20L94.93,148.82"/></g></g><g><g><path style="stroke:#000000;stroke-width:0.125;stroke-dasharray:2.0 1.4 0.7 1.4" d="M66.69,76.44L78.84,83.41"/><path style="stroke:#000000;stroke-width:0.125;stroke-dasharray:2.0 1.4 0.7 1.4" d="M80.34,84.27L117.08,105.35"/></g></g><g><g><path style="stroke:#000000;stroke-width:0.125;stroke-dasharray:2.0 1.4 0.7 1.4" d="M48.28,87.00L93.67,113.03"/><path style="stroke:#000000;stroke-width:0.125;stroke-dasharray:2.0 1.4 0.7 1.4" d="M98.68,115.90L95.17,113.89"/></g></g><g><g><path style="stroke:#000000;stroke-width:0.125;stroke-dasharray:2.0 1.4 0.7 1.4" d="M36.83,126.72L82.76,153.06L82.76,168.57L126.31,193.55"/></g></g><g><g><path style="stroke:#000000;stroke-width:0.125;stroke-dasharray:2.0 1.4 0.7 1.4" d="M36.83,114.87L126.31,166.20"/></g></g><g><g><path style="stroke:#000000;stroke-width:0.125" d="M242.77,19.33L196.63,72.34"/></g><g><path style="fill:#000000" d="M197.38,72.34L197.38,72.26L197.37,72.19L197.35,72.12L197.33,72.05L197.30,71.98L197.26,71.92L197.21,71.86L197.16,71.81L197.11,71.76L197.05,71.71L196.99,71.68L196.92,71.64L196.85,71.62L196.78,71.60L196.71,71.59L196.63,71.59L196.56,71.59L196.49,71.60L196.42,71.62L196.35,71.64L196.28,71.68L196.22,71.71L196.16,71.76L196.10,71.81L196.05,71.86L196.01,71.92L195.97,71.98L195.94,72.05L195.92,72.12L195.90,72.19L195.89,72.26L195.88,72.34L195.89,72.41L195.90,72.48L195.92,72.55L195.94,72.62L195.97,72.69L196.01,72.75L196.05,72.81L196.10,72.87L196.16,72.92L196.22,72.96L196.28,73.00L196.35,73.03L196.42,73.05L196.49,73.07L196.56,73.08L196.63,73.09L196.71,73.08L196.78,73.07L196.85,73.05L196.92,73.03L196.99,73.00L197.05,72.96L197.11,72.92L197.16,72.87L197.21,72.81L197.26,72.75L197.30,72.69L197.33,72.62L197.35,72.55L197.37,72.48L197.38,72.41z"/></g><g><text xml:space="preserve" fill="#000000" stroke-width="0" x="238.33" y="18.55" font-size="3.77" opacity="1.00" font-family="Arial">KIT0141</text></g></g><g><g><path style="stroke:#000000;stroke-width:0.125" d="M178.74,19.33L177.77,85.00"/></g><g><path style="fill:#000000" d="M178.52,85.00L178.51,84.93L178.50,84.85L178.48,84.78L178.46,84.71L178.43,84.65L178.39,84.58L178.35,84.53L178.30,84.47L178.24,84.42L178.18,84.38L178.12,84.34L178.05,84.31L177.98,84.28L177.91,84.27L177.84,84.25L177.77,84.25L177.69,84.25L177.62,84.27L177.55,84.28L177.48,84.31L177.41,84.34L177.35,84.38L177.29,84.42L177.24,84.47L177.19,84.53L177.14,84.58L177.11,84.65L177.07,84.71L177.05,84.78L177.03,84.85L177.02,84.93L177.02,85.00L177.02,85.07L177.03,85.15L177.05,85.22L177.07,85.29L177.11,85.35L177.14,85.42L177.19,85.48L177.24,85.53L177.29,85.58L177.35,85.62L177.41,85.66L177.48,85.69L177.55,85.72L177.62,85.74L177.69,85.75L177.77,85.75L177.84,85.75L177.91,85.74L177.98,85.72L178.05,85.69L178.12,85.66L178.18,85.62L178.24,85.58L178.30,85.53L178.35,85.48L178.39,85.42L178.43,85.35L178.46,85.29L178.48,85.22L178.50,85.15L178.51,85.07z"/></g><g><text xml:space="preserve" fill="#000000" stroke-width="0" x="171.63" y="18.55" font-size="3.77" opacity="1.00" font-family="Arial">KIT0141</text></g></g><g><g><path style="stroke:#000000;stroke-width:0.125" d="M112.54,19.33L121.16,114.47"/></g><g><path style="fill:#000000" d="M121.91,114.47L121.91,114.39L121.90,114.32L121.88,114.25L121.86,114.18L121.83,114.11L121.79,114.05L121.74,113.99L121.69,113.94L121.64,113.89L121.58,113.84L121.52,113.80L121.45,113.77L121.38,113.75L121.31,113.73L121.24,113.72L121.16,113.72L121.09,113.72L121.02,113.73L120.95,113.75L120.88,113.77L120.81,113.80L120.75,113.84L120.69,113.89L120.63,113.94L120.58,113.99L120.54,114.05L120.50,114.11L120.47,114.18L120.45,114.25L120.43,114.32L120.42,114.39L120.41,114.47L120.42,114.54L120.43,114.61L120.45,114.68L120.47,114.75L120.50,114.82L120.54,114.88L120.58,114.94L120.63,115.00L120.69,115.05L120.75,115.09L120.81,115.13L120.88,115.16L120.95,115.18L121.02,115.20L121.09,115.21L121.16,115.22L121.24,115.21L121.31,115.20L121.38,115.18L121.45,115.16L121.52,115.13L121.58,115.09L121.64,115.05L121.69,115.00L121.74,114.94L121.79,114.88L121.83,114.82L121.86,114.75L121.88,114.68L121.90,114.61L121.91,114.54z"/></g><g><text xml:space="preserve" fill="#000000" stroke-width="0" x="105.11" y="18.55" font-size="3.77" opacity="1.00" font-family="Arial">KIT0141</text></g></g><g><g><path style="stroke:#000000;stroke-width:0.125" d="M254.57,164.57L208.52,126.35"/></g><g><path style="fill:#000000" d="M209.27,126.35L209.27,126.28L209.26,126.21L209.24,126.14L209.22,126.07L209.18,126.00L209.15,125.94L209.10,125.88L209.05,125.82L209.00,125.77L208.94,125.73L208.88,125.69L208.81,125.66L208.74,125.64L208.67,125.62L208.60,125.61L208.52,125.60L208.45,125.61L208.38,125.62L208.31,125.64L208.24,125.66L208.17,125.69L208.11,125.73L208.05,125.77L207.99,125.82L207.94,125.88L207.90,125.94L207.86,126.00L207.83,126.07L207.81,126.14L207.79,126.21L207.78,126.28L207.77,126.35L207.78,126.43L207.79,126.50L207.81,126.57L207.83,126.64L207.86,126.71L207.90,126.77L207.94,126.83L207.99,126.88L208.05,126.93L208.11,126.98L208.17,127.02L208.24,127.05L208.31,127.07L208.38,127.09L208.45,127.10L208.52,127.10L208.60,127.10L208.67,127.09L208.74,127.07L208.81,127.05L208.88,127.02L208.94,126.98L209.00,126.93L209.05,126.88L209.10,126.83L209.15,126.77L209.18,126.71L209.22,126.64L209.24,126.57L209.26,126.50L209.27,126.43z"/></g><g><text xml:space="preserve" fill="#000000" stroke-width="0" x="251.16" y="170.01" font-size="3.77" opacity="1.00" font-family="Arial">KIT0142</text></g></g><g><g><path style="stroke:#000000;stroke-width:0.125" d="M47.29,19.33L101.00,126.61"/></g><g><path style="fill:#000000" d="M101.75,126.61L101.75,126.54L101.74,126.47L101.72,126.40L101.70,126.33L101.67,126.26L101.63,126.20L101.58,126.14L101.54,126.08L101.48,126.03L101.42,125.99L101.36,125.95L101.29,125.92L101.22,125.90L101.15,125.88L101.08,125.87L101.00,125.86L100.93,125.87L100.86,125.88L100.79,125.90L100.72,125.92L100.65,125.95L100.59,125.99L100.53,126.03L100.47,126.08L100.43,126.14L100.38,126.20L100.34,126.26L100.31,126.33L100.29,126.40L100.27,126.47L100.26,126.54L100.25,126.61L100.26,126.69L100.27,126.76L100.29,126.83L100.31,126.90L100.34,126.97L100.38,127.03L100.43,127.09L100.47,127.14L100.53,127.19L100.59,127.24L100.65,127.27L100.72,127.31L100.79,127.33L100.86,127.35L100.93,127.36L101.00,127.36L101.08,127.36L101.15,127.35L101.22,127.33L101.29,127.31L101.36,127.27L101.42,127.24L101.48,127.19L101.54,127.14L101.58,127.09L101.63,127.03L101.67,126.97L101.70,126.90L101.72,126.83L101.74,126.76L101.75,126.69z"/></g><g><text xml:space="preserve" fill="#000000" stroke-width="0" x="38.58" y="18.55" font-size="3.77" opacity="1.00" font-family="Arial">KIT0141</text></g></g><g><g><path style="stroke:#000000;stroke-width:0.125" d="M199.08,195.98L168.46,174.17"/></g><g><path style="fill:#000000" d="M169.21,174.17L169.21,174.10L169.20,174.02L169.18,173.95L169.16,173.88L169.12,173.82L169.09,173.75L169.04,173.69L168.99,173.64L168.94,173.59L168.88,173.55L168.82,173.51L168.75,173.48L168.68,173.45L168.61,173.43L168.54,173.42L168.46,173.42L168.39,173.42L168.32,173.43L168.24,173.45L168.18,173.48L168.11,173.51L168.05,173.55L167.99,173.59L167.93,173.64L167.88,173.69L167.84,173.75L167.80,173.82L167.77,173.88L167.74,173.95L167.73,174.02L167.72,174.10L167.71,174.17L167.72,174.24L167.73,174.32L167.74,174.39L167.77,174.46L167.80,174.52L167.84,174.59L167.88,174.65L167.93,174.70L167.99,174.75L168.05,174.79L168.11,174.83L168.18,174.86L168.24,174.89L168.32,174.90L168.39,174.92L168.46,174.92L168.54,174.92L168.61,174.90L168.68,174.89L168.75,174.86L168.82,174.83L168.88,174.79L168.94,174.75L168.99,174.70L169.04,174.65L169.09,174.59L169.12,174.52L169.16,174.46L169.18,174.39L169.20,174.32L169.21,174.24z"/></g><g><text xml:space="preserve" fill="#000000" stroke-width="0" x="196.28" y="201.41" font-size="3.77" opacity="1.00" font-family="Arial">KIT0142</text></g></g><g/><g><g/><g><text xml:space="preserve" fill="#000000" stroke-width="0" x="4.79" y="9.17" font-size="4.53" opacity="1.00" font-family="Arial" font-weight="bold">BPA22407</text></g></g><g id="paperID" visibility="hidden" opacity="0.00" transform="scale(0.000100)"><path style="stroke:#000000;stroke-width:0.500;fill:#e6e6e6;fill-rule:evenodd" d="M-2000.00,-2000.00L2297.00,-2000.00L2297.00,2210.00L-2000.00,2210.00zM0.00,0.00L297.00,0.00L297.00,210.00L0.00,210.00z"/><path style="fill:#000000;fill-opacity:0.118" d="M3.00,210.00L297.00,210.00L297.00,3.00L300.00,3.00L300.00,213.00L3.00,213.00z"/></g></g></svg>
