<?xml version="1.0" encoding="UTF-8" standalone="no"?>
<svg xmlns="http://www.w3.org/2000/svg" xmlns:xlink="http://www.w3.org/1999/xlink" width="297.000mm" height="210.000mm" viewBox="0.000000 0.000000 297.000000 210.000000" stroke-linejoin="round" stroke-linecap="round" fill="none" fill-rule="evenodd"><desc>Composer Export</desc><script type="text/ecmascript"><![CDATA[
if(typeof(top) != "undefined")
{
	top.ShowPaper = ShowPaper;
}
function ShowHotSpot(evt,hotspotid)
{
	var svgDocument = evt.target.ownerDocument;
	var strId = "hotspot."+hotspotid;
	var hotspot = svgDocument.getElementById(strId);
	if(hotspot)
		hotspot.setAttribute("opacity",".5");
}
function HideHotSpot(evt,hotspotid)
{
	var svgDocument = evt.target.ownerDocument;
	var strId = "hotspot."+hotspotid;
	var hotspot = svgDocument.getElementById(strId);
	if(hotspot)
		hotspot.setAttribute("opacity","0");

	var toolTip = svgDocument.getElementById('ToolTip');
	if(toolTip)
		toolTip.setAttribute("visibility","hidden");
}
function ShowToolTip(evt,hotspotid,strTooltip)
{
	if(strTooltip=="")
	return;

	// change text
	var svgDocument = evt.target.ownerDocument;
	var tiptext = svgDocument.getElementById('ToolTipText');
	if( !tiptext )
	return;
	tiptext.firstChild.nodeValue = " " + strTooltip + "  " ;

	// show tooltip before, else some refresh issue

	var toolTip = svgDocument.getElementById('ToolTip');
	if(!toolTip)
	return;

	toolTip.setAttribute("visibility","visible");
	toolTip.setAttribute("opacity",".95");

	// move tooltip
	// get viewbox

	var root = svgDocument.documentElement;
	var vbox = (root.getAttribute("viewBox")).split(' ');
	var x0 = parseFloat(vbox[0]);
	var y0 = parseFloat(vbox[1]);
	var vboxW = parseFloat(vbox[2]);
	var vboxH = parseFloat(vbox[3]);

	// get default width of svg

	var strW = root.getAttribute("width");
	var svgW = parseFloat(strW);
	if(strW.indexOf('mm') != -1)
	svgW *= 3.779;

	var strH = root.getAttribute("height");
	var svgH = parseFloat(strH);
	if(strH.indexOf('mm') != -1)
	svgH *= 3.779;  	// 96 dpi  -> 96/25.4 = 3.779

	// update the viewbox / width / height if svg is embedded in html with zoom fit all
	var realx0 = x0;
	var realy0 = y0;
	var realvboxW = vboxW;
	var realvboxH = vboxH;
	var realsvgW = svgW;
	var realsvgH = svgH;

	if ((typeof(top) == "undefined") || (typeof(top.svgctl1) != "undefined")) // embedded in html
	{
		// get window size in pxl

		svgW = window.innerWidth;
		svgH = window.innerHeight;

		// calculate real viewbox

		realsvgW = svgW;
		realsvgH = svgH;
		if((svgW / svgH) > (vboxW / vboxH))
		{
			realvboxW = (vboxH * svgW) / svgH;
			realvboxH = vboxH;
			realx0 = x0 - (realvboxW - vboxW)/2 ;
		}
		else
		{
			realvboxH = (vboxW * svgH) / svgW;
			realvboxW = vboxW;
			realy0 = y0 - (realvboxH - vboxH)/2 ;
		}
	}

	// get user zoom/pan

	var newScale = root.currentScale;
	var translation = root.currentTranslate;

	// transform pxl to user unit

	var xPos = (((evt.clientX+10- translation.x)/newScale) * realvboxW)/realsvgW  + realx0 ;
	var yPos = (((evt.clientY+5- translation.y)/newScale) * realvboxH)/ realsvgH  + realy0 ;
	var scaleForWidth = ( (1 / newScale) * realvboxH) / realsvgH;

	// move tooltip

	toolTip.setAttribute("transform", "translate(" + xPos + "," + yPos + ")" );

	// resize tooltip

	var fontsize = 12;
	tiptext.setAttribute("font-size",fontsize*scaleForWidth);
	tiptext.setAttribute("y", fontsize*scaleForWidth);
	var tipBG = svgDocument.getElementById('ToolTipBG');
	var outline = tiptext.getBBox();
	if(tipBG)
	{
		tipBG.setAttribute("stroke-width", 1*scaleForWidth);
		tipBG.setAttribute("width", Number(outline.width) );
		tipBG.setAttribute("height", Number(outline.height) + fontsize*.5*scaleForWidth );
	}
	var ToolTipShadow = svgDocument.getElementById('ToolTipShadow');
	if(ToolTipShadow)
	{
		ToolTipShadow.setAttribute("width", Number(outline.width) );
		ToolTipShadow.setAttribute("height", Number(outline.height) + fontsize*.5*scaleForWidth );
		ToolTipShadow.setAttribute("x", 3*scaleForWidth);
		ToolTipShadow.setAttribute("y", 3*scaleForWidth);
	}
}
function ShowPaper()
{
  var svgDocument = getDocument();
  var paper = svgDocument.getElementById("paperID");
  if(paper)
  {
    paper.setAttribute("transform","scale(1)");
    paper.setAttribute("opacity","1");
    paper.setAttribute("visibility","visible");
  }
  var svg = svgDocument.getRootElement();
  if(svg)
  {
    svg.setAttribute("width","307.000mm");
    svg.setAttribute("height","220.000mm");
    svg.setAttribute("viewBox","-5.000000 -5.000000 307.000000 220.000000");
  }
}
]]></script><defs/><g><path style="fill:#000000;fill-opacity:0.098;fill-rule:evenodd" d="M279.20,167.38L279.78,168.59L280.34,171.34L280.16,173.40L279.71,174.92L278.97,176.35L277.91,178.05L275.74,180.03L272.61,181.24L270.69,181.23L269.71,181.02L263.01,177.07L261.61,176.10L260.22,175.32L259.22,174.12L259.23,173.72L261.42,174.91L262.02,175.52L262.38,175.57L262.59,175.11L263.00,176.08L264.97,177.13L265.15,176.69L265.56,177.47L266.75,178.11L266.93,177.67L267.12,178.28L267.52,178.70L268.13,178.72L268.33,178.92L268.52,175.76L269.04,173.73L270.29,171.23L271.00,170.16L272.58,168.38L274.37,167.02L277.39,165.85L277.55,166.29L278.01,166.24zM277.79,168.00L277.76,168.19L276.73,168.39L275.22,169.25L273.76,170.55L272.60,171.96L271.27,174.57L270.90,176.17L270.68,176.54L270.71,178.72L269.70,178.27L269.50,177.28L269.50,175.76L270.09,173.39L270.88,171.81L272.28,169.86L273.84,168.46L275.16,167.80L276.80,167.60zM277.81,170.61L278.18,170.56L279.19,171.35L279.18,174.19L278.92,174.92L277.39,177.54L276.23,178.54L275.17,179.26L272.85,179.27L272.44,179.03L272.65,178.66L272.07,178.46L271.86,177.88L271.86,175.36L272.47,173.60L273.95,171.34L275.75,169.98L276.61,169.76zM26.21,24.51L27.00,26.17L24.41,24.93L23.55,24.93L22.56,25.33L21.26,26.40L19.86,28.35L19.27,30.12L19.26,32.05L19.45,32.64L19.85,33.03L24.20,35.60L24.22,36.24L22.04,34.98L20.78,35.20L19.27,34.80L16.92,33.40L16.10,32.61L16.04,32.23L16.29,32.20L18.31,33.28L18.28,31.91L18.47,30.31L19.08,28.55L20.27,26.59L21.38,25.33L22.76,24.34L23.74,23.93L25.40,23.94zM31.69,41.13L31.92,41.49L32.91,42.30L33.30,42.32L204.80,140.75L234.00,157.41L234.13,155.19L234.57,154.45L235.35,152.07L236.76,150.13L238.71,148.33L240.22,147.47L241.29,147.33L242.25,147.90L243.09,149.08L243.06,149.34L242.69,149.26L241.29,148.46L239.63,148.46L238.71,148.92L236.65,150.81L235.50,152.81L234.97,154.85L234.96,156.37L235.16,157.15L237.14,158.33L237.88,158.57L238.12,158.40L238.31,156.22L239.25,153.80L240.61,152.00L242.01,150.83L242.98,150.43L244.47,150.25L245.26,151.01L245.46,151.47L244.05,150.83L242.98,150.83L242.01,151.23L241.00,151.99L239.84,153.41L239.12,154.85L238.71,156.03L238.71,158.15L238.92,158.72L246.43,162.94L246.60,161.15L247.21,159.39L248.40,157.43L249.96,156.03L251.75,155.22L252.15,155.40L252.96,156.13L253.32,156.95L253.32,159.19L253.12,159.98L252.14,161.95L250.67,163.45L249.32,164.27L247.59,164.26L240.90,160.49L239.50,160.32L237.56,159.33L235.75,159.33L33.69,43.47L32.10,42.30L25.60,38.53L24.80,37.75L24.79,37.15zM271.87,162.92L271.41,162.88L271.92,162.70zM270.05,176.89L269.61,176.95L269.63,176.70L270.09,176.66zM254.87,185.76L255.83,185.15L256.30,185.24L255.20,186.16L254.84,186.17z"/><g id="Actor_.0"><g style="stroke:#000000;stroke-width:0.176"><path d="M263.96,173.57L263.82,174.77L263.86,175.11"/><path d="M264.44,177.32L264.86,178.09L265.08,178.24"/><path d="M263.94,175.64L264.08,176.67L264.23,176.93"/><path d="M264.50,171.31L264.08,172.56L264.03,172.96"/><path d="M265.52,169.04L264.86,170.25L264.72,170.67"/><path d="M265.61,178.60L265.71,178.67"/><path d="M266.92,166.98L266.08,168.03L265.86,168.43"/><path d="M267.35,166.45L267.63,166.10L268.58,165.30"/><path d="M270.35,164.16L269.38,164.63L269.06,164.90"/><path d="M272.07,163.66L271.17,163.76L270.84,163.92"/><path d="M273.59,163.83L272.83,163.56L272.53,163.60"/><path d="M274.09,164.00L274.23,164.06"/></g><g style="stroke:#000000;stroke-width:0.529"><path d="M274.29,164.12L274.23,164.06L273.11,163.41L271.71,162.92L270.04,163.12L268.25,163.99L266.50,165.45L264.95,167.38L263.73,169.60L263.58,170.05L262.96,171.92L262.69,174.12L262.96,176.02L263.73,177.45L264.95,178.27L265.76,178.73"/></g></g><g id="Actor_.1"><g style="stroke:#000000;stroke-width:0.176"><path d="M15.55,29.99L15.57,30.05"/><path d="M15.55,30.27L15.66,28.74L16.17,27.09L16.63,26.25L17.03,25.51L18.15,24.17L19.41,23.20"/><path d="M20.06,22.95L18.64,24.04L17.36,25.58L16.37,27.39L15.79,29.28L15.68,30.79"/><path d="M19.38,34.89L18.58,33.93L18.22,32.50L18.34,30.74L18.93,28.86L19.73,27.39L19.91,27.05L21.20,25.51L22.64,24.40L24.08,23.85L25.36,23.92"/><path d="M19.18,23.33L19.28,23.30"/><path d="M21.98,34.98L20.39,34.10"/><path d="M22.85,22.48L22.81,22.46"/><path d="M24.32,35.94L24.36,35.38L24.31,36.08L24.31,35.90"/><path d="M24.31,36.08L24.38,36.35"/><path d="M28.65,27.94L28.79,27.86L27.34,28.97L26.03,30.54L25.03,32.38L24.43,34.30L24.36,35.38L24.43,34.17L25.00,32.32L25.97,30.54L27.24,29.02L28.73,27.91"/><path d="M25.46,25.31L26.96,26.20"/><path d="M28.79,27.86L29.43,27.61"/><path d="M31.61,27.39L31.57,27.36"/><path d="M242.14,147.79L240.92,147.39L239.46,147.65L238.68,148.02L237.91,148.53L236.45,149.95L235.23,151.75L234.38,153.74L234.00,155.69L234.13,157.40L234.44,158.05L234.75,158.69L235.80,159.41"/><path d="M235.89,158.37L237.53,159.30L237.36,159.37L236.04,159.30L235.03,158.61L234.43,157.36L234.30,155.71L234.40,155.22L234.67,153.81L235.49,151.89L236.67,150.15L238.08,148.78L238.83,148.28L239.58,147.92L241.00,147.67L242.17,148.05L243.00,149.04L243.10,149.44L241.74,148.66"/><path d="M236.59,158.77L236.66,158.81L236.12,158.50"/><path d="M236.35,158.63L236.09,158.48"/><path d="M237.53,159.30L237.56,159.32"/><path d="M237.43,159.23L236.66,158.81L237.60,159.32L237.43,159.23"/><path d="M238.77,159.97L237.60,159.32"/><path d="M238.67,157.80L238.73,156.64"/><path d="M238.68,157.85L238.87,158.78"/><path d="M239.69,159.83L239.63,159.78L239.72,159.87L240.63,160.38"/><path d="M239.56,159.73L239.31,159.52L239.63,159.78L239.31,159.52L239.08,159.10L238.88,158.56L238.79,157.94L238.79,157.26L238.88,156.53L239.08,155.77L239.36,155.01L239.72,154.26L240.15,153.55L240.65,152.89L241.19,152.31L241.76,151.81L242.35,151.42L242.94,151.14L243.51,150.98L244.03,150.94L244.45,151.01L244.06,150.90"/><path d="M238.98,158.98L239.30,159.47"/><path d="M239.02,159.04L239.21,159.33"/><path d="M239.42,159.59L239.39,159.58"/><path d="M239.06,155.40L239.26,154.94"/><path d="M240.37,153.02L239.62,154.16"/><path d="M241.26,152.07L242.21,151.36L243.17,150.97"/><path d="M242.44,161.40L245.90,163.33L246.29,163.61"/><path d="M243.10,149.44L243.14,149.46"/><path d="M244.06,150.95L244.26,150.98"/><path d="M244.81,151.16L244.89,151.23L244.45,151.01L244.50,151.03"/><path d="M245.90,163.33L245.50,163.06L245.02,162.07L244.93,160.78L245.22,159.29L245.86,157.78L246.79,156.42L247.88,155.35L248.49,154.94L249.08,154.66L250.17,154.47L251.12,154.77"/><path d="M246.42,163.61L245.56,163.01L245.10,162.07L245.01,160.78L245.29,159.31L245.93,157.82L246.85,156.47L247.95,155.40L248.53,155.01L249.11,154.73L250.21,154.54L251.22,154.90"/><path d="M244.83,151.20L245.63,151.62"/><path d="M244.95,150.70L244.89,150.64"/><path d="M252.56,155.66L251.64,155.36L250.54,155.55L249.96,155.83L249.38,156.22L248.28,157.29L247.36,158.64L246.72,160.13L246.44,161.60L246.49,162.25L246.53,162.89L247.00,163.86L247.79,164.40"/><path d="M253.48,157.57L253.47,157.64L253.20,156.54L252.57,155.79L251.68,155.50L250.60,155.69L250.03,155.96L249.44,156.36L248.39,157.39L247.49,158.71L246.87,160.17L246.59,161.61L246.68,162.87L246.84,163.21L247.14,163.82L247.91,164.34L248.91,164.40L250.03,163.97"/><path d="M249.96,164.01L250.00,163.98"/></g><g style="stroke:#000000;stroke-width:0.529"><path d="M15.90,31.96L16.02,32.46L16.82,33.42L19.38,34.89L20.53,35.27L21.98,34.98L24.38,36.35L24.67,37.54L25.49,38.51L32.71,42.66L34.00,43.70L235.80,159.41L237.16,159.48L237.56,159.32L239.22,160.27L240.04,160.44L240.64,160.39L246.29,163.61L246.42,163.61L247.79,164.40L248.81,164.45L249.96,164.01L251.15,163.11L252.15,161.91L252.92,160.50L253.38,159.03L253.48,157.57L253.19,156.42L252.56,155.66L251.22,154.90L251.12,154.77L245.64,151.63L245.42,151.13L244.95,150.70L244.65,150.33L243.15,149.47L242.99,148.80L242.14,147.79L40.34,32.09L38.80,31.51L31.57,27.36L30.27,27.29L29.43,27.61L26.96,26.20L26.94,25.81L26.35,24.60L25.36,23.92L22.81,22.46L21.52,22.39L19.41,23.20L19.18,23.33L18.00,24.24L16.94,25.51L16.13,27.00L15.65,28.55L15.55,30.27L15.68,30.82L15.67,31.03L15.90,31.96"/></g></g><g id="Actor_.2"><g style="stroke:#000000;stroke-width:0.176"><path d="M262.55,176.69L262.08,176.17L261.70,175.46L261.44,174.64L261.31,173.70L261.31,172.68L261.44,171.59L261.70,170.47L262.08,169.32L262.58,168.19L263.18,167.10L263.87,166.06L264.64,165.12L265.43,164.29L265.46,164.27L266.32,163.55L267.20,162.97L268.08,162.54L268.94,162.27L269.76,162.18L270.52,162.25L270.89,162.38"/><path d="M271.49,162.94L270.87,162.81L269.18,163.17L267.42,164.18L265.74,165.75L264.28,167.73L263.19,169.96L262.54,172.23L262.41,174.33L262.80,176.10L263.67,177.34"/><path d="M263.69,177.36L263.68,177.36"/><path d="M264.92,178.01L264.25,177.05L263.86,175.26L263.99,173.13L264.64,170.83L265.75,168.57L267.23,166.56L268.94,164.97L270.72,163.95L272.43,163.58L273.15,163.74"/><path d="M273.36,163.96L272.95,163.88L271.24,164.24L269.45,165.27L267.75,166.86L266.27,168.87L265.16,171.13L264.51,173.42L264.37,175.56L264.77,177.35L264.83,177.44"/><path d="M266.23,178.91L265.38,177.70L264.98,175.91L265.12,173.77L265.77,171.47L266.88,169.22L268.36,167.21L270.06,165.62L271.85,164.59L273.55,164.22L274.75,164.48"/><path d="M265.66,178.63L265.31,178.12"/><path d="M265.88,177.88L265.91,178.00L266.09,178.27"/><path d="M265.52,176.06L265.51,176.21L265.59,176.59"/><path d="M265.69,173.91L265.64,174.07L265.61,174.52"/><path d="M266.80,179.28L266.73,179.18"/><path d="M267.99,179.83L267.11,178.57L266.72,176.80L266.85,174.70L267.30,173.11L267.49,172.43L268.59,170.20L270.05,168.22L271.73,166.65L273.49,165.64L275.17,165.28L275.79,165.41"/><path d="M266.16,172.26L266.29,171.77L266.37,171.62"/><path d="M267.17,169.99L267.41,169.52L267.51,169.38"/><path d="M269.06,180.40L268.24,179.21L267.85,177.45L267.98,175.34L268.62,173.07L269.72,170.85L271.17,168.87L272.86,167.30L274.62,166.29L276.30,165.93L277.42,166.17"/><path d="M269.56,178.04L269.53,177.97L269.39,176.19L269.79,174.16L270.67,172.09L271.94,170.22L273.46,168.74L274.26,168.20L275.07,167.82L276.59,167.55L277.86,167.97L279.06,168.66L277.79,168.24L276.27,168.51L275.46,168.89L274.66,169.43L273.14,170.91L271.87,172.78L270.99,174.85L270.60,176.88L270.73,178.63L270.73,178.66L271.37,179.99L272.46,180.74L271.26,180.05L270.17,179.30L269.56,178.04"/><path d="M268.57,167.93L268.88,167.51L269.00,167.40"/><path d="M269.65,176.90L269.65,176.93L269.71,177.09L269.79,177.24L269.91,177.37L270.03,177.46L270.15,177.51L270.26,177.50L270.33,177.45L270.38,177.35L270.39,177.21L270.36,177.05L270.30,176.89L270.21,176.74L270.09,176.63L269.97,176.56L269.85,176.54L269.75,176.57L269.67,176.66L269.64,176.78L269.65,176.90"/><path d="M270.71,165.85L270.59,165.92L270.23,166.25"/><path d="M280.33,171.39L279.94,169.83L279.08,168.79L277.83,168.38L277.58,168.43L276.33,168.65L275.54,169.02L274.75,169.55L273.25,171.01L272.00,172.85L271.13,174.88L270.75,176.88L270.88,178.64L271.51,179.95L272.59,180.69L273.98,180.76L275.54,180.17"/><path d="M277.30,169.67L276.71,169.64L275.50,170.10L275.54,170.07L276.81,169.59L277.94,169.65L278.81,170.24L279.33,171.31L279.43,172.74L279.12,174.36L278.41,176.01L277.40,177.51L276.18,178.69L274.90,179.43L273.68,179.64L272.66,179.31L271.96,178.47L271.64,177.20L271.65,177.13L271.95,178.35L272.14,178.57L272.33,178.63L273.50,178.43L274.73,177.72L275.90,176.58L276.88,175.14L277.56,173.55L277.86,171.99L277.76,170.62L277.30,169.67L277.45,169.68L277.90,170.60L278.00,172.00L277.69,173.59L277.00,175.21L276.01,176.68L274.82,177.83L273.56,178.56L272.36,178.77L272.28,178.74L272.28,178.75L272.36,178.77L273.56,178.56L274.82,177.84L276.01,176.68L277.01,175.21L277.70,173.59L278.01,172.00L277.90,170.60L277.46,169.68L277.82,169.70L278.67,170.28L279.18,171.33L279.28,172.73L278.97,174.32L278.28,175.94L277.29,177.41L276.09,178.57L274.83,179.29L273.64,179.50L272.64,179.18L272.28,178.75"/><path d="M271.65,177.13L271.75,175.66L272.27,174.00L273.14,172.40L274.27,171.04L275.50,170.10"/><path d="M271.22,162.49L271.22,162.50"/><path d="M272.46,180.74L273.74,180.81"/><path d="M272.28,178.74L272.14,178.57"/><path d="M272.00,165.11L272.37,164.90L272.49,164.87"/><path d="M273.72,164.60L274.08,164.53L274.18,164.55"/><path d="M275.55,164.85L275.25,164.78"/><path d="M277.46,169.68L277.45,169.68"/><path d="M279.06,168.66L279.94,169.71L280.01,170.02"/></g><g style="stroke:#000000;stroke-width:0.529"><path d="M258.72,172.51L258.83,173.25L259.29,174.33L259.33,174.40L260.04,175.21L260.10,175.26L262.55,176.69"/><path d="M271.23,162.50L270.89,162.38L268.60,161.06L267.51,160.73L266.29,160.77L265.06,161.17L263.76,161.91L262.54,162.92L261.41,164.18L260.42,165.62L259.61,167.19L259.03,168.80L258.69,170.38L258.65,171.41"/><path d="M263.67,177.34L263.69,177.36"/><path d="M265.70,178.65L265.15,178.33L264.92,178.01"/><path d="M267.07,179.42L266.80,179.28L266.27,178.98L266.23,178.91"/><path d="M269.06,180.40L269.12,180.48L269.97,181.03L271.07,181.37L272.30,181.32L273.53,180.93L273.74,180.81L273.88,180.81L275.46,180.21L275.54,180.17L277.10,178.97L278.49,177.30L279.57,175.33L280.20,173.29L280.33,171.39L280.33,171.29L280.01,170.02L279.82,168.75L279.35,167.66L279.31,167.59L278.60,166.78L278.54,166.72L277.75,166.24L277.42,166.17"/><path d="M272.26,163.11L272.32,163.13L272.36,163.15"/><path d="M273.15,163.74L273.90,163.90L274.34,164.15"/><path d="M274.75,164.48L275.03,164.54L275.55,164.85L275.63,164.91"/><path d="M276.66,165.62L276.63,165.59L276.57,165.58"/></g></g><g id="Actor_.3"><g style="stroke:#000000;stroke-width:0.176"><path d="M278.14,166.30L276.74,165.81L275.07,166.00L273.29,166.87L271.54,168.34L269.99,170.27L268.85,172.34L268.77,172.49L267.99,174.80L267.72,177.01L267.99,178.91L268.77,180.33L269.99,181.16"/></g><g style="stroke:#000000;stroke-width:0.529"><path d="M270.55,181.21L269.99,181.16L269.26,180.74L268.04,179.92L267.26,178.49L266.99,176.59L267.26,174.39L268.04,172.07L269.26,169.85L270.81,167.92L272.56,166.46L274.34,165.59L276.01,165.39L277.41,165.88L278.14,166.30L278.50,166.70"/></g></g><g id="Actor_.4"><g style="stroke:#000000;stroke-width:0.176"><path d="M272.71,163.18L271.31,162.69L269.64,162.89L268.44,163.47L267.85,163.76L266.11,165.22L264.55,167.15L263.34,169.37L262.56,171.69L262.29,173.89L262.56,175.79L263.34,177.22L264.55,178.04"/></g><g style="stroke:#000000;stroke-width:0.529"><path d="M264.62,178.05L264.55,178.04L263.83,177.62L262.61,176.80L261.83,175.37L261.56,173.48L261.83,171.27L261.85,171.20L262.61,168.95L263.83,166.73L265.38,164.80L267.12,163.34L268.91,162.47L270.58,162.27L271.98,162.76L272.71,163.18L272.82,163.31"/></g></g><g id="Actor_.5"><g style="stroke:#000000;stroke-width:0.176"><path d="M266.17,178.83L265.75,178.48L265.34,177.78L265.06,176.95L264.90,174.98L265.26,172.74L266.13,170.42L267.42,168.24L269.02,166.39L270.79,165.03L272.57,164.29L273.44,164.25"/><path d="M266.89,179.42L266.53,179.12"/><path d="M274.78,164.49L274.19,164.22L273.63,164.24"/></g><g style="stroke:#000000;stroke-width:0.529"><path d="M267.15,179.47L266.89,179.42L265.77,178.75L264.85,177.50L264.42,175.73L264.52,173.60L265.15,171.29L266.24,169.02L267.70,166.98L267.83,166.86L269.40,165.36L271.19,164.29L272.92,163.88L274.41,164.16L275.33,164.71"/></g></g><g id="Actor_.6"><g style="stroke:#000000;stroke-width:0.176"><path d="M277.02,165.65L275.61,165.16L273.95,165.36L272.16,166.23L270.41,167.69L269.81,168.44L268.86,169.62L267.64,171.84L266.86,174.16L266.67,175.76L266.60,176.36L266.86,178.26L267.64,179.69L268.86,180.51"/></g><g style="stroke:#000000;stroke-width:0.529"><path d="M277.13,165.78L277.02,165.65L275.89,165.00L274.49,164.51L272.82,164.71L271.03,165.58L269.28,167.05L267.73,168.97L266.51,171.20L265.74,173.51L265.47,175.72L265.74,177.62L266.51,179.04L267.73,179.86L268.86,180.51L268.93,180.52"/></g></g><g id="Actor_.7"><g style="stroke:#000000;stroke-width:0.176"><path d="M254.79,186.18L254.77,186.26L254.71,186.32L254.62,186.34L254.52,186.32L254.42,186.25L254.37,186.20L254.32,186.15L254.25,186.03L254.19,185.89L254.18,185.77L254.19,185.66L254.24,185.58L254.31,185.54L254.40,185.54L254.51,185.59L254.61,185.67L254.70,185.78L254.76,185.91L254.80,186.05L254.80,186.16"/><path d="M254.27,185.85L254.49,185.72L254.45,185.70L254.36,185.66L254.27,185.85L254.41,186.12L254.67,185.97L254.70,186.03L254.62,186.21L254.41,186.12"/><path d="M254.22,185.48L254.31,185.44L254.37,185.44L254.42,185.44L254.55,185.50L254.67,185.60L254.77,185.73L254.85,185.88"/><path d="M254.67,185.97L254.57,185.75L254.49,185.72"/><path d="M255.44,184.91L255.56,184.99L255.68,185.11L255.77,185.26L255.83,185.42L255.86,185.57L255.86,185.58"/><path d="M255.78,185.80L255.78,185.80"/><path d="M255.86,185.57L255.86,185.45L255.84,185.34L255.80,185.23L255.73,185.12L255.65,185.04L255.57,184.98L255.48,184.94"/><path d="M255.22,184.91L255.22,184.91"/><path d="M256.20,185.38L256.20,185.38"/></g><g style="stroke:#000000;stroke-width:0.529"><path d="M254.22,185.48L254.17,185.58L254.15,185.71L254.17,185.86L254.23,186.02L254.33,186.17L254.38,186.24L254.44,186.29L254.56,186.37L254.68,186.40L254.76,186.39"/><path d="M254.22,185.48L255.22,184.91"/><path d="M255.58,185.92L255.78,185.80L255.84,185.71L255.86,185.58L256.20,185.38L256.24,185.31L256.25,185.22L256.24,185.11L256.20,185.00L256.13,184.90L256.05,184.81L255.96,184.76L255.88,184.74L255.81,184.75L255.48,184.94L255.44,184.91L255.32,184.88L255.22,184.91"/></g></g><g><g><path style="stroke:#000000;stroke-width:0.125;stroke-dasharray:2.4 1.6 0.8 1.6" d="M250.03,160.00L260.28,165.88"/></g></g><g><g><path style="stroke:#000000;stroke-width:0.125;stroke-dasharray:2.4 1.6 0.8 1.6" d="M256.18,184.97L270.29,176.87"/></g></g><g id="PMI.0"><g><path style="stroke:#000000;stroke-width:0.125" d="M222.40,196.27L259.71,171.27"/></g><g><path style="fill:#000000" d="M260.46,171.27L260.46,171.20L260.45,171.12L260.43,171.05L260.41,170.98L260.38,170.92L260.34,170.85L260.29,170.79L260.25,170.74L260.19,170.69L260.13,170.65L260.07,170.61L260.00,170.58L259.93,170.55L259.86,170.53L259.79,170.52L259.71,170.52L259.64,170.52L259.57,170.53L259.50,170.55L259.43,170.58L259.36,170.61L259.30,170.65L259.24,170.69L259.18,170.74L259.13,170.79L259.09,170.85L259.05,170.92L259.02,170.98L259.00,171.05L258.98,171.12L258.97,171.20L258.96,171.27L258.97,171.34L258.98,171.42L259.00,171.49L259.02,171.56L259.05,171.62L259.09,171.69L259.13,171.75L259.18,171.80L259.24,171.85L259.30,171.89L259.36,171.93L259.43,171.96L259.50,171.99L259.57,172.00L259.64,172.02L259.71,172.02L259.79,172.02L259.86,172.00L259.93,171.99L260.00,171.96L260.07,171.93L260.13,171.89L260.19,171.85L260.25,171.80L260.29,171.75L260.34,171.69L260.38,171.62L260.41,171.56L260.43,171.49L260.45,171.42L260.46,171.34z"/></g><g><text xml:space="preserve" fill="#000000" stroke-width="0" x="208.69" y="201.70" font-size="3.80" opacity="1.00" font-family="Arial">BPA28899</text></g></g><g id="PMI.1"><g><path style="stroke:#000000;stroke-width:0.125" d="M253.47,196.27L255.33,185.87"/></g><g><path style="fill:#000000" d="M256.08,185.87L256.08,185.80L256.07,185.73L256.05,185.65L256.03,185.58L256.00,185.52L255.96,185.45L255.91,185.40L255.87,185.34L255.81,185.29L255.75,185.25L255.69,185.21L255.62,185.18L255.55,185.15L255.48,185.14L255.41,185.13L255.33,185.12L255.26,185.13L255.19,185.14L255.12,185.15L255.05,185.18L254.98,185.21L254.92,185.25L254.86,185.29L254.80,185.34L254.76,185.40L254.71,185.45L254.67,185.52L254.64,185.58L254.62,185.65L254.60,185.73L254.59,185.80L254.58,185.87L254.59,185.95L254.60,186.02L254.62,186.09L254.64,186.16L254.67,186.23L254.71,186.29L254.76,186.35L254.80,186.40L254.86,186.45L254.92,186.50L254.98,186.53L255.05,186.56L255.12,186.59L255.19,186.61L255.26,186.62L255.33,186.62L255.41,186.62L255.48,186.61L255.55,186.59L255.62,186.56L255.69,186.53L255.75,186.50L255.81,186.45L255.87,186.40L255.91,186.35L255.96,186.29L256.00,186.23L256.03,186.16L256.05,186.09L256.07,186.02L256.08,185.95z"/></g><g><text xml:space="preserve" fill="#000000" stroke-width="0" x="245.99" y="201.70" font-size="3.78" opacity="1.00" font-family="Arial">ND1113</text></g></g><g/><g><g/><g><text xml:space="preserve" fill="#000000" stroke-width="0" x="7.92" y="12.61" font-size="4.53" opacity="1.00" font-family="Arial" font-weight="bold">BPA28952</text></g></g><g id="paperID" visibility="hidden" opacity="0.00" transform="scale(0.000100)"><path style="stroke:#000000;stroke-width:0.500;fill:#e6e6e6;fill-rule:evenodd" d="M-2000.00,-2000.00L2297.00,-2000.00L2297.00,2210.00L-2000.00,2210.00zM0.00,0.00L297.00,0.00L297.00,210.00L0.00,210.00z"/><path style="fill:#000000;fill-opacity:0.118" d="M3.00,210.00L297.00,210.00L297.00,3.00L300.00,3.00L300.00,213.00L3.00,213.00z"/></g><g id="hotspot.0" onmouseover="ShowHotSpot(evt,'0')" onmouseout="HideHotSpot(evt,'0')" onmousemove="ShowToolTip(evt,'0',&quot;Hotspot 1&quot;)" opacity="0"><a xlink:href=".\BPA28899.svg"><path style="fill:#ff8000;fill-rule:evenodd" d="M268.71,161.10L270.70,162.27L271.87,162.68L277.79,166.03L279.20,167.38L279.78,168.59L280.34,171.34L280.16,173.40L279.71,174.92L278.97,176.35L277.91,178.05L275.74,180.03L272.61,181.24L270.69,181.23L269.71,181.02L263.01,177.07L261.61,176.10L260.22,175.32L259.24,174.13L258.83,173.15L258.64,171.83L258.84,169.64L259.83,166.69L260.93,164.83L262.79,162.73L264.11,161.69L265.88,160.90L267.53,160.69zM226.89,199.37L226.89,201.24L226.44,201.77L225.50,201.75L225.29,201.55L225.22,200.96L225.53,200.89L225.63,201.23L226.31,201.21L226.32,200.98L225.53,200.89L225.08,200.18L225.08,199.44L225.41,198.97L226.50,198.98zM224.72,199.37L224.72,201.24L224.27,201.77L223.33,201.75L223.12,201.55L223.05,200.96L223.38,200.89L223.53,201.16L224.13,201.25L224.35,200.78L223.38,200.89L223.14,200.56L223.12,199.04L224.32,198.98zM222.56,199.16L222.48,200.16L222.76,200.76L222.76,201.22L222.27,201.75L221.34,201.76L220.96,201.55L220.95,199.25L221.27,198.98L222.36,198.96zM220.39,199.16L220.30,200.17L220.57,200.56L220.58,201.23L220.12,201.77L219.17,201.76L218.79,201.55L218.75,200.37L218.99,200.16L218.81,199.97L218.70,199.38L219.10,198.98L220.19,198.96zM218.41,199.37L218.41,200.05L217.32,201.15L218.42,201.36L218.42,201.81L215.96,201.81L215.63,200.97L214.58,200.97L214.23,201.83L213.79,201.83L214.18,200.37L214.78,198.98L215.42,198.99L216.41,201.42L217.15,200.57L217.61,200.25L217.83,199.57L217.61,199.35L217.16,199.38L216.99,199.85L216.55,199.86L216.61,199.25L216.93,198.98L218.01,198.98zM213.67,199.37L213.67,200.26L213.21,200.58L212.00,200.75L211.86,201.85L211.63,201.85L211.61,198.98L213.27,198.98zM210.92,199.16L210.83,200.17L211.10,200.56L211.03,201.36L210.25,201.76L208.85,201.82L208.85,198.98L210.72,198.96zM224.35,199.57L224.26,200.18L223.51,200.18L223.51,199.44L224.13,199.35zM219.99,199.55L219.93,199.78L219.30,199.85L219.36,199.44L219.80,199.35zM213.10,199.57L213.08,200.03L212.00,200.04L212.00,199.38L212.89,199.36zM226.51,199.78L226.43,200.17L225.68,200.18L225.68,199.44L226.27,199.37zM221.96,199.85L221.47,199.85L221.47,199.37L221.96,199.37zM215.26,199.95L215.23,200.44L214.77,200.38L215.06,199.75zM210.25,199.98L209.44,200.05L209.43,199.38L210.32,199.39zM222.18,200.76L222.15,201.22L221.89,201.40L221.56,201.36L221.35,201.15L221.33,200.63L221.96,200.53zM220.01,200.76L219.97,201.22L219.72,201.40L219.39,201.36L219.18,201.15L219.16,200.63L219.79,200.53zM210.54,200.75L210.46,201.16L209.43,201.23L209.43,200.56L210.33,200.55zM223.38,200.89L224.35,200.78L224.13,201.25L223.53,201.16zM226.31,201.21L225.63,201.23L225.53,200.89L226.32,200.98z"/></a></g></g></svg>
