<?xml version="1.0" encoding="UTF-8" standalone="no"?>
<svg xmlns="http://www.w3.org/2000/svg" xmlns:xlink="http://www.w3.org/1999/xlink" width="297.000mm" height="210.000mm" viewBox="0.000000 0.000000 297.000000 210.000000" stroke-linejoin="round" stroke-linecap="round" fill="none" fill-rule="evenodd"><desc>Composer Export</desc><script type="text/ecmascript"><![CDATA[
if(typeof(top) != "undefined")
{
	top.ShowPaper = ShowPaper;
}
function ShowPaper()
{
  var svgDocument = getDocument();
  var paper = svgDocument.getElementById("paperID");
  if(paper)
  {
    paper.setAttribute("transform","scale(1)");
    paper.setAttribute("opacity","1");
    paper.setAttribute("visibility","visible");
  }
  var svg = svgDocument.getRootElement();
  if(svg)
  {
    svg.setAttribute("width","307.000mm");
    svg.setAttribute("height","220.000mm");
    svg.setAttribute("viewBox","-5.000000 -5.000000 307.000000 220.000000");
  }
}
]]></script><defs/><g><path style="fill:#000000;fill-opacity:0.098;fill-rule:evenodd" d="M244.25,25.28L244.25,24.95L245.38,24.19L245.95,24.19zM250.51,27.07L249.09,27.06L248.48,27.63L247.48,28.99L247.24,29.95L247.42,31.52L248.49,32.01L248.66,31.70L248.65,29.67L249.95,28.26L250.27,27.73L252.04,27.91L251.86,35.42L251.53,35.37L250.86,35.00L249.09,34.83L248.33,35.59L247.48,36.76L247.24,37.72L247.42,39.28L248.15,39.76L248.48,39.80L248.67,39.47L248.65,37.43L249.43,36.85L250.28,35.49L252.04,35.68L252.03,45.70L251.88,46.56L251.47,46.83L250.45,47.84L249.43,48.00L234.58,56.47L234.13,56.47L218.60,47.50L217.76,47.16L216.17,47.16L204.01,54.08L203.39,54.97L203.23,55.83L203.08,68.50L191.92,62.19L191.42,62.02L190.17,62.02L178.70,68.61L177.73,69.33L177.22,70.34L177.23,85.32L178.94,86.22L179.08,72.03L179.43,71.37L179.70,71.13L180.44,71.14L183.31,72.67L183.25,73.34L183.42,74.74L184.33,75.25L184.50,74.02L184.49,73.32L187.71,75.21L187.73,75.41L186.46,76.88L185.10,77.04L184.26,77.55L183.47,78.62L181.88,78.75L181.90,79.11L182.63,79.64L180.56,80.43L180.61,81.27L180.78,81.44L182.59,81.45L183.33,81.30L183.30,80.49L183.64,79.12L184.59,77.88L185.61,77.21L186.36,77.21L186.89,77.56L186.86,77.79L185.27,77.72L184.68,78.30L183.83,79.48L183.76,81.66L184.32,81.96L184.77,81.96L184.83,79.98L185.34,79.64L186.30,78.23L187.64,78.23L188.89,76.77L189.17,76.20L189.38,76.18L194.78,79.30L141.05,110.17L140.59,110.16L124.55,101.03L124.05,100.85L122.46,100.85L110.38,107.85L109.68,109.01L109.54,122.18L107.52,121.10L98.72,116.05L97.71,115.71L96.63,115.71L84.38,122.71L83.68,123.70L83.52,124.72L83.52,139.02L85.04,139.89L85.38,139.93L85.53,125.38L86.04,124.88L86.73,124.83L87.23,125.00L89.77,126.49L89.77,127.88L89.94,128.55L90.27,128.73L90.78,128.79L90.90,127.18L91.11,127.17L93.99,128.90L94.02,129.28L92.92,130.40L92.75,130.96L93.33,131.41L91.58,131.42L91.45,131.64L91.06,131.92L90.36,132.91L90.10,133.66L90.11,134.63L90.28,135.47L91.14,135.86L91.29,133.67L92.32,132.51L92.72,131.92L94.10,131.93L95.33,130.29L95.47,129.89L95.84,129.88L101.10,133.01L51.56,161.47L50.54,162.48L49.52,162.65L46.38,164.42L46.38,142.11L251.87,24.20L251.88,27.63zM241.26,26.95L240.70,27.30L240.66,27.12L241.04,26.73L241.23,26.72zM227.68,56.27L227.98,56.10L229.92,55.94L229.91,57.52L227.94,58.08L228.05,57.44L227.88,57.12L227.71,57.86L226.82,58.48L226.14,58.72L226.20,57.52L227.33,56.79L227.72,56.66zM209.33,57.78L209.48,59.83L210.16,60.19L210.44,60.18L210.45,58.45L210.64,58.46L213.87,60.33L212.46,62.02L211.46,62.01L210.34,62.60L209.48,63.76L207.89,63.89L207.95,64.20L208.83,64.72L206.60,65.45L206.61,66.25L206.78,66.41L208.93,66.43L209.31,66.30L209.47,64.77L210.17,63.44L211.44,62.35L212.53,62.35L212.88,62.70L211.51,62.70L210.42,63.69L209.81,64.94L209.81,66.08L209.99,66.75L210.50,67.11L210.83,67.16L211.00,64.95L212.02,63.94L212.30,63.37L213.87,63.37L213.95,63.02L215.05,61.57L215.18,61.17L215.38,61.15L220.63,64.24L220.66,64.44L208.76,71.32L207.95,71.32L205.26,69.79L205.24,56.66L205.70,56.27L206.79,56.27zM223.00,58.78L223.82,59.33L224.03,59.66L224.01,59.88L223.67,60.05L222.50,61.10L222.14,61.20L221.63,60.84L221.62,60.21L222.67,58.69L222.84,58.64zM227.90,58.54L227.16,59.16L226.15,59.50L224.94,59.54L224.94,59.16L226.49,58.99L227.50,58.49L227.94,58.08zM233.46,61.07L232.96,62.09L232.28,62.42L230.52,62.59L230.53,61.52L231.37,61.18L232.95,61.06L233.39,59.97L233.46,59.99zM241.00,63.38L238.02,65.12L238.02,66.48L239.72,65.57L239.70,83.18L239.54,83.86L238.85,85.03L237.44,85.85L237.11,85.84L237.69,84.88L237.85,83.69L237.86,68.61L234.08,70.81L233.96,86.05L233.80,87.08L233.15,88.28L231.42,89.27L231.43,88.95L231.94,87.92L232.11,86.73L232.27,69.84L233.96,68.83L233.96,67.58L233.75,67.57L231.20,69.11L230.03,69.36L230.02,67.08L231.05,66.93L241.07,61.18zM203.92,72.55L201.94,72.94L201.88,72.14L201.73,72.73L201.05,73.24L200.02,73.74L200.02,72.55L201.16,71.82L201.54,71.70L201.66,71.14L203.91,70.79zM197.83,74.36L197.83,74.90L196.42,76.04L195.81,76.04L195.63,75.87L195.63,75.07L196.59,73.65L196.81,73.66zM201.89,73.40L201.40,73.92L200.49,74.36L198.76,74.39L198.76,74.19L201.03,73.73L201.71,73.22L201.94,72.94zM227.71,75.04L227.89,75.44L226.63,76.21L226.32,76.27L226.18,76.06L226.18,74.89L226.62,74.52L226.72,74.52zM207.46,75.93L206.96,76.94L206.06,77.40L204.52,77.45L204.53,76.38L206.89,75.87L207.39,74.83L207.46,74.85zM215.06,78.13L214.74,78.48L211.96,80.09L211.96,81.34L212.52,81.16L213.49,80.57L213.70,80.58L213.70,97.70L213.54,98.73L212.86,99.90L211.16,100.92L211.15,100.58L211.51,100.07L211.84,98.21L211.84,83.62L211.64,83.61L208.08,85.66L207.96,100.57L207.75,101.88L207.05,103.21L205.71,104.09L205.36,104.12L205.51,103.71L205.78,103.29L205.93,102.43L206.05,84.82L207.98,83.71L207.98,82.46L204.88,84.15L203.85,84.20L203.85,82.11L205.21,81.79L214.74,76.28L215.06,76.03zM227.38,82.62L227.89,83.20L226.38,84.20L226.18,84.01L226.20,82.68L226.47,82.44L227.05,82.44zM201.73,90.05L201.74,90.45L200.46,91.24L200.20,91.25L200.19,89.77L200.47,89.53L201.04,89.53zM201.89,98.14L200.47,99.02L200.19,99.02L200.19,97.54L200.48,97.29L200.87,97.29zM226.20,102.88L227.38,103.23L224.62,103.22L223.77,103.38L222.30,104.28L221.24,105.58L220.45,107.66L220.29,109.19L220.29,111.89L219.44,112.06L219.26,111.68L219.27,108.51L219.57,107.12L220.13,105.49L221.25,104.07L222.93,103.05L224.83,102.71zM115.80,111.49L115.77,112.85L115.94,113.52L116.47,113.86L116.78,113.93L116.95,112.15L120.17,114.01L119.95,114.37L118.57,115.88L118.97,116.05L119.34,116.39L117.80,116.40L117.39,116.72L116.29,118.14L116.10,119.16L116.28,120.44L116.81,120.79L117.11,120.85L117.30,120.51L117.29,118.82L118.25,117.75L118.74,117.05L120.16,117.12L120.51,116.46L121.34,115.44L121.69,114.87L127.10,117.93L127.10,118.11L115.09,125.06L114.58,125.19L111.50,123.36L111.54,110.53L111.99,109.96L113.08,109.97zM239.53,112.18L241.41,115.19L242.57,117.57L243.25,120.11L243.25,123.54L243.09,124.39L242.41,126.07L241.83,126.85L242.74,127.56L243.10,127.46L243.76,126.58L244.60,124.55L244.94,122.86L245.12,119.95L244.77,116.90L244.15,113.97L244.76,115.72L245.44,119.60L245.44,122.19L245.28,123.54L244.77,125.40L244.26,126.41L243.42,127.76L242.08,128.96L240.51,129.74L239.80,129.73L240.89,127.93L241.57,125.91L241.73,124.72L241.73,121.12L241.06,117.40L239.71,113.69L238.33,110.81L238.35,110.47zM136.20,111.21L136.00,111.35L134.46,111.56L134.34,110.98L134.18,111.38L133.35,112.08L132.43,112.41L132.44,111.33L133.99,110.35L134.32,109.84L135.30,109.64L136.21,109.63zM129.60,112.69L130.29,113.02L130.31,113.59L129.90,113.86L128.87,114.88L128.43,114.89L128.10,114.70L128.11,113.75L128.88,112.49L129.28,112.36zM134.18,112.41L133.79,112.68L132.61,113.19L131.23,113.23L131.23,112.85L132.95,112.69L134.36,111.84zM243.98,113.46L243.86,113.01L243.92,113.00zM244.15,113.97L243.98,113.46L244.08,113.54zM232.62,115.02L233.12,116.73L233.13,118.31L232.78,119.15L232.12,119.67L231.08,120.16L231.03,119.97L232.04,119.25L232.43,117.90L232.40,117.08L232.60,116.93L232.62,116.39L232.26,115.39L232.22,114.86L232.44,114.83zM230.43,116.04L230.43,116.97L229.01,117.91L228.90,118.65L228.57,119.50L226.99,120.45L225.98,120.61L225.29,120.62L225.86,120.16L226.03,119.66L226.19,117.95L226.69,117.91L227.03,119.32L227.56,118.48L228.85,117.74L228.91,117.24L228.67,116.53L230.03,115.69L230.24,115.71zM139.93,114.60L139.23,115.93L138.01,116.23L136.82,116.28L136.82,115.21L137.84,114.87L139.24,114.76L139.92,113.52zM201.04,118.09L198.96,118.08L197.43,118.41L196.32,119.16L194.97,120.85L194.28,123.20L194.30,126.91L193.21,126.92L193.04,125.18L193.27,122.86L194.04,120.59L195.07,119.09L196.59,118.08L197.95,117.74L199.35,117.74zM225.70,119.09L225.71,119.66L224.64,120.46L223.95,120.46L224.34,119.99L224.69,119.28L224.61,118.77L225.38,118.41zM147.46,117.07L144.25,118.93L144.25,120.18L144.81,119.99L146.18,119.26L146.16,136.20L146.00,137.39L145.34,138.59L143.91,139.55L143.56,139.58L143.72,139.16L143.97,138.74L144.14,138.06L144.13,122.45L143.93,122.44L140.59,124.38L140.42,139.24L140.21,140.55L139.40,142.10L138.00,142.92L137.66,142.91L138.24,141.95L138.40,140.93L138.57,123.54L140.42,122.52L140.42,121.27L140.21,121.26L139.34,121.78L137.00,122.99L136.31,123.04L136.31,120.77L137.51,120.63L147.33,114.89L147.53,114.70zM107.96,124.82L110.20,124.48L110.21,126.25L108.40,126.63L108.35,126.00L108.16,125.67L108.02,126.42L107.86,126.60L106.49,127.44L106.49,126.24L107.50,125.57L108.03,125.23zM212.71,125.97L215.56,130.40L216.73,133.28L217.25,135.64L217.25,138.23L217.08,139.07L216.57,140.59L215.89,141.63L215.89,141.87L216.76,142.57L217.01,142.57L218.04,140.88L218.77,138.57L218.94,137.55L218.94,133.61L218.43,130.40L218.25,129.91L218.15,129.16L218.60,130.24L219.27,133.61L219.27,137.89L219.11,139.08L218.26,141.27L217.42,142.62L215.92,143.99L214.55,144.65L213.64,144.77L214.38,143.80L215.22,141.77L215.73,139.24L215.73,136.65L215.06,132.60L214.04,129.56L212.45,125.85zM103.33,127.46L104.30,128.05L104.32,128.44L103.90,128.72L102.88,129.73L102.25,129.75L101.90,129.40L101.91,128.94L102.96,127.41L103.25,127.37zM105.23,127.88L107.11,127.55L108.02,126.93L108.40,126.63L108.11,127.36L106.95,128.05L105.29,128.21zM134.35,129.04L133.16,129.78L132.61,129.97L132.47,128.94L132.75,128.36L133.68,128.37zM218.15,129.16L218.02,128.72L218.09,128.71zM206.51,129.81L207.12,131.93L206.96,133.51L206.55,134.28L205.38,134.98L204.35,134.97L205.22,134.81L206.11,134.01L206.40,132.11L206.60,131.96L206.62,131.42L206.06,129.89L206.45,129.74zM204.42,131.25L204.43,131.82L204.24,132.14L203.15,132.74L202.49,134.45L201.17,135.32L199.96,135.46L199.64,135.65L198.95,135.65L199.63,135.30L199.86,135.03L200.14,132.94L200.56,132.76L201.03,134.18L201.48,133.44L202.90,132.65L202.92,132.27L202.71,131.93L202.72,131.31L204.10,130.56zM113.75,129.79L113.22,130.78L112.52,131.09L110.81,131.14L110.87,130.12L112.17,129.73L113.24,129.62L113.68,128.69L113.75,128.71zM199.53,133.60L199.53,134.69L198.62,135.47L197.77,135.48L198.18,135.20L198.30,134.63L198.68,134.46L198.47,133.77L199.35,133.28zM121.29,132.09L118.31,133.84L118.31,135.21L120.01,134.29L119.99,151.90L119.83,152.58L119.16,153.61L117.72,154.55L117.40,154.56L117.98,153.60L118.13,152.58L118.15,137.33L114.42,139.41L114.25,154.94L114.09,155.80L113.39,156.95L111.71,157.99L111.70,157.65L112.23,156.64L112.39,155.62L112.51,138.52L114.20,137.50L114.26,136.14L111.33,137.84L110.31,137.90L110.31,135.80L111.17,135.65L121.36,129.90zM134.20,136.66L134.18,137.04L133.12,137.68L132.61,137.73L132.47,136.71L132.75,136.13L133.51,136.14zM44.77,139.69L44.46,139.70L45.36,138.90L45.81,138.67L46.38,138.67zM41.82,141.55L42.50,142.04L42.49,143.14L42.18,143.07L40.96,141.87L41.13,141.21zM108.20,143.92L108.18,144.13L106.66,144.99L106.48,144.61L106.48,143.46L106.76,143.22L107.33,143.23zM42.79,143.59L42.97,143.46L43.16,141.93L43.34,141.54L43.35,144.14zM42.51,149.81L42.50,151.06L41.66,150.49L41.14,149.82L40.79,149.63L40.81,149.34L40.97,149.33L41.14,148.97zM108.04,151.48L108.20,151.91L107.16,152.58L106.61,152.75L106.47,152.55L106.47,151.38L106.93,150.98L107.16,150.99zM43.01,151.38L43.29,149.31L43.33,151.92L43.01,151.87L42.76,151.37zM133.22,156.85L130.91,156.91L129.20,157.57L128.28,158.33L127.37,159.78L126.74,161.86L126.58,165.58L125.68,165.77L125.56,164.74L125.73,161.69L126.06,160.17L127.18,158.24L128.76,156.96L129.90,156.57L132.66,156.57zM42.49,157.59L42.51,158.82L41.98,158.61L41.64,158.27L41.32,157.75L40.79,157.41L40.93,157.11L41.30,156.89zM43.01,159.14L43.29,157.07L43.35,159.84L42.82,159.42L42.83,159.13zM145.34,165.00L147.70,168.72L148.86,171.10L149.71,174.48L149.71,176.72L149.20,178.92L148.33,180.44L148.35,180.71L149.37,181.44L150.67,179.21L151.23,177.23L151.40,175.88L151.40,172.45L150.78,168.50L151.06,169.07L151.73,172.45L151.73,176.72L151.39,178.24L150.72,180.10L149.97,181.21L148.72,182.49L146.79,183.44L146.27,183.48L146.32,183.16L146.84,182.47L147.69,180.61L148.02,179.09L148.19,176.16L147.85,172.96L147.01,169.75L146.00,167.21L144.79,164.67L144.81,164.33zM150.44,167.49L150.32,167.05L150.38,167.03zM150.61,168.00L150.44,167.49L150.54,167.57zM150.78,168.50L150.61,168.00L150.71,168.07zM139.08,168.90L139.59,170.94L139.42,172.34L139.07,172.84L138.16,173.62L137.15,173.64L138.16,173.28L138.74,172.00L138.87,170.77L139.09,170.44L138.50,168.70L138.67,168.54L138.89,168.55zM136.71,169.56L136.90,170.48L136.72,170.82L135.53,171.49L135.36,172.17L134.84,173.34L133.46,174.15L132.27,174.31L131.58,174.32L132.17,174.04L132.49,173.01L132.45,171.76L133.01,171.58L133.49,172.85L133.79,172.29L135.38,171.33L135.12,170.10L136.32,169.39L136.55,169.38zM106.71,171.71L104.57,171.94L103.22,172.45L101.94,173.70L101.03,175.32L100.57,177.57L100.58,180.61L99.55,180.56L99.56,177.23L99.89,175.36L101.09,173.19L102.26,172.16L103.55,171.60L104.41,171.44L106.15,171.43zM108.34,172.12L107.82,172.13L107.39,171.88L108.02,171.93zM131.99,172.43L132.00,173.53L130.92,174.15L130.40,174.14L130.63,173.86L130.76,173.31L130.96,173.15L130.96,172.51L131.82,172.12zM120.16,181.23L122.36,184.94L123.37,187.81L123.71,190.52L123.37,193.11L122.86,194.45L122.33,195.30L122.30,195.62L123.05,196.26L123.30,196.26L124.05,195.30L124.89,193.27L125.39,190.57L125.39,188.15L124.89,184.61L124.44,182.52L125.05,184.27L125.73,187.98L125.73,191.08L125.57,192.43L125.23,193.61L124.38,195.47L123.54,196.65L122.55,197.51L120.96,198.29L120.26,198.34L120.32,198.02L120.84,197.33L121.68,195.30L122.02,193.61L122.02,189.50L121.68,187.48L121.00,184.95L119.49,181.06L118.79,179.70L118.81,179.36zM124.27,182.01L124.14,181.57L124.21,181.55zM124.44,182.52L124.27,182.01L124.37,182.09zM112.98,183.68L113.41,185.28L113.42,187.03L113.08,187.88L111.84,188.67L110.64,188.66L112.00,188.32L112.57,187.54L112.74,186.30L112.68,185.81L112.89,185.66L112.90,184.94L112.54,183.93L112.51,183.58zM110.71,184.59L110.72,185.69L109.48,186.47L108.84,188.19L107.26,189.16L106.42,189.15L106.10,189.34L105.24,189.34L106.09,188.99L106.32,188.38L106.49,186.69L107.00,186.48L107.29,187.72L107.47,187.72L108.12,186.97L109.21,186.36L109.20,185.78L108.99,185.44L108.96,185.12L110.55,184.28zM105.86,187.25L106.00,188.39L104.83,189.20L104.06,189.18L104.44,189.04L104.76,188.34L104.96,188.18L104.91,187.49L105.43,187.12L105.80,187.13zM250.86,42.77L251.38,43.09L251.73,43.48L250.34,43.28L249.78,44.13L248.65,45.37L248.66,47.22L248.49,47.71L247.47,47.16L247.30,46.32L247.30,45.36L247.64,44.35L248.60,43.12L249.16,42.61zM221.66,44.62L221.64,45.19L221.47,45.70L220.80,46.72L219.77,47.02L219.43,46.68L219.43,45.69L219.87,44.78L220.74,44.10L220.96,44.11zM172.35,72.81L172.34,73.74L172.00,74.41L171.11,75.21L170.48,75.20L170.31,75.02L170.30,73.72L170.66,73.06L171.59,72.32zM127.93,98.16L127.94,99.23L127.59,99.90L126.70,100.71L126.07,100.69L125.90,100.52L125.89,99.21L126.52,98.15L127.03,97.80L127.25,97.80zM114.46,118.04L114.35,117.58L115.88,117.40L116.55,116.55L117.41,115.89L117.92,115.70L118.32,115.72L118.32,115.92L117.91,116.06L116.96,116.63L116.11,117.97L115.77,118.97L115.77,119.94L115.40,120.12L113.07,120.11L112.83,119.43L113.18,119.09L115.27,118.43zM78.82,126.51L78.80,127.08L78.29,128.27L77.57,128.90L76.92,128.91L76.58,128.57L76.59,127.58L77.28,126.42L77.55,126.17L78.30,126.18zM88.27,132.89L88.17,132.61L89.77,132.49L90.37,131.57L91.23,130.91L91.56,130.74L92.48,130.74L91.40,131.25L90.27,132.48L89.76,133.66L89.60,135.02L89.04,135.14L87.22,135.15L86.90,134.96L86.85,134.12L88.75,133.50L88.57,133.28L88.75,133.11zM51.11,141.71L51.95,142.23L50.51,142.22L49.75,143.46L48.86,144.26L48.92,145.44L48.76,146.67L47.72,146.11L47.56,145.27L47.55,144.13L47.82,143.38L48.50,142.38L49.42,141.55zM51.28,149.65L52.12,150.17L50.53,150.14L50.04,150.84L48.91,152.08L48.92,153.21L48.73,154.46L48.42,154.39L47.67,153.93L47.50,152.19L47.89,151.06L48.69,149.99L49.07,149.71L49.20,149.49L50.60,149.49zM51.11,157.41L51.97,157.92L50.53,157.90L50.21,158.44L48.91,159.84L48.92,161.15L48.75,162.38L47.73,161.81L47.56,160.97L47.55,159.83L47.89,158.83L49.35,157.24z"/><g id="Actor_.0"><g style="stroke:#000000;stroke-width:0.176"><path d="M246.39,24.01L245.69,24.05L244.93,24.42L244.19,25.06L243.91,25.43"/></g><g style="stroke:#000000;stroke-width:0.529"><path d="M242.88,26.02L243.07,25.63L243.71,24.78L244.45,24.14L245.21,23.78L245.91,23.73L246.42,23.99"/></g></g><g id="Actor_.1"><g style="stroke:#000000;stroke-width:0.176"><path d="M43.40,144.12L43.29,144.03L43.04,143.33L43.04,142.45L43.29,141.47L43.40,141.25"/><path d="M44.12,140.03L44.40,139.66L45.13,139.01L45.89,138.65L46.59,138.61"/></g><g style="stroke:#000000;stroke-width:0.529"><path d="M46.63,138.58L46.11,138.33L45.41,138.37L44.65,138.74L43.91,139.38L43.27,140.23L42.81,141.19L42.56,142.17L42.56,143.05L42.81,143.75L43.27,144.18L43.40,144.25"/></g></g><g id="Actor_.2"><g style="stroke:#000000;stroke-width:0.176"><path d="M251.88,24.18L46.29,142.10L43.40,140.44"/><path d="M46.29,164.46L46.29,142.10"/><path d="M76.75,128.81L76.56,128.53L76.50,128.13L76.56,127.66L76.75,127.16L77.03,126.70L77.38,126.32L77.76,126.07L78.13,125.97L78.45,126.02L78.68,126.24L78.80,126.59L78.80,127.03L78.68,127.52L78.45,128.00L78.13,128.42L77.76,128.74L77.38,128.93L77.03,128.95L76.75,128.81"/><path d="M88.87,133.35L88.66,133.36L88.41,133.24L88.24,132.98L88.18,132.61L88.20,132.44"/><path d="M114.26,117.50L114.24,117.66L114.29,117.95L114.47,118.29L114.72,118.41L114.93,118.40"/><path d="M125.97,100.58L125.79,100.29L125.73,99.89L125.79,99.42L125.97,98.93L126.25,98.47L126.60,98.09L126.98,97.84L127.35,97.73L127.67,97.79L127.90,98.00L128.03,98.35L128.03,98.79L127.90,99.28L127.67,99.77L127.33,100.20L126.98,100.51L126.60,100.69L126.25,100.71L125.97,100.58"/><path d="M170.94,75.23L170.65,75.25L170.37,75.11L170.19,74.83L170.13,74.43L170.19,73.95L170.37,73.46L170.65,73.00L171.00,72.62L171.38,72.37L171.75,72.27L172.07,72.32L172.30,72.54L172.43,72.89L172.43,73.33L172.30,73.82L172.07,74.30L171.75,74.72L171.38,75.04L170.94,75.23"/><path d="M181.83,78.74L181.81,78.91L181.86,79.28L182.03,79.54L182.28,79.66L182.49,79.65"/><path d="M207.89,63.80L207.86,63.96L207.92,64.33L208.09,64.59L208.34,64.72L208.55,64.70"/><path d="M219.65,46.90L219.88,47.01L220.22,46.99L220.60,46.81L220.97,46.49L221.29,46.06L221.53,45.58L221.65,45.09L221.65,44.65L221.53,44.31L221.29,44.09L220.97,44.03L220.60,44.14L220.22,44.39L219.87,44.77L219.59,45.23L219.41,45.72L219.35,46.19L219.41,46.59L219.59,46.88L219.65,46.90"/></g><g style="stroke:#000000;stroke-width:0.529"><path d="M49.70,162.51L46.29,164.46L43.40,162.80L43.40,140.44L248.98,22.52L251.88,24.18L251.88,27.70"/><path d="M101.19,132.97L51.56,161.44"/><path d="M114.72,125.21L127.25,118.03"/><path d="M194.81,79.27L140.78,110.26"/><path d="M208.35,71.51L220.87,64.33"/><path d="M249.49,47.91L234.41,56.56"/><path d="M251.36,46.84L251.88,46.54L251.88,46.01"/><path d="M251.88,38.18L251.88,43.36"/><path d="M251.88,30.35L251.88,35.53"/></g></g><g id="Actor_.3"><g style="stroke:#000000;stroke-width:0.176"><path d="M129.04,114.63L129.77,115.04"/><path d="M140.40,124.49L140.40,121.14L144.26,118.92"/></g><g style="stroke:#000000;stroke-width:0.529"><path d="M140.40,124.49L144.26,122.28L144.26,118.92"/></g></g><g id="Actor_.4"><g style="stroke:#000000;stroke-width:0.176"><path d="M184.31,86.94L185.49,87.61"/></g><g style="stroke:#000000;stroke-width:0.529"><path d="M188.80,85.08L188.17,84.72L184.31,86.94L184.31,88.50"/></g></g><g id="Actor_.5"><g style="stroke:#000000;stroke-width:0.176"><path d="M207.96,95.26L208.06,95.46L208.19,95.97L208.19,96.16L208.19,96.43L208.06,96.79L207.96,96.88"/><path d="M207.96,87.44L208.06,87.63L208.19,88.14L208.19,88.60L208.06,88.96L207.96,89.05"/><path d="M209.83,101.67L210.90,101.04L211.59,99.88L211.82,98.28L211.82,81.51L213.75,80.41"/></g><g style="stroke:#000000;stroke-width:0.529"><path d="M212.58,79.73L213.75,80.41L213.75,97.18L213.52,98.77L212.83,99.93L211.76,100.56L209.83,101.67L208.49,101.69L207.82,101.43"/></g></g><g id="Actor_.6"><g style="stroke:#000000;stroke-width:0.176"><path d="M43.40,156.90L43.29,157.12L43.04,158.10L43.04,158.99L43.29,159.68L43.40,159.78"/></g><g style="stroke:#000000;stroke-width:0.529"><path d="M43.40,155.72L43.27,155.88L42.81,156.85L42.56,157.83L42.56,158.71L42.81,159.40L43.27,159.83L43.40,159.90"/></g></g><g id="Actor_.7"><g style="stroke:#000000;stroke-width:0.176"><path d="M241.27,23.66L240.98,23.91L240.66,24.34L240.43,24.82L240.30,25.31L240.30,25.32"/><path d="M247.62,28.78L248.81,27.30L248.28,27.75L247.80,28.39L247.62,28.78L247.36,29.10L247.36,30.77"/><path d="M247.25,30.08L247.27,29.85L247.36,29.48"/><path d="M247.36,29.10L248.54,29.77L249.13,29.25L249.56,28.78L249.21,29.30L248.93,29.88L248.75,30.46L248.69,31.02L248.75,31.50L248.92,31.90L249.20,32.16L249.56,32.27L249.97,32.23L250.43,32.04L250.88,31.71L251.30,31.27L251.65,30.75L251.93,30.17L252.11,29.58L252.17,29.03L252.11,28.55L251.93,28.16L251.65,27.90L251.30,27.79L250.88,27.82L250.43,28.01L249.97,28.35L249.56,28.78L249.92,28.27L250.27,27.61L250.87,27.73L251.30,27.79L251.66,27.80L252.01,27.78"/><path d="M248.54,32.10L248.66,31.54L248.69,31.02L248.66,30.46L248.54,29.77"/><path d="M248.86,27.24L248.81,27.30"/><path d="M249.10,26.94L250.27,27.61"/><path d="M249.61,26.99L250.06,27.03"/></g><g style="stroke:#000000;stroke-width:0.529"><path d="M240.30,25.32L240.30,25.13L240.40,24.72L240.60,24.32L240.87,23.96L241.18,23.69L241.31,23.61"/><path d="M248.86,27.24L249.10,26.94L249.61,26.99L249.93,26.97L250.06,27.03L250.83,27.10L252.01,27.78L252.13,28.48L252.17,29.03L252.13,29.54L252.01,30.10L251.66,30.76L251.30,31.27L250.87,31.75L250.27,32.26L249.92,32.29L249.56,32.27L249.13,32.21L248.54,32.10L247.36,31.42L247.36,30.77L247.27,30.51L247.24,30.19L247.25,30.08"/></g></g><g id="Actor_.8"><g style="stroke:#000000;stroke-width:0.176"><path d="M234.02,80.31L234.12,80.51L234.25,81.02L234.25,81.22L234.25,81.48L234.12,81.84L234.02,81.93"/><path d="M234.02,72.49L234.12,72.69L234.25,73.19L234.25,73.65L234.12,74.02L234.02,74.10"/><path d="M235.89,86.72L236.96,86.09L237.65,84.93L237.88,83.34L237.88,66.56L239.81,65.46"/></g><g style="stroke:#000000;stroke-width:0.529"><path d="M238.64,64.79L239.81,65.46L239.81,82.23L239.58,83.82L238.89,84.99L237.82,85.61L235.89,86.72L234.55,86.74L233.88,86.48"/></g></g><g id="Actor_.9"><g style="stroke:#000000;stroke-width:0.176"><path d="M43.40,151.95L43.29,151.85L43.04,151.16L43.04,150.28L43.29,149.30L43.40,149.08"/></g><g style="stroke:#000000;stroke-width:0.529"><path d="M43.40,152.07L43.27,152.00L42.81,151.58L42.56,150.88L42.56,150.00L42.81,149.02L43.27,148.05L43.40,147.89"/></g></g><g id="Actor_.10"><g style="stroke:#000000;stroke-width:0.176"><path d="M210.37,71.99L211.55,72.66"/></g><g style="stroke:#000000;stroke-width:0.529"><path d="M214.86,70.13L214.23,69.77L210.37,71.99L210.37,72.68"/></g></g><g id="Actor_.11"><g style="stroke:#000000;stroke-width:0.176"><path d="M200.54,99.63L200.25,99.15L200.06,98.64L200.00,98.15L200.01,98.07L200.06,97.73L200.25,97.43L200.54,97.29L200.91,97.31L201.30,97.50L201.51,97.68L201.69,97.84L202.02,98.28L202.27,98.78L202.39,99.29L202.39,99.75L202.27,100.11L202.17,100.20L202.02,100.34L201.69,100.40L201.30,100.29L200.91,100.02L200.54,99.63"/><path d="M200.54,91.80L200.91,92.20L201.30,92.46L201.69,92.57L202.02,92.51L202.27,92.28L202.39,91.92L202.39,91.46L202.27,90.95L202.02,90.45L201.69,90.01L201.30,89.68L200.91,89.49L200.54,89.46L200.25,89.61L200.06,89.90L200.00,90.32L200.06,90.81L200.25,91.32L200.54,91.80"/><path d="M204.04,104.99L205.11,104.36L205.79,103.20L206.03,101.61L206.03,84.83L204.83,84.14"/><path d="M206.03,84.83L207.96,83.73"/></g><g style="stroke:#000000;stroke-width:0.529"><path d="M195.73,79.80L183.83,88.87L183.83,94.46L201.20,104.43L202.70,105.01L204.04,104.99L205.97,103.88L207.04,103.26L207.72,102.09L207.96,100.50L207.96,83.73L206.79,83.06"/></g></g><g id="Actor_.12"><g style="stroke:#000000;stroke-width:0.176"><path d="M114.34,150.58L114.43,150.49L114.56,150.13L114.56,149.67L114.43,149.16L114.34,148.96"/><path d="M114.34,141.14L114.43,141.33L114.56,141.84L114.56,142.04L114.56,142.30L114.43,142.66L114.34,142.75"/><path d="M116.21,155.37L117.28,154.74L117.96,153.58L118.20,151.98L118.20,135.21L120.13,134.11"/></g><g style="stroke:#000000;stroke-width:0.529"><path d="M118.96,133.43L120.13,134.11L120.13,150.88L119.89,152.47L119.21,153.63L118.14,154.26L116.21,155.37L114.86,155.39L114.20,155.13"/></g></g><g id="Actor_.13"><g style="stroke:#000000;stroke-width:0.176"><path d="M106.63,152.85L106.44,152.34L106.37,151.85L106.44,151.43L106.63,151.13L106.92,150.99L107.28,151.01L107.68,151.20L108.07,151.54L108.40,151.98L108.64,152.48L108.77,152.99L108.77,153.45L108.64,153.81L108.40,154.04L108.07,154.10L107.68,153.99L107.28,153.72L106.92,153.33L106.63,152.85"/><path d="M106.61,144.97L106.63,145.02L106.92,145.50L107.28,145.90L107.68,146.16L108.07,146.27L108.40,146.21L108.64,145.99L108.77,145.62L108.77,145.16L108.64,144.65L108.40,144.15L108.07,143.71L107.68,143.38L107.28,143.19L106.92,143.16L106.63,143.31L106.44,143.60L106.37,144.02L106.44,144.51L106.61,144.97"/><path d="M110.42,158.69L111.49,158.06L112.17,156.90L112.41,155.31L112.41,138.53L111.20,137.84"/><path d="M112.41,138.53L114.34,137.43"/></g><g style="stroke:#000000;stroke-width:0.529"><path d="M113.17,136.76L114.34,137.43L114.34,154.20L114.10,155.79L113.42,156.96L112.35,157.58L110.42,158.69L109.07,158.71L107.58,158.13L90.21,148.16L90.21,142.57L102.10,133.50"/></g></g><g id="Actor_.14"><g style="stroke:#000000;stroke-width:0.176"><path d="M117.92,126.36L116.75,125.69"/></g><g style="stroke:#000000;stroke-width:0.529"><path d="M121.24,123.83L120.61,123.47L116.75,125.69L116.75,126.38"/></g></g><g id="Actor_.15"><g style="stroke:#000000;stroke-width:0.176"><path d="M197.33,76.29L196.61,75.87"/><path d="M207.96,85.74L207.96,82.39L211.82,80.17"/></g><g style="stroke:#000000;stroke-width:0.529"><path d="M207.96,85.74L211.82,83.53L211.82,80.17"/></g></g><g id="Actor_.16"><g style="stroke:#000000;stroke-width:0.176"><path d="M41.47,153.91L41.19,154.16L40.87,154.59L40.63,155.07L40.51,155.56L40.51,155.57"/><path d="M48.74,162.35L48.86,161.79L48.90,161.27L48.96,161.76L49.13,162.15L49.41,162.41L49.77,162.52L50.18,162.48L50.63,162.29L51.09,161.96L51.50,161.52L51.86,161.00L52.14,160.42L52.31,159.83L52.37,159.28L52.31,158.80L52.14,158.41L51.86,158.15L51.50,158.04L51.09,158.07L50.63,158.27L50.18,158.60L49.77,159.03L49.34,159.51L48.74,160.02L47.57,159.35L47.57,161.02"/><path d="M47.57,159.74L47.47,160.10L47.46,160.33"/><path d="M47.82,159.03L49.01,157.55L48.49,158.00L48.01,158.64L47.82,159.03L47.57,159.35"/><path d="M48.74,160.02L48.86,160.71L48.90,161.27L48.96,160.72L49.13,160.13L49.41,159.55L49.77,159.03L50.13,158.52L50.48,157.87L51.07,157.98L51.50,158.04L51.87,158.05L52.22,158.03"/><path d="M49.01,157.55L49.06,157.49"/><path d="M49.30,157.19L50.48,157.87"/><path d="M49.81,157.24L50.27,157.28"/></g><g style="stroke:#000000;stroke-width:0.529"><path d="M41.52,153.86L41.39,153.94L41.07,154.21L40.81,154.57L40.61,154.97L40.51,155.38L40.51,155.57"/><path d="M49.06,157.49L49.30,157.19L49.81,157.24L50.14,157.22L50.27,157.28L51.04,157.36L52.22,158.03L52.34,158.73L52.37,159.28L52.34,159.79L52.22,160.35L51.87,161.01L51.50,161.52L51.07,162.00L50.48,162.51L50.13,162.54L49.77,162.52L49.33,162.46L48.74,162.35L47.57,161.67L47.57,161.02L47.47,160.76L47.45,160.44L47.46,160.33"/></g></g><g id="Actor_.17"><g style="stroke:#000000;stroke-width:0.176"><path d="M91.86,141.31L90.69,140.64"/></g><g style="stroke:#000000;stroke-width:0.529"><path d="M95.18,138.78L94.55,138.42L90.69,140.64L90.69,142.20"/></g></g><g id="Actor_.18"><g style="stroke:#000000;stroke-width:0.176"><path d="M102.98,129.57L103.71,129.99"/><path d="M114.34,139.44L114.34,136.09L118.20,133.87"/></g><g style="stroke:#000000;stroke-width:0.529"><path d="M114.34,139.44L118.20,137.23L118.20,133.87"/></g></g><g id="Actor_.19"><g style="stroke:#000000;stroke-width:0.176"><path d="M226.49,84.49L226.31,84.20L226.12,83.69L226.06,83.20L226.12,82.78L226.31,82.49L226.60,82.34L226.97,82.37L227.36,82.55L227.75,82.89L228.08,83.33L228.33,83.83L228.45,84.34L228.45,84.80L228.33,85.16L228.20,85.28L228.08,85.39L227.75,85.45L227.36,85.34L226.97,85.08L226.60,84.68L226.49,84.49"/><path d="M226.12,75.86L226.31,76.38L226.49,76.67L226.60,76.86L226.97,77.25L227.36,77.51L227.75,77.62L228.08,77.56L228.33,77.34L228.45,76.98L228.45,76.89L228.45,76.52L228.33,76.01L228.08,75.50L227.75,75.06L227.36,74.73L226.97,74.54L226.60,74.52L226.31,74.66L226.12,74.96L226.06,75.37L226.12,75.86"/><path d="M230.10,90.04L231.17,89.42L231.85,88.25L232.09,86.66L232.09,69.89L230.89,69.20"/><path d="M232.09,69.89L234.02,68.78"/></g><g style="stroke:#000000;stroke-width:0.529"><path d="M221.79,64.85L211.03,73.05"/><path d="M232.85,68.11L234.02,68.78L234.02,85.55L233.78,87.14L233.10,88.31L232.03,88.93L230.10,90.04L228.76,90.06L227.26,89.48L213.75,81.73"/></g></g><g id="Actor_.20"><g style="stroke:#000000;stroke-width:0.176"><path d="M222.67,60.92L223.39,61.34"/><path d="M237.88,65.22L234.02,67.44L234.02,70.79"/></g><g style="stroke:#000000;stroke-width:0.529"><path d="M234.02,70.79L237.88,68.58L237.88,65.22"/></g></g><g id="Actor_.21"><g style="stroke:#000000;stroke-width:0.176"><path d="M132.47,137.20L132.43,136.90L132.50,136.48L132.69,136.19L132.98,136.04L133.34,136.07L133.74,136.25L134.13,136.59L134.46,137.03L134.70,137.53L134.83,138.04L134.83,138.50L134.70,138.86L134.46,139.09L134.13,139.15L133.74,139.04L133.34,138.78L132.98,138.38L132.69,137.90L132.50,137.39L132.47,137.20"/><path d="M132.43,129.07L132.50,129.56L132.69,130.08L132.98,130.56L133.34,130.95L133.74,131.21L134.13,131.32L134.46,131.26L134.70,131.04L134.83,130.68L134.83,130.59L134.83,130.22L134.70,129.71L134.46,129.20L134.13,128.76L133.95,128.61L133.74,128.43L133.34,128.24L132.98,128.22L132.69,128.36L132.50,128.66L132.43,129.07"/><path d="M136.48,143.74L137.55,143.12L138.23,141.95L138.47,140.36L138.47,123.59L137.27,122.90"/><path d="M138.47,123.59L140.40,122.48"/></g><g style="stroke:#000000;stroke-width:0.529"><path d="M128.16,118.55L117.41,126.75"/><path d="M120.13,135.43L133.64,143.18L135.13,143.76L136.48,143.74L138.41,142.63L139.48,142.01L140.16,140.84L140.40,139.25L140.40,122.48L139.23,121.81"/></g></g><g id="Actor_.22"><g style="stroke:#000000;stroke-width:0.176"><path d="M140.40,134.01L140.49,134.21L140.62,134.72L140.62,135.18L140.49,135.54L140.40,135.63"/><path d="M140.40,126.19L140.49,126.39L140.62,126.89L140.62,127.09L140.62,127.35L140.49,127.72L140.40,127.80"/><path d="M142.27,140.42L143.34,139.79L144.02,138.63L144.26,137.04L144.26,120.27L146.19,119.16"/></g><g style="stroke:#000000;stroke-width:0.529"><path d="M145.02,118.49L146.19,119.16L146.19,135.93L145.95,137.52L145.27,138.69L144.20,139.31L142.27,140.42L140.92,140.44L140.26,140.18"/></g></g><g id="Actor_.23"><g style="stroke:#000000;stroke-width:0.176"><path d="M225.06,120.16L225.35,120.20L225.45,120.16L225.62,119.93L225.71,119.49L225.66,118.96L225.64,118.92L225.47,118.39L225.16,117.86L224.77,117.41L224.34,117.10L223.91,116.96L223.54,117.00L223.25,117.22L223.13,117.51"/><path d="M223.42,117.34L223.55,117.05L223.63,116.99"/><path d="M227.64,115.16L225.95,116.13L225.30,116.06L224.82,115.96L224.41,115.92L224.04,116.03L223.74,116.20"/><path d="M224.01,115.61L224.41,115.82L224.82,115.96L225.27,116.15L225.72,116.48L226.14,116.93L226.50,117.45L226.21,116.87L225.95,116.13"/><path d="M225.45,120.16L225.39,120.23L225.06,120.37L224.77,120.33"/><path d="M226.83,120.53L226.85,120.07L226.94,119.65L227.00,119.17L226.94,118.62L226.77,118.03L226.50,117.45L226.86,118.00L227.36,118.59L227.09,119.19L226.94,119.65L226.77,120.03L226.49,120.29L226.18,120.46"/><path d="M227.36,118.59L229.05,117.62"/></g><g style="stroke:#000000;stroke-width:0.529"><path d="M224.48,120.50L224.85,120.69L225.36,120.76L225.46,120.77L225.56,120.73L226.00,120.56L226.18,120.46L226.83,120.53L228.52,119.56L228.79,118.97L228.94,118.50L229.03,118.08L229.05,117.62L228.79,116.89L228.50,116.30L228.14,115.76L227.64,115.16L227.23,114.95L226.82,114.81L226.34,114.71L225.70,114.64L224.01,115.61L223.74,116.20L223.56,116.31L223.19,116.60L223.11,116.67L223.07,116.76L222.86,117.24L222.85,117.67"/></g></g><g id="Actor_.24"><g style="stroke:#000000;stroke-width:0.176"><path d="M209.02,143.73L208.03,143.95L205.91,143.71L203.66,142.83L201.38,141.33L199.20,139.32L197.22,136.87L195.54,134.12L194.25,131.20L193.41,128.26L193.06,125.45L193.22,122.91L193.88,120.76L195.01,119.12L196.56,118.06L198.43,117.64L200.55,117.88L202.81,118.77L203.21,119.03L201.22,118.25L199.21,118.02L197.43,118.42L195.97,119.42L194.90,120.98L194.27,123.02L194.12,125.43L194.45,128.09L195.25,130.88L196.37,133.41"/><path d="M213.70,144.80L214.31,144.07L215.11,142.55L215.63,140.87L215.90,138.98L215.92,136.86L215.68,134.68L215.20,132.43L214.48,130.14L213.56,127.92L213.53,127.86L212.38,125.63L211.05,123.51L209.57,121.53L207.96,119.74L206.27,118.17L204.51,116.85L202.67,115.78L200.90,115.04L199.19,114.62L197.46,114.52L196.43,114.68"/><path d="M197.56,135.42L198.07,136.25L199.94,138.57L202.01,140.48L204.17,141.89L206.30,142.73L207.61,142.88"/><path d="M203.69,134.76L203.91,134.88L204.97,135.08L205.85,134.80L206.46,134.07L206.60,133.53L206.74,132.99L206.66,131.65L206.21,130.22L205.84,129.53L205.47,128.84L204.49,127.66L203.39,126.81L202.30,126.38L201.78,126.35L201.32,126.43L200.56,126.94L200.11,127.86L200.01,129.08L200.01,129.29L200.10,128.13L200.53,127.26L201.24,126.78L201.68,126.71L202.17,126.74L203.20,127.14L204.23,127.94L205.10,128.98L205.15,129.05L205.86,130.36L206.27,131.71L206.36,132.97L206.09,133.99L205.51,134.67L204.68,134.94L203.69,134.76L202.64,134.15L202.63,134.13"/><path d="M200.07,129.63L200.01,129.29"/><path d="M200.56,126.94L201.29,126.41L202.17,126.13L203.22,126.32L204.34,126.96L205.39,127.99L206.19,129.19L206.26,129.29L206.86,130.72L207.13,132.12L207.03,133.35L206.58,134.27L205.85,134.80"/><path d="M203.66,132.43L203.95,132.41L204.23,132.22L204.40,131.88L204.43,131.43L204.36,131.04L204.33,130.91L204.11,130.38L203.79,129.89L203.40,129.51L202.98,129.27L202.59,129.20L202.26,129.31L202.04,129.58L202.03,129.61"/><path d="M209.25,142.75L210.09,142.56L211.55,141.56L212.63,140.00L213.25,137.96L213.38,135.94L213.06,133.33L212.21,130.39L210.92,127.47L209.24,124.72L207.26,122.27L205.08,120.26L203.21,119.03"/><path d="M207.54,146.90L209.07,146.98"/><path d="M210.21,143.33L211.45,142.47L212.58,140.83L213.24,138.68L213.41,136.14L213.38,135.94"/></g><g style="stroke:#000000;stroke-width:0.529"><path d="M213.35,145.22L213.70,144.80L214.18,144.73L214.28,144.70L215.64,144.13L216.85,143.24L217.83,142.07L218.59,140.63L219.11,138.93L219.38,137.04L219.40,134.97L219.16,132.78L218.67,130.50L218.19,128.98L217.94,128.20L216.99,125.90L215.81,123.61L214.49,121.51L213.00,119.52L211.38,117.71L210.89,117.26L209.67,116.13L207.90,114.80L206.10,113.75L204.33,113.01L202.61,112.59L200.96,112.50L199.45,112.73L198.07,113.30L196.87,114.18L196.80,114.25L196.43,114.68L195.95,114.76L195.85,114.79L194.49,115.35L193.29,116.23L192.30,117.42L191.54,118.87L191.02,120.55L190.75,122.45L190.73,124.52L190.97,126.71L191.46,128.98L192.19,131.29L193.14,133.59L194.30,135.83L195.64,137.97L197.13,139.97L198.75,141.77L200.46,143.36L202.23,144.68L204.03,145.73L205.80,146.47L207.52,146.89L209.07,146.98"/><path d="M212.53,145.84L212.06,146.19L210.68,146.75L209.17,146.99L209.07,146.98"/></g></g><g id="Actor_.25"><g style="stroke:#000000;stroke-width:0.176"><path d="M90.13,134.76L90.13,133.25L91.11,133.81L91.22,134.42L91.25,134.92L91.30,134.43L91.46,133.90L91.71,133.39L92.02,132.93L92.39,132.54L92.79,132.25L93.20,132.08L93.57,132.05L93.89,132.06L94.20,132.04"/><path d="M90.13,133.53L90.04,133.91L90.03,134.01"/><path d="M91.45,131.61L90.32,133.02L90.51,132.61L90.94,132.05L91.39,131.66"/><path d="M90.32,133.02L90.13,133.25"/><path d="M91.11,135.88L91.22,135.38L91.25,134.92L91.30,135.35L91.46,135.70L91.71,135.93L92.02,136.03L92.39,136.00L92.79,135.83L93.20,135.53L93.57,135.14L93.88,134.68L94.13,134.16L94.29,133.64L94.34,133.15L94.29,132.72L94.13,132.38L93.88,132.14L93.57,132.05L93.18,131.99L92.66,131.89L92.35,132.47L92.02,132.93L91.64,133.35L91.11,133.81"/><path d="M92.66,131.89L91.67,131.33"/><path d="M92.08,131.37L92.53,131.41"/></g><g style="stroke:#000000;stroke-width:0.529"><path d="M89.33,133.61L88.25,133.00"/><path d="M91.39,131.66L91.43,131.62L91.45,131.61L91.67,131.33L92.08,131.37L92.40,131.35L92.53,131.41L93.22,131.48L94.20,132.04L94.31,132.66L94.34,133.15L94.31,133.61L94.20,134.11L93.89,134.69L93.57,135.14L93.18,135.57L92.66,136.02L92.35,136.05L92.02,136.03L91.64,135.98L91.11,135.88L90.13,135.31L90.13,134.76L90.04,134.50L90.01,134.21L90.03,134.01"/></g></g><g id="Actor_.26"><g style="stroke:#000000;stroke-width:0.176"><path d="M223.48,120.39L223.79,120.48L224.06,120.43L224.26,120.25L224.36,119.96L224.36,119.59L224.35,119.55L224.26,119.18L224.06,118.77L223.79,118.42L223.48,118.15L223.17,118.00L222.87,117.98L222.64,118.09L222.48,118.33L222.43,118.67"/><path d="M222.68,117.77L222.96,117.63L223.31,117.65L223.69,117.84L224.06,118.16L224.37,118.58L224.61,119.06L224.73,119.55L224.73,119.99L224.61,120.34L224.37,120.55"/></g><g style="stroke:#000000;stroke-width:0.529"><path d="M225.48,119.92L224.37,120.55L224.06,120.61L223.69,120.51L223.48,120.39L223.17,120.18L222.87,119.86L222.64,119.48L222.48,119.06L222.43,118.67L222.43,118.45L222.49,118.05L222.68,117.77L223.78,117.14"/><path d="M228.75,114.28L227.42,115.04"/><path d="M229.04,117.87L230.38,117.11"/></g></g><g id="Actor_.27"><g style="stroke:#000000;stroke-width:0.176"><path d="M209.43,59.18L209.43,57.96L209.33,58.33L209.33,58.43"/><path d="M210.41,60.30L210.52,59.80L210.55,59.35L210.60,58.85L210.71,58.49"/><path d="M212.76,59.67L212.50,59.95L212.09,60.25L211.69,60.42L211.32,60.45L211.00,60.35L210.75,60.12L210.60,59.77L210.55,59.35L210.52,58.84L210.43,58.33"/><path d="M209.43,57.76L209.43,57.96"/></g><g style="stroke:#000000;stroke-width:0.529"><path d="M212.76,59.67L212.48,59.99L211.95,60.45L211.64,60.47L211.32,60.45L210.94,60.40L210.41,60.30L209.43,59.74L209.43,59.18L209.33,58.92L209.31,58.64L209.33,58.43"/></g></g><g id="Actor_.28"><g style="stroke:#000000;stroke-width:0.176"><path d="M183.75,81.06L183.75,79.83L183.66,80.21L183.65,80.31"/><path d="M183.75,79.83L183.75,79.55L184.74,80.11L185.26,79.65L185.65,79.23L186.01,78.84L186.42,78.55L186.82,78.38L187.19,78.34L187.51,78.36L187.82,78.34"/><path d="M183.75,79.55L185.07,77.91"/><path d="M185.30,77.63L186.28,78.19L185.97,78.77L185.65,79.23L185.33,79.69L185.08,80.20L184.93,80.73L184.87,81.22L184.84,81.68L184.74,82.18"/><path d="M184.74,80.11L184.84,80.72L184.87,81.22L184.92,81.65L185.08,82.00L185.33,82.23L185.65,82.33L186.01,82.30L186.42,82.13L186.82,81.83L187.19,81.44L187.51,80.98L187.76,80.46L187.91,79.94L187.96,79.45L187.91,79.02L187.76,78.68L187.51,78.44L187.19,78.34L186.81,78.29L186.28,78.19"/><path d="M185.01,77.96L184.56,78.35L184.14,78.91L183.94,79.32"/><path d="M185.70,77.67L186.16,77.71"/></g><g style="stroke:#000000;stroke-width:0.529"><path d="M182.95,79.91L181.88,79.30"/><path d="M183.65,80.31L183.64,80.51L183.66,80.80L183.75,81.06L183.75,81.61L184.74,82.18L185.26,82.28L185.65,82.33L185.97,82.35L186.28,82.32L186.81,81.87L187.19,81.44L187.51,80.99L187.82,80.41L187.93,79.91L187.96,79.45L187.93,78.96L187.82,78.34L186.84,77.78L186.16,77.71L186.03,77.65L185.70,77.67L185.30,77.63L185.07,77.91L185.05,77.92L185.01,77.96"/></g></g><g id="Actor_.29"><g style="stroke:#000000;stroke-width:0.176"><path d="M131.12,174.03L131.44,174.07L131.77,173.93L132.00,173.63L132.09,173.19L132.08,173.09L132.04,172.66L131.85,172.10L131.54,171.56L131.37,171.37L131.15,171.11L130.72,170.80L130.29,170.66L129.91,170.70L129.63,170.92L129.52,171.19"/><path d="M129.81,171.02L129.92,170.75L130.00,170.69"/><path d="M130.12,169.90L130.42,169.73L130.78,169.62L131.20,169.66L131.68,169.76L132.32,169.83L134.01,168.86"/><path d="M132.32,169.83L132.58,170.57L132.87,171.15L132.52,170.63L132.10,170.18L131.64,169.85L131.20,169.66L130.79,169.52L130.38,169.31"/><path d="M131.82,173.86L131.73,173.90L131.42,173.86"/><path d="M135.43,171.32L133.73,172.29L133.47,172.89L133.32,173.35L133.23,173.77L133.21,174.23"/><path d="M133.73,172.29L133.24,171.70L132.87,171.15L133.15,171.73L133.30,172.25L133.32,172.32L133.38,172.87L133.32,173.35L133.14,173.73L132.86,173.99L132.56,174.16"/></g><g style="stroke:#000000;stroke-width:0.529"><path d="M129.22,171.36L129.24,170.94L129.44,170.46L129.49,170.37L129.57,170.30L129.94,170.01L130.12,169.90L130.38,169.31L132.07,168.34L132.72,168.41L133.20,168.51L133.61,168.65L134.01,168.86L134.52,169.46L134.88,170.00L135.16,170.59L135.43,171.32L135.40,171.78L135.32,172.20L135.16,172.67L134.90,173.26L133.21,174.23L132.56,174.16L132.38,174.26L131.94,174.43L131.84,174.47L131.74,174.46L131.22,174.39L130.84,174.19"/></g></g><g id="Actor_.30"><g style="stroke:#000000;stroke-width:0.176"><path d="M129.70,174.00L130.02,174.15L130.31,174.17L130.55,174.06L130.70,173.82L130.75,173.48L130.70,173.09L130.55,172.67L130.31,172.29L130.02,171.97L129.70,171.76L129.39,171.67L129.12,171.72L128.93,171.90L128.82,172.19"/><path d="M129.18,171.38L129.50,171.32L129.87,171.43L130.25,171.68L130.60,172.06L130.88,172.52L131.06,173.01L131.12,173.48L131.06,173.88L130.88,174.17"/></g><g style="stroke:#000000;stroke-width:0.529"><path d="M130.26,170.76L129.18,171.38L128.95,171.60L128.82,171.94L128.82,172.19L128.82,172.56L128.93,172.97L129.12,173.38L129.39,173.73L129.70,174.00L129.87,174.10L130.25,174.28L130.60,174.30L130.88,174.17L131.96,173.55"/><path d="M133.79,168.74L135.14,167.97"/><path d="M136.75,170.81L135.41,171.57"/></g></g><g id="Actor_.31"><g style="stroke:#000000;stroke-width:0.176"><path d="M238.67,125.77L238.61,125.94L237.47,127.57L235.91,128.61L234.03,129.01L231.90,128.75L229.65,127.84L227.37,126.33L225.20,124.30L223.22,121.84L221.56,119.08L220.28,116.16L219.45,113.23L219.12,110.42L219.29,107.89L219.97,105.76L221.11,104.13L222.67,103.09L224.56,102.69L226.68,102.95L228.94,103.85L229.32,104.11L227.35,103.32L225.33,103.07L223.54,103.45L222.07,104.44L222.05,104.47L220.99,105.98L220.34,108.00L220.18,110.40L220.49,113.06L221.28,115.84L222.43,118.47"/><path d="M241.74,125.65L241.97,123.84L241.97,121.71L241.71,119.53L241.20,117.27L240.46,114.97L239.49,112.70L238.33,110.48L236.98,108.37L235.48,106.41L233.87,104.63L232.16,103.08L230.40,101.79L228.56,100.75L226.80,100.04L225.09,99.65L223.37,99.58L222.48,99.74"/><path d="M238.27,125.66L237.57,126.65L236.10,127.63L234.31,128.02L232.30,127.77L230.16,126.91L228.00,125.48L225.94,123.55L224.07,121.23L223.61,120.47"/><path d="M228.96,119.36L230.07,119.97L230.59,120.05L231.11,120.12L231.97,119.80L232.56,119.05L232.81,117.93L232.69,116.58L232.22,115.15L231.45,113.78L230.46,112.62L229.36,111.81L228.81,111.61L228.27,111.42L227.30,111.51L226.57,112.05L226.14,113.00L226.08,114.25L226.08,114.45L226.14,113.27L226.54,112.38L227.23,111.86L228.14,111.78L229.17,112.14L230.21,112.91L231.14,114.00L231.83,115.22L231.87,115.29L232.31,116.65L232.42,117.92L232.19,118.97L231.64,119.68L230.82,119.99L229.84,119.84L228.79,119.27L228.96,119.36L228.95,119.35"/><path d="M226.08,114.45L226.13,114.69"/><path d="M226.57,112.05L227.28,111.50L228.15,111.18L229.19,111.34L230.30,111.94L231.36,112.94L232.25,114.22L232.88,115.64L233.18,117.06L233.12,118.30L232.69,119.25L231.97,119.80"/><path d="M229.71,117.49L230.04,117.46L230.31,117.25L230.47,116.90L230.49,116.44L230.38,115.91L230.15,115.38L229.81,114.91L229.42,114.54L229.01,114.31L228.62,114.26L228.30,114.38L228.08,114.66"/><path d="M228.79,119.27L228.69,119.18"/><path d="M238.75,124.81L239.30,123.09L239.44,121.06L239.13,118.47L238.31,115.53L237.03,112.61L235.36,109.85L233.39,107.40L231.21,105.36L229.32,104.11"/><path d="M239.44,121.06L239.47,121.27L239.29,123.81L238.96,124.86"/><path d="M239.77,129.85L240.46,129.00L241.23,127.45L241.49,126.57"/></g><g style="stroke:#000000;stroke-width:0.529"><path d="M244.29,126.36L244.71,125.52L245.21,123.81L245.46,121.90L245.45,119.82L245.19,117.62L244.67,115.34L243.92,113.03L243.01,110.86L242.95,110.73L241.77,108.50L240.42,106.37L239.78,105.53L238.91,104.39L237.28,102.61L235.56,101.05L233.78,99.74L231.99,98.72L230.22,98.01L228.51,97.62L226.87,97.56L225.36,97.83L224.00,98.43L222.83,99.33L222.76,99.40L222.48,99.74L221.87,99.85L221.78,99.88L220.43,100.47L219.24,101.39L218.28,102.59L217.54,104.07L217.04,105.78L216.80,107.69L216.80,109.77L217.07,111.97L217.58,114.25L218.33,116.56L219.30,118.86L220.48,121.09L221.83,123.22L223.34,125.20L224.97,126.98L226.69,128.54L228.46,129.85L230.26,130.87L232.03,131.58L233.74,131.97L235.38,132.03L236.88,131.77L238.24,131.17L239.42,130.26L239.49,130.19L239.77,129.85L240.38,129.74L240.47,129.71L241.83,129.11L243.01,128.20L243.80,127.22"/></g></g><g id="Actor_.32"><g style="stroke:#000000;stroke-width:0.176"><path d="M120.26,117.09L119.95,117.11L119.63,117.10L119.26,117.13L118.85,117.30L118.45,117.60L118.08,117.98L117.77,118.44L117.52,118.96L117.36,119.48L117.31,119.98L117.28,119.48L117.17,118.86L116.19,118.30L116.19,119.82"/><path d="M116.19,118.59L116.10,118.96L116.09,119.07"/><path d="M116.19,118.30L117.51,116.66"/><path d="M116.38,118.07L116.57,117.67L117.00,117.10L117.45,116.71"/><path d="M117.17,120.93L117.28,120.43L117.31,119.98L117.36,120.40L117.52,120.75L117.77,120.98L118.08,121.08L118.45,121.05L118.85,120.88L119.26,120.58L119.63,120.20L119.94,119.73L120.19,119.22L120.35,118.69L120.40,118.20L120.35,117.78L120.19,117.43L119.94,117.20L119.63,117.10L119.24,117.05L118.72,116.95L118.41,117.53L118.08,117.98L117.70,118.40L117.17,118.86"/><path d="M117.73,116.38L118.72,116.95"/><path d="M118.14,116.42L118.60,116.46"/></g><g style="stroke:#000000;stroke-width:0.529"><path d="M115.39,118.66L114.31,118.05"/><path d="M116.09,119.07L116.07,119.27L116.10,119.55L116.19,119.82L116.19,120.37L117.17,120.93L117.70,121.03L118.08,121.08L118.41,121.10L118.72,121.08L119.24,120.62L119.63,120.20L119.95,119.74L120.26,119.16L120.37,118.66L120.40,118.20L120.37,117.71L120.26,117.09L119.28,116.53L118.60,116.46L118.46,116.40L118.14,116.42L117.73,116.38L117.51,116.66L117.49,116.67L117.45,116.71"/></g></g><g id="Actor_.33"><g style="stroke:#000000;stroke-width:0.176"><path d="M222.61,57.49L222.72,58.00L223.11,58.47L223.75,58.83L224.35,59.00L224.56,59.06L225.45,59.12L226.33,59.02L227.10,58.75L227.68,58.36L228.01,57.88L228.04,57.36"/></g><g style="stroke:#000000;stroke-width:0.529"><path d="M222.89,56.89L222.79,56.99L222.61,57.49L222.61,57.94L222.72,58.45L223.11,58.91L223.75,59.28L224.25,59.42L224.56,59.51L225.45,59.57L226.33,59.46L227.10,59.20L227.68,58.81L228.01,58.33L228.04,57.81L228.04,57.36L227.79,56.87L227.78,56.86"/></g></g><g id="Actor_.34"><g style="stroke:#000000;stroke-width:0.176"><path d="M119.26,193.72L118.41,195.47L117.05,196.81L115.32,197.54L113.30,197.61L111.10,197.02L108.82,195.80L106.57,194.01L104.49,191.76L102.66,189.14L101.18,186.28L100.12,183.33L99.53,180.45L99.46,177.76L99.89,175.41L100.69,173.76L100.80,173.52L102.16,172.18L103.89,171.45L105.91,171.38L108.12,171.97L110.39,173.19L110.49,173.26L108.72,172.32L106.64,171.76L104.72,171.83L103.08,172.52L101.79,173.79L100.92,175.58L100.52,177.81L100.59,180.35L101.15,183.09L102.15,185.88L102.76,187.06"/><path d="M122.18,193.36L122.30,192.35L122.30,192.28L122.28,190.21L122.00,188.02L121.47,185.75L120.71,183.46L119.73,181.18L118.55,178.97L117.19,176.87L115.69,174.92L114.06,173.16L112.35,171.63L110.60,170.36L108.75,169.34L106.99,168.65L105.29,168.28L103.58,168.24L102.79,168.39"/><path d="M118.94,193.65L118.49,194.59L117.20,195.87L115.56,196.55L113.64,196.62L111.55,196.06L109.39,194.91L107.27,193.22L105.29,191.08L103.91,189.09"/><path d="M106.40,182.97L106.45,181.71L106.85,180.74L107.57,180.17L108.53,180.06L109.61,180.42L110.72,181.22L111.72,182.36L112.50,183.72L112.99,185.16L113.13,186.51L113.01,187.08L112.90,187.64L112.33,188.42L111.48,188.77L110.98,188.76L110.44,188.64L109.33,188.05L109.16,187.96L110.21,188.51L110.72,188.62L111.19,188.63L111.99,188.30L112.53,187.57L112.74,186.50L112.61,185.22L112.15,183.87L111.41,182.58L110.47,181.51L109.43,180.76L108.40,180.42L107.50,180.53L106.82,181.06L106.44,181.98L106.40,183.16L106.40,182.97L106.40,182.99"/><path d="M106.40,183.16L106.44,183.33"/><path d="M107.57,180.17L108.41,179.84L109.45,179.96L110.56,180.55L111.62,181.53L112.53,182.80L113.17,184.22L113.46,185.48L113.49,185.63L113.44,186.89L113.04,187.86L112.32,188.43L111.70,188.68"/><path d="M110.02,186.14L110.37,186.10L110.64,185.89L110.79,185.53L110.80,185.06L110.69,184.53L110.45,184.00L110.11,183.53L109.72,183.17L109.30,182.95L108.92,182.91L108.60,183.03L108.40,183.31"/><path d="M109.16,187.96L109.01,187.82"/><path d="M119.36,192.76L119.74,190.67L119.68,188.54L119.10,185.66L118.04,182.71L116.55,179.85L114.72,177.23L112.63,174.97L110.49,173.26"/><path d="M119.47,192.79L119.76,191.23L119.74,190.67"/><path d="M122.06,194.31L121.59,195.98L120.83,197.55L120.10,198.49"/></g><g style="stroke:#000000;stroke-width:0.529"><path d="M124.68,194.86L124.35,195.55L123.40,196.77L122.24,197.70L120.89,198.33L120.79,198.36L120.10,198.49L119.89,198.77L118.65,199.76L117.30,200.38L115.81,200.67L114.18,200.63L112.47,200.27L110.70,199.58L108.90,198.58L107.13,197.29L105.41,195.75L103.77,193.98L102.25,192.01L100.88,189.89L99.69,187.67L98.70,185.37L97.94,183.06L97.41,180.78L97.13,178.57L97.10,176.48L97.33,174.55L97.81,172.83L98.53,171.35L99.48,170.12L100.65,169.18L101.99,168.56L102.09,168.53L102.79,168.39L103.00,168.12L104.23,167.13L105.57,166.51L107.08,166.21L108.70,166.25L110.42,166.62L112.18,167.31L113.98,168.31L115.75,169.59L117.48,171.14L119.11,172.91L120.63,174.87L121.98,176.95L123.19,179.22L124.18,181.51L124.95,183.82L125.47,186.11L125.75,188.31L125.78,190.41L125.55,192.33L125.09,193.97"/></g></g><g id="Actor_.35"><g style="stroke:#000000;stroke-width:0.176"><path d="M186.53,77.25L186.01,77.13L185.39,77.28L184.76,77.69L184.17,78.30L183.69,79.06L183.37,79.88L183.25,80.67L183.34,81.35L183.63,81.85"/></g><g style="stroke:#000000;stroke-width:0.529"><path d="M186.98,77.85L186.90,77.63L186.53,77.25L186.14,77.03L185.62,76.91L185.01,77.06L184.37,77.47L183.93,77.93L183.79,78.08L183.31,78.84L182.99,79.66L182.88,80.39L182.87,80.45L182.95,81.13L183.24,81.62L183.63,81.85L184.08,82.10L184.57,82.08"/></g></g><g id="Actor_.36"><g style="stroke:#000000;stroke-width:0.176"><path d="M115.70,112.14L115.71,112.03L115.80,111.66L115.80,112.88"/><path d="M115.80,111.46L115.80,111.66"/><path d="M119.14,113.37L118.87,113.65L118.47,113.95L118.06,114.12L117.70,114.15L117.38,114.05L117.13,113.82L116.98,113.47L116.92,113.05L116.98,112.55L117.08,112.19"/><path d="M116.80,112.03L116.89,112.54L116.92,113.05L116.89,113.50L116.79,114.00"/></g><g style="stroke:#000000;stroke-width:0.529"><path d="M115.70,112.14L115.69,112.34L115.71,112.62L115.80,112.88L115.80,113.44L116.79,114.00L117.31,114.10L117.70,114.15L118.02,114.17L118.33,114.15L118.86,113.69L119.14,113.37"/></g></g><g id="Actor_.37"><g style="stroke:#000000;stroke-width:0.176"><path d="M109.48,130.49L110.55,131.10L110.17,130.99L110.09,130.95"/><path d="M113.88,128.33L113.70,128.58L113.55,128.87L113.63,128.55L113.55,128.22L113.33,127.91L112.99,127.66L112.54,127.46L112.01,127.33L111.43,127.29L110.88,127.33L110.36,127.46L109.90,127.66L109.55,127.92L109.33,128.22L109.26,128.54L109.33,128.86L109.55,129.17L109.90,129.43L110.31,129.70L110.79,130.10L110.79,131.24L112.87,130.92"/><path d="M110.79,130.10L111.45,129.87L112.01,129.75L112.57,129.70L113.22,129.73L113.40,129.22L113.55,128.87L113.34,129.17L112.99,129.43L112.53,129.63L112.01,129.75L111.45,129.80L110.88,129.75L110.34,129.63L109.90,129.43L109.48,129.23L109.01,129.08"/><path d="M112.80,130.95L112.24,131.14L111.53,131.23L111.08,131.19"/><path d="M110.79,131.24L110.55,131.10"/><path d="M113.22,130.86L113.22,129.73"/><path d="M113.39,130.51L113.59,130.08"/></g><g style="stroke:#000000;stroke-width:0.529"><path d="M112.80,130.95L112.85,130.93L112.87,130.92L113.22,130.86L113.39,130.51L113.58,130.23L113.59,130.08L113.88,129.47L113.88,128.33L113.39,127.93L112.99,127.66L112.58,127.46L112.09,127.31L111.43,127.28L110.88,127.33L110.32,127.45L109.66,127.68L109.48,127.93L109.33,128.22L109.18,128.57L109.01,129.08L109.01,130.21L109.48,130.49L109.66,130.70L109.90,130.86L110.09,130.95"/></g></g><g id="Actor_.38"><g style="stroke:#000000;stroke-width:0.176"><path d="M197.42,135.34L197.73,135.43L198.00,135.38L198.20,135.20L198.30,134.91L198.30,134.54L198.20,134.13L198.00,133.72L197.73,133.36L197.42,133.10L197.11,132.94L196.81,132.92L196.58,133.04L196.42,133.28L196.37,133.61"/><path d="M196.62,132.72L196.90,132.58L197.25,132.60L197.63,132.78L198.00,133.10L198.31,133.53L198.55,134.01L198.67,134.50L198.67,134.94L198.55,135.29L198.31,135.50"/></g><g style="stroke:#000000;stroke-width:0.529"><path d="M199.42,134.87L198.31,135.50L198.00,135.56L197.63,135.46L197.42,135.34L197.11,135.13L196.81,134.81L196.58,134.42L196.42,134.01L196.37,133.61L196.37,133.40L196.43,133.00L196.62,132.72L197.72,132.08"/><path d="M202.70,129.22L201.36,129.99"/><path d="M204.31,132.05L202.98,132.82"/></g></g><g id="Actor_.39"><g style="stroke:#000000;stroke-width:0.176"><path d="M183.27,73.38L183.27,73.28L183.37,72.90L183.37,74.13"/><path d="M183.37,72.71L183.37,72.90"/><path d="M184.65,73.44L184.54,73.80L184.49,74.29L184.54,74.72L184.69,75.07L184.94,75.30L185.26,75.40L185.63,75.37L186.03,75.20L186.44,74.90L186.70,74.62"/><path d="M184.35,75.25L184.46,74.75L184.49,74.29L184.46,73.79L184.37,73.28"/></g><g style="stroke:#000000;stroke-width:0.529"><path d="M183.27,73.38L183.25,73.58L183.27,73.87L183.37,74.13L183.37,74.68L184.35,75.25L184.87,75.35L185.26,75.40L185.58,75.42L185.89,75.39L186.42,74.94L186.70,74.62"/></g></g><g id="Actor_.40"><g style="stroke:#000000;stroke-width:0.176"><path d="M89.74,127.83L89.74,126.60L89.65,126.98L89.64,127.08"/><path d="M90.73,128.95L90.83,128.45L90.86,127.99L90.92,128.42L91.07,128.77L91.32,129.00L91.64,129.10L92.00,129.07L92.41,128.90L92.81,128.60L93.08,128.32"/><path d="M91.02,127.14L90.92,127.50L90.86,127.99L90.83,127.49L90.74,126.98"/><path d="M89.74,126.41L89.74,126.60"/></g><g style="stroke:#000000;stroke-width:0.529"><path d="M93.08,128.32L92.80,128.64L92.27,129.09L91.96,129.12L91.64,129.10L91.25,129.05L90.73,128.95L89.74,128.38L89.74,127.83L89.65,127.57L89.63,127.28L89.64,127.08"/></g></g><g id="Actor_.41"><g style="stroke:#000000;stroke-width:0.176"><path d="M103.64,188.95L103.96,189.10L104.25,189.12L104.49,189.00L104.64,188.77L104.69,188.43L104.64,188.03L104.49,187.62L104.25,187.23L103.96,186.92L103.64,186.70L103.33,186.62L103.06,186.67L102.87,186.85L102.76,187.14"/><path d="M103.12,186.33L103.44,186.27L103.81,186.37L104.19,186.63L104.54,187.01L104.82,187.47L105.00,187.96L105.06,188.43L105.00,188.83L104.82,189.11"/></g><g style="stroke:#000000;stroke-width:0.529"><path d="M105.90,188.50L104.82,189.11L104.54,189.25L104.19,189.23L103.81,189.05L103.64,188.95L103.33,188.68L103.06,188.32L102.87,187.92L102.76,187.51L102.76,187.14L102.76,186.89L102.89,186.54L103.12,186.33L104.20,185.71"/><path d="M107.73,183.69L109.07,182.92"/><path d="M109.35,186.52L110.69,185.75"/></g></g><g id="Actor_.42"><g style="stroke:#000000;stroke-width:0.176"><path d="M209.69,66.90L209.40,66.41L209.31,65.73L209.43,64.93L209.75,64.11L209.85,63.96L210.23,63.36L210.82,62.74L211.45,62.34L212.07,62.19L212.59,62.31"/></g><g style="stroke:#000000;stroke-width:0.529"><path d="M213.04,62.91L212.96,62.68L212.59,62.31L212.20,62.08L211.68,61.96L211.07,62.12L210.43,62.52L210.08,62.89L209.85,63.13L209.37,63.89L209.05,64.71L209.00,65.03L208.93,65.50L209.01,66.18L209.30,66.68L209.69,66.90L210.14,67.15L210.63,67.14"/></g></g><g id="Actor_.43"><g style="stroke:#000000;stroke-width:0.176"><path d="M145.48,178.04L145.24,179.07L144.22,180.85L142.78,182.07L140.98,182.66L138.91,182.59L136.68,181.87L134.40,180.53L132.18,178.63L130.14,176.29L128.38,173.60L126.98,170.71L126.02,167.77L125.54,164.91L125.56,162.29L126.10,160.02L127.11,158.24L128.56,157.02L130.36,156.44L132.43,156.51L134.65,157.23L135.22,157.56L133.13,156.88L131.17,156.82L129.46,157.37L128.09,158.53L127.13,160.22L126.62,162.36L126.59,164.85L127.05,167.56L127.96,170.35L128.82,172.12"/><path d="M128.81,153.45L129.27,153.33L130.86,153.29L130.95,153.30L132.64,153.58L134.39,154.19L136.23,155.15L138.00,156.35L139.72,157.83L141.37,159.53L142.91,161.44L144.30,163.51L145.53,165.70L146.56,167.96L147.37,170.26L147.95,172.53L148.29,174.74L148.38,176.84L148.36,177.12"/><path d="M129.99,174.16L130.96,175.63L132.90,177.86L135.00,179.65L137.16,180.92L139.27,181.61L141.23,181.67L142.94,181.11L144.31,179.96L145.27,178.27L145.32,178.04"/><path d="M132.46,167.34L132.46,167.10L132.76,166.04L133.40,165.34L134.30,165.10L134.90,165.23L135.36,165.33L136.47,166.00L137.51,167.05L138.37,168.37L138.95,169.80L139.19,171.19L139.06,172.40L138.58,173.29L137.81,173.77L136.81,173.78L135.71,173.32L135.52,173.21L136.56,173.64L137.50,173.63L138.23,173.18L138.68,172.35L138.76,171.62L138.80,171.21L138.57,169.89L138.03,168.54L137.22,167.30L136.24,166.31L135.19,165.67L134.19,165.46L133.34,165.69L132.74,166.34L132.46,167.34L132.50,168.39"/><path d="M133.40,165.34L133.78,165.12L134.68,164.88L135.74,165.10L136.86,165.78L137.90,166.83L138.75,168.15L139.33,169.58L139.57,170.97L139.45,172.18L138.97,173.07L138.19,173.55L137.83,173.76"/><path d="M136.11,171.18L136.36,171.17L136.65,171.00L136.83,170.67L136.87,170.22L136.78,169.70L136.57,169.17L136.25,168.68L135.90,168.32L135.86,168.29L135.45,168.04L135.06,167.95L134.72,168.04L134.49,168.30L134.47,168.35"/><path d="M135.52,173.21L135.08,172.85"/><path d="M145.71,177.08L145.77,176.81L145.80,174.17L145.32,171.33L144.36,168.38L142.96,165.49L141.19,162.81L139.15,160.46L136.93,158.57L135.22,157.56"/><path d="M148.28,178.07L148.21,178.88L147.79,180.65L147.13,182.18L147.09,182.27L146.20,183.54"/><path d="M145.78,175.89L145.78,176.13L145.55,177.08"/><path d="M145.79,174.82L145.80,174.17"/></g><g style="stroke:#000000;stroke-width:0.529"><path d="M151.41,178.11L151.27,178.71L150.60,180.27L149.71,181.56L148.59,182.56L147.29,183.26L147.19,183.29L146.20,183.54L145.01,184.62L143.71,185.31L142.24,185.69L140.63,185.73L138.94,185.44L137.19,184.82L135.39,183.89L133.61,182.68L131.87,181.20L130.21,179.47L129.04,178.02L128.66,177.55L127.26,175.47L126.02,173.26L124.98,170.98L124.16,168.67L123.57,166.38L123.23,164.15L123.15,162.03L123.32,160.05L123.74,158.28L124.40,156.73L125.30,155.44L126.42,154.42L127.72,153.73L127.81,153.70L128.80,153.45L129.91,152.44L130.00,152.37L131.30,151.68L132.77,151.31L134.36,151.27L136.06,151.56L137.82,152.17L139.60,153.09L141.39,154.31L143.13,155.80L144.79,157.52L146.34,159.44L147.75,161.52L148.98,163.73L150.02,166.01L150.84,168.32L151.43,170.62L151.77,172.84L151.86,174.97L151.69,176.94L151.64,177.16"/></g></g><g id="Actor_.44"><g style="stroke:#000000;stroke-width:0.176"><path d="M118.96,116.01L118.44,115.89L117.83,116.04L117.20,116.44L116.61,117.06L116.13,117.81L115.81,118.63L115.69,119.39L115.69,119.43L115.78,120.11L116.06,120.60"/></g><g style="stroke:#000000;stroke-width:0.529"><path d="M117.01,120.84L116.52,120.85L116.06,120.60L115.68,120.38L115.39,119.88L115.30,119.21L115.43,118.41L115.74,117.59L116.22,116.83L116.45,116.60L116.81,116.22L117.45,115.82L118.06,115.66L118.58,115.78L118.96,116.01L119.34,116.38L119.41,116.61"/></g></g><g id="Actor_.45"><g style="stroke:#000000;stroke-width:0.176"><path d="M201.72,71.59L201.24,71.75L200.84,71.95L201.18,71.69L201.39,71.38L201.46,71.05L201.38,70.73L201.16,70.44L200.80,70.18L200.34,69.98L199.81,69.86L199.25,69.82L198.68,69.87L198.15,70.00L197.71,70.20L197.37,70.46L197.16,70.76L197.09,71.09L197.17,71.41L197.39,71.71L197.75,71.97L198.21,72.17L198.74,72.29L198.18,72.24L197.51,72.27L197.51,73.41"/><path d="M197.10,72.57L197.36,73.09"/><path d="M197.51,72.27L197.33,71.77L197.17,71.41L197.01,71.12L196.83,70.88"/><path d="M198.71,73.58L197.91,73.46L198.29,73.62L198.97,73.75L199.69,73.73L199.72,73.73L198.71,73.58"/><path d="M197.91,73.46L197.91,73.46"/><path d="M199.72,73.73L199.96,73.76L201.30,72.97"/><path d="M199.29,72.33L198.74,72.29L199.30,72.40L199.96,72.63L200.43,72.22L200.84,71.95L200.40,72.15L199.87,72.28L199.29,72.33"/><path d="M199.96,73.76L199.96,72.63"/><path d="M200.19,73.63L200.36,73.59L200.63,73.46"/></g><g style="stroke:#000000;stroke-width:0.529"><path d="M200.63,73.46L200.92,73.33L201.30,72.98L201.30,72.97L201.72,72.73L201.72,71.59L201.53,71.09L201.38,70.73L201.22,70.45L201.03,70.20L200.37,69.98L199.81,69.86L199.25,69.81L198.59,69.84L198.11,70.00L197.71,70.20L197.31,70.47L196.83,70.88L196.83,72.01L197.10,72.57L197.10,72.64L197.17,72.84L197.30,73.04L197.36,73.09L197.51,73.41L197.91,73.46"/><path d="M197.91,75.22L197.91,74.29"/></g></g><g id="Actor_.46"><g style="stroke:#000000;stroke-width:0.176"><path d="M129.95,112.16L129.95,111.02L129.77,110.52L129.61,110.17L129.83,110.46L130.19,110.72L130.65,110.92L131.17,111.04L131.73,111.08L132.30,111.03L132.83,110.90L133.27,110.70L133.61,110.44L133.83,110.14L133.89,109.81L133.81,109.49L133.59,109.19L133.24,108.93L132.77,108.73L132.25,108.61L131.69,108.57L131.12,108.62L130.59,108.75L130.15,108.95L129.81,109.21L129.60,109.51L129.53,109.84L129.61,110.17L129.45,109.88L129.27,109.63"/><path d="M129.95,111.02L130.61,110.99L131.17,111.04L131.73,111.16L132.39,111.38L132.39,112.52L133.73,111.73"/><path d="M129.79,111.84L129.54,111.32"/><path d="M131.17,112.34L132.16,112.48L132.13,112.49L131.41,112.50L130.72,112.37L130.35,112.22L131.17,112.34"/><path d="M130.35,112.22L130.35,112.22"/><path d="M132.39,112.52L132.16,112.48"/><path d="M132.39,111.38L132.87,110.97L133.27,110.70L133.68,110.50L134.15,110.34"/><path d="M133.07,112.22L132.80,112.34L132.62,112.38"/></g><g style="stroke:#000000;stroke-width:0.529"><path d="M133.07,112.22L133.36,112.08L133.73,111.73L133.73,111.73L134.15,111.48L134.15,110.34L133.97,109.84L133.81,109.49L133.66,109.20L133.47,108.95L132.81,108.73L132.25,108.61L131.69,108.57L131.03,108.59L130.55,108.75L130.15,108.95L129.75,109.22L129.27,109.63L129.27,110.77L129.54,111.32L129.54,111.39L129.61,111.60L129.73,111.79L129.79,111.84L129.95,112.16L130.35,112.22"/><path d="M130.35,113.04L130.35,113.98"/></g></g><g id="Actor_.47"><g style="stroke:#000000;stroke-width:0.176"><path d="M209.81,66.11L209.81,64.60L210.80,65.16L210.90,65.77L210.93,66.28L210.98,66.70L211.14,67.05L211.39,67.28L211.71,67.38L212.07,67.35L212.48,67.18L212.88,66.88L213.25,66.50L213.57,66.03L213.82,65.52L213.97,64.99L214.02,64.50L213.97,64.08L213.82,63.73L213.57,63.50L213.25,63.40L213.57,63.41L213.88,63.39"/><path d="M209.81,64.89L209.72,65.26L209.71,65.37"/><path d="M211.13,62.96L210.00,64.37L210.20,63.96L210.62,63.40L211.07,63.01"/><path d="M210.00,64.37L209.81,64.60"/><path d="M210.80,67.23L210.90,66.73L210.93,66.28L210.99,65.78L211.14,65.26L211.39,64.74L211.71,64.28L211.32,64.70L210.80,65.16"/><path d="M211.36,62.68L212.34,63.24L212.03,63.83L211.71,64.28L212.07,63.90L212.48,63.60L212.88,63.43L213.25,63.40L212.87,63.35L212.34,63.24"/><path d="M211.76,62.72L212.22,62.76"/></g><g style="stroke:#000000;stroke-width:0.529"><path d="M209.01,64.96L207.93,64.35"/><path d="M209.71,65.37L209.70,65.57L209.72,65.85L209.81,66.11L209.81,66.67L210.80,67.23L211.32,67.33L211.71,67.38L212.03,67.40L212.34,67.38L212.87,66.92L213.25,66.50L213.57,66.04L213.88,65.46L213.99,64.96L214.02,64.50L213.99,64.01L213.88,63.39L212.90,62.83L212.22,62.76L212.09,62.70L211.76,62.72L211.36,62.68L211.13,62.96L211.11,62.97L211.07,63.01"/></g></g><g id="Actor_.48"><g style="stroke:#000000;stroke-width:0.176"><path d="M201.98,72.31L201.95,72.83L201.62,73.31L201.25,73.55L201.04,73.70L200.27,73.96L199.39,74.07L198.50,74.01L197.69,73.78L197.29,73.55L197.05,73.41L196.66,72.95L196.55,72.44"/></g><g style="stroke:#000000;stroke-width:0.529"><path d="M201.72,71.81L201.73,71.82L201.98,72.31L201.98,72.76L201.95,73.27L201.62,73.75L201.04,74.15L200.49,74.33L200.27,74.41L199.39,74.52L198.50,74.45L198.19,74.37L197.69,74.23L197.05,73.86L196.66,73.40L196.55,72.89L196.55,72.44L196.73,71.94L196.83,71.84"/></g></g><g id="Actor_.49"><g style="stroke:#000000;stroke-width:0.176"><path d="M102.92,126.14L103.03,126.65L103.43,127.11L104.06,127.48L104.87,127.71L105.76,127.77L106.64,127.66L107.41,127.40L108.00,127.01L108.32,126.53L108.36,126.01"/></g><g style="stroke:#000000;stroke-width:0.529"><path d="M108.09,125.51L108.10,125.52L108.36,126.01L108.36,126.46L108.32,126.97L108.00,127.45L107.41,127.85L106.64,128.11L105.76,128.22L104.87,128.15L104.70,128.10L104.06,127.93L103.43,127.56L103.03,127.10L102.92,126.59L102.92,126.14L103.11,125.64L103.21,125.54"/></g></g><g id="Actor_.50"><g style="stroke:#000000;stroke-width:0.176"><path d="M223.42,58.14L223.16,57.62"/><path d="M222.89,55.93L223.07,56.18L223.23,56.47L223.45,56.76L223.81,57.02L224.27,57.22L224.80,57.34L224.24,57.29L223.57,57.32L223.39,56.82L223.23,56.47L223.15,56.14L223.22,55.81L223.43,55.51L223.77,55.25L224.21,55.05L224.74,54.92L225.31,54.87L225.87,54.91L226.40,55.03L226.86,55.23L227.22,55.49L227.44,55.79L227.52,56.11L227.45,56.43L227.24,56.74L226.90,57.00L227.30,56.80L227.78,56.64"/><path d="M224.35,58.67L223.97,58.52L225.78,58.78L225.75,58.79L225.03,58.80L224.35,58.67"/><path d="M223.57,57.32L223.57,58.46"/><path d="M223.97,58.52L223.97,58.52"/><path d="M226.02,57.68L225.36,57.46L224.80,57.34L225.36,57.38L225.93,57.33L226.46,57.20L226.90,57.00L226.49,57.27L226.02,57.68L226.02,58.82L225.78,58.78"/><path d="M226.02,58.82L227.36,58.03"/><path d="M226.25,58.68L226.42,58.64L226.69,58.52"/></g><g style="stroke:#000000;stroke-width:0.529"><path d="M226.69,58.52L226.98,58.38L227.36,58.03L227.36,58.03L227.78,57.78L227.78,56.64L227.59,56.14L227.44,55.79L227.28,55.50L227.09,55.25L226.43,55.03L225.87,54.91L225.31,54.87L224.65,54.89L224.17,55.05L223.77,55.25L223.37,55.52L222.89,55.93L222.89,57.07L223.16,57.62L223.16,57.69L223.23,57.90L223.36,58.09L223.42,58.14L223.57,58.46L223.97,58.52"/><path d="M223.97,59.34L223.98,60.28"/></g></g><g id="Actor_.51"><g style="stroke:#000000;stroke-width:0.176"><path d="M206.50,77.22L204.41,77.54L204.41,76.40L205.07,76.17L205.63,76.05L206.19,76.00L206.85,76.03L207.03,75.52L207.17,75.17L207.25,74.85L207.17,74.52L206.95,74.21L206.61,73.96L206.16,73.76L205.63,73.63L205.06,73.59L204.50,73.63L203.98,73.76L203.52,73.96L203.17,74.22L202.96,74.52L202.88,74.84L202.95,75.16L203.17,75.47L203.52,75.73L203.97,75.93L204.50,76.05L205.07,76.10L205.63,76.05L206.15,75.93L206.61,75.73L206.96,75.47L207.17,75.17L207.32,74.88L207.50,74.63"/><path d="M204.41,76.40L203.93,76.00L203.52,75.73L203.10,75.53L202.63,75.38"/><path d="M203.10,76.79L204.17,77.40L203.80,77.29L203.71,77.25"/><path d="M204.70,77.49L205.16,77.53L205.86,77.44L206.43,77.25"/><path d="M204.17,77.40L204.41,77.54"/><path d="M206.85,77.16L206.85,76.03"/><path d="M207.01,76.81L207.21,76.38"/></g><g style="stroke:#000000;stroke-width:0.529"><path d="M203.71,77.25L203.52,77.16L203.29,77.00L203.10,76.79L202.63,76.51L202.63,75.38L202.81,74.87L202.96,74.52L203.11,74.23L203.28,73.98L203.94,73.75L204.50,73.63L205.06,73.58L205.72,73.61L206.20,73.76L206.61,73.96L207.02,74.23L207.50,74.63L207.50,75.77L207.21,76.38L207.20,76.53L207.01,76.81L206.85,77.16L206.50,77.22L206.48,77.23L206.43,77.25"/></g></g><g id="Actor_.52"><g style="stroke:#000000;stroke-width:0.176"><path d="M103.48,126.27L103.73,126.79"/><path d="M108.09,125.29L107.62,125.45L107.21,125.65L107.55,125.39L107.77,125.08L107.83,124.75L107.75,124.43L107.53,124.14L107.18,123.88L106.71,123.68L106.19,123.56L105.63,123.52L105.06,123.57L104.53,123.70L104.09,123.90L103.75,124.16L103.54,124.46L103.47,124.79L103.55,125.11L103.71,125.47L103.89,125.97L104.55,125.94L105.11,125.99L104.59,125.87L104.13,125.67L103.77,125.41L103.55,125.11L103.39,124.83L103.21,124.58"/><path d="M103.89,127.11L103.89,125.97"/><path d="M104.29,127.16L104.66,127.32L105.35,127.45L106.07,127.43L106.10,127.43L104.29,127.16"/><path d="M105.67,126.03L105.11,125.99L105.67,126.11L106.33,126.33L106.81,125.92L107.21,125.65L106.77,125.85L106.24,125.98L105.67,126.03"/><path d="M106.10,127.43L106.33,127.46L107.67,126.67"/><path d="M107.01,127.16L106.74,127.29L106.56,127.33"/><path d="M106.33,127.46L106.33,126.33"/></g><g style="stroke:#000000;stroke-width:0.529"><path d="M107.01,127.16L107.30,127.03L107.67,126.68L107.67,126.67L108.09,126.43L108.09,125.29L107.91,124.79L107.75,124.43L107.60,124.15L107.41,123.90L106.75,123.68L106.19,123.56L105.63,123.51L104.97,123.54L104.49,123.70L104.09,123.90L103.69,124.17L103.21,124.58L103.21,125.71L103.48,126.27L103.48,126.34L103.55,126.54L103.67,126.74L103.73,126.79L103.89,127.11L104.29,127.16"/><path d="M104.29,127.99L104.29,128.92"/></g></g><g id="Actor_.53"><g style="stroke:#000000;stroke-width:0.176"><path d="M229.16,61.84L230.23,62.45L229.86,62.35L229.77,62.30"/><path d="M229.69,60.83L229.58,60.78L229.99,61.05L230.47,61.45L231.13,61.23L231.69,61.10L231.13,61.15L230.56,61.10L230.03,60.98L229.69,60.83"/><path d="M233.56,59.68L233.38,59.93L233.23,60.22L233.31,59.90L233.23,59.57L233.01,59.27L232.67,59.01L232.22,58.81L231.69,58.68L231.12,58.64L230.56,58.68L230.04,58.81L229.58,59.01L229.23,59.27L229.02,59.57L228.94,59.89L229.01,60.22L229.23,60.52L229.58,60.78L229.16,60.58L228.69,60.43"/><path d="M230.23,62.45L230.47,62.59L230.76,62.55L231.22,62.58L231.92,62.49L232.49,62.30"/><path d="M230.76,62.55L232.56,62.27"/><path d="M230.47,62.59L230.47,61.45"/><path d="M232.91,61.08L233.09,60.57L233.23,60.22L233.02,60.52L232.67,60.78L232.21,60.98L231.69,61.10L232.25,61.05L232.91,61.08L232.91,62.21"/><path d="M233.07,61.86L233.27,61.43"/></g><g style="stroke:#000000;stroke-width:0.529"><path d="M232.49,62.30L232.54,62.28L232.56,62.27L232.91,62.21L233.07,61.86L233.26,61.58L233.27,61.43L233.56,60.82L233.56,59.68L233.08,59.28L232.67,59.01L232.26,58.81L231.78,58.66L231.12,58.63L230.56,58.68L230.00,58.81L229.34,59.03L229.17,59.29L229.02,59.57L228.87,59.92L228.69,60.43L228.69,61.57L229.16,61.84L229.35,62.05L229.58,62.21L229.77,62.30"/></g></g><g id="Actor_.54"><g style="stroke:#000000;stroke-width:0.176"><path d="M92.90,130.95L92.38,130.83L91.77,130.98L91.14,131.39L90.55,132.00L90.07,132.76L89.75,133.58L89.64,134.31L89.63,134.37L89.72,135.05L90.00,135.55"/></g><g style="stroke:#000000;stroke-width:0.529"><path d="M90.95,135.78L90.46,135.80L90.00,135.55L89.62,135.32L89.33,134.83L89.24,134.15L89.36,133.36L89.68,132.54L90.16,131.78L90.61,131.31L90.75,131.17L91.39,130.76L92.00,130.61L92.52,130.73L92.90,130.95L93.28,131.33L93.35,131.55"/></g></g><g id="Actor_.55"><g style="stroke:#000000;stroke-width:0.176"><path d="M135.54,115.54L136.61,116.15L136.23,116.05L136.15,116.00"/><path d="M136.61,116.15L136.85,116.29L136.85,115.15L137.51,114.93L138.07,114.81L138.63,114.75L139.29,114.78L139.46,114.28L139.61,113.92L139.69,113.60L139.61,113.27L139.39,112.97L139.05,112.71L138.60,112.51L138.07,112.39L137.50,112.34L136.94,112.39L136.42,112.51L135.96,112.71L135.61,112.97L135.39,113.27L135.32,113.59L135.39,113.92L135.61,114.22L135.96,114.48L136.40,114.68L136.94,114.81L137.51,114.85L138.07,114.81L138.59,114.68L139.05,114.48L139.40,114.22L139.61,113.92L139.76,113.63L139.94,113.38"/><path d="M136.85,115.15L136.37,114.75L135.96,114.48L135.54,114.28L135.07,114.13"/><path d="M138.93,115.97L137.14,116.25L137.59,116.28L138.30,116.19L138.86,116.00"/><path d="M137.14,116.25L136.85,116.29"/><path d="M139.29,115.92L139.29,114.78"/><path d="M139.65,115.13L139.45,115.56"/></g><g style="stroke:#000000;stroke-width:0.529"><path d="M136.15,116.00L135.96,115.91L135.72,115.75L135.54,115.54L135.07,115.27L135.07,114.13L135.24,113.62L135.39,113.27L135.54,112.99L135.72,112.73L136.38,112.51L136.94,112.39L137.49,112.33L138.15,112.36L138.64,112.51L139.05,112.71L139.45,112.98L139.94,113.38L139.94,114.52L139.65,115.13L139.64,115.28L139.45,115.56L139.29,115.92L138.93,115.97L138.91,115.98L138.86,116.00"/></g></g><g id="Actor_.56"><g style="stroke:#000000;stroke-width:0.176"><path d="M42.60,149.82L41.01,148.90L41.22,148.14L41.47,147.54L41.78,146.98L42.24,146.36L43.40,147.02"/><path d="M41.01,148.90L41.09,149.29L41.23,149.67L41.38,149.95"/><path d="M43.40,145.74L43.07,145.85L42.65,146.06L42.24,146.36"/></g><g style="stroke:#000000;stroke-width:0.529"><path d="M43.40,145.48L43.33,145.45L42.86,145.37L42.76,145.38L42.22,145.53L42.15,145.57L41.62,145.93L41.13,146.46L40.74,147.10L40.49,147.79L40.41,148.45L40.41,148.52L40.50,149.10L40.54,149.18L40.81,149.60L40.89,149.67L41.38,149.95L41.44,150.08L41.77,150.61L42.64,151.11"/></g></g><g id="Actor_.57"><g style="stroke:#000000;stroke-width:0.176"><path d="M43.40,153.57L43.07,153.68L42.65,153.89L42.24,154.18L41.78,154.80L41.47,155.37L41.22,155.97L41.01,156.73L41.09,157.12L41.23,157.49L41.38,157.78"/><path d="M41.01,156.73L42.60,157.64"/><path d="M42.24,154.18L43.40,154.85"/></g><g style="stroke:#000000;stroke-width:0.529"><path d="M43.40,153.30L43.33,153.28L42.86,153.20L42.76,153.20L42.22,153.36L42.15,153.40L41.62,153.76L41.13,154.28L40.74,154.93L40.49,155.61L40.41,156.27L40.41,156.35L40.50,156.93L40.54,157.01L40.81,157.43L40.89,157.50L41.38,157.78L41.44,157.91L41.77,158.44L42.64,158.94"/></g></g><g id="Actor_.58"><g style="stroke:#000000;stroke-width:0.176"><path d="M111.10,107.38L112.18,107.36L113.37,107.83L135.57,120.56L135.92,120.71L136.32,120.78L136.75,120.78L137.16,120.71L137.50,120.56L147.15,115.03L147.40,114.83L147.54,114.60"/><path d="M123.02,115.60L113.37,110.07L112.78,109.83L112.24,109.84L111.81,110.09L111.54,110.56L111.44,111.19L111.44,123.33"/><path d="M115.50,120.07L114.78,120.27L113.30,120.21L113.06,120.08L112.91,119.83L112.85,119.48L112.89,119.15"/><path d="M120.27,114.02L120.24,114.04L118.67,115.84"/><path d="M121.57,114.77L121.56,114.87L121.40,115.30L121.16,115.70L120.08,116.99"/><path d="M129.18,112.26L128.65,112.77L127.96,114.06L127.95,114.33L128.09,114.59L128.36,114.81L128.70,114.96"/><path d="M133.98,109.87L135.82,109.55L136.29,109.55L136.74,109.63L137.12,109.78L137.41,110.00L137.56,110.25L137.57,110.52L137.43,110.78L137.16,111.00L136.78,111.16L134.41,111.62"/></g><g style="stroke:#000000;stroke-width:0.529"><path d="M123.02,115.60L135.57,122.80L135.92,122.94L136.32,123.02L136.75,123.02L137.16,122.94L137.50,122.80L147.15,117.26L147.40,117.06L147.54,116.83L147.54,114.35L147.40,114.12L147.15,113.92L124.95,101.19L123.76,100.72L122.68,100.74L111.10,107.38L110.25,107.88L109.70,108.81L109.51,110.09L109.51,122.22"/><path d="M115.81,117.49L114.22,117.50L113.89,117.63L113.57,117.89L113.27,118.24L113.04,118.65L112.90,119.07L112.89,119.15L114.47,118.70L114.96,118.42"/><path d="M123.02,115.60L123.02,118.44L121.22,120.57L119.26,122.36L117.23,123.75L115.20,124.69L114.21,124.92"/><path d="M131.57,113.25L130.76,114.62L130.48,114.83L130.09,114.98L129.65,115.06L129.18,115.06L128.73,114.97L128.70,114.96L129.86,113.84L130.35,113.56"/></g></g><g id="Actor_.59"><g style="stroke:#000000;stroke-width:0.176"><path d="M205.07,69.63L205.07,57.49L205.16,56.86L205.43,56.39L205.86,56.14L206.40,56.13L207.00,56.37L216.65,61.90"/><path d="M204.73,53.68L205.80,53.66L207.00,54.13L229.19,66.86L229.54,67.01L229.95,67.08L230.37,67.08L230.78,67.01L231.13,66.86L240.78,61.33L241.03,61.13L241.16,60.89"/><path d="M209.12,66.37L208.40,66.57L206.93,66.51L206.69,66.38L206.53,66.13L206.47,65.78L206.51,65.45"/><path d="M213.89,60.32L213.87,60.34L212.30,62.14"/><path d="M213.70,63.29L214.79,62.00L215.03,61.59L215.18,61.17L215.20,61.07"/><path d="M222.81,58.55L222.27,59.07L221.58,60.36L221.57,60.63L221.71,60.89L221.98,61.11L222.32,61.26"/><path d="M228.04,57.92L230.41,57.46L230.78,57.30L231.05,57.08L231.19,56.82L231.18,56.55L231.03,56.30L230.75,56.08L230.36,55.93L229.91,55.85L229.44,55.85L227.61,56.17"/></g><g style="stroke:#000000;stroke-width:0.529"><path d="M216.65,61.90L229.19,69.10L229.54,69.24L229.95,69.32L230.37,69.32L230.78,69.24L231.13,69.10L240.78,63.56L241.03,63.36L241.16,63.13L241.16,60.65L241.03,60.42L240.78,60.22L218.58,47.49L217.38,47.02L216.31,47.04L204.73,53.68L203.87,54.18L203.32,55.11L203.13,56.39L203.13,68.52"/><path d="M208.58,64.72L208.09,65.00L206.51,65.45L206.52,65.37L206.66,64.94L206.90,64.54L207.19,64.19L207.52,63.93L207.85,63.80L209.43,63.79"/><path d="M207.83,71.22L208.83,70.99L210.86,70.05L212.89,68.66L214.84,66.87L216.65,64.74L216.65,61.90"/><path d="M223.97,59.86L223.49,60.14L222.32,61.26L222.36,61.27L222.80,61.36L223.27,61.36L223.72,61.28L224.10,61.13L224.39,60.91L225.20,59.55"/></g></g><g id="Actor_.60"><g style="stroke:#000000;stroke-width:0.176"><path d="M190.59,76.85L180.94,71.31L180.34,71.08L179.80,71.09L179.37,71.34L179.10,71.81L179.01,72.44L179.01,86.33"/><path d="M178.67,68.63L179.74,68.61L180.94,69.08L203.13,81.81L203.48,81.95L203.89,82.03L204.31,82.03L204.72,81.95L205.07,81.81L214.72,76.27L214.97,76.08L215.10,75.84"/><path d="M183.06,81.31L182.34,81.52L180.87,81.46L180.63,81.33L180.47,81.08L180.41,80.73L180.45,80.40"/><path d="M187.83,75.27L187.81,75.29L186.24,77.09"/><path d="M187.64,78.24L188.73,76.95L188.97,76.54L189.12,76.11L189.14,76.02"/><path d="M196.26,76.20L195.92,76.06L195.65,75.84L195.51,75.58L195.52,75.31L196.21,74.01L196.75,73.50"/><path d="M201.98,72.87L204.35,72.41L204.72,72.25L204.99,72.02L205.13,71.77L205.12,71.50L204.97,71.24L204.69,71.03L204.30,70.87L203.85,70.79L203.38,70.80L201.55,71.12"/></g><g style="stroke:#000000;stroke-width:0.529"><path d="M190.59,76.85L190.59,79.69L188.78,81.81L186.83,83.61L184.80,85.00L182.77,85.93L180.81,86.38L179.01,86.33L177.07,85.22L177.07,71.33L177.26,70.06L177.81,69.13L178.67,68.63L190.25,61.99L191.32,61.97L192.52,62.43L214.72,75.17L214.97,75.36L215.10,75.60L215.10,78.08L214.97,78.31L214.72,78.51L205.07,84.05L204.72,84.19L204.31,84.27L203.89,84.27L203.48,84.19L203.13,84.05L190.59,76.85"/><path d="M182.52,79.67L182.03,79.95L180.45,80.40L180.46,80.32L180.60,79.89L180.84,79.48L181.13,79.13L181.46,78.88L181.78,78.74L183.37,78.74"/><path d="M197.91,74.81L197.43,75.09L196.26,76.20L196.30,76.22L196.74,76.31L197.21,76.31L197.66,76.23L198.04,76.08L198.33,75.86L199.14,74.50"/></g></g><g id="Actor_.61"><g style="stroke:#000000;stroke-width:0.176"><path d="M85.38,140.03L85.38,126.14L85.48,125.51L85.75,125.04L86.18,124.79L86.72,124.78L87.31,125.01L96.96,130.55"/><path d="M121.48,129.54L121.34,129.78L121.09,129.97L111.44,135.51L111.10,135.65L110.69,135.73L110.26,135.73L109.86,135.65L109.51,135.51L87.31,122.78L86.12,122.31L85.04,122.33"/><path d="M89.44,135.01L88.72,135.22L87.24,135.16L87.00,135.03L86.85,134.78L86.79,134.43L86.83,134.10"/><path d="M94.21,128.97L94.18,128.99L92.61,130.79"/><path d="M95.51,129.72L95.50,129.81L95.34,130.24L95.10,130.65L94.02,131.94"/><path d="M103.12,127.20L102.59,127.71L101.90,129.01L101.89,129.28L102.03,129.54L102.30,129.76L102.64,129.90"/><path d="M108.35,126.57L110.72,126.11L111.10,125.95L111.37,125.73L111.51,125.47L111.50,125.20L111.35,124.94L111.06,124.73L110.68,124.57L110.23,124.49L109.76,124.50L107.92,124.82"/></g><g style="stroke:#000000;stroke-width:0.529"><path d="M96.96,130.55L96.96,133.39L95.16,135.51L93.20,137.31L91.17,138.70L89.14,139.64L87.19,140.08L85.38,140.03L83.45,138.92L83.45,125.03L83.64,123.76L84.19,122.83L85.04,122.33L96.62,115.69L97.70,115.67L98.89,116.13L121.09,128.87L121.34,129.06L121.48,129.30L121.48,131.78L121.34,132.01L121.09,132.21L111.44,137.75L111.10,137.89L110.69,137.97L110.26,137.97L109.86,137.89L109.51,137.75L96.96,130.55"/><path d="M89.75,132.44L88.16,132.45L87.83,132.58L87.51,132.83L87.21,133.18L86.98,133.59L86.84,134.02L86.83,134.10L88.41,133.65L88.90,133.37"/><path d="M105.51,128.20L104.70,129.57L104.42,129.78L104.03,129.93L103.59,130.01L103.12,130.01L102.67,129.92L102.64,129.90L103.80,128.79L104.29,128.51"/></g></g><g id="Actor_.62"><g style="stroke:#000000;stroke-width:0.176"><path d="M42.60,141.99L41.01,141.07L41.09,141.47L41.23,141.84L41.38,142.13"/><path d="M43.85,139.46L42.24,138.53L41.78,139.15L41.47,139.71L41.22,140.31L41.01,141.07"/><path d="M43.70,137.82L43.56,137.86L43.07,138.03L42.65,138.24L42.24,138.53"/></g><g style="stroke:#000000;stroke-width:0.529"><path d="M45.40,138.38L44.22,137.70L43.70,137.82L43.43,137.66L43.33,137.63L42.86,137.54L42.76,137.55L42.22,137.70L42.15,137.74L41.62,138.10L41.13,138.63L40.74,139.27L40.49,139.96L40.41,140.62L40.41,140.69L40.50,141.27L40.54,141.36L40.81,141.78L40.89,141.85L41.38,142.13L41.44,142.25L41.77,142.79L42.64,143.29"/></g></g><g id="Actor_.63"><g style="stroke:#000000;stroke-width:0.176"><path d="M134.42,111.06L134.38,111.58L134.06,112.06L133.48,112.45L132.70,112.72L131.82,112.82L130.93,112.76L130.12,112.53L129.49,112.17L129.09,111.70L128.98,111.19"/></g><g style="stroke:#000000;stroke-width:0.529"><path d="M129.27,110.59L129.17,110.69L128.98,111.19L128.98,111.64L129.09,112.15L129.49,112.61L130.12,112.98L130.93,113.21L131.82,113.27L132.70,113.16L133.48,112.90L134.06,112.51L134.38,112.03L134.42,111.51L134.42,111.06L134.16,110.57L134.15,110.56"/></g></g><g id="Actor_.64"><g style="stroke:#000000;stroke-width:0.176"><path d="M241.44,26.84L240.80,26.48L240.89,26.87L240.98,27.11"/><path d="M240.80,26.48L241.01,25.72L241.26,25.11L241.58,24.55L242.03,23.93L243.65,24.86"/><path d="M243.49,23.23L243.36,23.26L242.87,23.43L242.45,23.64L242.03,23.93"/></g><g style="stroke:#000000;stroke-width:0.529"><path d="M245.20,23.78L244.02,23.10L243.49,23.23L243.23,23.06L243.13,23.03L242.65,22.95L242.55,22.95L242.01,23.11L241.95,23.15L241.41,23.50L240.93,24.03L240.63,24.52L240.54,24.68L240.29,25.36L240.20,26.02L240.20,26.10L240.29,26.67L240.34,26.76L240.61,27.18L240.69,27.25L240.71,27.26"/></g></g><g id="Actor_.65"><g style="stroke:#000000;stroke-width:0.176"><path d="M247.25,37.91L247.27,37.67L247.36,37.31L247.36,38.60"/><path d="M247.36,37.31L247.36,36.92L248.81,35.13L248.28,35.58L247.80,36.22L247.62,36.61"/><path d="M247.36,36.92L248.54,37.60L249.13,37.08L249.56,36.61L249.97,36.17L250.43,35.84L250.88,35.65L251.30,35.61L251.65,35.72L251.93,35.98L252.11,36.38L252.17,36.86L252.11,37.41L251.93,38.00L251.65,38.58L251.30,39.10L250.88,39.54L250.43,39.87L249.97,40.06L249.56,40.09L249.20,39.98L248.92,39.72L248.75,39.33L248.69,38.85L248.66,38.29L248.54,37.60"/><path d="M248.54,39.92L248.66,39.36L248.69,38.85L248.75,38.29L248.93,37.70L249.21,37.13L249.56,36.61L249.92,36.09L250.27,35.44L249.10,34.77"/><path d="M248.81,35.13L248.86,35.07"/><path d="M249.61,34.81L250.06,34.86"/><path d="M249.97,34.85L249.99,34.85"/><path d="M252.01,35.61L251.66,35.63L251.30,35.61L250.87,35.55L250.27,35.44"/></g><g style="stroke:#000000;stroke-width:0.529"><path d="M248.86,35.07L249.10,34.77L249.61,34.81L249.93,34.79L250.06,34.86L250.83,34.93L252.01,35.61L252.13,36.30L252.17,36.86L252.13,37.37L252.01,37.93L251.66,38.58L251.30,39.10L250.87,39.57L250.27,40.09L249.92,40.11L249.56,40.09L249.13,40.04L248.54,39.92L247.36,39.25L247.36,38.60L247.27,38.34L247.24,38.02L247.25,37.91"/></g></g><g id="Actor_.66"><g style="stroke:#000000;stroke-width:0.176"><path d="M252.01,43.43L251.66,43.46L251.30,43.44L250.87,43.38L250.27,43.27L249.92,43.92L249.56,44.44L249.21,44.95L248.93,45.53L248.75,46.12L248.69,46.68L248.75,47.16L248.92,47.55L249.20,47.81L249.56,47.92L249.97,47.88L250.43,47.69L250.88,47.36L251.30,46.93L251.65,46.41L251.93,45.82L252.11,45.23L252.17,44.68L252.11,44.20L251.93,43.81L251.65,43.55L251.30,43.44L250.88,43.48L250.43,43.67L249.97,44.00L249.56,44.44L249.13,44.91L248.54,45.43L247.36,44.75L247.36,46.42"/><path d="M247.36,45.14L247.27,45.50L247.25,45.73"/><path d="M247.67,44.31L247.80,44.04L248.28,43.41L248.81,42.95L247.62,44.43L247.67,44.31"/><path d="M247.62,44.43L247.36,44.75"/><path d="M248.54,47.75L248.66,47.19L248.69,46.68L248.66,46.11L248.54,45.43"/><path d="M248.81,42.95L248.86,42.89"/><path d="M250.27,43.27L249.10,42.59"/><path d="M249.61,42.64L249.97,42.68L249.99,42.68"/><path d="M250.06,42.68L249.97,42.68"/></g><g style="stroke:#000000;stroke-width:0.529"><path d="M247.25,45.73L247.24,45.85L247.27,46.16L247.36,46.42L247.36,47.07L248.54,47.75L249.13,47.86L249.56,47.92L249.92,47.94L250.27,47.92L250.87,47.40L251.30,46.93L251.66,46.41L252.01,45.76L252.13,45.20L252.17,44.68L252.13,44.13L252.01,43.43L250.83,42.76L250.06,42.68L249.93,42.62L249.61,42.64L249.10,42.59L248.86,42.89"/></g></g><g id="Actor_.67"><g style="stroke:#000000;stroke-width:0.176"><path d="M41.47,146.09L41.19,146.34L40.87,146.76L40.63,147.24L40.51,147.73L40.51,147.74"/><path d="M47.82,151.20L49.01,149.72L48.49,150.18L48.01,150.81L47.82,151.20L47.57,151.52L47.57,153.19"/><path d="M47.57,151.91L47.47,152.27L47.46,152.50"/><path d="M47.57,151.52L48.74,152.20L49.34,151.68L49.77,151.21L50.18,150.77L50.63,150.44L51.09,150.25L51.50,150.21L51.86,150.32L52.14,150.58L52.31,150.97L52.37,151.45L52.31,152.00L52.14,152.59L51.86,153.18L51.50,153.70L51.09,154.13L50.63,154.46L50.18,154.65L49.77,154.69L49.41,154.58L49.13,154.32L48.96,153.93L48.90,153.45L48.96,152.89L49.13,152.30L49.41,151.72L49.77,151.21L50.13,150.69L50.48,150.04L51.07,150.15L51.50,150.21L51.87,150.23L52.22,150.20"/><path d="M48.74,152.20L48.86,152.88L48.90,153.45L48.86,153.96L48.74,154.52"/><path d="M49.01,149.72L49.06,149.66"/><path d="M49.30,149.36L50.48,150.04"/><path d="M50.27,149.45L49.81,149.41"/></g><g style="stroke:#000000;stroke-width:0.529"><path d="M41.52,146.04L41.39,146.12L41.07,146.38L40.81,146.74L40.61,147.15L40.51,147.56L40.51,147.75"/><path d="M49.06,149.66L49.30,149.36L49.81,149.41L50.14,149.39L50.27,149.45L51.04,149.53L52.22,150.20L52.34,150.90L52.37,151.45L52.34,151.97L52.22,152.53L51.87,153.18L51.50,153.70L51.07,154.17L50.48,154.69L50.13,154.71L49.77,154.69L49.33,154.63L48.74,154.52L47.57,153.85L47.57,153.19L47.47,152.93L47.45,152.62L47.46,152.50"/></g></g><g id="Actor_.68"><g style="stroke:#000000;stroke-width:0.176"><path d="M41.47,138.26L41.19,138.51L40.87,138.93L40.63,139.42L40.51,139.91L40.51,139.91"/><path d="M52.22,142.38L51.87,142.40L51.50,142.38L51.07,142.33L50.48,142.21L50.13,142.86L49.77,143.38L49.41,143.90L49.13,144.47L48.96,145.06L48.90,145.62L48.96,146.10L49.13,146.49L49.41,146.75L49.77,146.87L50.18,146.83L50.63,146.64L51.09,146.31L51.50,145.87L51.86,145.35L52.14,144.77L52.31,144.18L52.37,143.63L52.31,143.15L52.14,142.75L51.86,142.49L51.50,142.38L51.09,142.42L50.63,142.61L50.18,142.94L49.77,143.38L49.34,143.85L48.74,144.37L47.57,143.69L47.57,145.37"/><path d="M47.57,144.08L47.47,144.45L47.46,144.68"/><path d="M48.08,143.06L47.82,143.38L48.01,142.99L48.49,142.35L49.01,141.90L48.08,143.06"/><path d="M47.82,143.38L47.57,143.69"/><path d="M48.74,144.37L48.86,145.06L48.90,145.62L48.86,146.13L48.74,146.69"/><path d="M49.01,141.90L49.06,141.84"/><path d="M50.48,142.21L49.30,141.54"/><path d="M50.27,141.63L49.81,141.58"/></g><g style="stroke:#000000;stroke-width:0.529"><path d="M41.52,138.21L41.39,138.29L41.07,138.56L40.81,138.91L40.61,139.32L40.51,139.73L40.51,139.92"/><path d="M49.06,141.84L49.30,141.54L49.81,141.58L50.14,141.56L50.27,141.63L51.04,141.70L52.22,142.38L52.34,143.08L52.37,143.63L52.34,144.14L52.22,144.70L51.87,145.35L51.50,145.87L51.07,146.34L50.48,146.86L50.13,146.88L49.77,146.87L49.33,146.81L48.74,146.69L47.57,146.02L47.57,145.37L47.47,145.11L47.45,144.79L47.46,144.68"/></g></g><g id="Actor_.69"><g style="stroke:#000000;stroke-width:0.176"><path d="M198.71,135.28L199.00,135.31L199.33,135.18L199.56,134.88L199.65,134.44L199.60,133.91L199.58,133.86L199.41,133.34L199.10,132.81L198.71,132.36L198.36,132.10L198.28,132.05L197.85,131.90L197.48,131.94L197.19,132.17L197.07,132.46"/><path d="M197.57,131.93L197.49,132.00L197.36,132.29"/><path d="M197.68,131.15L197.98,130.97L198.35,130.86L198.76,130.91L199.24,131.01L199.89,131.08L200.15,131.81L200.44,132.40L200.71,132.98L200.88,133.56L200.94,134.12L200.88,134.60L201.03,134.14L201.30,133.54L202.99,132.57"/><path d="M201.30,133.54L200.80,132.95L200.44,132.40L200.08,131.88L199.66,131.43L199.21,131.09L198.76,130.91L198.35,130.77L197.95,130.56"/><path d="M199.00,135.11L199.29,135.15L199.39,135.11"/><path d="M200.77,135.48L200.79,135.02L200.88,134.60L200.71,134.98L200.43,135.24L200.12,135.41"/><path d="M199.89,131.08L201.58,130.11"/></g><g style="stroke:#000000;stroke-width:0.529"><path d="M198.42,135.44L198.79,135.64L199.30,135.71L199.40,135.71L199.50,135.68L199.94,135.51L200.12,135.41L200.77,135.48L202.46,134.51L202.72,133.91L202.88,133.45L202.97,133.02L202.99,132.57L202.73,131.83L202.44,131.25L202.08,130.71L201.58,130.11L201.17,129.90L200.76,129.76L200.28,129.66L199.64,129.59L197.95,130.56L197.68,131.15L197.50,131.26L197.13,131.55L197.05,131.62L197.01,131.71L196.80,132.19L196.79,132.62"/></g></g><g id="Actor_.70"><g style="stroke:#000000;stroke-width:0.176"><path d="M105.06,188.97L105.38,189.01L105.71,188.88L105.94,188.58L106.03,188.14L105.98,187.61L105.79,187.04L105.48,186.51L105.09,186.06L104.66,185.75L104.23,185.60L103.85,185.64L103.57,185.87L103.46,186.14"/><path d="M103.75,185.97L103.86,185.70L103.94,185.64"/><path d="M107.95,183.81L106.26,184.78L105.62,184.71L105.14,184.61L104.73,184.47L104.32,184.26"/><path d="M104.06,184.85L104.36,184.67L104.72,184.56L105.14,184.61L105.58,184.80L106.04,185.13L106.46,185.58L106.81,186.10L106.52,185.51L106.26,184.78"/><path d="M105.76,188.81L105.67,188.85L105.36,188.81"/><path d="M109.37,186.27L107.67,187.24L107.41,187.84L107.26,188.30L107.08,188.68L106.80,188.94L106.50,189.11"/><path d="M107.67,187.24L107.18,186.65L106.81,186.10L107.09,186.68L107.26,187.27L107.32,187.82L107.26,188.30L107.17,188.72L107.15,189.18"/></g><g style="stroke:#000000;stroke-width:0.529"><path d="M104.78,189.14L105.16,189.34L105.68,189.41L105.78,189.41L105.88,189.38L106.32,189.21L106.50,189.11L107.15,189.18L108.84,188.21L109.10,187.61L109.26,187.15L109.34,186.72L109.37,186.27L109.10,185.53L108.82,184.95L108.46,184.41L107.95,183.81L107.55,183.60L107.14,183.46L106.66,183.36L106.01,183.29L104.32,184.26L104.06,184.85L103.88,184.96L103.51,185.25L103.43,185.32L103.38,185.41L103.18,185.89L103.16,186.30"/></g></g><g><g><path style="stroke:#000000;stroke-width:0.125;stroke-dasharray:2.0 1.4 0.7 1.4" d="M231.13,89.45L231.13,102.32"/></g></g><g><g><path style="stroke:#000000;stroke-width:0.125;stroke-dasharray:2.0 1.4 0.7 1.4" d="M205.07,104.40L205.07,117.27"/></g></g><g><g><path style="stroke:#000000;stroke-width:0.125;stroke-dasharray:2.0 1.4 0.7 1.4" d="M137.50,143.15L137.50,156.02"/></g></g><g><g><path style="stroke:#000000;stroke-width:0.125;stroke-dasharray:2.0 1.4 0.7 1.4" d="M111.44,158.10L111.44,170.97"/></g></g><g><g><path style="stroke:#000000;stroke-width:0.125" d="M260.85,131.51L236.45,124.66"/></g><g><path style="fill:#000000" d="M237.20,124.66L237.20,124.58L237.19,124.51L237.17,124.44L237.15,124.37L237.11,124.30L237.08,124.24L237.03,124.18L236.98,124.13L236.93,124.08L236.87,124.03L236.81,124.00L236.74,123.96L236.67,123.94L236.60,123.92L236.53,123.91L236.45,123.91L236.38,123.91L236.31,123.92L236.24,123.94L236.17,123.96L236.10,124.00L236.04,124.03L235.98,124.08L235.92,124.13L235.87,124.18L235.83,124.24L235.79,124.30L235.76,124.37L235.74,124.44L235.72,124.51L235.71,124.58L235.70,124.66L235.71,124.73L235.72,124.80L235.74,124.87L235.76,124.94L235.79,125.01L235.83,125.07L235.87,125.13L235.92,125.19L235.98,125.24L236.04,125.28L236.10,125.32L236.17,125.35L236.24,125.37L236.31,125.39L236.38,125.40L236.45,125.41L236.53,125.40L236.60,125.39L236.67,125.37L236.74,125.35L236.81,125.32L236.87,125.28L236.93,125.24L236.98,125.19L237.03,125.13L237.08,125.07L237.11,125.01L237.15,124.94L237.17,124.87L237.19,124.80L237.20,124.73z"/></g><g><text xml:space="preserve" fill="#000000" stroke-width="0" x="261.63" y="136.07" font-size="3.77" opacity="1.00" font-family="Arial">KIT0341</text></g></g><g><g><path style="stroke:#000000;stroke-width:0.125" d="M224.95,152.75L205.77,141.22"/></g><g><path style="fill:#000000" d="M206.52,141.22L206.52,141.14L206.50,141.07L206.49,141.00L206.46,140.93L206.43,140.86L206.39,140.80L206.35,140.74L206.30,140.69L206.24,140.64L206.19,140.59L206.12,140.55L206.06,140.52L205.99,140.50L205.91,140.48L205.84,140.47L205.77,140.47L205.70,140.47L205.62,140.48L205.55,140.50L205.48,140.52L205.42,140.55L205.35,140.59L205.29,140.64L205.24,140.69L205.19,140.74L205.15,140.80L205.11,140.86L205.08,140.93L205.05,141.00L205.03,141.07L205.02,141.14L205.02,141.22L205.02,141.29L205.03,141.36L205.05,141.43L205.08,141.50L205.11,141.57L205.15,141.63L205.19,141.69L205.24,141.75L205.29,141.80L205.35,141.84L205.42,141.88L205.48,141.91L205.55,141.93L205.62,141.95L205.70,141.96L205.77,141.97L205.84,141.96L205.91,141.95L205.99,141.93L206.06,141.91L206.12,141.88L206.19,141.84L206.24,141.80L206.30,141.75L206.35,141.69L206.39,141.63L206.43,141.57L206.46,141.50L206.49,141.43L206.50,141.36L206.52,141.29z"/></g><g><text xml:space="preserve" fill="#000000" stroke-width="0" x="222.96" y="158.19" font-size="3.77" opacity="1.00" font-family="Arial">KIT0341</text></g></g><g><g><path style="stroke:#000000;stroke-width:0.125" d="M183.35,178.04L140.99,177.50"/></g><g><path style="fill:#000000" d="M141.74,177.50L141.74,177.43L141.73,177.36L141.71,177.28L141.68,177.21L141.65,177.15L141.61,177.09L141.57,177.03L141.52,176.97L141.47,176.92L141.41,176.88L141.34,176.84L141.28,176.81L141.21,176.78L141.14,176.77L141.06,176.76L140.99,176.75L140.92,176.76L140.84,176.77L140.77,176.78L140.70,176.81L140.64,176.84L140.57,176.88L140.51,176.92L140.46,176.97L140.41,177.03L140.37,177.09L140.33,177.15L140.30,177.21L140.27,177.28L140.25,177.36L140.24,177.43L140.24,177.50L140.24,177.58L140.25,177.65L140.27,177.72L140.30,177.79L140.33,177.86L140.37,177.92L140.41,177.98L140.46,178.03L140.51,178.08L140.57,178.13L140.64,178.16L140.70,178.19L140.77,178.22L140.84,178.24L140.92,178.25L140.99,178.25L141.06,178.25L141.14,178.24L141.21,178.22L141.28,178.19L141.34,178.16L141.41,178.13L141.47,178.08L141.52,178.03L141.57,177.98L141.61,177.92L141.65,177.86L141.68,177.79L141.71,177.72L141.73,177.65L141.74,177.58z"/></g><g><text xml:space="preserve" fill="#000000" stroke-width="0" x="184.13" y="180.47" font-size="3.77" opacity="1.00" font-family="Arial">KIT0341</text></g></g><g><g><path style="stroke:#000000;stroke-width:0.125" d="M144.68,198.59L113.96,192.11"/></g><g><path style="fill:#000000" d="M114.71,192.11L114.71,192.04L114.69,191.97L114.68,191.90L114.65,191.83L114.62,191.76L114.58,191.70L114.54,191.64L114.49,191.58L114.43,191.53L114.38,191.49L114.31,191.45L114.25,191.42L114.18,191.40L114.11,191.38L114.03,191.37L113.96,191.36L113.89,191.37L113.81,191.38L113.74,191.40L113.67,191.42L113.61,191.45L113.54,191.49L113.48,191.53L113.43,191.58L113.38,191.64L113.34,191.70L113.30,191.76L113.27,191.83L113.24,191.90L113.22,191.97L113.21,192.04L113.21,192.11L113.21,192.19L113.22,192.26L113.24,192.33L113.27,192.40L113.30,192.47L113.34,192.53L113.38,192.59L113.43,192.64L113.48,192.69L113.54,192.74L113.61,192.77L113.67,192.81L113.74,192.83L113.81,192.85L113.89,192.86L113.96,192.86L114.03,192.86L114.11,192.85L114.18,192.83L114.25,192.81L114.31,192.77L114.38,192.74L114.43,192.69L114.49,192.64L114.54,192.59L114.58,192.53L114.62,192.47L114.65,192.40L114.68,192.33L114.69,192.26L114.71,192.19z"/></g><g><text xml:space="preserve" fill="#000000" stroke-width="0" x="145.46" y="202.59" font-size="3.77" opacity="1.00" font-family="Arial">KIT0341</text></g></g><g/><g><g/><g><text xml:space="preserve" fill="#000000" stroke-width="0" x="3.78" y="8.83" font-size="4.53" opacity="1.00" font-family="Arial" font-weight="bold">BPA27729</text></g></g><g id="paperID" visibility="hidden" opacity="0.00" transform="scale(0.000100)"><path style="stroke:#000000;stroke-width:0.500;fill:#e6e6e6;fill-rule:evenodd" d="M-2000.00,-2000.00L2297.00,-2000.00L2297.00,2210.00L-2000.00,2210.00zM0.00,0.00L297.00,0.00L297.00,210.00L0.00,210.00z"/><path style="fill:#000000;fill-opacity:0.118" d="M3.00,210.00L297.00,210.00L297.00,3.00L300.00,3.00L300.00,213.00L3.00,213.00z"/></g></g></svg>
