<?xml version="1.0" encoding="UTF-8" standalone="no"?>
<svg xmlns="http://www.w3.org/2000/svg" xmlns:xlink="http://www.w3.org/1999/xlink" width="297.000mm" height="210.000mm" viewBox="0.000000 0.000000 297.000000 210.000000" stroke-linejoin="round" stroke-linecap="round" fill="none" fill-rule="evenodd"><desc>Composer Export</desc><script type="text/ecmascript"><![CDATA[
if(typeof(top) != "undefined")
{
	top.ShowPaper = ShowPaper;
}
function ShowHotSpot(evt,hotspotid)
{
	var svgDocument = evt.target.ownerDocument;
	var strId = "hotspot."+hotspotid;
	var hotspot = svgDocument.getElementById(strId);
	if(hotspot)
		hotspot.setAttribute("opacity",".5");
}
function HideHotSpot(evt,hotspotid)
{
	var svgDocument = evt.target.ownerDocument;
	var strId = "hotspot."+hotspotid;
	var hotspot = svgDocument.getElementById(strId);
	if(hotspot)
		hotspot.setAttribute("opacity","0");

	var toolTip = svgDocument.getElementById('ToolTip');
	if(toolTip)
		toolTip.setAttribute("visibility","hidden");
}
function ShowToolTip(evt,hotspotid,strTooltip)
{
	if(strTooltip=="")
	return;

	// change text
	var svgDocument = evt.target.ownerDocument;
	var tiptext = svgDocument.getElementById('ToolTipText');
	if( !tiptext )
	return;
	tiptext.firstChild.nodeValue = " " + strTooltip + "  " ;

	// show tooltip before, else some refresh issue

	var toolTip = svgDocument.getElementById('ToolTip');
	if(!toolTip)
	return;

	toolTip.setAttribute("visibility","visible");
	toolTip.setAttribute("opacity",".95");

	// move tooltip
	// get viewbox

	var root = svgDocument.documentElement;
	var vbox = (root.getAttribute("viewBox")).split(' ');
	var x0 = parseFloat(vbox[0]);
	var y0 = parseFloat(vbox[1]);
	var vboxW = parseFloat(vbox[2]);
	var vboxH = parseFloat(vbox[3]);

	// get default width of svg

	var strW = root.getAttribute("width");
	var svgW = parseFloat(strW);
	if(strW.indexOf('mm') != -1)
	svgW *= 3.779;

	var strH = root.getAttribute("height");
	var svgH = parseFloat(strH);
	if(strH.indexOf('mm') != -1)
	svgH *= 3.779;  	// 96 dpi  -> 96/25.4 = 3.779

	// update the viewbox / width / height if svg is embedded in html with zoom fit all
	var realx0 = x0;
	var realy0 = y0;
	var realvboxW = vboxW;
	var realvboxH = vboxH;
	var realsvgW = svgW;
	var realsvgH = svgH;

	if ((typeof(top) == "undefined") || (typeof(top.svgctl1) != "undefined")) // embedded in html
	{
		// get window size in pxl

		svgW = window.innerWidth;
		svgH = window.innerHeight;

		// calculate real viewbox

		realsvgW = svgW;
		realsvgH = svgH;
		if((svgW / svgH) > (vboxW / vboxH))
		{
			realvboxW = (vboxH * svgW) / svgH;
			realvboxH = vboxH;
			realx0 = x0 - (realvboxW - vboxW)/2 ;
		}
		else
		{
			realvboxH = (vboxW * svgH) / svgW;
			realvboxW = vboxW;
			realy0 = y0 - (realvboxH - vboxH)/2 ;
		}
	}

	// get user zoom/pan

	var newScale = root.currentScale;
	var translation = root.currentTranslate;

	// transform pxl to user unit

	var xPos = (((evt.clientX+10- translation.x)/newScale) * realvboxW)/realsvgW  + realx0 ;
	var yPos = (((evt.clientY+5- translation.y)/newScale) * realvboxH)/ realsvgH  + realy0 ;
	var scaleForWidth = ( (1 / newScale) * realvboxH) / realsvgH;

	// move tooltip

	toolTip.setAttribute("transform", "translate(" + xPos + "," + yPos + ")" );

	// resize tooltip

	var fontsize = 12;
	tiptext.setAttribute("font-size",fontsize*scaleForWidth);
	tiptext.setAttribute("y", fontsize*scaleForWidth);
	var tipBG = svgDocument.getElementById('ToolTipBG');
	var outline = tiptext.getBBox();
	if(tipBG)
	{
		tipBG.setAttribute("stroke-width", 1*scaleForWidth);
		tipBG.setAttribute("width", Number(outline.width) );
		tipBG.setAttribute("height", Number(outline.height) + fontsize*.5*scaleForWidth );
	}
	var ToolTipShadow = svgDocument.getElementById('ToolTipShadow');
	if(ToolTipShadow)
	{
		ToolTipShadow.setAttribute("width", Number(outline.width) );
		ToolTipShadow.setAttribute("height", Number(outline.height) + fontsize*.5*scaleForWidth );
		ToolTipShadow.setAttribute("x", 3*scaleForWidth);
		ToolTipShadow.setAttribute("y", 3*scaleForWidth);
	}
}
function ShowPaper()
{
  var svgDocument = getDocument();
  var paper = svgDocument.getElementById("paperID");
  if(paper)
  {
    paper.setAttribute("transform","scale(1)");
    paper.setAttribute("opacity","1");
    paper.setAttribute("visibility","visible");
  }
  var svg = svgDocument.getRootElement();
  if(svg)
  {
    svg.setAttribute("width","307.000mm");
    svg.setAttribute("height","220.000mm");
    svg.setAttribute("viewBox","-5.000000 -5.000000 307.000000 220.000000");
  }
}
]]></script><defs/><g><path style="fill:#000000;fill-opacity:0.098;fill-rule:evenodd" d="M63.87,39.57L64.86,40.12L65.68,41.09L65.86,41.58L65.45,41.53L65.07,41.30L64.47,41.78L64.40,42.55L65.28,43.09L65.57,43.10L66.36,42.09L66.66,42.27L66.63,44.67L66.84,45.34L67.26,45.04L67.45,45.23L67.45,45.72L67.22,46.10L66.65,49.68L66.04,50.85L64.46,53.41L62.81,54.91L61.82,55.51L61.05,56.54L60.67,56.57L60.50,56.11L60.07,56.08L59.53,56.38L58.09,57.33L57.68,57.37L57.74,56.76L58.34,55.91L57.16,55.30L56.70,55.29L56.36,55.77L56.37,56.50L57.39,57.09L55.77,57.11L53.44,55.89L52.63,55.31L52.04,54.52L51.79,53.70L52.62,54.17L53.02,54.22L53.02,51.24L53.20,49.85L54.33,46.64L56.00,43.96L57.55,42.16L59.27,40.72L61.44,39.73L62.88,39.53zM84.61,54.91L85.59,55.70L85.81,56.36L84.00,55.52L82.55,55.52L81.23,56.17L79.78,57.48L78.67,58.93L77.88,60.51L77.49,62.10L77.47,64.22L77.87,64.81L80.48,66.38L81.23,66.03L81.57,63.41L82.13,62.01L83.04,60.54L84.41,58.95L86.29,57.88L87.78,57.69L88.77,58.65L89.33,60.05L89.33,61.50L88.94,63.09L87.69,65.39L86.09,67.15L84.15,68.16L83.21,68.15L82.02,67.96L80.26,66.96L78.66,66.78L76.89,66.18L76.09,65.99L73.73,64.61L72.73,63.41L72.74,63.01L74.33,64.04L74.74,64.08L74.72,61.50L75.31,59.30L75.54,59.08L75.11,60.91L75.10,63.83L76.50,64.83L76.90,64.87L76.90,62.69L77.48,60.51L78.61,58.28L80.37,56.29L82.16,55.13L83.60,54.72zM61.14,41.50L61.13,41.76L60.70,42.34L60.64,43.16L61.06,43.13L61.30,42.94L61.64,41.91L62.70,41.90L64.69,43.08L63.21,43.28L61.02,44.64L59.05,46.82L57.95,48.88L57.16,51.24L56.99,54.00L56.37,53.74L56.19,52.75L55.90,53.15L55.37,53.16L55.38,52.84L55.80,52.44L55.78,50.96L55.59,51.81L55.41,51.80L54.72,52.77L54.22,52.76L53.34,52.22L53.39,51.63L53.73,51.15L54.61,51.22L55.00,48.82L54.20,48.41L54.20,47.70L54.73,47.21L55.59,47.48L56.98,45.03L56.37,44.66L56.37,43.95L56.90,43.46L57.55,43.69L58.27,43.68L59.49,42.71L59.74,42.53L59.74,42.32L59.33,42.09L59.32,41.37L59.66,40.89L60.12,40.90zM64.26,46.05L64.46,48.30L64.68,46.21L64.87,46.40L65.05,48.66L65.26,48.87L65.65,46.23L65.83,47.41L65.66,49.08L65.20,50.20L64.38,51.75L63.10,53.23L61.45,54.34L60.45,54.35L61.63,53.93L61.77,53.68L62.32,53.42L62.05,53.31L61.77,53.68L61.43,53.76L60.04,53.74L60.79,53.29L61.27,53.13L61.30,52.93L61.06,52.92L60.79,53.29L58.94,53.35L58.52,52.57L58.53,50.05L59.55,47.71L61.32,45.73L61.92,45.46L62.10,46.52L62.28,45.31L63.09,45.24zM86.95,59.09L88.56,60.03L88.72,61.03L88.34,63.08L87.55,64.66L86.78,65.67L85.29,66.94L84.13,67.38L83.61,67.38L82.97,67.21L82.21,66.38L82.02,65.79L82.02,64.06L82.81,61.70L84.22,59.94L85.18,59.13L86.11,58.65L86.54,58.68zM58.74,44.86L58.27,45.46L57.69,45.53L57.96,44.54L58.29,44.23L58.53,44.26zM55.51,49.25L55.57,48.67L56.11,47.99L56.58,48.01L56.19,49.44zM62.75,51.67L62.28,52.24L62.28,51.85L62.72,51.58zM61.27,53.13L60.79,53.29L61.06,52.92L61.30,52.93zM83.65,53.91L83.84,54.38L82.23,53.74L81.17,53.75L80.38,53.94L79.26,54.59L76.96,56.64L77.20,56.08L79.06,54.39L79.99,53.75L80.97,53.34L82.63,53.34zM62.32,53.42L61.77,53.68L62.05,53.31zM76.95,56.82L76.11,58.17L76.09,57.76L76.71,56.78L76.96,56.64zM111.62,64.00L112.83,64.97L114.00,66.76L114.21,68.41L112.23,67.36L112.09,67.10L112.75,66.97L113.23,66.24L113.24,65.96L113.03,65.75L112.54,65.75L112.21,66.23L112.09,67.10L110.46,66.36L109.45,66.17L108.01,66.19L108.53,65.91L109.48,65.78L108.62,65.80L108.53,65.91L107.61,65.97L106.29,66.43L103.55,68.43L101.50,70.91L99.58,74.72L99.00,77.49L98.95,79.84L99.07,79.92L99.18,81.02L99.42,81.23L99.17,80.01L99.07,79.92L99.18,77.86L99.40,77.41L99.59,80.59L99.73,81.23L109.65,86.90L110.51,87.22L110.83,87.51L114.99,89.92L115.18,89.26L115.76,89.34L116.17,88.53L116.44,88.41L116.17,88.96L116.16,89.45L116.44,89.59L115.90,89.86L115.56,90.31L115.50,90.89L115.75,91.07L116.35,91.11L116.77,90.33L117.15,89.85L116.44,89.59L116.78,89.13L116.79,88.66L116.44,88.41L116.76,88.23L117.17,88.86L122.68,92.03L124.05,93.03L241.68,160.54L242.07,160.33L242.28,160.68L243.87,161.69L244.24,161.78L244.64,158.91L244.81,161.71L245.22,162.10L247.42,163.33L247.60,162.46L247.73,163.53L248.40,163.89L248.75,163.71L249.00,163.29L248.98,161.75L249.32,160.12L249.77,158.80L251.07,156.54L252.74,154.67L254.50,153.66L255.23,153.40L256.90,153.21L257.27,153.39L258.28,154.56L258.85,156.17L258.84,157.61L258.65,158.60L257.99,160.50L256.62,162.88L255.12,164.54L253.45,165.63L252.28,166.04L250.95,166.04L249.77,165.63L246.81,164.05L245.63,163.66L234.00,157.13L125.06,94.58L124.06,93.80L121.92,92.63L120.83,92.62L120.94,92.01L120.71,91.78L120.45,91.81L120.32,92.52L120.12,92.71L120.13,92.02L119.60,91.96L119.91,91.43L119.54,91.22L118.87,91.23L118.75,91.89L118.52,91.65L118.10,91.61L117.91,91.87L117.87,92.49L118.39,92.43L118.56,92.59L117.31,92.63L117.10,92.43L117.56,92.10L117.89,91.45L118.34,91.04L117.09,90.41L116.66,91.05L116.93,91.44L116.56,92.07L104.74,85.32L103.68,85.72L101.57,85.93L100.00,85.51L97.23,83.73L96.21,82.16L96.17,81.75L96.41,81.74L97.03,82.19L97.42,82.24L97.42,77.88L98.00,75.11L98.39,74.27L98.55,74.72L99.33,74.66L99.61,74.13L99.62,73.66L99.41,73.44L99.13,73.46L98.80,73.75L98.79,73.14L100.79,69.61L102.67,67.34L103.93,66.24L105.64,64.99L108.26,63.86L111.25,63.83zM125.39,75.24L126.05,75.25L125.84,76.52L125.44,75.81L125.33,75.79L125.60,75.45zM123.32,75.58L123.18,75.27L124.45,75.03L123.97,75.64L124.27,76.63L124.66,76.89L125.17,75.82L125.33,75.79L125.25,76.31L124.97,76.63L126.24,77.28L126.74,76.21L126.90,76.17L126.83,76.71L126.56,77.02L126.82,77.40L126.41,77.88L126.04,77.85L124.66,77.22L123.72,77.16L123.86,76.22L123.64,76.22L123.37,76.61L123.19,77.09L123.72,77.16L123.42,77.46L122.41,77.39L121.97,77.95L121.88,77.39L121.66,77.41L121.39,77.79L121.23,78.29L121.72,78.12L121.97,77.95L121.84,78.42L120.50,78.66L120.32,79.46L120.11,79.23L119.60,79.13L119.91,78.60L118.84,78.21L120.05,77.01L120.05,77.87L120.54,78.22L120.89,78.29L121.42,77.20L121.69,76.83L121.02,76.42L121.84,75.81L122.10,75.84L122.08,76.82L122.48,77.06L122.80,77.04L123.42,76.04L123.69,75.82zM126.90,76.17L126.98,76.02L127.41,76.02L127.42,76.91L127.02,76.20zM128.08,77.36L128.17,77.21L128.60,77.20L128.61,77.89zM127.82,77.91L127.80,78.41L128.09,78.56L127.99,78.69L127.38,78.62L127.18,78.43L127.94,77.41L128.08,77.36zM128.47,78.33L128.09,78.56L128.34,78.20zM128.74,78.97L129.19,79.00L129.23,79.45L128.77,79.18zM118.52,79.82L118.94,80.05L119.45,79.19L119.60,79.13L119.50,79.45L119.48,80.04L119.71,80.21L118.72,80.44L118.76,81.62L118.53,81.40L118.04,81.31L118.15,80.79L117.27,80.38L118.14,79.21zM23.03,80.18L24.23,81.15L25.01,82.74L25.00,85.97L24.14,88.67L23.02,90.91L22.17,92.03L20.58,93.79L17.64,95.59L16.44,95.79L15.12,95.59L13.76,94.78L11.59,92.80L11.29,92.04L12.17,92.42L12.73,93.10L12.95,93.10L12.93,91.44L13.13,91.25L12.92,91.10L13.09,89.26L13.95,86.77L15.34,84.22L17.41,81.95L18.49,81.24L20.39,80.18L21.18,79.99L22.23,79.99zM106.52,81.56L105.26,82.38L104.67,82.43L104.44,81.37L104.83,80.76L105.71,80.79L105.91,81.23L106.11,81.19zM117.15,82.19L117.48,82.18L117.86,81.35L118.04,81.31L117.86,81.99L118.10,82.56L117.55,82.56L117.28,83.17L116.78,83.14L116.56,82.92L116.30,82.93L115.96,83.22L115.95,82.82L116.57,81.76zM104.15,82.61L103.92,82.40L103.93,80.76zM117.58,83.73L117.57,84.20L117.04,83.67L117.35,83.49zM116.67,84.34L116.78,84.72L116.96,84.91L116.54,85.58L115.51,85.50L115.17,85.79L115.17,85.18L115.32,84.51L116.35,84.60L116.76,83.80L117.04,83.67zM116.98,86.08L116.85,86.84L116.75,86.27L116.53,86.29L116.26,86.67L116.10,87.17L116.59,87.00L116.85,86.84L116.37,87.94L115.71,87.66L114.97,88.54L114.99,86.88L115.38,87.12L115.70,87.10L116.29,86.09L116.80,85.90zM114.38,87.37L113.91,87.27L114.23,87.09zM119.55,92.12L119.48,92.87L119.71,93.04L119.05,93.08L119.11,92.48L119.45,92.01L119.60,91.96zM39.02,94.19L39.62,95.00L39.63,95.43L38.23,94.78L36.96,94.78L35.87,95.46L34.86,96.82L34.26,98.20L34.26,99.94L34.67,100.50L37.67,102.26L37.86,102.73L36.24,101.88L34.46,101.91L32.51,100.69L31.86,100.11L31.85,99.89L32.08,99.90L33.09,100.54L33.48,100.59L33.67,98.40L35.00,95.78L36.44,94.46L37.35,93.99L38.62,93.99zM41.97,105.64L43.37,106.61L187.02,189.12L187.84,189.73L187.82,189.98L187.41,189.94L44.55,108.00L43.55,107.22L38.83,104.44L38.22,104.06L38.21,103.46zM253.73,151.03L253.33,151.06L252.73,150.83L251.27,150.64L252.73,150.42zM282.92,165.44L283.73,166.01L284.50,167.02L285.09,168.60L285.09,171.62L284.49,173.98L283.45,176.29L281.87,178.66L280.77,179.93L278.99,181.31L277.15,182.22L275.95,182.41L274.82,182.42L273.65,182.01L264.98,177.07L264.19,176.48L263.55,175.50L263.51,175.10L263.76,175.08L271.90,179.70L271.81,176.30L272.49,175.99L272.85,174.38L273.67,172.24L274.85,170.26L276.43,168.28L277.81,167.10L278.71,166.42L280.34,165.71L280.28,165.25L282.33,165.24zM277.60,165.70L277.33,165.70L277.33,165.44L277.60,165.44zM202.23,186.14L203.01,187.33L203.18,188.54L203.40,189.11L203.39,190.17L203.00,191.95L201.93,193.84L200.64,195.12L199.58,195.83L197.82,196.44L196.28,196.43L194.31,195.44L190.98,193.44L188.80,192.07L188.16,191.28L188.15,191.06L188.79,191.29L190.18,192.27L190.76,192.48L192.15,193.45L192.92,193.67L193.31,194.07L193.92,194.25L194.34,194.66L194.70,194.73L194.90,192.53L195.70,190.17L196.89,188.21L198.85,186.42L200.17,185.76L201.45,185.57zM64.10,40.71L64.09,40.98L63.49,41.95L62.29,41.30L62.28,40.58L62.62,40.10L63.08,40.11zM58.37,42.78L58.16,42.99L58.16,42.33L58.37,42.30zM55.99,54.55L56.00,54.98L55.51,55.73L55.01,55.72L54.13,55.18L54.18,54.59L54.52,54.11L55.20,54.13zM113.24,65.96L113.23,66.24L112.75,66.97L112.09,67.10L112.21,66.23L112.54,65.75L113.03,65.75zM108.53,65.91L108.62,65.80L109.48,65.78zM106.32,65.86L105.85,66.41L105.45,66.45L105.51,65.45L105.84,65.16L106.30,65.17zM123.72,77.16L123.19,77.09L123.37,76.61L123.64,76.22L123.86,76.22zM121.97,77.95L121.72,78.12L121.23,78.29L121.39,77.79L121.66,77.41L121.88,77.39zM99.42,81.23L99.18,81.02L99.07,79.92L99.17,80.01zM99.62,82.74L99.61,83.21L99.33,83.74L98.52,83.80L98.59,83.20L99.13,82.53L99.41,82.52zM20.89,85.28L21.18,85.97L22.06,86.11L21.22,86.38L21.18,86.74L21.64,86.91L21.65,87.55L21.24,88.73L19.88,90.53L18.82,91.25L18.25,91.30L18.07,91.06L17.09,90.86L16.32,90.24L16.11,89.34L16.30,88.14L17.10,86.57L17.81,85.50L19.01,84.51L19.47,84.51zM116.85,86.84L116.59,87.00L116.10,87.17L116.26,86.67L116.53,86.29L116.75,86.27zM116.79,88.66L116.78,89.13L116.44,89.59L116.16,89.45L116.17,88.96L116.44,88.41zM117.15,89.85L116.77,90.33L116.35,91.11L115.75,91.07L115.50,90.89L115.56,90.31L115.90,89.86L116.44,89.59zM121.50,92.41L121.25,92.47L121.31,92.22zM257.28,155.36L257.62,156.01L258.04,156.19L258.26,156.75L258.06,159.00L257.07,161.36L255.69,163.33L254.33,164.54L252.87,165.25L251.15,165.24L250.36,164.65L249.97,164.45L249.56,163.28L249.56,161.16L250.10,159.33L250.95,157.60L252.06,156.15L253.51,154.84L254.84,154.18L255.10,154.17zM284.14,170.75L284.13,171.03L283.64,171.77L283.11,171.76L283.09,171.22L283.65,170.54L283.93,170.54zM279.33,170.82L279.51,170.57L280.17,170.57L280.20,170.82L279.88,171.37L279.36,171.37zM278.19,171.71L277.72,172.56L277.39,172.56L277.37,172.01L277.72,171.52L278.01,171.53zM279.56,172.95L279.79,173.33L279.38,174.59L278.73,175.12L277.93,175.18L277.76,174.93L277.77,174.18L278.39,173.02L279.18,172.72zM274.26,176.26L274.26,176.96L273.97,177.28L273.38,177.36L273.46,176.56L274.07,176.07zM280.22,175.61L279.89,176.30L279.30,176.37L279.34,175.74L279.51,175.50L280.17,175.50zM278.21,176.67L278.22,176.95L277.74,177.51L277.38,177.48L277.37,176.95L277.72,176.46L278.00,176.46zM201.62,186.95L200.05,187.62L198.58,188.91L197.47,190.36L196.48,192.92L196.51,194.70L195.91,194.43L195.68,194.07L195.68,191.93L196.51,189.80L197.79,188.12L199.24,187.00L199.97,186.75L201.24,186.74zM201.25,188.31L199.66,189.00L198.28,190.59L197.46,192.53L197.49,193.92L197.30,193.89L197.26,192.33L198.28,189.99L200.03,188.39L201.06,188.12zM202.62,189.50L202.61,191.37L202.16,192.49L201.69,193.00L202.40,190.76L202.39,189.12zM198.45,194.85L199.39,194.85L200.45,194.14L201.69,193.00L201.55,193.46L199.77,195.03L198.08,195.03L197.85,194.86L197.57,194.47z"/><g id="Actor_.0"><g style="stroke:#000000;stroke-width:0.176"><path d="M56.33,47.97L56.18,47.94L56.00,47.99L55.83,48.11L55.66,48.28L55.53,48.50L55.45,48.73L55.42,48.95L55.45,49.13L55.53,49.27"/><path d="M56.49,48.33L56.44,48.19L56.35,48.10L56.22,48.08L56.07,48.12L55.92,48.22L55.78,48.38L55.67,48.56L55.59,48.76L55.57,48.95L55.59,49.11L55.62,49.15L55.67,49.22L55.78,49.28L55.92,49.27L56.07,49.20"/></g><g style="stroke:#000000;stroke-width:0.529"><path d="M51.98,47.66L51.45,47.36L51.43,47.34L51.30,47.14L51.28,47.11L51.24,46.84L51.24,46.81L51.28,46.50L51.40,46.17L51.59,45.87L51.82,45.62L52.07,45.45L52.10,45.44L52.35,45.37L52.38,45.36L52.61,45.40L52.64,45.42L52.85,45.54"/><path d="M54.92,47.17L56.33,47.97L56.43,48.07L56.49,48.23L56.49,48.33L56.49,48.51L56.44,48.70L56.35,48.90L56.22,49.07L56.07,49.20L56.00,49.24L55.83,49.32L55.66,49.33L55.53,49.27L54.17,48.49"/></g></g><g id="Actor_.1"><g style="stroke:#000000;stroke-width:0.176"><path d="M10.79,90.02L12.31,90.90"/><path d="M13.10,94.10L12.93,93.88L12.47,92.66L12.30,91.20L12.84,91.51L13.01,92.97L13.46,94.19L14.19,95.10L15.16,95.66"/><path d="M12.30,91.20L12.46,91.10"/><path d="M12.84,91.51L16.10,89.64L16.10,89.45"/><path d="M16.12,89.35L16.26,90.11L16.71,90.74L17.39,91.01L18.22,90.88L19.11,90.37L19.92,89.56L19.94,89.55L20.62,88.50L21.07,87.36L21.23,86.32L18.60,84.82"/><path d="M16.10,89.64L16.28,90.61L16.79,91.31L17.55,91.61L18.49,91.47L18.89,91.24L19.49,90.89L20.43,89.96L21.19,88.79L21.70,87.50L21.88,86.32L25.14,84.45"/><path d="M18.45,84.92L18.32,85.78L17.87,86.92L17.19,87.97L16.36,88.79L16.19,88.89"/><path d="M21.88,86.32L21.23,86.32"/></g><g style="stroke:#000000;stroke-width:0.529"><path d="M17.20,95.69L16.31,95.84L15.16,95.66L13.65,94.79L13.10,94.10L12.54,93.78L11.60,92.92L11.00,91.64L10.79,90.02L10.95,89.93"/><path d="M16.20,88.84L17.03,88.01L17.79,86.84L18.30,85.55L18.38,84.98"/><path d="M18.11,95.33L20.39,94.02L21.67,92.76L22.82,91.26L23.79,89.60L24.52,87.85L24.97,86.11L25.14,84.45L24.98,84.36"/></g></g><g id="Actor_.2"><g style="stroke:#000000;stroke-width:0.176"><path d="M12.33,90.72L12.47,89.35L12.93,87.61L13.65,85.86L14.62,84.20L15.77,82.70L17.05,81.44L19.85,79.83L21.13,79.62L21.37,79.66"/><path d="M22.82,80.11L21.67,79.93L20.39,80.14L17.59,81.75L16.31,83.01L15.16,84.51L14.19,86.17L13.64,87.49L13.46,87.92L13.01,89.66L12.84,91.32"/><path d="M21.88,86.14L21.70,85.17L21.19,84.46L20.43,84.16L19.49,84.30L18.76,84.72"/><path d="M21.23,86.14L21.07,85.29L20.62,84.66L19.94,84.39L19.11,84.52"/></g><g style="stroke:#000000;stroke-width:0.529"><path d="M18.76,84.72L21.23,86.14L21.88,86.14L25.14,84.26L24.97,82.80L24.52,81.58L23.79,80.67L22.28,79.80L21.37,79.66L20.80,79.33L19.59,78.96L18.18,79.10L16.67,79.74L15.16,80.83L13.75,82.31L12.54,84.07L11.60,86.00L11.57,86.10L11.00,87.96L10.79,89.83L12.33,90.72L12.30,91.01L12.84,91.32L16.10,89.45L16.28,88.27L16.79,86.98L17.55,85.81L18.49,84.88L18.76,84.72"/></g></g><g id="Actor_.3"><g style="stroke:#000000;stroke-width:0.176"><path d="M64.11,53.90L63.96,53.97L63.90,53.97"/></g><g style="stroke:#000000;stroke-width:0.529"><path d="M64.52,53.24L64.48,53.40L64.39,53.60L64.26,53.77L64.11,53.90L64.04,53.94L63.86,54.02L63.86,54.02"/></g></g><g id="Actor_.4"><g style="stroke:#000000;stroke-width:0.176"><path d="M77.03,52.85L75.68,53.94L75.56,54.08L74.46,55.38L73.46,57.04L72.74,58.81L72.37,60.55L72.37,62.15"/><path d="M73.46,64.42L73.46,64.42"/><path d="M76.17,66.02L75.30,65.28L74.75,64.13L74.56,62.66L74.75,60.98L75.30,59.20L76.17,57.47L77.29,55.91L78.58,54.63L79.96,53.74L81.30,53.29L81.86,53.30L82.52,53.32L83.53,53.83"/><path d="M75.35,65.26L74.80,64.12L74.62,62.66L74.80,60.99L75.35,59.22L76.21,57.50L76.61,56.94L77.33,55.94L78.62,54.68L79.98,53.78L81.32,53.34L82.53,53.37L83.53,53.88L84.13,54.68L82.73,53.87L81.60,53.68L80.31,53.98L78.97,54.75L77.68,55.93L76.55,57.42L75.67,59.10L75.11,60.84L74.92,62.49L75.11,63.92L75.67,65.02L76.55,65.69L77.50,66.24L77.33,66.27L76.21,66.00L75.35,65.26"/><path d="M77.50,66.24L77.52,66.25"/><path d="M84.59,54.94L83.46,54.75L82.17,55.05L80.83,55.82L79.54,57.00L78.41,58.49L77.53,60.17L76.97,61.91L76.78,63.56L76.97,64.99L77.53,66.09L78.41,66.76"/><path d="M80.01,66.84L80.00,66.84L79.58,66.93L78.45,66.74L77.58,66.07L77.02,64.98L76.83,63.56L77.02,61.95L77.02,61.92L77.58,60.19L78.45,58.52L79.58,57.04L80.86,55.87L82.20,55.10L83.48,54.80L84.53,54.98"/><path d="M78.58,66.04L80.00,66.84"/><path d="M82.78,68.15L81.96,67.60L81.43,66.64L81.25,65.36L81.43,63.87L81.96,62.31L82.78,60.81L83.83,59.51L85.00,58.53L86.21,57.94L87.11,57.83L87.33,57.81L88.28,58.14"/><path d="M82.90,67.20L82.70,67.02L83.39,67.14L84.48,66.84L85.61,66.09L86.64,64.97L87.47,63.61L88.00,62.16L88.19,60.76L88.00,59.58L87.51,58.80L88.01,59.05L88.54,59.89L88.73,61.07L88.54,62.46L88.01,63.92L87.18,65.28L86.15,66.40L85.02,67.15L83.93,67.45L82.99,67.28L82.90,67.20"/><path d="M82.70,67.02L82.30,66.65L81.93,65.62L81.93,64.32L82.30,62.87L82.99,61.45L83.93,60.19L85.02,59.25L86.15,58.71L87.18,58.64L87.51,58.80"/><path d="M86.57,58.68L86.65,58.81L86.84,59.99L86.65,61.38L86.12,62.84L85.29,64.20L84.26,65.31L83.13,66.06L82.18,66.33"/><path d="M85.36,55.57L85.48,55.66L85.93,56.54L84.85,55.92"/><path d="M84.13,54.68L84.18,54.71"/><path d="M85.93,56.54L85.95,56.55"/></g><g style="stroke:#000000;stroke-width:0.529"><path d="M85.39,55.55L85.47,55.61L85.95,56.55L87.80,57.61L88.96,58.90L89.31,60.04L89.36,60.71L89.31,61.44L88.96,62.98L88.28,64.52L87.33,65.94L86.21,67.09L85.00,67.89L83.83,68.25L82.78,68.15L82.09,68.01L80.01,66.84L79.54,66.95L78.41,66.76L77.52,66.25L77.29,66.29L76.17,66.02L73.46,64.42L72.74,63.47L72.37,62.15L72.37,60.50L72.74,58.77L73.44,57.02L74.44,55.38L75.65,53.96L76.98,52.88L77.03,52.85L78.40,52.17L79.69,51.96L80.82,52.23L83.53,53.83L84.18,54.71L84.59,54.94"/></g></g><g id="Actor_.5"><g style="stroke:#000000;stroke-width:0.176"><path d="M87.16,58.64L87.73,59.16L88.09,60.17L88.09,61.46L87.73,62.88L87.05,64.29L86.12,65.53L85.04,66.46L83.94,66.99L82.92,67.05L82.53,66.86"/></g><g style="stroke:#000000;stroke-width:0.529"><path d="M82.27,66.58L83.13,66.52L84.23,65.99L85.31,65.06L86.24,63.82L86.92,62.42L87.28,60.99L87.28,59.71L86.92,58.70L86.88,58.66"/></g></g><g id="Actor_.6"><g style="stroke:#000000;stroke-width:0.176"><path d="M118.22,79.44L118.25,79.20L118.36,78.92L118.52,78.66L118.71,78.46L118.82,78.39"/><path d="M119.32,80.03L119.38,79.49L119.78,79.07L120.13,79.18L120.07,79.71L119.67,80.14L119.32,80.03"/><path d="M119.33,79.94L119.67,80.14"/><path d="M120.07,79.71L119.64,79.46L119.44,79.68L119.54,79.54L119.62,79.38L119.66,79.22L119.67,79.20L119.64,79.46"/><path d="M119.35,79.75L119.44,79.68L119.35,79.77"/><path d="M119.67,79.19L119.67,79.20L119.67,79.18"/></g><g style="stroke:#000000;stroke-width:0.529"><path d="M118.82,78.39L118.93,78.32L119.13,78.27L119.31,78.31L120.09,78.75L120.11,78.77L120.24,78.90L120.25,78.92L120.31,79.12L120.31,79.14L120.31,79.38L120.24,79.64L120.11,79.89L119.94,80.11L119.74,80.28L119.73,80.29L119.52,80.38L119.49,80.38L119.30,80.39L119.27,80.38L119.12,80.30L118.34,79.85L118.24,79.69L118.21,79.46L118.22,79.44"/></g></g><g id="Actor_.7"><g style="stroke:#000000;stroke-width:0.176"><path d="M116.97,88.89L117.07,89.22L117.53,89.83"/><path d="M116.68,87.23L116.68,87.84L116.78,88.19"/><path d="M116.92,85.03L116.74,85.91"/><path d="M117.77,82.61L117.42,83.49"/><path d="M119.22,80.35L118.86,80.78L118.66,81.11"/><path d="M121.01,78.57L120.31,79.14"/><path d="M122.94,77.45L122.09,77.87"/><path d="M124.55,94.11L124.48,94.04L124.14,93.48L123.89,92.82L123.74,92.07L123.69,91.24L123.74,90.36L123.89,89.44L124.14,88.50L124.48,87.54L124.90,86.60L125.41,85.69L125.98,84.83L126.61,84.02L126.99,83.61L127.28,83.29L127.99,82.66L128.72,82.12L129.46,81.70L130.19,81.40L130.90,81.22L131.58,81.17L131.97,81.22"/><path d="M123.63,77.33L124.31,77.22L124.83,77.34"/><path d="M124.13,93.45L124.07,93.32L124.10,93.36"/><path d="M124.07,93.32L124.04,93.27"/><path d="M130.90,81.22L130.68,81.24"/><path d="M245.92,163.87L245.00,163.09L244.75,162.57L244.42,161.87L244.22,160.32L244.42,158.53L244.71,157.59L245.00,156.65L245.92,154.82L247.11,153.16L248.48,151.81L249.93,150.87L251.36,150.39L252.65,150.43L253.71,150.97"/><path d="M243.65,162.58L243.60,162.56L243.87,162.69"/><path d="M244.53,160.97L244.45,160.35L244.64,158.59L245.21,156.74L246.12,154.94L247.29,153.31L248.64,151.98L250.07,151.04L251.47,150.58L252.75,150.61L253.79,151.14L254.03,151.46L253.21,150.98L252.07,150.70L250.75,150.91L249.36,151.60L247.99,152.72L246.75,154.17L245.73,155.86L245.00,157.66L244.63,159.44L244.63,161.06L245.00,162.40L245.73,163.37L246.86,164.03L246.12,163.85L245.21,163.08L244.64,161.89L244.53,160.97"/><path d="M246.86,164.03L247.06,164.14"/><path d="M256.49,152.91L255.47,152.39L254.23,152.35L252.86,152.81L251.47,153.72L250.15,155.02L249.01,156.61L248.13,158.37L247.57,160.17L247.38,161.88L247.57,163.38L248.13,164.54L249.01,165.29"/><path d="M249.29,165.36L249.11,165.26L248.24,164.51L247.69,163.36L247.50,161.88L247.69,160.19L248.24,158.41L249.11,156.66L250.24,155.09L251.54,153.81L252.92,152.91L254.27,152.46L255.50,152.49L256.61,153.07"/><path d="M251.56,166.18L250.45,165.91L249.59,165.18L249.05,164.04L248.86,162.58L249.05,160.92L249.59,159.16L250.45,157.44L251.56,155.89L252.85,154.63L254.21,153.74L255.53,153.30L256.75,153.33L257.75,153.83"/><path d="M249.77,163.93L249.48,163.00L249.48,161.46L249.87,159.78L250.62,158.09L251.65,156.54L252.88,155.27L254.20,154.40L255.49,154.01L256.63,154.11L257.53,154.72L258.10,155.77L258.30,157.17L258.10,158.80L257.53,160.51L256.63,162.15L255.49,163.57L254.20,164.65L252.92,165.27L251.65,165.44L250.62,165.07L249.87,164.24L249.77,163.93"/><path d="M251.04,149.38L251.43,149.63"/><path d="M252.26,150.14L253.18,150.70"/><path d="M254.03,151.46L254.13,151.52"/></g><g style="stroke:#000000;stroke-width:0.529"><path d="M177.80,107.29L250.69,149.10L251.32,149.50L251.43,149.63L252.26,150.14L253.71,150.97L254.13,151.52L256.49,152.91L256.61,153.07L257.53,153.59L257.75,153.83L258.45,154.78L258.82,156.08L258.87,156.85L258.82,157.66L258.45,159.39L257.75,161.15L256.75,162.80L255.54,164.21L254.21,165.30L252.85,165.97L251.56,166.18L250.13,165.84L249.29,165.36L249.01,165.29L247.06,164.14L245.92,163.87L243.87,162.69L243.44,162.53L125.41,94.83L124.91,94.50L124.55,94.11L117.81,90.21L117.53,89.83L117.31,89.71"/><path d="M124.61,77.22L124.83,77.34L125.49,77.50L131.97,81.22L132.20,81.25L132.78,81.47L176.97,106.81"/></g></g><g id="Actor_.8"><g style="stroke:#000000;stroke-width:0.176"><path d="M117.25,80.61L117.14,80.68L116.95,80.89L116.79,81.14L116.68,81.42L116.64,81.66"/><path d="M117.76,82.17L117.75,82.25L118.10,82.36L118.50,81.93L118.56,81.40L118.21,81.29L117.81,81.71L117.76,82.17L118.10,82.36"/><path d="M118.50,81.93L118.07,81.69L118.10,81.41"/><path d="M117.78,81.97L117.86,81.90L117.78,81.99"/><path d="M117.86,81.90L117.97,81.76L118.05,81.60L118.09,81.44L118.10,81.42L118.10,81.41"/><path d="M118.07,81.69L117.87,81.90"/></g><g style="stroke:#000000;stroke-width:0.529"><path d="M116.64,81.66L116.64,81.68L116.67,81.91L116.77,82.07L117.55,82.52L117.70,82.60L117.73,82.61L117.92,82.61L117.95,82.61L118.16,82.51L118.17,82.50L118.37,82.34L118.54,82.11L118.67,81.86L118.74,81.60L118.74,81.37L118.74,81.34L118.68,81.15L118.67,81.12L118.54,81.00L118.52,80.98L117.74,80.53L117.56,80.49L117.36,80.54L117.25,80.61"/></g></g><g id="Actor_.9"><g style="stroke:#000000;stroke-width:0.176"><path d="M125.88,75.69L125.92,75.65L126.03,75.58"/><path d="M126.54,77.13L126.53,77.21L126.87,77.32L126.54,77.13L126.58,76.68L126.99,76.25L127.34,76.36L127.28,76.90L126.87,77.32"/><path d="M127.28,76.90L126.85,76.65L126.88,76.37"/><path d="M126.87,76.37L126.87,76.38L126.87,76.41L126.83,76.57L126.75,76.73L126.64,76.86L126.85,76.65"/><path d="M126.56,76.94L126.64,76.86L126.55,76.96"/></g><g style="stroke:#000000;stroke-width:0.529"><path d="M125.49,76.95L125.55,77.04L126.32,77.49L126.48,77.57L126.51,77.58L126.70,77.57L126.73,77.57L126.93,77.48L126.95,77.47L127.15,77.30L127.32,77.08L127.45,76.83L127.52,76.57L127.52,76.33L127.52,76.31L127.46,76.11L127.44,76.09L127.32,75.96L127.29,75.94L126.52,75.50L126.34,75.46L126.13,75.51L126.03,75.58"/></g></g><g id="Actor_.10"><g style="stroke:#000000;stroke-width:0.176"><path d="M114.90,86.62L114.94,86.38L115.04,86.10L115.20,85.85L115.40,85.64L115.51,85.57"/><path d="M116.35,87.32L116.02,87.12L116.01,87.21L116.35,87.32L116.76,86.89L116.33,86.65L116.36,86.37"/><path d="M116.33,86.65L116.12,86.86L116.23,86.72L116.31,86.56L116.35,86.40L116.35,86.38L116.35,86.37"/><path d="M116.03,86.95L116.12,86.86L116.04,86.93"/><path d="M116.76,86.89L116.82,86.36L116.47,86.25L116.06,86.67L116.02,87.12"/></g><g style="stroke:#000000;stroke-width:0.529"><path d="M115.51,85.57L115.61,85.50L115.82,85.45L116.00,85.49L116.77,85.94L116.80,85.96L116.92,86.08L116.94,86.11L117.00,86.30L117.00,86.32L117.00,86.56L116.93,86.82L116.80,87.07L116.63,87.29L116.43,87.46L116.41,87.47L116.21,87.56L116.18,87.57L115.99,87.57L115.96,87.56L115.80,87.48L115.03,87.03L114.93,86.87L114.90,86.64L114.90,86.62"/></g></g><g id="Actor_.11"><g style="stroke:#000000;stroke-width:0.176"><path d="M113.96,87.21L113.93,87.32L113.94,87.45L113.99,87.58L114.06,87.71L114.16,87.82L114.26,87.90L114.37,87.95L114.46,87.94L114.53,87.89L114.57,87.81L114.58,87.69L114.55,87.55L114.50,87.41L114.42,87.29L114.32,87.19L114.21,87.13L114.11,87.11L114.02,87.14L113.96,87.21"/><path d="M115.53,83.97L115.24,84.76L114.85,86.85L114.85,88.78L115.24,90.41L115.52,90.87"/><path d="M115.66,91.10L116.01,91.67L116.75,92.21"/><path d="M116.76,81.21L116.01,82.62L115.67,83.59"/><path d="M117.11,92.48L116.87,92.30"/><path d="M117.79,90.19L117.60,90.09L116.89,89.14"/><path d="M116.51,87.87L116.56,88.06"/><path d="M120.51,76.76L120.03,77.10L118.48,78.67L117.11,80.55L116.86,81.03"/><path d="M122.61,75.52L121.68,75.92L120.78,76.57"/><path d="M122.50,77.44L122.73,77.32"/><path d="M123.81,77.14L124.10,77.09L125.27,77.38L125.39,77.48"/><path d="M126.24,75.31L124.88,75.00L123.33,75.21L122.84,75.42"/></g><g style="stroke:#000000;stroke-width:0.529"><path d="M126.48,75.49L126.24,75.31L121.92,72.83L120.56,72.53L119.01,72.73L117.36,73.45L115.71,74.62L114.16,76.19L112.80,78.07L111.70,80.14L110.93,82.28L110.53,84.38L110.53,86.30L110.93,87.94L111.70,89.20L112.80,90.00L117.11,92.48L117.23,92.51"/><path d="M116.51,87.87L116.46,87.72L116.46,87.43"/><path d="M116.52,85.79L116.67,85.09"/><path d="M117.54,82.52L117.21,83.36"/><path d="M118.10,92.70L118.48,92.79L118.54,92.78"/><path d="M118.47,80.95L118.64,80.66L119.00,80.23"/><path d="M120.21,92.50L120.40,92.42"/><path d="M120.80,78.45L120.24,78.90"/><path d="M122.50,77.44L122.16,77.61"/><path d="M127.52,76.41L127.68,76.68"/><path d="M128.36,78.38L128.39,78.53"/></g></g><g id="Actor_.12"><g style="stroke:#000000;stroke-width:0.176"><path d="M114.90,88.87L114.94,88.63L115.04,88.35L115.20,88.10L115.40,87.89L115.51,87.82"/><path d="M116.02,89.37L116.01,89.46L116.35,89.57L116.76,89.14L116.82,88.61L116.47,88.50L116.06,88.92L116.02,89.37L116.35,89.57"/><path d="M116.35,88.62L116.35,88.63L116.35,88.65L116.31,88.81L116.23,88.97L116.12,89.11L116.33,88.90L116.36,88.62"/><path d="M116.33,88.90L116.76,89.14"/><path d="M116.03,89.20L116.12,89.11L116.04,89.18"/></g><g style="stroke:#000000;stroke-width:0.529"><path d="M114.90,88.87L114.90,88.89L114.93,89.12L115.03,89.28L115.80,89.73L115.96,89.81L115.99,89.82L116.18,89.82L116.21,89.81L116.41,89.72L116.43,89.71L116.63,89.54L116.80,89.32L116.93,89.07L117.00,88.81L117.00,88.57L117.00,88.55L116.94,88.36L116.92,88.33L116.80,88.21L116.77,88.18L116.00,87.74L115.82,87.70L115.61,87.75L115.51,87.82"/></g></g><g id="Actor_.13"><g style="stroke:#000000;stroke-width:0.176"><path d="M123.91,75.91L123.99,75.69L124.15,75.43L124.35,75.22L124.46,75.15"/><path d="M124.96,76.71L124.96,76.79L125.30,76.90L124.96,76.71L125.01,76.26L125.42,75.83L125.76,75.94L125.71,76.48L125.30,76.90"/><path d="M125.71,76.48L125.27,76.23L125.30,75.95"/><path d="M125.27,76.23L125.07,76.44L125.18,76.31L125.26,76.15L125.30,75.99L125.30,75.96L125.30,75.95"/><path d="M124.98,76.54L125.07,76.44L124.99,76.52"/></g><g style="stroke:#000000;stroke-width:0.529"><path d="M124.46,75.15L124.56,75.09L124.77,75.04L124.94,75.07L125.72,75.52L125.75,75.54L125.87,75.66L125.89,75.69L125.95,75.88L125.95,75.91L125.94,76.15L125.88,76.40L125.75,76.66L125.58,76.88L125.38,77.04L125.36,77.06L125.16,77.15L125.13,77.15L124.94,77.16L124.91,77.15L124.75,77.06L124.06,76.66"/></g></g><g id="Actor_.14"><g style="stroke:#000000;stroke-width:0.176"><path d="M122.00,76.57L122.04,76.33L122.15,76.05L122.31,75.80L122.50,75.59L122.61,75.52"/><path d="M123.46,77.27L123.12,77.07L123.11,77.16L123.46,77.27L123.86,76.84L123.43,76.59L123.23,76.81L123.33,76.67L123.41,76.51L123.45,76.35L123.46,76.33L123.43,76.59"/><path d="M123.14,76.90L123.23,76.81L123.14,76.88"/><path d="M123.12,77.07L123.17,76.62L123.57,76.20L123.92,76.31L123.86,76.84"/><path d="M123.46,76.32L123.46,76.33L123.46,76.32"/></g><g style="stroke:#000000;stroke-width:0.529"><path d="M122.61,75.52L122.72,75.45L122.92,75.40L123.10,75.44L123.88,75.88L123.90,75.90L124.03,76.03L124.04,76.06L124.10,76.25L124.10,76.27L124.10,76.51L124.03,76.77L123.90,77.02L123.73,77.24L123.53,77.41L123.52,77.42L123.31,77.51L123.28,77.51L123.09,77.52L123.06,77.51L122.91,77.43L122.13,76.98L122.03,76.82L122.00,76.59L122.00,76.57"/></g></g><g id="Actor_.15"><g style="stroke:#000000;stroke-width:0.176"><path d="M100.27,85.66L98.99,84.82L98.68,84.41L98.02,83.52L97.43,81.81L97.23,79.78L97.43,77.51L98.02,75.12L98.99,72.71L100.27,70.41L101.82,68.31L103.55,66.51L105.40,65.10L107.26,64.15L109.06,63.70L110.71,63.76L112.13,64.35"/><path d="M98.59,83.84L98.53,83.67L98.53,83.46L98.59,83.22L98.70,82.98L98.73,82.95L98.86,82.78L99.04,82.62L99.22,82.53L99.40,82.52L99.53,82.59L99.62,82.73L99.65,82.92L99.62,83.15L99.53,83.39L99.40,83.62L99.22,83.80L99.04,83.93L98.86,83.98L98.70,83.95L98.59,83.84"/><path d="M98.65,74.84L98.59,74.78L98.53,74.61L98.53,74.39L98.59,74.15L98.70,73.92L98.86,73.71L99.04,73.55L99.22,73.46L99.40,73.45L99.53,73.52L99.62,73.66L99.65,73.85L99.62,74.08L99.53,74.33L99.40,74.55L99.22,74.74L99.04,74.86L98.86,74.91L98.70,74.88L98.65,74.84"/><path d="M98.65,84.73L98.66,84.73"/><path d="M99.59,82.07L99.04,80.62L98.85,78.85L99.04,76.87L99.59,74.77L99.69,74.55L100.49,72.68L101.67,70.71L103.08,68.95L104.64,67.52L106.27,66.48L107.88,65.88L109.37,65.77L110.68,66.15L111.51,66.67L110.32,66.06L108.91,65.92L107.35,66.28L105.73,67.10L104.95,67.70L104.12,68.35L102.62,69.95L101.32,71.83L100.27,73.88L99.54,75.98L99.16,78.03L99.16,79.92L99.54,81.54L100.27,82.81L101.32,83.65L100.49,83.13L99.59,82.07"/><path d="M104.68,85.36L101.55,83.56L100.52,82.74L99.80,81.49L99.43,79.90L99.43,78.05L99.63,76.97L99.80,76.04L100.52,73.97L101.55,71.97L102.83,70.13L104.29,68.55L105.87,67.33L107.46,66.52L108.99,66.17L110.38,66.31L111.54,66.91L114.39,68.54"/><path d="M101.32,83.65L102.09,83.88"/><path d="M103.76,81.90L103.97,82.54L104.39,83.23L104.94,83.84L105.54,84.30L106.10,84.58L106.58,84.65L106.93,84.48L106.94,84.46L106.69,84.58L106.16,84.55L105.58,84.27L105.02,83.79L104.54,83.15L104.19,82.42L104.00,81.67L104.00,81.01L104.19,80.48L104.47,80.22L104.39,80.24L103.97,80.61L103.73,81.16L103.73,81.83L103.76,81.90"/><path d="M104.47,81.90L104.59,82.39L104.85,82.93L105.21,83.40L105.62,83.76L106.04,83.96L106.43,83.99L106.75,83.83L106.95,83.52L107.02,83.07L107.01,83.01L106.97,82.99L106.56,82.63L106.20,82.16L105.94,81.62L105.80,81.07L105.80,80.91L105.62,80.78L105.21,80.67L104.85,80.73L104.59,80.97L104.46,81.36L104.46,81.85L104.47,81.90"/><path d="M106.94,84.46L107.14,84.09L107.21,83.49L107.14,82.77L106.93,81.98L106.58,81.25L106.10,80.64L105.54,80.25L104.95,80.11L104.47,80.22"/><path d="M107.00,82.91L106.98,82.90L106.59,82.56L106.26,82.12L106.01,81.62L105.88,81.10L105.88,80.96L105.80,80.91"/><path d="M105.88,80.96L106.04,81.07L106.43,81.49L106.75,82.00L106.95,82.55L107.01,83.01"/><path d="M105.64,66.49L105.82,66.44L106.00,66.31L106.17,66.13L106.31,65.90L106.40,65.66L106.43,65.43L106.40,65.24L106.31,65.10L106.17,65.03L106.00,65.04L105.82,65.13L105.64,65.29L105.48,65.50L105.36,65.73L105.30,65.97L105.30,66.19L105.36,66.36L105.48,66.46L105.64,66.49"/><path d="M121.67,72.78L121.11,72.52L119.64,72.47L118.03,72.94L116.37,73.89L114.76,75.27L114.39,75.71L113.29,77.01L112.05,78.99L111.10,81.12L110.96,81.65L110.52,83.25L110.32,85.27L110.52,87.07L111.10,88.53L111.66,89.15"/><path d="M111.08,88.19L111.21,88.50L111.40,88.72"/><path d="M110.55,86.38L110.62,87.05L110.84,87.60"/><path d="M118.79,72.83L118.08,73.03L116.43,73.98L114.83,75.35L113.37,77.07L112.14,79.04L111.21,81.15L110.62,83.27L110.42,85.27L110.53,86.21"/><path d="M111.74,89.23L112.05,89.57"/><path d="M112.11,89.50L112.14,89.53L112.18,89.55"/><path d="M112.29,67.11L112.26,67.11L112.14,67.00L112.08,66.83L112.08,66.62L112.14,66.38L112.26,66.14L112.41,65.93L112.59,65.78L112.78,65.69L112.95,65.68L113.09,65.74L113.18,65.88L113.21,66.08L113.18,66.31L113.09,66.55L112.95,66.78L112.78,66.96L112.59,67.09L112.41,67.14L112.29,67.11"/><path d="M111.51,66.67L111.86,67.09"/><path d="M119.21,72.71L119.67,72.57L120.10,72.59"/><path d="M121.27,72.69L121.13,72.62L120.96,72.62"/></g><g style="stroke:#000000;stroke-width:0.529"><path d="M121.90,72.83L114.39,68.54L114.05,66.94L113.26,65.42L112.13,64.35L110.51,63.42L109.09,62.84L107.44,62.77L105.64,63.22L103.78,64.17L101.93,65.58L100.20,67.38L98.65,69.48L97.37,71.79L96.41,74.19L95.81,76.58L95.61,78.85L95.81,80.85L95.81,80.88L96.41,82.59L97.37,83.89L98.65,84.73L100.27,85.66L101.82,85.98L103.55,85.79L104.68,85.36L112.05,89.57L112.45,89.75"/></g></g><g id="Actor_.16"><g style="stroke:#000000;stroke-width:0.176"><path d="M116.68,91.61L116.64,91.83"/><path d="M117.76,92.34L117.75,92.42L118.10,92.53L117.76,92.34L117.81,91.88L118.21,91.46L118.56,91.57L118.50,92.10L118.10,92.53"/><path d="M118.50,92.10L118.07,91.86L118.10,91.58"/><path d="M118.07,91.86L117.87,92.07L117.97,91.93L118.05,91.77L118.09,91.61L118.10,91.59L118.10,91.58"/><path d="M117.78,92.14L117.87,92.07L117.78,92.16"/></g><g style="stroke:#000000;stroke-width:0.529"><path d="M116.64,91.83L116.64,91.85L116.67,92.08L116.77,92.24L117.55,92.69L117.70,92.77L117.73,92.78L117.92,92.78L117.95,92.77L118.16,92.68L118.17,92.67L118.37,92.51L118.54,92.28L118.67,92.03L118.74,91.77L118.74,91.54L118.74,91.51L118.68,91.32L118.67,91.29L118.54,91.17L118.52,91.15L117.74,90.70L117.58,90.67"/></g></g><g id="Actor_.17"><g style="stroke:#000000;stroke-width:0.176"><path d="M200.42,184.98L199.28,184.94L198.53,185.21L198.02,185.39L196.74,186.29L195.56,187.56L194.58,189.10L193.90,190.75L193.57,192.38L193.61,193.84L193.89,194.60L194.04,195.01L194.80,195.77"/></g><g style="stroke:#000000;stroke-width:0.529"><path d="M200.70,185.15L200.42,184.98L199.61,184.52L198.47,184.48L197.21,184.92L195.93,185.82L194.93,186.90L194.75,187.10L193.77,188.63L193.09,190.29L192.76,191.92L192.80,193.38L193.23,194.54L193.99,195.30L194.80,195.77L194.97,195.82"/></g></g><g id="Actor_.18"><g style="stroke:#000000;stroke-width:0.176"><path d="M31.56,98.71L31.58,97.65L31.89,96.46L32.47,95.31L33.25,94.31L34.14,93.56"/><path d="M35.13,93.14L34.60,93.38L33.58,94.24L32.69,95.39L32.03,96.71L31.67,98.06L31.65,98.99"/><path d="M34.42,101.93L33.80,101.31L33.48,100.34L33.50,99.11L33.58,98.80L33.86,97.77L34.52,96.44L35.41,95.29L36.43,94.43L36.73,94.30L37.48,93.96L38.43,93.93L39.18,94.33"/><path d="M35.23,101.36L35.25,101.37"/><path d="M35.15,101.35L36.15,101.90"/><path d="M37.37,93.31L37.35,93.28"/><path d="M37.85,102.92L37.87,101.85L37.85,102.87"/><path d="M37.87,101.85L37.87,101.67L38.24,100.30L38.91,98.96L39.82,97.78L40.86,96.91L39.75,97.81L38.88,98.95L38.23,100.25L37.87,101.57L37.87,101.85"/><path d="M38.60,94.96L39.73,95.61"/><path d="M40.86,96.91L41.49,96.62"/><path d="M43.67,96.85L43.65,96.81"/><path d="M48.08,99.38L48.21,99.43"/><path d="M202.42,189.79L202.42,189.86L202.17,189.11L201.68,188.63L201.01,188.48L200.22,188.68L199.40,189.21L198.65,190.00L198.04,190.98L197.63,192.03L197.52,192.55L197.48,193.05L197.60,193.92L197.97,194.55L198.56,194.86L199.30,194.84L200.11,194.47"/><path d="M197.87,194.58L197.49,193.94L197.37,193.05L197.42,192.54L197.53,192.01L197.94,190.93L198.57,189.93L199.34,189.12L200.17,188.58L200.98,188.38L201.67,188.53"/><path d="M197.39,194.30L197.43,194.32"/><path d="M200.06,194.50L200.08,194.48"/></g><g style="stroke:#000000;stroke-width:0.529"><path d="M192.63,181.98L49.98,100.22L49.18,99.79L48.21,99.43L42.89,96.40L41.92,96.43L41.49,96.62L39.73,95.61L39.66,95.14L39.18,94.33L37.35,93.28L36.59,92.87L35.64,92.91L35.13,93.14L35.05,93.14L33.99,93.64L33.15,94.35L32.42,95.30L31.87,96.38L31.57,97.49L31.56,98.71L31.65,98.99L31.64,99.29L31.96,100.26L32.59,100.88L34.42,101.93L35.29,102.12L36.15,101.90L37.85,102.87L38.18,103.91L38.83,104.54L44.00,107.51L44.94,108.27L112.86,147.20"/><path d="M113.73,147.69L187.85,190.18"/><path d="M201.00,188.15L201.67,188.53L202.15,189.00L202.42,189.79L202.40,190.82L202.12,191.87L201.60,192.90L200.91,193.80L200.11,194.47L199.23,194.88L198.48,194.90L197.45,194.33L197.40,194.33"/></g></g><g id="Actor_.19"><g style="stroke:#000000;stroke-width:0.176"><path d="M120.13,91.56L120.12,91.60"/><path d="M121.20,92.17L121.17,92.48L121.51,92.59L121.65,92.44"/><path d="M121.51,92.59L121.18,92.39"/><path d="M121.22,92.18L121.20,92.20"/><path d="M121.22,92.19L121.19,92.22"/></g><g style="stroke:#000000;stroke-width:0.529"><path d="M121.81,92.53L121.79,92.56L121.59,92.73L121.57,92.74L121.37,92.83L121.34,92.83L121.15,92.84L121.12,92.83L120.96,92.75L120.27,92.35"/></g></g><g id="Actor_.20"><g style="stroke:#000000;stroke-width:0.176"><path d="M115.50,90.67L115.54,90.42L115.64,90.15L115.80,89.89L115.91,89.78"/><path d="M116.91,91.35L116.95,91.36L116.62,91.17L116.61,91.25L116.91,91.35"/><path d="M116.95,91.36L117.36,90.94L116.93,90.69L116.96,90.41"/><path d="M117.36,90.94L117.42,90.40L117.07,90.29L116.66,90.72L116.62,91.17"/><path d="M116.93,90.69L116.72,90.90L116.83,90.77L116.91,90.61L116.95,90.45L116.95,90.42L116.95,90.41"/><path d="M116.64,90.98L116.72,90.90L116.63,91.00"/></g><g style="stroke:#000000;stroke-width:0.529"><path d="M115.50,90.67L115.50,90.69L115.53,90.92L115.63,91.08L116.41,91.52L116.56,91.61L116.59,91.62L116.78,91.61L116.81,91.61L117.01,91.52L117.03,91.51L117.23,91.34L117.40,91.12L117.48,90.95L117.53,90.86L117.60,90.61L117.60,90.37L117.60,90.34L117.54,90.15L117.52,90.13L117.40,90.00L117.37,89.98L116.62,89.55"/></g></g><g id="Actor_.21"><g style="stroke:#000000;stroke-width:0.176"><path d="M126.60,77.58L126.56,77.79"/><path d="M128.01,78.49L127.68,78.30L127.67,78.38L128.01,78.49L128.42,78.06L127.99,77.82L128.02,77.54"/><path d="M128.02,77.54L128.02,77.55L128.01,77.57L127.97,77.74L127.89,77.89L127.79,78.03L127.99,77.82"/><path d="M127.70,78.12L127.79,78.03L127.70,78.10"/><path d="M128.42,78.06L128.48,77.53L128.13,77.42L127.73,77.84L127.68,78.30"/></g><g style="stroke:#000000;stroke-width:0.529"><path d="M126.56,77.79L126.56,77.81L126.59,78.04L126.68,78.19"/><path d="M127.50,76.63L127.66,76.66L128.43,77.11L128.46,77.13L128.59,77.25L128.60,77.28L128.66,77.47L128.66,77.50L128.66,77.73L128.59,77.99L128.46,78.24L128.29,78.47L128.09,78.63L128.08,78.64L127.87,78.74L127.84,78.74L127.65,78.74L127.65,78.74"/></g></g><g id="Actor_.22"><g style="stroke:#000000;stroke-width:0.176"><path d="M120.67,76.63L120.56,76.70L120.36,76.91L120.20,77.17L120.10,77.44L120.06,77.68"/><path d="M121.17,78.27L121.51,78.38L121.18,78.19L121.17,78.27"/><path d="M121.51,77.43L121.51,77.44L121.51,77.47L121.47,77.63L121.39,77.78L121.28,77.92L121.49,77.71L121.52,77.43"/><path d="M121.49,77.71L121.92,77.96L121.51,78.38"/><path d="M121.19,78.02L121.28,77.92L121.20,77.99"/><path d="M121.18,78.19L121.22,77.74L121.63,77.31L121.97,77.42L121.92,77.96"/></g><g style="stroke:#000000;stroke-width:0.529"><path d="M120.06,77.68L120.06,77.71L120.09,77.93L120.19,78.10L120.96,78.54L121.12,78.63L121.15,78.64L121.34,78.63L121.37,78.63L121.57,78.53L121.59,78.52L121.79,78.36L121.96,78.14L122.09,77.88L122.16,77.62L122.16,77.39L122.16,77.36L122.10,77.17L122.08,77.14L121.96,77.02L121.93,77.00L121.16,76.55L120.98,76.51L120.77,76.57L120.67,76.63"/></g></g><g id="Actor_.23"><g style="stroke:#000000;stroke-width:0.176"><path d="M128.64,79.31L128.73,79.21L129.08,79.32L129.05,79.55"/></g><g style="stroke:#000000;stroke-width:0.529"><path d="M128.28,78.47L129.04,78.90L129.06,78.92L129.19,79.05L129.20,79.07L129.26,79.27L129.26,79.29L129.26,79.53L129.22,79.65"/></g></g><g id="Actor_.24"><g style="stroke:#000000;stroke-width:0.176"><path d="M119.64,92.94L119.32,92.84L119.33,92.76L119.67,92.95L119.64,92.94"/><path d="M119.33,92.76L119.38,92.31L119.78,91.88L120.13,91.99L120.07,92.52L119.64,92.28L119.67,92.01L119.66,92.04L119.62,92.20L119.54,92.35L119.44,92.49L119.35,92.56"/><path d="M119.64,92.28L119.35,92.58"/><path d="M118.82,91.20L118.71,91.27L118.68,91.31"/><path d="M120.07,92.52L119.67,92.95"/><path d="M119.67,92.00L119.67,92.01L119.67,92.00"/></g><g style="stroke:#000000;stroke-width:0.529"><path d="M118.29,92.58L118.34,92.67L119.12,93.11L119.27,93.19L119.30,93.20L119.49,93.20L119.52,93.20L119.73,93.10L119.74,93.09L119.94,92.93L120.11,92.71L120.24,92.45L120.31,92.19L120.31,91.96L120.31,91.93L120.25,91.74L120.24,91.71L120.11,91.59L120.09,91.57L119.31,91.12L119.13,91.08L118.93,91.13L118.82,91.20"/></g></g><g id="Actor_.25"><g style="stroke:#000000;stroke-width:0.176"><path d="M197.33,183.21L196.19,183.17L194.92,183.61L193.65,184.52L192.47,185.79L191.49,187.32L190.81,188.98L190.47,190.61L190.52,192.07L190.93,193.20L190.95,193.23L191.71,193.99"/></g><g style="stroke:#000000;stroke-width:0.529"><path d="M197.61,183.37L197.33,183.21L196.80,182.91L195.67,182.87L194.40,183.31L193.12,184.22L192.05,185.37L191.94,185.49L190.97,187.02L190.28,188.68L189.95,190.31L190.00,191.77L190.42,192.93L191.19,193.69L191.71,193.99L191.88,194.04"/></g></g><g id="Actor_.26"><g style="stroke:#000000;stroke-width:0.176"><path d="M190.65,193.20L190.38,192.93L190.08,192.45L189.87,191.87L189.75,191.22L189.73,190.50L189.80,189.73L189.97,188.93L190.22,188.11L190.56,187.29L190.97,186.50L191.45,185.74L191.99,185.04L192.55,184.43L192.57,184.42L193.18,183.87L193.81,183.43L194.44,183.09L195.07,182.87L195.67,182.77L196.23,182.79L196.55,182.88"/><path d="M191.37,193.53L191.17,193.38L190.67,192.33L190.52,190.95L190.76,189.38L191.35,187.75L192.24,186.20L193.36,184.87L194.60,183.89L195.86,183.33L197.02,183.25L197.28,183.36"/><path d="M192.37,194.20L192.22,194.08L191.70,193.01L191.56,191.61L191.80,190.02L192.40,188.36L193.30,186.79L193.38,186.70L194.44,185.45L195.70,184.45L196.97,183.88L198.15,183.80L198.30,183.87"/><path d="M192.12,193.31L192.08,193.22L191.93,191.83L192.17,190.23L192.77,188.58L193.68,187.01L194.81,185.66L196.07,184.66L197.34,184.10L198.21,184.04"/><path d="M192.24,193.57L192.59,194.29L192.63,194.32"/><path d="M193.57,194.96L193.03,194.54L192.51,193.47L192.37,192.08L192.61,190.48L193.21,188.83L194.11,187.25L195.25,185.91L196.51,184.91L197.78,184.35L198.96,184.27L199.55,184.52"/><path d="M192.88,193.59L192.89,193.69L193.00,193.91"/><path d="M192.78,192.59L192.75,192.30L192.76,192.18"/><path d="M193.03,190.58L192.99,190.70L192.94,191.03"/><path d="M193.37,194.68L193.41,194.76L193.58,194.89"/><path d="M200.38,185.13L200.11,185.02L198.95,185.10L197.70,185.66L196.45,186.64L195.34,187.97L194.44,189.52L193.85,191.15L193.62,192.73L193.76,194.10L194.27,195.16L194.46,195.31"/><path d="M193.46,189.39L193.59,189.04L193.65,188.93"/><path d="M201.44,185.69L200.92,185.49L199.76,185.57L198.51,186.12L197.26,187.11L196.15,188.44L195.25,189.98L194.66,191.62L194.43,193.19L194.57,194.57L195.07,195.62L195.49,195.97"/><path d="M194.57,187.38L194.49,187.47L194.30,187.80"/><path d="M195.70,194.31L196.23,195.20L197.09,195.70L196.57,194.81L196.40,193.58L196.46,192.88L196.61,192.14L197.19,190.65L198.05,189.27L199.12,188.15L200.27,187.40L201.39,187.12L202.34,187.33L201.48,186.84L200.52,186.63L199.41,186.91L198.26,187.65L197.19,188.78L196.32,190.16L195.75,191.65L195.60,192.38L195.54,193.09L195.70,194.31"/><path d="M195.71,186.06L195.63,186.13L195.39,186.41"/><path d="M200.17,195.56L199.04,196.07L198.35,196.10L198.01,196.11L197.19,195.67L196.67,194.79L196.51,193.58L196.57,192.89L196.72,192.17L197.28,190.70L198.13,189.34L199.19,188.23L200.32,187.50L201.42,187.22L202.36,187.43L203.03,188.10L203.38,189.15"/><path d="M197.09,195.70L197.93,196.15L198.73,196.12"/><path d="M197.30,194.10L197.18,193.75L197.20,192.66L197.52,191.48L198.11,190.31L198.89,189.30L199.79,188.54L200.71,188.12L201.55,188.09L202.21,188.45L202.64,189.16L202.77,190.15L202.60,191.30L202.14,192.49L201.45,193.59L200.59,194.49L200.45,194.59L199.67,195.09L198.78,195.31L198.02,195.15L197.47,194.60L197.30,194.10"/><path d="M197.19,193.68L197.46,194.51L197.80,194.59L197.86,194.57"/><path d="M196.97,185.09L196.89,185.13L196.62,185.34"/><path d="M198.00,194.64L197.83,194.69L197.57,194.63L198.00,195.05L198.75,195.21L199.62,194.99L200.53,194.41L201.36,193.53L202.04,192.44L202.49,191.27L202.55,190.90L202.66,190.15L202.53,189.18L202.12,188.48L201.46,188.13L201.30,188.14L201.47,188.42"/><path d="M197.57,194.63L197.57,194.63L197.83,194.68L197.99,194.64"/><path d="M197.46,194.51L197.46,194.52L197.57,194.63"/><path d="M197.89,184.68L198.16,184.56L198.24,184.56"/><path d="M198.68,194.90L198.78,194.95L198.89,194.99L199.01,195.02L199.13,195.03L199.24,195.01L199.32,194.98L199.36,194.92L199.37,194.86L199.35,194.82"/><path d="M199.40,184.51L199.33,184.48L199.09,184.50"/><path d="M201.30,188.32L201.19,188.14L200.64,188.16L199.77,188.55"/><path d="M200.14,184.82L200.31,184.89"/><path d="M201.30,188.14L201.30,188.14L201.46,188.41"/><path d="M201.30,188.14L201.19,188.14"/><path d="M202.34,187.33L203.03,188.01L203.16,188.40"/></g><g style="stroke:#000000;stroke-width:0.529"><path d="M196.61,182.90L196.55,182.88L194.71,181.85L194.65,181.83L193.89,181.71L193.83,181.71L192.98,181.84L192.09,182.21L192.05,182.24L191.16,182.83L190.30,183.63L189.52,184.59L188.86,185.67L188.34,186.81L187.99,187.97L187.82,189.08L187.85,190.15L188.07,191.04L188.09,191.09L188.50,191.80L189.11,192.33L190.65,193.20L190.76,193.30L190.85,193.35"/><path d="M192.37,194.20L193.05,194.72L193.25,194.83"/><path d="M193.89,195.20L193.86,195.19L193.57,194.96"/><path d="M201.44,185.69L201.87,185.87L202.49,186.40L202.90,187.11L202.93,187.16L203.15,188.06L203.16,188.40L203.38,189.08L203.36,190.48L202.96,191.94L202.25,193.38L201.28,194.63L200.17,195.56L200.12,195.59L198.97,196.11L198.73,196.12L197.97,196.44L197.12,196.57L197.06,196.57L196.29,196.44L196.23,196.43L195.90,196.26L195.58,196.05L195.49,195.97"/><path d="M199.27,184.30L199.12,184.21L198.30,183.87"/><path d="M199.76,184.61L199.93,184.68L200.31,184.89L200.34,184.94"/></g></g><g id="Actor_.27"><g style="stroke:#000000;stroke-width:0.176"><path d="M116.11,83.09L116.00,83.16L115.80,83.36L115.64,83.62L115.54,83.89L115.50,84.14"/><path d="M116.95,84.83L116.62,84.64L116.61,84.72L116.95,84.83L117.36,84.41L116.93,84.16L116.96,83.88"/><path d="M117.36,84.41L117.42,83.87L117.07,83.76L116.66,84.19L116.62,84.64"/><path d="M116.93,84.16L116.72,84.37L116.83,84.24L116.91,84.08L116.95,83.92L116.95,83.89L116.95,83.88"/><path d="M116.63,84.47L116.72,84.37L116.64,84.45"/></g><g style="stroke:#000000;stroke-width:0.529"><path d="M115.50,84.14L115.50,84.16L115.53,84.39L115.63,84.55L116.41,85.00L116.56,85.08L116.59,85.09L116.78,85.08L116.81,85.08L117.01,84.99L117.03,84.98L117.23,84.81L117.40,84.59L117.53,84.34L117.60,84.08L117.60,83.84L117.60,83.82L117.54,83.62L117.52,83.60L117.40,83.47L117.37,83.45L116.60,83.01L116.42,82.97L116.21,83.02L116.11,83.09"/></g></g><g id="Actor_.28"><g style="stroke:#000000;stroke-width:0.176"><path d="M192.52,193.49L192.70,194.11L192.98,194.44"/><path d="M197.77,184.35L197.03,184.56L195.75,185.38L194.54,186.59L193.52,188.08L192.77,189.73L192.37,191.37L192.35,192.88L192.51,193.45"/><path d="M193.12,194.61L193.41,194.95L193.72,195.08"/><path d="M197.79,184.35L198.28,184.20L198.83,184.27"/><path d="M199.69,184.57L199.38,184.34L199.04,184.30"/></g><g style="stroke:#000000;stroke-width:0.529"><path d="M193.73,195.09L193.52,195.00L193.41,194.95L192.66,194.38L192.12,193.33L191.96,191.95L192.17,190.36L192.28,190.05L192.75,188.69L193.65,187.11L194.77,185.74L195.20,185.39L196.03,184.71L197.32,184.12L198.50,184.01L199.38,184.34L199.50,184.39L199.79,184.62"/></g></g><g id="Actor_.29"><g style="stroke:#000000;stroke-width:0.176"><path d="M192.18,194.00L192.04,193.86L191.81,193.23"/><path d="M191.69,192.91L191.62,192.70L191.59,191.91"/><path d="M191.75,190.35L191.57,191.24L191.58,191.50"/><path d="M192.27,188.71L191.90,189.60L191.84,189.90"/><path d="M192.39,194.21L192.81,194.62"/><path d="M193.11,187.12L192.59,187.95L192.46,188.25"/><path d="M193.38,186.70L193.56,186.42L194.20,185.73"/><path d="M194.53,185.38L194.74,185.14L195.44,184.65"/><path d="M196.71,184.00L196.02,184.24L195.79,184.41"/><path d="M197.05,183.88L197.28,183.79L197.90,183.82"/><path d="M198.22,183.83L198.42,183.84"/></g><g style="stroke:#000000;stroke-width:0.529"><path d="M193.00,194.68L192.81,194.62L192.00,194.16L191.23,193.40L190.81,192.23L190.76,190.77L191.09,189.14L191.78,187.49L192.75,185.95L193.93,184.68L195.21,183.78L196.48,183.33L197.61,183.37L198.42,183.84L198.92,184.13"/></g></g><g id="Actor_.30"><g style="stroke:#000000;stroke-width:0.176"><path d="M195.61,196.23L194.85,195.47L194.42,194.31L194.39,193.20L194.38,192.85L194.71,191.21L195.39,189.56L196.37,188.03L197.55,186.75L198.83,185.85L200.09,185.40L201.23,185.45"/></g><g style="stroke:#000000;stroke-width:0.529"><path d="M196.15,196.38L195.61,196.23L195.09,195.93L194.33,195.17L193.90,194.01L193.85,192.55L194.18,190.91L194.87,189.26L195.84,187.73L197.02,186.45L198.30,185.55L199.57,185.10L200.71,185.15L201.23,185.45L202.14,185.98L202.29,186.23"/><path d="M196.48,196.48L196.65,196.52L196.71,196.51"/></g></g><g id="Actor_.31"><g style="stroke:#000000;stroke-width:0.176"><path d="M199.22,195.01L199.24,194.99L199.25,194.94"/><path d="M198.72,194.92L198.71,194.91L198.72,194.89"/></g><g style="stroke:#000000;stroke-width:0.529"><path d="M199.25,194.94L199.29,194.99"/><path d="M199.26,194.86L199.25,194.94"/></g></g><g id="Actor_.32"><g style="stroke:#000000;stroke-width:0.176"><path d="M58.34,51.95L58.62,51.84L59.72,51.01L60.71,49.86L61.49,48.50L61.99,47.06L62.17,45.69L62.12,45.37"/><path d="M62.08,45.39L62.14,45.78L61.97,47.11L61.48,48.51L60.71,49.84L59.75,50.96L58.68,51.77L58.34,51.90"/><path d="M61.96,45.44L62.02,45.81L61.85,47.11L61.37,48.47L60.63,49.76L59.69,50.86L58.64,51.65L58.34,51.77"/></g><g style="stroke:#000000;stroke-width:0.529"><path d="M61.59,45.61L61.43,46.87L60.96,48.23L60.21,49.53L59.27,50.62L58.34,51.33"/></g></g><g id="Actor_.33"><g style="stroke:#000000;stroke-width:0.176"><path d="M67.05,46.31L67.01,46.33"/><path d="M67.30,45.08L67.30,45.08L67.16,45.05L66.98,45.10L66.81,45.22L66.78,45.25"/><path d="M67.47,45.44L67.42,45.30L67.33,45.21L67.20,45.19L67.05,45.23L66.90,45.33L66.83,45.41"/><path d="M67.47,45.34L67.47,45.34"/></g><g style="stroke:#000000;stroke-width:0.529"><path d="M67.30,45.08L67.41,45.18L67.47,45.34L67.47,45.44L67.47,45.62L67.42,45.81L67.33,46.01L67.20,46.18L67.05,46.31L67.01,46.33"/><path d="M67.30,45.08L66.63,44.69"/></g></g><g id="Actor_.34"><g style="stroke:#000000;stroke-width:0.176"><path d="M58.48,56.04L58.48,56.04L58.33,56.02L58.16,56.07L57.98,56.18L57.82,56.36L57.69,56.57L57.60,56.80L57.57,57.02L57.60,57.21L57.69,57.34"/><path d="M58.65,56.40L58.60,56.26L58.50,56.18L58.37,56.16L58.23,56.20L58.07,56.30L57.93,56.45L57.82,56.64L57.75,56.83L57.72,57.02L57.75,57.18L57.82,57.30L57.93,57.35L58.07,57.35L58.23,57.27"/><path d="M58.65,56.31L58.65,56.31"/></g><g style="stroke:#000000;stroke-width:0.529"><path d="M58.48,56.04L58.59,56.14L58.65,56.31L58.65,56.40L58.65,56.58L58.60,56.78L58.50,56.97L58.37,57.14L58.23,57.27L58.16,57.31L57.98,57.40L57.82,57.41L57.69,57.34L56.32,56.56"/><path d="M58.48,56.04L57.07,55.24"/></g></g><g id="Actor_.35"><g style="stroke:#000000;stroke-width:0.176"><path d="M61.42,41.64L61.27,41.61L61.10,41.66L60.92,41.78L60.76,41.95L60.63,42.17L60.54,42.40L60.52,42.62L60.54,42.80L60.63,42.94"/><path d="M61.59,42.00L61.54,41.86L61.44,41.77L61.32,41.75L61.17,41.79L61.01,41.89L60.87,42.05L60.76,42.23L60.69,42.43L60.66,42.62L60.69,42.78L60.76,42.89L60.87,42.95L61.01,42.94L61.17,42.87"/></g><g style="stroke:#000000;stroke-width:0.529"><path d="M58.38,39.45L57.74,39.09L57.70,39.07L57.48,39.03L57.44,39.04L57.19,39.11L57.16,39.12L56.91,39.29L56.68,39.54L56.50,39.84L56.38,40.17L56.34,40.48L56.34,40.51L56.38,40.78L56.39,40.81L56.42,40.84"/><path d="M60.02,40.84L61.42,41.64L61.53,41.74L61.59,41.90L61.59,42.00L61.59,42.18L61.54,42.37L61.44,42.57L61.32,42.74L61.17,42.87L61.10,42.91L60.92,42.99L60.76,43.00L60.63,42.94L59.27,42.16"/></g></g><g id="Actor_.36"><g style="stroke:#000000;stroke-width:0.176"><path d="M60.63,56.57L60.63,56.57L60.54,56.44L60.52,56.25L60.54,56.04"/><path d="M60.70,56.02L60.69,56.06L60.66,56.25L60.69,56.41L60.76,56.52L60.87,56.58L61.01,56.57L61.17,56.50"/></g><g style="stroke:#000000;stroke-width:0.529"><path d="M60.63,56.57L60.76,56.63L60.92,56.62L61.10,56.54L61.17,56.50L61.32,56.37L61.44,56.20L61.54,56.00L61.59,55.81L61.59,55.67"/><path d="M59.89,56.15L60.63,56.57"/></g></g><g id="Actor_.37"><g style="stroke:#000000;stroke-width:0.176"/><g style="stroke:#000000;stroke-width:0.529"><path d="M57.53,55.30L57.36,55.23L57.31,55.20L56.68,54.67L56.65,54.63L56.18,53.89L55.89,52.96L55.88,52.91L55.79,51.83L55.88,50.65L56.17,49.40L56.36,48.87"/><path d="M56.49,48.52L56.63,48.14L57.25,46.90L58.01,45.75L58.30,45.41"/><path d="M64.73,43.07L64.50,42.87L64.44,42.84L63.68,42.55L63.62,42.55L62.75,42.51L61.81,42.72L61.76,42.73L60.78,43.18L59.81,43.85L58.87,44.72L58.51,45.15"/></g></g><g id="Actor_.38"><g style="stroke:#000000;stroke-width:0.176"><path d="M63.80,45.29L64.24,45.98L64.42,47.15L64.24,48.54L63.71,49.99L62.88,51.34L61.86,52.45L60.74,53.19L59.65,53.50L59.09,53.40"/></g><g style="stroke:#000000;stroke-width:0.529"><path d="M63.37,45.15L63.70,45.67L63.88,46.84L63.70,48.23L63.17,49.68L62.34,51.03L61.32,52.14L60.20,52.89L59.11,53.19L58.80,53.13"/></g></g><g id="Actor_.39"><g style="stroke:#000000;stroke-width:0.176"><path d="M56.33,54.78L56.18,54.76L56.00,54.81L55.83,54.92L55.66,55.10L55.53,55.31L55.45,55.54L55.42,55.76L55.45,55.95L55.53,56.08"/><path d="M56.49,55.14L56.44,55.01L56.35,54.92L56.22,54.90L56.07,54.94L55.92,55.04L55.78,55.19L55.67,55.38L55.59,55.57L55.57,55.76L55.59,55.92L55.67,56.04L55.78,56.09L55.92,56.09L56.07,56.01"/></g><g style="stroke:#000000;stroke-width:0.529"><path d="M52.04,54.52L51.46,54.18L51.43,54.15L51.30,53.96L51.28,53.93L51.24,53.65L51.24,53.63L51.28,53.31L51.40,52.99L51.47,52.88"/><path d="M54.92,53.98L56.33,54.78L56.43,54.88L56.49,55.05L56.49,55.14L56.49,55.32L56.44,55.52L56.35,55.71L56.22,55.88L56.07,56.01L56.00,56.05L55.83,56.14L55.66,56.15L55.53,56.08L54.17,55.30"/></g></g><g id="Actor_.40"><g style="stroke:#000000;stroke-width:0.176"><path d="M55.54,51.83L55.39,51.80L55.22,51.85L55.04,51.97L54.88,52.14L54.75,52.36L54.66,52.59L54.63,52.81L54.66,52.99L54.75,53.13"/><path d="M55.71,52.19L55.66,52.05L55.62,52.02L55.56,51.96L55.43,51.94L55.28,51.98L55.13,52.08L54.99,52.24L54.88,52.42L54.81,52.62L54.78,52.81L54.81,52.97L54.88,53.08L54.99,53.14L55.13,53.13L55.28,53.06"/></g><g style="stroke:#000000;stroke-width:0.529"><path d="M51.55,49.23L51.31,49.30L51.28,49.31L51.03,49.48L50.80,49.73L50.61,50.03L50.49,50.36L50.45,50.67L50.45,50.70L50.50,50.97L50.51,51.00L50.64,51.20L50.67,51.22L51.33,51.60"/><path d="M54.13,51.03L55.54,51.83L55.65,51.93L55.70,52.09L55.71,52.19L55.71,52.37L55.66,52.56L55.56,52.76L55.43,52.93L55.28,53.06L55.22,53.10L55.04,53.18L54.88,53.19L54.75,53.13L53.38,52.35"/></g></g><g id="Actor_.41"><g style="stroke:#000000;stroke-width:0.176"><path d="M65.72,43.42L65.72,43.42L65.64,43.29L65.61,43.10L65.64,42.88L65.72,42.65L65.86,42.44L66.02,42.26L66.19,42.15L66.37,42.10L66.52,42.12L66.52,42.12"/><path d="M66.68,42.48L66.63,42.34L66.54,42.26L66.41,42.24L66.26,42.28L66.11,42.38L65.97,42.53L65.86,42.72L65.78,42.91L65.76,43.10L65.78,43.26L65.86,43.38L65.97,43.43L66.11,43.42L66.26,43.35"/><path d="M66.68,42.39L66.68,42.39"/></g><g style="stroke:#000000;stroke-width:0.529"><path d="M66.52,42.12L66.63,42.22L66.68,42.39L66.68,42.48L66.68,42.66L66.63,42.86L66.54,43.05L66.41,43.22L66.26,43.35L66.19,43.39L66.02,43.48L65.86,43.49L65.72,43.42L64.36,42.64"/><path d="M66.52,42.12L65.11,41.32"/></g></g><g id="Actor_.42"><g style="stroke:#000000;stroke-width:0.176"><path d="M263.55,172.73L263.49,172.67L263.41,172.64L263.34,172.63L263.29,172.66L263.26,172.71L263.24,172.79L263.26,172.88L263.29,172.98L263.34,173.07L263.41,173.14L263.49,173.19L263.56,173.21L263.62,173.20L263.67,173.16L263.69,173.09L263.69,173.05L263.69,173.02"/><path d="M263.31,172.83L263.39,173.03L263.55,173.12L263.62,173.01L263.55,172.81L263.39,172.72L263.31,172.83L263.45,172.75"/><path d="M263.39,173.03L263.59,172.92"/></g><g style="stroke:#000000;stroke-width:0.529"><path d="M263.65,173.25L263.60,173.25L263.52,173.23L263.43,173.17L263.35,173.08L263.28,172.98L263.24,172.86L263.22,172.75L263.24,172.66L263.28,172.60"/></g></g><g id="Actor_.43"><g style="stroke:#000000;stroke-width:0.176"><path d="M262.97,173.56L262.97,171.68L263.27,170.10L263.36,169.62L264.11,167.52L265.19,165.49L266.53,163.66L268.05,162.11L269.66,160.96"/><path d="M262.97,173.28L262.97,173.29"/><path d="M263.16,172.79L263.18,172.90L263.22,173.01L263.29,173.12L263.37,173.20L263.46,173.26L263.54,173.29L263.62,173.27L263.67,173.23L263.70,173.15L263.70,173.04L263.67,172.93L263.62,172.81L263.54,172.71L263.46,172.64L263.37,172.60L263.29,172.59L263.22,172.63L263.18,172.69L263.16,172.79"/><path d="M273.99,182.24L272.91,181.45L272.15,180.21L271.76,178.61L271.76,176.72L272.03,175.35L272.15,174.67L272.91,172.57L273.99,170.54L274.96,169.20L275.33,168.70L276.85,167.16L278.46,166.01L280.08,165.31L281.60,165.10L282.94,165.41"/><path d="M278.73,181.48L277.18,182.15L275.72,182.35L274.44,182.06L273.40,181.30L272.68,180.11L272.30,178.57L272.30,178.50L272.30,176.76L272.68,174.79L273.40,172.77L274.44,170.83L275.72,169.06L275.86,168.92L277.18,167.58L278.73,166.48L280.28,165.80L281.74,165.61L283.03,165.90L284.06,166.66L284.79,167.84L285.16,169.39"/><path d="M273.66,177.46L273.51,177.43L273.40,177.33L273.34,177.17L273.34,176.97L273.40,176.74L273.51,176.51L273.66,176.32L273.79,176.20L273.83,176.17L274.01,176.08L274.17,176.07L274.30,176.14L274.39,176.27L274.41,176.46L274.39,176.68L274.30,176.90L274.17,177.12L274.01,177.30L273.83,177.41L273.66,177.46"/><path d="M277.45,177.56L277.57,177.58L277.71,177.55L277.85,177.45L277.98,177.31L278.09,177.14L278.16,176.95L278.18,176.78L278.16,176.63L278.09,176.52L277.98,176.47L277.85,176.48L277.75,176.53L277.71,176.55L277.57,176.67L277.45,176.83L277.37,177.01L277.32,177.19L277.32,177.35L277.37,177.48L277.45,177.56"/><path d="M278.08,175.26L278.04,175.25L277.83,175.06L277.72,174.75L277.72,174.36L277.83,173.93L278.04,173.50L278.32,173.13L278.65,172.84L278.98,172.68L279.29,172.66L279.54,172.78L279.70,173.04L279.76,173.39L279.70,173.81L279.54,174.24L279.29,174.65L278.98,174.99L278.65,175.21L278.32,175.30L278.08,175.26"/><path d="M277.85,172.49L277.71,172.58L277.57,172.62L277.45,172.60L277.37,172.52L277.32,172.39L277.32,172.22L277.37,172.04L277.45,171.86L277.57,171.70L277.71,171.58L277.85,171.52L277.98,171.51L278.09,171.56L278.16,171.66L278.18,171.81L278.16,171.99L278.09,172.17L277.98,172.34L277.85,172.49"/><path d="M277.96,165.42L278.02,165.49L278.03,165.56L278.01,165.62L277.94,165.68L277.92,165.70L277.85,165.73L277.73,165.76L277.61,165.76L277.49,165.75L277.38,165.70L277.31,165.65L277.27,165.57L277.28,165.50L277.33,165.43L277.41,165.38L277.51,165.34L277.64,165.33L277.76,165.34L277.87,165.37L277.96,165.42"/><path d="M279.42,176.43L279.54,176.45L279.68,176.42L279.82,176.32L279.95,176.18L280.06,176.01L280.13,175.82L280.15,175.65L280.13,175.50L280.06,175.39L279.95,175.34L279.82,175.35L279.72,175.40L279.68,175.42L279.54,175.54L279.42,175.70L279.34,175.88L279.29,176.06L279.29,176.22L279.34,176.35L279.42,176.43"/><path d="M279.99,171.15L279.95,171.21L279.82,171.36L279.68,171.45L279.54,171.49L279.42,171.47L279.34,171.39L279.29,171.26L279.29,171.09L279.34,170.91L279.42,170.73L279.54,170.57L279.68,170.45L279.82,170.39L279.95,170.38L280.06,170.43L280.13,170.53L280.15,170.68L280.13,170.86L280.06,171.04L279.99,171.15"/><path d="M283.11,171.74L283.12,171.76L283.22,171.86L283.37,171.89L283.55,171.84L283.72,171.72L283.89,171.55L284.02,171.33L284.10,171.10L284.13,170.88L284.10,170.70L284.02,170.56L283.89,170.50L283.72,170.51L283.55,170.59L283.37,170.74L283.22,170.94L283.12,171.17L283.06,171.39L283.06,171.60L283.11,171.74"/><path d="M285.16,169.05L285.16,169.04"/></g><g style="stroke:#000000;stroke-width:0.529"><path d="M272.81,160.06L271.28,160.26L269.66,160.96L269.45,161.09L267.89,162.20L266.41,163.70L265.12,165.47L264.07,167.44L263.34,169.47L262.97,171.46L262.97,173.56L263.36,175.17L263.47,175.35L264.11,176.40L265.19,177.19L273.99,182.24L275.33,182.54L276.85,182.34L278.46,181.64L278.73,181.48L280.28,180.38L281.74,178.90L283.03,177.13L284.06,175.18L284.79,173.17L285.16,171.20L285.16,169.04L284.77,167.43L284.02,166.20L282.94,165.41L274.14,160.36L273.75,160.27"/></g></g><g id="Actor_.44"><g style="stroke:#000000;stroke-width:0.176"><path d="M66.68,49.20L66.68,49.20"/><path d="M66.66,49.23L66.68,49.30"/></g><g style="stroke:#000000;stroke-width:0.529"><path d="M66.33,50.11L66.41,50.04L66.54,49.87L66.63,49.67L66.68,49.48L66.68,49.30L66.68,49.20L66.67,49.17"/></g></g><g id="Actor_.45"><g style="stroke:#000000;stroke-width:0.176"><path d="M65.40,44.95L64.48,44.42L64.10,44.41L63.33,44.40L62.05,44.90L60.77,45.87L59.61,47.21L58.70,48.80L58.13,50.40L58.11,50.47L57.91,52.07L58.11,53.43L58.70,54.43L59.61,54.97L60.55,54.98L60.77,54.99L62.05,54.49"/><path d="M58.39,54.09L58.22,53.77"/><path d="M58.62,49.74L58.39,50.39L58.20,51.87L58.39,53.13L58.93,54.05L59.77,54.54L60.84,54.56L62.02,54.10L63.20,53.21L64.26,51.97L65.11,50.50L65.65,48.96L65.84,47.49L65.65,46.23L65.11,45.31L64.26,44.81L63.20,44.79L62.02,45.25L60.84,46.15L60.53,46.51"/><path d="M58.34,50.85L58.33,50.86L58.33,52.20L58.71,53.24L59.42,53.89L60.38,54.07L61.50,53.76L62.65,52.99L63.71,51.84L64.55,50.45L65.10,48.96L65.29,47.54L65.10,46.33L64.55,45.47L63.71,45.05L62.65,45.12L61.79,45.49L61.49,45.67"/><path d="M57.94,52.90L57.91,52.65"/><path d="M58.70,53.04L58.70,53.04L58.70,53.03"/><path d="M57.92,51.29L57.91,51.40"/><path d="M58.81,54.56L59.19,54.81"/><path d="M59.80,53.74L60.31,53.83L61.39,53.53L62.49,52.79L63.51,51.69L64.33,50.35L64.86,48.91L65.04,47.54L64.86,46.38L64.53,45.86L64.88,46.86L64.88,48.15L64.52,49.57L63.84,50.98L62.91,52.21L61.83,53.15L60.73,53.67L59.80,53.74L59.38,53.66L59.19,53.48"/><path d="M59.64,53.71L59.62,53.70"/><path d="M59.72,54.51L60.74,54.52L61.92,54.06L63.11,53.17L64.18,51.92L65.02,50.45L65.57,48.90L65.75,47.42L65.57,46.16L65.04,45.27"/><path d="M59.16,48.46L58.93,48.85L58.84,49.12"/><path d="M59.63,47.64L59.77,47.39L60.12,46.98"/><path d="M61.09,45.53L61.15,45.48"/><path d="M63.33,53.52L62.39,54.23"/><path d="M63.70,53.08L64.48,52.18"/><path d="M63.58,45.18L63.51,45.14L63.43,45.15"/><path d="M63.73,44.32L63.40,44.36"/><path d="M64.78,51.65L65.40,50.59"/><path d="M64.53,45.86L64.33,45.55L64.03,45.40"/><path d="M64.52,45.85L64.33,45.67"/><path d="M64.83,44.53L64.41,44.39"/><path d="M65.57,50.08L65.98,48.92"/><path d="M66.03,48.51L66.15,47.62"/><path d="M66.15,47.06L66.01,46.14"/><path d="M65.43,45.02L65.98,45.95"/></g><g style="stroke:#000000;stroke-width:0.529"><path d="M58.51,52.50L58.70,53.03L58.70,53.04L59.19,53.48L59.62,53.70L60.14,53.66L61.32,53.10L62.47,52.10L63.46,50.78L64.19,49.27L64.58,47.75L64.58,46.38L64.33,45.67L64.03,45.40L63.58,45.18L63.43,45.15L62.49,45.21L61.67,45.57L61.49,45.67L60.53,46.51L60.12,46.98L59.63,47.64L59.16,48.46L58.84,49.12L58.62,49.74L58.34,50.85L58.34,52.03L58.51,52.50"/><path d="M59.67,54.98L60.21,55.03"/><path d="M61.39,54.78L61.09,54.87L60.77,54.99L60.74,54.99"/><path d="M61.99,54.52L62.05,54.49L62.39,54.23L62.63,54.07"/><path d="M63.81,52.97L63.70,53.08L63.33,53.52L63.24,53.60"/><path d="M64.83,51.58L64.78,51.65L64.48,52.18L64.37,52.32"/><path d="M65.60,50.02L65.57,50.08L65.40,50.59L65.28,50.82"/><path d="M66.06,48.42L66.03,48.51L65.98,48.92L65.90,49.21"/><path d="M66.06,46.28L66.01,46.14L65.98,45.95L65.90,45.72"/><path d="M65.60,45.21L65.43,45.02L65.40,44.95L65.28,44.83"/><path d="M66.15,46.94L66.15,47.06L66.19,47.32L66.15,47.62L66.15,47.66"/></g></g><g id="Actor_.46"><g style="stroke:#000000;stroke-width:0.176"><path d="M54.62,56.59L53.68,55.55L53.56,55.25L53.10,54.10L52.90,52.31L53.10,50.29L53.66,48.24L53.68,48.17L54.62,46.05L55.86,44.08L57.32,42.35L58.93,40.97L60.58,40.02L62.18,39.56L63.65,39.61L63.77,39.66"/><path d="M54.37,51.16L54.37,51.15L54.25,51.05L54.10,51.02L53.92,51.07L53.73,51.20L53.56,51.38L53.42,51.61L53.33,51.85L53.30,52.08L53.33,52.27L53.42,52.41L53.56,52.48L53.61,52.48"/><path d="M55.16,54.12L55.16,54.11L55.04,54.01L54.89,53.98L54.70,54.03L54.52,54.15L54.35,54.34L54.21,54.56L54.12,54.80L54.10,54.99L54.09,55.03L54.12,55.23L54.21,55.37L54.35,55.43L54.39,55.43"/><path d="M55.16,47.30L55.16,47.29L55.04,47.19L54.89,47.16L54.70,47.21L54.52,47.34L54.45,47.41L54.35,47.52L54.21,47.75L54.12,47.99L54.10,48.17L54.09,48.22L54.12,48.41L54.21,48.55L54.35,48.62L54.39,48.62"/><path d="M57.31,55.38L57.31,55.37L57.20,55.26L57.04,55.24L56.86,55.29L56.67,55.41L56.57,55.52L56.50,55.60L56.36,55.82L56.28,56.06L56.24,56.29L56.28,56.49L56.37,56.63L56.50,56.69L56.55,56.69"/><path d="M57.28,55.18L57.26,55.17L56.39,54.43L55.84,53.29L55.71,52.20"/><path d="M57.26,55.17L56.24,54.59"/><path d="M56.26,53.55L56.79,54.66L57.66,55.40L58.55,55.91L57.68,55.17L57.13,54.03L56.95,52.56L57.13,50.87L57.68,49.10L58.55,47.36L59.67,45.80L60.97,44.53L62.34,43.63L63.68,43.18L64.51,43.21L64.90,43.22L65.91,43.73L65.02,43.22L64.01,42.71L62.79,42.67L61.45,43.12L60.08,44.02L58.78,45.29L57.66,46.85L56.79,48.59L56.24,50.36L56.06,52.05L56.24,53.52L56.26,53.55"/><path d="M56.15,49.13L55.84,50.13L55.66,51.82L55.68,52.03"/><path d="M58.01,45.58L57.26,46.63L56.48,48.19"/><path d="M57.31,43.57L57.31,43.56L57.20,43.46L57.04,43.43L56.86,43.48L56.67,43.61L56.50,43.79L56.36,44.02L56.28,44.26L56.26,44.35L56.24,44.49L56.28,44.68L56.37,44.82L56.50,44.89L56.55,44.89"/><path d="M67.04,46.83L66.99,46.07L66.63,44.76L65.92,43.82L64.93,43.32L63.72,43.28L62.39,43.73L61.03,44.61L59.75,45.88L58.64,47.42L57.78,49.13L57.24,50.89L57.05,52.56L57.24,54.01L57.78,55.15L58.64,55.87L59.75,56.15L60.87,55.96L61.03,55.94L62.39,55.27"/><path d="M58.55,55.91L59.67,56.18L59.97,56.14"/><path d="M61.77,45.07L62.36,44.68L63.58,44.31L64.66,44.41L65.50,44.98L66.04,45.97L66.23,47.29L66.04,48.83L65.50,50.44L64.66,51.99L63.58,53.33L62.36,54.35L61.12,54.95L59.96,55.09L58.98,54.75L58.28,53.96L57.91,52.79L57.91,51.79"/><path d="M62.26,45.31L62.35,45.87L62.16,47.29L61.62,48.77L60.77,50.15L59.72,51.29L58.58,52.05L58.37,52.11"/><path d="M58.64,44.81L59.68,43.79L60.89,42.99"/><path d="M58.47,42.39L58.49,42.47L58.50,42.51L58.49,42.57L58.46,42.68L58.41,42.79L58.34,42.89L58.25,42.96L58.16,43.00L58.08,43.01L58.02,42.98L57.98,42.91L57.96,42.82L57.98,42.71L58.02,42.60L58.08,42.49L58.16,42.41L58.25,42.35L58.34,42.32L58.41,42.34L58.47,42.39"/><path d="M60.25,40.97L60.25,40.96L60.14,40.86L60.08,40.85L59.98,40.83L59.80,40.88L59.61,41.00L59.44,41.19L59.31,41.41L59.22,41.66L59.20,41.74L59.19,41.89L59.22,42.08L59.31,42.22L59.44,42.29L59.49,42.29"/><path d="M61.20,42.84L62.39,42.44L63.61,42.48L64.02,42.68"/><path d="M63.20,40.20L63.19,40.19L63.08,40.09L62.92,40.06L62.74,40.11L62.56,40.23L62.38,40.42L62.25,40.64L62.16,40.88L62.13,41.11L62.16,41.31L62.25,41.45L62.39,41.51L62.43,41.51"/><path d="M63.38,42.23L64.28,42.78"/><path d="M63.29,39.26L63.29,39.25"/><path d="M65.35,41.46L65.35,41.45L65.23,41.35L65.08,41.32L64.89,41.37L64.71,41.49L64.54,41.68L64.40,41.90L64.31,42.14L64.28,42.37L64.31,42.57L64.40,42.71L64.54,42.77L64.58,42.77"/><path d="M64.88,40.17L64.70,40.08"/><path d="M65.91,43.73L66.59,44.63"/></g><g style="stroke:#000000;stroke-width:0.529"><path d="M63.85,39.58L63.29,39.25L62.05,38.69L60.59,38.64L58.99,39.11L57.33,40.05L55.73,41.43L54.27,43.16L53.03,45.14L52.09,47.26L51.50,49.38L51.31,51.40L51.50,53.18L52.09,54.64L53.03,55.67L54.62,56.59L55.86,57.15L57.32,57.20L57.40,57.18"/><path d="M59.92,56.16L58.93,56.73L58.57,56.84"/><path d="M61.77,45.07L61.12,45.50L59.96,46.70L58.98,48.16L58.28,49.75L57.91,51.34L57.91,51.79"/><path d="M59.97,56.14L60.97,55.98L62.34,55.30L62.39,55.27L63.72,54.18L64.93,52.77L65.92,51.12L66.63,49.37L66.99,47.64L67.04,46.83L67.04,46.77L66.99,46.00L66.62,44.68L66.59,44.63L66.61,44.45L66.46,43.15"/><path d="M66.10,41.88L65.82,41.21L64.88,40.17L64.71,40.07"/></g></g><g id="Actor_.47"><g style="stroke:#000000;stroke-width:0.176"><path d="M64.36,40.86L64.21,40.84L64.04,40.89L63.86,41.00L63.70,41.18L63.57,41.39L63.49,41.62L63.46,41.84L63.48,42.00L63.49,42.03L63.57,42.16"/><path d="M64.53,41.22L64.48,41.09L64.39,41.00L64.26,40.98L64.11,41.02L63.96,41.12L63.82,41.27L63.70,41.46L63.63,41.65L63.61,41.84L63.63,42.00L63.70,42.12L63.82,42.17L63.96,42.17L64.11,42.09"/></g><g style="stroke:#000000;stroke-width:0.529"><path d="M61.30,38.67L60.68,38.31L60.64,38.30L60.42,38.26L60.38,38.26L60.13,38.33L60.11,38.35L59.86,38.52L59.62,38.76L59.51,38.96"/><path d="M64.07,40.70L64.36,40.86L64.47,40.96L64.53,41.13L64.53,41.22L64.53,41.40L64.48,41.60L64.39,41.79L64.26,41.96L64.11,42.09L64.04,42.13L63.86,42.22L63.70,42.23L63.57,42.16L62.21,41.38"/><path d="M62.96,40.06L63.21,40.21"/></g></g><g id="Actor_.48"><g style="stroke:#000000;stroke-width:0.176"><path d="M57.69,45.54L57.60,45.40L57.57,45.22L57.60,45.00L57.69,44.77L57.82,44.55L57.98,44.38L58.16,44.26L58.33,44.21L58.48,44.24"/><path d="M58.65,44.60L58.60,44.46L58.50,44.37L58.37,44.35L58.23,44.39L58.07,44.49L57.93,44.65L57.82,44.83L57.75,45.03L57.72,45.22L57.75,45.38L57.82,45.49L57.93,45.55L58.07,45.54L58.23,45.47"/></g><g style="stroke:#000000;stroke-width:0.529"><path d="M53.88,43.79L53.61,43.63L53.58,43.61L53.45,43.41L53.44,43.38L53.39,43.11L53.39,43.08L53.44,42.77L53.56,42.44L53.74,42.14L53.97,41.89L54.22,41.72L54.25,41.71L54.50,41.64L54.54,41.63L54.76,41.67L54.80,41.69L55.28,41.96"/><path d="M57.07,43.44L58.48,44.24L58.59,44.34L58.65,44.50L58.65,44.60L58.65,44.78L58.60,44.97L58.50,45.17L58.37,45.34L58.23,45.47L58.16,45.51L57.98,45.59L57.82,45.60L57.69,45.54L56.32,44.76"/></g></g><g><g><path style="stroke:#000000;stroke-width:0.125;stroke-dasharray:2.4 1.6 0.8 1.6" d="M199.96,191.69L210.94,197.99L237.45,182.78L12.14,53.55L39.88,37.02L53.31,44.68"/><path style="stroke:#000000;stroke-width:0.125;stroke-dasharray:2.4 1.6 0.8 1.6" d="M32.30,95.52L18.45,87.58"/><path style="stroke:#000000;stroke-width:0.125;stroke-dasharray:2.4 1.6 0.8 1.6" d="M73.80,56.43L59.34,48.14"/><path style="stroke:#000000;stroke-width:0.125;stroke-dasharray:2.4 1.6 0.8 1.6" d="M82.89,61.65L98.14,70.40"/><path style="stroke:#000000;stroke-width:0.125;stroke-dasharray:2.4 1.6 0.8 1.6" d="M250.73,157.92L264.83,166.01"/></g></g><g id="PMI.0"><g><path style="stroke:#000000;stroke-width:0.125" d="M79.45,24.87L62.83,41.25"/></g><g><path style="fill:#000000" d="M63.58,41.25L63.58,41.18L63.57,41.11L63.55,41.04L63.53,40.97L63.50,40.90L63.46,40.84L63.41,40.78L63.36,40.72L63.31,40.67L63.25,40.63L63.19,40.59L63.12,40.56L63.05,40.54L62.98,40.52L62.91,40.51L62.83,40.50L62.76,40.51L62.69,40.52L62.62,40.54L62.55,40.56L62.48,40.59L62.42,40.63L62.36,40.67L62.30,40.72L62.25,40.78L62.21,40.84L62.17,40.90L62.14,40.97L62.12,41.04L62.10,41.11L62.09,41.18L62.08,41.25L62.09,41.33L62.10,41.40L62.12,41.47L62.14,41.54L62.17,41.61L62.21,41.67L62.25,41.73L62.30,41.78L62.36,41.83L62.42,41.88L62.48,41.91L62.55,41.95L62.62,41.97L62.69,41.99L62.76,42.00L62.83,42.00L62.91,42.00L62.98,41.99L63.05,41.97L63.12,41.95L63.19,41.91L63.25,41.88L63.31,41.83L63.36,41.78L63.41,41.73L63.46,41.67L63.50,41.61L63.53,41.54L63.55,41.47L63.57,41.40L63.58,41.33z"/></g><g><text xml:space="preserve" fill="#000000" stroke-width="0" x="73.51" y="24.09" font-size="3.80" opacity="1.00" font-family="Arial">BPA28908</text></g></g><g id="PMI.1"><g><path style="stroke:#000000;stroke-width:0.125" d="M105.91,40.85L83.29,56.41"/></g><g><path style="fill:#000000" d="M84.04,56.41L84.04,56.34L84.03,56.27L84.01,56.20L83.98,56.13L83.95,56.06L83.92,56.00L83.87,55.94L83.82,55.88L83.77,55.83L83.71,55.79L83.65,55.75L83.58,55.72L83.51,55.70L83.44,55.68L83.37,55.67L83.29,55.66L83.22,55.67L83.15,55.68L83.07,55.70L83.00,55.72L82.94,55.75L82.87,55.79L82.82,55.83L82.76,55.88L82.71,55.94L82.67,56.00L82.63,56.06L82.60,56.13L82.57,56.20L82.56,56.27L82.55,56.34L82.54,56.41L82.55,56.49L82.56,56.56L82.57,56.63L82.60,56.70L82.63,56.77L82.67,56.83L82.71,56.89L82.76,56.94L82.82,56.99L82.87,57.04L82.94,57.07L83.00,57.11L83.07,57.13L83.15,57.15L83.22,57.16L83.29,57.16L83.37,57.16L83.44,57.15L83.51,57.13L83.58,57.11L83.65,57.07L83.71,57.04L83.77,56.99L83.82,56.94L83.87,56.89L83.92,56.83L83.95,56.77L83.98,56.70L84.01,56.63L84.03,56.56L84.04,56.49z"/></g><g><text xml:space="preserve" fill="#000000" stroke-width="0" x="101.34" y="40.07" font-size="3.80" opacity="1.00" font-family="Arial">BPA28902</text></g></g><g id="PMI.2"><g><path style="stroke:#000000;stroke-width:0.125" d="M21.81,120.88L17.35,93.68"/></g><g><path style="fill:#000000" d="M18.10,93.68L18.10,93.60L18.09,93.53L18.07,93.46L18.05,93.39L18.01,93.32L17.98,93.26L17.93,93.20L17.88,93.14L17.83,93.10L17.77,93.05L17.71,93.01L17.64,92.98L17.57,92.96L17.50,92.94L17.43,92.93L17.35,92.93L17.28,92.93L17.21,92.94L17.13,92.96L17.07,92.98L17.00,93.01L16.94,93.05L16.88,93.10L16.82,93.14L16.77,93.20L16.73,93.26L16.69,93.32L16.66,93.39L16.63,93.46L16.62,93.53L16.61,93.60L16.60,93.68L16.61,93.75L16.62,93.82L16.63,93.89L16.66,93.96L16.69,94.03L16.73,94.09L16.77,94.15L16.82,94.21L16.88,94.26L16.94,94.30L17.00,94.34L17.07,94.37L17.13,94.39L17.21,94.41L17.28,94.42L17.35,94.43L17.43,94.42L17.50,94.41L17.57,94.39L17.64,94.37L17.71,94.34L17.77,94.30L17.83,94.26L17.88,94.21L17.93,94.15L17.98,94.09L18.01,94.03L18.05,93.96L18.07,93.89L18.09,93.82L18.10,93.75z"/></g><g><text xml:space="preserve" fill="#000000" stroke-width="0" x="14.31" y="126.31" font-size="3.79" opacity="1.00" font-family="Arial">BPA8994</text></g></g><g id="PMI.3"><g><path style="stroke:#000000;stroke-width:0.125" d="M187.48,85.84L176.45,109.02"/></g><g><path style="fill:#000000" d="M177.20,109.02L177.19,108.94L177.18,108.87L177.16,108.80L177.14,108.73L177.11,108.66L177.07,108.60L177.03,108.54L176.98,108.49L176.92,108.44L176.86,108.39L176.80,108.36L176.73,108.33L176.66,108.30L176.59,108.28L176.52,108.27L176.45,108.27L176.37,108.27L176.30,108.28L176.23,108.30L176.16,108.33L176.09,108.36L176.03,108.39L175.97,108.44L175.92,108.49L175.87,108.54L175.82,108.60L175.79,108.66L175.75,108.73L175.73,108.80L175.71,108.87L175.70,108.94L175.70,109.02L175.70,109.09L175.71,109.16L175.73,109.24L175.75,109.31L175.79,109.37L175.82,109.44L175.87,109.49L175.92,109.55L175.97,109.60L176.03,109.64L176.09,109.68L176.16,109.71L176.23,109.74L176.30,109.75L176.37,109.76L176.45,109.77L176.52,109.76L176.59,109.75L176.66,109.74L176.73,109.71L176.80,109.68L176.86,109.64L176.92,109.60L176.98,109.55L177.03,109.49L177.07,109.44L177.11,109.37L177.14,109.31L177.16,109.24L177.18,109.16L177.19,109.09z"/></g><g><text xml:space="preserve" fill="#000000" stroke-width="0" x="179.88" y="85.07" font-size="3.80" opacity="1.00" font-family="Arial">BPA28950</text></g></g><g id="PMI.4"><g><path style="stroke:#000000;stroke-width:0.125" d="M98.02,162.32L115.80,145.00"/></g><g><path style="fill:#000000" d="M116.55,145.00L116.55,144.93L116.54,144.86L116.52,144.78L116.50,144.71L116.47,144.65L116.43,144.59L116.38,144.53L116.33,144.47L116.28,144.42L116.22,144.38L116.16,144.34L116.09,144.31L116.02,144.28L115.95,144.27L115.88,144.26L115.80,144.25L115.73,144.26L115.66,144.27L115.59,144.28L115.52,144.31L115.45,144.34L115.39,144.38L115.33,144.42L115.27,144.47L115.22,144.53L115.18,144.59L115.14,144.65L115.11,144.71L115.09,144.78L115.07,144.86L115.06,144.93L115.05,145.00L115.06,145.08L115.07,145.15L115.09,145.22L115.11,145.29L115.14,145.36L115.18,145.42L115.22,145.48L115.27,145.53L115.33,145.58L115.39,145.63L115.45,145.66L115.52,145.69L115.59,145.72L115.66,145.74L115.73,145.75L115.80,145.75L115.88,145.75L115.95,145.74L116.02,145.72L116.09,145.69L116.16,145.66L116.22,145.63L116.28,145.58L116.33,145.53L116.38,145.48L116.43,145.42L116.47,145.36L116.50,145.29L116.52,145.22L116.54,145.15L116.55,145.08z"/></g><g><text xml:space="preserve" fill="#000000" stroke-width="0" x="85.75" y="167.75" font-size="3.80" opacity="1.00" font-family="Arial">BPA28952</text></g></g><g id="PMI.5"><g><path style="stroke:#000000;stroke-width:0.125" d="M274.98,135.38L272.89,165.82"/></g><g><path style="fill:#000000" d="M273.64,165.82L273.64,165.75L273.62,165.68L273.61,165.61L273.58,165.54L273.55,165.47L273.51,165.41L273.47,165.35L273.42,165.29L273.37,165.24L273.31,165.20L273.24,165.16L273.18,165.13L273.11,165.11L273.04,165.09L272.96,165.08L272.89,165.07L272.82,165.08L272.74,165.09L272.67,165.11L272.60,165.13L272.54,165.16L272.47,165.20L272.41,165.24L272.36,165.29L272.31,165.35L272.27,165.41L272.23,165.47L272.20,165.54L272.17,165.61L272.15,165.68L272.14,165.75L272.14,165.82L272.14,165.90L272.15,165.97L272.17,166.04L272.20,166.11L272.23,166.18L272.27,166.24L272.31,166.30L272.36,166.36L272.41,166.40L272.47,166.45L272.54,166.49L272.60,166.52L272.67,166.54L272.74,166.56L272.82,166.57L272.89,166.57L272.96,166.57L273.04,166.56L273.11,166.54L273.18,166.52L273.24,166.49L273.31,166.45L273.37,166.40L273.42,166.36L273.47,166.30L273.51,166.24L273.55,166.18L273.58,166.11L273.61,166.04L273.62,165.97L273.64,165.90z"/></g><g><text xml:space="preserve" fill="#000000" stroke-width="0" x="266.12" y="134.60" font-size="3.80" opacity="1.00" font-family="Arial">BPA28906</text></g></g><g/><g><g/><g><text xml:space="preserve" fill="#000000" stroke-width="0" x="7.92" y="12.61" font-size="4.53" opacity="1.00" font-family="Arial" font-weight="bold">BPA28953</text></g></g><g id="paperID" visibility="hidden" opacity="0.00" transform="scale(0.000100)"><path style="stroke:#000000;stroke-width:0.500;fill:#e6e6e6;fill-rule:evenodd" d="M-2000.00,-2000.00L2297.00,-2000.00L2297.00,2210.00L-2000.00,2210.00zM0.00,0.00L297.00,0.00L297.00,210.00L0.00,210.00z"/><path style="fill:#000000;fill-opacity:0.118" d="M3.00,210.00L297.00,210.00L297.00,3.00L300.00,3.00L300.00,213.00L3.00,213.00z"/></g><g id="hotspot.0" onmouseover="ShowHotSpot(evt,'0')" onmouseout="HideHotSpot(evt,'0')" onmousemove="ShowToolTip(evt,'0',&quot;Hotspot 1&quot;)" opacity="0"><a xlink:href=".\BPA28950.svg"><path style="fill:#ff8000;fill-rule:evenodd" d="M111.63,64.01L112.83,64.97L113.80,66.37L114.39,68.54L127.24,75.83L127.62,76.63L128.63,77.21L128.59,78.61L129.18,79.01L129.34,79.65L130.18,80.19L132.55,81.37L244.84,145.70L253.52,150.83L254.12,151.42L257.27,153.40L258.28,154.56L258.85,156.17L258.84,157.61L258.45,159.38L256.81,162.68L255.12,164.54L253.45,165.63L252.28,166.04L250.95,166.04L249.77,165.63L246.81,164.05L245.63,163.66L234.00,157.13L125.06,94.58L124.06,93.80L121.92,92.63L120.71,92.59L120.52,92.42L119.85,93.01L118.92,93.02L118.55,92.80L117.34,92.64L104.74,85.32L103.68,85.72L101.57,85.93L100.00,85.51L97.23,83.73L96.23,82.17L95.83,80.99L95.63,78.68L95.84,76.50L96.63,73.54L98.74,69.33L100.30,67.35L101.78,65.66L104.06,64.00L106.24,63.02L107.03,62.82L109.07,62.82zM198.08,82.74L198.08,84.61L197.63,85.14L196.68,85.12L196.49,84.93L196.29,84.13L195.90,84.80L195.45,85.14L194.51,85.12L194.31,84.92L194.25,84.32L194.50,84.29L194.93,84.74L195.22,84.74L195.52,84.40L195.54,83.92L195.31,83.70L194.25,83.82L194.45,82.36L195.93,82.37L195.93,82.60L194.82,82.76L194.91,83.21L195.30,83.13L195.71,83.33L196.09,83.80L196.62,82.36L197.68,82.35zM193.93,83.14L193.74,84.80L193.28,85.13L192.34,85.12L192.14,84.92L192.06,84.34L192.40,84.25L192.75,84.74L193.05,84.74L193.37,84.16L192.40,84.25L192.16,83.93L192.14,82.62L192.46,82.35L193.34,82.35zM191.58,82.53L191.49,83.54L191.76,83.93L191.77,84.60L191.29,85.12L190.35,85.13L189.98,84.92L189.94,83.74L190.17,83.53L190.00,83.34L189.88,82.75L190.29,82.35L191.38,82.33zM189.60,82.74L189.60,83.42L188.51,84.53L189.61,84.73L189.60,85.18L187.15,85.19L186.82,84.34L185.77,84.34L185.42,85.20L184.98,85.20L185.37,83.74L185.97,82.35L186.61,82.36L187.60,84.79L188.33,83.94L188.80,83.62L189.02,82.94L188.80,82.72L188.35,82.75L188.17,83.22L187.74,83.23L187.80,82.62L188.12,82.35L189.20,82.35zM184.85,82.74L184.86,83.63L184.40,83.95L183.19,84.12L183.05,85.22L182.82,85.22L182.80,82.35L184.46,82.35zM182.11,82.53L182.02,83.54L182.29,83.93L182.21,84.73L181.44,85.13L180.03,85.19L180.03,82.35L181.91,82.33zM193.36,82.94L193.27,83.55L192.52,83.55L192.50,83.00L192.68,82.74L193.14,82.71zM191.18,82.92L191.12,83.15L190.49,83.22L190.55,82.81L190.98,82.72zM184.29,82.94L184.27,83.41L183.19,83.41L183.19,82.75L184.08,82.73zM197.69,83.13L197.68,84.21L197.39,84.74L197.09,84.74L196.88,84.53L196.88,82.80L197.46,82.74zM186.45,83.32L186.42,83.81L185.95,83.75L186.25,83.12zM181.44,83.35L180.63,83.42L180.62,82.75L181.51,82.76zM191.20,84.13L191.16,84.59L190.91,84.77L190.57,84.73L190.36,84.52L190.35,84.00L190.97,83.90zM181.72,84.12L181.64,84.53L180.62,84.60L180.62,83.93L181.52,83.92zM192.40,84.25L193.37,84.16L193.05,84.74L192.75,84.74z"/></a></g><g id="hotspot.1" onmouseover="ShowHotSpot(evt,'1')" onmouseout="HideHotSpot(evt,'1')" onmousemove="ShowToolTip(evt,'1',&quot;Hotspot 1&quot;)" opacity="0"><a xlink:href=".\BPA28952.svg"><path style="fill:#ff8000;fill-rule:evenodd" d="M39.02,94.19L39.43,94.76L39.74,95.64L40.99,96.36L42.76,96.35L46.30,98.35L49.07,99.73L192.33,181.84L194.72,181.81L200.43,184.98L202.23,186.14L203.01,187.33L203.18,188.54L203.40,189.11L203.39,190.17L203.00,191.95L201.93,193.84L200.64,195.12L199.58,195.83L197.82,196.44L196.28,196.43L194.31,195.44L190.98,193.44L188.80,192.07L188.19,191.30L187.79,190.12L44.55,108.00L43.55,107.22L38.83,104.44L38.23,104.06L37.64,102.67L36.24,101.88L34.46,101.91L32.51,100.69L31.89,100.14L31.69,99.54L31.70,97.02L32.10,95.84L33.20,94.38L34.27,93.47L35.39,93.01L36.85,93.00zM103.96,165.22L103.94,166.31L102.88,167.23L103.96,167.42L103.96,167.86L102.07,167.87L102.16,167.29L103.50,165.84L103.55,165.60L103.37,165.42L102.87,165.41L102.52,165.92L102.30,165.92L102.35,165.10L103.76,165.02zM99.80,165.82L99.60,167.49L99.15,167.82L98.21,167.81L98.01,167.61L97.93,167.02L98.27,166.94L98.62,167.43L98.92,167.43L99.23,166.84L98.27,166.94L98.02,166.61L98.01,165.31L98.33,165.03L99.21,165.03zM97.45,165.22L97.36,166.23L97.63,166.61L97.64,167.29L97.18,167.83L96.22,167.82L95.84,167.61L95.81,166.43L96.04,166.21L95.87,166.03L95.75,165.44L96.16,165.03L97.25,165.02zM95.46,165.43L95.46,166.10L94.37,167.21L95.47,167.42L95.47,167.86L93.01,167.87L92.68,167.02L91.63,167.02L91.29,167.89L90.84,167.89L91.24,166.43L91.83,165.04L92.48,165.04L93.46,167.48L94.20,166.63L94.67,166.30L94.89,165.62L94.67,165.40L94.22,165.43L94.04,165.91L93.60,165.91L93.67,165.31L93.99,165.03L95.07,165.03zM90.72,165.43L90.73,166.31L90.27,166.64L89.06,166.81L88.92,167.91L88.69,167.90L88.67,165.04L90.33,165.03zM87.97,165.22L87.89,166.23L88.15,166.61L88.08,167.42L87.30,167.82L85.90,167.88L85.90,165.04L87.77,165.02zM101.57,166.02L101.98,166.62L101.92,167.23L101.32,167.82L100.38,167.81L100.18,167.61L100.11,167.01L100.37,166.98L100.79,167.42L101.09,167.43L101.39,167.08L101.40,166.61L101.18,166.39L100.12,166.51L100.31,165.04L101.80,165.06L101.80,165.29L100.69,165.45L100.77,165.89L101.17,165.82zM99.23,165.62L99.14,166.24L98.39,166.23L98.37,165.69L98.55,165.43L99.01,165.40zM97.05,165.61L96.98,165.84L96.36,165.91L96.42,165.50L96.85,165.41zM90.16,165.63L90.14,166.09L89.05,166.10L89.06,165.44L89.95,165.41zM92.31,166.00L92.29,166.50L91.82,166.44L92.11,165.80zM87.31,166.04L86.49,166.10L86.49,165.44L87.38,165.44zM97.07,166.81L97.03,167.27L96.78,167.45L96.44,167.42L96.23,167.21L96.22,166.69L96.84,166.59zM87.59,166.81L87.51,167.21L86.49,167.28L86.49,166.62L87.39,166.60zM98.27,166.94L99.23,166.84L98.92,167.43L98.62,167.43z"/></a></g><g id="hotspot.2" onmouseover="ShowHotSpot(evt,'2')" onmouseout="HideHotSpot(evt,'2')" onmousemove="ShowToolTip(evt,'2',&quot;Hotspot 1&quot;)" opacity="0"><a xlink:href=".\BPA28902.svg"><path style="fill:#ff8000;fill-rule:evenodd" d="M119.55,37.54L119.53,38.63L118.47,39.55L119.55,39.74L119.55,40.18L117.66,40.19L117.75,39.61L119.09,38.16L119.14,37.92L118.96,37.73L118.46,37.72L118.11,38.24L117.89,38.24L117.94,37.42L119.35,37.34zM117.36,37.75L117.37,39.82L116.90,40.15L116.16,40.15L115.78,39.93L115.77,37.63L116.09,37.35L116.97,37.35zM115.39,38.14L115.19,39.81L114.74,40.14L113.80,40.13L113.60,39.93L113.52,39.34L113.86,39.26L114.21,39.75L114.51,39.75L114.82,39.16L113.86,39.26L113.61,38.93L113.60,37.62L113.92,37.35L114.80,37.35zM113.04,37.54L112.95,38.55L113.22,38.93L113.22,39.61L112.74,40.12L111.81,40.14L111.43,39.93L111.40,38.75L111.63,38.53L111.46,38.35L111.34,37.76L111.75,37.35L112.84,37.34zM111.05,37.75L111.05,38.42L109.96,39.53L111.06,39.74L111.06,40.18L108.60,40.19L108.27,39.34L107.22,39.34L106.88,40.21L106.43,40.21L106.83,38.75L107.43,37.35L107.88,37.33L108.09,37.55L109.05,39.80L109.79,38.95L110.26,38.62L110.48,37.94L110.26,37.72L109.81,37.75L109.63,38.23L109.19,38.23L109.26,37.63L109.58,37.35L110.66,37.35zM106.31,37.75L106.32,38.63L105.86,38.96L104.65,39.13L104.51,40.23L104.28,40.22L104.26,37.36L105.92,37.35zM103.56,37.54L103.48,38.55L103.74,38.93L103.67,39.73L102.89,40.14L101.49,40.20L101.49,37.36L103.36,37.34zM80.65,52.16L83.41,53.74L84.01,54.52L85.39,55.51L85.99,56.50L87.36,57.29L88.77,58.65L89.33,60.05L89.33,61.50L88.94,63.09L87.69,65.39L86.09,67.15L84.15,68.16L83.21,68.15L82.02,67.96L80.26,66.96L78.66,66.78L76.89,66.18L76.09,65.99L73.73,64.61L72.74,63.42L72.54,62.83L72.55,59.73L72.95,58.14L74.16,55.80L75.85,53.74L77.23,52.76L78.40,52.15L79.84,51.96zM114.82,37.94L114.73,38.56L113.98,38.55L113.96,38.01L114.14,37.75L114.60,37.72zM112.64,37.93L112.57,38.16L111.95,38.23L112.01,37.82L112.44,37.73zM105.75,37.95L105.73,38.41L104.64,38.42L104.65,37.75L105.54,37.73zM116.97,38.14L116.97,39.41L116.68,39.75L116.38,39.75L116.17,39.54L116.14,38.00L116.32,37.74L116.74,37.74zM107.90,38.32L107.88,38.82L107.41,38.76L107.70,38.12zM102.90,38.36L102.08,38.42L102.08,37.76L102.97,37.76zM112.66,39.13L112.62,39.59L112.37,39.77L112.03,39.74L111.82,39.53L111.81,39.01L112.43,38.91zM103.18,39.13L103.10,39.53L102.08,39.60L102.08,38.94L102.98,38.92zM113.86,39.26L114.82,39.16L114.51,39.75L114.21,39.75z"/></a></g><g id="hotspot.3" onmouseover="ShowHotSpot(evt,'3')" onmouseout="HideHotSpot(evt,'3')" onmousemove="ShowToolTip(evt,'3',&quot;Hotspot 1&quot;)" opacity="0"><a xlink:href=".\BPA28908.svg"><path style="fill:#ff8000;fill-rule:evenodd" d="M91.72,21.77L91.72,23.83L91.25,24.16L90.32,24.14L89.90,23.55L89.91,23.02L90.11,22.55L90.11,21.43L91.32,21.37zM89.54,21.76L89.55,23.83L89.08,24.16L88.33,24.16L87.95,23.94L87.95,21.64L88.27,21.37L89.14,21.37zM87.56,22.16L87.37,23.83L86.91,24.16L85.98,24.14L85.77,23.94L85.69,23.36L86.03,23.28L86.38,23.76L86.69,23.76L87.00,23.18L86.03,23.28L85.79,22.95L85.78,21.64L86.09,21.37L86.98,21.37zM85.21,21.55L85.12,22.56L85.39,22.95L85.40,23.62L84.92,24.14L83.99,24.16L83.61,23.94L83.57,22.76L83.81,22.55L83.64,22.36L83.52,21.77L83.92,21.37L85.01,21.36zM83.23,21.77L83.23,22.44L82.14,23.55L83.24,23.75L83.24,24.20L80.78,24.21L80.45,23.36L79.40,23.36L79.05,24.22L78.61,24.22L79.00,22.76L79.61,21.37L80.06,21.34L80.27,21.56L81.23,23.81L81.97,22.96L82.43,22.64L82.66,21.96L82.43,21.74L81.98,21.77L81.81,22.24L81.37,22.25L81.43,21.64L81.75,21.37L82.83,21.37zM78.49,21.76L78.49,22.65L78.03,22.97L76.82,23.14L76.68,24.24L76.45,24.24L76.43,21.37L78.09,21.37zM75.74,21.55L75.65,22.56L75.92,22.95L75.85,23.75L75.07,24.16L73.67,24.21L73.67,21.37L75.54,21.35zM61.10,38.56L62.30,38.73L63.88,39.54L64.46,39.77L64.85,40.14L65.67,41.09L66.66,42.30L66.64,44.66L67.45,45.26L67.45,45.72L67.22,46.10L66.65,49.68L66.04,50.85L64.46,53.41L62.81,54.91L61.82,55.51L61.06,56.54L60.52,56.53L60.12,56.29L59.66,56.29L58.09,57.32L55.77,57.11L53.44,55.89L52.63,55.31L51.83,54.34L51.44,54.14L51.45,52.38L51.23,51.58L50.65,51.18L50.66,49.87L51.59,49.02L51.84,48.28L51.86,47.61L51.38,47.29L51.43,46.10L51.95,45.44L52.95,45.26L53.81,43.86L53.64,43.68L53.60,42.35L54.19,41.75L55.51,41.71L56.39,40.80L56.58,39.60L57.09,39.12L57.76,39.12L58.15,39.36L58.48,39.36L59.65,38.73L60.05,38.33L60.72,38.34zM87.00,21.96L86.91,22.57L86.16,22.57L86.14,22.02L86.32,21.76L86.77,21.73zM84.81,21.94L84.75,22.17L84.12,22.24L84.18,21.83L84.62,21.75zM77.92,21.96L77.90,22.43L76.82,22.43L76.82,21.77L77.71,21.75zM89.15,22.16L89.14,23.43L88.86,23.76L88.55,23.76L88.35,23.55L88.32,22.01L88.49,21.76L88.92,21.76zM91.12,22.24L90.64,22.24L90.64,21.76L91.12,21.76zM80.08,22.34L80.05,22.83L79.59,22.77L79.88,22.14zM75.07,22.37L74.26,22.44L74.25,21.77L75.14,21.78zM91.34,23.14L91.14,23.66L90.70,23.79L90.44,23.61L90.50,23.01L91.12,22.93zM84.83,23.15L84.80,23.61L84.54,23.79L84.21,23.76L84.00,23.55L83.98,23.02L84.61,22.92zM75.36,23.14L75.28,23.55L74.26,23.62L74.26,22.95L75.15,22.94zM86.03,23.28L87.00,23.18L86.69,23.76L86.38,23.76zM61.31,47.29L60.26,49.40L58.85,50.99L58.49,51.07L58.53,50.04L59.46,47.82L61.34,45.69L61.52,45.65z"/></a></g><g id="hotspot.4" onmouseover="ShowHotSpot(evt,'4')" onmouseout="HideHotSpot(evt,'4')" onmousemove="ShowToolTip(evt,'4',&quot;Hotspot 1&quot;)" opacity="0"><a xlink:href=".\BPA28906.svg"><path style="fill:#ff8000;fill-rule:evenodd" d="M284.35,132.08L284.30,132.56L283.88,132.55L283.68,132.28L283.27,132.27L283.03,132.68L284.13,132.85L284.33,133.05L284.32,134.34L283.85,134.67L283.11,134.67L282.73,134.45L282.52,133.88L282.52,132.73L282.92,131.95L284.13,131.87zM282.14,132.27L282.15,134.34L281.68,134.67L280.94,134.67L280.56,134.45L280.55,132.15L280.87,131.88L281.75,131.88zM280.17,132.67L279.98,134.34L279.52,134.67L278.58,134.66L278.38,134.45L278.30,133.87L278.64,133.79L278.99,134.27L279.29,134.28L279.61,133.69L278.64,133.79L278.40,133.46L278.38,132.15L278.70,131.88L279.58,131.88zM277.82,132.06L277.73,133.07L278.00,133.46L278.01,134.13L277.52,134.65L276.59,134.67L276.22,134.45L276.18,133.28L276.41,133.06L276.24,132.88L276.12,132.29L276.53,131.88L277.62,131.87zM275.83,132.28L275.84,132.95L274.74,134.06L275.84,134.27L275.84,134.71L273.39,134.72L273.05,133.87L272.00,133.87L271.66,134.73L271.21,134.73L271.61,133.27L272.21,131.89L272.85,131.89L273.83,134.32L274.57,133.47L275.04,133.15L275.26,132.47L275.04,132.25L274.59,132.28L274.41,132.76L273.98,132.76L274.04,132.16L274.36,131.88L275.44,131.88zM271.09,132.27L271.10,133.16L270.64,133.48L269.43,133.66L269.29,134.75L269.06,134.75L269.04,131.88L270.70,131.88zM268.34,132.06L268.26,133.07L268.52,133.46L268.45,134.26L267.67,134.67L266.27,134.73L266.27,131.88L268.15,131.87zM275.01,137.46L274.90,137.55L275.03,136.21zM274.81,140.23L274.70,140.31L274.78,137.63L274.90,137.55zM274.62,142.99L274.50,143.07L274.59,140.39L274.70,140.31zM274.42,145.75L274.31,145.84L274.39,143.16L274.50,143.07zM274.22,148.51L274.11,148.60L274.19,145.92L274.31,145.84zM274.02,151.28L273.91,151.36L273.99,148.68L274.11,148.60zM273.83,154.04L273.71,154.12L273.80,151.45L273.91,151.36zM273.63,156.80L273.52,156.89L273.60,154.21L273.71,154.12zM273.43,159.78L273.32,159.87L273.40,156.97L273.52,156.89zM273.39,160.18L274.05,160.30L282.33,165.04L283.73,166.01L284.50,167.02L285.09,168.60L285.09,171.62L284.49,173.98L283.45,176.29L281.87,178.66L280.77,179.93L278.99,181.31L277.15,182.22L275.95,182.41L274.82,182.42L273.65,182.01L264.98,177.07L264.19,176.48L263.38,175.12L263.18,174.33L263.19,170.44L263.72,168.41L265.18,165.32L266.76,163.35L268.51,161.75L270.62,160.51L273.32,159.87zM279.60,132.47L279.51,133.08L278.76,133.08L278.74,132.53L278.92,132.28L279.38,132.24zM277.42,132.45L277.35,132.68L276.73,132.75L276.79,132.34L277.22,132.26zM270.53,132.48L270.51,132.94L269.43,132.94L269.43,132.28L270.32,132.26zM281.75,132.67L281.75,133.94L281.46,134.27L281.16,134.27L280.95,134.07L280.92,132.52L281.10,132.27L281.52,132.27zM272.69,132.85L272.66,133.35L272.19,133.28L272.48,132.65zM267.68,132.88L266.87,132.95L266.86,132.28L267.75,132.29zM283.95,133.46L283.93,133.93L283.63,134.27L283.33,134.27L283.12,134.06L283.11,133.33L283.72,133.24zM277.44,133.66L277.40,134.12L277.15,134.30L276.81,134.27L276.60,134.06L276.59,133.53L277.21,133.43zM267.96,133.66L267.88,134.06L266.86,134.13L266.86,133.47L267.76,133.45zM278.64,133.79L279.61,133.69L279.29,134.28L278.99,134.27z"/></a></g></g></svg>
