<?xml version="1.0" encoding="UTF-8" standalone="no"?>
<svg xmlns="http://www.w3.org/2000/svg" xmlns:xlink="http://www.w3.org/1999/xlink" width="297.000mm" height="210.000mm" viewBox="0.000000 0.000000 297.000000 210.000000" stroke-linejoin="round" stroke-linecap="round" fill="none" fill-rule="evenodd"><desc>Composer Export</desc><script type="text/ecmascript"><![CDATA[
if(typeof(top) != "undefined")
{
	top.ShowPaper = ShowPaper;
}
function ShowHotSpot(evt,hotspotid)
{
	var svgDocument = evt.target.ownerDocument;
	var strId = "hotspot."+hotspotid;
	var hotspot = svgDocument.getElementById(strId);
	if(hotspot)
		hotspot.setAttribute("opacity",".5");
}
function HideHotSpot(evt,hotspotid)
{
	var svgDocument = evt.target.ownerDocument;
	var strId = "hotspot."+hotspotid;
	var hotspot = svgDocument.getElementById(strId);
	if(hotspot)
		hotspot.setAttribute("opacity","0");

	var toolTip = svgDocument.getElementById('ToolTip');
	if(toolTip)
		toolTip.setAttribute("visibility","hidden");
}
function ShowToolTip(evt,hotspotid,strTooltip)
{
	if(strTooltip=="")
	return;

	// change text
	var svgDocument = evt.target.ownerDocument;
	var tiptext = svgDocument.getElementById('ToolTipText');
	if( !tiptext )
	return;
	tiptext.firstChild.nodeValue = " " + strTooltip + "  " ;

	// show tooltip before, else some refresh issue

	var toolTip = svgDocument.getElementById('ToolTip');
	if(!toolTip)
	return;

	toolTip.setAttribute("visibility","visible");
	toolTip.setAttribute("opacity",".95");

	// move tooltip
	// get viewbox

	var root = svgDocument.documentElement;
	var vbox = (root.getAttribute("viewBox")).split(' ');
	var x0 = parseFloat(vbox[0]);
	var y0 = parseFloat(vbox[1]);
	var vboxW = parseFloat(vbox[2]);
	var vboxH = parseFloat(vbox[3]);

	// get default width of svg

	var strW = root.getAttribute("width");
	var svgW = parseFloat(strW);
	if(strW.indexOf('mm') != -1)
	svgW *= 3.779;

	var strH = root.getAttribute("height");
	var svgH = parseFloat(strH);
	if(strH.indexOf('mm') != -1)
	svgH *= 3.779;  	// 96 dpi  -> 96/25.4 = 3.779

	// update the viewbox / width / height if svg is embedded in html with zoom fit all
	var realx0 = x0;
	var realy0 = y0;
	var realvboxW = vboxW;
	var realvboxH = vboxH;
	var realsvgW = svgW;
	var realsvgH = svgH;

	if ((typeof(top) == "undefined") || (typeof(top.svgctl1) != "undefined")) // embedded in html
	{
		// get window size in pxl

		svgW = window.innerWidth;
		svgH = window.innerHeight;

		// calculate real viewbox

		realsvgW = svgW;
		realsvgH = svgH;
		if((svgW / svgH) > (vboxW / vboxH))
		{
			realvboxW = (vboxH * svgW) / svgH;
			realvboxH = vboxH;
			realx0 = x0 - (realvboxW - vboxW)/2 ;
		}
		else
		{
			realvboxH = (vboxW * svgH) / svgW;
			realvboxW = vboxW;
			realy0 = y0 - (realvboxH - vboxH)/2 ;
		}
	}

	// get user zoom/pan

	var newScale = root.currentScale;
	var translation = root.currentTranslate;

	// transform pxl to user unit

	var xPos = (((evt.clientX+10- translation.x)/newScale) * realvboxW)/realsvgW  + realx0 ;
	var yPos = (((evt.clientY+5- translation.y)/newScale) * realvboxH)/ realsvgH  + realy0 ;
	var scaleForWidth = ( (1 / newScale) * realvboxH) / realsvgH;

	// move tooltip

	toolTip.setAttribute("transform", "translate(" + xPos + "," + yPos + ")" );

	// resize tooltip

	var fontsize = 12;
	tiptext.setAttribute("font-size",fontsize*scaleForWidth);
	tiptext.setAttribute("y", fontsize*scaleForWidth);
	var tipBG = svgDocument.getElementById('ToolTipBG');
	var outline = tiptext.getBBox();
	if(tipBG)
	{
		tipBG.setAttribute("stroke-width", 1*scaleForWidth);
		tipBG.setAttribute("width", Number(outline.width) );
		tipBG.setAttribute("height", Number(outline.height) + fontsize*.5*scaleForWidth );
	}
	var ToolTipShadow = svgDocument.getElementById('ToolTipShadow');
	if(ToolTipShadow)
	{
		ToolTipShadow.setAttribute("width", Number(outline.width) );
		ToolTipShadow.setAttribute("height", Number(outline.height) + fontsize*.5*scaleForWidth );
		ToolTipShadow.setAttribute("x", 3*scaleForWidth);
		ToolTipShadow.setAttribute("y", 3*scaleForWidth);
	}
}
function ShowPaper()
{
  var svgDocument = getDocument();
  var paper = svgDocument.getElementById("paperID");
  if(paper)
  {
    paper.setAttribute("transform","scale(1)");
    paper.setAttribute("opacity","1");
    paper.setAttribute("visibility","visible");
  }
  var svg = svgDocument.getRootElement();
  if(svg)
  {
    svg.setAttribute("width","307.000mm");
    svg.setAttribute("height","220.000mm");
    svg.setAttribute("viewBox","-5.000000 -5.000000 307.000000 220.000000");
  }
}
]]></script><defs/><g><path style="fill:#000000;fill-opacity:0.098;fill-rule:evenodd" d="M60.12,25.72L61.90,26.71L63.50,27.87L64.68,29.26L65.87,31.03L66.83,33.02L67.82,36.58L68.21,40.52L68.02,44.93L67.23,49.66L65.84,54.39L64.20,58.48L61.51,63.87L57.75,69.60L54.99,72.95L53.33,74.64L50.87,76.92L48.70,78.69L45.86,80.59L41.51,82.76L38.75,83.55L36.18,83.94L35.46,83.94L32.89,83.74L31.70,83.55L29.36,82.53L22.64,78.59L20.67,76.62L19.29,74.45L18.39,72.11L23.44,74.91L22.83,71.70L22.63,70.32L22.63,64.66L23.22,60.52L24.54,55.33L26.71,49.80L29.75,43.96L32.61,39.71L34.30,37.65L35.38,36.36L36.95,34.58L38.94,32.63L41.31,30.65L45.32,27.95L48.61,26.31L50.99,25.53L52.56,25.13L54.14,24.93L56.96,24.93zM108.27,53.35L110.05,54.34L111.63,55.52L112.84,56.88L114.39,59.46L115.58,62.82L116.17,66.18L116.17,71.57L115.97,73.15L115.19,77.69L113.74,82.36L111.43,87.95L108.47,93.27L105.84,96.96L103.14,100.38L100.89,102.67L98.72,104.64L96.65,106.32L94.29,107.90L91.63,109.39L87.95,110.84L85.12,111.37L81.24,111.37L78.87,110.78L77.51,110.16L70.79,106.22L69.61,105.24L68.01,103.08L66.41,99.90L66.39,99.70L66.61,99.70L69.02,101.08L71.40,102.35L70.78,98.74L70.58,96.17L70.58,94.06L70.91,89.86L71.75,85.76L73.14,81.23L75.32,76.11L78.19,70.89L80.86,67.05L82.35,65.18L84.91,62.21L86.70,60.45L89.27,58.28L93.61,55.32L96.57,53.95L99.53,52.96L101.50,52.56L105.51,52.56zM177.74,77.82L179.90,78.43L180.71,78.46L181.47,79.02L182.08,79.20L184.24,80.59L185.65,81.75L187.82,84.12L189.41,86.52L189.39,86.77L189.01,86.71L180.89,81.97L177.54,80.78L174.98,80.39L171.95,80.39L170.37,80.58L167.61,81.18L163.66,82.56L159.52,84.73L155.58,87.30L151.23,90.84L148.15,93.89L145.39,97.04L142.33,100.89L138.29,107.11L135.51,112.42L133.33,117.35L131.31,123.42L130.37,127.01L129.59,131.56L129.19,135.70L129.19,139.79L129.39,142.15L129.78,144.72L130.58,147.87L142.64,154.64L141.82,151.24L141.43,148.27L141.43,141.03L141.77,138.02L142.23,137.50L143.15,132.89L143.99,129.78L145.77,124.45L148.27,118.87L150.62,114.50L153.97,109.18L157.14,105.04L159.40,102.37L162.46,99.12L166.82,95.38L169.59,93.41L173.40,91.11L177.34,89.32L179.83,88.46L180.05,88.09L182.81,87.49L185.63,87.29L189.38,87.69L191.35,88.30L191.95,88.31L192.32,88.69L192.94,88.87L193.92,89.47L196.12,91.02L198.09,93.19L200.04,96.17L201.23,98.95L200.86,98.94L191.16,93.41L188.79,92.42L186.03,91.83L182.02,91.83L179.65,92.23L175.50,93.61L172.21,95.25L168.60,97.56L164.65,100.71L162.17,103.16L159.90,105.63L156.14,110.36L152.99,115.29L150.64,119.66L148.13,125.44L146.35,131.15L145.38,136.30L144.98,140.44L144.98,143.54L145.18,145.90L145.37,147.28L145.95,149.86L146.76,152.21L166.30,163.49L166.70,163.54L166.22,161.29L166.89,161.29L170.23,162.30L170.83,162.37L170.63,159.72L170.63,153.07L171.36,147.88L172.80,142.60L173.79,139.65L175.57,135.51L176.75,133.14L178.64,129.70L181.40,125.36L184.17,121.81L186.83,118.75L189.32,116.30L193.47,112.95L196.81,110.77L199.45,109.46L201.95,108.41L205.70,107.42L207.47,107.22L209.90,107.22L211.09,107.42L212.68,107.63L210.89,105.65L209.85,104.44L211.29,104.86L214.05,106.63L215.05,107.60L218.61,111.55L219.99,113.32L221.15,115.51L222.34,118.67L223.13,123.01L223.13,129.59L222.53,133.73L221.15,139.45L219.38,144.39L217.21,149.12L214.25,154.45L211.03,158.93L208.33,162.35L204.30,166.41L200.94,169.17L197.08,171.82L193.92,173.40L190.32,174.73L187.15,175.31L183.07,175.31L176.94,174.14L174.38,173.13L162.95,166.61L159.32,166.82L157.21,166.82L155.24,166.63L152.86,166.04L148.92,164.06L146.57,162.67L142.22,162.28L140.23,161.90L137.68,160.90L136.32,160.29L121.32,151.60L119.74,150.42L118.16,149.04L116.36,146.69L115.17,144.73L113.97,141.75L113.99,141.36L127.82,149.28L128.22,149.33L128.23,148.87L127.41,145.71L127.02,142.75L127.02,134.91L127.36,131.70L127.83,131.39L128.54,127.36L129.78,122.67L131.69,117.09L133.93,112.02L137.00,106.22L139.28,102.57L142.03,98.62L144.61,95.47L145.69,94.19L147.27,92.41L151.03,88.67L154.39,85.91L158.73,82.95L161.49,81.37L165.45,79.60L168.25,78.59L168.42,78.26L172.15,77.62L176.55,77.62zM263.98,142.94L266.35,143.93L268.54,145.48L270.30,147.48L271.87,150.64L272.86,153.99L273.25,157.55L273.25,160.37L272.66,165.50L271.67,169.65L269.90,174.78L267.14,180.50L264.37,185.03L262.93,186.95L260.42,190.17L258.37,192.26L255.31,195.12L251.54,197.86L247.54,199.98L244.00,201.17L241.42,201.55L239.90,201.55L237.93,201.36L235.75,200.77L233.02,199.36L228.08,196.40L226.70,195.22L225.31,193.64L223.91,191.10L223.43,189.72L228.47,192.54L228.26,191.09L228.05,190.51L227.67,187.35L227.67,182.87L228.20,178.47L229.23,174.17L230.83,169.65L232.93,165.04L235.58,160.40L238.54,156.25L242.19,152.00L243.85,150.50L245.62,148.93L248.33,146.89L251.15,145.18L254.24,143.73L257.60,142.75L259.18,142.55L262.00,142.55zM58.16,26.50L59.93,29.07L60.90,31.46L61.30,31.85L66.07,34.57L66.64,35.78L67.23,39.34L67.23,44.33L66.83,47.49L66.04,51.04L64.85,54.98L63.22,58.88L60.91,63.48L57.55,68.60L55.39,71.37L52.43,74.53L51.16,75.63L48.00,78.19L45.06,79.99L42.30,81.37L39.35,82.37L36.97,82.75L34.27,82.75L32.09,82.37L30.15,81.55L28.17,80.17L26.57,78.42L25.18,76.25L24.20,73.48L23.81,71.91L23.61,70.52L23.35,66.18L23.81,61.70L24.79,57.15L26.37,52.42L28.55,47.69L30.74,43.77L33.50,39.82L35.08,37.84L37.05,35.67L39.93,32.83L41.91,31.25L43.88,29.87L47.43,27.89L50.38,26.70L53.15,26.12L56.96,26.12zM105.32,53.74L105.91,53.94L106.52,54.52L107.88,56.50L109.07,59.26L114.23,62.19L114.79,63.81L115.38,68.15L115.38,70.78L114.79,75.52L113.80,79.86L112.02,84.78L110.64,87.95L108.67,91.50L106.10,95.44L103.16,99.21L101.56,100.97L99.21,103.16L96.84,105.13L94.06,107.09L90.52,108.87L87.90,109.80L85.91,110.18L81.43,110.18L79.26,109.60L76.72,108.19L74.74,106.22L73.36,104.05L72.55,102.10L71.96,99.93L71.57,97.55L71.57,91.50L72.10,87.89L72.94,84.38L74.66,79.40L76.89,74.52L80.28,69.03L83.13,65.37L85.40,62.90L87.88,60.45L89.86,58.88L91.83,57.50L94.59,55.91L97.17,54.74L98.93,54.13L100.71,53.74L103.33,53.54zM205.77,114.13L209.32,116.29L209.70,117.69L210.30,121.43L210.30,125.64L209.71,129.98L208.72,134.12L207.48,137.82L205.37,142.61L203.39,146.16L201.41,149.32L198.06,153.66L196.01,155.75L192.46,159.11L189.10,161.47L185.37,163.46L181.83,164.66L179.06,165.05L177.34,165.05L175.96,162.29L175.17,159.72L174.78,157.35L174.78,150.70L175.51,146.11L177.14,140.44L179.06,136.03L180.92,132.37L183.29,128.62L185.66,125.47L187.72,122.99L191.49,119.26L195.84,116.11L199.05,114.39L200.96,113.53L204.12,112.75L205.17,112.75zM213.88,118.05L214.65,119.25L217.63,121.01L218.20,121.63L218.78,124.00L219.19,128.35L218.98,131.95L218.19,136.69L216.80,141.42L214.97,145.90L212.86,150.11L210.04,154.59L207.28,158.14L204.40,161.38L201.43,163.94L198.87,165.92L195.11,168.07L191.89,169.40L189.12,169.98L184.84,169.98L182.67,169.39L181.09,168.60L179.14,167.20L178.12,166.21L178.05,165.84L181.44,165.45L184.45,164.52L188.53,162.49L191.38,160.59L193.54,158.81L196.01,156.54L197.67,154.85L200.43,151.49L201.81,149.52L204.91,144.52L207.34,139.45L209.12,134.52L210.30,129.59L210.89,124.65L210.89,121.83L210.50,118.27L210.10,116.71L210.10,115.89zM263.19,144.12L264.39,145.69L264.96,146.69L266.10,149.31L271.27,152.23L271.48,152.61L272.26,156.76L272.26,162.35L271.67,166.49L270.48,170.82L269.11,174.78L267.47,178.27L265.69,181.63L262.20,186.82L258.96,190.68L256.10,193.35L253.73,195.32L250.89,197.21L246.94,199.18L245.18,199.79L242.20,200.37L239.31,200.37L237.92,200.18L235.58,199.37L234.00,198.37L232.62,197.19L231.04,195.22L230.03,193.27L229.03,190.32L228.65,187.94L228.44,184.46L228.79,179.85L229.82,174.96L230.82,171.81L232.21,168.27L234.57,163.53L237.36,159.01L240.21,155.36L242.98,152.40L244.77,150.64L247.54,148.47L250.30,146.69L253.71,144.97L257.20,143.93L258.39,143.73L262.00,143.73z"/><g id="Actor_.0"><g style="stroke:#000000;stroke-width:0.176"><path d="M78.08,110.48L76.38,109.49L74.87,108.19L73.57,106.62L72.48,104.77L71.63,102.67L71.01,100.35L70.63,97.82L70.51,95.12L70.63,92.28L71.01,89.33L71.63,86.29L72.48,83.21L73.57,80.11L74.87,77.04L76.38,74.02L78.08,71.09L79.94,68.27L81.94,65.61L84.08,63.13L86.31,60.85L88.63,58.80L90.99,57.01L93.38,55.50L95.78,54.27L98.14,53.35L100.45,52.74L102.69,52.45L104.82,52.49L106.83,52.85L108.69,53.52"/><path d="M75.52,107.09L75.73,107.33L77.22,108.56L78.90,109.49L80.74,110.11L82.72,110.41L84.83,110.38L87.03,110.04L89.31,109.38L91.63,108.41L93.97,107.14L96.30,105.58L98.60,103.76L100.85,101.69L103.00,99.40L105.05,96.91L106.97,94.25L108.73,91.46L110.32,88.55L111.71,85.57L112.90,82.55L113.87,79.53L114.61,76.53L115.10,73.60L115.35,70.76L115.35,68.04L115.10,65.49L114.61,63.12L113.87,60.97L112.90,59.05L111.71,57.40L110.32,56.02L108.73,54.94L106.97,54.16L105.99,53.93"/></g><g style="stroke:#000000;stroke-width:0.529"><path d="M66.83,100.82L66.35,99.64L65.73,97.32L65.35,94.79L65.23,92.09L65.35,89.25L65.73,86.30L66.35,83.26L67.20,80.18L68.29,77.08L69.60,74.01L71.10,70.99L72.80,68.06L74.66,65.24L76.67,62.58L78.80,60.10L81.03,57.82L83.35,55.78L85.71,53.99L88.10,52.47L90.50,51.24L92.86,50.32L95.17,49.71L97.41,49.42L99.54,49.46L101.55,49.82L103.41,50.50L108.69,53.52L110.38,54.51L111.89,55.81L113.20,57.38L114.28,59.23L115.14,61.33L115.76,63.65L116.14,66.18L116.26,68.88L116.14,71.72L115.76,74.67L115.14,77.71L114.28,80.79L113.20,83.89L111.89,86.96L110.38,89.98L109.36,91.76L108.69,92.92L106.83,95.73L104.82,98.39L102.69,100.87L100.45,103.15L98.14,105.20L95.78,106.99L93.38,108.50L90.99,109.73L88.63,110.65L86.31,111.26L84.08,111.55L81.94,111.51L79.94,111.16L78.08,110.48L72.80,107.45L71.10,106.46L69.60,105.17L68.29,103.59L67.27,101.86"/><path d="M72.50,101.98L73.35,104.02L74.43,105.81L75.52,107.09L77.44,107.38L79.55,107.36L81.75,107.01L84.03,106.35L86.35,105.38L88.69,104.11L91.02,102.56L93.32,100.73L95.57,98.66L97.72,96.37L99.77,93.88L101.69,91.23L103.45,88.43L105.04,85.52L106.44,82.55L107.62,79.53L108.59,76.50L109.33,73.50L109.82,70.57L110.07,67.73L110.07,65.02L109.82,62.46L109.33,60.09L108.59,57.94L107.62,56.03L106.44,54.37L105.99,53.93L105.05,53.70L103.00,53.56L100.85,53.75L98.60,54.25L96.30,55.07L93.97,56.19L91.63,57.60L89.31,59.30L87.03,61.24L84.83,63.43L82.72,65.82L80.74,68.40L78.90,71.13L77.22,73.99L75.73,76.93L74.43,79.93L73.35,82.96L72.50,85.98L71.88,88.95L71.51,91.84L71.39,94.62L71.51,97.26L71.88,99.72L72.50,101.98"/></g></g><g id="Actor_.1"><g style="stroke:#000000;stroke-width:0.176"><path d="M30.03,82.92L28.34,81.93L26.83,80.64L25.53,79.06L24.44,77.21L23.58,75.11L22.96,72.79L22.59,70.26L22.46,67.57L22.59,64.72L22.96,61.77L23.58,58.73L24.44,55.65L25.53,52.56L26.77,49.62L26.83,49.48L28.34,46.46L30.03,43.53L31.89,40.71L33.90,38.05L36.03,35.57L38.27,33.29L40.58,31.25L42.95,29.46L45.34,27.94L47.73,26.71L50.10,25.79L52.41,25.18L54.64,24.89L56.78,24.93L58.79,25.29L60.65,25.97"/><path d="M57.94,26.37L58.92,26.61L60.69,27.38L62.27,28.46L63.67,29.84L64.86,31.50L65.83,33.41L66.56,35.57L67.06,37.93L67.31,40.49L67.31,43.20L67.06,46.04L66.56,48.97L65.83,51.97L64.86,55.00L63.67,58.02L62.27,60.99L60.69,63.90L58.92,66.70L57.01,69.35L54.96,71.84L52.80,74.14L50.56,76.21L48.26,78.03L45.92,79.58L43.58,80.85L41.26,81.82L38.99,82.48L36.79,82.83L34.68,82.85L32.70,82.55L30.85,81.93L29.18,81.00L27.68,79.77L27.48,79.53"/></g><g style="stroke:#000000;stroke-width:0.529"><path d="M17.27,66.38L17.18,64.54L17.31,61.69L17.68,58.74L18.30,55.71L19.16,52.62L20.25,49.53L21.55,46.45L23.06,43.43L24.75,40.50L26.61,37.69L28.62,35.02L30.75,32.54L32.99,30.26L35.30,28.22L37.67,26.43L40.06,24.91L42.45,23.69L44.82,22.76L47.13,22.15L49.37,21.87L51.50,21.90L53.51,22.26L55.37,22.94L60.65,25.97L62.34,26.96L63.85,28.25L65.15,29.83L66.24,31.68L67.10,33.77L67.72,36.10L68.09,38.62L68.22,41.32L68.09,44.16L67.72,47.12L67.10,50.15L66.24,53.24L65.15,56.33L63.85,59.41L62.34,62.43L61.08,64.62L60.65,65.36L58.79,68.17L56.78,70.83L54.64,73.32L52.41,75.59L50.10,77.64L47.73,79.43L45.34,80.95L42.95,82.17L40.58,83.10L38.27,83.70L36.03,83.99L33.90,83.96L31.89,83.60L30.03,82.92L24.75,79.89L23.06,78.90L21.55,77.61L20.25,76.03L19.16,74.18L18.30,72.08L17.68,69.76L17.31,67.24L17.27,66.38"/><path d="M23.98,72.69L24.45,74.43L25.31,76.46L26.39,78.25L27.48,79.53L29.40,79.82L31.51,79.80L33.71,79.46L35.98,78.80L38.30,77.82L40.65,76.55L42.98,75.00L45.28,73.18L47.52,71.11L49.68,68.81L51.73,66.33L53.64,63.67L55.41,60.87L56.99,57.97L58.39,54.99L59.58,51.97L60.55,48.94L61.28,45.95L61.78,43.01L62.03,40.17L62.03,37.46L61.78,34.90L61.28,32.54L60.55,30.38L59.58,28.47L58.39,26.81L57.94,26.37L57.01,26.15L54.96,26.01L52.80,26.19L50.56,26.69L48.26,27.51L45.92,28.63L43.58,30.05L41.26,31.74L38.99,33.69L36.79,35.87L34.68,38.26L32.70,40.84L30.85,43.57L29.18,46.43L27.68,49.37L26.39,52.38L25.31,55.40L24.45,58.42L23.84,61.39L23.47,64.28L23.34,67.06L23.47,69.70L23.84,72.16L23.98,72.69"/></g></g><g id="Actor_.2"><g style="stroke:#000000;stroke-width:0.176"><path d="M145.11,73.55L142.24,75.34L139.40,77.40L136.59,79.73L133.85,82.31L133.53,82.64L131.20,85.10L128.66,88.09L126.24,91.27L123.96,94.60L121.84,98.06L119.90,101.62L118.15,105.27L116.82,108.46L116.61,108.96L115.29,112.67L114.19,116.37L113.32,120.04L112.70,123.64L112.33,127.15L112.20,130.55"/><path d="M136.45,160.35L134.51,159.01L132.76,157.38L131.23,155.48L129.89,153.27L128.79,150.83L127.93,148.15L127.31,145.26L126.93,142.17L126.81,138.92L126.93,135.53L127.31,132.02L127.93,128.41L128.79,124.75L129.89,121.04L131.23,117.30L132.76,113.64L134.51,110.00L136.45,106.44L138.56,102.98L140.84,99.65L142.74,97.15L143.26,96.47L145.81,93.47L148.46,90.68L151.20,88.11L154.00,85.78L156.85,83.71L159.72,81.92L162.59,80.42L165.43,79.23L168.24,78.34L170.97,77.77L173.63,77.52L176.17,77.59L178.59,77.99L180.73,78.67L180.88,78.71L182.99,79.74"/><path d="M127.69,145.38L128.28,148.10L129.14,150.76L130.23,153.19L131.55,155.37L133.08,157.28L134.82,158.91L136.75,160.24L138.85,161.27L141.12,161.98L143.53,162.38L146.13,162.45L137.87,157.72L136.00,156.37L134.34,154.71L132.88,152.77L131.65,150.57L130.65,148.10L129.89,145.41L129.38,142.51L129.13,139.42L129.13,138.46L129.13,136.17L129.38,132.79L129.89,129.31L130.65,125.75L131.65,122.14L132.88,118.51L134.34,114.90L136.00,111.34L137.87,107.84L139.92,104.45L142.13,101.19L144.50,98.08L146.99,95.16L149.58,92.45L152.26,89.96L155.01,87.73L157.79,85.76L160.60,84.08L163.39,82.70L166.16,81.62L168.88,80.87L171.52,80.44L174.06,80.35L176.49,80.58L178.78,81.14L180.92,82.02L189.43,86.89L188.24,84.93L186.71,83.02L184.97,81.39L183.04,80.06L180.93,79.03L178.67,78.32L176.26,77.92L173.73,77.85L171.09,78.09L168.37,78.66L165.58,79.54L162.75,80.74L159.89,82.23L157.04,84.01L154.26,86.03L151.42,88.38L148.70,90.94L146.06,93.72L143.53,96.70L141.12,99.86L138.85,103.17L136.75,106.61L134.82,110.16L133.08,113.78L131.55,117.45L130.22,121.15L129.14,124.82L128.28,128.47L127.66,132.05L127.29,135.55L127.16,138.92L127.29,142.16L127.69,145.38"/><path d="M151.02,165.24L149.06,164.05L147.29,162.54L145.72,160.74L144.38,158.67L143.26,156.33L142.38,153.75L141.75,150.95L141.37,147.95L141.24,144.78L141.37,141.46L141.75,138.02L142.38,134.50L143.26,130.91L143.42,130.38L144.38,127.29L145.72,123.67L147.29,120.08L149.06,116.54L151.02,113.10L153.15,109.77L155.44,106.58L157.87,103.56L160.41,100.74L163.05,98.14L165.77,95.78L168.54,93.67L171.34,91.85L172.74,91.08L174.14,90.31L176.92,89.09L179.67,88.17L182.35,87.58L184.95,87.32L187.44,87.38L189.80,87.78L192.01,88.50L194.06,89.54"/><path d="M192.00,93.81L201.15,99.06L200.30,96.98L199.07,94.78L197.62,92.85L195.97,91.20L194.11,89.86L192.07,88.82L189.87,88.11L187.52,87.71L185.05,87.65L182.47,87.91L179.80,88.50L177.07,89.40L174.30,90.63L171.52,92.15L168.73,93.97L165.98,96.06L163.28,98.41L160.66,100.99L158.12,103.80L155.71,106.80L153.43,109.97L151.31,113.28L149.36,116.70L147.60,120.22L146.05,123.79L144.71,127.39L143.60,130.99L142.73,134.56L142.10,138.06L141.80,140.77L141.72,141.48L141.59,144.78L141.72,147.93L142.10,150.91L142.73,153.70L143.60,156.26L144.71,158.59L146.05,160.65L147.60,162.44L149.36,163.94L151.31,165.13L153.43,166.01L155.71,166.56L158.12,166.79L160.66,166.69L162.50,166.40L153.83,161.43"/><path d="M144.76,73.75L144.90,73.68"/><path d="M146.13,162.45L146.28,162.53"/><path d="M162.50,166.40L162.62,166.46"/><path d="M181.53,175.06L179.55,174.40L177.73,173.43L176.09,172.17L174.63,170.64L173.37,168.84L172.33,166.79L171.50,164.51L170.91,162.02L170.55,159.34L170.43,156.50L170.51,154.62L170.55,153.52L170.91,150.43L171.50,147.26L172.33,144.04L173.37,140.79L174.74,137.31L176.09,134.34L177.73,131.20L179.55,128.14L181.53,125.21L183.74,122.31L185.88,119.80L188.21,117.38L190.62,115.18L193.09,113.21L195.59,111.50L198.11,110.06L200.61,108.90L203.08,108.03L205.49,107.47L207.82,107.22L210.06,107.27L212.17,107.63L214.15,108.30L215.97,109.26L217.62,110.52L219.07,112.05"/><path d="M207.51,112.53L205.53,112.55L203.29,112.90L200.98,113.57L198.63,114.56L196.26,115.85L193.89,117.42L191.55,119.27L189.28,121.37L187.09,123.70L185.01,126.22L183.07,128.92L181.28,131.76L179.67,134.70L178.26,137.72L177.05,140.78L176.07,143.85L175.32,146.89L174.82,149.87L174.57,152.75L174.57,155.50L174.82,158.10L175.32,160.50L176.07,162.69L177.05,164.62L177.38,165.08L178.29,165.14L180.48,164.96L182.76,164.45L185.09,163.62L187.46,162.48L189.83,161.05L192.19,159.33L194.49,157.35L196.73,155.14L198.86,152.71L200.88,150.10L202.75,147.33L204.45,144.43L205.96,141.44L207.28,138.40L208.37,135.33L209.24,132.27L209.86,129.25L210.24,126.32L210.36,123.46L210.24,120.83L209.86,118.33L209.24,116.03L208.37,113.96L207.51,112.53L207.66,112.53L208.43,112.65L208.95,113.53L209.81,115.63L210.43,117.95L210.80,120.48L210.93,123.18L210.80,126.02L210.43,128.98L209.81,132.01L208.98,135.00L207.86,138.19L206.56,141.26L205.05,144.28L204.91,144.54L203.36,147.21L201.50,150.03L199.49,152.69L197.36,155.17L195.12,157.45L192.81,159.49L190.44,161.29L188.05,162.80L185.66,164.03L183.29,164.95L180.98,165.56L178.75,165.85L177.92,165.84L178.26,166.30L179.67,167.70L181.28,168.80L183.07,169.58L185.01,170.05L187.09,170.19L189.28,170.01L191.55,169.50L193.89,168.67L196.26,167.53L198.63,166.09L200.99,164.38L203.29,162.40L205.53,160.19L207.66,157.76L209.68,155.14L211.55,152.37L213.25,149.48L214.76,146.49L216.08,143.44L217.17,140.37L218.04,137.31L218.66,134.30L219.04,131.37L219.17,128.55L219.04,125.87L218.66,123.37L218.04,121.08L217.17,119.01L216.08,117.20L214.76,115.66L213.25,114.41L211.55,113.46L209.68,112.84L208.43,112.65"/><path d="M205.13,112.61L205.72,114.01L206.34,116.31L206.72,118.81L206.85,121.48L206.72,124.30L206.34,127.24L205.72,130.25L204.85,133.31L203.76,136.38L202.44,139.42L200.93,142.41L199.23,145.31L197.36,148.08L195.34,150.69L193.21,153.12L190.97,155.34L188.67,157.31L186.31,159.03L184.07,160.38L181.57,161.60L179.24,162.43L176.96,162.94L176.23,163.00"/><path d="M177.38,165.08L177.92,165.84"/><path d="M179.52,167.55L181.49,168.03L183.57,168.17L185.77,167.99L188.03,167.48L190.37,166.65L192.74,165.51L195.11,164.07L197.47,162.36L199.77,160.38L202.01,158.17L204.12,155.77L206.16,153.12L208.03,150.35L209.73,147.46L211.24,144.47L212.56,141.42L213.65,138.35L214.52,135.30L215.14,132.28L215.52,129.35L215.65,126.53L215.52,123.85L215.14,121.35L214.52,119.06L213.65,116.99L212.56,115.18L211.24,113.64L210.68,113.17"/><path d="M189.62,87.00L189.43,86.89"/><path d="M201.15,99.06L201.27,99.13"/></g><g style="stroke:#000000;stroke-width:0.529"><path d="M117.35,148.00L116.61,147.08L115.29,144.89L114.19,142.45L113.32,139.77L112.70,136.88L112.33,133.80L112.20,130.14L112.33,126.78L112.70,123.31L113.31,119.74L114.16,116.12L115.25,112.45L116.56,108.78L118.09,105.13L119.81,101.54L121.74,98.00L123.83,94.58L126.09,91.28L128.48,88.14L131.00,85.18L133.62,82.41L136.33,79.87L139.11,77.57L141.92,75.52L144.76,73.75L145.11,73.55L147.98,72.05L150.83,70.85L153.63,69.96L156.37,69.39L159.02,69.14L161.57,69.22L163.47,69.53L163.99,69.61L166.26,70.33L168.38,71.36L182.99,79.74L184.93,81.08L186.68,82.72L188.22,84.64L189.54,86.83L189.62,87.00L194.06,89.54L195.93,90.89L197.60,92.55L199.05,94.49L199.67,95.59L200.28,96.70L201.27,99.13L212.85,105.78L214.56,107.09L216.07,108.68L219.07,112.05L220.33,113.86L221.37,115.91L222.20,118.19L222.79,120.68L223.15,123.35L223.27,126.19L223.15,129.17L222.79,132.26L222.20,135.43L221.37,138.65L220.33,141.90L219.07,145.15L217.62,148.35L215.97,151.50L214.15,154.55L212.17,157.49L210.06,160.27L207.82,162.89L205.49,165.31L203.08,167.51L200.61,169.48L198.11,171.19L195.59,172.63L193.09,173.79L190.62,174.66L188.21,175.22L185.88,175.48L183.64,175.42L181.53,175.06L177.05,174.17L175.00,173.47L173.11,172.47L162.62,166.46L160.41,166.82L157.87,166.92L155.44,166.69L153.15,166.13L151.02,165.24L146.28,162.53L145.81,162.58L143.26,162.50L140.84,162.10L138.56,161.39L136.45,160.35L121.84,151.98L119.90,150.64L118.15,149.00L117.99,148.79"/></g></g><g id="Actor_.3"><g style="stroke:#000000;stroke-width:0.176"><path d="M235.11,200.54L233.41,199.55L231.90,198.26L230.60,196.68L229.51,194.84L228.66,192.74L228.04,190.41L227.66,187.89L227.54,185.19L227.66,182.35L228.04,179.39L228.66,176.36L229.51,173.28L230.60,170.18L231.90,167.11L233.41,164.09L235.11,161.15L236.97,158.34L238.97,155.68L241.11,153.19L243.34,150.92L245.66,148.87L248.02,147.08L250.41,145.57L252.81,144.34L255.17,143.42L257.48,142.81L259.72,142.52L261.85,142.56L263.86,142.91L265.72,143.59"/><path d="M263.02,144.00L264.00,144.23L265.76,145.01L267.35,146.09L268.74,147.47L269.93,149.12L270.90,151.04L271.64,153.19L272.13,155.56L272.38,158.11L272.38,160.83L272.13,163.67L271.64,166.60L270.90,169.60L269.93,172.62L268.74,175.64L267.35,178.62L265.76,181.52L264.00,184.32L262.08,186.98L260.03,189.47L257.88,191.76L255.63,193.83L253.33,195.65L251.00,197.21L248.66,198.48L246.34,199.45L244.06,200.11L241.86,200.45L239.75,200.48L237.77,200.17L235.93,199.56L234.25,198.63L232.76,197.39L232.55,197.16"/></g><g style="stroke:#000000;stroke-width:0.529"><path d="M223.33,189.52L222.76,187.39L222.38,184.86L222.26,182.16L222.38,179.32L222.76,176.37L223.38,173.33L224.23,170.25L225.32,167.15L226.63,164.08L228.13,161.06L229.83,158.13L231.69,155.31L233.69,152.65L235.83,150.17L238.06,147.89L240.38,145.84L242.74,144.05L245.13,142.54L247.53,141.31L249.89,140.39L252.20,139.78L254.44,139.49L256.57,139.53L258.58,139.89L260.44,140.56L265.72,143.59L267.41,144.58L268.92,145.87L270.23,147.45L271.31,149.30L272.17,151.40L272.79,153.72L273.17,156.25L273.29,158.95L273.17,161.79L272.79,164.74L272.17,167.78L271.31,170.86L270.23,173.96L268.92,177.03L267.41,180.05L265.72,182.98L263.86,185.80L261.85,188.46L260.16,190.43L259.72,190.94L257.48,193.22L255.17,195.26L252.81,197.05L250.41,198.57L248.02,199.80L245.66,200.72L243.34,201.33L241.11,201.62L238.97,201.58L236.97,201.22L235.11,200.54L229.83,197.52L228.13,196.53L226.63,195.24L225.32,193.66L224.23,191.81L223.38,189.71L223.33,189.52"/><path d="M229.08,190.41L228.91,189.79L228.54,187.32L228.42,184.69L228.54,181.91L228.91,179.01L229.53,176.04L230.38,173.03L231.46,170.00L232.76,167.00L234.25,164.05L235.93,161.20L237.77,158.47L239.75,155.89L241.86,153.50L244.06,151.31L246.34,149.36L248.66,147.67L251.00,146.26L253.33,145.14L255.63,144.32L257.88,143.82L260.03,143.63L262.08,143.77L263.02,144.00L263.47,144.44L264.65,146.09L265.62,148.01L266.36,150.16L266.85,152.53L267.10,155.09L267.10,157.80L266.85,160.64L266.36,163.57L265.62,166.57L264.65,169.59L263.47,172.61L262.07,175.59L260.48,178.50L258.72,181.29L256.80,183.95L254.75,186.44L252.60,188.73L250.35,190.80L248.05,192.62L245.72,194.18L243.38,195.45L241.06,196.42L238.78,197.08L236.58,197.42L234.47,197.45L232.55,197.16L231.46,195.88L230.38,194.09L229.53,192.05L229.08,190.41"/></g></g><g><g><path style="stroke:#000000;stroke-width:0.125;stroke-dasharray:2.4 1.6 0.8 1.6" d="M71.87,69.66L42.70,52.93"/><path style="stroke:#000000;stroke-width:0.125;stroke-dasharray:2.4 1.6 0.8 1.6" d="M77.77,73.05L121.63,98.20"/></g></g><g><g><path style="stroke:#000000;stroke-width:0.125;stroke-dasharray:2.4 1.6 0.8 1.6" d="M228.90,159.73L181.01,132.26"/><path style="stroke:#000000;stroke-width:0.125;stroke-dasharray:2.4 1.6 0.8 1.6" d="M234.80,163.11L247.77,170.55"/></g></g><g><g><path style="stroke:#000000;stroke-width:0.125" d="M42.90,137.06L69.39,97.88"/></g><g><path style="fill:#000000" d="M70.14,97.88L70.14,97.80L70.13,97.73L70.11,97.66L70.08,97.59L70.05,97.52L70.01,97.46L69.97,97.40L69.92,97.35L69.87,97.30L69.81,97.25L69.74,97.22L69.68,97.18L69.61,97.16L69.54,97.14L69.46,97.13L69.39,97.13L69.32,97.13L69.24,97.14L69.17,97.16L69.10,97.18L69.04,97.22L68.97,97.25L68.92,97.30L68.86,97.35L68.81,97.40L68.77,97.46L68.73,97.52L68.70,97.59L68.67,97.66L68.66,97.73L68.64,97.80L68.64,97.88L68.64,97.95L68.66,98.02L68.67,98.10L68.70,98.16L68.73,98.23L68.77,98.29L68.81,98.35L68.86,98.41L68.92,98.46L68.97,98.50L69.04,98.54L69.10,98.57L69.17,98.60L69.24,98.61L69.32,98.62L69.39,98.63L69.46,98.62L69.54,98.61L69.61,98.60L69.68,98.57L69.74,98.54L69.81,98.50L69.87,98.46L69.92,98.41L69.97,98.35L70.01,98.29L70.05,98.23L70.08,98.16L70.11,98.10L70.13,98.02L70.14,97.95z"/></g><g><text xml:space="preserve" fill="#000000" stroke-width="0" x="33.65" y="142.50" font-size="3.77" opacity="1.00" font-family="Arial">KIT0394</text></g></g><g id="PMI.0"><g><path style="stroke:#000000;stroke-width:0.125" d="M105.41,168.44L120.54,143.71"/></g><g><path style="fill:#000000" d="M121.29,143.71L121.28,143.64L121.27,143.56L121.26,143.49L121.23,143.42L121.20,143.36L121.16,143.29L121.12,143.23L121.07,143.18L121.01,143.13L120.95,143.09L120.89,143.05L120.82,143.02L120.76,142.99L120.68,142.97L120.61,142.96L120.54,142.96L120.46,142.96L120.39,142.97L120.32,142.99L120.25,143.02L120.18,143.05L120.12,143.09L120.06,143.13L120.01,143.18L119.96,143.23L119.91,143.29L119.88,143.36L119.84,143.42L119.82,143.49L119.80,143.56L119.79,143.64L119.79,143.71L119.79,143.78L119.80,143.86L119.82,143.93L119.84,144.00L119.88,144.06L119.91,144.13L119.96,144.19L120.01,144.24L120.06,144.29L120.12,144.33L120.18,144.37L120.25,144.40L120.32,144.43L120.39,144.45L120.46,144.46L120.54,144.46L120.61,144.46L120.68,144.45L120.76,144.43L120.82,144.40L120.89,144.37L120.95,144.33L121.01,144.29L121.07,144.24L121.12,144.19L121.16,144.13L121.20,144.06L121.23,144.00L121.26,143.93L121.27,143.86L121.28,143.78z"/></g><g><text xml:space="preserve" fill="#000000" stroke-width="0" x="94.43" y="173.87" font-size="3.80" opacity="1.00" font-family="Arial">BPA28901</text></g></g><g/><g><g/><g><text xml:space="preserve" fill="#000000" stroke-width="0" x="7.92" y="12.61" font-size="4.53" opacity="1.00" font-family="Arial" font-weight="bold">BPA28902</text></g></g><g id="paperID" visibility="hidden" opacity="0.00" transform="scale(0.000100)"><path style="stroke:#000000;stroke-width:0.500;fill:#e6e6e6;fill-rule:evenodd" d="M-2000.00,-2000.00L2297.00,-2000.00L2297.00,2210.00L-2000.00,2210.00zM0.00,0.00L297.00,0.00L297.00,210.00L0.00,210.00z"/><path style="fill:#000000;fill-opacity:0.118" d="M3.00,210.00L297.00,210.00L297.00,3.00L300.00,3.00L300.00,213.00L3.00,213.00z"/></g><g id="hotspot.0" onmouseover="ShowHotSpot(evt,'0')" onmouseout="HideHotSpot(evt,'0')" onmousemove="ShowToolTip(evt,'0',&quot;Hotspot 1&quot;)" opacity="0"><path style="fill:#00ff00;fill-rule:evenodd" d="M53.22,22.16L54.99,22.76L61.90,26.71L63.50,27.87L64.68,29.26L65.87,31.03L66.83,33.02L67.82,36.58L68.21,40.52L68.02,44.93L67.23,49.66L65.84,54.39L64.20,58.48L61.51,63.87L57.75,69.60L54.99,72.95L53.33,74.64L50.87,76.92L48.70,78.69L45.86,80.59L41.51,82.76L38.75,83.55L36.18,83.94L35.46,83.94L32.89,83.74L31.70,83.55L29.36,82.53L22.64,78.59L20.67,76.62L19.29,74.45L18.08,71.32L17.69,69.73L17.30,66.37L17.30,62.49L17.69,58.74L18.47,54.98L19.66,51.23L21.38,46.83L24.43,41.00L27.28,36.75L28.97,34.69L30.05,33.40L31.62,31.62L33.81,29.47L36.18,27.50L38.16,26.12L40.98,24.40L44.13,23.02L47.03,22.17L48.22,21.97L52.03,21.97zM101.57,49.79L103.14,50.39L110.05,54.34L111.63,55.52L112.84,56.88L114.39,59.46L115.58,62.82L116.17,66.18L116.17,71.57L115.97,73.15L115.19,77.69L113.74,82.36L111.43,87.95L108.47,93.27L105.84,96.96L103.14,100.38L100.89,102.67L98.72,104.64L96.65,106.32L94.29,107.90L91.63,109.39L87.95,110.84L85.12,111.37L81.24,111.37L78.87,110.78L77.51,110.16L70.79,106.22L69.61,105.24L68.01,103.08L66.99,101.40L66.23,99.14L65.83,97.76L65.45,95.38L65.45,88.74L66.18,83.94L67.36,79.80L68.61,76.31L70.71,71.70L73.57,66.86L76.71,62.50L79.78,59.05L81.57,57.30L84.13,55.13L88.14,52.42L92.03,50.59L95.78,49.60L98.80,49.40zM258.26,139.78L260.03,140.38L266.35,143.93L268.54,145.48L270.30,147.48L271.87,150.64L272.86,153.99L273.25,157.55L273.25,160.37L272.66,165.50L271.67,169.65L269.90,174.78L267.14,180.50L264.37,185.03L262.93,186.95L260.42,190.17L258.37,192.26L255.31,195.12L251.54,197.86L247.54,199.98L244.00,201.17L241.42,201.55L239.90,201.55L237.93,201.36L235.75,200.77L233.02,199.36L228.08,196.40L226.70,195.22L225.31,193.64L223.91,191.10L223.12,188.73L222.73,187.15L222.54,185.77L222.34,183.20L222.34,180.90L222.73,176.75L223.51,172.79L224.90,168.26L227.08,163.14L229.95,157.92L232.62,154.08L234.10,152.21L236.66,149.24L238.46,147.48L241.02,145.31L245.03,142.61L247.80,141.23L250.49,140.18L253.45,139.59L257.07,139.59zM45.73,139.97L46.11,141.25L47.23,139.75L47.69,139.77L47.85,141.42L48.09,141.60L47.68,142.63L47.24,142.63L47.10,141.95L45.86,141.96L45.27,142.57L44.52,142.57L44.10,142.16L44.06,141.75L44.59,141.70L44.74,142.17L45.05,142.17L45.36,141.58L44.59,141.70L44.15,141.36L44.14,140.05L44.46,139.77L45.54,139.77zM43.57,139.96L43.49,140.97L43.75,141.35L43.76,142.03L43.31,142.57L42.34,142.57L41.93,142.16L41.90,141.74L42.33,141.76L42.52,142.01L43.16,142.03L43.15,141.38L42.69,141.21L42.74,140.86L43.16,140.62L43.19,140.37L42.97,140.15L42.70,140.15L42.48,140.36L41.89,140.45L41.95,140.06L42.29,139.77L43.37,139.76zM41.58,140.37L41.59,142.03L41.13,142.57L40.19,142.55L39.78,141.97L39.79,140.43L40.10,139.76L41.20,139.77zM37.33,140.03L37.33,139.80L39.63,139.80L39.63,140.03L38.74,140.17L38.60,142.65L38.37,142.65L38.23,140.17zM34.47,140.66L35.38,139.77L36.05,139.77L35.25,140.65L35.25,141.15L36.28,142.36L36.25,142.62L35.66,142.55L34.68,141.35L34.47,141.40L34.26,142.64L33.82,142.64L33.82,139.76L34.26,139.76zM36.82,142.65L36.59,142.65L36.59,139.75L36.82,139.75zM58.16,26.50L58.76,27.28L60.12,29.47L61.31,32.63L61.90,35.79L61.90,41.97L61.10,46.70L59.92,50.84L58.28,55.13L55.59,60.52L52.22,65.64L50.19,68.15L48.79,69.71L47.70,70.98L46.13,72.38L42.68,75.24L38.83,77.51L37.37,78.22L34.26,79.25L32.63,79.59L28.15,79.60L27.37,79.39L26.00,77.60L25.18,76.25L24.20,73.48L23.81,71.91L23.61,70.52L23.35,66.18L23.81,61.70L24.79,57.15L26.37,52.42L28.55,47.69L30.74,43.77L33.50,39.82L35.08,37.84L37.05,35.67L39.93,32.83L41.91,31.25L43.88,29.87L47.43,27.89L50.38,26.70L53.15,26.12L56.96,26.12zM105.32,53.74L105.91,53.94L106.32,54.32L107.51,55.89L108.86,58.68L109.65,61.64L110.05,64.60L110.05,68.21L109.85,70.58L108.86,75.51L107.29,80.45L105.65,84.14L103.74,87.95L100.69,92.60L97.64,96.45L96.04,98.21L94.08,100.00L91.71,101.97L88.68,104.07L84.72,106.04L82.80,106.68L80.19,107.22L76.70,107.22L75.52,107.02L74.35,105.62L73.36,104.05L72.55,102.10L71.96,99.93L71.57,97.55L71.57,91.50L72.10,87.89L72.94,84.38L74.66,79.40L76.89,74.52L80.28,69.03L83.13,65.37L85.40,62.90L87.88,60.45L89.86,58.88L91.83,57.50L94.59,55.91L97.17,54.74L98.93,54.13L100.71,53.74L103.33,53.54zM45.35,140.35L45.33,141.04L44.66,141.04L44.73,140.22L45.13,140.14zM41.19,140.98L40.97,142.03L40.38,141.97L40.39,140.22L40.79,140.14zM47.10,141.43L46.62,141.37L47.04,140.95L47.13,140.98zM44.59,141.70L45.36,141.58L45.05,142.17L44.74,142.17zM263.19,144.12L264.39,145.69L265.16,147.09L266.14,149.46L266.94,153.20L266.94,159.98L266.54,162.54L265.56,166.88L263.77,171.81L262.20,175.37L261.41,176.75L258.84,181.09L256.22,184.58L254.52,186.64L253.44,187.92L250.97,190.19L248.60,192.16L245.82,194.12L242.01,196.03L239.65,196.83L237.67,197.21L233.19,197.22L232.41,197.01L230.82,194.85L230.03,193.27L229.03,190.32L228.65,187.94L228.44,184.46L228.79,179.85L229.82,174.96L230.82,171.81L232.21,168.27L234.57,163.53L237.36,159.01L240.22,155.36L242.98,152.40L244.77,150.64L247.54,148.47L250.30,146.69L253.71,144.97L257.20,143.93L258.39,143.73L262.00,143.73z"/></g></g></svg>
