<?xml version="1.0" encoding="UTF-8" standalone="no"?>
<svg xmlns="http://www.w3.org/2000/svg" xmlns:xlink="http://www.w3.org/1999/xlink" width="297.000mm" height="210.000mm" viewBox="0.000000 0.000000 297.000000 210.000000" stroke-linejoin="round" stroke-linecap="round" fill="none" fill-rule="evenodd"><desc>Composer Export</desc><script type="text/ecmascript"><![CDATA[
if(typeof(top) != "undefined")
{
	top.ShowPaper = ShowPaper;
}
function ShowHotSpot(evt,hotspotid)
{
	var svgDocument = evt.target.ownerDocument;
	var strId = "hotspot."+hotspotid;
	var hotspot = svgDocument.getElementById(strId);
	if(hotspot)
		hotspot.setAttribute("opacity",".5");
}
function HideHotSpot(evt,hotspotid)
{
	var svgDocument = evt.target.ownerDocument;
	var strId = "hotspot."+hotspotid;
	var hotspot = svgDocument.getElementById(strId);
	if(hotspot)
		hotspot.setAttribute("opacity","0");

	var toolTip = svgDocument.getElementById('ToolTip');
	if(toolTip)
		toolTip.setAttribute("visibility","hidden");
}
function ShowToolTip(evt,hotspotid,strTooltip)
{
	if(strTooltip=="")
	return;

	// change text
	var svgDocument = evt.target.ownerDocument;
	var tiptext = svgDocument.getElementById('ToolTipText');
	if( !tiptext )
	return;
	tiptext.firstChild.nodeValue = " " + strTooltip + "  " ;

	// show tooltip before, else some refresh issue

	var toolTip = svgDocument.getElementById('ToolTip');
	if(!toolTip)
	return;

	toolTip.setAttribute("visibility","visible");
	toolTip.setAttribute("opacity",".95");

	// move tooltip
	// get viewbox

	var root = svgDocument.documentElement;
	var vbox = (root.getAttribute("viewBox")).split(' ');
	var x0 = parseFloat(vbox[0]);
	var y0 = parseFloat(vbox[1]);
	var vboxW = parseFloat(vbox[2]);
	var vboxH = parseFloat(vbox[3]);

	// get default width of svg

	var strW = root.getAttribute("width");
	var svgW = parseFloat(strW);
	if(strW.indexOf('mm') != -1)
	svgW *= 3.779;

	var strH = root.getAttribute("height");
	var svgH = parseFloat(strH);
	if(strH.indexOf('mm') != -1)
	svgH *= 3.779;  	// 96 dpi  -> 96/25.4 = 3.779

	// update the viewbox / width / height if svg is embedded in html with zoom fit all
	var realx0 = x0;
	var realy0 = y0;
	var realvboxW = vboxW;
	var realvboxH = vboxH;
	var realsvgW = svgW;
	var realsvgH = svgH;

	if ((typeof(top) == "undefined") || (typeof(top.svgctl1) != "undefined")) // embedded in html
	{
		// get window size in pxl

		svgW = window.innerWidth;
		svgH = window.innerHeight;

		// calculate real viewbox

		realsvgW = svgW;
		realsvgH = svgH;
		if((svgW / svgH) > (vboxW / vboxH))
		{
			realvboxW = (vboxH * svgW) / svgH;
			realvboxH = vboxH;
			realx0 = x0 - (realvboxW - vboxW)/2 ;
		}
		else
		{
			realvboxH = (vboxW * svgH) / svgW;
			realvboxW = vboxW;
			realy0 = y0 - (realvboxH - vboxH)/2 ;
		}
	}

	// get user zoom/pan

	var newScale = root.currentScale;
	var translation = root.currentTranslate;

	// transform pxl to user unit

	var xPos = (((evt.clientX+10- translation.x)/newScale) * realvboxW)/realsvgW  + realx0 ;
	var yPos = (((evt.clientY+5- translation.y)/newScale) * realvboxH)/ realsvgH  + realy0 ;
	var scaleForWidth = ( (1 / newScale) * realvboxH) / realsvgH;

	// move tooltip

	toolTip.setAttribute("transform", "translate(" + xPos + "," + yPos + ")" );

	// resize tooltip

	var fontsize = 12;
	tiptext.setAttribute("font-size",fontsize*scaleForWidth);
	tiptext.setAttribute("y", fontsize*scaleForWidth);
	var tipBG = svgDocument.getElementById('ToolTipBG');
	var outline = tiptext.getBBox();
	if(tipBG)
	{
		tipBG.setAttribute("stroke-width", 1*scaleForWidth);
		tipBG.setAttribute("width", Number(outline.width) );
		tipBG.setAttribute("height", Number(outline.height) + fontsize*.5*scaleForWidth );
	}
	var ToolTipShadow = svgDocument.getElementById('ToolTipShadow');
	if(ToolTipShadow)
	{
		ToolTipShadow.setAttribute("width", Number(outline.width) );
		ToolTipShadow.setAttribute("height", Number(outline.height) + fontsize*.5*scaleForWidth );
		ToolTipShadow.setAttribute("x", 3*scaleForWidth);
		ToolTipShadow.setAttribute("y", 3*scaleForWidth);
	}
}
function ShowPaper()
{
  var svgDocument = getDocument();
  var paper = svgDocument.getElementById("paperID");
  if(paper)
  {
    paper.setAttribute("transform","scale(1)");
    paper.setAttribute("opacity","1");
    paper.setAttribute("visibility","visible");
  }
  var svg = svgDocument.getRootElement();
  if(svg)
  {
    svg.setAttribute("width","307.000mm");
    svg.setAttribute("height","220.000mm");
    svg.setAttribute("viewBox","-5.000000 -5.000000 307.000000 220.000000");
  }
}
]]></script><defs/><g><path style="fill:#000000;fill-opacity:0.098;fill-rule:evenodd" d="M93.17,31.58L92.84,31.58L92.84,31.25L93.17,31.25zM95.39,31.82L94.83,31.78L95.44,31.27zM80.80,40.48L80.47,40.48L80.47,40.15L80.80,40.15zM82.80,40.73L82.71,40.42L83.00,40.37zM68.67,49.30L68.19,49.65L68.06,49.09zM93.68,52.04L92.81,52.09L92.80,51.79L93.15,51.74zM95.47,52.17L95.16,52.63L95.16,52.09L95.42,52.03zM56.09,58.17L56.00,58.48L55.47,58.55L55.47,57.96L55.83,57.91zM251.74,72.03L251.91,87.27L252.19,87.27L252.39,76.28L252.93,76.07L253.21,75.51L253.23,87.01L251.89,87.65L251.73,139.68L251.20,140.64L211.09,169.53L209.84,169.55L210.12,169.35L210.38,101.30L212.64,99.60L251.15,71.79L251.48,71.77zM93.17,72.89L92.84,72.89L92.84,72.56L93.17,72.56zM95.39,73.13L94.83,73.09L95.44,72.57zM56.06,79.10L55.48,79.06L55.46,78.74L55.83,78.70zM58.02,79.32L57.71,79.25L58.08,78.75zM93.68,93.35L92.81,93.39L92.80,93.10L93.15,93.05zM95.47,93.47L95.16,93.94L95.16,93.40L95.42,93.34zM56.09,99.48L56.00,99.79L55.47,99.85L55.47,99.26L55.83,99.22zM81.08,102.20L80.98,102.51L80.46,102.57L80.46,101.98L80.81,101.94zM82.95,102.73L82.43,102.74L83.07,102.25zM68.43,111.47L68.10,111.47L68.10,111.14L68.43,111.14zM56.06,120.41L55.48,120.36L55.46,120.05L55.83,120.01zM58.02,120.63L57.71,120.55L58.08,120.06zM253.13,135.40L252.38,135.49L252.38,124.50L252.89,124.20L253.20,124.23zM163.90,114.43L124.58,142.66L124.51,76.77L163.31,48.78L163.60,48.52L163.90,48.54zM162.90,51.37L162.58,51.29L162.96,50.80zM150.59,60.29L150.19,60.51L150.24,59.93L150.55,59.91zM138.23,69.19L137.82,69.42L137.87,68.83L138.18,68.81zM249.70,76.62L249.42,76.62L249.48,75.84L250.22,75.74zM248.29,80.44L248.27,136.47L247.66,137.35L214.52,161.35L213.80,161.46L213.88,104.55L217.51,101.75L247.44,80.20L248.02,80.18zM237.63,85.03L237.82,85.66L237.35,85.72L237.04,85.49L237.11,84.75L237.86,84.65zM162.90,92.68L162.58,92.60L162.96,92.11zM225.27,94.61L224.50,94.57L224.47,94.16L224.94,93.53L225.25,93.57zM249.70,97.40L249.42,97.40L249.49,96.63L250.01,96.31zM212.35,103.58L212.07,103.58L212.13,102.80L212.87,102.70zM249.70,117.93L249.42,117.93L249.48,117.14L250.22,117.05zM150.54,122.37L150.23,122.39L150.30,121.83L150.59,121.79zM212.91,124.31L212.64,124.06L212.14,124.28L212.09,123.57L212.34,123.25L212.84,123.23zM137.96,131.26L137.87,130.95L138.16,130.90zM249.70,138.71L249.42,138.71L249.49,137.93L250.01,137.62zM212.35,144.89L212.07,144.89L212.13,144.11L212.87,144.01zM237.63,147.31L237.91,147.32L237.89,147.55L237.03,147.60L237.06,146.74L237.59,146.72zM225.27,156.44L224.43,156.49L224.45,155.98L224.71,155.65L225.21,155.63zM212.91,165.62L212.64,165.37L212.14,165.59L212.09,164.88L212.34,164.56L212.84,164.54z"/><g id="Actor_.0"><g style="stroke:#000000;stroke-width:0.176"><path d="M225.07,156.58L225.08,156.63L225.11,156.67L225.14,156.69L225.18,156.69L225.22,156.68L225.27,156.64L225.31,156.59L225.34,156.53L225.38,156.46L225.40,156.38L225.41,156.30L225.41,156.23L225.40,156.17L225.38,156.12L225.35,156.08L225.31,156.07L225.27,156.08L225.23,156.10L225.21,156.12L225.19,156.14L225.15,156.22L225.11,156.31L225.10,156.35L225.09,156.40L225.07,156.49L225.07,156.58L225.08,156.65L225.11,156.71L225.11,156.72L225.14,156.75L225.15,156.76L225.17,156.76L225.20,156.77L225.19,156.77L225.17,156.76"/><path d="M225.15,156.76L225.14,156.75L225.14,156.75"/><path d="M225.21,156.77L225.24,156.76L225.26,156.75L225.21,156.77L225.20,156.77"/><path d="M225.26,156.75L225.29,156.73L225.34,156.68L225.39,156.61L225.43,156.53L225.46,156.44L225.48,156.34L225.49,156.25L225.48,156.17L225.46,156.10L225.45,156.08L225.47,156.13L225.48,156.21L225.48,156.30L225.47,156.39L225.46,156.44L225.44,156.48L225.40,156.57L225.36,156.65L225.31,156.71L225.26,156.75L225.26,156.75"/><path d="M225.11,156.72L225.11,156.71L225.11,156.71"/><path d="M225.03,157.10L225.03,157.05L224.98,156.90L224.94,156.82L224.83,156.67L224.36,156.53"/><path d="M224.37,156.45L224.41,156.16L224.41,156.16"/><path d="M224.41,156.73L224.41,156.73"/><path d="M225.28,156.97L225.21,157.01L225.14,157.02L225.07,157.00L225.02,156.96L224.98,156.90L224.95,156.81L224.93,156.70L224.93,156.58L224.95,156.45L224.98,156.32L225.02,156.20L225.07,156.08L225.14,155.97L225.21,155.88L225.28,155.82L225.10,155.92L225.03,155.95L224.56,155.81"/><path d="M225.03,155.95L225.01,156.19L224.98,156.32L224.87,156.59L224.83,156.67"/><path d="M224.41,156.16L224.46,156.03L224.53,155.87"/><path d="M225.21,156.12L225.24,156.08L225.29,156.04L225.30,156.04L225.34,156.02L225.35,156.02L225.38,156.02L225.40,156.03L225.39,156.02L225.38,156.02"/><path d="M224.71,155.66L224.71,155.66L224.62,155.74"/><path d="M224.51,155.92L224.51,155.91"/><path d="M225.48,156.71L225.42,156.82L225.37,156.88"/><path d="M225.58,156.47L225.58,156.46"/><path d="M225.62,156.17L225.62,156.09L225.61,155.98L225.58,155.89L225.54,155.83L225.48,155.78L225.42,155.77L225.35,155.78L225.28,155.82L225.34,155.77L225.43,155.66"/><path d="M225.45,156.08L225.44,156.07L225.42,156.04L225.40,156.03"/><path d="M225.42,156.04L225.43,156.05L225.44,156.07"/><path d="M225.35,156.02L225.35,156.02L225.34,156.02"/><path d="M225.30,156.04L225.30,156.04L225.29,156.04"/><path d="M225.62,156.09L225.62,156.05"/></g><g style="stroke:#000000;stroke-width:0.529"><path d="M224.41,156.73L224.52,156.91L224.56,156.96L225.03,157.10L225.20,157.02L225.28,156.97L225.35,156.91L225.37,156.88L225.40,156.85L225.43,156.81L225.47,156.74L225.48,156.71L225.54,156.59L225.58,156.47L225.61,156.34L225.62,156.21L225.62,156.17L225.63,156.09L225.62,156.05L225.62,156.05"/><path d="M224.41,156.16L224.38,156.29L224.37,156.42L224.37,156.45L224.36,156.53L224.38,156.66L224.41,156.73"/><path d="M224.51,155.92L224.45,156.03L224.41,156.16"/><path d="M225.62,156.05L225.61,155.97L225.58,155.89L225.47,155.72L225.43,155.66L224.96,155.53L224.79,155.61L224.71,155.66"/><path d="M224.51,155.91L224.53,155.87L224.56,155.81L224.59,155.78L224.62,155.74L224.64,155.72L224.71,155.66"/></g></g><g id="Actor_.1"><g style="stroke:#000000;stroke-width:0.176"><path d="M249.92,139.17L249.92,139.13L249.87,138.97L249.83,138.89L249.72,138.74L249.25,138.60"/><path d="M250.32,137.74L250.23,137.84L250.17,137.89L250.10,137.96L250.03,138.04L249.96,138.15L249.91,138.27L249.87,138.40L249.84,138.52L249.82,138.65L249.82,138.78L249.84,138.88L249.87,138.97L249.91,139.04L249.96,139.08L250.03,139.09L250.10,139.08L250.17,139.04"/><path d="M249.25,138.52L249.30,138.23L249.34,138.10L249.42,137.94"/><path d="M249.45,137.89L249.92,138.02L249.90,138.26L249.87,138.40L249.76,138.66L249.72,138.74"/><path d="M249.30,138.23L249.30,138.23"/><path d="M249.30,138.81L249.30,138.81"/><path d="M249.92,138.02L249.98,138.00L250.17,137.89L250.24,137.85L250.31,137.84L250.37,137.86L250.43,137.90L250.47,137.96L250.50,138.05L250.51,138.16L250.51,138.24"/><path d="M249.60,137.73L249.60,137.73L249.51,137.81"/><path d="M249.40,137.99L249.40,137.99"/><path d="M250.06,138.84L250.08,138.84L250.09,138.84L250.06,138.84L250.04,138.83L250.03,138.82L250.00,138.79L250.00,138.78L249.97,138.73L249.96,138.65L249.97,138.70L250.00,138.74L250.03,138.76L250.07,138.77L250.11,138.75L250.16,138.72L250.20,138.67L250.23,138.60L250.26,138.53L250.29,138.45L250.30,138.37L250.30,138.30L250.29,138.24L250.27,138.19L250.24,138.16L250.20,138.14L250.16,138.15L250.12,138.17L250.10,138.20L250.13,138.15L250.18,138.11L250.19,138.11L250.23,138.10L250.24,138.09L250.27,138.10L250.29,138.11L250.28,138.10L250.27,138.10"/><path d="M250.04,138.83L250.03,138.83L250.03,138.82"/><path d="M250.10,138.84L250.15,138.82L250.12,138.84L250.09,138.84"/><path d="M250.29,138.11L250.31,138.11L250.33,138.15L250.34,138.15L250.36,138.21L250.37,138.28L250.37,138.37L250.36,138.46L250.34,138.51L250.33,138.56L250.31,138.60L250.29,138.64L250.25,138.72L250.20,138.78L250.15,138.82L250.15,138.82"/><path d="M250.15,138.82L250.18,138.81L250.23,138.75L250.28,138.68L250.32,138.60L250.35,138.51L250.37,138.42L250.38,138.33L250.37,138.24L250.35,138.18L250.34,138.15"/><path d="M250.37,138.79L250.31,138.89L250.25,138.96"/><path d="M250.47,138.54L250.47,138.54"/><path d="M250.00,138.79L250.00,138.79L250.00,138.78"/><path d="M250.33,138.15L250.32,138.13L250.31,138.11"/><path d="M250.10,138.20L250.08,138.21L250.04,138.29L250.00,138.38L249.99,138.42L249.98,138.47L249.96,138.56L249.96,138.65L249.96,138.65"/><path d="M250.51,138.16L250.51,138.12"/><path d="M250.24,138.09L250.24,138.09L250.23,138.10"/><path d="M250.19,138.11L250.19,138.11L250.18,138.11"/></g><g style="stroke:#000000;stroke-width:0.529"><path d="M249.30,138.81L249.27,138.73L249.25,138.60L249.25,138.52L249.26,138.49L249.27,138.36L249.30,138.23"/><path d="M249.60,137.73L249.68,137.68L249.85,137.60L250.32,137.74L250.36,137.79L250.47,137.96L250.50,138.04L250.52,138.17L250.51,138.24L250.51,138.28L250.50,138.41L250.47,138.54L250.42,138.67L250.37,138.79L250.36,138.81L250.32,138.88L250.29,138.92L250.25,138.96L250.24,138.98L250.17,139.04L250.09,139.09L249.92,139.17L249.45,139.03L249.41,138.98L249.30,138.81"/><path d="M249.30,138.23L249.34,138.11L249.40,137.99"/><path d="M249.40,137.99L249.42,137.94L249.45,137.89L249.48,137.85L249.51,137.81L249.53,137.79L249.60,137.73"/><path d="M250.51,138.12L250.51,138.12"/></g></g><g id="Actor_.2"><g style="stroke:#000000;stroke-width:0.176"><path d="M237.83,147.06L237.84,147.06L237.85,147.07L237.83,147.06L237.80,147.06L237.78,147.06L237.74,147.07L237.74,147.08L237.69,147.12L237.65,147.16L237.67,147.14L237.72,147.11L237.76,147.11L237.80,147.12L237.82,147.15L237.84,147.20L237.85,147.27L237.85,147.34L237.84,147.42L237.82,147.49L237.79,147.57L237.75,147.63L237.71,147.68L237.67,147.72L237.63,147.73L237.59,147.73L237.55,147.70L237.53,147.66L237.52,147.62L237.53,147.69L237.55,147.75L237.55,147.75L237.58,147.78L237.59,147.79L237.59,147.79L237.58,147.78"/><path d="M237.47,148.13L237.47,148.09L237.42,147.93L237.38,147.85L237.28,147.70L236.81,147.57"/><path d="M237.87,146.70L237.79,146.80L237.72,146.86L237.65,146.92L237.58,147.01L237.52,147.11L237.47,147.23L237.42,147.36L237.39,147.49L237.38,147.62L237.38,147.74L237.39,147.85L237.42,147.93L237.47,148.00L237.52,148.04L237.58,148.06L237.65,148.04L237.72,148.00"/><path d="M237.28,147.70L237.32,147.63L237.42,147.36L237.45,147.23L237.47,146.99L237.01,146.85"/><path d="M236.81,147.48L236.86,147.20L236.90,147.07L236.98,146.91"/><path d="M236.86,147.20L236.86,147.20"/><path d="M237.55,147.75L237.55,147.75L237.55,147.75"/><path d="M237.59,147.79L237.62,147.80L237.65,147.80L237.63,147.81L237.62,147.80"/><path d="M236.86,147.77L236.86,147.77"/><path d="M237.65,147.16L237.64,147.18L237.59,147.25L237.56,147.34L237.54,147.39L237.53,147.44L237.52,147.53L237.52,147.61L237.52,147.62L237.52,147.62"/><path d="M237.16,146.69L237.16,146.69L237.07,146.78"/><path d="M237.47,146.99L237.54,146.96L237.72,146.86L237.79,146.82L237.86,146.81L237.93,146.82L237.98,146.86L238.02,146.93L238.05,147.01L238.07,147.12L238.07,147.09"/><path d="M236.95,146.95L236.95,146.95"/><path d="M237.66,147.80L237.68,147.80L237.70,147.79L237.66,147.80L237.65,147.80"/><path d="M237.85,147.07L237.86,147.08L237.89,147.11L237.89,147.11L237.91,147.17L237.93,147.25L237.93,147.29L237.93,147.33L237.91,147.43L237.90,147.47L237.89,147.52L237.85,147.61L237.80,147.68L237.75,147.74L237.70,147.78L237.70,147.79"/><path d="M237.70,147.78L237.73,147.77L237.78,147.72L237.83,147.65L237.87,147.57L237.90,147.47L237.92,147.38L237.93,147.29L237.93,147.21L237.91,147.14L237.89,147.11"/><path d="M237.93,147.75L237.86,147.86L237.81,147.92"/><path d="M238.02,147.50L238.02,147.50"/><path d="M238.07,147.12L238.07,147.20"/><path d="M237.80,147.06L237.79,147.06L237.78,147.06"/><path d="M237.74,147.07L237.74,147.08L237.74,147.08"/><path d="M237.86,147.08L237.88,147.09L237.89,147.11"/></g><g style="stroke:#000000;stroke-width:0.529"><path d="M237.16,146.69L237.24,146.64L237.40,146.56L237.87,146.70L237.92,146.75L238.02,146.93L238.05,147.00L238.07,147.13L238.07,147.20L238.07,147.24L238.05,147.37L238.02,147.50L237.98,147.63L237.93,147.75L237.91,147.77L237.87,147.85L237.85,147.89L237.81,147.92L237.79,147.94L237.72,148.00L237.64,148.05L237.47,148.13L237.01,148.00L236.96,147.94L236.86,147.77"/><path d="M236.86,147.20L236.83,147.33L236.81,147.46L236.81,147.48L236.81,147.57L236.83,147.69L236.86,147.77"/><path d="M236.95,146.95L236.90,147.07L236.86,147.19"/><path d="M236.95,146.95L236.98,146.91L237.01,146.85L237.03,146.81L237.07,146.78L237.09,146.76L237.16,146.69"/><path d="M238.07,147.09L238.07,147.09"/></g></g><g id="Actor_.3"><g style="stroke:#000000;stroke-width:0.176"><path d="M80.93,39.20L80.84,39.19L80.74,39.23L80.64,39.31L80.55,39.42L80.46,39.57L80.39,39.74L80.34,39.92L80.31,40.10L80.31,40.27L80.34,40.42L80.38,40.53L80.45,40.60L80.53,40.64"/><path d="M81.17,39.65L81.14,39.64L81.14,39.63L81.13,39.63"/><path d="M80.96,40.39L80.93,40.38L80.93,40.38L80.92,40.38"/><path d="M82.89,40.14L82.84,40.14L82.79,40.16L82.74,40.20L82.69,40.26L82.64,40.34L82.61,40.42L82.61,40.43L82.58,40.52L82.57,40.61L82.57,40.70L82.58,40.77L82.60,40.83L82.64,40.87L82.68,40.89"/><path d="M82.98,40.29L82.96,40.25L82.93,40.23L82.89,40.22L82.85,40.24L82.80,40.27L82.76,40.32L82.73,40.39L82.70,40.46L82.68,40.53L82.67,40.61L82.66,40.68L82.67,40.74L82.69,40.79L82.72,40.82L82.76,40.84L82.80,40.83L82.84,40.80"/></g><g style="stroke:#000000;stroke-width:0.529"><path d="M80.48,40.62L80.39,40.59L80.33,40.51L80.28,40.40L80.26,40.25L80.26,40.09L80.29,39.91L80.34,39.73L80.41,39.56L80.49,39.41L80.59,39.29L80.69,39.21L80.79,39.18L80.88,39.19L80.93,39.20L81.01,39.26L81.06,39.35L81.17,39.65L82.89,40.14L82.93,40.17L82.96,40.22L82.98,40.29L83.00,40.35L83.00,40.41L83.00,40.49L82.98,40.56L82.95,40.64L82.92,40.71L82.88,40.76L82.84,40.80L82.78,40.85L82.73,40.88L82.68,40.89L80.96,40.39L80.73,40.57L80.63,40.62L80.53,40.64L80.48,40.62"/></g></g><g id="Actor_.4"><g style="stroke:#000000;stroke-width:0.176"><path d="M212.63,165.55L212.64,165.59L212.66,165.63L212.70,165.65L212.74,165.66L212.78,165.64L212.82,165.61L212.86,165.56L212.90,165.49L212.93,165.42L212.95,165.34L212.96,165.26L212.96,165.19L212.96,165.13L212.93,165.08L212.91,165.05L212.87,165.03L212.87,165.03L212.83,165.04L212.79,165.06L212.76,165.09L212.75,165.10L212.71,165.18L212.67,165.27L212.65,165.32L212.64,165.36L212.63,165.46L212.63,165.54L212.64,165.62L212.66,165.67L212.67,165.68L212.69,165.71L212.71,165.72L212.70,165.72L212.69,165.71"/><path d="M212.73,165.73L212.74,165.73L212.76,165.73L212.73,165.73L212.71,165.72"/><path d="M212.77,165.73L212.79,165.73L212.81,165.71L212.77,165.73L212.76,165.73"/><path d="M212.76,165.09L212.80,165.04L212.85,165.00L212.85,165.00L212.89,164.99L212.91,164.98L212.94,164.99L212.96,165.00L212.97,165.01L213.00,165.04L213.00,165.04L213.03,165.10L213.04,165.17L213.04,165.26L213.02,165.35L213.01,165.40L213.00,165.45L212.96,165.53L212.92,165.61L212.87,165.67L212.82,165.71L212.81,165.71"/><path d="M212.82,165.71L212.84,165.70L212.89,165.64L212.94,165.57L212.98,165.49L213.01,165.40L213.03,165.31L213.04,165.22L213.04,165.13L213.02,165.07L213.00,165.04"/><path d="M212.59,166.06L212.58,166.02L212.53,165.86L212.49,165.78L212.39,165.63L211.92,165.50"/><path d="M212.39,165.63L212.43,165.55L212.53,165.29L212.51,165.41L212.49,165.54L212.49,165.67L212.51,165.77L212.53,165.86L212.58,165.93L212.63,165.97L212.69,165.98L212.76,165.97L212.83,165.93"/><path d="M211.92,165.41L211.97,165.12L211.97,165.12"/><path d="M212.12,164.78L212.59,164.91L212.56,165.15L212.53,165.29L212.58,165.16L212.63,165.04L212.69,164.93L212.76,164.85L212.83,164.78L212.90,164.73L212.98,164.63"/><path d="M211.97,165.12L212.01,164.99L212.09,164.83"/><path d="M212.66,165.67L212.66,165.68L212.67,165.68"/><path d="M213.04,165.68L212.97,165.78L212.92,165.85"/><path d="M212.91,164.98L212.90,164.98L212.89,164.99"/><path d="M212.85,165.00L212.85,165.00L212.85,165.00"/><path d="M213.18,165.01L213.18,165.05L213.16,164.94L213.13,164.86L213.09,164.79L213.04,164.75L212.97,164.73L212.90,164.75L212.83,164.78L212.65,164.89L212.59,164.91"/><path d="M212.06,164.88L212.06,164.88"/><path d="M212.18,164.70L212.27,164.62"/><path d="M212.94,164.99L212.95,164.99L212.96,165.00"/><path d="M213.13,165.43L213.13,165.43"/><path d="M213.18,165.13L213.18,165.05"/><path d="M212.97,165.01L212.99,165.02L213.00,165.04"/></g><g style="stroke:#000000;stroke-width:0.529"><path d="M213.18,165.01L213.18,165.01L213.18,165.06L213.18,165.13L213.18,165.17L213.16,165.30L213.13,165.43L213.09,165.56L213.04,165.68L213.03,165.70L212.98,165.77L212.96,165.81L212.92,165.85L212.90,165.87L212.83,165.93L212.76,165.98L212.59,166.06L212.12,165.93L212.07,165.87L211.97,165.70L211.94,165.62L211.92,165.50L211.92,165.41L211.92,165.38L211.94,165.25L211.97,165.12"/><path d="M211.97,165.12L212.01,165.00L212.06,164.88"/><path d="M213.18,165.01L213.16,164.93L213.13,164.86L213.03,164.68L212.98,164.63L212.52,164.49L212.35,164.57L212.27,164.62L212.20,164.68L212.18,164.70L212.14,164.74L212.12,164.78L212.09,164.83L212.06,164.88"/></g></g><g id="Actor_.5"><g style="stroke:#000000;stroke-width:0.176"><path d="M212.66,145.02L212.66,145.02L212.67,145.02L212.66,145.02L212.64,144.96L212.63,144.89L212.64,144.93L212.66,144.97L212.70,145.00L212.74,145.00L212.78,144.99L212.82,144.95L212.86,144.90L212.90,144.84L212.93,144.76L212.95,144.69L212.96,144.61L212.96,144.54L212.96,144.47L212.93,144.42L212.91,144.39L212.87,144.38L212.83,144.38L212.79,144.41L212.76,144.43L212.80,144.39L212.85,144.35L212.85,144.34L212.89,144.33L212.91,144.33L212.94,144.33L212.96,144.34L212.95,144.33L212.94,144.33"/><path d="M212.67,145.02L212.69,145.05L212.71,145.06L212.73,145.07L212.76,145.07L212.77,145.07L212.81,145.06L212.82,145.05L212.87,145.01L212.92,144.95L212.96,144.88L213.00,144.79L213.01,144.74L213.02,144.70L213.04,144.60L213.04,144.52L213.03,144.44L213.00,144.38L213.02,144.41L213.04,144.48L213.04,144.56L213.03,144.65L213.01,144.74L212.98,144.84L212.94,144.92L212.89,144.99L212.84,145.04L212.82,145.05"/><path d="M212.71,145.06L212.70,145.06L212.69,145.05"/><path d="M212.73,145.07L212.74,145.08L212.76,145.07"/><path d="M212.77,145.07L212.79,145.07L212.81,145.06"/><path d="M212.59,145.40L212.58,145.36L212.53,145.20L212.49,145.12L212.39,144.97L211.92,144.84"/><path d="M212.98,143.97L212.90,144.07L212.83,144.13L212.76,144.19L212.69,144.28L212.63,144.38L212.58,144.50L212.53,144.63L212.51,144.76L212.49,144.89L212.49,145.01L212.51,145.12L212.53,145.20L212.58,145.27L212.63,145.31L212.69,145.33L212.76,145.31L212.83,145.27"/><path d="M212.39,144.97L212.43,144.90L212.53,144.63L212.56,144.50L212.59,144.26L212.12,144.12"/><path d="M212.63,144.89L212.63,144.89L212.63,144.80L212.64,144.71L212.65,144.66L212.67,144.61L212.71,144.52L212.75,144.45L212.76,144.43"/><path d="M212.92,145.19L212.97,145.13L213.04,145.02"/><path d="M212.91,144.33L212.90,144.33L212.89,144.33"/><path d="M212.85,144.34L212.85,144.35L212.85,144.35"/><path d="M211.92,144.75L211.97,144.47L212.01,144.34L212.09,144.18"/><path d="M213.18,144.36L213.18,144.39L213.16,144.29L213.13,144.20L213.09,144.13L213.04,144.09L212.97,144.08L212.90,144.09L212.83,144.13L212.65,144.23L212.59,144.26"/><path d="M211.97,144.47L211.97,144.46"/><path d="M212.06,144.22L212.06,144.22"/><path d="M212.27,143.96L212.18,144.05"/><path d="M213.00,144.38L213.00,144.38L212.97,144.35L212.96,144.34"/><path d="M213.13,144.77L213.13,144.77"/><path d="M212.97,144.35L212.99,144.36L213.00,144.38"/><path d="M213.18,144.47L213.18,144.39"/></g><g style="stroke:#000000;stroke-width:0.529"><path d="M211.97,144.47L211.94,144.60L211.92,144.73L211.92,144.75L211.92,144.84L211.94,144.96L211.97,145.04L212.07,145.21L212.12,145.27L212.59,145.40L212.76,145.32L212.83,145.27L212.90,145.21L212.92,145.19L212.96,145.16L212.98,145.12L213.03,145.04L213.04,145.02L213.09,144.90L213.13,144.77L213.16,144.64L213.18,144.51L213.18,144.47L213.18,144.40L213.16,144.27L213.13,144.20L213.03,144.02L212.98,143.97L212.52,143.83L212.35,143.91L212.27,143.96L212.20,144.03L212.18,144.05L212.14,144.08L212.12,144.12L212.09,144.18L212.06,144.22"/><path d="M212.06,144.22L212.01,144.34L211.97,144.46"/><path d="M213.18,144.36L213.18,144.36"/></g></g><g id="Actor_.6"><g style="stroke:#000000;stroke-width:0.176"><path d="M253.20,129.68L253.20,129.68L253.20,129.68"/></g><g style="stroke:#000000;stroke-width:0.529"><path d="M253.20,129.51L253.20,129.68L253.17,129.79L253.09,129.90L252.95,129.99L252.77,130.06L252.56,130.11L252.32,130.14L252.08,130.13L251.84,130.10L251.68,130.06"/></g></g><g id="Actor_.7"><g style="stroke:#000000;stroke-width:0.176"><path d="M251.68,124.30L251.92,124.35L252.17,124.37L252.43,124.36L252.67,124.33L252.89,124.26L253.07,124.18L253.19,124.07L253.25,123.96"/><path d="M251.68,124.11L251.75,124.14L251.95,124.18L252.18,124.20L252.40,124.19L252.62,124.16L252.81,124.10L252.96,124.03L253.07,123.94L253.13,123.84L253.12,123.73L253.07,123.63L252.96,123.54"/><path d="M253.25,129.41L253.25,129.41"/></g><g style="stroke:#000000;stroke-width:0.529"><path d="M251.68,123.46L251.74,123.44L251.94,123.40L252.17,123.38L252.39,123.38L252.61,123.41L252.80,123.47L252.96,123.54L253.06,123.62L253.19,123.73L253.25,123.84L253.25,123.96L253.25,129.41L253.19,129.52L253.07,129.63L252.89,129.71L252.67,129.78L252.43,129.82L252.17,129.82L251.92,129.80L251.68,129.75"/></g></g><g id="Actor_.8"><g style="stroke:#000000;stroke-width:0.176"><path d="M253.06,135.43L252.89,135.51L252.67,135.58L252.42,135.61L252.16,135.62L251.91,135.60L251.68,135.55"/><path d="M253.26,129.70L253.23,129.81L253.13,129.92L252.98,130.02L252.78,130.10L252.55,130.15L252.29,130.17L252.03,130.16L251.79,130.12L251.68,130.10"/><path d="M253.25,135.21L253.25,135.20"/></g><g style="stroke:#000000;stroke-width:0.529"><path d="M253.20,129.54L253.23,129.58L253.26,129.70L253.25,135.21L253.19,135.32L253.06,135.43L252.96,135.51L252.80,135.58L252.61,135.64L252.40,135.67L252.17,135.68L251.95,135.66L251.74,135.61L251.68,135.59"/></g></g><g id="Actor_.9"><g style="stroke:#000000;stroke-width:0.176"><path d="M124.28,142.12L124.28,76.91L123.73,76.76"/><path d="M124.28,76.91L164.03,48.28"/><path d="M125.56,139.61L125.50,139.63L125.42,139.72"/><path d="M125.39,119.78L125.45,119.77L125.56,119.67L125.66,119.50L125.69,119.40L125.71,119.30L125.71,119.11L125.66,118.99L125.61,118.96L125.56,118.95L125.53,118.97L125.57,119.07L125.58,119.16L125.57,119.26L125.52,119.46L125.42,119.63L125.32,119.73L125.34,119.76L125.39,119.78"/><path d="M125.32,119.73L125.28,119.66L125.26,119.58"/><path d="M125.42,119.06L125.50,118.98L125.53,118.97"/><path d="M125.26,98.92L125.30,99.06L125.34,99.10L125.39,99.12L125.45,99.11L125.56,99.02L125.66,98.85L125.69,98.75L125.72,98.54L125.71,98.45L125.66,98.33L125.61,98.30L125.56,98.30L125.49,98.33L125.42,98.40"/><path d="M125.31,99.07L125.42,98.98L125.52,98.81L125.55,98.71L125.58,98.50L125.57,98.41L125.54,98.31"/><path d="M125.26,78.27L125.30,78.41L125.34,78.45L125.39,78.46L125.45,78.45L125.56,78.36L125.66,78.19L125.69,78.09L125.72,77.89L125.71,77.80L125.66,77.67L125.61,77.64L125.56,77.64L125.49,77.67L125.42,77.75"/><path d="M125.53,77.65L125.57,77.76L125.58,77.85L125.55,78.05L125.48,78.24L125.42,78.32L125.31,78.42"/><path d="M125.54,139.64L125.54,139.63"/><path d="M137.76,131.42L137.87,131.33L137.96,131.16L138.02,130.95L138.03,130.85L138.02,130.76L137.98,130.66L138.00,130.65L138.06,130.65L138.10,130.68L138.13,130.73L138.16,130.89L138.13,131.10L138.06,131.29L137.95,131.43L137.89,131.46L137.84,131.47L137.79,131.45L137.75,131.41L137.71,131.27"/><path d="M137.76,69.45L137.87,69.36L137.96,69.19L138.02,68.98L138.03,68.88L138.02,68.79L137.98,68.69L138.00,68.68L138.06,68.68L138.10,68.71L138.13,68.76L138.16,68.92L138.13,69.13L138.06,69.32L137.95,69.45L137.89,69.49L137.84,69.50L137.79,69.48L137.75,69.44L137.71,69.30"/><path d="M137.98,130.66L137.94,130.68L137.86,130.75"/><path d="M137.98,68.69L137.94,68.71L137.86,68.78"/><path d="M150.31,121.79L150.38,121.71L150.45,121.68L150.50,121.69L150.54,121.71L150.58,121.77L150.61,121.93L150.58,122.13L150.50,122.33L150.39,122.46L150.34,122.50L150.28,122.51L150.23,122.49L150.19,122.45L150.15,122.31"/><path d="M150.31,59.83L150.38,59.74L150.45,59.71L150.50,59.72L150.54,59.74L150.58,59.80L150.60,59.87L150.61,59.96L150.58,60.16L150.50,60.36L150.39,60.49L150.34,60.53L150.28,60.54L150.23,60.52L150.19,60.48L150.15,60.34"/><path d="M150.42,121.70L150.46,121.80L150.47,121.89L150.44,122.09L150.37,122.29L150.31,122.36L150.20,122.46"/><path d="M150.20,60.49L150.31,60.39L150.37,60.32L150.44,60.12L150.47,59.92L150.46,59.83L150.42,59.73"/><path d="M162.84,113.50L162.89,113.44L162.99,113.27L163.04,113.07L163.04,112.88L162.99,112.75L162.95,112.72L162.89,112.72L162.87,112.74L162.91,112.84L162.92,112.93L162.91,113.03L162.85,113.23L162.76,113.40L162.65,113.50L162.68,113.53L162.73,113.54L162.78,113.53L162.84,113.50"/><path d="M162.65,113.50L162.61,113.43L162.60,113.35"/><path d="M162.87,112.74L162.78,112.79L162.75,112.83"/><path d="M162.87,92.07L162.91,92.18L162.91,92.37L162.85,92.57L162.81,92.67L162.76,92.74L162.65,92.84L162.68,92.87L162.73,92.89L162.78,92.88L162.84,92.84L162.95,92.71L163.02,92.51L163.05,92.31L163.02,92.15L162.99,92.09L162.95,92.07L162.89,92.06L162.83,92.09L162.75,92.18"/><path d="M162.65,92.84L162.61,92.77L162.60,92.69"/><path d="M162.60,72.03L162.64,72.17L162.68,72.21L162.73,72.23L162.78,72.22L162.89,72.13L162.99,71.96L163.02,71.86L163.05,71.65L163.04,71.56L162.99,71.44L162.95,71.41L162.89,71.41L162.83,71.43L162.75,71.52"/><path d="M162.87,71.42L162.91,71.52L162.92,71.61L162.89,71.82L162.85,71.92L162.76,72.09L162.65,72.18"/><path d="M162.78,51.56L162.84,51.53L162.95,51.39L162.99,51.30L163.04,51.09L163.04,50.91L162.99,50.78L162.95,50.75L162.89,50.75L162.87,50.76L162.91,50.87L162.92,50.96L162.91,51.06L162.85,51.26L162.76,51.43L162.65,51.53L162.68,51.56L162.73,51.57L162.78,51.56"/><path d="M162.65,51.53L162.61,51.46L162.60,51.38"/><path d="M162.87,50.76L162.78,50.82L162.75,50.86"/></g><g style="stroke:#000000;stroke-width:0.529"><path d="M125.35,142.13L164.03,114.27L164.03,48.29L163.49,48.12L123.73,76.76L123.73,142.74L123.93,142.80"/><path d="M125.26,140.19L125.28,140.03L125.30,139.93L125.34,139.83L125.42,139.72L125.34,140.03"/><path d="M125.37,119.29L125.42,119.07L125.34,119.18L125.30,119.27L125.26,119.48L125.26,119.58L125.37,119.29"/><path d="M125.30,98.85L125.26,98.92L125.26,98.82L125.30,98.62L125.34,98.52L125.42,98.41L125.37,98.63L125.30,98.85"/><path d="M125.42,77.75L125.34,77.86L125.30,77.96L125.26,78.17L125.26,78.27L125.37,77.97L125.42,77.75"/><path d="M137.74,131.20L137.82,130.98L137.86,130.76L137.79,130.87L137.75,130.97L137.71,131.17L137.71,131.27L137.74,131.20"/><path d="M137.82,69.01L137.71,69.30L137.71,69.20L137.75,69.00L137.79,68.90L137.86,68.79L137.82,69.01"/><path d="M150.18,122.25L150.15,122.31L150.15,122.21L150.19,122.00L150.23,121.91L150.31,121.80L150.26,122.02L150.18,122.25"/><path d="M150.15,60.24L150.19,60.03L150.23,59.94L150.31,59.83L150.26,60.05L150.15,60.34L150.15,60.24"/><path d="M162.75,112.83L162.68,112.94L162.64,113.04L162.60,113.25L162.60,113.35L162.71,113.05L162.75,112.83"/><path d="M162.71,92.40L162.75,92.18L162.68,92.29L162.64,92.38L162.60,92.59L162.60,92.69L162.71,92.40"/><path d="M162.63,71.96L162.60,72.03L162.60,71.93L162.64,71.73L162.68,71.63L162.75,71.52L162.71,71.74L162.63,71.96"/><path d="M162.71,51.08L162.75,50.86L162.68,50.97L162.64,51.07L162.60,51.28L162.60,51.38L162.71,51.08"/></g></g><g id="Actor_.10"><g style="stroke:#000000;stroke-width:0.176"><path d="M225.30,94.07L225.34,94.05L225.35,94.05L225.38,94.05L225.40,94.06L225.42,94.07L225.44,94.10L225.45,94.11L225.47,94.16L225.48,94.24L225.48,94.33L225.47,94.42L225.46,94.47L225.44,94.51L225.40,94.60L225.36,94.68L225.31,94.74L225.26,94.78L225.26,94.78L225.22,94.80L225.20,94.80L225.17,94.79L225.15,94.79L225.14,94.78L225.11,94.75L225.11,94.74L225.08,94.68L225.07,94.61L225.08,94.66L225.11,94.70L225.14,94.72L225.18,94.72L225.22,94.71L225.27,94.67L225.29,94.65L225.31,94.62L225.35,94.56L225.38,94.49L225.40,94.41L225.41,94.33L225.41,94.26L225.40,94.20L225.38,94.15L225.35,94.11L225.31,94.10L225.27,94.11L225.23,94.13L225.21,94.15L225.24,94.11L225.29,94.07L225.30,94.07L225.30,94.07L225.29,94.07"/><path d="M225.15,94.79L225.14,94.78L225.14,94.78"/><path d="M225.17,94.79L225.19,94.80L225.20,94.80"/><path d="M225.26,94.78L225.24,94.79L225.22,94.80"/><path d="M225.11,94.75L225.11,94.74L225.11,94.74"/><path d="M225.03,95.13L225.03,95.08L224.98,94.93L224.94,94.85L224.83,94.70L224.36,94.56"/><path d="M225.43,93.69L225.34,93.80L225.28,93.85L225.21,93.91L225.14,94.00L225.08,94.11L225.02,94.23L224.98,94.35L224.95,94.48L224.93,94.61L224.93,94.73L224.95,94.84L224.98,94.93L225.02,94.99L225.08,95.03L225.14,95.05L225.21,95.04L225.28,95.00"/><path d="M224.83,94.70L224.87,94.62L224.98,94.35L225.01,94.22L225.03,93.98L224.56,93.84"/><path d="M224.37,94.48L224.41,94.19L224.46,94.06L224.53,93.90"/><path d="M225.07,94.61L225.07,94.61L225.07,94.52L225.09,94.43L225.10,94.38L225.11,94.34L225.15,94.25L225.19,94.17L225.21,94.15"/><path d="M224.41,94.76L224.41,94.76"/><path d="M225.26,94.78L225.29,94.76L225.34,94.71L225.39,94.64L225.43,94.56L225.46,94.47L225.48,94.37L225.49,94.28L225.48,94.20L225.46,94.13L225.45,94.11"/><path d="M225.03,93.98L225.10,93.95L225.28,93.85L225.35,93.81L225.42,93.80L225.48,93.81L225.54,93.86L225.58,93.92L225.61,94.01L225.62,94.12L225.62,94.08"/><path d="M224.51,93.95L224.51,93.94"/><path d="M224.71,93.69L224.62,93.77"/><path d="M225.48,94.74L225.42,94.85L225.37,94.91"/><path d="M225.58,94.50L225.58,94.49"/><path d="M225.42,94.07L225.43,94.08L225.44,94.10"/><path d="M225.38,94.05L225.39,94.05L225.40,94.06"/><path d="M225.34,94.05L225.35,94.05L225.35,94.05"/><path d="M225.62,94.12L225.62,94.20"/></g><g style="stroke:#000000;stroke-width:0.529"><path d="M224.41,94.76L224.38,94.69L224.36,94.56L224.37,94.48L224.37,94.45L224.38,94.32L224.41,94.19"/><path d="M225.62,94.08L225.62,94.08L225.63,94.12L225.62,94.20L225.62,94.24L225.61,94.37L225.58,94.50L225.54,94.62L225.48,94.74L225.47,94.77L225.43,94.84L225.40,94.88L225.37,94.91L225.35,94.94L225.28,95.00L225.20,95.05L225.03,95.13L224.56,94.99L224.52,94.94L224.41,94.76"/><path d="M225.62,94.08L225.61,94.00L225.58,93.92L225.47,93.75L225.43,93.69L224.96,93.56L224.79,93.64L224.71,93.69L224.64,93.75L224.62,93.77L224.59,93.81L224.56,93.84L224.53,93.90L224.51,93.94"/><path d="M224.41,94.19L224.45,94.06L224.51,93.95"/></g></g><g id="Actor_.11"><g style="stroke:#000000;stroke-width:0.176"><path d="M68.49,110.14L68.40,110.13L68.30,110.16L68.20,110.24L68.10,110.36L68.02,110.51L67.95,110.68L67.90,110.86L67.87,111.04L67.87,111.20L67.89,111.35L67.94,111.46L68.00,111.54L68.09,111.57"/><path d="M68.48,111.31L68.48,111.31L68.49,111.31L68.51,111.32"/><path d="M68.73,110.58L68.70,110.57L68.69,110.57L68.69,110.56"/><path d="M70.44,111.08L70.40,111.07L70.35,111.09L70.29,111.13L70.24,111.19L70.20,111.27L70.16,111.36L70.14,111.45L70.12,111.54L70.12,111.63L70.13,111.71L70.16,111.76L70.19,111.80L70.24,111.82"/><path d="M70.54,111.23L70.51,111.18L70.48,111.16L70.44,111.16L70.40,111.17L70.36,111.21L70.32,111.26L70.28,111.32L70.25,111.39L70.23,111.47L70.22,111.54L70.22,111.61L70.23,111.68L70.25,111.72L70.28,111.76L70.31,111.77L70.35,111.76L70.40,111.74"/></g><g style="stroke:#000000;stroke-width:0.529"><path d="M67.83,111.33L67.81,111.19L67.81,111.02L67.84,110.84L67.89,110.66L67.96,110.49L68.05,110.34L68.14,110.22L68.24,110.15L68.34,110.11L68.43,110.12L68.49,110.14L68.56,110.19L68.62,110.28L68.73,110.58L70.44,111.08L70.48,111.10L70.51,111.15L70.54,111.23L70.55,111.28L70.56,111.35L70.55,111.42L70.53,111.50L70.51,111.57L70.48,111.64L70.44,111.70L70.40,111.74L70.34,111.78L70.28,111.81L70.24,111.82L68.51,111.32L68.28,111.50L68.18,111.56L68.09,111.57L68.03,111.55L67.95,111.52L67.88,111.45L67.83,111.33"/></g></g><g id="Actor_.12"><g style="stroke:#000000;stroke-width:0.176"><path d="M80.93,101.17L80.84,101.16L80.74,101.20L80.64,101.28L80.55,101.39L80.46,101.54L80.39,101.71L80.34,101.89L80.31,102.07L80.31,102.24L80.34,102.39L80.38,102.50L80.45,102.57L80.53,102.61"/><path d="M80.92,102.35L80.93,102.35L80.93,102.35L80.96,102.36"/><path d="M81.17,101.62L81.14,101.61L81.14,101.60L81.13,101.60"/><path d="M82.89,102.11L82.84,102.11L82.79,102.13L82.74,102.17L82.69,102.23L82.64,102.31L82.61,102.39L82.58,102.49L82.57,102.58L82.57,102.67L82.58,102.74L82.60,102.80L82.64,102.84L82.68,102.86"/><path d="M82.98,102.26L82.96,102.22L82.93,102.20L82.89,102.19L82.85,102.21L82.80,102.24L82.76,102.29L82.73,102.36L82.70,102.43L82.68,102.50L82.67,102.58L82.66,102.65L82.67,102.71L82.69,102.76L82.72,102.79L82.76,102.81L82.80,102.80L82.84,102.78"/></g><g style="stroke:#000000;stroke-width:0.529"><path d="M80.26,102.22L80.28,102.37L80.33,102.48L80.39,102.56L80.48,102.59L80.53,102.61L80.63,102.59L80.73,102.54L80.96,102.36L82.68,102.86L82.73,102.85L82.78,102.82L82.84,102.78L82.88,102.73L82.92,102.68L82.95,102.61L82.98,102.53L83.00,102.46L83.00,102.38L83.00,102.32L82.98,102.26L82.96,102.19L82.93,102.14L82.89,102.11L81.17,101.62L81.06,101.32L81.01,101.23L80.93,101.17L80.88,101.16L80.79,101.15L80.69,101.18L80.59,101.26L80.49,101.38L80.41,101.53L80.34,101.70L80.29,101.88L80.26,102.06L80.26,102.22"/></g></g><g id="Actor_.13"><g style="stroke:#000000;stroke-width:0.176"><path d="M251.36,71.71L251.25,71.73L251.12,71.79L210.75,100.88L210.62,100.99L210.51,101.14L210.40,101.33L210.31,101.53L210.25,101.76L210.21,101.98L210.19,102.19L210.19,169.21L210.21,169.41L210.25,169.57L210.31,169.70L210.40,169.78L210.51,169.81"/><path d="M247.34,80.25L247.67,80.02L247.79,79.96L247.91,79.94L248.01,79.97L248.10,80.06L248.16,80.18L248.20,80.35L248.22,80.54L248.22,136.09L248.20,136.30L248.16,136.52L248.10,136.75L248.01,136.95L247.91,137.14L247.79,137.29L247.67,137.40L214.20,161.50L214.08,161.57L213.96,161.59L213.86,161.55L213.77,161.47L213.71,161.34L213.66,161.18L213.65,161.02"/></g><g style="stroke:#000000;stroke-width:0.529"><path d="M209.32,168.45L209.34,169.15L209.38,169.32L209.44,169.44L209.53,169.53L210.51,169.81L210.62,169.80L210.75,169.73L251.12,140.65L251.25,140.54L251.36,140.39L251.47,140.20L251.55,139.99L251.62,139.77L251.66,139.55L251.68,139.25L251.68,72.31L251.66,72.12L251.62,71.96L251.55,71.83L251.47,71.75L250.49,71.46L250.37,71.48L250.25,71.54L209.88,100.62L209.75,100.74L209.64,100.89L209.53,101.07L209.44,101.28L209.38,101.50L209.34,101.73L209.32,101.94L209.32,168.45"/><path d="M213.65,160.98L213.65,105.44L213.66,105.23L213.71,105.00L213.77,104.78L213.86,104.57L213.96,104.39L214.08,104.24L214.20,104.12L247.34,80.25L247.35,135.83L247.33,136.05L247.29,136.27L247.23,136.49L247.14,136.70L247.03,136.89L246.92,137.04L246.79,137.15L213.65,161.02L213.65,160.98"/></g></g><g id="Actor_.14"><g style="stroke:#000000;stroke-width:0.176"><path d="M68.49,48.17L68.40,48.16L68.30,48.19L68.20,48.27L68.10,48.39L68.02,48.54L67.95,48.71L67.90,48.89L67.87,49.07L67.87,49.23L67.89,49.38L67.94,49.49L68.00,49.57L68.09,49.60"/><path d="M68.69,48.59L68.69,48.60L68.70,48.60L68.73,48.61"/><path d="M68.51,49.35L68.49,49.34L68.48,49.34L68.48,49.34"/><path d="M70.44,49.11L70.40,49.10L70.35,49.12L70.29,49.16L70.24,49.22L70.20,49.30L70.16,49.39L70.14,49.48L70.12,49.57L70.12,49.66L70.13,49.74L70.16,49.79L70.19,49.83L70.24,49.85"/><path d="M70.54,49.26L70.51,49.21L70.48,49.19L70.44,49.19L70.40,49.20L70.36,49.24L70.32,49.29L70.28,49.35L70.25,49.42L70.23,49.50L70.22,49.57L70.22,49.64L70.23,49.71L70.25,49.75L70.28,49.79L70.31,49.80L70.35,49.79L70.40,49.77"/></g><g style="stroke:#000000;stroke-width:0.529"><path d="M67.85,49.41L67.88,49.48L67.95,49.55L68.03,49.58L68.09,49.60L68.18,49.59L68.28,49.53L68.51,49.35L70.24,49.85L70.28,49.84L70.34,49.81L70.40,49.77L70.44,49.73L70.48,49.67L70.51,49.60L70.53,49.53L70.55,49.45L70.56,49.38L70.55,49.31L70.54,49.26L70.51,49.18L70.48,49.13L70.44,49.11L68.73,48.61L68.62,48.31L68.56,48.22L68.49,48.17L68.43,48.15L68.34,48.14L68.24,48.18L68.14,48.25L68.05,48.37L67.96,48.52L67.89,48.69L67.84,48.87L67.81,49.05L67.81,49.22L67.83,49.36L67.85,49.41"/></g></g><g id="Actor_.15"><g style="stroke:#000000;stroke-width:0.176"><path d="M55.63,120.53L55.64,120.53"/><path d="M56.03,120.28L56.04,120.28L56.05,120.28L56.07,120.28"/><path d="M56.04,119.10L55.95,119.09L55.85,119.13L55.75,119.20L55.66,119.32L55.57,119.47L55.50,119.64L55.50,119.66"/><path d="M56.24,119.53L56.25,119.53L56.25,119.53L56.28,119.54"/><path d="M58.00,120.04L57.95,120.03L57.90,120.05L57.85,120.09L57.80,120.16L57.75,120.23L57.72,120.32L57.69,120.41L57.68,120.51L57.68,120.59L57.69,120.67L57.71,120.73L57.75,120.77L57.79,120.78"/><path d="M57.95,120.70L57.91,120.73L57.87,120.73L57.83,120.72L57.80,120.69L57.79,120.64L57.78,120.58L57.78,120.51L57.79,120.43L57.81,120.35L57.84,120.28L57.87,120.22L57.92,120.17L57.93,120.16L57.96,120.14L58.00,120.12L58.04,120.13L58.07,120.15L58.09,120.19"/></g><g style="stroke:#000000;stroke-width:0.529"><path d="M55.44,119.63L55.45,119.62L55.52,119.45L55.60,119.31L55.70,119.19L55.80,119.11L55.90,119.07L55.99,119.08L56.04,119.10L56.12,119.15L56.18,119.25L56.28,119.54L58.00,120.04L58.04,120.07L58.07,120.12L58.09,120.19L58.11,120.24L58.11,120.31L58.11,120.38L58.09,120.46L58.06,120.54L58.03,120.60L57.99,120.66L57.95,120.70L57.89,120.75L57.84,120.78L57.79,120.78L56.07,120.28L55.84,120.46L55.74,120.52L55.64,120.53L55.63,120.53"/></g></g><g id="Actor_.16"><g style="stroke:#000000;stroke-width:0.176"><path d="M56.04,98.44L55.95,98.43L55.85,98.47L55.75,98.55L55.66,98.66L55.57,98.81L55.50,98.98L55.45,99.16L55.43,99.34L55.42,99.51L55.45,99.66L55.49,99.77L55.56,99.84L55.64,99.88"/><path d="M56.03,99.62L56.04,99.62L56.05,99.62L56.07,99.63"/><path d="M56.24,98.87L56.25,98.87L56.25,98.88L56.28,98.89"/><path d="M58.00,99.38L57.95,99.38L57.90,99.40L57.85,99.44L57.80,99.50L57.75,99.58L57.72,99.66L57.69,99.76L57.68,99.85L57.68,99.94L57.69,100.01L57.71,100.07L57.75,100.11L57.79,100.13"/><path d="M58.09,99.53L58.07,99.49L58.04,99.47L58.00,99.46L57.96,99.48L57.92,99.51L57.87,99.56L57.84,99.63L57.81,99.70L57.79,99.77L57.78,99.85L57.78,99.92L57.79,99.98L57.80,100.03L57.83,100.06L57.87,100.08L57.91,100.07L57.95,100.05"/></g><g style="stroke:#000000;stroke-width:0.529"><path d="M55.37,99.49L55.37,99.33L55.40,99.15L55.45,98.97L55.52,98.80L55.60,98.65L55.70,98.53L55.80,98.45L55.90,98.42L55.99,98.43L56.04,98.44L56.12,98.50L56.18,98.59L56.28,98.89L58.00,99.38L58.04,99.41L58.07,99.46L58.09,99.53L58.11,99.59L58.11,99.65L58.11,99.73L58.09,99.80L58.06,99.88L58.03,99.95L57.99,100.00L57.95,100.05L57.89,100.09L57.84,100.12L57.79,100.13L56.07,99.63L55.84,99.81L55.74,99.86L55.64,99.88L55.59,99.86L55.50,99.83L55.44,99.75L55.39,99.64L55.37,99.49"/></g></g><g id="Actor_.17"><g style="stroke:#000000;stroke-width:0.176"><path d="M93.38,71.55L93.29,71.54L93.19,71.58L93.09,71.66L92.99,71.77L92.91,71.92L92.84,72.09L92.79,72.27L92.76,72.45L92.76,72.62L92.78,72.77L92.83,72.88L92.89,72.95L92.98,72.99"/><path d="M93.57,71.98L93.58,71.98L93.59,71.99L93.62,72.00"/><path d="M93.40,72.74L93.38,72.73L93.37,72.73L93.37,72.73"/><path d="M95.33,72.49L95.29,72.49L95.26,72.50L95.23,72.51L95.18,72.55L95.13,72.61L95.09,72.69L95.05,72.77L95.03,72.87L95.01,72.96L95.01,72.99L95.01,73.05L95.02,73.12L95.05,73.18L95.08,73.22L95.12,73.24"/><path d="M95.43,72.64L95.40,72.60L95.37,72.58L95.33,72.57L95.29,72.59L95.25,72.62L95.21,72.67L95.17,72.74L95.14,72.81L95.12,72.88L95.11,72.96L95.11,73.03L95.12,73.09L95.14,73.14L95.17,73.17L95.20,73.19L95.24,73.18L95.28,73.15"/></g><g style="stroke:#000000;stroke-width:0.529"><path d="M92.85,71.91L92.78,72.08L92.73,72.26L92.70,72.44L92.70,72.60L92.72,72.75L92.77,72.86L92.84,72.94L92.92,72.97L92.98,72.99L93.07,72.97L93.17,72.92L93.40,72.74L95.12,73.24L95.17,73.23L95.23,73.20L95.28,73.15L95.33,73.11L95.36,73.06L95.40,72.99L95.42,72.91L95.44,72.84L95.45,72.76L95.44,72.70L95.43,72.64L95.40,72.57L95.37,72.52L95.33,72.49L93.62,72.00L93.51,71.70L93.45,71.61L93.38,71.55L93.32,71.54L93.23,71.53L93.13,71.56L93.03,71.64L92.94,71.76L92.85,71.91"/></g></g><g id="Actor_.18"><g style="stroke:#000000;stroke-width:0.176"><path d="M93.38,30.24L93.29,30.23L93.19,30.26L93.09,30.34L92.99,30.46L92.91,30.61L92.84,30.78L92.79,30.96L92.76,31.14L92.76,31.31L92.78,31.45L92.83,31.57L92.89,31.64L92.98,31.67"/><path d="M93.58,30.67L93.57,30.67L93.58,30.67L93.59,30.67L93.62,30.68"/><path d="M93.40,31.42L93.38,31.42L93.37,31.42L93.37,31.42"/><path d="M95.33,31.18L95.29,31.17L95.26,31.18L95.23,31.19L95.18,31.23L95.13,31.29L95.09,31.37L95.05,31.46L95.03,31.55L95.01,31.65L95.01,31.73L95.02,31.81L95.05,31.87L95.08,31.91L95.12,31.92"/><path d="M95.43,31.33L95.40,31.29L95.37,31.27L95.33,31.26L95.29,31.28L95.25,31.31L95.21,31.36L95.17,31.42L95.14,31.49L95.12,31.57L95.11,31.65L95.11,31.72L95.12,31.78L95.14,31.83L95.17,31.86L95.20,31.87L95.24,31.87L95.28,31.84"/></g><g style="stroke:#000000;stroke-width:0.529"><path d="M92.73,31.44L92.77,31.55L92.84,31.63L92.92,31.66L92.98,31.67L93.07,31.66L93.17,31.60L93.40,31.42L95.12,31.92L95.17,31.92L95.23,31.89L95.28,31.84L95.33,31.80L95.36,31.74L95.40,31.68L95.42,31.60L95.44,31.52L95.45,31.45L95.44,31.38L95.43,31.33L95.40,31.26L95.37,31.21L95.33,31.18L93.62,30.68L93.51,30.39L93.45,30.29L93.38,30.24L93.32,30.22L93.23,30.21L93.13,30.25L93.04,30.32L93.03,30.33L92.94,30.44L92.85,30.59L92.78,30.76L92.73,30.94L92.70,31.12L92.70,31.29L92.72,31.44L92.73,31.44"/></g></g><g id="Actor_.19"><g style="stroke:#000000;stroke-width:0.176"><path d="M93.38,50.89L93.29,50.89L93.19,50.92L93.09,51.00L92.99,51.12L92.91,51.27L92.84,51.44L92.79,51.62L92.76,51.80L92.76,51.96L92.78,52.11L92.83,52.22L92.89,52.30L92.98,52.33"/><path d="M93.37,52.07L93.37,52.07L93.38,52.07L93.40,52.08"/><path d="M93.57,51.32L93.58,51.33L93.59,51.33L93.62,51.34"/><path d="M95.33,51.84L95.29,51.83L95.23,51.85L95.18,51.89L95.13,51.95L95.09,52.03L95.05,52.12L95.03,52.21L95.01,52.30L95.01,52.39L95.02,52.47L95.05,52.52L95.08,52.56L95.12,52.58"/><path d="M95.43,51.98L95.40,51.94L95.37,51.92L95.33,51.92L95.29,51.93L95.26,51.95L95.25,51.97L95.21,52.02L95.17,52.08L95.14,52.15L95.12,52.23L95.11,52.30L95.11,52.37L95.12,52.43L95.14,52.48L95.17,52.51L95.20,52.53L95.24,52.52L95.28,52.50"/></g><g style="stroke:#000000;stroke-width:0.529"><path d="M92.72,51.66L92.70,51.78L92.70,51.95L92.72,52.09L92.77,52.21L92.84,52.28L92.92,52.31L92.98,52.33L93.07,52.32L93.17,52.26L93.40,52.08L95.12,52.58L95.17,52.57L95.23,52.54L95.28,52.50L95.33,52.46L95.36,52.40L95.40,52.33L95.42,52.26L95.44,52.18L95.45,52.11L95.44,52.04L95.43,51.98L95.40,51.91L95.37,51.86L95.33,51.84L93.62,51.34L93.51,51.04L93.45,50.95L93.38,50.89L93.32,50.88L93.23,50.87L93.13,50.91L93.03,50.98L92.94,51.10L92.85,51.25L92.78,51.42L92.73,51.60L92.72,51.66"/></g></g><g id="Actor_.20"><g style="stroke:#000000;stroke-width:0.176"><path d="M56.04,77.79L55.95,77.78L55.85,77.81L55.75,77.89L55.66,78.01L55.57,78.16L55.50,78.33L55.45,78.51L55.43,78.69L55.42,78.85L55.45,79.00L55.49,79.11L55.56,79.19L55.64,79.22"/><path d="M56.03,78.96L56.04,78.96L56.05,78.96L56.07,78.97"/><path d="M56.24,78.21L56.25,78.22L56.25,78.22L56.28,78.23"/><path d="M58.00,78.73L57.95,78.72L57.90,78.74L57.85,78.78L57.80,78.84L57.75,78.92L57.72,79.01L57.69,79.10L57.68,79.19L57.68,79.28L57.69,79.36L57.71,79.41L57.75,79.45L57.79,79.47"/><path d="M58.09,78.88L58.07,78.84L58.04,78.81L58.00,78.81L57.96,78.82L57.92,78.86L57.87,78.91L57.84,78.97L57.81,79.04L57.79,79.12L57.78,79.19L57.78,79.26L57.79,79.33L57.80,79.37L57.83,79.41L57.87,79.42L57.91,79.41L57.95,79.39"/></g><g style="stroke:#000000;stroke-width:0.529"><path d="M55.37,78.84L55.39,78.98L55.44,79.10L55.50,79.17L55.59,79.20L55.64,79.22L55.74,79.21L55.84,79.15L56.07,78.97L57.79,79.47L57.84,79.46L57.89,79.43L57.95,79.39L57.99,79.35L58.03,79.29L58.06,79.22L58.09,79.15L58.11,79.07L58.11,79.00L58.11,78.93L58.09,78.88L58.07,78.80L58.04,78.75L58.00,78.73L56.28,78.23L56.18,77.93L56.12,77.84L56.04,77.79L55.99,77.77L55.90,77.76L55.80,77.80L55.70,77.87L55.60,77.99L55.52,78.14L55.45,78.31L55.40,78.49L55.37,78.67L55.37,78.84"/></g></g><g id="Actor_.21"><g style="stroke:#000000;stroke-width:0.176"><path d="M249.92,97.86L249.92,97.81L249.87,97.66L249.91,97.72L249.96,97.76L250.03,97.78L250.10,97.77L250.17,97.73"/><path d="M250.32,96.42L250.23,96.53L250.17,96.58L250.10,96.64L250.03,96.73L249.96,96.84L249.91,96.96L249.87,97.08L249.84,97.21L249.82,97.34L249.82,97.46L249.84,97.57L249.87,97.66L249.83,97.58L249.72,97.43L249.25,97.29"/><path d="M249.72,97.43L249.76,97.35L249.87,97.08L249.90,96.95L249.92,96.71L249.45,96.57"/><path d="M249.25,97.21L249.30,96.92L249.34,96.79L249.42,96.63"/><path d="M249.92,96.71L249.98,96.68L250.17,96.58L250.24,96.54L250.31,96.53L250.37,96.54L250.43,96.59L250.47,96.65L250.50,96.74L250.51,96.85L250.51,96.81"/><path d="M249.40,96.67L249.40,96.68"/><path d="M249.30,97.49L249.30,97.49"/><path d="M249.60,96.42L249.51,96.50"/><path d="M250.06,97.52L250.08,97.53L250.09,97.53L250.06,97.52L250.04,97.52L250.03,97.51L250.00,97.48L250.00,97.47L249.97,97.41L249.96,97.34L249.97,97.39L250.00,97.43L250.03,97.45L250.07,97.45L250.11,97.44L250.16,97.40L250.20,97.35L250.23,97.29L250.26,97.22L250.29,97.14L250.30,97.06L250.30,96.99L250.29,96.93L250.27,96.88L250.24,96.84L250.20,96.83L250.16,96.84L250.12,96.86L250.10,96.88L250.13,96.84L250.18,96.80L250.19,96.80L250.23,96.78L250.24,96.78L250.24,96.78L250.23,96.78"/><path d="M250.04,97.52L250.03,97.51L250.03,97.51"/><path d="M250.09,97.53L250.10,97.52L250.15,97.51L250.12,97.52L250.10,97.52"/><path d="M250.15,97.51L250.15,97.51L250.20,97.47L250.25,97.41L250.29,97.33L250.33,97.24L250.34,97.20L250.36,97.15L250.37,97.06L250.37,96.97L250.36,96.89L250.34,96.84L250.33,96.83L250.31,96.80L250.29,96.79L250.27,96.78L250.24,96.78"/><path d="M250.15,97.51L250.18,97.49L250.23,97.44L250.28,97.37L250.32,97.29L250.35,97.20L250.37,97.10L250.38,97.01L250.37,96.93L250.35,96.86L250.34,96.84"/><path d="M250.31,96.80L250.32,96.81L250.33,96.83"/><path d="M250.27,96.78L250.28,96.78L250.29,96.79"/><path d="M250.19,96.80L250.19,96.80L250.18,96.80"/><path d="M250.00,97.48L250.00,97.47L250.00,97.47"/><path d="M250.37,97.47L250.31,97.58L250.25,97.64"/><path d="M250.47,97.23L250.47,97.22"/><path d="M250.10,96.88L250.08,96.90L250.04,96.98L250.00,97.06L249.99,97.11L249.98,97.16L249.96,97.25L249.96,97.34L249.96,97.34"/><path d="M250.51,96.85L250.51,96.93"/></g><g style="stroke:#000000;stroke-width:0.529"><path d="M249.30,97.49L249.41,97.67L249.45,97.72L249.92,97.86L250.09,97.78L250.17,97.73L250.24,97.67L250.25,97.64L250.29,97.61L250.32,97.57L250.36,97.50L250.37,97.47L250.42,97.35L250.47,97.23L250.50,97.10L250.51,96.97L250.51,96.93L250.52,96.85L250.50,96.73L250.47,96.65L250.36,96.48L250.32,96.42L249.85,96.29L249.68,96.37L249.60,96.42L249.53,96.48L249.51,96.50L249.48,96.54L249.45,96.57L249.42,96.63L249.40,96.67"/><path d="M249.30,96.92L249.27,97.05L249.26,97.18L249.25,97.21L249.25,97.29L249.27,97.42L249.30,97.49"/><path d="M249.30,96.92L249.34,96.79L249.40,96.68"/><path d="M250.51,96.81L250.51,96.81"/></g></g><g id="Actor_.22"><g style="stroke:#000000;stroke-width:0.176"><path d="M212.85,103.03L212.89,103.02L212.91,103.01L212.94,103.02L212.96,103.03L212.97,103.04L213.00,103.07L213.00,103.07L213.03,103.13L213.04,103.20L213.04,103.29L213.02,103.38L213.01,103.43L213.00,103.48L212.96,103.56L212.92,103.64L212.87,103.70L212.82,103.74L212.81,103.74L212.77,103.76L212.76,103.76L212.73,103.76L212.71,103.75L212.69,103.74L212.67,103.71L212.66,103.70L212.64,103.65L212.63,103.58L212.64,103.62L212.66,103.66L212.70,103.68L212.74,103.69L212.78,103.67L212.82,103.64L212.86,103.59L212.90,103.52L212.93,103.45L212.95,103.37L212.96,103.29L212.96,103.22L212.96,103.16L212.94,103.11L212.91,103.08L212.87,103.06L212.83,103.07L212.79,103.09L212.76,103.12L212.80,103.07L212.85,103.03L212.85,103.03L212.85,103.03"/><path d="M212.71,103.75L212.70,103.75L212.69,103.74"/><path d="M212.77,103.76L212.79,103.76L212.81,103.74"/><path d="M212.82,103.74L212.84,103.73L212.89,103.67L212.94,103.60L212.98,103.52L213.01,103.43L213.03,103.34L213.04,103.25L213.04,103.16L213.02,103.10L213.00,103.07"/><path d="M212.59,104.09L212.58,104.05L212.53,103.89L212.49,103.81L212.39,103.66L211.92,103.53"/><path d="M212.98,102.66L212.90,102.76L212.83,102.81L212.76,102.88L212.69,102.96L212.63,103.07L212.58,103.19L212.53,103.32L212.51,103.44L212.49,103.57L212.49,103.70L212.51,103.80L212.53,103.89L212.58,103.96L212.63,104.00L212.69,104.01L212.76,104.00L212.83,103.96"/><path d="M212.39,103.66L212.43,103.58L212.53,103.32"/><path d="M211.92,103.44L211.97,103.15L212.01,103.02L212.09,102.86"/><path d="M212.53,103.32L212.56,103.18L212.59,102.94L212.12,102.81"/><path d="M212.66,103.70L212.66,103.71L212.67,103.71"/><path d="M212.73,103.76L212.74,103.76L212.76,103.76"/><path d="M212.76,103.12L212.75,103.13L212.71,103.21L212.67,103.30L212.65,103.35L212.64,103.39L212.63,103.49L212.63,103.57L212.63,103.57L212.63,103.58"/><path d="M213.04,103.71L212.97,103.81L212.92,103.88"/><path d="M212.91,103.01L212.90,103.01L212.89,103.02"/><path d="M213.18,103.04L213.18,103.08L213.16,102.97L213.13,102.89L213.09,102.82L213.04,102.78L212.97,102.76L212.90,102.78L212.83,102.81L212.65,102.92L212.59,102.94"/><path d="M212.27,102.65L212.18,102.73"/><path d="M211.97,103.15L211.97,103.15"/><path d="M212.06,102.91L212.06,102.91"/><path d="M212.94,103.02L212.95,103.02L212.96,103.03"/><path d="M213.13,103.46L213.13,103.46"/><path d="M212.97,103.04L212.99,103.05L213.00,103.07"/><path d="M213.18,103.08L213.18,103.16"/></g><g style="stroke:#000000;stroke-width:0.529"><path d="M213.18,103.04L213.18,103.04L213.18,103.09L213.18,103.16L213.18,103.20L213.16,103.33L213.13,103.46L213.09,103.59L213.04,103.71L213.03,103.73L212.98,103.80L212.96,103.84L212.92,103.88L212.90,103.90L212.83,103.96L212.76,104.01L212.59,104.09L212.12,103.96L212.07,103.90L211.97,103.73L211.94,103.65L211.92,103.53L211.92,103.44L211.92,103.41L211.94,103.28L211.97,103.15"/><path d="M213.18,103.04L213.16,102.96L213.13,102.89L213.03,102.71L212.98,102.66L212.52,102.52L212.35,102.60L212.27,102.65L212.20,102.71L212.18,102.73L212.14,102.77L212.12,102.81L212.09,102.86L212.06,102.91"/><path d="M212.06,102.91L212.01,103.03L211.97,103.15"/></g></g><g id="Actor_.23"><g style="stroke:#000000;stroke-width:0.176"><path d="M56.04,57.13L55.95,57.12L55.85,57.16L55.75,57.23L55.66,57.35L55.57,57.50L55.50,57.67L55.45,57.85L55.43,58.03L55.42,58.20L55.45,58.34L55.49,58.46L55.56,58.53L55.64,58.56"/><path d="M56.07,58.31L56.05,58.31L56.04,58.31L56.03,58.31"/><path d="M56.28,57.57L56.25,57.56L56.25,57.56L56.24,57.56"/><path d="M58.00,58.07L57.95,58.06L57.90,58.08L57.85,58.12L57.80,58.19L57.75,58.26L57.72,58.35L57.69,58.44L57.68,58.54L57.68,58.62L57.69,58.70L57.71,58.76L57.75,58.80L57.79,58.81"/><path d="M58.09,58.22L58.07,58.18L58.04,58.16L58.00,58.15L57.96,58.17L57.92,58.20L57.87,58.25L57.84,58.31L57.81,58.38L57.79,58.46L57.78,58.54L57.78,58.61L57.79,58.67L57.80,58.72L57.83,58.75L57.87,58.76L57.91,58.76L57.95,58.73"/></g><g style="stroke:#000000;stroke-width:0.529"><path d="M55.44,58.44L55.50,58.52L55.59,58.55L55.64,58.56L55.74,58.55L55.84,58.49L56.07,58.31L57.79,58.81L57.84,58.81L57.89,58.78L57.95,58.73L57.99,58.69L58.03,58.63L58.06,58.57L58.09,58.49L58.11,58.41L58.11,58.34L58.11,58.27L58.09,58.22L58.07,58.15L58.04,58.10L58.00,58.07L56.28,57.57L56.18,57.28L56.12,57.18L56.04,57.13L55.99,57.11L55.90,57.10L55.80,57.14L55.70,57.22L55.60,57.34L55.52,57.48L55.45,57.65L55.40,57.83L55.37,58.01L55.37,58.18L55.39,58.33L55.44,58.44"/></g></g><g id="Actor_.24"><g style="stroke:#000000;stroke-width:0.176"><path d="M249.92,118.51L249.92,118.47L249.87,118.31L249.83,118.23L249.72,118.08L249.25,117.95"/><path d="M250.32,117.08L250.23,117.18L250.17,117.24L250.10,117.30L250.03,117.39L249.96,117.49L249.91,117.61L249.87,117.74L249.84,117.87L249.82,118.00L249.82,118.12L249.84,118.23L249.87,118.31L249.91,118.38L249.96,118.42L250.03,118.44L250.10,118.42L250.17,118.38"/><path d="M249.72,118.08L249.76,118.01L249.87,117.74L249.90,117.61L249.92,117.37L249.45,117.23"/><path d="M249.30,118.15L249.30,118.15"/><path d="M249.25,117.86L249.30,117.58L249.34,117.45L249.42,117.29"/><path d="M249.92,117.37L249.98,117.34L250.17,117.24L250.24,117.20L250.31,117.19L250.37,117.20L250.43,117.24L250.47,117.31L250.50,117.39L250.51,117.50L250.51,117.58"/><path d="M249.30,117.58L249.30,117.58"/><path d="M249.40,117.33L249.40,117.33"/><path d="M249.51,117.16L249.60,117.07"/><path d="M250.06,118.18L250.08,118.19L250.09,118.18L250.06,118.18L250.04,118.17L250.03,118.16L250.00,118.13L250.00,118.13L249.97,118.07L249.96,118.00L249.97,118.04L250.00,118.08L250.03,118.11L250.07,118.11L250.11,118.10L250.16,118.06L250.20,118.01L250.23,117.95L250.26,117.87L250.29,117.80L250.30,117.72L250.30,117.65L250.29,117.58L250.27,117.53L250.24,117.50L250.20,117.49L250.16,117.49L250.12,117.52L250.10,117.54L250.13,117.50L250.18,117.46L250.19,117.45L250.23,117.44L250.24,117.44L250.24,117.44L250.23,117.44"/><path d="M250.04,118.17L250.03,118.17L250.03,118.16"/><path d="M250.10,118.18L250.12,118.18L250.15,118.17L250.10,118.18L250.09,118.18"/><path d="M250.15,118.16L250.20,118.12L250.25,118.06L250.29,117.99L250.33,117.90L250.34,117.85L250.36,117.81L250.37,117.71L250.37,117.63L250.36,117.55L250.34,117.49L250.35,117.52L250.37,117.59L250.38,117.67L250.37,117.76L250.35,117.85L250.32,117.94L250.28,118.03L250.23,118.10L250.18,118.15L250.15,118.17"/><path d="M250.00,118.13L250.00,118.13L250.00,118.13"/><path d="M250.37,118.13L250.31,118.24L250.25,118.30"/><path d="M250.10,117.54L250.08,117.56L250.04,117.63L250.00,117.72L249.99,117.77L249.98,117.82L249.96,117.91L249.96,118.00L249.96,118.00"/><path d="M250.34,117.49L250.33,117.49L250.31,117.46L250.29,117.45L250.27,117.44L250.24,117.44"/><path d="M250.31,117.46L250.32,117.47L250.33,117.49"/><path d="M250.27,117.44L250.28,117.44L250.29,117.45"/><path d="M250.19,117.45L250.19,117.46L250.18,117.46"/><path d="M250.47,117.88L250.47,117.88"/><path d="M250.51,117.50L250.51,117.47"/></g><g style="stroke:#000000;stroke-width:0.529"><path d="M249.30,118.15L249.41,118.32L249.45,118.38L249.92,118.51L250.09,118.43L250.17,118.38L250.24,118.32L250.25,118.30L250.29,118.27L250.32,118.23L250.36,118.15L250.37,118.13L250.42,118.01L250.47,117.88L250.50,117.75L250.51,117.62L250.51,117.58L250.52,117.51L250.50,117.38L250.47,117.31L250.36,117.13L250.32,117.08L249.85,116.94L249.68,117.02L249.60,117.07L249.53,117.14L249.51,117.16L249.48,117.19L249.45,117.23L249.42,117.29L249.40,117.33"/><path d="M249.30,117.58L249.27,117.71L249.26,117.84L249.25,117.86L249.25,117.95L249.27,118.07L249.30,118.15"/><path d="M249.40,117.33L249.34,117.45L249.30,117.57"/><path d="M250.51,117.47L250.51,117.47"/></g></g><g id="Actor_.25"><g style="stroke:#000000;stroke-width:0.176"><path d="M237.74,85.11L237.74,85.11L237.74,85.10L237.74,85.11L237.69,85.15L237.65,85.19L237.67,85.17L237.72,85.14L237.76,85.14L237.80,85.15L237.82,85.18L237.84,85.23L237.85,85.30L237.85,85.37L237.84,85.45L237.82,85.52L237.79,85.60L237.75,85.66L237.73,85.69L237.71,85.71L237.67,85.75L237.63,85.76L237.59,85.76L237.55,85.73L237.53,85.69L237.52,85.65L237.53,85.72L237.55,85.78L237.55,85.78L237.58,85.81L237.59,85.82L237.59,85.82L237.58,85.81"/><path d="M237.59,85.82L237.62,85.83L237.65,85.83L237.66,85.83L237.70,85.82L237.70,85.81L237.75,85.77L237.80,85.71L237.85,85.64L237.89,85.55L237.90,85.50L237.91,85.46L237.93,85.36L237.93,85.28L237.91,85.20L237.89,85.14L237.89,85.14L237.86,85.11L237.85,85.10L237.83,85.09L237.80,85.09L237.78,85.09L237.74,85.10"/><path d="M237.55,85.78L237.55,85.78L237.55,85.78"/><path d="M237.47,86.16L237.47,86.12L237.42,85.96L237.38,85.88L237.28,85.73L236.81,85.60"/><path d="M237.01,84.88L237.47,85.02L237.45,85.26L237.42,85.39L237.39,85.52L237.38,85.65L237.38,85.77L237.39,85.88L237.42,85.96L237.47,86.03L237.52,86.07L237.58,86.09L237.65,86.07L237.72,86.03"/><path d="M236.81,85.51L236.86,85.23L236.90,85.10L236.98,84.94"/><path d="M237.87,84.73L237.79,84.83L237.72,84.89L237.65,84.95L237.58,85.04L237.57,85.06L237.52,85.14L237.47,85.26L237.42,85.39L237.32,85.65L237.32,85.66L237.28,85.73"/><path d="M237.52,85.65L237.52,85.65L237.52,85.56L237.53,85.47L237.54,85.42L237.56,85.37L237.59,85.28L237.64,85.21L237.65,85.19"/><path d="M236.86,85.80L236.86,85.80"/><path d="M237.47,85.02L237.54,84.99L237.72,84.89L237.79,84.85L237.86,84.84L237.93,84.85L237.98,84.89L238.02,84.96L238.05,85.05L238.07,85.15L238.07,85.12"/><path d="M236.95,84.98L236.95,84.98"/><path d="M237.07,84.81L237.16,84.72"/><path d="M237.66,85.83L237.68,85.83L237.70,85.82"/><path d="M237.70,85.81L237.73,85.80L237.78,85.75L237.83,85.68L237.87,85.60L237.90,85.50L237.92,85.41L237.93,85.32L237.93,85.24L237.91,85.17L237.89,85.14"/><path d="M237.93,85.78L237.86,85.89L237.81,85.95"/><path d="M238.02,85.53L238.02,85.53"/><path d="M237.62,85.83L237.63,85.84L237.65,85.83"/><path d="M237.86,85.11L237.88,85.12L237.89,85.14"/><path d="M237.80,85.09L237.79,85.09L237.78,85.09"/><path d="M237.83,85.09L237.84,85.09L237.85,85.10"/><path d="M238.07,85.15L238.07,85.23"/></g><g style="stroke:#000000;stroke-width:0.529"><path d="M236.86,85.23L236.83,85.36L236.81,85.49L236.81,85.51L236.81,85.60L236.83,85.72L236.86,85.80"/><path d="M236.86,85.80L236.96,85.97L237.01,86.03L237.47,86.16L237.64,86.08L237.72,86.03L237.79,85.97L237.81,85.95L237.85,85.92L237.87,85.88L237.91,85.80L237.93,85.78L237.98,85.66L238.02,85.53L238.05,85.40L238.07,85.27L238.07,85.23L238.07,85.16L238.07,85.12L238.07,85.12"/><path d="M236.95,84.98L236.98,84.94L237.01,84.88L237.03,84.84L237.07,84.81L237.09,84.79L237.16,84.72L237.24,84.67L237.40,84.59L237.87,84.73L237.92,84.78L238.02,84.96L238.05,85.03L238.07,85.12"/><path d="M236.86,85.22L236.90,85.10L236.95,84.98"/></g></g><g id="Actor_.26"><g style="stroke:#000000;stroke-width:0.176"><path d="M249.92,77.20L249.92,77.16L249.87,77.00L249.83,76.92L249.72,76.77L249.25,76.63"/><path d="M250.32,75.77L250.23,75.87L250.17,75.92L250.10,75.99L250.03,76.07L249.96,76.18L249.91,76.30L249.87,76.43L249.84,76.55L249.82,76.68L249.82,76.81L249.84,76.91L249.87,77.00L249.91,77.07L249.96,77.11L250.03,77.12L250.10,77.11L250.17,77.07"/><path d="M249.72,76.77L249.76,76.69L249.87,76.43L249.90,76.29L249.92,76.05L249.45,75.92"/><path d="M249.25,76.55L249.30,76.26L249.34,76.13L249.42,75.97"/><path d="M249.30,76.84L249.30,76.84"/><path d="M249.92,76.05L249.98,76.03L250.17,75.92L250.24,75.88L250.31,75.87L250.37,75.89L250.43,75.93L250.47,75.99L250.50,76.08L250.51,76.19L250.51,76.27"/><path d="M249.60,75.76L249.51,75.84"/><path d="M249.40,76.02L249.40,76.02"/><path d="M250.19,76.14L250.23,76.13L250.24,76.12L250.27,76.13L250.29,76.14L250.31,76.14L250.33,76.18L250.34,76.18L250.36,76.24L250.37,76.31L250.37,76.40L250.36,76.49L250.34,76.54L250.33,76.59L250.29,76.67L250.25,76.75L250.20,76.81L250.15,76.85L250.15,76.85L250.10,76.87L250.09,76.87L250.06,76.87L250.04,76.86L250.03,76.85L250.00,76.82L250.00,76.81L249.97,76.76L249.96,76.68L249.97,76.73L250.00,76.77L250.03,76.79L250.07,76.80L250.11,76.78L250.16,76.75L250.18,76.72L250.20,76.70L250.23,76.63L250.26,76.56L250.29,76.48L250.30,76.40L250.30,76.33L250.29,76.27L250.27,76.22L250.24,76.19L250.20,76.17L250.16,76.18L250.12,76.20L250.10,76.23L250.13,76.18L250.18,76.14L250.19,76.14L250.19,76.14L250.18,76.14"/><path d="M250.04,76.86L250.03,76.86L250.03,76.85"/><path d="M250.09,76.87L250.08,76.87L250.06,76.87"/><path d="M250.15,76.85L250.18,76.84L250.23,76.78L250.28,76.71L250.32,76.63L250.35,76.54L250.37,76.45L250.38,76.36L250.37,76.27L250.35,76.21L250.34,76.18"/><path d="M250.00,76.82L250.00,76.82L250.00,76.81"/><path d="M250.37,76.82L250.31,76.92L250.25,76.99"/><path d="M250.47,76.57L250.47,76.57"/><path d="M250.10,76.87L250.12,76.87L250.15,76.85"/><path d="M250.10,76.23L250.08,76.24L250.04,76.32L250.00,76.41L249.99,76.45L249.98,76.50L249.96,76.59L249.96,76.68L249.96,76.68"/><path d="M250.31,76.14L250.32,76.16L250.33,76.18"/><path d="M250.27,76.13L250.28,76.13L250.29,76.14"/><path d="M250.23,76.13L250.24,76.12L250.24,76.12"/><path d="M250.51,76.19L250.51,76.15"/></g><g style="stroke:#000000;stroke-width:0.529"><path d="M249.30,76.26L249.27,76.39L249.26,76.52L249.25,76.55L249.25,76.63L249.27,76.76L249.30,76.84"/><path d="M250.51,76.15L250.51,76.15L250.52,76.20L250.51,76.27L250.51,76.31L250.50,76.44L250.47,76.57L250.42,76.70L250.37,76.82L250.36,76.84L250.32,76.91L250.29,76.95L250.25,76.99L250.24,77.01L250.17,77.07L250.09,77.12L249.92,77.20L249.45,77.06L249.41,77.01L249.30,76.84"/><path d="M250.51,76.15L250.50,76.07L250.47,75.99L250.36,75.82L250.32,75.77L249.85,75.63L249.68,75.71L249.60,75.76L249.53,75.82L249.51,75.84L249.48,75.88L249.45,75.92L249.42,75.97L249.40,76.02"/><path d="M249.40,76.02L249.34,76.14L249.30,76.26"/></g></g><g id="Actor_.27"><g style="stroke:#000000;stroke-width:0.176"><path d="M93.38,92.21L93.29,92.20L93.19,92.23L93.09,92.31L92.99,92.43L92.91,92.58L92.84,92.75L92.79,92.93L92.76,93.11L92.76,93.28L92.78,93.42L92.83,93.54L92.89,93.61L92.98,93.64"/><path d="M93.40,93.39L93.38,93.39L93.37,93.39L93.37,93.39"/><path d="M93.57,92.64L93.58,92.64L93.59,92.64L93.62,92.65"/><path d="M95.33,93.15L95.29,93.14L95.23,93.16L95.18,93.20L95.13,93.26L95.09,93.34L95.05,93.43L95.03,93.52L95.01,93.62L95.01,93.70L95.02,93.78L95.05,93.84L95.08,93.88L95.12,93.89"/><path d="M95.43,93.30L95.40,93.26L95.37,93.24L95.33,93.23L95.29,93.25L95.25,93.28L95.21,93.33L95.17,93.39L95.14,93.46L95.12,93.54L95.11,93.62L95.11,93.69L95.12,93.75L95.14,93.80L95.17,93.83L95.20,93.84L95.24,93.84L95.28,93.81"/></g><g style="stroke:#000000;stroke-width:0.529"><path d="M92.72,93.41L92.77,93.52L92.84,93.59L92.92,93.63L92.98,93.64L93.07,93.63L93.17,93.57L93.40,93.39L95.12,93.89L95.17,93.89L95.23,93.86L95.28,93.81L95.33,93.77L95.36,93.71L95.40,93.65L95.42,93.57L95.44,93.49L95.45,93.42L95.44,93.35L95.43,93.30L95.40,93.23L95.37,93.18L95.33,93.15L93.62,92.65L93.51,92.36L93.45,92.26L93.38,92.21L93.32,92.19L93.23,92.18L93.13,92.22L93.03,92.30L92.94,92.41L92.85,92.56L92.78,92.73L92.73,92.91L92.70,93.09L92.70,93.26L92.72,93.41"/></g></g><g id="Actor_.28"><g style="stroke:#000000;stroke-width:0.176"><path d="M212.59,124.75L212.58,124.70L212.53,124.55L212.49,124.47L212.39,124.32L211.92,124.18"/><path d="M212.98,123.31L212.90,123.42L212.83,123.47L212.76,123.53L212.69,123.62L212.63,123.73L212.58,123.85L212.53,123.97L212.51,124.10L212.49,124.23L212.49,124.35L212.51,124.46L212.53,124.55L212.58,124.61L212.63,124.65L212.69,124.67L212.76,124.66L212.83,124.62"/><path d="M212.69,124.40L212.70,124.40L212.71,124.41L212.69,124.40L212.67,124.37L212.66,124.36L212.64,124.30L212.63,124.23L212.64,124.28L212.66,124.32L212.70,124.34L212.74,124.34L212.78,124.33L212.82,124.29L212.86,124.24L212.90,124.18L212.93,124.11L212.95,124.03L212.96,123.95L212.96,123.88L212.96,123.82L212.94,123.77L212.91,123.73L212.87,123.72L212.83,123.73L212.79,123.75L212.76,123.77L212.80,123.73L212.85,123.69L212.85,123.69L212.85,123.69L212.85,123.69"/><path d="M212.71,124.41L212.73,124.41L212.76,124.42L212.74,124.42L212.73,124.41"/><path d="M212.85,123.69L212.89,123.67L212.91,123.67L212.94,123.67L212.96,123.68L212.97,123.69L213.00,123.72L213.00,123.73L213.03,123.78L213.04,123.86L213.04,123.95L213.02,124.04L213.01,124.09L213.00,124.13L212.96,124.22L212.92,124.30L212.87,124.36L212.82,124.40L212.81,124.40L212.77,124.42L212.76,124.42"/><path d="M212.77,124.42L212.79,124.41L212.81,124.40"/><path d="M212.82,124.40L212.84,124.38L212.89,124.33L212.94,124.26L212.98,124.18L213.01,124.09L213.03,123.99L213.04,123.90L213.04,123.82L213.02,123.75L213.00,123.73"/><path d="M212.91,123.67L212.90,123.67L212.89,123.67"/><path d="M212.67,124.37L212.66,124.36L212.66,124.36"/><path d="M212.39,124.32L212.43,124.24L212.53,123.97L212.56,123.84L212.59,123.60L212.12,123.46"/><path d="M211.92,124.10L211.97,123.81L212.01,123.68L212.09,123.52"/><path d="M212.59,123.60L212.65,123.57L212.83,123.47L212.90,123.43L212.97,123.42L213.04,123.43L213.09,123.48L213.13,123.54L213.16,123.63L213.18,123.74L213.18,123.70"/><path d="M211.97,123.81L211.97,123.81"/><path d="M212.06,123.57L212.06,123.56"/><path d="M212.94,123.67L212.95,123.68L212.96,123.68"/><path d="M212.63,124.23L212.63,124.23L212.63,124.14L212.64,124.05L212.65,124.00L212.67,123.96L212.71,123.87L212.75,123.79L212.76,123.77"/><path d="M212.92,124.53L212.97,124.47L213.04,124.36"/><path d="M212.27,123.31L212.18,123.39"/><path d="M213.13,124.12L213.13,124.11"/><path d="M212.97,123.69L212.99,123.70L213.00,123.72"/><path d="M213.18,123.74L213.18,123.82"/></g><g style="stroke:#000000;stroke-width:0.529"><path d="M211.97,123.81L211.94,123.94L211.92,124.07L211.92,124.10L211.92,124.18L211.94,124.31L211.97,124.38L212.07,124.56L212.12,124.61L212.59,124.75L212.76,124.67L212.83,124.62L212.90,124.56L212.92,124.53L212.96,124.50L212.98,124.46L213.03,124.39L213.04,124.36L213.09,124.24L213.13,124.12L213.16,123.99L213.18,123.86L213.18,123.82L213.18,123.74L213.18,123.70L213.18,123.70"/><path d="M212.06,123.57L212.01,123.68L211.97,123.81"/><path d="M213.18,123.70L213.16,123.62L213.13,123.54L213.03,123.37L212.98,123.31L212.52,123.18L212.35,123.26L212.27,123.31L212.20,123.37L212.18,123.39L212.14,123.43L212.12,123.46L212.09,123.52L212.06,123.56"/></g></g><g id="Actor_.29"><g style="stroke:#000000;stroke-width:0.176"/><g style="stroke:#000000;stroke-width:0.529"><path d="M251.68,81.86L251.84,81.90L252.08,81.94L252.32,81.94L252.56,81.91L252.77,81.86L252.95,81.79L253.09,81.70L253.17,81.60L253.20,81.48L253.20,81.32"/></g></g><g id="Actor_.30"><g style="stroke:#000000;stroke-width:0.176"><path d="M253.06,87.23L252.89,87.31L252.67,87.38L252.42,87.41L252.16,87.42L251.91,87.40L251.68,87.35"/><path d="M253.26,81.50L253.23,81.62L253.13,81.73L252.98,81.82L252.78,81.90L252.55,81.95L252.29,81.97L252.03,81.96L251.79,81.93L251.68,81.90"/><path d="M253.25,87.01L253.25,87.00"/></g><g style="stroke:#000000;stroke-width:0.529"><path d="M253.20,81.34L253.23,81.38L253.26,81.50L253.25,87.01L253.19,87.12L253.06,87.23L252.96,87.31L252.80,87.38L252.61,87.44L252.40,87.47L252.17,87.48L251.95,87.46L251.74,87.41L251.68,87.39"/></g></g><g id="Actor_.31"><g style="stroke:#000000;stroke-width:0.176"><path d="M251.68,76.10L251.92,76.15L252.17,76.17L252.43,76.17L252.67,76.13L252.89,76.06L253.07,75.98L253.19,75.87L253.25,75.76"/><path d="M252.96,75.34L253.07,75.43L253.12,75.53L253.13,75.64L253.07,75.74L252.96,75.83L252.81,75.90L252.62,75.96L252.40,75.99L252.18,76.00L251.95,75.98L251.75,75.94L251.68,75.91"/><path d="M253.25,81.21L253.25,81.21"/></g><g style="stroke:#000000;stroke-width:0.529"><path d="M251.68,81.55L251.92,81.60L252.17,81.63L252.43,81.62L252.67,81.58L252.89,81.52L253.07,81.43L253.19,81.33L253.25,81.21L253.25,76.36L253.25,75.76L253.25,75.64L253.19,75.53L253.06,75.42L252.96,75.34L252.80,75.27L252.61,75.21L252.39,75.18L252.17,75.18L251.94,75.20L251.74,75.24L251.68,75.27"/></g></g><g><g><path style="stroke:#000000;stroke-width:0.125;stroke-dasharray:3.0 2.0 1.0 2.0" d="M95.26,93.53L123.73,101.79"/><path style="stroke:#000000;stroke-width:0.125;stroke-dasharray:3.0 2.0 1.0 2.0" d="M209.32,126.62L162.63,113.07"/><path style="stroke:#000000;stroke-width:0.125;stroke-dasharray:3.0 2.0 1.0 2.0" d="M246.46,137.39L213.65,127.87"/></g></g><g><g><path style="stroke:#000000;stroke-width:0.125;stroke-dasharray:3.0 2.0 1.0 2.0" d="M123.73,81.13L95.26,72.88"/><path style="stroke:#000000;stroke-width:0.125;stroke-dasharray:3.0 2.0 1.0 2.0" d="M209.32,105.96L162.63,92.42"/><path style="stroke:#000000;stroke-width:0.125;stroke-dasharray:3.0 2.0 1.0 2.0" d="M213.65,107.22L247.35,116.99"/></g></g><g><g><path style="stroke:#000000;stroke-width:0.125;stroke-dasharray:3.0 2.0 1.0 2.0" d="M123.73,114.36L82.83,102.50"/><path style="stroke:#000000;stroke-width:0.125;stroke-dasharray:3.0 2.0 1.0 2.0" d="M209.32,139.19L150.18,122.04"/><path style="stroke:#000000;stroke-width:0.125;stroke-dasharray:3.0 2.0 1.0 2.0" d="M234.01,146.35L213.65,140.45"/></g></g><g><g><path style="stroke:#000000;stroke-width:0.125;stroke-dasharray:3.0 2.0 1.0 2.0" d="M95.26,52.22L139.85,65.15"/><path style="stroke:#000000;stroke-width:0.125;stroke-dasharray:3.0 2.0 1.0 2.0" d="M224.88,89.82L162.63,71.76"/><path style="stroke:#000000;stroke-width:0.125;stroke-dasharray:3.0 2.0 1.0 2.0" d="M231.43,91.72L247.35,96.34"/></g></g><g><g><path style="stroke:#000000;stroke-width:0.125;stroke-dasharray:3.0 2.0 1.0 2.0" d="M95.26,31.56L160.29,50.43"/><path style="stroke:#000000;stroke-width:0.125;stroke-dasharray:3.0 2.0 1.0 2.0" d="M245.32,75.09L162.63,51.10"/></g></g><g><g><path style="stroke:#000000;stroke-width:0.125;stroke-dasharray:3.0 2.0 1.0 2.0" d="M70.39,111.46L123.73,126.94"/><path style="stroke:#000000;stroke-width:0.125;stroke-dasharray:3.0 2.0 1.0 2.0" d="M209.32,151.77L137.74,131.00"/><path style="stroke:#000000;stroke-width:0.125;stroke-dasharray:3.0 2.0 1.0 2.0" d="M213.65,153.02L221.57,155.32"/></g></g><g><g><path style="stroke:#000000;stroke-width:0.125;stroke-dasharray:3.0 2.0 1.0 2.0" d="M82.83,40.53L147.85,59.39"/><path style="stroke:#000000;stroke-width:0.125;stroke-dasharray:3.0 2.0 1.0 2.0" d="M232.88,84.06L150.18,60.07"/></g></g><g><g><path style="stroke:#000000;stroke-width:0.125;stroke-dasharray:3.0 2.0 1.0 2.0" d="M123.73,139.51L57.94,120.43"/><path style="stroke:#000000;stroke-width:0.125;stroke-dasharray:3.0 2.0 1.0 2.0" d="M125.37,139.98L125.30,139.96"/><path style="stroke:#000000;stroke-width:0.125;stroke-dasharray:3.0 2.0 1.0 2.0" d="M126.30,140.26L209.32,164.34"/></g></g><g><g><path style="stroke:#000000;stroke-width:0.125;stroke-dasharray:3.0 2.0 1.0 2.0" d="M123.73,118.85L57.95,99.77"/><path style="stroke:#000000;stroke-width:0.125;stroke-dasharray:3.0 2.0 1.0 2.0" d="M209.32,143.68L125.30,119.31"/></g></g><g><g><path style="stroke:#000000;stroke-width:0.125;stroke-dasharray:3.0 2.0 1.0 2.0" d="M70.39,49.49L135.40,68.35"/><path style="stroke:#000000;stroke-width:0.125;stroke-dasharray:3.0 2.0 1.0 2.0" d="M137.74,69.03L220.43,93.02"/></g></g><g><g><path style="stroke:#000000;stroke-width:0.125;stroke-dasharray:3.0 2.0 1.0 2.0" d="M123.73,98.20L57.95,79.11"/><path style="stroke:#000000;stroke-width:0.125;stroke-dasharray:3.0 2.0 1.0 2.0" d="M209.32,123.03L125.30,98.65"/></g></g><g><g><path style="stroke:#000000;stroke-width:0.125;stroke-dasharray:3.0 2.0 1.0 2.0" d="M123.73,77.54L57.95,58.46"/><path style="stroke:#000000;stroke-width:0.125;stroke-dasharray:3.0 2.0 1.0 2.0" d="M209.32,102.37L125.30,77.99"/></g></g><g id="PMI.0"><g><path style="stroke:#000000;stroke-width:0.125" d="M38.77,152.73L55.53,119.68"/></g><g><path style="fill:#000000" d="M56.28,119.68L56.28,119.60L56.27,119.53L56.25,119.46L56.22,119.39L56.19,119.32L56.15,119.26L56.11,119.20L56.06,119.15L56.01,119.10L55.95,119.05L55.88,119.02L55.82,118.98L55.75,118.96L55.68,118.94L55.60,118.93L55.53,118.93L55.46,118.93L55.38,118.94L55.31,118.96L55.24,118.98L55.18,119.02L55.11,119.05L55.05,119.10L55.00,119.15L54.95,119.20L54.91,119.26L54.87,119.32L54.84,119.39L54.81,119.46L54.79,119.53L54.78,119.60L54.78,119.68L54.78,119.75L54.79,119.82L54.81,119.90L54.84,119.96L54.87,120.03L54.91,120.09L54.95,120.15L55.00,120.21L55.05,120.26L55.11,120.30L55.18,120.34L55.24,120.37L55.31,120.40L55.38,120.41L55.46,120.42L55.53,120.43L55.60,120.42L55.68,120.41L55.75,120.40L55.82,120.37L55.88,120.34L55.95,120.30L56.01,120.26L56.06,120.21L56.11,120.15L56.15,120.09L56.19,120.03L56.22,119.96L56.25,119.90L56.27,119.82L56.28,119.75z"/></g><g><text xml:space="preserve" fill="#000000" stroke-width="0" x="30.27" y="157.19" font-size="3.78" opacity="1.00" font-family="Arial">ND0191</text></g></g><g id="PMI.1"><g><path style="stroke:#000000;stroke-width:0.125" d="M108.46,174.25L130.30,131.36"/></g><g><path style="fill:#000000" d="M131.05,131.36L131.04,131.29L131.03,131.21L131.01,131.14L130.99,131.07L130.96,131.01L130.92,130.94L130.88,130.88L130.83,130.83L130.77,130.78L130.71,130.74L130.65,130.70L130.58,130.67L130.51,130.64L130.44,130.62L130.37,130.61L130.30,130.61L130.22,130.61L130.15,130.62L130.08,130.64L130.01,130.67L129.94,130.70L129.88,130.74L129.82,130.78L129.76,130.83L129.72,130.88L129.67,130.94L129.63,131.01L129.60,131.07L129.58,131.14L129.56,131.21L129.55,131.29L129.55,131.36L129.55,131.43L129.56,131.50L129.58,131.58L129.60,131.65L129.63,131.71L129.67,131.78L129.72,131.83L129.76,131.89L129.82,131.94L129.88,131.98L129.94,132.02L130.01,132.05L130.08,132.08L130.15,132.09L130.22,132.11L130.30,132.11L130.37,132.11L130.44,132.09L130.51,132.08L130.58,132.05L130.65,132.02L130.71,131.98L130.77,131.94L130.83,131.89L130.88,131.83L130.92,131.78L130.96,131.71L130.99,131.65L131.01,131.58L131.03,131.50L131.04,131.43z"/></g><g><text xml:space="preserve" fill="#000000" stroke-width="0" x="97.79" y="178.71" font-size="3.80" opacity="1.00" font-family="Arial">BPA27842</text></g></g><g/><g><g/><g><text xml:space="preserve" fill="#000000" stroke-width="0" x="5.92" y="10.04" font-size="4.53" opacity="1.00" font-family="Arial" font-weight="bold">BPA27840</text></g></g><g id="paperID" visibility="hidden" opacity="0.00" transform="scale(0.000100)"><path style="stroke:#000000;stroke-width:0.500;fill:#e6e6e6;fill-rule:evenodd" d="M-2000.00,-2000.00L2297.00,-2000.00L2297.00,2210.00L-2000.00,2210.00zM0.00,0.00L297.00,0.00L297.00,210.00L0.00,210.00z"/><path style="fill:#000000;fill-opacity:0.118" d="M3.00,210.00L297.00,210.00L297.00,3.00L300.00,3.00L300.00,213.00L3.00,213.00z"/></g></g></svg>
