<?xml version="1.0" encoding="UTF-8" standalone="no"?>
<svg xmlns="http://www.w3.org/2000/svg" xmlns:xlink="http://www.w3.org/1999/xlink" width="297.000mm" height="210.000mm" viewBox="0.000000 0.000000 297.000000 210.000000" stroke-linejoin="round" stroke-linecap="round" fill="none" fill-rule="evenodd"><desc>Composer Export</desc><script type="text/ecmascript"><![CDATA[
if(typeof(top) != "undefined")
{
	top.ShowPaper = ShowPaper;
}
function ShowPaper()
{
  var svgDocument = getDocument();
  var paper = svgDocument.getElementById("paperID");
  if(paper)
  {
    paper.setAttribute("transform","scale(1)");
    paper.setAttribute("opacity","1");
    paper.setAttribute("visibility","visible");
  }
  var svg = svgDocument.getRootElement();
  if(svg)
  {
    svg.setAttribute("width","307.000mm");
    svg.setAttribute("height","220.000mm");
    svg.setAttribute("viewBox","-5.000000 -5.000000 307.000000 220.000000");
  }
}
]]></script><defs/><g><path style="fill:#000000;fill-opacity:0.098;fill-rule:evenodd" d="M135.20,52.09L135.64,51.71L136.21,51.73L136.22,52.58L135.19,52.48zM194.53,53.31L194.45,52.99L194.73,52.94zM197.48,53.81L195.99,54.80L195.99,52.56L197.48,51.74zM154.89,55.29L155.32,54.91L155.89,54.92L155.90,55.77L154.87,55.67zM123.39,58.71L124.16,58.61L124.16,59.47L123.39,59.38zM195.99,59.94L195.39,59.87L195.91,59.35L196.03,59.39zM140.58,59.84L140.63,80.85L88.16,91.85L86.03,92.42L78.62,103.98L78.15,103.94L66.08,96.99L66.08,96.62L141.36,53.49L141.64,53.22L141.60,80.40L141.32,80.40L141.15,59.62zM197.15,60.59L196.62,60.59L196.89,60.33L197.22,60.33zM175.83,67.34L174.98,67.33L175.07,66.57L175.82,66.49zM194.95,78.38L195.17,78.07L196.01,78.07L196.01,78.62L195.68,78.86L195.00,78.82zM161.10,78.41L160.69,78.64L160.74,78.06L161.05,78.04zM143.38,82.73L143.34,83.10L143.03,83.08L142.98,82.50zM76.69,86.49L76.36,86.74L75.84,86.77L75.92,86.01L76.69,85.94zM215.15,89.71L215.93,89.63L215.93,90.19L215.60,90.42L215.16,90.38zM64.90,93.39L63.77,93.39L63.85,92.92L64.89,92.83zM167.95,97.02L167.64,97.10L167.68,96.52zM143.12,50.80L61.40,97.59L61.32,97.30L142.80,50.48L143.11,50.51zM236.10,101.78L235.25,101.76L235.25,101.22L235.78,100.89L236.09,100.93zM70.30,104.72L69.44,104.72L69.51,104.23L70.29,104.14zM65.37,106.10L65.38,118.52L62.90,119.99L62.82,104.62L63.12,104.59zM190.50,109.77L190.81,109.79L190.86,110.37L190.57,110.33zM255.18,112.78L255.69,112.47L256.26,112.49L256.27,113.34L255.24,113.24zM89.45,115.81L90.14,115.42L90.45,115.45L90.46,116.29L89.43,116.19zM65.35,122.36L65.38,124.42L62.90,125.90L62.90,120.85zM213.96,123.29L213.73,123.69L213.60,123.11zM261.69,124.66L260.84,124.65L260.92,123.90L261.68,123.81zM67.07,126.63L66.75,126.64L66.83,126.09L67.11,126.05zM109.54,127.29L110.06,126.97L110.38,127.01L110.38,127.86L109.61,127.76zM250.13,131.46L248.85,131.45L248.85,130.80L249.85,130.71zM55.73,133.05L55.45,133.04L55.70,131.94L55.77,131.93zM274.76,121.21L267.58,125.38L267.33,134.01L267.31,125.12L267.51,124.58L274.41,120.59L274.72,120.61zM58.48,133.52L57.65,134.16L56.67,134.51L56.75,132.52L58.16,131.66L58.47,131.68zM122.21,138.56L122.35,144.59L123.32,144.48L125.16,143.51L125.15,151.97L124.55,153.09L121.83,154.83L121.37,154.93L121.22,151.86L120.21,150.65L117.47,144.99L117.72,144.81L118.01,136.10zM129.79,138.66L130.57,138.58L130.56,139.14L130.24,139.38L129.80,139.33zM56.98,139.67L56.67,139.68L56.74,139.13L57.03,139.09zM91.72,140.65L91.32,140.88L91.37,140.30L91.68,140.28zM262.88,141.91L262.60,141.91L262.68,132.23L262.91,132.18zM267.09,144.79L267.34,144.73L267.58,146.07L270.08,144.76L270.08,145.04L267.58,146.54L267.33,156.40zM149.71,150.23L150.75,150.16L150.74,150.70L150.15,150.93L149.72,150.90zM114.81,153.82L114.59,154.20L114.55,153.34zM202.65,158.77L201.37,158.76L201.37,158.11L202.37,158.02zM170.66,162.30L169.80,162.28L169.81,161.74L170.69,161.48zM190.54,165.48L190.81,165.68L189.80,165.68L189.49,165.46L189.49,164.94L190.36,164.68zM137.67,167.22L137.36,167.24L137.43,166.68L137.72,166.64zM191.28,168.95L191.71,168.09L266.76,125.03L266.84,125.87L261.18,129.07L260.96,146.32L190.02,187.08L189.12,187.05L186.90,185.60L186.64,185.65L186.64,175.71L190.10,177.69L190.82,177.81L190.81,169.56L190.52,169.54L183.69,173.62L183.69,172.61L190.81,168.63zM160.85,180.15L160.81,180.52L160.49,180.50L160.45,179.92zM191.31,189.86L264.16,148.19L264.16,156.65L191.32,198.45L191.07,200.19L191.07,188.50zM190.41,190.63L188.00,192.23L187.53,192.30L187.52,192.01L190.38,190.53zM182.97,190.29L183.21,190.24L183.21,193.29L182.97,193.25zM189.33,199.36L189.01,199.86L188.53,199.96L188.61,198.84zM252.82,141.62L252.34,142.65L252.48,134.11L252.83,133.90zM193.30,176.08L193.00,176.58L192.71,176.58L193.04,175.33L193.28,168.09z"/><g id="Actor_.0"><g style="stroke:#000000;stroke-width:0.176"><path d="M185.29,164.82L191.23,168.22L191.23,169.08"/><path d="M190.75,165.58L190.91,165.51L191.07,165.35L191.14,165.18L191.10,165.00L190.96,164.84L190.74,164.72L190.46,164.64L190.15,164.61L189.85,164.65L189.58,164.74L189.38,164.88L189.27,165.05L189.25,165.22L189.34,165.39L189.52,165.54L189.63,165.58"/><path d="M191.23,168.22L266.85,124.85"/><path d="M202.64,158.77L202.80,158.69L202.96,158.54L203.02,158.36L202.98,158.18L202.85,158.02L202.63,157.90L202.35,157.82L202.04,157.80L201.73,157.83L201.47,157.93L201.26,158.06L201.15,158.23L201.14,158.41L201.23,158.58L201.41,158.73L201.52,158.77"/><path d="M249.06,131.50L248.95,131.46L248.77,131.31L248.68,131.14L248.69,130.96L248.80,130.79L249.00,130.66L249.27,130.57L249.58,130.53L249.88,130.55L250.16,130.63L250.38,130.76L250.52,130.92L250.56,131.09L250.50,131.27L250.34,131.42L250.18,131.50"/><path d="M262.06,124.68L262.22,124.61L262.38,124.45L262.44,124.28L262.41,124.10L262.27,123.94L262.05,123.81L261.77,123.74L261.46,123.71L261.16,123.75L260.89,123.84L260.69,123.98L260.57,124.14L260.56,124.32L260.65,124.49L260.83,124.64L260.94,124.68"/></g><g style="stroke:#000000;stroke-width:0.529"><path d="M185.29,165.33L185.29,164.82L260.91,121.44L266.85,124.85L266.85,125.71L191.23,169.08L191.16,169.04"/><path d="M189.78,165.64L189.63,165.58L189.85,165.51L190.15,165.48L190.46,165.50L190.75,165.58L190.68,165.62L190.39,165.69L190.07,165.69L189.78,165.64"/><path d="M202.04,158.66L201.73,158.69L201.52,158.77L201.66,158.83L201.96,158.88L202.27,158.87L202.56,158.81L202.64,158.77L202.35,158.68L202.04,158.66"/><path d="M249.21,131.56L249.06,131.50L249.27,131.43L249.58,131.39L249.88,131.41L250.18,131.50L250.10,131.54L249.81,131.60L249.50,131.61L249.21,131.56"/><path d="M261.08,124.74L260.94,124.68L261.16,124.61L261.46,124.57L261.77,124.60L262.06,124.68L261.98,124.72L261.69,124.79L261.38,124.79L261.08,124.74"/></g></g><g id="Actor_.1"><g style="stroke:#000000;stroke-width:0.176"><path d="M67.10,126.00L66.93,126.00L66.81,126.07L66.73,126.21L66.70,126.39L66.73,126.61L66.81,126.83L66.93,127.05L67.09,127.23L67.26,127.36L69.49,128.64L69.66,128.70L69.81,128.70L69.94,128.63L70.02,128.49"/><path d="M84.16,123.95L84.15,124.03L84.19,124.13L84.30,124.23L84.37,124.22L84.39,124.11L84.33,123.99L84.22,123.92L84.16,123.95"/><path d="M85.34,125.61L85.34,125.50L85.37,125.47L85.45,125.47L85.55,125.59L85.57,125.73L85.53,125.78L85.45,125.76L85.37,125.68L85.34,125.61"/><path d="M84.83,121.70L84.76,121.66L84.64,121.66L84.54,121.71L84.48,121.81L84.45,121.95L84.48,122.11L84.54,122.29L84.64,122.45L84.76,122.58L84.90,122.67L85.03,122.71L85.14,122.69L85.22,122.62L85.27,122.46"/><path d="M91.61,140.06L91.45,140.06L91.32,140.13L91.24,140.27L91.21,140.45L91.24,140.67L91.32,140.89L91.44,141.11L91.60,141.29L91.77,141.42L94.00,142.70L94.17,142.76L94.33,142.76L94.45,142.69L94.53,142.55"/><path d="M114.64,153.27L114.47,153.27L114.35,153.34L114.27,153.48L114.24,153.66L114.27,153.87L114.35,154.10L114.47,154.31L114.63,154.49L114.80,154.62L117.03,155.90L117.21,155.97L117.35,155.97L117.46,155.90L117.56,155.76"/><path d="M137.67,166.48L137.50,166.48L137.37,166.55L137.30,166.68L137.27,166.87L137.30,167.08L137.37,167.31L137.50,167.52L137.65,167.70L137.82,167.83L140.05,169.11L140.22,169.18L140.38,169.17L140.50,169.10L140.58,168.97"/><path d="M160.69,179.69L160.52,179.68L160.40,179.76L160.32,179.89L160.29,180.08L160.32,180.29L160.40,180.52L160.52,180.73L160.68,180.91L160.85,181.04L163.08,182.32L163.25,182.39L163.41,182.38L163.53,182.31L163.61,182.18"/><path d="M183.89,193.81L183.81,193.94L183.69,194.01L183.53,194.02L183.36,193.95L183.19,193.82L183.03,193.64L182.91,193.42L182.83,193.20L182.80,192.98L182.80,190.40L182.83,190.22L182.91,190.08L183.03,190.01L183.18,190.01"/><path d="M186.70,175.69L186.59,175.64L186.48,175.65L186.40,175.69L186.35,175.78L186.33,175.91L186.33,185.37L186.35,185.51L186.48,185.81L186.59,185.93L186.70,186.01L190.41,188.14L190.53,188.23L190.63,188.35L190.71,188.49L190.77,188.64L190.79,188.79L190.79,200.15"/><path d="M191.16,168.70L190.79,168.91L190.79,177.60L190.77,177.72L190.71,177.81L190.63,177.86"/></g><g style="stroke:#000000;stroke-width:0.529"><path d="M65.40,122.34L65.40,126.94L66.52,128.87L190.79,200.15L191.16,199.93L191.16,188.57L191.14,188.43L191.00,188.14L190.90,188.02L190.79,187.93L187.07,185.80L186.96,185.71L186.85,185.59L186.72,185.30L186.70,183.89L186.70,175.69L190.41,177.82L190.53,177.86L190.63,177.86L191.09,177.60L191.14,177.51L191.16,177.39L191.16,168.70L190.79,168.48"/><path d="M65.40,118.50L65.40,105.94"/><path d="M67.07,126.18L67.10,126.39L67.18,126.62L67.30,126.83L67.46,127.01L67.63,127.15L69.86,128.42L70.02,128.48L70.05,128.31L70.02,128.09L69.94,127.87L69.81,127.66L69.66,127.47L69.49,127.34L67.26,126.07L67.10,126.00L67.07,126.18"/><path d="M84.83,121.73L84.83,121.70L84.90,121.73L85.03,121.84L85.14,121.99L85.22,122.16L85.27,122.33L85.27,122.46L85.13,122.37L85.01,122.24L84.91,122.07L84.85,121.90L84.83,121.73"/><path d="M91.97,141.07L92.14,141.20L94.37,142.48L94.53,142.54L94.56,142.37L94.53,142.15L94.45,141.93L94.33,141.72L94.17,141.53L94.00,141.40L91.77,140.13L91.61,140.06L91.58,140.24L91.61,140.45L91.69,140.68L91.81,140.89L91.97,141.07"/><path d="M114.93,154.20L114.84,154.10L114.72,153.89L114.64,153.66L114.61,153.45L114.64,153.27L114.80,153.33L117.03,154.61L117.21,154.75L117.35,154.92L117.48,155.14L117.56,155.36L117.58,155.58L117.56,155.75L117.40,155.69L115.17,154.41L114.93,154.20"/><path d="M137.69,166.94L137.64,166.65L137.67,166.48L137.82,166.54L140.05,167.82L140.22,167.95L140.38,168.13L140.50,168.34L140.58,168.57L140.61,168.78L140.58,168.96L140.42,168.90L138.19,167.62L138.02,167.49L137.87,167.31L137.75,167.10L137.69,166.94"/><path d="M161.22,180.83L161.05,180.70L160.90,180.52L160.77,180.30L160.69,180.08L160.67,179.86L160.69,179.69L160.85,179.75L163.08,181.03L163.25,181.16L163.41,181.34L163.53,181.55L163.61,181.78L163.64,181.99L163.61,182.17L163.45,182.11L161.22,180.83"/><path d="M183.21,193.01L183.17,192.77L183.17,190.19L183.20,190.02L183.36,190.08L183.53,190.21L183.69,190.39L183.81,190.60L183.89,190.83L183.92,191.04L183.92,193.62L183.89,193.80L183.73,193.74L183.56,193.61L183.40,193.42L183.28,193.21L183.21,193.01"/></g></g><g id="Actor_.2"><g style="stroke:#000000;stroke-width:0.176"><path d="M81.24,119.03L81.02,119.30L79.37,118.86L79.28,118.83L79.20,118.79L70.77,113.96L70.70,113.91L70.65,113.86L69.88,112.91"/><path d="M81.02,121.45L81.02,119.30"/></g><g style="stroke:#000000;stroke-width:0.529"><path d="M70.55,115.89L69.88,115.06L69.88,112.91L70.36,112.79L71.13,113.73L71.14,113.75L76.24,116.67L79.58,118.58L81.24,119.03L81.24,121.18L81.02,121.45L79.37,121.01L79.28,120.98L79.20,120.94L70.77,116.11L70.70,116.06L70.65,116.01L70.55,115.89"/></g></g><g id="Actor_.3"><g style="stroke:#000000;stroke-width:0.176"><path d="M185.22,165.29L185.29,165.25"/></g><g style="stroke:#000000;stroke-width:0.529"><path d="M184.62,164.95L260.39,121.49L260.60,121.62"/><path d="M189.49,187.19L260.98,146.18L260.98,129.08"/><path d="M260.98,124.70L260.98,124.67"/></g></g><g id="Actor_.4"><g style="stroke:#000000;stroke-width:0.176"><path d="M188.41,199.99L188.41,198.78"/><path d="M264.03,148.02L191.16,189.81"/></g><g style="stroke:#000000;stroke-width:0.529"><path d="M189.46,199.39L188.41,199.99L188.00,199.76L187.90,199.68L187.80,199.57L187.73,199.44L187.68,199.31L187.67,199.18L187.67,198.36"/><path d="M191.16,198.42L264.03,156.62L264.03,148.02L260.91,146.23"/></g></g><g id="Actor_.5"><g style="stroke:#000000;stroke-width:0.176"><path d="M252.70,133.83L252.70,141.43L252.69,141.52L252.67,141.59L252.23,142.74"/></g><g style="stroke:#000000;stroke-width:0.529"><path d="M252.33,134.04L252.33,141.22L252.32,141.24L251.88,142.39L252.23,142.74L254.09,141.67L254.53,140.52L254.55,140.45L254.55,140.37L254.55,132.76"/></g></g><g id="Actor_.6"><g style="stroke:#000000;stroke-width:0.176"><path d="M121.11,155.06L121.11,151.62L117.69,144.97L117.69,135.94L117.10,135.60"/><path d="M122.17,144.28L122.19,144.38L122.29,144.56L122.46,144.66L122.66,144.66L122.89,144.57L125.12,143.29"/></g><g style="stroke:#000000;stroke-width:0.529"><path d="M122.24,138.54L122.19,138.69L122.15,138.97L122.15,144.14L122.17,144.28L122.30,144.23L124.53,142.95L125.12,143.29L125.12,151.90L124.38,153.19L121.11,155.06L120.52,154.72L120.52,151.28L117.10,144.63L117.10,135.60"/></g></g><g id="Actor_.7"><g style="stroke:#000000;stroke-width:0.176"><path d="M193.27,167.91L193.27,175.52L193.27,175.60L193.25,175.67L192.81,176.82"/></g><g style="stroke:#000000;stroke-width:0.529"><path d="M192.90,168.13L192.90,175.30L192.90,175.32L192.46,176.48L192.81,176.82L194.66,175.76L195.10,174.61L195.12,174.53L195.13,174.45L195.13,166.85"/></g></g><g id="Actor_.8"><g style="stroke:#000000;stroke-width:0.176"><path d="M57.97,100.82L183.36,172.74L183.36,173.60"/><path d="M70.78,104.89L71.00,104.76L71.14,104.60L71.18,104.43L71.11,104.25L70.95,104.09L70.71,103.98L70.42,103.91L70.11,103.91L69.82,103.96L69.56,104.06L69.38,104.21L69.29,104.38L69.30,104.56L69.42,104.72L69.67,104.88"/><path d="M90.85,116.38L91.05,116.26L91.19,116.10L91.23,115.93L91.17,115.75L91.01,115.60L90.77,115.48L90.48,115.42L90.17,115.41L89.87,115.46L89.62,115.56L89.44,115.71L89.35,115.88L89.36,116.06L89.47,116.23L89.73,116.38"/><path d="M110.89,127.89L111.11,127.77L111.25,127.61L111.29,127.43L111.22,127.25L111.06,127.10L110.82,126.98L110.54,126.92L110.22,126.91L109.93,126.96L109.67,127.07L109.49,127.21L109.40,127.38L109.42,127.56L109.53,127.73L109.78,127.88"/><path d="M130.96,139.39L131.17,139.27L131.30,139.11L131.34,138.93L131.28,138.76L131.12,138.60L130.88,138.49L130.59,138.42L130.28,138.42L129.98,138.47L129.72,138.57L129.55,138.72L129.46,138.89L129.47,139.07L129.58,139.23L129.84,139.39"/><path d="M149.89,150.89L149.64,150.74L149.53,150.57L149.51,150.39L149.60,150.22L149.78,150.07L150.04,149.97L150.33,149.92L150.65,149.93L150.94,149.99L151.17,150.11L151.33,150.26L151.40,150.44L151.36,150.61L151.22,150.77L151.02,150.89"/><path d="M169.95,162.39L169.70,162.24L169.58,162.07L169.57,161.89L169.66,161.72L169.84,161.58L170.09,161.47L170.39,161.42L170.69,161.43L170.99,161.50L171.23,161.61L171.39,161.76L171.45,161.94L171.41,162.12L171.28,162.28L171.07,162.39"/><path d="M183.36,172.74L190.79,168.48"/></g><g style="stroke:#000000;stroke-width:0.529"><path d="M57.97,101.68L57.97,100.82L65.40,96.56L190.79,168.48L190.79,169.34L183.36,173.60L57.97,101.68"/><path d="M69.82,104.82L70.11,104.77L70.42,104.77L70.71,104.84L70.78,104.89L70.50,104.96L70.19,104.99L69.89,104.95L69.67,104.88L69.82,104.82"/><path d="M89.87,116.32L89.73,116.38L89.94,116.45L90.25,116.49L90.56,116.47L90.83,116.39L90.77,116.34L90.48,116.28L90.17,116.27L89.87,116.32"/><path d="M109.93,127.82L109.78,127.88L110.00,127.96L110.30,127.99L110.61,127.97L110.89,127.89L110.82,127.85L110.54,127.78L110.22,127.77L109.93,127.82"/><path d="M129.84,139.39L129.98,139.33L130.28,139.28L130.59,139.28L130.88,139.35L130.95,139.40L130.67,139.47L130.36,139.50L130.05,139.46L129.84,139.39"/><path d="M149.89,150.89L150.11,150.96L150.41,151.00L150.72,150.98L151.00,150.90L150.94,150.85L150.65,150.79L150.33,150.78L150.04,150.83L149.89,150.89"/><path d="M170.69,162.49L170.47,162.50L170.16,162.47L169.95,162.39L170.09,162.33L170.39,162.28L170.69,162.29L170.99,162.36L171.06,162.40L170.69,162.49"/></g></g><g id="Actor_.9"><g style="stroke:#000000;stroke-width:0.176"><path d="M57.58,130.83L55.76,131.87L55.75,131.88L55.74,131.89L55.73,131.90L55.72,131.92L55.72,131.93L55.72,132.58L55.84,132.69L55.94,132.82L56.01,132.97L56.05,133.13L56.05,133.16L55.65,133.40L55.53,133.29L55.43,133.16L55.36,133.00L55.32,132.85L55.32,132.71L55.36,132.60L55.43,132.53L55.53,132.51L55.65,132.54L55.65,131.89"/><path d="M56.05,133.16L56.05,133.27L56.01,133.38L55.94,133.45L55.84,133.47L55.72,133.44L55.72,133.61L55.65,133.57L55.72,133.53"/><path d="M55.72,133.44L56.05,133.25"/><path d="M55.65,133.57L55.65,133.40"/><path d="M54.74,133.52L54.74,131.74"/><path d="M55.72,131.81L57.54,130.76L57.55,130.76L57.56,130.76"/><path d="M55.65,132.54L55.72,132.50"/><path d="M56.40,130.95L56.35,130.89L56.28,130.85L56.18,130.82L56.08,130.82L55.98,130.83L55.89,130.86L55.82,130.90L55.79,130.96L55.78,131.02L55.81,131.08L55.87,131.12L55.96,131.16L56.05,131.18L56.16,131.17L56.25,131.15L56.33,131.11L56.39,131.06L56.41,131.00L56.40,130.95"/><path d="M56.89,131.66L56.90,131.60L56.94,131.54L57.00,131.50L57.09,131.47L57.19,131.46L57.30,131.46L57.39,131.49L57.46,131.53L57.51,131.58L57.52,131.64L57.50,131.70L57.45,131.75L57.37,131.79L57.27,131.81L57.17,131.82L57.07,131.80L56.98,131.76L56.92,131.72L56.89,131.66"/><path d="M56.18,131.17L56.08,131.16L56.01,131.17"/><path d="M57.13,131.81L57.19,131.80L57.30,131.81"/><path d="M58.56,133.52L58.56,131.35"/></g><g style="stroke:#000000;stroke-width:0.529"><path d="M58.56,133.52L58.56,133.53L58.55,133.54L58.54,133.55L58.53,133.56L56.67,134.62L56.66,134.63L56.65,134.63L56.64,134.63L56.63,134.62L54.77,133.56L54.76,133.55L54.75,133.54L54.75,133.53L54.74,133.52L54.74,133.52"/><path d="M58.56,131.35L58.56,131.35L58.56,131.34L58.55,131.33L58.54,131.32L58.54,131.32L57.64,130.80L57.63,130.80L57.62,130.80L57.58,130.83L57.58,130.78L57.58,130.77L57.57,130.76L56.67,130.25L56.66,130.24L56.64,130.24L56.63,130.25L55.33,130.99"/></g></g><g id="Actor_.10"><g style="stroke:#000000;stroke-width:0.176"><path d="M194.68,53.82L194.61,53.87L194.61,53.69L194.49,53.59L194.39,53.45L194.32,53.30L194.28,53.14L194.28,53.00L194.32,52.89L194.39,52.83L194.49,52.80L194.61,52.84L194.61,52.19L194.61,52.17L194.61,52.16L194.62,52.14L194.63,52.13L194.64,52.12L195.44,51.67L196.50,51.06L196.51,51.05L196.52,51.05"/><path d="M194.61,53.69L195.01,53.46L195.01,53.42L194.97,53.27L194.90,53.12L194.80,52.98L194.68,52.88L194.68,52.23L194.68,52.22L194.69,52.20L194.70,52.19L194.71,52.17L194.72,52.17L196.54,51.12"/><path d="M195.01,53.55L194.68,53.73L194.80,53.76L194.90,53.74L194.97,53.68L195.01,53.56L195.01,53.46"/><path d="M194.61,53.87L194.68,53.91L194.68,53.73"/><path d="M194.61,52.84L194.68,52.79"/><path d="M195.37,51.30L195.36,51.24L195.31,51.19L195.24,51.15L195.14,51.12L195.04,51.11L194.94,51.12L194.85,51.15L194.78,51.20L194.74,51.26L194.74,51.32L194.77,51.37L194.83,51.42L194.91,51.46L195.01,51.47L195.12,51.47L195.21,51.45L195.29,51.41L195.35,51.36L195.37,51.30"/><path d="M194.97,51.46L195.04,51.46L195.14,51.46"/><path d="M195.86,51.89L195.90,51.84L195.96,51.79L196.05,51.76L196.15,51.75L196.26,51.76L196.35,51.78L196.42,51.83L196.47,51.88L196.48,51.94L196.46,52.00L196.41,52.05L196.33,52.09L196.23,52.11L196.13,52.11L196.03,52.09L195.94,52.06L195.88,52.01L195.85,51.95L195.86,51.89"/><path d="M196.08,52.10L196.15,52.10L196.26,52.10"/></g><g style="stroke:#000000;stroke-width:0.529"><path d="M193.70,53.81L193.70,53.35L193.70,53.81L193.70,53.82L193.71,53.83L193.71,53.84L193.72,53.84L193.73,53.85L195.59,54.92L195.60,54.92L195.61,54.92L195.62,54.92L195.63,54.92L197.50,53.85L197.51,53.84L197.51,53.83L197.52,53.82L197.52,53.81L197.52,53.35L197.52,53.81"/><path d="M193.70,52.22L193.70,51.65L193.70,53.35"/><path d="M197.52,51.65L197.52,52.08L197.52,51.65L197.52,51.64L197.51,51.63L197.51,51.62L197.50,51.62L197.49,51.61L196.60,51.10L196.59,51.10L196.58,51.10L196.54,51.12L196.54,51.08L196.54,51.07L196.53,51.06L195.63,50.54L195.62,50.54L195.61,50.54L195.60,50.54L195.59,50.54L193.73,51.61L193.72,51.61L193.71,51.62L193.70,51.64L193.70,51.65"/><path d="M197.52,53.35L197.52,53.24"/></g></g><g id="Actor_.11"><g style="stroke:#000000;stroke-width:0.176"><path d="M57.85,140.91L57.94,140.89L58.05,140.92L58.16,141.00L58.26,141.11L58.31,141.19L58.34,141.24L58.39,141.38L58.41,141.52L58.39,141.63L58.34,141.71"/></g><g style="stroke:#000000;stroke-width:0.529"><path d="M58.16,141.75L58.26,141.75L58.34,141.71L58.40,141.68L58.45,141.60L58.47,141.48L58.45,141.35L58.40,141.20L58.32,141.07L58.22,140.96L58.11,140.89L58.00,140.86L57.91,140.88L57.85,140.91L57.78,140.97L57.76,141.03"/></g></g><g id="Actor_.12"><g style="stroke:#000000;stroke-width:0.176"><path d="M56.39,139.62L56.39,139.63"/><path d="M56.91,139.01L56.91,139.01L56.90,139.06L56.85,139.10L56.79,139.13L56.70,139.15L56.62,139.15L56.54,139.14L56.46,139.11L56.41,139.07L56.39,139.02"/><path d="M56.83,138.89L56.86,138.93L56.87,138.97L56.85,139.01L56.82,139.05L56.76,139.07L56.69,139.09L56.62,139.09L56.56,139.08L56.50,139.05L56.46,139.02L56.44,138.98L56.44,138.94L56.47,138.90L56.51,138.87"/><path d="M56.91,139.63L56.91,139.62"/></g><g style="stroke:#000000;stroke-width:0.529"><path d="M56.91,139.01L56.90,138.96L56.86,138.92L56.83,138.89L56.78,138.86L56.71,138.85L56.64,138.84L56.57,138.85L56.51,138.87L56.48,138.89L56.42,138.93L56.39,138.97L56.39,139.02L56.39,139.62"/><path d="M56.91,139.62L56.91,139.01"/></g></g><g id="Actor_.13"><g style="stroke:#000000;stroke-width:0.176"><path d="M193.95,61.87L193.92,61.85L193.86,61.82L193.80,61.82L193.76,61.84L193.73,61.88L193.72,61.92"/><path d="M194.08,62.11L194.08,62.12L194.08,62.20L194.07,62.25L194.03,62.29L193.98,62.30L193.93,62.28"/><path d="M195.55,63.57L195.58,63.55L195.60,63.51L195.61,63.47L195.61,61.57L195.63,61.40L195.70,61.22L195.79,61.05L195.92,60.90L196.06,60.80L197.69,59.86L197.73,59.83L197.75,59.80L197.75,59.76"/><path d="M195.13,61.70L195.11,61.67L195.04,61.64L194.99,61.64L194.94,61.66L194.91,61.71L194.91,61.74"/><path d="M195.27,61.93L195.27,61.95L195.27,62.02L195.25,62.07L195.22,62.11L195.16,62.12L195.12,62.10"/><path d="M195.32,59.91L195.31,59.90L195.26,59.84L195.24,59.77L195.27,59.70L195.33,59.64L195.35,59.63"/><path d="M195.89,59.91L195.93,59.89L195.97,59.82L195.97,59.75L195.94,59.69L195.87,59.63"/><path d="M197.75,59.80L197.75,60.05"/></g><g style="stroke:#000000;stroke-width:0.529"><path d="M197.75,59.76L197.73,59.72L197.69,59.69L195.76,58.58L195.71,58.56L195.64,58.55L195.58,58.55L195.51,58.56L195.46,58.58L193.83,59.52L193.69,59.63L193.57,59.77L193.47,59.94L193.40,60.12L193.38,60.29L193.38,62.11"/><path d="M197.75,60.05L197.73,60.09L197.69,60.12L196.06,61.06L195.99,61.11L195.92,61.18L195.88,61.27L195.87,61.30L195.84,61.36L195.83,61.44L195.83,63.34L195.83,63.39L195.80,63.42L195.77,63.44L195.55,63.57L195.51,63.57L195.46,63.55L193.59,62.48"/><path d="M194.08,62.11L194.07,62.05L194.03,61.97L193.98,61.90L193.95,61.87"/><path d="M195.13,61.70L195.16,61.72L195.22,61.79L195.25,61.87L195.27,61.93"/><path d="M195.87,59.89L195.89,59.91L195.85,59.94L195.74,59.97L195.63,59.99L195.51,59.98L195.40,59.95L195.32,59.91L195.33,59.90L195.35,59.89"/></g></g><g id="Actor_.14"><g style="stroke:#000000;stroke-width:0.176"><path d="M267.29,146.11L269.89,144.62"/></g><g style="stroke:#000000;stroke-width:0.529"><path d="M262.84,140.57L269.89,144.62L269.89,145.05L267.29,146.54"/></g></g><g id="Actor_.15"><g style="stroke:#000000;stroke-width:0.176"><path d="M193.57,62.49L193.60,62.46L193.61,62.43L193.62,62.42L193.62,62.36L193.60,62.30L193.57,62.23L193.53,62.18L193.48,62.14L193.43,62.11L193.39,62.11L193.35,62.13L193.35,62.13"/><path d="M193.32,62.25L193.33,62.21L193.35,62.18L193.38,62.17L193.41,62.17L193.45,62.19L193.49,62.22L193.52,62.26L193.55,62.31L193.56,62.36L193.56,62.41L193.55,62.45L193.52,62.47L193.49,62.47L193.45,62.46"/></g><g style="stroke:#000000;stroke-width:0.529"><path d="M194.08,62.19L193.57,62.49L193.53,62.49L193.48,62.48L193.45,62.46L193.41,62.44L193.38,62.40L193.35,62.35L193.33,62.30L193.32,62.25L193.32,62.22L193.33,62.17L193.35,62.13L193.87,61.83"/></g></g><g id="Actor_.16"><g style="stroke:#000000;stroke-width:0.176"><path d="M194.76,62.31L194.79,62.28L194.81,62.24L194.81,62.18L194.79,62.12L194.76,62.06L194.72,62.00L194.67,61.96L194.62,61.94L194.58,61.93L194.54,61.95"/><path d="M194.64,62.28L194.68,62.29L194.71,62.29L194.73,62.27L194.75,62.23L194.75,62.19L194.73,62.13L194.71,62.09L194.68,62.04L194.64,62.01L194.60,61.99L194.59,61.99L194.56,61.99L194.54,62.00L194.52,62.03L194.51,62.07"/><path d="M195.83,61.69L195.84,61.74L195.83,61.80"/></g><g style="stroke:#000000;stroke-width:0.529"><path d="M195.06,61.65L194.54,61.95L194.52,61.99L194.51,62.04L194.51,62.07L194.52,62.12L194.54,62.17L194.56,62.22L194.59,62.24L194.60,62.26L194.64,62.28L194.67,62.30L194.72,62.32L194.76,62.31L195.27,62.01"/><path d="M195.83,61.68L195.84,61.74L195.83,61.81"/></g></g><g id="Actor_.17"><g style="stroke:#000000;stroke-width:0.176"><path d="M58.70,139.69L58.57,139.68L58.43,139.74L56.80,140.67L56.75,140.70L56.68,140.71L56.62,140.71L56.56,140.70L56.50,140.67L54.57,139.57L54.53,139.54L54.51,139.50L54.51,139.76"/><path d="M54.51,139.50L54.51,139.46"/><path d="M58.59,142.12L58.63,142.10L58.65,142.07L58.66,142.02L58.66,140.13L58.65,140.05L58.61,140.00L58.56,139.97L58.50,139.97L58.43,140.00L56.80,140.93L56.75,140.96L56.68,140.97L56.62,140.97L56.56,140.96L56.51,140.93"/><path d="M56.43,139.65L56.49,139.67L56.61,139.69L56.73,139.69L56.84,139.66L56.93,139.62L56.99,139.56L57.02,139.49L57.00,139.42L56.95,139.36L56.91,139.34"/><path d="M56.37,139.61L56.32,139.57L56.29,139.51L56.29,139.44L56.33,139.37L56.39,139.34"/><path d="M56.94,139.61L56.91,139.59"/><path d="M58.82,142.00L58.82,142.00"/></g><g style="stroke:#000000;stroke-width:0.529"><path d="M54.51,139.76L54.53,139.79L54.57,139.83L56.51,140.93"/><path d="M57.94,141.78L58.51,142.11L58.55,142.12L58.59,142.12L58.82,142.00L58.85,141.98L58.87,141.94L58.88,141.89L58.88,140.00L58.86,139.85L58.79,139.74L58.70,139.69L56.47,138.41L56.34,138.41L56.20,138.46L54.57,139.40L54.53,139.43L54.51,139.46"/><path d="M56.51,140.93L56.53,140.96L56.58,141.00L57.83,141.72"/><path d="M56.39,139.60L56.37,139.61L56.39,139.63L56.43,139.65"/></g></g><g id="Actor_.18"><g style="stroke:#000000;stroke-width:0.176"/><g style="stroke:#000000;stroke-width:0.529"><path d="M141.03,57.92L141.54,59.22L70.92,99.73"/><path d="M99.68,74.35L84.27,80.81L81.74,83.35"/></g></g><g id="Actor_.19"><g style="stroke:#000000;stroke-width:0.176"><path d="M62.43,120.21L120.52,153.53"/><path d="M122.15,154.46L187.44,191.91L187.44,192.34"/><path d="M187.44,191.91L190.41,190.21"/></g><g style="stroke:#000000;stroke-width:0.529"><path d="M119.67,149.63L65.40,118.50L62.43,120.21L62.43,120.64L120.52,153.96"/><path d="M124.75,152.55L190.41,190.21L190.41,190.64L187.44,192.34L121.78,154.68"/></g></g><g id="Actor_.20"><g style="stroke:#000000;stroke-width:0.176"><path d="M140.05,52.47L141.17,53.11L141.91,53.11"/><path d="M141.17,80.47L141.17,59.43"/><path d="M141.17,58.26L141.17,57.84"/></g><g style="stroke:#000000;stroke-width:0.529"><path d="M141.54,80.47L141.17,80.47L140.56,80.13"/><path d="M140.05,52.47L143.02,50.77L144.13,51.40"/></g></g><g id="Actor_.21"><g style="stroke:#000000;stroke-width:0.176"><path d="M64.29,95.93L65.40,96.56"/><path d="M65.78,96.78L141.54,53.32"/></g><g style="stroke:#000000;stroke-width:0.529"><path d="M64.29,95.93L140.05,52.47L141.54,53.32L141.54,57.62L69.53,98.93"/></g></g><g id="Actor_.22"><g style="stroke:#000000;stroke-width:0.176"><path d="M56.86,94.65L61.32,97.20L61.32,98.06"/><path d="M61.32,97.20L143.02,50.34"/><path d="M64.10,93.58L63.99,93.54L63.81,93.39L63.72,93.23L63.73,93.04L63.85,92.88L64.05,92.74L64.32,92.65L64.62,92.61L64.93,92.63L65.21,92.71L65.43,92.84L65.57,93.00L65.60,93.18L65.54,93.35L65.38,93.50L65.22,93.58"/><path d="M75.99,86.77L75.88,86.72L75.69,86.57L75.61,86.40L75.62,86.23L75.73,86.06L75.93,85.92L76.20,85.83L76.50,85.80L76.81,85.82L77.09,85.90L77.31,86.02L77.45,86.18L77.49,86.36L77.42,86.53L77.27,86.69L77.11,86.76"/><path d="M116.28,60.56L120.00,62.69L119.25,63.12"/><path d="M123.52,59.50L123.41,59.45L123.23,59.31L123.14,59.14L123.16,58.96L123.27,58.79L123.47,58.66L123.74,58.56L124.03,58.53L124.35,58.55L124.63,58.63L124.85,58.75L124.99,58.91L125.03,59.09L124.96,59.27L124.80,59.42L124.65,59.50"/><path d="M136.53,52.68L136.69,52.60L136.85,52.45L136.91,52.28L136.87,52.10L136.74,51.94L136.52,51.81L136.24,51.73L135.93,51.71L135.62,51.75L135.36,51.84L135.16,51.98L135.04,52.14L135.03,52.32L135.12,52.49L135.30,52.64L135.41,52.68"/></g><g style="stroke:#000000;stroke-width:0.529"><path d="M61.32,98.06L56.86,95.51L56.86,94.65L79.14,81.86L82.86,83.99L84.83,82.86L119.25,63.12L116.28,61.42L116.28,60.56L138.57,47.78L143.02,50.34L143.02,50.77"/><path d="M64.24,93.64L64.10,93.58L64.32,93.51L64.62,93.47L64.93,93.49L65.22,93.58L65.14,93.62L64.86,93.68L64.54,93.69L64.24,93.64"/><path d="M76.13,86.82L75.99,86.77L76.20,86.69L76.50,86.66L76.81,86.68L77.11,86.76L77.03,86.80L76.74,86.87L76.43,86.87L76.13,86.82"/><path d="M123.74,59.42L123.52,59.50L123.67,59.56L123.97,59.61L124.28,59.60L124.57,59.54L124.65,59.50L124.35,59.41L124.03,59.39L123.74,59.42"/><path d="M135.41,52.68L135.55,52.74L135.85,52.79L136.16,52.78L136.45,52.72L136.53,52.68L136.24,52.59L135.93,52.57L135.62,52.61L135.41,52.68"/></g></g><g id="Actor_.23"><g style="stroke:#000000;stroke-width:0.176"><path d="M195.87,59.31L195.87,59.31L195.85,59.35L195.81,59.40L195.74,59.43L195.66,59.45L195.58,59.45L195.49,59.44L195.42,59.41L195.37,59.37L195.35,59.32"/><path d="M195.47,59.17L195.42,59.20L195.40,59.24L195.40,59.28L195.42,59.32L195.46,59.35L195.52,59.37L195.58,59.38L195.65,59.38L195.72,59.37L195.77,59.34L195.81,59.31L195.83,59.27L195.82,59.23L195.79,59.19"/><path d="M195.35,59.92L195.35,59.92"/><path d="M195.87,59.91L195.87,59.92"/></g><g style="stroke:#000000;stroke-width:0.529"><path d="M195.87,59.31L195.86,59.26L195.82,59.21L195.79,59.19L195.74,59.16L195.67,59.14L195.60,59.14L195.53,59.15L195.47,59.17L195.44,59.18L195.38,59.22L195.35,59.27L195.35,59.32L195.35,59.92"/><path d="M195.35,59.92L195.34,59.92"/><path d="M195.87,59.31L195.87,59.91"/><path d="M195.87,59.91L195.88,59.92"/></g></g><g id="Actor_.24"><g style="stroke:#000000;stroke-width:0.176"><path d="M85.98,92.27L85.98,91.09"/><path d="M139.25,60.53L140.56,59.98"/></g><g style="stroke:#000000;stroke-width:0.529"><path d="M85.98,92.27L140.56,80.88L140.56,59.98L140.47,59.83"/></g></g><g id="Actor_.25"><g style="stroke:#000000;stroke-width:0.176"/><g style="stroke:#000000;stroke-width:0.529"><path d="M78.49,104.07L85.98,92.27L85.98,91.09"/></g></g><g id="Actor_.26"><g style="stroke:#000000;stroke-width:0.176"><path d="M260.60,121.62L141.54,53.32"/><path d="M143.24,82.33L143.07,82.33L142.94,82.40L142.87,82.54L142.84,82.72L142.87,82.94L142.94,83.16L143.07,83.38L143.22,83.56L143.40,83.69L145.62,84.97L145.80,85.03L145.95,85.03L146.07,84.96L146.15,84.82"/><path d="M160.42,81.42L160.34,81.35L160.29,81.25L160.29,81.16L160.34,81.11L160.45,81.16L160.52,81.27L160.52,81.39L160.49,81.42L160.42,81.42"/><path d="M161.48,80.98L161.48,81.07L161.53,81.17L161.60,81.24L161.68,81.24L161.72,81.18L161.68,81.03L161.56,80.93L161.53,80.93L161.48,80.98"/><path d="M160.97,78.03L160.90,77.99L160.78,77.99L160.68,78.04L160.61,78.14L160.59,78.28L160.61,78.44L160.68,78.62L160.78,78.78L160.90,78.91L161.03,79.00L161.16,79.04L161.28,79.02L161.36,78.94L161.41,78.79"/><path d="M170.67,98.88L170.59,99.02L170.46,99.09L170.31,99.09L170.14,99.02L167.91,97.75L167.74,97.62L167.58,97.44L167.46,97.22L167.38,97.00L167.35,96.78L167.38,96.60L167.46,96.46L167.58,96.39L167.75,96.39"/><path d="M190.77,109.60L190.61,109.60L190.48,109.67L190.40,109.81L190.38,109.99L190.40,110.20L190.48,110.43L190.61,110.64L190.76,110.82L190.93,110.95L193.16,112.23L193.34,112.30L193.49,112.30L193.61,112.23L193.69,112.08"/><path d="M213.80,122.81L213.64,122.81L213.51,122.88L213.43,123.01L213.40,123.20L213.43,123.41L213.51,123.64L213.63,123.85L213.79,124.03L213.96,124.16L216.19,125.44L216.36,125.51L216.52,125.50L216.64,125.43L216.72,125.29"/><path d="M266.92,156.48L266.92,145.12L266.90,144.97L266.77,144.68L266.55,144.47L262.84,142.34L262.62,142.14L262.48,141.84L262.47,141.70L262.47,132.24L262.48,132.11L262.54,132.02L262.66,131.97L262.84,132.02"/><path d="M266.77,134.19L266.85,134.14L266.90,134.05L266.92,133.93L266.92,125.24L267.29,125.03"/><path d="M266.92,125.24L266.85,125.20"/></g><g style="stroke:#000000;stroke-width:0.529"><path d="M233.16,137.11L142.65,85.20L141.54,83.27L141.54,53.32L141.91,53.11L267.29,125.03L267.29,133.72L267.27,133.84L267.22,133.93L266.77,134.19L266.67,134.19L266.55,134.15L262.84,132.02L262.84,141.49L262.86,141.63L262.99,141.92L263.21,142.13L266.92,144.26L267.14,144.47L267.22,144.61L267.29,144.90L267.29,156.26L266.92,156.48L264.03,154.81"/><path d="M143.38,83.06L143.24,82.72L143.21,82.51L143.24,82.33L143.40,82.40L145.62,83.67L145.80,83.80L145.96,84.00L146.07,84.20L146.15,84.42L146.18,84.64L146.15,84.81L145.99,84.75L143.77,83.47L143.60,83.34L143.38,83.06"/><path d="M161.41,78.75L161.41,78.79L161.27,78.70L161.15,78.57L161.05,78.40L160.98,78.23L160.97,78.03L161.16,78.17L161.28,78.32L161.36,78.49L161.41,78.75"/><path d="M167.75,96.78L167.72,96.57L167.75,96.39L167.91,96.46L170.14,97.73L170.31,97.86L170.46,98.04L170.59,98.26L170.67,98.48L170.69,98.70L170.67,98.87L170.51,98.81L168.28,97.53L168.11,97.40L167.95,97.22L167.83,97.01L167.75,96.78"/><path d="M191.13,110.61L190.98,110.43L190.85,110.22L190.78,109.99L190.75,109.78L190.77,109.60L190.93,109.66L193.16,110.94L193.34,111.07L193.49,111.25L193.61,111.47L193.69,111.69L193.72,111.91L193.69,112.08L193.53,112.02L191.31,110.74L191.13,110.61"/><path d="M213.80,123.20L213.88,123.42L214.00,123.64L214.16,123.82L214.33,123.95L216.56,125.23L216.72,125.29L216.75,125.11L216.72,124.90L216.64,124.67L216.52,124.46L216.36,124.28L216.19,124.15L213.96,122.87L213.80,122.81L213.77,122.98L213.80,123.20"/></g></g><g id="Actor_.27"><g style="stroke:#000000;stroke-width:0.176"><path d="M61.32,97.63L62.43,98.27"/><path d="M62.80,120.85L62.80,125.85"/><path d="M62.80,120.00L62.80,104.45"/><path d="M65.40,124.36L65.40,122.34"/><path d="M65.40,118.50L65.40,105.96L65.40,106.39"/></g><g style="stroke:#000000;stroke-width:0.529"><path d="M65.40,124.36L62.80,125.85L61.32,125.00L61.32,103.60"/><path d="M65.40,96.56L64.29,95.93L61.32,97.63L61.32,98.91"/><path d="M65.40,106.39L65.40,105.94L65.40,105.96"/></g></g><g id="Actor_.28"><g style="stroke:#000000;stroke-width:0.176"><path d="M141.91,52.68L267.29,124.60L267.29,125.46"/><path d="M156.22,55.88L156.42,55.76L156.56,55.60L156.60,55.43L156.53,55.25L156.37,55.10L156.14,54.98L155.85,54.92L155.53,54.91L155.24,54.96L154.98,55.07L154.80,55.21L154.71,55.38L154.73,55.56L154.84,55.73L155.09,55.88"/><path d="M175.15,67.38L174.90,67.23L174.78,67.06L174.77,66.89L174.86,66.71L175.04,66.57L175.29,66.46L175.59,66.41L175.90,66.42L176.19,66.49L176.43,66.60L176.59,66.75L176.65,66.93L176.61,67.11L176.48,67.27L176.27,67.38"/><path d="M196.33,78.89L196.53,78.77L196.67,78.61L196.71,78.43L196.64,78.26L196.48,78.10L196.25,77.99L195.96,77.92L195.65,77.92L195.35,77.97L195.09,78.07L194.91,78.22L194.82,78.39L194.84,78.57L194.95,78.73L195.21,78.89"/><path d="M215.26,90.39L215.01,90.24L214.89,90.07L214.88,89.89L214.97,89.72L215.15,89.57L215.40,89.47L215.70,89.42L216.01,89.43L216.30,89.49L216.54,89.61L216.70,89.76L216.76,89.94L216.72,90.11L216.59,90.27L216.38,90.39"/><path d="M236.44,101.90L236.64,101.78L236.78,101.62L236.82,101.44L236.75,101.26L236.60,101.11L236.36,101.00L236.07,100.93L235.76,100.92L235.46,100.97L235.21,101.08L235.02,101.22L234.93,101.39L234.95,101.57L235.06,101.74L235.32,101.89"/><path d="M255.37,113.40L255.12,113.24L255.00,113.08L254.99,112.90L255.08,112.73L255.26,112.58L255.51,112.48L255.81,112.43L256.12,112.43L256.41,112.50L256.65,112.61L256.81,112.77L256.87,112.94L256.84,113.12L256.70,113.28L256.49,113.40"/><path d="M267.29,124.60L274.72,120.34"/></g><g style="stroke:#000000;stroke-width:0.529"><path d="M267.29,125.46L274.72,121.20L274.72,120.34L149.34,48.42L141.91,52.68L141.91,53.11"/><path d="M155.31,55.95L155.61,55.99L155.92,55.97L156.22,55.88L156.14,55.84L155.85,55.78L155.53,55.77L155.24,55.82L155.09,55.88L155.31,55.95"/><path d="M175.15,67.38L175.36,67.46L175.67,67.49L175.98,67.47L176.27,67.38L176.19,67.35L175.90,67.28L175.59,67.27L175.29,67.33L175.15,67.38"/><path d="M195.42,78.96L195.21,78.89L195.35,78.83L195.65,78.78L195.96,78.79L196.25,78.85L196.33,78.89L196.03,78.97L195.72,79.00L195.42,78.96"/><path d="M215.47,90.46L215.26,90.39L215.40,90.33L215.70,90.28L216.01,90.29L216.30,90.35L216.38,90.39L216.09,90.48L215.78,90.50L215.47,90.46"/><path d="M235.32,101.89L235.46,101.83L235.76,101.78L236.07,101.79L236.36,101.86L236.44,101.90L236.14,101.98L235.84,102.00L235.53,101.97L235.32,101.89"/><path d="M255.89,113.51L255.59,113.47L255.37,113.40L255.51,113.34L255.81,113.29L256.12,113.29L256.41,113.36L256.49,113.40L256.20,113.49L255.89,113.51"/></g></g><g id="Actor_.29"><g style="stroke:#000000;stroke-width:0.176"><path d="M57.82,141.71L57.87,141.75L57.94,141.77L58.00,141.78L58.05,141.76L58.09,141.72L58.12,141.67L58.13,141.59L58.15,141.75"/><path d="M57.63,141.11L57.74,141.11L57.89,141.08L58.00,141.26L57.94,141.19L57.87,141.14L57.80,141.11L57.74,141.11L57.69,141.12L57.64,141.16L57.62,141.22"/><path d="M58.00,141.26L58.05,141.34L58.09,141.42L58.12,141.51L58.13,141.59L58.15,141.41L58.00,141.26"/><path d="M57.89,141.08L58.05,140.99"/><path d="M58.00,141.00L57.89,141.01"/><path d="M57.61,141.29L57.61,141.29"/><path d="M57.62,141.40L57.64,141.47L57.66,141.51"/><path d="M58.88,140.83L58.91,140.88L58.93,140.94L58.94,141.00"/><path d="M58.07,141.02L58.31,141.32L58.15,141.41"/><path d="M58.31,141.59L58.31,141.32"/><path d="M58.31,141.33L58.32,141.37L58.33,141.42"/><path d="M58.30,141.31L58.28,141.26L58.22,141.15L58.14,141.07L58.12,141.06"/></g><g style="stroke:#000000;stroke-width:0.529"><path d="M57.61,141.29L57.63,141.11L57.79,141.02L57.89,141.01L57.90,141.00L57.97,140.99L58.00,141.00L58.05,140.99L58.07,141.02L58.12,141.06"/><path d="M57.61,141.29L57.62,141.38L57.62,141.40L57.63,141.46L57.66,141.51L57.69,141.55L57.74,141.63L57.80,141.70L57.82,141.71L57.89,141.78L58.00,141.78L58.15,141.75L58.31,141.66L58.31,141.59L58.32,141.56L58.34,141.47L58.33,141.42"/><path d="M58.88,140.81L58.88,140.82L58.91,140.87L58.93,140.92L58.94,140.97L58.94,141.00L58.93,141.05L58.91,141.09L58.88,141.10"/></g></g><g><g><path style="stroke:#000000;stroke-width:0.125;stroke-dasharray:3.0 2.0 1.0 2.0" d="M195.61,54.92L195.61,59.26"/></g></g><g><g><path style="stroke:#000000;stroke-width:0.125;stroke-dasharray:3.0 2.0 1.0 2.0" d="M183.50,68.01L194.50,61.71"/></g></g><g><g><path style="stroke:#000000;stroke-width:0.125;stroke-dasharray:3.0 2.0 1.0 2.0" d="M83.75,125.23L58.62,139.64"/></g></g><g><g><path style="stroke:#000000;stroke-width:0.125;stroke-dasharray:3.0 2.0 1.0 2.0" d="M56.65,134.63L56.65,138.97"/></g></g><g id="PMI.0"><g><path style="stroke:#000000;stroke-width:0.125" d="M216.27,39.78L196.86,53.11"/></g><g><path style="fill:#000000" d="M197.61,53.11L197.61,53.04L197.60,52.96L197.58,52.89L197.55,52.82L197.52,52.76L197.48,52.69L197.44,52.64L197.39,52.58L197.34,52.53L197.28,52.49L197.21,52.45L197.15,52.42L197.08,52.39L197.01,52.38L196.93,52.36L196.86,52.36L196.79,52.36L196.71,52.38L196.64,52.39L196.57,52.42L196.51,52.45L196.44,52.49L196.38,52.53L196.33,52.58L196.28,52.64L196.24,52.69L196.20,52.76L196.17,52.82L196.14,52.89L196.12,52.96L196.11,53.04L196.11,53.11L196.11,53.18L196.12,53.26L196.14,53.33L196.17,53.40L196.20,53.46L196.24,53.53L196.28,53.59L196.33,53.64L196.38,53.69L196.44,53.73L196.51,53.77L196.57,53.80L196.64,53.83L196.71,53.85L196.79,53.86L196.86,53.86L196.93,53.86L197.01,53.85L197.08,53.83L197.15,53.80L197.21,53.77L197.28,53.73L197.34,53.69L197.39,53.64L197.44,53.59L197.48,53.53L197.52,53.46L197.55,53.40L197.58,53.33L197.60,53.26L197.61,53.18z"/></g><g><text xml:space="preserve" fill="#000000" stroke-width="0" x="212.69" y="38.03" font-size="3.79" opacity="1.00" font-family="Arial">ESR0181</text></g></g><g id="PMI.1"><g><path style="stroke:#000000;stroke-width:0.125" d="M34.10,113.32L55.65,131.89"/></g><g><path style="fill:#000000" d="M56.40,131.89L56.39,131.82L56.38,131.75L56.37,131.67L56.34,131.60L56.31,131.54L56.27,131.48L56.23,131.42L56.18,131.36L56.12,131.31L56.06,131.27L56.00,131.23L55.93,131.20L55.87,131.17L55.79,131.16L55.72,131.15L55.65,131.14L55.57,131.15L55.50,131.16L55.43,131.17L55.36,131.20L55.29,131.23L55.23,131.27L55.17,131.31L55.12,131.36L55.07,131.42L55.02,131.48L54.99,131.54L54.95,131.60L54.93,131.67L54.91,131.75L54.90,131.82L54.90,131.89L54.90,131.97L54.91,132.04L54.93,132.11L54.95,132.18L54.99,132.25L55.02,132.31L55.07,132.37L55.12,132.42L55.17,132.47L55.23,132.52L55.29,132.55L55.36,132.58L55.43,132.61L55.50,132.63L55.57,132.64L55.65,132.64L55.72,132.64L55.79,132.63L55.87,132.61L55.93,132.58L56.00,132.55L56.06,132.52L56.12,132.47L56.18,132.42L56.23,132.37L56.27,132.31L56.31,132.25L56.34,132.18L56.37,132.11L56.38,132.04L56.39,131.97z"/></g><g><text xml:space="preserve" fill="#000000" stroke-width="0" x="22.40" y="111.57" font-size="3.79" opacity="1.00" font-family="Arial">ESR0181</text></g></g><g/><g><g/><g><text xml:space="preserve" fill="#000000" stroke-width="0" x="7.25" y="12.02" font-size="4.53" opacity="1.00" font-family="Arial" font-weight="bold">BPA27444</text></g></g><g id="paperID" visibility="hidden" opacity="0.00" transform="scale(0.000100)"><path style="stroke:#000000;stroke-width:0.500;fill:#e6e6e6;fill-rule:evenodd" d="M-2000.00,-2000.00L2297.00,-2000.00L2297.00,2210.00L-2000.00,2210.00zM0.00,0.00L297.00,0.00L297.00,210.00L0.00,210.00z"/><path style="fill:#000000;fill-opacity:0.118" d="M3.00,210.00L297.00,210.00L297.00,3.00L300.00,3.00L300.00,213.00L3.00,213.00z"/></g></g></svg>
