<?xml version="1.0" encoding="UTF-8" standalone="no"?>
<svg xmlns="http://www.w3.org/2000/svg" xmlns:xlink="http://www.w3.org/1999/xlink" width="297.000mm" height="210.000mm" viewBox="0.000000 0.000000 297.000000 210.000000" stroke-linejoin="round" stroke-linecap="round" fill="none" fill-rule="evenodd"><desc>Composer Export</desc><script type="text/ecmascript"><![CDATA[
if(typeof(top) != "undefined")
{
	top.ShowPaper = ShowPaper;
}
function ShowHotSpot(evt,hotspotid)
{
	var svgDocument = evt.target.ownerDocument;
	var strId = "hotspot."+hotspotid;
	var hotspot = svgDocument.getElementById(strId);
	if(hotspot)
		hotspot.setAttribute("opacity",".5");
}
function HideHotSpot(evt,hotspotid)
{
	var svgDocument = evt.target.ownerDocument;
	var strId = "hotspot."+hotspotid;
	var hotspot = svgDocument.getElementById(strId);
	if(hotspot)
		hotspot.setAttribute("opacity","0");

	var toolTip = svgDocument.getElementById('ToolTip');
	if(toolTip)
		toolTip.setAttribute("visibility","hidden");
}
function ShowToolTip(evt,hotspotid,strTooltip)
{
	if(strTooltip=="")
	return;

	// change text
	var svgDocument = evt.target.ownerDocument;
	var tiptext = svgDocument.getElementById('ToolTipText');
	if( !tiptext )
	return;
	tiptext.firstChild.nodeValue = " " + strTooltip + "  " ;

	// show tooltip before, else some refresh issue

	var toolTip = svgDocument.getElementById('ToolTip');
	if(!toolTip)
	return;

	toolTip.setAttribute("visibility","visible");
	toolTip.setAttribute("opacity",".95");

	// move tooltip
	// get viewbox

	var root = svgDocument.documentElement;
	var vbox = (root.getAttribute("viewBox")).split(' ');
	var x0 = parseFloat(vbox[0]);
	var y0 = parseFloat(vbox[1]);
	var vboxW = parseFloat(vbox[2]);
	var vboxH = parseFloat(vbox[3]);

	// get default width of svg

	var strW = root.getAttribute("width");
	var svgW = parseFloat(strW);
	if(strW.indexOf('mm') != -1)
	svgW *= 3.779;

	var strH = root.getAttribute("height");
	var svgH = parseFloat(strH);
	if(strH.indexOf('mm') != -1)
	svgH *= 3.779;  	// 96 dpi  -> 96/25.4 = 3.779

	// update the viewbox / width / height if svg is embedded in html with zoom fit all
	var realx0 = x0;
	var realy0 = y0;
	var realvboxW = vboxW;
	var realvboxH = vboxH;
	var realsvgW = svgW;
	var realsvgH = svgH;

	if ((typeof(top) == "undefined") || (typeof(top.svgctl1) != "undefined")) // embedded in html
	{
		// get window size in pxl

		svgW = window.innerWidth;
		svgH = window.innerHeight;

		// calculate real viewbox

		realsvgW = svgW;
		realsvgH = svgH;
		if((svgW / svgH) > (vboxW / vboxH))
		{
			realvboxW = (vboxH * svgW) / svgH;
			realvboxH = vboxH;
			realx0 = x0 - (realvboxW - vboxW)/2 ;
		}
		else
		{
			realvboxH = (vboxW * svgH) / svgW;
			realvboxW = vboxW;
			realy0 = y0 - (realvboxH - vboxH)/2 ;
		}
	}

	// get user zoom/pan

	var newScale = root.currentScale;
	var translation = root.currentTranslate;

	// transform pxl to user unit

	var xPos = (((evt.clientX+10- translation.x)/newScale) * realvboxW)/realsvgW  + realx0 ;
	var yPos = (((evt.clientY+5- translation.y)/newScale) * realvboxH)/ realsvgH  + realy0 ;
	var scaleForWidth = ( (1 / newScale) * realvboxH) / realsvgH;

	// move tooltip

	toolTip.setAttribute("transform", "translate(" + xPos + "," + yPos + ")" );

	// resize tooltip

	var fontsize = 12;
	tiptext.setAttribute("font-size",fontsize*scaleForWidth);
	tiptext.setAttribute("y", fontsize*scaleForWidth);
	var tipBG = svgDocument.getElementById('ToolTipBG');
	var outline = tiptext.getBBox();
	if(tipBG)
	{
		tipBG.setAttribute("stroke-width", 1*scaleForWidth);
		tipBG.setAttribute("width", Number(outline.width) );
		tipBG.setAttribute("height", Number(outline.height) + fontsize*.5*scaleForWidth );
	}
	var ToolTipShadow = svgDocument.getElementById('ToolTipShadow');
	if(ToolTipShadow)
	{
		ToolTipShadow.setAttribute("width", Number(outline.width) );
		ToolTipShadow.setAttribute("height", Number(outline.height) + fontsize*.5*scaleForWidth );
		ToolTipShadow.setAttribute("x", 3*scaleForWidth);
		ToolTipShadow.setAttribute("y", 3*scaleForWidth);
	}
}
function ShowPaper()
{
  var svgDocument = getDocument();
  var paper = svgDocument.getElementById("paperID");
  if(paper)
  {
    paper.setAttribute("transform","scale(1)");
    paper.setAttribute("opacity","1");
    paper.setAttribute("visibility","visible");
  }
  var svg = svgDocument.getRootElement();
  if(svg)
  {
    svg.setAttribute("width","307.000mm");
    svg.setAttribute("height","220.000mm");
    svg.setAttribute("viewBox","-5.000000 -5.000000 307.000000 220.000000");
  }
}
]]></script><defs/><g><path style="fill:#000000;fill-opacity:0.098;fill-rule:evenodd" d="M271.61,31.78L271.63,39.24L270.27,39.91L268.97,39.96L268.97,33.46L270.64,33.30L271.45,32.80L271.44,31.60zM250.85,36.25L251.06,36.03L250.99,43.57L249.90,44.13L248.59,44.18L248.59,37.87L250.13,37.57L250.86,37.04zM279.24,41.89L286.61,37.66L286.84,37.68L286.84,44.73L282.75,47.08L282.26,47.06zM213.24,44.28L213.18,51.46L212.08,52.02L210.60,52.08L210.60,45.76L212.45,45.41L212.90,45.10L212.85,44.35L213.05,43.93zM188.64,49.62L188.65,56.30L188.20,56.77L187.49,57.16L186.00,57.22L186.00,50.90L187.53,50.59L188.30,50.25L188.25,49.49L188.45,49.07zM163.86,54.17L163.87,61.63L162.89,62.30L161.40,62.36L161.40,56.04L162.94,55.74L163.67,55.22L163.68,54.01zM139.27,59.31L139.27,66.77L138.29,67.44L136.62,67.50L136.62,61.18L137.93,61.01L139.03,60.44L139.09,59.14zM114.67,64.66L114.68,71.91L113.69,72.58L112.03,72.64L112.03,66.32L113.33,66.15L114.43,65.58L114.47,64.30zM85.48,81.74L85.31,88.80L84.38,89.34L82.84,89.52L82.84,83.02L84.33,82.86L85.14,82.37L85.11,80.99zM98.35,96.23L99.61,98.53L57.96,164.24L50.42,155.70L50.42,155.25L93.29,87.79zM76.49,95.68L76.42,102.86L75.39,103.47L73.85,103.66L73.85,97.16L75.33,96.99L76.14,96.50L76.09,95.75L76.30,95.33zM67.50,109.81L67.43,116.99L66.39,117.60L64.85,117.79L64.85,111.29L66.34,111.12L67.15,110.63L67.10,109.88L67.30,109.46zM58.50,123.74L58.51,131.01L58.24,131.30L57.39,131.73L55.86,131.93L55.86,125.43L57.34,125.26L58.31,124.60L58.33,123.57zM49.51,137.90L49.51,145.15L49.25,145.43L48.40,145.87L47.29,146.02L46.87,145.86L46.86,139.56L48.35,139.39L49.31,138.74L49.31,137.54zM31.52,166.35L31.45,173.71L30.36,174.27L28.87,174.33L28.87,168.01L30.73,167.67L31.32,167.19L31.32,165.99zM41.42,170.59L47.30,177.20L48.43,178.46L48.60,178.91L34.44,201.30L28.19,190.78L28.18,190.29L40.97,170.21zM23.99,177.89L24.00,185.35L23.02,186.02L21.35,186.08L21.35,179.76L22.65,179.59L23.75,179.03L23.80,177.73zM27.67,197.47L20.50,201.67L19.89,201.87L19.89,194.82L27.67,190.42z"/><g id="Actor_.0"><g style="stroke:#000000;stroke-width:0.176"><path d="M31.57,166.67L31.41,167.10L31.02,167.48L30.44,167.76L29.72,167.92L28.95,167.94L28.22,167.81L27.60,167.56L27.15,167.20L26.93,166.78"/><path d="M30.88,165.68L31.17,166.02L31.25,166.40L31.11,166.77L30.78,167.09L30.27,167.34L29.66,167.48L28.99,167.49L28.36,167.39L27.82,167.16L27.44,166.86L27.25,166.49L27.28,166.11L27.52,165.76L27.94,165.47"/></g><g style="stroke:#000000;stroke-width:0.529"><path d="M31.56,173.48L31.57,166.67L31.48,166.23L31.14,165.84L30.88,165.68L30.41,165.41L29.82,165.25L29.16,165.20L28.51,165.28L27.94,165.47L27.74,165.59L27.24,165.93L26.96,166.34L26.93,166.78L26.92,173.48"/></g></g><g id="Actor_.1"><g style="stroke:#000000;stroke-width:0.176"><path d="M246.56,36.27L246.58,36.71L246.84,37.13L247.12,37.32L247.33,37.47L247.98,37.70L248.73,37.79L249.49,37.75L250.19,37.56L250.74,37.25L251.08,36.86L251.19,36.43L251.19,36.43"/><path d="M250.42,35.47L250.75,35.80L250.87,36.17L250.78,36.54L250.48,36.88L250.00,37.15L249.41,37.31L248.75,37.35L248.10,37.26L247.54,37.07L247.12,36.77L246.89,36.42L246.87,36.04L247.07,35.68L247.46,35.37"/></g><g style="stroke:#000000;stroke-width:0.529"><path d="M251.18,43.36L251.19,36.43L251.05,35.99L250.66,35.61L250.42,35.47L249.92,35.22L249.39,35.09L249.30,35.07L248.64,35.05L248.01,35.15L247.46,35.37L247.24,35.50L246.79,35.86L246.56,36.27L246.54,43.31"/></g></g><g id="Actor_.2"><g style="stroke:#000000;stroke-width:0.176"><path d="M24.10,178.44L23.94,178.87L23.55,179.25L22.97,179.53L22.25,179.69L21.48,179.71L20.75,179.59L20.40,179.44L20.13,179.33L19.68,178.97L19.46,178.55"/><path d="M23.41,177.45L23.70,177.79L23.78,178.17L23.64,178.54L23.31,178.87L22.80,179.11L22.18,179.25L21.52,179.27L20.89,179.16L20.35,178.94L19.97,178.63L19.78,178.26L19.81,177.89L20.05,177.53L20.47,177.24"/></g><g style="stroke:#000000;stroke-width:0.529"><path d="M24.09,185.25L24.10,178.44L24.01,178.00L23.67,177.61L23.41,177.45L22.94,177.18L22.35,177.02L21.69,176.97L21.04,177.05L20.47,177.24L20.27,177.37L19.77,177.70L19.49,178.11L19.46,178.55L19.45,185.25"/></g></g><g id="Actor_.3"><g style="stroke:#000000;stroke-width:0.176"><path d="M164.00,54.72L163.84,55.15L163.45,55.53L162.86,55.81L162.15,55.97L161.38,55.99L160.65,55.86L160.02,55.61L159.58,55.25L159.36,54.83"/><path d="M160.37,53.52L159.94,53.81L159.70,54.16L159.67,54.54L159.86,54.91L160.25,55.22L160.79,55.44L161.42,55.54L162.08,55.53L162.70,55.39L163.20,55.15L163.24,55.11L163.54,54.82L163.68,54.45L163.59,54.07L163.30,53.73"/></g><g style="stroke:#000000;stroke-width:0.529"><path d="M163.98,61.56L164.00,54.72L163.90,54.28L163.56,53.89L163.30,53.73L162.84,53.46L162.24,53.30L161.59,53.25L160.94,53.33L160.37,53.52L160.16,53.64L159.67,53.98L159.39,54.39L159.36,54.83L159.34,61.51"/></g></g><g id="Actor_.4"><g style="stroke:#000000;stroke-width:0.176"><path d="M271.72,32.14L271.72,32.14L271.61,32.58L271.26,32.97L270.71,33.28L270.02,33.46L269.25,33.51L268.51,33.41L267.85,33.18L267.37,32.84L267.10,32.43L267.08,31.99"/><path d="M270.94,31.18L271.27,31.51L271.40,31.88L271.30,32.26L271.00,32.60L270.53,32.86L269.93,33.02L269.27,33.06L268.63,32.98L268.07,32.78L267.65,32.49L267.53,32.30L267.41,32.13L267.40,31.75L267.60,31.39L267.99,31.09"/></g><g style="stroke:#000000;stroke-width:0.529"><path d="M271.70,39.08L271.72,32.14L271.57,31.71L271.19,31.33L270.94,31.18L270.44,30.93L269.83,30.79L269.17,30.77L268.53,30.87L267.99,31.09L267.77,31.22L267.31,31.57L267.08,31.99L267.06,39.03"/></g></g><g id="Actor_.5"><g style="stroke:#000000;stroke-width:0.176"><path d="M44.96,138.37L45.17,138.79L45.62,139.15L46.24,139.41L46.98,139.53L47.75,139.52L48.46,139.36L48.74,139.22L49.05,139.07L49.44,138.69L49.60,138.26"/><path d="M48.90,137.28L49.19,137.62L49.28,137.99L49.14,138.36L48.80,138.69L48.30,138.93L47.68,139.07L47.02,139.09L46.39,138.98L45.85,138.76L45.46,138.45L45.34,138.22L45.27,138.09L45.30,137.71L45.54,137.35L45.97,137.07"/></g><g style="stroke:#000000;stroke-width:0.529"><path d="M49.58,145.08L49.60,138.26L49.50,137.83L49.16,137.43L48.90,137.28L48.44,137.01L47.84,136.84L47.18,136.79L46.54,136.87L45.97,137.07L45.76,137.19L45.27,137.52L44.99,137.93L44.96,138.37L44.94,145.07"/></g></g><g id="Actor_.6"><g style="stroke:#000000;stroke-width:0.176"><path d="M139.37,59.86L139.21,60.29L138.82,60.67L138.23,60.95L137.52,61.11L137.16,61.12L136.75,61.13L136.02,61.01L135.39,60.75L134.95,60.39L134.73,59.97"/><path d="M138.67,58.87L138.96,59.21L139.05,59.59L138.91,59.96L138.57,60.29L138.07,60.53L137.45,60.67L136.79,60.69L136.16,60.58L135.62,60.36L135.23,60.05L135.05,59.69L135.07,59.31L135.31,58.95L135.74,58.66"/><path d="M138.93,59.03L138.93,59.03"/></g><g style="stroke:#000000;stroke-width:0.529"><path d="M139.35,66.70L139.37,59.86L139.27,59.42L138.93,59.03L138.67,58.87L138.21,58.60L137.61,58.44L136.96,58.39L136.31,58.47L135.74,58.66L135.53,58.79L135.04,59.12L134.76,59.53L134.73,59.97L134.71,66.66"/></g></g><g id="Actor_.7"><g style="stroke:#000000;stroke-width:0.176"><path d="M71.85,95.99L72.07,96.41L72.51,96.77L73.14,97.03L73.87,97.15L74.64,97.13L75.35,96.97L75.94,96.69L76.33,96.31L76.49,95.88"/><path d="M75.80,94.89L76.09,95.24L76.17,95.61L76.03,95.98L75.69,96.31L75.19,96.55L74.57,96.69L73.91,96.71L73.28,96.60L72.74,96.38L72.36,96.07L72.17,95.71L72.19,95.33L72.44,94.97L72.86,94.68"/></g><g style="stroke:#000000;stroke-width:0.529"><path d="M76.48,102.70L76.49,95.88L76.39,95.45L76.06,95.05L75.80,94.89L75.33,94.63L74.73,94.46L74.08,94.41L73.43,94.49L72.86,94.68L72.66,94.81L72.16,95.14L71.88,95.55L71.85,95.99L71.84,102.69"/></g></g><g id="Actor_.8"><g style="stroke:#000000;stroke-width:0.176"><path d="M62.88,110.12L63.10,110.54L63.55,110.90L64.17,111.15L64.91,111.28L65.67,111.26L66.39,111.10L66.97,110.82L67.37,110.44L67.52,110.01"/><path d="M63.90,108.81L63.47,109.10L63.23,109.45L63.20,109.83L63.39,110.20L63.78,110.51L64.31,110.73L64.95,110.83L65.61,110.82L66.22,110.68L66.73,110.44L67.07,110.11L67.20,109.74L67.12,109.36L66.83,109.02"/></g><g style="stroke:#000000;stroke-width:0.529"><path d="M67.51,116.82L67.52,110.01L67.43,109.57L67.09,109.18L66.83,109.02L66.36,108.75L65.77,108.59L65.11,108.54L64.47,108.62L63.90,108.81L63.69,108.93L63.20,109.27L62.92,109.68L62.88,110.12L62.87,116.82"/></g></g><g id="Actor_.9"><g style="stroke:#000000;stroke-width:0.176"><path d="M213.26,44.44L213.10,44.87L212.71,45.24L212.12,45.53L211.41,45.69L210.64,45.71L209.90,45.58L209.28,45.32L208.83,44.97L208.62,44.55"/><path d="M212.56,43.45L212.85,43.79L212.93,44.16L212.80,44.54L212.46,44.86L211.96,45.11L211.34,45.25L210.68,45.26L210.05,45.15L209.51,44.93L209.12,44.62L208.94,44.27L208.93,44.26L208.96,43.88L209.20,43.53L209.63,43.24"/></g><g style="stroke:#000000;stroke-width:0.529"><path d="M213.24,51.28L213.26,44.44L213.16,44.00L212.82,43.60L212.56,43.45L212.09,43.18L211.50,43.01L210.84,42.97L210.20,43.04L209.63,43.24L209.42,43.36L208.93,43.70L208.65,44.11L208.62,44.55L208.60,51.23"/></g></g><g id="Actor_.10"><g style="stroke:#000000;stroke-width:0.176"><path d="M53.92,124.25L54.14,124.67L54.58,125.03L55.21,125.28L55.94,125.41L56.71,125.39L57.42,125.23L58.01,124.94L58.40,124.57L58.56,124.14"/><path d="M54.93,122.94L54.51,123.23L54.27,123.58L54.24,123.96L54.43,124.32L54.81,124.63L55.35,124.85L55.98,124.96L56.64,124.95L57.26,124.81L57.77,124.56L58.10,124.24L58.24,123.87L58.16,123.49L57.87,123.15"/></g><g style="stroke:#000000;stroke-width:0.529"><path d="M58.55,130.95L58.56,124.14L58.47,123.70L58.13,123.30L57.87,123.15L57.40,122.88L56.81,122.71L56.15,122.67L55.50,122.74L54.93,122.94L54.73,123.06L54.23,123.40L53.95,123.81L53.92,124.25L53.91,130.95"/></g></g><g id="Actor_.11"><g style="stroke:#000000;stroke-width:0.176"><path d="M110.10,65.11L110.32,65.53L110.76,65.89L111.39,66.15L112.12,66.27L112.89,66.26L113.60,66.10L114.19,65.81L114.58,65.43L114.74,65.00"/><path d="M111.11,63.81L110.68,64.09L110.44,64.45L110.42,64.83L110.60,65.19L110.99,65.50L111.53,65.72L112.16,65.83L112.82,65.81L113.44,65.67L113.94,65.43L114.28,65.10L114.42,64.73L114.33,64.36L114.04,64.01"/></g><g style="stroke:#000000;stroke-width:0.529"><path d="M114.72,71.85L114.74,65.00L114.64,64.57L114.31,64.17L114.04,64.01L113.58,63.75L112.98,63.58L112.33,63.53L111.68,63.61L111.11,63.81L110.90,63.93L110.41,64.26L110.13,64.67L110.10,65.11L110.09,71.80"/></g></g><g id="Actor_.12"><g style="stroke:#000000;stroke-width:0.176"><path d="M183.99,49.69L184.20,50.11L184.65,50.47L185.27,50.72L186.01,50.85L186.78,50.83L187.49,50.67L188.08,50.39L188.47,50.01L188.63,49.58"/><path d="M187.93,48.59L188.22,48.93L188.31,49.31L188.17,49.68L187.83,50.00L187.33,50.25L186.71,50.39L186.05,50.40L185.42,50.29L184.88,50.07L184.49,49.77L184.30,49.40L184.33,49.02L184.48,48.81L184.57,48.67L185.00,48.38"/></g><g style="stroke:#000000;stroke-width:0.529"><path d="M188.61,56.42L188.63,49.58L188.53,49.14L188.19,48.75L187.93,48.59L187.47,48.32L186.87,48.15L186.21,48.11L185.57,48.19L185.00,48.38L184.79,48.50L184.30,48.84L184.02,49.25L183.99,49.69L183.97,56.37"/></g></g><g id="Actor_.13"><g style="stroke:#000000;stroke-width:0.176"><path d="M80.81,81.87L81.03,82.29L81.48,82.64L82.10,82.90L82.84,83.03L83.60,83.01L84.32,82.85L84.90,82.56L85.30,82.19L85.45,81.76"/><path d="M84.76,80.77L85.05,81.11L85.13,81.48L85.00,81.86L84.66,82.18L84.15,82.43L83.54,82.56L82.88,82.58L82.24,82.47L81.70,82.25L81.32,81.94L81.13,81.58L81.16,81.20L81.40,80.85L81.83,80.56"/><path d="M85.02,80.92L85.02,80.92"/></g><g style="stroke:#000000;stroke-width:0.529"><path d="M85.44,88.57L85.45,81.76L85.36,81.32L85.02,80.92L84.76,80.77L84.29,80.50L83.70,80.33L83.04,80.29L82.40,80.36L81.83,80.56L81.62,80.68L81.12,81.02L80.85,81.43L80.81,81.87L80.80,88.57"/></g></g><g id="Actor_.14"><g style="stroke:#000000;stroke-width:0.176"><path d="M9.73,189.85L10.41,189.52L19.77,194.90L27.70,190.35L28.05,190.54L34.41,201.23L44.34,185.58"/><path d="M10.41,189.52L24.84,166.78"/><path d="M19.77,202.05L19.77,194.90"/><path d="M24.09,184.35L24.18,184.48L24.24,184.95L24.02,185.40L23.56,185.78L22.98,186.03L22.91,186.06L22.14,186.21L21.30,186.19L20.55,186.04L19.92,185.74L19.49,185.35L19.30,184.89L19.38,184.43L19.45,184.35"/><path d="M31.56,172.58L31.65,172.71L31.71,173.17L31.49,173.62L31.03,174.01L30.38,174.29L29.61,174.43L28.79,174.43L28.02,174.27L27.39,173.97L26.96,173.58L26.77,173.12L26.85,172.66L26.92,172.57"/><path d="M27.70,190.35L27.70,197.51"/><path d="M28.05,190.54L40.99,170.15"/><path d="M34.41,201.23L34.41,201.35"/><path d="M44.86,184.76L48.65,178.79"/></g><g style="stroke:#000000;stroke-width:0.529"><path d="M44.40,185.61L34.41,201.35L27.70,197.51L19.77,202.05L9.73,196.29L9.73,189.85L24.02,167.32L24.84,166.78L26.93,167.21"/><path d="M44.92,184.79L48.65,178.91L48.65,178.79L40.99,170.15L31.57,168.18"/></g></g><g id="Actor_.15"><g style="stroke:#000000;stroke-width:0.176"><path d="M33.28,152.73L34.10,152.19L50.25,155.56L93.29,87.73"/><path d="M34.10,152.19L79.88,80.04"/><path d="M44.95,144.17L44.88,144.25L44.80,144.72L44.98,145.17L45.42,145.57L46.05,145.86L46.82,146.02L47.63,146.03L48.41,145.88L49.06,145.60L49.52,145.22L49.73,144.77L49.68,144.30L49.58,144.17"/><path d="M50.25,155.56L57.91,164.19L78.77,131.32"/><path d="M53.91,130.04L53.84,130.12L53.76,130.59L53.95,131.04L54.38,131.44L55.01,131.73L55.78,131.89L56.59,131.90L57.37,131.76L58.02,131.48L58.48,131.09L58.70,130.64L58.64,130.17L58.55,130.05"/><path d="M57.91,164.19L57.91,164.31"/><path d="M62.87,115.91L62.81,116.00L62.73,116.46L62.91,116.92L63.34,117.31L63.98,117.61L64.74,117.77L65.56,117.78L66.33,117.63L66.40,117.60L66.99,117.35L67.44,116.96L67.66,116.51L67.61,116.05L67.51,115.92"/><path d="M76.48,101.79L76.57,101.92L76.62,102.39L76.41,102.84L75.95,103.22L75.37,103.48L75.30,103.50L74.52,103.65L73.71,103.64L73.17,103.53L72.94,103.48L72.31,103.19L71.88,102.79L71.69,102.33L71.77,101.87L71.84,101.79"/><path d="M99.65,98.42L79.29,130.50"/><path d="M80.80,87.66L80.74,87.74L80.66,88.21L80.84,88.66L81.27,89.06L81.91,89.35L81.98,89.37L82.67,89.51L83.49,89.52L84.26,89.38L84.92,89.10L85.37,88.71L85.59,88.26L85.54,87.79L85.44,87.67"/></g><g style="stroke:#000000;stroke-width:0.529"><path d="M81.33,80.87L79.88,80.04L79.20,80.37L33.28,152.73L33.28,159.17L57.91,164.31L78.83,131.34"/><path d="M79.35,130.53L99.65,98.54L99.65,98.42L93.29,87.73L85.45,83.24"/></g></g><g id="Actor_.16"><g style="stroke:#000000;stroke-width:0.176"><path d="M98.33,69.50L111.74,77.19L229.99,52.51"/><path d="M110.09,70.93L109.96,71.16L109.97,71.62L110.25,72.06L110.77,72.43L111.46,72.67L112.25,72.78L113.06,72.73L113.80,72.54L114.39,72.22L114.77,71.80L114.88,71.34L114.73,70.88"/><path d="M111.74,77.19L118.10,87.88L189.18,73.04"/><path d="M118.10,87.88L118.10,88.00"/><path d="M134.72,65.79L134.59,66.01L134.60,66.48L134.88,66.92L135.40,67.28L136.09,67.53L136.88,67.64L137.69,67.59L138.43,67.40L139.02,67.07L139.40,66.66L139.51,66.20L139.36,65.74"/><path d="M159.35,60.65L159.22,60.87L159.23,61.34L159.51,61.78L160.02,62.14L160.72,62.39L161.51,62.50L162.32,62.45L163.06,62.25L163.65,61.93L164.02,61.52L164.14,61.05L163.99,60.59"/><path d="M183.98,55.51L183.85,55.73L183.86,56.20L184.14,56.64L184.65,57.00L185.35,57.25L186.14,57.36L186.95,57.31L187.69,57.11L188.28,56.79L188.65,56.37L188.77,55.91L188.62,55.45"/><path d="M190.12,72.84L232.78,63.94"/><path d="M208.61,50.36L208.48,50.59L208.49,51.06L208.77,51.50L209.28,51.86L209.98,52.11L210.77,52.21L211.58,52.17L212.32,51.97L212.91,51.65L213.28,51.23L213.40,50.77L213.25,50.31"/></g><g style="stroke:#000000;stroke-width:0.529"><path d="M110.09,67.05L98.33,69.50L97.65,69.83L97.65,76.27L118.10,88.00L189.22,73.15"/><path d="M134.72,61.91L114.73,66.08"/><path d="M139.36,60.94L159.35,56.76"/><path d="M163.99,55.80L183.98,51.62"/><path d="M208.61,46.48L188.62,50.65"/><path d="M213.25,45.51L224.11,43.25L229.99,52.51L232.78,63.94L232.78,64.06L190.16,72.96"/></g></g><g id="Actor_.17"><g style="stroke:#000000;stroke-width:0.176"><path d="M237.96,40.35L243.84,49.61L246.63,61.05L246.63,61.17"/><path d="M243.84,49.61L279.40,42.19L279.06,41.99L286.99,37.45"/><path d="M246.63,61.05L265.09,57.19"/><path d="M251.18,42.38L251.19,42.39L251.34,42.85L251.22,43.31L250.84,43.73L250.25,44.05L249.51,44.25L248.70,44.29L247.91,44.19L247.22,43.94L246.71,43.58L246.43,43.14L246.41,42.67L246.54,42.44"/><path d="M266.03,57.00L285.76,52.88"/><path d="M267.07,38.16L266.94,38.38L266.95,38.85L267.23,39.29L267.74,39.65L268.40,39.89L268.43,39.90L269.23,40.01L270.04,39.96L270.70,39.79L270.78,39.77L271.37,39.44L271.74,39.03L271.86,38.57L271.71,38.11L271.70,38.10"/><path d="M282.40,47.23L279.40,42.19"/></g><g style="stroke:#000000;stroke-width:0.529"><path d="M265.12,57.31L246.63,61.17L237.66,47.04L237.66,40.60L237.96,40.35L246.55,38.56"/><path d="M267.07,34.28L251.19,37.59"/><path d="M266.05,57.11L285.76,53.00L285.76,52.88L282.40,47.23L286.99,44.60L286.99,37.45L277.62,32.07L271.71,33.31"/></g></g><g><g><path style="stroke:#000000;stroke-width:0.125" d="M270.49,81.95L264.28,50.64"/></g><g><path style="fill:#000000" d="M265.03,50.64L265.03,50.57L265.02,50.50L265.00,50.43L264.97,50.36L264.94,50.29L264.91,50.23L264.86,50.17L264.81,50.11L264.76,50.06L264.70,50.02L264.63,49.98L264.57,49.95L264.50,49.93L264.43,49.91L264.35,49.90L264.28,49.89L264.21,49.90L264.14,49.91L264.06,49.93L263.99,49.95L263.93,49.98L263.86,50.02L263.81,50.06L263.75,50.11L263.70,50.17L263.66,50.23L263.62,50.29L263.59,50.36L263.56,50.43L263.55,50.50L263.54,50.57L263.53,50.64L263.54,50.72L263.55,50.79L263.56,50.86L263.59,50.93L263.62,51.00L263.66,51.06L263.70,51.12L263.75,51.17L263.81,51.22L263.86,51.27L263.93,51.31L263.99,51.34L264.06,51.36L264.14,51.38L264.21,51.39L264.28,51.39L264.35,51.39L264.43,51.38L264.50,51.36L264.57,51.34L264.63,51.31L264.70,51.27L264.76,51.22L264.81,51.17L264.86,51.12L264.91,51.06L264.94,51.00L264.97,50.93L265.00,50.86L265.02,50.79L265.03,50.72z"/></g><g><text xml:space="preserve" fill="#000000" stroke-width="0" x="263.96" y="87.38" font-size="3.77" opacity="1.00" font-family="Arial">KIT0317</text></g></g><g><g><path style="stroke:#000000;stroke-width:0.125" d="M205.63,119.94L188.42,69.34"/></g><g><path style="fill:#000000" d="M189.17,69.34L189.17,69.27L189.16,69.19L189.14,69.12L189.12,69.05L189.09,68.99L189.05,68.92L189.00,68.86L188.95,68.81L188.90,68.76L188.84,68.72L188.78,68.68L188.71,68.65L188.64,68.62L188.57,68.60L188.50,68.59L188.42,68.59L188.35,68.59L188.28,68.60L188.21,68.62L188.14,68.65L188.07,68.68L188.01,68.72L187.95,68.76L187.89,68.81L187.84,68.86L187.80,68.92L187.76,68.99L187.73,69.05L187.71,69.12L187.69,69.19L187.68,69.27L187.67,69.34L187.68,69.41L187.69,69.49L187.71,69.56L187.73,69.63L187.76,69.69L187.80,69.76L187.84,69.82L187.89,69.87L187.95,69.92L188.01,69.96L188.07,70.00L188.14,70.03L188.21,70.06L188.28,70.08L188.35,70.09L188.42,70.09L188.50,70.09L188.57,70.08L188.64,70.06L188.71,70.03L188.78,70.00L188.84,69.96L188.90,69.92L188.95,69.87L189.00,69.82L189.05,69.76L189.09,69.69L189.12,69.63L189.14,69.56L189.16,69.49L189.17,69.41z"/></g><g><text xml:space="preserve" fill="#000000" stroke-width="0" x="199.53" y="125.38" font-size="3.77" opacity="1.00" font-family="Arial">KIT0314</text></g></g><g><g><path style="stroke:#000000;stroke-width:0.125" d="M135.74,157.94L75.31,129.14"/></g><g><path style="fill:#000000" d="M76.06,129.14L76.05,129.06L76.04,128.99L76.02,128.92L76.00,128.85L75.97,128.78L75.93,128.72L75.89,128.66L75.84,128.61L75.78,128.56L75.72,128.51L75.66,128.47L75.59,128.44L75.52,128.42L75.45,128.40L75.38,128.39L75.31,128.39L75.23,128.39L75.16,128.40L75.09,128.42L75.02,128.44L74.95,128.47L74.89,128.51L74.83,128.56L74.78,128.61L74.73,128.66L74.68,128.72L74.65,128.78L74.61,128.85L74.59,128.92L74.57,128.99L74.56,129.06L74.56,129.14L74.56,129.21L74.57,129.28L74.59,129.35L74.61,129.42L74.65,129.49L74.68,129.55L74.73,129.61L74.78,129.67L74.83,129.72L74.89,129.76L74.95,129.80L75.02,129.83L75.09,129.85L75.16,129.87L75.23,129.88L75.31,129.89L75.38,129.88L75.45,129.87L75.52,129.85L75.59,129.83L75.66,129.80L75.72,129.76L75.78,129.72L75.84,129.67L75.89,129.61L75.93,129.55L75.97,129.49L76.00,129.42L76.02,129.35L76.04,129.28L76.05,129.21z"/></g><g><text xml:space="preserve" fill="#000000" stroke-width="0" x="135.10" y="163.37" font-size="3.77" opacity="1.00" font-family="Arial">KIT0315</text></g></g><g><g><path style="stroke:#000000;stroke-width:0.125" d="M70.39,195.94L39.75,183.15"/></g><g><path style="fill:#000000" d="M40.50,183.15L40.49,183.07L40.48,183.00L40.47,182.93L40.44,182.86L40.41,182.79L40.37,182.73L40.33,182.67L40.28,182.62L40.22,182.57L40.16,182.52L40.10,182.49L40.04,182.46L39.97,182.43L39.89,182.41L39.82,182.40L39.75,182.40L39.67,182.40L39.60,182.41L39.53,182.43L39.46,182.46L39.39,182.49L39.33,182.52L39.27,182.57L39.22,182.62L39.17,182.67L39.12,182.73L39.09,182.79L39.06,182.86L39.03,182.93L39.01,183.00L39.00,183.07L39.00,183.15L39.00,183.22L39.01,183.29L39.03,183.37L39.06,183.44L39.09,183.50L39.12,183.56L39.17,183.62L39.22,183.68L39.27,183.73L39.33,183.77L39.39,183.81L39.46,183.84L39.53,183.87L39.60,183.88L39.67,183.89L39.75,183.90L39.82,183.89L39.89,183.88L39.97,183.87L40.04,183.84L40.10,183.81L40.16,183.77L40.22,183.73L40.28,183.68L40.33,183.62L40.37,183.56L40.41,183.50L40.44,183.44L40.47,183.37L40.48,183.29L40.49,183.22z"/></g><g><text xml:space="preserve" fill="#000000" stroke-width="0" x="70.67" y="201.37" font-size="3.77" opacity="1.00" font-family="Arial">KIT0316</text></g></g><g/><g><g/><g><text xml:space="preserve" fill="#000000" stroke-width="0" x="7.66" y="12.43" font-size="4.53" opacity="1.00" font-family="Arial" font-weight="bold">BPA27441</text></g></g><g id="paperID" visibility="hidden" opacity="0.00" transform="scale(0.000100)"><path style="stroke:#000000;stroke-width:0.500;fill:#e6e6e6;fill-rule:evenodd" d="M-2000.00,-2000.00L2297.00,-2000.00L2297.00,2210.00L-2000.00,2210.00zM0.00,0.00L297.00,0.00L297.00,210.00L0.00,210.00z"/><path style="fill:#000000;fill-opacity:0.118" d="M3.00,210.00L297.00,210.00L297.00,3.00L300.00,3.00L300.00,213.00L3.00,213.00z"/></g><g id="hotspot.0" onmouseover="ShowHotSpot(evt,'0')" onmouseout="HideHotSpot(evt,'0')" onmousemove="ShowToolTip(evt,'0',&quot;Hotspot 1&quot;)" opacity="0"><path style="fill:#00ff00;fill-rule:evenodd" d="M270.69,31.08L271.62,31.81L271.72,33.17L272.66,33.11L277.06,32.19L277.86,32.17L286.84,37.33L286.84,44.73L282.61,47.13L282.60,47.61L285.76,52.93L265.84,57.13L265.62,57.44L265.36,57.30L249.03,60.70L246.59,61.06L237.82,47.25L237.83,40.51L238.31,40.25L246.24,38.64L246.46,38.48L246.63,36.09L246.94,35.66L248.04,35.11L249.58,35.12L250.13,35.31L251.06,36.03L251.17,37.58L267.02,34.27L267.21,31.70L268.29,30.95L270.33,30.89zM265.79,58.56L265.62,57.44L265.72,57.52zM265.98,59.47L265.79,58.56L265.90,58.63zM266.16,60.39L265.98,59.47L266.08,59.55zM266.35,61.31L266.16,60.39L266.27,60.47zM266.53,62.23L266.35,61.31L266.45,61.39zM266.71,63.33L266.53,62.23L266.63,62.31zM266.90,64.25L266.71,63.33L266.82,63.41zM267.08,65.16L266.90,64.25L267.00,64.32zM267.26,66.08L267.08,65.16L267.19,65.24zM267.45,67.00L267.26,66.08L267.37,66.16zM267.63,67.92L267.45,67.00L267.55,67.08zM267.81,69.02L267.63,67.92L267.74,68.00zM268.00,69.94L267.81,69.02L267.92,69.10zM268.18,70.85L268.00,69.94L268.10,70.01zM268.36,71.77L268.18,70.85L268.29,70.93zM268.55,72.69L268.36,71.77L268.47,71.85zM268.73,73.61L268.55,72.69L268.65,72.77zM268.92,74.71L268.73,73.61L268.84,73.69zM269.10,75.63L268.92,74.71L269.02,74.79zM269.28,76.54L269.10,75.63L269.20,75.70zM269.47,77.46L269.28,76.54L269.39,76.62zM269.65,78.38L269.47,77.46L269.57,77.54zM269.83,79.48L269.65,78.38L269.75,78.46zM270.02,80.40L269.83,79.48L269.94,79.56zM270.20,81.32L270.02,80.40L270.12,80.48zM270.38,82.23L270.20,81.32L270.31,81.39zM270.51,82.92L270.38,82.23L270.49,82.31zM274.01,85.23L274.01,87.15L273.58,87.45L272.70,87.45L272.34,87.25L272.28,86.69L272.68,86.70L272.85,86.94L273.44,86.95L273.63,86.50L273.25,86.15L272.81,85.95L273.48,85.48L273.48,85.22L273.27,85.02L273.01,85.02L272.69,85.49L272.34,85.43L272.33,84.94L272.64,84.67L273.64,84.67zM271.64,84.83L271.98,85.60L271.80,87.14L271.38,87.45L270.51,87.44L270.13,86.90L270.13,85.10L270.43,84.67L271.44,84.67zM276.47,84.91L276.47,84.70L278.41,84.68L278.43,84.91L277.84,85.84L277.29,87.51L276.87,87.51L277.10,86.20L277.66,85.03zM267.66,84.91L267.66,84.70L269.99,84.70L269.99,84.91L269.15,85.04L269.03,87.52L268.62,87.52L268.50,85.04zM275.02,85.59L274.66,85.67L274.73,85.11L275.42,84.65L275.64,84.66L275.63,87.53L275.42,87.53L275.29,85.41zM264.82,85.68L265.85,84.67L266.47,84.67L265.48,85.77L266.50,87.27L266.47,87.51L265.92,87.44L265.16,86.33L264.82,86.37L264.63,87.52L264.21,87.52L264.21,84.66L264.63,84.66zM267.19,87.52L266.78,87.52L266.78,84.66L267.19,84.66zM271.44,85.40L271.44,86.59L271.23,86.95L270.68,86.90L270.68,85.10L271.23,85.04z"/></g><g id="hotspot.1" onmouseover="ShowHotSpot(evt,'1')" onmouseout="HideHotSpot(evt,'1')" onmousemove="ShowToolTip(evt,'1',&quot;Hotspot 1&quot;)" opacity="0"><path style="fill:#00ff00;fill-rule:evenodd" d="M212.50,43.38L213.25,44.29L213.36,45.48L223.27,43.38L224.25,43.38L229.93,52.38L231.58,58.99L232.70,63.99L232.47,64.15L190.96,72.75L189.87,73.12L189.79,73.42L189.54,73.12L119.02,87.81L117.77,87.81L97.72,76.30L97.72,69.82L98.44,69.44L110.02,67.07L110.24,64.54L110.56,64.12L111.85,63.57L113.02,63.57L114.30,64.12L114.67,64.67L114.79,66.04L134.62,61.93L134.84,59.40L135.15,58.98L136.44,58.43L137.61,58.43L138.53,58.80L139.27,59.34L139.39,60.90L159.22,56.79L159.46,54.28L160.49,53.48L161.04,53.29L162.20,53.30L162.94,53.48L163.87,54.20L163.98,55.76L183.82,51.65L184.05,49.14L185.09,48.34L185.64,48.15L186.99,48.15L187.53,48.34L188.46,49.07L188.76,50.62L208.41,46.51L208.76,43.93L209.69,43.20L210.23,43.01L211.59,43.01zM189.99,73.98L189.79,73.42L189.90,73.49zM190.17,74.53L189.99,73.98L190.09,74.05zM190.35,75.08L190.17,74.53L190.28,74.60zM190.54,75.63L190.35,75.08L190.46,75.15zM190.72,76.18L190.54,75.63L190.64,75.70zM190.90,76.73L190.72,76.18L190.83,76.25zM191.09,77.28L190.90,76.73L191.01,76.80zM191.27,77.83L191.09,77.28L191.19,77.35zM191.45,78.38L191.27,77.83L191.38,77.91zM191.64,78.93L191.45,78.38L191.56,78.46zM191.82,79.48L191.64,78.93L191.74,79.01zM192.00,80.03L191.82,79.48L191.93,79.56zM192.19,80.58L192.00,80.03L192.11,80.11zM192.37,81.13L192.19,80.58L192.30,80.66zM192.55,81.68L192.37,81.13L192.48,81.21zM192.74,82.23L192.55,81.68L192.66,81.76zM192.92,82.79L192.74,82.23L192.85,82.31zM193.11,83.34L192.92,82.79L193.03,82.86zM193.29,83.89L193.11,83.34L193.21,83.41zM193.47,84.44L193.29,83.89L193.40,83.96zM193.66,84.99L193.47,84.44L193.58,84.51zM193.84,85.54L193.66,84.99L193.76,85.06zM194.02,86.09L193.84,85.54L193.95,85.61zM194.21,86.64L194.02,86.09L194.13,86.17zM194.39,87.19L194.21,86.64L194.31,86.72zM194.57,87.74L194.39,87.19L194.50,87.27zM194.76,88.29L194.57,87.74L194.68,87.82zM194.94,88.84L194.76,88.29L194.86,88.37zM195.12,89.39L194.94,88.84L195.05,88.92zM195.31,89.94L195.12,89.39L195.23,89.47zM195.49,90.50L195.31,89.94L195.42,90.02zM195.67,91.05L195.49,90.50L195.60,90.57zM195.86,91.60L195.67,91.05L195.78,91.12zM196.04,92.15L195.86,91.60L195.97,91.67zM196.23,92.70L196.04,92.15L196.15,92.22zM196.41,93.25L196.23,92.70L196.33,92.77zM196.59,93.80L196.41,93.25L196.52,93.32zM196.78,94.35L196.59,93.80L196.70,93.87zM196.96,94.90L196.78,94.35L196.88,94.43zM197.14,95.45L196.96,94.90L197.07,94.98zM197.33,96.00L197.14,95.45L197.25,95.53zM197.51,96.55L197.33,96.00L197.43,96.08zM197.69,97.10L197.51,96.55L197.62,96.63zM197.88,97.65L197.69,97.10L197.80,97.18zM198.06,98.20L197.88,97.65L197.99,97.73zM198.24,98.76L198.06,98.20L198.17,98.28zM198.43,99.31L198.24,98.76L198.35,98.83zM198.61,99.86L198.43,99.31L198.54,99.38zM198.80,100.41L198.61,99.86L198.72,99.93zM198.98,100.96L198.80,100.41L198.90,100.48zM199.16,101.51L198.98,100.96L199.09,101.03zM199.35,102.06L199.16,101.51L199.27,101.58zM199.53,102.61L199.35,102.06L199.45,102.14zM199.71,103.16L199.53,102.61L199.64,102.69zM199.90,103.71L199.71,103.16L199.82,103.24zM200.08,104.26L199.90,103.71L200.00,103.79zM200.26,104.81L200.08,104.26L200.19,104.34zM200.45,105.36L200.26,104.81L200.37,104.89zM200.63,105.91L200.45,105.36L200.56,105.44zM200.81,106.46L200.63,105.91L200.74,105.99zM201.00,107.02L200.81,106.46L200.92,106.54zM201.18,107.57L201.00,107.02L201.11,107.09zM201.37,108.12L201.18,107.57L201.29,107.64zM201.55,108.67L201.37,108.12L201.47,108.19zM201.73,109.22L201.55,108.67L201.66,108.74zM201.92,109.77L201.73,109.22L201.84,109.29zM202.10,110.32L201.92,109.77L202.02,109.84zM202.28,110.87L202.10,110.32L202.21,110.40zM202.47,111.42L202.28,110.87L202.39,110.95zM202.65,111.97L202.47,111.42L202.57,111.50zM202.83,112.52L202.65,111.97L202.76,112.05zM203.02,113.07L202.83,112.52L202.94,112.60zM203.20,113.62L203.02,113.07L203.13,113.15zM203.38,114.17L203.20,113.62L203.31,113.70zM203.57,114.72L203.38,114.17L203.49,114.25zM203.75,115.28L203.57,114.72L203.68,114.80zM203.94,115.83L203.75,115.28L203.86,115.35zM204.12,116.38L203.94,115.83L204.04,115.90zM204.30,116.93L204.12,116.38L204.23,116.45zM204.49,117.48L204.30,116.93L204.41,117.00zM204.67,118.03L204.49,117.48L204.59,117.55zM204.85,118.58L204.67,118.03L204.78,118.10zM205.04,119.13L204.85,118.58L204.96,118.66zM205.22,119.68L205.04,119.13L205.14,119.21zM205.41,120.23L205.22,119.68L205.33,119.76zM205.54,120.72L205.41,120.23L205.52,120.33zM209.58,123.23L209.58,125.15L209.15,125.45L208.27,125.45L207.91,125.24L207.85,124.69L208.25,124.70L208.42,124.93L209.01,124.94L209.20,124.49L208.82,124.15L208.38,123.95L209.05,123.48L209.05,123.22L208.84,123.01L208.58,123.01L208.26,123.48L207.91,123.43L207.90,122.93L208.21,122.67L209.21,122.66zM207.22,122.83L207.55,123.59L207.37,125.14L206.95,125.45L206.08,125.43L205.70,124.90L205.70,123.09L206.00,122.66L207.01,122.67zM203.23,122.91L203.23,122.70L205.56,122.70L205.56,122.91L204.72,123.04L204.60,125.52L204.19,125.52L204.07,123.04zM210.59,123.58L210.23,123.67L210.30,123.11L210.99,122.65L211.21,122.66L211.20,125.52L210.99,125.52L210.86,123.41zM200.39,123.68L201.42,122.66L202.04,122.66L201.05,123.76L202.07,125.26L202.04,125.50L201.49,125.44L200.73,124.33L200.39,124.37L200.20,125.52L199.78,125.52L199.78,122.66L200.20,122.66zM213.74,124.19L213.97,124.36L213.97,124.73L213.74,124.90L213.59,125.51L213.19,125.51L213.06,124.88L212.06,124.76L212.15,124.03L213.18,122.65L213.60,122.66zM202.76,125.52L202.35,125.52L202.35,122.66L202.76,122.66zM207.01,123.40L207.01,124.59L206.80,124.95L206.25,124.90L206.25,123.09L206.80,123.04zM213.04,124.22L212.61,124.16L213.07,123.60z"/></g><g id="hotspot.2" onmouseover="ShowHotSpot(evt,'2')" onmouseout="HideHotSpot(evt,'2')" onmousemove="ShowToolTip(evt,'2',&quot;Hotspot 1&quot;)" opacity="0"><path style="fill:#00ff00;fill-rule:evenodd" d="M31.15,165.81L31.52,166.36L31.68,168.21L41.06,170.22L48.43,178.46L48.60,178.91L44.51,185.49L34.45,201.29L27.84,197.55L27.59,197.55L19.88,202.00L19.60,201.98L9.79,196.35L9.86,189.57L24.18,167.17L24.65,166.91L25.64,166.92L26.92,167.18L27.10,166.06L28.38,165.31L29.86,165.26zM84.96,198.85L84.93,199.30L84.59,199.23L84.37,199.02L83.96,199.03L83.74,199.40L84.58,199.58L84.92,199.78L85.13,200.13L85.12,200.76L84.68,201.43L83.81,201.44L83.26,200.89L83.26,199.27L83.75,198.66L84.77,198.65zM80.72,199.22L80.72,201.14L80.29,201.44L79.41,201.44L79.05,201.24L78.99,200.68L79.39,200.69L79.57,200.93L80.15,200.94L80.34,200.49L79.96,200.14L79.52,199.94L80.19,199.48L80.19,199.21L79.98,199.01L79.72,199.01L79.40,199.48L79.05,199.42L79.04,198.93L79.35,198.66L80.36,198.66zM78.36,198.82L78.69,199.59L78.51,201.13L78.09,201.44L77.22,201.43L76.84,200.89L76.84,199.09L77.14,198.66L78.15,198.66zM74.37,198.90L74.37,198.69L76.70,198.69L76.70,198.90L75.86,199.03L75.74,201.51L75.33,201.51L75.21,199.03zM81.73,199.58L81.37,199.66L81.44,199.10L82.13,198.64L82.35,198.65L82.34,201.52L82.13,201.52L82.00,199.40zM71.53,199.67L72.56,198.66L73.18,198.66L72.19,199.76L73.21,201.26L73.18,201.50L72.63,201.43L71.88,200.32L71.53,200.36L71.34,201.51L70.92,201.51L70.92,198.65L71.34,198.65zM73.91,201.51L73.49,201.51L73.49,198.65L73.91,198.65zM78.15,199.39L78.15,200.58L77.94,200.94L77.40,200.89L77.40,199.09L77.94,199.03zM84.58,200.32L84.51,200.88L83.82,200.88L83.83,200.20L84.21,199.95z"/></g><g id="hotspot.3" onmouseover="ShowHotSpot(evt,'3')" onmouseout="HideHotSpot(evt,'3')" onmousemove="ShowToolTip(evt,'3',&quot;Hotspot 1&quot;)" opacity="0"><path style="fill:#00ff00;fill-rule:evenodd" d="M80.87,80.66L81.76,80.65L82.86,80.27L84.20,80.45L85.14,80.98L85.48,81.74L85.66,83.40L93.36,87.82L98.35,96.23L99.61,98.53L79.41,130.45L79.22,130.93L79.01,131.12L58.07,164.16L57.20,164.17L33.50,159.23L33.29,159.08L33.33,152.65L79.25,80.35L79.97,80.08zM145.15,161.23L145.15,163.14L144.72,163.44L143.84,163.44L143.48,163.24L143.42,162.68L143.82,162.69L144.00,162.93L144.58,162.94L144.77,162.49L144.39,162.15L143.95,161.95L144.62,161.48L144.62,161.21L144.41,161.01L144.15,161.01L143.83,161.48L143.48,161.42L143.47,160.93L143.78,160.67L144.79,160.66zM142.79,160.82L143.12,161.59L142.94,163.14L142.52,163.44L141.65,163.43L141.27,162.89L141.27,161.09L141.57,160.66L142.58,160.67zM138.80,160.91L138.80,160.69L141.13,160.69L141.13,160.91L140.29,161.04L140.17,163.51L139.76,163.51L139.64,161.04zM149.39,160.91L148.35,161.05L148.36,161.46L149.19,161.58L149.55,162.14L149.49,162.89L148.94,163.44L148.05,163.45L147.67,163.07L147.64,162.68L148.06,162.67L148.27,162.87L148.93,162.89L149.02,162.13L148.82,161.93L148.38,161.94L148.17,162.14L147.70,162.16L147.86,160.89L148.01,160.68L149.39,160.69zM146.16,161.58L145.80,161.67L145.87,161.11L146.56,160.65L146.78,160.66L146.77,163.52L146.56,163.52L146.43,161.41zM135.96,161.68L136.99,160.66L137.61,160.66L136.62,161.76L137.64,163.26L137.61,163.50L137.06,163.44L136.31,162.32L135.96,162.36L135.77,163.51L135.35,163.51L135.35,160.65L135.77,160.65zM138.34,163.51L137.92,163.51L137.92,160.65L138.34,160.65zM142.58,161.40L142.58,162.59L142.37,162.95L141.83,162.89L141.83,161.09L142.37,161.04z"/></g></g></svg>
