<?xml version="1.0" encoding="UTF-8" standalone="no"?>
<svg xmlns="http://www.w3.org/2000/svg" xmlns:xlink="http://www.w3.org/1999/xlink" width="297.000mm" height="210.000mm" viewBox="0.000000 0.000000 297.000000 210.000000" stroke-linejoin="round" stroke-linecap="round" fill="none" fill-rule="evenodd"><desc>Composer Export</desc><script type="text/ecmascript"><![CDATA[
if(typeof(top) != "undefined")
{
	top.ShowPaper = ShowPaper;
}
function ShowPaper()
{
  var svgDocument = getDocument();
  var paper = svgDocument.getElementById("paperID");
  if(paper)
  {
    paper.setAttribute("transform","scale(1)");
    paper.setAttribute("opacity","1");
    paper.setAttribute("visibility","visible");
  }
  var svg = svgDocument.getRootElement();
  if(svg)
  {
    svg.setAttribute("width","307.000mm");
    svg.setAttribute("height","220.000mm");
    svg.setAttribute("viewBox","-5.000000 -5.000000 307.000000 220.000000");
  }
}
]]></script><defs/><g><path style="fill:#000000;fill-opacity:0.098;fill-rule:evenodd" d="M199.51,35.48L199.51,141.85L199.28,142.49L198.39,143.51L106.88,195.99L106.23,195.99L105.83,195.63L106.05,88.69L106.77,87.66L109.13,86.20L198.57,34.96L199.17,34.95zM191.69,48.86L191.69,137.33L191.47,137.97L190.75,138.82L165.83,153.15L114.70,182.44L114.06,182.43L113.88,182.25L113.87,93.20L114.59,92.18L190.59,48.50L190.99,48.50zM160.93,21.60L161.14,21.95L161.15,22.33L160.95,22.33L160.58,21.96L160.60,21.40zM160.62,23.49L160.21,23.69L159.57,23.68L159.36,23.33L159.31,22.99L160.07,23.00zM163.56,23.82L163.57,24.44L163.32,24.73L162.80,24.79L162.83,24.43L163.40,23.66zM133.01,37.93L132.99,38.34L132.65,38.28L132.43,37.92L132.40,37.56L132.62,37.55zM132.30,39.47L132.13,39.72L131.59,39.85L131.18,39.47L131.37,39.14L131.95,39.12zM135.42,40.60L135.18,40.88L134.66,40.94L134.69,40.58L135.21,39.81L135.40,39.81zM213.24,51.81L213.24,52.40L212.88,53.09L212.31,53.57L211.68,53.55L211.13,53.18L211.13,52.87L211.60,52.87L212.12,51.81L212.65,51.45L212.88,51.45zM104.88,53.88L104.84,54.49L104.51,54.44L104.29,53.70L104.67,53.69zM161.03,54.17L161.12,54.99L159.91,55.69L159.33,55.88L159.37,54.99L160.18,54.06zM104.31,55.65L104.14,55.82L103.22,55.87L103.22,55.29L103.97,55.30zM107.47,56.13L107.47,56.39L107.04,57.04L106.56,57.05L106.34,56.83L106.95,56.23L107.31,55.97zM184.99,67.71L185.10,68.55L184.92,69.07L184.50,69.52L183.69,69.73L182.99,69.15L182.96,68.99L183.46,69.02L183.98,67.96L184.52,67.60zM76.73,70.03L76.73,70.63L76.36,70.40L76.30,69.87L76.53,69.83zM75.83,71.46L76.17,71.80L76.00,71.97L75.14,71.98L75.14,71.26zM78.41,72.83L79.09,72.10L79.31,72.12L79.33,72.72L78.89,73.19L78.57,73.24zM156.97,83.93L156.96,84.88L156.26,85.74L155.58,85.86L154.86,85.32L154.86,84.99L155.05,85.15L155.32,85.18L155.84,84.11L156.38,83.76L156.79,83.74zM213.24,84.47L213.24,85.05L213.06,85.40L212.47,86.02L211.65,86.04L210.95,85.48L210.92,85.31L211.49,85.56L211.96,84.48L212.90,83.94zM160.98,86.69L161.29,87.59L163.55,88.81L163.56,89.57L163.32,89.86L162.68,89.87L160.60,88.62L160.02,88.83L159.57,88.82L159.38,88.64L159.38,87.64L159.91,86.79L160.37,86.53L160.77,86.53zM129.01,100.27L128.65,101.38L128.08,101.85L127.24,101.85L126.89,101.65L126.84,101.33L127.44,101.04L127.78,100.17L128.24,99.91L128.64,99.91zM76.72,102.54L76.70,103.13L76.50,103.13L76.14,102.33zM75.93,104.02L76.02,104.49L75.80,104.64L75.31,104.65L75.09,104.49L75.08,103.92zM79.33,104.76L79.33,105.20L79.08,105.66L78.37,105.71L78.94,104.80L79.17,104.60zM213.24,116.94L213.24,117.53L212.64,118.51L211.83,118.70L211.13,118.32L211.13,118.00L211.59,118.00L211.96,116.96L212.88,116.58zM160.93,119.21L161.30,120.07L163.57,121.45L163.57,122.23L163.39,122.41L162.86,122.52L160.78,121.28L159.56,121.30L159.38,121.12L159.38,120.12L159.84,119.37L160.62,119.03zM128.98,132.90L128.65,133.86L127.89,134.51L127.42,134.51L126.72,133.94L126.68,133.77L127.25,133.86L127.72,132.76L128.65,132.38zM76.73,135.16L76.73,135.76L76.36,135.53L76.30,135.00L76.53,134.96zM132.84,135.32L133.16,136.23L134.72,137.09L135.43,137.60L135.37,138.49L134.54,138.49L132.64,137.43L131.42,137.45L131.25,137.27L131.23,136.27L131.93,135.41L132.64,135.17zM75.82,136.60L76.17,136.93L76.00,137.10L75.14,137.11L75.09,136.39zM78.41,137.96L79.09,137.23L79.31,137.25L79.33,137.86L78.89,138.32L78.57,138.37zM213.25,149.60L213.05,150.53L212.47,151.16L211.65,151.18L210.95,150.61L210.92,150.44L211.49,150.70L211.96,149.61L212.90,149.07zM103.09,152.60L103.74,151.50L104.10,151.31L104.50,151.32L104.51,153.46L103.92,153.61L103.45,153.62L103.09,153.26zM128.98,165.38L128.65,166.51L128.08,166.98L127.26,166.96L126.83,166.65L126.84,166.47L127.24,166.31L127.88,165.23L128.48,164.88zM185.10,165.57L185.10,166.34L184.92,166.68L184.17,167.33L183.54,167.31L183.00,166.95L183.00,166.63L183.46,166.63L183.71,166.34L183.87,165.63L184.76,165.23zM76.74,167.64L76.70,168.26L76.50,168.26L76.14,167.46L76.54,167.46zM75.93,169.15L76.02,169.62L75.31,169.78L75.09,169.63L75.08,169.05zM79.34,169.90L79.33,170.33L79.08,170.79L78.56,170.86L78.80,169.98L79.17,169.73zM156.97,181.72L156.96,182.49L156.78,182.83L156.03,183.49L155.56,183.49L154.85,182.92L154.82,182.75L155.38,182.84L155.74,181.79L156.56,181.36L156.77,181.38zM105.39,195.27L105.01,195.27L104.96,195.08L105.20,195.08zM128.98,198.04L128.65,198.99L127.89,199.65L127.44,199.62L126.71,199.07L126.68,198.91L127.25,198.99L127.72,197.89L128.65,197.51zM195.41,42.03L195.11,42.95L194.40,43.02L194.46,42.31L194.74,41.90L195.34,41.91zM212.71,52.93L212.12,52.92L212.18,52.21L212.70,52.15zM167.22,58.04L167.21,58.65L166.97,59.11L166.27,59.17L166.32,58.46L166.85,57.93L167.06,57.88zM184.58,68.28L184.51,69.20L184.21,69.22L183.98,69.06L184.03,68.54L184.42,68.12zM139.08,74.20L139.07,74.80L138.83,75.26L138.18,75.27L138.18,74.62L138.66,74.02L138.90,74.01zM195.36,74.55L195.35,75.15L194.92,75.62L194.47,75.63L194.47,74.80L194.93,74.37L195.17,74.36zM156.63,84.45L156.55,85.18L155.89,85.17L155.89,84.70L156.20,84.27L156.44,84.26zM212.88,85.16L212.65,85.51L212.13,85.58L212.18,84.87L212.49,84.61L212.69,84.63zM111.13,90.36L111.11,90.60L110.69,91.42L110.18,91.48L110.01,91.05L110.41,90.25L110.94,90.17zM128.49,100.60L128.41,101.33L127.77,101.32L127.75,100.85L128.06,100.42L128.30,100.41zM195.41,107.17L195.11,108.09L194.40,108.15L194.46,107.44L194.74,107.03L195.34,107.04zM212.72,117.26L212.65,118.18L212.35,118.20L212.13,118.04L212.19,117.35L212.56,117.11zM110.96,122.81L111.12,123.26L110.69,123.90L110.04,123.90L110.04,123.43L110.77,122.67zM128.65,133.25L128.46,133.45L128.42,133.80L127.76,133.80L127.75,133.50L128.06,133.07L128.50,133.08zM195.36,139.68L195.35,140.29L194.92,140.75L194.47,140.76L194.47,139.94L194.93,139.50L195.17,139.49zM212.88,150.29L212.65,150.64L212.13,150.71L212.18,150.00L212.49,149.74L212.69,149.77zM111.13,155.49L111.11,155.73L110.77,156.44L110.18,156.61L110.01,156.19L110.41,155.38L110.94,155.31zM166.34,156.09L166.80,155.65L167.20,155.66L167.21,156.44L166.78,156.90L166.33,156.91zM128.50,165.74L128.43,166.30L128.14,166.49L127.77,166.45L127.75,165.98L128.06,165.55L128.30,165.55zM184.70,166.62L183.98,166.68L184.04,166.16L184.35,165.89L184.55,165.92zM138.18,172.41L138.49,171.83L139.06,171.82L139.07,172.60L138.83,172.88L138.18,172.88zM156.56,182.77L155.84,182.83L155.90,182.31L156.20,182.05L156.60,182.07zM111.10,187.99L111.12,188.38L110.69,189.03L110.04,189.03L110.04,188.56L110.57,187.84L110.77,187.81zM128.64,198.39L128.46,198.58L128.42,198.93L127.76,198.93L127.77,198.48L128.31,198.05z"/><g id="Actor_.0"><g style="stroke:#000000;stroke-width:0.176;stroke-opacity:0.50"><path d="M91.47,183.94L104.63,176.39"/><path d="M91.47,79.93L92.25,80.38L92.25,130.98"/><path d="M92.25,184.38L92.25,131.94"/><path d="M92.25,80.38L182.03,28.88"/><path d="M95.30,178.57L95.24,178.19L95.07,177.92L94.80,177.79L94.47,177.81L94.11,177.98L93.76,178.29L93.45,178.69L93.23,179.15L93.11,179.62L93.11,180.04L93.23,180.37L93.45,180.57L93.76,180.63L94.11,180.53"/><path d="M94.11,147.97L93.76,148.07L93.45,148.01L93.23,147.81L93.11,147.48L93.11,147.06L93.23,146.59L93.45,146.13L93.76,145.73L94.11,145.43L94.47,145.25L94.80,145.23L95.07,145.36L95.24,145.63L95.30,146.01"/><path d="M95.30,113.46L95.24,113.08L95.07,112.80L94.80,112.67L94.47,112.69L94.11,112.87L93.76,113.17L93.45,113.58L93.23,114.04L93.11,114.50L93.11,114.92L93.23,115.25L93.45,115.45L93.76,115.51L94.11,115.41"/><path d="M94.11,82.85L93.76,82.95L93.45,82.90L93.23,82.69L93.11,82.36L93.11,81.94L93.23,81.48L93.45,81.02L93.76,80.61L94.11,80.31L94.47,80.14L94.80,80.11L95.07,80.25L95.24,80.52L95.30,80.90"/><path d="M94.63,180.29L94.77,180.32L94.94,180.27L95.11,180.16L95.26,179.99L95.39,179.78L95.47,179.57L95.50,179.35L95.47,179.18L95.39,179.05"/><path d="M95.19,178.94L95.07,178.88L94.91,178.89L94.74,178.97L94.58,179.11L94.44,179.30L94.33,179.51L94.28,179.73L94.28,179.93L94.33,180.08L94.44,180.18"/><path d="M94.74,180.16L94.91,180.05L95.07,179.88L95.19,179.67L95.27,179.45L95.30,179.24"/><path d="M94.63,147.73L94.77,147.76L94.94,147.71L95.11,147.60L95.26,147.43L95.39,147.23L95.47,147.01L95.50,146.80L95.47,146.62L95.39,146.49"/><path d="M94.44,147.62L94.33,147.52L94.28,147.37L94.28,147.17L94.33,146.96L94.44,146.74L94.58,146.55L94.74,146.41L94.91,146.33L95.07,146.32L95.19,146.38"/><path d="M94.74,147.60L94.91,147.49L95.07,147.32L95.19,147.11L95.27,146.90L95.30,146.69"/><path d="M94.63,115.17L94.77,115.20L94.94,115.15L95.11,115.04L95.26,114.87L95.39,114.67L95.47,114.45L95.50,114.24L95.47,114.06L95.39,113.94"/><path d="M95.30,114.13L95.27,114.34L95.19,114.56L95.07,114.76L94.91,114.93L94.74,115.04"/><path d="M94.44,115.06L94.33,114.97L94.28,114.81L94.28,114.65L94.33,114.40L94.44,114.18L94.58,114.00L94.74,113.85L94.91,113.77L95.07,113.76L95.19,113.82"/><path d="M95.39,81.38L95.47,81.50L95.50,81.68L95.47,81.89L95.39,82.11L95.26,82.31L95.11,82.48L94.94,82.60L94.77,82.64L94.63,82.62"/><path d="M95.30,81.57L95.27,81.78L95.19,82.00L95.07,82.20L94.91,82.37L94.74,82.48"/><path d="M94.44,82.50L94.33,82.41L94.28,82.25L94.28,82.06L94.33,81.84L94.44,81.63L94.58,81.44L94.74,81.30L94.91,81.21L95.07,81.20L95.19,81.27"/><path d="M181.25,53.99L181.25,132.44L113.68,171.19"/><path d="M123.41,162.45L123.34,162.07L123.17,161.80L122.91,161.67L122.57,161.69L122.21,161.86L121.86,162.17L121.56,162.57L121.34,163.03L121.22,163.50L121.22,163.92L121.34,164.25L121.56,164.45L121.86,164.51L122.21,164.41"/><path d="M123.41,64.78L123.34,64.40L123.17,64.13L122.91,63.99L122.57,64.02L122.21,64.19L121.86,64.49L121.56,64.90L121.34,65.36L121.29,65.52L121.22,65.84L121.22,66.24L121.34,66.57L121.56,66.78L121.86,66.83L122.21,66.73"/><path d="M123.30,162.82L123.17,162.76L123.02,162.77L122.85,162.85L122.68,162.99L122.54,163.18L122.44,163.39L122.38,163.61L122.38,163.81L122.44,163.96L122.54,164.06"/><path d="M122.54,66.38L122.44,66.29L122.38,66.13L122.38,65.94L122.44,65.72L122.54,65.51L122.68,65.32L122.85,65.17L123.02,65.09L123.17,65.08L123.30,65.15"/><path d="M122.74,164.17L122.88,164.20L123.04,164.15L123.21,164.04L123.37,163.87L123.49,163.66L123.57,163.45L123.60,163.23L123.57,163.06L123.49,162.93"/><path d="M122.85,164.04L123.02,163.93L123.17,163.76L123.30,163.55L123.38,163.33L123.41,163.12"/><path d="M122.74,66.50L122.88,66.52L123.04,66.48L123.21,66.36L123.37,66.19L123.49,65.99L123.57,65.77L123.60,65.56L123.57,65.38L123.49,65.26"/><path d="M123.41,65.45L123.38,65.66L123.30,65.88L123.17,66.08L123.02,66.25L122.85,66.36"/><path d="M151.51,146.33L151.45,145.95L151.28,145.68L151.01,145.55L150.68,145.57L150.32,145.74L149.97,146.05L149.66,146.45L149.44,146.91L149.32,147.38L149.32,147.80L149.44,148.13L149.66,148.33L149.97,148.39L150.32,148.29"/><path d="M151.51,48.66L151.45,48.28L151.28,48.01L151.01,47.87L150.68,47.90L150.32,48.07L149.97,48.37L149.66,48.78L149.44,49.24L149.32,49.70L149.32,50.12L149.44,50.45L149.66,50.65L149.97,50.71L150.32,50.61"/><path d="M150.64,147.94L150.54,147.84L150.49,147.69L150.49,147.57L150.54,147.27L150.64,147.06L150.79,146.87L150.95,146.73L151.12,146.65L151.28,146.64L151.40,146.70"/><path d="M151.40,49.03L151.28,48.96L151.12,48.97L150.95,49.06L150.79,49.20L150.64,49.39L150.54,49.60L150.49,49.82L150.49,49.95L150.54,50.17L150.64,50.26"/><path d="M151.60,146.81L151.68,146.94L151.70,147.11L151.68,147.33L151.60,147.54L151.47,147.75L151.31,147.92L151.15,148.03L150.98,148.08L150.84,148.05"/><path d="M151.51,147.00L151.48,147.21L151.40,147.43L151.28,147.64L151.12,147.81L150.95,147.92"/><path d="M150.84,50.38L150.98,50.40L151.15,50.36L151.31,50.24L151.47,50.07L151.60,49.87L151.68,49.65L151.70,49.44L151.68,49.26L151.60,49.14"/><path d="M150.95,50.24L151.12,50.13L151.28,49.96L151.40,49.76L151.48,49.54L151.51,49.33"/><path d="M179.61,130.21L179.55,129.83L179.38,129.56L179.11,129.43L178.78,129.45L178.42,129.62L178.07,129.93L177.77,130.33L177.54,130.79L177.43,131.26L177.43,131.68L177.54,132.01L177.77,132.21L178.07,132.27L178.42,132.17"/><path d="M179.61,97.65L179.55,97.27L179.38,97.00L179.11,96.87L178.78,96.89L178.42,97.07L178.07,97.37L177.77,97.77L177.54,98.23L177.43,98.70L177.43,99.12L177.54,99.45L177.77,99.65L178.07,99.71L178.42,99.61"/><path d="M179.61,65.09L179.55,64.71L179.38,64.44L179.11,64.31L178.78,64.33L178.42,64.51L178.07,64.81L177.77,65.22L177.54,65.67L177.43,66.14L177.43,66.56L177.54,66.89L177.77,67.09L178.07,67.15L178.42,67.05"/><path d="M178.42,34.49L178.07,34.59L177.77,34.54L177.54,34.33L177.43,34.00L177.43,33.58L177.54,33.12L177.77,32.66L178.07,32.25L178.42,31.95L178.77,31.78L179.11,31.75L179.38,31.89L179.55,32.16L179.62,32.54"/><path d="M178.94,131.93L179.09,131.96L179.25,131.91L179.42,131.80L179.58,131.63L179.70,131.42L179.78,131.21L179.81,130.99L179.78,130.82L179.70,130.69"/><path d="M179.51,130.58L179.38,130.52L179.23,130.53L179.06,130.61L178.89,130.75L178.75,130.94L178.65,131.15L178.59,131.37L178.59,131.57L178.65,131.72L178.75,131.82"/><path d="M179.06,131.80L179.23,131.68L179.38,131.52L179.51,131.31L179.59,131.09L179.61,130.88"/><path d="M178.94,99.37L179.09,99.40L179.25,99.35L179.42,99.24L179.58,99.07L179.70,98.87L179.78,98.65L179.81,98.44L179.78,98.26L179.70,98.13"/><path d="M179.51,98.02L179.38,97.96L179.23,97.97L179.06,98.05L178.89,98.19L178.75,98.38L178.65,98.60L178.59,98.81L178.59,99.01L178.65,99.16L178.75,99.26"/><path d="M179.06,99.24L179.23,99.13L179.38,98.96L179.50,98.76L179.59,98.53L179.61,98.32"/><path d="M178.94,66.81L179.09,66.84L179.25,66.79L179.42,66.68L179.58,66.51L179.70,66.31L179.78,66.09L179.81,65.88L179.78,65.70L179.70,65.57"/><path d="M179.61,65.77L179.59,65.98L179.51,66.20L179.38,66.40L179.23,66.57L179.06,66.68"/><path d="M178.75,66.70L178.65,66.61L178.59,66.45L178.59,66.26L178.65,66.04L178.74,65.84L178.89,65.63L179.06,65.49L179.23,65.41L179.38,65.40L179.51,65.46"/><path d="M178.94,34.26L179.09,34.28L179.25,34.24L179.42,34.12L179.58,33.95L179.70,33.75L179.78,33.53L179.81,33.32L179.78,33.14L179.70,33.02"/><path d="M179.06,34.12L179.23,34.01L179.38,33.84L179.51,33.64L179.59,33.42L179.61,33.21"/><path d="M178.75,34.14L178.65,34.05L178.59,33.89L178.59,33.70L178.65,33.48L178.75,33.27L178.89,33.08L179.06,32.94L179.23,32.85L179.38,32.84L179.51,32.91"/><path d="M181.25,132.44L182.03,132.89"/><path d="M181.25,43.51L181.25,28.44"/></g><g style="stroke:#000000;stroke-width:0.529;stroke-opacity:0.50"><path d="M104.63,177.28L92.25,184.38L91.47,183.94L91.47,131.84"/><path d="M182.03,43.06L182.03,28.88L181.25,28.44L91.47,79.93L91.47,130.88"/><path d="M94.11,180.53L94.47,180.28L94.80,179.93L95.07,179.49L95.24,179.02L95.30,178.57L95.30,179.24L95.27,179.07L95.22,178.99L95.11,179.00L94.94,179.08L94.77,179.22L94.63,179.41L94.53,179.63L94.47,179.84L94.47,180.04L94.53,180.19L94.63,180.29L94.44,180.18L94.58,180.21L94.74,180.16L94.18,180.49"/><path d="M95.22,178.99L95.19,178.94L95.39,179.05L95.22,178.99"/><path d="M95.28,146.43L95.26,146.43L95.30,146.01L95.30,146.69L95.27,146.51L95.22,146.43L95.26,146.43L95.07,146.93L94.80,147.37L94.47,147.73L94.11,147.97L94.74,147.60L94.58,147.65L94.44,147.62L94.63,147.73L94.53,147.64L94.47,147.48L94.47,147.29L94.53,147.07L94.63,146.85L94.77,146.67L94.94,146.52L95.11,146.44L95.22,146.43L95.19,146.38L95.39,146.49"/><path d="M94.11,115.41L94.47,115.17L94.80,114.81L95.07,114.37L95.24,113.90L95.30,113.51L95.30,114.13L95.27,113.95L95.22,113.88L95.11,113.88L94.94,113.96L94.77,114.11L94.63,114.30L94.53,114.51L94.47,114.73L94.47,114.92L94.53,115.08L94.63,115.17L94.44,115.06L94.58,115.09L94.74,115.04L94.11,115.41"/><path d="M95.19,113.82L95.39,113.94L95.22,113.88L95.19,113.82"/><path d="M95.07,81.81L94.80,82.25L94.47,82.61L94.11,82.85L94.74,82.48L94.58,82.53L94.44,82.50L94.63,82.62L94.53,82.52L94.47,82.37L94.47,82.17L94.53,81.95L94.63,81.74L94.77,81.55L94.94,81.41L95.11,81.33L95.22,81.32L95.19,81.27L95.39,81.38L95.22,81.32L95.27,81.39L95.30,81.57L95.30,80.90L95.24,81.35L95.07,81.81"/><path d="M95.30,113.51L95.30,113.46"/><path d="M113.68,172.09L182.03,132.89L182.03,53.54"/><path d="M122.43,164.26L122.21,164.41L122.85,164.04L122.68,164.08L122.54,164.06L122.74,164.17L122.63,164.07L122.58,163.92L122.58,163.72L122.63,163.51L122.74,163.29L122.88,163.10L123.04,162.96L123.21,162.88L123.37,162.87L123.49,162.93L123.30,162.82L123.38,162.94L123.41,163.12L123.41,162.45L123.34,162.90L123.17,163.37L122.91,163.81L122.57,164.17L122.43,164.26"/><path d="M122.21,66.73L122.57,66.49L122.91,66.13L123.17,65.69L123.34,65.23L123.41,64.78L123.41,65.45L123.38,65.27L123.30,65.15L123.49,65.26L123.37,65.20L123.21,65.21L123.04,65.29L122.88,65.43L122.74,65.62L122.63,65.84L122.58,66.05L122.58,66.25L122.63,66.40L122.74,66.50L122.54,66.38L122.68,66.41L122.85,66.36L122.21,66.73"/><path d="M150.32,148.29L150.77,147.96L150.64,147.94L150.77,148.03L150.32,148.29"/><path d="M150.77,148.03L150.84,148.05L150.74,147.95L150.68,147.80L150.68,147.60L150.74,147.39L150.84,147.17L150.98,146.98L151.15,146.84L151.31,146.76L151.47,146.75L151.60,146.81L151.40,146.70L151.48,146.82L151.51,147.00L151.51,146.43L151.45,146.78L151.28,147.25L151.01,147.69L150.77,147.96L150.95,147.92L150.77,148.03"/><path d="M150.68,50.37L150.32,50.61L150.77,50.35L150.64,50.26L150.77,50.29L150.68,50.37"/><path d="M150.77,50.31L150.68,50.13L150.68,49.95L150.74,49.71L150.84,49.50L150.98,49.31L151.15,49.17L151.31,49.09L151.47,49.08L151.60,49.14L151.40,49.03L151.48,49.15L151.51,49.33L151.51,48.66L151.45,49.11L151.28,49.57L151.01,50.01L150.77,50.29L150.95,50.24L150.77,50.35L150.84,50.38L150.77,50.31"/><path d="M151.51,146.43L151.51,146.33"/><path d="M178.42,132.17L178.78,131.92L179.11,131.57L179.38,131.13L179.55,130.66L179.61,130.21L179.61,130.88L179.59,130.71L179.51,130.58L179.70,130.69L179.58,130.63L179.42,130.64L179.25,130.72L179.09,130.86L178.94,131.05L178.84,131.27L178.78,131.48L178.78,131.68L178.84,131.83L178.94,131.93L178.75,131.82L178.89,131.84L179.06,131.80L178.42,132.17"/><path d="M178.42,99.61L178.78,99.37L179.11,99.02L179.38,98.57L179.55,98.10L179.61,97.65L179.61,98.32L179.59,98.15L179.51,98.02L179.70,98.13L179.58,98.07L179.42,98.08L179.25,98.16L179.09,98.31L178.94,98.49L178.84,98.71L178.78,98.93L178.78,99.12L178.84,99.28L178.94,99.37L178.75,99.26L178.89,99.29L179.06,99.24L178.42,99.61"/><path d="M178.54,66.97L178.42,67.05L179.06,66.68L178.89,66.73L178.75,66.70L178.94,66.81L178.84,66.72L178.78,66.56L178.78,66.37L178.84,66.15L178.94,65.93L179.09,65.75L179.25,65.60L179.42,65.52L179.58,65.51L179.70,65.57L179.51,65.46L179.59,65.59L179.61,65.77L179.61,65.09L179.55,65.54L179.38,66.01L179.11,66.46L178.78,66.81L178.54,66.97"/><path d="M178.78,34.25L179.11,33.90L179.38,33.45L179.55,32.99L179.62,32.54L179.61,33.21L179.59,33.03L179.53,32.92L179.70,33.02L179.58,32.96L179.42,32.97L179.25,33.05L179.09,33.19L178.94,33.38L178.84,33.59L178.78,33.81L178.78,34.01L178.84,34.16L178.94,34.26L178.75,34.14L178.89,34.17L179.06,34.12L178.42,34.49L178.78,34.25"/><path d="M179.53,32.92L179.51,32.91"/></g></g><g id="Actor_.1"><g style="stroke:#000000;stroke-width:0.176"><path d="M159.51,88.84L159.37,88.61L159.33,88.29L159.39,87.92L159.54,87.54L159.62,87.41L159.76,87.18L160.04,86.89L160.34,86.70L160.62,86.63L160.87,86.69"/><path d="M160.31,88.60L160.41,88.66L160.40,88.66"/><path d="M160.49,88.70L160.41,88.66"/><path d="M161.01,87.48L161.02,87.49L161.13,87.55"/><path d="M162.81,90.03L162.75,89.92L162.72,89.75L162.75,89.56L162.83,89.36L162.95,89.18L163.09,89.03L163.24,88.93L163.39,88.89L163.52,88.92"/><path d="M163.66,89.27L163.62,89.15L163.55,89.08L163.44,89.05L163.32,89.08L163.20,89.16L163.08,89.28L162.98,89.43L162.92,89.60L162.91,89.68L162.90,89.75L162.91,89.89L162.97,89.99L163.06,90.03L163.17,90.03L163.30,89.98"/></g><g style="stroke:#000000;stroke-width:0.529"><path d="M159.43,88.79L159.29,88.56L159.25,88.24L159.31,87.87L159.46,87.49L159.68,87.14L159.96,86.85L160.26,86.66L160.54,86.59L160.79,86.64L160.87,86.69L161.04,86.87L161.13,87.14L161.13,87.55L163.52,88.92L163.61,89.01L163.66,89.16L163.66,89.27L163.65,89.42L163.61,89.58L163.53,89.74L163.42,89.87L163.30,89.98L163.22,90.02L163.06,90.09L162.93,90.10L162.81,90.03L160.49,88.70L160.29,88.82L159.99,88.95L159.72,88.96L159.51,88.84L159.43,88.79"/></g></g><g id="Actor_.2"><g style="stroke:#000000;stroke-width:0.176"><path d="M211.95,151.45L211.80,151.16L211.50,150.80L210.83,150.41"/><path d="M211.50,150.80L211.80,150.26L211.72,150.52L211.69,150.77L211.72,150.99L211.80,151.16L211.92,151.28L212.08,151.33L212.28,151.31"/><path d="M213.24,150.04L213.26,149.87L213.23,149.65L213.15,149.48L213.03,149.37L212.87,149.32L212.67,149.33L212.47,149.42L212.28,149.56L212.08,149.76L211.92,150.00L211.80,150.26L211.95,149.64L212.47,149.42L212.86,149.12"/><path d="M211.19,149.41L210.99,149.79L210.90,150.14"/><path d="M211.95,149.64L211.28,149.25"/><path d="M211.91,148.85L211.66,148.95L211.42,149.14"/><path d="M211.66,148.95L211.66,148.95"/><path d="M212.47,151.23L212.47,151.23"/><path d="M212.72,151.04L212.86,150.88L212.94,150.77"/><path d="M212.44,150.88L212.56,150.80L212.50,150.85L212.40,150.89L212.30,150.92L212.25,150.92L212.18,150.90L212.12,150.87L212.08,150.83L212.04,150.76L212.02,150.72L212.01,150.59L212.01,150.56L212.03,150.39L212.04,150.38L212.07,150.28L212.11,150.18L212.12,150.18L212.07,150.28L212.04,150.38L212.03,150.39"/><path d="M212.56,150.80L212.58,150.78L212.71,150.65L212.72,150.63L212.83,150.46L212.84,150.44L212.88,150.36L212.90,150.28L212.91,150.25L212.94,150.08L212.94,150.05L212.92,149.93L212.91,149.88L212.86,149.81L212.82,149.77L212.77,149.74L212.70,149.72L212.65,149.72L212.54,149.75L212.51,149.76L212.38,149.85L212.36,149.86L212.29,149.93L212.39,149.85L212.52,149.79L212.64,149.79L212.73,149.84L212.79,149.94L212.81,150.08L212.78,150.24L212.72,150.40L212.62,150.56L212.50,150.68L212.37,150.76L212.25,150.79L212.14,150.77L212.07,150.69L212.03,150.57L212.03,150.42L212.07,150.27"/><path d="M212.58,150.78L212.65,150.72L212.71,150.65"/><path d="M212.83,150.46L212.78,150.56L212.72,150.63"/><path d="M212.38,149.85L212.37,149.85L212.36,149.86"/><path d="M212.23,150.00L212.23,150.01L212.23,150.00L212.23,150.00L212.23,150.00"/><path d="M212.23,150.01L212.21,150.02L212.25,149.98L212.23,150.00"/><path d="M212.12,150.87L212.10,150.86L212.08,150.83"/><path d="M212.18,150.90L212.21,150.92L212.25,150.92"/><path d="M212.12,150.18L212.12,150.18L212.11,150.19"/><path d="M212.12,150.18L212.21,150.02"/><path d="M212.01,150.59L212.01,150.58L212.01,150.56"/><path d="M212.29,149.93L212.25,149.98"/><path d="M212.02,150.72L212.03,150.74L212.04,150.76"/><path d="M212.91,149.88L212.89,149.84L212.86,149.81"/><path d="M212.30,150.92L212.35,150.92L212.40,150.89"/><path d="M212.92,149.93L212.94,149.98L212.94,150.05"/><path d="M212.94,150.08L212.93,150.16L212.91,150.25"/><path d="M212.90,150.28L212.88,150.36L212.84,150.44"/><path d="M212.70,149.72L212.67,149.72L212.65,149.72"/><path d="M212.54,149.75L212.53,149.75L212.51,149.76"/><path d="M212.77,149.74L212.80,149.75L212.82,149.77"/></g><g style="stroke:#000000;stroke-width:0.529"><path d="M211.66,148.95L211.86,148.87L211.91,148.85L212.18,148.73L212.86,149.12L213.15,149.48L213.31,149.77L213.24,150.04L213.23,150.13L213.15,150.39L213.03,150.65L212.94,150.77L212.86,150.93L212.72,151.04L212.67,151.08L212.47,151.23L212.28,151.31L212.23,151.33L211.95,151.45L211.28,151.06L210.99,150.70L210.83,150.41L210.90,150.14L210.91,150.06L210.99,149.79L211.11,149.54L211.19,149.41L211.28,149.25L211.42,149.14L211.46,149.10L211.66,148.95"/></g></g><g id="Actor_.3"><g style="stroke:#000000;stroke-width:0.176"><path d="M104.66,53.81L104.41,53.76L104.13,53.83L103.83,54.02L103.55,54.31L103.33,54.66L103.18,55.04L103.12,55.42L103.17,55.73L103.30,55.96"/><path d="M104.10,55.72L104.20,55.78L104.19,55.78"/><path d="M104.28,55.82L104.20,55.78"/><path d="M104.80,54.60L104.81,54.61L104.92,54.68"/><path d="M106.61,57.16L106.54,57.04L106.51,56.87L106.54,56.68L106.62,56.48L106.74,56.30L106.88,56.15L107.03,56.05L107.18,56.02L107.31,56.05"/><path d="M107.09,57.10L106.97,57.16L106.85,57.16L106.76,57.11L106.71,57.01L106.69,56.88L106.71,56.72L106.77,56.56L106.87,56.41L106.99,56.29L107.11,56.21L107.23,56.18L107.34,56.20L107.41,56.28L107.45,56.39"/></g><g style="stroke:#000000;stroke-width:0.529"><path d="M103.16,55.81L103.08,55.69L103.04,55.37L103.10,55.00L103.25,54.61L103.47,54.26L103.75,53.97L104.05,53.78L104.33,53.71L104.58,53.77L104.66,53.81L104.83,53.99L104.92,54.27L104.92,54.68L107.31,56.05L107.40,56.14L107.45,56.28L107.45,56.39L107.44,56.54L107.40,56.70L107.32,56.86L107.21,57.00L107.09,57.10L107.01,57.15L106.86,57.22L106.72,57.22L106.61,57.16L104.28,55.82L104.08,55.94L103.78,56.07L103.51,56.08L103.30,55.96L103.22,55.92L103.16,55.81"/></g></g><g id="Actor_.4"><g style="stroke:#000000;stroke-width:0.176"><path d="M76.55,167.61L76.31,167.55L76.02,167.62L75.73,167.81L75.45,168.10L75.23,168.45L75.08,168.84L75.02,169.21L75.06,169.53L75.19,169.76"/><path d="M76.00,169.52L76.10,169.58L76.08,169.57"/><path d="M76.10,169.58L76.17,169.62"/><path d="M76.69,168.40L76.70,168.40L76.82,168.47"/><path d="M79.20,169.84L79.08,169.81L78.93,169.85L78.78,169.94L78.63,170.09L78.52,170.28L78.44,170.48L78.41,170.67L78.43,170.83L78.50,170.95"/><path d="M79.34,170.19L79.31,170.07L79.23,170.00L79.13,169.97L79.01,170.00L78.88,170.08L78.76,170.20L78.67,170.35L78.61,170.52L78.58,170.67L78.60,170.81L78.66,170.90L78.75,170.95L78.86,170.95L78.99,170.89"/></g><g style="stroke:#000000;stroke-width:0.529"><path d="M74.94,169.16L75.00,168.79L75.14,168.41L75.37,168.05L75.64,167.77L75.94,167.58L76.23,167.51L76.47,167.56L76.55,167.61L76.73,167.79L76.82,168.06L76.82,168.47L79.20,169.84L79.30,169.93L79.34,170.07L79.34,170.19L79.34,170.33L79.30,170.50L79.22,170.65L79.11,170.79L78.99,170.89L78.90,170.94L78.75,171.01L78.61,171.01L78.50,170.95L76.17,169.62L75.97,169.74L75.68,169.87L75.41,169.88L75.19,169.76L75.11,169.71L74.98,169.48L74.94,169.16"/></g></g><g id="Actor_.5"><g style="stroke:#000000;stroke-width:0.176"><path d="M154.62,84.98L155.29,85.37L155.59,85.73L155.75,86.01"/><path d="M155.29,85.37L155.59,84.82L155.75,84.20L156.27,83.98L156.07,84.13L155.88,84.33L155.71,84.57L155.59,84.82L155.51,85.08L155.48,85.34L155.51,85.56L155.59,85.73L155.71,85.84L155.88,85.90L156.07,85.88"/><path d="M154.98,83.98L154.78,84.36L154.69,84.71"/><path d="M155.07,83.82L155.75,84.20"/><path d="M155.21,83.71L155.45,83.52L155.70,83.41"/><path d="M156.17,84.41L156.16,84.42L156.15,84.43L156.17,84.41L156.30,84.33L156.33,84.32L156.44,84.29L156.49,84.29L156.56,84.31L156.62,84.34L156.65,84.37L156.70,84.45L156.71,84.49L156.73,84.62L156.73,84.65L156.70,84.82L156.70,84.82L156.69,84.85L156.67,84.93L156.63,85.01L156.62,85.03L156.51,85.20L156.50,85.21L156.37,85.35L156.35,85.36L156.23,85.44L156.19,85.46L156.09,85.49L156.04,85.49L155.97,85.47L155.91,85.44L155.87,85.40L155.83,85.32L155.82,85.28L155.80,85.16L155.80,85.12L155.80,85.14L155.80,85.16"/><path d="M156.37,85.35L156.44,85.29L156.50,85.21"/><path d="M155.91,85.44L155.89,85.43L155.87,85.40"/><path d="M156.04,85.49L156.00,85.49L155.97,85.47"/><path d="M155.91,84.75L155.91,84.74L155.90,84.76L155.91,84.75L155.90,84.75L155.86,84.85L155.86,84.84L155.82,84.99L155.82,85.14L155.86,85.26L155.93,85.34L156.04,85.36L156.16,85.33L156.29,85.25L156.41,85.12L156.51,84.97L156.54,84.89L156.57,84.80L156.60,84.64L156.58,84.51L156.52,84.41L156.43,84.36L156.31,84.36L156.19,84.42L156.08,84.50L156.15,84.43"/><path d="M155.82,85.28L155.82,85.31L155.83,85.32"/><path d="M156.09,85.49L156.14,85.48L156.19,85.46"/><path d="M156.23,85.44L156.29,85.42L156.35,85.36"/><path d="M156.30,84.33L156.32,84.32L156.33,84.32"/><path d="M156.02,84.57L156.02,84.57L156.02,84.57L156.03,84.56L156.02,84.57"/><path d="M155.83,84.95L155.83,84.96L155.83,84.95L155.86,84.85L155.83,84.95"/><path d="M155.83,84.96L155.80,85.12"/><path d="M156.02,84.57L156.01,84.59L156.04,84.55L156.03,84.56"/><path d="M155.90,84.76L155.86,84.84"/><path d="M156.04,84.55L156.08,84.50"/><path d="M155.91,84.74L156.01,84.59"/><path d="M157.03,84.61L157.05,84.44L157.02,84.22L156.94,84.05L156.82,83.93L156.66,83.88L156.47,83.90L156.27,83.98L156.65,83.69"/><path d="M156.51,85.20L156.57,85.12L156.62,85.03"/><path d="M156.74,85.33L156.65,85.45L156.51,85.60"/><path d="M156.63,85.01L156.67,84.93L156.69,84.85"/><path d="M156.70,84.82L156.73,84.73L156.73,84.65"/><path d="M156.73,84.62L156.73,84.55L156.71,84.49"/><path d="M156.70,84.45L156.68,84.40L156.65,84.37"/><path d="M156.49,84.29L156.47,84.28L156.44,84.29"/><path d="M156.56,84.31L156.59,84.31L156.62,84.34"/></g><g style="stroke:#000000;stroke-width:0.529"><path d="M154.92,85.44L154.78,85.26L154.62,84.98L154.69,84.71L154.70,84.62L154.78,84.36L154.90,84.10L154.98,83.98L155.07,83.82L155.21,83.71L155.25,83.66L155.45,83.52L155.65,83.43L155.70,83.41L155.97,83.30L156.65,83.69L156.94,84.05L157.10,84.33L157.03,84.61L157.02,84.69L156.94,84.95L156.82,85.21L156.74,85.33L156.65,85.49L156.51,85.60L156.46,85.65L156.27,85.79L156.07,85.88L156.02,85.90L155.75,86.01L155.07,85.63L154.92,85.44"/></g></g><g id="Actor_.6"><g style="stroke:#000000;stroke-width:0.176"><path d="M103.30,153.64L103.17,153.41L103.12,153.09L103.18,152.72L103.33,152.33L103.55,151.98L103.83,151.69L104.13,151.50L104.41,151.43L104.63,151.48"/><path d="M104.10,153.40L104.20,153.46L104.20,153.45L104.19,153.45"/><path d="M104.20,153.46L104.28,153.50"/></g><g style="stroke:#000000;stroke-width:0.529"><path d="M104.63,151.47L104.58,151.44L104.33,151.39L104.05,151.46L103.75,151.65L103.47,151.93L103.25,152.29L103.10,152.67L103.04,153.04L103.08,153.36L103.22,153.59L103.30,153.64L103.51,153.75L103.78,153.75L104.08,153.62L104.28,153.50"/><path d="M104.63,153.70L104.28,153.50"/></g></g><g id="Actor_.7"><g style="stroke:#000000;stroke-width:0.176"><path d="M132.76,135.37L132.52,135.31L132.23,135.38L131.93,135.57L131.66,135.86L131.43,136.21L131.29,136.60L131.23,136.97L131.27,137.29L131.40,137.52"/><path d="M132.21,137.28L132.38,137.38"/><path d="M132.29,137.33L132.31,137.34"/><path d="M133.03,136.23L132.91,136.16L132.90,136.16"/><path d="M134.71,138.71L134.64,138.59L134.62,138.43L134.65,138.24L134.73,138.04L134.84,137.85L134.99,137.70L135.14,137.61L135.29,137.57L135.41,137.60"/><path d="M135.55,137.95L135.51,137.83L135.44,137.75L135.34,137.73L135.22,137.76L135.09,137.84L134.97,137.96L134.88,138.11L134.82,138.27L134.79,138.43L134.81,138.57L134.87,138.66L134.96,138.71L135.07,138.71L135.20,138.65"/></g><g style="stroke:#000000;stroke-width:0.529"><path d="M131.25,137.35L131.32,137.47L131.40,137.52L131.62,137.63L131.89,137.63L132.18,137.50L132.38,137.38L134.71,138.71L134.82,138.77L134.96,138.77L135.11,138.70L135.20,138.65L135.32,138.55L135.42,138.41L135.50,138.26L135.55,138.09L135.55,137.95L135.55,137.83L135.51,137.69L135.41,137.60L133.03,136.23L133.03,135.82L132.94,135.55L132.76,135.37L132.68,135.32L132.44,135.27L132.15,135.34L131.85,135.53L131.58,135.81L131.35,136.17L131.21,136.55L131.15,136.92L131.19,137.24L131.25,137.35"/></g></g><g id="Actor_.8"><g style="stroke:#000000;stroke-width:0.176"><path d="M106.39,196.13L106.11,195.97L105.94,195.66L105.88,195.25L105.88,89.62L105.94,89.14L106.11,88.63L106.39,88.15L106.74,87.75L107.12,87.46L198.31,35.16L198.69,35.01L199.04,35.01"/><path d="M110.69,189.12L110.51,189.24L110.34,189.29L110.19,189.27L110.08,189.16L110.02,189.00L110.02,188.79L110.08,188.56L110.19,188.33L110.34,188.13L110.51,187.98L110.69,187.90L110.86,187.88L110.99,187.95L111.08,188.08L111.11,188.27L111.08,188.50L110.99,188.73L110.86,188.94L110.69,189.12"/><path d="M110.51,156.69L110.34,156.73L110.19,156.71L110.08,156.61L110.02,156.44L110.02,156.23L110.08,156.00L110.19,155.77L110.34,155.58L110.51,155.42L110.69,155.34L110.86,155.33L110.99,155.39L111.08,155.53L111.11,155.72L111.08,155.94L110.99,156.17L110.86,156.39L110.69,156.56L110.51,156.69"/><path d="M110.86,123.83L110.69,124.01L110.51,124.13L110.34,124.18L110.19,124.15L110.08,124.05L110.02,123.88L110.02,123.68L110.08,123.44L110.19,123.22L110.34,123.02L110.51,122.87L110.69,122.78L110.86,122.77L110.99,122.83L111.08,122.97L111.11,123.16L111.08,123.38L110.99,123.61L110.86,123.83"/><path d="M110.69,91.45L110.86,91.27L110.99,91.06L111.08,90.82L111.11,90.60L111.08,90.41L110.99,90.28L110.86,90.21L110.69,90.22L110.51,90.31L110.34,90.46L110.19,90.66L110.08,90.89L110.02,91.12L110.02,91.33L110.08,91.49L110.19,91.59L110.34,91.62L110.51,91.57L110.69,91.45"/><path d="M190.50,48.68L190.88,48.53L191.24,48.53L191.51,48.69L191.69,49.00L191.75,49.41L191.75,136.95L191.69,137.44L191.51,137.94L191.24,138.42L190.89,138.82L190.50,139.12L114.93,182.46L114.55,182.61L114.20,182.61L113.92,182.45L113.75,182.16L113.68,181.75"/><path d="M138.30,173.15L138.18,173.04L138.12,172.88L138.12,172.67L138.18,172.44L138.29,172.21L138.44,172.01L138.62,171.86L138.80,171.78L138.96,171.77L139.10,171.83L139.18,171.96L139.21,172.15L139.18,172.37L139.10,172.61L138.96,172.82L138.80,173.00L138.62,173.12L138.44,173.17L138.30,173.15"/><path d="M138.30,75.47L138.18,75.37L138.12,75.21L138.12,75.00L138.18,74.77L138.29,74.54L138.44,74.34L138.62,74.19L138.80,74.10L138.96,74.09L139.10,74.16L139.18,74.29L139.21,74.48L139.18,74.70L139.10,74.93L138.96,75.15L138.80,75.33L138.62,75.45L138.44,75.50L138.30,75.47"/><path d="M166.55,157.05L166.40,157.03L166.29,156.92L166.23,156.76L166.23,156.55L166.29,156.32L166.39,156.10L166.55,155.89L166.72,155.74L166.90,155.66L167.07,155.64L167.20,155.71L167.28,155.84L167.31,156.03L167.28,156.26L167.20,156.49L167.07,156.70L166.90,156.88L166.72,157.00L166.55,157.05"/><path d="M166.55,59.38L166.40,59.35L166.29,59.25L166.23,59.09L166.23,58.88L166.29,58.65L166.40,58.42L166.55,58.22L166.72,58.07L166.90,57.98L167.07,57.97L167.20,58.04L167.28,58.17L167.31,58.36L167.28,58.58L167.20,58.82L167.07,59.03L166.90,59.21L166.72,59.33L166.55,59.38"/><path d="M194.98,140.78L194.83,140.88L194.65,140.93L194.50,140.91L194.39,140.80L194.33,140.64L194.33,140.43L194.39,140.20L194.50,139.97L194.65,139.77L194.87,139.60L195.01,139.54L195.17,139.52L195.30,139.59L195.39,139.72L195.42,139.91L195.39,140.13L195.30,140.37L195.17,140.58L194.98,140.78"/><path d="M194.98,108.22L194.83,108.33L194.65,108.37L194.50,108.35L194.39,108.25L194.33,108.08L194.33,107.87L194.39,107.64L194.50,107.41L194.65,107.21L194.83,107.06L195.01,106.98L195.17,106.97L195.30,107.03L195.39,107.17L195.42,107.35L195.39,107.58L195.30,107.81L195.17,108.03L194.98,108.22"/><path d="M194.65,75.82L194.83,75.77L195.01,75.65L195.17,75.47L195.30,75.25L195.39,75.02L195.42,74.80L195.39,74.61L195.30,74.47L195.17,74.41L195.01,74.42L194.83,74.50L194.65,74.66L194.50,74.86L194.39,75.08L194.33,75.31L194.33,75.52L194.39,75.69L194.50,75.79L194.65,75.82"/><path d="M194.83,43.21L194.65,43.26L194.50,43.23L194.40,43.14L194.33,42.97L194.33,42.76L194.39,42.53L194.50,42.30L194.65,42.10L194.83,41.95L195.01,41.86L195.17,41.85L195.30,41.92L195.39,42.05L195.42,42.24L195.39,42.46L195.30,42.69L195.17,42.91L195.01,43.09L194.83,43.21"/></g><g style="stroke:#000000;stroke-width:0.529"><path d="M104.86,195.25L106.39,196.13L106.74,196.13L107.12,195.98L198.31,143.68L198.69,143.39L199.04,142.98L199.32,142.51L199.50,142.00L199.56,141.52L199.56,139.62L199.56,35.89L199.50,35.47L199.33,35.19L199.04,35.01L197.79,34.29L197.44,34.29L197.06,34.44L105.88,86.74L105.49,87.03L105.14,87.44L104.86,87.92L104.69,88.42L104.63,88.90L104.63,194.54L104.69,194.95L104.86,195.25"/><path d="M113.90,181.62L113.68,181.74L113.68,94.19L113.74,93.70L113.92,93.20L114.20,92.72L114.55,92.32L114.93,92.02L190.50,48.69L190.50,136.24L190.44,136.72L190.26,137.22L189.99,137.70L189.64,138.11L189.25,138.40L113.90,181.62"/></g></g><g id="Actor_.9"><g style="stroke:#000000;stroke-width:0.176"><path d="M160.87,119.25L160.62,119.19L160.34,119.26L160.04,119.45L159.76,119.74L159.54,120.09L159.39,120.48L159.33,120.85L159.37,121.17L159.51,121.40"/><path d="M160.31,121.16L160.41,121.21L160.40,121.21"/><path d="M160.49,121.26L160.41,121.21"/><path d="M161.01,120.03L161.02,120.04L161.13,120.11"/><path d="M162.81,122.59L162.75,122.47L162.72,122.31L162.75,122.12L162.83,121.92L162.95,121.73L163.09,121.58L163.24,121.49L163.39,121.45L163.52,121.48"/><path d="M163.66,121.83L163.62,121.71L163.55,121.63L163.44,121.61L163.32,121.64L163.20,121.72L163.08,121.84L162.98,121.99L162.92,122.15L162.90,122.31L162.91,122.45L162.97,122.54L163.06,122.59L163.17,122.59L163.30,122.53"/></g><g style="stroke:#000000;stroke-width:0.529"><path d="M159.62,121.46L159.72,121.51L159.99,121.51L160.29,121.38L160.49,121.26L162.81,122.59L162.93,122.65L163.06,122.65L163.22,122.58L163.30,122.53L163.42,122.43L163.53,122.29L163.61,122.14L163.65,121.97L163.66,121.83L163.66,121.71L163.61,121.57L163.52,121.48L161.13,120.11L161.13,119.70L161.04,119.42L160.87,119.25L160.79,119.20L160.54,119.15L160.26,119.22L159.96,119.41L159.68,119.69L159.46,120.05L159.31,120.43L159.25,120.80L159.29,121.12L159.43,121.35L159.51,121.40L159.62,121.46"/></g></g><g id="Actor_.10"><g style="stroke:#000000;stroke-width:0.176"><path d="M127.64,102.13L127.48,101.85L127.19,101.49L126.52,101.10"/><path d="M126.59,100.83L126.67,100.48L126.88,100.10"/><path d="M128.52,101.13L128.57,101.05L128.59,100.97L128.56,101.05L128.52,101.13L128.51,101.15L128.41,101.32L128.40,101.33L128.27,101.47L128.25,101.48L128.12,101.56L128.09,101.58L127.98,101.61L127.93,101.61L127.86,101.59L127.81,101.56L127.77,101.52L127.72,101.44L127.71,101.40L127.69,101.28L127.70,101.25L127.72,101.08L127.72,101.07L127.76,100.97L127.80,100.87L127.80,100.87L127.80,100.88L127.81,100.86L127.80,100.87"/><path d="M128.09,101.58L128.03,101.60L127.98,101.61"/><path d="M127.72,101.08L127.72,101.07L127.76,100.97L127.76,100.96L127.72,101.11L127.72,101.26L127.75,101.38L127.83,101.46L127.94,101.48L128.06,101.45L128.19,101.37L128.31,101.24L128.40,101.09L128.47,100.92L128.49,100.76L128.47,100.63L128.42,100.53L128.32,100.48L128.21,100.48L128.08,100.54L127.98,100.62L128.05,100.55L128.07,100.53L128.06,100.54L128.05,100.55"/><path d="M127.77,101.52L127.78,101.55L127.81,101.56"/><path d="M127.96,102.00L127.77,102.02L127.61,101.96L127.48,101.85L127.41,101.68L127.38,101.46L127.41,101.20L127.48,100.94L127.19,101.49"/><path d="M127.69,101.28L127.69,101.26L127.70,101.25"/><path d="M127.71,101.40L127.71,101.43L127.72,101.44"/><path d="M127.86,101.59L127.89,101.61L127.93,101.61"/><path d="M128.07,100.53L128.19,100.45L128.23,100.44L128.21,100.44L128.19,100.45"/><path d="M127.92,100.69L127.91,100.69L127.92,100.69L127.92,100.68L127.92,100.69"/><path d="M127.91,100.69L127.90,100.71L127.93,100.67L127.92,100.68"/><path d="M128.92,100.73L128.94,100.56L128.91,100.34L128.84,100.17L128.71,100.05L128.55,100.00L128.36,100.02L128.16,100.10L127.96,100.25L127.77,100.45L127.61,100.69L127.48,100.94L127.64,100.32L128.16,100.10L128.54,99.81"/><path d="M127.64,100.32L126.97,99.94"/><path d="M127.81,100.86L127.90,100.71"/><path d="M127.98,100.62L127.93,100.67"/><path d="M127.80,100.88L127.76,100.96"/><path d="M127.11,99.83L127.35,99.64L127.60,99.53"/><path d="M128.12,101.56L128.19,101.54L128.25,101.48"/><path d="M128.41,101.32L128.47,101.24L128.51,101.15"/><path d="M128.27,101.47L128.34,101.41L128.40,101.33"/><path d="M128.40,101.72L128.55,101.57L128.63,101.45"/><path d="M128.59,100.97L128.60,100.94L128.62,100.77L128.62,100.74L128.61,100.61L128.59,100.57L128.55,100.49L128.51,100.46L128.46,100.43L128.38,100.41L128.33,100.41L128.23,100.44"/><path d="M128.60,100.94L128.62,100.85L128.62,100.77"/><path d="M128.38,100.41L128.36,100.40L128.33,100.41"/><path d="M128.46,100.43L128.49,100.43L128.51,100.46"/><path d="M128.55,100.49L128.58,100.52L128.59,100.57"/><path d="M128.61,100.61L128.62,100.67L128.62,100.74"/></g><g style="stroke:#000000;stroke-width:0.529"><path d="M126.81,101.56L126.67,101.38L126.52,101.10L126.59,100.83L126.59,100.74L126.67,100.48L126.80,100.22L126.88,100.10L126.97,99.94L127.11,99.83L127.15,99.78L127.35,99.64L127.55,99.55L127.60,99.53L127.87,99.42L128.54,99.81L128.84,100.17L128.99,100.45L128.92,100.73L128.91,100.81L128.84,101.07L128.71,101.33L128.63,101.45L128.54,101.61L128.40,101.72L128.36,101.77L128.16,101.91L127.96,102.00L127.91,102.02L127.64,102.13L126.97,101.75L126.81,101.56"/></g></g><g id="Actor_.11"><g style="stroke:#000000;stroke-width:0.176"><path d="M75.19,104.64L75.06,104.41L75.02,104.09L75.08,103.72L75.22,103.36"/><path d="M76.55,102.49L76.31,102.44L76.02,102.51L75.85,102.62"/><path d="M76.00,104.40L76.10,104.46L76.08,104.46"/><path d="M76.10,104.46L76.17,104.50"/><path d="M76.82,103.36L76.70,103.29L76.69,103.28"/><path d="M78.50,105.84L78.43,105.72L78.41,105.55L78.44,105.36L78.52,105.16L78.63,104.98L78.78,104.83L78.93,104.73L79.08,104.69L79.20,104.72"/><path d="M79.34,105.07L79.31,104.95L79.23,104.88L79.13,104.86L79.01,104.89L78.88,104.97L78.76,105.09L78.67,105.24L78.61,105.40L78.58,105.56L78.60,105.69L78.66,105.79L78.75,105.84L78.86,105.83L78.99,105.78"/></g><g style="stroke:#000000;stroke-width:0.529"><path d="M75.14,103.31L75.00,103.68L74.94,104.05L74.98,104.36L75.11,104.60L75.19,104.64L75.41,104.76L75.68,104.75L75.97,104.62L76.17,104.50L78.50,105.84L78.61,105.90L78.75,105.89L78.90,105.83L78.99,105.78L79.11,105.68L79.22,105.54L79.30,105.38L79.34,105.22L79.34,105.07L79.34,104.96L79.30,104.81L79.20,104.72L76.82,103.36L76.82,102.95L76.73,102.67L76.55,102.49L76.47,102.45L76.23,102.39L75.94,102.46L75.77,102.57"/></g></g><g id="Actor_.12"><g style="stroke:#000000;stroke-width:0.176"><path d="M76.55,135.05L76.31,134.99L76.02,135.07L75.73,135.25L75.45,135.54L75.23,135.90L75.08,136.28L75.02,136.65L75.06,136.97L75.19,137.20"/><path d="M76.00,136.96L76.10,137.02L76.08,137.02"/><path d="M76.10,137.02L76.17,137.06"/><path d="M76.69,135.84L76.70,135.85L76.82,135.91"/><path d="M78.50,138.40L78.43,138.28L78.41,138.11L78.44,137.92L78.52,137.72L78.63,137.54L78.78,137.39L78.93,137.29L79.08,137.25L79.20,137.28"/><path d="M79.34,137.63L79.31,137.51L79.23,137.44L79.13,137.41L79.01,137.44L78.88,137.52L78.76,137.64L78.67,137.79L78.61,137.96L78.58,138.11L78.60,138.25L78.66,138.35L78.75,138.40L78.86,138.39L78.99,138.34"/></g><g style="stroke:#000000;stroke-width:0.529"><path d="M75.00,136.22L75.00,136.23L74.94,136.60L74.98,136.92L75.11,137.15L75.19,137.20L75.41,137.32L75.68,137.31L75.97,137.18L76.17,137.06L78.50,138.40L78.61,138.46L78.75,138.45L78.90,138.38L78.99,138.34L79.11,138.23L79.22,138.10L79.30,137.94L79.34,137.78L79.34,137.63L79.34,137.52L79.30,137.37L79.20,137.28L76.82,135.91L76.82,135.51L76.73,135.23L76.55,135.05L76.47,135.00L76.23,134.95L75.94,135.02L75.64,135.21L75.37,135.50L75.14,135.85L75.00,136.22"/></g></g><g id="Actor_.13"><g style="stroke:#000000;stroke-width:0.176"><path d="M160.87,54.13L160.62,54.08L160.34,54.15L160.04,54.34L159.76,54.62L159.54,54.98L159.39,55.36L159.33,55.73L159.37,56.05L159.38,56.05"/><path d="M161.01,54.92L161.02,54.93L161.13,54.99"/></g><g style="stroke:#000000;stroke-width:0.529"><path d="M161.18,55.02L161.13,54.99L161.13,54.59L161.04,54.31L160.87,54.13L160.79,54.09L160.54,54.03L160.26,54.10L159.96,54.29L159.77,54.49L159.68,54.58L159.46,54.93L159.31,55.32L159.25,55.69L159.29,56.00L159.34,56.08"/></g></g><g id="Actor_.14"><g style="stroke:#000000;stroke-width:0.176"><path d="M160.87,21.57L160.62,21.52L160.34,21.59L160.04,21.78L159.76,22.07L159.54,22.42L159.43,22.70L159.39,22.80L159.33,23.17L159.37,23.49L159.51,23.72"/><path d="M160.31,23.48L160.41,23.54L160.40,23.54"/><path d="M160.41,23.54L160.49,23.58"/><path d="M161.01,22.36L161.02,22.37L161.13,22.44"/><path d="M162.81,24.92L162.75,24.80L162.72,24.63L162.75,24.44L162.83,24.24L162.95,24.06L163.09,23.91L163.24,23.81L163.39,23.78L163.52,23.80"/><path d="M163.66,24.15L163.62,24.04L163.54,23.96L163.44,23.94L163.32,23.97L163.20,24.05L163.08,24.17L162.98,24.32L162.92,24.48L162.90,24.64L162.91,24.77L162.97,24.87L163.06,24.92L163.17,24.92L163.30,24.86"/></g><g style="stroke:#000000;stroke-width:0.529"><path d="M159.83,23.84L159.72,23.84L159.51,23.72L159.43,23.68L159.29,23.45L159.25,23.13L159.31,22.76L159.46,22.37L159.68,22.02L159.84,21.86L159.96,21.73L160.26,21.54L160.54,21.47L160.79,21.53L160.87,21.57L161.04,21.75L161.13,22.03L161.13,22.44L163.52,23.80L163.61,23.90L163.66,24.04L163.66,24.15L163.65,24.30L163.61,24.46L163.53,24.62L163.42,24.76L163.30,24.86L163.22,24.91L163.06,24.98L162.93,24.98L162.81,24.92L160.49,23.58L160.29,23.70L159.99,23.83L159.83,23.84"/></g></g><g id="Actor_.15"><g style="stroke:#000000;stroke-width:0.176"><path d="M211.95,118.89L211.80,118.60L211.50,118.24L210.83,117.86"/><path d="M211.50,118.24L211.80,117.70L211.95,117.08L212.47,116.86L212.86,116.56"/><path d="M212.28,118.75L212.08,118.77L211.92,118.72L211.80,118.60L211.72,118.43L211.69,118.21L211.72,117.96L211.80,117.70L211.92,117.44L212.08,117.21L212.28,117.00L212.47,116.86L212.67,116.78L212.87,116.76L213.03,116.81L213.15,116.92L213.23,117.10L213.26,117.32L213.24,117.48"/><path d="M211.95,117.08L211.28,116.69"/><path d="M210.90,117.58L210.99,117.23L211.19,116.86"/><path d="M211.66,116.39L211.66,116.39L211.91,116.29"/><path d="M211.66,116.39L211.42,116.59"/><path d="M212.44,118.32L212.50,118.29L212.56,118.24L212.44,118.32L212.40,118.34L212.30,118.36L212.25,118.36L212.18,118.35L212.12,118.32L212.08,118.28L212.04,118.20L212.02,118.16L212.01,118.03L212.01,118.00L212.03,117.84L212.04,117.82L212.07,117.73L212.11,117.63L212.12,117.62L212.11,117.63L212.12,117.62"/><path d="M212.40,118.34L212.35,118.36L212.30,118.36"/><path d="M212.56,118.24L212.58,118.22L212.71,118.09L212.78,118.00L212.83,117.91L212.72,118.08"/><path d="M212.71,118.09L212.65,118.17L212.58,118.22"/><path d="M212.03,117.84L212.04,117.83L212.07,117.73L212.07,117.72L212.03,117.86L212.03,118.01L212.07,118.13L212.14,118.21L212.25,118.24L212.37,118.20L212.50,118.12L212.62,118.00L212.72,117.85L212.78,117.68L212.81,117.52L212.79,117.38L212.73,117.28L212.64,117.23L212.52,117.23L212.39,117.29L212.29,117.38L212.23,117.44L212.23,117.45L212.23,117.44L212.23,117.44"/><path d="M212.02,118.16L212.03,118.18L212.04,118.20"/><path d="M212.08,118.28L212.10,118.30L212.12,118.32"/><path d="M212.18,118.35L212.21,118.36L212.25,118.36"/><path d="M212.72,118.48L212.86,118.33L212.94,118.21"/><path d="M212.83,117.91L212.84,117.89L212.88,117.80L212.90,117.72L212.91,117.69L212.94,117.53L212.94,117.49L212.92,117.37L212.91,117.33L212.86,117.25L212.82,117.21L212.77,117.18L212.70,117.16L212.65,117.17L212.54,117.19L212.51,117.21L212.38,117.29L212.36,117.30L212.37,117.29L212.38,117.29"/><path d="M212.91,117.69L212.93,117.60L212.94,117.53"/><path d="M212.92,117.37L212.94,117.42L212.94,117.49"/><path d="M212.86,117.25L212.89,117.28L212.91,117.33"/><path d="M212.77,117.18L212.80,117.19L212.82,117.21"/><path d="M212.54,117.19L212.53,117.20L212.51,117.21"/><path d="M212.01,118.00L212.01,118.02L212.01,118.03"/><path d="M212.23,117.45L212.21,117.47L212.25,117.42"/><path d="M212.12,117.62L212.21,117.47"/><path d="M212.36,117.30L212.29,117.38"/><path d="M212.65,117.17L212.67,117.16L212.70,117.16"/><path d="M212.90,117.72L212.88,117.80L212.84,117.89"/><path d="M212.07,117.72L212.11,117.63"/></g><g style="stroke:#000000;stroke-width:0.529"><path d="M211.66,116.39L211.86,116.31L211.91,116.29L212.18,116.18L212.86,116.56L213.15,116.92L213.31,117.21L213.24,117.48L213.23,117.57L213.15,117.83L213.03,118.09L212.94,118.21L212.86,118.37L212.72,118.48L212.67,118.53L212.47,118.67L212.28,118.75L212.23,118.77L211.95,118.89L211.28,118.50L210.99,118.14L210.83,117.86L210.90,117.58L210.91,117.50L210.99,117.23L211.11,116.98L211.19,116.86L211.28,116.69L211.42,116.59L211.46,116.54L211.66,116.39"/></g></g><g id="Actor_.16"><g style="stroke:#000000;stroke-width:0.176"><path d="M154.62,182.65L155.29,183.04L155.59,183.40L155.75,183.69"/><path d="M155.29,183.04L155.59,182.50L155.75,181.88L155.07,181.49"/><path d="M154.69,182.38L154.78,182.03L154.98,181.65"/><path d="M155.70,181.09L155.45,181.19L155.21,181.38"/><path d="M155.83,182.63L155.83,182.62L155.86,182.52L155.91,182.42L155.90,182.42L155.86,182.52L155.83,182.62L155.83,182.63L155.80,182.80L155.80,182.83L155.82,182.96L155.83,183.00L155.87,183.07L155.91,183.11L155.97,183.14L156.04,183.16L156.09,183.16L156.19,183.13L156.23,183.12L156.35,183.04L156.37,183.02L156.50,182.89L156.51,182.87L156.62,182.70L156.57,182.80L156.51,182.87"/><path d="M156.19,183.13L156.14,183.16L156.09,183.16"/><path d="M156.37,183.02L156.44,182.96L156.50,182.89"/><path d="M155.80,182.80L155.80,182.82L155.80,182.83"/><path d="M155.82,182.96L155.82,182.98L155.83,183.00"/><path d="M155.87,183.07L155.89,183.10L155.91,183.11"/><path d="M155.97,183.14L156.00,183.16L156.04,183.16"/><path d="M155.86,182.52L155.82,182.66L155.82,182.81L155.86,182.93L155.93,183.01L156.04,183.03L156.16,183.00L156.29,182.92L156.41,182.80L156.51,182.64L156.57,182.48L156.60,182.32L156.58,182.18L156.52,182.08L156.43,182.03L156.31,182.03L156.19,182.09L156.08,182.17L156.15,182.10L156.17,182.09L156.16,182.09L156.15,182.10"/><path d="M156.07,183.55L155.88,183.57L155.71,183.52L155.59,183.40L155.51,183.23L155.48,183.01L155.51,182.76L155.59,182.50L155.71,182.24L155.88,182.00L156.07,181.80L156.27,181.66L155.75,181.88"/><path d="M156.27,183.47L156.26,183.47"/><path d="M156.35,183.04L156.29,183.09L156.23,183.12"/><path d="M156.30,182.01L156.32,181.99L156.33,181.99L156.30,182.01L156.17,182.09"/><path d="M156.02,182.24L156.02,182.25L156.02,182.24L156.03,182.24L156.02,182.24"/><path d="M156.02,182.25L156.01,182.26L156.04,182.22L156.03,182.24"/><path d="M157.03,182.28L157.05,182.11L157.02,181.89L156.94,181.72L156.82,181.61L156.66,181.56L156.47,181.57L156.27,181.66L156.65,181.36"/><path d="M155.91,182.42L155.91,182.42L155.90,182.43"/><path d="M156.44,181.96L156.47,181.96L156.49,181.96L156.44,181.96L156.33,181.99"/><path d="M156.08,182.17L156.04,182.22"/><path d="M156.01,182.26L155.91,182.42"/><path d="M156.51,183.28L156.65,183.12L156.74,183.01"/><path d="M156.62,182.70L156.63,182.69L156.67,182.60L156.69,182.52L156.70,182.49L156.73,182.32L156.73,182.29L156.71,182.17L156.70,182.12L156.65,182.05L156.62,182.01L156.56,181.98L156.49,181.96"/><path d="M156.73,182.32L156.73,182.40L156.70,182.49"/><path d="M156.73,182.29L156.73,182.22L156.71,182.17"/><path d="M156.56,181.98L156.59,181.99L156.62,182.01"/><path d="M156.65,182.05L156.68,182.08L156.70,182.12"/><path d="M156.69,182.52L156.67,182.60L156.63,182.69"/></g><g style="stroke:#000000;stroke-width:0.529"><path d="M156.27,183.47L156.46,183.32L156.51,183.28L156.65,183.17L156.74,183.01L156.82,182.89L156.94,182.63L157.02,182.37L157.03,182.28L157.10,182.01L156.94,181.72L156.65,181.36L155.97,180.97L155.70,181.09L155.65,181.11L155.45,181.19L155.25,181.34L155.21,181.38L155.07,181.49L154.98,181.65L154.90,181.78L154.78,182.03L154.70,182.30L154.69,182.38L154.62,182.65L154.78,182.94L155.07,183.30L155.75,183.69L156.02,183.57L156.07,183.55L156.26,183.47"/></g></g><g id="Actor_.17"><g style="stroke:#000000;stroke-width:0.176"><path d="M76.55,69.93L76.31,69.88L76.02,69.95L75.73,70.14L75.45,70.43L75.23,70.78L75.08,71.16L75.02,71.51L75.02,71.54L75.06,71.85L75.19,72.08"/><path d="M76.00,71.84L76.10,71.90L76.08,71.90"/><path d="M76.10,71.90L76.17,71.94"/><path d="M76.69,70.72L76.70,70.73L76.82,70.80"/><path d="M79.20,72.17L79.08,72.14L78.93,72.17L78.78,72.27L78.63,72.42L78.52,72.60L78.44,72.80L78.41,73.00L78.43,73.16L78.50,73.28"/><path d="M79.34,72.51L79.31,72.40L79.23,72.32L79.13,72.30L79.01,72.33L78.88,72.41L78.76,72.53L78.67,72.68L78.61,72.84L78.58,73.00L78.60,73.13L78.66,73.23L78.75,73.28L78.86,73.28L78.99,73.22"/></g><g style="stroke:#000000;stroke-width:0.529"><path d="M74.94,71.51L74.98,71.81L75.11,72.04L75.19,72.08L75.41,72.20L75.68,72.19L75.97,72.06L76.17,71.94L78.50,73.28L78.61,73.34L78.75,73.34L78.90,73.27L78.99,73.22L79.11,73.12L79.22,72.98L79.30,72.82L79.34,72.66L79.34,72.51L79.34,72.40L79.30,72.26L79.20,72.17L76.82,70.80L76.82,70.39L76.73,70.11L76.55,69.93L76.47,69.89L76.23,69.83L75.94,69.90L75.64,70.09L75.37,70.38L75.14,70.73L75.00,71.12L74.94,71.49L74.94,71.51"/></g></g><g id="Actor_.18"><g style="stroke:#000000;stroke-width:0.176"><path d="M127.64,167.25L127.48,166.96L127.19,166.60L126.52,166.22"/><path d="M126.59,165.94L126.67,165.59L126.88,165.22"/><path d="M127.19,166.60L127.48,166.06L127.41,166.32L127.38,166.57L127.41,166.79L127.48,166.96L127.61,167.08L127.77,167.13L127.96,167.11"/><path d="M128.12,166.68L128.19,166.65L128.25,166.60L128.12,166.68L128.09,166.70L127.98,166.72L127.93,166.72L127.86,166.71L127.81,166.68L127.77,166.64L127.72,166.56L127.71,166.52L127.69,166.39L127.70,166.36L127.72,166.19L127.76,166.09L127.80,165.99L127.81,165.98L127.80,165.99L127.80,165.98"/><path d="M127.92,165.81L127.91,165.81L127.92,165.80L127.92,165.80L127.92,165.81"/><path d="M127.72,166.20L127.72,166.18L127.76,166.09L127.76,166.08L127.72,166.22L127.72,166.38L127.75,166.50L127.83,166.57L127.94,166.60L128.06,166.57L128.19,166.48L128.31,166.36L128.40,166.21L128.47,166.04L128.49,165.88L128.47,165.74L128.42,165.64L128.32,165.59L128.21,165.60L128.08,165.65L127.98,165.74L128.05,165.66L128.07,165.65L128.06,165.65L128.05,165.66"/><path d="M127.70,166.36L127.69,166.38L127.69,166.39"/><path d="M128.92,165.84L128.94,165.68L128.91,165.46L128.84,165.28L128.71,165.17L128.55,165.12L128.36,165.14L128.16,165.22L127.96,165.37L127.77,165.57L127.61,165.80L127.48,166.06L127.64,165.44L128.16,165.22L128.54,164.92"/><path d="M127.91,165.81L127.90,165.83L127.93,165.78L127.92,165.80"/><path d="M127.81,165.98L127.90,165.83"/><path d="M127.76,166.08L127.80,165.99"/><path d="M127.71,166.52L127.71,166.54L127.72,166.56"/><path d="M127.77,166.64L127.78,166.66L127.81,166.68"/><path d="M127.86,166.71L127.89,166.72L127.93,166.72"/><path d="M127.98,166.72L128.03,166.72L128.09,166.70"/><path d="M127.93,165.78L127.98,165.74"/><path d="M127.64,165.44L126.97,165.05"/><path d="M127.60,164.65L127.35,164.75L127.11,164.95"/><path d="M128.07,165.65L128.19,165.57L128.23,165.55L128.21,165.56L128.19,165.57"/><path d="M128.16,167.03L128.16,167.03"/><path d="M128.25,166.60L128.27,166.58L128.40,166.45L128.41,166.44L128.51,166.27L128.52,166.25L128.56,166.16L128.59,166.08L128.60,166.05L128.62,165.89L128.62,165.85L128.61,165.73L128.62,165.78L128.62,165.85"/><path d="M128.61,165.73L128.59,165.69L128.55,165.61L128.51,165.57L128.46,165.54L128.38,165.52L128.33,165.53L128.23,165.55"/><path d="M128.62,165.89L128.62,165.97L128.60,166.05"/><path d="M128.27,166.58L128.34,166.53L128.40,166.45"/><path d="M128.59,166.08L128.57,166.16L128.52,166.25"/><path d="M128.63,166.57L128.55,166.69L128.40,166.84"/><path d="M128.41,166.44L128.47,166.36L128.51,166.27"/><path d="M128.51,165.57L128.49,165.55L128.46,165.54"/><path d="M128.38,165.52L128.36,165.52L128.33,165.53"/><path d="M128.55,165.61L128.58,165.64L128.59,165.69"/></g><g style="stroke:#000000;stroke-width:0.529"><path d="M128.16,167.03L128.36,166.89L128.40,166.84L128.54,166.73L128.63,166.57L128.71,166.45L128.84,166.19L128.91,165.93L128.92,165.84L128.99,165.57L128.84,165.28L128.54,164.92L127.87,164.54L127.60,164.65L127.55,164.67L127.35,164.75L127.15,164.90L127.11,164.95L126.97,165.05L126.88,165.22L126.80,165.34L126.67,165.59L126.59,165.86L126.59,165.94L126.52,166.22L126.67,166.50L126.97,166.86L127.64,167.25L127.91,167.13L127.96,167.11L128.16,167.03"/></g></g><g id="Actor_.19"><g style="stroke:#000000;stroke-width:0.176"><path d="M127.64,134.69L127.48,134.41L127.19,134.04L126.52,133.66"/><path d="M126.88,132.66L126.67,133.04L126.59,133.38"/><path d="M127.72,133.64L127.72,133.63L127.76,133.53L127.72,133.63L127.70,133.80L127.69,133.84L127.71,133.96L127.72,134.00L127.77,134.08L127.81,134.12L127.86,134.15L127.93,134.16L127.98,134.16L128.09,134.14L128.12,134.12L128.25,134.04L128.27,134.03L128.40,133.89L128.41,133.88L128.51,133.71L128.52,133.69L128.56,133.60L128.59,133.52L128.60,133.49L128.62,133.33L128.62,133.30L128.61,133.17L128.59,133.13L128.55,133.05L128.51,133.01L128.46,132.98L128.38,132.97L128.33,132.97L128.23,132.99L128.19,133.01L128.07,133.09L128.05,133.11L127.98,133.18L128.08,133.09L128.21,133.04L128.32,133.03L128.42,133.08L128.47,133.18L128.49,133.32L128.47,133.48L128.40,133.65L128.31,133.80L128.19,133.93L128.06,134.01L127.94,134.04L127.83,134.01L127.75,133.94L127.72,133.82L127.72,133.67L127.76,133.52L127.76,133.53L127.80,133.43L127.80,133.42L127.80,133.44L127.81,133.42L127.80,133.42"/><path d="M128.09,134.14L128.03,134.16L127.98,134.16"/><path d="M127.77,134.08L127.78,134.10L127.81,134.12"/><path d="M127.86,134.15L127.89,134.17L127.93,134.16"/><path d="M127.19,134.04L127.48,133.50L127.64,132.88L128.16,132.66L128.54,132.36"/><path d="M127.96,134.56L127.77,134.57L127.61,134.52L127.48,134.41L127.41,134.24L127.38,134.01L127.41,133.76L127.48,133.50L127.61,133.25L127.77,133.01L127.96,132.81L128.16,132.66L128.36,132.58L128.55,132.56L128.71,132.61L128.84,132.73L128.91,132.90L128.94,133.12L128.92,133.29"/><path d="M127.71,133.96L127.71,133.99L127.72,134.00"/><path d="M128.07,133.09L128.06,133.10L128.05,133.11"/><path d="M127.92,133.25L127.91,133.25L127.90,133.27L127.93,133.23L127.92,133.24L127.92,133.25"/><path d="M127.70,133.80L127.69,133.82L127.69,133.84"/><path d="M127.64,132.88L126.97,132.50"/><path d="M127.91,133.25L127.92,133.25L127.92,133.24"/><path d="M127.93,133.23L127.98,133.18"/><path d="M127.81,133.42L127.90,133.27"/><path d="M127.80,133.44L127.76,133.52"/><path d="M127.11,132.39L127.35,132.20L127.60,132.09"/><path d="M128.25,134.04L128.19,134.09L128.12,134.12"/><path d="M128.27,134.03L128.34,133.97L128.40,133.89"/><path d="M128.16,134.47L128.16,134.47"/><path d="M128.63,134.01L128.55,134.13L128.40,134.28"/><path d="M128.41,133.88L128.47,133.80L128.51,133.71"/><path d="M128.52,133.69L128.57,133.61L128.59,133.52"/><path d="M128.62,133.30L128.62,133.23L128.61,133.17"/><path d="M128.59,133.13L128.58,133.08L128.55,133.05"/><path d="M128.33,132.97L128.36,132.96L128.38,132.97"/><path d="M128.19,133.01L128.21,133.00L128.23,132.99"/><path d="M128.46,132.98L128.49,132.99L128.51,133.01"/><path d="M128.62,133.33L128.62,133.41L128.60,133.49"/></g><g style="stroke:#000000;stroke-width:0.529"><path d="M126.81,134.11L126.67,133.94L126.52,133.66L126.59,133.38L126.59,133.30L126.67,133.04L126.80,132.78L126.88,132.66L126.97,132.50L127.11,132.39L127.15,132.34L127.35,132.20L127.55,132.11L127.60,132.09L127.87,131.98L128.54,132.36L128.84,132.73L128.99,133.01L128.92,133.29L128.91,133.37L128.84,133.63L128.71,133.89L128.63,134.01L128.54,134.17L128.40,134.28L128.36,134.33L128.16,134.47L127.96,134.56L127.91,134.58L127.64,134.69L126.97,134.30L126.81,134.11"/></g></g><g id="Actor_.20"><g style="stroke:#000000;stroke-width:0.176"><path d="M211.95,86.33L211.80,86.05L211.50,85.68L210.83,85.30"/><path d="M211.50,85.68L211.80,85.14L211.95,84.52L211.28,84.13"/><path d="M212.28,86.20L212.08,86.21L211.92,86.16L211.80,86.05L211.72,85.88L211.69,85.65L211.72,85.40L211.80,85.14L211.92,84.89L212.08,84.65L212.28,84.45L212.47,84.30L211.95,84.52"/><path d="M211.19,84.30L210.99,84.68L210.90,85.02"/><path d="M211.91,83.73L211.66,83.84L211.42,84.03"/><path d="M212.03,85.28L212.04,85.27L212.07,85.17L212.04,85.26L212.03,85.28L212.01,85.44L212.01,85.47L212.02,85.60L212.04,85.64L212.08,85.72L212.12,85.76L212.18,85.79L212.25,85.80L212.30,85.80L212.40,85.78L212.44,85.76L212.56,85.68L212.58,85.66L212.71,85.53L212.72,85.52L212.83,85.35L212.84,85.33L212.88,85.24L212.90,85.16L212.91,85.13L212.94,84.97L212.94,84.94L212.92,84.81L212.91,84.77L212.87,84.70"/><path d="M212.40,85.78L212.35,85.80L212.30,85.80"/><path d="M212.44,85.76L212.50,85.73L212.56,85.68"/><path d="M212.71,85.53L212.65,85.61L212.58,85.66"/><path d="M212.72,85.52L212.78,85.44L212.83,85.35"/><path d="M212.01,85.47L212.01,85.46L212.01,85.44"/><path d="M212.04,85.64L212.03,85.62L212.02,85.60"/><path d="M212.12,85.76L212.10,85.74L212.08,85.72"/><path d="M212.07,85.16L212.08,85.14L212.07,85.17L212.07,85.16L212.03,85.31L212.03,85.46L212.07,85.58L212.14,85.65L212.25,85.68L212.37,85.65L212.50,85.56L212.62,85.44L212.72,85.29L212.78,85.12L212.81,84.96L212.79,84.82L212.73,84.72L212.64,84.67L212.52,84.68L212.39,84.73L212.29,84.82L212.36,84.75L212.38,84.73L212.37,84.74L212.36,84.75"/><path d="M212.18,85.79L212.21,85.81L212.25,85.80"/><path d="M212.08,85.14L212.11,85.07L212.12,85.06L212.08,85.14"/><path d="M212.84,85.33L212.88,85.25L212.90,85.16"/><path d="M212.72,85.92L212.86,85.77L212.94,85.65"/><path d="M212.91,85.13L212.93,85.05L212.94,84.97"/><path d="M212.92,84.81L212.94,84.87L212.94,84.94"/><path d="M212.65,84.61L212.67,84.60L212.70,84.61L212.65,84.61L212.54,84.63L212.51,84.65L212.38,84.73"/><path d="M212.54,84.63L212.53,84.64L212.51,84.65"/><path d="M212.23,84.88L212.23,84.89L212.23,84.88L212.29,84.82"/><path d="M212.86,84.00L212.47,84.30L212.67,84.22L212.87,84.20"/><path d="M212.12,85.06L212.23,84.89"/><path d="M212.21,84.91L212.25,84.87"/><path d="M212.70,84.61L212.73,84.61"/><path d="M212.88,84.70L212.89,84.72L212.91,84.77"/><path d="M212.12,85.06L212.11,85.08"/><path d="M213.24,84.92L213.25,84.83"/></g><g style="stroke:#000000;stroke-width:0.529"><path d="M213.26,84.83L213.24,84.92L213.23,85.01L213.15,85.27L213.03,85.53L212.94,85.65L212.86,85.81L212.72,85.92L212.67,85.97L212.47,86.11L212.28,86.20L212.23,86.21L211.95,86.33L211.28,85.94L210.99,85.58L210.83,85.30L210.90,85.02L210.91,84.94L210.99,84.68L211.11,84.42L211.19,84.30L211.28,84.13L211.42,84.03L211.46,83.98L211.66,83.84L211.86,83.75L211.91,83.73L212.18,83.62L212.86,84.00L212.91,84.07"/></g></g><g id="Actor_.21"><g style="stroke:#000000;stroke-width:0.176"><path d="M131.40,39.84L131.27,39.61L131.23,39.29L131.29,38.92L131.43,38.54L131.66,38.19L131.93,37.90L132.23,37.71L132.52,37.64L132.76,37.69"/><path d="M132.21,39.60L132.31,39.66L132.29,39.66"/><path d="M132.31,39.66L132.38,39.70"/><path d="M133.03,38.56L132.91,38.49L132.90,38.48"/><path d="M134.71,41.04L134.64,40.92L134.62,40.75L134.65,40.56L134.73,40.36L134.84,40.18L134.99,40.03L135.14,39.93L135.29,39.90L135.41,39.92"/><path d="M135.20,40.98L135.07,41.04L134.96,41.04L134.87,40.99L134.81,40.89L134.79,40.76L134.82,40.60L134.88,40.44L134.97,40.29L135.09,40.17L135.22,40.09L135.34,40.06L135.44,40.08L135.51,40.16L135.55,40.27"/></g><g style="stroke:#000000;stroke-width:0.529"><path d="M131.40,39.84L131.32,39.80L131.19,39.57L131.15,39.25L131.21,38.88L131.35,38.49L131.58,38.14L131.85,37.85L132.15,37.66L132.44,37.59L132.68,37.65L132.76,37.69L132.94,37.87L133.03,38.15L133.03,38.56L135.41,39.92L135.51,40.02L135.55,40.16L135.55,40.27L135.55,40.42L135.50,40.58L135.42,40.74L135.32,40.88L135.20,40.98L135.11,41.03L134.96,41.10L134.82,41.10L134.71,41.04L132.38,39.70L132.18,39.82L131.89,39.95L131.62,39.96L131.40,39.84"/></g></g><g id="Actor_.22"><g style="stroke:#000000;stroke-width:0.176"><path d="M182.73,166.53L183.40,166.92L183.69,167.28L183.85,167.57"/><path d="M183.40,166.92L183.69,166.38L183.85,165.76L184.37,165.54L184.75,165.24"/><path d="M185.13,166.16L185.15,165.99L185.12,165.77L185.05,165.60L184.92,165.49L184.76,165.44L184.57,165.45L184.37,165.54L184.17,165.68L183.98,165.88L183.82,166.12L183.69,166.38L183.62,166.64L183.59,166.89L183.62,167.11L183.69,167.28L183.82,167.40L183.98,167.45L184.17,167.43"/><path d="M182.80,166.26L182.88,165.91L183.09,165.53"/><path d="M183.18,165.37L183.85,165.76"/><path d="M183.81,164.97L183.56,165.07L183.31,165.26"/><path d="M184.33,167.00L184.46,166.92L184.40,166.97L184.30,167.01L184.19,167.04L184.14,167.04L184.07,167.02L184.02,166.99L183.98,166.95L183.92,166.86L183.92,166.84L183.93,166.88"/><path d="M184.46,166.92L184.55,166.84L184.61,166.77L184.48,166.90"/><path d="M183.98,166.95L183.99,166.98L184.02,166.99"/><path d="M184.07,167.02L184.10,167.04L184.14,167.04"/><path d="M184.19,167.04L184.24,167.04L184.30,167.01"/><path d="M184.26,165.98L184.27,165.97L184.28,165.97L184.26,165.98L184.19,166.05L184.29,165.97L184.42,165.91L184.53,165.91L184.63,165.96L184.68,166.06L184.70,166.20L184.68,166.36L184.61,166.52L184.52,166.68L184.40,166.80L184.27,166.88L184.14,166.91L184.04,166.89L183.96,166.81L183.92,166.69L183.93,166.54L183.97,166.40L183.96,166.40L184.01,166.30L184.01,166.30L184.01,166.31L183.97,166.40"/><path d="M184.37,167.35L184.37,167.35"/><path d="M184.84,166.89L184.76,167.00L184.61,167.16"/><path d="M184.28,165.97L184.40,165.88L184.44,165.87L184.54,165.84L184.59,165.84L184.67,165.86L184.72,165.89L184.76,165.93L184.80,166.00L184.82,166.05L184.83,166.17L184.83,166.20L184.81,166.37L184.80,166.40L184.77,166.48L184.73,166.56L184.72,166.58L184.62,166.75L184.61,166.77"/><path d="M184.62,166.75L184.68,166.68L184.72,166.58"/><path d="M184.67,165.86L184.70,165.87L184.72,165.89"/><path d="M184.12,166.12L184.13,166.12L184.12,166.12L184.12,166.13L184.12,166.12"/><path d="M184.13,166.12L184.14,166.10L184.11,166.14L184.12,166.13"/><path d="M183.93,166.51L183.93,166.50L183.96,166.40L183.93,166.50L183.93,166.51L183.90,166.68L183.90,166.71L183.90,166.70L183.90,166.68"/><path d="M183.92,166.84L183.90,166.71"/><path d="M184.01,166.30L184.01,166.31"/><path d="M184.11,166.14L184.01,166.30"/><path d="M184.40,165.88L184.42,165.87L184.44,165.87"/><path d="M184.54,165.84L184.57,165.84L184.59,165.84"/><path d="M184.76,165.93L184.79,165.96L184.80,166.00"/><path d="M184.14,166.10L184.19,166.05"/><path d="M184.73,166.56L184.78,166.48L184.80,166.40"/><path d="M184.81,166.37L184.83,166.28L184.83,166.20"/><path d="M184.83,166.17L184.83,166.10L184.82,166.05"/></g><g style="stroke:#000000;stroke-width:0.529"><path d="M184.37,167.35L184.57,167.20L184.61,167.16L184.75,167.05L184.84,166.89L184.92,166.77L185.05,166.51L185.12,166.25L185.13,166.16L185.20,165.89L185.05,165.60L184.75,165.24L184.08,164.85L183.81,164.97L183.76,164.99L183.56,165.07L183.36,165.22L183.31,165.26L183.18,165.37L183.09,165.53L183.00,165.66L182.88,165.91L182.80,166.18L182.80,166.26L182.73,166.53L182.88,166.82L183.18,167.18L183.85,167.57L184.12,167.45L184.17,167.43L184.37,167.35"/></g></g><g id="Actor_.23"><g style="stroke:#000000;stroke-width:0.176"><path d="M127.64,199.81L127.48,199.52L127.19,199.16L126.52,198.77"/><path d="M126.88,197.77L126.67,198.15L126.59,198.50"/><path d="M128.03,199.27L128.09,199.25L128.03,199.28L127.98,199.28L128.03,199.27"/><path d="M128.09,199.25L128.12,199.24L128.25,199.16L128.27,199.14L128.40,199.01L128.41,199.00L128.51,198.82L128.52,198.81L128.56,198.72L128.59,198.64L128.60,198.61L128.62,198.44L128.62,198.41L128.61,198.29L128.59,198.24L128.55,198.17L128.51,198.13L128.46,198.10L128.38,198.08L128.33,198.08L128.23,198.11L128.19,198.13L128.07,198.21L128.05,198.22L128.06,198.21L128.07,198.21"/><path d="M127.72,198.74L127.72,198.75L127.72,198.74L127.75,198.65L127.72,198.74"/><path d="M127.72,198.75L127.70,198.92L127.69,198.95L127.69,198.94L127.70,198.92"/><path d="M127.72,199.09L127.72,199.12L127.71,199.10L127.71,199.08L127.72,199.09"/><path d="M127.72,199.12L127.77,199.19L127.81,199.23L127.78,199.22L127.77,199.19"/><path d="M127.86,199.26L127.89,199.28L127.93,199.28L127.86,199.26L127.81,199.23"/><path d="M127.98,199.28L127.93,199.28"/><path d="M128.05,198.22L127.98,198.29L128.08,198.21L128.21,198.15L128.32,198.15L128.42,198.20L128.47,198.30L128.49,198.44L128.47,198.60L128.40,198.76L128.31,198.92L128.19,199.04L128.06,199.12L127.94,199.15L127.83,199.13L127.75,199.05L127.72,198.93L127.72,198.78L127.76,198.64L127.76,198.64L127.80,198.55L127.80,198.54L127.76,198.64"/><path d="M127.96,199.67L127.77,199.69L127.61,199.64L127.48,199.52L127.41,199.35L127.38,199.13L127.41,198.88L127.48,198.62L127.19,199.16"/><path d="M127.75,198.65L127.76,198.64"/><path d="M127.69,198.95L127.71,199.08"/><path d="M127.92,198.36L127.91,198.37L127.92,198.36L127.98,198.29"/><path d="M127.91,198.37L127.90,198.38L127.93,198.34"/><path d="M128.92,198.40L128.94,198.23L128.91,198.01L128.84,197.84L128.71,197.73L128.55,197.68L128.36,197.69L128.16,197.78L127.96,197.92L127.77,198.12L127.61,198.36L127.48,198.62L127.64,198.00L128.16,197.78L128.54,197.48"/><path d="M127.64,198.00L126.97,197.61"/><path d="M127.80,198.54L127.81,198.54L127.80,198.55"/><path d="M127.81,198.54L127.90,198.38"/><path d="M127.60,197.21L127.35,197.31L127.11,197.50"/><path d="M128.12,199.24L128.19,199.21L128.25,199.16"/><path d="M128.41,199.00L128.47,198.92L128.51,198.82"/><path d="M128.27,199.14L128.34,199.08L128.40,199.01"/><path d="M128.16,199.59L128.16,199.59"/><path d="M128.52,198.81L128.57,198.72L128.59,198.64"/><path d="M128.63,199.13L128.55,199.24L128.40,199.40"/><path d="M128.62,198.44L128.62,198.52L128.60,198.61"/><path d="M128.62,198.41L128.62,198.34L128.61,198.29"/><path d="M128.59,198.24L128.58,198.20L128.55,198.17"/><path d="M128.46,198.10L128.49,198.11L128.51,198.13"/><path d="M128.19,198.13L128.21,198.11L128.23,198.11"/><path d="M128.33,198.08L128.36,198.08L128.38,198.08"/></g><g style="stroke:#000000;stroke-width:0.529"><path d="M128.16,199.59L128.36,199.44L128.40,199.40L128.54,199.29L128.63,199.13L128.71,199.01L128.84,198.75L128.91,198.49L128.92,198.40L128.99,198.13L128.84,197.84L128.54,197.48L127.87,197.09L127.60,197.21L127.55,197.23L127.35,197.31L127.15,197.46L127.11,197.50L126.97,197.61L126.88,197.77L126.80,197.90L126.67,198.15L126.59,198.42L126.59,198.50L126.52,198.77L126.67,199.06L126.97,199.42L127.64,199.81L127.91,199.69L127.96,199.67L128.16,199.59"/></g></g><g id="Actor_.24"><g style="stroke:#000000;stroke-width:0.176"><path d="M211.95,53.77L211.80,53.49L211.50,53.13L210.83,52.74"/><path d="M212.28,53.64L212.08,53.66L211.92,53.60L211.80,53.49L211.72,53.32L211.69,53.10L211.72,52.84L211.80,52.58L211.50,53.13"/><path d="M213.24,52.37L213.26,52.20L213.23,51.98L213.15,51.81L213.03,51.69L212.87,51.64L212.67,51.66L212.47,51.74L212.28,51.89L212.08,52.09L211.92,52.33L211.80,52.58L211.95,51.96L212.47,51.74L212.86,51.45"/><path d="M210.90,52.47L210.99,52.12L211.19,51.74"/><path d="M211.95,51.96L211.28,51.58"/><path d="M211.42,51.47L211.66,51.28"/><path d="M211.66,51.28L211.91,51.17"/><path d="M212.47,53.55L212.47,53.55"/><path d="M212.72,53.36L212.86,53.21L212.94,53.09"/><path d="M212.50,53.17L212.56,53.12L212.50,53.18L212.44,53.20L212.50,53.17"/><path d="M212.56,53.12L212.58,53.11L212.71,52.97L212.72,52.96L212.83,52.79L212.84,52.77L212.88,52.68L212.90,52.61L212.91,52.57L212.94,52.41L212.94,52.38L212.92,52.25L212.91,52.21L212.86,52.13L212.82,52.09L212.77,52.06L212.70,52.05L212.65,52.05L212.54,52.08L212.51,52.09L212.38,52.17L212.36,52.19L212.37,52.18L212.38,52.17"/><path d="M212.83,52.79L212.78,52.88L212.72,52.96"/><path d="M212.84,52.77L212.88,52.69L212.90,52.61"/><path d="M212.91,52.57L212.93,52.49L212.94,52.41"/><path d="M212.92,52.25L212.94,52.31L212.94,52.38"/><path d="M212.23,52.33L212.23,52.32L212.23,52.33L212.23,52.33L212.23,52.33"/><path d="M212.23,52.32L212.36,52.19"/><path d="M212.11,52.51L212.07,52.61L212.11,52.51L212.12,52.50L212.11,52.51"/><path d="M212.04,52.71L212.07,52.61L212.04,52.71L212.03,52.72L212.04,52.71"/><path d="M212.01,52.88L212.01,52.92L212.01,52.90L212.03,52.72"/><path d="M212.01,52.92L212.02,53.04L212.04,53.08L212.03,53.07L212.02,53.04"/><path d="M212.10,53.18L212.12,53.20L212.10,53.19L212.08,53.16L212.10,53.18"/><path d="M212.12,53.20L212.18,53.23L212.25,53.25L212.21,53.25L212.18,53.23"/><path d="M212.44,53.20L212.40,53.22L212.30,53.24L212.25,53.25"/><path d="M212.30,53.24L212.35,53.24L212.40,53.22"/><path d="M212.07,52.60L212.03,52.75L212.03,52.90L212.07,53.02L212.14,53.09L212.25,53.12L212.37,53.09L212.50,53.01L212.62,52.88L212.72,52.73L212.78,52.56L212.81,52.40L212.79,52.27L212.73,52.17L212.64,52.12L212.52,52.12L212.39,52.18L212.29,52.26"/><path d="M212.25,52.31L212.21,52.35L212.23,52.33"/><path d="M212.11,52.52L212.12,52.50L212.12,52.50"/><path d="M212.04,53.08L212.08,53.16"/><path d="M212.58,53.11L212.65,53.05L212.71,52.97"/><path d="M212.21,52.35L212.12,52.50"/><path d="M212.91,52.21L212.89,52.16L212.86,52.13"/><path d="M212.77,52.06L212.80,52.07L212.82,52.09"/><path d="M212.70,52.05L212.67,52.04L212.65,52.05"/><path d="M212.51,52.09L212.53,52.08L212.54,52.08"/></g><g style="stroke:#000000;stroke-width:0.529"><path d="M211.66,51.28L211.86,51.19L211.91,51.17L212.18,51.06L212.86,51.45L213.15,51.81L213.31,52.09L213.24,52.37L213.23,52.45L213.15,52.71L213.03,52.97L212.94,53.09L212.86,53.25L212.72,53.36L212.67,53.41L212.47,53.55L212.28,53.64L212.23,53.66L211.95,53.77L211.28,53.39L210.99,53.02L210.83,52.74L210.90,52.47L210.91,52.38L210.99,52.12L211.11,51.86L211.19,51.74L211.28,51.58L211.42,51.47L211.46,51.42L211.66,51.28"/></g></g><g id="Actor_.25"><g style="stroke:#000000;stroke-width:0.176"><path d="M182.73,68.86L183.40,69.25L183.69,69.61L183.85,69.89"/><path d="M183.40,69.25L183.69,68.70L183.85,68.08L184.37,67.86L184.75,67.57"/><path d="M185.13,68.49L185.15,68.32L185.12,68.10L185.05,67.93L184.92,67.81L184.76,67.76L184.57,67.78L184.37,67.86L184.17,68.01L183.98,68.21L183.82,68.45L183.69,68.70L183.62,68.96L183.59,69.22L183.62,69.44L183.69,69.61L183.82,69.72L183.98,69.78L184.17,69.76"/><path d="M183.09,67.86L182.88,68.24L182.80,68.59"/><path d="M183.81,67.29L183.56,67.40L183.31,67.59"/><path d="M183.18,67.70L183.85,68.08"/><path d="M184.33,69.32L184.40,69.30L184.46,69.24L184.33,69.32L184.30,69.34L184.19,69.37L184.14,69.37L184.07,69.35L184.02,69.32L183.98,69.28L183.99,69.31L184.02,69.32"/><path d="M184.07,69.35L184.10,69.37L184.14,69.37"/><path d="M184.37,69.67L184.37,69.67"/><path d="M183.98,69.28L183.93,69.20L183.92,69.16L183.90,69.04L183.90,69.00L183.93,68.83L183.96,68.73L184.01,68.63L184.01,68.62L183.96,68.73L183.93,68.83L183.93,68.84"/><path d="M184.19,69.37L184.24,69.36L184.30,69.34"/><path d="M184.61,69.48L184.76,69.33L184.84,69.21"/><path d="M184.28,68.29L184.27,68.30L184.26,68.31L184.28,68.29L184.40,68.21L184.44,68.20L184.54,68.17L184.59,68.17L184.67,68.18L184.72,68.22L184.76,68.25L184.80,68.33L184.82,68.37L184.83,68.50L184.83,68.53L184.81,68.70L184.80,68.73L184.77,68.80L184.73,68.89L184.72,68.91L184.62,69.08L184.61,69.09L184.48,69.23L184.46,69.24"/><path d="M184.72,68.91L184.68,69.00L184.62,69.08"/><path d="M184.76,68.25L184.79,68.28L184.80,68.33"/><path d="M184.12,68.45L184.12,68.45L184.12,68.45L184.13,68.44L184.12,68.45"/><path d="M183.90,69.00L183.90,69.02L183.90,69.04"/><path d="M183.97,68.72L183.93,68.87L183.92,69.02L183.96,69.14L184.04,69.22L184.14,69.24L184.27,69.21L184.40,69.13L184.52,69.00L184.61,68.85L184.68,68.68L184.70,68.52L184.68,68.39L184.63,68.29L184.53,68.24L184.42,68.24L184.29,68.30L184.19,68.38L184.26,68.31"/><path d="M184.12,68.45L184.11,68.47L184.14,68.43L184.13,68.44"/><path d="M184.01,68.64L184.01,68.62L184.01,68.62"/><path d="M184.01,68.62L184.11,68.47"/><path d="M184.40,68.21L184.42,68.20L184.44,68.20"/><path d="M183.92,69.16L183.92,69.19L183.93,69.20"/><path d="M184.54,68.17L184.57,68.16L184.59,68.17"/><path d="M184.67,68.18L184.70,68.19L184.72,68.22"/><path d="M184.48,69.23L184.55,69.17L184.61,69.09"/><path d="M184.14,68.43L184.19,68.38"/><path d="M184.73,68.89L184.78,68.81L184.80,68.73"/><path d="M184.83,68.50L184.83,68.43L184.82,68.37"/><path d="M184.83,68.53L184.83,68.61L184.81,68.70"/></g><g style="stroke:#000000;stroke-width:0.529"><path d="M182.96,69.24L183.18,69.51L183.85,69.89L184.12,69.78L184.17,69.76L184.37,69.67L184.57,69.53L184.61,69.48L184.75,69.37L184.84,69.21L184.92,69.09L185.05,68.83L185.12,68.57L185.13,68.49L185.20,68.21L185.05,67.93L184.75,67.57L184.08,67.18L183.81,67.29L183.76,67.31L183.56,67.40L183.36,67.54L183.31,67.59L183.18,67.70L183.09,67.86L183.00,67.98L182.88,68.24L182.80,68.50L182.80,68.59L182.73,68.86L182.88,69.14L182.96,69.24"/></g></g><g><g><path style="stroke:#000000;stroke-width:0.125;stroke-dasharray:2.1 1.4 0.7 1.4" d="M190.11,137.49L163.28,122.11"/><path style="stroke:#000000;stroke-width:0.125;stroke-dasharray:2.1 1.4 0.7 1.4" d="M194.53,140.03L194.49,140.00"/></g></g><g><g><path style="stroke:#000000;stroke-width:0.125;stroke-dasharray:2.1 1.4 0.7 1.4" d="M195.28,140.46L211.11,149.54"/></g></g><g><g><path style="stroke:#000000;stroke-width:0.125;stroke-dasharray:2.1 1.4 0.7 1.4" d="M190.50,105.16L163.28,89.55"/><path style="stroke:#000000;stroke-width:0.125;stroke-dasharray:2.1 1.4 0.7 1.4" d="M194.53,107.47L194.49,107.44"/></g></g><g><g><path style="stroke:#000000;stroke-width:0.125;stroke-dasharray:2.1 1.4 0.7 1.4" d="M162.37,153.82L135.18,138.23"/><path style="stroke:#000000;stroke-width:0.125;stroke-dasharray:2.1 1.4 0.7 1.4" d="M166.42,156.15L166.38,156.12"/></g></g><g><g><path style="stroke:#000000;stroke-width:0.125;stroke-dasharray:2.1 1.4 0.7 1.4" d="M195.28,107.90L211.11,116.98"/></g></g><g><g><path style="stroke:#000000;stroke-width:0.125;stroke-dasharray:2.1 1.4 0.7 1.4" d="M167.17,156.58L183.00,165.66"/></g></g><g><g><path style="stroke:#000000;stroke-width:0.125;stroke-dasharray:2.1 1.4 0.7 1.4" d="M182.89,68.23L169.65,60.64"/><path style="stroke:#000000;stroke-width:0.125;stroke-dasharray:2.1 1.4 0.7 1.4" d="M184.78,69.32L190.50,72.60"/><path style="stroke:#000000;stroke-width:0.125;stroke-dasharray:2.1 1.4 0.7 1.4" d="M194.53,74.91L194.49,74.89"/></g></g><g><g><path style="stroke:#000000;stroke-width:0.125;stroke-dasharray:2.1 1.4 0.7 1.4" d="M113.68,158.13L126.68,165.59"/><path style="stroke:#000000;stroke-width:0.125;stroke-dasharray:2.1 1.4 0.7 1.4" d="M134.26,169.94L128.57,166.68"/><path style="stroke:#000000;stroke-width:0.125;stroke-dasharray:2.1 1.4 0.7 1.4" d="M138.28,172.24L138.32,172.27"/></g></g><g><g><path style="stroke:#000000;stroke-width:0.125;stroke-dasharray:2.1 1.4 0.7 1.4" d="M195.28,75.34L211.11,84.42"/></g></g><g><g><path style="stroke:#000000;stroke-width:0.125;stroke-dasharray:2.1 1.4 0.7 1.4" d="M139.07,172.70L154.90,181.78"/></g></g><g><g><path style="stroke:#000000;stroke-width:0.125;stroke-dasharray:2.1 1.4 0.7 1.4" d="M188.90,39.12L163.28,24.43"/><path style="stroke:#000000;stroke-width:0.125;stroke-dasharray:2.1 1.4 0.7 1.4" d="M194.53,42.35L194.49,42.33"/></g></g><g><g><path style="stroke:#000000;stroke-width:0.125;stroke-dasharray:2.1 1.4 0.7 1.4" d="M78.97,170.47L104.63,185.18"/><path style="stroke:#000000;stroke-width:0.125;stroke-dasharray:2.1 1.4 0.7 1.4" d="M110.21,188.39L110.17,188.36"/></g></g><g><g><path style="stroke:#000000;stroke-width:0.125;stroke-dasharray:2.1 1.4 0.7 1.4" d="M195.28,42.79L211.11,51.86"/></g></g><g><g><path style="stroke:#000000;stroke-width:0.125;stroke-dasharray:2.1 1.4 0.7 1.4" d="M110.97,188.82L126.79,197.90"/></g></g><g><g><path style="stroke:#000000;stroke-width:0.125;stroke-dasharray:2.1 1.4 0.7 1.4" d="M160.79,55.24L135.18,40.55"/><path style="stroke:#000000;stroke-width:0.125;stroke-dasharray:2.1 1.4 0.7 1.4" d="M166.42,58.47L166.38,58.45"/></g></g><g><g><path style="stroke:#000000;stroke-width:0.125;stroke-dasharray:2.1 1.4 0.7 1.4" d="M78.97,137.91L104.63,152.62"/><path style="stroke:#000000;stroke-width:0.125;stroke-dasharray:2.1 1.4 0.7 1.4" d="M110.21,155.83L110.17,155.81"/></g></g><g><g><path style="stroke:#000000;stroke-width:0.125;stroke-dasharray:2.1 1.4 0.7 1.4" d="M167.17,58.91L183.00,67.98"/></g></g><g><g><path style="stroke:#000000;stroke-width:0.125;stroke-dasharray:2.1 1.4 0.7 1.4" d="M110.97,156.26L126.79,165.34"/></g></g><g><g><path style="stroke:#000000;stroke-width:0.125;stroke-dasharray:2.1 1.4 0.7 1.4" d="M132.69,71.36L107.07,56.67"/><path style="stroke:#000000;stroke-width:0.125;stroke-dasharray:2.1 1.4 0.7 1.4" d="M138.28,74.57L138.32,74.59"/></g></g><g><g><path style="stroke:#000000;stroke-width:0.125;stroke-dasharray:2.1 1.4 0.7 1.4" d="M78.97,105.35L104.63,120.07"/><path style="stroke:#000000;stroke-width:0.125;stroke-dasharray:2.1 1.4 0.7 1.4" d="M110.21,123.27L110.17,123.25"/></g></g><g><g><path style="stroke:#000000;stroke-width:0.125;stroke-dasharray:2.1 1.4 0.7 1.4" d="M139.07,75.03L154.90,84.10"/></g></g><g><g><path style="stroke:#000000;stroke-width:0.125;stroke-dasharray:2.1 1.4 0.7 1.4" d="M110.97,123.70L126.79,132.78"/></g></g><g><g><path style="stroke:#000000;stroke-width:0.125;stroke-dasharray:2.1 1.4 0.7 1.4" d="M78.97,72.79L104.98,87.71"/><path style="stroke:#000000;stroke-width:0.125;stroke-dasharray:2.1 1.4 0.7 1.4" d="M110.21,90.71L110.17,90.69"/></g></g><g><g><path style="stroke:#000000;stroke-width:0.125;stroke-dasharray:2.1 1.4 0.7 1.4" d="M110.97,91.15L126.79,100.23"/></g></g><g id="PMI.0"><g><path style="stroke:#000000;stroke-width:0.125" d="M243.42,94.10L212.87,84.20"/></g><g><path style="fill:#000000" d="M213.62,84.20L213.61,84.13L213.60,84.05L213.58,83.98L213.56,83.91L213.53,83.85L213.49,83.78L213.44,83.72L213.40,83.67L213.34,83.62L213.28,83.58L213.22,83.54L213.15,83.51L213.08,83.48L213.01,83.46L212.94,83.45L212.87,83.45L212.79,83.45L212.72,83.46L212.65,83.48L212.58,83.51L212.51,83.54L212.45,83.58L212.39,83.62L212.33,83.67L212.29,83.72L212.24,83.78L212.20,83.85L212.17,83.91L212.15,83.98L212.13,84.05L212.12,84.13L212.12,84.20L212.12,84.27L212.13,84.35L212.15,84.42L212.17,84.49L212.20,84.55L212.24,84.62L212.29,84.68L212.33,84.73L212.39,84.78L212.45,84.82L212.51,84.86L212.58,84.89L212.65,84.92L212.72,84.93L212.79,84.95L212.87,84.95L212.94,84.95L213.01,84.93L213.08,84.92L213.15,84.89L213.22,84.86L213.28,84.82L213.34,84.78L213.40,84.73L213.44,84.68L213.49,84.62L213.53,84.55L213.56,84.49L213.58,84.42L213.60,84.35L213.61,84.27z"/></g><g><text xml:space="preserve" fill="#000000" stroke-width="0" x="244.20" y="98.92" font-size="3.78" opacity="1.00" font-family="Arial">ND0511</text></g></g><g id="PMI.1"><g><path style="stroke:#000000;stroke-width:0.125" d="M53.85,126.38L98.08,132.23"/></g><g><path style="fill:#000000" d="M98.83,132.23L98.83,132.16L98.82,132.09L98.80,132.02L98.78,131.95L98.74,131.88L98.71,131.82L98.66,131.76L98.61,131.70L98.56,131.65L98.50,131.61L98.44,131.57L98.37,131.54L98.30,131.52L98.23,131.50L98.16,131.49L98.08,131.48L98.01,131.49L97.94,131.50L97.86,131.52L97.80,131.54L97.73,131.57L97.67,131.61L97.61,131.65L97.55,131.70L97.50,131.76L97.46,131.82L97.42,131.88L97.39,131.95L97.36,132.02L97.35,132.09L97.34,132.16L97.33,132.23L97.34,132.31L97.35,132.38L97.36,132.45L97.39,132.52L97.42,132.59L97.46,132.65L97.50,132.71L97.55,132.76L97.61,132.81L97.67,132.86L97.73,132.89L97.80,132.93L97.86,132.95L97.94,132.97L98.01,132.98L98.08,132.98L98.16,132.98L98.23,132.97L98.30,132.95L98.37,132.93L98.44,132.89L98.50,132.86L98.56,132.81L98.61,132.76L98.66,132.71L98.71,132.65L98.74,132.59L98.78,132.52L98.80,132.45L98.82,132.38L98.83,132.31z"/></g><g><text xml:space="preserve" fill="#000000" stroke-width="0" x="34.91" y="127.41" font-size="3.80" opacity="1.00" font-family="Arial">BPA27842</text></g></g><g id="PMI.2"><g><path style="stroke:#000000;stroke-width:0.125" d="M49.73,88.75L76.27,103.39"/></g><g><path style="fill:#000000" d="M77.02,103.39L77.02,103.32L77.01,103.25L76.99,103.18L76.97,103.11L76.94,103.04L76.90,102.98L76.85,102.92L76.80,102.86L76.75,102.81L76.69,102.77L76.63,102.73L76.56,102.70L76.49,102.68L76.42,102.66L76.35,102.65L76.27,102.64L76.20,102.65L76.13,102.66L76.06,102.68L75.99,102.70L75.92,102.73L75.86,102.77L75.80,102.81L75.74,102.86L75.69,102.92L75.65,102.98L75.61,103.04L75.58,103.11L75.56,103.18L75.54,103.25L75.53,103.32L75.52,103.39L75.53,103.47L75.54,103.54L75.56,103.61L75.58,103.68L75.61,103.75L75.65,103.81L75.69,103.87L75.74,103.92L75.80,103.97L75.86,104.02L75.92,104.06L75.99,104.09L76.06,104.11L76.13,104.13L76.20,104.14L76.27,104.14L76.35,104.14L76.42,104.13L76.49,104.11L76.56,104.09L76.63,104.06L76.69,104.02L76.75,103.97L76.80,103.92L76.85,103.87L76.90,103.81L76.94,103.75L76.97,103.68L76.99,103.61L77.01,103.54L77.02,103.47z"/></g><g><text xml:space="preserve" fill="#000000" stroke-width="0" x="37.17" y="87.98" font-size="3.78" opacity="1.00" font-family="Arial">ND0191</text></g></g><g/><g><g/><g><text xml:space="preserve" fill="#000000" stroke-width="0" x="7.49" y="11.80" font-size="4.53" opacity="1.00" font-family="Arial" font-weight="bold">BPA27841</text></g></g><g id="paperID" visibility="hidden" opacity="0.00" transform="scale(0.000100)"><path style="stroke:#000000;stroke-width:0.500;fill:#e6e6e6;fill-rule:evenodd" d="M-2000.00,-2000.00L2297.00,-2000.00L2297.00,2210.00L-2000.00,2210.00zM0.00,0.00L297.00,0.00L297.00,210.00L0.00,210.00z"/><path style="fill:#000000;fill-opacity:0.118" d="M3.00,210.00L297.00,210.00L297.00,3.00L300.00,3.00L300.00,213.00L3.00,213.00z"/></g></g></svg>
