<?xml version="1.0" encoding="UTF-8" standalone="no"?>
<svg xmlns="http://www.w3.org/2000/svg" xmlns:xlink="http://www.w3.org/1999/xlink" width="297.000mm" height="210.000mm" viewBox="0.000000 0.000000 297.000000 210.000000" stroke-linejoin="round" stroke-linecap="round" fill="none" fill-rule="evenodd"><desc>Composer Export</desc><script type="text/ecmascript"><![CDATA[
if(typeof(top) != "undefined")
{
	top.ShowPaper = ShowPaper;
}
function ShowPaper()
{
  var svgDocument = getDocument();
  var paper = svgDocument.getElementById("paperID");
  if(paper)
  {
    paper.setAttribute("transform","scale(1)");
    paper.setAttribute("opacity","1");
    paper.setAttribute("visibility","visible");
  }
  var svg = svgDocument.getRootElement();
  if(svg)
  {
    svg.setAttribute("width","307.000mm");
    svg.setAttribute("height","220.000mm");
    svg.setAttribute("viewBox","-5.000000 -5.000000 307.000000 220.000000");
  }
}
]]></script><defs/><g><path style="fill:#000000;fill-opacity:0.098;fill-rule:evenodd" d="M76.66,21.06L77.56,21.44L79.03,22.16L81.78,24.34L83.24,25.99L85.06,28.56L86.71,32.20L87.61,35.68L88.16,39.52L88.16,46.33L87.80,49.44L86.88,54.18L85.42,59.30L83.41,64.78L80.67,70.44L77.38,76.11L74.40,80.25L71.17,84.33L66.53,89.00L64.06,91.10L62.33,92.47L59.30,94.55L56.14,96.32L52.49,97.97L49.39,98.89L46.46,99.43L41.58,99.43L39.57,99.07L36.83,98.15L34.66,97.04L33.02,95.76L31.19,94.12L28.98,91.03L27.87,88.48L27.52,86.46L27.34,84.45L27.34,75.92L28.01,70.39L29.70,63.49L31.35,58.57L33.67,53.21L34.56,51.37L37.22,46.54L40.96,40.96L42.97,38.41L44.80,36.21L47.35,33.47L49.75,31.11L53.76,27.83L57.97,25.09L62.17,22.89L65.09,21.80L67.83,21.07L70.02,20.70L74.64,20.70zM127.62,50.47L130.17,51.57L132.73,53.22L133.84,54.29L135.30,55.94L136.40,57.58L138.03,60.89L139.12,64.72L139.67,68.38L139.67,75.74L138.94,81.04L137.66,86.33L136.01,91.26L134.31,95.41L131.27,101.50L128.71,105.69L125.71,110.00L122.99,113.31L120.33,116.31L117.31,119.14L114.84,121.23L111.46,123.70L108.74,125.36L106.55,126.46L103.63,127.74L100.39,128.71L97.24,129.20L93.64,129.20L90.71,128.66L88.34,127.74L86.53,126.81L84.16,124.98L82.88,123.71L81.22,121.35L79.93,118.80L79.32,116.99L79.59,116.99L79.39,115.69L78.85,113.13L78.48,110.20L78.48,104.05L78.97,99.61L80.12,94.37L81.21,90.53L83.35,84.81L85.34,80.59L87.53,76.57L90.55,71.74L92.20,69.55L94.75,66.26L97.05,63.63L99.79,60.89L103.45,57.78L106.74,55.41L109.35,53.82L112.27,52.36L114.40,51.38L118.43,50.29L120.43,49.93L124.87,49.93zM237.76,101.80L240.49,102.36L243.78,103.45L245.98,104.72L248.73,106.90L250.93,109.45L252.73,112.21L254.38,115.86L255.11,118.06L256.02,122.08L256.57,126.83L256.57,133.64L256.39,136.57L256.02,139.49L254.92,145.14L253.28,151.18L251.63,155.74L249.57,160.62L246.71,166.34L244.09,170.85L240.49,176.20L237.70,179.80L235.51,182.35L232.83,185.33L229.55,188.46L226.17,191.28L223.25,193.48L220.24,195.40L217.24,197.15L212.85,199.34L209.39,200.63L205.79,201.59L201.72,202.08L200.49,202.08L197.57,201.90L195.37,201.55L192.09,200.44L188.64,198.59L138.41,169.74L136.03,167.72L134.57,166.27L132.37,162.99L130.90,160.07L130.09,157.89L130.16,157.87L180.22,186.58L180.59,186.62L179.49,181.62L179.12,179.07L178.94,175.96L178.94,172.55L179.31,167.25L179.47,165.95L179.61,165.73L182.62,165.97L183.63,160.44L185.28,154.60L187.11,149.48L189.17,144.60L191.00,140.95L193.11,137.03L196.13,132.20L199.42,127.63L201.80,124.72L202.89,123.43L206.08,119.87L209.57,116.60L212.67,114.04L215.97,111.67L218.52,110.02L222.17,108.01L226.98,106.06L228.81,105.45L227.87,103.08L227.83,102.72L229.66,102.17L232.04,101.80L235.56,101.61zM213.46,103.08L213.47,105.34L211.99,105.28L211.28,104.90L211.10,104.72L211.07,103.67L211.93,103.07L213.10,102.87zM131.27,145.09L132.01,145.90L130.30,146.94L129.81,146.93L129.61,146.38L129.61,145.51L129.91,144.89L130.91,144.90zM119.39,153.32L119.59,153.66L119.58,155.20L119.33,156.05L112.59,159.90L111.87,159.90L111.66,159.69L112.59,159.53L112.83,158.98L113.19,159.03L112.94,157.52L119.23,153.94L118.80,153.10zM111.91,157.51L112.10,158.11L111.49,158.44L110.95,158.49L110.57,157.49L111.19,156.96zM73.73,22.35L76.10,23.08L78.11,24.18L79.60,25.25L81.58,27.46L83.07,30.00L85.06,34.03L86.15,36.97L86.88,40.06L87.25,43.72L87.07,48.71L86.70,51.63L85.79,56.01L84.68,59.66L82.50,65.51L80.86,68.98L78.11,73.91L75.37,78.11L72.56,81.88L70.81,83.96L67.72,87.08L65.25,89.37L62.43,91.65L59.14,93.84L55.83,95.65L52.86,96.88L49.25,97.84L46.46,98.15L44.69,98.15L42.86,97.97L40.12,97.24L37.20,95.96L35.02,94.66L33.38,93.20L31.72,91.03L30.07,87.74L28.97,84.09L28.43,80.25L28.43,74.28L28.92,69.66L30.03,64.73L31.53,59.66L33.55,54.74L36.29,49.25L38.58,45.34L41.32,41.32L43.98,37.95L47.08,34.48L49.38,32.21L53.09,29.16L56.50,26.73L60.76,24.42L64.17,23.08L67.28,22.35L68.56,22.16L72.63,22.16zM126.35,52.29L128.34,53.03L129.62,53.77L131.63,55.23L133.11,56.85L134.92,59.61L136.34,62.94L136.93,63.44L137.66,66.00L138.21,70.02L138.21,75.74L138.03,77.93L137.48,81.40L136.20,86.70L134.92,90.53L132.55,96.38L129.80,101.49L127.24,105.69L124.33,109.72L121.77,112.82L118.30,116.47L115.76,118.68L114.02,120.04L111.83,121.69L109.11,123.36L104.73,125.55L101.85,126.51L98.51,127.19L94.19,127.19L92.17,126.83L90.71,126.47L88.16,125.18L86.35,123.89L84.71,122.24L82.87,119.52L81.58,116.78L80.67,113.68L80.31,111.67L80.12,110.39L79.94,107.83L79.94,104.78L80.25,100.52L81.35,94.87L82.49,90.90L84.09,86.46L85.97,82.13L89.10,76.31L91.19,73.11L93.57,69.82L96.03,66.81L97.86,64.80L101.44,61.25L104.78,58.57L108.62,56.01L113.36,53.63L116.79,52.49L118.24,52.12L119.70,51.94L124.33,51.94zM227.36,133.02L227.35,134.74L227.16,135.28L226.36,136.86L225.00,138.05L224.18,138.34L223.50,138.35L222.79,137.78L222.59,137.25L222.59,135.83L222.96,134.74L223.98,133.20L224.97,132.36L225.46,132.10L225.88,132.10zM250.01,133.75L250.36,134.49L250.18,136.39L249.57,137.78L248.56,139.33L246.84,140.53L245.23,140.54L244.53,139.97L244.32,139.44L244.33,137.47L245.00,135.59L246.27,133.93L247.93,132.83L248.35,132.83zM216.04,139.59L216.03,141.14L215.66,142.23L214.56,143.87L213.42,144.74L211.83,144.72L211.46,144.35L211.26,143.82L211.27,142.22L211.64,141.13L212.65,139.59L213.95,138.68L214.57,138.68zM224.99,147.63L225.15,148.56L225.15,150.26L224.97,151.36L223.88,154.47L222.36,156.78L221.33,157.95L219.96,159.14L218.70,159.88L217.61,160.26L215.83,160.26L214.94,159.87L214.01,158.79L213.63,157.89L213.46,156.96L213.46,155.20L213.96,152.95L215.13,150.29L216.86,148.00L218.57,146.42L220.88,145.28zM227.36,161.69L227.35,163.42L227.16,163.96L226.09,165.81L224.74,166.84L223.15,166.82L222.79,166.45L222.59,165.93L222.59,164.51L222.96,163.42L223.71,162.16L224.18,161.52L225.27,160.79L225.89,160.79zM194.30,166.08L194.29,168.17L193.38,170.36L192.02,171.93L190.76,172.68L189.15,172.69L188.43,171.77L188.25,171.22L188.25,169.99L188.74,168.29L190.19,166.08L191.85,164.99L192.46,164.99zM216.03,168.28L216.02,169.63L215.84,170.36L215.23,171.58L214.03,172.94L213.05,173.41L211.82,173.40L211.46,173.03L211.26,172.50L211.27,170.90L211.64,169.81L212.66,168.27L213.64,167.43L214.40,167.20z"/><g id="Actor_.0"><g style="stroke:#000000;stroke-width:0.176"><path d="M128.16,144.10L128.38,140.11L128.88,135.99L129.66,131.77L130.72,127.49L132.05,123.17L133.64,118.85L135.48,114.56L136.51,112.44L137.55,110.32L139.84,106.18L142.33,102.17L145.00,98.30L147.84,94.62L150.81,91.14L152.36,89.52L153.91,87.90L157.11,84.92L160.38,82.22L163.69,79.81L167.03,77.73"/><path d="M130.28,147.78L130.51,148.05L131.01,148.48L131.27,148.63L131.52,148.72L131.76,148.77L131.98,148.76L132.18,148.69L132.43,148.49L132.58,148.20L132.64,147.95L132.66,147.67L132.64,147.36L132.48,146.70L132.18,146.04L131.98,145.74L131.76,145.47L131.52,145.23L131.27,145.03L131.01,144.89L130.75,144.79L130.51,144.75L130.28,144.77L130.07,144.84L129.89,144.96L129.75,145.13L129.64,145.34L129.57,145.60L129.55,145.88L129.57,146.19L129.64,146.51L129.81,146.99L130.07,147.49L130.28,147.78"/><path d="M246.11,104.78L243.72,103.44L241.13,102.46L238.38,101.85L235.47,101.60L232.43,101.73L229.28,102.23L226.04,103.09L222.75,104.32L219.41,105.90L217.74,106.81L216.07,107.82L212.73,110.06L209.44,112.62L206.20,115.46L203.05,118.57L200.01,121.94L197.10,125.52L194.35,129.30L191.76,133.24L189.37,137.32L187.19,141.51L185.24,145.78L183.52,150.09L182.06,154.42L180.86,158.72L179.94,162.98L179.30,167.15L178.94,171.21L178.87,175.13L179.08,178.87L179.58,182.41L180.37,185.73L181.43,188.80L182.76,191.59L184.35,194.09L186.18,196.28L188.18,198.07L190.54,199.65"/><path d="M219.29,195.99L216.09,197.67L212.90,199.02L209.76,200.03L206.70,200.68L203.72,200.98L202.77,200.97L200.86,200.93L198.14,200.51L195.57,199.75L193.19,198.63L190.99,197.18L189.00,195.39L187.24,193.29L185.71,190.89L184.44,188.21L183.42,185.27L182.66,182.08L182.18,178.68L181.98,175.09L182.04,171.33L182.39,167.43L183.01,163.42L183.89,159.34L185.04,155.21L186.45,151.05L188.09,146.92L189.97,142.82L192.06,138.80L194.36,134.88L196.84,131.09L199.48,127.46L202.28,124.02L202.77,123.48L205.18,120.82L208.22,117.81L211.32,115.08L214.49,112.62L217.69,110.47L219.29,109.51L220.90,108.63L224.10,107.11L227.27,105.93L230.37,105.10L233.39,104.62L235.79,104.52L236.31,104.50L239.11,104.74L241.75,105.33L244.23,106.27L246.53,107.56L248.62,109.18L250.50,111.12L252.14,113.37L253.55,115.91L254.70,118.73L255.58,121.80L256.20,125.09L256.55,128.60L256.61,132.28"/><path d="M189.31,172.67L189.02,172.57L188.50,171.98L188.22,171.11L188.22,170.04L188.50,168.85L189.02,167.67L189.74,166.58L190.61,165.69L191.53,165.08L192.44,164.80L193.24,164.88L193.87,165.31L194.27,166.04L194.41,167.02L194.27,168.17L193.87,169.36L193.24,170.51L192.44,171.51L191.53,172.27L190.61,172.72L189.74,172.82L189.31,172.67"/><path d="M211.98,173.41L211.93,173.40L211.43,172.94L211.16,172.20L211.16,171.25L211.41,170.27L211.93,169.16L212.62,168.25L213.41,167.56L214.23,167.17L214.98,167.12L215.58,167.42L215.97,168.03L216.11,168.89L215.97,169.90L215.58,170.96L214.98,171.95L214.23,172.76L213.41,173.30L212.62,173.53L211.98,173.41"/><path d="M211.43,144.33L211.16,143.58L211.16,142.63L211.43,141.58L211.93,140.55L212.62,139.63L213.41,138.95L214.23,138.56L214.98,138.51L215.58,138.80L215.97,139.42L216.11,140.27L215.97,141.29L215.58,142.35L214.98,143.33L214.23,144.14L213.41,144.69L212.62,144.91L211.93,144.79L211.43,144.33"/><path d="M211.52,105.07L211.28,104.91L211.10,104.72L210.97,104.53L210.89,104.32L210.88,104.10L210.92,103.89L211.02,103.68L211.18,103.49L211.39,103.32L211.65,103.17L211.95,103.06L212.27,102.97L212.98,102.89L213.34,102.91L214.04,103.04L214.63,103.28L214.86,103.44L215.05,103.61L215.18,103.81L215.26,104.00L215.27,104.21L215.23,104.41L215.12,104.60L214.96,104.79L214.75,104.95L214.49,105.10L214.19,105.23L213.87,105.32L213.17,105.41L212.45,105.37L211.80,105.20L211.52,105.07"/><path d="M214.09,158.92L214.23,159.19L215.00,159.92L215.98,160.32L217.11,160.37L218.34,160.06L219.61,159.40L220.88,158.44L222.06,157.21L223.11,155.79L224.00,154.20L224.66,152.55L225.07,150.91L225.21,149.36L225.07,147.97L224.66,146.80L224.00,145.91L223.12,145.34L222.95,145.30L222.06,145.11L220.88,145.25L219.61,145.73L218.34,146.54L217.11,147.65L215.98,148.99L215.00,150.50L214.23,152.13L213.69,153.78L213.42,155.38L213.42,156.86L213.69,158.15L214.09,158.92"/><path d="M223.32,166.89L222.78,166.43L222.52,165.68L222.52,164.73L222.78,163.68L223.29,162.65L223.97,161.73L224.77,161.05L225.58,160.66L226.33,160.61L226.94,160.90L227.33,161.52L227.46,162.37L227.33,163.39L226.94,164.45L226.33,165.43L225.58,166.24L224.77,166.79L223.97,167.01L223.32,166.89"/><path d="M223.29,138.28L222.78,137.82L222.52,137.07L222.52,136.12L222.78,135.08L223.29,134.04L223.97,133.12L224.77,132.43L225.58,132.04L226.33,131.99L226.94,132.29L227.33,132.90L227.46,133.76L227.33,134.77L226.94,135.83L226.33,136.82L225.58,137.63L224.77,138.18L223.97,138.40L223.29,138.28"/><path d="M244.85,140.28L244.49,139.86L244.21,138.99L244.21,137.92L244.49,136.74L245.01,135.55L245.74,134.46L246.60,133.58L247.52,132.97L248.43,132.69L249.23,132.76L249.86,133.19L250.26,133.93L250.40,134.91L250.26,136.05L249.86,137.25L249.23,138.40L248.43,139.40L247.52,140.15L246.60,140.60L245.74,140.71L245.01,140.45L244.85,140.28"/></g><g style="stroke:#000000;stroke-width:0.529"><path d="M129.12,154.38L128.59,151.58L128.23,147.94L128.16,144.10L128.16,142.71L128.37,138.84L128.86,134.86L129.62,130.77L130.64,126.63L131.93,122.44L133.47,118.26L135.25,114.11L137.25,110.01L139.46,106.00L141.87,102.11L142.62,101.03L144.46,98.37L147.21,94.81L150.09,91.44L153.03,88.36L156.18,85.42L159.34,82.80L162.56,80.48L165.79,78.46L167.03,77.73L170.38,75.98L173.70,74.58L176.96,73.53L180.16,72.85L181.71,72.69L183.26,72.53L186.24,72.59L189.07,73.02L191.74,73.82L194.23,74.98L246.11,104.78L248.29,106.47L250.24,108.49L251.96,110.84L253.42,113.49L254.62,116.42L255.54,119.62L256.18,123.05L256.54,126.70L256.61,130.54L256.61,132.28L256.41,136.11L256.33,136.73L255.93,140.06L255.17,144.11L254.15,148.23L252.96,152.11L251.35,156.52L249.59,160.64L247.60,164.71L245.41,168.68L243.01,172.54L240.45,176.25L237.73,179.78L234.87,183.12L233.52,184.53L231.89,186.23L228.83,189.09L225.69,191.69L222.50,193.99L219.29,195.99L217.74,196.90L214.40,198.65L211.08,200.06L207.81,201.11L204.62,201.79L201.52,202.10L198.54,202.04L195.70,201.61L193.03,200.81L190.54,199.65L138.67,169.85L136.49,168.17L134.53,166.14L132.82,163.80L131.36,161.15L130.16,158.22L129.24,155.02L129.12,154.38"/></g></g><g id="Actor_.1"><g style="stroke:#000000;stroke-width:0.176"><path d="M110.81,158.92L110.78,158.88L110.46,158.36L110.26,157.81L110.19,157.28L110.26,156.84L110.38,156.65L110.46,156.52L110.78,156.36L111.17,156.39L111.59,156.59L112.01,156.95L112.36,157.43L112.63,157.97L112.77,158.52L112.78,158.77L112.77,159.01L112.63,159.40L112.36,159.64L112.01,159.70L111.59,159.59L111.17,159.30L110.81,158.92"/><path d="M112.18,158.02L111.93,157.38L111.37,157.06L110.59,157.51L111.04,158.67L111.93,159.19L112.38,158.54L112.18,158.02L111.04,158.67"/><path d="M110.59,157.51L111.04,156.87L111.37,157.06"/><path d="M112.69,159.87L113.00,159.59L113.17,159.12L113.19,158.84L113.17,158.53L113.00,157.87L112.69,157.22L112.26,156.65L111.76,156.22L111.25,155.98L111.02,155.96L110.78,155.95L110.41,156.13"/><path d="M119.56,155.18L119.47,154.55L119.23,153.89L118.85,153.27L118.83,153.24L118.38,152.76L117.87,152.42"/></g><g style="stroke:#000000;stroke-width:0.529"><path d="M115.23,158.41L112.69,159.87L112.26,159.95L111.76,159.81L111.25,159.47L111.09,159.30L110.78,158.96L110.41,158.35L110.16,157.68L110.08,157.05L110.16,156.51L110.41,156.13L116.95,152.36L117.38,152.28L117.87,152.42L119.24,153.21L119.33,153.28L119.42,153.37L119.50,153.49L119.54,153.62L119.56,153.74L119.56,155.18L119.47,155.72L119.23,156.10L117.17,157.29"/></g></g><g id="Actor_.2"><g style="stroke:#000000;stroke-width:0.176"><path d="M87.07,127.06L85.10,125.61L83.35,123.83L81.85,121.73L80.59,119.32L79.61,116.64L78.90,113.70L78.47,110.54L78.32,107.18L78.47,103.66L78.90,100.01L79.61,96.26L80.59,92.44L81.85,88.60L83.35,84.77L85.10,80.98L87.07,77.27L89.25,73.68L91.61,70.23L94.13,66.97L96.80,63.91L99.58,61.10L102.45,58.55L105.38,56.29L108.34,54.34L111.32,52.72L114.27,51.44L117.17,50.52L120.00,49.96L122.72,49.77L125.32,49.95L127.77,50.51L130.04,51.42"/><path d="M88.35,125.28L88.67,125.50L90.86,126.48L93.22,127.09L95.75,127.33L98.41,127.20L101.17,126.69L104.01,125.81L106.90,124.57L109.82,122.98L112.72,121.06L115.59,118.83L118.40,116.31L121.11,113.52L123.71,110.49L126.16,107.25L128.44,103.84L130.52,100.28L132.40,96.62L134.04,92.89L135.43,89.13L136.57,85.36L137.42,81.64L138.00,78.00L138.29,74.48L138.29,71.10L138.00,67.91L137.42,64.93L136.57,62.19L135.43,59.73L134.04,57.56L132.40,55.72L130.52,54.20L129.97,53.90"/></g><g style="stroke:#000000;stroke-width:0.529"><path d="M89.59,128.26L89.25,128.16L87.07,127.06L86.48,126.72L84.51,125.27L82.76,123.49L81.26,121.39L80.00,118.98L79.02,116.30L78.31,113.36L77.88,110.20L77.73,106.85L77.88,103.32L78.31,99.67L79.02,95.92L80.00,92.10L81.26,88.26L82.76,84.43L84.51,80.64L86.48,76.93L88.66,73.34L91.02,69.89L93.55,66.63L96.21,63.57L98.99,60.76L101.86,58.21L104.79,55.95L107.75,54.00L110.73,52.38L113.68,51.10L116.58,50.18L119.41,49.62L122.13,49.43L124.73,49.61L127.18,50.17L129.45,51.09L130.04,51.42L132.12,52.70L133.98,54.31L135.61,56.26L136.99,58.52L138.11,61.06L138.96,63.88L139.53,66.93L139.82,70.19L139.82,73.64L139.53,77.23L138.96,80.94L138.11,84.72L136.99,88.56L135.61,92.40L133.98,96.21L132.12,99.96L130.04,103.62L127.77,107.14L125.32,110.50L122.72,113.67L120.00,116.61L117.17,119.29L114.27,121.70L111.32,123.81L108.34,125.59L105.38,127.05L102.45,128.15L99.58,128.89L96.80,129.26L94.14,129.26L91.61,128.89L90.58,128.57"/><path d="M80.38,112.38L80.43,112.69L81.15,115.55L82.14,118.15L83.41,120.47L84.93,122.48L86.69,124.16L88.35,125.28L90.27,126.14L92.63,126.75L95.16,126.99L97.81,126.86L100.58,126.35L103.42,125.47L106.31,124.23L109.23,122.64L111.02,121.46L112.13,120.73L115.00,118.49L117.81,115.97L120.52,113.18L123.12,110.15L125.57,106.91L127.84,103.50L129.93,99.95L131.70,96.49L131.81,96.28L133.45,92.55L134.84,88.79L135.97,85.03L136.83,81.31L137.41,77.66L137.70,74.14L137.70,70.76L137.41,67.57L136.83,64.59L135.97,61.85L134.84,59.39L133.45,57.23L131.81,55.38L129.97,53.90L128.44,53.04L126.16,52.25L123.71,51.82L121.11,51.76L118.40,52.09L115.59,52.78L112.72,53.84L109.82,55.26L106.90,57.01L104.01,59.09L101.17,61.47L98.41,64.13L95.75,67.05L93.22,70.18L90.86,73.51L88.67,77.00L86.69,80.61L84.93,84.31L83.41,88.07L82.14,91.84L81.15,95.58L80.43,99.27L79.99,102.85L79.85,106.31L79.99,109.60L80.38,112.38"/></g></g><g id="Actor_.3"><g style="stroke:#000000;stroke-width:0.176"><path d="M28.64,82.29L28.64,82.23"/><path d="M31.85,91.21L31.77,91.07"/><path d="M35.06,94.66L34.88,94.50"/><path d="M37.52,96.09L37.50,96.08"/><path d="M41.94,97.17L42.01,97.18"/><path d="M51.00,95.69L51.10,95.66"/><path d="M61.96,23.87L61.99,23.85"/><path d="M71.22,22.02L71.34,22.02"/><path d="M75.78,22.92L75.97,22.98"/><path d="M79.77,25.38L79.42,25.10"/><path d="M81.68,27.60L81.70,27.63"/><path d="M85.04,36.10L85.06,36.17"/></g><g style="stroke:#000000;stroke-width:0.529"><path d="M37.04,98.19L38.59,98.79L40.31,99.23L42.12,99.48L44.41,99.57L46.34,99.45L48.32,99.13L49.86,98.76L50.35,98.64L52.42,97.95L54.78,96.99L56.87,95.95L58.97,94.75L61.06,93.38L63.14,91.86L65.19,90.18L67.21,88.36L69.18,86.41L71.10,84.33L72.95,82.14L74.74,79.84L76.44,77.45L78.06,74.97L79.58,72.43L81.00,69.83L82.30,67.18L83.50,64.50L84.56,61.79L85.51,59.08L86.32,56.38L86.99,53.69L87.53,51.04L87.93,48.42L88.18,45.87L88.29,43.38L88.25,40.97L88.07,38.66L87.74,36.44L87.70,36.14L87.23,34.03L86.62,32.04L85.87,30.18L84.99,28.46L83.74,26.55L82.60,25.14L81.34,23.89L80.97,23.60L79.59,22.52L78.10,21.62L76.51,20.90L76.08,20.73L74.40,20.19L72.63,19.85L70.79,19.69L70.37,19.66L68.47,19.69L66.51,19.91L64.50,20.32L62.45,20.91L60.09,21.78L58.01,22.73L55.91,23.85L53.81,25.13L51.73,26.58L49.66,28.18L47.63,29.93L45.67,31.78L43.68,33.84L41.79,35.97L39.97,38.22L38.22,40.57L36.56,43.00L34.99,45.52L33.52,48.09L32.16,50.72L30.93,53.35L29.78,56.08L28.77,58.79L27.89,61.50L27.15,64.20L26.53,66.97L26.08,69.51L25.75,72.09L25.57,74.62L25.54,77.07L25.65,79.43L25.90,81.70L26.35,84.17L26.89,86.22L27.57,88.15L28.38,89.93L29.33,91.57L29.57,91.92L30.65,93.41L31.85,94.74L33.17,95.91L33.54,96.19L34.98,97.18L36.13,97.79"/><path d="M28.32,78.32L28.29,77.77L28.33,75.38L28.50,72.92L28.82,70.40L29.27,67.83L29.87,65.22L30.59,62.59L31.45,59.95L32.43,57.30L33.53,54.68L34.75,52.07L36.08,49.51L37.51,47.00L39.05,44.55L40.80,42.00L42.37,39.88L44.15,37.69L45.99,35.61L47.89,33.64L49.84,31.80L51.82,30.09L53.84,28.53L55.87,27.12L57.92,25.86L59.96,24.77L61.96,23.87L63.72,23.21L65.69,22.64L67.62,22.25L69.51,22.04L71.22,22.02L72.68,22.14L74.36,22.48L75.78,22.92L77.04,23.50L78.46,24.35L79.42,25.10L80.61,26.28L81.68,27.60L82.45,28.78L83.30,30.43L84.02,32.22L84.60,34.13L85.04,36.10L85.32,38.02L85.50,40.28L85.53,42.63L85.43,45.06L85.18,47.55L84.80,50.10L84.27,52.69L83.61,55.32L82.84,57.89L81.90,60.60L80.86,63.24L79.70,65.85L78.42,68.44L77.04,70.98L75.56,73.46L73.98,75.87L72.32,78.21L70.57,80.45L68.76,82.59L66.88,84.63L64.97,86.52L63.00,88.30L61.00,89.93L58.97,91.42L56.93,92.76L54.88,93.93L52.84,94.94L51.00,95.69L49.11,96.32L47.16,96.80L45.25,97.10L43.39,97.22L41.94,97.17L40.29,96.94L38.64,96.52L37.50,96.07L36.06,95.32L34.88,94.50L33.80,93.56L32.65,92.29L31.77,91.07L30.94,89.63L30.15,87.91L29.50,86.06L28.98,84.08L28.63,82.22L28.40,80.08L28.32,78.32"/></g></g><g><g><path style="stroke:#000000;stroke-width:0.125;stroke-dasharray:2.2 1.5 0.7 1.5" d="M86.65,76.66L56.91,59.60"/><path style="stroke:#000000;stroke-width:0.125;stroke-dasharray:2.2 1.5 0.7 1.5" d="M139.07,106.72L88.33,77.62"/></g></g><g><g><path style="stroke:#000000;stroke-width:0.125;stroke-dasharray:2.2 1.5 0.7 1.5" d="M132.22,146.13L119.47,153.45"/></g></g><g id="PMI.0"><g><path style="stroke:#000000;stroke-width:0.125" d="M31.94,132.26L36.76,96.67"/></g><g><path style="fill:#000000" d="M37.51,96.67L37.51,96.60L37.50,96.52L37.48,96.45L37.45,96.38L37.42,96.32L37.39,96.25L37.34,96.19L37.29,96.14L37.24,96.09L37.18,96.05L37.12,96.01L37.05,95.98L36.98,95.95L36.91,95.93L36.84,95.92L36.76,95.92L36.69,95.92L36.62,95.93L36.54,95.95L36.47,95.98L36.41,96.01L36.35,96.05L36.29,96.09L36.23,96.14L36.18,96.19L36.14,96.25L36.10,96.32L36.07,96.38L36.04,96.45L36.03,96.52L36.02,96.60L36.01,96.67L36.02,96.74L36.03,96.82L36.04,96.89L36.07,96.96L36.10,97.02L36.14,97.09L36.18,97.15L36.23,97.20L36.29,97.25L36.35,97.29L36.41,97.33L36.47,97.36L36.54,97.39L36.62,97.41L36.69,97.42L36.76,97.42L36.84,97.42L36.91,97.41L36.98,97.39L37.05,97.36L37.12,97.33L37.18,97.29L37.24,97.25L37.29,97.20L37.34,97.15L37.39,97.09L37.42,97.02L37.45,96.96L37.48,96.89L37.50,96.82L37.51,96.74z"/></g><g><text xml:space="preserve" fill="#000000" stroke-width="0" x="23.20" y="137.70" font-size="3.84" opacity="1.00" font-family="Arial">ZOR0267</text></g></g><g id="PMI.1"><g><path style="stroke:#000000;stroke-width:0.125" d="M69.57,152.54L90.76,127.61"/></g><g><path style="fill:#000000" d="M91.51,127.61L91.51,127.54L91.50,127.47L91.48,127.40L91.46,127.33L91.43,127.26L91.39,127.20L91.34,127.14L91.29,127.08L91.24,127.03L91.18,126.99L91.12,126.95L91.05,126.92L90.98,126.90L90.91,126.88L90.84,126.87L90.76,126.86L90.69,126.87L90.62,126.88L90.55,126.90L90.48,126.92L90.41,126.95L90.35,126.99L90.29,127.03L90.23,127.08L90.18,127.14L90.14,127.20L90.10,127.26L90.07,127.33L90.05,127.40L90.03,127.47L90.02,127.54L90.01,127.61L90.02,127.69L90.03,127.76L90.05,127.83L90.07,127.90L90.10,127.97L90.14,128.03L90.18,128.09L90.23,128.14L90.29,128.19L90.35,128.24L90.41,128.28L90.48,128.31L90.55,128.33L90.62,128.35L90.69,128.36L90.76,128.36L90.84,128.36L90.91,128.35L90.98,128.33L91.05,128.31L91.12,128.28L91.18,128.24L91.24,128.19L91.29,128.14L91.34,128.09L91.39,128.03L91.43,127.97L91.46,127.90L91.48,127.83L91.50,127.76L91.51,127.69z"/></g><g><text xml:space="preserve" fill="#000000" stroke-width="0" x="58.82" y="157.97" font-size="3.84" opacity="1.00" font-family="Arial">ZSR0066</text></g></g><g id="PMI.2"><g><path style="stroke:#000000;stroke-width:0.125" d="M104.68,172.81L116.88,157.06"/></g><g><path style="fill:#000000" d="M117.63,157.06L117.62,156.99L117.61,156.92L117.59,156.85L117.57,156.78L117.54,156.71L117.50,156.65L117.46,156.59L117.41,156.53L117.35,156.48L117.29,156.44L117.23,156.40L117.16,156.37L117.09,156.35L117.02,156.33L116.95,156.32L116.88,156.31L116.80,156.32L116.73,156.33L116.66,156.35L116.59,156.37L116.52,156.40L116.46,156.44L116.40,156.48L116.35,156.53L116.30,156.59L116.25,156.65L116.21,156.71L116.18,156.78L116.16,156.85L116.14,156.92L116.13,156.99L116.13,157.06L116.13,157.14L116.14,157.21L116.16,157.28L116.18,157.35L116.21,157.42L116.25,157.48L116.30,157.54L116.35,157.59L116.40,157.64L116.46,157.69L116.52,157.72L116.59,157.76L116.66,157.78L116.73,157.80L116.80,157.81L116.88,157.81L116.95,157.81L117.02,157.80L117.09,157.78L117.16,157.76L117.23,157.72L117.29,157.69L117.35,157.64L117.41,157.59L117.46,157.54L117.50,157.48L117.54,157.42L117.57,157.35L117.59,157.28L117.61,157.21L117.62,157.14z"/></g><g><text xml:space="preserve" fill="#000000" stroke-width="0" x="95.35" y="178.25" font-size="3.78" opacity="1.00" font-family="Arial">ND0448</text></g></g><g/><g><g/><g><text xml:space="preserve" fill="#000000" stroke-width="0" x="7.19" y="11.52" font-size="4.53" opacity="1.00" font-family="Arial" font-weight="bold">BPA28906</text></g></g><g id="paperID" visibility="hidden" opacity="0.00" transform="scale(0.000100)"><path style="stroke:#000000;stroke-width:0.500;fill:#e6e6e6;fill-rule:evenodd" d="M-2000.00,-2000.00L2297.00,-2000.00L2297.00,2210.00L-2000.00,2210.00zM0.00,0.00L297.00,0.00L297.00,210.00L0.00,210.00z"/><path style="fill:#000000;fill-opacity:0.118" d="M3.00,210.00L297.00,210.00L297.00,3.00L300.00,3.00L300.00,213.00L3.00,213.00z"/></g></g></svg>
