<?xml version="1.0" encoding="UTF-8" standalone="no"?>
<svg xmlns="http://www.w3.org/2000/svg" xmlns:xlink="http://www.w3.org/1999/xlink" width="297.000mm" height="210.000mm" viewBox="0.000000 0.000000 297.000000 210.000000" stroke-linejoin="round" stroke-linecap="round" fill="none" fill-rule="evenodd"><desc>Composer Export</desc><script type="text/ecmascript"><![CDATA[
if(typeof(top) != "undefined")
{
	top.ShowPaper = ShowPaper;
}
function ShowPaper()
{
  var svgDocument = getDocument();
  var paper = svgDocument.getElementById("paperID");
  if(paper)
  {
    paper.setAttribute("transform","scale(1)");
    paper.setAttribute("opacity","1");
    paper.setAttribute("visibility","visible");
  }
  var svg = svgDocument.getRootElement();
  if(svg)
  {
    svg.setAttribute("width","307.000mm");
    svg.setAttribute("height","220.000mm");
    svg.setAttribute("viewBox","-5.000000 -5.000000 307.000000 220.000000");
  }
}
]]></script><defs/><g><path style="fill:#000000;fill-opacity:0.098;fill-rule:evenodd" d="M53.82,19.06L55.65,19.97L57.11,21.43L58.21,23.62L58.75,26.55L58.75,28.80L58.57,30.44L57.66,34.28L56.01,38.30L53.82,41.94L52.12,44.08L51.01,45.34L48.82,47.36L46.33,49.07L43.77,50.16L42.25,50.47L39.76,50.48L38.83,50.30L36.12,48.82L34.82,47.37L33.89,45.72L33.85,45.35L34.07,45.33L34.30,45.54L34.65,45.62L34.28,43.72L34.28,39.76L34.95,36.23L36.11,33.00L37.93,29.34L40.13,26.07L42.70,23.33L43.96,22.22L45.73,20.89L47.74,19.79L50.66,18.88L53.09,18.88zM27.15,21.08L27.70,22.16L27.71,23.15L27.46,23.63L26.54,24.72L25.44,24.89L25.08,25.11L24.60,25.10L23.85,24.55L23.27,23.60L23.71,23.80L23.98,23.83L24.88,21.59L26.56,20.49L26.77,20.51zM22.71,22.53L23.36,22.37L23.33,22.77L22.93,22.74zM96.75,47.00L97.85,47.55L99.33,49.17L99.85,50.29L100.40,52.30L100.40,55.83L99.85,58.57L98.57,62.04L96.74,65.32L95.03,67.63L94.01,68.81L91.01,71.28L89.07,72.27L86.83,72.95L85.06,72.94L83.59,72.58L65.34,62.15L64.61,61.60L63.31,59.61L63.32,59.05L80.13,68.77L80.50,68.81L80.31,67.65L80.31,63.50L80.80,61.08L81.58,58.75L83.54,54.86L85.26,52.57L86.35,51.28L88.10,49.56L90.84,47.73L93.40,46.82L96.02,46.82zM156.48,60.02L158.51,61.23L160.51,62.88L161.79,64.52L163.24,67.09L164.33,70.20L164.88,73.67L164.88,79.03L164.33,83.05L163.23,87.61L161.22,93.09L159.34,97.05L156.84,101.31L154.83,104.23L151.91,107.89L149.09,110.74L146.17,113.30L143.06,115.48L138.89,117.70L136.15,118.61L133.22,119.15L129.81,119.15L127.97,118.80L126.34,118.24L118.14,113.84L109.19,108.54L106.08,106.53L104.62,105.26L102.95,102.90L102.04,101.08L101.99,100.32L102.21,100.31L109.37,104.52L119.04,109.67L119.39,109.68L119.03,107.46L118.85,105.27L118.85,102.77L119.16,98.70L120.12,94.00L121.40,89.62L123.60,84.33L126.07,79.68L128.00,76.67L129.92,74.03L132.65,70.73L136.51,66.91L139.80,64.36L143.08,62.35L146.19,60.89L149.29,59.97L151.85,59.61L153.73,59.61zM202.86,109.12L203.97,109.67L203.23,109.66L201.59,109.29L198.60,109.30L199.89,108.93L202.33,108.92zM181.88,126.07L187.92,129.43L187.70,128.47L187.71,124.33L187.95,123.29L188.02,125.80L188.46,125.73L188.81,125.92L188.84,126.34L188.02,126.98L188.80,129.21L189.55,130.47L210.00,142.19L210.37,142.23L210.18,140.34L210.18,138.39L210.53,136.01L211.58,132.67L212.01,131.93L212.00,144.99L211.66,144.91L191.56,133.39L191.18,133.03L190.29,132.65L168.73,120.23L167.45,119.14L166.70,118.23L166.69,117.32zM188.14,122.73L187.95,123.29L188.08,122.61zM229.92,124.80L231.02,126.07L231.91,127.93L232.28,129.75L232.28,131.82L232.09,133.28L231.54,135.46L230.27,138.58L228.44,141.68L226.45,144.07L224.16,145.98L221.87,147.34L219.98,147.83L218.03,147.83L215.83,147.29L214.00,146.20L212.91,144.91L212.54,144.18L212.54,143.62L212.75,143.80L213.10,143.89L213.03,143.26L214.02,143.33L214.01,139.30L214.73,136.19L216.22,132.75L217.50,130.74L218.60,129.28L220.33,127.36L222.59,125.60L223.63,125.00L225.64,124.27L227.53,124.09L228.46,124.08L228.21,123.70L228.61,123.70zM256.21,135.05L257.49,136.50L258.58,139.06L258.95,141.62L258.95,143.32L258.58,146.25L257.43,150.21L255.60,154.23L253.41,157.51L251.39,160.06L249.64,161.60L247.27,163.43L244.33,164.88L242.08,165.37L240.50,165.37L239.39,165.20L237.59,164.43L235.94,163.35L235.04,162.24L234.08,160.61L234.04,160.24L234.86,160.48L234.47,158.24L234.47,154.83L235.00,151.53L236.29,147.70L238.14,144.08L240.24,141.06L242.70,138.22L243.89,137.22L246.34,135.47L248.66,134.32L250.48,133.77L254.22,133.77zM202.87,152.22L203.07,152.57L203.06,154.84L202.87,155.38L201.77,157.02L200.61,158.05L199.76,158.06L198.48,157.89L198.49,154.47L199.33,153.84L200.68,151.85zM196.67,154.81L196.70,154.99L194.49,153.84L192.07,152.37L192.04,152.19L192.25,152.19zM267.55,159.33L267.53,159.96L266.99,159.89L266.26,159.14L265.53,159.41L264.92,160.44L264.78,161.16L265.71,161.52L266.07,162.16L265.09,162.83L264.63,162.81L263.89,162.25L263.42,161.37L264.05,161.42L264.98,159.22L266.56,158.22L266.81,158.21zM268.45,160.96L268.40,161.91L267.85,162.46L266.41,162.44L266.42,162.13L267.15,162.14L267.63,161.14L268.27,160.63zM184.42,172.73L178.76,176.04L178.76,142.23L184.20,139.03L184.42,139.04zM202.14,179.07L202.88,179.08L203.06,179.61L203.06,181.87L202.50,182.96L201.59,184.24L200.79,184.90L198.48,184.92L198.49,181.50L199.22,180.96L200.63,178.87zM195.76,181.25L195.99,181.56L194.85,181.05L192.07,179.40L192.04,179.22L192.25,179.23zM196.67,181.84L196.70,182.02L196.12,181.79L195.99,181.56zM27.16,21.63L26.54,21.79L25.63,22.71L25.15,24.22L24.97,24.21L24.57,23.82L24.58,23.13L25.13,22.03L26.18,21.23zM52.73,22.89L53.66,23.97L54.56,25.62L55.45,26.19L55.83,27.64L55.83,30.99L55.47,33.00L54.49,35.86L52.73,39.39L50.84,41.89L49.64,43.24L47.53,44.97L45.24,46.33L43.35,46.82L41.21,46.83L40.13,46.45L39.22,45.90L38.32,44.97L37.74,44.09L37.19,42.26L36.95,39.89L37.51,36.23L38.47,33.36L39.50,31.28L41.05,28.82L42.79,26.71L44.27,25.27L46.64,23.62L48.83,22.71L49.56,22.53L51.63,22.53zM98.96,51.18L99.50,51.74L99.67,52.85L99.67,56.38L98.94,59.48L97.66,62.59L95.78,65.64L93.82,68.07L91.27,70.27L88.48,71.67L86.82,72.03L85.42,72.03L84.50,71.86L82.88,70.92L81.97,69.82L81.39,68.75L81.03,67.29L81.04,63.14L81.57,60.57L83.17,56.69L85.25,53.47L87.26,51.28L88.53,50.17L90.72,48.71L91.93,48.10L93.28,47.90zM150.64,79.69L151.13,80.84L151.55,80.98L151.92,81.52L151.91,85.60L151.54,87.43L150.26,91.27L148.38,94.68L146.74,96.87L145.26,98.50L143.25,100.32L140.71,101.80L138.52,102.54L135.82,102.54L135.12,102.15L133.29,101.06L132.54,100.16L131.81,98.52L131.45,96.50L131.45,93.82L131.99,90.90L133.09,87.61L134.94,84.16L136.31,82.24L138.14,80.06L139.32,79.04L141.44,77.51L143.27,76.60L144.60,76.21zM154.11,78.97L154.47,80.98L154.47,83.96L154.28,85.42L153.73,87.97L152.82,90.72L151.18,94.19L148.99,97.66L146.17,100.87L144.88,101.96L142.90,103.45L139.98,104.91L137.97,105.46L135.61,105.50L135.53,105.39L138.03,105.15L140.34,104.36L142.80,102.98L145.35,100.96L147.16,99.12L149.35,96.20L150.94,93.58L152.59,89.93L153.55,86.70L153.92,84.87L154.11,82.26L153.66,78.43L153.74,78.40zM135.53,105.39L134.66,105.27L135.46,105.29zM223.82,134.92L224.62,135.04L224.61,135.65L224.42,136.20L223.80,137.22L222.96,137.84L222.37,138.03L221.69,137.23L221.67,136.01L222.43,134.75L222.90,134.29L223.33,134.29zM252.74,137.60L253.49,138.31L254.76,140.51L255.66,141.07L256.02,142.35L256.02,145.88L255.29,149.17L254.01,152.27L252.00,155.56L250.56,157.22L247.83,159.79L245.24,161.22L243.00,161.71L241.77,161.71L240.31,161.36L239.05,160.42L238.30,159.52L237.56,157.89L237.21,155.69L237.21,154.28L237.57,151.72L238.12,149.71L239.34,146.73L240.70,144.44L242.34,142.25L243.36,141.07L245.56,139.25L247.75,137.97L249.57,137.42L252.00,137.42zM182.96,142.53L182.97,144.06L182.72,144.55L181.79,145.63L181.08,146.03L180.58,146.03L180.02,145.47L180.03,144.23L180.69,142.88L181.44,142.17L182.07,141.99zM268.03,161.91L267.64,161.97L267.70,161.58L268.09,161.52zM182.95,169.57L182.96,170.91L182.77,171.45L181.62,172.85L180.58,173.06L180.02,172.50L180.03,171.26L180.69,169.91L181.80,169.00L182.05,169.00z"/><g id="Actor_.0"><g style="stroke:#000000;stroke-width:0.176"><path d="M130.10,99.72L129.91,98.87L129.76,97.13L129.81,95.26L130.07,93.28L130.51,91.28L131.16,89.23L131.98,87.18L132.97,85.17L134.11,83.24L135.38,81.41L136.77,79.72L138.24,78.18L139.77,76.83L141.35,75.70L142.94,74.79L144.51,74.12L146.05,73.70L147.52,73.55L148.90,73.66L150.17,74.03L150.91,74.43L151.87,75.27L152.69,76.37L153.33,77.69L153.78,79.19L154.04,80.86L154.09,82.67L153.93,84.59L153.58,86.58L153.07,88.49L153.03,88.62L152.30,90.68L151.39,92.71L150.32,94.68L149.11,96.56L147.78,98.33L146.35,99.95L144.85,101.39L143.29,102.64L141.70,103.66L140.12,104.46L138.56,105.00L137.05,105.28L135.62,105.30L134.29,105.07L133.28,104.65L132.46,104.07L131.55,103.08L130.81,101.87L130.26,100.46L130.10,99.72"/><path d="M147.26,76.03L146.57,75.93L145.25,76.00L143.86,76.34L142.43,76.93L141.65,77.37L140.98,77.76L139.55,78.81L138.16,80.07L136.84,81.51L135.62,83.10L134.51,84.81L133.54,86.61L132.73,88.46L132.10,90.33L131.65,92.17L131.40,93.97L131.35,95.67L131.50,97.25L131.85,98.67L132.39,99.91L133.12,100.95L134.01,101.76L135.05,102.32L136.21,102.64L137.49,102.69L138.85,102.49L140.26,102.02L141.70,101.31L143.15,100.37L144.56,99.21L145.92,97.86L147.19,96.34L148.36,94.69L149.40,92.93L150.29,91.10L151.01,89.23L151.56,87.37L151.91,85.55L152.06,83.79L152.01,82.15L151.76,80.64L151.31,79.31L150.68,78.17L149.87,77.24L148.90,76.55L147.79,76.11L147.26,76.03L148.21,76.41"/><path d="M133.28,104.65L133.52,104.82L134.73,105.32L136.06,105.56L137.49,105.53L139.00,105.25L140.56,104.71L142.14,103.92L143.73,102.89L145.28,101.64L146.79,100.20L148.22,98.58L149.40,97.01L149.55,96.82L150.76,94.93L151.83,92.96L152.74,90.93L153.47,88.87L154.02,86.83L154.37,84.84L154.52,82.92L154.47,81.11L154.22,79.44L153.77,77.94L153.13,76.63L152.30,75.52L151.31,74.65L150.91,74.43"/><path d="M132.93,100.68L133.54,101.24"/></g><g style="stroke:#000000;stroke-width:0.529"><path d="M111.65,110.01L106.70,106.99L105.70,106.22L104.63,105.19L103.79,104.19L103.04,103.07L102.38,101.85L101.73,100.36L101.26,98.95L100.89,97.45L100.61,95.87L100.44,94.22L100.36,92.50L100.39,90.58L100.51,88.76L100.74,86.89L101.06,84.99L101.48,83.06L102.00,81.11L102.61,79.15L103.31,77.19L104.10,75.24L104.97,73.30L105.92,71.38L106.95,69.50L108.05,67.66L109.21,65.87L110.44,64.13L111.72,62.46L113.06,60.86L114.43,59.33L115.85,57.90L117.30,56.55L118.78,55.30L120.27,54.15L121.78,53.11L123.42,52.10L124.95,51.29L126.47,50.59L127.97,50.02L129.46,49.58L130.91,49.26L132.53,49.05L133.92,48.99L135.27,49.06L136.56,49.27L137.80,49.60L138.00,49.66L139.18,50.12L144.81,53.13L149.29,55.65L153.72,58.25L158.10,60.92L159.14,61.64L160.25,62.61L161.13,63.55L161.93,64.61L162.63,65.78L163.25,67.05L163.33,67.23L163.85,68.59L164.27,70.04L164.60,71.58L164.82,73.20L164.95,74.89L164.97,76.79L164.89,78.58L164.72,80.43L164.45,82.32L164.07,84.23L163.60,86.17L163.04,88.13L162.39,90.09L161.64,92.05L160.81,93.99L159.90,95.92L158.91,97.82L157.85,99.68L156.71,101.50L155.52,103.27L154.26,104.97L152.95,106.61L151.59,108.17L150.20,109.65L148.76,111.05L147.30,112.35L145.81,113.55L144.31,114.64L142.79,115.63L141.15,116.58L139.63,117.33L138.11,117.97L136.62,118.48L135.15,118.86L133.70,119.11L132.10,119.25L130.73,119.25L129.41,119.11L128.14,118.84L126.74,118.39L125.59,117.86L121.07,115.43L116.59,112.92L112.89,110.75"/></g></g><g id="Actor_.1"><g style="stroke:#000000;stroke-width:0.176"><path d="M23.06,23.39L23.34,23.54"/><path d="M23.27,22.85L23.29,22.81"/><path d="M23.83,21.40L23.95,21.09L23.95,21.09L23.73,21.32L23.67,21.41"/><path d="M23.95,21.09L23.99,21.00L24.86,21.50L24.26,23.05"/><path d="M24.36,24.50L24.86,25.21"/><path d="M25.67,24.79L25.42,24.56L25.29,24.19L25.27,23.96L25.29,23.71L25.42,23.19L25.67,22.67L26.02,22.21L26.42,21.86L26.82,21.67L27.20,21.64L27.50,21.79L26.77,21.37L26.47,21.22L26.10,21.25L25.69,21.44L25.29,21.79L24.94,22.25L24.69,22.77L24.56,23.30L24.56,23.77L24.69,24.14L24.94,24.38L25.64,24.77"/><path d="M24.86,21.50L26.72,20.44"/><path d="M23.99,21.00L24.56,20.67"/><path d="M27.50,21.79L27.58,21.92"/></g><g style="stroke:#000000;stroke-width:0.529"><path d="M23.36,23.81L23.06,23.39L23.27,22.85L23.09,22.80L22.88,22.68L22.64,22.52L22.51,22.30L22.27,21.76L22.23,21.54L22.27,21.27L22.37,20.99L22.53,20.73L22.73,20.52L22.94,20.37L23.15,20.32L23.68,20.26L23.94,20.27L24.20,20.40L24.41,20.52L24.56,20.67L25.84,19.94L26.72,20.44L27.64,21.76L27.58,21.92L27.70,22.10L27.77,22.53L27.70,23.04L27.50,23.57L27.20,24.06L26.82,24.47L26.42,24.75L26.02,24.86L25.67,24.79L25.64,24.77L24.86,25.21L24.39,24.94"/></g></g><g id="Actor_.2"><g style="stroke:#000000;stroke-width:0.176"><path d="M263.12,161.08L263.99,161.58L264.92,162.91"/><path d="M263.17,160.94L264.04,158.69L264.92,159.19L263.99,161.58"/><path d="M265.73,161.90L265.93,161.90L266.03,161.92L266.02,161.91L265.94,161.76L265.88,161.54L265.88,161.28L265.94,160.98L266.02,160.81L266.07,160.69L266.25,160.42L266.47,160.20L266.70,160.05L266.92,159.98L267.14,159.96L267.15,159.96L267.05,159.86L267.00,159.76L266.92,159.52L266.77,159.25L266.55,159.10L266.26,159.07L265.93,159.17L265.60,159.39L265.28,159.71L265.02,160.10L264.83,160.53L264.73,160.96L264.72,161.16L264.73,161.35L264.83,161.66L265.02,161.87L265.28,161.97L265.60,161.93L265.73,161.90L265.61,161.90"/><path d="M264.04,158.69L265.10,158.08"/><path d="M264.92,159.19L265.56,158.82"/><path d="M266.20,162.17L266.14,162.12L266.03,161.92"/><path d="M267.71,162.51L267.51,162.52L267.35,162.44L267.25,162.28L267.22,162.06L267.25,161.79L267.35,161.51L267.51,161.25L267.71,161.04L267.93,160.89L268.14,160.83L268.32,160.87L268.45,160.99"/><path d="M267.49,159.99L267.39,159.97L267.15,159.96"/><path d="M267.00,159.76L266.88,159.57"/><path d="M266.25,158.43L266.77,158.13"/><path d="M268.08,161.64L268.05,161.74L267.99,161.82L267.93,161.89L267.85,161.94L267.78,161.96L267.72,161.95L267.68,161.91L267.66,161.85L267.66,161.76L267.68,161.67L267.72,161.58L267.74,161.56L267.78,161.50L267.85,161.44L267.93,161.40L267.99,161.40L268.05,161.43L268.08,161.48L268.09,161.55L268.08,161.64"/></g><g style="stroke:#000000;stroke-width:0.529"><path d="M266.23,157.82L266.77,158.13L267.70,159.45L267.49,159.99L267.67,160.04L267.88,160.16L268.12,160.32L268.25,160.55L268.45,160.99L268.52,161.18L268.53,161.30L268.52,161.43L268.45,161.71L268.32,161.98L268.14,162.22L267.93,162.41L267.71,162.51L267.08,162.58L266.82,162.57L266.56,162.45L266.35,162.32L266.20,162.17L264.92,162.91L264.04,162.40L263.12,161.08L263.17,160.94L263.14,160.92L263.01,160.54L262.99,160.31L263.01,160.07L263.14,159.54L263.40,159.02L263.74,158.56L264.14,158.21L264.55,158.02L264.92,157.99L265.10,158.08L265.28,157.98"/></g></g><g id="Actor_.3"><g style="stroke:#000000;stroke-width:0.176"><path d="M184.43,138.93L178.60,142.27L177.14,141.43"/><path d="M178.60,176.04L178.60,167.57"/><path d="M178.60,142.27L178.60,166.31"/><path d="M181.63,169.09L182.03,168.94L182.50,168.96L182.86,169.21L183.07,169.64L183.11,170.23L182.98,170.90L182.69,171.57L182.28,172.19L181.78,172.67L181.51,172.85L181.25,172.98L180.75,173.06L180.33,172.93L180.05,172.58L179.92,172.08"/><path d="M179.92,145.06L180.05,145.56L180.33,145.91L180.75,146.05L181.25,145.96L181.51,145.83L181.78,145.66L182.28,145.17L182.69,144.56L182.98,143.88L183.11,143.21L183.07,142.63L182.86,142.19L182.50,141.94L182.03,141.92L181.63,142.07"/></g><g style="stroke:#000000;stroke-width:0.529"><path d="M177.14,167.56L177.14,141.43L182.97,138.09L184.43,138.93L184.43,172.70L178.60,176.04L177.14,175.20L177.14,168.82"/><path d="M180.03,171.20L179.96,171.43L179.92,172.06L179.92,172.08L180.06,172.01L180.32,171.84L180.82,171.35L181.24,170.74L181.52,170.06L181.65,169.39L181.63,169.09L181.51,169.13L180.99,169.53L180.53,170.09L180.17,170.75L180.03,171.20"/><path d="M179.92,145.05L179.92,145.06L180.06,145.00L180.32,144.82L180.82,144.33L181.24,143.72L181.52,143.04L181.65,142.38L181.63,142.07L181.51,142.12L180.99,142.52L180.53,143.07L180.17,143.73L179.96,144.41L179.92,145.05"/></g></g><g id="Actor_.4"><g style="stroke:#000000;stroke-width:0.176"><path d="M191.92,178.89L191.92,178.33L192.08,177.72L192.37,177.11L192.78,176.58L193.24,176.17"/><path d="M196.79,183.20L196.79,180.87L198.28,181.72L198.69,181.38L199.07,181.03L199.65,180.39L199.18,181.09L198.80,181.86L198.56,182.65L198.48,183.40L198.56,184.05L198.80,184.57L199.17,184.92L199.32,184.97"/><path d="M196.79,181.27L196.71,181.52L196.65,182.05"/><path d="M196.79,180.87L198.76,178.43"/><path d="M198.68,178.47L198.62,178.51L197.98,179.09L197.42,179.83L197.03,180.57"/><path d="M198.28,181.72L198.37,182.19L198.44,182.64L198.48,183.40L198.44,184.09L198.37,184.47L198.28,184.84"/><path d="M200.32,184.97L200.82,184.76L201.43,184.32L201.98,183.73L202.46,183.04L202.84,182.26L203.07,181.46L203.15,180.73L203.07,180.08L202.84,179.55L202.46,179.20L201.98,179.05L201.40,178.98L201.02,178.91L200.61,178.82L200.39,179.27L200.14,179.70L199.65,180.39L200.21,179.81L200.82,179.36L201.43,179.11L201.98,179.05L202.47,179.08L202.72,179.07L202.94,179.05"/><path d="M200.61,178.82L199.13,177.97"/><path d="M200.54,178.11L199.71,178.03"/></g><g style="stroke:#000000;stroke-width:0.529"><path d="M199.31,185.03L199.07,184.99L198.68,184.92L198.28,184.84L196.79,183.99L196.79,183.20L196.71,183.04L196.62,182.33L196.65,182.05L192.37,179.60L192.08,179.33L191.92,178.89L191.92,178.57L191.92,178.11L192.05,177.59L192.30,177.08L192.43,176.90L192.63,176.64L193.02,176.30L193.24,176.17L193.72,175.95L194.16,175.92L194.51,176.09L198.68,178.47L198.76,178.43L199.13,177.97L199.71,178.03L199.92,177.98L200.48,178.08L200.54,178.11L201.46,178.20L202.94,179.05L203.03,179.52L203.10,179.98L203.15,180.73L203.10,181.41L203.03,181.80L202.94,182.17L202.72,182.61L202.47,183.04L201.98,183.73L201.40,184.37L201.02,184.73L200.61,185.06L200.39,185.09L200.28,185.09"/></g></g><g id="Actor_.5"><g style="stroke:#000000;stroke-width:0.176"><path d="M203.42,109.27L202.67,108.98L201.92,108.83L201.86,108.81L201.00,108.78L200.10,108.87L199.16,109.09L198.20,109.44L197.23,109.91L196.25,110.50L195.29,111.20L194.34,112.00L193.42,112.90L192.53,113.89L191.70,114.95L190.92,116.07L190.20,117.25L189.56,118.47L188.99,119.72L188.51,120.98L188.12,122.23L187.82,123.48L187.62,124.70L187.52,125.88L187.51,126.45L187.52,127.01L187.62,128.08L187.82,129.07L188.12,129.98L188.51,130.79L188.99,131.50L189.56,132.09L190.20,132.57"/><path d="M191.08,132.98L191.01,132.93L190.45,132.33L189.97,131.63L189.58,130.81L189.28,129.91L189.08,128.91L188.98,127.85L188.98,127.63L188.77,127.54L188.39,127.31L188.08,127.12L187.78,126.90L187.66,126.78L187.57,126.66L187.53,126.56L187.51,126.45L187.52,126.38L187.57,126.24L187.66,126.10L187.93,125.86L188.24,125.74L188.39,125.72L188.53,125.74L188.66,125.79L188.77,125.87L188.86,125.99L188.93,126.13L189.00,126.48L189.00,126.54"/><path d="M188.97,127.22L188.98,127.63"/><path d="M188.98,126.72L188.98,126.68L188.97,127.30"/><path d="M189.00,126.51L188.98,126.68L189.08,125.54L189.28,124.32L189.58,123.07L189.97,121.81L190.45,120.55L191.01,119.31L191.66,118.09L192.37,116.91L192.94,116.10L193.15,115.78L193.99,114.72L194.87,113.74L195.79,112.84L196.74,112.03L197.62,111.40L197.53,111.45L197.60,111.41"/><path d="M195.23,135.44L213.89,146.05L213.83,145.99L213.06,145.09L212.48,143.98L212.14,142.89L212.14,145.05L212.08,144.99L211.32,144.09L210.73,142.98L210.33,141.67L210.13,140.20L210.13,138.60L210.33,136.90L210.73,135.13L211.32,133.35L212.14,131.44L212.14,137.61L212.08,137.90L211.88,139.60L211.88,141.20L212.08,142.67L212.14,142.89"/><path d="M204.33,109.89L204.13,109.82L203.32,109.65L202.46,109.61L201.56,109.71L200.62,109.93L199.66,110.27L198.69,110.74L197.71,111.33L197.62,111.40"/><path d="M209.96,143.80L209.04,143.29"/><path d="M212.14,137.61L212.48,136.14L213.06,134.35L213.89,132.44L212.14,131.44"/><path d="M213.89,146.05L214.94,146.72"/><path d="M230.39,125.25L229.49,124.60L228.45,124.20L227.30,124.04L226.06,124.14L224.75,124.50L223.41,125.09L222.06,125.93L220.74,126.97L219.46,128.21L218.26,129.61L217.16,131.15L216.19,132.79L215.37,134.50L215.30,134.67L214.71,136.24L214.23,137.98L213.93,139.67L213.84,141.28L213.93,142.79L214.23,144.14L214.71,145.33L215.37,146.31L216.19,147.08L217.16,147.60L218.26,147.88"/><path d="M221.52,137.18L221.52,137.08L221.66,137.21L222.01,137.27L222.41,137.16L222.82,136.89L222.91,136.79L223.19,136.48L223.49,135.98L223.69,135.45L223.76,134.94L223.69,134.51L223.49,134.21L223.26,134.09L223.46,133.99L223.94,133.96L224.32,134.15L224.57,134.54L224.65,135.08L224.57,135.72L224.32,136.39L223.94,137.02L223.46,137.53L222.95,137.88L222.44,138.02L222.01,137.94L221.69,137.65L221.52,137.18"/><path d="M221.52,137.08L221.52,136.58L221.69,135.91L222.01,135.25L222.45,134.67L222.95,134.24L223.26,134.09"/></g><g style="stroke:#000000;stroke-width:0.529"><path d="M193.49,103.59L182.61,97.36L181.63,96.82L180.49,96.53L179.50,96.33L178.30,96.31L177.02,96.53L175.70,97.01L174.35,97.73L173.01,98.67L171.70,99.81L170.46,101.13L169.31,102.61L168.27,104.20L167.37,105.88L166.63,107.61L166.05,109.36L165.67,111.08L165.47,112.73L165.47,114.30L165.67,115.73L166.05,117.00L166.63,118.09L167.37,118.97L168.06,119.74L168.98,120.40L190.20,132.57L190.92,132.93L191.08,132.98L191.66,133.41L195.33,135.50L214.94,146.72L215.15,146.86L216.14,147.40L217.27,147.68L218.26,147.88L219.46,147.91L220.74,147.68L222.06,147.20L223.41,146.49L224.75,145.55L226.06,144.40L227.30,143.08L228.45,141.61L229.49,140.01L230.39,138.33L231.13,136.60L231.71,134.86L232.09,133.14L232.29,131.48L232.32,130.69L232.29,129.92L232.09,128.49L231.71,127.21L231.13,126.12L230.39,125.25L229.70,124.47L228.78,123.81L204.88,110.11L204.33,109.89L204.10,109.69L203.42,109.27L194.49,104.16"/></g></g><g id="Actor_.6"><g style="stroke:#000000;stroke-width:0.176"><path d="M238.36,164.82L237.27,164.14L236.32,163.21L235.55,162.07L234.95,160.71L234.55,159.17L234.35,157.47L234.33,156.57L234.35,155.64L234.55,153.71L234.95,151.71L235.55,149.68L236.32,147.64L237.27,145.63L238.30,143.80L238.36,143.69L239.60,141.84L240.95,140.12L242.17,138.79L242.39,138.55L243.91,137.16L245.46,135.98L247.04,135.01L248.61,134.29L250.15,133.81L251.63,133.59L252.20,133.61"/><path d="M252.77,137.61L253.71,138.12L254.56,138.90L255.24,139.91L255.73,141.13L255.82,141.52L256.03,142.52L256.14,144.06L256.03,145.72L255.73,147.46L255.24,149.24L254.56,151.03L253.71,152.79L252.72,154.47L251.59,156.05L250.36,157.49L249.05,158.76L247.68,159.84L246.30,160.69L244.92,161.30L243.58,161.67L242.31,161.77L241.13,161.61L240.06,161.20L239.49,160.79"/><path d="M255.50,134.50L254.33,133.94L253.28,133.69"/></g><g style="stroke:#000000;stroke-width:0.529"><path d="M251.95,133.05L250.61,133.01L249.13,133.23L247.59,133.70L246.02,134.43L244.44,135.39L242.88,136.58L241.37,137.97L241.25,138.10L239.93,139.53L238.58,141.26L237.34,143.11L236.25,145.05L235.30,147.06L234.53,149.09L234.07,150.65L233.93,151.13L233.53,153.13L233.33,155.06L233.31,155.99L233.33,156.89L233.53,158.59L233.93,160.12L234.53,161.48L235.30,162.63L236.25,163.55L237.34,164.24L238.36,164.82L239.60,165.25L240.95,165.43L242.39,165.34L243.91,164.99L245.46,164.39L247.04,163.54L248.61,162.47L250.17,161.16L251.63,159.70L253.03,158.05L254.33,156.26L254.97,155.22L255.50,154.36L256.52,152.38L257.38,150.35L258.05,148.37L258.07,148.31L258.56,146.29L258.87,144.32L258.97,142.44L258.87,140.67L258.56,139.05L258.07,137.60L257.38,136.34L256.52,135.30L255.50,134.50L254.48,133.91L253.31,133.35L253.11,133.31"/><path d="M237.47,157.50L237.39,157.21L237.18,155.74L237.16,154.95L237.18,154.13L237.39,152.43L237.78,150.66L238.37,148.87L239.14,147.09L240.06,145.37L241.13,143.73L242.31,142.22L243.58,140.86L244.92,139.68L246.30,138.72L247.68,137.98L249.05,137.49L250.36,137.26L251.59,137.29L252.72,137.57L252.77,137.61L253.54,138.32L254.22,139.33L254.71,140.54L255.01,141.94L255.06,142.66L255.12,143.48L255.01,145.14L254.71,146.88L254.22,148.66L253.54,150.45L252.69,152.20L251.70,153.89L250.57,155.47L249.34,156.91L248.03,158.18L246.66,159.25L245.28,160.10L243.90,160.72L242.56,161.08L241.29,161.18L240.11,161.03L239.49,160.79L239.14,160.53L238.37,159.63L237.78,158.52L237.47,157.50"/></g></g><g id="Actor_.7"><g style="stroke:#000000;stroke-width:0.176"><path d="M191.92,151.87L191.92,151.32L192.08,150.70L192.37,150.10L192.78,149.56L193.24,149.16"/><path d="M196.65,155.03L196.71,154.50L196.79,154.25L196.79,156.18"/><path d="M202.94,152.03L202.72,152.05L202.47,152.06L201.98,152.04L201.40,151.96L201.02,151.89L200.61,151.81L200.39,152.25L200.14,152.69L199.65,153.38L200.21,152.79L200.82,152.35L201.43,152.09L201.98,152.04L202.46,152.19L202.84,152.54L203.07,153.06L203.15,153.71L203.07,154.44L202.84,155.24L202.46,156.02L201.98,156.72L201.43,157.30L200.82,157.75L200.21,158.00L199.65,158.06L199.17,157.91L198.80,157.56L198.56,157.03L198.48,156.38L198.56,155.64L198.80,154.85L199.18,154.07L199.65,153.38L199.07,154.01L198.69,154.36L198.28,154.71L196.79,153.86L198.76,151.41"/><path d="M196.79,154.25L196.79,153.86"/><path d="M197.03,153.56L197.42,152.81L197.98,152.08L198.62,151.49L198.68,151.46"/><path d="M198.28,157.82L198.37,157.46L198.44,157.07L198.48,156.38L198.44,155.63L198.37,155.17L198.28,154.71"/><path d="M199.13,150.96L200.61,151.81"/><path d="M199.71,151.01L200.54,151.09"/></g><g style="stroke:#000000;stroke-width:0.529"><path d="M193.05,152.97L192.37,152.58L192.08,152.31L191.92,151.87L191.92,151.55L191.92,151.09L192.05,150.58L192.30,150.07L192.63,149.62L193.02,149.29L193.24,149.16L193.72,148.93L194.16,148.90L194.51,149.07L198.68,151.46L198.76,151.41L199.13,150.96L199.71,151.01L199.92,150.96L200.48,151.06L200.54,151.09L201.46,151.18L202.94,152.03L203.03,152.50L203.10,152.97L203.15,153.71L203.10,154.40L203.03,154.78L202.94,155.15L202.72,155.59L202.47,156.03L201.98,156.72L201.40,157.36L201.02,157.71L200.61,158.05L200.39,158.07L200.14,158.08L199.65,158.06L199.07,157.98L198.68,157.91L198.28,157.82L196.79,156.97L196.79,156.18L196.71,156.02L196.62,155.31L196.65,155.03L193.05,152.97"/></g></g><g id="Actor_.8"><g style="stroke:#000000;stroke-width:0.176"><path d="M37.61,49.69L36.58,48.88L35.72,47.84L35.04,46.59L34.54,45.14L34.24,43.52L34.14,41.75L34.24,39.87L34.54,37.90L35.04,35.88L35.72,33.84L36.52,31.96L36.58,31.81L37.61,29.83L38.78,27.93L40.07,26.14L41.47,24.49L42.95,23.01L44.49,21.72L46.06,20.64L47.64,19.80L49.20,19.19L50.71,18.85L52.16,18.76L53.51,18.93L54.74,19.37"/><path d="M52.59,22.81L53.04,22.99L53.97,23.66L54.73,24.56L55.32,25.67L55.72,26.98L55.92,28.45L55.95,29.24L55.92,30.06L55.72,31.76L55.32,33.53L54.73,35.32L54.71,35.38L53.97,37.09L53.04,38.82L51.98,40.46L50.80,41.97L49.52,43.33L48.18,44.50L47.98,44.65L46.81,45.47L45.42,46.20L44.06,46.69L42.75,46.93L41.52,46.90L40.39,46.61L39.39,46.07L39.31,46.00"/></g><g style="stroke:#000000;stroke-width:0.529"><path d="M40.44,50.56L40.07,50.55L38.78,50.25L37.61,49.69L36.59,49.10L35.56,48.30L34.70,47.26L34.02,46.00L33.52,44.55L33.22,42.93L33.12,41.16L33.22,39.28L33.52,37.31L34.00,35.38L34.02,35.29L34.70,33.25L35.56,31.22L36.59,29.24L37.76,27.34L39.05,25.55L40.45,23.91L41.93,22.42L43.47,21.13L45.04,20.06L46.62,19.21L48.18,18.61L49.69,18.26L51.14,18.17L52.49,18.35L53.72,18.78L54.74,19.37L55.84,20.05L56.78,20.97L57.56,22.12L58.15,23.48L58.55,25.02L58.75,26.72L58.78,27.62L58.75,28.54L58.55,30.47L58.15,32.47L57.56,34.51L56.78,36.55L55.84,38.55L54.74,40.50L53.51,42.35L52.16,44.07L50.71,45.64L49.20,47.02L47.64,48.21L46.06,49.17L44.49,49.90L42.95,50.38L41.45,50.59"/><path d="M37.50,43.37L37.37,43.06L37.07,41.67L36.97,40.12L37.07,38.47L37.37,36.73L37.87,34.94L38.55,33.16L39.39,31.40L40.39,29.71L41.52,28.13L42.75,26.69L44.06,25.42L45.42,24.35L46.81,23.50L48.18,22.88L49.52,22.52L50.80,22.42L51.98,22.58L52.59,22.81L52.95,23.07L53.71,23.97L54.30,25.09L54.70,26.39L54.90,27.87L54.93,28.65L54.90,29.47L54.70,31.17L54.30,32.94L53.71,34.73L52.95,36.51L52.02,38.23L50.96,39.87L49.78,41.38L48.50,42.74L47.16,43.92L45.79,44.88L44.40,45.62L43.04,46.11L41.73,46.34L40.50,46.31L39.37,46.03L39.31,46.00L38.55,45.29L37.87,44.28L37.50,43.37"/></g></g><g id="Actor_.9"><g style="stroke:#000000;stroke-width:0.176"><path d="M83.22,72.40L82.27,71.72L82.25,71.70L81.47,70.81L80.85,69.69L80.41,68.37L80.16,66.89L80.11,65.27L80.26,63.54L80.60,61.75L81.14,59.91L81.85,58.08L82.73,56.27L83.75,54.54L84.90,52.91L86.16,51.42L87.50,50.08L88.89,48.94L90.31,48.01L91.38,47.48L91.73,47.31L93.12,46.86L94.46,46.66L95.71,46.71L96.87,47.02L97.89,47.58"/><path d="M81.10,67.60L80.99,67.17L80.84,65.66L80.89,64.03L81.14,62.31L81.59,60.54L82.22,58.75L83.03,56.99L83.99,55.29L85.08,53.68L86.29,52.20L87.58,50.89L88.93,49.77L90.31,48.86L91.69,48.18L92.64,47.88L93.04,47.76L94.33,47.59L95.54,47.68L96.63,48.03L97.59,48.64L98.40,49.48L99.03,50.54L99.47,51.80L99.73,53.23L99.78,54.80L99.62,56.48L99.27,58.23L98.73,60.02L98.01,61.80L97.13,63.54L96.10,65.20L94.95,66.74L93.69,68.14L92.37,69.36L91.00,70.38L89.62,71.18L88.25,71.73L86.92,72.03L85.67,72.06L84.53,71.84L83.49,71.36L82.60,70.64L81.88,69.68L81.34,68.52L81.10,67.60"/></g><g style="stroke:#000000;stroke-width:0.529"><path d="M78.62,69.76L65.73,62.37L64.78,61.69L63.98,60.78L63.36,59.65L62.92,58.34L62.67,56.86L62.62,55.24L62.77,53.51L63.11,51.71L63.65,49.88L64.36,48.04L65.24,46.24L66.26,44.51L67.06,43.37L67.41,42.88L68.67,41.38L70.01,40.05L71.40,38.91L72.82,37.98L74.24,37.28L75.63,36.83L76.97,36.62L78.22,36.68L79.38,36.98L80.40,37.54L97.89,47.58L98.77,48.37L99.48,49.39L100.01,50.61L100.36,52.02L100.50,53.57L100.46,55.25L100.21,57.01L99.77,58.83L99.14,60.67L98.35,62.50L97.40,64.27L96.31,65.96L95.10,67.52L93.80,68.94L92.43,70.18L91.02,71.22L89.60,72.03L88.19,72.61L86.82,72.94L85.52,73.02L84.31,72.84L83.22,72.40L79.74,70.41"/></g></g><g><g><path style="stroke:#000000;stroke-width:0.125;stroke-dasharray:2.2 1.5 0.7 1.5" d="M36.69,29.08L26.52,23.24"/><path style="stroke:#000000;stroke-width:0.125;stroke-dasharray:2.2 1.5 0.7 1.5" d="M65.58,45.65L39.73,30.82"/><path style="stroke:#000000;stroke-width:0.125;stroke-dasharray:2.2 1.5 0.7 1.5" d="M83.59,55.98L107.00,69.41"/><path style="stroke:#000000;stroke-width:0.125;stroke-dasharray:2.2 1.5 0.7 1.5" d="M168.13,104.47L134.35,85.10"/></g></g><g><g><path style="stroke:#000000;stroke-width:0.125;stroke-dasharray:2.2 1.5 0.7 1.5" d="M184.43,154.98L192.04,150.61"/><path style="stroke:#000000;stroke-width:0.125;stroke-dasharray:2.2 1.5 0.7 1.5" d="M194.61,149.13L211.92,139.20"/></g></g><g><g><path style="stroke:#000000;stroke-width:0.125;stroke-dasharray:2.2 1.5 0.7 1.5" d="M224.16,136.61L236.89,143.91"/><path style="stroke:#000000;stroke-width:0.125;stroke-dasharray:2.2 1.5 0.7 1.5" d="M263.36,159.09L239.91,145.64"/></g></g><g><g><path style="stroke:#000000;stroke-width:0.125;stroke-dasharray:2.2 1.5 0.7 1.5" d="M180.39,170.35L192.26,177.16"/></g></g><g><g><path style="stroke:#000000;stroke-width:0.125;stroke-dasharray:2.2 1.5 0.7 1.5" d="M180.39,143.33L192.26,150.14"/></g></g><g id="PMI.0"><g><path style="stroke:#000000;stroke-width:0.125" d="M29.23,101.94L23.67,21.41"/></g><g><path style="fill:#000000" d="M24.42,21.41L24.42,21.34L24.41,21.26L24.39,21.19L24.36,21.12L24.33,21.06L24.29,20.99L24.25,20.93L24.20,20.88L24.15,20.83L24.09,20.79L24.02,20.75L23.96,20.72L23.89,20.69L23.82,20.67L23.74,20.66L23.67,20.66L23.60,20.66L23.52,20.67L23.45,20.69L23.38,20.72L23.32,20.75L23.25,20.79L23.19,20.83L23.14,20.88L23.09,20.93L23.05,20.99L23.01,21.06L22.98,21.12L22.95,21.19L22.93,21.26L22.92,21.34L22.92,21.41L22.92,21.48L22.93,21.56L22.95,21.63L22.98,21.70L23.01,21.76L23.05,21.83L23.09,21.89L23.14,21.94L23.19,21.99L23.25,22.03L23.32,22.07L23.38,22.10L23.45,22.13L23.52,22.15L23.60,22.16L23.67,22.16L23.74,22.16L23.82,22.15L23.89,22.13L23.96,22.10L24.02,22.07L24.09,22.03L24.15,21.99L24.20,21.94L24.25,21.89L24.29,21.83L24.33,21.76L24.36,21.70L24.39,21.63L24.41,21.56L24.42,21.48z"/></g><g><text xml:space="preserve" fill="#000000" stroke-width="0" x="21.01" y="107.37" font-size="3.81" opacity="1.00" font-family="Arial">MSR0055</text></g></g><g id="PMI.1"><g><path style="stroke:#000000;stroke-width:0.125" d="M61.59,120.94L40.34,48.50"/></g><g><path style="fill:#000000" d="M41.09,48.50L41.08,48.43L41.07,48.36L41.06,48.29L41.03,48.22L41.00,48.15L40.96,48.09L40.92,48.03L40.87,47.97L40.81,47.92L40.75,47.88L40.69,47.84L40.62,47.81L40.56,47.79L40.48,47.77L40.41,47.76L40.34,47.75L40.26,47.76L40.19,47.77L40.12,47.79L40.05,47.81L39.98,47.84L39.92,47.88L39.86,47.92L39.81,47.97L39.76,48.03L39.71,48.09L39.68,48.15L39.64,48.22L39.62,48.29L39.60,48.36L39.59,48.43L39.59,48.50L39.59,48.58L39.60,48.65L39.62,48.72L39.64,48.79L39.68,48.86L39.71,48.92L39.76,48.98L39.81,49.03L39.86,49.08L39.92,49.13L39.98,49.17L40.05,49.20L40.12,49.22L40.19,49.24L40.26,49.25L40.34,49.25L40.41,49.25L40.48,49.24L40.56,49.22L40.62,49.20L40.69,49.17L40.75,49.13L40.81,49.08L40.87,49.03L40.92,48.98L40.96,48.92L41.00,48.86L41.03,48.79L41.06,48.72L41.07,48.65L41.08,48.58z"/></g><g><text xml:space="preserve" fill="#000000" stroke-width="0" x="54.07" y="126.37" font-size="3.81" opacity="1.00" font-family="Arial">MSR0040</text></g></g><g id="PMI.2"><g><path style="stroke:#000000;stroke-width:0.125" d="M94.97,139.94L77.65,63.30"/></g><g><path style="fill:#000000" d="M78.40,63.30L78.39,63.23L78.38,63.15L78.36,63.08L78.34,63.01L78.31,62.95L78.27,62.88L78.23,62.82L78.18,62.77L78.12,62.72L78.06,62.68L78.00,62.64L77.93,62.61L77.86,62.58L77.79,62.56L77.72,62.55L77.65,62.55L77.57,62.55L77.50,62.56L77.43,62.58L77.36,62.61L77.29,62.64L77.23,62.68L77.17,62.72L77.12,62.77L77.07,62.82L77.02,62.88L76.98,62.95L76.95,63.01L76.93,63.08L76.91,63.15L76.90,63.23L76.90,63.30L76.90,63.37L76.91,63.45L76.93,63.52L76.95,63.59L76.98,63.65L77.02,63.72L77.07,63.77L77.12,63.83L77.17,63.88L77.23,63.92L77.29,63.96L77.36,63.99L77.43,64.02L77.50,64.03L77.57,64.05L77.65,64.05L77.72,64.05L77.79,64.03L77.86,64.02L77.93,63.99L78.00,63.96L78.06,63.92L78.12,63.88L78.18,63.83L78.23,63.77L78.27,63.72L78.31,63.65L78.34,63.59L78.36,63.52L78.38,63.45L78.39,63.37z"/></g><g><text xml:space="preserve" fill="#000000" stroke-width="0" x="87.13" y="145.37" font-size="3.81" opacity="1.00" font-family="Arial">MGB0040</text></g></g><g id="PMI.3"><g><path style="stroke:#000000;stroke-width:0.125" d="M127.91,159.11L109.88,102.96"/></g><g><path style="fill:#000000" d="M110.63,102.96L110.63,102.89L110.62,102.81L110.60,102.74L110.58,102.67L110.54,102.61L110.51,102.54L110.46,102.48L110.41,102.43L110.36,102.38L110.30,102.34L110.24,102.30L110.17,102.27L110.10,102.24L110.03,102.22L109.96,102.21L109.88,102.21L109.81,102.21L109.74,102.22L109.67,102.24L109.60,102.27L109.53,102.30L109.47,102.34L109.41,102.38L109.35,102.43L109.30,102.48L109.26,102.54L109.22,102.61L109.19,102.67L109.17,102.74L109.15,102.81L109.14,102.89L109.13,102.96L109.14,103.03L109.15,103.11L109.17,103.18L109.19,103.25L109.22,103.31L109.26,103.38L109.30,103.44L109.35,103.49L109.41,103.54L109.47,103.58L109.53,103.62L109.60,103.65L109.67,103.68L109.74,103.70L109.81,103.71L109.88,103.71L109.96,103.71L110.03,103.70L110.10,103.68L110.17,103.65L110.24,103.62L110.30,103.58L110.36,103.54L110.41,103.49L110.46,103.44L110.51,103.38L110.54,103.31L110.58,103.25L110.60,103.18L110.62,103.11L110.63,103.03z"/></g><g><text xml:space="preserve" fill="#000000" stroke-width="0" x="119.82" y="164.55" font-size="3.80" opacity="1.00" font-family="Arial">BPA27810</text></g></g><g id="PMI.4"><g><path style="stroke:#000000;stroke-width:0.125" d="M210.58,95.55L187.99,106.89"/></g><g><path style="fill:#000000" d="M188.74,106.89L188.74,106.81L188.73,106.74L188.71,106.67L188.69,106.60L188.65,106.53L188.62,106.47L188.57,106.41L188.52,106.36L188.47,106.31L188.41,106.26L188.35,106.23L188.28,106.19L188.21,106.17L188.14,106.15L188.07,106.14L187.99,106.14L187.92,106.14L187.85,106.15L187.78,106.17L187.71,106.19L187.64,106.23L187.58,106.26L187.52,106.31L187.46,106.36L187.41,106.41L187.37,106.47L187.33,106.53L187.30,106.60L187.28,106.67L187.26,106.74L187.25,106.81L187.24,106.89L187.25,106.96L187.26,107.03L187.28,107.10L187.30,107.17L187.33,107.24L187.37,107.30L187.41,107.36L187.46,107.42L187.52,107.47L187.58,107.51L187.64,107.55L187.71,107.58L187.78,107.60L187.85,107.62L187.92,107.63L187.99,107.64L188.07,107.63L188.14,107.62L188.21,107.60L188.28,107.58L188.35,107.55L188.41,107.51L188.47,107.47L188.52,107.42L188.57,107.36L188.62,107.30L188.65,107.24L188.69,107.17L188.71,107.10L188.73,107.03L188.74,106.96z"/></g><g><text xml:space="preserve" fill="#000000" stroke-width="0" x="207.68" y="94.77" font-size="3.80" opacity="1.00" font-family="Arial">BPA27913</text></g></g><g id="PMI.5"><g><path style="stroke:#000000;stroke-width:0.125" d="M241.95,109.06L253.65,135.74"/></g><g><path style="fill:#000000" d="M254.40,135.74L254.40,135.66L254.39,135.59L254.37,135.52L254.34,135.45L254.31,135.38L254.27,135.32L254.23,135.26L254.18,135.21L254.13,135.16L254.07,135.11L254.00,135.07L253.94,135.04L253.87,135.02L253.80,135.00L253.72,134.99L253.65,134.99L253.58,134.99L253.50,135.00L253.43,135.02L253.36,135.04L253.30,135.07L253.23,135.11L253.17,135.16L253.12,135.21L253.07,135.26L253.03,135.32L252.99,135.38L252.96,135.45L252.93,135.52L252.91,135.59L252.90,135.66L252.90,135.74L252.90,135.81L252.91,135.88L252.93,135.95L252.96,136.02L252.99,136.09L253.03,136.15L253.07,136.21L253.12,136.27L253.17,136.32L253.23,136.36L253.30,136.40L253.36,136.43L253.43,136.45L253.50,136.47L253.58,136.48L253.65,136.49L253.72,136.48L253.80,136.47L253.87,136.45L253.94,136.43L254.00,136.40L254.07,136.36L254.13,136.32L254.18,136.27L254.23,136.21L254.27,136.15L254.31,136.09L254.34,136.02L254.37,135.95L254.39,135.88L254.40,135.81z"/></g><g><text xml:space="preserve" fill="#000000" stroke-width="0" x="232.16" y="108.29" font-size="3.81" opacity="1.00" font-family="Arial">MSR0040</text></g></g><g id="PMI.6"><g><path style="stroke:#000000;stroke-width:0.125" d="M165.58,178.11L182.82,163.32"/></g><g><path style="fill:#000000" d="M183.57,163.32L183.56,163.25L183.55,163.18L183.53,163.11L183.51,163.04L183.48,162.97L183.44,162.91L183.40,162.85L183.35,162.79L183.29,162.74L183.23,162.70L183.17,162.66L183.10,162.63L183.03,162.61L182.96,162.59L182.89,162.58L182.82,162.57L182.74,162.58L182.67,162.59L182.60,162.61L182.53,162.63L182.46,162.66L182.40,162.70L182.34,162.74L182.29,162.79L182.24,162.85L182.19,162.91L182.15,162.97L182.12,163.04L182.10,163.11L182.08,163.18L182.07,163.25L182.07,163.32L182.07,163.40L182.08,163.47L182.10,163.54L182.12,163.61L182.15,163.68L182.19,163.74L182.24,163.80L182.29,163.85L182.34,163.90L182.40,163.95L182.46,163.98L182.53,164.02L182.60,164.04L182.67,164.06L182.74,164.07L182.82,164.07L182.89,164.07L182.96,164.06L183.03,164.04L183.10,164.02L183.17,163.98L183.23,163.95L183.29,163.90L183.35,163.85L183.40,163.80L183.44,163.74L183.48,163.68L183.51,163.61L183.53,163.54L183.55,163.47L183.56,163.40z"/></g><g><text xml:space="preserve" fill="#000000" stroke-width="0" x="152.88" y="183.54" font-size="3.80" opacity="1.00" font-family="Arial">BPA15722</text></g></g><g id="PMI.7"><g><path style="stroke:#000000;stroke-width:0.125" d="M264.62,122.76L265.79,158.82"/></g><g><path style="fill:#000000" d="M266.54,158.82L266.53,158.74L266.52,158.67L266.50,158.60L266.48,158.53L266.45,158.46L266.41,158.40L266.37,158.34L266.32,158.28L266.26,158.24L266.20,158.19L266.14,158.15L266.07,158.12L266.00,158.10L265.93,158.08L265.86,158.07L265.79,158.07L265.71,158.07L265.64,158.08L265.57,158.10L265.50,158.12L265.43,158.15L265.37,158.19L265.31,158.24L265.26,158.28L265.21,158.34L265.16,158.40L265.13,158.46L265.09,158.53L265.07,158.60L265.05,158.67L265.04,158.74L265.04,158.82L265.04,158.89L265.05,158.96L265.07,159.03L265.09,159.10L265.13,159.17L265.16,159.23L265.21,159.29L265.26,159.35L265.31,159.39L265.37,159.44L265.43,159.48L265.50,159.51L265.57,159.53L265.64,159.55L265.71,159.56L265.79,159.57L265.86,159.56L265.93,159.55L266.00,159.53L266.07,159.51L266.14,159.48L266.20,159.44L266.26,159.39L266.32,159.35L266.37,159.29L266.41,159.23L266.45,159.17L266.48,159.10L266.50,159.03L266.52,158.96L266.53,158.89z"/></g><g><text xml:space="preserve" fill="#000000" stroke-width="0" x="256.08" y="121.99" font-size="3.81" opacity="1.00" font-family="Arial">MSR0055</text></g></g><g id="PMI.8"><g><path style="stroke:#000000;stroke-width:0.125" d="M196.18,197.11L200.28,183.44"/></g><g><path style="fill:#000000" d="M201.03,183.44L201.03,183.37L201.02,183.29L201.00,183.22L200.97,183.15L200.94,183.09L200.91,183.02L200.86,182.96L200.81,182.91L200.76,182.86L200.70,182.82L200.64,182.78L200.57,182.75L200.50,182.72L200.43,182.70L200.36,182.69L200.28,182.69L200.21,182.69L200.14,182.70L200.06,182.72L199.99,182.75L199.93,182.78L199.86,182.82L199.81,182.86L199.75,182.91L199.70,182.96L199.66,183.02L199.62,183.09L199.59,183.15L199.56,183.22L199.55,183.29L199.54,183.37L199.53,183.44L199.54,183.51L199.55,183.59L199.56,183.66L199.59,183.73L199.62,183.79L199.66,183.86L199.70,183.91L199.75,183.97L199.81,184.02L199.86,184.06L199.93,184.10L199.99,184.13L200.06,184.16L200.14,184.17L200.21,184.19L200.28,184.19L200.36,184.19L200.43,184.17L200.50,184.16L200.57,184.13L200.64,184.10L200.70,184.06L200.76,184.02L200.81,183.97L200.86,183.91L200.91,183.86L200.94,183.79L200.97,183.73L201.00,183.66L201.02,183.59L201.03,183.51z"/></g><g><text xml:space="preserve" fill="#000000" stroke-width="0" x="188.32" y="202.54" font-size="3.78" opacity="1.00" font-family="Arial">ND0845</text></g></g><g/><g><g/><g><text xml:space="preserve" fill="#000000" stroke-width="0" x="8.29" y="11.88" font-size="4.53" opacity="1.00" font-family="Arial" font-weight="bold">BPA27914</text></g></g><g id="paperID" visibility="hidden" opacity="0.00" transform="scale(0.000100)"><path style="stroke:#000000;stroke-width:0.500;fill:#e6e6e6;fill-rule:evenodd" d="M-2000.00,-2000.00L2297.00,-2000.00L2297.00,2210.00L-2000.00,2210.00zM0.00,0.00L297.00,0.00L297.00,210.00L0.00,210.00z"/><path style="fill:#000000;fill-opacity:0.118" d="M3.00,210.00L297.00,210.00L297.00,3.00L300.00,3.00L300.00,213.00L3.00,213.00z"/></g></g></svg>
