<?xml version="1.0" encoding="UTF-8" standalone="no"?>
<svg xmlns="http://www.w3.org/2000/svg" xmlns:xlink="http://www.w3.org/1999/xlink" width="297.000mm" height="210.000mm" viewBox="0.000000 0.000000 297.000000 210.000000" stroke-linejoin="round" stroke-linecap="round" fill="none" fill-rule="evenodd"><desc>Composer Export</desc><script type="text/ecmascript"><![CDATA[
if(typeof(top) != "undefined")
{
	top.ShowPaper = ShowPaper;
}
function ShowHotSpot(evt,hotspotid)
{
	var svgDocument = evt.target.ownerDocument;
	var strId = "hotspot."+hotspotid;
	var hotspot = svgDocument.getElementById(strId);
	if(hotspot)
		hotspot.setAttribute("opacity",".5");
}
function HideHotSpot(evt,hotspotid)
{
	var svgDocument = evt.target.ownerDocument;
	var strId = "hotspot."+hotspotid;
	var hotspot = svgDocument.getElementById(strId);
	if(hotspot)
		hotspot.setAttribute("opacity","0");

	var toolTip = svgDocument.getElementById('ToolTip');
	if(toolTip)
		toolTip.setAttribute("visibility","hidden");
}
function ShowToolTip(evt,hotspotid,strTooltip)
{
	if(strTooltip=="")
	return;

	// change text
	var svgDocument = evt.target.ownerDocument;
	var tiptext = svgDocument.getElementById('ToolTipText');
	if( !tiptext )
	return;
	tiptext.firstChild.nodeValue = " " + strTooltip + "  " ;

	// show tooltip before, else some refresh issue

	var toolTip = svgDocument.getElementById('ToolTip');
	if(!toolTip)
	return;

	toolTip.setAttribute("visibility","visible");
	toolTip.setAttribute("opacity",".95");

	// move tooltip
	// get viewbox

	var root = svgDocument.documentElement;
	var vbox = (root.getAttribute("viewBox")).split(' ');
	var x0 = parseFloat(vbox[0]);
	var y0 = parseFloat(vbox[1]);
	var vboxW = parseFloat(vbox[2]);
	var vboxH = parseFloat(vbox[3]);

	// get default width of svg

	var strW = root.getAttribute("width");
	var svgW = parseFloat(strW);
	if(strW.indexOf('mm') != -1)
	svgW *= 3.779;

	var strH = root.getAttribute("height");
	var svgH = parseFloat(strH);
	if(strH.indexOf('mm') != -1)
	svgH *= 3.779;  	// 96 dpi  -> 96/25.4 = 3.779

	// update the viewbox / width / height if svg is embedded in html with zoom fit all
	var realx0 = x0;
	var realy0 = y0;
	var realvboxW = vboxW;
	var realvboxH = vboxH;
	var realsvgW = svgW;
	var realsvgH = svgH;

	if ((typeof(top) == "undefined") || (typeof(top.svgctl1) != "undefined")) // embedded in html
	{
		// get window size in pxl

		svgW = window.innerWidth;
		svgH = window.innerHeight;

		// calculate real viewbox

		realsvgW = svgW;
		realsvgH = svgH;
		if((svgW / svgH) > (vboxW / vboxH))
		{
			realvboxW = (vboxH * svgW) / svgH;
			realvboxH = vboxH;
			realx0 = x0 - (realvboxW - vboxW)/2 ;
		}
		else
		{
			realvboxH = (vboxW * svgH) / svgW;
			realvboxW = vboxW;
			realy0 = y0 - (realvboxH - vboxH)/2 ;
		}
	}

	// get user zoom/pan

	var newScale = root.currentScale;
	var translation = root.currentTranslate;

	// transform pxl to user unit

	var xPos = (((evt.clientX+10- translation.x)/newScale) * realvboxW)/realsvgW  + realx0 ;
	var yPos = (((evt.clientY+5- translation.y)/newScale) * realvboxH)/ realsvgH  + realy0 ;
	var scaleForWidth = ( (1 / newScale) * realvboxH) / realsvgH;

	// move tooltip

	toolTip.setAttribute("transform", "translate(" + xPos + "," + yPos + ")" );

	// resize tooltip

	var fontsize = 12;
	tiptext.setAttribute("font-size",fontsize*scaleForWidth);
	tiptext.setAttribute("y", fontsize*scaleForWidth);
	var tipBG = svgDocument.getElementById('ToolTipBG');
	var outline = tiptext.getBBox();
	if(tipBG)
	{
		tipBG.setAttribute("stroke-width", 1*scaleForWidth);
		tipBG.setAttribute("width", Number(outline.width) );
		tipBG.setAttribute("height", Number(outline.height) + fontsize*.5*scaleForWidth );
	}
	var ToolTipShadow = svgDocument.getElementById('ToolTipShadow');
	if(ToolTipShadow)
	{
		ToolTipShadow.setAttribute("width", Number(outline.width) );
		ToolTipShadow.setAttribute("height", Number(outline.height) + fontsize*.5*scaleForWidth );
		ToolTipShadow.setAttribute("x", 3*scaleForWidth);
		ToolTipShadow.setAttribute("y", 3*scaleForWidth);
	}
}
function ShowPaper()
{
  var svgDocument = getDocument();
  var paper = svgDocument.getElementById("paperID");
  if(paper)
  {
    paper.setAttribute("transform","scale(1)");
    paper.setAttribute("opacity","1");
    paper.setAttribute("visibility","visible");
  }
  var svg = svgDocument.getRootElement();
  if(svg)
  {
    svg.setAttribute("width","307.000mm");
    svg.setAttribute("height","220.000mm");
    svg.setAttribute("viewBox","-5.000000 -5.000000 307.000000 220.000000");
  }
}
]]></script><defs/><g><path style="fill:#000000;fill-opacity:0.098;fill-rule:evenodd" d="M43.85,42.16L43.86,43.86L42.52,43.81L42.03,43.32L42.05,42.54L42.48,42.15L43.53,41.97zM31.36,48.48L30.64,48.92L30.31,48.96L30.36,48.46L31.02,48.10zM264.72,184.26L265.04,184.26L264.83,182.27L264.98,181.44L265.54,181.34L265.81,179.97L266.87,177.57L268.34,175.43L269.81,174.09L271.07,173.22L271.74,173.06L272.05,172.39L272.76,172.23L274.26,172.56L275.24,173.55L275.90,175.19L275.91,176.24L273.11,174.70L272.29,174.55L271.07,174.86L269.76,175.69L268.75,176.83L267.69,178.39L267.13,179.81L266.85,181.17L266.85,182.43L266.96,183.14L270.00,184.90L270.30,184.92L270.13,183.64L270.29,182.31L271.12,180.18L272.04,178.80L272.88,177.82L274.36,176.84L275.88,176.50L276.73,176.67L277.23,177.15L277.88,178.48L276.37,178.50L275.90,178.15L275.23,177.98L274.19,178.15L273.21,178.82L272.29,179.87L271.44,181.82L271.45,183.43L271.77,184.09L272.10,184.41L272.76,184.74L272.95,185.05L273.05,185.77L280.02,189.81L283.98,192.01L283.90,190.32L284.45,190.21L285.05,188.35L286.19,186.69L287.69,185.56L288.07,185.44L288.00,184.91L288.57,184.75L289.39,184.89L290.20,185.72L290.54,187.21L290.21,189.23L289.49,190.66L288.25,192.21L286.37,193.29L285.10,193.29L273.77,186.86L273.29,186.38L271.45,186.39L270.63,185.87L270.42,185.87L269.27,186.39L268.28,186.54L267.17,186.55L261.77,183.57L70.18,73.71L67.55,71.74L66.37,70.74L66.33,70.59L66.53,70.58zM45.51,78.69L45.52,78.87L42.16,78.83L39.68,79.15L37.43,79.86L35.30,81.02L33.49,82.67L33.49,82.35L35.30,80.69L37.43,79.53L39.68,78.82L42.16,78.50L45.01,78.50zM41.72,84.14L42.81,83.59L43.86,83.59L43.86,85.63L42.53,85.58L41.72,85.08zM46.20,85.16L45.84,85.64L44.96,86.07L44.11,86.27L44.11,86.09L45.60,85.56L46.18,85.09zM56.07,86.65L55.86,86.96L55.86,86.60L56.04,86.56zM55.58,87.47L55.26,87.82L55.38,87.41zM49.16,85.99L48.31,86.95L47.31,87.60L45.29,88.21L42.62,88.24L42.62,88.05L45.29,87.88L47.31,87.27L48.31,86.63L49.14,85.91zM56.24,90.43L56.03,90.74L56.03,90.38L56.21,90.34zM55.74,91.25L55.54,91.56L55.54,91.20L55.71,91.16zM41.48,92.17L41.47,92.00L45.94,91.82L48.25,91.50L51.36,90.50L53.49,89.34L55.26,87.82L55.21,88.10L53.82,89.34L53.06,89.90L52.01,90.82L50.76,91.71L48.74,92.48L46.60,92.97L42.03,92.98L41.87,92.32zM45.44,95.93L48.46,95.49L51.20,94.61L53.65,93.29L54.71,92.37L55.22,91.99L55.22,92.18L53.65,93.62L51.20,94.94L48.46,95.82L45.28,96.26L41.87,96.28L41.48,96.12L41.48,95.94zM45.50,105.11L45.66,117.64L45.99,117.81L47.17,118.76L47.48,119.62L47.30,120.32L46.83,121.00L45.94,121.59L44.62,121.91L42.95,121.95L42.95,121.76L45.12,121.59L46.10,121.26L47.00,120.49L46.84,120.08L45.51,118.62L44.80,118.97L43.30,119.01L43.30,106.61L44.63,106.46L45.35,106.04L45.12,105.63L45.35,104.95z"/><g id="Actor_.0"><g style="stroke:#000000;stroke-width:0.176"><path d="M40.06,85.32L40.45,85.86L41.26,86.39L42.32,86.73L43.53,86.86L44.74,86.76L45.83,86.44L46.67,85.93L47.18,85.30L47.31,84.60L47.03,83.91L47.02,83.90L46.38,83.32L45.43,82.88L44.28,82.64L43.06,82.62L41.89,82.84L41.85,82.86L40.91,83.26L40.23,83.84L39.90,84.51L39.89,84.87L39.98,85.22L40.06,85.32"/><path d="M41.04,84.17L41.21,83.96L41.09,84.07L40.85,84.57L40.84,84.83L40.90,85.09L41.25,85.57L41.86,85.97L42.43,86.15L42.65,86.22L43.55,86.32L44.45,86.24L45.26,86.00L45.87,85.64L45.89,85.63L46.27,85.15L46.36,84.63L46.16,84.12L46.01,83.99L46.18,84.23L46.24,84.73L46.00,85.21L45.51,85.62L44.81,85.92L43.98,86.07L43.11,86.06L42.29,85.89L41.62,85.58L41.15,85.15L40.96,84.67L41.04,84.17L40.97,84.41"/><path d="M40.86,84.92L40.91,84.66"/><path d="M41.21,83.96L41.41,83.71L42.01,83.35L42.79,83.12L43.65,83.05L44.51,83.14L45.27,83.39L45.85,83.76L46.01,83.99"/><path d="M40.88,84.83L40.85,84.88"/><path d="M41.98,85.28L42.46,85.55L43.06,85.71L43.31,85.72L43.73,85.75L44.38,85.66L44.94,85.46"/><path d="M41.70,84.96L42.00,85.30"/><path d="M41.71,84.98L41.62,84.62"/><path d="M45.55,84.85L45.55,84.85L45.34,85.18L44.94,85.46"/><path d="M45.54,84.85L45.56,84.50"/><path d="M46.18,84.23L46.26,84.47"/><path d="M46.32,84.84L46.31,84.72"/></g><g style="stroke:#000000;stroke-width:0.529"><path d="M39.29,84.77L39.33,84.52"/><path d="M39.46,84.09L39.83,83.60"/><path d="M40.05,83.38L40.66,82.98"/><path d="M41.96,82.48L40.89,82.84"/><path d="M43.26,82.30L42.07,82.45"/><path d="M44.61,82.36L43.39,82.29"/><path d="M44.73,82.38L45.87,82.66"/><path d="M46.89,83.17L45.95,82.69"/><path d="M47.08,83.33L47.56,83.80"/><path d="M47.90,84.54L47.74,84.15"/></g></g><g id="Actor_.1"><g style="stroke:#000000;stroke-width:0.176"><path d="M51.97,94.21L50.71,94.84L47.70,95.69L44.41,96.06L41.06,95.93L37.89,95.30L35.10,94.23L32.90,92.78L31.42,91.05L30.77,89.17"/><path d="M30.77,85.12L31.42,87.00L32.58,88.36L32.90,88.73L35.10,90.18L37.89,91.26L41.06,91.88L44.41,92.01L47.70,91.64L50.71,90.79L53.24,89.53L55.11,87.93L56.20,86.11L56.43,84.19"/><path d="M55.95,86.85L55.11,88.25L53.24,89.85L50.71,91.11L47.70,91.96L44.41,92.33L41.06,92.20L37.89,91.58L35.10,90.51L32.90,89.06L31.42,87.33L31.25,86.83"/><path d="M33.25,86.40L32.95,85.93L32.76,84.15L33.44,82.42L34.95,80.87L37.16,79.63L39.88,78.79L42.91,78.43L46.00,78.57L48.89,79.20L51.35,80.28L53.19,81.71L54.25,83.38L54.44,85.15L53.76,86.88L52.25,88.43L50.04,89.68L47.32,90.51L44.29,90.88L41.20,90.74L38.31,90.10L35.85,89.03L34.01,87.59L33.25,86.40"/><path d="M32.79,84.41L33.44,82.75L34.95,81.20L37.16,79.95L39.88,79.11L42.91,78.75L46.00,78.89L48.89,79.53L51.35,80.60L53.19,82.03L54.25,83.70L54.41,85.22"/><path d="M37.84,85.34L37.73,85.15L37.73,85.47L38.33,86.54L39.50,87.43L41.11,88.06L42.99,88.36L44.94,88.29L46.75,87.86L48.21,87.12L49.17,86.14L49.53,85.04L49.53,84.72L49.17,85.82L48.21,86.79L46.75,87.54L44.94,87.97L42.99,88.04L41.11,87.74L39.50,87.11L38.33,86.21L37.84,85.34"/><path d="M37.73,85.15L37.77,84.03L37.84,83.91L38.44,82.97L39.67,82.10L41.32,81.51L43.23,81.26L45.17,81.37L46.94,81.84L48.35,82.61L49.25,83.61L49.53,84.72"/><path d="M45.61,86.83L46.48,86.52L47.38,85.88L47.88,85.11L47.90,84.29L47.47,83.51L46.61,82.85L45.42,82.39L44.04,82.17L42.61,82.22L41.29,82.54L40.22,83.08L39.51,83.79L39.25,84.60L39.46,85.42L40.12,86.14L41.15,86.71L41.61,86.83"/><path d="M52.98,93.71L53.24,93.57L55.11,91.98L56.20,90.16L56.43,88.24"/></g><g style="stroke:#000000;stroke-width:0.529"><path d="M52.26,94.39L50.71,95.16L47.70,96.01L44.41,96.38L41.06,96.25L37.89,95.63L35.10,94.56L32.90,93.11L31.42,91.38L30.77,89.49L30.77,89.17L31.00,87.25L31.25,86.83L30.77,85.44L30.77,85.12L31.00,83.20L32.09,81.38L33.96,79.78L36.48,78.51L39.50,77.67L42.79,77.29L46.14,77.42L49.31,78.05L52.10,79.12L54.30,80.57L55.78,82.30L56.43,84.19L56.43,84.51L56.20,86.43L55.95,86.85L56.43,88.24L56.43,88.56L56.20,90.48L55.11,92.30L53.26,93.88"/><path d="M45.61,86.83L45.27,86.96L43.87,87.14L42.45,87.06L41.61,86.83"/></g></g><g id="Actor_.2"><g style="stroke:#000000;stroke-width:0.176"><path d="M47.45,119.61L47.23,120.32L46.61,120.96L45.67,121.44L44.50,121.73L43.58,121.76L43.23,121.78L42.01,121.59L40.96,121.19L40.19,120.61L39.79,119.92"/><path d="M41.65,117.57L41.65,118.15"/><path d="M41.65,117.82L41.63,117.85"/><path d="M41.65,105.69L41.85,106.04L42.24,106.34L42.78,106.55L43.41,106.65L44.06,106.62L44.66,106.47L45.14,106.22L45.46,105.90L45.58,105.53"/><path d="M42.50,104.54L42.16,104.79L41.98,105.08L41.97,105.39L42.14,105.69L42.47,105.94L42.92,106.11L43.44,106.19L43.98,106.17L44.48,106.05L44.89,105.84L45.15,105.57L45.15,105.57L45.25,105.26L45.17,104.95L44.91,104.68"/><path d="M45.58,118.03L45.58,117.99L45.58,117.60"/></g><g style="stroke:#000000;stroke-width:0.529"><path d="M39.98,120.49L39.79,120.16L39.79,119.92L39.81,119.19L40.24,118.50L41.03,117.93L41.65,117.57L41.65,105.69L41.65,105.32L41.87,104.96L42.28,104.67L42.50,104.54L42.96,104.38L43.48,104.30L43.58,104.31L44.02,104.33L44.52,104.46L44.91,104.68L45.18,104.83L45.48,105.16L45.58,105.53L45.58,117.60L46.67,118.24L47.26,118.89L47.45,119.61L47.45,119.85L47.23,120.57L46.61,121.20L45.67,121.69L44.50,121.97L43.23,122.02L42.01,121.84L40.96,121.43L40.19,120.85L39.98,120.49"/></g></g><g id="Actor_.3"><g style="stroke:#000000;stroke-width:0.176"><path d="M31.02,55.39L31.02,49.58L30.24,49.13L30.24,48.49L28.24,46.49L15.81,30.16L8.01,25.69"/><path d="M15.81,30.16L21.40,26.96"/><path d="M30.24,48.49L31.01,48.04"/><path d="M30.24,49.13L31.41,48.47"/><path d="M31.02,55.08L31.02,55.34"/><path d="M59.88,68.10L50.93,62.77L49.82,61.32L48.91,60.80L48.91,61.45L31.02,51.18L31.02,51.64"/><path d="M31.02,51.18L31.02,51.01"/><path d="M31.02,49.61L31.02,49.60"/><path d="M48.91,60.80L50.35,59.98"/><path d="M49.82,61.32L51.25,60.50"/><path d="M50.93,62.77L50.93,66.82"/></g><g style="stroke:#000000;stroke-width:0.529"><path d="M31.02,55.38L31.02,53.79L29.38,52.85L28.21,51.98L27.12,50.79L8.01,25.69L13.60,22.48L21.40,26.96L23.25,29.39"/><path d="M31.02,55.39L50.93,66.82L59.88,68.10L61.56,67.14L61.35,66.29"/></g></g><g id="Actor_.4"><g style="stroke:#000000;stroke-width:0.176"><path d="M31.02,43.67L31.02,39.76L19.06,32.90"/><path d="M31.02,47.07L31.02,45.90L31.02,47.23"/><path d="M31.02,45.90L31.02,45.47"/><path d="M31.02,45.04L31.02,41.31"/><path d="M42.32,43.65L42.63,43.83L43.12,43.93L43.67,43.93L44.21,43.82L44.69,43.63L45.04,43.40L45.24,43.14L45.27,42.87L45.11,42.61L44.79,42.36L44.34,42.16L43.81,42.03L43.25,42.00L42.74,42.08L42.32,42.28L42.03,42.57L41.92,42.93L41.99,43.29L42.32,43.65"/><path d="M71.73,74.59L71.43,74.45"/><path d="M265.97,185.96L265.09,184.59L264.79,182.66L265.09,180.38L266.04,177.88L267.32,175.78L269.01,173.96L270.84,172.73L272.63,172.23L274.17,172.51"/><path d="M275.90,176.24L273.31,174.75L272.23,174.56L270.98,174.91L269.70,175.77L268.52,177.04L267.57,178.60L266.96,180.26L266.74,181.86L266.96,183.21L267.57,184.17L270.43,185.81L269.35,186.33L267.75,186.43L266.47,185.80L265.63,184.49L265.35,182.66L265.63,180.50L266.47,178.24L267.75,176.13L269.35,174.39L271.10,173.23L272.79,172.75L274.26,173.02L275.33,174.00L275.89,175.57"/><path d="M270.92,186.09L270.31,185.13L270.10,183.78L270.31,182.19L270.92,180.52L271.14,180.16L271.87,178.97L273.05,177.69L274.34,176.83L275.59,176.48L276.67,176.68"/><path d="M272.24,184.93L272.90,185.32L273.02,185.61L272.14,185.60L271.43,185.19L270.98,184.42L270.83,183.36L270.99,182.10L271.27,181.31L270.99,182.10"/><path d="M271.27,181.31L271.43,180.84L272.14,179.62L273.03,178.59L274.01,177.84L275.00,177.46L275.87,177.47L276.59,177.89L277.00,178.60L275.96,179.10L274.89,180.03L275.12,179.83"/><path d="M272.90,185.32L272.88,184.74L272.93,184.07L273.29,182.66L273.97,181.26L274.79,180.16L274.46,180.60"/><path d="M272.70,185.23L272.83,185.28"/><path d="M273.02,185.61L273.29,186.36"/><path d="M274.89,180.03L274.79,180.16"/><path d="M276.81,178.70L276.07,178.30"/><path d="M276.59,178.58L276.56,178.55"/><path d="M277.00,178.60L277.86,178.52"/><path d="M284.51,192.98L283.98,192.16L283.80,191.00L283.98,189.63L284.51,188.20L285.32,186.87L286.33,185.78L287.43,185.04L288.45,184.75L289.43,184.91"/><path d="M287.69,192.64L286.68,193.12L285.75,193.18L284.99,192.79L284.53,192.06L284.36,191.00L284.53,189.75L285.01,188.44L285.75,187.22L286.68,186.21L287.69,185.54L288.67,185.26L289.52,185.42L290.12,185.97L290.47,186.91L290.51,187.47"/><path d="M287.43,192.79L287.50,192.73"/><path d="M290.50,187.31L290.51,187.15"/></g><g style="stroke:#000000;stroke-width:0.529"><path d="M278.89,178.91L278.08,178.51L277.86,178.52L277.46,177.40L276.67,176.68L275.90,176.24L275.89,175.22L275.30,173.55L274.17,172.51L38.59,37.39L36.61,36.55L24.65,29.69L23.80,29.32L23.48,29.32L21.67,29.84L19.86,31.05L18.66,32.26L19.06,32.90L26.20,42.28L31.02,45.04L31.01,48.24L47.52,57.71L47.52,58.36L63.18,67.34L64.58,68.94L66.06,70.43L67.86,72.02L69.66,73.37L71.43,74.45L265.97,185.96L267.32,186.63L269.01,186.52L270.46,185.83L271.87,186.56L273.05,186.48L273.30,186.37L273.97,186.98L284.51,192.98L285.32,193.38L286.33,193.31L287.69,192.64L288.67,191.79L289.52,190.66L290.14,189.38L290.47,188.08L290.51,187.15L290.46,186.54L290.11,185.53L289.43,184.91L278.89,178.91L278.92,178.95"/></g></g><g><g><path style="stroke:#000000;stroke-width:0.125;stroke-dasharray:2.0 1.3 0.7 1.3" d="M43.58,96.35L43.58,105.26"/><path style="stroke:#000000;stroke-width:0.125;stroke-dasharray:2.0 1.3 0.7 1.3" d="M43.58,62.60L43.58,85.74"/></g></g><g><g><path style="stroke:#000000;stroke-width:0.125" d="M80.79,111.06L51.19,93.19"/></g><g><path style="fill:#000000" d="M51.94,93.19L51.94,93.11L51.93,93.04L51.91,92.97L51.89,92.90L51.86,92.83L51.82,92.77L51.77,92.71L51.72,92.66L51.67,92.61L51.61,92.56L51.55,92.53L51.48,92.49L51.41,92.47L51.34,92.45L51.27,92.44L51.19,92.44L51.12,92.44L51.05,92.45L50.98,92.47L50.91,92.49L50.84,92.53L50.78,92.56L50.72,92.61L50.66,92.66L50.61,92.71L50.57,92.77L50.53,92.83L50.50,92.90L50.48,92.97L50.46,93.04L50.45,93.11L50.44,93.19L50.45,93.26L50.46,93.33L50.48,93.40L50.50,93.47L50.53,93.54L50.57,93.60L50.61,93.66L50.66,93.72L50.72,93.77L50.78,93.81L50.84,93.85L50.91,93.88L50.98,93.90L51.05,93.92L51.12,93.93L51.19,93.94L51.27,93.93L51.34,93.92L51.41,93.90L51.48,93.88L51.55,93.85L51.61,93.81L51.67,93.77L51.72,93.72L51.77,93.66L51.82,93.60L51.86,93.54L51.89,93.47L51.91,93.40L51.93,93.33L51.94,93.26z"/></g><g><text xml:space="preserve" fill="#000000" stroke-width="0" x="78.77" y="115.52" font-size="3.77" opacity="1.00" font-family="Arial">KIT0604</text></g></g><g><g/><g><text xml:space="preserve" fill="#000000" stroke-width="0" x="4.28" y="6.82" font-size="4.53" opacity="1.00" font-family="Arial" font-weight="bold">BPA35383</text></g></g><g/><g id="paperID" visibility="hidden" opacity="0.00" transform="scale(0.000100)"><path style="stroke:#000000;stroke-width:0.500;fill:#e6e6e6;fill-rule:evenodd" d="M-2000.00,-2000.00L2297.00,-2000.00L2297.00,2210.00L-2000.00,2210.00zM0.00,0.00L297.00,0.00L297.00,210.00L0.00,210.00z"/><path style="fill:#000000;fill-opacity:0.118" d="M3.00,210.00L297.00,210.00L297.00,3.00L300.00,3.00L300.00,213.00L3.00,213.00z"/></g><g id="hotspot.0" onmouseover="ShowHotSpot(evt,'0')" onmouseout="HideHotSpot(evt,'0')" onmousemove="ShowToolTip(evt,'0',&quot;Hotspot 1&quot;)" opacity="0"><path style="fill:#00ff00;fill-rule:evenodd" d="M46.65,77.51L49.12,78.00L51.42,78.83L54.22,80.47L55.72,82.26L56.36,83.92L56.20,86.46L56.01,86.77L56.36,88.03L56.35,89.41L56.19,90.57L55.20,92.20L53.00,94.11L81.03,111.91L81.03,112.10L80.71,112.05L52.73,94.27L52.52,94.27L51.20,94.94L48.46,95.82L45.28,96.26L41.88,96.26L39.58,95.93L37.76,95.61L34.97,94.45L32.99,93.15L31.68,91.66L31.19,90.67L30.85,89.69L30.86,88.58L31.02,87.26L31.21,86.94L31.21,86.56L30.85,85.74L30.86,84.47L31.01,83.14L32.27,81.28L33.33,80.36L34.26,79.65L37.06,78.34L39.36,77.67L42.16,77.35L44.67,77.35zM44.84,104.64L45.51,105.13L45.66,117.64L45.99,117.81L47.17,118.76L47.48,119.62L47.30,120.32L46.83,121.00L45.94,121.59L44.62,121.91L42.54,121.91L41.71,121.76L40.90,121.41L40.25,120.92L39.92,120.42L39.89,119.00L40.51,118.30L41.56,117.54L41.70,105.18L42.64,104.48L44.02,104.31zM90.71,113.87L90.89,114.18L91.22,115.41L92.47,113.66L92.86,113.68L92.98,115.37L93.19,115.53L93.19,115.85L92.99,116.01L92.85,116.56L92.49,116.56L92.37,115.99L91.05,115.83L90.67,116.49L89.57,116.49L89.23,116.01L89.23,114.39L89.50,113.84L89.84,113.68L90.40,113.67zM88.78,114.02L88.75,114.42L88.39,114.40L88.23,114.19L87.88,114.16L87.67,114.32L87.53,114.74L88.25,114.66L88.59,114.84L88.93,115.33L88.93,115.89L88.53,116.49L87.43,116.49L87.09,116.01L87.09,114.39L87.37,113.84L87.70,113.68L88.26,113.68zM86.44,113.86L86.78,114.67L86.77,115.55L86.62,116.22L86.39,116.49L85.29,116.49L84.95,116.01L84.95,114.23L85.45,113.73L86.13,113.67zM82.42,114.07L82.43,113.70L84.66,113.70L84.66,114.07L83.92,114.18L83.81,116.56L83.44,116.56L83.33,114.18zM79.54,114.91L80.80,113.67L81.19,113.69L81.22,113.90L80.36,114.74L80.36,115.16L81.37,116.49L80.69,116.49L79.89,115.32L79.54,115.55L79.37,116.56L79.00,116.56L79.00,113.67L79.37,113.67zM82.00,116.56L81.63,116.56L81.63,113.67L82.00,113.67zM90.56,114.67L90.57,115.73L90.33,116.17L89.91,116.17L89.73,115.99L89.71,114.38L89.86,114.18L90.23,114.16zM86.29,114.67L86.29,115.73L86.05,116.17L85.63,116.17L85.46,115.99L85.44,114.38L85.58,114.18L85.96,114.16zM92.37,115.40L91.80,115.34L92.30,114.65L92.37,114.67zM88.33,115.26L88.44,115.88L88.19,116.17L87.77,116.17L87.59,115.99L87.57,115.37L87.71,115.17z"/></g></g></svg>
