<?xml version="1.0" encoding="UTF-8" standalone="no"?>
<svg xmlns="http://www.w3.org/2000/svg" xmlns:xlink="http://www.w3.org/1999/xlink" width="297.000mm" height="210.000mm" viewBox="0.000000 0.000000 297.000000 210.000000" stroke-linejoin="round" stroke-linecap="round" fill="none" fill-rule="evenodd"><desc>Composer Export</desc><script type="text/ecmascript"><![CDATA[
if(typeof(top) != "undefined")
{
	top.ShowPaper = ShowPaper;
}
function ShowHotSpot(evt,hotspotid)
{
	var svgDocument = evt.target.ownerDocument;
	var strId = "hotspot."+hotspotid;
	var hotspot = svgDocument.getElementById(strId);
	if(hotspot)
		hotspot.setAttribute("opacity",".5");
}
function HideHotSpot(evt,hotspotid)
{
	var svgDocument = evt.target.ownerDocument;
	var strId = "hotspot."+hotspotid;
	var hotspot = svgDocument.getElementById(strId);
	if(hotspot)
		hotspot.setAttribute("opacity","0");

	var toolTip = svgDocument.getElementById('ToolTip');
	if(toolTip)
		toolTip.setAttribute("visibility","hidden");
}
function ShowToolTip(evt,hotspotid,strTooltip)
{
	if(strTooltip=="")
	return;

	// change text
	var svgDocument = evt.target.ownerDocument;
	var tiptext = svgDocument.getElementById('ToolTipText');
	if( !tiptext )
	return;
	tiptext.firstChild.nodeValue = " " + strTooltip + "  " ;

	// show tooltip before, else some refresh issue

	var toolTip = svgDocument.getElementById('ToolTip');
	if(!toolTip)
	return;

	toolTip.setAttribute("visibility","visible");
	toolTip.setAttribute("opacity",".95");

	// move tooltip
	// get viewbox

	var root = svgDocument.documentElement;
	var vbox = (root.getAttribute("viewBox")).split(' ');
	var x0 = parseFloat(vbox[0]);
	var y0 = parseFloat(vbox[1]);
	var vboxW = parseFloat(vbox[2]);
	var vboxH = parseFloat(vbox[3]);

	// get default width of svg

	var strW = root.getAttribute("width");
	var svgW = parseFloat(strW);
	if(strW.indexOf('mm') != -1)
	svgW *= 3.779;

	var strH = root.getAttribute("height");
	var svgH = parseFloat(strH);
	if(strH.indexOf('mm') != -1)
	svgH *= 3.779;  	// 96 dpi  -> 96/25.4 = 3.779

	// update the viewbox / width / height if svg is embedded in html with zoom fit all
	var realx0 = x0;
	var realy0 = y0;
	var realvboxW = vboxW;
	var realvboxH = vboxH;
	var realsvgW = svgW;
	var realsvgH = svgH;

	if ((typeof(top) == "undefined") || (typeof(top.svgctl1) != "undefined")) // embedded in html
	{
		// get window size in pxl

		svgW = window.innerWidth;
		svgH = window.innerHeight;

		// calculate real viewbox

		realsvgW = svgW;
		realsvgH = svgH;
		if((svgW / svgH) > (vboxW / vboxH))
		{
			realvboxW = (vboxH * svgW) / svgH;
			realvboxH = vboxH;
			realx0 = x0 - (realvboxW - vboxW)/2 ;
		}
		else
		{
			realvboxH = (vboxW * svgH) / svgW;
			realvboxW = vboxW;
			realy0 = y0 - (realvboxH - vboxH)/2 ;
		}
	}

	// get user zoom/pan

	var newScale = root.currentScale;
	var translation = root.currentTranslate;

	// transform pxl to user unit

	var xPos = (((evt.clientX+10- translation.x)/newScale) * realvboxW)/realsvgW  + realx0 ;
	var yPos = (((evt.clientY+5- translation.y)/newScale) * realvboxH)/ realsvgH  + realy0 ;
	var scaleForWidth = ( (1 / newScale) * realvboxH) / realsvgH;

	// move tooltip

	toolTip.setAttribute("transform", "translate(" + xPos + "," + yPos + ")" );

	// resize tooltip

	var fontsize = 12;
	tiptext.setAttribute("font-size",fontsize*scaleForWidth);
	tiptext.setAttribute("y", fontsize*scaleForWidth);
	var tipBG = svgDocument.getElementById('ToolTipBG');
	var outline = tiptext.getBBox();
	if(tipBG)
	{
		tipBG.setAttribute("stroke-width", 1*scaleForWidth);
		tipBG.setAttribute("width", Number(outline.width) );
		tipBG.setAttribute("height", Number(outline.height) + fontsize*.5*scaleForWidth );
	}
	var ToolTipShadow = svgDocument.getElementById('ToolTipShadow');
	if(ToolTipShadow)
	{
		ToolTipShadow.setAttribute("width", Number(outline.width) );
		ToolTipShadow.setAttribute("height", Number(outline.height) + fontsize*.5*scaleForWidth );
		ToolTipShadow.setAttribute("x", 3*scaleForWidth);
		ToolTipShadow.setAttribute("y", 3*scaleForWidth);
	}
}
function ShowPaper()
{
  var svgDocument = getDocument();
  var paper = svgDocument.getElementById("paperID");
  if(paper)
  {
    paper.setAttribute("transform","scale(1)");
    paper.setAttribute("opacity","1");
    paper.setAttribute("visibility","visible");
  }
  var svg = svgDocument.getRootElement();
  if(svg)
  {
    svg.setAttribute("width","307.000mm");
    svg.setAttribute("height","220.000mm");
    svg.setAttribute("viewBox","-5.000000 -5.000000 307.000000 220.000000");
  }
}
]]></script><defs/><g><path style="fill:#000000;fill-opacity:0.098;fill-rule:evenodd" d="M228.00,181.81L228.81,182.30L229.62,183.27L230.10,184.73L230.10,188.02L229.94,188.83L229.41,190.40L228.32,192.55L227.02,194.33L225.50,195.72L223.81,196.78L222.12,197.36L220.87,197.36L219.91,197.03L214.90,194.10L214.05,192.98L214.02,192.65L214.22,192.63L218.30,194.97L218.11,194.29L218.11,191.88L218.24,191.68L219.10,191.75L219.41,190.12L220.50,187.64L221.62,186.01L222.91,184.55L224.06,183.60L225.19,182.95L225.90,182.67L225.67,181.95L226.53,181.65zM227.84,186.18L228.33,186.82L228.32,188.67L227.95,189.91L227.02,191.74L226.15,192.97L224.71,194.12L223.58,194.61L222.16,194.61L221.37,194.11L220.86,192.83L220.87,191.09L221.31,189.42L222.42,187.46L223.56,186.17L224.38,185.54L225.35,185.04L225.73,185.04zM164.50,15.11L163.85,15.12L164.33,14.94L165.37,14.95zM172.97,16.88L210.19,30.16L211.00,30.65L211.81,31.45L212.46,33.24L212.46,44.30L212.08,45.21L211.35,46.09L189.60,58.66L188.35,58.64L184.94,56.69L184.25,56.88L183.01,56.86L177.99,53.94L177.62,53.28L181.71,55.60L182.04,55.63L182.03,54.16L182.46,52.50L183.93,49.92L183.98,48.60L183.33,48.12L182.19,47.48L165.63,41.63L162.23,45.37L131.97,79.85L130.89,81.04L130.88,82.28L131.21,84.22L131.53,87.29L131.53,94.79L131.21,98.35L130.56,102.40L106.87,115.95L106.92,116.25L107.43,116.58L107.91,117.88L107.90,119.55L107.58,120.85L107.04,122.09L106.39,123.06L105.09,124.51L103.33,125.50L101.74,125.50L96.25,122.40L95.71,122.40L53.64,146.55L53.14,146.60L52.38,141.84L52.22,139.73L52.22,132.83L52.82,127.27L53.96,121.45L55.13,117.12L57.08,111.30L58.86,106.93L61.61,101.10L64.29,96.34L67.21,91.65L70.61,86.96L74.09,82.67L76.45,80.01L79.36,77.10L81.84,74.88L85.56,71.80L89.56,69.01L93.66,66.63L97.98,64.64L101.87,63.34L106.39,62.37L130.02,58.49L131.06,57.26L166.18,17.28L166.59,17.04L172.47,16.07zM162.55,16.08L154.20,25.70L154.18,25.19L155.83,22.14L157.04,20.44L158.99,18.18L160.78,16.73L162.74,15.57L162.93,15.57zM180.58,68.19L180.95,68.47L179.44,68.20L176.71,68.19L176.19,67.86L176.18,67.60L177.98,67.55zM184.79,69.64L184.78,71.00L184.39,71.90L183.25,72.87L181.67,73.55L180.83,73.54L181.02,73.06L183.18,71.99L183.97,71.32L184.47,70.52L184.61,69.32zM178.30,70.12L178.95,71.43L179.44,73.21L179.44,75.21L179.07,76.46L178.16,77.65L174.54,80.01L166.82,84.76L165.94,85.34L160.60,88.57L146.44,97.40L145.56,97.81L145.15,98.22L144.11,98.63L141.74,98.64L140.06,98.95L137.36,98.95L135.73,98.63L134.74,98.30L134.56,98.12L136.22,98.46L139.25,98.46L141.57,97.87L143.21,96.92L143.94,96.04L144.17,95.61L144.31,94.57L144.49,94.89L144.48,96.09L144.16,96.90L142.97,97.98L141.99,98.47L143.30,98.47L144.50,97.88L145.22,97.15L145.73,96.20L146.10,95.12L146.10,91.99L145.55,90.05L145.61,90.03L146.10,90.85L146.74,92.64L147.06,94.80L147.23,94.14L147.23,91.50L146.52,89.24L146.58,89.22L147.72,91.50L148.04,93.45L148.20,94.00L148.36,92.85L148.36,91.34L148.04,89.72L147.65,88.59L147.72,88.57L148.20,89.40L149.02,91.50L149.17,93.83L149.48,91.00L149.17,89.24L148.62,87.78L148.69,87.76L149.36,88.89L149.99,90.53L150.31,93.03L150.47,92.04L150.47,89.56L149.92,87.46L149.98,87.44L150.96,89.39L151.44,92.22L151.60,91.07L151.60,89.08L151.12,87.29L150.89,86.65L150.95,86.63L151.44,87.29L152.09,88.91L152.40,91.72L152.58,91.23L152.73,89.07L152.41,87.13L152.02,86.00L152.25,86.13L153.22,88.43L153.53,90.91L153.71,90.42L153.70,87.29L153.15,85.35L153.38,85.49L154.36,87.94L154.67,90.11L154.84,89.45L154.84,86.97L154.12,84.54L154.19,84.53L155.00,86.00L155.49,87.45L155.71,89.17L155.61,89.24L155.65,89.95L155.71,89.17L155.97,88.15L155.97,86.81L155.65,85.02L155.47,84.71L155.47,84.22L155.81,84.71L156.46,86.32L156.78,89.14L156.94,88.31L156.94,85.35L156.39,83.41L156.62,83.55L157.60,85.83L157.91,88.17L158.07,87.34L158.07,84.87L157.52,82.76L157.59,82.75L158.57,84.69L159.05,87.36L159.21,86.21L159.21,84.38L158.49,81.95L158.56,81.94L158.91,82.42L159.70,84.21L160.01,87.03L160.18,86.54L160.35,84.55L160.18,83.08L159.59,81.25L159.70,81.30L160.34,82.44L160.99,84.38L161.15,86.22L161.31,85.56L161.31,82.76L160.92,80.99L160.98,80.98L161.79,82.77L162.28,85.25L162.44,84.59L162.44,82.44L162.12,80.99L161.73,79.85L161.80,79.83L162.28,80.66L163.10,82.76L163.25,85.09L163.58,83.30L163.58,81.95L163.26,80.33L162.92,79.69L162.92,79.20L163.42,80.01L164.07,81.62L164.39,84.28L164.55,83.46L164.55,80.66L164.00,78.72L164.06,78.70L164.41,79.18L165.20,81.14L165.52,83.48L165.68,82.49L165.68,80.17L165.09,78.01L165.37,78.22L166.17,80.17L166.48,82.29L166.66,82.66L166.82,81.52L166.81,80.01L166.33,77.91L166.10,77.26L166.17,77.24L166.98,78.71L167.46,80.33L167.62,82.34L167.96,79.86L167.79,78.39L167.23,76.61L167.30,76.60L167.95,77.74L168.43,79.21L168.76,81.53L168.92,80.71L168.92,78.23L168.60,76.77L168.42,76.45L168.42,75.96L168.94,76.91L169.40,78.07L169.89,80.56L170.05,79.74L170.05,77.75L169.50,75.48L169.57,75.46L170.05,76.29L170.70,78.23L170.86,80.40L171.02,79.74L171.02,76.45L170.70,75.32L170.31,74.35L170.38,74.33L170.88,75.14L171.68,76.92L171.99,79.59L172.16,78.77L172.16,75.96L171.60,74.02L171.67,74.01L172.65,75.96L173.13,78.62L173.29,77.79L173.29,75.48L172.74,73.37L172.97,73.51L173.77,75.48L174.11,77.77L174.27,77.80L174.42,75.48L174.26,74.18L173.71,72.57L173.78,72.55L174.42,73.70L175.07,75.64L175.23,77.65L175.39,76.82L175.39,73.86L175.00,72.25L175.39,72.73L176.05,74.50L176.36,76.67L176.53,76.01L176.53,73.54L176.20,72.08L175.81,71.11L175.88,71.09L176.37,71.92L177.18,73.86L177.39,75.91L177.29,75.98L177.34,76.52L177.39,75.91L177.66,74.88L177.66,73.05L177.34,71.59L177.16,71.28L177.18,70.76L177.34,70.92L178.15,72.88L178.46,75.70L178.78,73.85L178.63,71.76L178.08,69.98zM174.77,71.59L174.77,71.81L174.59,71.77L174.59,71.41zM165.09,78.01L164.86,77.89L164.88,77.56zM159.59,81.25L159.36,81.13L159.38,80.80zM141.73,88.59L142.39,89.06L142.69,90.54L143.34,91.67L143.69,92.35L142.88,91.65L141.91,90.51L141.56,89.89L141.40,89.23L141.40,90.37L141.56,91.02L142.24,92.51L141.58,92.14L140.61,90.84L140.27,89.55L140.27,90.69L140.61,91.99L139.79,91.99L139.08,90.36L139.32,92.36L139.07,92.81L138.83,92.81L138.32,92.00L138.16,91.34L138.16,89.93L138.58,89.05L139.41,88.43L139.89,88.26L140.76,88.26zM143.67,90.21L144.02,90.90L143.36,90.36L142.86,89.70L142.86,89.39zM139.12,94.47L139.42,93.78L139.72,93.59L140.76,93.60L140.26,94.13L140.26,95.40L140.60,96.04L140.30,96.03L139.31,95.22zM136.55,93.33L135.41,93.65L134.27,94.30L133.64,95.14L133.62,93.97L134.23,93.28L135.53,92.80L136.56,92.79zM161.49,106.37L161.48,107.26L161.08,107.85L167.15,125.83L167.40,125.82L172.75,120.64L174.19,119.33L179.87,113.84L181.33,112.54L181.55,111.47L181.97,110.92L182.52,110.74L182.85,111.08L182.85,111.63L182.46,112.37L181.82,112.71L172.90,138.12L186.24,138.33L186.82,137.46L187.54,137.46L187.54,138.50L187.37,138.82L186.84,139.26L186.02,139.23L184.89,140.22L175.65,149.11L174.21,150.42L167.62,156.79L167.61,157.38L172.11,170.55L172.96,170.48L173.15,170.80L172.81,171.84L172.27,172.29L171.84,172.28L171.30,171.95L171.69,171.51L168.76,171.30L154.14,171.13L147.54,189.95L147.56,190.54L147.73,190.71L147.73,191.43L147.01,192.34L146.39,192.35L146.21,192.17L146.41,191.24L146.74,190.72L142.22,188.12L137.85,175.35L137.45,175.65L126.59,186.01L126.35,186.88L125.81,187.64L125.03,187.65L124.84,187.47L125.31,186.32L126.20,185.60L134.92,160.43L129.75,160.29L121.61,160.29L120.95,161.10L120.34,161.11L120.15,160.93L120.47,159.80L121.27,159.15L121.51,159.31L121.92,159.32L127.60,153.82L129.04,152.51L139.56,142.47L140.28,141.66L135.74,138.92L131.47,126.13L131.68,126.11L133.96,127.43L134.60,127.66L135.02,126.76L135.52,126.29L136.06,126.30L136.25,126.62L136.17,127.11L143.51,127.27L153.71,127.32L160.35,108.54L160.37,108.16L159.97,107.85L160.44,106.55L160.94,106.21L161.32,106.20zM121.98,119.99L122.97,120.94L123.60,122.09L123.92,123.71L123.92,125.22L123.76,126.51L123.28,128.29L122.74,129.54L121.17,132.34L119.55,134.28L118.03,135.51L116.27,136.50L114.97,136.82L113.57,136.82L112.76,136.65L110.50,135.19L109.85,134.22L109.79,133.74L109.99,133.72L110.50,134.09L110.81,134.09L110.65,133.43L110.65,130.72L111.13,128.61L112.22,125.98L113.82,123.53L115.46,121.77L117.56,120.31L119.17,119.66L121.02,119.66zM194.33,160.78L195.32,161.40L196.27,162.88L196.76,164.66L196.76,166.81L196.60,167.79L195.95,170.22L194.44,173.24L192.71,175.56L190.95,177.20L188.94,178.42L187.49,178.91L185.59,178.91L184.62,178.58L180.75,176.30L179.76,175.18L179.59,174.86L179.60,174.36L182.36,176.01L182.68,176.01L182.51,173.78L182.83,171.50L183.81,168.60L184.73,166.76L186.33,164.48L187.15,163.52L188.94,162.07L190.23,161.26L190.88,160.93L192.01,160.61L193.85,160.61zM210.04,170.48L210.86,171.11L211.81,172.59L212.13,174.21L212.13,175.88L211.65,178.31L210.95,180.04L209.87,182.19L208.35,184.23L206.41,186.01L204.79,186.98L203.01,187.50L201.28,187.33L199.04,186.01L198.04,184.74L198.05,184.23L199.05,184.77L198.85,184.09L198.86,181.54L199.18,179.75L200.10,177.28L201.06,175.49L202.44,173.63L204.15,171.94L205.93,170.81L207.06,170.32L208.90,170.15zM223.32,191.50L223.47,193.19L223.10,193.33L222.49,193.32L221.53,192.97L221.36,192.82L221.34,192.21L222.27,191.52L223.15,191.34zM170.55,20.60L171.35,21.11L170.01,21.09L168.54,21.42L167.57,21.90L165.86,23.10L164.24,24.72L162.72,26.93L161.80,28.76L160.98,31.17L160.83,32.32L160.83,35.57L160.50,35.53L159.68,34.87L159.48,32.42L159.85,30.20L160.51,28.27L161.63,26.00L163.19,23.83L164.66,22.39L166.28,21.26L167.73,20.61L168.55,20.45L169.73,20.45zM171.36,22.06L175.55,24.51L174.05,24.50L173.41,24.64L173.64,25.37L171.94,26.28L170.32,27.56L169.50,28.53L168.45,30.07L167.62,31.66L166.67,34.57L165.96,34.53L165.83,34.89L165.84,36.80L166.00,37.62L165.69,37.62L161.59,35.22L161.48,34.53L161.47,31.66L162.07,29.52L162.95,27.48L164.32,25.45L165.63,24.01L167.41,22.71L168.86,22.06L170.38,21.91zM176.21,28.55L175.55,28.53L174.85,28.71L174.91,29.23L173.87,29.82L172.57,30.95L171.45,32.58L170.70,34.74L170.16,34.85L170.05,35.56L170.05,36.70L169.73,36.66L168.72,36.03L168.58,35.68L168.59,33.77L169.35,31.45L170.47,29.82L171.32,28.89L172.48,28.11L173.23,27.72L174.59,27.73zM209.54,42.30L209.55,43.65L209.22,44.45L208.67,45.20L207.72,45.87L206.78,45.87L206.45,45.55L206.46,43.80L207.13,42.69L208.03,41.80L208.58,41.80zM193.52,50.71L194.35,51.36L194.33,51.90L194.01,53.03L193.36,54.01L192.51,54.61L191.42,54.59L191.10,54.27L191.08,52.86L191.83,51.34L192.82,50.54L193.20,50.53zM186.42,51.67L186.40,52.87L186.24,53.36L185.69,54.26L184.74,54.93L183.98,54.92L183.65,54.59L183.64,53.03L184.14,52.07L185.21,51.18L185.59,51.18zM188.04,55.88L188.02,58.06L187.70,58.02L185.20,56.58L185.20,56.40L186.83,55.23L187.05,55.23zM107.09,71.75L107.91,72.39L108.07,73.54L107.90,75.04L107.36,76.61L106.45,78.45L105.31,79.90L103.87,81.05L102.52,81.64L101.10,81.64L100.14,80.97L99.64,80.18L99.48,79.53L99.49,77.64L99.76,76.29L100.38,74.81L101.44,73.11L102.34,72.07L103.96,70.95L104.77,70.60L105.15,70.60zM177.34,76.52L177.29,75.98L177.39,75.91zM87.99,81.95L88.15,82.92L88.00,85.08L87.46,86.65L85.99,89.06L84.04,90.84L82.77,91.35L81.04,91.33L80.21,90.70L79.73,89.89L79.58,88.91L79.58,87.83L79.73,86.69L80.47,84.68L81.53,82.99L82.76,81.63L83.90,80.82L84.69,80.49L85.41,80.49zM128.94,84.70L128.95,85.41L128.62,86.05L127.93,86.66L127.32,86.66L127.32,85.40L127.82,84.60L128.31,84.38zM155.65,89.95L155.61,89.24L155.71,89.17zM106.45,115.79L105.79,115.77L105.09,115.95L105.16,116.47L104.01,117.12L102.73,118.27L101.75,119.88L100.94,121.98L100.40,122.09L100.48,124.08L95.46,121.26L88.27,117.12L88.14,116.76L88.15,114.86L88.59,113.35L89.86,111.06L90.52,110.27L91.82,109.30L92.95,108.82L94.15,108.81zM119.73,124.18L120.86,124.83L121.01,125.49L121.01,126.67L120.64,128.25L119.50,130.51L118.44,131.71L117.15,132.69L115.94,133.11L115.35,133.10L114.54,132.93L113.90,132.28L113.56,131.33L113.56,129.42L114.16,127.43L114.88,126.21L115.94,124.84L117.23,123.87L118.20,123.38L119.23,123.39zM160.66,142.82L160.99,143.78L160.99,146.74L160.66,148.20L159.69,150.95L158.84,152.52L156.95,155.17L155.50,156.47L153.57,157.77L152.04,158.36L149.49,158.36L148.38,157.69L147.56,156.88L146.90,154.95L146.91,151.93L147.06,150.78L148.04,147.87L149.26,145.70L150.48,144.01L152.04,142.32L153.81,141.03L155.60,140.21L156.14,140.21zM191.04,162.88L191.74,162.29L191.85,161.91L193.03,161.89L192.88,162.45L192.00,163.06L192.00,163.23L192.41,163.52L191.04,163.68L189.58,164.33L188.29,165.31L187.31,166.43L186.07,168.27L185.26,170.37L184.94,172.32L184.94,173.95L184.62,173.91L183.98,173.40L183.81,172.76L183.80,171.18L184.62,168.76L185.84,166.58L187.06,164.89L188.34,163.74L189.16,163.10L189.42,162.86zM194.33,163.17L193.99,164.23L193.36,164.17L193.24,163.69L192.66,163.70L193.35,163.41L193.63,163.02L193.85,163.05L194.17,162.89zM195.64,164.32L195.79,165.15L195.79,167.62L195.63,168.60L195.14,170.22L194.17,172.16L193.04,173.94L191.92,175.25L190.14,176.70L188.30,177.62L186.83,177.78L185.58,177.45L185.25,177.26L185.22,177.11L186.20,177.13L187.06,176.31L187.36,176.48L188.30,176.48L188.93,176.14L190.05,175.16L191.10,174.43L192.00,173.38L193.15,171.78L194.13,169.52L194.65,167.46L194.65,166.76L194.28,165.45L194.49,165.20L194.65,164.00L194.64,163.68zM193.19,166.29L193.53,167.75L193.36,169.25L192.50,171.29L191.85,172.27L190.62,173.63L189.27,174.54L188.45,174.70L187.86,174.70L186.88,174.37L186.25,173.88L185.90,172.92L185.91,170.86L186.56,168.92L187.46,167.39L188.84,165.86L190.27,165.02L190.94,164.97zM207.93,174.69L209.06,175.34L209.22,176.15L209.22,177.33L209.06,178.31L208.68,179.23L207.76,181.06L206.81,182.21L205.43,183.25L203.99,183.77L202.59,183.43L202.11,182.94L201.77,181.99L201.77,179.92L202.42,177.98L203.24,176.54L204.64,175.02L205.93,174.21L206.41,174.04L207.46,174.03zM184.47,174.37L184.47,174.74L184.23,175.36L183.93,175.40L183.79,175.20L183.79,174.07L183.94,173.87L184.11,173.87zM186.22,175.65L186.06,176.19L185.39,176.65L184.44,176.63L184.45,176.38L184.96,176.06L185.11,175.00z"/><g id="Actor_.0"><g style="stroke:#000000;stroke-width:0.176"><path d="M101.10,125.21L100.50,124.27L100.29,122.95L100.50,121.39L101.10,119.77L101.14,119.70L102.03,118.25L103.18,117.00L104.44,116.16L105.66,115.81L106.71,116.01"/><path d="M104.72,124.83L103.56,125.38L102.85,125.43L102.50,125.45L101.65,125.03L101.10,124.17L100.90,122.95L101.09,121.52L101.65,120.02L102.50,118.62L103.56,117.47L104.72,116.70L105.84,116.39L106.81,116.56L107.52,117.21L107.90,118.27L107.95,118.91"/></g><g style="stroke:#000000;stroke-width:0.529"><path d="M94.78,109.20L106.71,116.01L107.49,116.72L107.90,117.86L107.95,118.56L107.95,118.91L107.90,119.61L107.52,121.10L106.81,122.57L105.84,123.86L104.72,124.83L104.44,125.00L103.18,125.60L102.03,125.67L101.10,125.21L89.17,118.40"/></g></g><g id="Actor_.1"><g style="stroke:#000000;stroke-width:0.176"><path d="M153.96,25.95L154.18,25.33L155.38,22.90L156.87,20.64L158.57,18.64L160.43,16.99L162.34,15.77L163.20,15.43"/><path d="M163.32,15.38L164.24,15.02L166.04,14.78L166.41,14.84"/><path d="M172.90,16.92L210.27,30.23"/><path d="M179.51,46.57L183.54,48.00L183.86,48.23L184.06,48.64L184.11,49.17L184.00,49.78L183.75,50.40L182.64,52.17L182.14,53.44L181.94,54.68L182.06,55.75L182.49,56.55L183.18,56.97"/><path d="M183.66,54.70L183.49,54.23L183.49,53.65L183.65,53.00L183.96,52.36L184.38,51.80L184.87,51.38L185.37,51.14L185.83,51.11L186.21,51.29L186.44,51.67L186.53,52.19L186.44,52.82L186.21,53.47L185.83,54.08L185.37,54.58L184.87,54.91L184.38,55.05L183.96,54.97L183.66,54.70"/><path d="M188.69,58.84L188.35,58.64L188.13,58.27L188.06,57.77L188.06,56.33L187.98,55.82L187.76,55.45L187.41,55.26L187.00,55.26L186.98,55.26L186.49,55.46L185.04,56.59L184.89,56.66"/><path d="M190.98,53.55L190.97,53.62L191.06,54.20L191.32,54.61L191.73,54.81L192.24,54.78L192.79,54.52L193.33,54.05L193.79,53.43L194.13,52.73L194.31,52.02L194.31,51.38L194.13,50.87L193.79,50.56L193.33,50.48L192.79,50.63L192.24,51.00L191.73,51.55L191.32,52.22L191.06,52.93L190.98,53.55"/><path d="M205.70,27.61L205.68,27.60"/><path d="M206.64,45.83L207.04,46.03L207.55,46.00L208.11,45.73L208.64,45.27L209.11,44.65L209.45,43.95L209.63,43.24L209.63,42.59L209.45,42.09L209.11,41.78L208.64,41.69L208.11,41.84L207.55,42.21L207.04,42.76L206.64,43.43L206.37,44.15L206.28,44.83L206.37,45.42L206.64,45.83"/></g><g style="stroke:#000000;stroke-width:0.529"><path d="M168.73,14.44L163.06,12.42L161.44,12.14L159.65,12.38L157.75,13.13L155.83,14.36L153.98,16.01L152.27,18.00L150.78,20.27L149.58,22.69L148.72,25.17L148.23,27.61L148.14,29.88L148.44,31.90L148.54,32.12"/><path d="M170.95,15.23L205.68,27.60L210.27,30.23L211.23,30.80L211.96,31.73L212.41,32.96L212.56,34.45L212.56,43.72L212.48,44.31L212.27,44.93L211.93,45.51L211.50,46.01L211.03,46.37L189.59,58.67L189.12,58.85L188.69,58.84L184.88,56.66L184.06,56.99L183.18,56.97L178.58,54.34L177.89,53.91L177.46,53.12L177.34,52.05L177.54,50.81L178.04,49.53L179.16,47.77L179.41,47.14L179.51,46.57L165.61,41.62"/></g></g><g id="Actor_.2"><g style="stroke:#000000;stroke-width:0.176"><path d="M53.18,146.82L52.42,142.62L52.08,138.11L52.15,133.35L52.64,128.39L53.54,123.27L54.83,118.05L56.52,112.79L58.58,107.54L60.98,102.35L63.71,97.28L66.72,92.40L70.02,87.71L73.54,83.31L77.24,79.22L81.10,75.50L85.08,72.18L87.11,70.73L89.11,69.30L93.19,66.88L97.25,64.94L101.26,63.53L105.16,62.63L129.90,58.59L166.29,17.15L172.43,16.08"/><path d="M84.97,80.44L85.20,80.35L86.42,80.37L87.38,80.93L88.00,81.99L88.21,83.43L88.00,85.11L87.38,86.88L86.42,88.55L85.20,89.97L83.85,90.99L82.50,91.51L81.28,91.49L80.32,90.93L79.70,89.87L79.67,89.67"/><path d="M88.11,116.68L88.12,116.71"/><path d="M88.09,116.53L88.09,116.45"/><path d="M88.12,115.06L88.14,114.96"/><path d="M88.48,117.70L88.55,117.82"/><path d="M88.16,116.80L88.46,117.65"/><path d="M88.60,113.35L88.58,113.40"/><path d="M89.31,118.49L89.24,118.45"/><path d="M91.47,109.56L91.40,109.62"/><path d="M92.89,108.89L92.81,108.89L92.52,109.03"/><path d="M92.99,108.88L93.96,108.82L94.02,108.85"/><path d="M94.38,109.02L94.83,109.24"/><path d="M104.82,70.66L105.05,70.57L106.27,70.59L107.23,71.16L107.85,72.21L108.07,73.65L107.85,75.33L107.23,77.10L106.27,78.77L105.05,80.19L103.70,81.21L102.35,81.73L101.14,81.71L100.17,81.15L99.55,80.10L99.52,79.89"/><path d="M129.90,58.59L126.83,56.83"/><path d="M127.99,86.68L127.69,86.77L127.44,86.72L127.25,86.55L127.16,86.27L127.16,85.92L127.25,85.54L127.44,85.15L127.69,84.82L127.99,84.56L128.29,84.42L128.56,84.40L128.79,84.51L128.93,84.73L128.98,85.05L128.93,85.43L128.79,85.82L128.56,86.18L128.29,86.48L127.99,86.68"/><path d="M163.23,15.40L166.29,17.15"/></g><g style="stroke:#000000;stroke-width:0.529"><path d="M176.08,24.85L176.46,23.34L172.43,16.08L169.37,14.32L163.23,15.40L126.83,56.83L102.10,60.88L98.19,61.77L94.19,63.19L90.13,65.12L86.06,67.54L82.01,70.43L78.04,73.75L74.18,77.47L70.47,81.55L66.96,85.95L63.67,90.62L60.65,95.52L57.92,100.59L55.51,105.78L53.46,111.03L51.77,116.30L50.47,121.51L49.57,126.63L49.09,131.60L49.02,136.36L49.36,140.86L50.12,145.06L53.18,146.82L95.96,122.28"/><path d="M79.76,89.63L79.67,89.67L79.49,88.44L79.70,86.75L80.32,84.99L81.28,83.31L82.50,81.90L83.85,80.88L84.97,80.44L85.15,81.67L84.94,83.36L84.32,85.12L83.35,86.79L82.14,88.21L80.79,89.23L79.76,89.63"/><path d="M88.09,116.53L88.11,116.68"/><path d="M88.09,115.37L88.09,116.45"/><path d="M88.09,115.27L88.12,115.06"/><path d="M88.14,114.96L88.45,113.77"/><path d="M88.58,113.40L88.48,113.66"/><path d="M89.20,112.10L89.34,111.87"/><path d="M90.20,110.73L90.41,110.48"/><path d="M91.40,109.62L90.68,110.25"/><path d="M91.47,109.56L91.64,109.45"/><path d="M92.52,109.03L91.73,109.41"/><path d="M99.51,79.80L99.52,79.89L100.64,79.45L101.99,78.43L103.21,77.02L104.17,75.34L104.79,73.58L105.00,71.89L104.82,70.66L103.70,71.10L102.35,72.12L101.14,73.53L100.17,75.21L99.55,76.97L99.34,78.66L99.51,79.80"/><path d="M167.29,39.70L130.72,81.34L131.35,85.15L131.65,89.25L131.62,93.45L131.26,97.88L130.56,102.44L106.78,116.07"/></g></g><g id="Actor_.3"><g style="stroke:#000000;stroke-width:0.176"><path d="M219.35,196.77L218.52,195.67L218.10,194.25L218.07,194.15L218.04,192.31L218.41,190.30L219.18,188.23L220.29,186.26L221.65,184.51L222.49,183.75L223.19,183.11L224.79,182.16L226.34,181.70L227.73,181.79L227.74,181.79L228.90,182.41"/><path d="M230.22,187.33L230.18,185.64L229.77,184.23L229.00,183.21L227.93,182.64L227.73,182.62L226.63,182.56L225.20,182.98L223.72,183.86L222.30,185.16L221.03,186.77L220.01,188.60L219.30,190.51L218.99,192.15L218.95,192.37L218.98,194.07L219.40,195.47L220.17,196.50L221.24,197.07L222.53,197.15L223.97,196.73"/><path d="M221.02,190.40L220.77,191.62L220.86,193.02L221.35,194.09L222.20,194.69L223.30,194.77L224.54,194.31L225.78,193.38L226.75,192.23"/><path d="M221.42,192.15L221.28,192.37L221.25,192.64L221.39,192.90L221.67,193.12L222.06,193.28L222.53,193.38L223.02,193.37L223.47,193.25L223.84,193.02L224.08,192.71L224.17,192.34L224.10,191.98L223.88,191.68L223.54,191.48L223.11,191.41L222.64,191.46L222.18,191.61L221.77,191.83L221.46,192.10L221.42,192.15"/><path d="M223.23,186.54L224.00,185.81L225.26,185.10L226.45,184.91L227.43,185.25L228.11,186.10L228.40,187.35L228.28,188.87L227.76,190.50L227.27,191.39"/></g><g style="stroke:#000000;stroke-width:0.529"><path d="M227.82,193.33L226.87,194.55L225.45,195.84L223.97,196.73L223.46,197.02L221.91,197.47L220.51,197.39L219.35,196.77L214.91,194.23L214.08,193.12L213.63,191.60L213.59,189.77L213.94,187.95L213.97,187.75L214.74,185.68L215.85,183.71L217.21,181.97L218.75,180.57L220.35,179.61L221.90,179.16L223.30,179.24L224.46,179.86L228.90,182.41L229.73,183.51L230.18,185.03L230.21,186.86L230.22,187.33L229.87,189.20L229.16,191.11L228.37,192.52"/><path d="M221.02,190.40L222.00,189.25L222.86,187.69L223.23,186.54"/><path d="M221.02,190.40L221.10,190.02L221.80,188.41L222.80,186.95L223.23,186.54"/></g></g><g id="Actor_.4"><g style="stroke:#000000;stroke-width:0.176"><path d="M167.85,40.03L166.79,39.25L166.07,38.01L165.75,36.38L165.84,34.47L166.31,32.55L166.34,32.43L167.22,30.38L168.42,28.46L169.85,26.81L171.41,25.54L173.01,24.73L174.21,24.50L174.53,24.44L175.86,24.69"/><path d="M172.72,38.93L171.25,39.68L169.84,39.95L169.59,39.90L168.61,39.71L167.63,39.00L166.96,37.85L166.66,36.34L166.75,34.58L167.22,32.69L168.03,30.79L169.14,29.02L170.46,27.49L171.91,26.31L173.38,25.57L174.21,25.41L174.79,25.30L176.02,25.53L177.00,26.25L177.67,27.40L177.97,28.91"/><path d="M168.84,36.39L168.93,36.64L169.12,36.81"/><path d="M168.63,35.76L168.53,35.48L168.54,35.16"/><path d="M168.64,33.66L168.55,34.01L168.54,34.37"/><path d="M169.57,37.24L169.69,37.36L169.82,37.38"/><path d="M171.02,29.23L171.08,29.18"/><path d="M171.74,28.61L172.04,28.36L172.31,28.23"/><path d="M172.99,27.92L173.29,27.77L173.54,27.76"/><path d="M174.64,27.82L174.44,27.72L174.16,27.73"/><path d="M177.96,28.35L177.96,28.34"/></g><g style="stroke:#000000;stroke-width:0.529"><path d="M174.22,37.71L174.17,37.76L172.72,38.93L172.30,39.18L170.70,39.99L169.18,40.28L167.85,40.03L163.41,37.48L162.35,36.70L161.63,35.46L161.31,33.83L161.40,31.93L161.90,29.88L162.78,27.83L163.98,25.91L165.41,24.26L166.97,22.99L168.57,22.18L170.09,21.90L171.42,22.15L175.86,24.69L176.92,25.47L177.64,26.71L177.96,28.34L177.97,28.91L177.88,30.67L177.67,31.50"/><path d="M169.14,32.05L168.97,32.39L168.86,32.79"/><path d="M169.98,30.50L169.75,30.80L169.56,31.19"/><path d="M171.02,29.23L170.81,29.41L170.55,29.75"/></g></g><g id="Actor_.5"><g style="stroke:#000000;stroke-width:0.176"><path d="M170.83,37.96L170.23,37.02L170.02,35.70L170.23,34.14L170.83,32.51L171.75,30.99L172.91,29.74L174.16,28.90L175.38,28.56L176.44,28.75"/><path d="M177.67,31.66L177.63,31.01L177.25,29.96L176.54,29.31L175.57,29.13L174.44,29.44L173.29,30.22L172.23,31.37L171.37,32.77L170.82,34.26L170.63,35.70L170.82,36.91L171.37,37.78L172.23,38.20L173.29,38.13L174.44,37.58"/></g><g style="stroke:#000000;stroke-width:0.529"><path d="M169.33,37.11L170.83,37.96L171.75,38.42L172.91,38.34L174.16,37.74L174.44,37.58L175.57,36.60L176.54,35.31L177.25,33.84L177.63,32.36L177.67,31.66L177.67,31.31L177.62,30.61L177.21,29.46L176.44,28.75L174.94,27.90"/></g></g><g id="Actor_.6"><g style="stroke:#000000;stroke-width:0.176"><path d="M120.50,161.23L120.32,161.12L120.21,160.91L120.18,160.62L120.24,160.29L120.39,159.95L120.60,159.65L120.85,159.42L121.11,159.29L121.36,159.27L121.55,159.36L117.16,156.84"/><path d="M121.48,183.23L126.07,185.87L134.95,160.41L129.46,160.35"/><path d="M135.78,139.07L140.38,141.70L121.67,159.55L121.55,159.36"/><path d="M126.07,185.87L125.82,185.92L125.56,186.09L125.32,186.34L125.13,186.66L125.00,186.99L124.96,187.31L125.01,187.58L125.15,187.77"/><path d="M131.41,126.15L134.98,128.20L134.81,128.06L134.72,127.82L134.72,127.52L134.81,127.18L134.98,126.86L135.20,126.57L135.46,126.36L135.72,126.26L135.95,126.27L133.09,124.63"/><path d="M140.38,141.70L135.72,127.95L135.46,128.14L135.20,128.23L134.98,128.20"/><path d="M135.95,126.27L136.12,126.40L136.22,126.62L136.24,126.91L136.16,127.25L153.73,127.46L149.14,124.82"/><path d="M137.84,175.30L140.63,172.64L140.85,173.25L146.79,190.77L142.19,188.13"/><path d="M146.50,192.42L146.34,192.27L146.27,192.02L146.28,191.71L146.38,191.37L146.56,191.05L146.79,190.77"/><path d="M147.58,190.55L147.37,190.49L147.39,190.44"/><path d="M156.13,140.19L157.10,140.02L158.60,140.30L159.82,141.16L160.66,142.52L161.08,144.32L161.04,146.43L160.56,148.72L159.67,151.04L158.41,153.26L156.87,155.23L155.14,156.84L153.34,157.96L151.58,158.55L149.96,158.55L148.59,157.98L147.55,156.86L147.15,155.86"/><path d="M161.34,106.22L161.12,106.18L160.87,106.25L160.61,106.43L160.37,106.69L160.19,107.01L160.08,107.35L160.05,107.67L160.11,107.93L160.26,108.10L160.47,108.16L153.73,127.46"/><path d="M155.86,105.57L160.26,108.10"/><path d="M176.79,109.85L181.38,112.48L167.20,126.02L165.40,120.71"/><path d="M171.89,172.37L171.72,172.25L171.62,172.02L171.60,171.73L171.68,171.39L170.16,171.38"/><path d="M172.86,170.44L172.64,170.41L172.38,170.50L172.12,170.70L171.84,169.85"/><path d="M173.78,135.66L172.89,138.23L186.21,138.39L186.37,138.05L186.59,137.76L186.84,137.54L187.10,137.42L187.34,137.41"/><path d="M181.38,112.48L181.35,112.20L181.40,111.88L181.53,111.54L181.73,111.23L181.98,110.99L182.24,110.84L182.49,110.80L182.69,110.88"/><path d="M186.21,138.39L181.62,135.75"/><path d="M186.09,139.17L186.17,139.09L186.29,139.28"/></g><g style="stroke:#000000;stroke-width:0.529"><path d="M165.70,171.32L170.16,171.38L171.89,172.37L172.12,172.38L172.38,172.28L172.64,172.07L172.86,171.79L173.03,171.46L173.12,171.12L173.12,170.82L173.03,170.58L172.86,170.44L171.84,169.85L167.46,156.94L186.09,139.17L186.48,139.38L186.73,139.36L186.99,139.22L187.24,138.99L187.45,138.69L187.59,138.35L187.66,138.02L187.63,137.73L187.52,137.52L182.74,134.78L182.51,134.79L182.25,134.90L181.99,135.12L181.77,135.42L181.62,135.75L173.78,135.66L181.77,112.78L182.02,112.72L182.28,112.56L182.52,112.30L182.71,111.99L182.84,111.65L182.88,111.33L182.83,111.06L182.69,110.88L178.10,108.24L177.90,108.16L177.65,108.20L177.39,108.35L177.14,108.59L176.94,108.90L176.80,109.24L176.75,109.57L176.79,109.85L165.40,120.71L161.05,107.87L161.28,107.60L161.46,107.27L161.56,106.93L161.57,106.62L161.50,106.38L161.34,106.22L156.75,103.59L156.53,103.54L156.28,103.61L156.02,103.79L155.78,104.06L155.59,104.38L155.48,104.72L155.46,105.03L155.52,105.29L155.66,105.46L155.86,105.57L149.14,124.82L133.09,124.63L131.36,123.64L131.12,123.63L130.87,123.73L130.61,123.94L130.38,124.22L130.22,124.55L130.13,124.89L130.13,125.19L130.22,125.42L130.38,125.56L131.41,126.15L135.78,139.07L117.16,156.84L116.76,156.63L116.52,156.65L116.26,156.79L116.01,157.02L115.80,157.32L115.65,157.66L115.59,157.99L115.61,158.27L115.72,158.48L120.50,161.23L120.74,161.22L121.00,161.10L121.25,160.88L121.47,160.59L121.63,160.26L129.46,160.35L121.48,183.23L121.23,183.29L120.97,183.45L120.73,183.71L120.53,184.02L120.41,184.36L120.37,184.68L120.42,184.95L120.55,185.13L125.15,187.77L125.35,187.84L125.60,187.81L125.86,187.66L126.10,187.41L126.31,187.10L126.44,186.77L126.49,186.44L126.46,186.16L137.84,175.30L142.19,188.13L141.96,188.41L141.79,188.73L141.69,189.07L141.67,189.38L141.75,189.63L141.90,189.78L146.50,192.42L146.72,192.46L146.97,192.39L147.23,192.21L147.47,191.95L147.65,191.63L147.76,191.29L147.79,190.97L147.73,190.72L147.58,190.55L147.39,190.44L154.11,171.19L164.62,171.31"/><path d="M146.93,155.29L146.72,153.30L146.98,151.09L147.68,148.76L148.76,146.47L150.17,144.35L151.82,142.55L153.59,141.18L155.39,140.31L156.13,140.19L156.48,141.68L156.45,143.79L155.97,146.08L155.07,148.41L153.81,150.63L152.28,152.60L150.55,154.20L148.75,155.33L147.15,155.86L146.93,155.29"/></g></g><g id="Actor_.7"><g style="stroke:#000000;stroke-width:0.176"><path d="M200.24,186.82L199.35,185.67L199.06,184.80L198.83,184.10L198.74,182.21L199.06,180.10L199.25,179.55L199.79,177.92L200.87,175.79L202.24,173.87L203.82,172.25L205.50,171.06L207.17,170.35L208.74,170.18L210.10,170.56"/><path d="M202.24,183.04L202.80,183.60L203.84,183.83L205.06,183.52L206.32,182.71L207.48,181.49L208.43,179.98L209.05,178.35L209.29,176.78L209.11,175.44L208.53,174.47L207.62,173.98L207.44,173.99"/></g><g style="stroke:#000000;stroke-width:0.529"><path d="M198.12,184.97L197.61,183.40L197.51,181.50L197.84,179.40L198.56,177.21L199.40,175.58L199.65,175.09L201.02,173.16L202.59,171.55L204.27,170.35L205.94,169.65L207.51,169.48L208.87,169.86L210.10,170.56L211.17,171.46L211.88,172.83L212.19,174.58L212.07,176.59L211.86,177.45L211.54,178.76L210.63,180.93L209.39,182.97L207.90,184.75L206.27,186.17L204.98,186.90L204.58,187.13L202.94,187.57L201.47,187.46L200.24,186.82L199.02,186.11L198.12,184.97"/><path d="M202.55,183.11L202.24,183.04L202.05,182.86L201.67,181.69L201.70,180.21L202.13,178.59L202.93,177.01L204.00,175.62L205.23,174.59L206.48,174.02L207.44,173.99L207.88,174.74L208.06,176.08L207.83,177.65L207.20,179.28L206.26,180.78L205.09,182.01L203.83,182.82L202.62,183.13L202.55,183.11"/></g></g><g id="Actor_.8"><g style="stroke:#000000;stroke-width:0.176"><path d="M133.85,95.49L133.88,95.53"/><path d="M133.84,94.79L133.91,94.59"/><path d="M134.07,94.48L134.13,94.39"/><path d="M135.66,93.62L135.75,93.58"/><path d="M138.41,94.29L138.43,93.92L138.69,93.22L138.80,93.06L139.27,92.54L139.43,92.44L139.21,91.79L139.07,90.72L139.17,89.86L139.47,89.20L139.43,89.23"/><path d="M142.36,96.41L141.78,96.76L141.08,97.04L140.28,97.24L139.39,97.35"/><path d="M140.15,90.31L140.16,90.19L140.34,91.30L140.65,92.12L140.28,92.13L140.08,92.15L139.43,92.44"/><path d="M139.07,90.72L139.06,90.82"/><path d="M139.89,88.78L139.88,88.79L139.90,88.78L139.47,89.20"/><path d="M140.41,95.80L140.19,95.27L140.10,94.74L140.12,94.28L140.07,94.42"/><path d="M140.41,95.79L140.74,96.28L140.73,96.27"/><path d="M142.23,96.49L142.62,96.13L142.63,96.10L141.99,95.77L141.04,94.99L140.23,94.02L140.21,94.04L140.12,94.28"/><path d="M140.46,93.83L140.44,93.83L140.49,93.83L140.31,93.91"/><path d="M140.49,93.83L140.73,93.83L140.66,93.80"/><path d="M140.23,94.02L140.34,93.90"/><path d="M140.16,90.19L140.22,89.34L140.50,88.62L140.45,88.67"/><path d="M140.40,88.59L140.42,88.59L139.90,88.78"/><path d="M140.50,88.62L140.52,88.59L140.42,88.59"/><path d="M141.07,88.58L141.13,88.60L140.52,88.59"/><path d="M139.60,87.07L140.03,86.91L140.22,86.87L141.36,86.89L142.73,87.34L143.90,88.10L144.98,89.16L145.88,90.45L146.54,91.90L146.90,93.39L146.95,94.83L146.65,96.30L146.05,97.39L145.94,97.54L145.53,97.89"/><path d="M141.38,96.92L141.49,96.86L141.53,96.86"/><path d="M140.74,96.28L141.13,96.67L141.46,96.88"/><path d="M141.24,93.99L141.28,94.01L141.10,93.93L140.73,93.83"/><path d="M141.28,94.01L141.89,94.34L142.40,94.75L142.66,95.06L142.64,95.02"/><path d="M140.65,92.12L141.00,92.11L141.77,92.35L142.04,92.46L142.84,92.90L143.64,93.55L144.11,94.12L144.49,94.94L144.55,95.57L144.56,95.81L144.41,96.42L144.32,96.64L143.96,97.21L143.81,97.37L143.26,97.88L142.54,98.31L141.69,98.64"/><path d="M142.43,92.68L141.95,91.94L141.48,90.82L141.25,89.69L141.28,88.80L141.32,88.67L141.13,88.60"/><path d="M141.32,88.67L141.99,88.90L142.36,89.14L142.36,89.20L142.62,90.33L143.13,91.45L143.86,92.50L144.74,93.38L145.20,93.69L145.23,94.79L145.01,95.80"/><path d="M141.28,88.80L141.28,88.82"/><path d="M140.65,86.41L140.94,86.27L141.13,86.24L142.26,86.19L143.62,86.58L144.80,87.28L145.90,88.30L146.83,89.56L147.53,90.99L147.95,92.48L148.05,93.94L147.80,95.43L147.25,96.56L147.14,96.71L146.59,97.25"/><path d="M142.63,96.10L142.89,95.70"/><path d="M142.79,95.24L142.81,95.39L142.66,95.06"/><path d="M142.82,89.43L142.88,89.49L142.36,89.14"/><path d="M141.71,85.72L141.86,85.65L142.05,85.61L143.15,85.50L144.36,85.78L144.52,85.83L145.70,86.47L146.82,87.45L147.78,88.67L148.52,90.08L148.99,91.56L149.14,93.04L148.95,94.56L148.44,95.73L148.33,95.88L147.66,96.61"/><path d="M142.88,95.46L142.77,95.89"/><path d="M142.83,95.63L142.81,95.39"/><path d="M142.88,89.49L143.69,90.30L144.41,91.35L144.93,92.51L145.20,93.66L145.20,93.69"/><path d="M148.82,95.91L149.63,94.89L150.08,93.67L150.11,93.50L150.23,92.14L150.02,90.65L149.51,89.18L148.72,87.79L147.73,86.60L146.59,85.68L145.41,85.09L145.25,85.04L144.05,84.82L142.86,85.01"/><path d="M144.27,96.72L144.61,96.43L144.50,96.48"/><path d="M144.60,96.45L144.63,96.42L144.61,96.43"/><path d="M144.40,96.44L144.62,96.42"/><path d="M144.63,96.42L144.98,95.79L144.56,95.71"/><path d="M144.28,94.48L144.48,94.62L145.20,94.93"/><path d="M149.96,95.19L149.99,95.17L150.11,95.01L150.81,94.04L151.21,92.79L151.24,92.62L151.30,91.23L151.04,89.74L150.48,88.27L149.66,86.91L148.64,85.76L147.49,84.89L146.30,84.36L146.13,84.31L144.95,84.15L143.95,84.37"/><path d="M144.98,95.79L145.03,95.70"/><path d="M151.00,94.52L151.21,94.36L151.33,94.21L151.98,93.18L152.33,91.90L152.35,91.74L152.36,90.32L152.06,88.83L151.45,87.37L150.59,86.04L149.55,84.93L148.38,84.11L147.20,83.64L147.02,83.58L145.85,83.49L145.67,83.53L145.03,83.71"/><path d="M146.12,83.05L146.58,82.88L146.76,82.84L147.91,82.87L148.09,82.93L149.28,83.34L150.45,84.10L151.52,85.17L152.41,86.47L153.06,87.92L153.42,89.41L153.46,90.85L153.44,91.00L153.14,92.32L152.54,93.39L152.42,93.54L152.05,93.86"/><path d="M147.16,82.38L147.49,82.24L147.68,82.20L148.81,82.17L150.17,82.58L151.35,83.28L152.44,84.31L153.37,85.58L154.06,87.01L154.47,88.50L154.56,89.96L154.30,91.45L153.74,92.57L153.63,92.72L153.11,93.22"/><path d="M148.22,81.71L148.40,81.61L148.59,81.58L149.70,81.48L150.91,81.78L151.07,81.82L152.25,82.48L153.36,83.46L154.32,84.69L155.05,86.10L155.51,87.59L155.65,89.06L155.45,90.57L154.93,91.74L154.82,91.88L154.17,92.59"/><path d="M149.37,80.98L150.59,80.80L151.80,81.03L151.96,81.08L153.14,81.68L154.28,82.61L155.26,83.80L156.04,85.20L156.54,86.67L156.74,88.16L156.61,89.52L156.58,89.69L156.12,90.90L155.31,91.89"/><path d="M150.46,80.34L151.50,80.12L152.68,80.29L152.85,80.35L154.04,80.89L155.19,81.77L156.20,82.93L157.02,84.29L157.56,85.76L157.81,87.25L157.74,88.65L157.71,88.81L157.30,90.05L156.48,91.17"/><path d="M157.52,90.49L157.70,90.36L157.81,90.21L158.48,89.20L158.83,87.91L158.86,87.76L158.88,86.34L158.58,84.85L157.99,83.39L157.13,82.05L156.09,80.93L154.93,80.10L153.74,79.62L153.57,79.57L152.40,79.46L152.22,79.50L151.55,79.68"/><path d="M152.63,79.02L153.12,78.85L153.31,78.81L154.46,78.85L154.64,78.91L155.83,79.33L157.00,80.11L158.06,81.19L158.95,82.49L159.59,83.94L159.94,85.43L159.97,86.87L159.94,87.02L159.64,88.33L159.02,89.40L158.91,89.55L158.57,89.83"/><path d="M159.62,89.18L160.11,88.72L160.23,88.58L160.80,87.46L161.07,85.98L160.99,84.52L160.59,83.03L159.91,81.60L158.99,80.32L157.90,79.29L156.72,78.57L155.36,78.15L154.22,78.17L154.03,78.21L153.68,78.36"/><path d="M160.69,88.55L161.31,87.89L161.42,87.75L161.94,86.59L162.16,85.08L162.03,83.61L161.58,82.13L160.86,80.71L159.91,79.47L158.80,78.48L157.61,77.81L157.46,77.77L156.25,77.46L155.14,77.54L154.95,77.58L154.73,77.69"/><path d="M161.81,87.87L162.50,87.05L162.61,86.91L163.08,85.71L163.11,85.54L163.25,84.18L163.06,82.70L162.57,81.22L161.80,79.82L160.82,78.62L159.69,77.68L158.51,77.07L158.35,77.02L157.14,76.77L156.06,76.92L155.88,76.95"/><path d="M162.63,78.82L161.73,77.78L160.59,76.88L159.40,76.33L159.24,76.28L158.04,76.10L156.97,76.31"/><path d="M164.78,80.06L164.52,79.41L163.68,78.07L162.64,76.94L161.48,76.10L160.29,75.61L160.12,75.55L158.95,75.44L158.77,75.47L158.06,75.66"/><path d="M166.39,81.15L166.12,79.96L165.48,78.51L164.61,77.20L163.55,76.11L162.38,75.33L161.19,74.89L161.01,74.84L159.85,74.78L159.67,74.82L159.14,75.00"/><path d="M160.20,74.33L160.58,74.18L160.77,74.14L161.90,74.13L163.27,74.56L164.45,75.29L165.53,76.34L166.44,77.62L167.12,79.06L167.51,80.55L167.58,81.96"/><path d="M161.25,73.66L161.49,73.54L161.68,73.51L162.80,73.43L164.16,73.80L165.34,74.48L166.45,75.48L167.39,76.73L168.11,78.15L168.55,79.63L168.67,81.10L168.45,82.55"/><path d="M162.35,72.96L162.41,72.92L162.60,72.89L163.69,72.75L164.90,73.01L165.06,73.06L166.24,73.68L167.37,74.63L168.34,75.84L169.10,77.24L169.59,78.72L169.76,80.20L169.61,81.55L169.58,81.73L169.10,82.92L169.07,82.96"/><path d="M163.58,80.40L164.09,81.79L164.33,83.27L164.24,84.66L164.21,84.82L163.80,86.06L162.97,87.16"/><path d="M169.46,83.14L170.29,82.07L170.72,80.84L170.74,80.68L170.84,79.30L170.61,77.81L170.08,76.34L169.28,74.96L168.28,73.79L167.14,72.88L165.95,72.32L165.79,72.27L164.59,72.07L163.48,72.28"/><path d="M164.04,86.46L164.18,86.36L164.30,86.21L164.97,85.21L165.34,83.93L165.36,83.77L165.40,82.37L165.23,81.52"/><path d="M170.56,82.44L170.67,82.37L170.78,82.21L171.46,81.22L171.84,79.95L171.87,79.79L171.91,78.39L171.63,76.90L171.05,75.43L170.22,74.08L169.19,72.95L168.03,72.10L166.84,71.59L166.67,71.54L165.49,71.41L165.31,71.44L164.57,71.63"/><path d="M166.47,82.36L166.47,82.89L166.45,83.01L166.14,84.35L165.51,85.40L165.40,85.55L165.09,85.80"/><path d="M171.60,81.78L171.88,81.56L172.00,81.40L172.63,80.36L172.95,79.06L172.98,78.91L172.97,77.48L172.64,75.99L172.02,74.53L171.15,73.21L170.09,72.12L168.93,71.32L167.74,70.87L167.56,70.82L166.40,70.75L166.22,70.79L165.65,70.97"/><path d="M167.39,82.98L167.29,83.48L166.71,84.58L166.60,84.73L166.14,85.15"/><path d="M166.72,70.30L167.13,70.14L167.31,70.11L168.45,70.11L169.82,70.55L170.99,71.30L172.07,72.35L172.98,73.64L173.65,75.08L174.03,76.57L174.09,78.02L173.79,79.49L173.20,80.59L173.09,80.74L172.66,81.12"/><path d="M168.06,83.44L167.91,83.75L167.80,83.90L167.20,84.52"/><path d="M167.77,69.64L168.04,69.51L168.23,69.47L169.35,69.41L170.71,69.80L171.89,70.48L173.00,71.49L173.93,72.75L174.64,74.17L175.07,75.66L175.18,77.12L174.94,78.62L174.40,79.76L174.29,79.91L173.72,80.49"/><path d="M168.44,83.70L168.31,83.86"/><path d="M168.85,68.94L168.95,68.89L169.14,68.85L170.24,68.73L171.45,69.00L171.61,69.05L172.79,69.68L173.91,70.64L174.88,71.86L175.63,73.27L176.11,74.74L176.27,76.22L176.11,77.57L176.08,77.74L175.59,78.93L175.48,79.07L174.81,79.84"/><path d="M169.99,68.25L171.14,68.05L172.34,68.26L172.50,68.31L173.69,68.88L174.83,69.80L175.82,70.98L176.61,72.36L177.14,73.83L177.35,75.32L177.25,76.69L177.22,76.86L176.78,78.08L175.96,79.13"/><path d="M177.08,78.42L177.15,78.37L177.27,78.22L177.96,77.23L178.34,75.97L178.37,75.81L178.43,74.41L178.16,72.92L177.59,71.46L176.76,70.10L175.73,68.96L174.58,68.09L173.39,67.58L173.22,67.53L172.04,67.38L171.86,67.42L171.08,67.60"/><path d="M174.79,67.05L175.47,67.32L176.64,68.13L176.79,68.28"/><path d="M180.77,73.78L180.84,73.68L180.89,73.50L180.90,73.26L180.88,72.98L180.83,72.70L180.75,72.45L180.66,72.25L180.55,72.12L180.45,72.09"/><path d="M182.21,71.54L182.12,71.58"/><path d="M182.10,69.08L182.18,69.14"/><path d="M183.12,70.75L183.01,70.87"/><path d="M183.21,70.43L183.15,70.56"/><path d="M183.16,70.15L183.16,70.29"/><path d="M183.00,69.86L183.03,69.96"/></g><g style="stroke:#000000;stroke-width:0.529"><path d="M168.52,83.75L168.36,83.84L168.31,83.86L168.21,83.96L168.14,84.02L167.20,84.52L166.98,84.75L166.90,84.80L166.14,85.15L165.73,85.53L165.66,85.58L165.09,85.80L164.48,86.29L164.40,86.35L164.04,86.47L163.15,87.10L162.97,87.16L162.88,87.22L161.89,87.85L161.81,87.87L161.73,87.97L161.65,88.02L160.69,88.55L160.50,88.75L160.42,88.81L159.62,89.18L159.26,89.53L159.18,89.59L158.57,89.83L158.01,90.30L157.93,90.35L157.52,90.49L156.67,91.11L156.48,91.17L155.41,91.86L155.31,91.89L155.25,91.97L155.17,92.02L154.17,92.59L154.02,92.75L153.94,92.81L153.11,93.22L152.78,93.53L152.70,93.59L152.05,93.86L151.53,94.31L151.45,94.36L151.00,94.52L150.20,95.12L149.96,95.19L148.94,95.87L148.82,95.91L148.77,95.97L148.69,96.02L147.66,96.61L147.54,96.76L147.46,96.81L146.59,97.25L146.30,97.54L146.22,97.59L145.53,97.89L145.05,98.31L144.97,98.37L143.86,98.77L143.67,98.83L142.42,98.83L142.27,98.81L141.69,98.64L141.53,98.70L140.58,98.94L139.54,99.07L138.46,99.10L137.38,99.02L136.32,98.83L135.34,98.55L134.45,98.17L134.31,98.11L133.53,97.64L132.92,97.11L132.35,96.35L132.12,95.74L132.06,95.50L132.05,94.88L132.08,94.64L132.29,94.04L132.41,93.84L132.81,93.28L133.41,92.79L133.57,92.68L134.32,92.27L135.20,91.95L136.19,91.73L136.29,91.75L136.39,91.85L136.49,92.03L136.57,92.28L136.63,92.55L136.66,92.83L136.65,93.09L136.61,93.28L136.55,93.41L136.46,93.44L135.65,93.62L135.04,93.84L134.44,94.17L134.07,94.48L133.84,94.79L133.77,95.03L133.77,95.25L133.88,95.53L134.18,95.93L134.52,96.22L135.15,96.60L135.89,96.91L136.72,97.15L137.60,97.31L138.51,97.37L139.39,97.35L138.89,96.60L138.54,95.75L138.38,94.89L138.41,94.29L138.01,93.59L137.54,92.18L137.51,92.10L137.34,90.69L137.50,89.43L137.55,89.28L138.04,88.22L138.17,88.08L138.94,87.33L139.03,87.29L139.60,87.07L139.89,86.76L139.97,86.71L140.65,86.41L140.84,86.20L141.71,85.72L141.79,85.64L142.69,85.08L142.78,85.03L142.86,85.01L143.62,84.47L143.70,84.42L143.95,84.37L144.55,83.88L144.63,83.83L145.03,83.71L145.48,83.29L145.57,83.24L146.11,83.05L146.42,82.71L146.51,82.67L147.16,82.38L147.37,82.15L148.22,81.71L148.33,81.59L149.24,81.04L149.32,80.99L149.37,80.98L150.16,80.43L150.25,80.39L150.46,80.34L151.09,79.83L151.17,79.79L151.55,79.68L152.02,79.25L152.11,79.20L152.63,79.02L152.96,78.67L153.05,78.62L153.68,78.36L153.91,78.10L154.73,77.69L154.86,77.54L155.78,77.00L155.88,76.95L156.70,76.39L156.79,76.35L156.97,76.31L157.63,75.79L157.72,75.75L158.06,75.66L158.56,75.21L158.65,75.16L159.14,75.00L159.50,74.63L159.59,74.58L160.20,74.33L160.45,74.06L161.25,73.66L161.40,73.50L162.35,72.96L163.25,72.36L163.33,72.31L163.48,72.28L164.17,71.75L164.26,71.71L164.57,71.63L165.11,71.16L165.19,71.12L165.65,70.97L166.04,70.58L166.13,70.54L166.72,70.30L166.99,70.01L167.77,69.64L167.94,69.45L168.85,68.94L168.89,68.89L169.79,68.32L169.87,68.27L169.99,68.25L170.72,67.71L170.80,67.67L171.08,67.60L171.65,67.12L171.73,67.08L172.76,66.76L172.95,66.72L174.11,66.81L174.29,66.86L174.79,67.05L174.91,66.99L176.00,66.67L177.21,66.48L178.50,66.44L179.74,66.54L181.01,66.80L182.13,67.18L183.10,67.68L183.86,68.27L184.00,68.42L184.54,69.08L184.88,70.02L184.84,70.97L184.43,71.87L183.86,72.48L183.70,72.61L182.91,73.12L181.91,73.52L180.77,73.78L180.67,73.79L180.57,73.71L180.47,73.54L180.38,73.31L180.32,73.04L180.28,72.76L180.28,72.50L180.31,72.29L180.37,72.14L180.45,72.09L181.40,71.87L182.12,71.58L182.68,71.22L183.01,70.87L183.15,70.56L183.16,70.29L183.03,69.96L182.70,69.54L182.18,69.14L181.45,68.77L180.53,68.45L179.51,68.25L178.45,68.16L177.40,68.19L176.79,68.28L177.69,69.23L178.56,70.56L179.17,72.01L179.49,73.50L179.49,74.92L179.46,75.08L179.13,76.37L178.48,77.41L178.37,77.56L177.44,78.28L177.36,78.33L177.08,78.42L176.10,79.09L175.96,79.13L175.93,79.17L175.85,79.22L174.84,79.83L174.81,79.84L174.69,79.96L174.62,80.02L173.72,80.49L173.46,80.75L173.38,80.80L172.66,81.12L172.21,81.52L172.13,81.58L171.60,81.78L170.88,82.34L170.56,82.44L169.63,83.10L169.46,83.14L169.41,83.19"/></g></g><g id="Actor_.9"><g style="stroke:#000000;stroke-width:0.176"><path d="M162.50,37.97L161.51,36.96L160.89,35.50L160.68,33.68L160.89,31.61L161.51,29.44L162.50,27.29L163.80,25.29L164.83,24.15L165.33,23.58L166.99,22.27L168.68,21.42L170.01,21.16L170.28,21.11L171.71,21.34"/></g><g style="stroke:#000000;stroke-width:0.529"><path d="M173.71,23.46L173.68,23.35L172.87,22.10L171.71,21.34L170.48,20.63L169.06,20.40L167.45,20.72L165.77,21.56L164.11,22.88L162.58,24.59L161.28,26.58L160.29,28.74L159.66,30.91L159.45,32.97L159.66,34.79L160.29,36.26L161.28,37.27L162.50,37.97L163.80,38.47L165.08,38.44"/></g></g><g id="Actor_.10"><g style="stroke:#000000;stroke-width:0.176"><path d="M112.96,136.77L111.80,136.00L110.99,134.76L110.57,133.10L110.57,131.15L110.99,129.01L111.80,126.83L112.29,125.94L112.96,124.74L114.38,122.87L115.99,121.35L117.67,120.26L119.33,119.67L120.86,119.63L122.16,120.13"/><path d="M114.01,132.44L114.66,133.04L115.71,133.23L116.94,132.89L118.19,132.05L119.35,130.80L120.27,129.28L120.87,127.65L121.08,126.09L120.87,124.77L120.27,123.83L119.35,123.38L119.21,123.38"/></g><g style="stroke:#000000;stroke-width:0.529"><path d="M110.19,134.72L109.76,134.05L109.34,132.40L109.34,130.44L109.76,128.31L110.58,126.13L111.73,124.04L113.16,122.17L114.76,120.64L116.45,119.55L118.11,118.97L119.64,118.93L120.94,119.43L122.16,120.13L123.16,121.14L123.78,122.61L123.99,124.42L123.78,126.49L123.16,128.66L122.16,130.82L120.86,132.81L119.33,134.52L117.67,135.84L115.99,136.68L114.38,137.00L112.96,136.77L111.73,136.06L110.58,135.30L110.19,134.72"/><path d="M114.39,132.51L114.01,132.44L113.88,132.33L113.48,131.19L113.48,129.73L113.88,128.11L114.66,126.51L115.71,125.11L116.94,124.05L118.19,123.45L119.21,123.38L119.65,124.07L119.85,125.39L119.65,126.95L119.05,128.58L118.12,130.10L116.97,131.35L115.71,132.19L114.49,132.53L114.39,132.51"/></g></g><g id="Actor_.11"><g style="stroke:#000000;stroke-width:0.176"><path d="M183.75,174.28L183.76,174.27L183.72,174.32L183.66,174.37L183.54,173.41L183.75,171.43L183.88,171.01L183.79,172.01L183.89,173.07L183.83,172.75L183.75,172.60L183.64,172.46"/><path d="M183.76,174.27L183.77,174.25L183.81,174.05L183.81,174.01L183.76,173.71L183.74,173.66L183.61,173.30L183.56,173.21"/><path d="M183.96,175.60L184.34,176.46L184.50,176.34L184.64,176.20L184.63,176.19L183.96,175.60L183.93,175.54L184.65,176.17L184.77,176.28L184.64,176.20"/><path d="M184.34,176.46L184.37,176.52L185.35,177.44L186.63,177.84L188.13,177.70L189.73,177.03L191.33,175.86L192.82,174.29L194.10,172.42L195.08,170.37L195.70,168.29L195.91,166.31L195.70,164.58L195.08,163.20L194.10,162.28L192.82,161.88L192.07,161.95L192.57,162.23L192.94,162.45L193.26,162.65L193.30,162.68L193.51,162.86L193.53,162.88L193.61,163.02L193.61,163.03L193.55,163.16L193.38,163.39L193.29,163.47L193.33,163.40L193.33,163.38L193.24,163.25L193.21,163.22L193.00,163.05L192.95,163.01L192.63,162.81L192.52,162.75L192.58,162.79L192.91,163.00L193.13,163.18L193.14,163.19L193.22,163.32L193.17,163.38L193.00,163.54L192.88,163.59L193.15,163.77L193.47,164.05L193.51,164.08L193.78,164.40L193.81,164.44L194.02,164.80L194.05,164.88L194.09,164.93L194.21,165.30L194.22,165.20L194.21,165.15L194.12,164.83L194.09,164.78L193.88,164.44L193.84,164.38L193.54,164.05L193.49,164.00L193.15,163.71L192.94,163.57"/><path d="M183.88,171.01L184.37,169.35L185.35,167.30L186.63,165.43L187.77,164.23L188.52,163.69L188.64,163.63L188.75,163.56L189.71,163.15L190.63,162.98L190.84,162.98L191.65,163.12L193.27,164.01L192.15,163.62L190.80,163.78L189.36,164.48L187.96,165.65L186.71,167.21L185.73,168.99L185.10,170.86L184.89,172.63L185.10,174.16L185.73,175.31L186.71,175.97L187.03,176.00L187.06,176.11L187.05,176.14L186.96,176.27L186.93,176.29L186.72,176.34L186.67,176.34L186.36,176.31L186.31,176.30L185.93,176.19L185.88,176.17L185.41,175.98L184.92,175.74L184.91,175.78L184.11,175.07L183.70,174.74L183.75,175.14L183.93,175.54"/><path d="M183.70,174.74L183.66,174.37"/><path d="M186.71,175.97L184.92,174.96L184.78,174.83L184.27,174.16L184.21,174.00L184.10,173.94L183.97,173.89L183.81,173.87"/><path d="M183.89,173.07L183.90,173.10L183.94,173.30L184.21,174.00"/><path d="M183.94,173.30L183.94,173.42L183.88,173.71L183.79,173.91"/><path d="M183.98,173.51L184.07,173.63"/><path d="M185.00,177.10L185.12,177.14L185.83,177.23L186.07,177.22L186.84,177.12L187.67,176.86L188.50,176.47L188.77,176.32L188.76,176.32"/><path d="M184.91,175.78L185.03,175.88L185.00,175.94L184.85,176.19L184.82,176.21L184.88,176.24L185.34,176.46L185.76,176.62L185.82,176.64L186.20,176.75L186.26,176.76L186.57,176.78L186.63,176.77L186.49,176.94L186.27,177.13L186.07,177.22"/><path d="M186.91,175.99L186.90,176.15L186.89,176.16L186.73,176.26L186.45,176.28L186.09,176.21L185.68,176.07L185.26,175.89L184.92,175.72L184.92,175.74"/><path d="M184.77,176.28L184.82,176.21"/><path d="M184.92,175.72L184.97,175.56L185.01,175.27L184.96,174.98"/><path d="M186.63,176.77L186.83,176.71L186.85,176.69L186.95,176.52L187.03,176.25L187.05,176.14"/><path d="M186.66,174.33L186.18,173.76L186.20,173.80"/><path d="M186.18,173.76L185.89,173.00L185.83,172.40"/><path d="M185.79,172.08L185.79,172.05"/><path d="M186.35,172.13L186.33,172.15"/><path d="M187.01,176.31L187.32,176.48L187.58,176.57L187.93,176.62L188.20,176.57"/><path d="M187.06,176.11L187.03,176.00L187.96,176.09L189.36,175.66L189.33,175.71L189.09,175.95L189.04,175.98L188.69,176.14L188.63,176.16L188.21,176.23L188.14,176.23L187.69,176.20L187.62,176.19L187.20,176.08L187.03,176.01"/><path d="M187.77,164.23L188.13,163.85L189.28,163.01L189.25,163.06L188.99,163.24L188.91,163.28"/><path d="M188.50,176.47L188.25,176.56"/><path d="M194.33,168.73L194.51,167.95L194.51,166.48L194.60,166.64L194.66,166.95L194.69,167.20L194.63,167.53L194.38,168.60L194.33,168.73L194.09,169.79L193.27,171.64L192.15,173.33L190.80,174.71L190.73,174.76L190.42,175.07L189.59,175.76L188.77,176.32L188.96,176.12L189.06,175.97"/><path d="M188.75,163.56L188.85,163.47L189.05,163.23L189.08,163.18"/><path d="M188.20,163.80L188.27,163.78L188.52,163.69"/><path d="M189.36,175.66L190.73,174.76"/><path d="M189.88,165.22L189.92,165.19"/><path d="M190.10,163.08L189.93,163.06L189.75,163.00L189.50,162.86"/><path d="M189.71,163.15L189.40,163.26"/><path d="M192.52,162.75L192.19,162.56L191.71,162.31L191.78,162.13L191.81,162.01L191.81,162.02L191.69,162.07L191.66,162.08L191.40,162.09L191.18,162.08L189.73,162.69L189.28,163.01"/><path d="M189.96,165.19L190.76,164.89L191.58,164.83"/><path d="M190.84,162.98L190.93,162.95L191.16,162.80L191.38,162.58L191.42,162.52L191.30,162.53L191.26,162.53L190.92,162.51L190.44,162.45L190.34,162.44"/><path d="M190.93,162.99L190.91,162.96"/><path d="M192.23,165.04L191.52,164.84"/><path d="M191.18,162.08L191.30,162.03L191.54,162.02L191.61,161.99L191.33,162.02L191.30,162.03"/><path d="M191.42,162.52L191.55,162.50L191.65,162.45L191.68,162.40L191.71,162.31"/><path d="M191.61,161.99L192.05,161.95L192.51,162.20L192.71,162.31"/><path d="M191.81,162.01L191.80,161.97"/><path d="M193.09,163.46L193.12,163.47L193.28,163.48L193.29,163.47"/><path d="M192.67,163.68L192.77,163.65L192.88,163.59"/><path d="M192.07,161.95L192.05,161.95"/><path d="M192.85,162.39L192.61,162.25"/><path d="M193.27,164.01L194.05,164.88"/><path d="M194.54,164.89L194.56,164.86L194.54,164.90L194.54,164.88L194.53,164.83L194.42,164.49L194.39,164.44L194.17,164.09L194.12,164.03L193.82,163.70L193.76,163.65L193.40,163.36"/><path d="M193.59,162.12L193.62,162.24L193.62,162.51L193.54,162.81L193.52,162.87"/><path d="M193.60,162.13L194.01,162.60L194.38,163.28L194.63,164.05L194.69,164.29L194.80,165.20L194.80,166.18L194.69,167.20"/><path d="M194.49,163.60L194.18,163.20L193.85,163.02L193.59,162.92L193.55,162.92"/><path d="M194.63,167.53L194.51,167.81"/><path d="M194.51,167.09L194.52,167.16L194.54,167.58L194.54,167.65L194.51,167.75"/><path d="M194.21,165.30L194.51,166.28L194.51,166.48"/><path d="M194.35,165.43L194.38,165.40L194.52,165.20L194.53,165.16L194.54,164.90"/><path d="M194.36,165.42L194.33,165.44L194.37,165.41"/><path d="M194.56,164.86L194.67,164.56L194.69,164.31"/><path d="M194.33,165.44L194.26,165.49"/></g><g style="stroke:#000000;stroke-width:0.529"><path d="M179.46,174.61L179.40,174.49L179.07,173.28L178.97,171.90L178.97,171.86L179.07,170.36L179.39,168.79L179.92,167.18L180.63,165.60L181.51,164.08L182.53,162.67L183.65,161.42L184.85,160.36L186.09,159.52L186.13,159.50L187.37,158.91L188.58,158.59L189.77,158.55L190.80,158.80L190.86,158.82L194.17,160.71L195.06,161.23L195.11,161.28L195.82,162.05L196.38,163.12L196.70,164.33L196.81,165.71L196.81,165.75L196.70,167.25L196.38,168.82L195.86,170.43L195.20,171.89L195.15,172.01L194.27,173.53L193.25,174.94L192.13,176.19L190.93,177.25L189.69,178.09L189.65,178.11L188.41,178.70L187.20,179.02L186.01,179.06L184.98,178.82L184.92,178.79L181.61,176.90L180.72,176.38L180.67,176.33L179.95,175.56L179.46,174.61"/><path d="M185.81,172.20L185.83,172.40L186.32,172.15L187.21,171.46L188.04,170.57L188.77,169.52L189.35,168.39L189.76,167.21L189.96,166.07L189.96,165.19L189.88,165.22L189.01,165.77L188.15,166.57L187.36,167.55L186.70,168.65L186.20,169.81L185.89,170.97L185.79,172.05L185.81,172.20"/></g></g><g><g><path style="stroke:#000000;stroke-width:0.125;stroke-dasharray:1.9 1.3 0.6 1.3" d="M181.47,68.54L182.19,56.41"/></g></g><g><g><path style="stroke:#000000;stroke-width:0.125;stroke-dasharray:1.9 1.3 0.6 1.3" d="M134.80,96.63L131.64,91.43"/></g></g><g><g><path style="stroke:#000000;stroke-width:0.125;stroke-dasharray:1.9 1.3 0.6 1.3" d="M104.43,120.93L111.28,124.86"/><path style="stroke:#000000;stroke-width:0.125;stroke-dasharray:1.9 1.3 0.6 1.3" d="M135.72,138.88L114.55,126.74"/><path style="stroke:#000000;stroke-width:0.125;stroke-dasharray:1.9 1.3 0.6 1.3" d="M148.81,146.39L181.05,164.88"/><path style="stroke:#000000;stroke-width:0.125;stroke-dasharray:1.9 1.3 0.6 1.3" d="M199.47,175.45L186.93,168.26"/><path style="stroke:#000000;stroke-width:0.125;stroke-dasharray:1.9 1.3 0.6 1.3" d="M202.76,177.34L215.37,184.57"/><path style="stroke:#000000;stroke-width:0.125;stroke-dasharray:1.9 1.3 0.6 1.3" d="M222.13,188.45L221.87,188.30"/></g></g><g id="PMI.0"><g><path style="stroke:#000000;stroke-width:0.125" d="M180.78,91.47L162.46,79.07"/></g><g><path style="fill:#000000" d="M163.21,79.07L163.21,79.00L163.20,78.92L163.18,78.85L163.16,78.78L163.13,78.72L163.09,78.65L163.04,78.60L162.99,78.54L162.94,78.49L162.88,78.45L162.82,78.41L162.75,78.38L162.68,78.35L162.61,78.34L162.54,78.32L162.46,78.32L162.39,78.32L162.32,78.34L162.25,78.35L162.18,78.38L162.11,78.41L162.05,78.45L161.99,78.49L161.93,78.54L161.88,78.60L161.84,78.65L161.80,78.72L161.77,78.78L161.75,78.85L161.73,78.92L161.72,79.00L161.71,79.07L161.72,79.14L161.73,79.22L161.75,79.29L161.77,79.36L161.80,79.42L161.84,79.49L161.88,79.55L161.93,79.60L161.99,79.65L162.05,79.69L162.11,79.73L162.18,79.76L162.25,79.79L162.32,79.81L162.39,79.82L162.46,79.82L162.54,79.82L162.61,79.81L162.68,79.79L162.75,79.76L162.82,79.73L162.88,79.69L162.94,79.65L162.99,79.60L163.04,79.55L163.09,79.49L163.13,79.42L163.16,79.36L163.18,79.29L163.20,79.22L163.21,79.14z"/></g><g><text xml:space="preserve" fill="#000000" stroke-width="0" x="177.15" y="95.94" font-size="3.81" opacity="1.00" font-family="Arial">MFE0011</text></g></g><g><g/><g><text xml:space="preserve" fill="#000000" stroke-width="0" x="3.80" y="6.59" font-size="4.53" opacity="1.00" font-family="Arial" font-weight="bold">BPA35467</text></g></g><g><g><path style="stroke:#000000;stroke-width:0.125" d="M179.67,200.24L161.12,163.27"/></g><g><path style="fill:#000000" d="M161.87,163.27L161.87,163.19L161.86,163.12L161.84,163.05L161.82,162.98L161.79,162.91L161.75,162.85L161.70,162.79L161.66,162.74L161.60,162.69L161.54,162.64L161.48,162.61L161.41,162.57L161.34,162.55L161.27,162.53L161.20,162.52L161.12,162.52L161.05,162.52L160.98,162.53L160.91,162.55L160.84,162.57L160.77,162.61L160.71,162.64L160.65,162.69L160.59,162.74L160.55,162.79L160.50,162.85L160.46,162.91L160.43,162.98L160.41,163.05L160.39,163.12L160.38,163.19L160.37,163.27L160.38,163.34L160.39,163.41L160.41,163.48L160.43,163.55L160.46,163.62L160.50,163.68L160.55,163.74L160.59,163.80L160.65,163.85L160.71,163.89L160.77,163.93L160.84,163.96L160.91,163.98L160.98,164.00L161.05,164.01L161.12,164.02L161.20,164.01L161.27,164.00L161.34,163.98L161.41,163.96L161.48,163.93L161.54,163.89L161.60,163.85L161.66,163.80L161.70,163.74L161.75,163.68L161.79,163.62L161.82,163.55L161.84,163.48L161.86,163.41L161.87,163.34z"/></g><g><text xml:space="preserve" fill="#000000" stroke-width="0" x="174.07" y="204.70" font-size="3.77" opacity="1.00" font-family="Arial">KIT0303</text></g></g><g id="PMI.1"><g><path style="stroke:#000000;stroke-width:0.125" d="M235.26,200.24L224.73,189.49"/></g><g><path style="fill:#000000" d="M225.48,189.49L225.48,189.41L225.47,189.34L225.45,189.27L225.43,189.20L225.39,189.13L225.36,189.07L225.31,189.01L225.26,188.96L225.21,188.91L225.15,188.86L225.09,188.83L225.02,188.79L224.95,188.77L224.88,188.75L224.81,188.74L224.73,188.74L224.66,188.74L224.59,188.75L224.52,188.77L224.45,188.79L224.38,188.83L224.32,188.86L224.26,188.91L224.20,188.96L224.15,189.01L224.11,189.07L224.07,189.13L224.04,189.20L224.02,189.27L224.00,189.34L223.99,189.41L223.98,189.49L223.99,189.56L224.00,189.63L224.02,189.70L224.04,189.77L224.07,189.84L224.11,189.90L224.15,189.96L224.20,190.02L224.26,190.07L224.32,190.11L224.38,190.15L224.45,190.18L224.52,190.20L224.59,190.22L224.66,190.23L224.73,190.24L224.81,190.23L224.88,190.22L224.95,190.20L225.02,190.18L225.09,190.15L225.15,190.11L225.21,190.07L225.26,190.02L225.31,189.96L225.36,189.90L225.39,189.84L225.43,189.77L225.45,189.70L225.47,189.63L225.48,189.56z"/></g><g><text xml:space="preserve" fill="#000000" stroke-width="0" x="230.07" y="204.70" font-size="3.79" opacity="1.00" font-family="Arial">MST0011</text></g></g><g/><g id="paperID" visibility="hidden" opacity="0.00" transform="scale(0.000100)"><path style="stroke:#000000;stroke-width:0.500;fill:#e6e6e6;fill-rule:evenodd" d="M-2000.00,-2000.00L2297.00,-2000.00L2297.00,2210.00L-2000.00,2210.00zM0.00,0.00L297.00,0.00L297.00,210.00L0.00,210.00z"/><path style="fill:#000000;fill-opacity:0.118" d="M3.00,210.00L297.00,210.00L297.00,3.00L300.00,3.00L300.00,213.00L3.00,213.00z"/></g><g id="hotspot.0" onmouseover="ShowHotSpot(evt,'0')" onmouseout="HideHotSpot(evt,'0')" onmousemove="ShowToolTip(evt,'0',&quot;Hotspot 1&quot;)" opacity="0"><path style="fill:#00ff00;fill-rule:evenodd" d="M160.34,105.58L161.48,106.38L161.48,107.26L161.08,107.85L165.37,120.49L165.62,120.48L175.49,111.07L176.70,109.85L176.84,109.02L177.61,108.15L177.98,108.15L180.90,109.79L182.85,111.08L182.85,111.63L182.46,112.37L181.82,112.71L176.15,128.89L173.87,135.58L181.70,135.57L182.29,134.87L183.01,134.87L187.53,137.47L187.54,138.50L187.37,138.82L186.84,139.26L186.02,139.23L184.89,140.22L175.65,149.11L174.21,150.42L167.62,156.79L167.61,157.38L171.84,169.83L172.66,170.30L173.15,170.80L172.81,171.84L172.27,172.29L171.83,172.28L170.39,171.45L168.76,171.30L154.14,171.13L147.54,189.95L147.56,190.54L147.73,190.71L147.73,191.43L147.01,192.34L146.42,192.35L141.90,189.74L141.67,189.10L142.07,188.18L142.06,187.64L137.85,175.35L137.45,175.65L126.59,186.01L126.35,186.88L125.81,187.64L125.05,187.65L120.53,185.05L120.51,183.96L120.95,183.43L121.49,183.15L129.44,160.29L121.61,160.29L120.95,161.10L120.36,161.11L115.67,158.35L115.66,157.58L116.25,156.72L117.23,156.73L133.89,140.85L135.74,138.92L131.38,126.13L130.24,125.49L130.23,124.40L130.82,123.70L131.54,123.70L132.98,124.53L142.70,124.68L149.17,124.73L155.80,105.56L155.44,104.93L155.73,104.10L156.23,103.63L156.95,103.63zM121.99,119.98L122.97,120.94L123.60,122.09L123.92,123.71L123.92,125.22L123.76,126.51L123.28,128.29L122.74,129.54L121.17,132.34L119.55,134.28L118.03,135.51L116.27,136.50L114.97,136.82L113.57,136.82L112.76,136.65L110.50,135.19L109.85,134.22L109.51,132.94L109.52,129.59L110.12,127.27L110.81,125.70L112.12,123.45L113.66,121.59L115.46,120.15L116.80,119.39L117.88,119.01L120.05,119.01zM190.93,158.83L195.32,161.40L196.27,162.88L196.76,164.66L196.76,166.81L196.60,167.79L195.95,170.22L194.44,173.24L192.71,175.56L190.95,177.20L188.94,178.42L187.49,178.91L185.59,178.91L184.62,178.58L180.75,176.30L179.76,175.18L179.43,174.54L179.11,173.41L179.12,170.21L179.60,168.10L180.84,165.15L181.72,163.76L182.94,162.22L183.92,161.10L185.87,159.65L187.48,158.83L189.10,158.51L189.80,158.51zM208.90,169.84L210.86,171.11L211.81,172.59L212.13,174.21L212.13,175.88L211.65,178.31L210.95,180.04L209.87,182.19L208.35,184.23L206.41,186.01L204.79,186.98L203.01,187.50L201.28,187.33L199.04,186.01L198.23,185.03L197.72,183.77L197.52,181.33L198.01,178.91L198.97,176.31L200.34,174.12L201.39,172.74L203.07,171.18L204.53,170.22L205.76,169.67L206.58,169.52L207.76,169.52zM119.55,123.88L119.86,125.32L119.72,126.51L119.23,128.13L118.28,129.77L117.14,131.06L115.86,132.04L114.65,132.47L113.89,132.29L113.56,131.33L113.56,129.42L114.16,127.43L114.88,126.21L115.94,124.84L117.23,123.87L118.20,123.38L119.23,123.39zM156.46,141.51L156.46,143.83L155.98,146.11L155.28,147.83L154.30,149.77L152.41,152.41L150.65,154.04L149.10,155.09L147.24,155.81L147.06,155.63L146.90,154.95L146.91,151.93L147.06,150.78L148.04,147.87L149.26,145.70L150.48,144.01L152.04,142.32L153.81,141.03L155.59,140.21L156.13,140.21zM189.80,166.98L189.31,168.43L188.29,170.17L187.14,171.44L185.92,172.34L185.91,170.86L186.56,168.92L187.46,167.39L188.84,165.86L189.97,165.14zM207.93,174.85L207.92,177.01L207.77,177.83L207.28,179.12L206.46,180.41L205.51,181.56L204.04,182.68L203.19,182.95L202.10,182.95L201.77,181.99L201.77,179.92L202.42,177.98L203.24,176.54L204.64,175.02L205.93,174.21L206.41,174.04L207.46,174.03z"/></g></g></svg>
