<?xml version="1.0" encoding="UTF-8" standalone="no"?>
<svg xmlns="http://www.w3.org/2000/svg" xmlns:xlink="http://www.w3.org/1999/xlink" width="297.000mm" height="210.000mm" viewBox="0.000000 0.000000 297.000000 210.000000" stroke-linejoin="round" stroke-linecap="round" fill="none" fill-rule="evenodd"><desc>Composer Export</desc><script type="text/ecmascript"><![CDATA[
if(typeof(top) != "undefined")
{
	top.ShowPaper = ShowPaper;
}
function ShowHotSpot(evt,hotspotid)
{
	var svgDocument = evt.target.ownerDocument;
	var strId = "hotspot."+hotspotid;
	var hotspot = svgDocument.getElementById(strId);
	if(hotspot)
		hotspot.setAttribute("opacity",".5");
}
function HideHotSpot(evt,hotspotid)
{
	var svgDocument = evt.target.ownerDocument;
	var strId = "hotspot."+hotspotid;
	var hotspot = svgDocument.getElementById(strId);
	if(hotspot)
		hotspot.setAttribute("opacity","0");

	var toolTip = svgDocument.getElementById('ToolTip');
	if(toolTip)
		toolTip.setAttribute("visibility","hidden");
}
function ShowToolTip(evt,hotspotid,strTooltip)
{
	if(strTooltip=="")
	return;

	// change text
	var svgDocument = evt.target.ownerDocument;
	var tiptext = svgDocument.getElementById('ToolTipText');
	if( !tiptext )
	return;
	tiptext.firstChild.nodeValue = " " + strTooltip + "  " ;

	// show tooltip before, else some refresh issue

	var toolTip = svgDocument.getElementById('ToolTip');
	if(!toolTip)
	return;

	toolTip.setAttribute("visibility","visible");
	toolTip.setAttribute("opacity",".95");

	// move tooltip
	// get viewbox

	var root = svgDocument.documentElement;
	var vbox = (root.getAttribute("viewBox")).split(' ');
	var x0 = parseFloat(vbox[0]);
	var y0 = parseFloat(vbox[1]);
	var vboxW = parseFloat(vbox[2]);
	var vboxH = parseFloat(vbox[3]);

	// get default width of svg

	var strW = root.getAttribute("width");
	var svgW = parseFloat(strW);
	if(strW.indexOf('mm') != -1)
	svgW *= 3.779;

	var strH = root.getAttribute("height");
	var svgH = parseFloat(strH);
	if(strH.indexOf('mm') != -1)
	svgH *= 3.779;  	// 96 dpi  -> 96/25.4 = 3.779

	// update the viewbox / width / height if svg is embedded in html with zoom fit all
	var realx0 = x0;
	var realy0 = y0;
	var realvboxW = vboxW;
	var realvboxH = vboxH;
	var realsvgW = svgW;
	var realsvgH = svgH;

	if ((typeof(top) == "undefined") || (typeof(top.svgctl1) != "undefined")) // embedded in html
	{
		// get window size in pxl

		svgW = window.innerWidth;
		svgH = window.innerHeight;

		// calculate real viewbox

		realsvgW = svgW;
		realsvgH = svgH;
		if((svgW / svgH) > (vboxW / vboxH))
		{
			realvboxW = (vboxH * svgW) / svgH;
			realvboxH = vboxH;
			realx0 = x0 - (realvboxW - vboxW)/2 ;
		}
		else
		{
			realvboxH = (vboxW * svgH) / svgW;
			realvboxW = vboxW;
			realy0 = y0 - (realvboxH - vboxH)/2 ;
		}
	}

	// get user zoom/pan

	var newScale = root.currentScale;
	var translation = root.currentTranslate;

	// transform pxl to user unit

	var xPos = (((evt.clientX+10- translation.x)/newScale) * realvboxW)/realsvgW  + realx0 ;
	var yPos = (((evt.clientY+5- translation.y)/newScale) * realvboxH)/ realsvgH  + realy0 ;
	var scaleForWidth = ( (1 / newScale) * realvboxH) / realsvgH;

	// move tooltip

	toolTip.setAttribute("transform", "translate(" + xPos + "," + yPos + ")" );

	// resize tooltip

	var fontsize = 12;
	tiptext.setAttribute("font-size",fontsize*scaleForWidth);
	tiptext.setAttribute("y", fontsize*scaleForWidth);
	var tipBG = svgDocument.getElementById('ToolTipBG');
	var outline = tiptext.getBBox();
	if(tipBG)
	{
		tipBG.setAttribute("stroke-width", 1*scaleForWidth);
		tipBG.setAttribute("width", Number(outline.width) );
		tipBG.setAttribute("height", Number(outline.height) + fontsize*.5*scaleForWidth );
	}
	var ToolTipShadow = svgDocument.getElementById('ToolTipShadow');
	if(ToolTipShadow)
	{
		ToolTipShadow.setAttribute("width", Number(outline.width) );
		ToolTipShadow.setAttribute("height", Number(outline.height) + fontsize*.5*scaleForWidth );
		ToolTipShadow.setAttribute("x", 3*scaleForWidth);
		ToolTipShadow.setAttribute("y", 3*scaleForWidth);
	}
}
function ShowPaper()
{
  var svgDocument = getDocument();
  var paper = svgDocument.getElementById("paperID");
  if(paper)
  {
    paper.setAttribute("transform","scale(1)");
    paper.setAttribute("opacity","1");
    paper.setAttribute("visibility","visible");
  }
  var svg = svgDocument.getRootElement();
  if(svg)
  {
    svg.setAttribute("width","307.000mm");
    svg.setAttribute("height","220.000mm");
    svg.setAttribute("viewBox","-5.000000 -5.000000 307.000000 220.000000");
  }
}
]]></script><defs/><g><path style="fill:#000000;fill-opacity:0.098;fill-rule:evenodd" d="M147.19,35.68L147.65,34.73L148.91,33.69L150.51,32.98L152.10,32.63L154.82,32.62L154.82,40.13L152.51,40.06L150.56,39.72L148.96,39.01L147.92,38.28L147.39,37.57L147.19,37.06zM133.40,38.64L133.42,57.28L129.44,57.23L125.20,57.76L121.66,58.65L119.35,59.55L118.88,59.55L115.34,57.77L113.06,56.15L111.62,54.58L110.56,52.81L110.02,51.22L110.03,48.79L110.74,46.66L112.00,44.91L113.87,43.07L116.23,41.54L119.58,40.11L122.01,39.35L124.49,38.82L127.67,38.47L132.16,38.47zM107.38,59.88L107.38,67.21L106.08,67.32L105.43,67.32L103.30,66.97L101.56,66.24L100.47,65.38L99.94,64.67L99.76,64.14L99.76,62.94L100.22,61.99L101.66,60.77L102.90,60.24L104.13,59.88L106.67,59.71zM209.18,76.51L208.75,76.71L208.19,76.70L208.38,76.35L209.01,76.33zM126.14,76.70L134.40,76.70L140.24,76.17L145.42,75.33L151.40,73.88L155.64,72.46L160.24,70.50L164.12,68.36L167.39,66.15L170.39,63.66L173.04,60.65L174.81,57.82L176.06,55.17L176.76,52.33L176.94,49.43L176.94,76.76L176.76,79.76L176.05,82.60L174.63,85.78L172.89,88.28L171.64,89.69L170.67,90.84L168.78,92.50L167.92,93.75L167.30,94.20L164.90,95.70L164.84,103.50L168.92,102.72L171.27,101.89L172.89,100.85L173.40,100.13L173.58,98.80L173.75,98.98L174.28,100.06L174.45,141.49L174.64,141.83L174.99,143.43L174.99,146.67L174.63,148.08L173.75,150.21L172.86,151.62L171.27,153.57L170.23,154.47L167.93,156.25L165.55,157.59L162.77,158.88L158.71,160.30L153.57,161.36L148.03,161.84L143.13,161.84L140.47,161.66L138.11,161.37L138.01,137.23L133.86,137.42L130.14,137.30L130.20,93.33L136.17,93.34L141.01,93.04L148.09,92.15L151.29,91.62L151.31,91.40L142.92,81.11L142.91,80.94L145.09,80.29L145.11,80.05L144.92,79.86L141.01,80.47L134.05,81.12L126.85,81.12L122.00,80.83L122.00,76.52zM211.45,81.65L211.46,83.85L211.21,84.31L198.48,87.68L197.46,87.68L196.88,87.32L197.48,87.04L197.75,86.41L198.55,86.49L198.49,84.48L210.88,81.11L211.26,81.12zM209.15,98.47L208.76,98.66L208.19,98.64L208.82,98.29zM124.55,100.41L125.96,100.95L127.38,101.85L123.30,102.95L122.01,103.14L121.89,102.55L121.88,101.35L122.35,100.58L123.50,100.26zM114.11,102.71L114.11,115.53L104.67,115.46L95.82,115.99L89.80,116.70L82.36,118.12L75.99,119.72L75.46,119.73L77.76,118.12L84.01,114.46L89.44,111.57L96.88,108.21L103.25,105.73L111.75,102.90L113.21,102.54zM211.45,103.60L211.46,105.97L211.22,106.26L202.41,108.60L197.64,109.82L196.88,109.27L197.48,108.98L197.75,108.35L198.55,108.43L198.49,106.42L211.26,103.07zM228.44,114.81L228.23,114.95L214.58,118.54L214.63,74.62L228.05,71.02L228.44,71.02zM125.08,122.54L127.38,123.79L122.90,125.02L122.01,125.07L121.88,124.68L121.88,123.30L122.36,122.53L122.71,122.36L124.37,122.36zM110.03,128.74L111.80,129.09L111.93,135.52L116.58,136.34L116.58,137.31L109.85,136.52L107.02,136.35L97.94,136.35L93.16,136.70L86.61,137.59L79.89,139.00L74.05,140.78L68.56,142.90L64.90,144.72L61.53,146.67L58.65,148.57L55.16,151.27L54.03,152.26L52.88,153.23L50.31,155.98L48.54,158.11L46.79,160.60L44.72,164.72L43.61,168.04L43.30,169.50L43.30,171.22L43.83,173.34L44.54,175.47L46.51,179.52L46.90,180.36L46.33,179.69L44.72,176.88L43.65,174.40L42.94,172.28L42.42,170.15L42.07,167.85L42.06,163.48L42.54,160.07L43.60,156.71L45.19,153.16L47.92,148.98L50.13,146.42L53.34,143.25L55.46,141.48L58.65,139.18L61.48,137.41L65.37,135.28L69.62,133.34L75.99,131.21L82.01,129.80L87.50,128.91L92.98,128.38L96.52,128.21L102.77,128.21zM139.77,164.67L147.14,164.67L152.28,164.14L157.10,163.12L161.18,161.89L165.56,160.07L168.89,158.10L170.84,156.68L173.50,154.21L174.99,152.15L176.36,149.46L176.94,147.48L176.94,158.35L176.40,160.30L175.35,162.60L173.42,165.28L170.85,167.66L168.57,169.27L165.20,171.21L161.71,172.69L157.81,173.92L153.04,174.99L147.50,175.64L139.41,175.64L137.58,175.53L137.63,164.48zM128.78,173.88L133.21,174.93L130.14,178.30L129.87,178.30L125.62,173.68L124.70,172.78L124.67,172.61L125.07,172.61zM47.20,180.59L47.61,181.42L47.21,181.12L46.90,180.36zM47.94,181.67L47.93,181.89L47.75,181.86L47.61,181.42zM48.64,182.54L48.64,182.78L48.44,182.73L48.44,182.35zM49.17,183.25L49.17,183.48L48.98,183.44L48.98,183.05zM53.76,188.20L53.75,197.12L53.57,197.64L52.98,198.47L52.27,198.54L52.27,187.84L53.41,187.86z"/><g id="Actor_.0"><g style="stroke:#000000;stroke-width:0.176"><path d="M53.68,188.14L53.40,188.01L51.88,187.71L51.40,187.49L46.84,184.70L42.62,181.60L38.90,178.31L35.71,174.84L33.08,171.21L31.02,167.47L29.55,163.64L28.68,159.74L28.43,155.82"/><path d="M43.14,170.30L43.01,169.47L42.88,166.78"/><path d="M43.36,171.70L43.30,171.49"/><path d="M43.56,168.00L43.45,168.59"/><path d="M47.73,181.50L47.65,181.39"/><path d="M48.02,158.80L48.36,158.28"/><path d="M51.96,186.62L52.34,186.96L51.22,185.96"/><path d="M53.02,187.56L52.73,187.30L53.48,187.97L53.02,187.56"/><path d="M52.73,187.30L52.34,186.96L52.73,187.30"/><path d="M53.79,196.45L53.79,196.83"/><path d="M53.79,196.47L53.79,192.97"/><path d="M53.79,193.73L53.79,194.11"/><path d="M53.78,188.45L53.80,188.40"/><path d="M53.51,187.99L53.48,187.97L53.59,188.07"/><path d="M63.47,145.52L63.72,145.37"/><path d="M67.61,118.47L74.36,122.34L73.85,121.95L73.52,121.57L73.00,120.80L72.53,120.33L72.39,120.23L72.13,120.09L69.26,118.84L68.70,118.66L68.03,118.57L67.67,118.48L67.44,118.37L67.61,118.47"/><path d="M69.15,118.28L70.39,117.86L71.47,117.41L72.59,116.88L74.24,116.01"/><path d="M176.92,49.19L176.76,52.32L175.97,55.42L174.56,58.44L172.54,61.35L169.95,64.11L166.82,66.67L163.19,69.01L159.11,71.10L154.64,72.89L149.84,74.38L144.76,75.53L139.49,76.34L134.09,76.80L128.64,76.89L123.20,76.61L117.85,75.98L112.67,75.00L107.72,73.67L103.08,72.03L98.80,70.09L97.86,69.55L94.94,67.87L91.55,65.42L88.68,62.75L86.38,59.92L84.66,56.95L83.56,53.88L83.08,50.76"/><path d="M99.96,64.77L99.82,64.57L99.59,63.43L99.96,62.30L100.89,61.30L101.28,61.07L102.31,60.48L104.08,59.94L106.04,59.73L108.03,59.86L109.86,60.32L111.37,61.07L112.44,62.04L112.96,63.14L112.88,64.29L112.22,65.37L111.03,66.29L109.43,66.97L107.54,67.35L105.54,67.40L103.61,67.10L101.92,66.49L100.63,65.63L99.96,64.77"/><path d="M168.59,92.69L166.82,94.14L163.17,96.49L159.11,98.56L154.64,100.35L151.41,101.35L151.41,91.63L145.63,92.56L139.73,93.20L133.76,93.54L130.80,93.48L127.90,93.10L125.18,92.43L122.72,91.48L120.62,90.31L119.84,89.68L118.90,88.90L117.67,87.35L116.96,85.70L116.79,84.00L116.79,125.36L116.76,125.21L116.22,124.55L115.35,124.02L114.24,123.67L114.24,102.80L112.67,102.46L107.72,101.14L106.61,100.74"/><path d="M177.07,144.72L176.96,147.32L176.25,149.88L174.94,152.37L173.05,154.74L170.69,156.89L167.72,158.93L164.36,160.69L160.63,162.16L156.58,163.34L152.30,164.19L147.85,164.71L143.38,164.88L138.80,164.70L134.36,164.17L130.09,163.30L126.05,162.11L122.33,160.63L118.99,158.87L116.09,156.86L113.69,154.66L111.83,152.29L110.54,149.79L109.84,147.22"/><path d="M110.38,52.35L109.96,50.99L109.96,48.97L110.57,46.99L111.77,45.10L113.52,43.36L115.78,41.82L118.46,40.53L121.50,39.52L124.79,38.83L128.25,38.48L131.75,38.48L135.21,38.83L138.50,39.52L141.54,40.53L144.22,41.82L146.48,43.36L148.23,45.10L149.43,46.99L150.04,48.97L150.04,50.99L149.42,52.98L148.47,54.49L148.22,54.87L146.47,56.60L144.22,58.14L141.54,59.43L138.50,60.43L135.21,61.12L131.75,61.47L128.25,61.47L124.79,61.12L121.50,60.43L118.46,59.43L115.78,58.13L113.54,56.61L111.78,54.87L110.58,52.97L110.38,52.35"/><path d="M116.79,84.00L116.92,81.99L116.76,81.27L116.22,80.61L115.35,80.08L114.24,79.73L117.85,80.38L123.20,81.01L128.64,81.28L134.09,81.19L139.49,80.74L144.88,79.91L145.23,80.34L142.77,81.00L145.23,84.03L145.23,80.34"/><path d="M123.82,160.61L124.56,160.48L125.04,160.33L125.64,160.06L126.21,159.61L126.50,159.17L126.56,158.76L126.56,152.95L124.70,152.62L122.18,151.80L120.02,150.69L118.34,149.35L117.18,147.81L116.78,146.83L116.61,146.53"/><path d="M116.78,146.83L116.71,125.14"/><path d="M116.61,137.36L116.63,125.04"/><path d="M116.79,125.36L116.79,127.95L116.96,129.64L117.67,131.29L118.90,132.84L120.62,134.25L122.72,135.43L125.18,136.37L127.90,137.05L130.80,137.42L133.76,137.49L139.73,137.14L145.63,136.51L151.41,135.57L151.41,101.35"/><path d="M122.72,126.49L122.37,125.96L122.12,125.46L121.94,124.95L121.84,124.45L121.80,123.98L121.84,123.54L121.94,123.16L122.12,122.84L122.36,122.59L122.72,122.39L123.07,122.30L123.52,122.28L124.02,122.33L124.59,122.46L125.15,122.64L125.79,122.91L126.38,123.21L126.99,123.57L127.57,123.98L127.90,124.25L128.53,124.86L128.85,125.31L129.07,125.80L129.14,126.28L129.07,126.70L128.85,127.12L128.53,127.48L127.90,127.88L126.99,128.17L126.38,128.24L125.78,128.23L125.18,128.12L124.57,127.93L124.03,127.66L123.52,127.31L123.07,126.90L122.72,126.49"/><path d="M122.90,104.73L122.72,104.52L122.37,103.99L122.12,103.49L121.94,102.98L121.84,102.48L121.80,102.01L121.84,101.57L121.94,101.19L122.12,100.87L122.37,100.62L122.72,100.42L123.07,100.33L123.52,100.30L124.02,100.35L124.59,100.49L125.15,100.67L125.79,100.94L126.99,101.60L127.90,102.27L128.53,102.89L128.85,103.34L129.07,103.83L129.14,104.31L129.07,104.73L128.85,105.15L128.53,105.50L127.90,105.91L126.99,106.20L126.38,106.27L125.78,106.26L125.18,106.15L124.57,105.96L124.03,105.69L123.52,105.34L123.07,104.93L122.90,104.73"/><path d="M130.00,178.51L124.87,172.63L126.05,173.10L127.17,173.43L130.00,178.51L133.10,174.90L130.09,174.29L127.17,173.43"/><path d="M124.87,172.63L124.46,172.46"/><path d="M126.56,152.95L126.56,136.72"/><path d="M133.10,174.90L133.27,174.93"/><path d="M145.23,84.03L151.41,91.63"/><path d="M147.32,37.49L148.05,38.44L149.33,39.29L151.03,39.90L152.96,40.20L154.95,40.16L156.84,39.78L158.45,39.10L159.64,38.18L160.30,37.09L160.37,35.95L159.85,34.84L158.79,33.87L157.28,33.12L155.44,32.66L153.46,32.54L151.49,32.75L149.73,33.28L148.31,34.09L147.38,35.11L147.01,36.24L147.23,37.37L147.32,37.49"/><path d="M165.72,95.26L164.75,95.84L164.75,105.33"/><path d="M164.75,101.82L166.14,101.64L166.81,101.51L166.74,101.52"/><path d="M166.14,101.64L166.24,101.62"/><path d="M167.15,101.44L166.81,101.51L167.97,101.22L167.42,101.36L167.74,101.28L168.47,100.98L169.12,100.62L169.38,100.27"/><path d="M166.63,98.78L166.55,99.15L166.54,99.41L166.62,98.83L166.87,98.26L167.02,98.03L167.38,97.62L167.05,97.96L166.78,98.39L166.63,98.78"/><path d="M167.38,97.62L167.63,97.41L168.05,97.17L168.41,97.07L167.96,97.24L167.38,97.62"/><path d="M168.41,97.07L169.55,96.76L168.41,97.07"/><path d="M169.33,100.48L169.38,100.44L169.12,100.62L169.15,100.57L169.14,100.60"/><path d="M170.76,96.87L170.52,96.77L170.11,96.69L169.55,96.76L169.98,96.66L170.39,96.70L169.63,96.48L169.91,96.56"/><path d="M170.39,96.70L170.49,96.73"/><path d="M170.11,96.69L170.49,96.84"/><path d="M174.46,143.27L174.41,143.03L174.41,144.47"/><path d="M174.41,143.03L174.41,138.08"/></g><g style="stroke:#000000;stroke-width:0.529"><path d="M53.79,193.73L53.79,192.97L53.79,196.89L53.68,197.48L53.40,198.09L53.09,198.41L52.71,198.63L52.31,198.72L51.88,198.68L51.52,198.54L46.84,195.68L42.62,192.59L38.90,189.29L35.71,185.82L33.08,182.20L31.02,178.46L29.55,174.62L28.68,170.73L28.43,166.81L28.43,155.82L28.79,151.90L29.76,148.02L31.33,144.20L33.49,140.47L36.22,136.87L39.50,133.43L43.31,130.17L47.61,127.11L52.34,124.30L57.54,121.73L63.10,119.44L69.00,117.44L74.24,116.01L75.05,115.57L79.16,113.08L82.05,111.44L84.96,109.88L87.39,108.64L90.39,107.19L93.41,105.82L96.44,104.52L99.47,103.31L102.52,102.16L106.61,100.74"/><path d="M53.59,188.07L53.68,188.14L51.74,186.28L49.55,183.87L47.73,181.50L46.38,179.38L45.06,176.79L44.03,174.15L43.36,171.70L43.14,170.30L43.45,168.59L44.22,166.00L45.31,163.38L46.69,160.80L48.02,158.80L49.98,156.33L52.22,153.95L54.73,151.64L57.49,149.44L60.50,147.34L63.47,145.52L66.21,144.06L69.29,142.64L72.54,141.34L75.94,140.18L79.48,139.17L83.13,138.30L86.89,137.58L90.72,137.02L94.61,136.62L98.55,136.38L102.50,136.30L106.45,136.38L110.38,136.62L114.28,137.02L116.61,137.36L116.61,146.52L116.56,146.43L116.13,146.06L115.56,145.79L114.88,145.61L114.13,145.55L112.51,145.55L111.64,145.63L110.86,145.88L110.26,146.25L109.91,146.72L109.84,147.22L109.84,158.21L110.54,160.78L111.83,163.27L113.69,165.64L116.09,167.85L118.99,169.85L122.33,171.61L124.46,172.46L130.00,178.51L133.27,174.93L134.36,175.15L138.80,175.68L143.33,175.86L147.85,175.69L152.30,175.18L156.58,174.32L160.63,173.15L164.36,171.67L167.72,169.92L170.63,167.93L173.05,165.73L174.94,163.36L176.25,160.87L176.96,158.30L177.07,155.70L177.07,144.72L176.57,142.13L175.48,139.62L174.41,138.08L174.42,100.92L174.21,99.85L173.65,98.87L173.27,98.43L172.29,97.66L171.65,97.27L170.57,96.76L170.19,96.61L168.78,96.11L167.25,95.65L165.72,95.25L167.00,94.48L167.48,94.15L167.90,93.79L168.38,93.12L168.59,92.69L169.95,91.57L172.54,88.82L174.56,85.91L175.97,82.88L176.76,79.79L176.92,76.66L176.92,49.19L176.44,46.07L175.34,43.01L173.62,40.04L171.32,37.20L168.45,34.53L165.06,32.08L163.19,30.94L161.20,29.86L156.92,27.92L152.28,26.28L147.33,24.96L142.15,23.97L136.80,23.34L131.36,23.07L125.91,23.16L120.51,23.61L115.24,24.42L110.16,25.58L105.36,27.06L100.89,28.86L96.81,30.94L93.18,33.28L90.05,35.84L87.46,38.60L85.44,41.51L84.03,44.53L83.24,47.63L83.08,50.76L83.08,78.22L83.56,81.34L84.66,84.41L86.38,87.38L88.68,90.22L91.55,92.88L94.94,95.34L98.80,97.55L103.08,99.49L106.61,100.74"/><path d="M53.79,192.97L53.80,188.40L53.76,188.23L53.51,187.99"/><path d="M174.42,101.03L174.42,100.97"/></g></g><g id="Actor_.1"><g style="stroke:#000000;stroke-width:0.176"><path d="M195.11,103.32L195.41,103.02L195.81,103.06L196.26,103.44L196.71,104.12L197.12,105.02L197.43,106.05L197.63,107.09L197.67,107.84L197.68,108.03L197.58,108.77L197.34,109.23L196.99,109.36L196.56,109.14"/><path d="M195.89,102.12L195.89,102.12L196.37,102.18L196.92,102.64L197.48,103.48L197.98,104.58L198.37,105.84L198.61,107.11L198.67,108.27L198.57,108.97L198.54,109.17L198.25,109.74L197.82,109.90"/></g><g style="stroke:#000000;stroke-width:0.529"><path d="M211.29,106.30L197.82,109.90L197.30,109.63L196.56,109.14L196.11,108.60L195.67,107.80L195.30,106.83L195.04,105.78L194.92,104.78L194.94,103.93L195.11,103.32L195.52,102.49L195.89,102.12"/><path d="M195.89,102.12L209.22,98.58"/></g></g><g id="Actor_.2"><g style="stroke:#000000;stroke-width:0.176"><path d="M195.11,81.35L195.41,81.05L195.81,81.09L196.26,81.47L196.71,82.15L197.12,83.05L197.43,84.08L197.63,85.11L197.68,86.06L197.58,86.80L197.34,87.26L196.99,87.38L196.56,87.17"/><path d="M195.89,80.15L196.37,80.21L196.92,80.67L197.48,81.50L197.98,82.61L198.37,83.87L198.61,85.14L198.67,86.27L198.67,86.29L198.54,87.20L198.25,87.77L197.82,87.92"/></g><g style="stroke:#000000;stroke-width:0.529"><path d="M211.29,84.33L197.82,87.92L197.30,87.66L196.56,87.17L196.11,86.63L195.67,85.83L195.30,84.86L195.04,83.81L194.92,82.81L194.94,81.95L195.11,81.35L195.52,80.52L195.89,80.15L209.22,76.61"/></g></g><g id="Actor_.3"><g style="stroke:#000000;stroke-width:0.176"><path d="M205.70,64.76L213.63,74.52L213.63,118.47"/><path d="M210.07,106.62L210.12,106.68L210.69,106.89L211.14,106.64L211.43,105.95L211.54,104.90L211.43,103.60L211.14,102.19L210.69,100.82L210.13,99.65L209.51,98.80L208.91,98.36L208.40,98.38L208.02,98.85L208.01,98.90"/><path d="M210.07,84.65L210.12,84.71L210.69,84.92L211.14,84.67L211.43,83.98L211.54,82.93L211.44,81.73L211.43,81.63L211.14,80.22L210.69,78.85L210.12,77.68L209.51,76.83L208.91,76.39L208.40,76.40L208.02,76.88L208.01,76.93"/><path d="M213.63,74.52L214.52,74.71L214.52,118.65"/><path d="M214.52,74.71L228.50,70.97"/></g><g style="stroke:#000000;stroke-width:0.529"><path d="M228.50,93.17L228.50,114.91L214.52,118.65L213.63,118.47L205.70,108.71L205.70,107.79"/><path d="M205.70,85.82L205.70,99.52"/><path d="M228.50,92.21L228.50,70.97L220.00,60.51L206.02,64.25L205.70,64.76L205.70,77.54"/></g></g><g><g><path style="stroke:#000000;stroke-width:0.125;stroke-dasharray:2.1 1.4 0.7 1.4" d="M151.41,118.20L196.30,106.19"/></g></g><g><g><path style="stroke:#000000;stroke-width:0.125;stroke-dasharray:2.1 1.4 0.7 1.4" d="M151.41,96.23L196.30,84.22"/></g></g><g><g><path style="stroke:#000000;stroke-width:0.125" d="M253.21,93.01L222.13,92.61"/></g><g><path style="fill:#000000" d="M222.88,92.61L222.88,92.54L222.87,92.46L222.85,92.39L222.82,92.32L222.79,92.26L222.75,92.19L222.71,92.13L222.66,92.08L222.61,92.03L222.55,91.99L222.48,91.95L222.42,91.92L222.35,91.89L222.28,91.87L222.20,91.86L222.13,91.86L222.06,91.86L221.98,91.87L221.91,91.89L221.84,91.92L221.78,91.95L221.71,91.99L221.65,92.03L221.60,92.08L221.55,92.13L221.51,92.19L221.47,92.26L221.44,92.32L221.41,92.39L221.39,92.46L221.38,92.54L221.38,92.61L221.38,92.68L221.39,92.76L221.41,92.83L221.44,92.90L221.47,92.96L221.51,93.03L221.55,93.09L221.60,93.14L221.65,93.19L221.71,93.23L221.78,93.27L221.84,93.30L221.91,93.33L221.98,93.35L222.06,93.36L222.13,93.36L222.20,93.36L222.28,93.35L222.35,93.33L222.42,93.30L222.48,93.27L222.55,93.23L222.61,93.19L222.66,93.14L222.71,93.09L222.75,93.03L222.79,92.96L222.82,92.90L222.85,92.83L222.87,92.76L222.88,92.68z"/></g><g><text xml:space="preserve" fill="#000000" stroke-width="0" x="253.99" y="95.44" font-size="3.77" opacity="1.00" font-family="Arial">KIT0094</text></g></g><g/><g><g/><g><text xml:space="preserve" fill="#000000" stroke-width="0" x="7.35" y="11.21" font-size="4.53" opacity="1.00" font-family="Arial" font-weight="bold">BPA3951</text></g></g><g id="paperID" visibility="hidden" opacity="0.00" transform="scale(0.000100)"><path style="stroke:#000000;stroke-width:0.500;fill:#e6e6e6;fill-rule:evenodd" d="M-2000.00,-2000.00L2297.00,-2000.00L2297.00,2210.00L-2000.00,2210.00zM0.00,0.00L297.00,0.00L297.00,210.00L0.00,210.00z"/><path style="fill:#000000;fill-opacity:0.118" d="M3.00,210.00L297.00,210.00L297.00,3.00L300.00,3.00L300.00,213.00L3.00,213.00z"/></g><g id="hotspot.0" onmouseover="ShowHotSpot(evt,'0')" onmouseout="HideHotSpot(evt,'0')" onmousemove="ShowToolTip(evt,'0',&quot;Hotspot 1&quot;)" opacity="0"><path style="fill:#00ff00;fill-rule:evenodd" d="M228.45,70.85L228.55,92.69L231.44,92.82L231.51,92.92L228.55,92.98L228.44,114.81L228.23,114.95L214.94,118.47L213.91,118.48L212.88,117.57L205.77,108.75L205.61,107.83L205.21,107.83L202.41,108.60L197.64,109.82L196.24,108.72L195.69,107.85L195.16,106.26L194.99,105.20L194.99,103.83L195.34,102.77L195.81,102.18L198.12,101.48L205.39,99.55L205.61,99.41L205.61,85.88L205.21,85.89L198.48,87.68L197.46,87.68L196.42,86.95L195.69,85.91L194.99,83.25L194.98,81.70L195.71,80.30L195.99,80.06L205.40,77.61L205.61,77.46L205.79,64.55L206.25,64.13L219.54,60.59L220.11,60.59zM266.16,92.97L266.37,94.34L266.15,94.99L265.73,95.46L264.89,95.47L264.55,95.28L264.49,94.74L264.87,94.75L265.05,94.98L265.55,94.94L265.82,94.42L264.73,94.40L264.55,94.22L264.55,92.86L264.84,92.62L265.62,92.62zM263.83,92.82L264.03,93.15L264.03,95.00L263.60,95.46L262.76,95.48L262.41,95.13L262.19,93.70L262.51,92.77L262.71,92.62L263.50,92.62zM261.71,92.82L261.91,93.15L261.91,95.00L261.48,95.46L260.64,95.47L260.31,95.28L260.11,94.76L260.11,93.38L260.48,92.69L261.38,92.62zM257.74,93.04L257.75,92.64L259.97,92.64L259.97,93.04L259.17,93.15L259.06,95.54L258.66,95.54L258.54,93.15zM236.11,93.10L231.59,93.03L231.51,92.92L236.04,93.00zM240.89,93.28L236.19,93.20L236.11,93.10L240.82,93.18zM245.49,93.45L240.97,93.38L240.89,93.28L245.42,93.35zM250.27,93.63L245.57,93.56L245.49,93.45L250.20,93.53zM254.82,93.77L256.00,92.60L256.42,92.62L256.44,92.85L255.70,93.58L255.70,94.21L256.62,95.29L256.60,95.52L256.00,95.52L255.18,94.37L254.82,94.44L254.63,95.54L254.23,95.54L254.23,92.61L254.63,92.61zM250.35,93.73L250.27,93.63L253.24,93.69zM268.04,94.27L268.45,94.42L268.45,94.79L268.04,94.94L267.89,95.55L267.70,95.55L267.56,94.92L266.43,94.82L266.37,94.34L267.68,92.59L267.91,92.61zM257.29,95.54L256.89,95.54L256.89,92.61L257.29,92.61zM261.22,93.11L261.52,94.03L261.31,94.94L260.79,95.00L260.63,94.78L260.64,93.38L261.02,92.97zM265.81,93.75L265.54,94.06L265.09,94.06L264.89,93.86L264.87,93.38L265.03,93.16L265.61,93.16zM263.55,93.28L263.67,94.47L263.42,94.93L262.91,95.00L262.76,94.78L262.75,93.37L262.90,93.16L263.48,93.16zM267.55,94.30L267.14,94.29L267.20,93.95L267.57,93.51z"/></g></g></svg>
