<?xml version="1.0" encoding="UTF-8" standalone="no"?>
<svg xmlns="http://www.w3.org/2000/svg" xmlns:xlink="http://www.w3.org/1999/xlink" width="297.000mm" height="210.000mm" viewBox="0.000000 0.000000 297.000000 210.000000" stroke-linejoin="round" stroke-linecap="round" fill="none" fill-rule="evenodd"><desc>Composer Export</desc><script type="text/ecmascript"><![CDATA[
if(typeof(top) != "undefined")
{
	top.ShowPaper = ShowPaper;
}
function ShowPaper()
{
  var svgDocument = getDocument();
  var paper = svgDocument.getElementById("paperID");
  if(paper)
  {
    paper.setAttribute("transform","scale(1)");
    paper.setAttribute("opacity","1");
    paper.setAttribute("visibility","visible");
  }
  var svg = svgDocument.getRootElement();
  if(svg)
  {
    svg.setAttribute("width","307.000mm");
    svg.setAttribute("height","220.000mm");
    svg.setAttribute("viewBox","-5.000000 -5.000000 307.000000 220.000000");
  }
}
]]></script><defs/><g><path style="fill:#000000;fill-opacity:0.098;fill-rule:evenodd" d="M28.62,20.51L29.28,20.97L30.40,21.95L31.52,23.41L32.32,25.34L32.80,28.08L32.80,30.22L32.32,33.45L31.35,36.67L30.07,39.57L28.29,42.62L26.36,45.20L23.88,47.71L21.30,49.64L19.70,50.47L17.62,51.28L15.35,51.61L13.46,51.44L11.72,50.77L10.43,49.81L9.44,48.70L8.80,47.57L8.63,47.09L8.64,42.63L9.07,39.84L10.20,35.97L11.70,32.64L13.17,30.08L14.86,27.75L17.19,25.09L19.38,23.25L21.85,21.69L24.22,20.67L25.50,20.35L27.97,20.35zM156.99,66.89L159.40,67.70L161.33,68.83L162.80,69.93L164.24,71.39L165.84,73.50L167.45,76.72L168.25,79.14L168.74,81.23L169.22,85.10L169.22,90.95L168.58,96.10L167.93,99.15L166.81,103.35L165.35,107.37L163.69,111.19L161.98,114.62L160.04,118.00L158.43,120.58L155.53,124.61L153.12,127.51L150.39,130.42L147.25,133.24L144.83,135.17L142.16,137.01L138.71,139.03L135.51,140.50L132.49,141.51L129.39,142.11L126.80,142.28L123.64,141.96L121.70,141.48L117.52,139.38L37.01,93.13L35.23,91.85L33.46,90.08L32.16,88.32L30.54,85.10L30.16,83.81L111.56,130.54L111.89,130.57L111.24,127.78L110.76,124.07L110.76,118.17L111.07,115.26L111.19,114.72L112.37,114.78L112.54,114.47L113.32,110.26L114.90,104.91L116.88,99.81L119.61,94.33L121.32,91.36L123.01,88.71L125.51,85.25L127.76,82.50L130.74,79.20L131.79,78.32L133.25,76.88L135.09,75.33L138.94,72.58L142.43,70.60L144.85,69.47L147.95,68.41L147.63,67.71L147.58,67.23L149.36,66.74L150.81,66.57L155.21,66.58zM268.60,153.22L268.61,153.92L204.19,116.97L203.52,116.33L203.47,116.02L203.67,115.99zM268.62,172.38L268.60,172.94L268.28,172.90L204.03,135.98L203.51,135.34L203.52,135.02zM232.84,173.85L232.87,174.05L232.69,174.37L212.24,162.71L168.27,137.43L167.58,136.62L167.57,136.45L167.75,136.45zM285.21,149.02L285.83,150.16L286.15,151.29L286.15,153.12L285.83,154.73L285.19,156.34L283.90,158.59L281.99,160.55L280.15,161.60L278.85,161.93L278.27,161.93L277.29,161.77L275.38,160.78L269.90,157.56L269.07,156.62L269.08,156.11L275.38,159.72L275.83,157.13L276.76,154.51L278.19,152.08L279.65,150.47L280.86,149.43L282.40,148.56L283.36,148.23L284.23,148.22zM232.87,193.00L232.80,193.34L232.36,193.35L168.11,156.43L167.77,156.12L167.72,155.63L167.92,155.61zM284.87,167.72L285.51,168.52L286.15,170.30L286.15,172.28L285.99,173.09L285.19,175.50L284.06,177.44L282.95,178.74L281.74,179.78L280.30,180.60L279.34,180.93L277.45,180.94L275.52,179.96L269.74,176.57L269.06,175.61L269.03,175.28L269.23,175.27L274.72,178.51L275.36,178.74L276.00,175.66L276.81,173.57L278.03,171.41L279.48,169.64L281.27,168.21L283.03,167.39L283.92,167.25zM248.63,168.85L249.45,169.63L250.07,170.78L250.41,172.56L250.24,174.38L249.59,176.47L248.46,178.56L246.79,180.60L244.87,181.89L243.43,182.38L241.69,182.39L239.44,181.25L234.14,178.18L233.32,177.23L233.09,176.58L236.40,178.49L239.45,180.16L239.62,179.87L240.08,177.43L241.22,174.54L242.44,172.54L243.89,170.93L245.04,169.98L247.17,168.89L248.30,168.67zM248.95,188.18L249.61,188.97L250.07,189.95L250.41,191.73L250.24,193.38L249.75,195.15L248.89,196.87L247.93,198.32L247.03,199.36L245.82,200.40L244.39,201.23L243.10,201.54L242.18,201.54L241.37,201.39L233.98,197.19L233.33,196.38L233.26,195.90L233.48,195.88L239.45,199.34L239.62,199.04L240.24,195.95L241.30,193.47L242.68,191.30L244.07,189.79L245.67,188.66L247.60,187.85L248.47,187.85zM27.48,22.45L28.62,23.24L29.26,24.05L30.39,26.15L31.19,28.08L31.51,29.85L31.51,32.32L31.03,35.06L30.23,37.47L28.78,40.54L27.00,43.27L25.25,45.38L23.55,46.91L21.80,48.22L19.55,49.34L17.77,49.82L15.57,49.82L14.28,49.50L13.17,49.00L11.86,48.06L11.06,47.09L10.24,45.16L9.87,42.10L10.25,39.08L11.01,36.14L12.35,32.96L14.05,30.00L16.23,27.18L18.26,25.18L20.51,23.57L22.44,22.60L24.05,22.12L26.36,22.12zM151.82,76.40L151.99,77.04L151.99,78.06L151.50,79.83L150.65,81.23L149.51,82.51L148.40,83.17L147.42,83.33L146.68,83.15L146.04,82.51L145.86,82.05L145.87,80.15L146.02,79.34L146.95,77.53L147.97,76.30L149.36,75.43L149.92,75.28zM163.43,79.30L164.24,79.93L164.39,81.23L164.23,83.38L163.91,84.66L163.37,85.90L162.46,87.73L161.33,89.33L159.90,90.81L157.89,92.02L156.93,92.35L154.88,92.35L153.75,91.54L153.11,90.58L152.79,89.28L152.79,87.24L153.27,84.98L154.17,82.98L155.23,81.30L156.51,79.68L158.54,78.17L160.00,77.51L160.36,77.51zM135.40,85.90L135.57,86.88L135.40,88.21L135.19,88.81L134.43,90.30L133.63,91.43L132.92,92.01L131.81,92.67L130.39,92.68L129.61,92.01L129.43,91.55L129.44,89.33L130.03,87.67L130.91,86.45L131.64,85.58L132.98,84.81L133.47,84.75zM149.24,96.70L149.57,98.14L149.57,101.09L149.25,102.86L148.76,104.63L147.64,107.37L146.51,109.31L145.39,110.92L144.27,112.22L142.18,114.15L141.03,114.94L138.90,116.03L137.28,116.34L136.20,116.34L135.23,116.19L134.28,115.85L133.16,114.88L132.34,113.61L132.01,112.81L131.70,111.03L131.69,108.66L132.17,106.08L132.98,103.67L134.43,100.77L136.14,98.29L137.99,96.28L139.61,94.99L140.98,94.11L141.95,93.63L143.29,93.29zM163.77,98.60L164.24,99.09L164.39,101.09L164.06,103.02L163.42,104.96L162.29,107.05L161.01,108.83L159.00,110.52L157.42,111.36L156.61,111.51L155.37,111.51L154.40,111.19L153.61,110.53L152.95,109.26L152.79,108.45L152.79,106.25L153.27,103.98L154.84,100.88L156.43,98.93L157.72,97.80L159.35,96.85L159.83,96.68L160.37,96.68zM128.30,100.25L128.48,100.72L128.47,103.67L128.15,104.96L127.35,107.05L126.70,108.18L125.57,109.79L123.98,111.42L121.98,112.64L120.69,112.96L119.61,112.96L118.65,112.63L118.32,112.49L117.52,111.51L117.03,110.39L117.03,107.21L117.68,104.96L118.92,102.49L120.27,100.79L121.66,99.43L122.79,98.63L123.90,98.13L124.62,98.13zM151.68,117.78L151.99,118.43L151.99,119.61L151.83,120.42L151.02,122.19L150.22,123.32L149.34,124.06L148.24,124.73L146.99,124.73L146.36,124.39L145.86,123.44L145.86,121.54L146.35,120.10L147.33,118.50L148.60,117.36L149.52,116.81L149.89,116.81zM128.16,119.23L128.48,119.88L128.47,122.84L127.67,125.41L126.54,127.50L125.52,128.90L124.62,129.94L123.25,130.98L122.14,131.64L121.18,131.97L118.98,131.96L117.86,131.15L117.35,130.36L117.03,129.40L117.03,126.21L117.63,124.24L118.25,122.76L119.31,121.08L120.60,119.47L121.80,118.42L123.75,117.31L124.45,117.13zM135.42,127.44L135.57,128.27L135.40,129.61L134.70,131.32L134.06,132.29L133.16,133.32L132.28,133.90L131.33,134.22L130.56,134.23L129.93,133.89L129.61,133.57L129.43,133.10L129.44,130.72L129.76,129.76L130.98,127.76L132.29,126.65L132.92,126.32L133.63,126.32zM284.71,152.75L284.71,153.28L283.38,157.43L279.97,159.82L279.39,159.83L278.44,158.69L277.78,158.05L277.77,157.13L278.04,156.60L279.65,155.47L280.96,151.79L281.75,151.27L282.13,151.27zM284.73,171.90L284.71,172.44L283.26,176.64L279.82,179.02L279.56,179.00L278.26,177.55L277.57,176.73L277.90,175.79L279.72,174.54L281.01,170.84L281.99,170.30zM248.95,173.37L248.97,173.72L247.51,178.09L244.05,180.44L243.65,180.45L243.00,179.63L241.86,178.33L241.84,177.92L242.14,177.24L243.92,175.95L245.17,172.37L246.00,171.73L246.21,171.73zM248.97,192.51L247.48,197.23L244.21,199.44L243.64,199.45L241.86,197.50L241.84,197.09L242.36,196.13L243.80,195.16L245.16,191.37L245.84,190.90L246.21,190.90z"/><g id="Actor_.0"><g style="stroke:#000000;stroke-width:0.176"><path d="M203.14,133.47L203.35,132.18L203.83,130.85L204.55,129.59L205.45,128.50L206.45,127.66"/><path d="M273.67,164.19L272.93,164.68L271.73,165.82L270.66,167.19L269.76,168.73L269.09,170.34L268.69,171.96L268.60,173.03"/><path d="M277.90,175.78L277.56,176.81L279.64,179.11L283.29,176.68L279.67,174.60L277.90,175.78L278.77,175.04L279.59,174.02L280.22,172.85L280.46,172.24L279.67,174.60"/><path d="M277.91,175.77L278.70,173.38L279.59,174.02"/><path d="M278.70,173.38L279.13,172.08L279.27,171.99L280.46,172.24L280.91,170.90L281.89,170.24L284.86,171.95L283.29,176.68"/><path d="M280.46,172.24L280.63,171.63L280.70,171.03L279.27,171.99"/><path d="M280.91,170.90L280.70,171.03"/><path d="M281.89,170.24L282.78,169.65L284.86,171.95"/></g><g style="stroke:#000000;stroke-width:0.529"><path d="M203.41,135.08L203.59,135.51L204.21,136.10L268.60,173.03L268.57,173.48L268.74,174.82L269.20,175.92L269.91,176.71L276.81,180.68L277.75,181.00L278.53,181.04L278.78,181.03L279.60,180.89L280.46,180.56L281.48,179.98L282.31,179.34L283.12,178.57L283.86,177.67L284.53,176.69L285.10,175.64L285.57,174.56L285.62,174.39L285.91,173.47L286.12,172.40L286.19,171.38L286.19,171.20L286.12,170.23L285.91,169.37L285.45,168.42L284.97,167.83L284.77,167.66L284.17,167.24L277.62,163.49L276.59,163.23L275.43,163.35L274.18,163.84L273.67,164.19L209.28,127.23L208.45,127.00L207.48,127.14L206.45,127.66L206.00,127.92L205.13,128.65L204.36,129.59L203.74,130.68L203.32,131.82L203.14,132.93L203.14,133.47L203.22,134.61L203.41,135.08"/></g></g><g id="Actor_.1"><g style="stroke:#000000;stroke-width:0.176"><path d="M9.95,40.95L9.96,40.88"/><path d="M10.83,46.70L10.93,46.94"/><path d="M12.05,48.29L11.97,48.20"/><path d="M13.40,49.07L13.46,49.11"/><path d="M16.23,49.30L16.02,49.32"/><path d="M19.37,24.31L19.39,24.29"/><path d="M20.64,47.39L20.59,47.43"/><path d="M25.08,21.98L24.87,22.01"/><path d="M26.76,22.19L26.84,22.20"/><path d="M28.26,22.95L28.28,22.96"/><path d="M30.56,29.86L30.56,29.89"/><path d="M29.82,25.04L29.90,25.18"/></g><g style="stroke:#000000;stroke-width:0.529"><path d="M14.46,51.56L13.67,51.48L12.59,51.17L11.59,50.69L11.33,50.53L10.44,49.86L9.68,49.02L9.50,48.78L8.86,47.79L8.36,46.64L7.99,45.35L7.94,45.10L7.73,43.72L7.65,42.23L7.73,40.66L7.94,39.02L8.30,37.34L8.80,35.64L9.43,33.93L10.18,32.24L11.05,30.59L12.02,28.99L13.09,27.47L14.23,26.05L15.45,24.74L16.71,23.56L18.00,22.52L19.32,21.64L20.64,20.93L21.95,20.38L22.19,20.30L23.49,19.94L24.74,19.76L25.94,19.78L26.23,19.81L27.36,20.02L28.40,20.41L28.66,20.56L29.60,21.15L30.43,21.90L31.31,23.06L31.89,24.14L32.32,25.36L32.66,26.94L32.81,28.38L32.81,29.91L32.66,31.52L32.37,33.18L31.94,34.87L31.84,35.19L31.38,36.58L30.69,38.28L29.87,39.96L28.95,41.59L27.93,43.14L26.83,44.62L25.65,45.99L24.41,47.23L23.13,48.34L21.82,49.30L20.50,50.10L19.18,50.73L17.63,51.27L16.35,51.54L15.42,51.60"/><path d="M10.24,45.05L10.16,44.77L9.96,43.52L9.90,42.18L9.96,40.88L10.15,39.44L10.48,37.90L10.94,36.33L11.52,34.77L12.21,33.21L13.01,31.69L13.90,30.23L14.88,28.83L15.93,27.53L17.04,26.32L18.20,25.24L19.37,24.31L20.43,23.59L21.62,22.95L22.81,22.46L23.96,22.14L24.87,22.01L25.85,22.02L26.76,22.19L27.46,22.45L28.26,22.95L28.78,23.42L29.40,24.23L29.82,25.04L30.17,26.01L30.43,27.21L30.56,28.51L30.56,29.86L30.44,31.17L30.18,32.69L29.79,34.25L29.27,35.82L28.63,37.38L27.88,38.92L27.04,40.41L26.10,41.85L25.08,43.20L24.00,44.46L22.86,45.60L21.69,46.62L20.59,47.43L19.45,48.12L18.26,48.68L17.09,49.09L16.02,49.32L15.15,49.37L14.13,49.28L13.40,49.07L12.60,48.68L11.97,48.20L11.38,47.56L10.83,46.70L10.49,45.91L10.24,45.05"/></g></g><g id="Actor_.2"><g style="stroke:#000000;stroke-width:0.176"><path d="M168.40,156.64L168.41,156.65"/><path d="M167.32,154.01L167.54,152.72L168.02,151.39L168.74,150.13L169.64,149.04L170.64,148.20"/><path d="M237.86,184.73L237.12,185.22L235.92,186.36L234.84,187.73L233.95,189.27L233.28,190.88L232.87,192.50L232.79,193.58"/><path d="M241.75,197.35L242.09,196.32L243.86,195.15L247.47,197.22L243.83,199.65L241.75,197.35"/><path d="M243.86,195.15L244.65,192.78L244.41,193.39L243.77,194.56L242.89,193.92L242.09,196.32"/><path d="M242.10,196.31L242.96,195.58L243.77,194.56"/><path d="M242.89,193.92L243.32,192.62L244.89,191.58L244.82,192.17L244.65,192.78L243.45,192.53"/><path d="M244.66,192.76L245.09,191.44L246.97,190.19L249.05,192.49L247.47,197.22"/><path d="M245.09,191.44L244.89,191.58"/><path d="M246.08,190.78L249.05,192.49"/></g><g style="stroke:#000000;stroke-width:0.529"><path d="M204.99,177.63L168.40,156.64L167.77,156.05L167.41,155.15L167.32,154.01L167.32,153.48L167.51,152.37L167.92,151.22L168.55,150.13L169.32,149.19L170.18,148.46L170.64,148.20L171.67,147.68L172.64,147.54L173.46,147.77L237.86,184.73L238.37,184.39L239.61,183.89L240.78,183.77L241.81,184.03L248.36,187.79L248.96,188.20L249.16,188.37L249.64,188.96L250.10,189.91L250.31,190.77L250.38,191.74L250.38,191.92L250.31,192.94L250.10,194.01L249.76,195.10L249.29,196.18L248.72,197.23L248.05,198.22L247.30,199.11L246.50,199.88L245.67,200.52L244.66,201.10L243.79,201.43L242.97,201.57L242.72,201.58L241.94,201.54L240.99,201.22L234.10,197.25L233.38,196.46L232.93,195.36L232.75,194.02L232.79,193.58L206.15,178.30"/></g></g><g id="Actor_.3"><g style="stroke:#000000;stroke-width:0.176"><path d="M168.40,137.55L168.41,137.55"/><path d="M167.32,134.91L167.54,133.63L168.02,132.30L168.74,131.04L169.64,129.94L170.64,129.10"/><path d="M237.86,165.63L237.12,166.13L235.92,167.26L234.84,168.63L233.95,170.17L233.28,171.79L232.87,173.40L232.79,174.48"/><path d="M241.75,178.25L243.83,180.55L247.47,178.12L243.86,176.05L242.09,177.23L241.75,178.25"/><path d="M242.09,177.23L242.96,176.49L243.77,175.47L244.41,174.30L244.65,173.69L243.86,176.05"/><path d="M243.77,175.47L242.89,174.83L242.10,177.22"/><path d="M242.89,174.83L243.32,173.52L244.89,172.48L244.82,173.08L244.65,173.69L243.45,173.44"/><path d="M244.66,173.66L245.09,172.34L244.89,172.48"/><path d="M245.09,172.34L246.97,171.09L249.05,173.39L247.47,178.12"/><path d="M246.08,171.69L249.05,173.39"/></g><g style="stroke:#000000;stroke-width:0.529"><path d="M168.41,137.56L167.77,136.96L167.41,136.05L167.32,134.91L167.32,134.38L167.51,133.27L167.92,132.12L168.55,131.04L169.32,130.09L170.18,129.37L170.64,129.10L171.67,128.59L172.64,128.44L173.46,128.67L237.86,165.63L238.37,165.29L239.61,164.80L240.78,164.68L241.81,164.94L248.36,168.69L248.96,169.11L249.16,169.28L249.64,169.86L250.10,170.81L250.31,171.67L250.38,172.64L250.38,172.82L250.31,173.84L250.10,174.91L249.77,175.95L249.29,177.09L248.72,178.14L248.05,179.12L247.30,180.01L246.50,180.79L245.67,181.42L244.66,182.00L243.79,182.33L242.97,182.47L242.72,182.49L241.94,182.44L240.99,182.13L234.10,178.15L233.38,177.36L232.93,176.27L232.75,174.92L232.79,174.48L168.41,137.56"/></g></g><g id="Actor_.4"><g style="stroke:#000000;stroke-width:0.176"><path d="M206.45,108.56L205.45,109.40L204.55,110.49L203.83,111.76L203.35,113.09L203.14,114.37"/><path d="M273.67,145.09L272.93,145.59L271.73,146.72L270.66,148.09L269.76,149.63L269.09,151.25L268.69,152.86L268.60,153.94"/><path d="M277.66,157.81L277.56,157.71L278.70,154.29L279.59,154.93L280.22,153.76L280.43,153.24L279.68,155.51L283.29,157.58L279.64,160.01L277.66,157.81"/><path d="M277.90,156.69L279.68,155.51"/><path d="M277.91,156.68L278.77,155.95L279.59,154.93"/><path d="M280.43,153.24L280.46,153.14L279.27,152.89L279.13,152.98L278.70,154.29"/><path d="M279.27,152.89L280.70,151.94L280.63,152.54L280.46,153.14L280.91,151.80L280.70,151.94"/><path d="M280.91,151.80L282.78,150.55L284.86,152.85L283.29,157.58"/><path d="M281.89,151.15L284.86,152.85"/></g><g style="stroke:#000000;stroke-width:0.529"><path d="M203.59,116.42L203.22,115.51L203.14,114.37L203.14,113.84L203.32,112.73L203.69,111.71L203.74,111.58L204.36,110.50L205.13,109.55L206.00,108.83L206.45,108.56L207.48,108.05L208.45,107.90L209.28,108.13L273.67,145.09L274.18,144.75L275.43,144.26L276.59,144.14L277.62,144.40L284.17,148.15L284.77,148.57L284.97,148.74L285.45,149.32L285.91,150.27L286.12,151.13L286.19,152.11L286.19,152.28L286.12,153.30L285.91,154.38L285.57,155.46L285.10,156.55L284.53,157.60L283.86,158.58L283.12,159.47L282.31,160.25L281.48,160.88L280.46,161.47L279.60,161.79L278.78,161.93L278.53,161.95L277.75,161.90L276.81,161.59L269.91,157.61L269.20,156.82L268.74,155.72L268.57,154.38L268.60,153.94L204.21,117.01L203.59,116.42"/></g></g><g id="Actor_.5"><g style="stroke:#000000;stroke-width:0.176"><path d="M37.50,93.44L37.55,93.46"/><path d="M161.48,68.88L159.38,67.71L157.09,66.91L154.64,66.48L152.03,66.43L149.31,66.76L146.49,67.45L143.61,68.52L140.69,69.94L137.77,71.70L134.86,73.79L132.00,76.19L129.24,78.85L126.57,81.77L124.03,84.92L121.66,88.26L119.46,91.76L117.47,95.39L115.71,99.11L114.18,102.88L112.91,106.66L111.91,110.42L111.19,114.12L110.75,117.72L110.61,121.19L110.75,124.49L111.19,127.59L111.91,130.46L112.91,133.08L114.18,135.40L115.71,137.42L117.47,139.11L119.46,140.45"/><path d="M141.35,137.54L138.49,139.10L135.66,140.31L132.87,141.17L130.16,141.67L127.55,141.81L125.08,141.57L122.76,140.97L120.61,140.01L118.67,138.69L116.94,137.05L115.45,135.07L114.22,132.81L113.23,130.25L112.53,127.44L112.10,124.42L111.96,121.19L112.10,117.80L112.53,114.28L113.23,110.67L114.21,106.99L115.45,103.30L116.94,99.62L118.67,95.99L120.61,92.44L122.76,89.02L125.08,85.76L127.55,82.68L130.16,79.83L132.87,77.22L135.66,74.88L138.49,72.84L141.35,71.12L144.20,69.73L147.02,68.69L149.77,68.01L152.43,67.70L154.97,67.75L157.38,68.17L159.61,68.95L161.66,70.09L163.43,71.51L165.11,73.38L166.47,75.51L167.58,77.92L168.43,80.60L168.99,83.53L169.28,86.66L169.31,88.29"/><path d="M117.03,129.42L116.86,127.93L117.01,126.33L117.44,124.64L118.14,122.95L119.07,121.34L120.18,119.89L121.42,118.68L122.73,117.76L124.03,117.18L125.28,116.97L126.39,117.14L127.32,117.69L128.02,118.57L128.45,119.76L128.60,121.19L128.45,122.79L128.02,124.48L127.32,126.17L126.39,127.78L125.28,129.23L124.03,130.44L122.73,131.36L121.42,131.94L120.18,132.15L119.07,131.98L118.13,131.42L117.44,130.54L117.03,129.42"/><path d="M117.03,110.32L116.86,108.83L117.01,107.23L117.44,105.55L118.14,103.86L119.07,102.25L120.18,100.80L121.42,99.58L122.73,98.66L124.03,98.08L125.28,97.87L126.39,98.05L127.32,98.59L128.02,99.48L128.45,100.67L128.60,102.10L128.45,103.69L128.02,105.38L127.32,107.07L126.39,108.68L125.28,110.13L124.03,111.35L122.73,112.26L121.42,112.84L120.18,113.05L119.07,112.88L118.14,112.34L117.44,111.45L117.03,110.32"/><path d="M129.55,133.43L130.08,134.03L130.81,134.29L131.69,134.18L132.63,133.73L133.55,132.96L134.28,132.06L134.37,131.94L135.01,130.78L135.41,129.56L135.56,128.40L135.42,127.40L135.01,126.65L134.37,126.22L133.55,126.14L132.63,126.42L131.69,127.04L130.81,127.95L130.08,129.05L129.55,130.26L129.27,131.46L129.27,131.68L129.27,132.55L129.55,133.43"/><path d="M129.55,91.95L129.27,91.06L129.27,89.97L129.55,88.77L130.08,87.56L130.81,86.46L131.69,85.56L132.63,84.94L133.55,84.65L134.37,84.73L135.01,85.16L135.42,85.91L135.56,86.91L135.41,88.08L135.01,89.29L134.37,90.46L133.55,91.47L132.63,92.24L131.69,92.70L130.81,92.80L130.08,92.54L129.55,91.95"/><path d="M131.93,112.52L132.50,113.95L133.33,115.08L134.40,115.88L135.66,116.33L137.09,116.40L138.63,116.09L140.23,115.43L141.85,114.41L143.43,113.09L144.92,111.50L146.27,109.69L147.44,107.72L148.39,105.66L149.09,103.57L149.52,101.51L149.67,99.56L149.52,97.78L149.09,96.21L148.39,94.93L147.44,93.96L146.27,93.33L144.92,93.07L143.43,93.19L141.85,93.68L140.23,94.52L138.63,95.69L137.09,97.16L135.66,98.86L134.40,100.76L133.33,102.78L132.50,104.87L131.93,106.95L131.64,108.97L131.64,110.84L131.93,112.52"/><path d="M146.79,124.66L146.56,124.58L146.03,123.98L145.75,123.10L145.75,122.00L146.03,120.80L146.56,119.59L147.30,118.49L148.17,117.59L149.11,116.97L150.03,116.69L150.85,116.76L151.49,117.20L151.90,117.94L152.04,118.94L151.90,120.10L151.49,121.32L150.85,122.49L150.03,123.50L149.11,124.27L148.17,124.73L147.30,124.83L146.79,124.66"/><path d="M146.79,83.17L146.56,83.09L146.03,82.49L145.75,81.61L145.75,80.52L146.00,79.46L146.03,79.32L146.56,78.11L147.30,77.01L148.25,76.05L149.11,75.48L150.03,75.20L150.85,75.28L151.49,75.71L151.90,76.46L152.04,77.46L151.90,78.62L151.49,79.84L150.85,81.00L150.03,82.02L149.11,82.79L148.17,83.24L147.30,83.35L146.79,83.17"/><path d="M153.34,110.11L153.94,110.88L154.88,111.43L156.00,111.61L157.24,111.40L158.54,110.82L159.85,109.90L161.09,108.68L162.20,107.24L163.13,105.63L163.83,103.94L164.27,102.25L164.41,100.65L164.27,99.22L163.83,98.03L163.13,97.14L162.18,96.60L161.09,96.43L159.85,96.64L158.54,97.22L157.24,98.14L156.00,99.35L154.88,100.80L153.95,102.41L153.25,104.10L152.82,105.79L152.67,107.38L152.82,108.81L153.25,110.00L153.34,110.11"/><path d="M153.30,90.96L153.95,91.80L154.88,92.34L156.00,92.51L157.24,92.30L158.54,91.72L159.84,90.81L161.09,89.59L162.20,88.14L163.13,86.53L163.83,84.84L164.27,83.15L164.41,81.56L164.27,80.13L163.83,78.94L163.13,78.05L162.20,77.51L161.09,77.33L159.80,77.56L158.54,78.12L157.24,79.04L156.00,80.26L154.88,81.70L153.95,83.31L153.25,85.01L152.82,86.69L152.67,88.29L152.82,89.72L153.25,90.91L153.30,90.96"/><path d="M169.31,87.52L169.31,87.84"/></g><g style="stroke:#000000;stroke-width:0.529"><path d="M29.51,81.73L29.94,83.45L30.95,86.06L32.21,88.39L33.74,90.41L35.51,92.10L37.50,93.44L119.46,140.45L121.66,141.44L124.03,142.05L126.57,142.29L129.24,142.16L132.00,141.65L134.86,140.76L137.77,139.52L140.69,137.93L141.35,137.54L144.20,135.66L147.02,133.47L149.77,130.99L150.85,129.88L152.42,128.27L154.97,125.29L157.38,122.11L159.61,118.76L161.66,115.28L163.50,111.69L165.11,108.03L166.47,104.33L167.58,100.65L168.41,97.05L168.99,93.43L169.28,89.97L169.31,87.51L169.28,85.84L168.99,82.64L168.41,79.64L167.54,76.90L166.41,74.43L165.01,72.25L163.36,70.40L161.48,68.88L79.51,21.87L77.38,20.69L75.13,19.90L72.67,19.47L70.07,19.42L67.34,19.74L64.53,20.44L61.64,21.50L58.73,22.92L55.80,24.69L52.90,26.77L50.04,29.16L47.27,31.84L44.60,34.76L42.07,37.91L39.69,41.25L37.50,44.75L35.51,48.38L33.74,52.09L32.21,55.86L30.95,59.65L29.94,63.40L29.22,67.10L28.79,70.71L28.64,74.17L28.79,77.48L29.23,80.59L29.51,81.73"/></g></g><g><g><path style="stroke:#000000;stroke-width:0.125;stroke-dasharray:1.9 1.3 0.6 1.3" d="M37.15,45.39L20.23,35.69"/></g></g><g><g><path style="stroke:#000000;stroke-width:0.125;stroke-dasharray:1.9 1.3 0.6 1.3" d="M154.40,101.64L204.05,130.12"/></g></g><g><g><path style="stroke:#000000;stroke-width:0.125;stroke-dasharray:1.9 1.3 0.6 1.3" d="M204.05,111.03L154.40,82.54"/></g></g><g><g><path style="stroke:#000000;stroke-width:0.125;stroke-dasharray:1.9 1.3 0.6 1.3" d="M168.24,150.66L118.59,122.18"/></g></g><g><g><path style="stroke:#000000;stroke-width:0.125;stroke-dasharray:1.9 1.3 0.6 1.3" d="M168.24,131.57L118.59,103.09"/></g></g><g id="PMI.0"><g><path style="stroke:#000000;stroke-width:0.125" d="M18.48,124.21L14.88,50.22"/></g><g><path style="fill:#000000" d="M15.63,50.22L15.62,50.14L15.61,50.07L15.60,50.00L15.57,49.93L15.54,49.86L15.50,49.80L15.46,49.74L15.41,49.68L15.35,49.64L15.29,49.59L15.23,49.55L15.16,49.52L15.10,49.50L15.02,49.48L14.95,49.47L14.88,49.47L14.80,49.47L14.73,49.48L14.66,49.50L14.59,49.52L14.52,49.55L14.46,49.59L14.40,49.64L14.35,49.68L14.30,49.74L14.25,49.80L14.22,49.86L14.18,49.93L14.16,50.00L14.14,50.07L14.13,50.14L14.13,50.22L14.13,50.29L14.14,50.36L14.16,50.43L14.18,50.50L14.22,50.57L14.25,50.63L14.30,50.69L14.35,50.75L14.40,50.79L14.46,50.84L14.52,50.88L14.59,50.91L14.66,50.93L14.73,50.95L14.80,50.96L14.88,50.97L14.95,50.96L15.02,50.95L15.10,50.93L15.16,50.91L15.23,50.88L15.29,50.84L15.35,50.79L15.41,50.75L15.46,50.69L15.50,50.63L15.54,50.57L15.57,50.50L15.60,50.43L15.61,50.36L15.62,50.29z"/></g><g><text xml:space="preserve" fill="#000000" stroke-width="0" x="10.31" y="128.68" font-size="3.84" opacity="1.00" font-family="Arial">ZOR0083</text></g></g><g id="PMI.1"><g><path style="stroke:#000000;stroke-width:0.125" d="M147.35,194.54L209.54,176.83"/></g><g><path style="fill:#000000" d="M210.29,176.83L210.29,176.76L210.28,176.69L210.26,176.62L210.24,176.55L210.20,176.48L210.17,176.42L210.12,176.36L210.07,176.30L210.02,176.25L209.96,176.21L209.90,176.17L209.83,176.14L209.76,176.12L209.69,176.10L209.62,176.09L209.54,176.08L209.47,176.09L209.40,176.10L209.33,176.12L209.26,176.14L209.19,176.17L209.13,176.21L209.07,176.25L209.01,176.30L208.96,176.36L208.92,176.42L208.88,176.48L208.85,176.55L208.83,176.62L208.81,176.69L208.80,176.76L208.79,176.83L208.80,176.91L208.81,176.98L208.83,177.05L208.85,177.12L208.88,177.19L208.92,177.25L208.96,177.31L209.01,177.36L209.07,177.41L209.13,177.46L209.19,177.50L209.26,177.53L209.33,177.55L209.40,177.57L209.47,177.58L209.54,177.58L209.62,177.58L209.69,177.57L209.76,177.55L209.83,177.53L209.90,177.50L209.96,177.46L210.02,177.41L210.07,177.36L210.12,177.31L210.17,177.25L210.20,177.19L210.24,177.12L210.26,177.05L210.28,176.98L210.29,176.91z"/></g><g><text xml:space="preserve" fill="#000000" stroke-width="0" x="132.72" y="198.09" font-size="3.78" opacity="1.00" font-family="Arial">ND1382</text></g></g><g/><g><g/><g><text xml:space="preserve" fill="#000000" stroke-width="0" x="4.68" y="9.23" font-size="4.53" opacity="1.00" font-family="Arial" font-weight="bold">BPA33803</text></g></g><g id="paperID" visibility="hidden" opacity="0.00" transform="scale(0.000100)"><path style="stroke:#000000;stroke-width:0.500;fill:#e6e6e6;fill-rule:evenodd" d="M-2000.00,-2000.00L2297.00,-2000.00L2297.00,2210.00L-2000.00,2210.00zM0.00,0.00L297.00,0.00L297.00,210.00L0.00,210.00z"/><path style="fill:#000000;fill-opacity:0.118" d="M3.00,210.00L297.00,210.00L297.00,3.00L300.00,3.00L300.00,213.00L3.00,213.00z"/></g></g></svg>
