<?xml version="1.0" encoding="UTF-8" standalone="no"?>
<svg xmlns="http://www.w3.org/2000/svg" xmlns:xlink="http://www.w3.org/1999/xlink" width="297.000mm" height="210.000mm" viewBox="0.000000 0.000000 297.000000 210.000000" stroke-linejoin="round" stroke-linecap="round" fill="none" fill-rule="evenodd"><desc>Composer Export</desc><script type="text/ecmascript"><![CDATA[
if(typeof(top) != "undefined")
{
	top.ShowPaper = ShowPaper;
}
function ShowHotSpot(evt,hotspotid)
{
	var svgDocument = evt.target.ownerDocument;
	var strId = "hotspot."+hotspotid;
	var hotspot = svgDocument.getElementById(strId);
	if(hotspot)
		hotspot.setAttribute("opacity",".5");
}
function HideHotSpot(evt,hotspotid)
{
	var svgDocument = evt.target.ownerDocument;
	var strId = "hotspot."+hotspotid;
	var hotspot = svgDocument.getElementById(strId);
	if(hotspot)
		hotspot.setAttribute("opacity","0");

	var toolTip = svgDocument.getElementById('ToolTip');
	if(toolTip)
		toolTip.setAttribute("visibility","hidden");
}
function ShowToolTip(evt,hotspotid,strTooltip)
{
	if(strTooltip=="")
	return;

	// change text
	var svgDocument = evt.target.ownerDocument;
	var tiptext = svgDocument.getElementById('ToolTipText');
	if( !tiptext )
	return;
	tiptext.firstChild.nodeValue = " " + strTooltip + "  " ;

	// show tooltip before, else some refresh issue

	var toolTip = svgDocument.getElementById('ToolTip');
	if(!toolTip)
	return;

	toolTip.setAttribute("visibility","visible");
	toolTip.setAttribute("opacity",".95");

	// move tooltip
	// get viewbox

	var root = svgDocument.documentElement;
	var vbox = (root.getAttribute("viewBox")).split(' ');
	var x0 = parseFloat(vbox[0]);
	var y0 = parseFloat(vbox[1]);
	var vboxW = parseFloat(vbox[2]);
	var vboxH = parseFloat(vbox[3]);

	// get default width of svg

	var strW = root.getAttribute("width");
	var svgW = parseFloat(strW);
	if(strW.indexOf('mm') != -1)
	svgW *= 3.779;

	var strH = root.getAttribute("height");
	var svgH = parseFloat(strH);
	if(strH.indexOf('mm') != -1)
	svgH *= 3.779;  	// 96 dpi  -> 96/25.4 = 3.779

	// update the viewbox / width / height if svg is embedded in html with zoom fit all
	var realx0 = x0;
	var realy0 = y0;
	var realvboxW = vboxW;
	var realvboxH = vboxH;
	var realsvgW = svgW;
	var realsvgH = svgH;

	if ((typeof(top) == "undefined") || (typeof(top.svgctl1) != "undefined")) // embedded in html
	{
		// get window size in pxl

		svgW = window.innerWidth;
		svgH = window.innerHeight;

		// calculate real viewbox

		realsvgW = svgW;
		realsvgH = svgH;
		if((svgW / svgH) > (vboxW / vboxH))
		{
			realvboxW = (vboxH * svgW) / svgH;
			realvboxH = vboxH;
			realx0 = x0 - (realvboxW - vboxW)/2 ;
		}
		else
		{
			realvboxH = (vboxW * svgH) / svgW;
			realvboxW = vboxW;
			realy0 = y0 - (realvboxH - vboxH)/2 ;
		}
	}

	// get user zoom/pan

	var newScale = root.currentScale;
	var translation = root.currentTranslate;

	// transform pxl to user unit

	var xPos = (((evt.clientX+10- translation.x)/newScale) * realvboxW)/realsvgW  + realx0 ;
	var yPos = (((evt.clientY+5- translation.y)/newScale) * realvboxH)/ realsvgH  + realy0 ;
	var scaleForWidth = ( (1 / newScale) * realvboxH) / realsvgH;

	// move tooltip

	toolTip.setAttribute("transform", "translate(" + xPos + "," + yPos + ")" );

	// resize tooltip

	var fontsize = 12;
	tiptext.setAttribute("font-size",fontsize*scaleForWidth);
	tiptext.setAttribute("y", fontsize*scaleForWidth);
	var tipBG = svgDocument.getElementById('ToolTipBG');
	var outline = tiptext.getBBox();
	if(tipBG)
	{
		tipBG.setAttribute("stroke-width", 1*scaleForWidth);
		tipBG.setAttribute("width", Number(outline.width) );
		tipBG.setAttribute("height", Number(outline.height) + fontsize*.5*scaleForWidth );
	}
	var ToolTipShadow = svgDocument.getElementById('ToolTipShadow');
	if(ToolTipShadow)
	{
		ToolTipShadow.setAttribute("width", Number(outline.width) );
		ToolTipShadow.setAttribute("height", Number(outline.height) + fontsize*.5*scaleForWidth );
		ToolTipShadow.setAttribute("x", 3*scaleForWidth);
		ToolTipShadow.setAttribute("y", 3*scaleForWidth);
	}
}
function ShowPaper()
{
  var svgDocument = getDocument();
  var paper = svgDocument.getElementById("paperID");
  if(paper)
  {
    paper.setAttribute("transform","scale(1)");
    paper.setAttribute("opacity","1");
    paper.setAttribute("visibility","visible");
  }
  var svg = svgDocument.getRootElement();
  if(svg)
  {
    svg.setAttribute("width","307.000mm");
    svg.setAttribute("height","220.000mm");
    svg.setAttribute("viewBox","-5.000000 -5.000000 307.000000 220.000000");
  }
}
]]></script><defs/><g><path style="fill:#000000;fill-opacity:0.098;fill-rule:evenodd" d="M122.87,23.63L122.82,23.24L123.27,22.50L124.83,22.34L124.83,23.74L124.11,23.84L123.33,23.85zM82.37,25.00L83.22,25.80L83.69,26.65L84.03,28.47L83.86,30.34L83.36,31.98L82.37,34.14L81.16,35.74L80.08,36.97L78.19,38.21L77.20,38.55L75.26,38.55L72.97,37.37L71.15,36.22L70.64,35.57L70.40,34.92L73.31,36.44L73.29,34.14L73.77,31.82L75.38,28.63L76.93,26.88L78.07,25.88L79.67,24.99L80.34,24.83L81.88,24.83zM123.95,25.33L126.24,24.65L126.81,24.23L127.14,23.74L127.30,23.17L127.31,26.38L127.07,26.80L126.31,27.37L126.15,33.65L125.75,34.24L125.11,34.59L123.79,34.60L123.97,34.47zM103.85,34.24L104.84,35.24L105.67,37.22L105.83,38.54L105.66,40.93L105.16,40.87L101.20,38.55L100.71,38.38L99.49,38.37L98.83,38.71L97.52,39.54L96.50,40.67L95.42,42.56L94.91,44.04L94.91,46.32L95.10,46.63L99.73,49.26L101.39,50.15L101.32,48.30L101.68,48.16L102.47,45.98L103.61,44.31L104.69,43.24L105.98,42.54L106.12,42.20L106.81,42.01L107.48,42.18L107.98,42.50L108.64,43.66L108.64,46.20L107.97,48.01L107.15,49.33L105.66,50.82L104.13,51.60L102.68,51.60L100.54,50.42L100.15,50.42L98.84,51.43L96.53,52.43L94.26,52.42L93.61,52.24L87.48,48.63L86.49,47.47L86.30,46.77L86.48,46.78L91.13,49.47L91.47,49.50L91.29,48.29L91.29,46.36L91.78,43.87L92.28,42.40L93.27,40.41L94.19,38.86L95.44,37.29L97.02,35.74L99.00,34.42L100.32,33.91L101.15,33.76L102.19,33.76zM124.65,47.29L124.66,49.34L123.33,49.29L122.69,48.94L122.50,48.63L122.51,47.85L123.44,47.29L124.35,47.13zM129.78,55.71L129.11,55.77L127.58,56.71L126.49,57.94L125.64,59.42L125.14,59.37L124.44,58.91L124.44,53.08L132.76,48.29L132.76,63.71L130.93,62.65L130.91,62.38L131.43,61.56L132.09,59.74L132.25,58.91L132.26,57.54L131.94,56.87zM131.78,95.34L132.27,95.85L132.41,96.70L132.76,97.73L129.07,99.84L128.58,99.89L128.12,98.51L128.12,96.07L128.72,95.03L129.39,94.70L130.44,94.70zM145.80,104.45L146.81,105.09L147.62,106.09L144.26,108.11L143.99,108.10L143.65,107.27L143.64,105.15L144.26,104.45L144.58,104.28L145.31,104.28zM183.68,119.42L183.64,131.61L179.66,133.92L179.66,117.15zM183.68,119.42L183.79,80.72L204.24,68.91L204.44,68.92L204.46,107.50L196.29,112.22L196.18,124.49L192.71,126.47L192.16,126.65L192.07,114.70zM216.49,133.70L216.98,135.90L217.41,134.82L219.60,133.49L219.80,133.51L219.64,135.07L218.66,137.39L216.34,138.71L216.32,138.03L216.50,137.33L216.50,134.68L215.99,133.20L216.01,132.68zM215.35,134.67L215.35,136.06L215.18,136.55L214.85,136.88L213.96,137.15L190.01,150.86L188.67,150.85L189.51,150.36L189.89,149.28L189.84,148.89L190.58,148.78L190.57,148.22L190.20,147.23L214.30,133.34L214.67,133.35zM142.83,141.12L144.48,141.45L147.12,142.28L148.17,142.89L145.31,142.11L144.31,141.95L140.46,141.95L138.65,142.45L136.71,143.32L135.01,144.59L133.60,146.31L132.77,147.64L131.88,149.72L131.26,151.91L130.93,154.06L130.94,161.01L128.78,161.12L128.62,159.46L128.62,154.22L129.11,151.08L129.56,149.55L130.77,146.79L131.70,145.41L133.17,143.74L135.01,142.44L136.83,141.62L137.81,141.28L140.03,140.97zM167.45,153.65L167.50,153.95L167.27,153.82L167.28,153.49zM167.78,154.16L167.83,154.44L167.61,154.34L167.50,153.95zM168.13,154.68L168.12,154.88L167.95,154.86L167.83,154.44zM168.93,155.96L169.15,156.59L168.74,156.15L168.76,155.81zM174.21,163.76L176.71,167.86L178.84,172.18L180.33,176.80L180.82,179.94L180.82,185.28L180.32,187.75L179.50,190.24L178.34,192.38L177.84,193.06L177.84,193.47L179.85,194.98L180.14,195.03L181.65,192.88L182.31,191.72L183.46,188.74L184.12,186.11L184.62,182.47L184.62,177.13L183.96,171.52L182.80,166.40L181.30,161.78L181.21,161.22L181.30,161.29L181.81,162.43L183.46,167.22L184.78,172.67L185.44,177.79L185.44,182.80L185.12,185.61L184.45,188.58L183.30,191.72L182.14,193.70L180.65,195.69L179.10,197.11L176.87,198.51L175.65,199.10L173.33,199.75L172.89,200.16L172.89,199.84L173.81,198.75L174.65,197.45L175.48,195.80L176.35,193.53L177.02,191.06L177.52,187.59L177.52,181.92L176.85,176.97L175.53,171.52L173.88,166.73L171.57,161.44L169.59,157.48L169.24,156.99L169.15,156.59L169.26,156.64zM181.04,160.52L181.21,161.22L180.96,160.96L180.97,160.45zM150.10,166.23L151.11,166.87L151.92,167.87L151.87,168.04L148.53,170.03L148.24,170.09L147.94,169.54L147.78,168.71L147.78,167.10L148.29,166.29L148.71,166.06L149.61,166.06zM157.53,167.20L158.18,168.88L158.85,171.68L158.85,174.38L158.52,175.54L158.03,176.53L156.87,177.68L155.34,178.46L154.50,178.62L153.40,178.62L152.62,178.40L154.18,178.29L155.16,177.96L156.38,176.86L157.03,175.37L157.20,174.71L157.16,172.16L157.86,171.90L157.86,171.19L157.03,168.55L156.64,167.53L157.38,167.04zM120.36,187.54L121.02,189.69L121.21,192.24L120.22,192.90L115.17,195.94L113.88,196.47L112.25,196.47L111.88,196.29L113.38,196.14L114.26,195.36L114.75,193.70L114.86,190.68L115.69,190.16L116.06,190.17L116.41,190.90L116.40,188.75L119.82,186.85L120.02,186.87zM111.94,189.35L112.94,190.50L110.40,192.02L109.96,192.01L109.78,191.51L109.78,189.56L110.27,189.07L111.29,189.02zM108.96,189.40L108.96,190.85L109.47,192.32L109.27,192.51L108.76,192.56L108.30,191.01L108.29,189.73L108.81,188.76L109.10,188.51L109.28,188.50zM80.23,27.65L78.52,28.30L77.35,29.28L76.27,30.85L75.76,32.32L75.60,34.32L75.27,34.27L74.77,33.92L74.77,31.98L75.27,30.50L76.52,28.62L78.03,27.48L78.51,27.31L79.57,27.30zM82.86,27.82L83.03,28.47L83.03,30.01L82.87,30.83L82.21,32.82L81.21,34.47L79.99,35.89L78.43,36.97L77.37,37.40L76.09,37.40L75.54,37.05L77.58,36.45L79.08,35.31L80.24,33.99L81.50,31.77L82.04,30.01L82.16,27.46L82.36,27.45zM80.42,29.76L80.72,30.45L80.56,31.83L80.22,32.49L79.33,33.74L78.02,34.43L77.09,34.24L76.58,33.60L76.58,32.32L76.92,31.33L77.59,30.18L78.85,29.11L79.23,29.11zM107.66,44.80L107.64,46.19L107.48,46.86L106.65,48.51L105.51,49.68L104.63,50.12L103.52,50.10L103.01,49.62L102.85,49.29L102.85,47.51L103.19,46.53L103.86,45.39L104.62,44.49L105.83,43.87L106.01,43.83zM197.51,80.99L197.84,81.65L197.83,83.03L197.29,84.96L195.95,87.26L194.62,88.41L193.49,89.10L191.71,89.10L190.90,88.59L190.56,87.78L190.56,85.17L191.06,83.69L192.31,81.64L193.54,80.55L194.53,79.89L195.21,79.68zM117.23,193.66L116.90,193.67L116.89,192.82z"/><g id="Actor_.0"><g style="stroke:#000000;stroke-width:0.176"><path d="M103.83,34.31L102.78,33.85L101.58,33.73L100.27,33.96L98.90,34.51L97.51,35.38L96.16,36.53L94.89,37.92L93.76,39.51L92.80,41.22L92.04,43.00L91.52,44.80L91.47,45.16L91.26,46.53L91.25,48.14L91.51,49.57L92.03,50.77L92.77,51.70L93.73,52.32"/><path d="M105.61,41.11L101.13,38.54L100.34,38.32L99.43,38.44L98.45,38.87L97.48,39.60L96.58,40.57L95.82,41.72L95.24,42.97L94.88,44.24L94.77,45.43L94.92,46.47L95.32,47.28L95.93,47.82L100.33,50.34"/><path d="M102.40,51.53L101.79,50.99L101.40,50.18L101.25,49.14L101.35,47.95L101.71,46.69L102.29,45.44L103.06,44.29L103.95,43.31L104.92,42.59L105.90,42.15L106.15,42.12L106.81,42.04L107.61,42.26"/><path d="M105.29,51.08L104.37,51.49L103.50,51.60L102.76,51.39L102.18,50.89L101.80,50.12L101.66,49.14L101.77,48.01L102.10,46.82L102.65,45.64L103.37,44.55L104.22,43.63L105.14,42.94L106.06,42.53L106.92,42.43L107.28,42.53L107.67,42.63L108.25,43.14L108.62,43.91L108.76,44.89"/><path d="M102.76,48.84L102.71,48.36L102.86,47.38L103.23,46.37L103.80,45.42L104.51,44.63L105.29,44.07L106.06,43.79L106.75,43.84L107.29,44.19L107.62,44.82L107.72,45.67L107.57,46.64L107.19,47.65L106.62,48.60L105.91,49.40L105.14,49.96L104.37,50.23L103.68,50.19L103.14,49.83L102.81,49.20L102.76,48.84"/></g><g style="stroke:#000000;stroke-width:0.529"><path d="M93.90,31.22L93.47,31.40L92.08,32.27L90.73,33.42L89.46,34.81L88.33,36.39L87.37,38.11L86.61,39.89L86.09,41.68L85.83,43.41L85.82,45.03L86.08,46.46L86.60,47.66L87.34,48.59L88.30,49.20L93.73,52.32L94.86,52.61L96.12,52.56L97.47,52.16L98.86,51.45L100.24,50.43L100.33,50.34L102.40,51.53L103.20,51.75L104.11,51.64L105.09,51.20L105.29,51.08L106.21,50.39L107.05,49.47L107.78,48.39L108.33,47.21L108.58,46.29L108.66,46.01L108.76,44.89L108.76,44.64L108.61,43.61L108.22,42.79L107.61,42.26L105.61,41.11L105.70,40.69L105.84,39.01L105.71,37.48L105.32,36.15L104.69,35.09L103.83,34.31L98.40,31.20L97.35,30.74L96.15,30.62L94.90,30.83"/></g></g><g id="Actor_.1"><g style="stroke:#000000;stroke-width:0.176"><path d="M126.13,27.52L125.89,27.63L124.99,27.84L124.01,27.86L123.08,27.70L122.63,27.51"/><path d="M123.09,23.74L122.73,23.53L123.17,22.58L123.17,23.78L123.09,23.74"/><path d="M123.13,34.37L123.60,34.56L124.16,34.66L124.74,34.65L125.29,34.52L125.73,34.31"/><path d="M123.17,22.58L124.82,22.33L126.03,23.02L125.59,23.97L125.25,24.02L124.82,23.78L124.00,23.90L124.32,23.88L124.80,23.91L124.75,24.10L123.94,24.22L123.58,24.02L123.84,23.93L124.00,23.90L123.51,23.98L123.17,23.78"/><path d="M123.51,23.98L123.58,24.02"/><path d="M124.82,23.78L124.82,22.33"/><path d="M124.80,23.91L125.21,24.03L124.75,24.10"/><path d="M125.25,24.02L125.21,24.03"/></g><g style="stroke:#000000;stroke-width:0.529"><path d="M121.96,27.11L121.73,26.92L121.45,26.39L121.43,23.62L121.50,23.20L121.51,23.11L121.76,22.71L121.81,22.64L122.21,22.30L122.27,22.26L122.80,22.00L123.43,21.81L124.11,21.73L124.82,21.74L125.49,21.85L126.10,22.06L126.66,22.38L127.03,22.74L127.07,22.81L127.28,23.21L127.30,23.30L127.32,23.72L127.33,26.25L127.13,26.79L126.63,27.27L126.13,27.52L126.15,33.69L126.03,34.02L125.73,34.31L125.48,34.46L125.12,34.63L124.68,34.73L124.22,34.74L124.20,34.74L123.74,34.66L123.36,34.51L123.13,34.37L122.79,34.10L122.62,33.78L122.63,27.51L122.29,27.38L121.96,27.11"/></g></g><g id="Actor_.2"><g style="stroke:#000000;stroke-width:0.176"><path d="M124.38,58.93L124.38,53.12L116.03,48.33"/><path d="M122.57,48.83L122.39,48.47L122.41,48.09L122.65,47.74L123.08,47.45L123.65,47.26L124.30,47.18L124.95,47.22L125.55,47.39L126.01,47.66L126.30,48.00L126.39,48.38L126.25,48.75L125.91,49.07L125.41,49.32L124.79,49.46L124.13,49.47L123.50,49.36L122.96,49.14L122.57,48.83"/><path d="M124.38,53.12L132.73,48.33"/><path d="M130.78,62.60L131.21,61.96L131.81,60.71L132.19,59.45L132.32,58.25L132.19,57.19L131.81,56.36L131.21,55.80L130.44,55.55L129.53,55.64L128.56,56.05L127.58,56.75L126.68,57.71L125.90,58.85L125.54,59.59"/><path d="M126.31,48.58L126.30,48.00"/></g><g style="stroke:#000000;stroke-width:0.529"><path d="M132.73,63.72L132.73,48.33L124.38,43.54L116.03,48.33L116.03,55.09"/></g></g><g id="Actor_.3"><g style="stroke:#000000;stroke-width:0.176"><path d="M160.22,69.90L132.73,54.13"/><path d="M161.33,70.54L177.42,79.77"/><path d="M192.04,126.86L192.04,114.70"/></g><g style="stroke:#000000;stroke-width:0.529"><path d="M159.08,64.46L132.73,49.34"/><path d="M160.19,65.09L179.35,76.08"/><path d="M196.22,112.30L196.22,124.47L192.04,126.86L183.69,122.07"/></g></g><g id="Actor_.4"><g style="stroke:#000000;stroke-width:0.176"><path d="M183.69,119.49L183.69,80.78L177.42,77.18"/><path d="M183.69,80.78L204.57,68.80"/><path d="M190.79,88.31L190.88,88.51L191.47,89.07L192.25,89.32L193.16,89.23L194.13,88.82L195.11,88.11L196.01,87.16L196.79,86.02L197.39,84.78L197.76,83.51L197.88,82.42L197.89,82.31L197.76,81.26L197.39,80.42L196.79,79.86L196.01,79.62L195.11,79.70L194.13,80.11L193.16,80.82L192.25,81.77L191.47,82.91L191.45,82.96L190.88,84.16L190.50,85.42L190.37,86.62L190.50,87.68L190.79,88.31"/></g><g style="stroke:#000000;stroke-width:0.529"><path d="M178.43,116.47L177.42,115.89L177.42,77.18L198.31,65.21L204.57,68.80L204.57,107.51L183.69,119.49L178.43,116.47"/></g></g><g id="Actor_.5"><g style="stroke:#000000;stroke-width:0.176"><path d="M171.96,187.39L171.85,187.96L171.13,190.23L170.16,192.25L168.94,193.99L167.51,195.44L165.87,196.57L164.04,197.37L162.05,197.83L159.91,197.95L157.66,197.72L155.33,197.15L152.93,196.24L150.51,195.01L148.09,193.47L145.69,191.64L143.36,189.53L141.11,187.19L138.97,184.63L136.97,181.88L135.14,178.99L133.49,175.98L132.05,172.89L130.84,169.75L129.86,166.62L129.13,163.52L128.66,160.49L128.46,157.57L128.52,154.80L128.85,152.20L129.45,149.82L130.30,147.67L131.39,145.78L132.71,144.19L134.26,142.90L135.99,141.93L137.91,141.30L139.97,141.01L142.17,141.06L144.46,141.46L146.83,142.21L149.24,143.28L151.67,144.66L154.08,146.35L155.28,147.31L156.45,148.33L158.75,150.55L160.95,153.01L163.02,155.67L164.93,158.49L166.68,161.45L168.22,164.50L169.55,167.62L170.65,170.76L171.50,173.88L172.10,176.95L172.44,179.92L172.48,181.77L172.32,183.97L171.91,186.22"/><path d="M171.62,187.17L171.20,188.49L170.28,190.40L169.13,192.06L167.77,193.43L166.21,194.50L164.48,195.25L162.59,195.69L160.57,195.80L158.44,195.59L156.22,195.05L153.96,194.19L151.66,193.02L149.36,191.56L147.09,189.82L144.88,187.83L142.74,185.61L140.72,183.18L138.90,180.68L137.09,177.83L135.53,174.98L134.16,172.05L133.01,169.08L132.08,166.11L131.39,163.17L130.95,160.30L130.76,157.53L130.82,154.90L131.13,152.44L131.69,150.18L132.50,148.14L133.53,146.36L134.79,144.85L136.25,143.63L137.90,142.71L139.71,142.11L141.67,141.83L143.75,141.89L145.93,142.27L148.17,142.97L150.46,143.98L151.77,144.73"/><path d="M135.71,134.56L136.44,134.41L138.10,134.26L139.82,134.28L140.03,134.29L141.79,134.48L143.61,134.85L145.47,135.39L147.35,136.09L149.25,136.97L151.29,138.07L153.19,139.25L155.07,140.59L156.94,142.06L158.78,143.67L160.58,145.40L162.33,147.26L164.03,149.22L165.66,151.28L167.22,153.43L168.70,155.66L170.09,157.95L171.38,160.30L172.58,162.70L173.67,165.12L174.64,167.57L175.50,170.03L176.24,172.48L176.85,174.91L177.33,177.31L177.69,179.68L177.91,181.99L177.99,184.24L177.94,186.57L177.76,188.67L177.56,189.91"/><path d="M142.29,130.40L141.31,130.72L141.85,130.54"/><path d="M142.42,130.36L142.39,130.36"/><path d="M150.84,177.76L149.53,176.96L148.25,175.90L147.05,174.61L145.98,173.14L145.04,171.52L144.31,169.84L144.17,169.35L143.80,168.15L143.53,166.51L143.51,164.98L143.73,163.61L144.20,162.46L144.88,161.56L145.77,160.95L146.82,160.65L148.00,160.67L149.27,161.02L150.58,161.66L151.88,162.60L153.12,163.78L154.27,165.17L155.28,166.72L156.11,168.37L156.73,170.07L157.12,171.74L157.27,173.33L157.17,174.79L156.82,176.06L156.25,177.09L155.46,177.84L154.48,178.30L153.36,178.44L152.13,178.26L150.84,177.76L151.28,178.02L152.65,178.55L153.96,178.74L155.15,178.59L156.18,178.11L157.02,177.63L157.86,176.82L158.47,175.73L158.84,174.39L158.94,172.84L158.78,171.16L158.36,169.35L157.71,167.58L156.83,165.83L155.76,164.19L154.54,162.71L153.22,161.46L151.84,160.47L150.46,159.78L149.11,159.42L147.86,159.40L146.74,159.71L145.91,160.19L144.97,160.84L144.24,161.79L143.75,163.01L143.51,164.46L143.51,164.98"/><path d="M145.91,160.19L147.03,159.87L148.28,159.90L149.62,160.26L151.01,160.95L152.39,161.94L153.71,163.19L154.93,164.67L155.99,166.31L156.87,168.06L157.53,169.86L157.95,171.63L158.11,173.32L158.00,174.87L157.63,176.21L157.02,177.30L156.18,178.11"/><path d="M147.68,168.28L147.89,169.35L148.34,170.44L149.00,171.45L149.79,172.26L150.64,172.81L151.46,173.04L152.18,172.92L152.72,172.47L153.03,171.74L153.08,170.78L152.87,169.71L152.42,168.62L151.76,167.61L150.97,166.80L150.12,166.25L149.30,166.03L148.58,166.14L148.04,166.59L147.73,167.33L147.68,168.28"/><path d="M149.83,200.46L149.39,200.21L150.19,200.68"/><path d="M149.39,200.21L149.36,200.19"/><path d="M172.48,181.77L172.51,182.78L172.31,185.47L172.14,186.38"/><path d="M177.38,190.93L176.99,192.56L176.42,194.34L175.71,195.99L174.79,197.69L173.84,199.07L173.16,199.85"/></g><g style="stroke:#000000;stroke-width:0.529"><path d="M149.81,200.45L149.34,200.18L147.43,198.91L145.54,197.50L143.67,195.94L141.84,194.26L140.05,192.45L138.31,190.53L136.63,188.50L135.02,186.37L134.38,185.46L133.49,184.17L132.04,181.89L130.69,179.54L129.43,177.15L128.28,174.72L127.24,172.26L126.31,169.79L125.51,167.32L124.83,164.85L124.28,162.41L123.86,160.01L123.57,157.65L123.41,155.35L123.39,153.10L123.51,150.96L123.76,148.90L124.14,146.95L124.66,145.10L125.30,143.39L126.08,141.77L126.98,140.31L127.98,139.01L129.11,137.85L130.36,136.83L131.71,135.98L133.13,135.31L134.85,134.74L135.71,134.56L136.71,133.53L138.10,132.39L139.45,131.54L140.88,130.87L142.29,130.40L141.85,130.54"/><path d="M142.29,130.40L142.42,130.36L144.01,130.03L145.67,129.87L147.39,129.90L149.20,130.09L151.02,130.46L152.88,131.00L154.77,131.71L156.67,132.59L158.61,133.63L160.52,134.82L162.42,136.17L164.30,137.65L166.15,139.27L167.97,141.02L169.73,142.89L171.44,144.86L173.09,146.94L174.66,149.11L176.15,151.35L177.55,153.67L178.86,156.04L180.06,158.45L181.16,160.90L182.14,163.36L183.01,165.84L183.75,168.31L184.37,170.76L184.85,173.18L185.21,175.57L185.43,177.89L185.52,180.16L185.47,182.37L185.29,184.47L184.97,186.48L184.52,188.38L183.94,190.16L183.23,191.82L182.51,193.14"/><path d="M151.17,201.25L149.83,200.46"/><path d="M150.70,200.97L151.27,201.30L153.19,202.26L155.08,203.05L156.96,203.68L158.80,204.14L160.60,204.42L162.38,204.53L164.08,204.46L165.70,204.22L167.28,203.79L168.75,203.21L170.15,202.44L171.43,201.52L171.60,201.38L172.77,200.30L173.16,199.85L173.27,199.84L174.82,199.42L175.03,199.35L176.50,198.77L177.90,198.00L179.18,197.08L180.37,195.98L181.44,194.75L181.99,193.94"/></g></g><g id="Actor_.6"><g style="stroke:#000000;stroke-width:0.176"><path d="M108.26,190.81L108.26,190.88L108.50,191.97L108.97,193.06L109.63,194.07L110.42,194.90L111.27,195.47L112.11,195.75L112.85,195.69L113.41,195.33L112.74,195.38L111.90,195.11L111.05,194.54L110.26,193.71L109.60,192.70L109.13,191.61L108.89,190.52L108.90,189.54L109.17,188.75L109.45,188.45L109.03,188.58L108.54,189.11L108.27,189.90L108.26,190.81"/><path d="M109.45,188.45L109.70,188.36L110.50,188.47L111.35,188.90L112.18,189.61L112.92,190.54L113.49,191.60L113.85,192.70L113.96,193.75L113.82,194.65L113.44,195.31L113.41,195.33"/><path d="M111.89,189.36L111.65,189.19L110.96,188.96L110.36,189.02L109.90,189.38L109.65,189.99L109.61,190.78L109.81,191.67L110.22,192.57L110.79,193.37L111.46,193.99L112.16,194.36L112.81,194.45L113.35,194.23L113.71,193.74L113.86,193.03L113.82,192.61"/><path d="M110.27,186.41L110.86,186.17L111.56,186.13L112.32,186.31L113.11,186.69L113.88,187.25L114.61,187.97L115.28,188.84L115.86,189.81L116.31,190.82L116.60,191.82L116.87,192.79L117.27,193.83L117.55,194.39L116.30,195.17L115.71,195.54L115.22,195.86L114.76,196.16L114.55,196.31"/><path d="M114.45,196.26L115.71,195.54L116.18,195.11L116.53,194.47L116.72,193.69L116.74,192.78L116.60,191.82L116.42,190.79L116.33,189.58L116.32,188.86L115.70,188.52L114.69,187.88L113.88,187.25L113.16,186.57L112.46,185.75L112.10,185.26"/><path d="M116.32,188.86L119.98,186.76"/><path d="M117.55,194.39L121.21,192.29"/></g><g style="stroke:#000000;stroke-width:0.529"><path d="M108.41,192.77L108.28,192.49L107.97,191.63L107.78,190.79L107.72,189.98L107.72,189.82L107.79,189.06L107.98,188.41L108.07,188.22L108.40,187.68L108.84,187.28L109.01,187.13L110.27,186.41L110.86,186.04L112.10,185.26L115.76,183.16L116.38,183.50L117.40,184.14L118.21,184.77L118.92,185.44L119.62,186.26L119.98,186.76L120.25,187.31L120.65,188.34L120.93,189.33L121.10,190.36L121.20,191.57L121.21,192.29L120.99,192.44L120.54,192.74L120.04,193.06L119.45,193.43L118.21,194.21L114.55,196.31L114.45,196.26L114.19,196.40L113.98,196.48L113.40,196.62L112.75,196.59L112.55,196.58L111.88,196.38L111.19,196.02L111.05,195.95L110.39,195.46L109.77,194.85L109.19,194.13L108.69,193.34L108.41,192.77"/></g></g><g id="Actor_.7"><g style="stroke:#000000;stroke-width:0.176"><path d="M187.84,150.54L188.48,150.77L189.06,150.74L189.52,150.45L189.80,149.93L189.89,149.22L189.77,148.41L189.46,147.56L188.99,146.76L188.39,146.09L187.74,145.61L187.09,145.38L186.51,145.40L186.06,145.70L185.77,146.22L185.69,146.92"/><path d="M189.71,151.02L190.25,150.68L190.59,150.05L190.70,149.21L190.56,148.24L190.18,147.23L189.62,146.27L189.06,145.65L188.91,145.48L188.13,144.91L187.36,144.63L186.67,144.66"/><path d="M209.02,131.82L210.91,130.73"/><path d="M209.10,131.54L209.12,131.76"/><path d="M219.87,133.36L217.32,134.82L216.70,136.87L216.30,137.68L215.68,138.20L215.43,138.35L216.05,137.82L216.45,137.02L216.61,135.98L216.51,134.80L216.16,133.53L215.59,132.28L214.82,131.13L213.93,130.15L212.96,129.41L211.98,128.97L211.07,128.84L210.27,129.05L209.72,129.52"/><path d="M210.27,129.05L210.52,128.91L211.32,128.70L212.24,128.82L213.21,129.27L214.18,130.00L215.08,130.98L215.84,132.14L216.41,133.39L216.76,134.65L216.86,135.84L216.70,136.87L216.08,138.92"/><path d="M217.32,134.82L214.35,129.45L210.12,128.19"/><path d="M214.48,136.84L212.63,137.90"/><path d="M214.35,129.45L216.89,127.99"/><path d="M215.43,138.35L214.75,138.53"/></g><g style="stroke:#000000;stroke-width:0.529"><path d="M186.33,148.95L186.12,148.59L185.80,147.74L185.69,146.92L185.69,146.47L185.79,145.63L186.13,145.01L186.67,144.66L209.02,131.82L209.10,131.54L209.09,131.42L209.25,130.38L209.65,129.58L209.72,129.52L210.12,128.19L212.67,126.73L213.29,126.80L214.31,126.97L215.12,127.17L215.83,127.42L216.54,127.77L216.89,127.99L217.37,128.54L218.13,129.54L218.72,130.49L219.21,131.48L219.65,132.65L219.87,133.36L219.86,133.75L219.76,134.49L219.58,135.22L219.31,135.99L218.90,136.91L218.62,137.46L216.08,138.92L214.75,138.53L214.63,138.56L213.71,138.43L212.74,137.99L212.63,137.90L189.71,151.02L189.02,151.06L188.25,150.78L187.84,150.54L187.18,150.06L186.59,149.39L186.33,148.95"/></g></g><g id="Actor_.8"><g style="stroke:#000000;stroke-width:0.176"><path d="M74.38,35.53L74.24,34.38L74.35,33.09L74.53,32.41L74.72,31.71L75.32,30.35L76.11,29.06L77.05,27.94L78.08,27.03L79.15,26.41L80.19,26.09L81.14,26.11L81.31,26.19L81.35,26.22L81.74,26.77L82.01,27.45L82.15,28.25L82.15,29.15L82.02,30.10L81.76,31.09L81.67,31.32L81.38,32.09L80.88,33.06L80.29,33.98L79.63,34.81L78.90,35.53L78.32,35.99L78.14,36.13L77.37,36.57L76.61,36.86L75.89,36.97L75.22,36.92L75.19,36.91L74.77,36.45L74.38,35.53"/><path d="M81.31,26.19L81.94,26.46L82.56,27.11L82.95,28.04L83.09,29.19L82.97,30.48L82.67,31.61L82.61,31.85L82.01,33.22L81.22,34.51L80.28,35.63L79.25,36.53L78.18,37.16L77.14,37.47L76.19,37.46L75.38,37.11L75.19,36.91"/><path d="M75.66,35.10L75.56,35.05L75.22,34.77L74.94,34.39L74.76,33.91L74.66,33.35L74.66,32.73L74.75,32.06L74.93,31.37L75.20,30.67L75.54,29.99L75.95,29.35L76.42,28.77L76.93,28.27L77.46,27.85L77.99,27.54L78.53,27.34L79.03,27.26L79.50,27.30L79.91,27.46L80.91,28.03L80.22,27.80L79.40,27.88L78.53,28.28L77.66,28.97L76.88,29.88L76.24,30.95L75.80,32.09L75.59,33.20L75.63,34.19L75.91,34.99L76.42,35.53L75.66,35.10"/><path d="M76.42,35.53L77.11,35.77L77.92,35.68L78.80,35.28L79.66,34.60L80.45,33.68L81.09,32.62L81.53,31.48L81.74,30.37L81.70,29.38L81.41,28.58L80.91,28.03"/><path d="M76.75,33.98L76.57,33.54L76.50,33.01L76.50,33.03"/><path d="M76.74,33.95L77.02,34.25"/><path d="M76.50,33.01L76.55,32.40L76.73,31.74L77.02,31.07L77.40,30.45L77.86,29.91L78.36,29.47L78.87,29.17"/><path d="M79.34,29.04L78.84,29.19"/><path d="M79.33,29.04L79.75,29.05"/><path d="M79.74,29.05L80.08,29.20"/></g><g style="stroke:#000000;stroke-width:0.529"><path d="M70.02,33.74L69.97,32.89L70.04,31.87L70.25,30.80L70.58,29.71L70.73,29.35L71.03,28.63L71.59,27.57L72.24,26.57L72.96,25.66L73.75,24.85L74.57,24.16L75.44,23.59L76.29,23.20L77.11,22.97L77.93,22.91L78.65,23.02L78.69,23.04L79.33,23.32L82.43,25.09L83.00,25.57L83.44,26.16L83.46,26.20L83.77,26.93L83.96,27.79L84.02,28.77L83.94,29.78L83.73,30.85L83.40,31.94L82.95,33.02L82.39,34.08L81.74,35.08L81.02,35.99L80.23,36.80L79.41,37.49L78.54,38.06L77.70,38.45L76.87,38.68L76.09,38.74L76.05,38.74L75.33,38.63L75.29,38.62L74.65,38.33L71.56,36.56L70.98,36.08L70.54,35.49L70.52,35.45L70.21,34.72L70.02,33.87L70.02,33.74"/></g></g><g id="Actor_.9"><g style="stroke:#000000;stroke-width:0.176"><path d="M177.42,94.14L112.68,57.01"/><path d="M132.19,95.62L131.24,95.00L130.29,94.68L129.43,94.71L128.73,95.07L128.22,95.74L127.96,96.66L127.96,97.78L128.22,99.01L128.73,100.26L129.43,101.43L130.29,102.44L131.24,103.21L132.20,103.68L133.11,103.83L133.90,103.64L134.51,103.12L134.90,102.31L135.03,101.28L134.93,100.42"/><path d="M144.10,108.39L144.56,109.19L145.29,110.04L146.10,110.65L146.91,110.97L147.63,110.95L148.21,110.62L148.58,109.99L148.71,109.12L148.58,108.12L148.21,107.06L147.63,106.06L146.91,105.21L146.10,104.60L145.29,104.29L144.56,104.30L143.99,104.64L143.62,105.27L143.49,106.13L143.62,107.14L143.99,108.19L144.10,108.39"/><path d="M179.51,134.05L179.51,117.09"/></g><g style="stroke:#000000;stroke-width:0.529"><path d="M183.69,119.49L183.69,131.66L179.51,134.05L112.68,95.72L112.68,57.01L116.86,54.61L177.42,89.35"/><path d="M133.12,98.23L133.61,99.03L134.47,100.04L134.93,100.42L134.90,100.09L134.51,98.84L133.90,97.63L133.11,96.53L132.19,95.62L132.40,96.62L132.90,97.86L133.12,98.23"/></g></g><g><g><path style="stroke:#000000;stroke-width:0.125;stroke-dasharray:2.0 1.3 0.7 1.3" d="M111.73,191.70L113.11,190.91"/><path style="stroke:#000000;stroke-width:0.125;stroke-dasharray:2.0 1.3 0.7 1.3" d="M152.29,168.43L120.06,186.92"/><path style="stroke:#000000;stroke-width:0.125;stroke-dasharray:2.0 1.3 0.7 1.3" d="M187.79,148.07L177.67,153.88"/></g></g><g><g><path style="stroke:#000000;stroke-width:0.125;stroke-dasharray:2.0 1.3 0.7 1.3" d="M87.93,37.10L77.13,30.90"/><path style="stroke:#000000;stroke-width:0.125;stroke-dasharray:2.0 1.3 0.7 1.3" d="M103.45,46.00L116.03,53.21"/></g></g><g><g><path style="stroke:#000000;stroke-width:0.125;stroke-dasharray:2.0 1.3 0.7 1.3" d="M154.45,119.68L154.45,140.15"/></g></g><g><g><path style="stroke:#000000;stroke-width:0.125;stroke-dasharray:2.0 1.3 0.7 1.3" d="M124.37,48.33L124.37,34.74"/></g></g><g/><g><g><path style="stroke:#000000;stroke-width:0.125" d="M191.86,199.81L165.19,182.41"/></g><g><path style="fill:#000000" d="M165.94,182.41L165.94,182.33L165.93,182.26L165.91,182.19L165.88,182.12L165.85,182.05L165.81,181.99L165.77,181.93L165.72,181.88L165.67,181.83L165.61,181.78L165.54,181.75L165.48,181.72L165.41,181.69L165.34,181.67L165.26,181.66L165.19,181.66L165.12,181.66L165.04,181.67L164.97,181.69L164.90,181.72L164.84,181.75L164.77,181.78L164.72,181.83L164.66,181.88L164.61,181.93L164.57,181.99L164.53,182.05L164.50,182.12L164.47,182.19L164.46,182.26L164.44,182.33L164.44,182.41L164.44,182.48L164.46,182.55L164.47,182.63L164.50,182.70L164.53,182.76L164.57,182.82L164.61,182.88L164.66,182.94L164.72,182.99L164.77,183.03L164.84,183.07L164.90,183.10L164.97,183.13L165.04,183.14L165.12,183.15L165.19,183.16L165.26,183.15L165.34,183.14L165.41,183.13L165.48,183.10L165.54,183.07L165.61,183.03L165.67,182.99L165.72,182.94L165.77,182.88L165.81,182.82L165.85,182.76L165.88,182.70L165.91,182.63L165.93,182.55L165.94,182.48z"/></g><g><text xml:space="preserve" fill="#000000" stroke-width="0" x="189.47" y="204.28" font-size="3.77" opacity="1.00" font-family="Arial">KIT0341</text></g></g><g><g><path style="stroke:#000000;stroke-width:0.125" d="M96.01,16.06L94.13,33.52"/></g><g><path style="fill:#000000" d="M94.88,33.52L94.88,33.45L94.86,33.38L94.85,33.31L94.82,33.24L94.79,33.17L94.75,33.11L94.71,33.05L94.66,32.99L94.60,32.94L94.55,32.90L94.48,32.86L94.42,32.83L94.35,32.81L94.28,32.79L94.20,32.78L94.13,32.77L94.06,32.78L93.98,32.79L93.91,32.81L93.84,32.83L93.78,32.86L93.71,32.90L93.65,32.94L93.60,32.99L93.55,33.05L93.51,33.11L93.47,33.17L93.44,33.24L93.41,33.31L93.39,33.38L93.38,33.45L93.38,33.52L93.38,33.60L93.39,33.67L93.41,33.74L93.44,33.81L93.47,33.88L93.51,33.94L93.55,34.00L93.60,34.05L93.65,34.10L93.71,34.15L93.78,34.18L93.84,34.22L93.91,34.24L93.98,34.26L94.06,34.27L94.13,34.27L94.20,34.27L94.28,34.26L94.35,34.24L94.42,34.22L94.48,34.18L94.55,34.15L94.60,34.10L94.66,34.05L94.71,34.00L94.75,33.94L94.79,33.88L94.82,33.81L94.85,33.74L94.86,33.67L94.88,33.60z"/></g><g><text xml:space="preserve" fill="#000000" stroke-width="0" x="89.20" y="14.31" font-size="3.77" opacity="1.00" font-family="Arial">KIT0328</text></g></g><g id="PMI.0"><g><path style="stroke:#000000;stroke-width:0.125" d="M149.48,16.06L161.73,74.79"/></g><g><path style="fill:#000000" d="M162.48,74.79L162.47,74.71L162.46,74.64L162.44,74.57L162.42,74.50L162.39,74.43L162.35,74.37L162.31,74.31L162.26,74.26L162.20,74.21L162.14,74.16L162.08,74.13L162.01,74.09L161.94,74.07L161.87,74.05L161.80,74.04L161.73,74.04L161.65,74.04L161.58,74.05L161.51,74.07L161.44,74.09L161.37,74.13L161.31,74.16L161.25,74.21L161.20,74.26L161.15,74.31L161.10,74.37L161.06,74.43L161.03,74.50L161.01,74.57L160.99,74.64L160.98,74.71L160.98,74.79L160.98,74.86L160.99,74.93L161.01,75.01L161.03,75.07L161.06,75.14L161.10,75.20L161.15,75.26L161.20,75.32L161.25,75.37L161.31,75.41L161.37,75.45L161.44,75.48L161.51,75.51L161.58,75.52L161.65,75.53L161.73,75.54L161.80,75.53L161.87,75.52L161.94,75.51L162.01,75.48L162.08,75.45L162.14,75.41L162.20,75.37L162.26,75.32L162.31,75.26L162.35,75.20L162.39,75.14L162.42,75.07L162.44,75.01L162.46,74.93L162.47,74.86z"/></g><g><text xml:space="preserve" fill="#000000" stroke-width="0" x="139.75" y="14.31" font-size="3.80" opacity="1.00" font-family="Arial">BPA31114</text></g></g><g/><g><g/><g><text xml:space="preserve" fill="#000000" stroke-width="0" x="3.78" y="7.96" font-size="4.53" opacity="1.00" font-family="Arial" font-weight="bold">BPA32577</text></g></g><g id="paperID" visibility="hidden" opacity="0.00" transform="scale(0.000100)"><path style="stroke:#000000;stroke-width:0.500;fill:#e6e6e6;fill-rule:evenodd" d="M-2000.00,-2000.00L2297.00,-2000.00L2297.00,2210.00L-2000.00,2210.00zM0.00,0.00L297.00,0.00L297.00,210.00L0.00,210.00z"/><path style="fill:#000000;fill-opacity:0.118" d="M3.00,210.00L297.00,210.00L297.00,3.00L300.00,3.00L300.00,213.00L3.00,213.00z"/></g><g id="hotspot.0" onmouseover="ShowHotSpot(evt,'0')" onmouseout="HideHotSpot(evt,'0')" onmousemove="ShowToolTip(evt,'0',&quot;Hotspot 1&quot;)" opacity="0"><path style="fill:#00ff00;fill-rule:evenodd" d="M215.51,127.24L216.83,127.90L217.50,128.72L218.65,130.38L219.81,133.03L219.80,134.24L219.64,135.07L218.66,137.39L216.26,138.81L215.84,138.83L214.35,138.48L213.52,138.32L212.87,137.97L212.48,137.97L190.01,150.86L188.57,150.88L187.11,150.03L186.10,148.56L185.77,147.40L185.77,145.96L186.12,144.99L208.93,131.79L209.08,131.61L209.35,130.22L210.31,128.05L212.64,126.74L213.19,126.75zM150.93,130.38L154.39,131.55L156.87,132.70L159.84,134.35L163.31,136.83L166.97,139.95L169.60,142.76L171.75,145.24L174.39,148.70L177.19,153.02L179.66,157.64L181.81,162.43L183.46,167.22L184.78,172.67L185.44,177.79L185.44,182.80L185.12,185.61L184.45,188.58L183.30,191.72L182.31,193.39L182.31,193.98L192.08,200.60L192.08,200.79L191.08,200.24L181.99,193.97L180.65,195.69L179.10,197.11L176.87,198.51L175.65,199.10L173.33,199.76L172.58,200.49L170.18,202.39L168.22,203.40L166.24,204.07L164.25,204.39L161.00,204.39L158.68,204.06L155.21,203.07L151.91,201.58L148.77,199.77L145.48,197.44L143.17,195.45L140.86,193.31L138.37,190.51L136.40,188.19L133.43,184.05L130.28,178.78L127.96,174.00L125.97,168.71L124.65,164.09L123.83,159.62L123.50,156.32L123.50,151.58L123.83,148.61L124.61,145.26L125.76,142.44L126.90,140.44L128.14,138.88L129.06,137.81L131.37,136.17L133.86,135.02L135.67,134.51L136.83,133.36L138.65,132.04L141.17,130.76L143.60,130.06L144.92,129.89L147.78,129.89zM117.06,183.91L118.40,184.88L119.72,186.37L120.36,187.54L121.02,189.69L121.21,192.24L120.22,192.90L115.17,195.94L113.88,196.47L112.26,196.47L110.63,195.62L109.13,193.99L108.13,192.00L107.80,190.85L107.80,189.07L108.14,188.09L109.07,187.04L115.52,183.23L115.90,183.23zM199.50,202.89L199.43,203.57L199.67,204.30L201.09,202.37L201.30,202.39L201.43,204.10L201.63,204.25L201.63,204.58L201.43,204.74L201.29,205.28L200.93,205.28L200.81,204.71L199.65,204.55L199.27,205.22L198.00,205.22L197.83,205.05L197.84,204.42L198.15,204.38L198.48,204.91L198.78,204.91L199.16,204.46L198.99,204.07L198.42,203.93L198.43,203.58L199.02,203.30L199.02,203.06L198.84,202.87L198.43,202.87L198.15,203.30L197.78,203.30L197.83,202.79L198.44,202.39L198.83,202.39zM197.35,202.89L197.35,204.78L197.12,205.21L196.02,205.21L195.69,204.88L195.67,202.94L196.17,202.44L196.68,202.39zM193.13,202.78L193.14,202.41L195.38,202.41L195.38,202.78L194.63,202.89L194.52,205.29L194.15,205.29L194.04,202.89zM202.23,203.46L202.23,203.08L203.08,202.37L203.28,202.39L203.28,205.29L202.91,205.29L202.81,203.40zM190.24,203.63L191.51,202.38L191.90,202.40L191.92,202.61L191.06,203.46L191.06,203.88L192.07,205.21L191.39,205.21L190.59,204.05L190.24,204.27L190.07,205.29L189.69,205.29L189.69,202.39L190.06,202.39zM192.71,205.29L192.34,205.29L192.34,202.39L192.71,202.39zM197.02,203.56L196.83,204.77L196.64,204.92L196.35,204.89L196.19,204.72L196.18,202.94L196.69,202.87zM200.80,204.12L200.41,204.06L200.75,203.54L200.82,203.56z"/></g><g id="hotspot.1" onmouseover="ShowHotSpot(evt,'1')" onmouseout="HideHotSpot(evt,'1')" onmousemove="ShowToolTip(evt,'1',&quot;Hotspot 1&quot;)" opacity="0"><path style="fill:#00ff00;fill-rule:evenodd" d="M103.53,12.93L103.52,13.50L103.29,13.75L103.49,13.93L103.52,14.99L103.30,15.25L102.03,15.25L101.86,15.09L101.88,13.99L102.03,13.75L101.79,13.10L102.13,12.60L102.47,12.43L102.85,12.43zM101.38,12.76L101.38,13.66L101.20,13.99L100.30,14.75L101.39,14.93L101.39,15.30L99.65,15.31L99.72,14.65L100.84,13.62L100.90,13.09L100.72,12.91L100.31,12.91L100.03,13.33L99.66,13.33L99.71,12.83L100.32,12.43L100.88,12.43zM99.24,12.93L99.16,13.61L99.37,14.50L99.00,15.25L97.73,15.25L97.56,15.08L97.57,14.46L97.88,14.42L98.21,14.95L98.52,14.95L98.89,14.50L98.72,14.10L98.16,13.97L98.16,13.62L98.76,13.34L98.76,13.10L98.57,12.91L98.17,12.91L97.88,13.33L97.51,13.34L97.56,12.83L98.17,12.43L98.56,12.43zM97.08,12.93L97.08,14.82L96.85,15.25L95.75,15.25L95.42,14.92L95.41,12.98L95.91,12.48L96.41,12.43zM92.87,12.82L92.87,12.45L95.11,12.45L95.11,12.82L94.37,12.93L94.26,15.33L93.89,15.33L93.78,12.93zM89.97,13.67L91.24,12.42L91.63,12.44L91.65,12.65L90.79,13.50L90.79,13.92L91.80,15.25L91.12,15.25L90.32,14.08L89.97,14.31L89.80,15.33L89.43,15.33L89.43,12.42L89.80,12.42zM92.44,15.33L92.07,15.33L92.07,12.42L92.44,12.42zM125.65,21.86L126.64,22.36L127.31,23.17L127.31,26.38L127.07,26.80L126.31,27.37L126.15,33.65L125.75,34.24L125.11,34.59L123.66,34.59L123.02,34.24L122.68,33.92L122.51,27.48L121.70,26.80L121.51,26.50L121.51,23.06L122.29,22.19L123.11,21.86L124.82,21.70zM82.37,25.00L83.22,25.80L83.69,26.65L84.03,28.47L83.86,30.34L83.36,31.98L82.37,34.14L81.16,35.74L80.08,36.97L78.19,38.21L77.20,38.55L75.26,38.55L72.97,37.37L71.15,36.22L70.64,35.57L70.14,34.42L70.14,31.32L70.76,29.30L71.63,27.52L73.22,25.31L75.22,23.68L76.20,23.18L76.87,23.02L78.75,23.01zM97.58,30.77L103.85,34.25L104.84,35.24L105.67,37.22L105.83,38.54L105.61,41.02L107.98,42.50L108.64,43.66L108.64,46.20L107.97,48.01L107.15,49.33L105.66,50.82L104.13,51.60L102.68,51.60L100.54,50.42L100.15,50.42L98.84,51.43L96.53,52.43L94.26,52.42L93.61,52.24L87.48,48.63L86.49,47.47L86.00,45.98L86.01,42.40L86.29,41.03L86.99,38.92L87.59,37.70L89.23,35.05L91.14,32.99L93.38,31.44L94.26,31.00L95.88,17.04L96.07,17.04L96.08,17.95L94.87,28.30L94.71,30.85L95.86,30.62zM103.05,13.10L102.98,13.44L102.34,13.44L102.34,12.99L102.87,12.91zM96.75,13.60L96.57,14.81L96.37,14.96L96.09,14.93L95.92,14.76L95.91,12.98L96.42,12.91zM103.18,14.41L102.95,14.93L102.51,14.95L102.30,14.81L102.35,14.14L102.86,14.08z"/></g></g></svg>
