<?xml version="1.0" encoding="UTF-8" standalone="no"?>
<svg xmlns="http://www.w3.org/2000/svg" xmlns:xlink="http://www.w3.org/1999/xlink" width="297.000mm" height="210.000mm" viewBox="0.000000 0.000000 297.000000 210.000000" stroke-linejoin="round" stroke-linecap="round" fill="none" fill-rule="evenodd"><desc>Composer Export</desc><script type="text/ecmascript"><![CDATA[
if(typeof(top) != "undefined")
{
	top.ShowPaper = ShowPaper;
}
function ShowPaper()
{
  var svgDocument = getDocument();
  var paper = svgDocument.getElementById("paperID");
  if(paper)
  {
    paper.setAttribute("transform","scale(1)");
    paper.setAttribute("opacity","1");
    paper.setAttribute("visibility","visible");
  }
  var svg = svgDocument.getRootElement();
  if(svg)
  {
    svg.setAttribute("width","307.000mm");
    svg.setAttribute("height","220.000mm");
    svg.setAttribute("viewBox","-5.000000 -5.000000 307.000000 220.000000");
  }
}
]]></script><defs/><g><path style="fill:#000000;fill-opacity:0.098;fill-rule:evenodd" d="M125.18,71.11L127.38,72.57L128.64,74.02L130.11,76.99L130.59,79.47L130.59,83.25L130.34,85.47L129.59,88.42L127.38,94.35L125.90,96.56L123.44,100.02L121.24,102.26L118.54,104.48L115.55,106.18L112.52,107.09L109.37,107.10L107.64,106.61L104.47,104.61L103.74,103.88L101.40,105.11L100.50,105.13L98.14,103.82L98.54,103.73L98.78,101.99L98.75,93.78L98.51,93.39L99.69,83.66L100.01,81.51L100.23,80.96L99.95,80.76L99.92,80.24L100.60,79.90L101.65,79.46L102.14,78.72L103.99,77.85L105.33,77.02L106.10,77.03L107.50,76.19L108.19,75.89L110.29,74.29L111.11,74.03L111.13,74.13L109.16,75.88L106.70,77.85L104.48,80.81L103.47,82.51L101.90,86.62L100.99,95.10L101.25,98.46L101.48,99.71L101.99,100.99L102.25,100.95L103.50,101.48L103.20,100.44L102.97,98.70L102.98,93.85L103.70,90.14L104.94,86.45L107.33,81.69L109.41,78.84L111.75,76.25L113.82,74.37L115.96,72.81L119.18,71.35L121.39,70.84L123.44,70.85zM125.91,81.39L126.15,82.68L126.15,86.21L125.32,90.14L126.64,90.81L124.81,92.02L123.93,93.35L123.21,95.57L114.82,91.05L114.54,90.58L114.39,89.75L114.65,88.98L114.57,88.83L114.39,89.75L114.06,90.92L113.58,90.85L113.57,89.65L114.34,87.46L115.96,85.63L117.05,85.15L117.77,85.66L116.92,85.86L116.61,86.29L116.20,86.36L115.70,86.88L116.18,86.88L116.61,86.29L118.55,85.89L119.02,86.36L121.49,87.68L121.71,85.39L121.73,84.11L121.97,84.35L122.21,85.64L122.13,88.18L124.92,89.65L125.90,85.71L125.90,82.93L125.55,81.20zM27.58,20.32L27.56,20.62L27.04,20.28L26.13,20.46L26.44,20.02L27.32,20.02zM26.10,20.67L26.04,21.77L26.80,22.29L25.58,22.53L25.00,21.76L25.59,21.85L25.71,20.54L26.13,20.46zM30.25,22.22L30.18,23.52L28.91,23.51L30.03,22.00zM10.29,29.16L10.56,29.73L9.80,29.41L8.86,30.08L9.04,29.26L9.81,28.93zM188.29,29.67L188.31,30.48L187.21,30.13L186.81,30.50L186.28,31.47L186.29,32.12L187.29,32.63L187.25,32.86L185.71,32.95L185.79,31.14L186.27,30.49L187.02,29.77L187.00,29.40zM8.54,30.25L8.86,30.08L8.96,30.98L9.78,31.40L9.22,31.67L8.54,31.68L8.00,31.13L7.99,30.87L8.58,30.95zM13.48,31.59L13.16,32.63L11.89,32.62L12.89,31.35L13.26,31.36zM192.73,34.20L192.39,34.84L191.13,34.92L191.25,34.21L192.41,32.83L192.71,32.85zM27.58,40.53L27.57,40.83L26.82,40.52L26.13,40.67L26.44,40.24L27.31,40.24zM25.96,42.07L26.80,42.49L26.23,42.76L25.55,42.78L25.01,42.23L25.01,41.97L25.59,42.06L25.71,40.75L26.13,40.67zM30.25,42.44L30.18,43.73L28.91,43.72L30.03,42.22zM188.29,47.67L188.31,48.48L187.21,48.13L186.29,49.21L186.30,50.13L187.29,50.63L187.25,50.86L185.79,50.87L185.80,48.75L186.55,48.24L187.01,47.62L187.01,47.40zM86.62,49.13L87.46,49.16L87.49,49.70L86.67,49.36zM10.32,49.34L10.56,49.95L9.80,49.63L8.86,50.29L9.04,49.48L10.03,49.12zM8.54,50.47L8.86,50.29L8.96,51.20L9.78,51.62L9.22,51.89L8.54,51.90L8.00,51.35L7.99,51.09L8.58,51.17zM88.69,52.41L88.93,52.38L88.95,57.11L87.86,56.62L87.95,50.66L88.18,50.63zM13.47,51.94L13.00,52.95L12.21,53.12L11.90,52.82L12.97,51.65L13.29,51.61zM190.68,52.60L191.49,51.94L192.41,50.83L192.71,50.84L192.73,52.20L192.39,52.84L190.94,52.86zM82.91,53.35L87.13,51.07L87.44,51.10L87.47,56.37L83.00,54.07zM73.39,54.40L71.67,55.42L71.59,54.58L73.42,53.59zM54.89,56.37L54.31,56.57L54.34,57.09L54.63,57.30L53.81,57.80L53.34,57.80L54.42,55.65L54.91,55.30zM95.59,61.44L95.83,62.47L92.77,62.94L90.57,63.94L88.18,65.74L86.61,67.15L84.96,67.21L84.94,68.21L85.19,68.39L84.70,69.17L82.69,70.36L82.03,73.65L80.46,77.75L79.80,81.28L79.80,85.14L80.05,86.39L79.80,89.41L79.50,89.62L78.73,89.60L79.06,88.18L79.08,86.36L77.56,85.35L77.25,85.37L77.09,86.95L76.28,87.37L75.27,87.37L75.36,74.13L75.58,71.88L77.00,70.82L77.09,72.65L76.83,73.38L75.85,77.09L75.85,81.94L76.36,83.40L76.83,83.67L77.82,84.01L77.83,78.32L78.26,76.28L79.07,73.64L79.29,71.16L80.31,69.46L81.45,68.63L86.37,64.18L89.58,62.71L93.29,62.23L95.01,61.20L95.35,61.18zM109.62,63.76L109.30,63.67L109.66,63.48zM107.86,63.44L105.77,64.10L106.42,63.52L107.60,62.91L107.92,62.95zM41.34,67.14L43.54,68.64L49.48,71.86L49.97,71.92L49.72,68.62L49.72,65.00L50.20,60.80L51.45,57.61L53.94,53.44L55.90,50.97L59.99,48.16L64.18,46.18L65.17,45.94L66.77,46.04L64.68,46.93L58.27,50.38L54.66,52.93L54.43,54.18L53.68,54.66L52.42,56.61L52.21,57.88L51.60,58.25L51.18,59.07L50.95,61.31L50.95,73.90L50.47,73.83L40.35,68.13L36.42,65.65L35.63,64.67L35.65,64.18zM105.45,64.53L104.29,64.85L105.35,64.18L105.77,64.10zM188.28,65.67L188.30,66.49L187.79,66.14L187.21,66.13L186.29,67.21L186.30,68.12L187.29,68.62L187.25,68.86L186.01,68.89L185.74,68.62L185.81,66.75L186.49,66.17L186.96,65.38zM91.79,65.45L91.28,65.42L94.09,63.75L94.83,63.67zM103.38,65.90L102.06,66.06L103.87,64.91L104.29,64.85zM103.47,67.22L102.87,67.15L103.39,66.63L103.51,66.66zM101.73,66.72L99.70,67.66L98.95,67.66L101.65,66.14L102.06,66.06zM92.13,60.81L91.07,61.24L88.35,61.48L86.13,62.21L83.67,63.69L81.67,65.64L79.58,67.51L78.99,67.75L79.06,66.00L81.94,63.94L89.65,59.82L92.13,58.99zM118.83,68.02L117.75,68.71L117.75,68.24L118.45,67.85zM107.68,68.21L107.10,68.65L106.34,68.64L107.66,68.11zM98.31,68.21L96.97,69.36L95.65,69.52L98.00,68.10zM119.47,69.94L119.41,69.12L120.03,68.89zM190.90,70.57L192.41,68.82L192.71,68.84L192.74,70.20L192.16,70.87L191.20,70.87zM97.05,70.69L96.73,70.71L96.81,70.15L97.09,70.11zM95.32,70.17L93.52,70.86L93.01,70.84L95.65,69.52zM111.59,72.16L111.57,71.68L112.60,71.57zM105.14,72.78L105.42,72.83L105.47,73.11L105.19,73.06zM92.20,71.69L91.13,72.15L90.14,72.88L89.24,72.97L91.39,71.67L92.36,71.31zM106.87,74.03L106.09,74.07L106.92,73.78zM90.66,74.11L90.15,74.39L90.14,73.90L90.69,73.57zM88.19,74.65L88.16,73.86L88.64,73.11L89.24,72.97zM105.42,75.36L105.41,74.88L106.68,74.78zM107.50,76.19L107.06,76.08L107.07,75.76L107.39,75.75zM91.46,77.13L91.22,78.16L91.38,76.98zM100.35,78.41L99.92,78.51L98.28,79.32L98.20,78.76L99.18,78.23zM100.60,79.90L100.39,79.45L100.78,79.22zM288.14,83.90L288.00,85.32L287.88,84.66L287.14,84.14L286.64,84.21L286.56,83.96L287.64,83.18zM288.00,85.32L287.90,85.75L287.65,85.68L287.61,84.91zM286.16,85.89L286.91,86.14L286.33,86.38L286.90,86.64L285.64,86.64L285.10,86.45L285.18,84.63L285.36,86.01L285.64,86.00L285.90,85.13zM116.18,86.88L115.70,86.88L116.20,86.36L116.61,86.29zM93.54,88.77L93.85,88.59L93.85,89.93zM90.40,85.22L90.32,88.91L90.91,89.30L90.61,89.60L90.39,90.39L90.32,95.57L90.91,95.96L90.61,96.25L90.39,97.05L90.40,99.44L96.32,102.66L93.35,104.21L92.62,104.40L89.42,102.64L88.41,102.42L84.41,99.93L84.73,92.76L84.90,99.76L88.94,101.99L88.92,95.33L89.34,88.84L90.57,80.46L91.22,78.16zM114.65,88.98L114.39,89.75L114.57,88.83zM94.12,91.06L93.61,91.10L93.09,90.77L93.03,90.55L93.32,90.53zM125.12,90.80L124.30,90.80L124.56,90.54L125.17,90.54zM97.33,92.79L96.82,92.82L96.29,92.50L96.24,92.27L96.53,92.26zM141.23,96.44L141.93,97.96L141.93,99.52L141.36,101.42L139.96,103.71L138.87,104.60L137.92,105.13L136.00,105.13L133.54,103.89L133.01,103.39L133.04,102.89L134.29,103.67L134.79,103.73L134.77,102.49L135.01,100.74L136.18,98.46L137.41,96.98L139.20,96.06L140.20,95.98zM94.12,97.72L93.61,97.75L93.09,97.43L93.03,97.20L93.32,97.19zM95.05,98.32L94.77,98.24L95.08,93.26zM83.76,99.24L83.80,99.49L82.98,99.15L82.92,98.93L83.22,98.91zM288.14,101.90L288.00,103.30L287.87,102.67L287.36,102.16L286.83,102.13L286.39,102.49L286.39,102.01L287.67,101.15zM288.00,103.30L287.90,103.75L287.06,104.62L285.91,104.62L285.09,104.46L285.13,102.37L285.38,102.34L285.37,104.01L285.64,104.00L285.90,103.13L286.16,103.90L287.06,103.88L287.63,102.92zM98.14,103.82L97.51,103.61L97.48,103.36L97.78,103.34zM44.07,107.35L44.07,107.91L43.06,107.87L42.31,108.62L42.24,109.88L43.10,110.32L43.10,110.60L41.74,110.63L41.80,108.58L42.94,107.08zM48.77,110.75L48.75,111.61L48.16,112.51L47.16,112.59L47.24,111.84L48.16,110.50L48.50,110.49zM288.15,119.89L288.15,120.98L287.40,120.12L286.82,120.13L286.39,120.49L286.39,120.01L287.67,119.15zM286.43,119.25L286.34,118.94L286.63,118.89zM287.91,121.72L286.83,122.64L285.91,122.64L285.16,122.37L285.15,121.66L285.57,121.92L285.91,121.13L286.17,121.90L286.83,121.92L287.64,120.89zM285.16,121.23L285.12,120.37L285.38,120.33zM214.68,123.45L214.33,123.86L213.59,123.87L213.84,121.89L214.69,121.64zM44.03,125.34L44.33,126.14L43.55,125.79L42.98,125.79L42.31,126.62L42.32,127.79L43.09,128.26L43.01,128.53L41.74,128.63L41.82,126.88L42.01,126.08L42.58,125.67L42.97,125.05zM48.77,128.75L48.75,129.61L48.16,130.51L47.15,130.59L47.42,129.27L48.16,128.50L48.50,128.49zM218.85,135.70L219.75,135.68L220.78,134.18L221.06,134.17L221.06,136.44L221.99,136.45L223.07,135.69L222.54,137.23L222.46,138.74L223.81,138.90L223.83,139.20L222.53,140.92L222.55,142.09L223.08,142.58L223.08,143.17L221.97,143.81L221.55,144.38L221.33,146.87L220.24,147.01L219.50,147.51L218.77,150.01L218.36,150.01L217.39,149.49L217.02,149.69L215.66,151.83L215.21,150.67L214.91,150.45L214.33,150.45L212.93,151.81L212.93,149.73L212.48,149.49L211.39,150.00L210.38,150.00L211.22,149.33L211.72,148.35L211.71,147.53L211.23,147.25L209.87,147.02L211.47,145.40L211.48,144.29L210.16,143.34L211.20,142.66L212.18,142.16L212.70,141.45L212.70,140.36L212.43,139.89L212.34,139.14L214.33,138.89L214.92,137.75L215.08,135.90L215.39,135.88L216.16,136.68L216.55,136.71L217.38,136.02L218.07,134.18L218.32,134.18zM44.03,143.34L44.33,144.14L43.55,143.79L42.98,143.79L42.31,144.62L42.32,145.79L43.30,146.28L43.04,146.55L41.82,146.55L41.82,144.88L42.01,144.08L42.81,143.39L43.00,143.08zM208.78,145.30L208.78,145.63L208.51,145.56L208.51,145.03zM48.77,146.75L48.75,147.61L48.16,148.50L47.15,148.59L47.42,147.27L48.16,146.50L48.50,146.48zM143.93,161.33L143.64,162.64L143.17,161.80L142.56,161.56L143.43,160.83zM141.17,162.38L140.86,162.29L141.22,162.10zM142.10,163.63L143.16,164.03L142.89,164.30L141.68,164.29L140.83,164.00L141.45,163.84L141.86,162.55zM242.77,97.55L94.35,177.46L94.27,136.18L242.79,56.30zM143.94,179.32L143.94,180.86L143.50,180.75L143.44,180.02L142.56,179.55L143.43,178.83zM141.17,180.38L140.86,180.29L141.22,180.09zM143.65,181.42L142.82,182.27L141.66,182.31L141.10,182.06L141.19,181.83L141.44,181.83L141.86,180.55L142.10,181.65L142.83,181.55L143.50,180.75zM143.95,197.31L143.90,197.89L143.94,198.86L143.50,198.74L143.44,198.02L142.57,197.56L143.08,197.05L143.67,197.03zM143.65,199.28L142.83,200.28L141.66,200.30L141.09,200.08L141.94,198.29L142.18,199.57L142.82,199.56L143.50,198.74zM241.53,59.47L241.06,60.83L240.48,61.26L239.81,61.26L239.79,59.81L240.47,58.98L241.04,58.98zM241.57,67.86L241.55,68.71L240.71,69.85L239.74,69.94L239.47,69.12L240.07,67.98L240.46,67.62L241.31,67.60zM241.57,71.33L241.56,71.91L241.06,72.91L240.47,73.34L239.82,73.32L239.55,73.05L239.53,72.40L240.31,70.92L241.04,70.81zM125.95,73.79L125.93,74.37L125.58,75.03L124.59,75.13L124.67,73.88L125.08,73.53L125.67,73.51zM221.74,76.53L221.22,76.61L221.30,76.09L221.83,76.01zM241.53,77.46L241.06,78.83L240.48,79.26L239.81,79.25L239.82,77.59L240.47,76.98L241.04,76.98zM233.67,77.84L233.30,78.26L232.83,78.34L232.91,77.33L233.33,76.96L233.65,76.99zM233.67,81.16L233.57,82.20L232.82,82.28L232.91,81.27L233.44,80.93zM108.94,82.91L108.84,83.68L108.07,84.44L107.66,84.43L107.64,83.23L108.06,82.64L108.66,82.63zM205.08,85.11L204.97,85.66L204.46,85.73L204.55,84.95L204.84,84.87zM101.91,85.42L101.41,85.49L101.45,84.96L101.70,84.62L101.99,84.63zM101.82,83.80L101.27,84.26L100.73,85.75L100.45,85.76L100.52,84.49L101.43,83.62zM201.12,86.84L201.11,88.43L200.84,89.16L200.11,90.64L198.57,92.06L196.66,92.04L196.16,91.07L196.16,89.65L196.66,88.18L198.03,86.35L198.79,85.86L199.63,85.87zM114.80,92.06L116.05,92.28L115.75,92.57L115.05,92.57L113.96,92.09L113.97,91.80L114.29,91.76zM126.93,93.26L126.64,94.35L125.81,95.25L124.93,95.25L124.35,94.51L124.93,92.88L125.33,92.50L125.65,92.51zM118.76,93.72L117.80,94.87L115.48,96.01L113.95,95.97L114.18,95.73L115.73,95.51L117.42,94.49L118.56,93.52zM119.90,76.26L118.17,76.75L116.45,77.74L114.73,78.98L112.74,80.93L111.14,83.03L109.55,85.63L107.83,89.83L107.15,93.86L107.43,98.04L107.15,97.77L106.91,96.74L106.92,92.13L107.65,88.66L109.41,84.76L112.11,80.80L114.24,78.73L117.68,76.51L119.41,76.01L121.98,76.02zM241.53,95.46L241.06,96.82L240.48,97.26L239.81,97.25L239.82,95.58L240.82,94.75zM138.92,97.68L140.45,98.70L140.46,100.51L139.65,102.17L138.17,103.40L136.75,103.39L136.24,102.67L136.24,100.99L137.14,99.17L137.50,98.79L137.66,97.97L138.93,97.45zM122.03,95.63L121.38,96.48L119.88,98.22L119.40,98.22L121.14,96.24L121.99,95.51zM119.01,98.77L117.90,99.66L116.86,100.10L117.94,99.21L118.99,98.67zM116.48,100.46L115.63,100.60L116.19,100.16L116.86,100.10zM114.79,100.98L113.47,100.92L114.90,100.85zM189.04,102.00L188.82,102.29L188.21,102.51L188.28,101.23L189.02,101.15zM176.37,102.37L176.86,101.62L177.44,101.65L177.39,102.42L176.72,102.99zM108.94,103.12L108.84,103.89L108.07,104.66L107.66,104.64L107.64,103.45L108.06,102.86L108.66,102.85zM174.73,104.36L175.45,105.37L176.20,106.83L177.91,107.84L178.42,110.05L178.42,113.08L178.17,114.81L177.43,117.52L175.46,121.71L172.90,125.31L170.55,127.40L168.48,128.78L166.27,129.78L162.88,129.77L161.91,129.51L160.66,128.54L159.69,127.54L158.93,125.84L158.69,124.59L158.70,119.74L159.12,117.70L159.93,115.31L161.41,112.34L163.28,109.53L165.25,107.31L167.74,105.36L170.45,104.13L171.44,103.88L173.75,103.87zM189.04,105.94L188.82,106.24L188.21,106.45L188.28,105.17L189.02,105.10zM160.44,111.61L160.22,111.91L159.61,112.12L159.68,110.85L160.42,110.77zM140.70,119.17L140.70,121.22L139.96,122.95L138.17,124.61L136.50,124.59L135.99,123.87L136.00,121.45L137.02,119.51L138.39,118.41L139.22,118.41zM176.37,122.59L176.86,121.83L177.44,121.87L177.39,122.64L176.72,123.21zM160.44,131.83L160.22,132.12L159.61,132.34L159.68,131.06L160.42,130.98zM97.34,136.90L97.32,137.75L96.47,138.89L95.57,138.91L95.56,137.47L96.23,136.65L97.08,136.63zM217.56,140.10L219.12,141.09L219.10,142.92L218.61,144.15L216.82,145.81L215.40,145.79L214.89,144.83L214.90,143.39L215.79,141.58L216.79,140.12L217.64,139.64zM97.34,154.89L97.32,155.74L96.47,156.89L95.57,156.91L95.56,155.47L96.23,154.65L97.08,154.63zM97.34,172.89L97.32,173.74L96.56,174.73L95.80,174.93L95.51,174.73L95.56,173.47L96.23,172.65L97.08,172.63z"/><g id="Actor_3.0"><g style="stroke:#000000;stroke-width:0.176"><path d="M140.83,177.79L142.16,178.51L141.90,179.00L141.61,179.40L141.28,179.76L140.82,180.16L139.49,179.44"/><path d="M140.82,182.00L140.92,181.55L140.94,181.14L140.99,180.71L141.12,180.25L141.34,179.80L141.61,179.40L141.94,179.06L141.96,179.05L142.29,178.82L142.64,178.69L142.95,178.68L143.23,178.78L143.45,178.91L143.55,178.97"/><path d="M140.82,180.16L140.92,180.71L140.94,181.14L140.99,181.53L141.12,181.84L141.34,182.06L141.49,182.14"/><path d="M142.43,182.05L142.38,182.06L142.11,181.96L141.92,181.74L141.83,181.40L141.83,181.36L141.85,180.99L141.97,180.55L142.19,180.13L142.48,179.78L142.81,179.52L142.94,179.47L143.15,179.40L143.45,179.42L143.68,179.58L143.83,179.86L143.86,180.24L143.79,180.67L143.61,181.11L143.35,181.50L143.04,181.81L142.70,182.00L142.43,182.05"/><path d="M143.40,179.41L143.50,179.48L143.64,179.76L143.68,180.14L143.60,180.57L143.43,181.01L143.17,181.40L142.85,181.71L142.52,181.90L142.20,181.96L142.07,181.91"/><path d="M141.89,180.83L141.88,181.14L141.95,181.40L142.10,181.57L142.30,181.64L142.55,181.60L142.81,181.46L143.05,181.22L143.25,180.92L143.38,180.58L143.44,180.25L143.41,179.96L143.30,179.74L143.12,179.62L142.89,179.61L142.64,179.70L142.39,179.89"/><path d="M141.97,180.55L141.92,180.72"/><path d="M142.16,178.51L142.62,178.62L142.95,178.68L143.24,178.71L143.51,178.71"/></g><g style="stroke:#000000;stroke-width:0.529"><path d="M139.49,181.28L139.40,180.73L139.37,180.29L139.40,179.89L139.49,179.44L139.76,178.94L140.04,178.55L140.37,178.19L140.83,177.79L141.10,177.80L141.38,177.83L141.71,177.89L142.17,177.99L143.51,178.71L143.55,178.97L143.76,179.12L143.81,179.16L143.84,179.22L144.02,179.58L144.07,180.06L144.07,180.11L143.98,180.64L143.76,181.18L143.44,181.67L143.05,182.05L143.02,182.07L142.59,182.32L142.18,182.39L142.11,182.39L142.05,182.37L141.70,182.25L141.49,182.14L141.28,182.10L140.82,182.00L139.49,181.28"/></g></g><g id="Actor_3.1"><g style="stroke:#000000;stroke-width:0.176"><path d="M283.58,83.84L284.92,84.56L285.01,85.10L285.04,85.54L285.01,85.95L284.92,86.40"/><path d="M285.58,86.54L285.44,86.46L285.22,86.24L285.08,85.93L285.04,85.54L285.09,85.10L285.22,84.64L285.44,84.19L285.71,83.80L286.03,83.47L286.38,83.22L286.73,83.09L287.05,83.08L286.72,83.02L286.26,82.91L285.99,83.41L285.71,83.80L285.38,84.16L284.92,84.56"/><path d="M285.93,85.63L285.93,85.46L286.04,85.03L286.05,85.01L285.98,85.28L285.98,85.59L286.06,85.83L286.22,85.99L286.44,86.04L286.69,85.98L286.94,85.82L287.18,85.57L287.37,85.26L287.49,84.92L287.50,84.90L287.53,84.60L287.49,84.32L287.37,84.12L287.18,84.01L286.94,84.01L286.69,84.13L286.46,84.32L286.53,84.23L286.85,83.95L287.19,83.81L287.50,83.80L287.74,83.94L287.90,84.21L287.96,84.57L287.90,85.00L287.74,85.43L287.50,85.84L287.19,86.17L286.85,86.38L286.53,86.46L286.25,86.39L286.04,86.18L285.93,85.86L285.93,85.63"/><path d="M286.26,82.91L284.92,82.19"/><path d="M286.17,86.32L286.34,86.36L286.67,86.28L287.00,86.07L287.31,85.74L287.56,85.33L287.72,84.90L287.77,84.47L287.72,84.11L287.56,83.84L287.49,83.80"/><path d="M286.75,86.69L286.75,86.69"/><path d="M286.05,85.01L286.25,84.60L286.46,84.32"/><path d="M287.60,83.11L287.33,83.11L287.05,83.08L287.32,83.18L287.64,83.37"/></g><g style="stroke:#000000;stroke-width:0.529"><path d="M286.75,86.69L286.34,86.79L286.28,86.79L285.91,86.70L285.84,86.68L285.58,86.54L285.38,86.50L284.92,86.40L283.58,85.68L283.49,85.13L283.46,84.69L283.49,84.29L283.58,83.84L283.85,83.34L284.14,82.95L284.47,82.59L284.92,82.19L285.19,82.20L285.48,82.23L285.81,82.29L286.27,82.39L287.60,83.11L287.64,83.37L287.81,83.47L287.86,83.51L288.07,83.86L288.10,83.91L288.17,84.38L288.17,84.42L288.10,84.95L287.90,85.49L287.59,85.99L287.21,86.39L286.75,86.69"/></g></g><g id="Actor_2.0"><g style="stroke:#000000;stroke-width:0.176"><path d="M186.24,68.93L185.91,68.74L185.70,68.39L185.63,67.91L185.70,67.36L185.91,66.78L186.23,66.25L186.30,66.17L185.63,66.99L184.72,66.50"/><path d="M188.31,65.55L187.64,65.45L187.51,65.44L187.08,65.54L186.64,65.82L186.30,66.17L186.97,65.35L187.64,65.45L187.87,65.53L187.96,65.58L187.59,65.49L187.17,65.59L186.73,65.87L186.32,66.30L186.00,66.83L185.79,67.40L185.79,67.42L185.72,67.96L185.79,68.44L186.00,68.79L186.32,68.97"/><path d="M185.63,66.99L185.63,68.84"/><path d="M186.52,68.97L186.73,68.97L187.17,68.77L187.20,68.75L186.52,68.39L186.50,68.38"/><path d="M186.97,65.35L186.06,64.86"/><path d="M187.20,68.75L187.20,68.75"/><path d="M188.40,66.54L187.61,66.12"/><path d="M187.96,65.58L188.24,65.84L188.31,66.06"/><path d="M187.81,66.23L187.81,66.23"/><path d="M191.47,71.04L191.25,70.92L191.15,70.74L191.11,70.68L191.07,70.36L191.11,69.99L191.25,69.61L191.47,69.25L191.74,68.97L192.03,68.78L192.32,68.71L192.57,68.77"/><path d="M192.15,70.83L191.89,70.94L191.66,70.94L191.47,70.84L191.35,70.64L191.31,70.36L191.35,70.04L191.47,69.71L191.66,69.41L191.89,69.16L192.15,69.00L192.39,68.94L192.60,68.99L192.76,69.15L192.84,69.39"/></g><g style="stroke:#000000;stroke-width:0.529"><path d="M185.49,68.76L184.72,68.35L184.63,67.80L184.60,67.36L184.63,66.95L184.72,66.50L184.99,66.01L185.27,65.62L185.60,65.25L186.06,64.86L186.33,64.86L186.61,64.89L186.94,64.95L187.40,65.06L188.31,65.55L188.31,66.06L188.38,66.26L188.40,66.52L188.40,66.54L192.57,68.77L192.75,68.95L192.84,69.23L192.84,69.39L192.84,69.69L192.76,70.02L192.60,70.34L192.39,70.62L192.15,70.83L192.03,70.90L191.74,71.03L191.47,71.04L187.20,68.75L186.97,69.04L186.52,68.97L186.32,68.97L186.24,68.93L185.63,68.84L185.49,68.76"/></g></g><g id="Actor_3.2"><g style="stroke:#000000;stroke-width:0.176"><path d="M283.58,101.80L284.92,102.52L285.01,103.06L285.04,103.51L285.01,103.92L284.92,104.37"/><path d="M285.58,104.51L285.44,104.43L285.22,104.21L285.08,103.89L285.04,103.51L285.09,103.07L285.22,102.61L285.44,102.16L285.71,101.76L286.03,101.43L286.38,101.19L286.73,101.06L287.05,101.04L286.72,100.98L286.26,100.88L285.99,101.37L285.71,101.76L285.38,102.12L284.92,102.52"/><path d="M285.95,103.89L286.04,104.15L286.25,104.36L286.53,104.42L286.85,104.35L287.19,104.13L287.50,103.81L287.74,103.40L287.90,102.96L287.96,102.54L287.90,102.17L287.74,101.91L287.50,101.77L287.19,101.77L286.85,101.92L286.53,102.19L286.25,102.56L286.04,102.99L285.93,103.43L285.93,103.83L285.95,103.89"/><path d="M286.26,100.88L284.92,100.16"/><path d="M286.05,102.97L285.98,103.25L285.98,103.56L286.06,103.80L286.22,103.96L286.44,104.01L286.69,103.95L286.94,103.79L287.18,103.54L287.37,103.23L287.49,102.89L287.53,102.57L287.49,102.29L287.37,102.08L287.18,101.98L286.94,101.98L286.69,102.09L286.46,102.29"/><path d="M286.76,104.65L286.75,104.65"/><path d="M286.17,104.28L286.34,104.32L286.67,104.25L287.00,104.03L287.31,103.70L287.56,103.30L287.72,102.86L287.77,102.44L287.72,102.07L287.56,101.81L287.49,101.77"/><path d="M287.60,101.08L287.33,101.07L287.05,101.04L287.33,101.14L287.64,101.34"/><path d="M287.18,101.98L287.37,102.08"/></g><g style="stroke:#000000;stroke-width:0.529"><path d="M286.76,104.65L287.21,104.36L287.59,103.96L287.90,103.46L288.10,102.91L288.17,102.39L288.17,102.34L288.10,101.88L288.07,101.82L287.86,101.48L287.81,101.44L287.64,101.34L287.60,101.08L286.27,100.36L285.81,100.25L285.48,100.19L285.19,100.16L284.92,100.16L284.47,100.55L284.13,100.92L283.85,101.31L283.58,101.80L283.49,102.25L283.46,102.66L283.49,103.10L283.58,103.65L284.92,104.37L285.38,104.47L285.58,104.51L285.84,104.65L285.91,104.67L286.28,104.76L286.34,104.75L286.75,104.65"/></g></g><g id="Actor_8.0"><g style="stroke:#000000;stroke-width:0.176"><path d="M213.05,121.26L213.05,121.40L213.10,121.47L213.14,121.53L213.30,121.64L213.52,121.72L213.77,121.75L214.03,121.74L214.27,121.68L214.36,121.63L214.46,121.58L214.58,121.46L214.62,121.32"/><path d="M213.78,121.62L213.57,121.59L213.39,121.53L213.25,121.44L213.18,121.33L213.18,121.21L213.24,121.10L213.38,121.01L213.56,120.94L213.66,120.92L213.77,120.91L213.98,120.92L214.18,120.96L214.34,121.04L214.45,121.14L214.49,121.26L214.45,121.37L214.35,121.48L214.20,121.56L214.00,121.61L213.78,121.62"/><path d="M213.71,121.03L213.39,121.20L213.51,121.44L213.71,121.47L213.71,121.03L214.15,121.09L214.15,121.39L214.27,121.33L214.15,121.09"/><path d="M213.71,121.47L213.95,121.50L214.15,121.39"/></g><g style="stroke:#000000;stroke-width:0.529"><path d="M214.44,123.65L214.53,123.58L214.61,123.45L214.62,121.32L214.57,121.18L214.45,121.06L214.25,120.97L214.01,120.91L213.75,120.90L213.62,120.92L213.50,120.94L213.29,121.02L213.13,121.13L213.05,121.26L213.04,123.39L213.04,123.41"/></g></g><g id="Actor_5.0"><g style="stroke:#000000;stroke-width:0.176"><path d="M25.28,21.73L25.57,22.18L25.45,21.87L25.45,21.48L25.54,21.05L25.56,21.00L25.28,21.73L24.60,21.37"/><path d="M24.69,21.01L24.80,20.56L25.05,20.10"/><path d="M25.18,19.86L25.86,20.22L25.56,21.00"/><path d="M25.67,19.50L25.67,19.49L25.38,19.71"/><path d="M27.28,19.96L27.04,19.84L26.73,19.86L26.40,20.01L26.08,20.29L25.81,20.66L25.61,21.09L25.51,21.52L25.52,21.91L25.64,22.21L25.85,22.40L25.78,22.37L25.57,22.18L25.86,22.62"/><path d="M25.85,22.40L26.13,22.46L26.19,22.44"/><path d="M26.61,22.27L26.06,21.97"/><path d="M25.57,20.98L25.74,20.63L26.01,20.26L26.33,19.98L26.44,19.91L25.86,20.22"/><path d="M27.02,19.60L26.44,19.91L26.66,19.82L26.97,19.80L27.22,19.93L27.25,19.95"/><path d="M27.00,20.33L27.02,20.34L27.51,20.61L27.51,20.57L27.46,20.26"/><path d="M27.51,20.61L27.55,20.63"/><path d="M30.27,22.11L30.10,22.02L29.90,22.03L29.81,22.08L29.68,22.14L29.47,22.32L29.28,22.57L29.15,22.85L29.09,23.14L29.09,23.40L29.17,23.60L29.31,23.73"/><path d="M30.42,22.63L30.39,22.43L30.29,22.29L30.15,22.22L29.98,22.23L29.80,22.32L29.62,22.47L29.47,22.68L29.36,22.92L29.30,23.16L29.31,23.38L29.37,23.55L29.49,23.65L29.65,23.68L29.83,23.64"/></g><g style="stroke:#000000;stroke-width:0.529"><path d="M25.67,19.49L26.34,19.23L27.02,19.60L27.25,19.95L27.28,19.96L27.38,20.08L27.45,20.22L27.46,20.26L27.60,20.48L27.55,20.63L30.27,22.11L30.38,22.27L30.42,22.51L30.42,22.63L30.40,22.86L30.31,23.10L30.18,23.33L30.01,23.51L29.83,23.64L29.72,23.71L29.50,23.77L29.31,23.73L26.61,22.27L26.45,22.37L26.19,22.44L25.86,22.62L25.18,22.25L24.80,21.76L24.60,21.37L24.69,21.01L24.70,20.90L24.80,20.56L24.96,20.23L25.05,20.10L25.18,19.86L25.38,19.71L25.41,19.67L25.67,19.50"/></g></g><g id="Actor_3.3"><g style="stroke:#000000;stroke-width:0.176"><path d="M139.49,197.40L140.82,198.12L140.92,198.66L140.94,199.11L140.92,199.52L140.82,199.97"/><path d="M141.48,200.11L141.34,200.03L141.12,199.81L140.99,199.49L140.94,199.11L140.99,198.67L141.11,198.26L141.13,198.21L141.34,197.76L141.61,197.37L141.93,197.03L142.28,196.79L142.64,196.66L142.95,196.64L143.23,196.75L143.55,196.94"/><path d="M140.82,198.12L141.28,197.73L141.61,197.37L141.89,196.97L142.16,196.48L140.83,195.76"/><path d="M142.36,197.89L142.43,197.79L142.76,197.52L143.09,197.37L143.40,197.37L143.65,197.51L143.81,197.77L143.86,198.14L143.81,198.56L143.65,199.00L143.40,199.41L143.09,199.73L142.76,199.95L142.43,200.02L142.15,199.96L141.94,199.75L141.84,199.43L141.84,199.03L141.94,198.59L141.95,198.57L141.89,198.85L141.89,199.16L141.97,199.40L142.13,199.56L142.30,199.60L142.34,199.61L142.59,199.55L142.85,199.39L142.87,199.36L143.08,199.14L143.27,198.83L143.40,198.49L143.40,198.47L143.44,198.17L143.40,197.89L143.27,197.68L143.08,197.58L142.85,197.58L142.59,197.69L142.36,197.89L142.15,198.17L141.95,198.57"/><path d="M142.08,199.88L142.25,199.92L142.57,199.85L142.91,199.63L143.22,199.31L143.46,198.90L143.62,198.46L143.68,198.04L143.62,197.67L143.46,197.41L143.40,197.37"/><path d="M142.16,196.48L142.62,196.58L142.95,196.64L143.24,196.67L143.51,196.68"/><path d="M142.66,200.25L142.66,200.25"/><path d="M143.08,197.58L143.27,197.68"/></g><g style="stroke:#000000;stroke-width:0.529"><path d="M142.66,200.25L142.24,200.35L142.18,200.36L141.81,200.27L141.75,200.25L141.48,200.11L141.28,200.07L140.82,199.97L139.49,199.25L139.40,198.70L139.37,198.26L139.40,197.85L139.49,197.40L139.76,196.91L140.04,196.52L140.37,196.15L140.83,195.76L141.10,195.76L141.38,195.79L141.71,195.85L142.17,195.96L143.51,196.68L143.55,196.94L143.71,197.04L143.77,197.08L143.97,197.43L144.00,197.48L144.07,197.94L144.07,197.99L144.00,198.51L143.80,199.06L143.53,199.50L143.50,199.56L143.12,199.96"/><path d="M143.12,199.96L142.66,200.25"/></g></g><g id="Actor_2.1"><g style="stroke:#000000;stroke-width:0.176"><path d="M186.24,50.96L185.91,50.78L185.70,50.43L185.63,49.95L185.63,49.03L184.72,48.54"/><path d="M186.32,51.01L186.00,50.82L185.79,50.48L185.72,50.00L185.75,49.74L185.79,49.44L186.00,48.86L186.32,48.33L186.73,47.90L187.17,47.62L187.59,47.52L187.96,47.61L187.87,47.56L187.64,47.48L186.97,47.38L186.06,46.89"/><path d="M185.63,50.87L185.63,49.95L185.70,49.39L185.91,48.81L186.23,48.28L186.30,48.20L185.63,49.03"/><path d="M186.52,51.00L186.73,51.00L187.17,50.81L187.20,50.78L186.52,50.42L186.50,50.41"/><path d="M186.97,47.38L186.30,48.20L186.64,47.85L187.08,47.57L187.51,47.47L187.64,47.48L188.31,47.58"/><path d="M187.20,50.78L187.20,50.78"/><path d="M188.40,48.57L187.61,48.16"/><path d="M187.81,48.26L187.81,48.26"/><path d="M187.96,47.61L188.24,47.88L188.31,48.09"/><path d="M191.47,53.07L191.25,52.95L191.11,52.72L191.07,52.40L191.11,52.03L191.25,51.64L191.47,51.29L191.74,51.00L192.03,50.81L192.32,50.75L192.57,50.81"/><path d="M192.15,52.86L191.89,52.97L191.66,52.98L191.47,52.87L191.35,52.67L191.31,52.40L191.35,52.08L191.47,51.75L191.66,51.44L191.89,51.19L192.15,51.03L192.39,50.97L192.60,51.03L192.76,51.18L192.84,51.42"/></g><g style="stroke:#000000;stroke-width:0.529"><path d="M184.62,49.74L184.63,49.83L184.72,50.38L185.63,50.87L186.24,50.96L186.32,51.01L186.52,51.00L186.97,51.07L187.20,50.78L191.47,53.07L191.74,53.07L192.03,52.94L192.15,52.86L192.39,52.66L192.60,52.38L192.76,52.05L192.84,51.72L192.84,51.42L192.84,51.27L192.75,50.99L192.57,50.81L188.40,48.57L188.40,48.55L188.38,48.30L188.31,48.09L188.31,47.58L187.40,47.09L186.94,46.99L186.61,46.93L186.33,46.90L186.06,46.89L185.60,47.29L185.27,47.65L184.99,48.04L184.72,48.54L184.63,48.99L184.60,49.39L184.62,49.74"/></g></g><g id="Actor_2.2"><g style="stroke:#000000;stroke-width:0.176"><path d="M44.21,107.25L43.54,107.15L43.41,107.14L42.98,107.24L42.54,107.52L42.20,107.87L42.14,107.95L41.81,108.48L41.60,109.06L41.53,109.62L41.53,108.69L40.62,108.20"/><path d="M41.53,110.54L41.53,109.62L41.60,110.10L41.81,110.44L42.15,110.63"/><path d="M44.21,107.76L44.14,107.55L43.87,107.28L43.50,107.19L43.07,107.29L42.63,107.57L42.23,108.00L41.90,108.53L41.69,109.11L41.62,109.66L41.69,110.14L41.90,110.49L42.23,110.67"/><path d="M41.53,108.69L42.87,107.05L41.96,106.56"/><path d="M42.40,110.08L42.42,110.09L43.10,110.45L43.07,110.47L42.63,110.67L42.42,110.67"/><path d="M42.87,107.05L43.54,107.15L43.78,107.23L43.87,107.28"/><path d="M43.10,110.45L43.10,110.45"/><path d="M43.52,107.82L44.30,108.24"/><path d="M43.72,107.93L43.71,107.93"/><path d="M47.38,112.74L47.16,112.62L47.02,112.38L46.97,112.07L47.02,111.69L47.16,111.31L47.38,110.96L47.64,110.67L47.87,110.53L47.94,110.48L48.22,110.42L48.47,110.47"/><path d="M48.05,112.53L47.80,112.64L47.57,112.65L47.38,112.54L47.26,112.34L47.22,112.07L47.26,111.74L47.38,111.41L47.57,111.11L47.80,110.86L48.05,110.70L48.30,110.64L48.51,110.69L48.66,110.85L48.75,111.09"/></g><g style="stroke:#000000;stroke-width:0.529"><path d="M40.85,110.17L40.62,110.05L40.53,109.50L40.50,109.06L40.53,108.65L40.62,108.20L40.89,107.71L41.17,107.32L41.51,106.96L41.96,106.56L42.23,106.56L42.51,106.60L42.85,106.66L43.30,106.76L44.21,107.25L44.21,107.76L44.28,107.97L44.30,108.22L44.30,108.24L48.47,110.47L48.65,110.65L48.75,110.93L48.75,111.09L48.75,111.39L48.66,111.72L48.51,112.04L48.30,112.32L48.05,112.53L47.94,112.61L47.64,112.73L47.38,112.74L43.10,110.45L42.87,110.74L42.42,110.67L42.23,110.67L42.15,110.63L41.53,110.54L40.85,110.17"/></g></g><g id="Actor_2.3"><g style="stroke:#000000;stroke-width:0.176"><path d="M186.32,33.04L186.00,32.86L185.79,32.51L185.72,32.03L185.79,31.47L186.00,30.90L186.32,30.37L186.73,29.94L187.17,29.66L187.59,29.55L187.96,29.64L187.87,29.60L187.64,29.52L187.51,29.51L187.08,29.61L186.64,29.89L186.30,30.24L185.63,31.06L184.72,30.57"/><path d="M186.06,28.93L186.97,29.42L186.30,30.24L186.23,30.32L185.91,30.85L185.70,31.42L185.63,31.98L185.70,32.46L185.91,32.81L186.24,33.00"/><path d="M185.63,32.90L185.63,31.06"/><path d="M186.50,32.45L186.52,32.45L187.20,32.82L187.17,32.84L186.73,33.03L186.52,33.04"/><path d="M187.20,32.82L187.20,32.82"/><path d="M188.40,30.61L187.61,30.19"/><path d="M186.97,29.42L188.31,29.62"/><path d="M187.81,30.30L187.81,30.29"/><path d="M188.31,30.12L188.24,29.91L187.96,29.64"/><path d="M192.57,32.84L192.32,32.78L192.11,32.83L192.03,32.85L191.74,33.04L191.47,33.32L191.25,33.68L191.11,34.06L191.07,34.43L191.11,34.75L191.25,34.98L191.47,35.10"/><path d="M192.15,34.90L191.89,35.01L191.66,35.01L191.47,34.91L191.35,34.71L191.31,34.43L191.35,34.11L191.47,33.78L191.66,33.47L191.89,33.23L192.15,33.07L192.39,33.01L192.60,33.06L192.76,33.21L192.84,33.46"/></g><g style="stroke:#000000;stroke-width:0.529"><path d="M184.72,32.41L185.63,32.90L186.24,33.00L186.32,33.04L186.52,33.04L186.97,33.10L187.20,32.82L191.47,35.10L191.74,35.10L192.03,34.97L192.15,34.90L192.39,34.69L192.60,34.41L192.68,34.26L192.76,34.09L192.84,33.76L192.84,33.46L192.84,33.30L192.75,33.02L192.57,32.84L188.40,30.61L188.40,30.59L188.38,30.33L188.31,30.12L188.31,29.62L187.40,29.13L186.94,29.02L186.61,28.96L186.33,28.93L186.06,28.93L185.60,29.32L185.27,29.68L184.99,30.07L184.72,30.57L184.63,31.02L184.60,31.43L184.63,31.86L184.72,32.41"/></g></g><g id="Actor_3.4"><g style="stroke:#000000;stroke-width:0.176"><path d="M283.58,119.77L284.92,120.49L285.01,121.03L285.04,121.47L285.01,121.88L284.92,122.33"/><path d="M285.58,122.47L285.44,122.39L285.22,122.18L285.08,121.86L285.04,121.47L285.09,121.03L285.22,120.57L285.44,120.13L285.71,119.73L286.03,119.40L286.38,119.16L286.73,119.02L287.05,119.01L286.72,118.95L286.26,118.84L285.99,119.34L285.71,119.73L285.38,120.09L284.92,120.49"/><path d="M285.93,121.58L285.93,121.80L286.04,122.12L286.25,122.32L286.53,122.39L286.85,122.31L287.19,122.10L287.50,121.77L287.74,121.37L287.90,120.93L287.96,120.50L287.90,120.14L287.74,119.87L287.50,119.73L287.19,119.74L286.85,119.89L286.53,120.16L286.25,120.53L286.04,120.96L285.93,121.40L285.93,121.58"/><path d="M286.26,118.84L284.92,118.12"/><path d="M286.46,120.25L286.69,120.06L286.94,119.95L287.18,119.94L287.37,120.05L287.49,120.25L287.53,120.53L287.49,120.86L287.37,121.19L287.18,121.50L286.94,121.75L286.69,121.92L286.44,121.98L286.22,121.92L286.06,121.77L285.98,121.52L285.98,121.22L286.05,120.94"/><path d="M286.17,122.25L286.34,122.29L286.67,122.21L287.00,122.00L287.31,121.67L287.56,121.27L287.72,120.83L287.77,120.40L287.72,120.04L287.56,119.77L287.49,119.73"/><path d="M286.75,122.62L286.75,122.62"/><path d="M287.60,119.04L287.33,119.04L287.05,119.01L287.33,119.11L287.64,119.30"/><path d="M287.18,119.94L287.37,120.05"/></g><g style="stroke:#000000;stroke-width:0.529"><path d="M286.75,122.62L286.34,122.72L286.28,122.72L285.91,122.64L285.84,122.62L285.58,122.47L285.38,122.44L284.92,122.33L283.58,121.61L283.49,121.06L283.46,120.63L283.49,120.22L283.58,119.77L283.85,119.27L284.13,118.88L284.47,118.52L284.92,118.12L285.19,118.13L285.48,118.16L285.81,118.22L286.27,118.32L287.60,119.04L287.64,119.30L287.81,119.40L287.86,119.44L288.07,119.79L288.10,119.84L288.17,120.31L288.17,120.35L288.10,120.88L287.90,121.42L287.59,121.92L287.21,122.33L286.75,122.62"/></g></g><g id="Actor_3.5"><g style="stroke:#000000;stroke-width:0.176"><path d="M140.82,164.03L140.92,163.59L140.94,163.18L140.92,162.73L140.82,162.19L139.49,161.47"/><path d="M141.48,164.18L141.34,164.10L141.12,163.88L140.99,163.56L140.94,163.18L140.99,162.74L141.13,162.28L141.34,161.83L141.61,161.43L141.89,161.04L142.16,160.55L140.83,159.83"/><path d="M140.82,162.19L141.28,161.79L141.61,161.43L141.93,161.10L142.28,160.86L142.64,160.72L142.95,160.71L143.23,160.81L143.55,161.01"/><path d="M142.36,161.95L142.43,161.86L142.76,161.59L143.09,161.44L143.40,161.44L143.65,161.57L143.81,161.84L143.86,162.21L143.81,162.63L143.65,163.07L143.40,163.47L143.09,163.80L142.76,164.01L142.43,164.09L142.15,164.02L141.94,163.82L141.84,163.50L141.84,163.10L141.94,162.66L141.96,162.64L141.89,162.92L141.89,163.22L141.97,163.47L142.13,163.63L142.34,163.68L142.59,163.62L142.85,163.46L142.87,163.43L143.08,163.20L143.27,162.90L143.40,162.56L143.40,162.53L143.44,162.23L143.40,161.95L143.27,161.75L143.08,161.65L142.85,161.65L142.59,161.76L142.36,161.95L142.15,162.23L141.96,162.64"/><path d="M142.08,163.95L142.25,163.99L142.57,163.91L142.91,163.70L143.22,163.37L143.46,162.97L143.62,162.53L143.68,162.11L143.62,161.74L143.46,161.47L143.40,161.44"/><path d="M142.16,160.55L142.62,160.65L142.95,160.71L143.24,160.74L143.51,160.75"/><path d="M143.27,161.75L143.08,161.65"/></g><g style="stroke:#000000;stroke-width:0.529"><path d="M139.98,163.58L139.49,163.31L139.40,162.77L139.37,162.33L139.40,161.92L139.49,161.47L139.76,160.98L140.04,160.58L140.37,160.22L140.83,159.83L141.10,159.83L141.38,159.86L141.71,159.92L142.17,160.03L143.51,160.75L143.55,161.01L143.71,161.10L143.77,161.15L143.97,161.49L144.00,161.54L144.07,162.01L144.07,162.06L144.00,162.58L143.80,163.12L143.50,163.62L143.12,164.03L142.66,164.32L142.24,164.42L142.18,164.43L141.81,164.34L141.75,164.32L141.48,164.18L141.28,164.14L140.82,164.03L139.98,163.58"/></g></g><g id="Actor_4.0"><g style="stroke:#000000;stroke-width:0.176"><path d="M35.10,62.00L35.25,62.72L35.27,63.14L35.20,63.49"/><path d="M35.00,61.37L35.09,61.96"/><path d="M34.99,61.35L34.98,61.01L35.02,60.61L35.04,60.13L35.02,59.82L34.94,59.32L34.89,58.58L34.89,58.72"/><path d="M34.82,57.12L34.89,58.58L35.04,57.43L35.04,57.11L34.98,56.37L34.99,55.97L35.26,54.49L35.27,53.99L35.20,53.40L35.33,52.80L35.89,51.10L36.66,49.43L38.72,45.87L39.77,44.38L40.95,43.08L41.39,42.68L41.98,42.43L42.45,42.15L42.55,42.07L41.66,42.57"/><path d="M34.81,57.55L34.82,57.57"/><path d="M34.98,56.37L34.86,54.76"/><path d="M34.75,55.74L34.76,55.79"/><path d="M34.80,53.87L34.80,53.91"/><path d="M40.74,43.03L41.39,42.68"/><path d="M40.83,42.94L43.06,41.56L42.36,42.00"/><path d="M43.45,41.33L41.24,42.62"/><path d="M44.46,70.32L43.73,69.53L43.16,68.39L42.85,67.01L42.64,64.41L42.64,61.68L42.85,58.84L43.16,57.13L43.73,55.38L44.53,53.67L46.60,50.08L47.67,48.55L48.88,47.23L50.19,46.15L52.47,44.67L54.76,43.43L57.04,42.46L58.34,42.13L59.44,42.15"/><path d="M42.55,42.07L43.00,41.67L43.43,41.33"/><path d="M45.27,40.27L45.71,39.98L45.27,40.27L44.94,40.53L44.71,40.68L43.78,41.13L43.46,41.32"/><path d="M43.28,41.46L43.18,41.53"/><path d="M43.77,41.14L43.54,41.27"/><path d="M44.56,40.76L44.94,40.53"/><path d="M47.69,39.02L47.22,39.33L46.98,39.46L46.79,39.54"/><path d="M49.66,68.53L49.63,68.18L49.63,65.44L49.84,62.61L50.16,60.89L50.72,59.14L51.52,57.43L53.59,53.85L54.67,52.32L55.88,50.99L57.18,49.92L59.46,48.44L61.75,47.20L64.03,46.22L65.34,45.90L66.55,45.92L66.97,46.07L64.74,46.89L61.24,48.78L60.61,49.05L59.97,49.46L57.59,50.75L54.70,52.79L54.60,52.87L54.52,52.98L54.46,53.10L54.42,53.22L54.41,53.34L54.41,54.21L53.44,54.81L52.26,56.86L52.19,57.98L51.52,58.35L51.42,58.41L51.33,58.51L51.26,58.62L51.21,58.74L51.18,58.87L50.78,62.54L50.78,64.74L50.67,66.25L50.78,67.65L50.78,71.05L51.11,73.72L50.72,73.30L50.16,72.16L49.84,70.78L49.66,68.53"/><path d="M49.08,38.54L49.34,38.45L49.64,38.30L49.86,38.12"/><path d="M50.78,67.65L50.78,64.74"/><path d="M51.17,74.20L51.11,73.72"/><path d="M54.51,57.32L54.21,57.16L54.15,57.08L54.12,56.97L54.13,56.83L54.18,56.69L54.25,56.55L54.35,56.44L54.44,56.37L54.57,56.32L54.66,56.33L77.41,68.59L76.94,69.40L54.51,57.32L53.35,57.96L52.79,57.66L52.19,57.98"/><path d="M52.26,56.86L53.37,57.46L54.56,55.41L53.44,54.81"/><path d="M53.35,57.96L53.37,57.46"/><path d="M54.41,76.14L75.61,87.57L75.56,87.50L75.53,87.40L75.13,84.17L75.13,75.66L75.53,71.99L75.56,71.86L75.68,71.63L75.77,71.53L75.87,71.46L77.14,70.78L76.58,70.48L76.61,69.98L76.94,69.40"/><path d="M54.97,56.49L54.97,55.16L54.56,55.41"/><path d="M54.41,54.21L54.41,54.86L54.97,55.16"/><path d="M59.97,49.46L61.24,48.78"/><path d="M66.97,46.07L67.11,46.01"/><path d="M78.94,51.82L67.81,45.82L67.73,45.80L67.49,45.87"/><path d="M67.57,45.31L67.76,45.26L67.88,45.27"/><path d="M67.93,45.12L67.61,45.29L68.27,44.94"/><path d="M71.44,55.44L69.43,54.36L69.43,53.49L71.44,54.58L71.44,55.44L73.45,54.36L73.45,53.49L71.44,54.58"/><path d="M73.45,53.49L71.44,52.41L69.43,53.49"/><path d="M81.11,46.95L72.61,42.38L72.37,42.29L72.15,42.31"/><path d="M80.96,47.27L72.61,42.77L72.48,42.73L72.35,42.73L71.83,43.01"/><path d="M75.61,87.57L75.68,87.60L75.77,87.60L75.87,87.57L76.71,87.12L79.12,88.41L79.88,88.90L79.85,89.40"/><path d="M79.12,88.41L78.98,86.11L77.03,85.05L76.23,83.55L75.74,81.73L75.57,79.67L75.74,77.44L76.23,75.09L77.03,72.73L77.14,70.78"/><path d="M78.87,89.69L78.81,89.64L78.77,89.56L78.76,89.45L78.76,88.35L77.79,87.82L76.71,87.12L77.14,86.88L77.03,85.05"/><path d="M77.03,72.73L78.98,73.78L78.55,74.96L77.85,77.59L77.54,80.12L77.64,82.46L78.15,84.51L78.98,86.11L79.03,86.18L79.96,87.11L79.88,88.90"/><path d="M76.61,69.98L79.12,71.33L80.31,69.28L77.79,67.93L78.20,67.68L78.76,67.98L78.76,66.46L78.77,66.34L78.81,66.22L78.95,65.99L79.05,65.91L81.94,63.87L89.09,60.01L91.99,58.94L92.08,58.92L92.16,58.94"/><path d="M77.41,68.59L77.79,67.93"/><path d="M79.87,88.95L78.76,88.35"/><path d="M79.12,71.33L78.98,73.78L79.61,72.36L81.00,69.87L82.30,68.04L80.34,66.99L78.76,67.98"/><path d="M81.87,73.93L81.67,74.33L80.61,77.09L79.91,79.86L79.61,82.52L79.71,85.00L80.02,86.35L80.55,81.37L81.45,75.88L82.67,70.31L86.70,72.49L85.48,77.93L84.54,83.48L83.94,88.92L83.66,94.23L83.73,99.17L79.82,97.07"/><path d="M79.96,87.11L80.02,86.35"/><path d="M80.31,69.28L82.30,68.04L82.65,67.61L84.50,65.67L86.47,64.13L88.48,63.05L90.45,62.47L92.30,62.41L92.65,62.47L90.69,61.42L92.27,60.69L92.27,60.30L94.44,61.46L95.17,61.07L95.26,61.03L95.35,61.03L95.42,61.07"/><path d="M80.34,66.99L81.97,65.16L83.71,63.64L85.52,62.47L87.32,61.70L89.06,61.34L90.69,61.42"/><path d="M79.78,52.27L88.95,57.21"/><path d="M82.67,70.31L95.82,63.23L94.80,63.51L94.58,63.59L94.22,63.66L92.11,64.56L89.99,65.94L88.76,67.03L89.38,66.48"/><path d="M82.79,53.74L82.57,53.39L82.42,53.10"/><path d="M81.81,47.73L87.02,50.54L87.16,50.64L87.29,50.78L87.38,50.95L87.45,51.14L87.47,51.31L87.47,56.41"/><path d="M87.81,56.60L87.81,51.49L87.77,51.18L87.66,50.86L87.48,50.56L87.27,50.31L87.02,50.14L81.95,47.40"/><path d="M83.73,99.17L83.73,99.35L84.62,99.84L88.70,102.50"/><path d="M83.73,99.35L86.05,100.87"/><path d="M84.62,99.84L84.56,94.71L84.83,89.40L85.44,83.96L86.37,78.41L87.64,72.79L107.86,61.90"/><path d="M92.78,104.49L88.87,101.94L84.79,99.75L88.70,102.30L88.88,102.40"/><path d="M84.79,99.75L84.70,94.67L84.95,89.43L85.52,84.05L86.42,78.56L87.64,72.99L107.86,62.10L107.93,62.14"/><path d="M84.97,68.36L84.72,68.62L84.84,69.07L85.21,68.65L84.89,68.26L84.78,68.05L84.74,67.83L84.79,67.52L84.93,67.28L85.07,67.14L85.24,67.03L85.49,66.93L85.81,66.93L86.10,67.06L86.27,67.22L86.36,67.32L85.21,68.65"/><path d="M84.84,69.07L84.73,69.21"/><path d="M86.70,72.49L86.74,72.31L106.78,61.52"/><path d="M86.74,72.31L87.64,72.79"/><path d="M86.36,67.32L86.40,67.28L86.34,67.30"/><path d="M86.40,67.28L86.61,67.03L88.65,65.22L90.77,63.84L92.88,62.94L93.64,62.80L92.65,62.47L94.64,61.56L95.62,62.20"/><path d="M87.20,49.02L86.99,49.00L86.75,49.09L86.47,49.24L87.53,49.81"/><path d="M87.92,74.70L88.71,75.12L88.63,75.06L88.54,74.90L88.54,74.37L87.92,74.70L88.25,73.32L87.64,72.99"/><path d="M88.25,73.32L108.47,62.43"/><path d="M88.87,101.94L88.78,96.87L89.02,91.63L89.60,86.25L90.50,80.76L91.38,76.60L91.38,76.70L91.50,76.77L90.10,86.99L90.10,88.84L90.35,89.27L90.43,89.85L90.35,90.53L90.10,91.23L90.10,95.49L90.35,95.92L90.43,96.51L90.35,97.19L90.10,97.89L90.10,99.28L92.33,100.74L96.04,102.74"/><path d="M88.87,73.28L88.87,73.81L89.11,74.28L89.11,73.75L88.87,73.28L89.52,72.93L90.40,73.06L90.64,73.53L89.99,73.88L89.11,73.75"/><path d="M89.11,74.28L89.99,74.41L90.64,74.06L90.64,73.53"/><path d="M90.42,73.09L90.87,73.33L91.16,73.55L91.24,73.67L91.16,73.79L90.87,74.00L90.26,74.34L90.17,74.40L90.03,74.59L89.99,74.71L89.98,75.02L88.81,74.39L88.63,74.26L88.54,74.11L88.54,74.37"/><path d="M88.54,74.11L88.54,73.95L88.63,73.79L88.87,73.63"/><path d="M88.36,51.38L88.36,52.52L88.64,52.37L88.85,52.22L88.95,52.04"/><path d="M100.82,105.32L98.59,103.86L90.10,99.28"/><path d="M90.10,97.89L98.59,102.46L98.83,101.76L98.92,101.08L98.92,94.43L98.83,93.84L98.59,93.41L90.10,88.84"/><path d="M90.10,95.49L94.79,98.02L95.04,98.45L95.12,99.04L95.12,92.38L95.04,93.06L94.79,93.76L90.10,91.23"/><path d="M89.99,74.41L89.99,73.88"/><path d="M90.04,73.00L90.16,72.95L90.34,73.05"/><path d="M91.24,73.67L91.32,73.54L91.32,73.27L91.16,73.02L90.87,72.80L90.43,72.56L90.34,72.53L90.26,72.54L90.20,72.58L90.16,72.65L90.14,72.95"/><path d="M90.26,72.54L91.02,72.14L90.97,72.18"/><path d="M89.74,66.51L90.63,65.78L91.66,65.05L92.71,64.42L93.76,63.91L94.58,63.59"/><path d="M91.50,76.77L99.19,80.91L99.43,81.01L99.75,81.06L99.79,80.93L100.01,80.93L100.30,80.88L100.47,80.82L100.03,81.06L99.79,80.93"/><path d="M91.02,72.14L91.24,72.03L91.64,71.94L92.11,71.69L92.58,71.31L92.71,71.23L92.98,71.07L93.27,70.96"/><path d="M92.28,89.82L92.59,90.08L92.90,90.21L93.18,90.22L93.41,90.09L93.56,89.84L93.61,89.50L93.56,89.11L93.41,88.70L93.18,88.32L92.90,88.02L92.59,87.82L92.28,87.75L92.02,87.81L91.83,88.00L91.73,88.32L91.73,88.67L91.83,89.08L92.02,89.48L92.28,89.82"/><path d="M92.81,88.78L93.00,89.02L93.00,89.27L92.74,89.41L92.66,89.45L92.33,89.04L92.81,88.78L92.81,88.70L92.66,88.53L92.33,88.58L92.33,89.04"/><path d="M92.66,89.45L93.00,89.40L93.00,89.27"/><path d="M92.29,87.67L92.53,87.54L92.74,87.49L92.66,87.46L92.44,87.52L92.29,87.67L92.10,87.77L92.35,87.55L92.44,87.52"/><path d="M92.74,87.49L92.99,87.53L93.32,87.75L93.60,88.08L93.80,88.50L93.91,88.96L93.95,89.38L93.89,89.74L93.81,89.88L93.18,90.22"/><path d="M92.10,87.77L92.02,87.81"/><path d="M91.90,64.69L92.12,64.55L93.08,64.15"/><path d="M92.27,60.30L92.27,59.38"/><path d="M93.81,89.88L93.74,89.99L93.71,90.02L93.56,90.02"/><path d="M93.33,90.14L93.49,90.14L93.71,90.02"/><path d="M92.81,88.70L93.00,88.94L93.00,89.02"/><path d="M93.62,70.78L93.70,70.69L93.82,70.62L92.98,71.07"/><path d="M93.82,70.62L93.94,70.59L95.05,70.89L95.94,71.03L96.41,71.03L96.64,70.97L97.00,70.81L97.28,70.63L97.62,70.37L97.85,70.12L97.38,69.17L97.37,68.95L97.56,69.35L97.88,69.84L97.93,69.97L97.85,70.12"/><path d="M93.85,63.82L93.32,64.05"/><path d="M93.64,62.80L94.92,62.55L95.84,62.62"/><path d="M94.79,98.02L94.79,93.76"/><path d="M95.47,70.08L94.32,70.69"/><path d="M94.22,63.66L94.57,63.60"/><path d="M94.44,61.46L94.64,61.56"/><path d="M95.70,70.20L96.58,70.33L96.58,70.86L95.70,70.73L95.70,70.20L95.47,69.72L95.47,70.26L95.70,70.73"/><path d="M95.47,69.72L96.11,69.38L96.99,69.50L97.23,69.98L96.58,70.33"/><path d="M95.82,63.23L96.81,62.70"/><path d="M96.58,70.86L97.23,70.51L97.23,69.98"/><path d="M97.37,69.05L96.63,69.45"/><path d="M101.88,79.26L101.88,79.06L101.86,78.95L101.82,78.84L101.76,78.73L101.68,78.64L101.60,78.58L101.15,78.34L100.75,78.18L100.28,78.10L99.79,78.10L99.32,78.18L98.92,78.34L98.30,78.67L98.21,78.73L98.07,78.93L98.04,79.04L98.02,79.15L98.02,79.35L99.19,79.98L99.43,80.08L99.72,80.13L100.01,80.13L100.30,80.08L100.54,79.98L101.88,79.26L101.15,78.87L100.74,78.71L100.91,79.07L100.27,79.41L99.39,79.29L99.15,78.81L99.32,78.72L98.92,78.87L98.02,79.35"/><path d="M97.37,68.95L97.41,68.86L97.94,68.42L98.34,68.18L98.63,68.07"/><path d="M98.59,103.86L98.59,102.46"/><path d="M98.59,93.41L98.59,91.57L100.03,81.06"/><path d="M100.27,79.41L100.27,79.95L99.39,79.82L99.15,79.34L99.15,78.81"/><path d="M100.74,78.71L100.68,78.59L99.78,78.47L99.32,78.72"/><path d="M98.34,68.18L99.07,67.79L99.01,67.85"/><path d="M101.96,66.83L101.72,66.35L102.37,66.01L103.25,66.13L103.48,66.61L102.84,66.96L101.96,66.83L101.96,67.36L101.98,67.36L100.26,67.36L100.10,67.40L99.69,67.61L99.28,67.70L99.07,67.79"/><path d="M100.86,86.15L101.07,86.26L100.86,86.10L100.74,85.83L100.71,85.47L100.79,85.07L100.96,84.67L101.20,84.31L101.50,84.03L101.58,83.98L101.81,83.86L102.11,83.82L102.36,83.91L102.13,83.80L102.11,83.74L101.88,83.57L101.85,83.57L102.00,83.68L102.02,83.74L101.85,83.64L101.61,83.55L101.54,83.56L101.27,83.65L100.94,83.89L100.65,84.23L100.42,84.65L100.29,85.08L100.26,85.49L100.36,85.83L100.57,85.99L100.75,86.09L100.68,86.10L100.51,86.03L100.53,86.06L100.79,86.16L100.86,86.15L100.75,86.09"/><path d="M100.51,86.03L100.35,85.82L100.34,85.78"/><path d="M100.27,79.95L100.91,79.60L100.91,79.07"/><path d="M99.39,79.82L99.39,79.29"/><path d="M102.96,85.69L103.00,85.57L102.99,85.62L103.04,85.71L103.43,84.78L104.47,82.64L105.66,80.58L106.98,78.63L107.58,77.84L107.52,77.84L107.44,77.88L108.30,76.84L108.74,76.36L107.36,77.11L105.66,78.98L104.17,81.13L102.95,83.49L102.60,84.45L102.58,84.84L102.45,85.25L102.24,85.64L102.11,85.79L102.06,85.93L101.53,88.36L101.38,90.67L101.40,90.85L101.32,91.20L101.02,93.31L100.92,95.46L101.02,97.40L101.33,99.20L101.83,100.84L102.59,102.43L103.04,103.13L103.47,103.68L103.60,103.82"/><path d="M101.40,90.85L101.82,89.04L102.50,86.87L103.01,85.55L102.95,85.72"/><path d="M101.07,86.26L101.35,86.29L101.66,86.19L101.96,85.96L102.11,85.79"/><path d="M101.32,85.34L101.32,85.09L101.51,84.85L101.99,85.11L101.66,85.52L101.32,85.34L101.32,85.47L101.66,85.52"/><path d="M101.51,84.85L101.51,84.77L101.32,85.01L101.32,85.09"/><path d="M101.51,84.77L101.65,84.60L101.99,84.65L101.99,85.11"/><path d="M100.47,80.82L100.54,80.78"/><path d="M101.72,66.71L100.51,67.36"/><path d="M102.60,84.45L102.53,84.13L102.36,83.91"/><path d="M101.58,83.55L101.59,83.54L101.85,83.57"/><path d="M102.13,83.80L102.02,83.74"/><path d="M104.60,77.07L104.17,77.71L103.84,78.01L103.34,78.27L103.02,78.33L102.50,78.30L102.34,78.31"/><path d="M101.98,67.36L102.65,67.35L102.84,67.33L102.84,66.96"/><path d="M101.72,66.35L101.72,66.89L101.96,67.36"/><path d="M107.91,106.66L106.20,105.63L104.79,104.12L103.72,102.17L103.03,99.85L102.73,97.21L102.83,94.34L103.33,91.31L104.15,88.42L104.21,88.22L105.45,85.15L107.02,82.19L108.86,79.42L110.93,76.93L113.16,74.79L115.50,73.05L117.75,71.84L117.86,71.78L120.20,71.00L122.43,70.73L124.50,71.00L126.34,71.78"/><path d="M103.13,85.48L103.01,85.55"/><path d="M103.27,73.04L103.27,73.06L105.62,74.32L105.62,74.31L103.27,73.04L105.61,71.78L107.96,73.04L105.62,74.31"/><path d="M103.48,66.61L103.48,67.14L103.23,67.28L102.84,67.33"/><path d="M103.23,67.28L103.77,67.23L104.00,67.18L104.09,67.10L104.16,66.93L104.13,66.79L103.63,65.80L103.62,65.40"/><path d="M103.63,65.36L103.63,65.80L103.63,65.34L104.13,66.60L104.18,66.87L104.16,66.93"/><path d="M103.63,65.34L104.00,65.17"/><path d="M103.78,65.26L104.44,64.90L104.37,64.96"/><path d="M102.88,66.08L103.62,65.68"/><path d="M104.59,73.38L104.37,73.17L104.28,72.95L104.28,73.07L104.37,73.30L104.59,73.51L104.93,73.66L105.34,73.75L105.78,73.76L106.21,73.69L106.57,73.55L106.82,73.36L106.95,73.13L106.95,73.00L106.82,73.23L106.57,73.42L106.21,73.56L105.78,73.63L105.34,73.62L104.93,73.53L104.59,73.38"/><path d="M104.28,72.95L104.33,72.70L104.52,72.49L104.84,72.32L105.23,72.22L105.67,72.19L106.11,72.23L106.49,72.36L106.77,72.54L106.93,72.76L106.95,73.00"/><path d="M104.73,67.93L103.83,67.44L103.83,67.49L106.18,68.75L106.18,68.71L104.73,67.93"/><path d="M103.83,67.44L106.17,66.19"/><path d="M104.83,67.47L104.83,67.34L104.93,67.58L105.15,67.78L105.49,67.93L105.90,68.02L106.34,68.03L106.77,67.96L107.13,67.82L107.38,67.63L107.50,67.42L107.51,67.53L107.38,67.76L107.13,67.96L106.77,68.10L106.34,68.16L105.90,68.15L105.49,68.07L105.15,67.91L104.93,67.71L104.83,67.47"/><path d="M104.83,67.34L104.89,67.11L105.08,66.89L105.40,66.72L105.79,66.62L106.23,66.59L106.67,66.64L107.04,66.76L107.33,66.94L107.49,67.16L107.50,67.42"/><path d="M104.44,64.90L104.64,64.81L105.05,64.72L105.51,64.47L105.98,64.09L106.38,63.85L106.67,63.74"/><path d="M105.03,76.87L105.18,76.86L105.59,76.88L105.55,76.99"/><path d="M105.59,76.88L105.59,76.83L105.33,76.42L105.10,75.97L105.07,75.82L105.13,75.64L105.35,75.42L105.68,75.24L105.90,75.17L105.74,75.26L105.98,75.74L105.98,76.27L105.74,75.79L105.74,75.26"/><path d="M105.98,76.27L106.86,76.40L106.86,75.86L107.50,75.52L107.50,76.05L106.86,76.40"/><path d="M105.60,76.86L105.60,77.18L105.56,77.27L105.51,77.30L109.19,75.32L109.05,75.37L108.88,75.37L107.32,75.14L107.50,75.52"/><path d="M105.98,75.74L106.86,75.86"/><path d="M105.07,75.82L105.04,75.68L105.07,75.52L105.19,75.22L105.35,74.97L105.68,74.72L105.82,74.66L106.10,74.60L106.56,74.63L108.19,75.07L108.88,75.19L109.05,75.19L109.12,75.17L109.23,75.10L109.53,74.82L109.97,74.18"/><path d="M107.32,75.14L107.27,75.04L106.39,74.91L105.90,75.17"/><path d="M105.62,74.32L105.74,74.29L106.50,74.17L106.96,73.92L107.96,73.04"/><path d="M105.48,73.15L105.48,72.62L105.09,72.83L105.23,73.12L105.76,73.19L105.99,73.07L106.15,72.99L106.00,72.70L106.00,73.06"/><path d="M105.48,72.62L106.00,72.70"/><path d="M106.03,67.03L105.65,67.24L105.79,67.52L106.03,67.56L106.03,67.03L106.56,67.10L106.56,67.46L106.32,67.60L106.03,67.56"/><path d="M109.84,101.41L109.39,101.17L108.15,99.92L107.25,98.23L106.74,96.16L106.64,93.79L106.95,91.23L107.65,88.58L108.73,85.94L110.13,83.43L111.80,81.15L113.67,79.18L115.66,77.62L117.70,76.53L119.69,75.94L121.56,75.89L123.23,76.38L123.66,76.61L122.01,76.13L120.14,76.18L118.14,76.77L116.11,77.86L114.12,79.43L112.25,81.39L110.58,83.67L109.18,86.18L108.10,88.82L107.40,91.47L107.09,94.04L107.18,96.16L107.19,96.40L107.70,98.47L108.60,100.16L109.84,101.41L111.38,102.16L113.16,102.38L115.10,102.06L117.13,101.21L119.15,99.87L121.09,98.10L122.90,95.93L122.15,95.53L120.83,97.15L119.02,98.82L117.13,100.08L115.23,100.86L113.42,101.14L111.78,100.89L111.19,100.58L111.47,100.73L113.12,100.97L114.93,100.70L116.83,99.92L118.72,98.66L120.53,96.98L121.85,95.36L118.90,93.77L118.27,94.44L116.83,95.46L115.38,96.00L114.04,96.03L112.91,95.54L112.83,95.46L113.56,95.77L114.90,95.74L116.35,95.20L117.79,94.18L118.43,93.51L116.21,92.32L115.40,92.59L114.56,92.50L113.91,92.01L113.81,91.79L113.95,91.81L114.25,91.71L115.14,92.19L114.58,91.76L114.24,91.04L114.18,90.09L114.38,89.03L114.83,87.96L115.48,87.00L116.27,86.26L117.09,85.82L117.88,85.71L118.53,85.97L117.62,85.48L117.55,85.21L117.44,85.06L117.73,85.02L118.48,85.32L119.00,85.99L119.14,86.53L118.58,86.23L118.34,86.14L118.06,86.09L117.74,86.08L117.05,86.17L116.31,86.56L115.62,87.22L115.04,88.07L114.63,89.02L114.45,89.97L114.51,90.81L114.81,91.46L115.31,91.83L116.21,92.32"/><path d="M106.18,68.75L106.95,68.63L107.41,68.38L107.85,67.99L108.52,67.45L106.18,68.71"/><path d="M106.56,67.46L106.70,67.39L106.56,67.10"/><path d="M106.38,63.85L107.13,63.45L107.21,63.44L107.29,63.47L107.74,63.71L108.20,63.88L108.21,63.46L107.98,63.00L107.98,63.52L108.15,63.87"/><path d="M108.07,104.64L107.83,104.67L107.63,104.59L107.50,104.42L107.44,104.16L107.46,103.86L107.56,103.53L107.73,103.22L107.94,102.97L108.06,102.88L108.20,102.78L108.43,102.70L108.65,102.72L108.82,102.85L108.92,103.07L108.94,103.35L108.88,103.67L108.74,103.99L108.55,104.28L108.31,104.50L108.07,104.64"/><path d="M111.19,100.58L110.36,100.13L109.24,98.90L108.47,97.25L108.07,95.24L108.07,94.79L108.07,92.98L108.47,90.55L109.24,88.06L110.41,85.54L111.78,83.34L113.42,81.32L115.23,79.64L117.13,78.39L119.02,77.60L120.83,77.33L122.48,77.58L123.89,78.33L125.01,79.56L125.79,81.22L126.18,83.22L126.18,85.49L125.79,87.92L125.19,89.82L125.23,89.85L125.32,90.00L125.32,90.16L125.23,90.32L125.06,90.44L124.82,90.54L124.54,90.59L124.24,90.59L123.96,90.54L123.72,90.44L117.24,86.95L117.07,86.82L116.97,86.67L116.97,87.15L117.07,87.33L117.24,87.48L123.72,90.97L123.96,91.05L124.24,91.07L124.54,91.03L124.82,90.95L125.06,90.84L125.23,90.73L125.32,90.60L125.32,90.16"/><path d="M107.63,84.36L107.83,84.43L108.07,84.40L108.31,84.27L108.55,84.05L108.74,83.76L108.88,83.44L108.94,83.12L108.92,82.84L108.82,82.62L108.65,82.49L108.43,82.47L108.19,82.55L108.06,82.65L107.94,82.74L107.73,82.99L107.56,83.30L107.46,83.62L107.44,83.93L107.50,84.18L107.63,84.36"/><path d="M107.41,78.07L107.40,77.98L107.44,77.88"/><path d="M107.98,63.00L107.98,62.98L108.55,62.67"/><path d="M107.51,63.59L107.98,63.34"/><path d="M108.20,63.88L108.61,63.95L109.09,63.95L109.09,63.59L108.21,63.46"/><path d="M108.74,76.36L109.81,75.21L111.17,73.98L111.06,73.99L110.54,73.97L110.39,73.98"/><path d="M109.09,63.59L109.74,63.24L109.69,63.14"/><path d="M109.09,63.95L109.57,63.87L109.97,63.71L110.37,63.50"/><path d="M109.54,63.88L109.74,63.77L109.74,63.24"/><path d="M112.83,95.46L112.06,94.57L111.58,93.20L111.48,91.52L111.77,89.65L112.45,87.75L113.44,85.94L114.69,84.36L116.10,83.13L117.56,82.35L118.96,82.06L120.21,82.29L121.21,83.03L121.88,84.21L122.17,85.75L122.08,87.54L121.95,88.05L121.47,87.79L121.60,87.28L121.69,85.49L121.40,83.95L120.73,82.77L120.04,82.26"/><path d="M111.17,73.98L111.40,73.77L112.50,72.94L112.23,72.90L112.23,72.37L112.00,71.89L112.16,71.80L111.94,71.87L111.61,72.05L111.39,72.27L111.36,72.33L111.30,72.00L111.33,71.85L111.39,71.74L111.52,71.63L111.61,71.59L111.82,71.57L112.82,71.53L114.64,71.55L114.83,71.43L116.48,70.66L117.73,70.26L118.01,69.85"/><path d="M111.36,72.33L111.81,73.46"/><path d="M112.23,72.37L113.09,72.49L112.50,72.94"/><path d="M112.00,71.89L112.00,72.42L112.23,72.90"/><path d="M112.16,71.80L112.64,71.54L113.52,71.67L113.57,71.77L114.14,71.85L113.09,72.49"/><path d="M117.62,85.48L116.96,85.12L116.82,85.14L115.87,85.66L114.96,86.51L114.21,87.62L113.69,88.85L113.45,90.09L113.53,91.18L113.81,91.79"/><path d="M113.62,91.37L114.25,91.71"/><path d="M113.57,71.77L113.73,72.10"/><path d="M114.14,71.85L114.64,71.55"/><path d="M115.14,92.19L115.86,92.26L116.01,92.21"/><path d="M116.97,86.67L116.97,86.51L117.06,86.36L117.24,86.23L117.48,86.14L117.77,86.09"/><path d="M116.96,85.12L117.44,85.06"/><path d="M117.73,70.26L118.13,70.13L119.13,69.97L120.08,69.45L120.26,69.32L120.35,69.18L120.35,69.01"/><path d="M118.91,68.10L118.02,68.58L117.73,68.79L117.65,68.91L117.57,68.78L117.57,68.53L117.73,68.26L118.02,68.05L118.63,67.72L118.72,67.69L118.79,67.69"/><path d="M117.65,68.91L117.73,69.03L118.02,69.25L118.49,69.51L118.49,69.00L119.37,69.12L119.37,69.66L118.52,69.53L118.63,69.64L118.69,69.75L118.73,69.86L118.74,70.03"/><path d="M118.43,93.51L118.90,93.77"/><path d="M119.14,86.53L121.47,87.79"/><path d="M118.53,85.97L118.85,86.38"/><path d="M119.13,69.97L119.73,69.87L120.35,69.85L120.36,69.84"/><path d="M118.52,69.53L118.49,69.51"/><path d="M118.49,69.00L118.25,68.53L118.25,69.05L118.47,69.50"/><path d="M118.25,68.53L118.90,68.17L119.11,68.20"/><path d="M119.37,69.66L120.01,69.31L120.01,68.78L119.37,69.12"/><path d="M120.35,69.85L120.38,69.85"/><path d="M120.01,68.78L119.96,68.66"/><path d="M121.85,95.36L122.15,95.53"/><path d="M121.95,88.05L124.90,89.64L125.48,87.76L125.88,85.33L125.88,83.06L125.48,81.05L124.71,79.40L123.59,78.17"/><path d="M122.90,95.93L123.99,96.52L123.54,96.07L123.30,95.37L123.30,94.50L123.54,93.54L123.88,92.84L123.99,92.60L124.61,91.79L125.32,91.19L126.05,90.87L126.73,90.86L125.86,90.39L126.56,88.31L127.06,85.69L127.17,83.22L126.86,80.99L126.15,79.10L125.08,77.62L123.66,76.61"/><path d="M123.99,96.52L124.61,96.67L125.32,96.50L125.51,96.41L126.14,95.98L125.44,96.42L124.76,96.58L124.18,96.44L123.75,96.02L123.52,95.35L123.52,94.52L123.75,93.61L124.18,92.72L124.76,91.95L125.44,91.38L126.14,91.07L126.78,91.06L127.29,91.35L127.62,91.90L127.74,92.66L127.66,93.26"/><path d="M124.67,95.35L125.01,95.48L125.41,95.43L125.62,95.34L125.83,95.20L126.23,94.82L126.56,94.33L126.79,93.79L126.90,93.24L126.86,92.76L126.69,92.39L126.41,92.17L126.03,92.13L125.60,92.28L125.22,92.57L125.22,92.67L125.15,93.07L124.97,93.47L124.73,93.84L124.43,94.12L124.37,94.16L124.34,94.62L124.44,95.05L124.67,95.35"/><path d="M124.37,94.16L124.54,93.55L124.68,93.32L124.83,93.02L125.22,92.57"/><path d="M124.61,93.43L124.74,93.19"/><path d="M124.58,75.16L124.62,75.21L124.81,75.28L125.05,75.25L125.30,75.12L125.53,74.90L125.73,74.61L125.86,74.29L125.92,73.97L125.90,73.69L125.80,73.47L125.63,73.34L125.42,73.32L125.17,73.40L124.92,73.59L124.71,73.84L124.54,74.15L124.44,74.47L124.42,74.78L124.48,75.03L124.58,75.16"/><path d="M124.90,89.64L125.06,89.72L125.19,89.82"/><path d="M125.86,90.39L125.32,90.10"/><path d="M126.14,95.98L126.26,95.84"/><path d="M126.73,90.86L127.27,91.16L127.62,91.74L127.74,92.54L127.74,92.66"/></g><g style="stroke:#000000;stroke-width:0.529"><path d="M43.43,41.34L41.15,42.68L40.74,43.03L39.94,43.47L39.77,43.59L39.04,44.19L38.37,44.93L37.76,45.79L35.89,49.03L35.45,49.98L35.13,50.96L34.96,51.92L34.93,52.14L34.97,52.30L34.99,52.68L34.98,52.78L34.82,53.56L34.80,53.87L34.86,54.78L34.76,55.44L34.75,55.74L34.82,57.12L34.80,57.26L34.81,57.55L35.00,61.37L35.10,62.00L35.20,63.49L35.33,63.94L35.89,65.05L36.66,65.88L38.72,67.22L44.46,70.32L44.53,70.38L46.60,71.74L51.17,74.20L51.21,74.38L51.26,74.45L54.41,76.14L54.42,76.44L54.46,76.52L54.52,76.57L78.87,89.69L78.95,89.71L79.05,89.69L79.85,89.40L79.73,92.00L79.82,97.07L83.73,99.62L86.05,100.87L87.81,102.02L88.70,102.50L88.88,102.40L92.78,104.49L96.04,102.74L100.82,105.32L103.60,103.82L104.50,104.70L105.80,105.56L107.91,106.66L109.87,107.18L112.03,107.18L114.32,106.66L116.68,105.63L119.04,104.12L121.33,102.17L123.49,99.85L125.45,97.21L126.26,95.84L126.78,95.30L127.29,94.46L127.62,93.55L127.66,93.26L128.57,91.31L129.64,88.21L130.33,85.14L130.63,82.18L130.53,79.42L130.03,76.93L129.15,74.78L127.91,73.05L126.34,71.78L124.32,70.68L122.87,70.11L122.20,69.96L121.42,69.85L120.38,69.85L120.36,69.84L120.35,69.01L120.26,68.86L120.08,68.73L119.96,68.66L119.78,68.30L119.11,68.20L118.91,68.10L118.90,67.80L118.86,67.73L118.79,67.69L110.75,63.36L110.67,63.35L110.59,63.38L110.37,63.50L109.68,63.13L109.50,62.76L108.62,62.64L108.55,62.67L108.47,62.43L107.93,62.14L107.86,61.90L106.96,61.42L106.78,61.52L102.89,59.42L96.81,62.70L95.84,62.62L95.82,62.34L95.62,62.20L95.50,61.23L95.47,61.14L95.42,61.07L92.27,59.37L92.26,59.07L92.22,58.99L92.16,58.94L88.95,57.21L88.95,51.86L88.85,51.68L88.64,51.53L88.36,51.38L88.36,51.19L88.33,50.89L88.22,50.56L88.04,50.26L87.82,50.01L87.53,49.81L87.53,49.60L87.49,49.33L87.38,49.13L87.20,49.02L82.39,46.42"/><path d="M43.06,41.55L45.73,39.97L46.05,39.81L46.79,39.54L47.69,39.02L47.98,38.88L49.08,38.54L49.86,38.12L50.30,38.05L51.48,38.07L52.53,38.43L59.44,42.15L59.55,42.15L60.63,42.52L67.11,46.01L67.49,45.87L67.49,45.38L67.53,45.33L68.45,44.84L67.93,45.12"/><path d="M81.54,45.97L75.03,42.46L74.81,42.44L74.57,42.53L74.29,42.68L73.17,42.07L72.93,41.99L72.71,42.00L72.15,42.31L71.98,42.42L71.87,42.62L71.83,42.89L71.83,43.01L68.45,44.84L69.52,44.26"/></g></g><g id="Actor_5.1"><g style="stroke:#000000;stroke-width:0.176"><path d="M8.30,51.12L8.59,50.36L8.56,50.43L8.46,50.86L8.47,51.25L8.59,51.56L8.30,51.12L7.62,50.75"/><path d="M8.07,49.48L7.82,49.94L7.71,50.39"/><path d="M8.88,52.00L8.59,51.56L8.80,51.75L8.87,51.78L8.66,51.59L8.54,51.29L8.53,50.90L8.63,50.47L8.83,50.05L9.10,49.67L9.42,49.40L9.75,49.24L9.94,49.23L10.05,49.22L10.30,49.35"/><path d="M8.83,49.74L8.59,50.36L8.76,50.01L9.03,49.64L9.35,49.36L9.46,49.29L8.88,49.60L8.83,49.74"/><path d="M8.88,49.60L8.20,49.24"/><path d="M8.69,48.88L8.39,49.09"/><path d="M9.08,51.35L9.63,51.65"/><path d="M8.87,51.78L9.15,51.84L9.21,51.82"/><path d="M10.27,49.33L10.24,49.31L9.99,49.19L9.68,49.20L9.46,49.29L10.04,48.98"/><path d="M10.56,50.01L10.03,49.72L10.02,49.71"/><path d="M10.53,49.99L10.53,49.95L10.48,49.64"/><path d="M13.29,51.49L13.12,51.40L12.92,51.42L12.70,51.52L12.48,51.71L12.30,51.95L12.17,52.24L12.11,52.52L12.11,52.78L12.19,52.99L12.33,53.11"/><path d="M12.85,53.02L12.67,53.07L12.60,53.05L12.51,53.04L12.39,52.93L12.33,52.76L12.32,52.54L12.38,52.30L12.49,52.06L12.64,51.85L12.82,51.70L13.00,51.61L13.17,51.60L13.31,51.67L13.40,51.81L13.44,52.01"/></g><g style="stroke:#000000;stroke-width:0.529"><path d="M7.72,50.95L7.62,50.75L7.71,50.39L7.72,50.28L7.82,49.94L7.98,49.61L8.07,49.48L8.20,49.24L8.39,49.09L8.43,49.06L8.69,48.88L9.36,48.61L10.04,48.98L10.27,49.33L10.30,49.35L10.40,49.46L10.47,49.60L10.48,49.64L10.62,49.86L10.56,50.01L13.29,51.49L13.40,51.66L13.44,51.89L13.44,52.01L13.41,52.24L13.33,52.48L13.20,52.71L13.03,52.89L12.85,53.02L12.73,53.09L12.52,53.15L12.33,53.11L9.63,51.65L9.47,51.75L9.21,51.82L8.88,52.00L8.20,51.63L7.82,51.14L7.72,50.95"/></g></g><g id="Actor_1.0"><g style="stroke:#000000;stroke-width:0.176"><path d="M92.46,135.35L94.13,136.26L94.13,177.51"/><path d="M94.13,136.26L242.69,56.21"/><path d="M95.70,174.86L95.97,174.93L96.28,174.85L96.60,174.65L96.90,174.33L97.14,173.95L97.29,173.53L97.34,173.12L97.29,172.77L97.14,172.52L96.90,172.38L96.60,172.39L96.27,172.54L95.96,172.81L95.70,173.15L95.50,173.56L95.40,173.97L95.40,174.36L95.50,174.66L95.70,174.86"/><path d="M95.92,156.95L96.28,156.88L96.60,156.68L96.90,156.37L97.14,155.98L97.29,155.56L97.34,155.15L97.29,154.80L97.14,154.55L96.90,154.42L96.60,154.42L96.27,154.58L96.08,154.74L95.96,154.84L95.70,155.18L95.50,155.59L95.40,156.01L95.40,156.39L95.50,156.70L95.70,156.89L95.92,156.95"/><path d="M95.70,138.93L95.97,138.99L96.28,138.92L96.60,138.71L96.90,138.40L97.14,138.01L97.29,137.60L97.34,137.19L97.29,136.84L97.14,136.58L96.90,136.45L96.59,136.46L96.27,136.61L95.96,136.88L95.70,137.21L95.50,137.62L95.40,138.04L95.40,138.20L95.40,138.43L95.50,138.73L95.70,138.93"/><path d="M138.93,118.20L139.64,118.18L140.26,118.53L140.66,119.19L140.79,120.10L140.66,121.16L140.26,122.25L139.64,123.25L138.88,124.07L138.04,124.60L137.23,124.79L136.53,124.62L136.02,124.11L135.91,123.80"/><path d="M159.61,132.29L159.78,132.29L159.97,132.21L160.15,132.05L160.31,131.85L160.42,131.61L160.48,131.36L160.48,131.14L160.42,130.96L160.31,130.85L160.09,130.82L159.96,130.86L159.84,130.93L159.60,131.17L159.47,131.39L159.38,131.64L159.35,131.87L159.38,132.02L159.47,132.21L159.61,132.29"/><path d="M159.97,111.97L159.78,112.06L159.61,112.06L159.47,111.98L159.38,111.79L159.35,111.64L159.38,111.41L159.53,111.05L159.77,110.75L159.96,110.63L160.16,110.58L160.31,110.62L160.42,110.73L160.48,110.91L160.48,111.13L160.42,111.38L160.29,111.63L160.15,111.82L159.97,111.97"/><path d="M160.82,128.80L162.26,129.65L163.98,130.00L165.89,129.82L167.90,129.10L169.93,127.88L171.90,126.21L173.73,124.16L175.34,121.81L176.65,119.28L177.65,116.61L178.26,113.97L178.47,111.45L178.26,109.15L177.65,107.16L176.66,105.58L175.34,104.45L174.22,104.02"/><path d="M176.34,122.68L176.36,122.92L176.45,123.06L176.59,123.14L176.76,123.14L176.95,123.06L177.13,122.90L177.29,122.70L177.40,122.46L177.47,122.21L177.47,121.99L177.40,121.81L177.29,121.70L177.13,121.66L176.95,121.70L176.76,121.82L176.59,122.00L176.45,122.23L176.36,122.48L176.34,122.68"/><path d="M176.45,102.83L176.59,102.91L176.76,102.91L176.99,102.79L177.13,102.67L177.29,102.46L177.40,102.23L177.47,101.98L177.47,101.76L177.40,101.58L177.29,101.47L177.14,101.43L176.94,101.48L176.76,101.60L176.52,101.90L176.36,102.26L176.34,102.49L176.37,102.70L176.45,102.83"/><path d="M188.80,106.13L188.66,106.28L188.47,106.40L188.29,106.44L188.13,106.40L188.02,106.29L187.96,106.11L187.96,105.89L188.02,105.64L188.13,105.41L188.29,105.20L188.47,105.05L188.66,104.96L188.83,104.96L188.97,105.04L189.06,105.19L189.09,105.39L189.06,105.63L188.97,105.87L188.80,106.13"/><path d="M188.66,102.29L188.47,102.41L188.29,102.45L188.13,102.41L188.02,102.30L187.96,102.12L187.96,101.90L188.02,101.65L188.13,101.41L188.29,101.21L188.52,101.03L188.65,100.98L188.83,100.97L188.97,101.05L189.06,101.19L189.09,101.40L189.06,101.64L188.97,101.88L188.83,102.11L188.66,102.29"/><path d="M199.25,85.70L199.96,85.69L200.58,86.03L200.98,86.69L201.11,87.60L201.05,88.12L200.98,88.66L200.58,89.75L199.96,90.76L199.20,91.57L198.36,92.10L197.55,92.29L196.85,92.12L196.34,91.61L196.23,91.31"/><path d="M205.09,85.11L205.05,85.36L204.87,85.66L204.75,85.76L204.62,85.82L204.51,85.82L204.41,85.77L204.36,85.67L204.34,85.53L204.36,85.37L204.41,85.21L204.62,84.94L204.75,84.86L204.87,84.83L204.97,84.86L205.05,84.93L205.09,85.11"/><path d="M221.80,76.34L221.73,76.49L221.50,76.73L221.38,76.79L221.26,76.79L221.17,76.74L221.11,76.64L221.09,76.50L221.11,76.35L221.17,76.18L221.26,76.03L221.38,75.91L221.50,75.83L221.62,75.80L221.73,75.83L221.80,75.90L221.85,76.02L221.85,76.17L221.80,76.34"/><path d="M232.70,82.22L232.81,82.33L232.97,82.37L233.15,82.33L233.34,82.21L233.51,82.03L233.65,81.80L233.74,81.56L233.77,81.32L233.74,81.12L233.65,80.97L233.51,80.89L233.34,80.89L233.15,80.97L232.96,81.14L232.81,81.33L232.70,81.57L232.64,81.82L232.64,82.04L232.70,82.22"/><path d="M232.70,78.23L232.64,78.05L232.64,77.82L232.70,77.58L232.81,77.34L232.96,77.15L233.20,76.96L233.33,76.90L233.51,76.90L233.65,76.97L233.74,77.12L233.77,77.33L233.74,77.56L233.65,77.81L233.51,78.03L233.34,78.22L233.15,78.33L232.97,78.38L232.81,78.34L232.70,78.23"/><path d="M239.50,96.34L239.50,96.74L239.60,97.03L239.80,97.23L240.07,97.29L240.38,97.22L240.69,97.02L240.99,96.70L241.23,96.31L241.38,95.89L241.44,95.49L241.38,95.14L241.23,94.88L240.99,94.75L240.78,94.75L240.69,94.76L240.37,94.91L240.07,95.16L239.79,95.53L239.60,95.92L239.50,96.34"/><path d="M239.57,78.97L239.50,78.76L239.48,78.57L239.50,78.37L239.60,77.96L239.80,77.55L240.05,77.21L240.37,76.94L240.69,76.79L240.99,76.78L241.23,76.91L241.38,77.17L241.44,77.52L241.38,77.93L241.23,78.35L240.99,78.73L240.69,79.05L240.38,79.25L240.07,79.32L239.80,79.26L239.62,79.08L239.57,78.97"/><path d="M239.55,73.13L239.44,72.81L239.44,72.40L239.55,71.96L239.76,71.53L240.03,71.17L240.36,70.89L240.71,70.73L241.02,70.72L241.28,70.86L241.44,71.13L241.49,71.50L241.44,71.93L241.28,72.37L241.03,72.78L240.71,73.11L240.38,73.33L240.04,73.41L239.76,73.34L239.55,73.13"/><path d="M239.51,69.70L239.44,69.48L239.43,69.29L239.44,69.08L239.55,68.63L239.76,68.20L240.03,67.84L240.36,67.56L240.71,67.40L241.02,67.40L241.28,67.54L241.44,67.80L241.49,68.17L241.44,68.60L241.28,69.05L241.03,69.46L240.71,69.79L240.38,70.00L240.04,70.08L239.76,70.01L239.55,69.81L239.51,69.70"/><path d="M239.50,60.81L239.60,61.10L239.80,61.29L240.07,61.36L240.38,61.28L240.69,61.09L240.99,60.77L241.23,60.38L241.38,59.96L241.44,59.55L241.38,59.20L241.23,58.95L240.99,58.82L240.69,58.83L240.38,58.96L240.07,59.23L239.79,59.60L239.60,59.99L239.50,60.41L239.50,60.81"/></g><g style="stroke:#000000;stroke-width:0.529"><path d="M158.24,142.97L242.69,97.47L242.69,56.21L241.02,55.31L92.46,135.35L92.46,176.61L94.13,177.51L157.36,143.45"/><path d="M135.80,123.48L135.75,123.32L135.75,122.32L136.02,121.23L136.53,120.17L137.23,119.25L138.04,118.56L138.93,118.20L138.98,118.29L139.12,119.20L138.98,120.25L138.58,121.34L137.97,122.35L137.20,123.16L136.37,123.70L135.91,123.80L135.80,123.48"/><path d="M158.86,125.70L158.82,125.62L158.41,123.46L158.36,122.28L158.41,121.04L158.82,118.45L159.62,115.79L160.70,113.37L160.79,113.17L162.26,110.71L163.98,108.50L165.89,106.63L167.90,105.18L169.93,104.20L171.90,103.75L173.73,103.83L174.22,104.02L174.99,104.67L175.98,106.26L176.58,108.25L176.79,110.54L176.58,113.07L175.98,115.71L174.99,118.36L173.66,120.91L172.05,123.26L170.23,125.31L168.26,126.98L166.23,128.20L164.22,128.91L162.31,129.10L160.79,128.77L159.62,127.41L158.86,125.70"/><path d="M196.23,91.31L196.07,90.82L196.03,90.34L196.07,89.82L196.34,88.73L196.85,87.67L197.55,86.75L198.36,86.07L199.25,85.70L199.30,85.79L199.44,86.70L199.30,87.75L198.90,88.85L198.29,89.85L197.52,90.67L196.69,91.20L196.23,91.31"/></g></g><g id="Actor_2.4"><g style="stroke:#000000;stroke-width:0.176"><path d="M40.62,126.17L41.53,126.66L41.53,127.58L41.60,128.06L41.81,128.41L42.15,128.60"/><path d="M44.21,125.22L43.54,125.12L43.78,125.20L43.87,125.24L43.50,125.16L43.07,125.26L42.63,125.54L42.23,125.97L41.90,126.50L41.69,127.07L41.62,127.63L41.69,128.11L41.90,128.46L42.23,128.64"/><path d="M41.53,128.50L41.53,127.58L41.60,127.02L41.81,126.45L42.14,125.92L42.20,125.84L42.54,125.49L42.98,125.21L43.41,125.11L43.54,125.12L42.87,125.02L41.96,124.53"/><path d="M41.53,126.66L42.87,125.02"/><path d="M43.10,128.42L42.42,128.05L42.40,128.05"/><path d="M42.42,128.64L42.63,128.63L43.07,128.44L43.10,128.42"/><path d="M43.52,125.79L44.30,126.21"/><path d="M43.87,125.24L44.14,125.51L44.21,125.72"/><path d="M43.71,125.90L43.72,125.90"/><path d="M48.47,128.44L48.22,128.38L47.94,128.45L47.64,128.64L47.38,128.92L47.16,129.28L47.02,129.66L46.97,130.03L47.02,130.35L47.16,130.58L47.38,130.70"/><path d="M48.05,130.50L47.80,130.61L47.57,130.61L47.38,130.51L47.33,130.42L47.26,130.31L47.22,130.03L47.26,129.71L47.38,129.38L47.57,129.07L47.80,128.83L48.05,128.67L48.30,128.61L48.51,128.66L48.66,128.81L48.75,129.06"/></g><g style="stroke:#000000;stroke-width:0.529"><path d="M40.85,128.14L40.62,128.02L40.53,127.47L40.50,127.03L40.53,126.62L40.62,126.17L40.89,125.68L41.17,125.28L41.51,124.92L41.96,124.53L42.23,124.53L42.51,124.56L42.85,124.62L43.30,124.73L44.21,125.22L44.21,125.72L44.28,125.93L44.30,126.19L44.30,126.21L48.47,128.44L48.65,128.62L48.75,128.90L48.75,129.06L48.75,129.36L48.66,129.69L48.51,130.01L48.30,130.29L48.05,130.50L47.94,130.57L47.64,130.70L47.38,130.70L43.10,128.42L42.87,128.70L42.42,128.64L42.23,128.64L42.15,128.60L41.53,128.50L40.85,128.14"/></g></g><g id="Actor_7.0"><g style="stroke:#000000;stroke-width:0.176"><path d="M208.35,146.06L209.81,146.84L209.82,147.15"/><path d="M216.51,133.31L217.96,134.10L217.80,134.81L217.55,135.52L217.46,135.73L217.27,136.08L217.02,136.37L216.75,136.58L216.47,136.69L216.22,136.69L216.02,136.57L215.91,136.47L215.55,136.14L215.11,135.76L214.86,135.97L214.86,135.98L214.91,136.67L214.88,137.36L214.85,137.57L214.77,137.93L214.61,138.29L214.39,138.61L214.12,138.86L213.84,139.02L213.58,139.06L213.43,139.06L212.93,139.01L212.34,138.92L210.88,138.14L210.68,138.45L210.71,138.88L210.83,139.36L210.88,139.52L210.92,139.83L210.88,140.18L210.75,140.55L210.55,140.89L210.30,141.17L210.02,141.37L209.85,141.46L209.37,141.76L208.99,142.10L210.44,142.88L210.34,143.22L208.89,142.44L209.11,142.62L209.54,142.94L209.70,143.13L209.78,143.41L209.77,143.75L209.67,144.11L209.50,144.47L209.27,144.78L209.12,144.94L208.69,145.49L208.54,145.75"/><path d="M209.10,149.25L210.56,150.03L210.68,150.24"/><path d="M208.99,142.10L208.89,142.44"/><path d="M210.56,150.03L211.01,149.45L211.37,148.82L211.48,148.61L211.62,148.24L211.68,147.89L211.65,147.57L211.53,147.33L211.35,147.18L211.11,147.15L210.95,147.16L210.41,147.18L209.85,147.15"/><path d="M209.81,146.84L210.40,146.40L210.91,145.91L211.06,145.74L211.29,145.43L211.46,145.07L211.56,144.71L211.56,144.37L211.49,144.10L211.33,143.91L210.81,143.54L210.34,143.22"/><path d="M210.44,142.88L211.09,142.67L211.64,142.42L211.81,142.33L212.09,142.14L212.34,141.85L212.53,141.51L212.66,141.15L212.71,140.79L212.67,140.49L212.62,140.32L212.41,139.79L212.14,139.23L212.34,138.92"/><path d="M210.68,138.45L212.14,139.23"/><path d="M211.11,150.07L211.31,149.99L211.87,149.68L212.04,149.57L212.32,149.45L212.58,149.43L212.79,149.53L212.94,149.74L213.00,150.02L212.98,150.37L212.94,150.58L212.79,151.22L212.54,151.82"/><path d="M210.88,138.14L211.21,138.09L211.64,138.09L211.79,138.10L212.06,138.05L212.34,137.90L212.60,137.65L212.82,137.33L212.98,136.97L213.07,136.61L213.09,136.40L213.19,135.87L213.16,135.74L213.20,135.62L213.28,135.54L213.20,135.77L213.19,135.87"/><path d="M214.44,150.29L214.21,150.44L213.95,150.70L213.83,150.85"/><path d="M213.28,135.54L213.40,135.19L213.65,134.98L215.11,135.76"/><path d="M213.40,135.19L214.86,135.98"/><path d="M217.11,139.84L216.29,140.28L216.29,140.84L215.62,141.60L215.11,142.51L214.80,143.48L214.73,144.40L214.90,145.17L215.30,145.70L215.88,145.93L216.59,145.84L217.33,145.44L218.03,144.77L218.61,143.92L219.01,142.95L219.18,142.00L219.11,141.16L218.80,140.52L218.29,140.16L217.63,140.12L217.63,139.56L217.11,139.84L217.63,140.12"/><path d="M215.66,134.79L215.48,135.12L215.24,135.41L214.96,135.62L214.90,135.65"/><path d="M218.47,150.09L218.28,149.85L218.00,149.56L217.90,149.46L217.69,149.34L217.44,149.34L217.23,149.42"/><path d="M218.30,134.23L218.45,134.63L218.60,135.19L218.64,135.36L218.74,135.62L218.92,135.78L219.15,135.83L219.42,135.77L219.70,135.60L219.96,135.34L220.11,135.16L220.52,134.57L220.83,133.97L219.38,133.18"/><path d="M217.96,134.10L218.22,134.02"/><path d="M221.02,135.00L220.97,135.45L220.93,135.67L220.91,136.01L220.98,136.30L221.11,136.48L221.12,136.50L221.34,136.60L221.59,136.59L221.87,136.46L222.04,136.36L222.52,136.00L222.90,135.61"/><path d="M220.83,133.97L221.04,134.04"/><path d="M223.76,138.71L223.42,138.81L222.96,138.87L222.81,138.89L222.57,138.85L222.38,138.70L222.27,138.46L222.24,138.15L222.27,137.92"/><path d="M222.24,138.18L223.42,138.81"/></g><g style="stroke:#000000;stroke-width:0.529"><path d="M215.68,151.67L216.02,151.18L216.36,150.52L216.45,150.30L216.64,149.96L216.89,149.66L217.16,149.45L217.23,149.42L218.47,150.09L218.72,149.88L218.92,149.32L219.03,148.67L219.06,148.46L219.14,148.10L219.30,147.74L219.52,147.42L219.79,147.17L220.07,147.02L220.33,146.97L220.49,146.98L220.91,146.98L221.24,146.93L221.44,146.62L221.41,146.20L221.30,145.71L221.25,145.55L221.20,145.24L221.25,144.89L221.38,144.52L221.58,144.18L221.83,143.90L222.10,143.70L222.27,143.61L222.75,143.32L223.14,142.98L223.24,142.64L223.02,142.45L222.58,142.13L222.43,141.94L222.35,141.66L222.36,141.33L222.45,140.96L222.62,140.61L222.85,140.29L223.00,140.13L223.43,139.59L223.77,139.01L223.76,138.71L222.31,137.92L222.27,137.92L222.29,137.79L222.43,137.43L222.54,137.21L222.82,136.54L223.02,135.82L222.90,135.61L221.45,134.83L221.02,135.00L221.05,134.77L221.04,134.04L219.58,133.26L219.38,133.18L218.80,133.67L218.32,134.20L218.30,134.23L218.22,134.02L216.76,133.23L216.51,133.31L216.09,133.91L215.76,134.55L215.66,134.79L215.56,134.73L214.44,134.48L213.16,134.72L211.82,135.44L210.54,136.58L209.42,138.04L208.54,139.71L207.99,141.46L207.80,143.14L207.99,144.61L208.54,145.75L208.35,146.06L208.36,146.36L209.82,147.15L209.85,147.15L209.83,147.28L209.69,147.64L209.59,147.86L209.30,148.55L209.10,149.25L209.22,149.46L210.68,150.24L211.11,150.07L211.08,150.32L211.09,151.03L212.54,151.82L212.75,151.89L213.31,151.42L213.83,150.85L213.91,151.05L214.67,151.46"/></g></g><g id="Actor_5.2"><g style="stroke:#000000;stroke-width:0.176"><path d="M8.07,29.25L7.82,29.71L7.71,30.16"/><path d="M7.62,30.52L8.30,30.88L8.59,31.33L8.80,31.52L8.87,31.55L8.66,31.36L8.54,31.05L8.54,30.95L8.53,30.67L8.63,30.24L8.83,29.81L9.10,29.44L9.42,29.16L9.75,29.01L10.05,28.99L10.30,29.11"/><path d="M8.88,31.77L8.59,31.33L8.47,31.02L8.46,30.63L8.56,30.20L8.59,30.13L8.30,30.88"/><path d="M8.70,29.84L8.59,30.13L8.76,29.78L9.03,29.41L9.35,29.13L9.46,29.06L8.88,29.37L8.70,29.84"/><path d="M8.88,29.37L8.20,29.01"/><path d="M8.69,28.64L8.39,28.86"/><path d="M8.87,31.55L9.15,31.61L9.21,31.59"/><path d="M9.08,31.12L9.63,31.41"/><path d="M10.27,29.10L10.24,29.08L9.99,28.95L9.68,28.97L9.46,29.06L10.04,28.75"/><path d="M10.02,29.48L10.03,29.49L10.53,29.76L10.53,29.72L10.48,29.41"/><path d="M10.53,29.76L10.56,29.78"/><path d="M13.29,31.25L13.12,31.17L12.92,31.18L12.70,31.29L12.48,31.47L12.30,31.72L12.17,32.00L12.16,32.05L12.11,32.29L12.11,32.55L12.19,32.75L12.33,32.88"/><path d="M13.44,31.78L13.40,31.58L13.31,31.44L13.17,31.37L13.00,31.38L12.82,31.47L12.64,31.62L12.49,31.83L12.38,32.07L12.32,32.31L12.33,32.52L12.39,32.70L12.51,32.80L12.67,32.83L12.85,32.78"/></g><g style="stroke:#000000;stroke-width:0.529"><path d="M7.73,30.02L7.72,30.05L7.71,30.16L7.62,30.52L7.82,30.91L8.20,31.40L8.88,31.77L9.21,31.59L9.47,31.52L9.63,31.41L12.33,32.88L12.52,32.92L12.73,32.86L12.85,32.78L13.03,32.66L13.20,32.48L13.33,32.25L13.41,32.01L13.44,31.78L13.44,31.66L13.40,31.42L13.29,31.25L10.56,29.78L10.62,29.63L10.48,29.41L10.47,29.37L10.40,29.23L10.30,29.11L10.27,29.10L10.04,28.75L9.36,28.38L8.69,28.64L8.43,28.82L8.40,28.86L8.20,29.01L8.07,29.25L7.98,29.38L7.82,29.71L7.73,30.02"/></g></g><g id="Actor_2.5"><g style="stroke:#000000;stroke-width:0.176"><path d="M41.53,144.63L41.53,145.55L41.60,144.99L41.81,144.42L42.14,143.88L42.20,143.80L41.53,144.63L40.62,144.14"/><path d="M44.21,143.18L43.54,143.08L43.78,143.16L43.87,143.21L43.50,143.12L43.07,143.22L42.63,143.50L42.23,143.93L41.90,144.46L41.69,145.04L41.62,145.60L41.69,146.08L41.90,146.43L42.23,146.61"/><path d="M42.15,146.56L41.81,146.38L41.60,146.03L41.53,145.55L41.53,146.47"/><path d="M42.40,146.01L42.42,146.02L43.10,146.38L43.07,146.41L42.63,146.60L42.42,146.60"/><path d="M42.87,142.98L42.20,143.80L42.54,143.46L42.98,143.17L43.41,143.07L43.54,143.08L42.87,142.98L41.96,142.49"/><path d="M43.10,146.38L43.10,146.38"/><path d="M43.52,143.76L44.30,144.17"/><path d="M43.71,143.86L43.72,143.86"/><path d="M43.87,143.21L44.14,143.48L44.21,143.69"/><path d="M48.47,146.41L48.22,146.35L47.94,146.42L47.64,146.60L47.38,146.89L47.16,147.24L47.02,147.63L46.97,148.00L47.02,148.32L47.16,148.55L47.38,148.67"/><path d="M48.05,148.46L47.80,148.57L47.57,148.58L47.38,148.47L47.26,148.27L47.22,148.00L47.26,147.68L47.38,147.35L47.57,147.04L47.80,146.79L48.05,146.63L48.30,146.57L48.51,146.63L48.66,146.78L48.75,147.02"/></g><g style="stroke:#000000;stroke-width:0.529"><path d="M40.85,146.10L40.62,145.98L40.53,145.43L40.50,144.99L40.53,144.59L40.62,144.14L40.89,143.64L41.17,143.25L41.51,142.89L41.96,142.49L42.23,142.50L42.51,142.53L42.85,142.59L43.30,142.69L44.21,143.18L44.21,143.69L44.28,143.90L44.30,144.15L44.30,144.17L48.47,146.41L48.65,146.59L48.75,146.87L48.75,147.02L48.75,147.32L48.66,147.65L48.51,147.98L48.30,148.26L48.05,148.46L47.94,148.54L47.64,148.67L47.38,148.67L43.10,146.38L42.87,146.67L42.42,146.60L42.23,146.61L42.15,146.56L41.53,146.47L40.85,146.10"/></g></g><g id="Actor_5.3"><g style="stroke:#000000;stroke-width:0.176"><path d="M27.28,40.20L27.04,40.07L26.73,40.09L26.50,40.20L26.40,40.25L26.08,40.52L25.81,40.90L25.61,41.32L25.51,41.75L25.52,42.00L25.52,42.14L25.64,42.44L25.85,42.64L25.78,42.60L25.57,42.41L25.28,41.97L24.60,41.60"/><path d="M25.28,41.97L25.86,40.46L25.18,40.09"/><path d="M25.05,40.33L24.80,40.80L24.69,41.24"/><path d="M25.38,39.94L25.67,39.73"/><path d="M25.86,42.85L25.57,42.41L25.45,42.10L25.45,41.71L25.54,41.28L25.57,41.21L25.74,40.86L26.01,40.49L26.33,40.21L26.44,40.14L25.86,40.46"/><path d="M26.06,42.20L26.61,42.50"/><path d="M25.85,42.64L26.13,42.69L26.19,42.67"/><path d="M27.25,40.18L27.22,40.16L26.97,40.04L26.66,40.05L26.44,40.14L27.02,39.83"/><path d="M27.00,40.56L27.02,40.57L27.55,40.86"/><path d="M27.51,40.84L27.51,40.80L27.46,40.50"/><path d="M30.27,42.34L30.10,42.25L29.90,42.27L29.68,42.37L29.47,42.56L29.28,42.80L29.15,43.09L29.09,43.37L29.09,43.63L29.17,43.84L29.31,43.96"/><path d="M30.42,42.86L30.39,42.66L30.29,42.52L30.15,42.45L29.98,42.46L29.80,42.55L29.62,42.71L29.47,42.91L29.36,43.15L29.30,43.39L29.31,43.61L29.37,43.78L29.49,43.89L29.65,43.92L29.83,43.87"/></g><g style="stroke:#000000;stroke-width:0.529"><path d="M24.81,42.00L25.18,42.48L25.86,42.85L26.19,42.67L26.45,42.60L26.61,42.50L29.31,43.96L29.50,44.00L29.72,43.94L29.83,43.87L30.01,43.74L30.18,43.56L30.31,43.33L30.40,43.09L30.42,42.86L30.42,42.74L30.38,42.51L30.27,42.34L27.55,40.86L27.60,40.72L27.46,40.50L27.45,40.45L27.38,40.31L27.28,40.20L27.25,40.18L27.02,39.83L26.34,39.46L25.67,39.73L25.41,39.91L25.38,39.94L25.18,40.09L25.05,40.33L24.96,40.47L24.80,40.80L24.70,41.13L24.69,41.24L24.60,41.60L24.80,41.99L24.81,42.00"/></g></g><g id="Actor_6.0"><g style="stroke:#000000;stroke-width:0.176"><path d="M136.33,105.34L135.45,104.85L134.88,103.90L134.68,102.60L134.88,101.09L135.45,99.53L136.33,98.10L137.42,96.94"/><path d="M138.98,97.74L138.48,97.47L138.98,97.19L138.98,97.74L139.65,97.79L140.16,98.15L140.48,98.78L140.55,99.63L140.38,100.58L139.97,101.55L139.39,102.41L138.69,103.08L137.94,103.48L137.24,103.57L136.66,103.33L136.25,102.80L136.09,102.07"/><path d="M137.97,96.59L138.61,96.18L139.77,95.90L140.77,96.14"/><path d="M138.48,97.47L138.24,97.59"/></g><g style="stroke:#000000;stroke-width:0.529"><path d="M138.28,94.87L138.54,94.94L140.77,96.14L141.51,96.87L141.90,98.01L141.90,99.43L141.51,100.99L141.32,101.37L140.77,102.51L139.77,103.82L138.61,104.80L137.42,105.32L136.33,105.34L134.10,104.13L133.22,103.64L132.65,102.70L132.45,101.40L132.65,99.89L133.20,98.37L133.22,98.33L134.10,96.89L135.19,95.73L136.38,94.97L137.33,94.75"/><path d="M136.45,101.87L136.09,102.07L136.08,102.03L136.15,101.11L136.47,100.14L136.98,99.22L137.64,98.46L137.64,97.91L138.24,97.59L138.32,98.42L138.14,99.38L137.74,100.34L137.16,101.21L136.45,101.87"/></g></g><g><g><path style="stroke:#000000;stroke-width:0.044;stroke-dasharray:3.1 2.1 1.0 2.1" d="M192.08,69.95L202.97,75.81"/><path style="stroke:#000000;stroke-width:0.044;stroke-dasharray:3.1 2.1 1.0 2.1" d="M240.74,96.16L239.74,95.63"/></g></g><g><g><path style="stroke:#000000;stroke-width:0.044;stroke-dasharray:3.1 2.1 1.0 2.1" d="M192.08,51.98L219.64,66.83"/><path style="stroke:#000000;stroke-width:0.044;stroke-dasharray:3.1 2.1 1.0 2.1" d="M240.74,78.20L239.74,77.66"/></g></g><g><g><path style="stroke:#000000;stroke-width:0.044;stroke-dasharray:3.1 2.1 1.0 2.1" d="M37.04,47.05L29.86,43.18"/><path style="stroke:#000000;stroke-width:0.044;stroke-dasharray:3.1 2.1 1.0 2.1" d="M133.05,98.78L126.71,95.36"/><path style="stroke:#000000;stroke-width:0.044;stroke-dasharray:3.1 2.1 1.0 2.1" d="M137.26,101.05L136.33,100.55"/><path style="stroke:#000000;stroke-width:0.044;stroke-dasharray:3.1 2.1 1.0 2.1" d="M146.70,106.13L140.54,102.81"/><path style="stroke:#000000;stroke-width:0.044;stroke-dasharray:3.1 2.1 1.0 2.1" d="M173.77,120.71L160.59,113.61"/></g></g><g><g><path style="stroke:#000000;stroke-width:0.044;stroke-dasharray:3.1 2.1 1.0 2.1" d="M192.08,34.02L236.31,57.85"/><path style="stroke:#000000;stroke-width:0.044;stroke-dasharray:3.1 2.1 1.0 2.1" d="M240.74,60.23L239.74,59.69"/></g></g><g><g><path style="stroke:#000000;stroke-width:0.044;stroke-dasharray:3.1 2.1 1.0 2.1" d="M79.81,49.86L29.86,22.95"/><path style="stroke:#000000;stroke-width:0.044;stroke-dasharray:3.1 2.1 1.0 2.1" d="M100.22,60.86L80.65,50.32"/><path style="stroke:#000000;stroke-width:0.044;stroke-dasharray:3.1 2.1 1.0 2.1" d="M139.60,82.07L124.62,74.00"/><path style="stroke:#000000;stroke-width:0.044;stroke-dasharray:3.1 2.1 1.0 2.1" d="M165.47,96.01L140.48,82.55"/></g></g><g><g><path style="stroke:#000000;stroke-width:0.044;stroke-dasharray:3.1 2.1 1.0 2.1" d="M35.67,64.61L12.88,52.33"/><path style="stroke:#000000;stroke-width:0.044;stroke-dasharray:3.1 2.1 1.0 2.1" d="M77.03,86.89L79.90,88.44"/><path style="stroke:#000000;stroke-width:0.044;stroke-dasharray:3.1 2.1 1.0 2.1" d="M129.71,115.28L107.64,103.39"/><path style="stroke:#000000;stroke-width:0.044;stroke-dasharray:3.1 2.1 1.0 2.1" d="M138.98,120.27L137.19,119.31"/></g></g><g><g><path style="stroke:#000000;stroke-width:0.044;stroke-dasharray:3.1 2.1 1.0 2.1" d="M242.42,97.07L283.80,119.36"/></g></g><g><g><path style="stroke:#000000;stroke-width:0.044;stroke-dasharray:3.1 2.1 1.0 2.1" d="M83.24,70.01L12.88,32.10"/><path style="stroke:#000000;stroke-width:0.044;stroke-dasharray:3.1 2.1 1.0 2.1" d="M104.99,81.73L101.82,80.02"/><path style="stroke:#000000;stroke-width:0.044;stroke-dasharray:3.1 2.1 1.0 2.1" d="M148.49,105.16L107.64,83.15"/></g></g><g><g><path style="stroke:#000000;stroke-width:0.044;stroke-dasharray:3.1 2.1 1.0 2.1" d="M242.42,79.10L283.80,101.40"/></g></g><g><g><path style="stroke:#000000;stroke-width:0.044;stroke-dasharray:3.1 2.1 1.0 2.1" d="M242.42,61.14L283.80,83.43"/></g></g><g><g><path style="stroke:#000000;stroke-width:0.044;stroke-dasharray:3.1 2.1 1.0 2.1" d="M124.67,93.32L133.40,98.03"/><path style="stroke:#000000;stroke-width:0.044;stroke-dasharray:3.1 2.1 1.0 2.1" d="M136.66,99.79L147.57,105.66"/><path style="stroke:#000000;stroke-width:0.044;stroke-dasharray:3.1 2.1 1.0 2.1" d="M160.96,112.88L209.03,138.77"/></g></g><g><g><path style="stroke:#000000;stroke-width:0.044;stroke-dasharray:3.1 2.1 1.0 2.1" d="M47.99,147.58L92.46,171.54"/><path style="stroke:#000000;stroke-width:0.044;stroke-dasharray:3.1 2.1 1.0 2.1" d="M96.64,173.80L95.65,173.26"/></g></g><g><g><path style="stroke:#000000;stroke-width:0.044;stroke-dasharray:3.1 2.1 1.0 2.1" d="M92.46,153.57L47.99,129.62"/><path style="stroke:#000000;stroke-width:0.044;stroke-dasharray:3.1 2.1 1.0 2.1" d="M95.65,155.29L96.64,155.83"/></g></g><g><g><path style="stroke:#000000;stroke-width:0.044;stroke-dasharray:3.1 2.1 1.0 2.1" d="M213.83,124.39L213.83,135.07"/></g></g><g><g><path style="stroke:#000000;stroke-width:0.044;stroke-dasharray:3.1 2.1 1.0 2.1" d="M47.99,111.65L92.46,135.61"/><path style="stroke:#000000;stroke-width:0.044;stroke-dasharray:3.1 2.1 1.0 2.1" d="M95.65,137.33L96.64,137.87"/></g></g><g><g><path style="stroke:#000000;stroke-width:0.044;stroke-dasharray:3.1 2.1 1.0 2.1" d="M98.33,174.70L139.71,197.00"/></g></g><g><g><path style="stroke:#000000;stroke-width:0.044;stroke-dasharray:3.1 2.1 1.0 2.1" d="M98.33,156.74L139.71,179.03"/></g></g><g><g><path style="stroke:#000000;stroke-width:0.044;stroke-dasharray:3.1 2.1 1.0 2.1" d="M98.33,138.77L139.71,161.07"/></g></g><g id="PMI4.0"><g><path style="stroke:#000000;stroke-width:0.044" d="M92.22,23.16L77.47,56.28"/></g><g><path style="fill:#000000" d="M78.22,56.28L78.22,56.21L78.21,56.14L78.19,56.06L78.17,56.00L78.14,55.93L78.10,55.87L78.05,55.81L78.00,55.75L77.95,55.70L77.89,55.66L77.83,55.62L77.76,55.59L77.69,55.56L77.62,55.55L77.55,55.54L77.47,55.53L77.40,55.54L77.33,55.55L77.26,55.56L77.19,55.59L77.12,55.62L77.06,55.66L77.00,55.70L76.94,55.75L76.89,55.81L76.85,55.87L76.81,55.93L76.78,56.00L76.76,56.06L76.74,56.14L76.73,56.21L76.72,56.28L76.73,56.36L76.74,56.43L76.76,56.50L76.78,56.57L76.81,56.64L76.85,56.70L76.89,56.76L76.94,56.81L77.00,56.86L77.06,56.91L77.12,56.94L77.19,56.97L77.26,57.00L77.33,57.02L77.40,57.03L77.47,57.03L77.55,57.03L77.62,57.02L77.69,57.00L77.76,56.97L77.83,56.94L77.89,56.91L77.95,56.86L78.00,56.81L78.05,56.76L78.10,56.70L78.14,56.64L78.17,56.57L78.19,56.50L78.21,56.43L78.22,56.36z"/></g><g><text xml:space="preserve" fill="#000000" stroke-width="0" x="83.88" y="21.41" font-size="3.45" opacity="1.00" font-family="Arial">NNTM0073</text></g></g><g id="PMI6.0"><g><path style="stroke:#000000;stroke-width:0.044" d="M150.62,23.16L137.42,96.94"/></g><g><path style="fill:#000000" d="M138.17,96.94L138.17,96.86L138.16,96.79L138.14,96.72L138.12,96.65L138.09,96.58L138.05,96.52L138.00,96.46L137.95,96.40L137.90,96.36L137.84,96.31L137.78,96.27L137.71,96.24L137.64,96.22L137.57,96.20L137.50,96.19L137.42,96.19L137.35,96.19L137.28,96.20L137.21,96.22L137.14,96.24L137.07,96.27L137.01,96.31L136.95,96.36L136.89,96.40L136.84,96.46L136.80,96.52L136.76,96.58L136.73,96.65L136.71,96.72L136.69,96.79L136.68,96.86L136.67,96.94L136.68,97.01L136.69,97.08L136.71,97.15L136.73,97.22L136.76,97.29L136.80,97.35L136.84,97.41L136.89,97.47L136.95,97.51L137.01,97.56L137.07,97.60L137.14,97.63L137.21,97.65L137.28,97.67L137.35,97.68L137.42,97.69L137.50,97.68L137.57,97.67L137.64,97.65L137.71,97.63L137.78,97.60L137.84,97.56L137.90,97.51L137.95,97.47L138.00,97.41L138.05,97.35L138.09,97.29L138.12,97.22L138.14,97.15L138.16,97.08L138.17,97.01z"/></g><g><text xml:space="preserve" fill="#000000" stroke-width="0" x="142.09" y="21.41" font-size="3.45" opacity="1.00" font-family="Arial">BPA22542</text></g></g><g id="PMI1.0"><g><path style="stroke:#000000;stroke-width:0.044" d="M167.70,194.13L156.71,137.56"/></g><g><path style="fill:#000000" d="M157.46,137.56L157.45,137.49L157.44,137.42L157.42,137.35L157.40,137.28L157.37,137.21L157.33,137.15L157.28,137.09L157.24,137.03L157.18,136.98L157.12,136.94L157.06,136.90L156.99,136.87L156.92,136.85L156.85,136.83L156.78,136.82L156.71,136.81L156.63,136.82L156.56,136.83L156.49,136.85L156.42,136.87L156.35,136.90L156.29,136.94L156.23,136.98L156.17,137.03L156.13,137.09L156.08,137.15L156.04,137.21L156.01,137.28L155.99,137.35L155.97,137.42L155.96,137.49L155.96,137.56L155.96,137.64L155.97,137.71L155.99,137.78L156.01,137.85L156.04,137.92L156.08,137.98L156.13,138.04L156.17,138.09L156.23,138.14L156.29,138.19L156.35,138.23L156.42,138.26L156.49,138.28L156.56,138.30L156.63,138.31L156.71,138.31L156.78,138.31L156.85,138.30L156.92,138.28L156.99,138.26L157.06,138.23L157.12,138.19L157.18,138.14L157.24,138.09L157.28,138.04L157.33,137.98L157.37,137.92L157.40,137.85L157.42,137.78L157.44,137.71L157.45,137.64z"/></g><g><text xml:space="preserve" fill="#000000" stroke-width="0" x="160.29" y="198.59" font-size="3.45" opacity="1.00" font-family="Arial">BPA9572</text></g></g><g><g/><g><text xml:space="preserve" fill="#000000" stroke-width="0" x="4.14" y="7.05" font-size="3.93" opacity="1.00" font-family="Arial" font-weight="bold">BPA38471</text></g></g><g id="PMI7.0"><g><path style="stroke:#000000;stroke-width:0.044" d="M223.45,194.13L214.40,147.56"/></g><g><path style="fill:#000000" d="M215.15,147.56L215.14,147.49L215.13,147.42L215.12,147.35L215.09,147.28L215.06,147.21L215.02,147.15L214.98,147.09L214.93,147.03L214.87,146.98L214.81,146.94L214.75,146.90L214.68,146.87L214.62,146.85L214.54,146.83L214.47,146.82L214.40,146.81L214.32,146.82L214.25,146.83L214.18,146.85L214.11,146.87L214.04,146.90L213.98,146.94L213.92,146.98L213.87,147.03L213.82,147.09L213.77,147.15L213.74,147.21L213.70,147.28L213.68,147.35L213.66,147.42L213.65,147.49L213.65,147.56L213.65,147.64L213.66,147.71L213.68,147.78L213.70,147.85L213.74,147.92L213.77,147.98L213.82,148.04L213.87,148.09L213.92,148.14L213.98,148.19L214.04,148.23L214.11,148.26L214.18,148.28L214.25,148.30L214.32,148.31L214.40,148.31L214.47,148.31L214.54,148.30L214.62,148.28L214.68,148.26L214.75,148.23L214.81,148.19L214.87,148.14L214.93,148.09L214.98,148.04L215.02,147.98L215.06,147.92L215.09,147.85L215.12,147.78L215.13,147.71L215.14,147.64z"/></g><g><text xml:space="preserve" fill="#000000" stroke-width="0" x="215.94" y="198.59" font-size="3.45" opacity="1.00" font-family="Arial">KKR0049</text></g></g><g id="PMI8.0"><g><path style="stroke:#000000;stroke-width:0.044" d="M277.00,194.13L213.34,123.14"/></g><g><path style="fill:#000000" d="M214.09,123.14L214.09,123.06L214.08,122.99L214.06,122.92L214.04,122.85L214.00,122.78L213.97,122.72L213.92,122.66L213.87,122.61L213.82,122.56L213.76,122.51L213.70,122.48L213.63,122.44L213.56,122.42L213.49,122.40L213.42,122.39L213.34,122.39L213.27,122.39L213.20,122.40L213.13,122.42L213.06,122.44L212.99,122.48L212.93,122.51L212.87,122.56L212.81,122.61L212.76,122.66L212.72,122.72L212.68,122.78L212.65,122.85L212.63,122.92L212.61,122.99L212.60,123.06L212.59,123.14L212.60,123.21L212.61,123.28L212.63,123.35L212.65,123.42L212.68,123.49L212.72,123.55L212.76,123.61L212.81,123.67L212.87,123.72L212.93,123.76L212.99,123.80L213.06,123.83L213.13,123.85L213.20,123.87L213.27,123.88L213.34,123.89L213.42,123.88L213.49,123.87L213.56,123.85L213.63,123.83L213.70,123.80L213.76,123.76L213.82,123.72L213.87,123.67L213.92,123.61L213.97,123.55L214.00,123.49L214.04,123.42L214.06,123.35L214.08,123.28L214.09,123.21z"/></g><g><text xml:space="preserve" fill="#000000" stroke-width="0" x="272.86" y="198.59" font-size="3.45" opacity="1.00" font-family="Arial">ND0447</text></g></g><g/><g id="paperID" visibility="hidden" opacity="0.00" transform="scale(0.000100)"><path style="stroke:#000000;stroke-width:0.500;fill:#e6e6e6;fill-rule:evenodd" d="M-2000.00,-2000.00L2297.00,-2000.00L2297.00,2210.00L-2000.00,2210.00zM0.00,0.00L297.00,0.00L297.00,210.00L0.00,210.00z"/><path style="fill:#000000;fill-opacity:0.118" d="M3.00,210.00L297.00,210.00L297.00,3.00L300.00,3.00L300.00,213.00L3.00,213.00z"/></g></g></svg>
