<?xml version="1.0" encoding="UTF-8" standalone="no"?>
<svg xmlns="http://www.w3.org/2000/svg" xmlns:xlink="http://www.w3.org/1999/xlink" width="297.000mm" height="210.000mm" viewBox="0.000000 0.000000 297.000000 210.000000" stroke-linejoin="round" stroke-linecap="round" fill="none" fill-rule="evenodd"><desc>Composer Export</desc><script type="text/ecmascript"><![CDATA[
if(typeof(top) != "undefined")
{
	top.ShowPaper = ShowPaper;
}
function ShowHotSpot(evt,hotspotid)
{
	var svgDocument = evt.target.ownerDocument;
	var strId = "hotspot."+hotspotid;
	var hotspot = svgDocument.getElementById(strId);
	if(hotspot)
		hotspot.setAttribute("opacity",".5");
}
function HideHotSpot(evt,hotspotid)
{
	var svgDocument = evt.target.ownerDocument;
	var strId = "hotspot."+hotspotid;
	var hotspot = svgDocument.getElementById(strId);
	if(hotspot)
		hotspot.setAttribute("opacity","0");

	var toolTip = svgDocument.getElementById('ToolTip');
	if(toolTip)
		toolTip.setAttribute("visibility","hidden");
}
function ShowToolTip(evt,hotspotid,strTooltip)
{
	if(strTooltip=="")
	return;

	// change text
	var svgDocument = evt.target.ownerDocument;
	var tiptext = svgDocument.getElementById('ToolTipText');
	if( !tiptext )
	return;
	tiptext.firstChild.nodeValue = " " + strTooltip + "  " ;

	// show tooltip before, else some refresh issue

	var toolTip = svgDocument.getElementById('ToolTip');
	if(!toolTip)
	return;

	toolTip.setAttribute("visibility","visible");
	toolTip.setAttribute("opacity",".95");

	// move tooltip
	// get viewbox

	var root = svgDocument.documentElement;
	var vbox = (root.getAttribute("viewBox")).split(' ');
	var x0 = parseFloat(vbox[0]);
	var y0 = parseFloat(vbox[1]);
	var vboxW = parseFloat(vbox[2]);
	var vboxH = parseFloat(vbox[3]);

	// get default width of svg

	var strW = root.getAttribute("width");
	var svgW = parseFloat(strW);
	if(strW.indexOf('mm') != -1)
	svgW *= 3.779;

	var strH = root.getAttribute("height");
	var svgH = parseFloat(strH);
	if(strH.indexOf('mm') != -1)
	svgH *= 3.779;  	// 96 dpi  -> 96/25.4 = 3.779

	// update the viewbox / width / height if svg is embedded in html with zoom fit all
	var realx0 = x0;
	var realy0 = y0;
	var realvboxW = vboxW;
	var realvboxH = vboxH;
	var realsvgW = svgW;
	var realsvgH = svgH;

	if ((typeof(top) == "undefined") || (typeof(top.svgctl1) != "undefined")) // embedded in html
	{
		// get window size in pxl

		svgW = window.innerWidth;
		svgH = window.innerHeight;

		// calculate real viewbox

		realsvgW = svgW;
		realsvgH = svgH;
		if((svgW / svgH) > (vboxW / vboxH))
		{
			realvboxW = (vboxH * svgW) / svgH;
			realvboxH = vboxH;
			realx0 = x0 - (realvboxW - vboxW)/2 ;
		}
		else
		{
			realvboxH = (vboxW * svgH) / svgW;
			realvboxW = vboxW;
			realy0 = y0 - (realvboxH - vboxH)/2 ;
		}
	}

	// get user zoom/pan

	var newScale = root.currentScale;
	var translation = root.currentTranslate;

	// transform pxl to user unit

	var xPos = (((evt.clientX+10- translation.x)/newScale) * realvboxW)/realsvgW  + realx0 ;
	var yPos = (((evt.clientY+5- translation.y)/newScale) * realvboxH)/ realsvgH  + realy0 ;
	var scaleForWidth = ( (1 / newScale) * realvboxH) / realsvgH;

	// move tooltip

	toolTip.setAttribute("transform", "translate(" + xPos + "," + yPos + ")" );

	// resize tooltip

	var fontsize = 12;
	tiptext.setAttribute("font-size",fontsize*scaleForWidth);
	tiptext.setAttribute("y", fontsize*scaleForWidth);
	var tipBG = svgDocument.getElementById('ToolTipBG');
	var outline = tiptext.getBBox();
	if(tipBG)
	{
		tipBG.setAttribute("stroke-width", 1*scaleForWidth);
		tipBG.setAttribute("width", Number(outline.width) );
		tipBG.setAttribute("height", Number(outline.height) + fontsize*.5*scaleForWidth );
	}
	var ToolTipShadow = svgDocument.getElementById('ToolTipShadow');
	if(ToolTipShadow)
	{
		ToolTipShadow.setAttribute("width", Number(outline.width) );
		ToolTipShadow.setAttribute("height", Number(outline.height) + fontsize*.5*scaleForWidth );
		ToolTipShadow.setAttribute("x", 3*scaleForWidth);
		ToolTipShadow.setAttribute("y", 3*scaleForWidth);
	}
}
function ShowPaper()
{
  var svgDocument = getDocument();
  var paper = svgDocument.getElementById("paperID");
  if(paper)
  {
    paper.setAttribute("transform","scale(1)");
    paper.setAttribute("opacity","1");
    paper.setAttribute("visibility","visible");
  }
  var svg = svgDocument.getRootElement();
  if(svg)
  {
    svg.setAttribute("width","307.000mm");
    svg.setAttribute("height","220.000mm");
    svg.setAttribute("viewBox","-5.000000 -5.000000 307.000000 220.000000");
  }
}
]]></script><defs/><g><path style="fill:#000000;fill-opacity:0.098;fill-rule:evenodd" d="M134.32,22.88L135.06,22.50L135.77,22.50L135.77,25.95L134.59,26.22L134.49,27.42L125.71,32.54L125.27,32.53L123.49,31.55L123.44,30.26L134.49,23.87L134.34,23.63zM121.07,30.47L121.82,30.09L122.53,30.09L122.53,31.61L121.54,31.56L121.07,31.23zM140.77,40.25L140.40,40.25L138.78,41.23L138.04,42.11L137.01,43.98L136.74,45.33L136.58,50.18L136.03,50.92L119.13,60.67L118.64,60.80L118.33,60.62L118.17,55.60L117.36,54.96L116.23,54.30L116.02,54.31L114.93,54.85L113.74,55.92L113.09,56.89L112.46,58.20L112.19,59.70L112.04,64.23L111.71,64.88L90.50,77.11L89.88,77.12L89.69,76.98L89.59,71.91L88.93,71.44L87.81,70.78L87.10,70.78L85.81,71.60L84.52,73.22L83.75,75.03L83.60,76.17L83.45,80.70L83.06,81.28L65.95,91.16L65.50,91.17L65.30,91.03L65.19,86.78L65.03,85.81L63.26,84.83L62.72,84.84L61.96,85.21L60.52,86.52L59.79,87.73L59.21,89.41L59.06,94.59L58.56,95.38L45.44,102.93L44.79,103.16L44.84,83.76L157.03,19.42L157.08,38.86L143.53,46.65L143.20,46.75L142.88,46.56L142.71,41.88L142.40,41.23zM96.50,44.67L96.95,44.30L97.44,44.14L97.98,44.13L97.98,47.59L97.26,47.68L96.96,47.86L96.84,49.04L87.92,54.17L87.33,54.15L85.70,53.19L85.65,51.90L96.64,45.59L96.69,45.43L96.54,45.27zM83.28,52.11L84.20,51.73L84.74,51.72L84.74,53.25L83.75,53.20L83.28,52.87zM176.78,55.67L177.23,55.43L177.59,55.43L177.59,56.32L176.78,56.09zM58.66,66.43L59.16,65.95L59.64,65.78L60.35,65.78L60.35,69.24L59.17,69.50L59.07,70.70L50.27,75.79L49.53,75.79L47.91,74.83L47.91,73.59L58.90,67.28L58.92,67.09L58.75,66.90zM154.92,68.22L155.26,68.02L155.63,68.03L155.63,68.76L154.97,68.69zM45.49,73.92L45.92,73.53L46.94,73.36L46.94,75.06L45.96,74.84L45.48,74.50zM196.32,77.95L196.82,77.88L196.82,78.45L196.32,78.38zM132.32,81.27L132.64,80.95L133.19,80.95L133.19,81.68L132.53,81.61zM190.29,81.46L190.63,81.26L191.00,81.28L191.01,81.83L190.33,81.77zM118.19,89.81L118.08,89.36L118.26,89.18L118.81,89.19L118.81,89.92zM171.72,92.12L172.05,91.92L172.43,91.94L172.44,92.49L171.76,92.43zM251.89,93.62L252.31,93.39L252.86,93.39L252.86,94.43L252.05,94.37L251.88,94.21zM166.46,95.88L165.90,95.88L165.96,95.38L166.45,95.33zM241.71,95.72L242.14,95.49L242.68,95.49L242.69,96.53L241.87,96.47L241.71,96.31zM229.80,98.85L229.69,98.41L230.02,98.08L230.74,98.08L230.73,99.12L230.24,99.06zM217.48,100.89L218.25,100.49L218.61,100.49L218.63,101.54L217.65,101.48L217.48,101.31zM95.70,102.18L96.36,102.11L96.36,102.84L96.04,102.79L95.71,102.60zM205.37,103.31L205.80,103.08L206.35,103.08L206.35,104.12L205.54,104.06L205.37,103.90zM193.10,105.89L193.53,105.67L194.07,105.66L194.07,106.71L193.41,106.66L193.10,106.48zM143.22,108.86L143.17,108.48L143.85,108.41L143.84,108.97zM180.93,108.43L181.24,108.25L181.96,108.25L181.96,109.29L181.30,109.24L180.99,109.07zM175.49,111.55L175.92,111.32L176.63,111.32L176.63,112.36L175.97,112.31L175.49,111.97zM137.32,111.81L137.87,111.81L137.87,112.36L137.38,112.31zM73.74,114.78L74.42,114.56L74.40,115.43L74.08,115.39L73.74,115.19zM171.14,118.49L171.56,118.26L172.11,118.26L172.11,119.30L171.30,119.24L171.13,119.08zM118.75,122.47L119.30,122.46L119.30,123.02L118.80,122.96zM167.75,125.35L167.74,126.42L167.25,126.36L166.60,126.02L166.60,125.60L166.88,125.37L167.62,125.21zM112.82,125.91L113.32,125.85L113.32,126.41L112.82,126.35zM162.25,132.54L162.51,132.31L163.23,132.32L163.23,133.36L162.56,133.30L162.25,133.13zM253.82,135.44L253.30,135.72L252.64,135.78L252.64,132.64L253.61,132.32L253.82,131.66zM257.66,136.68L261.43,134.59L261.43,138.04L259.41,139.27L259.17,139.28zM243.67,137.56L243.50,137.72L242.46,137.88L242.46,134.74L243.43,134.42L243.65,133.76zM219.41,139.07L219.56,139.09L219.60,142.40L219.06,142.83L218.24,142.88L218.24,139.75L219.06,139.60L219.41,139.34zM104.28,139.48L104.06,139.48L104.06,139.27L104.28,139.27zM157.72,139.65L158.32,139.26L158.86,139.26L158.87,140.30L158.04,140.25L157.72,140.06zM231.71,139.98L231.49,140.24L230.51,140.30L230.51,137.16L231.35,137.03L231.53,136.90L231.70,136.35zM207.31,145.13L206.78,145.41L206.13,145.47L206.13,142.33L207.10,142.01L207.31,141.35zM153.36,146.44L153.63,146.20L154.51,146.21L154.50,147.25L154.01,147.19L153.36,146.85zM182.57,147.20L182.76,147.07L182.92,146.52L182.94,150.16L182.56,150.42L181.57,150.47L181.63,147.34zM195.04,147.72L194.51,147.99L193.85,148.05L193.85,144.92L195.04,144.58zM177.39,149.75L177.58,149.74L177.61,153.23L177.11,153.53L176.25,153.71L176.25,150.58L177.42,150.15zM149.63,152.40L150.08,152.02L150.79,152.02L150.79,153.06L150.13,153.01L149.65,152.67zM184.22,157.36L184.56,158.22L156.92,201.81L153.83,196.77L153.83,196.33L181.49,152.82zM173.09,160.34L172.92,160.49L171.89,160.65L171.89,157.52L172.86,157.20L173.07,156.53zM146.09,162.03L144.80,164.19L144.82,163.55L145.31,162.83L144.60,162.41L144.65,161.22zM259.64,100.72L257.66,101.81L181.25,117.78L153.54,161.45L151.55,162.69L147.34,162.75L147.34,156.54L151.55,156.40L153.47,155.25L181.27,111.50L257.66,95.51L259.44,94.50L259.64,94.52zM168.54,163.79L168.69,163.80L168.72,167.11L168.33,167.53L167.36,167.59L167.36,164.45L168.35,164.30L168.53,163.95zM164.20,174.22L163.87,174.53L163.01,174.71L163.01,171.57L163.98,171.25L164.19,170.58zM159.65,177.84L159.81,177.85L159.84,181.16L159.31,181.59L158.48,181.64L158.48,178.51L159.31,178.36L159.66,178.10zM155.29,184.62L155.45,184.63L155.49,188.11L155.11,188.38L154.12,188.42L154.12,185.29L155.10,185.13L155.29,184.78zM151.77,193.92L151.39,194.19L150.40,194.24L150.41,191.27L151.58,190.82L151.76,190.45zM153.55,199.90L149.91,202.10L149.61,202.16L149.61,198.71L153.54,196.44z"/><g id="Actor_.0"><g style="stroke:#000000;stroke-width:0.176"><path d="M104.46,140.64L144.78,163.77L144.78,164.36"/><path d="M144.78,163.77L145.87,162.05"/></g><g style="stroke:#000000;stroke-width:0.529"><path d="M105.48,140.06L104.46,140.64L104.46,141.24L144.78,164.36L146.14,162.21"/></g></g><g id="Actor_.1"><g style="stroke:#000000;stroke-width:0.176"><path d="M175.29,149.98L175.40,150.19L175.62,150.37L175.93,150.50L176.29,150.56L176.67,150.55L177.03,150.47L177.32,150.33L177.51,150.14L177.59,149.93"/><path d="M175.79,149.33L175.58,149.48L175.46,149.65L175.45,149.84L175.50,149.94L175.54,150.02L175.73,150.17L176.00,150.28L176.31,150.34L176.64,150.33L176.95,150.26L177.20,150.14L177.36,149.98L177.43,149.79L177.39,149.61L177.25,149.44"/></g><g style="stroke:#000000;stroke-width:0.529"><path d="M177.58,153.31L177.59,149.93L177.54,149.71L177.38,149.52L177.25,149.44L177.01,149.31L176.72,149.22L176.39,149.20L176.07,149.24L175.79,149.33L175.69,149.40L175.44,149.56L175.31,149.77L175.29,149.98L175.28,153.30"/></g></g><g id="Actor_.2"><g style="stroke:#000000;stroke-width:0.176"><path d="M161.96,170.99L162.07,171.20L162.29,171.38L162.60,171.50L162.96,171.56L163.34,171.56L163.70,171.48L163.99,171.34L164.18,171.15L164.26,170.93"/><path d="M163.92,170.45L164.06,170.61L164.10,170.80L164.03,170.98L163.87,171.15L163.62,171.27L163.31,171.34L162.98,171.34L162.67,171.29L162.40,171.18L162.21,171.03L162.12,170.85L162.13,170.66L162.25,170.48L162.46,170.34"/></g><g style="stroke:#000000;stroke-width:0.529"><path d="M164.25,174.31L164.26,170.93L164.21,170.72L164.05,170.52L163.92,170.45L163.68,170.31L163.39,170.23L163.07,170.21L162.74,170.24L162.46,170.34L162.36,170.40L162.11,170.57L161.98,170.77L161.96,170.99L161.95,174.31"/></g></g><g id="Actor_.3"><g style="stroke:#000000;stroke-width:0.176"><path d="M173.15,156.93L173.07,157.14L172.87,157.33L172.58,157.47L172.23,157.55L171.85,157.56L171.49,157.50L171.18,157.37L170.96,157.19L170.85,156.99"/><path d="M172.80,156.44L172.95,156.61L172.99,156.80L172.92,156.98L172.75,157.14L172.50,157.26L172.20,157.33L171.87,157.34L171.56,157.29L171.29,157.18L171.10,157.02L171.00,156.84L171.02,156.66L171.14,156.48L171.35,156.34"/></g><g style="stroke:#000000;stroke-width:0.529"><path d="M173.14,160.31L173.15,156.93L173.10,156.71L172.93,156.52L172.80,156.44L172.57,156.31L172.28,156.23L171.95,156.20L171.63,156.24L171.35,156.34L171.25,156.40L171.00,156.56L170.86,156.77L170.85,156.99L170.84,160.31"/></g></g><g id="Actor_.4"><g style="stroke:#000000;stroke-width:0.176"><path d="M243.73,134.12L243.67,134.33L243.50,134.53L243.23,134.68L242.88,134.77L242.51,134.80L242.14,134.75L241.81,134.63L241.57,134.47L241.44,134.26L241.43,134.04"/><path d="M243.34,133.64L243.51,133.81L243.57,133.99L243.52,134.18L243.37,134.34L243.14,134.47L242.84,134.55L242.52,134.58L242.20,134.53L241.92,134.44L241.71,134.29L241.59,134.11L241.59,133.93L241.68,133.75L241.88,133.60"/></g><g style="stroke:#000000;stroke-width:0.529"><path d="M243.72,137.56L243.73,134.12L243.65,133.90L243.47,133.72L243.34,133.64L243.10,133.52L242.79,133.45L242.46,133.44L242.15,133.49L241.88,133.60L241.81,133.64L241.77,133.66L241.54,133.84L241.43,134.04L241.42,137.53"/></g></g><g id="Actor_.5"><g style="stroke:#000000;stroke-width:0.176"><path d="M145.32,162.91L103.93,139.15"/><path d="M103.93,135.25L109.23,134.75L147.31,156.59L147.31,162.88"/><path d="M109.23,134.75L221.61,70.29"/><path d="M144.50,162.42L144.50,161.27L145.87,162.05"/><path d="M147.31,156.59L151.39,156.59L153.44,155.41L181.25,111.59L181.25,117.89"/><path d="M149.63,152.53L149.61,152.58L149.65,152.77L149.79,152.94L150.03,153.08L150.33,153.16L150.66,153.18L150.98,153.14L151.27,153.05L151.48,152.90L151.60,152.73L151.62,152.53L151.52,152.35L151.33,152.19L151.06,152.08L150.75,152.03L150.41,152.04L150.10,152.11L149.85,152.23L149.68,152.39L149.63,152.53"/><path d="M151.39,162.88L151.39,156.59"/><path d="M153.51,147.11L153.73,147.24L154.03,147.32L154.36,147.35L154.69,147.31L154.97,147.21L155.19,147.07L155.31,146.89L155.32,146.70L155.23,146.51L155.03,146.36L154.76,146.25L154.44,146.19L154.13,146.20L153.80,146.27L153.55,146.39L153.38,146.56L153.31,146.74L153.35,146.93L153.51,147.11"/><path d="M158.04,140.37L158.38,140.48L158.70,140.50L159.03,140.46L159.32,140.36L159.53,140.22L159.65,140.04L159.67,139.85L159.57,139.67L159.38,139.51L159.11,139.40L158.79,139.35L158.46,139.36L158.15,139.42L157.89,139.55L157.72,139.71L157.65,139.90L157.70,140.09L157.84,140.26L158.04,140.37"/><path d="M162.17,132.71L162.33,132.55L162.59,132.42L162.90,132.35L163.23,132.35L163.55,132.40L163.82,132.51L164.01,132.67L164.11,132.85L164.09,133.04L163.97,133.22L163.76,133.36L163.47,133.46L163.15,133.50L162.82,133.48L162.52,133.39L162.28,133.26L162.14,133.09L162.10,132.90L162.17,132.71"/><path d="M166.73,126.25L166.58,126.08L166.54,125.89L166.61,125.71L166.78,125.54L167.03,125.42L167.34,125.35L167.67,125.34L167.99,125.40L168.26,125.51L168.46,125.66L168.55,125.85L168.54,126.04L168.42,126.22L168.20,126.36L167.92,126.46L167.59,126.50L167.26,126.47L166.96,126.39L166.73,126.25"/><path d="M170.98,118.89L171.05,118.71L171.22,118.54L171.48,118.42L171.79,118.35L172.12,118.34L172.44,118.40L172.71,118.51L172.90,118.66L173.00,118.84L172.98,119.04L172.86,119.21L172.65,119.36L172.36,119.46L172.04,119.49L171.70,119.47L171.41,119.39L171.17,119.25L171.02,119.08L170.98,118.89"/><path d="M175.50,111.70L175.43,111.89L175.47,112.08L175.61,112.25L175.85,112.39L176.15,112.47L176.48,112.49L176.80,112.45L177.09,112.36L177.30,112.21L177.43,112.03L177.44,111.84L177.34,111.66L177.15,111.50L176.88,111.39L176.56,111.34L176.23,111.35L175.92,111.42L175.67,111.54L175.50,111.70"/><path d="M180.84,109.00L180.80,108.81L180.86,108.62L181.03,108.46L181.29,108.34L181.60,108.27L181.93,108.26L182.25,108.31L182.52,108.42L182.71,108.58L182.81,108.76L182.79,108.95L182.67,109.13L182.46,109.28L182.17,109.37L181.85,109.41L181.52,109.39L181.22,109.31L180.98,109.17L180.84,109.00"/><path d="M181.25,111.59L257.63,95.65L259.69,94.47"/><path d="M193.46,106.77L193.19,106.62L193.04,106.45L193.00,106.26L193.07,106.08L193.24,105.91L193.49,105.79L193.81,105.72L194.14,105.71L194.46,105.77L194.73,105.88L194.92,106.03L195.02,106.21L195.00,106.41L194.88,106.58L194.67,106.73L194.38,106.83L194.05,106.87L193.72,106.84L193.46,106.77"/><path d="M205.55,103.32L205.45,103.36L205.28,103.53L205.21,103.71L205.25,103.90L205.40,104.07L205.63,104.21L205.93,104.29L206.26,104.32L206.59,104.28L206.87,104.18L207.09,104.03L207.21,103.86L207.22,103.67L207.13,103.48L206.93,103.33L206.66,103.22L206.35,103.16L206.01,103.17L205.70,103.24L205.55,103.32"/><path d="M217.42,101.17L217.46,101.35L217.61,101.53L217.84,101.66L218.14,101.74L218.47,101.77L218.80,101.73L219.08,101.63L219.30,101.49L219.42,101.31L219.43,101.12L219.34,100.93L219.14,100.78L218.87,100.67L218.55,100.61L218.22,100.62L217.91,100.69L217.66,100.81L217.49,100.98L217.42,101.17"/><path d="M229.81,98.98L230.05,99.11L230.35,99.20L230.68,99.22L231.00,99.18L231.29,99.08L231.50,98.94L231.63,98.76L231.64,98.57L231.54,98.39L231.35,98.23L231.08,98.12L230.76,98.07L230.43,98.07L230.12,98.14L229.86,98.27L229.69,98.43L229.63,98.62L229.68,98.82L229.81,98.98"/><path d="M241.80,95.77L241.63,95.94L241.56,96.12L241.61,96.31L241.75,96.49L241.99,96.62L242.29,96.70L242.61,96.73L242.94,96.69L243.23,96.59L243.44,96.45L243.56,96.27L243.58,96.08L243.48,95.89L243.29,95.74L243.02,95.63L242.70,95.57L242.37,95.58L242.05,95.65L241.80,95.77"/><path d="M251.92,94.36L252.16,94.50L252.46,94.58L252.79,94.60L253.11,94.56L253.40,94.47L253.60,94.33L253.73,94.14L253.75,93.95L253.65,93.77L253.46,93.61L253.19,93.50L252.87,93.45L252.54,93.46L252.23,93.53L251.98,93.65L251.80,93.81L251.74,94.00L251.78,94.19L251.92,94.36"/><path d="M259.69,92.13L259.69,93.96"/></g><g style="stroke:#000000;stroke-width:0.529"><path d="M104.62,139.56L103.93,139.15L103.93,135.25L216.31,70.79L221.63,70.30L259.69,92.13L259.69,100.76L257.63,101.94L181.25,117.89L153.44,161.70L151.39,162.88L147.31,162.88L145.87,162.05L145.32,162.91L104.62,139.56"/></g></g><g id="Actor_.6"><g style="stroke:#000000;stroke-width:0.176"><path d="M166.40,163.99L166.51,164.20L166.73,164.37L167.04,164.50L167.41,164.56L167.63,164.56L167.79,164.55L168.14,164.47L168.43,164.33L168.63,164.15L168.70,163.93"/><path d="M168.36,163.44L168.50,163.61L168.54,163.80L168.48,163.98L168.31,164.14L168.06,164.27L167.75,164.33L167.43,164.34L167.11,164.29L166.85,164.18L166.65,164.03L166.62,163.96L166.56,163.85L166.57,163.66L166.69,163.48L166.91,163.34"/></g><g style="stroke:#000000;stroke-width:0.529"><path d="M168.70,167.31L168.70,163.93L168.66,163.72L168.49,163.52L168.36,163.44L168.13,163.31L167.83,163.23L167.51,163.20L167.19,163.24L166.91,163.34L166.80,163.40L166.56,163.57L166.42,163.77L166.40,163.99L166.40,167.31"/></g></g><g id="Actor_.7"><g style="stroke:#000000;stroke-width:0.176"><path d="M174.83,149.08L152.14,184.84L151.73,185.11"/><path d="M152.14,184.84L153.17,185.05"/><path d="M181.47,152.89L160.14,186.51L155.47,185.53"/><path d="M159.81,180.87L159.86,180.93L159.88,181.16L159.78,181.38L159.55,181.58L159.23,181.71L158.84,181.79L158.44,181.78L158.29,181.75L158.06,181.70L157.75,181.56L157.53,181.36L157.44,181.13L157.48,180.90L157.51,180.86"/><path d="M160.14,186.51L163.94,190.79L163.94,190.85"/><path d="M161.96,173.86L161.92,173.90L161.88,174.13L161.97,174.36L162.19,174.55L162.50,174.70L162.54,174.71L162.88,174.78L163.29,174.78L163.67,174.71L163.99,174.57L164.22,174.38L164.33,174.16L164.30,173.93L164.25,173.86"/><path d="M163.94,190.79L184.63,158.19"/><path d="M166.40,166.86L166.37,166.90L166.33,167.13L166.42,167.36L166.63,167.55L166.95,167.70L167.19,167.75L167.33,167.78L167.73,167.78L168.11,167.71L168.44,167.57L168.66,167.38L168.77,167.16L168.74,166.93L168.70,166.86"/><path d="M170.84,159.86L170.81,159.90L170.77,160.13L170.86,160.35L171.07,160.55L171.39,160.70L171.50,160.72L171.77,160.78L172.17,160.78L172.56,160.71L172.88,160.57L173.11,160.38L173.21,160.15L173.19,159.92L173.14,159.86"/><path d="M177.58,152.86L177.63,152.92L177.66,153.15L177.55,153.38L177.32,153.57L177.03,153.69L177.00,153.71L176.62,153.78L176.21,153.77L175.83,153.69L175.52,153.55L175.30,153.35L175.21,153.13L175.25,152.90L175.28,152.86"/></g><g style="stroke:#000000;stroke-width:0.529"><path d="M151.73,185.11L174.49,149.24L174.83,149.08L175.55,149.49"/><path d="M177.59,150.66L181.47,152.89L184.63,158.19L184.63,158.25L163.94,190.85"/></g></g><g id="Actor_.8"><g style="stroke:#000000;stroke-width:0.176"><path d="M237.17,136.06L240.08,140.65L257.71,136.98L259.20,139.47"/><path d="M240.08,140.65L241.47,146.32L241.47,146.38"/><path d="M241.47,146.32L260.86,142.27"/><path d="M243.72,137.07L243.73,137.08L243.80,137.30L243.74,137.53L243.55,137.74L243.26,137.90L242.90,137.99L242.49,138.02L242.10,137.97L241.76,137.84L241.50,137.66L241.37,137.44L241.36,137.21L241.42,137.10"/><path d="M253.89,134.95L253.90,134.95L253.97,135.18L253.91,135.41L253.73,135.61L253.44,135.77L253.40,135.78L253.07,135.87L252.67,135.89L252.27,135.84L251.93,135.72L251.68,135.54L251.54,135.32L251.53,135.09L251.59,134.98"/><path d="M257.71,136.98L257.54,136.88L261.47,134.62"/></g><g style="stroke:#000000;stroke-width:0.529"><path d="M237.17,136.06L241.43,135.18"/><path d="M241.47,146.38L260.86,142.33L260.86,142.27L259.20,139.47L261.47,138.17L261.47,134.62L256.83,131.96L253.90,132.57"/><path d="M251.60,133.05L243.73,134.70"/></g></g><g id="Actor_.9"><g style="stroke:#000000;stroke-width:0.176"><path d="M174.83,149.08L175.55,149.49"/><path d="M177.59,150.66L181.47,152.89L184.63,158.19L196.85,155.64"/><path d="M182.96,149.76L183.03,149.99L182.97,150.22L182.79,150.42L182.50,150.58L182.13,150.68L181.73,150.70L181.33,150.65L180.99,150.53L180.74,150.35L180.60,150.13L180.59,149.90L180.65,149.79"/><path d="M181.47,152.89L240.08,140.65"/><path d="M184.63,158.19L184.63,158.25"/><path d="M195.17,147.21L195.24,147.44L195.18,147.66L194.99,147.88L194.70,148.04L194.34,148.13L193.93,148.16L193.54,148.10L193.20,147.98L192.94,147.80L192.81,147.58L192.80,147.35L192.86,147.24"/><path d="M241.47,146.32L197.88,155.42"/><path d="M205.07,144.69L205.01,144.80L205.01,145.03L205.15,145.25L205.41,145.43L205.75,145.55L206.14,145.61L206.54,145.58L206.87,145.50L206.91,145.49L207.20,145.33L207.39,145.12L207.45,144.89L207.37,144.66"/><path d="M217.28,142.14L217.21,142.25L217.22,142.48L217.36,142.70L217.61,142.88L217.96,143.01L218.35,143.06L218.75,143.04L219.08,142.95L219.12,142.94L219.41,142.78L219.60,142.57L219.66,142.34L219.58,142.12"/><path d="M231.79,139.57L231.86,139.79L231.80,140.02L231.62,140.23L231.33,140.39L230.96,140.49L230.56,140.51L230.16,140.46L229.82,140.33L229.57,140.15L229.43,139.94L229.42,139.70L229.49,139.59"/></g><g style="stroke:#000000;stroke-width:0.529"><path d="M180.66,147.86L174.83,149.08L174.49,149.24"/><path d="M192.87,145.31L182.96,147.38"/><path d="M184.63,158.25L196.89,155.69"/><path d="M205.07,142.77L195.17,144.83"/><path d="M231.79,137.19L237.17,136.06L240.08,140.65L241.47,146.32L241.47,146.38L197.91,155.47"/><path d="M217.28,140.22L207.37,142.29"/><path d="M229.49,137.67L219.58,139.74"/></g></g><g id="Actor_.10"><g style="stroke:#000000;stroke-width:0.176"><path d="M207.37,141.75L207.30,141.97L207.10,142.15L206.81,142.29L206.46,142.37L206.08,142.38L205.71,142.32L205.40,142.19L205.18,142.02L205.07,141.81"/><path d="M207.03,141.26L207.17,141.43L207.22,141.62L207.15,141.80L206.98,141.96L206.73,142.08L206.42,142.15L206.10,142.16L205.78,142.11L205.52,142.00L205.33,141.84L205.23,141.66L205.25,141.48L205.37,141.30L205.58,141.16"/></g><g style="stroke:#000000;stroke-width:0.529"><path d="M207.37,145.14L207.37,141.75L207.33,141.54L207.16,141.34L207.03,141.26L206.80,141.13L206.50,141.05L206.18,141.02L205.86,141.06L205.58,141.16L205.47,141.22L205.23,141.39L205.09,141.59L205.07,141.81L205.07,145.12"/></g></g><g id="Actor_.11"><g style="stroke:#000000;stroke-width:0.176"><path d="M229.49,136.71L229.60,136.92L229.82,137.10L230.13,137.22L230.49,137.28L230.63,137.28L230.87,137.28L231.23,137.20L231.52,137.06L231.71,136.87L231.79,136.65"/><path d="M231.45,136.17L231.59,136.33L231.63,136.52L231.56,136.70L231.40,136.87L231.15,136.99L230.84,137.06L230.51,137.06L230.20,137.01L229.93,136.90L229.74,136.75L229.65,136.57L229.66,136.38L229.78,136.20L229.99,136.06"/></g><g style="stroke:#000000;stroke-width:0.529"><path d="M231.78,140.05L231.79,136.65L231.74,136.44L231.58,136.24L231.45,136.17L231.21,136.03L230.92,135.95L230.59,135.93L230.27,135.96L229.99,136.06L229.89,136.12L229.64,136.29L229.51,136.49L229.49,136.71L229.48,140.02"/></g></g><g id="Actor_.12"><g style="stroke:#000000;stroke-width:0.176"><path d="M29.23,80.62L29.23,77.07L29.64,77.81L30.44,78.44L41.67,84.88L41.67,88.42"/><path d="M29.23,77.49L29.23,76.38L29.23,77.07"/><path d="M29.23,76.38L29.23,76.31"/><path d="M47.84,73.72L47.45,73.56L46.98,73.49L46.50,73.50L46.05,73.61L45.69,73.79L45.46,74.04L45.38,74.31L45.46,74.58L45.69,74.83L46.06,75.01L46.50,75.12L46.99,75.13L47.45,75.06L47.84,74.90L47.84,73.72L59.07,67.28L58.79,67.06L58.66,66.79L58.68,66.52L58.87,66.26L59.19,66.05L59.62,65.92L60.09,65.87L60.57,65.92L60.99,66.05L61.31,66.26L61.50,66.52L61.53,66.79L61.39,67.06L61.11,67.28L64.36,69.15"/><path d="M47.84,74.90L49.92,76.08"/><path d="M59.07,69.68L59.07,67.28"/><path d="M61.11,67.28L61.11,69.68"/><path d="M83.23,52.92L83.15,52.65L83.23,52.38L83.46,52.13L83.82,51.95L84.27,51.84L84.75,51.83L85.21,51.90L85.61,52.06L85.61,53.24L85.21,53.39L84.75,53.47L84.27,53.46L83.82,53.35L83.46,53.17L83.23,52.92"/><path d="M85.61,53.24L87.68,54.42"/><path d="M85.61,52.06L96.84,45.62L96.57,45.40L96.42,45.13L96.45,44.85L96.64,44.60L96.96,44.39L97.38,44.26L97.86,44.21L98.33,44.26L98.76,44.39L99.08,44.60L99.27,44.85L99.29,45.13L99.16,45.40L98.88,45.62L98.88,48.02"/><path d="M96.84,45.62L96.84,48.02"/><path d="M98.88,45.62L102.12,47.48"/><path d="M121.50,31.64L121.23,31.50L120.99,31.26L120.91,30.99L120.99,30.71L121.22,30.47L121.59,30.29L122.03,30.18L122.51,30.17L122.98,30.24L123.37,30.40L123.37,31.57L122.98,31.73L122.52,31.81L122.03,31.79L121.59,31.69L121.50,31.64"/><path d="M123.37,31.57L125.45,32.76"/><path d="M123.37,30.40L134.60,23.96L134.60,26.35"/><path d="M134.60,23.96L134.32,23.74L134.19,23.47L134.21,23.19L134.40,22.94L134.72,22.73L135.15,22.60L135.62,22.55L136.10,22.60L136.52,22.73L136.84,22.94L137.03,23.19L137.06,23.47L136.92,23.74L136.64,23.96L139.89,25.82"/><path d="M136.64,26.35L136.64,23.96"/></g><g style="stroke:#000000;stroke-width:0.529"><path d="M29.23,76.31L29.23,76.29L29.23,80.62L29.64,81.36L30.44,81.98L41.67,88.42"/><path d="M29.23,76.29L29.64,75.55L30.44,74.92L136.69,13.98L137.79,13.52L139.08,13.28L140.43,13.28L141.72,13.52L142.82,13.98L151.68,19.06"/><path d="M51.09,76.76L49.92,76.08L59.07,70.83L59.07,69.68L59.19,69.60L59.62,69.47L60.09,69.42L60.57,69.47L60.99,69.60L61.11,69.68L61.11,70.83L61.26,70.92"/><path d="M88.85,55.10L87.68,54.42L96.84,49.17L96.84,48.02L96.96,47.94L97.38,47.80L97.86,47.76L98.33,47.80L98.76,47.94L98.88,48.02L98.88,49.17L99.03,49.26"/><path d="M126.62,33.43L125.45,32.76L134.60,27.51L134.60,26.35L134.72,26.28L135.15,26.14L135.62,26.10L136.10,26.14L136.52,26.28L136.64,26.35L136.64,27.51L136.79,27.60"/></g></g><g id="Actor_.13"><g style="stroke:#000000;stroke-width:0.176"><path d="M41.67,82.16L44.73,83.91L44.73,103.42"/><path d="M44.73,83.91L157.11,19.46"/><path d="M62.13,89.34L65.71,91.39"/><path d="M65.19,91.10L65.19,86.96L65.05,85.95L64.61,85.21L63.93,84.81L63.08,84.80L62.13,85.17"/><path d="M86.63,75.29L90.20,77.34"/><path d="M89.69,77.04L89.69,72.91L89.54,71.90L89.11,71.16L88.43,70.76L87.57,70.75L86.63,71.12"/><path d="M115.21,58.90L118.78,60.95"/><path d="M115.20,54.73L116.16,54.35L116.99,54.37L117.69,54.76L118.12,55.50L118.27,56.51L118.27,60.65"/><path d="M139.70,40.68L140.65,40.30L141.49,40.32L142.18,40.71L142.62,41.45L142.77,42.46L142.77,46.60L139.71,44.85"/><path d="M142.77,46.60L143.28,46.90"/></g><g style="stroke:#000000;stroke-width:0.529"><path d="M42.58,102.19L44.73,103.42L58.56,95.49L59.07,94.61L59.07,90.47L59.22,89.29L59.66,88.05L60.33,86.88L61.19,85.88L62.13,85.17L62.13,89.34L65.71,91.39L83.06,81.44L83.57,80.56L83.57,76.42L83.72,75.24L84.15,74.00L84.83,72.82L85.68,71.83L86.62,71.12L86.63,75.29L90.20,77.34L111.64,65.05L112.15,64.16L112.15,60.03L112.30,58.84L112.73,57.61L113.41,56.43L114.26,55.44L115.20,54.73L115.21,58.90L118.78,60.95L136.13,51.00L136.64,50.11L136.64,45.98L136.79,44.79L137.23,43.55L137.91,42.38L138.76,41.39L139.70,40.68L139.71,44.85L143.28,46.90L157.11,38.97L157.11,19.46L154.05,17.70L41.67,82.16L41.67,101.67L42.58,102.19"/></g></g><g id="Actor_.14"><g style="stroke:#000000;stroke-width:0.176"><path d="M253.90,131.99L253.85,132.21L253.68,132.40L253.40,132.56L253.06,132.65L252.68,132.67L252.31,132.62L252.00,132.52L251.99,132.51L251.74,132.34L251.61,132.14L251.60,131.92"/><path d="M253.52,131.52L253.68,131.68L253.74,131.87L253.70,132.05L253.55,132.22L253.31,132.35L253.01,132.43L252.69,132.45L252.37,132.41L252.09,132.31L251.88,132.17L251.77,131.99L251.76,131.80L251.86,131.62L252.05,131.47"/></g><g style="stroke:#000000;stroke-width:0.529"><path d="M253.89,135.43L253.90,131.99L253.83,131.78L253.64,131.59L253.52,131.52L253.27,131.40L253.25,131.39L252.96,131.32L252.64,131.31L252.32,131.36L252.05,131.47L251.94,131.54L251.72,131.71L251.60,131.92L251.59,135.41"/></g></g><g id="Actor_.15"><g style="stroke:#000000;stroke-width:0.176"><path d="M151.77,190.62L151.69,190.83L151.50,191.02L151.21,191.16L150.85,191.24L150.47,191.25L150.11,191.19L149.80,191.06L149.58,190.88L149.47,190.67"/><path d="M151.43,190.13L151.57,190.30L151.61,190.48L151.54,190.67L151.38,190.83L151.13,190.95L150.82,191.02L150.49,191.03L150.18,190.97L149.91,190.86L149.72,190.71L149.63,190.53L149.64,190.34L149.76,190.17L149.97,190.02"/></g><g style="stroke:#000000;stroke-width:0.529"><path d="M151.76,194.00L151.77,190.62L151.72,190.40L151.56,190.21L151.43,190.13L151.19,190.00L150.90,189.91L150.57,189.89L150.25,189.93L149.97,190.02L149.87,190.09L149.62,190.25L149.49,190.45L149.47,190.67L149.46,193.99"/></g></g><g id="Actor_.16"><g style="stroke:#000000;stroke-width:0.176"><path d="M40.65,101.08L103.93,137.38L103.93,139.74L104.45,139.45"/><path d="M62.13,89.93L64.68,91.39L69.28,95.78L93.78,109.83L100.51,111.24L115.82,120.02L112.73,121.79"/><path d="M69.19,99.25L90.71,111.59L90.75,111.64"/><path d="M74.11,114.71L73.91,114.78L73.75,114.89L73.66,115.02L73.65,115.16L73.72,115.29L73.86,115.40L74.06,115.48L74.29,115.52L74.53,115.52L74.76,115.47L74.94,115.38L75.07,115.26L75.12,115.12L75.09,114.98L74.98,114.86L74.81,114.76L74.59,114.70L74.35,114.68L74.11,114.71"/><path d="M137.23,107.74L140.32,105.97L125.01,97.19L118.27,95.78L93.77,81.73L89.18,77.34L86.63,75.88L86.63,79.43"/><path d="M86.63,75.88L86.63,74.71"/><path d="M115.24,97.59L115.21,97.54L93.69,85.20"/><path d="M95.63,102.40L95.60,102.57L95.67,102.70L95.81,102.82L96.00,102.90L96.23,102.94L96.48,102.93L96.70,102.88L96.89,102.79L97.01,102.67L97.06,102.53L97.03,102.40L96.93,102.27L96.75,102.17L96.54,102.11L96.29,102.10L96.06,102.12L95.85,102.19L95.69,102.30L95.63,102.40"/><path d="M102.91,140.34L103.93,139.74"/><path d="M113.62,125.90L113.30,125.85L113.10,125.87L112.92,125.93L112.79,126.02L112.72,126.13L112.72,126.26L112.79,126.37L113.05,126.51L113.25,126.55L113.45,126.54L113.65,126.49L113.79,126.43L113.89,126.33L113.93,126.21L113.91,126.10L113.82,125.99L113.62,125.90"/><path d="M165.81,91.35L168.90,89.58L153.59,80.80L146.85,79.39L122.35,65.34L117.76,60.95L115.21,59.49"/><path d="M118.06,89.55L118.15,89.42L118.31,89.31L118.51,89.24L118.75,89.22L118.99,89.23L119.21,89.29L119.38,89.39L119.49,89.52L119.52,89.66L119.47,89.79L119.34,89.91L119.16,90.00L118.93,90.05L118.69,90.06L118.46,90.02L118.26,89.94L118.12,89.82L118.05,89.69L118.06,89.55"/><path d="M119.25,122.45L119.02,122.47L118.84,122.53L118.71,122.62L118.64,122.73L118.64,122.86L118.69,122.96L118.83,123.06L118.97,123.12L119.16,123.15L119.37,123.15L119.55,123.10L119.71,123.03L119.81,122.93L119.85,122.82L119.83,122.70L119.74,122.60L119.60,122.52L119.25,122.45"/><path d="M143.82,81.20L143.79,81.15L122.27,68.80"/><path d="M132.35,81.35L132.44,81.22L132.60,81.12L132.80,81.05L133.04,81.02L133.28,81.04L133.50,81.10L133.67,81.20L133.78,81.32L133.81,81.46L133.76,81.59L133.63,81.71L133.45,81.80L133.22,81.85L132.98,81.86L132.75,81.82L132.55,81.74L132.41,81.63L132.34,81.49L132.35,81.35"/><path d="M137.25,112.03L137.22,112.07L137.22,112.21L137.27,112.30L137.38,112.40L137.55,112.46L137.74,112.50L137.94,112.49L138.13,112.45L138.28,112.37L138.39,112.27L138.43,112.16L138.41,112.05L138.32,111.94L138.17,111.86L137.99,111.81L137.79,111.80L137.59,111.82L137.42,111.88L137.29,111.97L137.25,112.03"/><path d="M139.71,44.27L139.71,48.98"/><path d="M190.30,77.30L193.39,75.53L178.08,66.75L171.35,65.34L146.85,51.29L142.26,46.90L139.71,45.44"/><path d="M143.30,109.00L143.19,108.91L143.14,108.81L143.14,108.68L143.21,108.57L143.34,108.48L143.51,108.42L143.71,108.40L143.91,108.41L144.09,108.47L144.24,108.55L144.33,108.65L144.35,108.77L144.31,108.88L144.20,108.98L144.05,109.05L143.86,109.10L143.66,109.10L143.47,109.07L143.30,109.00"/><path d="M168.32,67.15L168.28,67.10L146.76,54.75"/><path d="M154.80,68.61L154.86,68.75L155.01,68.86L155.20,68.94L155.44,68.98L155.68,68.97L155.90,68.92L156.09,68.83L156.21,68.71L156.26,68.58L156.23,68.44L156.13,68.32L155.95,68.22L155.74,68.16L155.50,68.14L155.25,68.17L155.05,68.24L154.89,68.34L154.81,68.47L154.80,68.61"/><path d="M166.00,95.49L165.87,95.58L165.80,95.68L165.80,95.81L165.84,95.91L165.96,96.00L166.13,96.07L166.32,96.10L166.52,96.10L166.71,96.06L166.86,95.98L166.97,95.88L167.01,95.77L166.98,95.65L166.90,95.55L166.75,95.47L166.57,95.42L166.37,95.40L166.17,95.43L166.00,95.49"/><path d="M171.72,92.29L171.79,92.18L171.92,92.09L172.09,92.03L172.29,92.01L172.49,92.02L172.67,92.07L172.82,92.16L172.90,92.26L172.93,92.37L172.89,92.49L172.78,92.59L172.63,92.66L172.44,92.70L172.24,92.71L172.05,92.68L171.88,92.61L171.77,92.51L171.72,92.42L171.72,92.29"/><path d="M177.62,56.39L177.38,56.39L177.15,56.35L176.95,56.27L176.81,56.16L176.74,56.03L176.75,55.89L176.84,55.76L177.00,55.65L177.20,55.58L177.44,55.55L177.68,55.57L177.90,55.63L178.07,55.73L178.18,55.85L178.21,55.99L178.16,56.13L178.03,56.25L177.85,56.34L177.62,56.39"/><path d="M190.62,82.02L190.82,82.05L191.02,82.05L191.21,82.01L191.36,81.93L191.46,81.83L191.50,81.72L191.48,81.60L191.39,81.50L191.25,81.42L191.07,81.37L190.87,81.35L190.67,81.38L190.50,81.44L190.37,81.52L190.29,81.63L190.29,81.77L190.34,81.86L190.46,81.95L190.62,82.02"/><path d="M196.54,78.63L196.38,78.56L196.26,78.46L196.21,78.37L196.21,78.24L196.28,78.13L196.42,78.04L196.59,77.98L196.79,77.96L196.99,77.97L197.17,78.02L197.31,78.10L197.40,78.21L197.43,78.32L197.38,78.44L197.28,78.54L197.13,78.61L196.94,78.65L196.74,78.66L196.54,78.63"/></g><g style="stroke:#000000;stroke-width:0.529"><path d="M41.67,100.50L40.65,101.08L40.65,104.63L102.91,140.34L104.45,139.46"/><path d="M62.13,89.34L62.13,93.48L64.68,94.94L69.19,99.25L66.22,97.54L58.84,95.00"/><path d="M86.63,74.71L86.63,79.43L89.18,80.89L93.69,85.20L90.71,83.49L83.34,80.95"/><path d="M91.12,111.86L90.75,111.64L93.16,115.46L108.47,124.24L112.73,121.79L100.51,114.79L93.78,113.38L91.12,111.86"/><path d="M115.21,58.90L115.21,63.03L117.76,64.50L122.27,68.80L119.29,67.10L111.92,64.56"/><path d="M115.43,97.70L118.27,99.33L125.01,100.74L137.23,107.74L132.97,110.19L117.66,101.41L115.24,97.59L115.43,97.70"/><path d="M139.71,44.27L139.71,48.98L142.26,50.45L146.76,54.75L143.79,53.05L136.42,50.51"/><path d="M144.00,81.30L143.82,81.20L146.25,85.02L161.55,93.79L165.81,91.35L153.59,84.34L146.85,82.94L144.00,81.30"/><path d="M214.45,71.86L157.11,38.97"/><path d="M168.46,67.38L170.73,70.96L186.02,79.73L190.30,77.30L178.08,70.29L171.35,68.89L168.32,67.15L168.46,67.38"/></g></g><g id="Actor_.17"><g style="stroke:#000000;stroke-width:0.176"><path d="M149.63,202.32L149.63,198.77L144.98,196.11L152.14,184.84"/><path d="M144.98,196.11L144.65,196.27"/><path d="M151.76,193.55L151.81,193.61L151.84,193.84L151.73,194.07L151.50,194.26L151.18,194.40L150.80,194.47L150.39,194.46L150.05,194.39L150.01,194.38L149.70,194.24L149.48,194.04L149.39,193.82L149.43,193.59L149.46,193.55"/><path d="M149.63,198.77L153.55,196.52L153.72,196.62L160.14,186.51"/><path d="M153.55,196.52L153.55,200.07"/><path d="M153.72,196.62L156.88,201.91L156.88,201.97"/><path d="M155.47,187.71L155.51,187.78L155.54,188.01L155.43,188.23L155.21,188.42L154.88,188.56L154.50,188.63L154.09,188.63L153.71,188.55L153.40,188.40L153.19,188.21L153.09,187.98L153.13,187.75L153.17,187.71"/><path d="M156.88,201.91L163.94,190.79"/></g><g style="stroke:#000000;stroke-width:0.529"><path d="M153.17,185.05L152.14,184.84L151.73,185.11L144.65,196.27L144.65,199.47L149.63,202.32L153.55,200.07L156.88,201.97L163.94,190.85L163.94,190.79L160.14,186.51L155.47,185.53"/></g></g><g id="Actor_.18"><g style="stroke:#000000;stroke-width:0.176"><path d="M192.87,144.35L192.98,144.56L193.20,144.74L193.51,144.87L193.87,144.93L194.25,144.92L194.49,144.87L194.60,144.84L194.89,144.70L195.09,144.51L195.17,144.30"/><path d="M194.82,143.81L194.97,143.98L195.01,144.17L194.94,144.35L194.77,144.51L194.52,144.63L194.22,144.70L193.89,144.71L193.58,144.66L193.31,144.55L193.12,144.39L193.02,144.21L193.04,144.03L193.16,143.85L193.37,143.71"/></g><g style="stroke:#000000;stroke-width:0.529"><path d="M195.16,147.69L195.17,144.30L195.12,144.08L194.95,143.89L194.82,143.81L194.59,143.68L194.30,143.60L193.97,143.57L193.65,143.61L193.37,143.71L193.27,143.77L193.02,143.93L192.88,144.14L192.87,144.35L192.86,147.67"/></g></g><g id="Actor_.19"><g style="stroke:#000000;stroke-width:0.176"><path d="M153.17,184.84L153.28,185.05L153.50,185.22L153.81,185.35L154.18,185.41L154.56,185.40L154.91,185.32L155.20,185.18L155.39,185.00L155.47,184.78"/><path d="M155.13,184.29L155.27,184.46L155.31,184.65L155.25,184.83L155.08,184.99L154.83,185.12L154.52,185.18L154.20,185.19L153.88,185.14L153.61,185.03L153.42,184.88L153.33,184.70L153.34,184.51L153.46,184.33L153.67,184.19"/></g><g style="stroke:#000000;stroke-width:0.529"><path d="M155.47,188.16L155.47,184.78L155.43,184.57L155.26,184.37L155.13,184.29L154.90,184.16L154.60,184.08L154.28,184.05L153.96,184.09L153.67,184.19L153.57,184.25L153.33,184.42L153.19,184.62L153.17,184.84L153.17,188.16"/></g></g><g id="Actor_.20"><g style="stroke:#000000;stroke-width:0.176"><path d="M180.66,146.90L180.77,147.11L180.99,147.29L181.30,147.42L181.66,147.48L182.04,147.47L182.40,147.39L182.69,147.25L182.88,147.06L182.96,146.85"/><path d="M182.62,146.36L182.76,146.53L182.80,146.71L182.73,146.90L182.57,147.06L182.31,147.18L182.01,147.25L181.68,147.26L181.37,147.20L181.10,147.10L180.91,146.94L180.82,146.76L180.83,146.57L180.95,146.40L181.16,146.26"/></g><g style="stroke:#000000;stroke-width:0.529"><path d="M182.95,150.24L182.96,146.85L182.91,146.63L182.74,146.44L182.62,146.36L182.38,146.23L182.09,146.14L181.76,146.12L181.44,146.16L181.16,146.26L181.06,146.32L180.81,146.48L180.67,146.69L180.66,146.90L180.65,150.22"/></g></g><g id="Actor_.21"><g style="stroke:#000000;stroke-width:0.176"><path d="M157.52,177.99L157.63,178.20L157.85,178.38L158.16,178.50L158.52,178.57L158.90,178.56L159.25,178.48L159.54,178.34L159.74,178.15L159.82,177.94"/><path d="M159.47,177.45L159.62,177.62L159.66,177.80L159.59,177.99L159.42,178.15L159.17,178.27L158.87,178.34L158.54,178.35L158.23,178.29L157.96,178.18L157.77,178.03L157.67,177.85L157.69,177.66L157.81,177.49L158.02,177.34"/></g><g style="stroke:#000000;stroke-width:0.529"><path d="M159.81,181.31L159.82,177.94L159.77,177.72L159.60,177.52L159.47,177.45L159.24,177.31L158.95,177.23L158.62,177.21L158.30,177.25L158.02,177.34L157.92,177.40L157.67,177.57L157.53,177.77L157.52,177.99L157.51,181.31"/></g></g><g id="Actor_.22"><g style="stroke:#000000;stroke-width:0.176"><path d="M219.58,139.20L219.50,139.42L219.31,139.60L219.02,139.74L218.67,139.82L218.29,139.83L217.92,139.77L217.61,139.64L217.39,139.47L217.28,139.26"/><path d="M219.24,138.71L219.38,138.88L219.42,139.07L219.36,139.25L219.19,139.41L218.94,139.54L218.63,139.60L218.31,139.61L217.99,139.56L217.72,139.45L217.53,139.30L217.44,139.12L217.45,138.93L217.57,138.75L217.78,138.61"/></g><g style="stroke:#000000;stroke-width:0.529"><path d="M219.58,142.59L219.58,139.20L219.54,138.99L219.37,138.79L219.24,138.71L219.01,138.58L218.71,138.50L218.39,138.47L218.07,138.51L217.78,138.61L217.68,138.67L217.44,138.84L217.30,139.04L217.28,139.26L217.28,142.57"/></g></g><g><g><path style="stroke:#000000;stroke-width:0.125;stroke-dasharray:1.9 1.3 0.6 1.3" d="M250.38,137.01L250.38,103.91"/></g></g><g><g><path style="stroke:#000000;stroke-width:0.125;stroke-dasharray:1.9 1.3 0.6 1.3" d="M207.98,112.76L207.98,145.86"/></g></g><g><g><path style="stroke:#000000;stroke-width:0.125;stroke-dasharray:1.9 1.3 0.6 1.3" d="M169.21,136.85L169.21,168.09"/></g></g><g><g><path style="stroke:#000000;stroke-width:0.125;stroke-dasharray:1.9 1.3 0.6 1.3" d="M153.78,161.17L153.78,192.41"/></g></g><g id="PMI.0"><g><path style="stroke:#000000;stroke-width:0.125" d="M215.55,180.32L195.61,153.14"/></g><g><path style="fill:#000000" d="M196.36,153.14L196.36,153.07L196.35,153.00L196.33,152.93L196.31,152.86L196.28,152.79L196.24,152.73L196.19,152.67L196.15,152.61L196.09,152.56L196.03,152.52L195.97,152.48L195.90,152.45L195.83,152.43L195.76,152.41L195.69,152.40L195.61,152.39L195.54,152.40L195.47,152.41L195.40,152.43L195.33,152.45L195.26,152.48L195.20,152.52L195.14,152.56L195.08,152.61L195.04,152.67L194.99,152.73L194.95,152.79L194.92,152.86L194.90,152.93L194.88,153.00L194.87,153.07L194.86,153.14L194.87,153.22L194.88,153.29L194.90,153.36L194.92,153.43L194.95,153.50L194.99,153.56L195.04,153.62L195.08,153.67L195.14,153.72L195.20,153.77L195.26,153.81L195.33,153.84L195.40,153.86L195.47,153.88L195.54,153.89L195.61,153.89L195.69,153.89L195.76,153.88L195.83,153.86L195.90,153.84L195.97,153.81L196.03,153.77L196.09,153.72L196.15,153.67L196.19,153.62L196.24,153.56L196.28,153.50L196.31,153.43L196.33,153.36L196.35,153.29L196.36,153.22z"/></g><g><text xml:space="preserve" fill="#000000" stroke-width="0" x="208.74" y="184.78" font-size="3.80" opacity="1.00" font-family="Arial">BPA27441</text></g></g><g><g/><g><text xml:space="preserve" fill="#000000" stroke-width="0" x="4.60" y="7.29" font-size="4.53" opacity="1.00" font-family="Arial" font-weight="bold">BPA35500</text></g></g><g/><g id="paperID" visibility="hidden" opacity="0.00" transform="scale(0.000100)"><path style="stroke:#000000;stroke-width:0.500;fill:#e6e6e6;fill-rule:evenodd" d="M-2000.00,-2000.00L2297.00,-2000.00L2297.00,2210.00L-2000.00,2210.00zM0.00,0.00L297.00,0.00L297.00,210.00L0.00,210.00z"/><path style="fill:#000000;fill-opacity:0.118" d="M3.00,210.00L297.00,210.00L297.00,3.00L300.00,3.00L300.00,213.00L3.00,213.00z"/></g><g id="hotspot.0" onmouseover="ShowHotSpot(evt,'0')" onmouseout="HideHotSpot(evt,'0')" onmousemove="ShowToolTip(evt,'0',&quot;Hotspot 1&quot;)" opacity="0"><a xlink:href=".\BPA27441.svg"><path style="fill:#ff8000;fill-rule:evenodd" d="M253.84,131.66L253.93,132.39L255.11,132.21L256.03,132.00L257.06,131.99L261.43,134.57L261.43,138.04L260.13,138.84L259.26,139.41L260.80,142.03L260.78,142.22L184.64,158.15L156.93,201.81L153.55,199.99L149.92,202.09L149.35,202.09L144.76,199.39L144.82,195.86L174.49,149.13L174.79,148.95L180.66,147.72L180.77,146.38L181.41,146.04L182.12,146.05L182.60,146.21L182.94,146.52L183.04,147.25L192.58,145.27L192.78,145.13L192.92,143.99L193.37,143.63L194.22,143.45L194.72,143.63L195.05,143.94L195.14,144.66L196.32,144.48L205.01,142.67L205.22,141.26L205.64,141.04L206.84,141.04L207.33,141.35L207.42,142.08L210.38,141.58L217.17,140.13L217.33,138.84L217.91,138.45L218.95,138.45L219.27,138.61L219.70,139.48L221.20,139.32L229.43,137.54L229.60,136.25L230.18,135.87L231.06,135.87L231.71,136.35L231.81,137.07L241.35,135.08L241.55,133.67L241.97,133.45L243.17,133.45L243.67,133.76L243.76,134.49L246.72,133.99L251.37,132.99L251.56,132.86L251.73,131.57L252.85,131.18z"/></a></g></g></svg>
