<?xml version="1.0" encoding="UTF-8" standalone="no"?>
<svg xmlns="http://www.w3.org/2000/svg" xmlns:xlink="http://www.w3.org/1999/xlink" width="297.000mm" height="210.000mm" viewBox="0.000000 0.000000 297.000000 210.000000" stroke-linejoin="round" stroke-linecap="round" fill="none" fill-rule="evenodd"><desc>Composer Export</desc><script type="text/ecmascript"><![CDATA[
if(typeof(top) != "undefined")
{
	top.ShowPaper = ShowPaper;
}
function ShowHotSpot(evt,hotspotid)
{
	var svgDocument = evt.target.ownerDocument;
	var strId = "hotspot."+hotspotid;
	var hotspot = svgDocument.getElementById(strId);
	if(hotspot)
		hotspot.setAttribute("opacity",".5");
}
function HideHotSpot(evt,hotspotid)
{
	var svgDocument = evt.target.ownerDocument;
	var strId = "hotspot."+hotspotid;
	var hotspot = svgDocument.getElementById(strId);
	if(hotspot)
		hotspot.setAttribute("opacity","0");

	var toolTip = svgDocument.getElementById('ToolTip');
	if(toolTip)
		toolTip.setAttribute("visibility","hidden");
}
function ShowToolTip(evt,hotspotid,strTooltip)
{
	if(strTooltip=="")
	return;

	// change text
	var svgDocument = evt.target.ownerDocument;
	var tiptext = svgDocument.getElementById('ToolTipText');
	if( !tiptext )
	return;
	tiptext.firstChild.nodeValue = " " + strTooltip + "  " ;

	// show tooltip before, else some refresh issue

	var toolTip = svgDocument.getElementById('ToolTip');
	if(!toolTip)
	return;

	toolTip.setAttribute("visibility","visible");
	toolTip.setAttribute("opacity",".95");

	// move tooltip
	// get viewbox

	var root = svgDocument.documentElement;
	var vbox = (root.getAttribute("viewBox")).split(' ');
	var x0 = parseFloat(vbox[0]);
	var y0 = parseFloat(vbox[1]);
	var vboxW = parseFloat(vbox[2]);
	var vboxH = parseFloat(vbox[3]);

	// get default width of svg

	var strW = root.getAttribute("width");
	var svgW = parseFloat(strW);
	if(strW.indexOf('mm') != -1)
	svgW *= 3.779;

	var strH = root.getAttribute("height");
	var svgH = parseFloat(strH);
	if(strH.indexOf('mm') != -1)
	svgH *= 3.779;  	// 96 dpi  -> 96/25.4 = 3.779

	// update the viewbox / width / height if svg is embedded in html with zoom fit all
	var realx0 = x0;
	var realy0 = y0;
	var realvboxW = vboxW;
	var realvboxH = vboxH;
	var realsvgW = svgW;
	var realsvgH = svgH;

	if ((typeof(top) == "undefined") || (typeof(top.svgctl1) != "undefined")) // embedded in html
	{
		// get window size in pxl

		svgW = window.innerWidth;
		svgH = window.innerHeight;

		// calculate real viewbox

		realsvgW = svgW;
		realsvgH = svgH;
		if((svgW / svgH) > (vboxW / vboxH))
		{
			realvboxW = (vboxH * svgW) / svgH;
			realvboxH = vboxH;
			realx0 = x0 - (realvboxW - vboxW)/2 ;
		}
		else
		{
			realvboxH = (vboxW * svgH) / svgW;
			realvboxW = vboxW;
			realy0 = y0 - (realvboxH - vboxH)/2 ;
		}
	}

	// get user zoom/pan

	var newScale = root.currentScale;
	var translation = root.currentTranslate;

	// transform pxl to user unit

	var xPos = (((evt.clientX+10- translation.x)/newScale) * realvboxW)/realsvgW  + realx0 ;
	var yPos = (((evt.clientY+5- translation.y)/newScale) * realvboxH)/ realsvgH  + realy0 ;
	var scaleForWidth = ( (1 / newScale) * realvboxH) / realsvgH;

	// move tooltip

	toolTip.setAttribute("transform", "translate(" + xPos + "," + yPos + ")" );

	// resize tooltip

	var fontsize = 12;
	tiptext.setAttribute("font-size",fontsize*scaleForWidth);
	tiptext.setAttribute("y", fontsize*scaleForWidth);
	var tipBG = svgDocument.getElementById('ToolTipBG');
	var outline = tiptext.getBBox();
	if(tipBG)
	{
		tipBG.setAttribute("stroke-width", 1*scaleForWidth);
		tipBG.setAttribute("width", Number(outline.width) );
		tipBG.setAttribute("height", Number(outline.height) + fontsize*.5*scaleForWidth );
	}
	var ToolTipShadow = svgDocument.getElementById('ToolTipShadow');
	if(ToolTipShadow)
	{
		ToolTipShadow.setAttribute("width", Number(outline.width) );
		ToolTipShadow.setAttribute("height", Number(outline.height) + fontsize*.5*scaleForWidth );
		ToolTipShadow.setAttribute("x", 3*scaleForWidth);
		ToolTipShadow.setAttribute("y", 3*scaleForWidth);
	}
}
function ShowPaper()
{
  var svgDocument = getDocument();
  var paper = svgDocument.getElementById("paperID");
  if(paper)
  {
    paper.setAttribute("transform","scale(1)");
    paper.setAttribute("opacity","1");
    paper.setAttribute("visibility","visible");
  }
  var svg = svgDocument.getRootElement();
  if(svg)
  {
    svg.setAttribute("width","307.000mm");
    svg.setAttribute("height","220.000mm");
    svg.setAttribute("viewBox","-5.000000 -5.000000 307.000000 220.000000");
  }
}
]]></script><defs/><g><path style="fill:#000000;fill-opacity:0.098;fill-rule:evenodd" d="M98.07,33.89L98.06,34.59L95.74,35.95L94.98,35.97L94.73,35.72L95.04,35.37L96.37,34.76L97.26,34.16L97.65,33.99L97.88,33.69zM90.38,34.57L90.29,34.94L89.87,35.00L89.94,34.53zM89.60,34.85L89.34,35.23L89.34,34.79L89.56,34.74zM94.96,37.58L94.53,37.65L94.60,37.22L95.02,37.16zM94.26,37.48L94.01,37.86L94.01,37.42L94.23,37.37zM100.06,40.60L99.88,41.29L99.48,41.72L99.47,34.18L100.09,34.12zM90.38,40.85L90.29,41.23L89.87,41.29L89.94,40.82zM89.54,41.29L89.27,41.29L89.27,41.02L89.54,41.02zM99.10,34.78L98.26,35.41L98.07,40.70L95.81,42.11L95.75,42.51L96.14,42.45L98.82,40.79L99.08,40.82L99.08,41.05L98.20,41.63L98.26,139.14L100.91,140.74L98.99,141.97L97.86,142.19L96.63,140.11L96.37,140.13L96.42,143.41L97.07,144.42L97.04,144.87L95.12,146.04L94.75,146.12L94.53,43.66L95.04,43.47L94.96,43.86L95.18,43.95L95.36,36.56L99.10,34.54zM94.20,43.93L93.93,43.93L93.93,43.65L94.20,43.65zM120.32,45.27L119.65,45.34L119.65,45.09L120.36,45.06zM119.48,54.98L119.74,55.00L119.77,55.48L119.54,55.44zM117.11,64.19L116.31,64.34L115.89,63.92L115.09,63.51L114.87,63.13L114.88,61.97L115.28,60.34L116.31,58.73L116.50,57.71L117.24,57.23L118.15,57.25L118.17,57.50L117.65,57.85L117.12,58.53L116.31,59.14L115.48,60.74L115.49,62.59L116.03,60.48L117.04,59.04L117.12,59.06zM117.70,61.57L117.72,58.32L118.92,57.49L119.35,56.71L121.11,55.37L121.37,55.40L121.40,55.89L120.15,56.70L119.95,63.19L119.48,64.13L118.45,64.32L118.04,64.75L117.66,64.83L117.66,61.91L118.16,61.34L118.14,61.09zM156.00,65.74L155.33,65.82L155.33,65.56L156.04,65.53zM119.66,69.40L120.37,69.40L120.29,70.03L119.74,70.03zM155.16,75.46L155.42,75.47L155.45,75.95L155.22,75.91zM153.82,77.73L153.85,77.99L153.14,78.33L152.93,78.73L151.92,79.74L151.16,81.21L151.17,83.07L151.71,80.96L152.72,79.52L152.81,84.49L152.32,84.84L151.99,84.82L151.58,84.40L150.77,83.99L150.55,83.61L150.55,82.23L151.16,80.41L152.17,78.92L152.18,78.19L153.12,77.49zM175.72,78.55L175.70,79.19L173.40,80.57L172.83,80.58L172.58,80.32L172.88,79.96L173.41,79.76L174.30,79.16L174.83,78.95L175.31,78.54zM180.31,78.77L180.70,78.49L181.17,78.51L181.19,82.05L180.48,82.76L177.65,84.22L177.74,85.48L177.51,86.08L177.13,86.32L177.05,78.93L177.47,78.69L177.74,78.72L177.73,80.22zM168.22,78.94L168.15,79.54L167.09,79.59L167.10,79.36zM171.76,82.23L171.76,82.00L176.46,79.30L176.73,79.34L176.73,79.57L175.90,80.01L175.63,85.42L173.59,86.66L173.67,87.12L176.75,85.44L176.75,85.67L175.84,86.23L175.84,183.60L178.76,185.34L176.65,186.60L175.51,186.58L174.46,184.73L174.23,184.73L174.26,188.22L174.68,188.81L174.90,189.47L173.20,190.43L172.39,190.72L172.27,88.62L172.08,88.44L171.64,88.73L171.63,88.34L172.42,87.66L172.88,87.70L172.86,82.16zM168.22,85.19L168.23,85.51L167.18,85.88L167.17,85.51L168.03,85.00zM157.06,76.34L155.83,77.17L155.63,83.66L155.35,84.40L154.14,84.81L153.19,85.50L153.14,78.94L154.60,77.97L155.03,77.18L156.79,75.85L157.06,75.88zM156.05,90.33L155.77,90.53L155.36,90.56L155.35,89.87L156.05,89.88zM84.61,144.22L84.18,144.28L84.18,144.03L84.71,143.82zM106.03,144.12L105.55,144.50L105.48,144.00L105.97,144.00zM93.00,143.27L91.19,146.33L88.92,147.73L88.93,147.35L93.00,140.56zM95.17,150.48L94.31,150.54L94.31,150.32L95.25,150.11zM107.11,144.82L95.14,151.74L94.73,151.78L94.73,151.32L107.20,144.22zM184.84,189.01L184.84,189.47L172.97,196.32L172.58,196.38L172.58,195.93L183.77,189.42L183.56,189.21L184.04,189.04zM183.85,188.66L182.99,189.09L182.92,188.63L183.85,188.43zM162.39,188.72L161.91,189.10L161.84,188.60L162.33,188.60zM170.84,187.67L169.02,190.91L167.11,192.08L166.70,192.06L170.78,184.96L170.84,184.95zM173.06,194.96L172.79,194.96L172.79,194.69L173.06,194.69zM153.56,82.26L153.34,82.27L153.36,81.82L153.77,81.52z"/><g id="Actor_.0"><g style="stroke:#000000;stroke-width:0.176"><path d="M93.86,44.09L93.91,44.03L93.94,43.95L93.93,43.83L93.90,43.71L93.84,43.60L93.76,43.49L93.67,43.42L93.57,43.38L93.49,43.38"/><path d="M93.65,44.07L93.72,44.08L93.79,44.07L93.84,44.02L93.86,43.94L93.86,43.84L93.83,43.74L93.77,43.64L93.70,43.55L93.63,43.49L93.55,43.45L93.47,43.45L93.42,43.49L93.38,43.55L93.37,43.64"/><path d="M100.09,40.66L100.09,40.66"/><path d="M99.86,39.94L99.99,40.12L100.07,40.33"/><path d="M99.86,40.60L100.12,40.45"/></g><g style="stroke:#000000;stroke-width:0.529"><path d="M94.26,43.86L93.86,44.09L93.78,44.11L93.69,44.09L93.65,44.07L93.57,44.02L93.49,43.94L93.43,43.84L93.39,43.74L93.37,43.64L93.37,43.59L93.38,43.49L93.42,43.42L93.90,43.15"/><path d="M99.07,41.09L95.76,43.00"/><path d="M95.76,42.08L98.67,40.40"/><path d="M99.86,39.94L99.90,39.99L99.99,40.12L100.05,40.26L100.07,40.33L100.12,40.45L100.09,40.66L99.98,40.92L99.86,40.99"/></g></g><g id="Actor_.1"><g style="stroke:#000000;stroke-width:0.176"><path d="M89.06,34.40L89.06,34.39L89.11,34.31L89.19,34.27L89.29,34.27L89.39,34.32L89.40,34.33L89.50,34.41L89.59,34.53L89.65,34.67L89.67,34.72L89.69,34.81L89.69,34.93L89.66,35.03L89.59,35.09L89.50,35.11L89.46,35.09"/><path d="M89.62,35.06L89.56,35.07L89.52,35.06"/><path d="M89.20,33.98L89.39,34.03L89.66,34.04L89.82,34.35L90.05,34.62L89.97,34.90L89.97,35.14"/><path d="M89.66,34.04L90.09,33.80"/><path d="M89.79,35.14L89.88,35.09L89.94,35.01L89.97,34.90L89.97,34.78L89.95,34.64L89.89,34.49L89.82,34.35L89.72,34.23L89.61,34.13L89.50,34.06L89.39,34.03L89.30,34.04L89.22,34.08L89.17,34.11"/><path d="M89.09,34.15L89.09,34.15"/><path d="M89.17,34.28L89.12,34.35L89.12,34.36"/><path d="M90.47,34.47L90.47,34.62"/><path d="M90.05,34.62L90.47,34.38"/><path d="M90.18,33.90L90.32,34.06L90.42,34.28"/><path d="M89.90,33.74L89.90,33.74"/></g><g style="stroke:#000000;stroke-width:0.529"><path d="M89.90,33.74L90.09,33.80L90.18,33.90L90.23,33.94L90.32,34.06L90.39,34.20L90.42,34.28L90.47,34.38L90.47,34.47L90.48,34.49L90.47,34.62L90.39,34.90L89.97,35.14L89.79,35.14L89.72,35.18L89.70,35.19L89.58,35.21L89.56,35.21L89.43,35.17L89.42,35.16L89.38,35.14"/><path d="M88.98,34.45L88.98,34.44L89.00,34.29L89.01,34.27L89.07,34.17L89.09,34.15"/><path d="M89.90,33.74L89.63,33.74L89.20,33.98L89.17,34.11L89.09,34.15"/></g></g><g id="Actor_.2"><g style="stroke:#000000;stroke-width:0.176"><path d="M154.95,65.65L155.25,65.82L155.23,65.81L155.09,65.76"/><path d="M155.15,64.81L155.07,64.84L154.97,64.92L154.91,65.00L154.89,65.09L154.91,65.18L154.97,65.26L155.32,65.52L155.32,65.86L155.87,65.77L155.81,65.80L155.62,65.84L155.42,65.85L155.40,65.84"/><path d="M155.99,65.75L155.99,65.42L155.65,65.42L155.50,65.44L155.34,65.42L155.19,65.39L155.07,65.33L154.82,65.24"/><path d="M155.21,71.41L155.32,71.45L155.45,71.47L155.56,71.47"/><path d="M156.08,65.56L156.04,65.65"/><path d="M155.32,65.86L155.25,65.82"/><path d="M156.08,65.56L156.10,65.52"/><path d="M155.87,65.77L155.90,65.77"/><path d="M155.93,64.84L155.93,64.84"/><path d="M155.99,65.42L156.08,65.18L156.02,65.26L155.93,65.33L155.80,65.39L155.65,65.42L155.32,65.52"/><path d="M156.02,64.92L156.08,65.00L156.10,65.09L156.08,65.18L156.17,65.03"/><path d="M155.76,64.78L155.65,64.75L155.58,64.75"/></g><g style="stroke:#000000;stroke-width:0.529"><path d="M155.58,71.48L155.57,71.48L155.45,71.48L155.34,71.47L155.25,71.43L155.21,71.41L155.13,71.34L155.10,71.27L155.10,71.20"/><path d="M155.09,65.76L155.07,65.75L154.95,65.65L154.95,65.65L154.82,65.57L154.82,65.24L154.91,65.00L155.00,64.85L155.15,64.81L155.20,64.79L155.34,64.75L155.50,64.74L155.58,64.75L155.68,64.75L155.76,64.78L155.80,64.79L155.93,64.84"/><path d="M155.93,64.84L156.17,65.03L156.17,65.37L156.10,65.52L156.06,65.63L156.04,65.65L155.99,65.75L155.90,65.77"/></g></g><g id="Actor_.3"><g style="stroke:#000000;stroke-width:0.176"><path d="M119.63,69.20L119.66,69.20L119.61,69.19L119.63,69.20"/><path d="M119.61,69.19L119.55,69.16L119.52,69.14L119.53,69.15"/><path d="M119.52,69.14L119.47,69.10L119.45,69.07L119.46,69.08"/><path d="M119.45,69.07L119.44,69.03L119.43,68.99L119.43,69.01"/><path d="M119.44,69.03L119.43,69.01"/><path d="M119.50,68.87L119.52,68.85L119.48,68.89L119.44,68.93L119.44,68.94L119.44,68.94L119.43,68.99"/><path d="M119.66,69.20L119.69,69.21L119.61,69.18L119.53,69.13L119.49,69.07L119.48,69.00L119.51,68.94L119.58,68.89L119.67,68.85L119.78,68.82L119.89,68.83L120.00,68.85L120.09,68.89L120.16,68.95L120.18,69.01L120.17,69.08L120.12,69.14L120.04,69.19L119.97,69.21L119.99,69.20L120.04,69.19L120.02,69.20"/><path d="M119.56,69.89L119.40,69.82L119.28,69.73L119.31,69.75L119.40,69.82L119.53,69.88L119.56,69.89L119.65,69.92L119.65,69.43L119.40,69.24L119.52,69.29L119.67,69.33L119.83,69.34L119.99,69.33L119.65,69.43"/><path d="M119.65,69.92L119.75,69.92L119.83,69.92L119.99,69.91L119.75,69.92"/><path d="M119.16,69.14L119.40,69.24L119.31,69.17L119.25,69.08L119.23,68.99L119.25,68.90L119.31,68.82L119.41,68.75L119.49,68.71"/><path d="M119.55,69.16L119.53,69.15"/><path d="M119.47,69.10L119.46,69.08"/><path d="M119.44,68.93L119.44,68.93L119.44,68.94"/><path d="M119.44,68.93L119.44,68.93L119.44,68.93"/><path d="M119.28,69.73L119.23,69.69"/><path d="M120.20,69.09L120.22,69.06L120.23,69.00L120.23,68.96L120.21,68.92L120.19,68.89L120.15,68.85L120.11,68.83L120.05,68.80L120.01,68.79L119.93,68.77L119.88,68.77L119.79,68.77L119.75,68.77L119.67,68.79L119.63,68.80L119.56,68.83L119.52,68.85"/><path d="M119.63,68.80L119.59,68.81L119.56,68.83"/><path d="M119.48,68.89L119.50,68.87"/><path d="M119.59,68.81L119.59,68.81"/><path d="M119.67,68.79L119.71,68.77L119.75,68.77"/><path d="M120.21,68.92L120.22,68.94"/><path d="M120.23,69.00L120.23,69.02L120.22,69.06L120.19,69.09L120.18,69.11L120.14,69.14L120.10,69.16L120.04,69.19"/><path d="M120.19,69.09L120.19,69.09"/><path d="M120.10,69.16L120.12,69.15L120.12,69.15"/><path d="M119.99,69.20L120.02,69.20"/><path d="M119.78,69.22L119.74,69.22L119.78,69.22L119.89,69.22L119.89,69.22"/><path d="M119.99,69.91L120.13,69.88L120.18,69.86L119.99,69.91"/><path d="M119.82,69.92L119.82,69.92"/><path d="M119.99,69.33L120.13,69.30L120.26,69.24L120.36,69.17L120.42,69.09L120.44,69.00L120.42,68.91L120.35,68.82"/><path d="M119.99,69.33L120.32,69.32L120.32,69.82L120.18,69.86"/><path d="M120.32,69.82L120.42,69.67L120.44,69.62"/><path d="M120.32,69.32L120.42,69.09L120.51,68.94"/><path d="M119.76,69.22L119.76,69.22"/><path d="M119.89,69.22L119.89,69.22L119.91,69.22L119.87,69.22"/><path d="M119.78,69.22L119.76,69.22L119.74,69.22"/><path d="M119.69,69.21L119.74,69.22"/><path d="M120.20,69.09L120.18,69.11"/><path d="M120.12,69.15L120.12,69.15L120.14,69.14"/><path d="M120.23,69.02L120.23,69.02"/><path d="M120.23,68.96L120.22,68.94"/><path d="M120.19,68.89L120.17,68.87L120.17,68.87"/><path d="M119.97,69.21L119.91,69.22"/><path d="M119.88,68.77L119.84,68.76L119.84,68.76"/><path d="M120.01,68.79L119.97,68.78L119.97,68.78"/><path d="M120.11,68.83L120.08,68.81L120.08,68.82"/><path d="M120.15,68.85L120.17,68.87L120.17,68.87"/><path d="M120.05,68.80L120.08,68.81L120.08,68.81"/><path d="M119.97,68.78L119.97,68.78L119.93,68.77"/><path d="M119.71,68.77L119.71,68.78"/><path d="M119.79,68.77L119.84,68.76L119.84,68.76"/><path d="M119.92,68.65L119.99,68.66L120.10,68.69"/></g><g style="stroke:#000000;stroke-width:0.529"><path d="M119.43,70.00L119.55,70.06L119.73,70.09L119.92,70.09L120.09,70.06L120.24,70.00L120.26,69.99L120.37,69.90L120.38,69.88L120.43,69.77L120.43,69.75L120.44,69.62L120.51,69.43L120.51,68.94L120.38,68.84L120.35,68.82L120.26,68.75L120.14,68.70L120.10,68.69L120.01,68.65L119.92,68.65L119.83,68.65L119.68,68.66L119.53,68.69L119.49,68.71L119.34,68.76L119.25,68.90L119.16,69.14L119.16,69.64L119.23,69.69L119.23,69.74L119.23,69.76L119.28,69.87L119.29,69.89L119.39,69.98L119.40,69.99L119.43,70.00"/></g></g><g id="Actor_.4"><g style="stroke:#000000;stroke-width:0.176"><path d="M93.85,37.90L93.91,37.85L93.94,37.76L93.94,37.65L93.91,37.53L93.85,37.41L93.77,37.31L93.68,37.23L93.59,37.18L93.50,37.18L93.43,37.21"/><path d="M93.64,37.86L93.71,37.89L93.78,37.87L93.83,37.83L93.85,37.78L93.86,37.75L93.86,37.66L93.83,37.56L93.78,37.45L93.71,37.36L93.64,37.30L93.56,37.26L93.48,37.25L93.42,37.28L93.38,37.34L93.37,37.43"/><path d="M99.36,33.70L99.64,33.54"/><path d="M100.08,34.16L100.11,34.34L100.09,34.48"/><path d="M100.09,34.45L100.09,34.46"/><path d="M99.75,33.65L99.89,33.78L100.02,33.99"/><path d="M100.07,34.07L99.86,34.19"/></g><g style="stroke:#000000;stroke-width:0.529"><path d="M94.26,37.66L93.85,37.90L93.77,37.91L93.68,37.89L93.64,37.86L93.56,37.81L93.48,37.73L93.42,37.63L93.38,37.53L93.37,37.43L93.37,37.38L93.39,37.28L93.43,37.21L93.84,36.98"/><path d="M99.07,34.90L95.76,36.80"/><path d="M98.67,34.20L95.36,36.11"/><path d="M99.86,34.77L100.07,34.64L100.11,34.34L100.09,34.20L100.08,34.16L100.07,34.07L100.02,33.99L99.98,33.91L99.89,33.78L99.79,33.68L99.75,33.65L99.64,33.54L99.47,33.54L99.21,33.58L99.19,33.60"/></g></g><g id="Actor_.5"><g style="stroke:#000000;stroke-width:0.176"><path d="M171.63,82.48L171.68,82.41L171.69,82.31L171.68,82.19L171.63,82.07L171.57,81.96L171.48,81.86L171.39,81.80L171.30,81.77L171.22,81.79L171.22,81.79"/><path d="M171.35,82.44L171.43,82.48L171.50,82.48L171.56,82.45L171.60,82.39L171.61,82.31L171.60,82.21L171.56,82.10L171.50,82.01L171.43,81.92L171.35,81.87L171.27,81.85L171.20,81.86L171.15,81.90L171.13,81.98"/><path d="M177.04,78.25L177.32,78.10"/><path d="M177.80,78.66L177.85,78.85L177.86,79.01"/><path d="M177.45,78.21L177.58,78.31L177.72,78.49"/><path d="M177.78,78.57L177.61,78.66"/></g><g style="stroke:#000000;stroke-width:0.529"><path d="M172.04,82.24L171.63,82.48L171.56,82.51L171.48,82.50L171.38,82.46L171.35,82.44L171.27,82.37L171.20,82.28L171.15,82.17L171.13,82.07L171.13,81.92L171.16,81.84L171.22,81.79"/><path d="M171.62,81.55L171.22,81.79"/><path d="M173.51,81.40L176.83,79.50"/><path d="M173.11,80.70L176.43,78.80"/><path d="M177.61,79.32L177.86,79.18L177.86,79.01L177.86,78.98L177.85,78.85L177.82,78.71L177.80,78.66L177.78,78.57L177.72,78.49L177.68,78.43L177.58,78.31L177.48,78.22L177.45,78.21L177.32,78.10L177.16,78.15L176.98,78.22"/></g></g><g id="Actor_.6"><g style="stroke:#000000;stroke-width:0.176"><path d="M93.79,36.69L93.97,36.69L94.22,36.65L94.40,36.94L94.30,36.83L94.18,36.75L94.07,36.70L93.97,36.69L93.88,36.72L93.78,36.77"/><path d="M94.10,37.76L94.18,37.76L94.26,37.72L94.31,37.64L94.33,37.53L94.31,37.40L94.26,37.26L94.18,37.13L94.18,37.13L94.08,37.02L93.98,36.95L93.87,36.92L93.78,36.94L93.72,37.00L93.70,37.06"/><path d="M93.77,36.78L93.77,36.78"/><path d="M93.81,36.94L93.78,36.97L93.76,37.03"/><path d="M93.67,36.87L93.67,36.87"/><path d="M93.62,37.02L93.62,37.02"/><path d="M94.27,37.72L94.24,37.73L94.15,37.72"/><path d="M94.65,37.75L94.61,37.49L94.60,37.61L94.55,37.70L94.48,37.77L94.45,37.79"/><path d="M95.08,36.94L94.65,37.18L94.40,36.94"/><path d="M95.09,37.03L95.11,37.20L95.10,37.35"/><path d="M94.65,37.18L94.61,37.49L94.60,37.35L94.55,37.21L94.48,37.06L94.40,36.94"/><path d="M95.02,36.85L94.90,36.65L94.76,36.51"/><path d="M94.22,36.65L94.65,36.40"/></g><g style="stroke:#000000;stroke-width:0.529"><path d="M93.77,36.78L93.78,36.77L93.79,36.69L94.22,36.44L94.47,36.40L94.65,36.40L94.76,36.51L94.80,36.54L94.90,36.65L94.99,36.77L95.02,36.85L95.08,36.94L95.09,37.03L95.10,37.06L95.11,37.20L95.10,37.32L95.10,37.35L95.08,37.51L94.65,37.75L94.45,37.79L94.40,37.81L94.30,37.86L94.28,37.87L94.13,37.86L94.02,37.80"/><path d="M93.62,37.02L93.62,37.11"/><path d="M93.62,37.02L93.66,36.89L93.67,36.87"/><path d="M93.77,36.78L93.76,36.79L93.67,36.87"/></g></g><g id="Actor_.7"><g style="stroke:#000000;stroke-width:0.176"><path d="M173.51,80.93L172.97,81.24L167.27,77.97"/><path d="M172.97,81.24L172.97,88.68"/></g><g style="stroke:#000000;stroke-width:0.529"><path d="M167.27,79.80L167.27,84.69"/><path d="M172.55,88.43L172.97,88.68L173.51,88.37L173.51,80.93L167.80,77.66L167.27,77.97L167.27,78.42"/><path d="M171.39,87.77L167.88,85.75"/></g></g><g id="Actor_.8"><g style="stroke:#000000;stroke-width:0.176"><path d="M167.21,79.70L167.30,79.70L167.38,79.66L167.43,79.58L167.45,79.47L167.43,79.34L167.43,79.34L167.38,79.20L167.30,79.07L167.25,79.01L167.20,78.96L167.09,78.89L166.99,78.86L166.90,78.88L166.83,78.94L166.81,79.00"/><path d="M166.93,78.87L166.89,78.90L166.87,78.96"/><path d="M167.38,79.66L167.36,79.67L167.27,79.66"/><path d="M166.91,78.63L167.09,78.63L167.34,78.59L167.51,78.87L167.77,79.12L168.19,78.87"/><path d="M167.77,79.69L167.73,79.43L167.71,79.29L167.67,79.15L167.60,79.00L167.51,78.87L167.41,78.77L167.30,78.68L167.19,78.64L167.09,78.63L167.00,78.66L166.90,78.71"/><path d="M167.34,78.59L167.76,78.34"/><path d="M168.21,79.28L168.23,79.14L168.21,78.97"/><path d="M167.77,79.12L167.73,79.42L167.71,79.54L167.67,79.64L167.60,79.71L167.56,79.72"/><path d="M168.23,79.14L168.23,79.14"/><path d="M167.88,78.45L168.02,78.59L168.14,78.79"/></g><g style="stroke:#000000;stroke-width:0.529"><path d="M168.23,79.14L168.22,79.00L168.21,78.97L168.19,78.87L168.14,78.79L168.10,78.71L168.02,78.59L167.91,78.48L167.88,78.45L167.76,78.34L167.59,78.34L167.34,78.38L166.91,78.63L166.90,78.71L166.89,78.72L166.87,78.73L166.79,78.81L166.78,78.83L166.73,78.95L166.73,79.04"/><path d="M168.23,79.14L168.22,79.26L168.21,79.28L168.19,79.45L167.77,79.69L167.56,79.72L167.52,79.75L167.41,79.80L167.39,79.80L167.25,79.80L167.13,79.74"/></g></g><g id="Actor_.9"><g style="stroke:#000000;stroke-width:0.176"><path d="M166.81,85.19L166.84,85.13L166.91,85.07L167.00,85.06L167.11,85.10L167.17,85.14L167.21,85.17L167.31,85.28L167.39,85.41L167.39,85.42L167.43,85.55L167.45,85.68L167.42,85.79L167.38,85.85L167.35,85.87L167.27,85.86"/><path d="M167.38,85.85L167.37,85.87L167.29,85.90L167.21,85.89"/><path d="M168.10,84.89L167.68,85.14L167.40,84.95L167.20,84.73"/><path d="M168.24,85.52L167.82,85.77L167.71,85.47L167.67,85.33L167.59,85.19L167.50,85.06L167.40,84.95L167.29,84.88L167.18,84.83L167.07,84.83L166.99,84.86"/><path d="M166.87,85.16L166.90,85.09L166.93,85.07"/><path d="M167.82,85.77L167.61,85.90L167.67,85.83L167.71,85.74L167.72,85.73L167.73,85.61L167.71,85.47L167.68,85.14"/><path d="M167.46,85.97L167.51,85.95L167.61,85.90L167.48,85.99"/><path d="M168.23,85.35L168.21,85.18L168.14,84.98"/><path d="M168.04,84.82L167.90,84.67L167.77,84.58"/><path d="M167.90,84.67L167.90,84.67"/><path d="M168.23,85.32L168.23,85.32"/></g><g style="stroke:#000000;stroke-width:0.529"><path d="M168.23,85.32L168.23,85.35L168.24,85.52L168.11,85.61L167.90,85.74L167.48,85.99L167.46,85.97L167.40,86.00L167.38,86.00L167.36,86.00L167.23,85.99L167.13,85.94"/><path d="M167.90,84.67L167.79,84.59L167.77,84.58L167.62,84.48L167.20,84.73L166.99,84.86L166.90,84.91L166.81,84.98L166.80,84.99L166.79,85.01L166.74,85.13L166.73,85.24"/><path d="M168.23,85.32L168.21,85.18L168.17,85.04L168.14,84.98L168.10,84.89L168.04,84.82L168.01,84.77L167.90,84.67"/></g></g><g id="Actor_.10"><g style="stroke:#000000;stroke-width:0.176"><path d="M104.38,144.02L104.40,144.21L104.53,144.38L104.75,144.52L105.04,144.62L105.36,144.66L105.69,144.63L105.99,144.54L106.22,144.40L106.36,144.23L106.39,144.04"/></g><g style="stroke:#000000;stroke-width:0.529"><path d="M105.99,143.62L106.14,143.69L106.32,143.86L106.39,144.04L106.39,144.17L106.36,144.36L106.22,144.53L105.99,144.67L105.69,144.75L105.36,144.78L105.04,144.74L104.75,144.65L104.53,144.51L104.40,144.33L104.38,144.14L104.38,144.02L104.47,143.83L104.66,143.68L104.78,143.62"/></g></g><g id="Actor_.11"><g style="stroke:#000000;stroke-width:0.176"><path d="M89.24,35.22L89.29,35.15L89.30,35.05L89.29,34.93L89.24,34.81L89.17,34.70L89.09,34.60L88.99,34.54L88.90,34.52L88.82,34.53"/><path d="M88.96,35.18L89.04,35.22L89.12,35.22L89.17,35.19L89.21,35.13L89.23,35.05L89.21,34.95L89.17,34.84L89.11,34.75L89.04,34.67L88.96,34.61L88.88,34.59L88.81,34.60L88.76,34.65L88.74,34.72"/><path d="M95.17,31.04L95.31,31.20L95.42,31.41"/><path d="M95.08,30.93L94.81,31.09"/></g><g style="stroke:#000000;stroke-width:0.529"><path d="M89.23,34.30L88.82,34.53L88.77,34.59L88.74,34.67L88.74,34.82L88.76,34.92L88.81,35.02L88.88,35.11L88.96,35.18L89.00,35.20L89.09,35.25L89.18,35.25L89.24,35.22L89.65,34.98"/><path d="M90.72,33.45L94.04,31.55"/><path d="M95.43,31.44L95.42,31.41L95.39,31.34L95.31,31.20L95.22,31.08L95.17,31.04L95.08,30.93L94.89,30.88L94.62,30.87L94.53,30.92"/></g></g><g id="Actor_.12"><g style="stroke:#000000;stroke-width:0.176"><path d="M171.61,88.69L171.67,88.63L171.69,88.54L171.69,88.43L171.65,88.31L171.59,88.19L171.51,88.09L171.42,88.02L171.32,87.98L171.24,87.98"/><path d="M171.40,88.66L171.48,88.68L171.54,88.66L171.59,88.61L171.61,88.54L171.61,88.44L171.58,88.34L171.53,88.23L171.46,88.15L171.38,88.08L171.30,88.05L171.22,88.05L171.17,88.08L171.13,88.15L171.12,88.24"/><path d="M177.61,85.43L177.88,85.27"/><path d="M177.70,84.63L177.61,84.68"/><path d="M177.74,84.72L177.83,84.93L177.86,85.10"/><path d="M177.63,84.57L177.61,84.54"/></g><g style="stroke:#000000;stroke-width:0.529"><path d="M171.65,87.74L171.24,87.98L171.17,88.02L171.13,88.09L171.12,88.19L171.12,88.24L171.14,88.34L171.18,88.44L171.24,88.54L171.32,88.61L171.40,88.66L171.45,88.69L171.54,88.71L171.61,88.69L172.02,88.46"/><path d="M173.51,86.67L176.43,85.00"/><path d="M176.83,85.69L173.51,87.60"/><path d="M177.61,84.54L177.63,84.57L177.70,84.63L177.74,84.72L177.77,84.78L177.83,84.93L177.86,85.07L177.86,85.10L177.88,85.27L177.77,85.38L177.61,85.52"/></g></g><g id="Actor_.13"><g style="stroke:#000000;stroke-width:0.176"><path d="M183.57,188.99L183.57,188.56L182.88,188.62L182.45,188.30"/><path d="M182.88,189.05L182.88,188.62"/><path d="M183.57,188.56L183.83,188.19"/></g><g style="stroke:#000000;stroke-width:0.529"><path d="M182.66,188.89L182.88,189.05L183.57,188.99L183.83,188.62L183.83,188.19L183.40,187.87L182.71,187.93L182.45,188.30L182.45,188.73L182.66,188.89"/></g></g><g id="Actor_.14"><g style="stroke:#000000;stroke-width:0.176"><path d="M105.99,143.85L105.39,144.05L104.78,143.85L104.78,144.28"/><path d="M104.78,143.85L104.78,143.45"/><path d="M105.39,144.48L105.39,144.05"/><path d="M105.99,144.28L105.99,144.27"/><path d="M105.99,143.45L105.99,143.45"/></g><g style="stroke:#000000;stroke-width:0.529"><path d="M104.78,144.28L104.78,143.88L104.78,143.45"/><path d="M104.78,143.45L105.38,143.25L105.99,143.45L105.99,143.85L105.99,144.28L105.39,144.48L104.78,144.28"/></g></g><g id="Actor_.15"><g style="stroke:#000000;stroke-width:0.176"><path d="M182.14,188.58L182.14,188.77L182.25,188.95L182.46,189.10L182.74,189.20L183.06,189.25L183.39,189.23L183.69,189.16L183.94,189.03L184.09,188.86L184.15,188.67"/></g><g style="stroke:#000000;stroke-width:0.529"><path d="M182.49,188.23L182.45,188.25L182.25,188.40L182.14,188.58L182.14,188.70L182.14,188.90L182.25,189.08L182.46,189.22L182.74,189.33L183.06,189.37L183.39,189.36L183.69,189.28L183.94,189.15L184.09,188.98L184.15,188.80L184.15,188.67L184.09,188.48L183.93,188.32L183.83,188.26"/></g></g><g id="Actor_.16"><g style="stroke:#000000;stroke-width:0.176"><path d="M95.22,44.08L95.22,36.64L89.51,33.37"/><path d="M95.22,36.64L95.76,36.33"/></g><g style="stroke:#000000;stroke-width:0.529"><path d="M89.51,35.20L89.51,40.00"/><path d="M94.85,43.86L95.22,44.08L95.76,43.77L95.76,36.33L90.05,33.06L89.51,33.37L89.51,33.80"/><path d="M93.63,43.17L90.21,41.20"/></g></g><g id="Actor_.17"><g style="stroke:#000000;stroke-width:0.176"><path d="M166.55,85.34L166.63,85.31L166.71,85.32L166.81,85.37L166.90,85.46L166.97,85.56L167.03,85.68L167.05,85.80L167.05,85.91L167.02,85.99L166.96,86.04"/><path d="M166.74,85.99L166.82,86.02L166.89,86.01L166.94,85.97L166.97,85.90L166.98,85.81L166.95,85.71L166.91,85.60L166.84,85.51L166.76,85.44L166.68,85.40L166.61,85.39L166.54,85.41L166.50,85.47L166.49,85.55"/></g><g style="stroke:#000000;stroke-width:0.529"><path d="M166.97,85.11L166.55,85.34L166.51,85.41L166.49,85.50L166.49,85.55L166.50,85.65L166.53,85.75L166.59,85.85L166.66,85.94L166.74,85.99L166.78,86.02L166.87,86.05L166.96,86.04L167.37,85.80"/></g></g><g id="Actor_.18"><g style="stroke:#000000;stroke-width:0.176"><path d="M166.96,79.84L167.02,79.78L167.05,79.70L167.05,79.59L167.02,79.47L166.96,79.35L166.89,79.25L166.80,79.17L166.70,79.12L166.62,79.12L166.55,79.15L166.55,79.15"/><path d="M166.75,79.80L166.83,79.82L166.90,79.81L166.95,79.77L166.97,79.69L166.97,79.60L166.95,79.49L166.90,79.39L166.83,79.30L166.75,79.23L166.67,79.19L166.60,79.19L166.54,79.22L166.50,79.28L166.49,79.36"/><path d="M172.76,75.48L172.48,75.64"/><path d="M173.13,75.92L173.01,75.72L172.87,75.59"/><path d="M173.19,76.01L173.16,76.02"/></g><g style="stroke:#000000;stroke-width:0.529"><path d="M166.96,78.91L166.55,79.15"/><path d="M167.38,79.60L166.96,79.84L166.89,79.85L166.80,79.83L166.75,79.80L166.67,79.75L166.60,79.67L166.54,79.57L166.50,79.46L166.49,79.36L166.49,79.32L166.50,79.22L166.55,79.15"/><path d="M168.47,78.04L171.79,76.14"/><path d="M173.19,76.04L173.19,76.01L173.13,75.92L173.10,75.85L173.01,75.72L172.91,75.61L172.87,75.59L172.76,75.48L172.58,75.48L172.33,75.52L172.30,75.53"/></g></g><g id="Actor_.19"><g style="stroke:#000000;stroke-width:0.176"><path d="M172.78,81.43L172.36,81.68L172.09,81.46L171.90,81.21L171.67,81.30L171.51,81.35"/><path d="M171.51,81.39L171.67,81.30L171.76,81.29L171.87,81.31L171.98,81.37L172.09,81.46L172.19,81.58L172.27,81.72L172.33,81.86L172.36,82.00L172.44,82.29"/><path d="M171.85,82.35L171.89,82.36L171.98,82.35L172.04,82.29L172.08,82.19L172.08,82.07L172.05,81.93L171.98,81.79L171.89,81.67L171.79,81.58L171.68,81.53L171.58,81.52L171.50,81.56L171.45,81.64L171.45,81.66"/><path d="M171.56,81.54L171.51,81.61L171.51,81.62"/><path d="M172.36,81.68L172.36,82.00L172.36,82.13L172.34,82.25L172.28,82.33L172.21,82.38"/><path d="M171.91,82.32L171.95,82.33L172.01,82.32"/><path d="M171.90,81.21L172.32,80.96"/><path d="M172.86,81.87L172.86,81.72L172.81,81.52"/><path d="M172.46,81.07L172.59,81.18L172.73,81.36"/><path d="M172.86,81.72L172.86,81.72"/></g><g style="stroke:#000000;stroke-width:0.529"><path d="M172.86,81.72L172.86,81.84L172.86,81.87L172.86,82.04L172.44,82.29L172.21,82.38L172.11,82.44L172.08,82.45L171.97,82.47L171.95,82.47L171.81,82.43L171.80,82.42L171.77,82.40"/><path d="M172.59,81.18L172.48,81.08L172.46,81.07L172.32,80.96L172.17,81.01L171.94,81.10L171.51,81.35L171.51,81.39L171.48,81.41L171.46,81.42L171.40,81.53L171.39,81.54L171.37,81.69L171.37,81.70"/><path d="M172.86,81.72L172.83,81.57L172.81,81.52L172.78,81.43L172.73,81.36L172.69,81.29L172.59,81.18"/></g></g><g id="Actor_.20"><g style="stroke:#000000;stroke-width:0.176"><path d="M171.85,88.55L171.85,88.56L171.95,88.56L172.02,88.51L172.07,88.42L172.08,88.31L172.06,88.17L172.00,88.03L171.92,87.91L171.82,87.81L171.71,87.74L171.61,87.72L171.53,87.74L171.46,87.81L171.45,87.86"/><path d="M171.51,87.82L171.52,87.77L171.56,87.73"/><path d="M171.61,87.53L171.68,87.49L171.78,87.49L171.89,87.52L172.00,87.58L171.79,87.38"/><path d="M172.86,87.97L172.84,87.79L172.74,87.58"/><path d="M172.16,88.65L172.27,88.54L172.33,88.46L172.36,88.35L172.36,88.22L172.33,88.08L172.46,88.38L172.89,88.13"/><path d="M172.46,88.38L172.27,88.54L172.07,88.65"/><path d="M172.28,87.74L172.33,88.08L172.28,87.94L172.20,87.80L172.10,87.68L172.00,87.58L172.28,87.74L172.71,87.50"/><path d="M172.27,88.54L172.11,88.63"/><path d="M172.01,88.52L171.91,88.52L171.91,88.52"/><path d="M172.64,87.43L172.50,87.29L172.37,87.22"/><path d="M172.50,87.29L172.50,87.29"/></g><g style="stroke:#000000;stroke-width:0.529"><path d="M172.07,88.65L172.05,88.66L171.92,88.66L171.90,88.66L171.77,88.60L171.77,88.60"/><path d="M172.50,87.29L172.39,87.23L172.37,87.22L172.22,87.13L171.79,87.38L171.61,87.53L171.51,87.58L171.50,87.60L171.42,87.68L171.41,87.70L171.37,87.83L171.37,87.85L171.37,87.90"/><path d="M172.50,87.29L172.61,87.39L172.64,87.43L172.71,87.50L172.74,87.58L172.78,87.65L172.84,87.79L172.86,87.93L172.86,87.97L172.89,88.13L172.78,88.25L172.58,88.41L172.16,88.65L172.11,88.63L172.08,88.64"/></g></g><g id="Actor_.21"><g style="stroke:#000000;stroke-width:0.176"><path d="M152.76,78.73L153.15,78.91L153.15,85.52"/><path d="M153.15,78.91L154.41,78.00"/></g><g style="stroke:#000000;stroke-width:0.529"><path d="M154.01,77.82L152.76,78.73L152.76,85.34L153.15,85.52L155.66,83.71L155.66,78.93"/><path d="M155.66,77.39L155.66,77.33"/></g></g><g id="Actor_.22"><g style="stroke:#000000;stroke-width:0.176"><path d="M171.44,195.03L171.44,195.03"/><path d="M171.44,194.90L171.55,195.08L171.75,195.23L172.03,195.34L172.35,195.39L172.68,195.37L172.99,195.30L173.18,195.20L173.23,195.17L173.39,195.00L173.45,194.81"/></g><g style="stroke:#000000;stroke-width:0.529"><path d="M173.07,194.37L173.24,194.46L173.39,194.63L173.45,194.81L173.45,194.94L173.39,195.13L173.23,195.29L172.99,195.42L172.68,195.50L172.35,195.51L172.03,195.46L171.75,195.36L171.55,195.21L171.44,195.03L171.44,194.90L171.44,194.71L171.55,194.53L171.75,194.39"/></g></g><g id="Actor_.23"><g style="stroke:#000000;stroke-width:0.176"><path d="M171.75,194.30L171.98,194.68L171.98,195.11"/><path d="M173.12,194.46L172.66,194.76L171.98,194.68"/><path d="M172.66,194.76L172.66,195.19"/></g><g style="stroke:#000000;stroke-width:0.529"><path d="M171.77,194.76L171.75,194.73L171.75,194.30L172.22,194.00L172.90,194.08L173.12,194.46L173.12,194.89L172.66,195.19L171.98,195.11L171.77,194.76"/></g></g><g id="Actor_.24"><g style="stroke:#000000;stroke-width:0.176"><path d="M84.99,144.12L84.91,144.31L84.73,144.47L84.47,144.58L84.16,144.65L83.82,144.65L83.51,144.59L83.25,144.47L83.06,144.31L82.98,144.13"/></g><g style="stroke:#000000;stroke-width:0.529"><path d="M84.59,143.62L84.60,143.62L84.83,143.76L84.96,143.93L84.99,144.12L84.99,144.25L84.91,144.43L84.73,144.59L84.47,144.71L84.16,144.77L83.82,144.77L83.51,144.71L83.25,144.59L83.06,144.44L82.98,144.25L82.98,144.13L83.01,143.94L83.14,143.76L83.32,143.65"/></g></g><g id="Actor_.25"><g style="stroke:#000000;stroke-width:0.176"><path d="M83.46,144.34L83.46,143.91L84.12,144.04L84.12,144.47"/><path d="M84.12,144.04L84.65,143.78"/><path d="M83.46,143.91L83.32,143.52"/></g><g style="stroke:#000000;stroke-width:0.529"><path d="M84.17,144.44L84.12,144.47L83.46,144.34L83.32,143.95L83.32,143.52L83.85,143.26L84.51,143.38L84.65,143.78L84.65,144.20L84.17,144.44"/></g></g><g id="Actor_.26"><g style="stroke:#000000;stroke-width:0.176"><path d="M176.29,186.79L175.79,186.50"/><path d="M178.81,185.35L178.81,185.35"/></g><g style="stroke:#000000;stroke-width:0.529"><path d="M176.29,186.79L175.94,186.59L175.79,186.50"/><path d="M176.29,186.79L178.81,185.35L175.79,183.58"/></g></g><g id="Actor_.27"><g style="stroke:#000000;stroke-width:0.176"><path d="M166.06,185.35L166.06,185.35"/><path d="M168.59,186.79L169.09,186.50"/></g><g style="stroke:#000000;stroke-width:0.529"><path d="M168.59,186.79L166.06,185.35L169.09,183.58"/><path d="M169.09,186.50L168.94,186.59L168.59,186.79"/></g></g><g id="Actor_.28"><g style="stroke:#000000;stroke-width:0.176"><path d="M175.61,78.32L175.61,78.23L175.56,78.32L175.47,78.39L172.80,79.93L172.67,79.98L172.52,80.01L172.36,80.01L172.21,79.98L172.08,79.93L171.77,79.75L169.41,78.39L169.31,78.32L169.27,78.23"/><path d="M175.61,78.23L175.61,78.14"/></g><g style="stroke:#000000;stroke-width:0.529"><path d="M175.61,78.14L175.56,78.06L175.47,77.98L172.80,76.45L172.67,76.40L172.52,76.37L172.36,76.37L172.21,76.40L172.08,76.45L169.41,77.98L169.31,78.06L169.27,78.14L169.27,78.23L169.27,78.32L169.27,78.14L169.27,78.32L169.31,78.40L169.41,78.48L172.08,80.01L172.21,80.06L172.36,80.09L172.52,80.09L172.67,80.06L172.80,80.01L175.47,78.48L175.56,78.40L175.61,78.32"/></g></g><g id="Actor_.29"><g style="stroke:#000000;stroke-width:0.176"><path d="M119.83,63.64L119.83,63.64"/></g><g style="stroke:#000000;stroke-width:0.529"><path d="M119.83,63.37L119.83,63.64L119.81,63.80L119.71,63.96L119.51,64.08L119.26,64.17L118.98,64.20L118.71,64.18"/></g></g><g id="Actor_.30"><g style="stroke:#000000;stroke-width:0.176"><path d="M117.09,58.27L117.49,58.45L117.49,65.06"/><path d="M117.49,58.45L118.74,57.55"/></g><g style="stroke:#000000;stroke-width:0.529"><path d="M118.35,57.37L117.09,58.27L117.09,64.88L117.49,65.06L119.99,63.25L119.99,56.87"/></g></g><g id="Actor_.31"><g style="stroke:#000000;stroke-width:0.176"><path d="M114.86,61.49L114.77,62.25L114.81,62.91L114.99,63.44L115.30,63.79"/><path d="M116.36,58.59L115.86,59.19L115.61,59.61L115.42,59.91L115.08,60.69"/><path d="M116.04,64.13L115.73,63.77L115.55,63.25L115.50,62.58L115.59,61.83"/><path d="M117.09,63.43L116.65,63.54L116.25,63.39L115.98,63.01L115.89,62.54L116.01,63.16L116.30,63.56L116.72,63.71L117.09,63.63"/><path d="M115.86,63.94L115.71,63.76L115.70,63.75L115.52,63.22L115.52,63.21L115.47,62.55L115.56,61.80L115.78,61.01L116.12,60.23L116.55,59.52L117.05,58.92L117.09,58.88"/><path d="M115.89,62.54L115.95,61.78L116.19,60.97L116.57,60.18L117.05,59.50L117.09,59.47"/><path d="M115.82,61.03L116.16,60.24L116.31,60.00L116.59,59.53L117.09,58.92"/><path d="M116.44,64.28L116.44,64.28"/><path d="M117.09,61.26L117.09,61.28L117.04,61.53L117.05,61.75L117.09,61.86"/><path d="M117.09,61.07L117.02,61.26L116.97,61.53L116.98,61.76L117.05,61.93L117.09,61.97"/><path d="M117.09,60.87L116.98,61.09L116.91,61.36L116.89,61.61L116.93,61.82L117.02,61.95L117.09,61.99"/><path d="M117.41,57.89L117.66,57.86"/></g><g style="stroke:#000000;stroke-width:0.529"><path d="M117.67,57.86L117.41,57.89L116.88,58.14L116.35,58.59L115.85,59.19L115.42,59.91L115.08,60.69L114.85,61.49L114.76,62.22L114.76,62.24L114.81,62.91L114.99,63.44L115.30,63.79L115.30,63.79L115.71,63.95L115.73,63.95L115.86,63.94"/><path d="M117.09,64.15L116.93,64.23L116.45,64.28L116.03,64.13L116.02,64.12L115.86,63.94"/></g></g><g id="Actor_.32"><g style="stroke:#000000;stroke-width:0.176"><path d="M118.30,61.07L118.17,61.25L118.25,61.19L118.32,61.14L118.39,61.13L118.45,61.14L118.49,61.18L118.52,61.25L118.53,61.31"/><path d="M118.17,61.25L118.11,61.34L118.05,61.45L118.01,61.56L117.98,61.67L117.91,61.89L117.67,61.78"/><path d="M118.53,61.44L118.53,61.44"/><path d="M117.79,61.84L117.79,61.84"/><path d="M117.98,61.67L117.99,61.42L118.17,61.26"/><path d="M117.99,61.03L117.75,61.31L117.99,61.42"/><path d="M117.91,61.89L118.06,61.96L118.15,62.01"/><path d="M117.98,61.67L117.97,61.77L117.98,61.85L118.02,61.92L118.06,61.96L118.12,61.98L118.19,61.96L118.24,61.93"/><path d="M117.75,61.31L117.71,61.54"/><path d="M117.71,61.54L117.68,61.70"/><path d="M117.78,61.27L117.83,61.17L117.88,61.12L117.92,61.07L117.93,61.07"/><path d="M117.74,61.35L117.70,61.44L117.68,61.57L117.68,61.62"/><path d="M117.77,61.83L117.79,61.84"/><path d="M118.19,61.96L118.19,61.96"/><path d="M118.46,61.65L118.46,61.66L118.45,61.67"/></g><g style="stroke:#000000;stroke-width:0.529"><path d="M117.93,61.07L117.99,61.03L118.06,60.96L118.30,61.07L118.45,61.14L118.53,61.19L118.53,61.31L118.54,61.34L118.53,61.44L118.50,61.55L118.46,61.65L118.46,61.66L118.45,61.67L118.40,61.76L118.34,61.85L118.26,61.92L118.24,61.93L118.15,62.01L117.91,61.90L117.79,61.84L117.78,61.83L117.77,61.83L117.67,61.78L117.68,61.70L117.68,61.69L117.68,61.62"/></g></g><g id="Actor_.33"><g style="stroke:#000000;stroke-width:0.176"><path d="M118.94,57.64L118.94,57.02L116.96,56.12"/><path d="M121.45,55.20L118.94,57.02"/><path d="M119.65,54.97L119.53,55.01L119.43,55.08L119.38,55.16L119.38,55.25L119.43,55.33L119.52,55.40L119.64,55.44L119.65,55.44L119.79,55.47L119.94,55.46L120.08,55.43L120.19,55.37L120.26,55.29L120.28,55.21L120.26,55.12L120.19,55.05L120.08,54.99L119.95,54.95L119.80,54.95L119.65,54.97"/></g><g style="stroke:#000000;stroke-width:0.529"><path d="M116.96,56.67L116.96,56.74L118.94,57.64L121.45,55.82L121.45,55.20L119.47,54.30L116.96,56.12L116.96,56.67"/></g></g><g id="Actor_.34"><g style="stroke:#000000;stroke-width:0.176"><path d="M116.30,64.23L116.30,64.52"/><path d="M117.56,57.01L116.30,57.91L116.30,58.65"/><path d="M116.30,57.91L115.91,57.73"/></g><g style="stroke:#000000;stroke-width:0.529"><path d="M116.67,64.26L116.30,64.52L115.91,64.34L115.91,63.99"/><path d="M117.16,56.83L115.91,57.73L115.91,59.13"/></g></g><g id="Actor_.35"><g style="stroke:#000000;stroke-width:0.176"><path d="M172.44,196.58L172.44,195.96L159.96,188.80"/><path d="M172.44,195.96L184.92,188.80"/></g><g style="stroke:#000000;stroke-width:0.529"><path d="M161.10,188.14L159.96,188.80L159.96,189.42L172.44,196.58L184.92,189.42L184.92,188.80L183.72,188.11"/><path d="M169.09,183.56L161.47,187.93"/><path d="M183.32,187.88L175.79,183.56"/></g></g><g id="Actor_.36"><g style="stroke:#000000;stroke-width:0.176"><path d="M181.01,78.54L180.91,78.54L180.80,78.59L178.13,80.12L178.02,80.20L177.92,80.32L177.84,80.46L177.79,80.60L177.77,80.74L177.77,83.84L177.79,83.95L177.84,84.04L177.92,84.09"/></g><g style="stroke:#000000;stroke-width:0.529"><path d="M177.70,83.74L177.70,83.80L177.72,83.91L177.77,84.00L177.92,84.09L178.02,84.09L178.13,84.05L180.80,82.51L180.91,82.43L181.01,82.31L181.09,82.18L181.14,82.03L181.16,81.89L181.16,78.79L181.14,78.68L181.09,78.59L180.94,78.50L180.84,78.50L180.73,78.54L178.06,80.08L177.95,80.16L177.85,80.28L177.77,80.42L177.72,80.56L177.70,80.70L177.70,83.74"/></g></g><g id="Actor_.37"><g style="stroke:#000000;stroke-width:0.176"><path d="M94.37,31.82L94.36,31.80L94.28,31.68L94.18,31.60L94.07,31.55L93.98,31.54L93.90,31.58L93.86,31.65"/><path d="M99.32,41.73L99.32,34.29L93.62,31.02"/><path d="M98.90,41.20L98.91,41.20L99.00,41.19L99.06,41.13L99.10,41.04L99.10,40.92L99.08,40.85L99.06,40.78L99.00,40.65L98.91,40.54L98.81,40.45L98.71,40.40L98.62,40.40L98.54,40.44L98.50,40.50"/><path d="M98.90,35.00L98.91,35.00L99.00,34.99L99.06,34.93L99.10,34.84L99.10,34.72L99.06,34.59L99.00,34.46L98.91,34.34L98.81,34.26L98.71,34.21L98.62,34.20L98.54,34.24L98.50,34.30"/><path d="M99.32,34.29L99.86,33.98"/></g><g style="stroke:#000000;stroke-width:0.529"><path d="M98.65,41.34L99.32,41.73L99.86,41.42L99.86,33.98L94.15,30.71L93.62,31.02L93.62,31.79"/></g></g><g id="Actor_.38"><g style="stroke:#000000;stroke-width:0.176"><path d="M93.68,150.20L93.73,150.39L93.88,150.56L94.12,150.69L94.42,150.77L94.75,150.79L95.08,150.75L95.36,150.65L95.57,150.50L95.68,150.32L95.68,150.13"/></g><g style="stroke:#000000;stroke-width:0.529"><path d="M95.35,149.78L95.38,149.79L95.58,149.95L95.68,150.13L95.68,150.25L95.68,150.44L95.57,150.62L95.36,150.77L95.08,150.87L94.75,150.92L94.42,150.90L94.12,150.82L93.88,150.69L93.73,150.52L93.68,150.33L93.68,150.20L93.74,150.02L93.90,149.85L93.99,149.80"/></g></g><g id="Actor_.39"><g style="stroke:#000000;stroke-width:0.176"><path d="M161.81,189.07L161.81,188.64L161.17,188.48L161.17,188.91"/><path d="M161.17,188.48L161.10,188.08"/><path d="M161.81,188.64L162.38,188.41"/></g><g style="stroke:#000000;stroke-width:0.529"><path d="M161.17,188.91L161.81,189.07L162.38,188.84L162.38,188.41L162.31,188.01L161.67,187.85L161.10,188.08L161.10,188.51L161.17,188.91"/></g></g><g id="Actor_.40"><g style="stroke:#000000;stroke-width:0.176"><path d="M154.95,90.19L154.97,90.21L155.07,90.28L155.23,90.34L155.19,90.33L155.07,90.28L154.89,90.15"/><path d="M155.12,89.54L155.13,89.54L155.12,89.53L155.14,89.56L155.13,89.54L155.13,89.54"/><path d="M155.12,89.53L155.10,89.49L155.10,89.45L155.09,89.47"/><path d="M155.10,89.49L155.09,89.47"/><path d="M155.10,89.45L155.11,89.39L155.11,89.39L155.11,89.39L155.11,89.39"/><path d="M155.11,89.39L155.11,89.39"/><path d="M155.25,89.27L155.29,89.26L155.23,89.29L155.19,89.31L155.15,89.34L155.11,89.39"/><path d="M155.30,89.65L155.28,89.65L155.32,89.66L155.35,89.67L155.28,89.64L155.20,89.59L155.15,89.53L155.15,89.46L155.18,89.40L155.24,89.34L155.33,89.30L155.45,89.28L155.56,89.28L155.67,89.31L155.76,89.35L155.82,89.40L155.85,89.47L155.84,89.54L155.79,89.60L155.71,89.64L155.63,89.67L155.66,89.66L155.70,89.65L155.68,89.66"/><path d="M155.23,90.34L155.31,90.38L155.31,89.88L155.65,89.79L155.50,89.80L155.34,89.79L155.19,89.75L155.07,89.70L154.97,89.63L154.91,89.54L154.89,89.45L154.91,89.36L154.97,89.28L155.07,89.21L155.15,89.17"/><path d="M155.31,89.88L155.07,89.70L154.82,89.60"/><path d="M155.14,89.56L155.18,89.59L155.22,89.62L155.28,89.65"/><path d="M155.16,89.32L155.16,89.32L155.15,89.34"/><path d="M155.65,90.37L155.80,90.34L155.84,90.32L155.65,90.37L155.41,90.38L155.50,90.38L155.65,90.37"/><path d="M156.02,89.28L156.08,89.36L156.10,89.45L156.08,89.54L156.02,89.63L155.92,89.70L155.80,89.75L155.65,89.79L155.99,89.78L155.99,90.28L155.84,90.32"/><path d="M155.41,90.38L155.31,90.38"/><path d="M155.99,90.28L156.08,90.13L156.10,90.07"/><path d="M155.29,89.26L155.33,89.24L155.42,89.23L155.46,89.22L155.55,89.23L155.59,89.23L155.67,89.25L155.71,89.26L155.78,89.29L155.81,89.31L155.85,89.35L155.88,89.38L155.89,89.42L155.90,89.48L155.89,89.51L155.86,89.55"/><path d="M155.42,89.23L155.37,89.23"/><path d="M155.55,89.23L155.50,89.22L155.50,89.22"/><path d="M155.67,89.25L155.63,89.23L155.64,89.24"/><path d="M155.78,89.29L155.75,89.27L155.75,89.27"/><path d="M155.90,89.46L155.89,89.48"/><path d="M155.86,89.55L155.85,89.56L155.80,89.60L155.77,89.62L155.70,89.65"/><path d="M155.86,89.55L155.89,89.51L155.89,89.48"/><path d="M155.85,89.56L155.86,89.55"/><path d="M155.66,89.66L155.68,89.66"/><path d="M155.42,89.68L155.42,89.68L155.40,89.68L155.45,89.68L155.42,89.68L155.43,89.68"/><path d="M155.18,89.59L155.20,89.61"/><path d="M155.19,89.31L155.16,89.32L155.16,89.32"/><path d="M155.93,89.21L155.93,89.21"/><path d="M155.99,89.78L156.08,89.54L156.17,89.39"/><path d="M155.56,89.68L155.56,89.68"/><path d="M155.79,89.61L155.79,89.61L155.77,89.62"/><path d="M155.30,89.65L155.32,89.66"/><path d="M155.45,89.68L155.45,89.68L155.40,89.68L155.40,89.68"/><path d="M155.45,89.68L155.56,89.68L155.63,89.67"/><path d="M155.22,89.62L155.20,89.61"/><path d="M155.79,89.61L155.79,89.61L155.80,89.60"/><path d="M155.90,89.48L155.90,89.48"/><path d="M155.89,89.40L155.89,89.40L155.89,89.42"/><path d="M155.88,89.38L155.89,89.40L155.89,89.40"/><path d="M155.84,89.33L155.84,89.33L155.85,89.35"/><path d="M155.84,89.33L155.84,89.33L155.81,89.31"/><path d="M155.23,89.29L155.26,89.27"/><path d="M155.71,89.26L155.75,89.27L155.75,89.27"/><path d="M155.63,89.23L155.63,89.23L155.59,89.23"/><path d="M155.35,89.67L155.40,89.68"/><path d="M155.33,89.24L155.37,89.23"/><path d="M155.53,89.68L155.58,89.68"/><path d="M155.58,89.11L155.66,89.12L155.77,89.14"/><path d="M155.50,89.22L155.50,89.22L155.46,89.22"/></g><g style="stroke:#000000;stroke-width:0.529"><path d="M155.93,89.21L155.80,89.15L155.77,89.14L155.68,89.11L155.58,89.11L155.50,89.11L155.34,89.12L155.20,89.15L155.15,89.17L155.00,89.21L154.91,89.36L154.82,89.60L154.82,90.09L154.89,90.15L154.89,90.20L154.90,90.22L154.94,90.33L154.95,90.34L155.06,90.44L155.07,90.45L155.22,90.51L155.39,90.55L155.58,90.55L155.76,90.52L155.91,90.45L155.92,90.45L156.03,90.35L156.04,90.34L156.10,90.23L156.10,90.21L156.10,90.07L156.17,89.89L156.17,89.39L156.04,89.30L156.02,89.28L155.93,89.21"/></g></g><g id="Actor_.41"><g style="stroke:#000000;stroke-width:0.176"><path d="M166.42,192.45L170.83,184.81"/></g><g style="stroke:#000000;stroke-width:0.529"><path d="M166.08,192.22L166.06,192.25L166.42,192.45L168.94,191.01L170.83,187.73L170.83,184.81L170.48,184.61L166.08,192.22"/></g></g><g id="Actor_.42"><g style="stroke:#000000;stroke-width:0.176"><path d="M160.73,188.64L160.77,188.83L160.90,189.00L161.13,189.14L161.43,189.22L161.76,189.25L162.08,189.22L162.37,189.12L162.59,188.98L162.72,188.81L162.74,188.62"/></g><g style="stroke:#000000;stroke-width:0.529"><path d="M161.10,188.24L160.99,188.29L160.81,188.45L160.73,188.64L160.73,188.76L160.77,188.95L160.90,189.12L161.13,189.26L161.43,189.35L161.76,189.38L162.08,189.34L162.37,189.25L162.59,189.11L162.72,188.93L162.74,188.74L162.74,188.62L162.66,188.43L162.47,188.28L162.34,188.22"/></g></g><g id="Actor_.43"><g style="stroke:#000000;stroke-width:0.176"><path d="M93.70,43.26L93.71,43.21L93.77,43.14L93.86,43.12L93.96,43.14L94.07,43.21L94.11,43.25L94.17,43.31L94.25,43.44L94.31,43.58L94.33,43.70L94.33,43.71L94.32,43.83L94.27,43.91L94.19,43.96L94.10,43.96L94.09,43.96"/><path d="M94.15,43.92L94.16,43.92L94.25,43.92"/><path d="M94.56,44.03L94.59,43.82L94.70,43.56L94.49,43.28L94.36,42.95L94.08,42.90L93.88,42.81"/><path d="M94.41,44.00L94.48,43.97L94.55,43.91L94.59,43.82L94.61,43.70L94.60,43.56L94.56,43.42L94.49,43.28L94.41,43.15L94.30,43.03L94.19,42.95L94.08,42.90L93.98,42.89L93.89,42.91L93.82,42.95"/><path d="M93.62,43.23L93.62,43.23"/><path d="M93.81,43.13L93.77,43.18L93.76,43.23"/><path d="M94.70,43.56L95.13,43.32"/><path d="M95.10,43.53L95.10,43.53"/><path d="M94.70,42.66L94.59,42.61"/><path d="M94.86,42.80L95.00,42.99L95.08,43.20"/><path d="M94.79,42.70L94.36,42.95"/></g><g style="stroke:#000000;stroke-width:0.529"><path d="M93.62,43.23L93.65,43.10L93.66,43.08L93.74,43.00L93.76,42.98L93.82,42.95L93.88,42.81L94.31,42.56L94.59,42.61L94.70,42.66L94.70,42.66L94.79,42.70L94.86,42.80L94.91,42.86L95.00,42.99L95.06,43.13L95.08,43.20L95.13,43.32L95.10,43.53L94.99,43.78L94.56,44.03L94.41,44.00L94.31,44.05L94.29,44.06L94.17,44.06L94.15,44.06L94.01,44.00"/><path d="M93.62,43.31L93.62,43.25L93.62,43.23"/><path d="M95.11,43.42L95.11,43.42"/></g></g><g id="Actor_.44"><g style="stroke:#000000;stroke-width:0.176"><path d="M177.08,86.32L177.08,78.89L171.37,75.61"/><path d="M172.12,76.41L172.07,76.33L171.98,76.23L171.88,76.16L171.78,76.14L171.69,76.15L171.63,76.21L171.62,76.24"/><path d="M176.26,85.10L176.27,85.07L176.33,85.01L176.42,84.99L176.51,85.02L176.62,85.09L176.68,85.16L176.71,85.19L176.79,85.32L176.84,85.45L176.85,85.58L176.84,85.68L176.79,85.76L176.71,85.80L176.65,85.79"/><path d="M176.25,78.90L176.27,78.87L176.33,78.81L176.42,78.80L176.51,78.82L176.62,78.89L176.69,78.97L176.71,78.99L176.79,79.12L176.84,79.25L176.85,79.38L176.84,79.49L176.79,79.56L176.71,79.60L176.66,79.60"/><path d="M177.08,78.89L177.61,78.58"/></g><g style="stroke:#000000;stroke-width:0.529"><path d="M176.40,85.94L177.08,86.32L177.61,86.02L177.61,78.58L171.90,75.31L171.37,75.61L171.37,76.38"/></g></g><g id="Actor_.45"><g style="stroke:#000000;stroke-width:0.176"><path d="M169.09,78.32L169.14,78.40L169.23,78.48L171.77,79.94L172.08,80.11L172.21,80.17L172.36,80.19L172.52,80.19L172.67,80.17L172.80,80.11L175.65,78.48L175.74,78.40L175.79,78.32L175.79,79.17"/><path d="M175.79,86.29L175.79,187.01"/><path d="M175.79,86.67L175.79,86.31"/><path d="M175.79,80.09L175.79,85.36"/><path d="M175.79,78.24L175.79,78.32"/></g><g style="stroke:#000000;stroke-width:0.529"><path d="M169.09,86.45L169.09,187.01"/><path d="M169.09,78.32L169.09,78.40L169.09,78.23L169.09,78.32"/><path d="M175.79,78.23L175.74,78.14L175.65,78.07L172.80,76.43L172.67,76.38L172.52,76.35L172.36,76.35L172.21,76.38L172.08,76.43L169.23,78.07L169.14,78.14L169.09,78.23"/><path d="M174.99,189.38L172.80,190.64L172.67,190.69L172.52,190.72L172.36,190.72L172.21,190.69L172.08,190.64L169.88,189.38"/></g></g><g id="Actor_.46"><g style="stroke:#000000;stroke-width:0.176"><path d="M177.76,84.20L177.68,84.15L177.63,84.07L177.61,83.95L177.61,80.64L177.63,80.51L177.68,80.36L177.76,80.23L177.86,80.11L177.97,80.03L180.82,78.39L180.93,78.35L181.03,78.35"/></g><g style="stroke:#000000;stroke-width:0.529"><path d="M95.59,31.53L97.36,30.52L97.47,30.48L97.57,30.48L163.07,68.05"/><path d="M158.86,73.36L99.86,39.52"/><path d="M159.70,73.84L167.27,78.18"/><path d="M177.61,84.12L177.76,84.20L177.86,84.20L177.97,84.16L180.82,82.52L180.93,82.44L181.03,82.32L181.11,82.19L181.16,82.04L181.18,81.90L181.18,78.60L181.16,78.48L181.11,78.40L163.90,68.53"/></g></g><g id="Actor_.47"><g style="stroke:#000000;stroke-width:0.176"><path d="M178.46,192.45L174.04,184.81"/></g><g style="stroke:#000000;stroke-width:0.529"><path d="M174.71,188.89L174.04,187.73L174.04,184.81L174.40,184.61L178.81,192.25L178.46,192.45L175.94,191.01L174.71,188.89"/></g></g><g id="Actor_.48"><g style="stroke:#000000;stroke-width:0.176"><path d="M95.38,149.83L94.97,150.15L94.28,150.11L93.99,149.75"/><path d="M94.97,150.15L94.97,150.58"/><path d="M94.28,150.11L94.28,150.54"/></g><g style="stroke:#000000;stroke-width:0.529"><path d="M94.20,150.44L93.99,150.17L93.99,149.75L94.40,149.42L95.09,149.46L95.38,149.83L95.38,150.25L94.97,150.58L94.28,150.54L94.20,150.44"/></g></g><g id="Actor_.49"><g style="stroke:#000000;stroke-width:0.176"><path d="M89.06,40.60L89.09,40.53L89.16,40.47L89.25,40.46L89.36,40.50L89.41,40.54L89.46,40.58L89.56,40.69L89.64,40.82L89.66,40.89L89.68,40.96L89.69,41.09L89.67,41.20L89.62,41.27L89.53,41.30L89.46,41.29"/><path d="M89.63,41.26L89.59,41.27L89.52,41.26"/><path d="M89.28,40.13L89.49,40.25L89.77,40.33L89.88,40.67L89.80,40.53L89.71,40.41L89.60,40.32L89.49,40.25L89.38,40.23L89.28,40.24L89.19,40.29"/><path d="M89.05,40.40L89.05,40.40"/><path d="M88.99,40.53L88.99,40.53"/><path d="M89.12,40.56L89.15,40.49L89.18,40.47"/><path d="M89.89,41.38L89.94,41.19L89.89,41.27L89.77,41.35"/><path d="M89.88,40.67L90.07,40.96L89.94,41.19L89.97,41.08L89.97,40.95L89.94,40.81L89.88,40.67"/><path d="M89.81,41.32L89.81,41.32"/><path d="M89.99,39.97L90.11,40.04"/><path d="M90.07,40.96L90.50,40.71"/><path d="M90.45,40.90L90.45,40.90"/><path d="M90.46,40.58L90.39,40.38L90.26,40.18"/><path d="M90.19,40.09L89.77,40.33"/><path d="M89.99,39.97L89.99,39.97"/></g><g style="stroke:#000000;stroke-width:0.529"><path d="M89.99,39.97L90.10,40.03L90.11,40.04L90.19,40.09L90.26,40.18L90.31,40.24L90.39,40.38L90.44,40.52L90.46,40.58L90.50,40.71L90.45,40.90L90.32,41.14L89.89,41.38L89.77,41.35L89.75,41.36L89.64,41.40L89.62,41.41L89.60,41.41L89.47,41.39L89.38,41.34"/><path d="M88.98,40.64L88.99,40.53"/><path d="M89.05,40.40L89.04,40.41L88.99,40.53"/><path d="M89.05,40.40L89.06,40.38L89.15,40.31L89.19,40.29L89.28,40.13L89.71,39.89L89.99,39.97"/></g></g><g id="Actor_.50"><g style="stroke:#000000;stroke-width:0.176"><path d="M119.55,50.95L119.65,50.99L119.78,51.01L119.89,51.01"/><path d="M119.48,44.35L119.40,44.39L119.31,44.46L119.25,44.54L119.23,44.63L119.25,44.72L119.31,44.81L119.40,44.88L119.53,44.93L119.67,44.97L119.83,44.98L119.99,44.97L120.33,44.96L120.33,45.30"/><path d="M120.33,44.96L120.42,44.72L120.36,44.80L120.26,44.88L120.13,44.93L119.99,44.97L119.65,45.06L119.65,45.40L119.99,45.35L119.99,45.35"/><path d="M119.65,45.40L119.28,45.19"/><path d="M119.65,45.06L119.40,44.88L119.16,44.78"/><path d="M119.58,45.36L119.56,45.36L119.43,45.30"/><path d="M120.44,45.06L120.37,45.19"/><path d="M120.36,44.46L120.42,44.54L120.44,44.63L120.42,44.72L120.51,44.57"/><path d="M119.99,45.35L120.20,45.31L120.14,45.34L119.96,45.38L119.76,45.39L119.74,45.39"/><path d="M120.20,45.31L120.23,45.31"/><path d="M120.26,44.39L120.26,44.39"/><path d="M119.91,44.29L119.99,44.30L120.10,44.32"/></g><g style="stroke:#000000;stroke-width:0.529"><path d="M119.91,51.02L119.90,51.02L119.79,51.03L119.68,51.01L119.58,50.97L119.55,50.95L119.47,50.89L119.43,50.81L119.43,50.75"/><path d="M120.26,44.39L120.14,44.33L120.10,44.32L120.01,44.29L119.91,44.29L119.83,44.28L119.67,44.30L119.53,44.33L119.48,44.35L119.34,44.39L119.25,44.54L119.16,44.78L119.16,45.12L119.28,45.19L119.29,45.20L119.40,45.29L119.43,45.30"/><path d="M120.26,44.39L120.51,44.57L120.51,44.91L120.44,45.06L120.39,45.17L120.37,45.19L120.33,45.30L120.23,45.31"/></g></g><g id="Actor_.51"><g style="stroke:#000000;stroke-width:0.176"><path d="M88.80,40.74L88.87,40.72L88.96,40.73L89.06,40.78L89.15,40.86L89.22,40.97L89.28,41.09L89.30,41.21L89.30,41.31L89.26,41.39L89.20,41.44"/><path d="M88.99,41.40L89.07,41.42L89.14,41.42L89.19,41.37L89.22,41.30L89.22,41.21L89.20,41.11L89.15,41.01L89.09,40.91L89.01,40.84L88.93,40.80L88.86,40.79L88.79,40.81L88.75,40.87L88.73,40.95"/></g><g style="stroke:#000000;stroke-width:0.529"><path d="M89.61,41.21L89.20,41.44L89.12,41.45L89.03,41.42L88.99,41.40L88.91,41.34L88.83,41.25L88.78,41.15L88.74,41.05L88.73,40.95L88.73,40.90L88.75,40.81L88.80,40.74L89.21,40.51"/></g></g><g id="Actor_.52"><g style="stroke:#000000;stroke-width:0.176"><path d="M91.33,41.85L91.33,142.42"/><path d="M98.04,33.72L97.99,33.81L97.90,33.88L95.04,35.52L94.91,35.57L94.76,35.60L94.61,35.60L94.46,35.57L94.33,35.52L91.48,33.88L91.38,33.80L91.33,33.72L91.33,33.63"/><path d="M91.33,33.72L91.33,33.80"/></g><g style="stroke:#000000;stroke-width:0.529"><path d="M98.04,34.57L98.04,33.63L97.99,33.54L97.90,33.47L95.04,31.83L94.91,31.78L94.76,31.75L94.61,31.75L94.46,31.78L94.33,31.83L91.48,33.47L91.38,33.54L91.33,33.63"/><path d="M97.24,144.78L95.04,146.04L94.91,146.09L94.76,146.12L94.61,146.12L94.46,146.09L94.33,146.04L92.13,144.78"/><path d="M98.04,142.42L98.04,41.69L98.04,42.09"/><path d="M98.04,42.22L98.04,41.69"/><path d="M98.04,40.06L98.04,40.77L98.04,40.00L98.04,40.06"/><path d="M98.04,40.00L98.04,38.47L98.04,38.89"/><path d="M98.04,38.47L98.04,35.56L98.04,36.67"/><path d="M98.04,35.56L98.04,35.49"/><path d="M98.04,34.44L98.04,33.72"/></g></g><g id="Actor_.53"><g style="stroke:#000000;stroke-width:0.176"><path d="M90.83,142.20L91.33,141.90"/></g><g style="stroke:#000000;stroke-width:0.529"><path d="M91.33,141.91L91.19,141.99L90.83,142.20L88.31,140.75L91.33,138.98"/></g></g><g id="Actor_.54"><g style="stroke:#000000;stroke-width:0.176"><path d="M107.17,144.20L94.69,151.36L82.20,144.20"/><path d="M94.69,151.36L94.69,151.98"/></g><g style="stroke:#000000;stroke-width:0.529"><path d="M105.99,143.52L107.17,144.20L107.17,144.82L94.69,151.98L82.20,144.82L82.20,144.20L83.32,143.56"/><path d="M91.33,138.96L83.85,143.26"/><path d="M98.04,138.96L105.67,143.34"/></g></g><g id="Actor_.55"><g style="stroke:#000000;stroke-width:0.176"><path d="M96.29,140.21L100.70,147.86"/></g><g style="stroke:#000000;stroke-width:0.529"><path d="M96.41,143.33L96.29,143.13L96.29,140.21L96.65,140.01L101.06,147.65L100.70,147.86L98.18,146.41L96.41,143.33"/></g></g><g id="Actor_.56"><g style="stroke:#000000;stroke-width:0.176"><path d="M97.86,33.64L97.81,33.72L97.72,33.80L97.52,33.91L95.04,35.33L94.91,35.38L94.76,35.41L94.61,35.41L94.46,35.38L94.33,35.33L91.65,33.80L91.56,33.72L91.51,33.64L91.51,33.72"/><path d="M91.51,33.55L91.51,33.64"/></g><g style="stroke:#000000;stroke-width:0.529"><path d="M97.86,33.72L97.86,33.63L97.86,33.72L97.81,33.81L97.72,33.88L95.04,35.41L94.91,35.47L94.76,35.49L94.61,35.49L94.46,35.47L94.33,35.41L91.65,33.88L91.56,33.81L91.51,33.72"/><path d="M97.86,33.63L97.86,33.55L97.81,33.46L97.72,33.39L95.04,31.85L94.91,31.80L94.76,31.77L94.61,31.77L94.46,31.80L94.33,31.85L91.65,33.39L91.56,33.46L91.51,33.55"/><path d="M97.86,33.64L97.86,33.55"/></g></g><g id="Actor_.57"><g style="stroke:#000000;stroke-width:0.176"><path d="M88.67,147.86L93.08,140.21"/></g><g style="stroke:#000000;stroke-width:0.529"><path d="M88.53,147.78L88.31,147.65L92.72,140.01L93.08,140.21L93.08,143.13L91.19,146.41L88.67,147.86L88.53,147.78"/></g></g><g id="Actor_.58"><g style="stroke:#000000;stroke-width:0.176"><path d="M98.54,142.20L98.04,141.90"/><path d="M101.06,140.75L101.06,140.75"/></g><g style="stroke:#000000;stroke-width:0.529"><path d="M98.04,138.98L101.06,140.75L98.54,142.20"/><path d="M98.04,141.91L98.18,141.99L98.54,142.19"/></g></g><g id="Actor_.59"><g style="stroke:#000000;stroke-width:0.176"><path d="M155.48,84.26L155.48,84.26"/></g><g style="stroke:#000000;stroke-width:0.529"><path d="M155.50,83.83L155.50,84.09L155.48,84.26L155.37,84.41L155.18,84.54L154.93,84.62L154.64,84.65L154.38,84.63"/></g></g><g id="Actor_.60"><g style="stroke:#000000;stroke-width:0.176"><path d="M153.44,82.29L153.46,82.30"/><path d="M153.34,82.24L153.58,82.34L153.65,82.12L153.67,82.01L153.72,81.90L153.77,81.80L153.84,81.71L153.96,81.52"/><path d="M153.58,82.34L153.73,82.42L153.81,82.47"/><path d="M153.91,82.39L153.86,82.42L153.79,82.43L153.73,82.42L153.68,82.38L153.65,82.31L153.64,82.22L153.65,82.12L153.65,81.87L153.84,81.71L153.91,81.64L153.99,81.60L154.06,81.59L154.11,81.60L154.16,81.64L154.19,81.71L154.20,81.76"/><path d="M153.65,81.87L153.41,81.76L153.37,82.00L153.37,82.00"/><path d="M153.41,81.76L153.57,81.59"/><path d="M153.57,81.59L153.66,81.48"/><path d="M153.37,82.00L153.35,82.15"/><path d="M153.40,81.81L153.37,81.90L153.34,82.03L153.35,82.08"/><path d="M153.44,81.73L153.50,81.63L153.54,81.58L153.59,81.53L153.59,81.53"/><path d="M154.12,82.13L154.13,82.12L154.13,82.11"/></g><g style="stroke:#000000;stroke-width:0.529"><path d="M153.35,82.08L153.35,82.15L153.35,82.15L153.34,82.24L153.44,82.29L153.44,82.29L153.46,82.30L153.57,82.36L153.81,82.47L153.91,82.39L153.93,82.37L154.00,82.31L154.07,82.22L154.12,82.13L154.13,82.12L154.13,82.11L154.17,82.01L154.20,81.90L154.20,81.80L154.20,81.76L154.20,81.65L154.11,81.60L153.96,81.52L153.72,81.41L153.66,81.48L153.59,81.53"/></g></g><g id="Actor_.61"><g style="stroke:#000000;stroke-width:0.176"><path d="M150.52,81.95L150.43,82.71L150.48,83.37L150.66,83.90L150.97,84.25"/><path d="M151.70,84.58L151.40,84.23L151.21,83.71L151.17,83.04L151.26,82.28"/><path d="M152.76,83.89L152.32,83.99L151.92,83.85L151.65,83.46L151.62,83.33L151.68,83.61L151.96,84.02L152.38,84.17L152.76,84.09"/><path d="M151.62,83.33L151.56,83.00L151.62,82.24L151.85,81.42L152.23,80.64L152.72,79.96L152.76,79.92"/><path d="M152.76,79.34L152.71,79.38L152.22,79.98L151.79,80.69L151.45,81.47L151.23,82.26L151.14,83.01L151.18,83.66L151.19,83.68L151.37,84.20L151.38,84.22L151.53,84.40"/><path d="M151.48,81.49L151.82,80.70L151.96,80.48L152.26,79.98L152.76,79.38"/><path d="M150.75,81.15L151.09,80.37L151.27,80.07L151.52,79.65L152.02,79.05"/><path d="M152.11,84.74L152.11,84.74"/><path d="M152.76,81.72L152.75,81.74L152.71,81.99L152.72,82.20L152.76,82.32"/><path d="M152.76,82.43L152.71,82.39L152.64,82.22L152.64,81.99L152.68,81.72L152.76,81.53"/><path d="M152.76,81.32L152.65,81.55L152.57,81.82L152.55,82.07L152.59,82.28L152.69,82.41L152.76,82.45"/><path d="M153.08,78.34L153.33,78.32"/></g><g style="stroke:#000000;stroke-width:0.529"><path d="M153.33,78.32L153.07,78.34L152.55,78.60L152.02,79.05L151.52,79.65L151.08,80.37L150.74,81.15L150.52,81.95L150.43,82.70L150.48,83.37L150.66,83.89L150.96,84.25L150.97,84.25L151.38,84.41L151.40,84.41L151.53,84.40"/><path d="M151.53,84.40L151.68,84.57L151.70,84.58L152.11,84.74L152.60,84.69L152.76,84.61"/></g></g><g id="Actor_.62"><g style="stroke:#000000;stroke-width:0.176"><path d="M151.57,78.19L151.97,78.37L151.97,79.11"/><path d="M151.97,84.98L151.97,84.69"/><path d="M151.97,78.37L153.22,77.46"/></g><g style="stroke:#000000;stroke-width:0.529"><path d="M152.34,84.72L151.97,84.98L151.57,84.80L151.57,84.45"/><path d="M152.83,77.28L151.57,78.19L151.57,79.58"/></g></g><g id="Actor_.63"><g style="stroke:#000000;stroke-width:0.176"><path d="M154.61,78.09L154.61,77.47L152.63,76.57"/><path d="M154.61,77.47L156.93,75.79"/><path d="M155.09,75.56L155.05,75.62L155.05,75.70L155.10,75.79L155.19,75.85L155.19,75.86L155.31,75.90L155.46,75.92L155.60,75.92L155.74,75.88L155.85,75.83L155.93,75.75L155.95,75.67L155.93,75.58L155.86,75.51L155.75,75.45L155.61,75.41L155.46,75.40L155.32,75.42L155.19,75.47L155.10,75.54L155.09,75.56"/></g><g style="stroke:#000000;stroke-width:0.529"><path d="M157.06,75.63L155.14,74.76L152.63,76.57L152.63,77.19L154.61,78.09L155.78,77.24"/></g></g><g><g><path style="stroke:#000000;stroke-width:0.125;stroke-dasharray:2.4 1.6 0.8 1.6" d="M119.83,63.64L119.83,69.22"/><path style="stroke:#000000;stroke-width:0.125;stroke-dasharray:2.4 1.6 0.8 1.6" d="M119.83,51.03L119.83,55.46"/></g></g><g><g><path style="stroke:#000000;stroke-width:0.125;stroke-dasharray:2.4 1.6 0.8 1.6" d="M155.50,84.10L155.50,89.68"/><path style="stroke:#000000;stroke-width:0.125;stroke-dasharray:2.4 1.6 0.8 1.6" d="M155.50,71.48L155.50,75.92"/></g></g><g id="PMI.0"><g><path style="stroke:#000000;stroke-width:0.125" d="M186.14,39.69L154.44,79.70"/></g><g><path style="fill:#000000" d="M155.19,79.70L155.19,79.63L155.18,79.56L155.16,79.49L155.13,79.42L155.10,79.35L155.06,79.29L155.02,79.23L154.97,79.17L154.92,79.12L154.86,79.08L154.79,79.04L154.73,79.01L154.66,78.99L154.59,78.97L154.51,78.96L154.44,78.95L154.37,78.96L154.29,78.97L154.22,78.99L154.15,79.01L154.09,79.04L154.02,79.08L153.97,79.12L153.91,79.17L153.86,79.23L153.82,79.29L153.78,79.35L153.75,79.42L153.72,79.49L153.71,79.56L153.69,79.63L153.69,79.70L153.69,79.78L153.71,79.85L153.72,79.92L153.75,79.99L153.78,80.06L153.82,80.12L153.86,80.18L153.91,80.23L153.97,80.28L154.02,80.33L154.09,80.36L154.15,80.40L154.22,80.42L154.29,80.44L154.37,80.45L154.44,80.45L154.51,80.45L154.59,80.44L154.66,80.42L154.73,80.40L154.79,80.36L154.86,80.33L154.92,80.28L154.97,80.23L155.02,80.18L155.06,80.12L155.10,80.06L155.13,79.99L155.16,79.92L155.18,79.85L155.19,79.78z"/></g><g><text xml:space="preserve" fill="#000000" stroke-width="0" x="179.52" y="38.91" font-size="3.80" opacity="1.00" font-family="Arial">BPA32577</text></g></g><g/><g><g/><g><text xml:space="preserve" fill="#000000" stroke-width="0" x="12.31" y="16.07" font-size="4.53" opacity="1.00" font-family="Arial" font-weight="bold">BPA32545</text></g></g><g id="paperID" visibility="hidden" opacity="0.00" transform="scale(0.000100)"><path style="stroke:#000000;stroke-width:0.500;fill:#e6e6e6;fill-rule:evenodd" d="M-2000.00,-2000.00L2297.00,-2000.00L2297.00,2210.00L-2000.00,2210.00zM0.00,0.00L297.00,0.00L297.00,210.00L0.00,210.00z"/><path style="fill:#000000;fill-opacity:0.118" d="M3.00,210.00L297.00,210.00L297.00,3.00L300.00,3.00L300.00,213.00L3.00,213.00z"/></g><g id="hotspot.0" onmouseover="ShowHotSpot(evt,'0')" onmouseout="HideHotSpot(evt,'0')" onmousemove="ShowToolTip(evt,'0',&quot;Hotspot 1&quot;)" opacity="0"><a xlink:href=".\BPA32577.svg"><path style="fill:#ff8000;fill-rule:evenodd" d="M157.05,75.69L157.05,76.35L155.83,77.17L155.63,83.66L155.35,84.40L154.14,84.81L153.31,85.42L153.00,85.45L152.81,84.61L152.33,84.82L151.73,84.88L151.55,84.42L150.77,83.99L150.55,83.61L150.55,81.82L151.40,79.83L151.58,79.61L151.78,77.99L152.79,77.31L152.72,76.51L154.95,74.85L155.42,74.85z"/></a></g><g id="hotspot.1" onmouseover="ShowHotSpot(evt,'1')" onmouseout="HideHotSpot(evt,'1')" onmousemove="ShowToolTip(evt,'1',&quot;Hotspot 1&quot;)" opacity="0"><a xlink:href=".\BPA32577.svg"><path style="fill:#ff8000;fill-rule:evenodd" d="M121.37,55.22L121.39,55.90L120.15,56.70L119.95,63.19L119.48,64.13L118.45,64.32L117.93,64.81L117.25,65.02L117.10,64.31L116.05,64.40L115.87,63.95L115.09,63.51L114.87,63.13L114.87,61.56L115.51,59.76L115.90,59.14L116.04,57.65L117.11,56.83L117.04,56.03L119.47,54.38L119.75,54.38z"/></a></g></g></svg>
