<?xml version="1.0" encoding="UTF-8" standalone="no"?>
<svg xmlns="http://www.w3.org/2000/svg" xmlns:xlink="http://www.w3.org/1999/xlink" width="297.000mm" height="210.000mm" viewBox="0.000000 0.000000 297.000000 210.000000" stroke-linejoin="round" stroke-linecap="round" fill="none" fill-rule="evenodd"><desc>Composer Export</desc><script type="text/ecmascript"><![CDATA[
if(typeof(top) != "undefined")
{
	top.ShowPaper = ShowPaper;
}
function ShowPaper()
{
  var svgDocument = getDocument();
  var paper = svgDocument.getElementById("paperID");
  if(paper)
  {
    paper.setAttribute("transform","scale(1)");
    paper.setAttribute("opacity","1");
    paper.setAttribute("visibility","visible");
  }
  var svg = svgDocument.getRootElement();
  if(svg)
  {
    svg.setAttribute("width","307.000mm");
    svg.setAttribute("height","220.000mm");
    svg.setAttribute("viewBox","-5.000000 -5.000000 307.000000 220.000000");
  }
}
]]></script><defs/><g><path style="fill:#000000;fill-opacity:0.098;fill-rule:evenodd" d="M149.88,37.09L149.72,37.34L149.10,37.53L149.11,36.55L149.55,36.37zM116.44,41.05L118.78,42.13L119.50,42.66L128.86,46.86L129.50,44.47L130.47,42.74L132.92,41.03L133.53,41.22L134.07,42.12L134.06,42.74L133.46,42.65L130.04,44.83L130.11,46.80L131.19,47.69L130.40,48.08L129.92,48.08L123.27,45.01L112.32,39.24L112.08,38.69L112.28,38.69zM157.60,41.59L156.89,42.03L156.88,40.92L157.42,40.86zM143.54,43.73L142.82,44.12L142.26,44.17L142.25,43.75L143.18,43.57L143.61,43.40zM189.12,45.08L189.61,46.44L189.61,47.41L189.43,47.94L187.47,49.76L186.50,50.41L185.46,50.41L184.40,49.84L184.23,50.47L183.43,50.96L183.08,50.95L183.30,50.21L183.26,48.79L184.70,47.86L185.11,47.86L185.30,48.96L185.65,49.14L186.74,49.91L187.09,48.66L187.09,47.52L186.91,46.51L188.88,45.40L189.07,45.00zM142.27,45.42L142.26,44.82L143.77,44.82L143.77,45.61L142.67,45.56zM143.97,47.38L143.36,47.89L142.61,47.94L142.60,47.53L143.71,47.31L143.97,47.17zM159.61,48.40L159.59,53.15L159.36,53.31L158.99,53.35L158.86,49.32L158.53,49.13L157.55,49.68L157.43,50.64L157.20,50.80L156.83,50.83L156.72,50.23L156.29,50.39L155.02,52.03L154.54,52.02L154.55,51.74L156.13,49.70L158.62,48.23L159.43,48.22zM145.21,49.75L144.83,49.33L144.84,48.29L145.21,47.51zM150.08,49.36L149.47,49.87L148.73,49.92L148.77,49.56L149.82,49.29L150.08,49.15zM178.03,51.67L182.18,49.30L182.59,49.30L182.61,50.30L178.41,52.74L178.11,54.06L177.52,54.55L176.96,54.54L177.20,54.24L177.65,52.70L178.11,52.42zM159.60,45.25L159.05,46.15L156.27,47.86L154.38,50.28L153.04,51.10L151.13,52.07L149.63,52.26L149.63,51.47L151.45,51.13L154.40,49.41L156.29,46.98L158.62,45.54L158.88,45.26L159.05,40.39L159.60,40.16zM146.49,52.06L146.06,52.57L145.11,52.60L145.12,52.40L146.48,51.84zM147.73,52.99L147.54,53.34L146.94,53.82L145.87,54.18L144.78,54.24L144.78,53.45L146.78,53.11L147.73,52.19zM146.66,56.14L147.00,56.33L146.23,56.70L144.78,56.76L144.79,55.96zM176.68,53.71L172.48,56.17L171.95,56.18L172.13,56.02L172.31,55.45L172.82,54.70L176.25,52.71L176.66,52.72zM123.93,53.46L121.78,54.72L121.48,55.68L120.84,56.15L120.52,56.17L120.75,54.41L123.76,52.52L123.99,52.54zM165.73,57.99L164.79,58.55L164.73,58.35L165.65,57.76zM131.73,57.66L131.57,57.86L129.35,59.21L129.21,60.18L128.42,60.67L128.06,60.65L128.32,60.18L128.48,59.09L129.01,58.71L129.31,58.12L131.31,57.03L131.72,57.04zM161.95,60.15L161.30,60.65L160.95,60.71L160.95,60.49L161.95,59.94zM166.79,60.90L166.43,61.28L166.08,61.39L164.38,62.27L163.18,62.88L162.94,61.74L166.80,59.57zM158.67,61.42L158.97,60.80L159.23,62.16L158.83,62.15zM164.04,63.90L166.80,62.28L166.79,62.66L163.56,64.51L163.13,64.68L163.17,63.87zM161.86,64.09L161.51,64.14L161.51,62.08L161.94,61.91zM161.40,64.57L161.33,64.79L160.96,64.85L161.01,64.47L161.24,64.41zM124.01,62.34L121.84,63.59L121.48,64.67L120.69,65.16L120.33,65.15L120.58,64.85L120.73,63.74L121.29,63.23L121.43,62.82L124.01,61.37zM131.74,66.01L131.74,66.65L130.64,67.36L129.36,68.24L129.20,69.15L128.98,69.29L128.24,69.52L128.43,68.02L129.19,67.46L129.28,67.10L131.57,65.85zM149.88,167.26L149.46,167.64L149.16,167.64L149.15,166.58L149.69,166.53zM116.10,171.01L117.88,171.75L119.33,172.63L128.86,177.02L129.38,174.86L130.22,173.19L131.31,172.30L132.72,171.37L132.92,171.19L133.34,171.19L133.55,171.36L134.07,172.28L134.06,172.90L133.46,172.81L130.05,174.99L130.10,176.97L131.03,177.69L131.01,177.91L130.79,178.06L129.55,178.05L123.45,175.17L112.50,169.40L111.89,168.68L112.10,168.67zM157.45,171.83L156.89,172.19L156.83,171.02L157.43,171.02zM143.35,174.09L142.24,174.13L142.24,173.93L143.61,173.56zM143.78,174.98L143.78,175.59L142.26,175.60L142.27,174.79zM189.13,175.25L189.61,176.61L189.61,177.57L189.36,178.22L187.02,180.18L186.32,180.58L185.65,180.58L184.40,180.00L184.21,180.62L183.61,180.94L183.25,180.99L183.32,178.82L184.96,177.85L185.13,178.01L185.24,179.00L186.74,179.90L187.09,178.82L187.09,177.69L186.91,176.67L188.82,175.51L189.07,175.17zM143.90,177.67L143.18,178.06L142.62,178.11L142.60,177.69L143.54,177.51L143.97,177.34zM159.60,178.57L159.60,183.15L159.44,183.36L158.99,183.52L158.88,179.46L158.70,179.27L157.61,179.72L157.44,180.63L157.28,180.84L156.84,181.00L156.70,180.36L156.37,180.43L154.92,182.22L154.49,181.99L156.29,179.66L159.00,178.21L159.23,178.21zM182.61,179.45L182.61,180.27L181.55,181.13L181.45,181.12L178.42,182.92L178.12,184.23L177.52,184.71L176.96,184.70L177.20,184.40L177.51,182.90L178.12,182.59L178.04,181.83L182.44,179.29zM144.83,178.28L145.21,177.68L145.21,179.91L144.83,179.49zM150.01,179.65L149.29,180.04L148.73,180.08L148.72,179.67L149.65,179.49L150.09,179.32zM159.60,175.42L158.80,176.42L156.34,177.91L154.12,180.55L151.27,182.19L149.63,182.24L149.63,181.64L151.81,181.11L154.38,179.55L156.27,177.12L158.71,175.61L158.88,175.42L159.05,170.56L159.60,170.32zM176.68,182.87L176.68,183.69L175.90,184.38L172.16,186.38L172.14,186.02L172.51,185.45L172.66,184.88L176.51,182.70zM146.49,182.22L145.88,182.73L145.12,182.77L145.12,182.56L146.48,182.01zM147.73,183.15L147.47,183.61L146.59,184.17L144.77,184.22L144.77,183.61L146.59,183.27L147.47,182.70L147.73,182.35zM121.41,183.99L123.76,182.69L123.99,182.70L124.01,183.52L121.79,184.89L121.47,186.01L121.25,186.15L120.51,186.38L120.73,184.92L121.46,184.32zM147.03,186.33L147.02,186.53L145.87,186.86L144.78,186.92L144.78,186.12zM131.73,187.18L131.74,187.82L129.36,189.41L129.20,190.32L128.77,190.62L128.24,190.70L128.42,189.19L129.01,188.88L129.31,188.28L131.57,187.02zM165.73,188.16L164.79,188.72L164.79,188.37L165.73,187.95zM161.98,190.19L161.02,190.88L161.02,190.53L161.96,190.11zM166.77,191.03L166.34,191.53L166.08,191.55L163.18,193.04L162.92,191.88L166.80,189.73zM158.67,191.59L158.97,190.96L159.17,192.26L158.82,192.31zM121.47,192.86L124.01,191.53L123.93,192.43L121.92,193.65L121.48,194.83L121.06,195.14L120.51,195.14L120.75,193.74L121.47,193.23zM163.85,194.06L166.80,192.44L166.73,192.77L163.18,194.84L163.18,194.04zM161.94,193.93L161.57,194.30L161.51,192.25L161.94,192.07zM161.40,194.73L161.33,194.96L160.96,195.01L161.01,194.64L161.24,194.57zM129.14,197.30L131.31,196.00L131.72,196.00L131.74,196.82L129.49,198.17L129.21,199.15L128.61,199.64L128.05,199.62L128.31,199.33L128.48,198.06L129.19,197.63z"/><g id="Actor_.0"><g style="stroke:#000000;stroke-width:0.176"><path d="M174.60,180.87L174.92,180.95L175.25,180.99L174.92,181.03L174.65,181.21L174.47,181.50L174.38,181.88L174.39,182.30"/><path d="M178.22,182.51L177.54,182.91L177.39,183.47L177.32,183.92L177.23,184.29L177.05,184.59L176.78,184.76L176.46,184.81L176.09,184.72L175.70,184.52L175.64,184.46"/><path d="M175.26,181.81L175.36,181.76L175.37,181.76"/><path d="M175.50,181.77L175.63,181.78L175.64,181.78"/><path d="M175.79,181.85L175.92,181.91L175.93,181.92"/><path d="M177.37,184.77L177.31,184.33L177.32,183.92L177.31,183.47L177.20,182.97L176.99,182.47L176.72,182.01L176.38,181.61L176.01,181.28L175.62,181.07L175.25,180.99L175.64,180.99L176.16,180.95L176.84,180.56"/><path d="M176.16,180.95L176.43,181.55L176.72,182.01L177.06,182.44L177.54,182.91"/><path d="M176.68,183.71L176.63,183.83L176.63,183.84"/><path d="M176.54,183.92L176.46,184.00L176.45,184.00"/><path d="M176.72,183.57L176.73,183.56L176.73,183.40"/></g><g style="stroke:#000000;stroke-width:0.529"><path d="M175.60,184.48L175.81,184.69L176.13,184.77L176.46,184.81L176.84,184.81L177.37,184.77L178.05,184.38L178.20,183.81L178.27,183.37L178.28,182.96L178.22,182.51L177.95,181.93L177.66,181.46L177.32,181.03L176.84,180.56L176.52,180.48L176.19,180.45L175.81,180.44L175.28,180.48L174.60,180.87L174.45,181.44L174.38,181.88L174.37,182.29L174.37,182.31"/><path d="M176.21,182.17L176.20,182.15L176.07,182.04"/><path d="M176.68,183.05L176.72,183.22L176.73,183.24"/><path d="M176.54,182.68L176.63,182.85L176.63,182.86"/><path d="M176.45,182.49L176.45,182.48L176.33,182.33"/></g></g><g id="Actor_.1"><g style="stroke:#000000;stroke-width:0.176"><path d="M174.60,50.75L174.92,50.83L175.25,50.87L174.92,50.91L174.65,51.09L174.47,51.38L174.38,51.76L174.39,52.18"/><path d="M178.22,52.39L177.54,52.78L177.39,53.35L177.32,53.79L177.23,54.17L177.05,54.46L176.78,54.64L176.46,54.68L176.09,54.60L175.70,54.39L175.64,54.34"/><path d="M176.16,50.83L176.43,51.42L176.72,51.88L176.38,51.48L176.01,51.16L175.62,50.95L175.25,50.87L175.64,50.87L176.16,50.83L176.84,50.44"/><path d="M175.26,51.69L175.36,51.64L175.37,51.64"/><path d="M175.50,51.65L175.63,51.65L175.64,51.66"/><path d="M175.93,51.80L175.92,51.79L175.78,51.73"/><path d="M177.37,54.65L177.31,54.20L177.32,53.79L177.31,53.34L177.20,52.85L176.99,52.34L176.72,51.88L177.06,52.31L177.54,52.78"/><path d="M176.68,53.58L176.63,53.71L176.63,53.71"/><path d="M176.54,53.80L176.46,53.87L176.45,53.87"/><path d="M176.72,53.45L176.73,53.44L176.73,53.28"/></g><g style="stroke:#000000;stroke-width:0.529"><path d="M175.60,54.36L175.81,54.57L176.13,54.65L176.46,54.68L176.84,54.69L177.37,54.65L178.05,54.26L178.20,53.69L178.27,53.25L178.28,52.84L178.22,52.39L177.95,51.80L177.66,51.34L177.32,50.91L176.84,50.44L176.52,50.36L176.19,50.32L175.81,50.32L175.28,50.36L174.60,50.75L174.45,51.31L174.38,51.76L174.37,52.17L174.37,52.19"/><path d="M176.21,52.05L176.20,52.03L176.07,51.92"/><path d="M176.68,52.93L176.72,53.10L176.72,53.11"/><path d="M176.54,52.55L176.63,52.72L176.63,52.74"/><path d="M176.33,52.21L176.45,52.35L176.45,52.37"/></g></g><g id="Actor_.2"><g style="stroke:#000000;stroke-width:0.176"><path d="M146.39,56.15L144.86,55.99L144.07,55.83L143.93,55.76"/><path d="M149.15,56.52L149.15,54.66L149.04,54.72L144.86,54.28L144.07,54.11L144.01,54.08"/><path d="M144.74,50.87L144.88,50.83L145.30,50.80L145.72,50.86L146.08,50.99L146.35,51.18L146.50,51.41L146.51,51.65L146.38,51.88L146.13,52.08L145.78,52.22L145.37,52.28L144.94,52.27L144.55,52.18L144.22,52.02L144.01,51.80L143.93,51.56L143.95,51.49"/><path d="M143.93,51.56L143.93,51.99"/><path d="M146.51,51.65L146.51,52.08"/><path d="M149.39,55.73L150.09,55.32L150.12,55.31L149.39,55.73L150.09,56.94L150.27,57.21L150.49,57.44L150.72,57.61L157.76,61.64"/><path d="M150.12,55.31L150.27,55.26L150.49,55.28L150.72,55.38L158.16,59.65"/><path d="M149.15,54.66L149.78,54.29L149.97,54.23L150.18,54.25L150.41,54.35L158.55,59.02"/><path d="M149.78,54.29L153.24,52.31"/><path d="M160.21,63.05L159.88,62.86"/><path d="M161.29,60.58L162.06,61.03L162.29,61.20L162.47,61.38L162.72,61.67L162.92,61.93L163.38,62.44L163.54,62.54L163.69,62.59L163.83,62.59L163.95,62.55L163.83,62.62L163.69,62.68L163.38,62.81L163.05,62.92L162.74,63.00L162.58,63.03L162.47,62.78L162.27,62.26L162.20,62.12L162.11,61.98L162.00,61.87L161.89,61.79L161.85,61.76"/><path d="M162.74,65.00L162.92,64.84L163.38,64.37L163.54,64.22L163.69,64.10L163.83,64.00L163.95,63.92L163.83,63.97L163.69,64.01L163.38,64.00L163.05,63.89L162.74,63.69L162.58,63.55L162.27,63.98L162.20,64.04L162.11,64.07L162.00,64.06L161.89,64.01L161.85,63.99"/><path d="M162.58,63.55L165.96,61.60"/><path d="M163.95,63.92L166.61,62.39L166.72,62.34L166.80,62.32L166.86,62.32L166.90,62.35"/><path d="M164.48,64.00L166.80,62.66"/><path d="M163.95,62.55L165.78,61.50"/><path d="M166.91,61.68L166.90,61.98L166.80,62.22L166.72,62.32L166.61,62.39"/><path d="M166.61,61.02L166.72,60.94L166.80,60.81L166.86,60.63L166.90,60.42"/></g><g style="stroke:#000000;stroke-width:0.529"><path d="M143.93,55.76L143.42,55.52L142.98,55.11L142.81,54.64L142.81,53.43"/><path d="M143.95,51.49L143.99,51.32L144.19,51.10L144.33,51.01L144.49,50.93L144.74,50.87"/><path d="M145.58,50.20L146.61,49.39"/><path d="M146.39,56.15L149.04,56.44L149.15,56.52L149.78,57.63L149.97,57.89L150.18,58.12L150.41,58.29L158.08,62.68"/><path d="M162.69,56.64L154.55,51.97L154.32,51.88L154.11,51.86L153.92,51.92L153.24,52.31L152.54,51.38"/><path d="M165.42,58.21L166.20,58.66L166.43,58.82L166.61,59.01L166.64,59.05L166.81,59.37L166.88,59.66L166.90,60.42L166.90,60.79L166.80,60.90L166.72,60.96L166.61,61.02L165.78,61.50L165.96,61.60L166.70,61.18L166.81,61.36L166.91,61.68L166.90,62.35L166.88,62.57L166.79,62.67L162.74,65.00L162.51,65.08L162.47,65.09L162.29,65.06L162.06,64.97L161.29,64.52"/></g></g><g id="Actor_.3"><g style="stroke:#000000;stroke-width:0.176"><path d="M140.15,43.10L140.19,43.59L140.50,44.03L141.05,44.40L141.78,44.64L142.61,44.73L143.44,44.73L144.08,44.78L144.67,44.93L145.18,45.15L147.08,46.24L147.56,46.62L147.79,47.08L147.76,47.55L147.66,47.69L147.56,47.48L147.08,47.09L145.18,46.01L144.67,45.78L144.08,45.64L143.44,45.59L142.61,45.58L141.78,45.50L141.05,45.26L140.67,45.00"/><path d="M143.67,43.10L143.67,43.53L143.55,43.76L143.30,43.96L142.95,44.10L142.54,44.17L142.12,44.16L141.72,44.07L141.39,43.92L141.17,43.71L141.09,43.47L141.09,43.04L141.14,42.80L141.33,42.58L141.47,42.48L141.63,42.40L141.98,42.30L142.01,42.30L142.44,42.27L142.85,42.32L143.22,42.44L143.49,42.63L143.65,42.86L143.67,43.10L143.55,43.33L143.30,43.53L142.95,43.68L142.54,43.75L142.12,43.74L141.72,43.65L141.39,43.49L141.17,43.28L141.09,43.04"/><path d="M146.75,48.62L145.25,47.76"/><path d="M146.61,49.70L146.62,49.69"/><path d="M146.61,49.40L146.61,48.84L146.62,49.34L146.91,49.80L147.80,50.69L148.28,51.03L148.91,51.27L149.64,51.39L150.41,51.38L151.13,51.24L151.75,50.98L154.23,49.56L156.18,47.05L158.40,45.78L158.58,45.64L158.74,45.45L158.87,45.22L158.96,44.98L158.99,44.76L158.99,41.16L158.95,40.87L158.85,40.58L158.68,40.29L158.48,40.05L158.25,39.88L149.09,34.62L148.86,34.53L148.65,34.54"/><path d="M146.61,48.84L146.90,48.38L147.46,47.99L147.66,47.69"/><path d="M147.08,50.82L147.80,51.54L148.28,51.88L148.91,52.13L149.64,52.25L150.41,52.24L151.13,52.10L151.75,51.84L154.23,50.42L156.18,47.91L157.52,47.14"/><path d="M147.94,49.77L147.71,49.62L147.56,49.39L147.54,49.14L147.54,48.71L147.56,48.96L147.71,49.19L147.94,49.34L147.99,49.37L148.35,49.50L148.77,49.55L149.20,49.52L149.58,49.41L149.88,49.24L150.07,49.02L150.12,48.78L150.12,49.20L150.07,49.45L149.88,49.67L149.74,49.76L149.58,49.84L149.20,49.95L148.77,49.98L148.35,49.93L147.99,49.80L147.94,49.77"/><path d="M150.12,48.78L150.03,48.54L149.81,48.33L149.49,48.17L149.09,48.08L148.67,48.07L148.26,48.14L147.91,48.28L147.66,48.48L147.54,48.71"/><path d="M150.62,37.99L150.61,38.13L150.51,38.35L150.32,38.47L150.09,38.49L149.83,38.39L149.56,38.18L149.33,37.90L149.14,37.57L149.04,37.22L149.01,36.90L149.08,36.64L149.23,36.46L149.44,36.39L149.69,36.44L149.75,36.48"/><path d="M154.40,51.91L156.18,49.62L158.54,48.26L158.91,48.12L159.24,48.13"/><path d="M155.15,51.80L156.18,50.48L156.71,50.17L156.70,50.21L156.72,50.54L156.83,50.88L157.01,51.21L157.25,51.50L157.51,51.70L157.77,51.80L158.01,51.79L158.19,51.66L158.30,51.44L158.31,51.30"/><path d="M156.71,50.17L158.40,49.20L158.58,49.13L158.74,49.14L158.87,49.21L158.96,49.35L158.99,49.55L158.99,53.14L158.95,53.39L158.85,53.57L158.68,53.66"/><path d="M158.31,42.39L158.30,42.54L158.19,42.76L158.01,42.88L157.77,42.90L157.51,42.79L157.25,42.59L157.01,42.31L156.83,41.98L156.72,41.63L156.70,41.31L156.77,41.05L156.91,40.87L157.12,40.80L157.38,40.85L157.44,40.88"/><path d="M157.41,49.77L157.44,49.79"/><path d="M159.42,53.24L159.42,53.24"/></g><g style="stroke:#000000;stroke-width:0.529"><path d="M155.15,51.80L158.25,53.58L158.48,53.67L158.68,53.66L159.42,53.24L159.59,53.14L159.69,52.96L159.73,52.72L159.73,48.95L159.67,48.56L159.50,48.28L157.52,47.14L158.54,46.55L158.91,46.27L159.24,45.89L159.50,45.44L159.67,44.96L159.73,44.50L159.73,40.74L159.69,40.45L159.59,40.15L159.42,39.87L159.22,39.63L158.99,39.46L149.82,34.20L149.60,34.11L149.39,34.11L148.49,34.63L148.38,34.81L148.35,35.06L148.35,38.65L148.32,38.88L148.23,39.12L148.10,39.35L147.94,39.54L147.76,39.68L145.54,40.95L141.60,41.98L140.90,42.25L140.40,42.64L140.15,43.10L140.15,43.96L140.19,44.44L140.50,44.89L140.67,45.00"/><path d="M146.61,49.39L145.25,48.62"/><path d="M147.08,50.82L146.91,50.66L146.62,50.19L146.61,49.40"/><path d="M150.19,37.63L150.06,37.48L149.88,37.15L149.78,36.80L149.75,36.55L149.75,36.48L149.96,36.59L150.21,36.84L150.42,37.15L150.57,37.49L150.63,37.83L150.62,37.99L150.56,37.96L150.30,37.76L150.19,37.63"/><path d="M155.15,51.80L154.87,52.16"/><path d="M158.10,51.16L157.99,51.07L157.75,50.79L157.57,50.46L157.46,50.11L157.44,49.87L157.44,49.79L157.64,49.90L157.90,50.15L158.11,50.46L158.25,50.81L158.32,51.14L158.31,51.30L158.25,51.27L158.10,51.16"/><path d="M157.69,41.77L157.75,41.89L157.99,42.17L158.25,42.37L158.31,42.39L158.32,42.24L158.25,41.90L158.11,41.56L157.90,41.25L157.64,41.00L157.44,40.88L157.44,40.96L157.46,41.21L157.57,41.55L157.69,41.77"/></g></g><g id="Actor_.4"><g style="stroke:#000000;stroke-width:0.176"><path d="M170.91,184.91L170.95,184.67L171.06,184.50L171.24,184.42L171.45,184.44L171.69,184.56L171.91,184.76L172.10,185.02L172.24,185.31L172.31,185.61L172.31,185.88L172.23,186.08L172.08,186.21L171.88,186.24L171.66,186.17"/><path d="M171.11,184.18L171.32,184.08L171.59,184.11L171.89,184.26L172.17,184.51L172.41,184.84L172.58,185.21L172.67,185.58L172.67,185.75L172.67,185.91L172.57,186.17L172.38,186.33"/><path d="M184.19,179.56L184.91,179.15L185.09,178.99L185.19,178.73L185.20,178.39L185.11,178.02L184.94,177.65L184.70,177.32L184.41,177.07L184.12,176.92L183.85,176.90L183.64,177.00L182.95,177.39"/></g><g style="stroke:#000000;stroke-width:0.529"><path d="M176.44,184.00L172.38,186.33L172.13,186.37L171.85,186.28L171.66,186.17L171.43,186.01L171.22,185.78L171.05,185.49L170.94,185.19L170.91,184.91L170.91,184.70L170.96,184.39L171.11,184.18L175.16,181.86"/><path d="M177.05,180.77L181.09,178.45"/><path d="M178.28,182.95L182.37,180.60"/><path d="M182.76,177.23L182.67,176.79L182.67,176.11L182.68,176.03L182.83,175.44L183.20,174.92L183.73,174.61L186.39,173.68L186.47,173.66L186.94,173.61L187.04,173.62L187.56,173.77L188.10,174.10L188.15,174.14L188.64,174.61L189.07,175.20L189.39,175.85L189.59,176.52L189.60,176.57L189.66,177.23L189.56,177.79L189.53,177.87L189.28,178.30L189.23,178.37L186.99,180.27L186.56,180.52L186.47,180.58L185.83,180.64L185.25,180.48L185.17,180.45L184.59,180.12L184.20,179.78"/></g></g><g id="Actor_.5"><g style="stroke:#000000;stroke-width:0.176"><path d="M126.07,66.64L126.31,66.66L126.56,66.65L126.84,66.67L127.15,66.80L127.46,67.03L127.74,67.32L128.03,67.65L128.44,68.00L128.35,68.47L128.33,68.85L128.29,68.48L128.17,68.07L127.98,67.68L127.74,67.32L127.49,66.97L127.25,66.53L126.85,66.61L126.56,66.65L126.32,66.72L126.13,66.90L126.01,67.16L125.97,67.49L126.01,67.87L126.12,68.27L126.32,68.66L126.56,69.02L126.84,69.32L127.15,69.54L127.46,69.67L127.74,69.70L127.98,69.62L128.17,69.44L128.29,69.18L128.33,68.85L128.35,69.20L128.44,69.58"/><path d="M127.25,66.53L128.04,66.08"/><path d="M127.87,66.10L127.31,66.15"/><path d="M128.11,66.17L129.22,67.55L128.44,68.00"/><path d="M129.35,68.11L129.30,67.77L129.12,67.27L128.83,66.80L128.47,66.42L128.31,66.31"/><path d="M129.22,68.80L129.22,67.55"/><path d="M130.95,65.07L131.19,65.23L131.41,65.47L131.59,65.77L131.71,66.08L131.75,66.38"/></g><g style="stroke:#000000;stroke-width:0.529"><path d="M126.45,68.87L126.31,68.67L126.07,68.22L125.99,67.84L125.97,67.49L125.99,67.11L126.07,66.64L126.85,66.19L127.31,66.15L127.38,66.11L127.71,66.05L127.87,66.10L128.04,66.08L128.11,66.17L128.31,66.31L130.51,65.04L130.71,65.00L130.95,65.07L131.09,65.15L131.29,65.29L131.47,65.48L131.62,65.72L131.71,65.98L131.75,66.23L131.75,66.38L131.71,66.64L131.59,66.82L129.35,68.11L129.37,68.26L129.30,68.66L129.22,68.80L129.22,69.13L128.44,69.58L128.03,69.66L127.74,69.70L127.49,69.71L127.25,69.69L126.85,69.34L126.56,69.02L126.45,68.87"/></g></g><g id="Actor_.6"><g style="stroke:#000000;stroke-width:0.176"><path d="M139.88,44.37L139.96,45.26"/><path d="M144.03,47.14L144.03,46.71L144.02,46.96L143.87,47.19L143.60,47.38L143.24,47.50L142.82,47.56L142.40,47.53L142.01,47.43L141.70,47.25L141.51,47.04L141.45,46.79L141.45,47.22"/><path d="M144.03,46.71L143.91,46.48L143.65,46.28L143.42,46.19L143.30,46.14L142.89,46.08L142.47,46.09L142.07,46.18L141.90,46.25L141.75,46.34L141.54,46.55L141.45,46.79"/><path d="M145.19,48.35L145.17,48.47L145.10,48.56"/><path d="M145.25,48.06L145.25,48.02"/></g><g style="stroke:#000000;stroke-width:0.529"><path d="M140.15,43.67L139.96,43.92L139.88,44.37L139.88,45.23"/><path d="M145.23,49.88L145.25,49.73L145.25,48.02L145.25,47.94"/><path d="M145.05,45.95L145.14,46.85"/></g></g><g id="Actor_.7"><g style="stroke:#000000;stroke-width:0.176"><path d="M180.31,177.82L180.56,177.74L180.84,177.64L180.58,177.81L180.39,178.11L180.31,178.50L180.32,178.90"/><path d="M183.51,181.02L183.33,180.51L183.24,180.04L183.13,179.56L182.92,179.05L182.63,178.58L182.29,178.18L181.96,177.80L181.62,177.31L181.17,177.50L180.84,177.64L181.16,177.59L181.54,177.67L181.92,177.87L182.29,178.18L182.69,178.53L183.23,178.91L183.20,179.54L183.24,180.04L183.25,180.49L183.17,180.88L182.99,181.18L182.73,181.36L182.40,181.41L182.03,181.33L181.64,181.12L181.57,181.06"/><path d="M181.10,178.45L181.11,178.44L181.21,178.40"/><path d="M181.59,178.39L181.61,178.39L181.74,178.46"/><path d="M181.62,177.31L182.31,176.92"/><path d="M181.32,178.36L181.33,178.35L181.46,178.37"/><path d="M182.65,180.20L182.65,180.21L182.60,180.33"/><path d="M182.54,180.45L182.54,180.47L182.45,180.53"/><path d="M182.66,180.03L182.66,179.88L182.66,179.87"/><path d="M181.89,178.54L181.90,178.55L181.91,178.56"/><path d="M183.23,178.91L183.91,178.52"/></g><g style="stroke:#000000;stroke-width:0.529"><path d="M181.56,181.07L181.67,181.16L182.20,181.54L182.45,181.46L182.73,181.36L183.06,181.22L183.51,181.02L184.20,180.63L184.22,180.00L184.18,179.50L184.09,179.03L183.91,178.52L183.58,178.03L183.24,177.64L182.84,177.29L182.31,176.92L182.05,177.00L181.78,177.10L181.45,177.23L180.99,177.43L180.31,177.82L180.29,178.45L180.32,178.90"/><path d="M182.62,179.68L182.58,179.51L182.57,179.50"/><path d="M182.40,179.12L182.41,179.14L182.49,179.31"/><path d="M182.29,178.96L182.18,178.81L182.16,178.79"/><path d="M182.03,178.66L181.91,178.56"/></g></g><g id="Actor_.8"><g style="stroke:#000000;stroke-width:0.176"><path d="M113.13,32.61L112.92,32.81L112.80,32.98L112.61,33.33L112.46,33.74L112.37,34.26L112.37,34.61"/><path d="M130.81,47.95L130.45,48.08L130.54,48.05"/><path d="M131.23,47.71L129.89,46.67L129.89,45.81L136.46,50.97L143.34,55.49L144.01,55.80"/><path d="M147.23,53.67L147.12,53.77L146.46,54.08L145.66,54.25L144.81,54.25L144.29,54.14L144.00,54.08L143.34,53.78L136.46,49.26L129.89,45.81L129.89,44.96L136.46,48.40L143.34,52.92L144.00,53.23L144.81,53.39L145.66,53.39L146.46,53.23L147.12,52.92L147.56,52.50L147.73,52.02"/><path d="M129.89,44.96L133.56,42.65L134.16,42.90"/><path d="M132.96,40.97L132.97,41.00L132.95,41.06L132.86,41.16L132.57,41.39L132.37,41.52L131.08,42.33L130.87,42.45L130.44,42.67L130.20,42.78L130.07,42.82L130.00,42.83"/><path d="M141.64,47.61L141.56,47.54L141.55,47.50"/><path d="M141.46,47.26L141.46,47.31L141.49,47.38"/><path d="M143.94,52.01L143.94,52.04L143.98,52.13"/><path d="M144.14,52.36L144.04,52.27L144.03,52.25"/><path d="M144.42,52.54L144.28,52.48L144.26,52.46"/><path d="M143.97,47.46L143.94,47.54L143.90,47.57"/><path d="M144.03,47.22L144.04,47.30L144.02,47.35"/><path d="M145.19,52.71L145.02,52.71L144.98,52.70"/><path d="M144.78,52.66L144.62,52.63L144.58,52.61"/><path d="M145.41,52.71L145.45,52.71L145.50,52.70"/><path d="M145.24,49.90L145.09,49.77L144.76,49.13L144.74,48.46L145.05,47.81L145.25,47.38"/><path d="M144.80,49.20L144.87,49.05"/><path d="M146.51,52.05L146.52,52.03L146.51,51.97"/><path d="M146.28,52.39L146.27,52.40"/><path d="M146.46,52.17L146.42,52.27L146.39,52.29"/></g><g style="stroke:#000000;stroke-width:0.529"><path d="M120.09,43.31L113.91,40.06L112.53,39.35L112.43,39.29L112.25,39.11L111.91,38.67L111.59,38.19L111.40,37.64L111.27,37.13L111.22,36.55L111.27,35.90L111.34,35.59L111.48,35.01L111.70,34.44L112.00,33.89L112.36,33.39L113.00,32.72L113.13,32.61L113.47,32.35L113.54,32.31L113.97,32.10L114.44,31.93L115.02,31.81L115.55,31.80L116.14,31.89L116.72,32.08L116.96,32.18L117.35,32.38L118.91,33.20L127.96,37.94L129.25,38.64L130.95,39.67L133.20,41.04L133.61,41.35L133.69,41.42L133.97,41.91L134.02,42.00L134.16,42.63L134.16,42.90L140.87,45.63L141.54,45.98L142.27,45.83L143.04,45.81L143.79,45.93L144.44,46.18L144.92,46.52L145.20,46.94L145.25,47.38L145.25,48.24L145.05,48.67L144.87,49.05"/><path d="M112.76,32.97L112.80,32.93"/><path d="M147.22,56.24L147.12,56.34L146.46,56.65L145.66,56.81L144.81,56.82L144.00,56.65L143.34,56.34L136.46,51.83L131.23,47.71L130.87,47.93L130.62,48.03L130.44,48.08L130.20,48.11L130.07,48.10L129.97,48.08L129.66,47.98L127.22,46.88L124.88,45.79L123.08,44.88L121.33,43.96"/><path d="M141.91,47.80L141.80,47.75L141.76,47.71"/><path d="M142.29,47.93L142.14,47.90L142.08,47.87"/><path d="M143.48,47.85L143.37,47.90L143.30,47.91"/><path d="M142.68,47.98L142.54,47.98L142.47,47.96"/><path d="M143.10,47.95L142.97,47.98L142.89,47.98"/><path d="M143.65,47.77L143.71,47.74L143.78,47.68"/><path d="M145.68,52.66L145.50,52.70"/><path d="M147.23,53.67L147.56,53.36L147.73,52.88L147.73,52.02L147.62,51.54L147.22,51.10L146.60,50.77L145.72,50.33L145.24,49.90L145.23,49.84"/><path d="M146.15,52.49L146.18,52.47L146.27,52.40"/><path d="M145.81,52.63L145.85,52.63L145.99,52.56"/></g></g><g id="Actor_.9"><g style="stroke:#000000;stroke-width:0.176"><path d="M162.21,56.91L164.69,58.34L164.69,58.63L162.39,57.31"/><path d="M164.69,58.34L165.85,57.68"/><path d="M164.69,58.63L165.42,58.21"/><path d="M165.47,58.24L165.85,58.02"/><path d="M166.04,61.35L166.04,61.56"/></g><g style="stroke:#000000;stroke-width:0.529"><path d="M166.15,58.63L165.85,58.02L165.85,57.68L163.36,56.25L162.21,56.91L162.21,57.21L162.39,57.31"/><path d="M166.47,61.11L166.47,61.32"/></g></g><g id="Actor_.10"><g style="stroke:#000000;stroke-width:0.176"><path d="M180.31,47.70L180.56,47.62L180.84,47.52L180.58,47.69L180.39,47.99L180.31,48.38L180.32,48.77"/><path d="M183.91,48.40L183.23,48.79L183.20,49.42L183.24,49.92L183.25,50.37L183.17,50.76L182.99,51.06L182.73,51.23L182.40,51.28L182.03,51.20L181.64,51.00L181.57,50.94"/><path d="M180.87,47.50L180.84,47.52L181.16,47.46L181.54,47.54L181.92,47.75L182.29,48.06L181.96,47.68L181.62,47.18L181.17,47.38L180.87,47.50"/><path d="M181.21,48.28L181.11,48.32L181.10,48.33"/><path d="M181.46,48.25L181.33,48.23L181.32,48.23"/><path d="M181.74,48.34L181.61,48.27L181.59,48.26"/><path d="M182.31,46.79L181.62,47.18"/><path d="M182.60,50.20L182.65,50.09L182.65,50.08"/><path d="M182.54,50.33L182.54,50.34L182.45,50.41"/><path d="M182.66,49.91L182.66,49.76L182.66,49.74"/><path d="M183.51,50.90L183.33,50.39L183.24,49.92L183.13,49.43L182.92,48.93L182.63,48.46L182.29,48.06L182.69,48.41L183.23,48.79"/><path d="M181.89,48.42L181.90,48.42L181.91,48.44"/></g><g style="stroke:#000000;stroke-width:0.529"><path d="M181.56,50.94L181.67,51.04L182.20,51.41L182.45,51.33L182.73,51.23L183.06,51.10L183.51,50.90L184.20,50.51L184.22,49.87L184.18,49.38L184.09,48.91L183.91,48.40L183.58,47.90L183.24,47.52L182.84,47.17L182.31,46.79L182.05,46.87L181.78,46.97L181.45,47.11L180.99,47.30L180.31,47.70L180.29,48.33L180.32,48.77"/><path d="M182.40,49.00L182.41,49.02L182.49,49.19"/><path d="M182.16,48.67L182.18,48.68L182.29,48.83"/><path d="M182.62,49.56L182.58,49.39L182.57,49.37"/><path d="M182.03,48.55L181.91,48.44"/></g></g><g id="Actor_.11"><g style="stroke:#000000;stroke-width:0.176"><path d="M171.66,56.05L171.88,56.12L172.08,56.09L172.23,55.96L172.31,55.75L172.31,55.49L172.24,55.19L172.10,54.90L171.91,54.63L171.69,54.43L171.45,54.32L171.24,54.30L171.06,54.38L170.95,54.55L170.91,54.78"/><path d="M172.38,56.21L172.57,56.05L172.67,55.79L172.67,55.62L172.67,55.46L172.58,55.08L172.41,54.71L172.17,54.38L171.89,54.13L171.59,53.99L171.32,53.96L171.11,54.06"/><path d="M184.19,49.44L184.91,49.02L185.09,48.87L185.19,48.61L185.20,48.27L185.11,47.90L184.94,47.53L184.70,47.20L184.61,47.12L184.41,46.95L184.12,46.80L183.85,46.77L183.64,46.87L182.95,47.26"/></g><g style="stroke:#000000;stroke-width:0.529"><path d="M176.44,53.88L172.38,56.21L172.13,56.25L171.85,56.16L171.66,56.05L171.43,55.89L171.22,55.65L171.05,55.37L170.94,55.07L170.91,54.78L170.91,54.57L170.96,54.27L171.11,54.06L175.16,51.73"/><path d="M181.09,48.33L177.05,50.65"/><path d="M182.37,50.48L178.28,52.83"/><path d="M182.76,47.11L182.67,46.67L182.67,45.99L182.68,45.90L182.84,45.32L183.20,44.80L183.73,44.49L186.39,43.55L186.47,43.54L186.94,43.48L187.04,43.50L187.56,43.65L188.10,43.98L188.15,44.01L188.64,44.49L189.07,45.07L189.39,45.73L189.59,46.40L189.60,46.45L189.63,46.84"/><path d="M189.48,47.84L189.28,48.18L189.23,48.24L186.99,50.15L186.56,50.40L186.47,50.45L185.83,50.51L185.25,50.36L185.17,50.33L184.59,49.99L184.20,49.65"/></g></g><g id="Actor_.12"><g style="stroke:#000000;stroke-width:0.176"><path d="M146.39,186.28L144.86,186.11L144.07,185.95L143.93,185.89"/><path d="M149.15,186.64L149.15,184.79L149.04,184.85L144.86,184.40L144.07,184.24L144.01,184.21"/><path d="M146.51,182.20L146.51,181.77L146.38,182.01L146.13,182.20L145.78,182.34L145.37,182.41L144.94,182.39L144.55,182.30L144.22,182.14L144.01,181.93L143.93,181.69L143.93,182.11"/><path d="M143.93,181.69L143.95,181.62"/><path d="M146.51,181.77L146.50,181.53L146.35,181.30L146.08,181.11L145.72,180.98L145.30,180.93L144.88,180.95L144.74,180.99"/><path d="M149.39,185.85L150.12,185.43L150.09,185.44L149.39,185.85L150.09,187.07L150.27,187.34L150.49,187.56L150.72,187.73L157.76,191.77"/><path d="M150.12,185.43L150.27,185.39L150.49,185.41L150.72,185.50L158.16,189.77"/><path d="M153.24,182.43L149.78,184.41L149.97,184.35L150.18,184.37L150.41,184.47L158.55,189.14"/><path d="M149.78,184.41L149.15,184.79"/><path d="M159.88,192.98L160.21,193.17"/><path d="M161.85,191.89L161.89,191.91L162.00,191.99L162.11,192.11L162.20,192.24L162.27,192.39L162.47,192.90L162.58,193.15L162.74,193.13L163.05,193.04L163.38,192.93L163.69,192.80L163.83,192.74L163.95,192.67L163.83,192.72L163.69,192.71L163.54,192.66L163.38,192.56L162.92,192.05L162.72,191.80L162.47,191.51L162.29,191.32L162.06,191.15L161.29,190.71"/><path d="M162.74,195.12L162.92,194.97L163.38,194.49L163.54,194.35L163.69,194.22L163.83,194.12L163.95,194.04L163.83,194.10L163.69,194.13L163.38,194.12L163.05,194.01L162.74,193.81L162.58,193.67L162.27,194.10L162.20,194.17L162.11,194.20L162.00,194.19L161.89,194.14L161.85,194.11"/><path d="M162.58,193.67L165.96,191.73"/><path d="M163.95,194.04L166.61,192.52L166.72,192.47L166.80,192.44L166.86,192.44L166.90,192.47"/><path d="M164.48,194.12L166.80,192.78"/><path d="M163.95,192.67L165.78,191.62"/><path d="M166.61,192.52L166.72,192.44L166.80,192.35L166.90,192.10L166.91,191.80"/><path d="M166.90,190.54L166.86,190.76L166.80,190.93L166.72,191.06L166.61,191.15"/></g><g style="stroke:#000000;stroke-width:0.529"><path d="M143.93,185.89L143.42,185.64L142.98,185.23L142.81,184.76L142.81,183.55"/><path d="M144.74,180.99L144.49,181.06L144.33,181.13L144.19,181.23L143.99,181.44L143.95,181.62"/><path d="M145.58,180.33L146.61,179.51"/><path d="M158.08,192.81L150.41,188.41L150.18,188.24L149.97,188.02L149.78,187.75L149.15,186.64L149.04,186.56L146.39,186.28"/><path d="M152.54,181.51L153.24,182.43L153.92,182.04L154.11,181.98L154.32,182.00L154.55,182.10L162.69,186.76"/><path d="M161.29,194.65L162.06,195.09L162.29,195.19L162.47,195.21L162.51,195.21L162.74,195.12L166.79,192.79L166.88,192.70L166.90,192.47L166.91,191.80L166.81,191.48L166.70,191.30L165.96,191.73L165.78,191.62L166.61,191.15L166.72,191.08L166.80,191.02L166.90,190.91L166.90,190.54L166.88,189.79L166.81,189.49L166.64,189.17L166.61,189.13L166.43,188.95L166.20,188.78L165.42,188.33"/></g></g><g id="Actor_.13"><g style="stroke:#000000;stroke-width:0.176"><path d="M139.88,174.49L139.96,175.38"/><path d="M141.45,177.35L141.45,176.92L141.51,177.16L141.70,177.38L142.01,177.55L142.40,177.65L142.82,177.68L143.24,177.63L143.60,177.50L143.87,177.31L144.02,177.08L144.03,176.84L144.03,177.26"/><path d="M141.45,176.92L141.54,176.68L141.75,176.47L141.90,176.38L142.07,176.30L142.47,176.21L142.89,176.20L143.30,176.27L143.44,176.32L143.65,176.41L143.91,176.60L144.03,176.84"/><path d="M145.19,178.48L145.17,178.59L145.10,178.69"/><path d="M145.25,178.19L145.25,178.14"/></g><g style="stroke:#000000;stroke-width:0.529"><path d="M140.15,173.79L139.96,174.05L139.88,174.49L139.88,175.35"/><path d="M145.25,178.06L145.25,178.14L145.25,179.85L145.23,180.01"/><path d="M145.05,176.07L145.14,176.97"/></g></g><g id="Actor_.14"><g style="stroke:#000000;stroke-width:0.176"><path d="M113.13,162.73L112.92,162.94L112.80,163.10L112.61,163.45L112.46,163.87L112.37,164.39L112.37,164.73"/><path d="M130.81,178.07L130.45,178.20L130.54,178.17"/><path d="M144.01,185.92L143.34,185.61L136.46,181.10L129.89,175.93L129.89,176.79L131.23,177.84"/><path d="M147.23,183.80L147.12,183.90L146.46,184.21L145.66,184.37L144.81,184.37L144.00,184.21L143.34,183.90L136.46,179.38L129.89,175.93L129.89,175.08L136.46,178.53L143.34,183.04L144.00,183.35L144.81,183.51L145.66,183.51L146.46,183.35L147.12,183.04L147.27,182.90L147.56,182.62L147.73,182.14"/><path d="M129.89,175.08L130.76,174.53L130.71,174.56"/><path d="M130.76,174.53L133.56,172.78L134.16,173.02"/><path d="M132.96,171.10L132.97,171.13L132.95,171.18L132.86,171.28L132.57,171.51L132.37,171.64L131.08,172.45L130.87,172.57L130.44,172.80L130.20,172.91L130.07,172.95L130.00,172.96"/><path d="M141.46,177.39L141.46,177.43L141.49,177.51"/><path d="M141.64,177.73L141.56,177.67L141.55,177.63"/><path d="M143.94,182.14L143.94,182.16L143.98,182.26"/><path d="M144.42,182.66L144.28,182.60L144.26,182.58"/><path d="M144.03,182.37L144.04,182.40L144.14,182.48"/><path d="M144.02,177.47L144.04,177.42L144.03,177.34"/><path d="M143.90,177.70L143.94,177.66L143.97,177.58"/><path d="M144.78,182.78L144.62,182.75L144.58,182.74"/><path d="M145.19,182.83L145.02,182.83L144.98,182.82"/><path d="M145.50,182.82L145.45,182.83L145.41,182.83"/><path d="M145.24,180.02L145.09,179.89L144.76,179.25L144.74,178.58L145.05,177.94L145.25,177.51"/><path d="M144.80,179.32L144.87,179.18"/><path d="M146.51,182.17L146.52,182.15L146.51,182.10"/><path d="M146.39,182.41L146.42,182.39L146.46,182.29"/><path d="M146.27,182.52L146.28,182.51"/></g><g style="stroke:#000000;stroke-width:0.529"><path d="M147.22,186.37L147.12,186.46L146.46,186.77L145.66,186.94L144.81,186.94L144.00,186.78L143.34,186.47L136.46,181.95L131.23,177.84L130.87,178.05L130.62,178.15L130.44,178.21L130.20,178.23L130.07,178.23L130.00,178.21L129.66,178.10L127.22,177.01L124.88,175.91L123.08,175.00L113.91,170.18L112.63,169.52L112.43,169.41L112.25,169.23L111.91,168.80L111.59,168.31L111.40,167.76L111.27,167.26L111.22,166.67L111.27,166.02L111.34,165.71L111.48,165.14L111.70,164.56L112.00,164.01L112.36,163.51L112.80,163.05"/><path d="M112.76,163.09L113.00,162.84L113.13,162.73L113.47,162.48L113.54,162.44L113.97,162.22L114.44,162.05L115.02,161.94L115.55,161.92L116.14,162.01L116.72,162.20L116.96,162.31L117.20,162.42L118.91,163.33L127.96,168.06L129.25,168.77L130.95,169.79L133.20,171.16L133.61,171.48L133.69,171.55L133.97,172.04L134.02,172.12L134.16,172.75L134.16,173.02L140.87,175.75L141.54,176.10L142.27,175.95L143.04,175.94L143.79,176.06L144.44,176.30L144.92,176.65L145.20,177.06L145.25,177.51L145.25,178.36L145.05,178.79L144.87,179.18"/><path d="M141.91,177.92L141.80,177.87L141.76,177.84"/><path d="M142.08,177.99L142.14,178.02L142.29,178.05"/><path d="M142.47,178.09L142.54,178.10L142.68,178.10"/><path d="M143.10,178.07L142.97,178.10L142.89,178.10"/><path d="M143.48,177.97L143.37,178.02L143.30,178.03"/><path d="M143.78,177.80L143.71,177.87L143.65,177.89"/><path d="M145.68,182.78L145.50,182.82"/><path d="M147.23,183.80L147.56,183.48L147.73,183.00L147.73,182.14L147.62,181.66L147.22,181.23L146.60,180.89L145.72,180.45L145.24,180.02L145.23,179.96"/><path d="M146.15,182.61L146.18,182.60L146.27,182.52"/><path d="M145.81,182.76L145.85,182.75L145.99,182.69"/></g></g><g id="Actor_.15"><g style="stroke:#000000;stroke-width:0.176"><path d="M140.67,175.12L141.05,175.38L141.78,175.62L142.61,175.70L143.44,175.71L144.08,175.76L144.67,175.91L145.18,176.13L147.08,177.22L147.56,177.60L147.66,177.81L147.76,177.67L147.79,177.20L147.56,176.75L147.08,176.36L145.18,175.28L144.67,175.05L144.08,174.91L143.44,174.85L142.61,174.85L141.78,174.76L141.05,174.52L140.50,174.16L140.19,173.71L140.15,173.22"/><path d="M141.16,173.36L141.09,173.16L141.09,173.59L141.17,173.83L141.39,174.04L141.72,174.20L142.12,174.29L142.54,174.30L142.95,174.23L143.30,174.08L143.55,173.89L143.67,173.65L143.67,173.22L143.55,173.46L143.30,173.66L142.95,173.80L142.54,173.87L142.12,173.86L141.72,173.77L141.39,173.61L141.17,173.40L141.16,173.36"/><path d="M141.09,173.16L141.14,172.92L141.33,172.70L141.47,172.61L141.63,172.53L142.01,172.42L142.44,172.39L142.85,172.44L143.22,172.56L143.42,172.70L143.49,172.75L143.65,172.98L143.67,173.22"/><path d="M145.25,177.88L146.75,178.74"/><path d="M146.61,179.82L146.62,179.82"/><path d="M146.61,179.52L146.61,178.97L146.62,179.46L146.91,179.93L147.80,180.81L148.28,181.15L148.91,181.39L149.64,181.52L150.41,181.51L151.13,181.37L151.75,181.11L154.23,179.68L156.18,177.17L158.40,175.90L158.58,175.76L158.74,175.57L158.87,175.35L158.96,175.11L158.99,174.88L158.99,171.28L158.95,171.00L158.85,170.70L158.68,170.42L158.48,170.18L158.25,170.00L149.09,164.75L148.86,164.66L148.65,164.66"/><path d="M146.61,178.97L146.90,178.50L147.46,178.12L147.66,177.81"/><path d="M147.08,180.95L147.80,181.67L148.28,182.01L148.91,182.25L149.64,182.37L150.41,182.36L151.13,182.22L151.75,181.96L154.23,180.54L156.18,178.03L157.52,177.26"/><path d="M147.56,179.52L147.71,179.74L147.99,179.92L148.35,180.05L148.77,180.10L149.20,180.07L149.58,179.96L149.74,179.88L149.88,179.79L150.07,179.57L150.12,179.33L150.12,178.90L150.07,179.14L149.88,179.36L149.58,179.53L149.20,179.64L148.77,179.67L148.35,179.62L147.99,179.50L147.71,179.31L147.56,179.08L147.54,178.84L147.54,179.27L147.56,179.51L147.56,179.52"/><path d="M147.54,178.84L147.66,178.60L147.91,178.40L148.26,178.26L148.67,178.19L149.09,178.20L149.49,178.29L149.81,178.45L150.03,178.66L150.12,178.90"/><path d="M149.75,166.60L149.69,166.56L149.44,166.52L149.23,166.59L149.08,166.76L149.01,167.03L149.04,167.35L149.14,167.69L149.33,168.02L149.56,168.31L149.82,168.51L150.09,168.61L150.32,168.60L150.51,168.47L150.61,168.25L150.62,168.11"/><path d="M154.40,182.03L156.18,179.74L158.54,178.39L158.91,178.24L159.24,178.25"/><path d="M158.31,181.42L158.30,181.56L158.19,181.78L158.01,181.91L157.77,181.92L157.51,181.82L157.25,181.62L157.01,181.34L156.83,181.00L156.72,180.66L156.70,180.34L156.71,180.29L156.18,180.60L155.15,181.92"/><path d="M158.68,183.79L158.85,183.69L158.95,183.51L158.99,183.27L158.99,179.67L158.96,179.48L158.87,179.33L158.74,179.26L158.58,179.26L158.40,179.33L156.71,180.29"/><path d="M158.31,172.52L158.30,172.66L158.19,172.88L158.01,173.01L157.77,173.02L157.51,172.92L157.25,172.72L157.01,172.43L156.83,172.10L156.72,171.76L156.70,171.43L156.77,171.17L156.91,171.00L157.12,170.93L157.38,170.97L157.44,171.01"/><path d="M157.41,179.89L157.44,179.91"/><path d="M159.42,183.36L159.42,183.36"/></g><g style="stroke:#000000;stroke-width:0.529"><path d="M155.15,181.92L158.25,183.70L158.48,183.79L158.68,183.79L159.42,183.36L159.59,183.27L159.69,183.09L159.73,182.84L159.73,179.08L159.67,178.69L159.50,178.40L157.52,177.26L158.54,176.67L158.91,176.40L159.24,176.01L159.50,175.56L159.67,175.08L159.73,174.63L159.73,170.86L159.69,170.57L159.59,170.27L159.42,169.99L159.22,169.75L158.99,169.58L149.82,164.32L149.60,164.23L149.39,164.24L148.49,164.76L148.38,164.94L148.35,165.18L148.35,168.77L148.32,169.00L148.23,169.24L148.10,169.47L147.94,169.66L147.76,169.80L145.54,171.07L141.60,172.10L140.90,172.37L140.40,172.76L140.15,173.22L140.15,174.08L140.19,174.56L140.50,175.01L140.67,175.12"/><path d="M146.61,179.52L145.25,178.74"/><path d="M147.08,180.95L146.91,180.78L146.62,180.32L146.61,179.52"/><path d="M150.19,167.76L150.06,167.60L149.88,167.27L149.78,166.92L149.75,166.68L149.75,166.60L149.96,166.72L150.21,166.96L150.42,167.27L150.57,167.62L150.63,167.95L150.62,168.11L150.56,168.09L150.30,167.88L150.19,167.76"/><path d="M154.87,182.28L155.15,181.92"/><path d="M157.99,181.19L157.75,180.91L157.57,180.58L157.46,180.23L157.44,179.99L157.44,179.91L157.64,180.03L157.90,180.27L158.11,180.58L158.25,180.93L158.32,181.27L158.31,181.42L158.25,181.40L157.99,181.19"/><path d="M157.57,171.68L157.75,172.01L157.99,172.29L158.25,172.49L158.31,172.52L158.32,172.36L158.25,172.02L158.11,171.68L157.90,171.37L157.64,171.12L157.44,171.01L157.44,171.09L157.46,171.33L157.57,171.68"/></g></g><g id="Actor_.16"><g style="stroke:#000000;stroke-width:0.176"><path d="M160.48,193.22L160.34,193.38L160.09,193.47L159.78,193.41L159.46,193.23L159.46,193.23L159.16,192.93L158.90,192.56L158.73,192.15L158.65,191.74L158.68,191.39L158.80,191.12L159.02,190.97L159.19,190.96"/><path d="M162.02,190.00L160.86,190.66L158.38,189.24"/><path d="M161.29,194.65L161.29,194.59L160.86,194.83L160.86,195.18"/><path d="M160.86,194.83L161.48,194.30L161.91,194.06"/><path d="M161.48,194.30L161.48,192.25L160.86,191.00L160.86,190.66"/><path d="M161.29,194.59L161.83,194.12"/><path d="M161.48,192.25L161.91,192.01"/><path d="M160.86,191.00L161.29,190.76"/></g><g style="stroke:#000000;stroke-width:0.529"><path d="M161.83,194.12L161.91,194.06L161.91,192.01L161.29,190.76L161.29,190.71L162.02,190.29L162.02,190.00L159.53,188.57L158.38,189.24L158.38,189.58L157.76,190.11L157.76,192.17L158.38,193.41L158.38,193.76L160.86,195.18L161.54,194.79"/><path d="M159.16,191.94L159.15,191.91L159.07,191.50L159.10,191.15L159.19,190.96L159.30,190.96L159.62,191.08L159.94,191.32L160.22,191.66L160.44,192.06L160.57,192.47L160.59,192.86L160.51,193.17L160.48,193.22L160.20,193.17L159.88,192.99L159.58,192.69L159.33,192.32L159.16,191.94"/></g></g><g id="Actor_.17"><g style="stroke:#000000;stroke-width:0.176"><path d="M160.48,63.10L160.34,63.26L160.09,63.34L159.78,63.29L159.46,63.11L159.16,62.81L158.90,62.44L158.73,62.03L158.65,61.62L158.68,61.26L158.80,61.00L159.02,60.85L159.19,60.84"/><path d="M162.02,59.88L160.86,60.54L158.38,59.11"/><path d="M160.86,65.06L160.86,64.71L161.29,64.47L161.29,64.52"/><path d="M161.29,64.47L161.83,64.00"/><path d="M160.86,64.71L161.48,64.18L161.91,63.94"/><path d="M161.48,64.18L161.48,62.13L161.91,61.88"/><path d="M160.86,60.54L160.86,60.88L161.48,62.13"/><path d="M160.86,60.88L161.29,60.64"/></g><g style="stroke:#000000;stroke-width:0.529"><path d="M161.54,64.67L160.86,65.06L158.38,63.63L158.38,63.29L157.76,62.04L157.76,59.99L158.38,59.46L158.38,59.11L159.53,58.45L162.02,59.88L162.02,60.17L161.29,60.58L161.29,60.64L161.91,61.88L161.91,63.94L161.83,64.00"/><path d="M159.15,61.78L159.07,61.38L159.10,61.02L159.19,60.84L159.30,60.83L159.62,60.95L159.94,61.20L160.22,61.54L160.44,61.93L160.57,62.35L160.59,62.74L160.51,63.05L160.48,63.10L160.20,63.05L159.88,62.86L159.58,62.57L159.33,62.20L159.15,61.78"/></g></g><g id="Actor_.18"><g style="stroke:#000000;stroke-width:0.176"><path d="M162.39,187.43L164.69,188.75L164.69,188.46L162.21,187.04"/><path d="M164.69,188.75L165.42,188.33"/><path d="M165.85,187.80L164.69,188.46"/><path d="M165.85,188.15L165.47,188.36"/><path d="M166.04,191.47L166.04,191.68"/></g><g style="stroke:#000000;stroke-width:0.529"><path d="M166.15,188.75L165.85,188.15L165.85,187.80L163.36,186.38L162.21,187.04L162.21,187.33L162.39,187.43"/><path d="M166.47,191.23L166.47,191.44"/></g></g><g id="Actor_.19"><g style="stroke:#000000;stroke-width:0.176"><path d="M118.39,183.45L118.63,183.47L118.87,183.46L119.15,183.48L119.46,183.61L119.77,183.84L120.05,184.14L120.35,184.46L120.75,184.81L120.67,185.28L120.65,185.66L120.61,185.29L120.49,184.89L120.30,184.49L120.05,184.14L119.81,183.79L119.57,183.34L119.17,183.42L118.87,183.46L118.63,183.53L118.44,183.71L118.32,183.97L118.28,184.30L118.32,184.68L118.44,185.08L118.63,185.48L118.87,185.83L119.15,186.13L119.46,186.35L119.77,186.48L120.05,186.51L120.30,186.43L120.49,186.25L120.61,185.99L120.65,185.66L120.67,186.01L120.75,186.39"/><path d="M119.57,183.34L120.35,182.89"/><path d="M119.63,182.96L120.19,182.91"/><path d="M120.75,184.81L121.53,184.36L121.53,185.61"/><path d="M120.42,182.98L121.53,184.36"/><path d="M121.66,184.92L121.62,184.59L121.43,184.08L121.14,183.61L120.79,183.23L120.63,183.12"/><path d="M124.06,183.19L124.02,182.89L123.91,182.58L123.73,182.28L123.50,182.04L123.26,181.88"/></g><g style="stroke:#000000;stroke-width:0.529"><path d="M118.45,185.16L118.39,185.03L118.30,184.65L118.28,184.30L118.31,183.92L118.39,183.45L119.17,183.01L119.63,182.96L119.70,182.92L120.02,182.86L120.19,182.91L120.35,182.89L120.42,182.98L120.63,183.12L122.82,181.85L123.03,181.81L123.26,181.88L123.40,181.96L123.60,182.10L123.79,182.30L123.93,182.54L124.03,182.79L124.06,183.04L124.06,183.19L124.02,183.45L123.91,183.63L121.66,184.92L121.68,185.07L121.62,185.48L121.53,185.61L121.53,185.94L120.75,186.39L120.35,186.47L120.05,186.51L119.81,186.52L119.57,186.50L119.17,186.15L118.87,185.83L118.62,185.48L118.45,185.16"/></g></g><g id="Actor_.20"><g style="stroke:#000000;stroke-width:0.176"><path d="M118.32,53.44L118.54,53.40L118.77,53.35L119.04,53.34L119.34,53.43L119.66,53.62L119.95,53.89L120.26,54.19L120.68,54.51L120.63,55.00L120.64,55.40L120.57,55.01L120.42,54.61L120.21,54.22L119.95,53.89L119.69,53.56L119.43,53.15L119.05,53.27L118.77,53.35L118.55,53.47L118.39,53.68L118.30,53.97L118.29,54.32L118.36,54.71L118.50,55.11L118.72,55.50L118.98,55.83L119.27,56.10L119.58,56.29L119.89,56.38L120.16,56.37L120.38,56.25L120.54,56.04L120.63,55.74L120.64,55.40L120.69,55.76L120.81,56.16"/><path d="M119.43,53.15L120.21,52.70"/><path d="M119.60,52.86L120.00,52.75"/><path d="M120.68,54.51L121.46,54.06L121.57,55.41"/><path d="M121.46,54.06L120.32,52.82"/><path d="M121.67,54.79L121.57,54.31L121.35,53.81L121.04,53.36L120.67,53.01L120.63,52.99"/><path d="M123.43,51.86L123.66,52.08L123.86,52.36L123.99,52.67L124.06,52.98"/></g><g style="stroke:#000000;stroke-width:0.529"><path d="M118.28,54.19L118.29,54.32L118.34,54.69L118.46,55.09L118.72,55.51L118.98,55.83L119.29,56.13L119.71,56.45L119.92,56.42L120.16,56.37L120.43,56.29L120.81,56.16L121.60,55.71L121.57,55.41L121.65,55.24L121.67,54.80L121.67,54.79L123.79,53.58L123.95,53.46L124.04,53.25L124.06,52.98L124.06,52.85L124.01,52.59L123.89,52.34L123.73,52.11L123.54,51.93L123.43,51.86L123.19,51.73L122.96,51.69L122.77,51.76L120.63,52.99L120.32,52.82L120.21,52.70L120.00,52.75L119.92,52.74L119.61,52.85L119.60,52.86L119.10,52.99L118.32,53.44L118.28,53.92L118.28,54.19"/></g></g><g id="Actor_.21"><g style="stroke:#000000;stroke-width:0.176"><path d="M126.07,57.74L126.31,57.75L126.56,57.74L126.84,57.77L127.15,57.90L127.46,58.12L127.74,58.42L128.03,58.74L128.44,59.09L128.35,59.57L128.33,59.95L128.29,59.57L128.17,59.17L127.98,58.77L127.74,58.42L127.49,58.07L127.25,57.63L126.85,57.70L126.56,57.74L126.32,57.82L126.13,57.99L126.01,58.26L125.97,58.59L126.01,58.96L126.12,59.37L126.32,59.76L126.56,60.11L126.84,60.41L127.15,60.64L127.46,60.77L127.74,60.79L127.98,60.72L128.17,60.54L128.29,60.27L128.33,59.95L128.35,60.29L128.44,60.68"/><path d="M127.25,57.63L128.04,57.18"/><path d="M127.87,57.19L127.31,57.25"/><path d="M128.44,59.09L129.22,58.65L128.11,57.27"/><path d="M129.35,59.21L129.30,58.87L129.12,58.37L128.83,57.90L128.47,57.51L128.31,57.40"/><path d="M129.22,59.89L129.22,58.65"/><path d="M131.75,57.48L131.71,57.18L131.59,56.86L131.41,56.57L131.19,56.33L130.95,56.17"/></g><g style="stroke:#000000;stroke-width:0.529"><path d="M126.48,60.00L126.31,59.76L126.07,59.32L125.99,58.94L125.97,58.59L125.99,58.21L126.07,57.74L126.85,57.29L127.31,57.25L127.38,57.21L127.71,57.15L127.87,57.19L128.04,57.18L128.11,57.27L128.31,57.40L130.51,56.14L130.71,56.10L130.95,56.17L131.09,56.25L131.29,56.38L131.47,56.58L131.62,56.82L131.71,57.08L131.75,57.33L131.75,57.48L131.71,57.73L131.59,57.91L129.35,59.21L129.37,59.35L129.30,59.76L129.22,59.89L129.22,60.23L128.44,60.68L128.03,60.75L127.74,60.79L127.49,60.81L127.25,60.79L126.85,60.44L126.56,60.11L126.48,60.00"/></g></g><g id="Actor_.22"><g style="stroke:#000000;stroke-width:0.176"><path d="M120.75,65.17L120.67,64.79L120.65,64.44L120.61,64.07L120.49,63.67L120.30,63.27L120.05,62.92L119.81,62.57L119.57,62.12L119.17,62.20L118.87,62.24L118.63,62.31L118.44,62.49L118.32,62.75L118.28,63.08L118.32,63.46L118.44,63.86L118.53,64.04"/><path d="M118.39,62.23L118.63,62.25L118.87,62.24L119.15,62.26L119.46,62.39L119.77,62.62L120.05,62.92L120.35,63.24L120.75,63.59L121.53,63.14L121.53,64.39"/><path d="M119.07,64.82L119.15,64.91L119.46,65.13L119.77,65.26L120.05,65.29L120.30,65.21L120.49,65.03L120.61,64.77L120.65,64.44L120.67,64.07L120.75,63.59"/><path d="M119.57,62.12L120.35,61.67"/><path d="M119.63,61.74L120.19,61.69"/><path d="M121.53,63.14L120.42,61.76"/><path d="M120.63,61.90L120.79,62.01L121.14,62.39L121.43,62.86L121.62,63.37L121.66,63.70"/><path d="M123.26,60.66L123.50,60.82L123.73,61.06L123.91,61.36L124.02,61.67L124.06,61.97"/></g><g style="stroke:#000000;stroke-width:0.529"><path d="M118.51,64.05L118.39,63.81L118.30,63.43L118.28,63.08L118.31,62.70L118.39,62.23L119.17,61.79L119.63,61.74L119.70,61.70L120.02,61.64L120.19,61.69L120.35,61.67L120.42,61.76L120.63,61.90L122.82,60.63L123.03,60.60L123.26,60.66L123.40,60.74L123.60,60.88L123.79,61.08L123.93,61.32L124.03,61.58L124.06,61.82L124.06,61.97L124.02,62.23L123.91,62.41L121.66,63.70L121.68,63.85L121.62,64.26L121.53,64.39L121.53,64.72L120.75,65.17L120.35,65.25L120.05,65.29L119.81,65.30L119.57,65.28L119.17,64.93L119.07,64.83"/></g></g><g id="Actor_.23"><g style="stroke:#000000;stroke-width:0.176"><path d="M126.07,187.86L126.31,187.88L126.56,187.87L126.84,187.89L127.15,188.02L127.46,188.25L127.74,188.54L128.03,188.87L128.44,189.22L128.35,189.69L128.33,190.07L128.29,189.70L128.17,189.29L127.98,188.90L127.74,188.54L127.49,188.19L127.25,187.75L126.85,187.83L126.56,187.87L126.32,187.94L126.13,188.12L126.01,188.38L125.97,188.71L126.01,189.09L126.12,189.49L126.32,189.88L126.56,190.24L126.84,190.54L127.15,190.76L127.46,190.89L127.74,190.92L127.98,190.84L128.17,190.66L128.29,190.40L128.33,190.07L128.35,190.42L128.44,190.80"/><path d="M127.25,187.75L128.04,187.30"/><path d="M127.87,187.32L127.31,187.37"/><path d="M128.44,189.22L129.22,188.77L128.11,187.39"/><path d="M129.35,189.33L129.30,188.99L129.12,188.49L128.83,188.02L128.47,187.64L128.31,187.53"/><path d="M129.22,190.01L129.22,188.77"/><path d="M131.75,187.60L131.71,187.30L131.59,186.99L131.41,186.69L131.19,186.45L130.95,186.29"/></g><g style="stroke:#000000;stroke-width:0.529"><path d="M126.31,189.89L126.07,189.44L125.99,189.06L125.97,188.71L125.99,188.33L126.07,187.86L126.85,187.41L127.31,187.37L127.38,187.33L127.71,187.27L127.87,187.32L128.04,187.30L128.11,187.39L128.31,187.53L130.51,186.26L130.71,186.22L130.95,186.29L131.09,186.37L131.29,186.51L131.47,186.70L131.62,186.94L131.71,187.20L131.75,187.45L131.75,187.60L131.71,187.86L131.59,188.04L129.35,189.33L129.37,189.48L129.30,189.88L129.22,190.01L129.22,190.35L128.44,190.80L128.03,190.88L127.74,190.92L127.49,190.93L127.25,190.91L126.85,190.56L126.56,190.24L126.31,189.89"/></g></g><g id="Actor_.24"><g style="stroke:#000000;stroke-width:0.176"><path d="M118.39,192.36L118.63,192.37L118.87,192.36L119.15,192.39L119.46,192.52L119.77,192.74L120.05,193.04L120.35,193.36L120.75,193.71L120.67,194.19L120.65,194.56L120.61,194.89L120.49,195.16L120.30,195.34L120.05,195.41L119.77,195.39L119.46,195.26L119.15,195.03L118.87,194.73L118.63,194.38L118.44,193.98L118.32,193.58L118.28,193.21L118.32,192.87L118.44,192.61L118.63,192.44L118.87,192.36L119.17,192.32L119.57,192.24L119.81,192.69L120.05,193.04L120.30,193.39L120.49,193.79L120.61,194.19L120.65,194.56L120.67,194.91L120.75,195.29"/><path d="M119.57,192.24L120.35,191.80"/><path d="M120.19,191.81L119.63,191.86"/><path d="M120.75,193.71L121.53,193.26L120.42,191.89"/><path d="M121.66,193.83L121.62,193.49L121.43,192.99L121.14,192.52L120.79,192.13L120.63,192.02"/><path d="M121.53,193.26L121.53,194.51"/><path d="M124.06,192.10L124.02,191.80L123.91,191.48L123.73,191.19L123.50,190.95L123.26,190.78"/></g><g style="stroke:#000000;stroke-width:0.529"><path d="M118.52,194.19L118.39,193.94L118.30,193.56L118.28,193.21L118.31,192.82L118.39,192.36L119.17,191.91L119.63,191.86L119.70,191.83L120.02,191.77L120.19,191.81L120.35,191.80L120.42,191.89L120.63,192.02L122.82,190.76L123.03,190.72L123.26,190.78L123.40,190.87L123.60,191.00L123.79,191.20L123.93,191.44L124.03,191.70L124.06,191.95L124.06,192.10L124.02,192.35L123.91,192.53L121.66,193.83L121.68,193.97L121.62,194.38L121.53,194.51L121.53,194.85L120.75,195.29L120.35,195.37L120.05,195.41L119.81,195.42L119.57,195.41L119.17,195.06L118.87,194.73L118.62,194.38L118.52,194.19"/></g></g><g id="Actor_.25"><g style="stroke:#000000;stroke-width:0.176"><path d="M126.07,196.76L126.31,196.78L126.56,196.77L126.84,196.79L127.15,196.92L127.46,197.15L127.74,197.45L128.03,197.77L128.44,198.12L128.35,198.60L128.33,198.97L128.29,199.30L128.17,199.57L127.98,199.74L127.74,199.82L127.46,199.79L127.15,199.66L126.84,199.44L126.56,199.14L126.32,198.79L126.12,198.39L126.01,197.99L125.97,197.62L126.01,197.28L126.13,197.02L126.32,196.84L126.56,196.77L126.85,196.73L127.25,196.65L127.49,197.10L127.74,197.45L127.98,197.80L128.17,198.20L128.29,198.60L128.33,198.97L128.35,199.32L128.44,199.70"/><path d="M127.25,196.65L128.04,196.20"/><path d="M127.87,196.22L127.31,196.27"/><path d="M128.44,198.12L129.22,197.67L129.22,198.92"/><path d="M128.11,196.30L129.22,197.67"/><path d="M129.35,198.24L129.30,197.90L129.12,197.39L128.83,196.92L128.47,196.54L128.31,196.43"/><path d="M130.95,195.19L131.19,195.35L131.41,195.60L131.59,195.89L131.71,196.20L131.75,196.50"/></g><g style="stroke:#000000;stroke-width:0.529"><path d="M126.27,198.71L126.31,198.79L126.56,199.14L126.85,199.46L127.25,199.81L127.49,199.83L127.74,199.82L128.03,199.78L128.44,199.70L129.22,199.25L129.22,198.92L129.30,198.79L129.37,198.38L129.35,198.24L131.59,196.94L131.71,196.76L131.75,196.50L131.75,196.35L131.71,196.11L131.62,195.85L131.47,195.61L131.29,195.41L131.09,195.27L130.95,195.19L130.71,195.13L130.51,195.16L128.31,196.43L128.11,196.30L128.04,196.20L127.87,196.22L127.71,196.17L127.38,196.23L127.31,196.27L126.85,196.32L126.07,196.76L125.99,197.23L125.97,197.62L125.99,197.96L126.07,198.35L126.27,198.71"/></g></g><g><g><path style="stroke:#000000;stroke-width:0.125;stroke-dasharray:2.2 1.4 0.7 1.4" d="M126.35,189.94L123.88,191.35"/><path style="stroke:#000000;stroke-width:0.125;stroke-dasharray:2.2 1.4 0.7 1.4" d="M138.24,183.12L131.60,186.92"/><path style="stroke:#000000;stroke-width:0.125;stroke-dasharray:2.2 1.4 0.7 1.4" d="M145.25,179.09L145.56,178.92"/></g></g><g><g><path style="stroke:#000000;stroke-width:0.125;stroke-dasharray:2.2 1.4 0.7 1.4" d="M150.40,167.24L123.88,182.45"/></g></g><g><g><path style="stroke:#000000;stroke-width:0.125;stroke-dasharray:2.2 1.4 0.7 1.4" d="M147.83,186.43L131.57,195.76"/><path style="stroke:#000000;stroke-width:0.125;stroke-dasharray:2.2 1.4 0.7 1.4" d="M154.97,182.34L158.08,180.55"/></g></g><g><g><path style="stroke:#000000;stroke-width:0.125;stroke-dasharray:2.2 1.4 0.7 1.4" d="M166.04,188.53L171.61,185.33"/></g></g><g><g><path style="stroke:#000000;stroke-width:0.125;stroke-dasharray:2.2 1.4 0.7 1.4" d="M158.08,171.65L131.57,186.86"/></g></g><g><g><path style="stroke:#000000;stroke-width:0.125;stroke-dasharray:2.2 1.4 0.7 1.4" d="M126.35,59.82L123.88,61.23"/><path style="stroke:#000000;stroke-width:0.125;stroke-dasharray:2.2 1.4 0.7 1.4" d="M131.60,56.80L138.24,53.00"/><path style="stroke:#000000;stroke-width:0.125;stroke-dasharray:2.2 1.4 0.7 1.4" d="M145.25,48.97L145.56,48.79"/></g></g><g><g><path style="stroke:#000000;stroke-width:0.125;stroke-dasharray:2.2 1.4 0.7 1.4" d="M150.40,37.12L123.88,52.32"/></g></g><g><g><path style="stroke:#000000;stroke-width:0.125;stroke-dasharray:2.2 1.4 0.7 1.4" d="M147.83,56.31L131.57,65.64"/><path style="stroke:#000000;stroke-width:0.125;stroke-dasharray:2.2 1.4 0.7 1.4" d="M154.97,52.21L158.08,50.43"/></g></g><g><g><path style="stroke:#000000;stroke-width:0.125;stroke-dasharray:2.2 1.4 0.7 1.4" d="M166.04,58.40L171.61,55.21"/></g></g><g><g><path style="stroke:#000000;stroke-width:0.125;stroke-dasharray:2.2 1.4 0.7 1.4" d="M158.08,41.52L131.57,56.73"/></g></g><g id="PMI.0"><g><path style="stroke:#000000;stroke-width:0.125" d="M78.56,55.22L124.41,42.62"/></g><g><path style="fill:#000000" d="M125.16,42.62L125.16,42.54L125.14,42.47L125.13,42.40L125.10,42.33L125.07,42.26L125.03,42.20L124.99,42.14L124.94,42.09L124.88,42.04L124.83,41.99L124.76,41.95L124.70,41.92L124.63,41.90L124.56,41.88L124.48,41.87L124.41,41.87L124.34,41.87L124.26,41.88L124.19,41.90L124.12,41.92L124.06,41.95L123.99,41.99L123.93,42.04L123.88,42.09L123.83,42.14L123.79,42.20L123.75,42.26L123.72,42.33L123.69,42.40L123.67,42.47L123.66,42.54L123.66,42.62L123.66,42.69L123.67,42.76L123.69,42.83L123.72,42.90L123.75,42.97L123.79,43.03L123.83,43.09L123.88,43.15L123.93,43.20L123.99,43.24L124.06,43.28L124.12,43.31L124.19,43.33L124.26,43.35L124.34,43.36L124.41,43.37L124.48,43.36L124.56,43.35L124.63,43.33L124.70,43.31L124.76,43.28L124.83,43.24L124.88,43.20L124.94,43.15L124.99,43.09L125.03,43.03L125.07,42.97L125.10,42.90L125.13,42.83L125.14,42.76L125.16,42.69z"/></g><g><text xml:space="preserve" fill="#000000" stroke-width="0" x="61.13" y="60.05" font-size="3.81" opacity="1.00" font-family="Arial">MBB0047</text></g></g><g id="PMI.1"><g><path style="stroke:#000000;stroke-width:0.125" d="M216.54,61.10L187.69,46.39"/></g><g><path style="fill:#000000" d="M188.44,46.39L188.44,46.32L188.43,46.24L188.41,46.17L188.39,46.10L188.35,46.04L188.32,45.97L188.27,45.92L188.22,45.86L188.17,45.81L188.11,45.77L188.05,45.73L187.98,45.70L187.91,45.67L187.84,45.66L187.77,45.64L187.69,45.64L187.62,45.64L187.55,45.66L187.47,45.67L187.41,45.70L187.34,45.73L187.28,45.77L187.22,45.81L187.16,45.86L187.11,45.92L187.07,45.97L187.03,46.04L187.00,46.10L186.97,46.17L186.96,46.24L186.95,46.32L186.94,46.39L186.95,46.46L186.96,46.54L186.97,46.61L187.00,46.68L187.03,46.74L187.07,46.81L187.11,46.87L187.16,46.92L187.22,46.97L187.28,47.01L187.34,47.05L187.41,47.08L187.47,47.11L187.55,47.13L187.62,47.14L187.69,47.14L187.77,47.14L187.84,47.13L187.91,47.11L187.98,47.08L188.05,47.05L188.11,47.01L188.17,46.97L188.22,46.92L188.27,46.87L188.32,46.81L188.35,46.74L188.39,46.68L188.41,46.61L188.43,46.54L188.44,46.46z"/></g><g><text xml:space="preserve" fill="#000000" stroke-width="0" x="214.30" y="66.53" font-size="3.81" opacity="1.00" font-family="Arial">MBB0048</text></g></g><g id="PMI.2"><g><path style="stroke:#000000;stroke-width:0.125" d="M74.31,93.10L119.73,63.83"/></g><g><path style="fill:#000000" d="M120.48,63.83L120.48,63.76L120.47,63.68L120.45,63.61L120.43,63.54L120.40,63.48L120.36,63.41L120.31,63.35L120.27,63.30L120.21,63.25L120.15,63.21L120.09,63.17L120.02,63.14L119.95,63.11L119.88,63.09L119.81,63.08L119.73,63.08L119.66,63.08L119.59,63.09L119.52,63.11L119.45,63.14L119.38,63.17L119.32,63.21L119.26,63.25L119.20,63.30L119.15,63.35L119.11,63.41L119.07,63.48L119.04,63.54L119.02,63.61L119.00,63.68L118.99,63.76L118.98,63.83L118.99,63.90L119.00,63.98L119.02,64.05L119.04,64.12L119.07,64.18L119.11,64.25L119.15,64.31L119.20,64.36L119.26,64.41L119.32,64.45L119.38,64.49L119.45,64.52L119.52,64.55L119.59,64.57L119.66,64.58L119.73,64.58L119.81,64.58L119.88,64.57L119.95,64.55L120.02,64.52L120.09,64.49L120.15,64.45L120.21,64.41L120.27,64.36L120.31,64.31L120.36,64.25L120.40,64.18L120.43,64.12L120.45,64.05L120.47,63.98L120.48,63.90z"/></g><g><text xml:space="preserve" fill="#000000" stroke-width="0" x="62.56" y="98.53" font-size="3.78" opacity="1.00" font-family="Arial">ND1467</text></g></g><g/><g><g/><g><text xml:space="preserve" fill="#000000" stroke-width="0" x="10.19" y="14.32" font-size="4.53" opacity="1.00" font-family="Arial" font-weight="bold">BPA32901</text></g></g><g id="paperID" visibility="hidden" opacity="0.00" transform="scale(0.000100)"><path style="stroke:#000000;stroke-width:0.500;fill:#e6e6e6;fill-rule:evenodd" d="M-2000.00,-2000.00L2297.00,-2000.00L2297.00,2210.00L-2000.00,2210.00zM0.00,0.00L297.00,0.00L297.00,210.00L0.00,210.00z"/><path style="fill:#000000;fill-opacity:0.118" d="M3.00,210.00L297.00,210.00L297.00,3.00L300.00,3.00L300.00,213.00L3.00,213.00z"/></g></g></svg>
