<?xml version="1.0" encoding="UTF-8" standalone="no"?>
<svg xmlns="http://www.w3.org/2000/svg" xmlns:xlink="http://www.w3.org/1999/xlink" width="297.000mm" height="210.000mm" viewBox="0.000000 0.000000 297.000000 210.000000" stroke-linejoin="round" stroke-linecap="round" fill="none" fill-rule="evenodd"><desc>Composer Export</desc><script type="text/ecmascript"><![CDATA[
if(typeof(top) != "undefined")
{
	top.ShowPaper = ShowPaper;
}
function ShowHotSpot(evt,hotspotid)
{
	var svgDocument = evt.target.ownerDocument;
	var strId = "hotspot."+hotspotid;
	var hotspot = svgDocument.getElementById(strId);
	if(hotspot)
		hotspot.setAttribute("opacity",".5");
}
function HideHotSpot(evt,hotspotid)
{
	var svgDocument = evt.target.ownerDocument;
	var strId = "hotspot."+hotspotid;
	var hotspot = svgDocument.getElementById(strId);
	if(hotspot)
		hotspot.setAttribute("opacity","0");

	var toolTip = svgDocument.getElementById('ToolTip');
	if(toolTip)
		toolTip.setAttribute("visibility","hidden");
}
function ShowToolTip(evt,hotspotid,strTooltip)
{
	if(strTooltip=="")
	return;

	// change text
	var svgDocument = evt.target.ownerDocument;
	var tiptext = svgDocument.getElementById('ToolTipText');
	if( !tiptext )
	return;
	tiptext.firstChild.nodeValue = " " + strTooltip + "  " ;

	// show tooltip before, else some refresh issue

	var toolTip = svgDocument.getElementById('ToolTip');
	if(!toolTip)
	return;

	toolTip.setAttribute("visibility","visible");
	toolTip.setAttribute("opacity",".95");

	// move tooltip
	// get viewbox

	var root = svgDocument.documentElement;
	var vbox = (root.getAttribute("viewBox")).split(' ');
	var x0 = parseFloat(vbox[0]);
	var y0 = parseFloat(vbox[1]);
	var vboxW = parseFloat(vbox[2]);
	var vboxH = parseFloat(vbox[3]);

	// get default width of svg

	var strW = root.getAttribute("width");
	var svgW = parseFloat(strW);
	if(strW.indexOf('mm') != -1)
	svgW *= 3.779;

	var strH = root.getAttribute("height");
	var svgH = parseFloat(strH);
	if(strH.indexOf('mm') != -1)
	svgH *= 3.779;  	// 96 dpi  -> 96/25.4 = 3.779

	// update the viewbox / width / height if svg is embedded in html with zoom fit all
	var realx0 = x0;
	var realy0 = y0;
	var realvboxW = vboxW;
	var realvboxH = vboxH;
	var realsvgW = svgW;
	var realsvgH = svgH;

	if ((typeof(top) == "undefined") || (typeof(top.svgctl1) != "undefined")) // embedded in html
	{
		// get window size in pxl

		svgW = window.innerWidth;
		svgH = window.innerHeight;

		// calculate real viewbox

		realsvgW = svgW;
		realsvgH = svgH;
		if((svgW / svgH) > (vboxW / vboxH))
		{
			realvboxW = (vboxH * svgW) / svgH;
			realvboxH = vboxH;
			realx0 = x0 - (realvboxW - vboxW)/2 ;
		}
		else
		{
			realvboxH = (vboxW * svgH) / svgW;
			realvboxW = vboxW;
			realy0 = y0 - (realvboxH - vboxH)/2 ;
		}
	}

	// get user zoom/pan

	var newScale = root.currentScale;
	var translation = root.currentTranslate;

	// transform pxl to user unit

	var xPos = (((evt.clientX+10- translation.x)/newScale) * realvboxW)/realsvgW  + realx0 ;
	var yPos = (((evt.clientY+5- translation.y)/newScale) * realvboxH)/ realsvgH  + realy0 ;
	var scaleForWidth = ( (1 / newScale) * realvboxH) / realsvgH;

	// move tooltip

	toolTip.setAttribute("transform", "translate(" + xPos + "," + yPos + ")" );

	// resize tooltip

	var fontsize = 12;
	tiptext.setAttribute("font-size",fontsize*scaleForWidth);
	tiptext.setAttribute("y", fontsize*scaleForWidth);
	var tipBG = svgDocument.getElementById('ToolTipBG');
	var outline = tiptext.getBBox();
	if(tipBG)
	{
		tipBG.setAttribute("stroke-width", 1*scaleForWidth);
		tipBG.setAttribute("width", Number(outline.width) );
		tipBG.setAttribute("height", Number(outline.height) + fontsize*.5*scaleForWidth );
	}
	var ToolTipShadow = svgDocument.getElementById('ToolTipShadow');
	if(ToolTipShadow)
	{
		ToolTipShadow.setAttribute("width", Number(outline.width) );
		ToolTipShadow.setAttribute("height", Number(outline.height) + fontsize*.5*scaleForWidth );
		ToolTipShadow.setAttribute("x", 3*scaleForWidth);
		ToolTipShadow.setAttribute("y", 3*scaleForWidth);
	}
}
function ShowPaper()
{
  var svgDocument = getDocument();
  var paper = svgDocument.getElementById("paperID");
  if(paper)
  {
    paper.setAttribute("transform","scale(1)");
    paper.setAttribute("opacity","1");
    paper.setAttribute("visibility","visible");
  }
  var svg = svgDocument.getRootElement();
  if(svg)
  {
    svg.setAttribute("width","307.000mm");
    svg.setAttribute("height","220.000mm");
    svg.setAttribute("viewBox","-5.000000 -5.000000 307.000000 220.000000");
  }
}
]]></script><defs/><g><path style="fill:#000000;fill-opacity:0.098;fill-rule:evenodd" d="M143.91,14.27L140.33,14.20L140.40,14.10L143.59,14.08zM140.26,14.29L139.16,14.36L140.33,14.20zM138.59,14.63L138.23,14.59L138.68,14.53zM154.30,19.04L154.98,19.85L155.46,20.85L155.47,31.65L155.02,32.69L154.08,33.58L154.40,33.58L155.01,32.84L155.02,32.69L155.41,32.25L155.63,31.82L155.79,30.42L155.97,36.25L156.13,36.23L156.12,39.09L155.80,39.00L155.63,38.85L154.74,40.18L155.06,40.18L156.13,39.34L156.13,63.35L155.06,64.43L153.80,65.31L153.31,65.98L152.26,67.23L151.09,68.22L150.62,68.73L149.70,69.79L148.48,70.72L146.17,71.72L143.52,72.20L140.43,72.21L140.38,71.19L140.93,71.28L141.04,68.89L143.24,68.91L143.37,69.27L144.58,69.94L144.68,45.79L147.84,44.47L148.03,44.28L146.50,44.64L143.35,45.12L143.24,45.67L142.36,45.95L142.19,68.59L141.87,68.64L141.74,45.92L141.55,45.92L141.44,68.14L140.56,68.74L140.45,69.30L139.28,69.96L139.23,45.79L140.23,45.26L140.42,45.29L140.77,45.83L140.95,45.84L140.94,45.12L139.60,44.97L139.23,44.85L139.22,30.10L144.84,29.94L147.06,29.50L147.21,29.28L146.38,25.49L146.37,24.65L147.20,28.29L147.53,29.50L148.38,29.19L151.00,27.84L152.68,26.88L153.50,26.16L153.83,26.06L154.64,25.05L151.81,21.52L151.83,21.10L152.16,20.42L152.16,18.54L151.61,17.37L151.81,17.37zM151.19,23.16L151.19,23.39L151.01,23.34L151.01,22.99zM151.85,23.99L151.85,24.21L151.67,24.17L151.67,23.81zM136.32,41.96L136.49,42.84L136.65,42.87L136.81,41.72L137.48,41.33L137.47,42.38L137.31,42.55L137.27,44.68L137.45,44.81L137.33,45.01L137.14,56.08L133.45,58.17L133.33,58.72L133.00,58.89L133.03,57.51L132.63,57.67L132.50,58.42L132.30,58.41L132.33,57.83L131.97,57.72L131.97,45.79L133.03,45.37L132.96,43.65L136.18,41.81zM132.50,44.54L132.30,44.54L132.35,43.99L132.53,43.96zM130.52,43.52L130.97,42.80L131.37,42.65L131.36,44.35L130.80,44.65L130.53,44.65zM125.55,55.60L125.37,55.55L125.58,40.65zM131.38,57.65L131.31,58.51L130.50,58.51L130.32,58.33L130.52,57.55L131.21,57.48zM155.62,69.45L155.47,70.28L155.13,71.10L154.40,72.19L152.75,73.67L150.18,75.06L147.54,75.89L144.35,76.33L140.77,76.33L139.72,76.22L139.72,74.66L144.02,74.68L146.33,74.35L148.81,73.69L151.03,72.77L152.25,72.02L153.74,70.87L154.97,69.12L155.46,67.23zM133.28,71.53L133.61,71.20L134.17,71.20L134.17,71.94L133.50,71.87zM149.22,71.83L149.12,71.39L149.47,71.18L149.84,71.19L149.84,71.94zM161.59,80.36L159.26,81.67L159.09,86.95L154.58,89.55L155.13,89.70L155.13,90.59L154.46,90.54L154.13,90.35L154.12,89.84L148.81,92.84L148.70,93.73L147.81,94.32L146.00,95.16L144.01,95.64L143.03,96.15L139.06,96.20L139.08,89.22L139.27,89.08L139.28,84.31L139.39,80.28L146.33,80.13L161.36,71.51L161.57,71.53zM124.40,86.14L124.21,86.09L124.42,78.29zM125.02,89.88L125.35,89.68L125.91,89.69L125.91,90.60L125.41,90.54L125.08,90.35zM137.64,93.65L137.58,93.84L137.25,93.89L137.08,93.46L137.31,93.33zM140.80,97.00L139.55,97.13L138.54,97.63L138.23,97.63L138.73,97.13L139.89,96.80L140.80,96.81zM139.64,98.74L139.53,98.28L140.06,97.93L140.43,97.94L140.46,98.99zM137.57,99.93L142.53,99.77L145.72,99.33L149.02,98.34L151.77,97.13L153.66,95.88L155.39,94.31L157.07,91.70L157.28,90.68L157.27,92.56L156.94,93.87L156.29,95.20L155.30,96.52L154.16,97.53L152.49,98.67L148.98,100.27L145.50,101.09L143.19,101.42L141.38,102.09L140.05,102.14L139.95,101.58L137.62,101.43zM137.75,109.34L138.58,108.82L138.78,108.83L138.80,110.24L138.06,110.84L137.80,110.85L137.79,110.05L137.96,109.66zM140.77,110.40L139.27,110.56L139.23,109.01L139.89,108.85L140.78,108.85zM144.74,112.38L144.42,112.89L143.58,113.70L141.87,114.30L139.72,114.36L139.72,112.97L142.09,112.70L143.41,112.21L144.33,111.48L144.74,110.99zM137.78,120.64L138.41,120.21L138.62,120.23L138.63,122.77L137.95,122.23L137.80,122.05L137.79,121.27L137.93,120.90zM145.11,121.99L145.31,122.07L145.53,121.71L145.71,121.70L145.74,122.94L145.23,122.70L145.06,124.43L144.89,124.92L144.25,125.76L143.25,126.41L141.54,126.85L139.72,126.91L139.72,124.36L142.25,124.09L143.58,123.60L144.50,122.87L145.05,121.91zM139.22,120.24L140.77,120.24L140.77,123.11L139.27,123.06zM146.04,124.10L147.16,123.53L147.53,123.53L147.49,125.04L146.87,125.04L146.04,124.53zM145.22,125.91L145.49,125.68L147.54,125.68L147.54,127.06L147.34,127.20L145.77,127.45L145.23,126.50zM133.44,125.68L134.83,125.68L134.82,127.41L133.49,127.19zM145.71,128.91L145.52,128.91L145.50,127.50L145.77,127.45zM137.31,128.72L136.59,128.83L135.42,128.89L135.43,127.51L136.09,127.17L137.30,127.00zM140.61,129.21L140.05,129.32L139.22,129.81L138.74,129.89L138.79,128.39L139.72,127.67L140.05,127.49L140.61,127.50zM143.91,128.72L143.18,128.82L142.92,129.05L142.59,129.71L142.26,130.05L142.21,128.68L142.58,128.06L142.83,127.31L143.35,127.00L143.91,127.00zM141.87,143.41L143.44,143.53L143.44,143.72L141.55,143.86L141.22,144.19L141.10,145.72L140.90,145.86L140.39,145.90L140.26,144.36L140.06,144.22L140.05,143.69L141.43,143.41L141.76,142.86zM142.44,146.99L142.44,147.36L138.07,147.48L136.75,147.65L135.44,147.98L132.95,148.80L130.88,150.03L129.64,151.10L128.43,152.87L128.83,151.61L129.89,150.36L131.30,149.13L133.62,147.98L135.76,147.32L139.23,146.82L141.59,146.82zM142.26,148.31L142.26,149.52L139.56,149.46L136.92,149.79L134.93,150.28L133.01,151.17L131.13,152.43L130.63,153.08L130.04,153.98L129.70,154.98L129.70,153.64L130.04,152.66L130.63,151.76L131.13,151.11L133.01,149.85L134.93,148.96L136.75,148.47L139.56,148.14L141.59,148.15zM138.98,143.72L137.25,143.85L134.11,144.35L132.30,144.85L130.81,145.34L128.22,146.55L126.24,147.87L124.31,149.57L124.51,149.11L126.02,147.65L128.33,146.16L130.81,145.01L133.46,144.19L137.25,143.52L138.98,143.53zM124.27,149.86L123.98,150.07L124.09,149.68L124.31,149.57zM123.97,150.23L123.77,150.53L123.75,150.19L123.98,150.07zM154.59,152.64L154.58,152.11L154.90,151.93L155.95,151.83L156.22,151.25L156.30,151.83L155.95,152.48L155.80,153.82L155.57,154.09L154.91,154.15L154.79,152.78zM125.54,152.64L125.52,152.11L125.84,151.93L126.85,151.78L127.24,151.11L127.24,151.67L127.07,152.16L126.69,152.61L126.53,154.09L125.85,154.15L125.73,152.78zM128.38,153.33L128.33,152.96L128.43,152.87zM131.68,157.78L140.29,152.93L140.29,154.49L133.10,158.71L132.70,158.71L131.68,158.03zM169.32,159.44L171.27,158.35L171.47,158.36L171.49,162.58L170.79,163.00L170.80,163.16L170.26,163.33L163.67,167.13L163.00,167.36L163.00,165.81L171.32,161.06L171.34,160.86L169.32,159.69zM163.08,160.35L163.08,160.74L162.63,160.46L162.81,160.17zM166.53,159.43L166.18,160.07L165.32,160.36L164.32,160.42L164.33,159.54L166.14,159.20L166.53,158.54zM171.49,154.82L161.89,160.42L161.90,160.87L162.21,160.92L162.50,160.50L162.63,160.46L162.53,160.75L162.70,161.02L161.66,161.68L161.19,161.67L158.86,162.99L158.60,163.39L155.90,164.98L155.81,167.86L146.21,173.46L145.72,173.58L143.09,172.08L142.20,172.57L140.81,173.51L140.77,173.07L140.68,173.02L140.75,172.71L140.39,172.73L139.86,173.07L139.99,173.54L140.28,173.61L140.55,173.04L140.68,173.02L140.54,173.41L140.81,173.51L140.78,173.64L139.61,174.29L139.61,173.22L139.40,173.21L139.11,173.47L139.07,171.26L171.27,152.73L171.47,152.75zM164.46,160.89L164.46,160.70L166.03,160.41L166.71,160.04L166.71,160.23L166.03,160.74L165.87,161.40L165.21,161.01zM140.12,161.06L140.05,160.35L141.43,160.09L141.77,159.53L141.77,160.08L141.59,160.58L141.27,160.91L141.10,162.39L140.90,162.53L140.39,162.58L140.28,161.04zM112.53,162.07L113.14,161.67L113.70,161.67L113.69,163.24L113.38,163.17L112.51,162.51zM176.61,163.82L176.60,164.37L175.87,165.80L174.89,166.32L174.44,166.32L173.61,165.63L173.56,165.31L174.06,165.32L174.56,164.33L174.88,163.65L175.55,163.33L176.10,163.15zM117.83,163.07L117.38,164.10L115.61,164.22L115.67,163.38L116.28,163.16L117.32,163.05L117.83,162.17zM115.76,164.69L115.76,164.50L117.13,164.34L117.38,164.10L117.85,164.01L117.85,164.20L117.11,164.66L117.00,165.20L116.34,164.81zM133.61,174.07L134.27,173.72L134.83,173.72L134.82,175.29L134.16,175.05L133.67,174.72zM138.79,175.28L138.47,175.94L137.92,176.22L136.58,176.27L136.63,175.43L138.45,175.11L138.79,174.39zM136.72,176.91L136.72,176.72L138.46,176.27L138.97,175.89L138.97,176.08L138.25,176.71L138.14,177.25L137.64,177.02zM131.30,179.08L131.30,177.52L135.16,177.52L135.01,182.20L134.01,181.65L133.68,181.31L133.11,181.31L132.69,181.72L132.34,182.36L132.32,183.03L132.49,183.16L132.32,183.47L133.03,183.48L134.16,184.14L131.36,185.69L131.36,181.22L134.83,179.22L134.83,179.17zM147.55,176.28L139.12,181.23L139.12,179.56L147.55,174.73zM139.95,184.63L140.07,185.12L139.57,186.45L138.40,187.29L137.96,187.29L137.31,186.93L136.92,186.26L137.57,186.29L137.97,185.52L138.07,184.79L139.47,183.95zM137.73,194.54L138.13,193.77L139.39,193.21L140.77,193.21L140.77,196.08L139.27,196.03L137.97,195.35zM144.40,199.38L144.24,199.87L143.84,200.30L142.70,200.98L141.37,201.30L139.72,201.36L139.72,197.00L142.09,196.74L143.36,196.19L144.24,195.41L144.40,195.02zM139.55,201.96L141.76,201.96L141.76,204.00L141.21,204.11L139.60,204.12zM146.72,202.69L145.74,203.69L143.73,204.65L142.86,204.84L142.91,202.67L144.51,202.13L146.15,201.13L146.72,200.47zM155.01,32.84L154.40,33.58L154.08,33.58L155.02,32.69zM153.77,34.06L153.41,34.06L153.59,33.88L153.81,33.88zM151.46,35.54L151.10,35.54L151.28,35.36L151.50,35.36zM147.01,37.58L146.65,37.54L147.10,37.48zM135.62,48.06L135.79,48.08L135.98,48.92L135.98,49.96L135.81,50.64L135.82,49.43zM134.22,48.37L134.41,47.91L135.26,47.10L135.69,47.04zM133.82,49.46L133.67,50.81L133.66,49.30L134.11,48.42L134.22,48.37zM152.17,51.75L152.17,51.93L150.68,52.78L150.52,54.76L149.96,54.42L150.01,52.45L151.61,51.55zM135.98,53.88L135.81,55.60L135.82,52.87zM134.83,52.62L133.95,54.04L133.67,55.60L133.66,54.25L134.51,52.62L134.96,52.20L135.15,52.20zM160.93,74.66L160.93,74.90L160.68,75.18L160.41,75.18L160.39,74.90L160.67,74.50zM160.93,73.75L160.42,74.08L159.73,75.41L159.55,75.42L159.58,74.55L160.23,73.72zM146.80,170.43L147.20,169.98L149.64,168.58L149.85,168.60L149.80,169.45L148.96,171.08L148.15,171.59L147.20,171.59L147.04,171.42zM143.74,171.96L143.35,171.93L143.78,171.77zM140.81,173.51L140.54,173.41L140.68,173.02L140.77,173.07zM139.99,173.54L139.86,173.07L140.39,172.73L140.75,172.71L140.68,173.02L140.55,173.04L140.28,173.61zM142.89,197.39L143.21,196.98L143.39,196.98L143.32,197.28L143.07,197.71L142.92,197.69zM143.63,197.44L143.43,197.75L143.32,197.28z"/><g id="Actor_6.0"><g style="stroke:#000000;stroke-width:0.176"><path d="M127.22,151.14L127.13,151.28L127.04,151.44L127.08,151.26L127.04,151.08L126.92,150.91L126.73,150.77L126.48,150.66L126.18,150.59L125.86,150.56L125.55,150.59L125.26,150.65L125.00,150.77L124.81,150.91L124.69,151.08L124.65,151.26L124.69,151.44L124.81,151.61L125.00,151.75L125.25,151.86L125.55,151.94L125.87,151.96L126.18,151.94L126.47,151.87L126.73,151.75L126.92,151.61L127.04,151.44L126.96,151.64L126.86,151.92L126.49,151.91L126.18,151.94L125.87,152.00L125.50,152.13L125.23,151.91L125.00,151.75L124.78,151.64L124.51,151.56"/><path d="M125.72,152.77L125.67,152.78L125.72,152.79L126.12,152.78L126.49,152.69L126.61,152.63L125.72,152.77"/><path d="M125.67,152.78L125.50,152.80L124.76,152.38"/><path d="M125.50,152.80L125.50,152.13"/><path d="M125.06,152.61L125.33,152.72L125.36,152.73"/><path d="M125.55,150.59L125.55,150.59"/><path d="M126.86,151.92L126.86,152.60"/><path d="M126.61,152.63L126.67,152.62"/><path d="M127.08,152.12L126.96,152.39"/><path d="M127.08,152.12L127.08,152.12"/></g><g style="stroke:#000000;stroke-width:0.529"><path d="M125.06,153.89L125.06,152.61L125.00,152.59L124.77,152.40L124.76,152.38L124.51,152.23L124.51,151.56L124.61,151.28L124.69,151.08L124.77,150.92L124.87,150.78L125.24,150.65L125.55,150.59"/><path d="M126.67,152.62L126.86,152.60L126.96,152.39L127.00,152.35L127.08,152.12L127.22,151.82L127.22,151.14L126.96,150.92L126.73,150.77L126.50,150.66L126.23,150.57L125.86,150.56L125.55,150.59"/><path d="M126.67,152.62L126.67,153.85"/></g></g><g id="Actor_1.0"><g style="stroke:#000000;stroke-width:0.176"><path d="M124.34,177.45L131.23,181.40L131.23,185.84"/><path d="M131.23,181.40L135.06,179.21"/><path d="M134.07,181.81L134.05,181.64L133.90,181.41L133.66,181.30L133.38,181.31L133.06,181.46L132.82,181.68L132.76,181.73L132.49,182.08L132.30,182.48L132.20,182.88L132.20,183.25L132.30,183.53L132.49,183.71L132.76,183.76L133.01,183.69"/></g><g style="stroke:#000000;stroke-width:0.529"><path d="M133.99,184.25L131.23,185.84L124.34,181.89L124.34,177.45L128.17,175.26L128.45,175.42"/><path d="M134.96,179.15L135.06,179.21L135.06,182.38"/></g></g><g id="Actor_1.1"><g style="stroke:#000000;stroke-width:0.176"><path d="M161.47,161.85L161.47,161.62"/></g><g style="stroke:#000000;stroke-width:0.529"><path d="M140.02,149.55L150.95,155.81"/><path d="M162.42,161.28L162.42,161.30L161.47,161.85L161.27,161.74"/></g></g><g id="Actor_5.0"><g style="stroke:#000000;stroke-width:0.176"><path d="M122.38,53.05L122.70,53.45L122.87,53.43L122.86,53.33L122.76,53.06L122.62,52.80L122.43,52.59L122.32,52.50L122.32,52.97L122.38,53.05"/><path d="M122.17,52.40L122.32,52.50"/><path d="M121.67,39.71L121.67,39.88L121.76,40.04L121.94,40.18L122.22,40.35L122.43,40.43L122.62,40.42L122.76,40.34L122.86,40.18L122.89,39.96L122.89,39.69L122.71,39.59L122.90,39.57L122.92,39.36L123.02,39.09L123.17,38.84L123.30,38.68L123.04,38.37L122.70,38.56L123.06,39.02"/><path d="M123.04,38.37L122.65,38.41L122.32,38.60L122.32,39.11L122.69,39.57L122.17,39.28"/><path d="M122.32,38.60L122.70,38.56"/><path d="M122.45,37.70L122.64,37.70L122.84,37.78L123.80,38.32L123.56,38.46L123.35,38.62L123.30,38.68"/><path d="M123.99,87.96L127.08,88.99L127.65,89.25L128.06,89.59L128.27,89.99L128.27,90.13L128.06,90.52L127.65,90.87L127.08,91.13L124.45,92.00L124.30,92.07L124.15,92.19L124.05,92.32L124.00,92.42L123.91,92.21L123.65,91.29L123.54,90.37L123.59,89.44L123.79,88.51L123.99,87.96L124.08,87.87L124.20,87.81L124.34,87.81L124.45,87.83L126.93,88.66L124.64,86.78"/><path d="M123.50,85.24L123.67,85.34L123.67,84.81"/><path d="M123.43,76.25L123.43,76.31L123.47,76.36L123.67,76.50L123.67,76.06"/><path d="M123.68,75.29L123.69,75.16L123.50,75.05"/><path d="M161.71,75.61L146.20,84.51L139.22,84.50L136.06,82.77L133.10,80.92L130.36,78.96L127.84,76.91L125.56,74.76L123.52,72.54"/><path d="M122.89,53.66L122.87,53.43"/><path d="M122.71,39.59L122.69,39.57"/><path d="M122.90,39.57L122.89,39.69"/><path d="M132.43,57.82L132.51,57.92L132.17,58.11L131.97,57.85L132.23,57.85L132.51,57.80L132.75,57.70L132.99,57.56L132.99,58.67L132.96,58.89L132.86,59.05L132.71,59.14L133.34,58.78L133.43,58.62L133.47,58.40L133.47,44.10L133.43,43.84L133.34,43.57L133.19,43.31L133.00,43.09L132.80,42.93L123.47,37.59"/><path d="M124.45,78.44L124.34,78.31L124.34,86.03L124.37,86.21L124.45,86.36L124.45,78.44L124.95,78.97L127.03,81.00L129.31,82.95L131.47,84.57L131.47,92.05L132.09,92.16L132.61,92.37L132.76,92.46L137.40,95.12L137.66,95.30L137.87,95.55L137.97,95.78L137.97,94.90L138.05,94.87L138.21,94.70L138.30,94.46L138.30,94.14L138.21,93.79L138.05,93.45L137.97,93.32L137.97,88.62L137.32,88.27L136.25,87.64L136.25,91.02L136.87,91.13L137.40,91.35"/><path d="M124.45,86.36L124.38,86.32"/><path d="M123.67,85.34L123.67,85.49"/><path d="M124.34,78.31L124.25,78.21"/><path d="M124.25,75.65L124.25,74.77L124.02,74.52L123.92,74.65L123.78,74.89L123.69,75.16"/><path d="M123.78,74.33L123.93,74.42L124.02,74.52"/><path d="M131.47,92.05L130.15,91.29L129.74,90.96L130.15,91.89L130.80,92.77L131.67,93.58L132.76,94.31L134.14,94.98L135.69,95.51L137.38,95.88L138.35,95.99L138.98,96.35L138.98,89.15L139.36,89.36L139.36,85.39L139.22,85.39L136.06,83.65L133.10,81.80L130.36,79.85L127.84,77.79L125.56,75.65L123.67,73.58"/><path d="M123.93,74.42L123.83,74.30"/><path d="M161.56,71.53L161.56,75.53L146.06,84.42L139.36,84.42L136.21,82.71L133.26,80.89L130.52,78.96L128.00,76.93L125.71,74.82L123.67,72.62L123.67,72.46"/><path d="M123.67,68.58L125.71,70.77L128.00,72.88L130.52,74.91L133.26,76.84L136.21,78.66L139.36,80.38L139.36,84.42"/><path d="M123.66,37.47L127.17,35.46"/><path d="M125.45,90.65L125.33,90.62L125.13,90.50L125.00,90.36L124.95,90.20L125.00,90.03L125.13,89.89L125.33,89.77L125.58,89.70L125.87,89.67L126.15,89.70L126.40,89.77L126.60,89.89L126.73,90.03L126.78,90.20L126.73,90.36L126.60,90.50L126.40,90.62L126.15,90.69L125.87,90.72L125.58,90.69L125.45,90.65"/><path d="M125.57,40.65L125.51,40.85L125.48,41.10L125.48,55.40L125.51,55.63L125.57,55.75L125.57,40.65L127.96,42.02L127.90,42.22L127.87,42.48L127.87,56.63L127.87,56.79L127.90,57.01L127.96,57.12L125.57,55.75"/><path d="M126.36,52.03L127.14,52.48L127.04,52.54L127.48,52.80L127.48,54.08L125.83,53.13L125.83,51.82L125.92,51.77L126.36,52.03L126.39,52.66L126.44,52.69"/><path d="M125.83,53.13L127.04,53.13L126.86,53.04L126.85,52.50L126.44,52.26L126.54,52.21L126.95,52.44L126.95,52.98L126.86,53.04L126.29,52.71L126.27,52.09L125.83,51.82"/><path d="M125.81,53.87L125.82,53.66L125.94,53.34L126.37,53.82L126.24,54.01L126.22,54.11L126.24,54.24L126.29,54.31L126.34,54.32L126.42,54.20L126.49,53.95L126.55,53.89L126.63,53.85L126.73,53.86L126.88,53.90L127.04,54.00L127.18,54.16L127.34,54.43L127.44,54.72L127.49,54.99L127.43,55.29L127.33,55.55L126.89,55.20L127.00,55.02L127.06,54.79L127.05,54.70L126.99,54.59L126.94,54.55L126.90,54.57L126.79,54.91L126.69,54.99L126.56,55.00L126.40,54.95L126.25,54.83L126.11,54.66L125.95,54.39L125.85,54.09L125.81,53.87"/><path d="M125.83,50.98L126.76,51.25L126.65,51.14L125.92,50.93L125.83,50.98L125.83,51.68L127.48,52.08L127.58,52.03L127.58,51.33L126.72,50.49L127.48,50.62L127.49,50.04L125.87,48.44L125.83,48.39L125.92,48.34L127.58,49.98L127.58,50.57L127.48,50.62"/><path d="M125.82,50.34L126.76,49.92L125.83,49.76L125.82,50.34L126.65,51.14"/><path d="M125.83,49.76L125.92,49.70L126.66,49.83L126.76,49.92L126.55,50.46L126.72,50.49"/><path d="M126.66,49.83L125.83,49.12L125.82,48.40L125.83,48.39"/><path d="M127.65,89.25L126.93,88.66"/><path d="M126.98,54.57L126.89,54.85L126.69,54.99"/><path d="M125.94,53.34L126.04,53.28L126.46,53.77L126.33,53.96L126.32,54.06L126.33,54.18L126.38,54.25"/><path d="M126.79,54.94L126.77,54.94"/><path d="M126.04,53.28L126.98,53.85L126.82,53.81L126.73,53.80L126.55,53.89"/><path d="M126.46,53.77L126.49,53.97"/><path d="M126.44,52.26L126.44,52.79"/><path d="M126.95,52.98L127.04,53.03L127.04,52.54"/><path d="M127.48,52.08L127.48,51.39L126.55,50.46"/><path d="M128.06,89.59L129.74,90.96"/><path d="M127.76,60.31L127.76,57.03L130.73,58.73L130.58,58.64L130.48,58.48L130.45,58.26L130.45,57.93L130.48,57.71L130.58,57.54L130.73,57.46L130.92,57.46L131.13,57.54L131.36,57.67L131.36,58.51L131.12,58.65L130.92,58.73L130.73,58.73"/><path d="M126.98,53.85L127.13,53.95L127.28,54.10L127.44,54.37L127.54,54.66L127.58,54.94L127.53,55.24L127.43,55.50L127.33,55.55"/><path d="M127.14,52.48L127.58,52.75L127.58,54.03L127.48,54.08"/><path d="M127.04,53.03L127.04,53.13"/><path d="M127.58,51.33L127.58,50.57"/><path d="M127.23,35.47L127.27,35.53"/><path d="M137.58,41.35L137.58,42.46L136.62,43.00L136.62,41.90L137.58,41.35L136.77,40.88L136.71,40.91L127.99,35.91"/><path d="M128.27,89.99L128.27,89.76"/><path d="M138.68,75.97L138.72,75.97L137.47,75.78L135.61,75.32L133.90,74.70L132.37,73.94L131.05,73.06L129.97,72.08L129.16,71.02L128.64,69.90L129.03,70.74"/><path d="M128.64,69.90L128.41,68.74L128.59,69.63"/><path d="M154.57,71.18L154.34,71.56L153.67,72.29L154.34,71.56L155.01,70.46L155.38,69.32L155.46,68.31L155.46,66.83L155.38,68.00L155.01,69.13L154.34,70.23L153.39,71.25L152.19,72.19L150.76,73.01L149.14,73.70L147.35,74.24L145.44,74.62L143.45,74.84L141.43,74.88L139.42,74.75L137.47,74.45L135.61,73.99L133.90,73.37L132.37,72.61L131.05,71.73L129.97,70.75L129.16,69.69L128.64,68.57L128.41,67.42L128.41,68.74L128.41,68.62"/><path d="M128.41,68.74L128.42,69.08"/><path d="M128.41,67.42L128.49,66.25L128.67,65.71"/><path d="M128.64,64.42L128.64,64.44"/><path d="M129.10,64.73L130.23,65.48L130.23,65.41L129.97,65.26L128.64,64.25"/><path d="M128.10,35.98L128.10,35.83"/><path d="M128.10,30.25L128.14,31.27L128.29,31.96L128.62,32.63L129.12,33.27L129.78,33.86L131.09,34.78L132.51,35.66L134.03,36.47L135.65,37.23L136.67,37.60L137.78,37.89L138.95,38.08L140.16,38.16L141.94,38.19L143.71,38.16L144.92,38.08L146.09,37.89L147.20,37.60L148.22,37.23L150.36,36.21L151.26,35.69L152.32,35.08L154.10,33.86L154.76,33.27L155.25,32.63L155.58,31.96L155.73,31.27L155.77,30.25"/><path d="M155.57,28.53L155.57,30.25L155.53,31.26L155.41,31.87L155.06,32.59L154.52,33.27L153.93,33.79L152.26,34.94L150.12,36.18L148.10,37.13L147.21,37.47L146.02,37.78L144.76,37.98L143.70,38.05L141.94,38.07L140.17,38.05L139.12,37.98L137.85,37.78L136.67,37.47L135.77,37.13L134.17,36.39L132.65,35.58L131.24,34.71L129.94,33.79L129.35,33.27L128.81,32.59L128.47,31.87L128.34,31.26L128.30,30.25L128.30,28.52"/><path d="M155.57,22.33L155.53,23.34L155.40,23.95L155.06,24.68L154.50,25.37L154.33,25.66L154.13,25.90L153.93,26.08L153.67,26.25L153.28,26.45L152.98,26.65L152.33,27.19L152.04,27.37L151.46,27.62L151.13,27.80L150.39,28.32L150.08,28.49L149.46,28.69L149.10,28.85L148.28,29.34L148.10,29.43L147.79,29.53L147.48,29.56L147.24,29.53L146.03,29.85L144.77,30.05L143.70,30.12L141.94,30.15L140.17,30.12L139.10,30.05L137.84,29.85L136.63,29.53L136.34,29.56L136.05,29.52L135.77,29.43L135.43,29.25L134.93,28.94L134.57,28.76L133.82,28.50L133.51,28.34L132.89,27.90L132.65,27.75L132.31,27.58L131.86,27.39L131.57,27.21L131.03,26.75L130.73,26.53L130.07,26.18L129.94,26.08L129.72,25.88L129.52,25.62L129.37,25.37L128.81,24.68L128.47,23.95L128.34,23.34L128.30,22.33"/><path d="M130.23,65.41L136.10,68.77L138.93,70.00L139.10,70.04L139.10,70.57L140.92,71.48L140.92,68.98L140.55,68.80L141.53,68.23L141.54,45.92L142.95,45.92L143.32,45.74L143.32,45.18L143.48,45.11L142.95,45.11L142.95,45.92"/><path d="M130.23,65.48L130.48,65.99L131.20,66.99L132.19,67.91L133.06,68.50L133.57,69.32L134.38,70.14L135.43,70.86L136.66,71.45L138.05,71.91L139.55,72.22L141.13,72.38L142.74,72.38L144.32,72.22L145.82,71.91L147.21,71.45L148.44,70.86L149.47,70.15L150.28,69.35L150.82,68.49L150.45,68.74L149.01,69.44L147.40,70.01L145.66,70.42L144.78,70.57L144.78,70.04L144.61,70.04L144.51,70.01L144.41,69.98L143.32,69.35L143.32,68.80L142.34,68.23L142.34,45.92"/><path d="M130.92,72.95L130.58,72.63"/><path d="M131.36,57.67L131.65,57.80L131.97,57.85"/><path d="M131.36,58.51L132.32,59.06L132.53,59.14L132.71,59.14"/><path d="M131.85,44.80L131.79,44.80L131.41,44.33L131.41,44.07L131.36,43.77L131.36,42.66L131.12,42.80L130.92,42.96L130.73,43.17L130.58,43.43L130.48,43.70L130.45,43.96L130.45,44.29L130.48,44.55L130.58,44.82L130.73,45.08L130.91,45.30L131.12,45.45L131.41,45.62L131.65,45.72L131.93,45.77L132.23,45.77L132.51,45.72L132.75,45.62L132.99,45.48L132.03,44.93L131.85,44.80L132.17,44.77L132.17,44.25L131.79,43.78L132.13,43.59L131.74,43.62L131.41,43.81L131.79,43.78"/><path d="M131.36,42.66L132.32,43.21L132.53,43.37L132.71,43.58L132.86,43.84L132.96,44.11L132.99,44.37L132.99,45.48"/><path d="M130.90,18.20L130.91,18.19"/><path d="M150.11,16.35L150.67,16.85L151.11,17.05L151.56,17.43L151.88,17.83L152.08,18.24L152.15,18.59L152.19,19.51L152.15,20.43L152.08,20.78L151.88,21.20L151.56,21.59L151.24,21.87L151.11,21.97L150.67,22.17L150.11,22.67L149.38,23.02L148.83,23.46L148.06,23.78L147.45,24.20L146.57,24.52L146.23,24.77L145.56,25.03L144.87,25.21L144.15,25.33L143.54,25.37L141.94,25.39L140.33,25.37L139.72,25.33L139.00,25.21L138.31,25.03L137.64,24.77L137.31,24.52L136.42,24.20L135.81,23.78L135.05,23.46L134.49,23.02L133.76,22.67L133.20,22.17L132.77,21.97L132.31,21.59L131.99,21.20L131.79,20.78L131.72,20.43L131.68,19.51L131.72,18.59L131.79,18.24L131.99,17.82L132.31,17.43L132.77,17.05L130.41,18.59"/><path d="M131.47,84.57L131.79,84.81L133.19,85.74L133.19,89.26L133.00,88.91L132.61,88.61"/><path d="M132.17,58.11L132.18,58.62L131.79,58.66L131.41,58.18L131.41,57.70"/><path d="M132.18,58.62L132.51,58.43L132.51,57.92"/><path d="M132.17,44.25L132.51,44.06L132.13,43.59"/><path d="M132.17,44.77L132.51,44.57L132.51,44.06"/><path d="M131.41,44.07L131.41,43.81"/><path d="M133.19,89.26L136.25,91.02"/><path d="M133.19,85.74L134.46,86.59L136.25,87.64"/><path d="M133.38,71.85L133.51,71.95L133.70,72.03L133.92,72.07L134.16,72.07L134.38,72.03L134.57,71.95L134.71,71.84L134.78,71.72L134.78,71.59L134.70,71.46L134.57,71.35L134.38,71.27L134.16,71.23L133.92,71.23L133.70,71.27L133.51,71.35L133.38,71.46L133.31,71.58L133.31,71.72L133.38,71.85"/><path d="M139.10,70.57L138.21,70.42L136.47,70.01L134.86,69.44L133.42,68.74L133.06,68.50"/><path d="M133.47,58.24L134.70,57.54L133.59,58.17"/><path d="M134.30,56.46L133.85,56.17L133.60,55.74L133.51,55.16L133.60,54.47L133.85,53.76L134.24,53.08L134.74,52.50L135.28,52.09L135.83,51.88L136.33,51.89L136.65,52.04L136.30,51.96L135.90,52.02L135.48,52.20L135.05,52.50L134.65,52.91L134.30,53.39L134.02,53.92L133.82,54.47L133.72,55.01L133.72,55.51L133.82,55.93L134.02,56.25L134.30,56.46L134.65,56.54L135.05,56.49L135.48,56.30L135.90,56.00L136.30,55.60L136.51,55.31L136.65,55.11L136.93,54.58L137.13,54.03L137.23,53.49L137.23,53.00L137.13,52.58L136.93,52.25L136.65,52.04"/><path d="M133.59,50.82L133.51,50.28L133.60,49.60L133.85,48.88L134.24,48.20L134.74,47.63L135.28,47.21L135.83,47.00L136.33,47.01L136.65,47.17L136.30,47.09L135.90,47.14L135.48,47.32L135.05,47.63L134.65,48.03L134.30,48.51L134.05,48.99L133.82,49.60L133.72,50.14L133.72,50.63L133.82,51.05L134.02,51.37L134.30,51.58L133.85,51.29L133.60,50.86L133.59,50.82"/><path d="M133.43,21.58L133.02,21.20L132.77,20.81L132.67,20.40L132.67,18.79L132.77,18.38L133.02,17.99L133.39,17.64L134.90,16.60L136.57,15.64L138.38,14.78L139.00,14.56L139.67,14.42L140.38,14.36L143.49,14.36L144.20,14.42L144.88,14.56L145.49,14.78L146.86,15.42L148.16,16.11L149.36,16.85L150.48,17.64L150.85,17.99L151.10,18.38L151.20,18.79L151.20,20.40L151.10,20.81L150.85,21.20L150.48,21.55L148.97,22.59L147.30,23.55L145.49,24.41L144.87,24.62L144.20,24.76L143.49,24.82L140.38,24.82L139.67,24.76L139.00,24.62L138.38,24.41L137.01,23.77L135.72,23.08L134.51,22.33L133.43,21.58"/><path d="M151.20,18.79L151.20,18.62L151.10,18.21L150.85,17.82L150.48,17.47L149.36,16.68L148.16,15.94L146.86,15.25L145.49,14.61L144.88,14.39L144.20,14.25L143.49,14.19L140.38,14.19L139.67,14.25L139.00,14.39L138.38,14.61L136.57,15.47L134.90,16.43L133.39,17.47L133.02,17.82L132.77,18.21L132.67,18.62L132.67,18.79"/><path d="M132.77,17.05L133.20,16.85L133.76,16.35"/><path d="M133.21,16.84L133.18,16.86"/><path d="M134.30,51.58L134.65,51.66L135.05,51.61L135.48,51.43L135.90,51.12L136.30,50.72L136.65,50.24L136.93,49.70L137.13,49.15L137.23,48.61L137.23,48.12L137.13,47.70L136.93,47.37L136.65,47.17"/><path d="M134.61,46.42L134.82,46.55L135.08,46.55L135.38,46.44L135.68,46.21L135.94,45.90L136.15,45.54L136.29,45.15L136.34,44.78L136.29,44.46L136.15,44.23L135.94,44.11L135.68,44.10L135.38,44.22L135.08,44.44L134.82,44.75L134.61,45.12L134.47,45.51L134.42,45.88L134.47,46.19L134.61,46.42L134.51,46.37L134.37,46.14L134.33,45.82L134.37,45.45L134.51,45.07L134.72,44.70L134.99,44.39L135.28,44.16L135.58,44.05L135.85,44.05L135.94,44.11"/><path d="M134.70,46.48L134.82,46.55"/><path d="M135.05,15.56L134.49,16.00L133.99,16.24"/><path d="M134.70,57.54L137.12,56.16L137.11,56.15L135.80,56.91"/><path d="M135.70,55.65L135.65,55.63L135.77,55.00L135.79,54.56L135.79,54.31L135.74,53.82L135.61,53.06L135.80,52.94L135.96,53.95L135.98,54.42L135.98,54.66L135.94,55.11L135.80,55.71L135.70,55.65"/><path d="M135.65,55.63L135.61,55.82L135.80,55.71"/><path d="M135.70,50.89L135.61,50.94L135.65,50.75L135.80,50.84L135.70,50.89"/><path d="M135.80,50.84L135.94,50.23L135.98,49.79L135.98,49.57L135.96,49.07L135.80,48.06L135.61,48.18L135.74,48.94L135.79,49.65L135.77,50.11L135.65,50.75"/><path d="M135.48,44.67L135.48,44.89L135.43,44.69L135.63,44.58L135.75,45.16L135.76,45.44L135.75,45.69L135.63,46.14L135.43,46.25L135.49,46.06L135.63,46.14L135.53,46.21L135.31,46.29"/><path d="M135.49,46.06L135.55,45.80L135.57,45.55L135.55,45.27L135.48,44.89"/><path d="M135.59,46.16L135.74,46.05"/><path d="M135.43,46.25L135.50,46.22"/><path d="M135.78,15.26L136.26,14.93"/><path d="M136.91,99.66L136.52,99.61L136.57,99.45L136.64,99.28L136.72,99.15L138.30,97.56L138.76,97.24L139.36,97.00L140.05,96.88L140.78,96.88L141.47,97.00L142.07,97.24L142.52,97.56L144.05,99.08L144.13,99.18L144.22,99.34L144.31,99.61L143.34,99.73L141.74,99.85L140.12,99.87L138.50,99.81L136.91,99.66"/><path d="M136.52,99.61L138.30,97.84L138.76,97.52L139.36,97.28L139.46,97.26L140.05,97.16L140.78,97.16L141.47,97.28L142.07,97.52L142.52,97.84L144.31,99.61"/><path d="M138.21,94.70L138.19,94.70L138.01,94.80L138.06,94.77L138.17,94.57L138.21,94.31L138.17,93.99L138.06,93.66L137.88,93.35L137.65,93.09L137.40,92.90L137.15,92.80L136.92,92.80L136.74,92.91L136.63,93.11L136.59,93.37L136.63,93.69L136.74,94.02L136.92,94.33L137.15,94.59L137.40,94.78L137.66,94.88L137.88,94.88L138.01,94.80L137.91,94.86L137.97,94.90"/><path d="M136.62,41.90L135.91,41.48L136.03,41.57L136.13,41.70L136.22,41.84L136.27,42.00L136.29,42.15L136.29,42.81L136.62,43.00"/><path d="M136.70,40.93L136.67,40.94L136.71,40.91"/><path d="M137.97,95.78L138.35,95.99"/><path d="M137.91,94.86L137.88,94.88"/><path d="M137.46,93.95L137.23,94.08L137.57,94.27L137.73,94.03L137.66,93.85L137.64,93.84L137.46,93.95"/><path d="M137.23,94.08L137.07,93.65L137.36,93.48L137.23,93.41L137.07,93.65"/><path d="M137.64,93.84L137.55,93.59L137.57,93.60L137.66,93.85"/><path d="M137.36,93.48L137.55,93.59"/><path d="M137.97,93.32L137.92,93.06L137.83,92.84L137.69,92.67L137.57,92.59L137.46,92.55L137.35,92.56L136.97,92.77L137.07,92.63L137.15,92.60L137.07,92.72"/><path d="M136.97,92.77L136.92,92.80"/><path d="M137.15,92.60L137.30,92.54L137.40,92.54L137.46,92.55"/><path d="M137.97,88.62L138.98,89.15"/><path d="M137.12,56.16L137.18,56.10L137.19,56.03L137.17,55.99"/><path d="M137.19,56.03L137.19,54.28L137.24,54.25L137.24,45.10L138.93,45.83L139.03,45.86L139.14,45.88L139.26,45.87L139.37,45.85L139.46,45.81L140.55,45.18L140.55,45.74L140.92,45.92L140.92,45.11L140.39,45.11L140.55,45.18"/><path d="M137.17,56.12L137.15,56.14"/><path d="M137.19,54.28L137.19,53.74"/><path d="M137.19,52.80L137.19,48.86"/><path d="M137.19,47.93L137.19,45.32L137.19,45.71"/><path d="M137.19,44.68L137.40,44.73L137.19,44.86L137.19,44.68L137.19,45.32L137.19,42.68"/><path d="M137.40,44.73L137.74,44.82L137.24,45.10"/><path d="M140.39,45.11L140.16,45.10L138.95,45.02L137.74,44.82"/><path d="M137.19,45.12L137.19,44.86"/><path d="M142.33,101.83L141.64,102.11L140.84,102.26L139.99,102.26L139.59,102.19L139.19,102.11L138.50,101.83"/><path d="M142.63,101.59L140.41,101.67L138.21,101.59"/><path d="M138.98,96.35L142.81,96.35L142.81,89.36L146.06,89.36L146.06,85.39L146.20,85.39L161.56,76.58"/><path d="M138.22,94.68L138.19,94.70"/><path d="M138.72,75.97L138.99,76.02L138.89,76.00"/><path d="M138.99,76.02L139.16,76.04L139.13,76.04"/><path d="M139.10,70.04L139.26,70.04L139.37,70.01L139.46,69.97L140.55,69.35L140.55,68.80"/><path d="M139.55,98.37L139.50,98.54L139.55,98.70L139.67,98.85L139.88,98.96L140.13,99.04L140.41,99.06L140.70,99.04L140.95,98.96L141.15,98.85L141.28,98.70L141.33,98.54L141.28,98.38L141.15,98.23L140.95,98.12L140.70,98.04L140.41,98.02L140.13,98.04L139.88,98.12L139.67,98.23L139.55,98.37"/><path d="M139.36,89.36L142.81,89.36"/><path d="M139.36,85.39L146.06,85.39"/><path d="M139.22,85.39L139.22,84.50"/><path d="M139.36,80.38L146.06,80.38L146.06,84.42"/><path d="M139.16,76.04L139.42,76.08L141.43,76.21L143.45,76.17L145.44,75.95L144.64,76.04"/><path d="M140.92,71.48L142.95,71.48L142.95,68.98L140.92,68.98"/><path d="M140.92,45.92L141.54,45.92"/><path d="M140.92,45.11L141.94,45.13L142.95,45.11"/><path d="M141.43,76.21L141.32,76.20"/><path d="M142.43,76.19L143.45,76.17"/><path d="M142.34,68.23L142.34,68.54L142.30,68.61L142.22,68.66L142.12,68.71L142.00,68.73L141.87,68.73L141.75,68.71L141.65,68.66L141.57,68.61L141.53,68.54L141.53,68.23"/><path d="M142.81,96.35L143.77,95.80L144.46,95.68L146.08,95.21L147.53,94.60L148.79,93.85L148.79,92.92L143.77,95.80"/><path d="M142.95,71.48L144.78,70.57"/><path d="M143.32,68.80L142.95,68.98"/><path d="M143.32,45.18L144.41,45.81L144.51,45.85L144.61,45.87L144.84,45.86L144.94,45.83L147.77,44.61L150.11,43.26L148.22,44.17L147.20,44.54L146.09,44.83L144.92,45.02L143.71,45.10L143.48,45.11"/><path d="M145.44,75.95L147.35,75.57L147.95,75.39L147.35,75.57L146.84,75.67"/><path d="M144.78,70.04L144.94,70.00L147.77,68.77L153.90,65.26L155.23,64.25L155.23,64.44L153.64,65.48L153.64,65.41"/><path d="M145.74,94.67L145.91,94.59L146.03,94.51"/><path d="M146.06,89.36L159.07,81.89L159.07,87.02"/><path d="M146.20,85.39L146.20,84.51"/><path d="M146.06,80.38L161.56,71.48"/><path d="M147.61,14.93L148.09,15.25"/><path d="M148.79,92.92L152.85,90.59L153.18,90.87L153.74,91.13L156.38,92.00L156.49,92.05L156.63,92.15L156.75,92.28L156.84,92.43L157.03,91.88L157.24,90.95L157.29,90.03L157.18,89.10L156.95,88.24L152.85,90.59"/><path d="M147.95,75.39L149.14,75.03L150.77,74.33L150.56,74.42"/><path d="M148.83,15.56L149.38,16.00L149.87,16.23"/><path d="M149.14,75.03L149.35,74.93"/><path d="M149.17,71.85L149.30,71.95L149.49,72.03L149.71,72.07L149.95,72.07L150.16,72.03L150.36,71.95L150.50,71.84L150.57,71.72L150.57,71.59L150.49,71.46L150.36,71.35L150.17,71.27L149.95,71.23L149.71,71.23L149.49,71.27L149.30,71.35L149.17,71.46L149.10,71.58L149.10,71.72L149.17,71.85"/><path d="M149.97,54.54L149.97,52.55L151.70,51.56L152.32,51.91L150.60,52.90L150.60,54.90L149.97,54.54"/><path d="M149.97,52.55L150.60,52.90"/><path d="M150.11,43.26L150.36,43.15L152.32,42.02L152.52,41.88L153.90,41.09L156.03,39.47L156.08,39.41L156.11,39.35L156.10,39.28L156.07,39.23L155.99,39.17L155.57,38.93L155.25,39.57L154.76,40.21L154.10,40.80L152.52,41.88"/><path d="M150.77,74.33L152.19,73.52L153.39,72.58L153.67,72.29"/><path d="M150.82,68.49L151.68,67.91L152.67,66.99L153.39,65.99L153.64,65.48"/><path d="M150.60,54.90L152.32,53.91L152.32,51.91"/><path d="M150.66,16.84L150.69,16.86"/><path d="M151.11,17.05L153.48,18.60"/><path d="M153.39,72.58L152.93,72.95"/><path d="M153.06,18.26L153.02,18.23"/><path d="M154.47,90.63L154.68,90.69L154.96,90.72L155.24,90.69L155.50,90.62L155.70,90.50L155.83,90.36L155.88,90.20L155.83,90.03L155.70,89.89L155.50,89.77L155.24,89.70L154.96,89.67L154.68,89.70L154.43,89.77L154.22,89.89L154.09,90.03L154.05,90.20L154.09,90.36L154.22,90.50L154.47,90.63"/><path d="M155.40,69.10L155.38,69.32L155.01,70.46L154.84,70.74"/><path d="M155.46,68.16L155.45,69.08"/><path d="M155.44,68.53L155.46,68.20"/><path d="M155.46,66.83L155.23,65.68L154.79,64.73"/><path d="M155.23,64.25L155.38,64.13"/><path d="M156.11,36.14L156.10,36.21L156.06,36.27L155.77,36.45L155.77,37.19L155.73,38.21L155.57,38.93"/><path d="M156.11,58.95L156.11,60.31"/><path d="M156.11,57.95L156.11,39.35"/><path d="M155.77,35.83L155.77,36.45"/><path d="M160.56,73.65L160.70,73.66L160.58,73.65L160.32,73.75L160.06,73.95L159.81,74.23L159.63,74.55L159.50,74.91L159.46,75.24L159.50,75.51L159.62,75.73L159.72,75.79L159.86,75.79L160.09,75.93L160.00,75.87L159.88,75.67L159.84,75.41L159.88,75.09L160.00,74.76L160.18,74.45L160.40,74.19L160.65,74.00L160.90,73.90L161.13,73.90L161.08,73.88L161.02,73.76L160.82,73.65L160.92,73.71L160.99,73.82L161.08,73.88"/><path d="M159.86,75.79L159.56,75.62L159.50,75.51"/><path d="M160.09,75.93L160.18,75.98L160.40,75.98L160.65,75.88L160.90,75.69L161.13,75.43L161.31,75.12L161.43,74.79L161.47,74.47L161.43,74.20L161.31,74.01L161.13,73.90"/><path d="M159.95,75.85L159.81,75.85L159.72,75.79"/><path d="M160.78,75.16L160.82,75.18L160.49,75.37L160.32,75.13L160.39,74.95L160.41,74.94L160.78,75.16"/><path d="M160.82,75.18L160.99,74.75L160.69,74.58L160.82,74.51L160.99,74.75"/><path d="M160.41,74.94L160.51,74.69L160.69,74.58"/><path d="M160.51,74.69L160.49,74.70L160.39,74.95"/><path d="M160.99,73.82L160.70,73.66L160.82,73.65"/><path d="M161.56,80.43L161.56,80.46"/></g><g style="stroke:#000000;stroke-width:0.529"><path d="M161.56,80.46L159.07,81.89L159.07,87.02L156.95,88.24L157.20,89.15L157.33,90.19L157.33,91.97L157.19,93.24L156.75,94.48L156.04,95.68L155.06,96.82L153.84,97.88L152.38,98.83L150.71,99.67L148.87,100.37L146.84,100.94L144.79,101.34L142.63,101.59L142.33,101.83L142.23,101.88L141.58,102.15L140.82,102.29L140.01,102.29L139.25,102.15L138.60,101.88L138.50,101.83L138.20,101.59L136.04,101.34L133.94,100.93L131.96,100.37L130.12,99.67L128.45,98.83L126.99,97.88L125.76,96.82L124.78,95.68L124.07,94.48L123.64,93.24L123.50,91.97L123.50,90.53L123.55,89.60L123.77,88.56L123.99,87.96L124.13,87.66L124.64,86.78L124.38,86.56L124.38,86.32L123.78,85.97L123.70,85.83L123.67,85.64L123.67,85.49L123.50,85.24L123.67,84.81L123.67,84.48L123.47,84.35L123.43,84.29L123.43,76.25L123.47,76.19L123.67,76.06L123.68,75.29L123.50,75.05L123.78,74.33L123.83,74.30L123.67,74.12L123.67,73.58L123.52,73.43L123.52,72.54L123.67,72.46L123.67,68.58L128.67,65.71L128.86,65.11L129.10,64.73L128.64,64.44L128.64,64.25L127.84,63.64L127.79,63.58L127.76,63.52L127.76,57.03L123.02,54.31L122.92,54.14L122.89,53.92L122.89,53.66L122.64,53.47L122.45,53.25L122.30,53.00L122.21,52.73L122.17,52.40L121.94,52.27L121.76,52.13L121.67,51.97L121.67,39.71L121.76,39.55L121.94,39.41L122.17,39.28L122.17,38.17L122.21,37.95L122.30,37.78L122.93,37.42L123.12,37.42L123.32,37.50L123.47,37.58L127.14,35.47L127.17,35.46L127.23,35.47L127.99,35.91L128.10,35.83L128.10,30.25L128.14,29.23L128.30,28.52L128.30,22.33L128.34,21.31L128.47,20.70L128.81,19.98L129.37,19.28L130.41,18.59L130.60,18.42L130.90,18.20L133.76,16.35L133.99,16.24L135.05,15.56L135.80,15.24L135.79,15.25"/><path d="M136.08,15.05L136.42,14.82L137.31,14.50L137.64,14.25L138.31,13.99L139.00,13.81L139.72,13.69L140.33,13.65L141.94,13.63L143.54,13.65L144.15,13.69L144.87,13.81L145.56,13.99L146.23,14.25L146.57,14.50L147.45,14.82L148.09,15.25L148.83,15.56L149.87,16.23L150.11,16.35L153.14,18.32L153.48,18.60L154.51,19.29L155.06,19.98L155.41,20.70L155.53,21.31L155.57,22.33L155.57,28.52L155.73,29.23L155.77,30.25L155.77,35.83L156.03,36.02L156.08,36.08L156.11,36.14L156.11,57.95"/><path d="M136.10,15.04L135.80,15.24"/><path d="M156.11,58.95L156.11,63.52L156.08,63.58L156.03,63.64L155.38,64.13L158.58,65.84L161.56,67.64L161.56,71.52L161.71,71.61L161.71,71.63"/><path d="M161.56,80.43L161.56,76.58L161.71,76.50L161.71,76.47"/><path d="M161.71,76.50L161.71,75.52"/><path d="M161.71,75.61L161.71,71.61"/><path d="M161.56,67.64L161.56,67.70"/></g></g><g id="Actor_1.2"><g style="stroke:#000000;stroke-width:0.176"><path d="M138.98,173.59L138.98,171.37L107.40,153.26"/><path d="M141.76,143.49L142.71,143.53L144.97,143.79L147.15,144.21L149.21,144.79L151.12,145.53L152.85,146.40L154.37,147.39L155.65,148.49L156.67,149.67L157.41,150.92L157.86,152.22L158.01,153.53L157.86,154.85L157.41,156.15L156.67,157.39L155.65,158.58L154.37,159.68L152.85,160.67L151.12,161.54L149.21,162.27L147.15,162.86L144.97,163.28L142.71,163.54L140.39,163.62L138.12,163.54L135.86,163.28L133.68,162.86L131.62,162.27L129.70,161.54L127.97,160.67L126.46,159.68L125.18,158.58L124.16,157.40L123.42,156.15L122.97,154.85L122.82,153.53L122.97,152.22L123.42,150.92L124.16,149.67L125.18,148.49L126.46,147.39L127.97,146.40L129.70,145.53L131.62,144.79L133.68,144.21L135.86,143.79L138.12,143.53L139.06,143.49"/><path d="M122.84,153.70L122.97,152.55L123.42,151.25L124.16,150.00L125.18,148.82L126.46,147.72L127.97,146.73L129.70,145.86L131.62,145.13L133.68,144.54L135.86,144.12L138.12,143.86L139.06,143.83"/><path d="M139.40,160.81L138.51,160.77L136.65,160.51L134.88,160.09L133.25,159.52L131.80,158.81L130.56,157.97L129.56,157.04L128.83,156.02L128.38,154.96L128.23,153.87L128.38,152.77L128.83,151.71L129.56,150.69L130.56,149.76L131.80,148.93L133.25,148.21L134.88,147.64L136.65,147.22L138.51,146.97L140.41,146.88L142.32,146.97L144.18,147.22L145.94,147.64L147.57,148.21L149.03,148.93L150.27,149.76L151.27,150.69L152.00,151.71L152.44,152.77L152.59,153.87L152.44,154.96L152.00,156.02L151.26,157.04L150.27,157.97L149.03,158.81L147.57,159.52L145.94,160.09L144.18,160.51L142.32,160.77L141.47,160.80"/><path d="M128.27,154.14L128.38,153.33L128.83,152.26L129.56,151.25L130.56,150.32L131.80,149.48L133.25,148.77L134.88,148.20L136.65,147.78L138.51,147.52L140.41,147.43L142.32,147.52L144.18,147.78L145.94,148.20L147.57,148.77L149.03,149.48L150.27,150.32L151.27,151.25L152.00,152.26L152.44,153.33L152.56,154.14"/><path d="M151.16,155.01L151.23,154.68L151.16,153.65L150.79,152.65L150.14,151.69L149.22,150.81L148.07,150.03L146.70,149.37L145.17,148.84L143.50,148.47L141.75,148.26L139.97,148.22L138.19,148.34L136.48,148.63L134.87,149.09L133.42,149.68L132.15,150.41L131.11,151.24L130.33,152.16L129.82,153.15L129.60,154.16L129.67,155.16"/><path d="M138.98,171.37L171.51,152.71"/><path d="M157.99,153.70L157.86,152.55L157.41,151.25L156.67,150.00L155.65,148.82L154.37,147.72L152.85,146.73L151.12,145.86L149.21,145.13L147.15,144.54L144.97,144.12L142.71,143.86L141.62,143.82"/></g><g style="stroke:#000000;stroke-width:0.529"><path d="M108.20,155.94L107.40,155.48L107.40,153.26L139.94,134.60L171.51,152.71L171.51,154.93L138.98,173.59L108.20,155.94"/><path d="M141.59,160.57L142.64,160.50L144.35,160.21L145.96,159.75L147.41,159.16L148.68,158.43L149.71,157.60L150.50,156.68L151.01,155.69L151.16,155.01L150.79,153.98L150.14,153.02L149.22,152.14L148.07,151.36L146.70,150.70L145.17,150.17L143.50,149.80L141.75,149.59L139.97,149.55L139.12,149.61L138.19,149.67L136.48,149.97L134.87,150.42L133.42,151.01L132.15,151.74L131.11,152.57L130.33,153.49L129.82,154.48L129.67,155.16L130.04,156.19L130.69,157.15L131.60,158.03L132.76,158.81L134.12,159.47L135.66,160.00L137.32,160.37L139.06,160.58"/></g></g><g id="Actor_2.0"><g style="stroke:#000000;stroke-width:0.176"><path d="M173.23,165.10L174.01,165.55L174.27,165.13L174.44,164.75L174.33,165.14L174.29,165.51L174.33,165.83L174.44,166.08L174.27,165.85L174.01,165.55"/><path d="M174.67,163.84L174.57,164.34L174.44,164.75L174.63,164.37L174.87,164.02L175.15,163.73L175.44,163.52L175.11,163.68L174.67,163.84L173.89,163.39L173.32,164.88"/><path d="M176.00,163.08L175.72,163.33L175.44,163.52L175.73,163.39L176.01,163.37L176.25,163.44L176.43,163.61L176.55,163.87L176.59,164.19L176.55,164.56L176.43,164.94L176.25,165.32L176.01,165.67L175.73,165.97L175.44,166.18L175.14,166.30L174.86,166.33L174.62,166.25L174.44,166.08L174.57,166.29L174.67,166.50"/><path d="M173.39,165.33L173.56,165.58L173.57,165.59"/><path d="M173.56,165.58L173.61,165.65"/><path d="M173.80,163.64L173.59,163.96L173.49,164.21L173.41,164.45L173.35,164.79"/><path d="M174.57,163.01L174.56,163.01L174.11,163.27L174.23,163.15L174.41,163.03"/><path d="M174.11,163.27L173.89,163.39"/><path d="M174.56,163.01L174.85,162.85"/></g><g style="stroke:#000000;stroke-width:0.529"><path d="M171.51,161.36L174.41,163.03L174.61,162.91L174.85,162.85L175.22,162.63L176.00,163.08L176.26,163.38L176.43,163.61L176.56,163.82L176.66,164.03L176.56,164.54L176.43,164.94L176.26,165.32L176.00,165.74L175.72,165.99L175.44,166.18L175.11,166.34L174.67,166.50L173.89,166.05L173.61,165.65L173.56,165.62L173.39,165.32L173.23,165.10L173.32,164.88L170.51,163.27"/></g></g><g id="Actor_3.0"><g style="stroke:#000000;stroke-width:0.176"><path d="M163.74,160.28L164.10,160.43L164.15,160.44L163.34,159.98"/><path d="M164.15,160.44L164.33,160.54L165.80,160.32L165.65,160.39L165.15,160.51L164.62,160.52L164.56,160.51"/><path d="M164.33,160.54L164.33,159.64L163.97,159.34L163.90,159.30"/><path d="M164.33,159.64L164.82,159.48L165.24,159.39L164.82,159.42L164.40,159.39L164.00,159.29L163.95,159.27"/><path d="M165.61,159.30L165.24,159.39L165.65,159.35L166.14,159.36L166.27,158.99L166.38,158.73L166.23,158.95L165.96,159.14L165.62,159.29L165.61,159.30"/><path d="M166.14,160.27L166.14,159.36"/><path d="M165.80,160.32L165.89,160.30"/><path d="M166.44,159.63L166.44,159.63"/><path d="M166.44,159.63L166.27,159.99"/><path d="M166.18,157.99L166.22,158.02L166.39,158.25L166.44,158.49L166.38,158.73L166.50,158.52L166.63,158.33"/></g><g style="stroke:#000000;stroke-width:0.529"><path d="M163.74,160.28L163.67,160.25L163.36,160.00L163.34,159.98L163.03,159.80"/><path d="M165.89,160.91L165.89,161.51"/><path d="M166.19,157.98L166.27,158.03L166.63,158.33L166.63,159.23L166.44,159.63L166.44,159.63L166.33,159.93L166.27,159.99L166.14,160.27L165.89,160.30"/></g></g><g id="Actor_4.0"><g style="stroke:#000000;stroke-width:0.176"><path d="M166.84,159.64L166.71,160.02L166.37,160.35L165.86,160.59L165.23,160.73L164.56,160.75L163.92,160.64L163.38,160.42L162.99,160.11L162.88,159.88"/></g><g style="stroke:#000000;stroke-width:0.529"><path d="M166.63,159.10L166.76,159.26L166.84,159.64L166.84,159.97L166.71,160.35L166.37,160.68L165.86,160.93L165.23,161.07L164.56,161.08L163.92,160.97L163.38,160.75L163.08,160.51"/><path d="M162.89,160.24L162.80,160.07L162.80,159.92"/></g></g><g id="Actor_1.3"><g style="stroke:#000000;stroke-width:0.176"><path d="M107.40,161.57L128.45,173.65L128.45,177.42"/><path d="M114.52,161.95L114.16,161.79L113.80,161.73L113.43,161.73L113.08,161.79L112.78,161.92L112.56,162.09L112.45,162.29L112.45,162.47L112.45,162.50L112.56,162.70L112.78,162.88L113.67,163.39"/><path d="M118.35,165.81L118.59,165.81L118.94,165.75L119.24,165.62L119.46,165.45L119.57,165.25L119.57,165.04L119.46,164.83L119.24,164.66L117.99,163.94"/><path d="M128.45,175.74L128.45,177.47"/><path d="M128.45,175.84L131.32,177.49L131.32,179.15"/><path d="M128.45,173.65L128.45,174.63L128.45,173.65"/><path d="M131.32,177.49L135.15,177.49L138.98,179.69L138.98,181.35"/><path d="M140.27,154.65L140.27,152.98L131.55,157.98"/><path d="M135.57,174.02L135.21,173.87L134.86,173.80L134.49,173.80L134.13,173.87L133.84,173.99L133.62,174.16L133.50,174.37L133.50,174.58L133.62,174.78L133.84,174.95L134.73,175.46"/><path d="M135.15,179.15L135.15,177.49"/><path d="M138.98,179.69L147.59,174.75"/><path d="M139.05,176.02L140.29,176.74L140.51,176.91L140.63,177.11L140.63,177.32L140.51,177.52L140.29,177.70L139.99,177.82L139.64,177.89L139.40,177.89"/><path d="M140.27,152.98L149.13,158.07"/><path d="M162.90,167.63L162.90,165.96L158.58,163.49"/><path d="M162.90,165.96L171.51,161.02"/><path d="M167.15,161.97L167.39,161.97L167.75,161.90L168.05,161.78L168.26,161.61L168.38,161.41L168.38,161.20L168.26,160.99L168.05,160.82L166.80,160.10"/><path d="M167.69,158.83L167.69,158.30L167.69,158.83"/><path d="M167.69,158.30L167.69,157.12"/></g><g style="stroke:#000000;stroke-width:0.529"><path d="M128.45,177.42L128.45,177.51L128.45,175.31L107.40,163.24L107.40,161.57L112.18,158.83"/><path d="M114.00,163.57L113.67,163.39L113.80,163.39L114.01,163.43"/><path d="M117.09,165.09L118.35,165.81L118.22,165.81L117.87,165.75L117.57,165.62L116.33,164.91"/><path d="M143.09,172.16L147.59,174.75L147.59,176.41L138.98,181.35L135.15,179.15L131.32,179.15L128.45,177.51L128.45,177.47"/><path d="M147.77,158.95L140.27,154.65L132.89,158.88"/><path d="M135.06,175.50L134.86,175.46L134.73,175.46L135.05,175.65"/><path d="M137.38,176.99L138.62,177.70L138.92,177.82L139.27,177.89L139.40,177.89L138.14,177.16"/><path d="M167.69,157.12L167.69,158.83L171.51,161.02L171.51,162.69L162.90,167.63L157.18,164.35"/><path d="M165.89,161.25L167.15,161.97L167.02,161.97L166.67,161.90L166.37,161.78L165.13,161.07"/></g></g><g id="Actor_1.4"><g style="stroke:#000000;stroke-width:0.176"><path d="M139.46,173.31L139.46,174.47"/></g><g style="stroke:#000000;stroke-width:0.529"><path d="M112.18,158.22L112.18,158.83L117.00,161.59"/><path d="M117.32,161.77L138.05,173.67"/><path d="M138.37,173.85L139.46,174.47L140.41,173.92L140.41,173.90"/></g></g><g id="Actor_1.5"><g style="stroke:#000000;stroke-width:0.176"><path d="M167.78,164.87L167.78,164.83"/><path d="M169.14,159.66L171.61,158.24"/></g><g style="stroke:#000000;stroke-width:0.529"><path d="M170.54,163.29L167.78,164.87L167.74,164.85"/><path d="M168.67,156.56L171.61,158.24L171.61,161.42"/></g></g><g id="Actor_2.1"><g style="stroke:#000000;stroke-width:0.176"><path d="M121.96,177.06L121.98,176.75L122.08,176.43L122.25,176.12L122.47,175.85L122.72,175.66"/><path d="M137.45,186.52L137.71,186.82L137.89,187.05L137.77,186.80L137.73,186.48L137.77,186.10L137.89,185.72L137.71,186.10L137.45,186.52L136.68,186.07"/><path d="M137.08,186.65L136.85,186.33"/><path d="M136.80,185.70L136.81,185.58L136.96,185.09L137.22,184.62L137.25,184.58L136.80,185.75L136.80,185.70"/><path d="M136.80,185.75L136.77,185.84"/><path d="M138.12,187.47L138.02,187.26L137.89,187.05L138.07,187.22L138.31,187.30L138.58,187.27L138.88,187.15L139.18,186.93L139.46,186.64L139.70,186.29L139.88,185.91L139.99,185.53L140.03,185.16L139.99,184.83L139.88,184.58L139.70,184.41L139.46,184.34L139.18,184.36L138.88,184.49L138.59,184.70L138.31,184.99L138.07,185.35L137.89,185.72L138.02,185.32L138.12,184.81L137.34,184.36L137.25,184.58"/><path d="M137.34,184.36L138.32,183.80"/><path d="M137.86,183.99L137.55,184.22L137.53,184.25"/><path d="M139.44,184.05L139.16,184.30L138.88,184.49L138.56,184.65L138.12,184.81"/></g><g style="stroke:#000000;stroke-width:0.529"><path d="M125.40,176.84L123.19,175.58L122.97,175.56L122.72,175.66L122.61,175.72L122.40,175.89L122.21,176.11L122.06,176.38L121.97,176.67L121.96,176.93L121.96,177.06L122.02,177.30L122.16,177.47L124.34,178.72"/><path d="M133.28,181.36L137.86,183.99L137.93,183.94L138.30,183.80L138.32,183.80L138.67,183.60L139.44,184.05L139.70,184.35L139.88,184.58L140.01,184.79L140.11,185.00L140.01,185.51L139.88,185.91L139.70,186.29L139.44,186.71L139.16,186.96L138.88,187.15L138.55,187.31L138.12,187.47L137.34,187.02L137.08,186.65L136.87,186.41L136.85,186.33L136.68,186.07L136.77,185.84L132.20,183.22"/></g></g><g id="Actor_3.1"><g style="stroke:#000000;stroke-width:0.176"><path d="M114.93,164.12L115.30,164.27L115.34,164.28L114.54,163.82"/><path d="M115.59,161.43L115.59,161.43L115.20,161.52L114.86,161.67L114.60,161.86L114.44,162.09L114.39,162.32L114.44,162.57L114.61,162.80L114.86,162.99L115.17,163.19L115.53,163.49L115.53,164.39L115.34,164.28"/><path d="M115.59,161.43L116.01,161.40L116.43,161.43L116.83,161.52L117.16,161.67L117.42,161.86L117.58,162.09L117.64,162.33L117.58,162.57L117.42,162.79L117.16,162.99L116.82,163.14L116.43,163.23L116.02,163.26L115.59,163.23L115.20,163.13L114.86,162.99L114.56,162.84L114.20,162.72"/><path d="M115.78,164.35L117.00,164.16L116.84,164.24L116.35,164.35L115.81,164.36L115.76,164.35L115.78,164.35"/><path d="M115.76,164.35L115.53,164.39"/><path d="M115.53,163.49L116.02,163.32L116.43,163.23L116.85,163.19L117.34,163.21L117.47,162.83L117.58,162.57L117.69,162.36L117.82,162.17"/><path d="M117.00,164.16L117.09,164.15"/><path d="M117.34,164.11L117.34,163.21"/><path d="M117.63,163.47L117.47,163.83"/><path d="M117.63,163.47L117.63,163.47"/></g><g style="stroke:#000000;stroke-width:0.529"><path d="M114.93,164.12L114.86,164.09L114.55,163.85L114.54,163.82L114.20,163.63L114.20,162.72L114.33,162.35L114.44,162.09L114.55,161.87L114.69,161.69L115.18,161.52L115.59,161.43"/><path d="M117.09,164.15L117.34,164.11L117.47,163.83L117.52,163.77L117.63,163.47L117.82,163.07L117.82,162.17L117.47,161.87L117.16,161.67L116.86,161.52L116.50,161.41L116.01,161.39L115.59,161.43"/><path d="M117.09,165.35L117.09,164.75"/></g></g><g id="Actor_4.1"><g style="stroke:#000000;stroke-width:0.176"><path d="M139.09,175.56L138.96,175.93L138.61,176.26L138.10,176.51L137.48,176.65L136.81,176.67L136.17,176.56L135.80,176.41L135.63,176.33L135.24,176.02L135.05,175.66"/></g><g style="stroke:#000000;stroke-width:0.529"><path d="M135.25,175.01L135.08,175.27L135.05,175.66L135.05,175.99L135.24,176.36L135.63,176.67L136.17,176.89L136.81,177.00L137.48,176.98L138.01,176.87L138.10,176.84L138.61,176.60L138.96,176.27L139.09,175.89L139.09,175.56L139.01,175.18L138.88,175.02"/></g></g><g id="Actor_8.0"><g style="stroke:#000000;stroke-width:0.176"><path d="M142.13,130.11L142.13,128.67L141.95,128.45L141.67,128.15L141.38,127.90L141.29,127.83L141.05,127.69L140.75,127.60L140.41,127.57L140.08,127.60L139.78,127.69L139.54,127.83L139.44,127.90L139.26,128.06L138.97,128.34L138.70,128.67L138.32,128.61L138.28,128.35L138.23,128.01L138.17,127.62L138.08,127.43L137.89,127.27L137.63,127.15L137.32,127.08L136.98,127.07L136.65,127.12L136.50,127.15L136.21,127.24L135.77,127.41L135.34,127.63L135.06,127.47L135.19,127.22L135.38,126.90L135.58,126.62L135.64,126.54L135.73,126.35L135.71,126.16L135.59,125.98L135.38,125.83L135.10,125.72L134.77,125.67L134.61,125.66L134.30,125.65L133.81,125.68L133.34,125.76L133.34,127.20"/><path d="M133.34,125.76L133.24,125.54"/><path d="M133.24,123.57L133.62,123.62L134.02,123.73L134.27,123.82L134.40,123.88L134.64,124.02L134.79,124.19L134.85,124.38L134.79,124.57L134.64,124.75L134.40,124.88L134.27,124.94L133.88,125.12L133.63,125.28"/><path d="M135.34,127.63L135.34,129.07"/><path d="M135.06,127.47L135.06,127.51"/><path d="M144.75,125.31L144.57,125.59L143.91,126.15L143.03,126.59L141.99,126.90L140.85,127.04L139.68,127.02L138.56,126.84L137.56,126.49L136.73,126.02L136.13,125.44L135.81,124.80L135.77,124.13L135.77,121.49"/><path d="M135.06,123.05L135.10,123.04L135.38,122.94L135.59,122.78L135.71,122.60L135.73,122.41L135.64,122.22L135.58,122.14L135.45,121.98L135.25,121.78L135.06,121.65"/><path d="M145.07,124.19L145.07,121.66L144.96,122.33L144.57,122.96L143.91,123.51L143.03,123.95L141.99,124.26L140.85,124.41L139.68,124.38L138.56,124.20L137.56,123.86L136.73,123.38L136.13,122.80L135.81,122.16L135.77,121.49"/><path d="M138.01,122.43L138.01,121.02L137.74,121.52L137.75,122.03L138.07,122.51L138.64,122.91L139.40,123.18L140.28,123.29L141.17,123.23L141.98,123.01L142.62,122.64L143.01,122.18L143.12,121.67L142.92,121.16L142.46,120.72L141.76,120.40L140.92,120.22L140.02,120.21L139.16,120.37L139.16,123.10"/><path d="M138.01,121.02L137.61,120.79L138.76,120.13L138.76,122.96"/><path d="M138.32,128.61L138.32,130.06"/><path d="M138.70,130.11L138.70,128.67"/><path d="M138.76,120.13L139.16,120.37"/><path d="M142.13,128.67L142.51,128.61L142.51,130.06"/><path d="M142.51,128.61L142.56,128.24L142.61,127.90L142.66,127.62L142.75,127.43L142.93,127.27L143.20,127.15L143.51,127.08L143.53,127.08L143.85,127.07L144.18,127.12L144.32,127.15L144.77,127.29L145.20,127.47L145.49,127.63L145.49,129.07"/><path d="M145.49,127.63L145.77,127.47L145.58,127.11L145.38,126.80L145.25,126.62L145.18,126.54L145.10,126.35L145.11,126.16L145.23,125.98L145.45,125.83L145.73,125.72L146.06,125.67L146.22,125.66L146.70,125.66L147.17,125.70L147.48,125.76L147.48,127.20"/><path d="M145.77,123.05L145.73,123.04L145.45,122.94L145.23,122.78L145.11,122.60L145.10,122.41L145.18,122.22L145.25,122.14L145.45,121.91L145.64,121.73L145.77,121.65"/><path d="M145.07,121.66L145.03,121.49"/><path d="M145.77,127.47L145.77,127.51"/><path d="M147.21,125.28L146.81,125.05L146.56,124.94L146.43,124.88L146.27,124.79"/><path d="M147.48,125.76L147.59,125.54"/></g><g style="stroke:#000000;stroke-width:0.529"><path d="M147.59,124.35L147.59,125.02L147.21,125.28L147.59,125.54L147.59,126.99L147.48,127.20L147.02,127.34L146.53,127.43L146.22,127.46L146.06,127.47L145.77,127.51L145.77,128.91L145.49,129.07L145.06,129.07L144.61,129.01L144.32,128.95L144.18,128.91L143.85,128.86L143.51,128.87L143.20,128.94L142.93,129.06L142.75,129.23L142.66,129.41L142.59,129.76L142.55,129.95L142.51,130.06L142.13,130.11L141.86,130.00L141.57,129.84L141.38,129.70L141.29,129.62L141.05,129.49L140.75,129.40L140.41,129.37L140.08,129.40L139.78,129.49L139.54,129.62L139.44,129.70L139.16,129.90L138.88,130.05L138.70,130.11L138.32,130.06L138.27,129.90L138.22,129.68L138.17,129.41L138.08,129.23L137.89,129.06L137.63,128.94L137.32,128.87L136.98,128.86L136.65,128.91L136.50,128.95L136.06,129.04L135.63,129.08L135.34,129.07L135.06,128.91L135.06,127.51L134.77,127.47L134.61,127.46L134.13,127.40L133.66,127.30L133.34,127.20L133.24,126.99L133.24,125.54L133.50,125.36L133.63,125.28L133.50,125.20L133.24,125.02L133.24,123.57L133.34,123.35L133.66,123.26L134.13,123.15L134.61,123.10L134.77,123.09L135.06,123.05L135.06,121.65L135.34,121.49L135.63,121.48L135.77,121.49"/><path d="M145.03,121.49L144.89,121.00L144.43,120.38L143.71,119.85L142.79,119.44L141.71,119.17L140.56,119.07L139.40,119.13L138.30,119.36L137.33,119.74L136.56,120.24L136.03,120.84L135.77,121.49"/><path d="M147.49,123.37L147.48,123.35L147.02,123.22L146.53,123.13L146.22,123.10L146.06,123.09L145.77,123.05L145.77,121.65L145.49,121.49L145.06,121.49L145.03,121.49"/></g></g><g id="Actor_9.0"><g style="stroke:#000000;stroke-width:0.176"><path d="M142.73,205.01L142.73,202.79L142.37,202.23L142.27,202.13L142.14,202.05L141.96,201.99L141.77,201.97L141.58,201.98L140.34,202.06L139.10,201.96L137.94,201.69L136.94,201.27L136.14,200.72L135.60,200.07L135.35,199.37"/><path d="M142.73,202.79L143.80,202.51L144.76,202.12L145.60,201.64L146.27,201.09L146.77,200.48"/><path d="M145.49,200.15L145.47,200.14L145.38,200.04L145.34,199.93L145.35,199.81L145.49,199.10"/></g><g style="stroke:#000000;stroke-width:0.529"><path d="M135.40,198.81L135.35,199.37L135.35,201.59L135.60,202.29L136.14,202.94L136.94,203.49L137.94,203.91L139.10,204.18L140.34,204.28L141.58,204.20L141.77,204.19L141.96,204.21L142.14,204.26L142.27,204.34L142.37,204.44L142.73,205.01L143.80,204.73L144.76,204.34L145.60,203.86L146.27,203.31L146.77,202.69L146.77,200.48L145.78,200.27L145.61,200.21L145.49,200.15L145.49,199.10L145.32,198.39L144.85,197.73L144.47,197.44"/><path d="M135.82,197.92L136.38,197.39"/></g></g><g id="Actor_9.1"><g style="stroke:#000000;stroke-width:0.176"><path d="M143.14,198.00L143.08,197.91L143.06,197.78L143.08,197.62L143.14,197.46L143.23,197.31L143.34,197.18L143.47,197.10L143.59,197.06L143.70,197.08L143.70,197.08"/><path d="M143.50,197.93L143.40,197.98L143.30,197.98L143.23,197.95L143.18,197.87L143.16,197.76L143.18,197.63L143.23,197.50L143.30,197.37L143.40,197.27L143.50,197.20L143.60,197.17L143.69,197.19L143.75,197.24L143.79,197.34L143.79,197.40L143.79,197.46L143.75,197.59L143.69,197.73L143.60,197.84L143.50,197.93"/><path d="M143.59,197.74L143.70,197.45L143.59,197.29L143.37,197.42L143.26,197.71L143.37,197.86L143.59,197.74L143.31,197.58"/><path d="M143.70,197.45L143.50,197.34"/></g><g style="stroke:#000000;stroke-width:0.529"><path d="M143.70,197.08L143.77,197.15L143.80,197.21L143.82,197.27L143.82,197.34L143.82,197.41L143.77,197.57L143.70,197.73L143.59,197.87L143.47,197.98L143.34,198.04L143.23,198.05L143.14,198.00L142.98,197.91"/><path d="M143.70,197.08L143.54,196.99"/></g></g><g id="Actor_7.0"><g style="stroke:#000000;stroke-width:0.176"><path d="M136.02,110.47L136.17,111.12L136.60,111.73L137.18,112.16"/><path d="M138.01,111.16L137.75,110.76L137.73,110.24L138.01,109.75L137.61,109.52L138.76,108.86L138.76,110.41"/><path d="M138.01,110.85L138.01,109.75"/><path d="M138.76,108.86L139.16,109.09L140.01,108.93L140.92,108.94L141.76,109.12L142.46,109.44L142.93,109.89L143.12,110.39L143.02,110.90L142.73,111.25"/><path d="M144.81,110.47L144.66,111.12L144.22,111.73L143.52,112.25L142.61,112.65L141.55,112.90L140.41,112.99L139.37,112.91"/><path d="M139.16,110.64L139.16,109.09"/></g><g style="stroke:#000000;stroke-width:0.529"><path d="M136.02,111.79L136.02,110.47L136.17,109.81L136.60,109.21L137.30,108.68L138.21,108.28L139.28,108.03L140.41,107.94L141.55,108.03L142.61,108.28L143.52,108.68L143.53,108.69L144.22,109.21L144.66,109.81L144.81,110.47L144.81,112.02L144.66,112.67L144.22,113.28L143.52,113.80L142.61,114.20L141.55,114.46L140.41,114.54L139.28,114.46L138.21,114.20L137.30,113.80L136.60,113.28L136.32,112.89"/><path d="M142.73,111.25L142.62,111.37L141.99,111.74L141.18,111.96L140.28,112.02L139.40,111.91L138.63,111.64L138.06,111.24L138.01,111.16L138.01,110.85L138.76,110.41L139.16,110.64L140.01,110.48L140.92,110.49L141.76,110.67L142.46,111.00L142.73,111.25"/></g></g><g id="Actor_9.2"><g style="stroke:#000000;stroke-width:0.176"><path d="M144.13,200.04L143.81,200.42L143.08,200.90L142.16,201.25L141.10,201.44L140.00,201.46L138.92,201.31L137.96,201.00L137.18,200.55L136.70,200.07"/><path d="M144.47,194.79L144.28,195.42L143.81,195.99L143.08,196.47L142.16,196.82L141.10,197.01L140.00,197.03L138.92,196.88L137.96,196.57L137.18,196.12L136.64,195.57L136.38,194.95"/><path d="M142.81,195.43L143.09,194.94L143.07,194.43L142.76,193.94L142.19,193.54L141.42,193.27L140.55,193.16L139.65,193.22L138.84,193.45L138.21,193.81L137.82,194.28L137.71,194.79L137.90,195.29L138.37,195.73L139.07,196.06L139.91,196.24L140.22,196.24L140.81,196.25L141.67,196.09L142.07,196.32L143.22,195.66L142.81,195.43L142.81,195.89"/></g><g style="stroke:#000000;stroke-width:0.529"><path d="M136.38,199.02L136.38,199.39L136.64,200.00L136.70,200.07"/><path d="M136.38,198.04L136.38,194.95L136.41,194.32L136.75,193.71L137.35,193.18L138.19,192.77L139.19,192.49L140.28,192.39L141.38,192.45L142.40,192.68L143.28,193.07L143.95,193.57L144.36,194.16L144.47,194.79L144.47,199.23L144.28,199.85L144.13,200.04"/></g></g><g id="Actor_4.2"><g style="stroke:#000000;stroke-width:0.176"><path d="M118.04,163.48L117.90,163.86L117.56,164.19L117.05,164.44L116.43,164.58L115.93,164.59L115.76,164.59L115.12,164.48L114.58,164.26L114.19,163.95L114.00,163.58"/></g><g style="stroke:#000000;stroke-width:0.529"><path d="M114.20,162.94L114.03,163.20L114.00,163.58L114.00,163.91L114.19,164.28L114.58,164.59L115.12,164.81L115.76,164.92L116.43,164.91L117.05,164.77L117.56,164.52L117.90,164.19L118.04,163.82L118.04,163.48L117.96,163.10L117.82,162.95"/></g></g><g id="Actor_6.1"><g style="stroke:#000000;stroke-width:0.176"><path d="M139.06,143.21L139.32,143.30L139.55,143.41L139.36,143.27L139.24,143.10L139.20,142.91L139.24,142.74L139.36,142.57L139.55,142.42L139.81,142.31L140.10,142.24"/><path d="M140.05,143.78L139.78,143.56L139.55,143.41L139.80,143.52L140.10,143.59L140.42,143.61L140.73,143.59L140.42,143.66L140.05,143.78L140.05,144.46L139.31,144.04"/><path d="M140.22,144.43L140.26,144.44L140.66,144.43L141.04,144.35L141.16,144.29L140.05,144.46"/><path d="M139.60,144.26L139.88,144.38L139.91,144.38"/><path d="M140.10,142.24L140.41,142.22L140.73,142.24L141.03,142.31L141.28,142.42L141.47,142.57L141.59,142.74L141.63,142.92L141.59,143.10L141.47,143.26L141.28,143.41L141.02,143.52L140.73,143.59L141.04,143.56L141.41,143.58L141.41,144.25"/><path d="M141.16,144.29L141.22,144.28"/><path d="M141.63,143.78L141.63,143.78"/><path d="M141.63,143.78L141.51,144.04"/><path d="M141.41,143.58L141.51,143.30L141.59,143.10L141.67,142.94L141.77,142.80"/></g><g style="stroke:#000000;stroke-width:0.529"><path d="M139.61,145.54L139.60,144.26L139.55,144.24L139.32,144.05L139.31,144.04L139.06,143.89L139.06,143.21L139.15,142.93L139.24,142.74L139.32,142.58L139.42,142.43L139.79,142.31L140.10,142.24"/><path d="M140.10,142.24L140.41,142.21L140.78,142.23L141.05,142.31L141.28,142.42L141.51,142.58L141.77,142.80L141.77,143.47L141.63,143.78L141.55,144.00L141.51,144.04L141.41,144.25L141.22,144.28"/><path d="M141.22,144.28L141.22,145.51"/></g></g><g id="Actor_3.2"><g style="stroke:#000000;stroke-width:0.176"><path d="M135.59,175.90L136.39,176.36L136.35,176.35L135.98,176.20"/><path d="M136.64,173.50L136.64,173.50L136.26,173.59L135.92,173.74L135.66,173.94L135.50,174.16L135.44,174.40L135.50,174.64L135.66,174.87L135.92,175.06L136.22,175.26L136.58,175.56L136.58,176.46L136.39,176.36"/><path d="M138.88,174.24L138.74,174.43L138.63,174.64L138.47,174.87L138.21,175.06L137.87,175.21L137.49,175.30L137.07,175.33L136.64,175.30L136.25,175.21L135.92,175.06L135.61,174.91L135.25,174.80"/><path d="M136.83,176.42L138.05,176.24L137.90,176.31L137.40,176.42L136.86,176.44L136.81,176.43L136.83,176.42"/><path d="M136.81,176.43L136.58,176.46"/><path d="M136.58,175.56L137.07,175.39L137.49,175.30L137.90,175.27L138.39,175.28L138.52,174.91L138.63,174.64L138.69,174.41L138.63,174.16L138.47,173.94L138.21,173.74L137.88,173.60L137.48,173.50L137.06,173.47L136.64,173.50"/><path d="M137.48,176.32L137.49,176.32"/><path d="M138.39,175.28L138.39,176.18"/><path d="M138.69,175.55L138.52,175.90"/><path d="M138.05,176.24L138.14,176.22"/><path d="M138.69,175.55L138.69,175.55"/></g><g style="stroke:#000000;stroke-width:0.529"><path d="M135.98,176.20L135.92,176.17L135.61,175.92L135.59,175.90L135.25,175.70L135.25,174.80L135.38,174.43L135.50,174.16L135.61,173.95L135.74,173.76L136.23,173.59L136.64,173.50"/><path d="M136.64,173.50L137.06,173.47L137.55,173.48L137.91,173.60L138.21,173.74L138.52,173.95L138.88,174.24L138.88,175.14L138.69,175.55L138.58,175.85L138.52,175.90L138.39,176.18L138.14,176.22"/><path d="M138.14,176.83L138.14,177.42"/></g></g><g id="Actor_6.2"><g style="stroke:#000000;stroke-width:0.176"><path d="M154.15,152.61L154.43,152.72L154.46,152.73L153.86,152.38"/><path d="M154.46,152.73L154.60,152.80L154.60,152.13L154.33,151.91L154.10,151.75L153.91,151.61L153.79,151.44L153.74,151.26L153.79,151.08L153.91,150.91L154.10,150.77L154.36,150.65L154.65,150.59L154.96,150.56L155.28,150.59L155.57,150.66L155.82,150.77L156.02,150.91L156.14,151.08L156.18,151.26L156.14,151.44L156.02,151.61L155.82,151.75L155.57,151.87L155.28,151.94L154.97,151.96L154.65,151.94L154.35,151.86L154.10,151.75L153.87,151.64L153.60,151.56"/><path d="M154.78,152.78L155.70,152.63L155.59,152.69L155.21,152.78L154.81,152.79L154.77,152.78L154.78,152.78"/><path d="M154.60,152.80L154.77,152.78"/><path d="M155.96,152.60L155.96,151.92L155.59,151.91L155.28,151.94L154.97,152.00L154.60,152.13"/><path d="M154.65,150.59L154.65,150.59"/><path d="M155.77,152.62L155.70,152.63"/><path d="M156.18,152.12L156.18,152.12"/><path d="M155.96,151.92L156.06,151.64L156.14,151.44L156.22,151.28L156.32,151.14"/><path d="M156.18,152.12L156.05,152.39"/></g><g style="stroke:#000000;stroke-width:0.529"><path d="M154.65,150.59L154.34,150.65L153.97,150.78L153.87,150.92L153.79,151.08L153.70,151.28L153.60,151.56L153.60,152.23L153.86,152.38L153.87,152.40L154.10,152.59L154.15,152.61L154.15,153.89"/><path d="M154.65,150.59L154.96,150.56L155.33,150.57L155.60,150.66L155.82,150.77L156.06,150.92L156.32,151.14L156.32,151.82L156.18,152.12L156.10,152.35L156.05,152.39L155.96,152.60L155.77,152.62"/><path d="M155.77,152.62L155.77,153.85"/></g></g><g id="Actor_11.0"><g style="stroke:#000000;stroke-width:0.176"><path d="M161.90,160.44L161.89,160.47L161.84,160.64L161.83,160.68"/><path d="M162.52,160.94L162.71,161.05L162.90,160.81L162.66,160.67L162.52,160.85"/><path d="M162.90,160.81L162.90,160.55L162.71,160.54L162.52,160.77L162.52,161.03L162.71,161.05"/><path d="M162.52,160.84L162.57,160.79L162.62,160.72L162.65,160.64L162.66,160.60"/><path d="M162.66,160.67L162.66,160.59"/></g><g style="stroke:#000000;stroke-width:0.529"><path d="M161.83,160.68L161.83,160.80L161.86,160.93L161.94,161.01L162.37,161.26L162.39,161.27L162.50,161.30L162.51,161.30L162.64,161.27L162.65,161.26L162.78,161.19L162.90,161.06L162.99,160.91L163.06,160.75L163.09,160.59L163.09,160.58L163.07,160.44L163.07,160.42L163.01,160.32L163.00,160.31L162.90,160.25L162.57,160.06"/></g></g><g id="Actor_11.1"><g style="stroke:#000000;stroke-width:0.176"><path d="M139.89,173.07L139.88,173.09L139.83,173.27L139.82,173.30"/><path d="M140.51,173.48L140.65,173.30L140.89,173.44L140.70,173.67L140.51,173.56"/><path d="M140.70,173.67L140.51,173.66L140.51,173.40L140.70,173.16L140.89,173.18L140.89,173.44"/><path d="M140.65,173.30L140.65,173.22"/><path d="M140.51,173.47L140.56,173.42L140.61,173.34L140.64,173.26L140.65,173.23"/></g><g style="stroke:#000000;stroke-width:0.529"><path d="M139.82,173.30L139.82,173.43L139.85,173.55L139.93,173.64L140.36,173.89L140.38,173.89L140.49,173.92L140.50,173.92L140.63,173.89L140.64,173.89L140.77,173.81L140.89,173.69L140.98,173.54L141.05,173.37L141.08,173.21L141.08,173.20L141.06,173.06L141.06,173.05L141.00,172.94L140.99,172.93L140.89,172.87L140.56,172.68"/></g></g><g id="Actor_10.0"><g style="stroke:#000000;stroke-width:0.176"><path d="M139.74,174.08L139.74,173.15"/><path d="M143.23,172.08L143.41,172.15L143.57,172.15L143.70,172.08L143.78,171.94L143.81,171.75L141.06,173.33"/><path d="M143.57,172.15L146.89,170.25"/><path d="M149.83,168.57L149.87,168.68L149.89,168.96L149.87,169.27L149.70,169.91L149.39,170.55L148.97,171.11L148.48,171.54L147.98,171.77L147.52,171.81L147.15,171.62L147.13,171.59"/><path d="M155.77,165.16L149.58,168.71"/><path d="M158.41,163.64L158.40,163.64"/></g><g style="stroke:#000000;stroke-width:0.529"><path d="M139.46,173.31L139.46,173.92L139.74,174.08L140.22,173.81"/><path d="M145.82,173.73L155.77,168.02L155.77,165.16L158.53,163.57L158.62,163.43L158.64,163.24L162.23,161.18"/><path d="M146.84,170.58L146.83,170.72L146.91,171.25L147.13,171.59L147.23,171.64L147.69,171.61L148.20,171.37L148.68,170.95L149.11,170.39L149.42,169.75L149.58,169.10L149.58,168.71L146.89,170.25L146.84,170.58"/><path d="M162.71,159.98L162.71,160.14"/></g></g><g id="Actor_6.3"><g style="stroke:#000000;stroke-width:0.176"><path d="M139.06,159.90L139.32,159.99L139.55,160.10L139.36,159.96L139.24,159.79L139.20,159.60L139.24,159.42L139.36,159.26L139.55,159.11L139.81,159.00L140.10,158.93"/><path d="M140.03,160.26L140.10,160.28L140.42,160.30L140.73,160.28L140.42,160.35L140.05,160.47L139.78,160.25L139.55,160.10L139.80,160.21L140.03,160.26"/><path d="M140.05,160.47L140.05,161.15L139.31,160.72"/><path d="M140.05,161.15L141.22,160.97"/><path d="M139.60,160.95L139.88,161.06L139.91,161.07"/><path d="M140.10,158.93L140.41,158.91L140.73,158.93L141.03,159.00L141.28,159.11L141.47,159.26L141.59,159.43L141.63,159.61L141.59,159.79L141.47,159.95L141.28,160.10L141.02,160.21L140.73,160.28L141.04,160.25L141.41,160.26L141.41,160.94"/><path d="M140.22,161.12L140.26,161.13L140.66,161.12L141.04,161.04L141.16,160.98"/><path d="M141.63,160.46L141.63,160.47"/><path d="M141.41,160.26L141.51,159.98L141.59,159.79L141.67,159.63L141.77,159.49"/><path d="M141.63,160.46L141.51,160.73"/></g><g style="stroke:#000000;stroke-width:0.529"><path d="M139.61,162.23L139.60,160.95L139.55,160.93L139.32,160.74L139.31,160.72L139.06,160.58L139.06,159.90L139.15,159.62L139.24,159.42L139.32,159.27L139.42,159.12L139.79,159.00L140.10,158.93"/><path d="M141.22,160.97L141.41,160.94L141.51,160.73L141.55,160.69L141.63,160.46L141.77,160.16L141.77,159.49L141.51,159.26L141.28,159.11L141.05,159.00L140.78,158.92L140.41,158.90L140.10,158.93"/><path d="M141.22,160.97L141.22,162.19"/></g></g><g><g><path style="stroke:#000000;stroke-width:0.044;stroke-dasharray:2.0 1.3 0.7 1.3" d="M140.41,180.53L140.41,196.24"/><path style="stroke:#000000;stroke-width:0.044;stroke-dasharray:2.0 1.3 0.7 1.3" d="M140.41,129.37L140.41,158.90"/><path style="stroke:#000000;stroke-width:0.044;stroke-dasharray:2.0 1.3 0.7 1.3" d="M140.41,114.54L140.41,123.28"/><path style="stroke:#000000;stroke-width:0.044;stroke-dasharray:2.0 1.3 0.7 1.3" d="M140.41,102.29L140.41,112.01"/></g></g><g id="PMI9.0"><g><path style="stroke:#000000;stroke-width:0.044" d="M102.40,191.22L138.31,198.94"/></g><g><path style="fill:#000000" d="M139.06,198.94L139.05,198.87L139.04,198.80L139.02,198.73L139.00,198.66L138.97,198.59L138.93,198.53L138.89,198.47L138.84,198.41L138.78,198.36L138.72,198.32L138.66,198.28L138.59,198.25L138.52,198.23L138.45,198.21L138.38,198.20L138.31,198.19L138.23,198.20L138.16,198.21L138.09,198.23L138.02,198.25L137.95,198.28L137.89,198.32L137.83,198.36L137.78,198.41L137.73,198.47L137.68,198.53L137.64,198.59L137.61,198.66L137.59,198.73L137.57,198.80L137.56,198.87L137.56,198.94L137.56,199.02L137.57,199.09L137.59,199.16L137.61,199.23L137.64,199.30L137.68,199.36L137.73,199.42L137.78,199.47L137.83,199.52L137.89,199.57L137.95,199.60L138.02,199.64L138.09,199.66L138.16,199.68L138.23,199.69L138.31,199.69L138.38,199.69L138.45,199.68L138.52,199.66L138.59,199.64L138.66,199.60L138.72,199.57L138.78,199.52L138.84,199.47L138.89,199.42L138.93,199.36L138.97,199.30L139.00,199.23L139.02,199.16L139.04,199.09L139.05,199.02z"/></g><g><text xml:space="preserve" fill="#000000" stroke-width="0" x="85.60" y="190.68" font-size="3.45" opacity="1.00" font-family="Arial">BPA8485</text></g></g><g id="PMI8.0"><g><path style="stroke:#000000;stroke-width:0.044" d="M183.78,111.53L144.42,124.92"/></g><g><path style="fill:#000000" d="M145.17,124.92L145.17,124.84L145.16,124.77L145.14,124.70L145.12,124.63L145.08,124.56L145.05,124.50L145.00,124.44L144.95,124.39L144.90,124.34L144.84,124.29L144.78,124.26L144.71,124.22L144.64,124.20L144.57,124.18L144.50,124.17L144.42,124.17L144.35,124.17L144.28,124.18L144.20,124.20L144.14,124.22L144.07,124.26L144.01,124.29L143.95,124.34L143.89,124.39L143.84,124.44L143.80,124.50L143.76,124.56L143.73,124.63L143.70,124.70L143.69,124.77L143.68,124.84L143.67,124.92L143.68,124.99L143.69,125.06L143.70,125.14L143.73,125.20L143.76,125.27L143.80,125.33L143.84,125.39L143.89,125.45L143.95,125.50L144.01,125.54L144.07,125.58L144.14,125.61L144.20,125.64L144.28,125.65L144.35,125.66L144.42,125.67L144.50,125.66L144.57,125.65L144.64,125.64L144.71,125.61L144.78,125.58L144.84,125.54L144.90,125.50L144.95,125.45L145.00,125.39L145.05,125.33L145.08,125.27L145.12,125.20L145.14,125.14L145.16,125.06L145.17,124.99z"/></g><g><text xml:space="preserve" fill="#000000" stroke-width="0" x="183.83" y="109.79" font-size="3.45" opacity="1.00" font-family="Arial">BPA10961</text></g></g><g id="PMI7.0"><g><path style="stroke:#000000;stroke-width:0.044" d="M103.34,101.96L139.25,113.31"/></g><g><path style="fill:#000000" d="M140.00,113.31L139.99,113.24L139.98,113.17L139.96,113.09L139.94,113.03L139.91,112.96L139.87,112.90L139.83,112.84L139.78,112.78L139.72,112.73L139.66,112.69L139.60,112.65L139.53,112.62L139.46,112.59L139.39,112.58L139.32,112.57L139.25,112.56L139.17,112.57L139.10,112.58L139.03,112.59L138.96,112.62L138.89,112.65L138.83,112.69L138.77,112.73L138.72,112.78L138.67,112.84L138.62,112.90L138.59,112.96L138.55,113.03L138.53,113.09L138.51,113.17L138.50,113.24L138.50,113.31L138.50,113.39L138.51,113.46L138.53,113.53L138.55,113.60L138.59,113.67L138.62,113.73L138.67,113.79L138.72,113.84L138.77,113.89L138.83,113.94L138.89,113.97L138.96,114.01L139.03,114.03L139.10,114.05L139.17,114.06L139.25,114.06L139.32,114.06L139.39,114.05L139.46,114.03L139.53,114.01L139.60,113.97L139.66,113.94L139.72,113.89L139.78,113.84L139.83,113.79L139.87,113.73L139.91,113.67L139.94,113.60L139.96,113.53L139.98,113.46L139.99,113.39z"/></g><g><text xml:space="preserve" fill="#000000" stroke-width="0" x="84.44" y="100.21" font-size="3.45" opacity="1.00" font-family="Arial">BPA10622</text></g></g><g id="PMI5.0"><g><path style="stroke:#000000;stroke-width:0.044" d="M183.32,49.62L149.91,60.46"/></g><g><path style="fill:#000000" d="M150.66,60.46L150.66,60.39L150.65,60.31L150.63,60.24L150.60,60.17L150.57,60.11L150.54,60.04L150.49,59.98L150.44,59.93L150.39,59.88L150.33,59.84L150.27,59.80L150.20,59.77L150.13,59.74L150.06,59.72L149.99,59.71L149.91,59.71L149.84,59.71L149.77,59.72L149.69,59.74L149.62,59.77L149.56,59.80L149.49,59.84L149.44,59.88L149.38,59.93L149.33,59.98L149.29,60.04L149.25,60.11L149.22,60.17L149.19,60.24L149.18,60.31L149.17,60.39L149.16,60.46L149.17,60.53L149.18,60.61L149.19,60.68L149.22,60.75L149.25,60.81L149.29,60.88L149.33,60.94L149.38,60.99L149.44,61.04L149.49,61.08L149.56,61.12L149.62,61.15L149.69,61.18L149.77,61.19L149.84,61.21L149.91,61.21L149.99,61.21L150.06,61.19L150.13,61.18L150.20,61.15L150.27,61.12L150.33,61.08L150.39,61.04L150.44,60.99L150.49,60.94L150.54,60.88L150.57,60.81L150.60,60.75L150.63,60.68L150.65,60.61L150.66,60.53z"/></g><g><text xml:space="preserve" fill="#000000" stroke-width="0" x="183.17" y="47.88" font-size="3.45" opacity="1.00" font-family="Arial">NNTM0072</text></g></g><g><g/><g><text xml:space="preserve" fill="#000000" stroke-width="0" x="3.88" y="6.44" font-size="3.93" opacity="1.00" font-family="Arial" font-weight="bold">BPA38061</text></g></g><g/><g id="paperID" visibility="hidden" opacity="0.00" transform="scale(0.000100)"><path style="stroke:#000000;stroke-width:0.500;fill:#e6e6e6;fill-rule:evenodd" d="M-2000.00,-2000.00L2297.00,-2000.00L2297.00,2210.00L-2000.00,2210.00zM0.00,0.00L297.00,0.00L297.00,210.00L0.00,210.00z"/><path style="fill:#000000;fill-opacity:0.118" d="M3.00,210.00L297.00,210.00L297.00,3.00L300.00,3.00L300.00,213.00L3.00,213.00z"/></g><g id="hotspot.0" ident="9cacc237a18f0e70" onmouseover="ShowHotSpot(evt,'0')" onmouseout="HideHotSpot(evt,'0')" onmousemove="ShowToolTip(evt,'0',&quot;Hotspot 1&quot;)" opacity="0"><a xlink:href=".\BPA8485.svg"><path style="fill:#ff8000;fill-rule:evenodd" d="M99.49,189.40L99.31,189.80L99.33,190.22L99.50,190.40L99.51,191.13L98.95,191.58L98.33,191.58L97.83,191.08L97.82,190.45L98.18,190.06L98.04,189.91L97.94,189.24L98.27,188.91L99.18,188.90zM95.22,189.42L95.04,189.82L95.04,190.22L95.21,190.40L95.21,191.13L94.66,191.58L94.04,191.58L93.53,191.08L93.53,190.45L93.88,190.06L93.74,189.91L93.65,189.24L93.98,188.91L94.89,188.91zM90.60,189.42L90.60,189.80L90.26,190.30L88.87,190.56L88.75,191.48L88.56,191.48L88.54,188.91L90.27,188.90zM87.79,189.24L87.78,189.81L87.55,190.06L87.96,190.57L87.95,190.95L87.72,191.40L85.90,191.46L85.90,188.91L87.45,188.91zM93.25,191.24L93.22,191.46L92.85,191.46L92.56,190.74L91.50,190.72L91.18,191.42L90.85,191.46L90.89,191.13L91.74,188.97L92.22,188.91zM101.47,189.92L101.65,190.23L101.65,191.13L101.10,191.58L100.48,191.58L99.95,191.06L99.95,190.87L100.30,190.90L100.50,191.23L101.09,191.24L101.32,190.96L101.32,190.40L100.98,190.06L100.60,190.06L100.40,190.24L100.11,190.31L100.15,189.46L100.26,188.92L101.67,188.93L101.67,189.13L100.60,189.25L100.45,189.46L100.43,189.81L101.15,189.72zM97.15,190.45L97.35,190.60L97.00,191.48L96.82,191.48L96.69,190.90L95.63,190.79L95.70,190.31L96.81,188.89L97.01,188.90zM134.82,198.00L135.76,198.00L136.32,197.40L136.46,194.08L137.41,193.05L139.23,192.39L141.59,192.39L142.25,192.55L143.59,193.19L144.41,194.19L144.57,197.50L144.88,197.69L145.40,198.49L145.50,200.03L145.70,200.17L146.57,200.29L146.73,200.46L146.72,202.69L145.56,203.84L143.37,204.78L142.58,204.77L142.26,204.26L141.93,204.10L139.61,204.11L137.79,203.79L136.30,202.96L135.66,202.28L135.47,201.81L135.32,198.50L102.45,192.05L102.45,191.73zM99.02,189.23L99.00,189.80L98.79,189.94L98.51,189.92L98.34,189.75L98.28,189.26L98.85,189.06zM94.73,189.23L94.71,189.80L94.50,189.94L94.22,189.92L94.05,189.75L93.98,189.26L94.55,189.06zM87.48,189.41L87.45,189.79L87.25,189.93L86.23,189.97L86.23,189.24L87.30,189.23zM92.41,190.46L91.50,190.40L92.06,189.26zM90.08,189.97L89.89,190.10L88.87,190.14L88.87,189.24L90.09,189.24zM99.18,190.56L99.12,191.24L98.34,191.23L98.17,191.06L98.17,190.46L98.45,190.22L98.83,190.22zM94.89,190.56L94.83,191.24L94.05,191.23L93.88,191.06L93.88,190.46L94.16,190.22L94.54,190.22zM96.70,190.47L95.96,190.41L96.70,189.41zM87.61,190.71L87.45,191.12L86.23,191.13L86.23,190.40L87.45,190.41z"/></a></g></g></svg>
