<?xml version="1.0" encoding="UTF-8" standalone="yes"?><svg xmlns="http://www.w3.org/2000/svg" xmlns:xlink="http://www.w3.org/1999/xlink" width="297.000mm" height="210.000mm" viewBox="0.000000 0.000000 297.000000 210.000000" stroke-linejoin="round" stroke-linecap="round" fill="none" fill-rule="evenodd"><desc>Composer Export</desc><script type="text/ecmascript"><![CDATA[
if(typeof(top) != "undefined")
{
	top.ShowPaper = ShowPaper;
}
function ShowHotSpot(evt,hotspotid)
{
	var svgDocument = evt.target.ownerDocument;
	var strId = "hotspot."+hotspotid;
	var hotspot = svgDocument.getElementById(strId);
	if(hotspot)
		hotspot.setAttribute("opacity",".5");
}
function HideHotSpot(evt,hotspotid)
{
	var svgDocument = evt.target.ownerDocument;
	var strId = "hotspot."+hotspotid;
	var hotspot = svgDocument.getElementById(strId);
	if(hotspot)
		hotspot.setAttribute("opacity","0");

	var toolTip = svgDocument.getElementById('ToolTip');
	if(toolTip)
		toolTip.setAttribute("visibility","hidden");
}
function ShowToolTip(evt,hotspotid,strTooltip)
{
	if(strTooltip=="")
	return;

	// change text
	var svgDocument = evt.target.ownerDocument;
	var tiptext = svgDocument.getElementById('ToolTipText');
	if( !tiptext )
	return;
	tiptext.firstChild.nodeValue = " " + strTooltip + "  " ;

	// show tooltip before, else some refresh issue

	var toolTip = svgDocument.getElementById('ToolTip');
	if(!toolTip)
	return;

	toolTip.setAttribute("visibility","visible");
	toolTip.setAttribute("opacity",".95");

	// move tooltip
	// get viewbox

	var root = svgDocument.documentElement;
	var vbox = (root.getAttribute("viewBox")).split(' ');
	var x0 = parseFloat(vbox[0]);
	var y0 = parseFloat(vbox[1]);
	var vboxW = parseFloat(vbox[2]);
	var vboxH = parseFloat(vbox[3]);

	// get default width of svg

	var strW = root.getAttribute("width");
	var svgW = parseFloat(strW);
	if(strW.indexOf('mm') != -1)
	svgW *= 3.779;

	var strH = root.getAttribute("height");
	var svgH = parseFloat(strH);
	if(strH.indexOf('mm') != -1)
	svgH *= 3.779;  	// 96 dpi  -> 96/25.4 = 3.779

	// update the viewbox / width / height if svg is embedded in html with zoom fit all
	var realx0 = x0;
	var realy0 = y0;
	var realvboxW = vboxW;
	var realvboxH = vboxH;
	var realsvgW = svgW;
	var realsvgH = svgH;

	if ((typeof(top) == "undefined") || (typeof(top.svgctl1) != "undefined")) // embedded in html
	{
		// get window size in pxl

		svgW = window.innerWidth;
		svgH = window.innerHeight;

		// calculate real viewbox

		realsvgW = svgW;
		realsvgH = svgH;
		if((svgW / svgH) > (vboxW / vboxH))
		{
			realvboxW = (vboxH * svgW) / svgH;
			realvboxH = vboxH;
			realx0 = x0 - (realvboxW - vboxW)/2 ;
		}
		else
		{
			realvboxH = (vboxW * svgH) / svgW;
			realvboxW = vboxW;
			realy0 = y0 - (realvboxH - vboxH)/2 ;
		}
	}

	// get user zoom/pan

	var newScale = root.currentScale;
	var translation = root.currentTranslate;

	// transform pxl to user unit

	var xPos = (((evt.clientX+10- translation.x)/newScale) * realvboxW)/realsvgW  + realx0 ;
	var yPos = (((evt.clientY+5- translation.y)/newScale) * realvboxH)/ realsvgH  + realy0 ;
	var scaleForWidth = ( (1 / newScale) * realvboxH) / realsvgH;

	// move tooltip

	toolTip.setAttribute("transform", "translate(" + xPos + "," + yPos + ")" );

	// resize tooltip

	var fontsize = 12;
	tiptext.setAttribute("font-size",fontsize*scaleForWidth);
	tiptext.setAttribute("y", fontsize*scaleForWidth);
	var tipBG = svgDocument.getElementById('ToolTipBG');
	var outline = tiptext.getBBox();
	if(tipBG)
	{
		tipBG.setAttribute("stroke-width", 1*scaleForWidth);
		tipBG.setAttribute("width", Number(outline.width) );
		tipBG.setAttribute("height", Number(outline.height) + fontsize*.5*scaleForWidth );
	}
	var ToolTipShadow = svgDocument.getElementById('ToolTipShadow');
	if(ToolTipShadow)
	{
		ToolTipShadow.setAttribute("width", Number(outline.width) );
		ToolTipShadow.setAttribute("height", Number(outline.height) + fontsize*.5*scaleForWidth );
		ToolTipShadow.setAttribute("x", 3*scaleForWidth);
		ToolTipShadow.setAttribute("y", 3*scaleForWidth);
	}
}
function ShowPaper()
{
  var svgDocument = getDocument();
  var paper = svgDocument.getElementById("paperID");
  if(paper)
  {
    paper.setAttribute("transform","scale(1)");
    paper.setAttribute("opacity","1");
    paper.setAttribute("visibility","visible");
  }
  var svg = svgDocument.getRootElement();
  if(svg)
  {
    svg.setAttribute("width","307.000mm");
    svg.setAttribute("height","220.000mm");
    svg.setAttribute("viewBox","-5.000000 -5.000000 307.000000 220.000000");
  }
}
]]></script><defs/><g><path style="fill:#000000;fill-opacity:0.098;fill-rule:evenodd" d="M76.76,60.07L75.94,60.60L75.86,59.43L76.75,58.89zM76.68,70.30L77.05,70.89L76.78,71.24L75.92,71.67L75.86,70.29L76.68,69.72L77.02,69.75zM211.52,72.61L211.79,72.64L212.06,138.98L212.34,139.20L211.76,139.27zM208.44,72.93L208.40,73.30L207.85,73.22L207.84,72.74L208.16,72.65zM163.14,99.14L162.17,99.23L162.17,98.90L162.86,98.86zM137.39,96.86L95.80,120.70L91.75,122.74L87.73,125.12L87.25,125.15L87.52,58.91L88.92,57.93L137.06,30.24L137.39,30.26zM95.25,127.88L94.65,127.87L94.64,127.27L95.58,127.00zM107.76,134.36L107.66,134.67L106.89,134.69L106.55,134.36L106.80,134.10L107.50,134.09zM210.31,139.29L209.94,140.06L209.37,139.99L210.26,139.16zM210.28,140.73L210.17,141.56L209.38,141.54L209.41,141.03L209.11,140.74L210.00,140.44zM160.75,140.74L160.75,141.35L160.07,141.09L160.07,140.48L160.44,140.41zM118.90,141.49L118.74,141.00L119.39,141.01L119.43,141.61zM202.84,143.76L202.75,143.42L203.06,143.37zM222.19,143.51L221.37,144.04L221.37,142.69L222.19,142.35zM202.23,144.70L203.10,144.44L202.99,145.56L202.50,145.62zM131.56,148.44L131.02,148.47L130.65,148.13L130.93,147.88L131.53,147.87zM160.75,152.66L160.75,153.27L160.07,153.01L160.07,152.40L160.44,152.33zM221.09,153.72L220.88,154.08L219.96,154.38L220.03,153.23L220.44,153.52zM143.01,155.27L142.85,154.78L143.49,154.78L143.54,155.38zM174.77,160.05L174.50,160.47L173.84,160.35L174.14,159.81L174.50,159.78zM173.62,161.13L174.48,160.86L174.47,162.07L173.89,162.05zM155.66,162.23L155.12,162.24L154.76,161.91L155.70,161.44zM167.52,164.05L166.95,164.05L167.23,163.76L167.59,163.76zM160.07,164.93L160.08,164.32L160.70,164.30L160.74,165.20zM167.37,165.37L167.34,165.99L166.98,166.23L166.48,166.19L166.49,165.67L166.19,165.38L167.09,165.07zM208.94,137.69L162.21,164.59L162.29,167.78L162.07,168.15L161.94,101.02L208.58,74.21L208.92,74.24zM76.22,60.05L76.13,59.71L76.44,59.66zM124.17,96.87L124.08,96.53L124.38,96.48zM195.69,137.93L195.60,137.59L195.91,137.54zM221.65,143.49L221.56,143.15L221.87,143.10zM178.17,152.77L178.21,151.93L178.48,151.87z"/><g id="Actor_.0"><g style="stroke:#000000;stroke-width:0.176"><path d="M195.71,114.93L195.67,114.90L195.64,114.85L195.63,114.79L195.63,114.71L195.63,114.69L195.64,114.63L195.67,114.55L195.71,114.47L195.75,114.42L195.77,114.40L195.83,114.33L195.89,114.29L196.03,114.21"/><path d="M196.07,114.29L196.06,114.29L196.05,114.30L196.04,114.29L196.03,114.29L196.03,114.29"/><path d="M196.24,114.12L196.26,114.15L196.26,114.16L196.26,114.18L196.25,114.18L196.25,114.19L196.25,114.18L196.27,114.17L196.28,114.16L196.28,114.15L196.29,114.13L196.29,114.12L196.29,114.11L196.29,114.06L196.18,114.00"/><path d="M196.29,114.68L196.29,114.63L196.29,114.62L196.29,114.61L196.28,114.60L196.28,114.60L196.27,114.60L196.28,114.60"/><path d="M195.65,114.68L195.65,114.70L195.65,114.75L195.66,114.80L195.67,114.83L195.70,114.86L195.74,114.87L195.78,114.86L195.82,114.84L195.87,114.81L195.91,114.77L195.95,114.72L195.98,114.66L195.99,114.60L196.00,114.55L196.00,114.50L195.99,114.46L195.96,114.43L195.93,114.41L195.89,114.41L195.85,114.42L195.80,114.45L195.77,114.47"/><path d="M196.29,114.06L196.43,113.98"/><path d="M196.25,114.19L196.25,114.19L196.21,114.21L196.21,114.21L196.21,114.21L196.22,114.20L196.22,114.18L196.22,114.16L196.22,114.12"/><path d="M196.18,114.23L196.21,114.21"/><path d="M196.25,114.19L196.25,114.19"/><path d="M196.20,114.63L196.25,114.60L196.26,114.60L196.27,114.59L196.27,114.60"/></g><g style="stroke:#000000;stroke-width:0.529"><path d="M196.18,114.23L196.07,114.29L196.06,114.29L196.06,114.29L196.05,114.29L196.04,114.29L196.03,114.29L196.03,114.28L196.03,114.27L196.03,114.26L196.03,114.21L195.91,114.15L195.78,114.23L195.72,114.27L195.66,114.33L195.60,114.40L195.56,114.49L195.53,114.57L195.51,114.65L195.51,114.72L195.53,114.79L195.56,114.84L195.60,114.87L195.71,114.93L195.77,114.94L195.83,114.94L195.89,114.91L196.03,114.83L196.03,114.78L196.03,114.77L196.03,114.76L196.03,114.74L196.04,114.73L196.05,114.72L196.06,114.71L196.07,114.70L196.20,114.63"/><path d="M196.20,114.63L196.29,114.68L196.43,114.60L196.43,113.98L196.31,113.92L196.18,114.00L196.18,114.23"/><path d="M195.77,114.47L195.76,114.48L195.72,114.53L195.69,114.58L195.66,114.64L195.65,114.68"/></g></g><g id="Actor_.1"><g style="stroke:#000000;stroke-width:0.176"><path d="M195.70,127.75L195.67,127.72L195.66,127.68L195.65,127.64L195.66,127.58L195.68,127.53L195.70,127.47L195.74,127.42L195.77,127.38L195.82,127.35L195.86,127.33L195.90,127.32L195.93,127.33"/><path d="M195.83,127.46L195.88,127.47L195.88,127.55L195.82,127.62L195.77,127.61L195.77,127.53L195.83,127.46"/><path d="M195.82,127.62L195.77,127.59"/><path d="M195.88,127.55L195.80,127.51L195.80,127.50"/><path d="M195.80,127.51L195.77,127.54L195.78,127.53L195.79,127.51"/></g><g style="stroke:#000000;stroke-width:0.529"><path d="M195.69,127.74L195.70,127.75L195.73,127.76L195.77,127.76L195.81,127.75L195.85,127.72L195.90,127.68L195.93,127.63L195.96,127.58L195.98,127.53L195.99,127.47L195.99,127.42L195.98,127.38L195.96,127.35L195.93,127.33L195.93,127.32"/></g></g><g id="Actor_.2"><g style="stroke:#000000;stroke-width:0.176"><path d="M189.21,146.20L189.32,146.27L189.32,146.42"/><path d="M189.76,145.91L189.76,145.96L189.77,145.97L189.77,145.98L189.77,145.99L189.78,145.99L189.78,145.99L189.79,145.99L189.80,145.99L189.81,145.99L189.85,145.96"/><path d="M189.32,146.27L189.36,146.24L189.37,146.24L189.38,146.23L189.39,146.22L189.40,146.20L189.40,146.19L189.41,146.17L189.41,146.17L189.41,146.17L189.41,146.18L189.40,146.18L189.39,146.19L189.37,146.19L189.33,146.20"/><path d="M189.41,146.15L189.41,146.17L189.41,146.09"/><path d="M189.41,146.17L189.41,146.16"/><path d="M189.42,145.61L189.41,145.62L189.41,145.67L189.41,145.72L189.43,145.76L189.46,145.79L189.49,145.80L189.53,145.80L189.58,145.78L189.62,145.76L189.66,145.72L189.70,145.67L189.73,145.61L189.75,145.55L189.76,145.50L189.76,145.45L189.75,145.40L189.73,145.37L189.70,145.35L189.66,145.34L189.62,145.35L189.58,145.37L189.53,145.41"/><path d="M189.79,145.33L189.74,145.31L189.68,145.31L189.62,145.32L189.55,145.36L189.53,145.38L189.49,145.41L189.43,145.48L189.39,145.56L189.35,145.64L189.33,145.72L189.32,145.80L189.32,145.96"/><path d="M189.41,145.96L189.41,145.95L189.40,145.94L189.40,145.93L189.39,145.93L189.39,145.93"/><path d="M189.34,146.17L189.38,146.15L189.39,146.14L189.40,146.13L189.41,146.12L189.41,146.12L189.41,146.11"/></g><g style="stroke:#000000;stroke-width:0.529"><path d="M189.76,145.91L189.85,145.96L189.85,146.12L189.32,146.42L189.21,146.36L189.21,146.20L189.41,146.09"/><path d="M189.76,145.91L189.76,145.75L189.77,145.75L189.77,145.73L189.77,145.72L189.78,145.70L189.79,145.69L189.80,145.68L189.81,145.68L189.85,145.65L189.85,145.50L189.85,145.43L189.82,145.37L189.79,145.33L189.68,145.27L189.63,145.24L189.57,145.24L189.51,145.26L189.44,145.30L189.38,145.35L189.32,145.42L189.28,145.50L189.24,145.58L189.22,145.66L189.21,145.74L189.21,145.89L189.32,145.96L189.36,145.93L189.37,145.93L189.38,145.93L189.39,145.93L189.39,145.93L189.40,145.94L189.41,145.95L189.41,145.96L189.41,145.96L189.41,146.09"/><path d="M189.53,145.41L189.53,145.41L189.49,145.45L189.46,145.51L189.43,145.56L189.42,145.61"/></g></g><g id="Actor_.3"><g style="stroke:#000000;stroke-width:0.176"><path d="M189.45,145.77L189.43,145.74L189.42,145.70L189.42,145.65L189.43,145.60L189.43,145.60L189.44,145.55L189.47,145.49L189.51,145.44L189.55,145.40L189.59,145.37L189.63,145.36L189.67,145.35L189.70,145.36"/><path d="M189.59,145.50L189.65,145.54L189.62,145.62L189.54,145.58L189.56,145.52"/><path d="M189.55,145.55L189.55,145.54L189.55,145.54L189.56,145.53L189.56,145.52"/><path d="M189.54,145.58L189.53,145.58"/><path d="M189.65,145.54L189.62,145.49L189.56,145.52L189.56,145.52L189.52,145.61L189.55,145.66L189.62,145.62"/><path d="M189.48,145.79L189.48,145.79"/></g><g style="stroke:#000000;stroke-width:0.529"><path d="M189.48,145.79L189.52,145.79L189.56,145.78L189.61,145.76L189.65,145.72L189.68,145.68L189.72,145.63L189.74,145.57L189.75,145.52L189.76,145.47L189.75,145.42L189.73,145.39L189.70,145.36L189.70,145.36"/><path d="M189.45,145.77L189.45,145.77L189.48,145.79"/></g></g><g id="Actor_.4"><g style="stroke:#000000;stroke-width:0.176"><path d="M167.04,159.20L167.04,159.05L167.09,159.02L167.09,159.02L167.10,159.01L167.11,158.99L167.12,158.98L167.13,158.97L167.13,158.95L167.13,158.94L167.13,158.95L167.13,158.95L167.12,158.96L167.11,158.97L167.09,158.97L167.05,158.98"/><path d="M167.04,159.05L166.93,158.98"/><path d="M167.13,158.87L167.13,158.94L167.13,158.93"/><path d="M167.13,158.94L167.13,158.94"/><path d="M167.06,158.95L167.10,158.93L167.12,158.92L167.12,158.91L167.13,158.90L167.13,158.90L167.13,158.89"/><path d="M167.14,158.39L167.14,158.40L167.13,158.45L167.14,158.50L167.15,158.54L167.18,158.57L167.21,158.58L167.25,158.58L167.30,158.56L167.34,158.53L167.38,158.49L167.42,158.44L167.45,158.39L167.47,158.33L167.48,158.28L167.48,158.22L167.47,158.18L167.45,158.15L167.42,158.13L167.38,158.12L167.34,158.13L167.30,158.15L167.26,158.18"/><path d="M167.51,158.11L167.46,158.09L167.40,158.08L167.34,158.10L167.28,158.14L167.27,158.14L167.21,158.19L167.16,158.26L167.11,158.34L167.10,158.35L167.07,158.42L167.05,158.50L167.04,158.58L167.04,158.74"/><path d="M167.13,158.73L167.13,158.73L167.13,158.72L167.12,158.71L167.11,158.71L167.11,158.71"/><path d="M167.13,158.73L167.13,158.73"/><path d="M167.49,158.69L167.49,158.74L167.49,158.75L167.49,158.76L167.50,158.77L167.50,158.77L167.50,158.77L167.51,158.77L167.52,158.77L167.53,158.77L167.58,158.74"/></g><g style="stroke:#000000;stroke-width:0.529"><path d="M167.49,158.69L167.49,158.53L167.49,158.52L167.49,158.51L167.50,158.50L167.50,158.48L167.51,158.47L167.52,158.46L167.53,158.46L167.58,158.43L167.58,158.28L167.57,158.21L167.54,158.15L167.51,158.11L167.40,158.04L167.35,158.02L167.29,158.02L167.23,158.04L167.16,158.08L167.10,158.13L167.04,158.20L167.00,158.27L166.96,158.36L166.94,158.44L166.93,158.52L166.93,158.67L167.04,158.74L167.09,158.71L167.09,158.71L167.10,158.71L167.11,158.71L167.12,158.71L167.12,158.72L167.13,158.73L167.13,158.73L167.13,158.74L167.13,158.87"/><path d="M167.49,158.69L167.58,158.74L167.58,158.89L167.04,159.20L166.93,159.14L166.93,158.98L167.13,158.87"/><path d="M167.26,158.18L167.25,158.19L167.21,158.23L167.18,158.28L167.15,158.34L167.14,158.39"/></g></g><g id="Actor_.5"><g style="stroke:#000000;stroke-width:0.176"><path d="M196.29,127.58L196.29,127.53L196.29,127.52L196.29,127.51L196.28,127.50L196.28,127.50L196.27,127.50L196.28,127.50"/><path d="M195.65,127.58L195.65,127.60L195.65,127.66L195.66,127.70L195.67,127.74L195.70,127.76L195.74,127.77L195.78,127.77L195.82,127.75L195.87,127.72L195.91,127.67L195.95,127.62L195.98,127.57L195.99,127.51L196.00,127.46L196.00,127.45L196.00,127.40L195.99,127.36L195.96,127.33L195.93,127.31L195.89,127.31L195.85,127.32L195.80,127.35L195.77,127.37"/><path d="M195.71,127.84L195.67,127.81L195.64,127.76L195.63,127.69L195.63,127.62L195.64,127.55L195.64,127.54L195.67,127.45L195.71,127.37L195.77,127.30L195.83,127.24L195.89,127.19L196.03,127.12"/><path d="M196.27,127.50L196.27,127.50L196.26,127.50L196.25,127.51L196.20,127.53"/><path d="M196.07,127.19L196.06,127.20L196.05,127.20L196.04,127.20L196.03,127.19L196.03,127.19"/><path d="M196.24,127.02L196.26,127.05L196.26,127.07L196.26,127.08L196.25,127.09L196.25,127.09L196.25,127.09L196.27,127.08L196.28,127.07L196.28,127.05L196.29,127.04L196.29,127.02L196.29,127.02L196.29,126.96L196.43,126.89"/><path d="M196.29,126.96L196.18,126.90"/><path d="M196.18,127.13L196.25,127.09L196.25,127.09L196.21,127.12L196.21,127.11L196.22,127.10L196.22,127.09L196.22,127.06L196.22,127.02"/><path d="M196.21,127.12L196.21,127.12"/><path d="M196.25,127.09L196.25,127.09"/></g><g style="stroke:#000000;stroke-width:0.529"><path d="M196.18,127.13L196.07,127.19L196.06,127.20L196.06,127.20L196.05,127.20L196.04,127.19L196.03,127.19L196.03,127.19L196.03,127.18L196.03,127.17L196.03,127.12L195.91,127.05L195.78,127.13L195.72,127.18L195.66,127.24L195.60,127.31L195.56,127.39L195.53,127.47L195.51,127.55L195.51,127.63L195.53,127.69L195.56,127.74L195.60,127.77L195.71,127.84L195.77,127.85L195.83,127.84L195.89,127.81L196.03,127.74L196.03,127.68L196.03,127.68L196.03,127.66L196.03,127.65L196.04,127.63L196.05,127.62L196.06,127.61L196.07,127.61L196.20,127.53"/><path d="M195.65,127.58L195.66,127.55L195.69,127.49L195.72,127.43L195.76,127.39L195.77,127.37"/><path d="M196.20,127.53L196.29,127.58L196.43,127.51L196.43,126.89L196.31,126.82L196.18,126.90L196.18,127.13"/></g></g><g id="Actor_.6"><g style="stroke:#000000;stroke-width:0.176"><path d="M167.18,158.55L167.15,158.52L167.14,158.48L167.14,158.43L167.15,158.38L167.17,158.32L167.19,158.27L167.23,158.22L167.27,158.18L167.31,158.15L167.35,158.14L167.39,158.13L167.43,158.14"/><path d="M167.28,158.30L167.26,158.36L167.34,158.40L167.37,158.32L167.31,158.28"/><path d="M167.26,158.36L167.26,158.36"/><path d="M167.27,158.33L167.27,158.32L167.27,158.31L167.28,158.30L167.28,158.30"/><path d="M167.34,158.40L167.27,158.43L167.24,158.38L167.28,158.30L167.28,158.30L167.34,158.27L167.37,158.32"/></g><g style="stroke:#000000;stroke-width:0.529"><path d="M167.42,158.14L167.43,158.14L167.45,158.16L167.47,158.20L167.48,158.24L167.47,158.29L167.46,158.35L167.44,158.40L167.41,158.46L167.37,158.50L167.33,158.54L167.28,158.56L167.24,158.57L167.21,158.57"/><path d="M167.17,158.55L167.18,158.55L167.21,158.57"/></g></g><g id="Actor_.7"><g style="stroke:#000000;stroke-width:0.176"><path d="M216.21,69.75L212.20,72.05L212.01,72.21L211.92,72.32L211.80,72.57L211.75,72.82L211.75,138.89L211.80,139.09L211.85,139.16L211.92,139.20"/><path d="M211.98,134.17L211.98,138.77L212.00,138.87L212.06,138.92L212.20,138.90L216.21,136.60"/></g><g style="stroke:#000000;stroke-width:0.529"><path d="M209.18,137.63L211.92,139.20L212.01,139.21L212.20,139.15L216.21,136.85L216.21,136.60L211.98,134.17L211.98,133.73L211.98,72.70L212.00,72.57L212.06,72.45L212.20,72.31L216.21,70.01L216.21,69.75L139.13,25.54L135.12,27.84L134.92,28.00L134.80,28.17"/><path d="M159.22,108.97L137.53,96.53"/></g></g><g id="Actor_.8"><g style="stroke:#000000;stroke-width:0.176"><path d="M162.53,116.57L162.50,116.55L162.46,116.55L162.42,116.57L162.38,116.59L162.34,116.63L162.30,116.68L162.27,116.73L162.25,116.79L162.24,116.84L162.24,116.89L162.25,116.93L162.27,116.96L162.30,116.98"/><path d="M162.40,116.85L162.35,116.84L162.35,116.76L162.41,116.69L162.46,116.70L162.46,116.78L162.40,116.85L162.35,116.82"/><path d="M162.37,116.74L162.37,116.75L162.36,116.76L162.35,116.77L162.38,116.74L162.46,116.78"/><path d="M162.38,116.74L162.38,116.73"/></g><g style="stroke:#000000;stroke-width:0.529"><path d="M162.53,116.56L162.53,116.57L162.56,116.59L162.57,116.63L162.58,116.68L162.57,116.73L162.55,116.78L162.53,116.84L162.50,116.89L162.46,116.93L162.42,116.96L162.37,116.98L162.33,116.99L162.30,116.98L162.29,116.98"/></g></g><g id="Actor_.9"><g style="stroke:#000000;stroke-width:0.176"><path d="M162.16,129.54L162.17,129.57L162.17,129.59L162.17,129.60L162.17,129.60L162.16,129.61L162.16,129.61L162.09,129.65"/><path d="M162.09,129.42L162.21,129.48L162.34,129.40L162.40,129.38L162.46,129.37L162.52,129.38"/><path d="M162.21,130.10L162.21,130.05L162.21,130.04L162.20,130.03L162.20,130.02L162.19,130.02L162.18,130.02L162.18,130.02L162.17,130.02L162.16,130.02L162.12,130.05"/><path d="M162.24,129.72L162.23,129.76L162.23,129.81L162.25,129.86L162.27,129.89L162.30,129.90L162.34,129.91L162.38,129.89L162.43,129.87L162.47,129.83L162.51,129.78L162.54,129.73L162.57,129.67L162.58,129.61L162.58,129.56L162.58,129.51L162.56,129.48L162.53,129.45L162.49,129.45L162.45,129.45L162.41,129.47L162.36,129.50L162.35,129.51"/><path d="M162.16,129.61L162.17,129.60L162.18,129.60L162.19,129.58L162.20,129.57L162.20,129.56L162.21,129.54L162.21,129.53L162.21,129.48"/><path d="M162.12,129.63L162.12,129.63L162.13,129.63L162.13,129.62L162.13,129.61L162.14,129.58L162.13,129.54"/><path d="M162.19,130.02L162.20,130.02"/></g><g style="stroke:#000000;stroke-width:0.529"><path d="M162.07,129.66L162.09,129.65"/><path d="M162.09,129.65L162.09,129.42L162.23,129.34L162.29,129.31L162.35,129.30L162.41,129.32L162.52,129.38L162.56,129.41L162.59,129.46L162.61,129.52L162.61,129.60L162.59,129.68L162.56,129.76L162.52,129.84L162.46,129.92L162.40,129.98L162.34,130.02L162.21,130.10L162.12,130.05"/><path d="M162.12,130.05L162.07,130.07"/><path d="M162.24,129.72L162.24,129.71L162.26,129.65L162.28,129.59L162.32,129.54L162.35,129.51"/></g></g><g id="Actor_.10"><g style="stroke:#000000;stroke-width:0.176"><path d="M129.18,98.26L129.18,98.26"/><path d="M129.25,98.04L129.24,98.04L129.22,98.04L129.19,98.05L129.17,98.07L129.15,98.09L129.13,98.12L129.12,98.14L129.11,98.17L129.11,98.20L129.11,98.23L129.11,98.25L129.13,98.26"/><path d="M129.28,98.12L129.28,98.10L129.27,98.08L129.26,98.08L129.25,98.07L129.23,98.07L129.21,98.08L129.19,98.09L129.18,98.11L129.16,98.13L129.15,98.16L129.14,98.18L129.14,98.20L129.14,98.22L129.15,98.24L129.16,98.25L129.17,98.26L129.19,98.26L129.20,98.25"/></g><g style="stroke:#000000;stroke-width:0.529"><path d="M129.03,98.21L129.13,98.26L129.14,98.27L129.16,98.27L129.18,98.26L129.20,98.25L129.22,98.24L129.24,98.23L129.25,98.21L129.27,98.18L129.28,98.16L129.28,98.14L129.28,98.12L129.28,98.10L129.28,98.07L129.27,98.06L129.25,98.04L129.16,97.99"/></g></g><g id="Actor_.11"><g style="stroke:#000000;stroke-width:0.176"><path d="M86.46,122.58L86.39,122.67L86.32,122.70L86.24,122.70L86.15,122.67L85.96,122.54L85.81,122.33L85.76,122.21L85.71,121.98L85.72,121.49L85.75,121.41L85.81,121.35L85.88,121.31L85.97,121.31"/><path d="M85.97,109.44L85.88,109.44L85.81,109.47L85.75,109.54L85.72,109.62L85.71,110.10L85.76,110.34L85.88,110.57L86.06,110.75L86.15,110.80L86.24,110.83L86.32,110.83L86.39,110.79L86.46,110.70"/><path d="M86.46,98.83L86.39,98.92L86.32,98.95L86.24,98.96L86.15,98.93L85.96,98.80L85.81,98.59L85.76,98.47L85.71,98.23L85.72,97.74L85.75,97.67L85.81,97.60L85.88,97.57L85.97,97.57"/><path d="M84.77,56.72L87.22,58.12L87.22,58.64L87.44,58.51"/><path d="M87.22,58.12L87.44,58.00L84.99,56.59"/><path d="M87.44,125.10L87.44,124.84L87.51,124.80L87.66,124.81L87.66,124.97"/><path d="M87.44,124.84L87.44,124.79L87.22,124.71L87.22,125.23"/><path d="M87.51,124.80L87.44,124.79"/><path d="M87.66,124.81L87.87,124.80L88.11,124.71"/><path d="M87.22,58.64L87.45,58.72L87.73,58.74L87.87,58.72L88.11,58.64L88.06,58.39L87.94,58.14L87.86,58.03L87.66,57.87L87.66,58.13"/><path d="M87.66,57.87L87.44,58.00L87.44,58.25"/><path d="M87.83,56.34L87.79,56.28L87.78,56.20L87.80,56.12L87.86,56.05L87.94,55.98L88.05,55.93L88.31,55.89L88.58,55.92L88.70,55.97L88.79,56.03L88.85,56.10L88.88,56.18L88.88,56.26L88.83,56.34"/><path d="M88.11,58.64L87.88,58.51"/><path d="M90.84,101.41L90.85,101.47L90.83,101.54L90.78,101.58L90.73,101.59L90.71,101.52L90.74,101.45L90.79,101.41L90.84,101.41"/><path d="M90.74,88.69L90.79,88.67L90.84,88.61L90.85,88.54L90.83,88.50L90.77,88.51L90.72,88.57L90.71,88.64L90.74,88.69"/><path d="M95.63,117.36L95.70,117.34L95.74,117.28L95.75,117.22L95.73,117.18L95.68,117.19L95.63,117.24L95.61,117.31L95.63,117.36"/><path d="M117.92,104.58L117.97,104.57L118.02,104.51L118.03,104.44L118.01,104.40L117.95,104.41L117.90,104.49L117.89,104.55L117.92,104.58"/><path d="M123.90,98.40L123.92,98.45L123.89,98.52L123.84,98.57L123.79,98.57L123.77,98.53L123.79,98.46L123.86,98.39L123.90,98.40"/><path d="M123.96,96.59L123.98,96.68L124.02,96.72L124.12,96.73L124.24,96.67L124.35,96.55L124.43,96.39L124.44,96.32L124.43,96.19L124.37,96.12L124.30,96.10L124.22,96.13"/><path d="M124.60,97.47L124.63,97.51L124.60,97.60L124.55,97.65L124.50,97.65L124.48,97.61L124.50,97.54L124.55,97.48L124.60,97.47"/><path d="M133.28,30.27L133.24,30.21L133.23,30.13L133.25,30.05L133.30,29.98L133.39,29.91L133.50,29.87L133.76,29.82L134.03,29.86L134.14,29.90L134.23,29.96L134.30,30.03L134.33,30.11L134.32,30.19L134.28,30.27"/></g><g style="stroke:#000000;stroke-width:0.529"><path d="M87.66,124.97L87.22,125.23L84.77,123.82L84.77,56.72L134.67,28.09L137.12,29.50L137.22,29.57L137.40,29.77L137.47,29.89L137.52,30.02L137.57,30.27L137.57,96.34L137.55,96.45L137.52,96.54L137.47,96.61L137.40,96.65L92.30,122.52"/><path d="M86.49,122.42L86.46,122.57L86.37,122.55L86.19,122.41L86.03,122.20L85.95,121.96L85.94,121.85L85.94,121.46L85.97,121.31L86.06,121.34L86.15,121.39L86.32,121.57L86.39,121.68L86.48,121.92L86.49,122.42"/><path d="M86.48,110.65L86.46,110.70L86.37,110.68L86.19,110.54L86.10,110.44L85.98,110.21L85.94,109.98L85.94,109.59L85.97,109.44L86.06,109.47L86.15,109.52L86.24,109.60L86.39,109.81L86.45,109.93L86.49,110.16L86.48,110.65"/><path d="M86.28,98.75L86.19,98.67L86.03,98.46L85.95,98.22L85.94,97.72L85.97,97.57L86.06,97.59L86.15,97.65L86.32,97.82L86.45,98.06L86.48,98.18L86.49,98.68L86.48,98.78L86.46,98.83L86.37,98.80L86.28,98.75"/><path d="M87.44,58.51L87.63,58.56L87.77,58.55L87.88,58.51L87.86,58.39L87.80,58.26L87.66,58.13L87.44,58.25L87.44,58.51"/><path d="M87.85,56.35L87.83,56.34L87.86,56.30L87.94,56.24L88.05,56.19L88.31,56.15L88.58,56.18L88.70,56.23L88.79,56.29L88.83,56.34L88.77,56.40L88.67,56.46L88.55,56.50L88.28,56.52L88.02,56.47L87.92,56.42L87.85,56.35"/><path d="M123.95,96.56L123.96,96.49L124.02,96.33L124.12,96.19L124.22,96.13L124.20,96.27L124.13,96.42L124.02,96.55L123.96,96.59L123.95,96.56"/><path d="M133.31,30.30L133.47,30.40L133.59,30.44L133.86,30.45L134.12,30.39L134.21,30.33L134.28,30.27L134.14,30.16L134.03,30.11L133.76,30.08L133.50,30.12L133.39,30.17L133.28,30.27L133.31,30.30"/></g></g><g id="Actor_.12"><g style="stroke:#000000;stroke-width:0.176"><path d="M162.30,155.70L162.27,155.68L162.25,155.65L162.24,155.60L162.24,155.55L162.24,155.54L162.25,155.50L162.27,155.44L162.30,155.39L162.34,155.35L162.38,155.31L162.40,155.30L162.42,155.28L162.46,155.27L162.50,155.27L162.53,155.28"/><path d="M162.22,155.59L162.22,155.54L162.23,155.49L162.25,155.43L162.28,155.38L162.31,155.33L162.36,155.29L162.40,155.27"/><path d="M162.40,155.56L162.46,155.49L162.46,155.42L162.41,155.41L162.35,155.47L162.35,155.55L162.40,155.56L162.35,155.53"/><path d="M162.37,155.45L162.37,155.46L162.36,155.48L162.35,155.48L162.38,155.45L162.46,155.49"/><path d="M162.38,155.45L162.38,155.44"/><path d="M162.22,155.49L162.22,155.49L162.22,155.52"/><path d="M162.31,155.32L162.31,155.32L162.34,155.30"/></g><g style="stroke:#000000;stroke-width:0.529"><path d="M162.22,155.52L162.22,155.59L162.23,155.63L162.25,155.67L162.28,155.69L162.30,155.70L162.33,155.70L162.37,155.70L162.42,155.68L162.46,155.64L162.50,155.60L162.53,155.55L162.55,155.50L162.57,155.44L162.58,155.39L162.57,155.34L162.56,155.31L162.53,155.28L162.51,155.27L162.48,155.25L162.44,155.25L162.40,155.27L162.34,155.30"/></g></g><g id="Actor_.13"><g style="stroke:#000000;stroke-width:0.176"><path d="M162.09,116.51L162.21,116.58L162.34,116.50L162.40,116.47L162.46,116.46L162.52,116.48"/><path d="M162.09,116.74L162.16,116.71L162.16,116.70L162.17,116.70L162.17,116.69L162.17,116.68L162.17,116.66L162.16,116.63"/><path d="M162.21,117.20L162.21,117.14L162.21,117.14L162.20,117.13L162.20,117.12L162.19,117.11L162.19,117.11L162.18,117.11L162.17,117.11L162.16,117.12L162.12,117.14"/><path d="M162.20,117.12L162.19,117.11"/><path d="M162.24,116.81L162.23,116.86L162.23,116.91L162.25,116.95L162.27,116.98L162.30,117.00L162.34,117.00L162.38,116.99L162.43,116.96L162.47,116.93L162.51,116.88L162.54,116.82L162.57,116.77L162.58,116.71L162.58,116.66L162.58,116.61L162.56,116.57L162.53,116.55L162.49,116.54L162.45,116.55L162.41,116.56L162.36,116.60L162.35,116.60"/><path d="M162.21,116.58L162.21,116.63L162.21,116.64L162.20,116.65L162.20,116.67L162.19,116.68L162.18,116.69L162.17,116.70L162.16,116.70"/><path d="M162.12,116.73L162.12,116.73L162.13,116.72L162.13,116.72L162.13,116.70L162.14,116.68L162.13,116.63"/></g><g style="stroke:#000000;stroke-width:0.529"><path d="M162.12,117.14L162.07,117.17"/><path d="M162.12,117.14L162.21,117.20L162.34,117.12L162.40,117.07L162.46,117.01L162.52,116.94L162.56,116.86L162.59,116.78L162.61,116.69L162.61,116.62L162.59,116.56L162.56,116.51L162.52,116.48L162.41,116.41L162.35,116.40L162.29,116.41L162.23,116.44L162.09,116.51L162.09,116.74"/><path d="M162.07,116.76L162.09,116.74"/><path d="M162.35,116.60L162.32,116.64L162.28,116.69L162.26,116.75L162.24,116.80L162.24,116.81"/></g></g><g id="Actor_.14"><g style="stroke:#000000;stroke-width:0.176"><path d="M162.30,129.89L162.27,129.87L162.25,129.84L162.24,129.79L162.24,129.74L162.24,129.73L162.25,129.69L162.27,129.64L162.30,129.58L162.34,129.54L162.38,129.50L162.42,129.47L162.46,129.46L162.50,129.46L162.53,129.47"/><path d="M162.37,129.65L162.37,129.65L162.36,129.67L162.35,129.67L162.38,129.64L162.46,129.69L162.40,129.75L162.35,129.72"/><path d="M162.40,129.75L162.35,129.74L162.35,129.67L162.35,129.67L162.41,129.60L162.46,129.61L162.46,129.69"/><path d="M162.38,129.64L162.38,129.63"/></g><g style="stroke:#000000;stroke-width:0.529"><path d="M162.53,129.47L162.53,129.47L162.56,129.50L162.57,129.53L162.58,129.58L162.57,129.63L162.55,129.69L162.53,129.74L162.50,129.79L162.46,129.83L162.42,129.87L162.37,129.89L162.33,129.90L162.30,129.89L162.29,129.89"/></g></g><g id="Actor_.15"><g style="stroke:#000000;stroke-width:0.176"><path d="M211.75,72.31L161.85,100.93L159.42,99.54L159.40,99.53L159.40,100.04L159.31,99.98L159.25,99.91L159.22,99.83L159.22,99.75"/><path d="M159.57,99.22L159.65,99.21L159.75,99.23L159.84,99.27L159.63,99.40L162.08,100.80L162.08,167.65L177.89,158.58"/><path d="M159.40,99.53L159.63,99.40"/><path d="M160.26,165.07L160.37,165.22L160.56,165.35L160.65,165.38L160.73,165.38L160.80,165.35L160.87,165.26L160.70,165.18L160.60,165.10L160.44,164.88L160.39,164.76L160.35,164.53L160.35,164.14L160.38,163.99L160.29,163.99L160.22,164.03L160.17,164.08L160.13,164.17L160.12,164.27L160.13,164.77L160.17,164.89L160.26,165.07"/><path d="M160.87,165.26L160.90,165.10L160.90,164.72L160.86,164.48L160.73,164.25L160.65,164.15L160.56,164.07L160.47,164.02L160.38,163.99"/><path d="M160.12,152.78L160.17,153.02L160.29,153.25L160.37,153.35L160.56,153.48L160.65,153.51L160.73,153.51L160.80,153.47L160.87,153.38L160.69,153.30L160.60,153.22L160.51,153.12L160.39,152.89L160.35,152.66L160.35,152.27L160.38,152.12L160.29,152.12L160.22,152.15L160.17,152.21L160.13,152.30L160.12,152.78"/><path d="M160.87,153.38L160.90,153.23L160.90,152.84L160.86,152.61L160.80,152.49L160.65,152.28L160.56,152.20L160.47,152.15L160.38,152.12"/><path d="M160.17,141.15L160.29,141.38L160.47,141.56L160.56,141.61L160.65,141.64L160.73,141.63L160.80,141.60L160.85,141.55L160.87,141.51L160.69,141.43L160.60,141.35L160.44,141.14L160.39,141.02L160.35,140.78L160.35,140.40L160.38,140.25L160.29,140.25L160.22,140.28L160.17,140.34L160.13,140.42L160.12,140.91L160.17,141.15"/><path d="M160.87,141.51L160.90,141.36L160.90,140.97L160.86,140.74L160.73,140.50L160.65,140.41L160.56,140.33L160.47,140.27L160.38,140.25"/><path d="M162.08,167.65L162.08,167.90"/><path d="M161.85,100.93L161.85,168.03"/><path d="M162.08,101.06L209.08,74.10"/><path d="M162.23,155.43L162.28,155.34"/><path d="M162.79,98.57L162.52,98.60L162.40,98.64L162.30,98.69L162.23,98.76L162.20,98.84L162.19,98.92L162.22,98.99L162.29,99.06L162.38,99.12L162.62,99.20L162.76,99.20L163.02,99.16L163.13,99.11L163.22,99.05L163.27,98.97L163.29,98.90L163.28,98.82L163.23,98.74L163.15,98.68L163.05,98.62L162.79,98.57"/><path d="M162.24,99.01L162.35,98.92L162.52,98.85L162.79,98.83L163.05,98.88L163.15,98.94L163.24,99.01"/><path d="M176.56,157.81L176.33,157.68L198.61,144.90L198.61,145.16"/><path d="M195.38,139.05L195.31,139.08L195.29,139.06L195.28,139.02L195.33,138.93L195.40,138.89L195.43,138.92L195.43,138.97L195.38,139.05"/><path d="M195.74,137.14L195.80,137.13L195.87,137.13L195.94,137.20L195.96,137.34L195.94,137.41L195.87,137.57L195.76,137.69L195.64,137.75L195.53,137.74L195.50,137.70L195.48,137.60"/><path d="M196.13,139.10L196.13,139.02L196.11,139.00L196.07,139.01L196.01,139.08L196.00,139.17L196.04,139.19L196.07,139.18L196.13,139.10"/><path d="M198.61,144.90L200.17,145.80L200.17,146.05"/><path d="M200.17,145.80L211.75,139.15"/><path d="M208.11,72.51L207.97,72.53L207.85,72.57L207.75,72.62L207.68,72.69L207.64,72.77L207.64,72.85L207.67,72.93L207.73,73.00L207.82,73.06L207.94,73.10L208.21,73.13L208.47,73.09L208.58,73.04L208.66,72.98L208.72,72.91L208.74,72.83L208.73,72.75L208.68,72.67L208.60,72.61L208.38,72.52L208.11,72.51"/><path d="M208.69,72.95L208.60,72.87L208.50,72.81L208.24,72.76L207.97,72.79L207.80,72.85L207.69,72.95"/></g><g style="stroke:#000000;stroke-width:0.529"><path d="M159.40,166.12L159.40,166.63L161.85,168.03L177.89,158.83L177.89,158.58L176.56,157.81L178.83,156.51L198.61,145.16L200.17,146.05L211.75,139.41L211.75,139.15L209.30,137.75L209.21,137.67L209.15,137.59L209.10,137.48L209.08,137.36L209.08,74.10L211.75,72.57L211.75,72.31L209.30,70.90L209.20,70.86L209.11,70.84L209.03,70.85L159.57,99.22L159.50,99.26L159.44,99.33L159.41,99.42L159.40,99.53L159.31,99.59L159.25,99.67L159.22,99.75L159.22,165.82L159.22,165.90L159.25,165.98L159.40,166.12"/><path d="M195.54,137.56L195.48,137.60L195.48,137.51L195.53,137.35L195.64,137.21L195.73,137.15L195.72,137.29L195.69,137.37L195.65,137.44L195.54,137.56"/></g></g><g id="Actor_.16"><g style="stroke:#000000;stroke-width:0.176"><path d="M87.66,124.97L158.95,165.86L158.95,166.37"/><path d="M158.95,165.86L159.22,165.71"/></g><g style="stroke:#000000;stroke-width:0.529"><path d="M159.40,166.12L158.95,166.37L87.66,125.48L87.66,124.97L92.12,122.41L159.22,160.90"/></g></g><g id="Actor_.17"><g style="stroke:#000000;stroke-width:0.176"><path d="M200.59,139.38L200.57,139.35L200.56,139.31L200.56,139.27L200.56,139.21L200.57,139.21L200.58,139.16L200.61,139.10L200.65,139.06L200.69,139.01L200.73,138.98L200.77,138.97L200.81,138.96L200.84,138.97"/><path d="M200.70,139.13L200.67,139.19L200.76,139.23L200.79,139.15L200.73,139.12"/><path d="M200.68,139.16L200.69,139.15L200.69,139.15L200.70,139.14L200.70,139.13"/><path d="M200.67,139.19L200.67,139.19"/><path d="M200.79,139.15L200.76,139.10L200.70,139.13L200.66,139.22L200.69,139.27L200.76,139.23"/><path d="M200.62,139.40L200.62,139.40"/></g><g style="stroke:#000000;stroke-width:0.529"><path d="M200.84,138.97L200.84,138.97L200.87,139.00L200.89,139.03L200.90,139.08L200.89,139.13L200.88,139.18L200.86,139.24L200.82,139.29L200.79,139.33L200.74,139.37L200.70,139.39L200.66,139.40L200.62,139.40"/><path d="M200.59,139.38L200.59,139.38L200.62,139.40"/></g></g><g id="Actor_.18"><g style="stroke:#000000;stroke-width:0.176"><path d="M162.09,142.32L162.21,142.39L162.34,142.31L162.40,142.28L162.46,142.27L162.52,142.28"/><path d="M162.09,142.55L162.16,142.51L162.16,142.51L162.17,142.51L162.17,142.50L162.17,142.49L162.17,142.47L162.16,142.44"/><path d="M162.21,143.00L162.21,142.95L162.21,142.94L162.20,142.93L162.20,142.93L162.19,142.92L162.19,142.92L162.18,142.92L162.17,142.92L162.16,142.93L162.12,142.95"/><path d="M162.20,142.93L162.19,142.92"/><path d="M162.24,142.62L162.23,142.67L162.23,142.72L162.25,142.76L162.27,142.79L162.30,142.81L162.34,142.81L162.38,142.80L162.43,142.77L162.47,142.73L162.51,142.69L162.54,142.63L162.57,142.58L162.58,142.52L162.58,142.46L162.58,142.42L162.56,142.38L162.53,142.36L162.49,142.35L162.45,142.35L162.41,142.37L162.36,142.41L162.35,142.41"/><path d="M162.16,142.51L162.17,142.51L162.18,142.50L162.19,142.49L162.20,142.47L162.20,142.46L162.21,142.45L162.21,142.44L162.21,142.39"/><path d="M162.12,142.54L162.12,142.54L162.13,142.53L162.13,142.52L162.13,142.51L162.14,142.49L162.13,142.44"/><path d="M162.17,142.51L162.17,142.51"/></g><g style="stroke:#000000;stroke-width:0.529"><path d="M162.12,142.95L162.07,142.98"/><path d="M162.12,142.95L162.21,143.00L162.34,142.93L162.40,142.88L162.46,142.82L162.52,142.75L162.56,142.67L162.59,142.58L162.61,142.50L162.61,142.43L162.59,142.36L162.56,142.32L162.52,142.28L162.41,142.22L162.35,142.21L162.29,142.22L162.23,142.24L162.09,142.32L162.09,142.55"/><path d="M162.07,142.56L162.09,142.55"/><path d="M162.24,142.62L162.24,142.61L162.26,142.56L162.28,142.50L162.32,142.45L162.35,142.41"/></g></g><g id="Actor_.19"><g style="stroke:#000000;stroke-width:0.176"><path d="M195.70,114.84L195.67,114.82L195.66,114.78L195.65,114.73L195.66,114.68L195.68,114.62L195.70,114.57L195.74,114.52L195.77,114.48L195.82,114.45L195.86,114.42L195.90,114.42L195.93,114.42"/><path d="M195.88,114.65L195.88,114.57L195.83,114.56L195.77,114.63L195.77,114.70L195.82,114.71L195.88,114.65L195.80,114.60L195.80,114.59"/><path d="M195.82,114.71L195.77,114.68"/><path d="M195.80,114.60L195.77,114.63L195.78,114.62L195.79,114.61"/></g><g style="stroke:#000000;stroke-width:0.529"><path d="M195.69,114.84L195.70,114.84L195.73,114.86L195.77,114.86L195.81,114.84L195.85,114.81L195.90,114.78L195.93,114.73L195.96,114.68L195.98,114.62L195.99,114.57L195.99,114.52L195.98,114.48L195.96,114.44L195.93,114.42L195.93,114.42"/></g></g><g id="Actor_.20"><g style="stroke:#000000;stroke-width:0.176"><path d="M162.30,142.79L162.27,142.77L162.25,142.74L162.24,142.70L162.24,142.65L162.24,142.63L162.25,142.60L162.27,142.54L162.30,142.49L162.34,142.44L162.38,142.40L162.42,142.38L162.46,142.36L162.50,142.36L162.53,142.37"/><path d="M162.35,142.63L162.40,142.66L162.35,142.65L162.35,142.57L162.41,142.50L162.46,142.51L162.46,142.59L162.40,142.66"/><path d="M162.46,142.59L162.38,142.54L162.35,142.58L162.36,142.57L162.37,142.56L162.37,142.55"/><path d="M162.38,142.54L162.38,142.54"/></g><g style="stroke:#000000;stroke-width:0.529"><path d="M162.53,142.37L162.53,142.37L162.56,142.40L162.57,142.44L162.58,142.48L162.57,142.54L162.55,142.59L162.53,142.65L162.50,142.70L162.46,142.74L162.42,142.77L162.37,142.79L162.33,142.80L162.30,142.79L162.29,142.79"/></g></g><g id="Actor_.21"><g style="stroke:#000000;stroke-width:0.176"><path d="M106.85,111.04L106.84,111.02L106.83,111.00L106.83,110.98L106.83,110.95L106.84,110.92L106.85,110.89L106.87,110.87L106.89,110.85L106.91,110.83L106.94,110.82L106.96,110.82L106.98,110.82"/><path d="M107.00,110.87L107.00,110.87"/><path d="M106.91,111.04L106.91,111.04"/><path d="M107.00,110.90L107.00,110.88L106.99,110.86L106.98,110.85L106.97,110.85L106.95,110.85L106.93,110.86L106.91,110.87L106.90,110.89L106.88,110.91L106.87,110.93L106.86,110.96L106.86,110.98L106.86,111.00L106.87,111.02L106.88,111.03L106.89,111.03L106.91,111.04L106.92,111.03"/></g><g style="stroke:#000000;stroke-width:0.529"><path d="M106.88,110.77L106.98,110.82L106.99,110.83L107.00,110.85L107.00,110.87L107.00,110.90L107.00,110.92L107.00,110.94L106.99,110.96L106.98,110.98L106.96,111.00L106.94,111.02L106.92,111.03L106.91,111.04L106.88,111.05L106.86,111.05L106.85,111.04L106.75,110.98"/></g></g><g id="Actor_.22"><g style="stroke:#000000;stroke-width:0.176"><path d="M196.03,140.10L196.03,140.10L196.04,140.10L196.05,140.10L196.06,140.10L196.07,140.10"/><path d="M196.29,140.49L196.29,140.44L196.29,140.43L196.29,140.42L196.28,140.41L196.28,140.40L196.27,140.40L196.28,140.41L196.28,140.41"/><path d="M195.65,140.49L195.65,140.51L195.65,140.56L195.66,140.61L195.67,140.64L195.70,140.67L195.74,140.68L195.78,140.67L195.82,140.65L195.87,140.62L195.91,140.58L195.95,140.53L195.98,140.47L195.99,140.41L196.00,140.36L196.00,140.31L195.99,140.27L195.96,140.24L195.93,140.22L195.89,140.22L195.85,140.23L195.80,140.25L195.77,140.28"/><path d="M196.03,140.02L195.89,140.10L195.83,140.14L195.77,140.20L195.71,140.28L195.67,140.36L195.64,140.44L195.64,140.46L195.63,140.52L195.63,140.60L195.64,140.66L195.67,140.71L195.71,140.74"/><path d="M196.24,139.92L196.26,139.96L196.26,139.97L196.26,139.98L196.25,139.99L196.25,140.00L196.25,140.00L196.18,140.04"/><path d="M196.21,140.02L196.21,140.02L196.21,140.01L196.22,140.01L196.22,139.99L196.22,139.97L196.22,139.92"/><path d="M196.20,140.44L196.25,140.41L196.26,140.41L196.27,140.40L196.27,140.40"/><path d="M196.25,140.00L196.25,139.99L196.27,139.98L196.28,139.97L196.28,139.96L196.29,139.94L196.29,139.93L196.29,139.92L196.29,139.87L196.43,139.79"/><path d="M196.29,139.87L196.18,139.80"/><path d="M196.25,140.00L196.25,140.00"/></g><g style="stroke:#000000;stroke-width:0.529"><path d="M196.18,140.04L196.07,140.10L196.06,140.10L196.06,140.10L196.05,140.10L196.04,140.10L196.03,140.10L196.03,140.09L196.03,140.08L196.03,140.07L196.03,140.02L195.91,139.96L195.78,140.03L195.72,140.08L195.66,140.14L195.64,140.17L195.60,140.21L195.56,140.29L195.53,140.38L195.51,140.46L195.51,140.53L195.53,140.60L195.56,140.65L195.60,140.68L195.71,140.74L195.77,140.75L195.83,140.75L195.89,140.72L196.03,140.64L196.03,140.59L196.03,140.58L196.03,140.57L196.03,140.55L196.04,140.54L196.05,140.53L196.06,140.52L196.07,140.51L196.20,140.44"/><path d="M196.18,140.04L196.18,139.80L196.31,139.73L196.43,139.79L196.43,140.41L196.29,140.49L196.20,140.44"/><path d="M195.77,140.28L195.76,140.29L195.72,140.34L195.69,140.39L195.66,140.45L195.65,140.49"/></g></g><g id="Actor_2.0"><g style="stroke:#000000;stroke-width:0.176"><path d="M165.81,163.82L165.85,163.95L165.95,164.07L166.10,164.18L166.29,164.26L166.51,164.31L166.74,164.33L166.98,164.31L167.20,164.27L167.39,164.19L167.54,164.08L167.65,163.96L167.69,163.83"/></g><g style="stroke:#000000;stroke-width:0.529"><path d="M165.91,163.54L165.90,163.55L165.82,163.68L165.81,163.82L165.81,163.97L165.85,164.10L165.95,164.23L166.10,164.33L166.29,164.41L166.51,164.47L166.74,164.48L166.98,164.47L167.20,164.42L167.39,164.34L167.54,164.24L167.65,164.12L167.69,163.98L167.69,163.83L167.68,163.69L167.61,163.56L167.59,163.55"/></g></g><g id="Actor_.23"><g style="stroke:#000000;stroke-width:0.176"><path d="M200.46,140.03L200.46,139.88L200.50,139.85L200.51,139.85L200.52,139.84L200.53,139.83L200.54,139.81L200.54,139.80L200.55,139.78L200.55,139.78L200.55,139.78L200.54,139.79L200.54,139.79L200.53,139.80L200.51,139.80L200.47,139.81"/><path d="M200.48,139.78L200.52,139.76L200.53,139.75L200.54,139.74L200.55,139.73L200.55,139.73L200.55,139.72L200.55,139.78L200.55,139.76"/><path d="M200.55,139.78L200.55,139.77"/><path d="M200.56,139.22L200.55,139.23L200.55,139.29L200.55,139.33L200.57,139.37L200.60,139.40L200.63,139.41L200.67,139.41L200.71,139.40L200.76,139.37L200.80,139.33L200.84,139.28L200.87,139.22L200.89,139.16L200.90,139.11L200.90,139.06L200.89,139.01L200.87,138.98L200.84,138.96L200.80,138.95L200.76,138.96L200.71,138.98L200.67,139.02"/><path d="M200.93,138.94L200.88,138.92L200.82,138.92L200.76,138.93L200.69,138.97L200.63,139.03L200.57,139.09L200.53,139.17L200.51,139.21L200.49,139.25L200.47,139.34L200.46,139.41L200.46,139.57"/><path d="M200.35,139.81L200.46,139.88"/><path d="M200.55,139.57L200.55,139.56L200.54,139.55L200.54,139.54L200.53,139.54L200.53,139.54"/><path d="M200.55,139.72L200.55,139.70"/><path d="M200.90,139.52L200.90,139.57L200.90,139.58L200.91,139.59L200.91,139.59L200.91,139.60L200.92,139.60L200.93,139.60L200.94,139.60L200.95,139.60L200.99,139.57"/></g><g style="stroke:#000000;stroke-width:0.529"><path d="M200.55,139.70L200.35,139.81L200.35,139.97L200.46,140.03L200.99,139.73L200.99,139.57L200.90,139.52"/><path d="M200.67,139.02L200.67,139.02L200.63,139.06L200.60,139.12L200.57,139.17L200.56,139.22"/><path d="M200.55,139.70L200.55,139.57L200.55,139.57L200.55,139.56L200.54,139.55L200.53,139.54L200.53,139.54L200.52,139.54L200.51,139.54L200.50,139.54L200.46,139.57L200.35,139.50L200.35,139.35L200.35,139.27L200.38,139.19L200.41,139.11L200.46,139.03L200.52,138.96L200.58,138.91L200.65,138.87L200.71,138.85L200.77,138.85L200.81,138.88L200.93,138.94L200.96,138.98L200.99,139.04L200.99,139.11L200.99,139.26L200.95,139.29L200.94,139.29L200.93,139.30L200.92,139.31L200.91,139.33L200.91,139.34L200.90,139.36L200.90,139.36L200.90,139.52"/></g></g><g id="Actor_.24"><g style="stroke:#000000;stroke-width:0.176"><path d="M195.70,140.65L195.67,140.62L195.66,140.59L195.65,140.54L195.66,140.49L195.68,140.43L195.70,140.38L195.74,140.33L195.77,140.29L195.82,140.25L195.86,140.23L195.90,140.23L195.93,140.23"/><path d="M195.77,140.49L195.82,140.52L195.88,140.46L195.80,140.41L195.80,140.40"/><path d="M195.82,140.52L195.77,140.51L195.77,140.44L195.83,140.37L195.88,140.38L195.88,140.46"/><path d="M195.80,140.41L195.77,140.44L195.78,140.43L195.79,140.42"/></g><g style="stroke:#000000;stroke-width:0.529"><path d="M195.93,140.23L195.93,140.23L195.96,140.25L195.98,140.28L195.99,140.33L195.99,140.38L195.98,140.43L195.96,140.49L195.93,140.54L195.90,140.59L195.85,140.62L195.81,140.65L195.77,140.66L195.73,140.66L195.70,140.65L195.69,140.65"/></g></g><g id="Actor_4.0"><g style="stroke:#000000;stroke-width:0.176"><path d="M94.33,129.31L94.33,129.40L94.28,129.37L94.12,129.23L94.06,129.15"/><path d="M94.08,129.37L94.08,129.37"/><path d="M94.56,129.44L94.33,129.40"/><path d="M94.12,129.23L94.12,129.23"/><path d="M94.17,129.48L94.17,129.48"/></g><g style="stroke:#000000;stroke-width:0.529"><path d="M94.17,129.48L94.08,129.37"/><path d="M94.04,129.14L94.04,129.23L94.04,129.25L94.08,129.35L94.08,129.37"/><path d="M94.17,129.48L94.29,129.56L94.30,129.57L94.45,129.63L94.62,129.66L94.80,129.68L94.95,129.66"/></g></g><g id="Actor_6.0"><g style="stroke:#000000;stroke-width:0.176"><path d="M77.14,70.25L77.14,70.25"/><path d="M76.99,70.42L76.99,70.42L76.97,70.41L76.97,70.39L76.96,70.36L76.97,70.34L76.97,70.31L76.99,70.28L77.00,70.25L77.02,70.23L77.05,70.21L77.07,70.20L77.09,70.20L77.11,70.20L77.11,70.20"/><path d="M77.07,70.41L77.05,70.41L77.03,70.41L77.02,70.41L77.01,70.40L77.00,70.38L77.00,70.36L77.00,70.34L77.01,70.32L77.02,70.29L77.03,70.27L77.05,70.26L77.07,70.24L77.08,70.23L77.10,70.23L77.12,70.23L77.13,70.24L77.14,70.25L77.14,70.27"/><path d="M77.14,70.29L77.14,70.29"/></g><g style="stroke:#000000;stroke-width:0.529"><path d="M77.11,70.20L77.12,70.21L77.14,70.23L77.14,70.25L77.14,70.27L77.14,70.29"/><path d="M76.81,70.03L77.11,70.20"/><path d="M76.99,70.42L77.00,70.43L77.02,70.43L77.05,70.42L77.07,70.41L77.08,70.40L77.10,70.38L77.12,70.36L77.13,70.34L77.14,70.31L77.14,70.29"/><path d="M76.99,70.42L76.68,70.25"/></g></g><g id="Actor_6.1"><g style="stroke:#000000;stroke-width:0.176"><path d="M76.27,71.34L76.27,71.34L76.26,71.33L76.25,71.31L76.25,71.29L76.25,71.26L76.26,71.23L76.27,71.20L76.29,71.18L76.31,71.15L76.33,71.14L76.36,71.13L76.38,71.12L76.40,71.12L76.40,71.12"/><path d="M76.35,71.33L76.33,71.34L76.32,71.34L76.30,71.33L76.29,71.32L76.29,71.31L76.28,71.29L76.29,71.27L76.29,71.24L76.30,71.22L76.32,71.20L76.33,71.18L76.35,71.17L76.37,71.16L76.39,71.15L76.40,71.16L76.41,71.16L76.42,71.18L76.43,71.20"/><path d="M75.63,70.97L75.63,71.01"/><path d="M76.43,71.17L76.43,71.17"/><path d="M76.43,71.22L76.43,71.22"/></g><g style="stroke:#000000;stroke-width:0.529"><path d="M76.40,71.12L76.10,70.95"/><path d="M76.43,71.22L76.42,71.24L76.41,71.26L76.40,71.28L76.39,71.30L76.37,71.32L76.35,71.33L76.33,71.34L76.31,71.35L76.29,71.35L76.27,71.34"/><path d="M76.27,71.34L75.97,71.17"/><path d="M75.63,70.97L75.63,70.97L75.63,71.01L75.63,71.05L75.63,71.06"/><path d="M76.40,71.12L76.41,71.13L76.42,71.15L76.43,71.17L76.43,71.22"/></g></g><g id="Actor_8.0"><g style="stroke:#000000;stroke-width:0.176"><path d="M220.06,142.04L220.06,143.33"/><path d="M221.78,142.32L220.67,141.68L220.66,141.68L220.66,141.68L220.66,141.68"/><path d="M220.65,141.72L221.74,142.35L221.74,142.35L221.75,142.35L221.75,142.36L221.76,142.37L221.76,142.37L221.76,142.38L221.76,142.38L221.76,142.77L221.71,142.82L221.70,142.82L221.66,142.87L221.62,142.94L221.59,143.01L221.58,143.04L221.57,143.08L221.56,143.14L221.57,143.20L221.59,143.25L221.62,143.28L221.66,143.30L221.71,143.30L221.76,143.29L221.56,143.17"/><path d="M221.80,142.34L221.81,142.35L221.81,142.36L221.81,142.75L221.86,142.73L221.91,142.73L221.95,142.75L221.98,142.78L222.00,142.83L222.01,142.89L222.00,142.96L221.98,143.03L221.95,143.10L221.91,143.16L221.86,143.22L221.81,143.26L221.56,143.12"/><path d="M220.68,142.22L220.68,142.19L220.70,142.16L220.72,142.14L220.75,142.12L220.80,142.11L220.84,142.10L220.89,142.10L220.93,142.10L220.98,142.12L221.01,142.13L221.04,142.16L221.05,142.18L221.06,142.21L221.05,142.24L221.03,142.26L221.00,142.28L220.97,142.30L220.92,142.31L220.88,142.31L220.83,142.31L220.78,142.30L220.75,142.29L220.71,142.27L220.69,142.24L220.68,142.22"/><path d="M220.93,142.31L220.89,142.30L220.84,142.30L220.82,142.31"/><path d="M221.52,141.92L221.51,141.92L221.49,141.93L221.45,141.92L221.41,141.90L221.38,141.88L221.36,141.86L221.35,141.83L221.35,141.80L221.37,141.78L221.39,141.76L221.42,141.74L221.46,141.72L221.51,141.71L221.56,141.71L221.60,141.72L221.64,141.73L221.68,141.75L221.70,141.77"/><path d="M221.49,141.93L221.50,141.93L221.51,141.93"/><path d="M221.81,143.26L221.81,143.37L221.76,143.39L221.76,143.34L221.81,143.37"/><path d="M221.76,143.29L221.76,143.34"/><path d="M222.35,143.33L222.35,142.48"/><path d="M221.76,142.72L221.81,142.75"/></g><g style="stroke:#000000;stroke-width:0.529"><path d="M222.35,143.33L222.35,143.34L222.34,143.35L222.34,143.35L222.33,143.36L221.22,144.00L221.21,144.00L221.21,144.00L221.20,144.00L221.19,144.00L220.08,143.36L220.07,143.35L220.06,143.34L220.06,143.34L220.06,143.33"/><path d="M221.79,141.70L221.22,141.37L221.21,141.37L221.20,141.37L221.19,141.37L221.19,141.37L220.65,141.68L220.65,141.68L220.65,141.69L220.65,141.69L220.65,141.72L220.63,141.71L220.62,141.70L220.62,141.70L220.61,141.70L220.07,142.01L220.07,142.02L220.06,142.02L220.06,142.03L220.06,142.04"/></g></g><g id="Actor_2.1"><g style="stroke:#000000;stroke-width:0.176"><path d="M93.85,127.15L93.90,127.28L94.00,127.41L94.15,127.51L94.34,127.59L94.57,127.64L94.80,127.65L95.04,127.63L95.26,127.58L95.45,127.50L95.59,127.40L95.69,127.27L95.73,127.14"/></g><g style="stroke:#000000;stroke-width:0.529"><path d="M93.95,126.87L93.93,126.88L93.86,127.01L93.85,127.15L93.85,127.31L93.90,127.44L94.00,127.56L94.15,127.66L94.34,127.74L94.57,127.79L94.80,127.81L95.04,127.79L95.26,127.74L95.45,127.66L95.59,127.55L95.69,127.43L95.73,127.29L95.73,127.14L95.72,127.00L95.64,126.87L95.63,126.87"/></g></g><g id="Actor_3.0"><g style="stroke:#000000;stroke-width:0.176"><path d="M166.13,164.10L166.13,163.68L166.11,163.60L166.02,163.38L166.00,163.30L166.00,163.20L166.05,163.12L166.12,163.03"/><path d="M166.28,164.12L166.35,164.16L166.52,164.20L166.71,164.22L166.87,164.21L166.25,164.12"/><path d="M165.91,163.20L165.98,163.30L166.02,163.38L166.08,163.47L166.16,163.54L166.28,163.61L166.41,163.66L166.56,163.69L166.40,163.67L166.13,163.68"/><path d="M166.00,163.82L166.08,163.98"/><path d="M166.71,162.84L166.63,162.84L166.48,162.87L166.34,162.91L166.22,162.96"/><path d="M166.98,163.81L167.17,163.65L167.29,163.58L167.17,163.63L167.02,163.68L166.87,163.70L166.71,163.70L166.56,163.69L166.88,163.77L166.98,163.81L166.98,164.23L166.87,164.21"/><path d="M166.98,164.23L167.43,163.97"/><path d="M167.06,164.18L167.08,164.18L167.24,164.12L167.25,164.11"/><path d="M167.59,163.46L167.52,163.48L167.29,163.58L167.38,163.51L167.46,163.43L167.50,163.34L167.51,163.25L167.48,163.16L167.43,163.08L167.34,163.00L167.23,162.93L167.09,162.88L166.95,162.85"/></g><g style="stroke:#000000;stroke-width:0.529"><path d="M167.25,164.11L167.37,164.04L167.43,163.97L167.59,163.88L167.59,163.46L167.52,163.26L167.48,163.16L167.39,163.01L167.37,162.97L167.10,162.88L166.95,162.85L166.79,162.84L166.71,162.84L166.62,162.84L166.52,162.84L166.33,162.91L166.22,162.96L166.12,163.03L166.10,163.05L165.98,163.13L165.91,163.20L165.91,163.62L166.00,163.82L166.02,163.90L166.08,163.98L166.13,164.10L166.25,164.12"/><path d="M166.90,166.08L166.84,166.10L166.73,166.10L166.62,166.09L166.59,166.08"/></g></g><g id="Actor_5.0"><g style="stroke:#000000;stroke-width:0.176"><path d="M219.90,154.24L219.90,154.24"/><path d="M221.29,153.60L221.27,153.61L221.25,153.62L221.22,153.62L221.19,153.62L221.16,153.62L221.14,153.61L221.12,153.60L220.14,153.04L220.11,153.03L220.08,153.02L220.05,153.03L220.03,153.04L220.01,153.06L220.00,153.09L220.00,153.12L220.00,154.25L220.00,154.28L220.01,154.29L220.02,154.31L220.03,154.32"/><path d="M222.49,152.74L222.48,152.76L222.47,152.77L222.45,152.78L221.55,153.30L221.29,153.45L221.27,153.46L221.25,153.46L221.22,153.47L221.19,153.47L221.16,153.46L221.14,153.46L221.12,153.45L220.14,152.89L220.08,152.86L220.02,152.85L219.97,152.86"/><path d="M221.01,153.54L221.01,153.55L220.98,153.55L220.96,153.55L220.94,153.54L220.92,153.51L220.92,153.49"/><path d="M221.34,152.83L221.32,152.84L221.27,152.85L221.21,152.86L221.16,152.86L221.10,152.84L221.06,152.83L221.02,152.80L221.00,152.77L220.98,152.74L220.99,152.71L221.00,152.68L221.02,152.67"/><path d="M221.38,152.81L221.39,152.80L221.42,152.77L221.42,152.74L221.42,152.70L221.40,152.67L221.39,152.67"/></g><g style="stroke:#000000;stroke-width:0.529"><path d="M221.29,153.60L222.45,152.94L222.47,152.93L222.48,152.91L222.49,152.89L222.49,152.72L222.48,152.71L222.47,152.69L222.45,152.68L221.47,152.12L221.41,152.09L221.36,152.08L221.31,152.09L219.97,152.86L219.93,152.88L219.89,152.92L219.87,152.98L219.87,153.04L219.87,154.18L219.87,154.20L219.88,154.22L219.89,154.23L220.03,154.32L220.05,154.32L220.07,154.31L220.09,154.31L221.25,153.64L221.27,153.63L221.29,153.61L221.29,153.60"/><path d="M220.21,153.33L220.21,153.31L220.22,153.28L220.24,153.24L220.27,153.21L220.29,153.19"/><path d="M221.38,152.81L221.36,152.82L221.34,152.83"/><path d="M222.49,152.72L222.49,152.88L222.49,152.74"/><path d="M222.49,152.89L222.49,152.88"/></g></g><g id="Actor_3.1"><g style="stroke:#000000;stroke-width:0.176"><path d="M94.40,126.23L94.32,126.26L94.20,126.32L94.12,126.40L94.06,126.48L94.04,126.57L94.04,126.66L94.09,126.75L94.16,126.83L94.26,126.90L94.49,127.07L94.57,127.13L94.83,127.04L94.99,127.01L94.83,127.03L94.67,127.02L94.52,127.00L94.38,126.96L94.26,126.90L94.14,126.84L93.95,126.78"/><path d="M94.29,127.43L94.41,127.48L94.47,127.50L94.11,127.29"/><path d="M94.68,127.54L94.77,127.54L94.96,127.53L95.13,127.50L95.27,127.45L94.57,127.55L94.57,127.13"/><path d="M94.57,127.55L94.47,127.50"/><path d="M94.99,127.01L95.13,126.98L95.27,126.93L95.38,126.87L95.47,126.79L95.52,126.71L95.48,126.80L95.41,127.00L95.31,127.00L94.99,127.01"/><path d="M95.18,126.22L95.06,126.19L94.91,126.17L94.75,126.16L94.60,126.18"/><path d="M95.41,127.00L95.41,127.42"/><path d="M95.63,126.52L95.61,126.56L95.52,126.71L95.55,126.62L95.54,126.53L95.50,126.44L95.43,126.36L95.33,126.29"/><path d="M95.54,127.13L95.47,127.30"/><path d="M95.27,127.45L95.29,127.44"/></g><g style="stroke:#000000;stroke-width:0.529"><path d="M94.29,127.43L94.26,127.42L94.14,127.33L94.11,127.29L93.95,127.20L93.95,126.78L93.97,126.70L94.06,126.48L94.10,126.40L94.17,126.30L94.27,126.26L94.40,126.23L94.45,126.21L94.60,126.18L94.75,126.16L95.02,126.17L95.09,126.19L95.18,126.22L95.21,126.23L95.33,126.29L95.44,126.36L95.63,126.52L95.63,126.94L95.54,127.13L95.54,127.15L95.50,127.26L95.47,127.30L95.41,127.42L95.29,127.44"/></g></g><g id="Actor_.25"><g style="stroke:#000000;stroke-width:0.176"><path d="M90.94,114.35L90.92,114.34L90.90,114.34L90.88,114.35L90.86,114.36L90.84,114.38L90.82,114.41L90.80,114.44L90.79,114.47L90.79,114.49L90.79,114.52L90.79,114.54L90.80,114.56L90.82,114.57"/><path d="M90.90,114.55L90.88,114.55L90.86,114.56L90.85,114.56L90.83,114.55L90.83,114.53L90.82,114.52L90.82,114.50L90.83,114.47L90.83,114.45L90.85,114.43L90.86,114.41L90.88,114.39L90.90,114.38L90.91,114.37L90.93,114.37L90.94,114.38L90.95,114.39L90.96,114.40L90.96,114.42"/></g><g style="stroke:#000000;stroke-width:0.529"><path d="M90.82,114.57L90.84,114.57L90.86,114.57L90.88,114.55L90.90,114.55L90.92,114.53L90.93,114.51L90.95,114.49L90.96,114.47L90.96,114.44L90.96,114.42L90.96,114.40L90.96,114.38L90.95,114.36L90.94,114.35L90.85,114.29"/><path d="M90.72,114.51L90.82,114.57"/></g></g><g id="Actor_4.1"><g style="stroke:#000000;stroke-width:0.176"><path d="M166.02,165.64L166.22,165.76L166.35,165.81L166.49,165.85L166.55,165.86L166.63,165.88L166.72,165.89L166.72,165.27L166.69,165.26"/><path d="M166.72,165.27L166.81,165.23L167.11,165.10L167.23,165.05L167.35,164.98L167.43,164.91L167.49,164.82L167.49,164.80"/><path d="M167.50,164.79L167.50,164.83L167.49,165.04L167.25,165.06L167.11,165.10L166.96,165.13L166.90,165.14"/><path d="M166.81,165.88L167.11,165.83L166.96,165.86L166.93,165.86L166.81,165.88L166.72,165.89"/><path d="M166.35,165.81L166.55,165.86"/><path d="M167.49,165.04L167.49,165.65L167.25,165.78L167.11,165.83"/><path d="M166.49,165.85L166.49,165.85"/><path d="M167.51,165.46L167.50,165.54L167.49,165.65"/></g><g style="stroke:#000000;stroke-width:0.529"><path d="M167.52,164.78L167.52,165.15L167.52,165.23L167.51,165.46L167.50,165.65L167.50,165.67L167.46,165.77L167.46,165.79L167.36,165.90L167.25,165.98L167.23,165.99L167.09,166.05L166.92,166.08L166.74,166.09L166.56,166.08L166.40,166.04L166.25,165.98L166.24,165.97L166.13,165.89L166.12,165.88L166.04,165.78L166.03,165.76L166.00,165.66L166.00,165.65"/></g></g><g id="Actor_6.2"><g style="stroke:#000000;stroke-width:0.176"><path d="M220.46,153.22L220.44,153.23L220.41,153.26L220.39,153.29L220.36,153.33L220.34,153.37L220.33,153.42L220.32,153.46L220.32,153.50L220.32,153.53L220.34,153.56L220.36,153.58L220.38,153.59L220.41,153.59L220.44,153.59L220.47,153.58L220.50,153.55L220.53,153.53"/><path d="M219.87,153.02L219.87,153.02L219.85,153.05L219.84,153.08L219.83,153.11L219.83,153.13"/><path d="M220.57,153.47L220.59,153.45L220.61,153.41L220.62,153.37L220.63,153.33"/><path d="M220.34,153.16L220.22,153.29L220.32,153.34L220.32,153.42L220.32,153.46L220.30,153.54L220.29,153.56"/><path d="M220.45,153.22L220.44,153.23L220.41,153.26L220.34,153.32L220.32,153.34"/><path d="M220.22,153.29L220.20,153.47"/><path d="M220.32,153.16L220.29,153.19L220.26,153.23L220.23,153.28L220.21,153.33L220.20,153.38"/><path d="M220.21,153.40L220.21,153.40"/></g><g style="stroke:#000000;stroke-width:0.529"><path d="M220.20,153.38L220.19,153.42L220.20,153.46L220.20,153.47L220.20,153.51L220.29,153.56L220.35,153.58L220.38,153.59L220.42,153.60L220.44,153.61L220.50,153.56L220.53,153.53L220.56,153.49L220.57,153.47L220.59,153.45L220.60,153.43L220.62,153.37L220.63,153.33"/><path d="M219.87,153.19L219.86,153.19L219.85,153.18L219.84,153.16L219.83,153.13L219.83,153.11L219.83,153.09L219.84,153.07L219.85,153.05L219.86,153.02L219.87,153.01"/><path d="M220.33,153.15L220.33,153.15L220.32,153.16"/><path d="M220.63,153.32L220.63,153.33"/></g></g><g id="Actor_9.0"><g style="stroke:#000000;stroke-width:0.176"><path d="M75.96,69.07L75.95,69.10L75.92,69.12L75.89,69.14L75.85,69.16L75.81,69.17L75.76,69.17L75.72,69.17L75.67,69.16L75.63,69.14L75.61,69.12L75.59,69.09L75.58,69.07"/><path d="M75.65,68.98L75.63,68.99L75.62,69.02L75.61,69.04L75.62,69.06L75.64,69.08L75.66,69.10L75.69,69.11L75.73,69.12L75.76,69.12L75.80,69.12L75.84,69.11L75.87,69.10L75.90,69.08L75.91,69.06L75.92,69.04L75.92,69.02L75.91,69.00L75.89,68.98"/></g><g style="stroke:#000000;stroke-width:0.529"><path d="M75.96,69.38L75.96,69.07L75.96,69.05L75.94,69.02L75.92,69.00L75.89,68.98L75.86,68.96L75.83,68.95L75.79,68.95L75.75,68.95L75.72,68.95L75.68,68.96L75.65,68.98L75.63,68.99L75.60,69.01L75.58,69.04L75.58,69.07L75.58,69.38"/></g></g><g id="Actor_2.2"><g style="stroke:#000000;stroke-width:0.176"><path d="M201.45,143.37L201.49,143.50L201.59,143.63L201.74,143.73L201.93,143.81L202.15,143.87L202.39,143.88L202.62,143.87L202.84,143.82L203.04,143.74L203.19,143.64L203.29,143.51L203.34,143.38"/></g><g style="stroke:#000000;stroke-width:0.529"><path d="M201.55,143.10L201.55,143.11L201.47,143.23L201.45,143.37L201.45,143.53L201.49,143.66L201.59,143.78L201.74,143.89L201.93,143.97L202.15,144.02L202.39,144.04L202.62,144.02L202.84,143.97L203.04,143.90L203.19,143.79L203.29,143.67L203.34,143.54L203.34,143.38L203.33,143.25L203.26,143.12L203.24,143.10"/></g></g><g id="Actor_5.1"><g style="stroke:#000000;stroke-width:0.176"><path d="M75.80,71.59L75.79,71.58L75.78,71.57L75.77,71.55L75.77,71.53L75.77,70.39L75.76,70.32L75.74,70.24L75.71,70.16L75.67,70.09L75.62,70.02L75.56,69.97L75.50,69.93L74.52,69.36L74.50,69.35L74.49,69.34L74.48,69.32"/><path d="M75.97,71.12L75.97,71.15L75.97,71.18L75.98,71.21L76.00,71.22L76.02,71.23L76.05,71.23L76.06,71.22"/><path d="M76.05,70.98L76.07,70.96L76.10,70.95L76.13,70.94L76.15,70.95L76.17,70.96L76.18,70.98L76.19,71.01"/><path d="M75.60,69.39L75.57,69.37L75.55,69.34L75.55,69.31L75.56,69.28L75.58,69.25L75.58,69.25"/><path d="M75.94,69.39L75.97,69.36L75.99,69.33L75.99,69.30L75.98,69.27L75.96,69.25"/><path d="M76.77,70.05L76.79,70.04L76.81,70.02L76.84,70.02L76.86,70.02L76.88,70.04L76.90,70.06L76.90,70.08"/><path d="M76.68,70.20L76.68,70.23L76.69,70.26L76.70,70.28L76.71,70.30L76.73,70.31L76.76,70.31L76.78,70.30"/></g><g style="stroke:#000000;stroke-width:0.529"><path d="M76.27,71.34L75.86,71.58L75.84,71.59L75.82,71.59L75.80,71.59L75.65,71.50L75.64,71.49L75.64,71.47L75.63,71.45L75.63,70.31L75.63,70.28L75.62,70.24L75.61,70.20L75.58,70.16L75.56,70.13L75.53,70.10L75.50,70.08L74.52,69.52L74.50,69.51L74.49,69.49L74.48,69.48L74.48,69.31L74.48,69.48L74.48,69.31L74.49,69.29L74.50,69.27L74.52,69.26L75.68,68.60L75.70,68.59L75.73,68.58L75.75,68.58L75.78,68.58L75.81,68.58L75.84,68.59L75.86,68.60L76.84,69.16L76.90,69.20L76.95,69.26L77.00,69.32L77.05,69.40L77.08,69.47L77.10,69.55L77.11,69.62L77.11,70.20"/><path d="M76.05,70.98L76.05,70.99L76.02,71.01L76.00,71.05L75.98,71.08L75.97,71.12L75.97,71.12"/><path d="M75.60,69.39L75.60,69.40L75.64,69.42L75.69,69.43L75.75,69.44L75.80,69.44L75.86,69.43L75.90,69.41L75.94,69.39"/><path d="M77.11,70.37L77.11,70.76L77.10,70.78L77.10,70.81L77.09,70.83L77.07,70.86L77.05,70.88L77.04,70.90L77.02,70.91L76.42,71.26"/><path d="M76.77,70.05L76.76,70.06L76.73,70.09L76.71,70.12L76.70,70.16L76.69,70.19L76.68,70.20"/></g></g><g id="Actor_9.1"><g style="stroke:#000000;stroke-width:0.176"><path d="M221.39,152.49L221.38,152.52L221.36,152.54L221.33,152.56L221.29,152.58L221.25,152.59L221.20,152.59L221.15,152.59L221.11,152.58L221.07,152.56L221.04,152.54L221.02,152.51L221.02,152.49"/><path d="M221.09,152.39L221.07,152.41L221.05,152.43L221.05,152.46L221.06,152.48L221.07,152.50L221.10,152.52L221.13,152.53L221.16,152.54L221.20,152.54L221.24,152.54L221.27,152.53L221.31,152.52L221.33,152.50L221.35,152.48L221.36,152.46L221.36,152.44L221.35,152.42L221.33,152.40"/></g><g style="stroke:#000000;stroke-width:0.529"><path d="M221.02,152.80L221.02,152.49L221.02,152.46L221.04,152.43L221.06,152.41L221.09,152.39L221.12,152.38L221.15,152.37L221.19,152.37L221.23,152.37L221.27,152.37L221.30,152.38L221.33,152.40L221.35,152.42L221.38,152.44L221.39,152.46L221.39,152.49L221.39,152.80"/></g></g><g id="Actor_2.3"><g style="stroke:#000000;stroke-width:0.176"><path d="M208.58,139.28L208.62,139.41L208.72,139.54L208.87,139.64L209.06,139.73L209.28,139.78L209.52,139.79L209.75,139.78L209.97,139.73L210.17,139.65L210.32,139.55L210.42,139.43L210.47,139.29"/></g><g style="stroke:#000000;stroke-width:0.529"><path d="M208.68,139.01L208.67,139.02L208.60,139.15L208.58,139.28L208.58,139.44L208.62,139.57L208.72,139.69L208.87,139.80L209.06,139.88L209.28,139.93L209.52,139.95L209.75,139.93L209.97,139.89L210.17,139.81L210.32,139.70L210.42,139.58L210.47,139.45L210.47,139.29L210.46,139.16L210.39,139.03L210.37,139.01"/></g></g><g id="Actor_3.2"><g style="stroke:#000000;stroke-width:0.176"><path d="M173.26,160.01L173.26,159.59L173.24,159.51L173.15,159.29L173.13,159.21L173.13,159.11L173.17,159.03L173.25,158.94"/><path d="M173.54,160.05L174.00,160.12L173.84,160.13L173.65,160.11L173.48,160.07L173.41,160.03L173.54,160.05"/><path d="M173.21,159.89L173.13,159.73"/><path d="M173.41,160.03L173.38,160.03"/><path d="M173.84,158.75L173.76,158.75L173.61,158.78L173.47,158.82L173.35,158.88"/><path d="M173.26,159.59L173.53,159.59L173.68,159.60L173.54,159.57L173.41,159.52L173.29,159.45L173.21,159.38L173.15,159.29L173.11,159.21L173.04,159.11"/><path d="M174.56,159.88L174.11,160.14L174.11,159.72L174.01,159.68L173.68,159.60L173.84,159.62L174.00,159.61L174.15,159.59L174.29,159.54L174.41,159.49L174.30,159.56L174.11,159.72"/><path d="M174.11,160.14L174.00,160.12"/><path d="M174.38,160.02L174.37,160.03L174.21,160.09L174.19,160.09"/><path d="M174.72,159.37L174.65,159.39L174.41,159.49L174.51,159.42L174.59,159.34L174.63,159.25L174.64,159.16L174.61,159.07L174.56,158.99L174.47,158.91L174.36,158.84L174.22,158.79L174.08,158.76"/></g><g style="stroke:#000000;stroke-width:0.529"><path d="M174.38,160.02L174.50,159.95L174.56,159.88L174.72,159.79L174.72,159.37L174.65,159.17L174.61,159.07L174.52,158.92L174.50,158.88L174.23,158.79L174.08,158.76L173.92,158.75L173.84,158.75L173.75,158.75L173.65,158.75L173.46,158.82L173.35,158.88L173.25,158.94L173.23,158.96L173.11,159.05L173.04,159.11L173.04,159.53L173.13,159.73L173.15,159.81L173.21,159.89L173.26,160.01L173.38,160.03"/><path d="M173.72,161.99L173.75,162.00L173.86,162.01L173.97,162.01L174.03,162.00"/></g></g><g id="Actor_8.1"><g style="stroke:#000000;stroke-width:0.176"><path d="M74.62,59.91L74.62,58.93"/><path d="M76.13,59.75L76.33,59.87L76.27,59.88L76.22,59.88L76.18,59.87L76.15,59.83L76.13,59.78L76.12,59.73L76.13,59.66L76.15,59.59L76.18,59.52L76.22,59.46L76.27,59.40L76.33,59.35L76.33,58.97L76.32,58.96L76.32,58.95L76.32,58.95L76.32,58.94L76.31,58.94L76.31,58.93L76.30,58.93L75.67,58.56"/><path d="M76.33,59.92L76.33,59.97L76.37,59.95L76.33,59.92L76.33,59.87"/><path d="M76.37,59.95L76.37,59.84L76.13,59.70"/><path d="M76.37,59.84L76.42,59.80L76.47,59.74L76.51,59.68L76.54,59.61L76.56,59.54L76.57,59.47L76.56,59.41L76.54,59.36L76.51,59.33L76.47,59.31L76.46,59.31L76.42,59.31L76.37,59.33L76.37,58.94L76.37,58.93L76.37,58.93L76.37,58.92L76.36,58.92L76.36,58.91L76.35,58.91L76.35,58.90L75.69,58.53"/><path d="M75.57,58.72L75.59,58.73L75.61,58.75L75.62,58.78L75.62,58.80L75.61,58.83L75.58,58.85L75.55,58.87L75.51,58.89L75.46,58.89"/><path d="M75.49,58.89L75.48,58.89L75.47,58.89"/><path d="M76.05,58.51L76.04,58.51L76.00,58.49L75.96,58.48L75.93,58.45L75.92,58.43L75.91,58.40L75.92,58.37L75.94,58.35L75.97,58.33L76.01,58.31L76.05,58.30L76.10,58.29L76.14,58.30L76.19,58.31L76.23,58.32L76.26,58.34L76.28,58.37L76.29,58.39L76.29,58.42L76.28,58.45L76.25,58.47L76.22,58.49L76.18,58.50L76.13,58.51L76.08,58.51L76.05,58.51L76.05,58.51L76.10,58.50L76.14,58.50L76.16,58.51"/><path d="M76.33,59.30L76.37,59.33"/><path d="M76.91,58.62L76.91,59.91"/></g><g style="stroke:#000000;stroke-width:0.529"><path d="M74.62,59.91L74.62,59.92L74.63,59.93L74.63,59.93L74.64,59.94L75.75,60.58L75.76,60.58L75.77,60.58L75.78,60.58L75.78,60.58L76.90,59.94L76.91,59.93L76.91,59.93L76.91,59.92L76.91,59.91"/><path d="M75.29,58.22L75.75,57.95L75.76,57.95L75.77,57.95L75.78,57.95L75.78,57.95L76.90,58.59L76.90,58.60L76.91,58.61L76.91,58.61L76.91,58.62"/></g></g><g id="Actor_4.2"><g style="stroke:#000000;stroke-width:0.176"><path d="M173.82,161.17L173.85,161.18L173.85,161.80L173.76,161.79L173.68,161.77L173.62,161.76L173.48,161.72L173.35,161.67L173.15,161.56"/><path d="M173.48,161.72L173.68,161.77"/><path d="M173.85,161.18L173.94,161.14L174.24,161.01L174.37,160.98L174.62,160.95L174.63,160.74L174.63,160.70"/><path d="M174.62,160.95L174.62,161.57L174.37,161.69L174.24,161.74L173.94,161.79L173.85,161.80"/><path d="M174.62,160.71L174.61,160.73L174.56,160.82L174.48,160.89L174.36,160.96L174.24,161.01L174.09,161.04L174.02,161.05"/><path d="M174.24,161.74L174.09,161.77L174.06,161.78L173.94,161.79"/><path d="M174.64,161.37L174.63,161.45L174.62,161.57"/></g><g style="stroke:#000000;stroke-width:0.529"><path d="M173.13,161.57L173.13,161.57L173.16,161.67L173.17,161.69L173.24,161.79L173.26,161.80L173.37,161.88L173.38,161.89L173.53,161.95L173.69,161.99L173.87,162.01L174.05,161.99L174.22,161.96L174.36,161.90L174.37,161.89L174.49,161.81L174.59,161.70L174.59,161.69L174.63,161.58L174.63,161.56L174.64,161.37L174.65,161.14L174.65,161.06L174.65,160.69"/></g></g><g id="Actor_4.3"><g style="stroke:#000000;stroke-width:0.176"><path d="M201.66,145.20L201.86,145.31L202.00,145.37L202.14,145.41L202.20,145.41L202.00,145.37"/><path d="M202.46,145.44L202.57,145.42L202.61,145.42L202.75,145.38L202.46,145.44L202.37,145.44L202.37,144.83L202.34,144.81"/><path d="M202.37,145.44L202.28,145.43L202.20,145.41"/><path d="M202.13,145.40L202.13,145.40"/><path d="M202.75,145.38L202.89,145.33L203.14,145.21L203.14,144.59L202.89,144.62L202.75,144.65L202.45,144.78L202.37,144.83"/><path d="M202.54,144.69L202.60,144.69L202.75,144.65L202.88,144.60L202.99,144.54L203.08,144.46L203.13,144.37L203.14,144.35"/><path d="M203.14,144.59L203.15,144.38L203.15,144.35"/><path d="M203.14,145.21L203.15,145.10L203.15,145.01"/></g><g style="stroke:#000000;stroke-width:0.529"><path d="M203.17,144.33L203.17,144.71L203.16,144.79L203.15,145.01L203.15,145.20L203.15,145.22L203.11,145.33L203.10,145.35L203.01,145.45L202.89,145.54L202.88,145.54L202.73,145.60L202.57,145.64L202.39,145.65L202.21,145.63L202.04,145.60L201.90,145.53L201.89,145.53L201.77,145.44L201.76,145.43L201.68,145.33L201.68,145.32L201.64,145.21L201.64,145.21"/></g></g><g id="Actor_4.4"><g style="stroke:#000000;stroke-width:0.176"><path d="M209.15,141.29L209.13,141.28L209.32,141.33L209.26,141.32L209.15,141.29"/><path d="M209.13,141.28L208.99,141.22L208.79,141.11"/><path d="M209.58,141.35L209.88,141.29L209.74,141.33L209.70,141.33L209.59,141.35L209.50,141.35L209.50,140.74L209.47,140.72"/><path d="M209.32,141.33L209.41,141.35L209.50,141.35"/><path d="M209.88,141.29L210.02,141.24L210.27,141.12L210.27,140.50L210.02,140.53L209.88,140.56L209.58,140.69L209.50,140.74"/><path d="M209.26,141.31L209.26,141.31"/><path d="M210.27,140.26L210.26,140.29L210.21,140.37L210.12,140.45L210.01,140.52L209.88,140.56L209.73,140.60L209.67,140.61"/><path d="M210.27,141.12L210.28,141.01L210.28,140.92"/><path d="M210.27,140.50L210.28,140.30L210.28,140.26"/></g><g style="stroke:#000000;stroke-width:0.529"><path d="M208.77,141.12L208.77,141.12L208.81,141.23L208.81,141.25L208.89,141.34L208.90,141.36L209.02,141.44L209.03,141.44L209.17,141.51L209.34,141.55L209.52,141.56L209.69,141.55L209.86,141.51L210.01,141.45L210.02,141.45L210.14,141.37L210.23,141.26L210.24,141.24L210.28,141.13L210.28,141.12L210.28,140.92L210.29,140.70L210.30,140.62L210.30,140.25"/></g></g><g id="Actor_3.3"><g style="stroke:#000000;stroke-width:0.176"><path d="M208.68,138.66L208.75,138.77L208.80,138.85L208.88,139.07L208.91,139.15L209.18,139.14L209.33,139.16L209.19,139.12L209.05,139.07L208.94,139.01L208.85,138.93L208.80,138.85L208.77,138.76L208.78,138.67L208.82,138.58L208.89,138.50"/><path d="M208.91,139.15L208.91,139.57"/><path d="M209.13,139.60L209.65,139.68L209.49,139.69L209.30,139.67L209.13,139.62L209.06,139.59L209.13,139.60"/><path d="M208.78,139.28L208.85,139.44"/><path d="M209.02,139.58L209.06,139.59"/><path d="M209.49,138.31L209.41,138.31L209.25,138.33L209.11,138.37L208.99,138.43"/><path d="M209.80,139.14L209.94,139.10L210.06,139.04L209.95,139.11L209.75,139.28L209.65,139.24L209.33,139.16L209.48,139.17L209.64,139.17L209.80,139.14"/><path d="M210.37,138.92L210.30,138.94L210.06,139.04L210.16,138.97L210.23,138.89L210.27,138.81L210.28,138.71L210.26,138.62L210.20,138.54L210.11,138.46L210.00,138.40L209.87,138.35L209.72,138.32"/><path d="M209.65,139.68L209.75,139.70L209.75,139.28"/><path d="M209.75,139.70L210.21,139.43"/><path d="M209.84,139.65L209.86,139.64L210.01,139.58L210.03,139.57"/></g><g style="stroke:#000000;stroke-width:0.529"><path d="M210.03,139.57L210.14,139.50L210.21,139.43L210.37,139.34L210.37,138.92L210.30,138.72L210.26,138.62L210.17,138.47L210.14,138.44L209.87,138.35L209.72,138.32L209.57,138.30L209.49,138.31L209.40,138.30L209.30,138.31L209.10,138.37L208.99,138.43L208.89,138.50L208.88,138.51L208.75,138.60L208.68,138.66L208.68,139.08L208.78,139.28L208.80,139.37L208.85,139.44L208.91,139.57L209.02,139.58"/><path d="M209.37,141.55L209.40,141.56L209.50,141.57L209.61,141.56L209.67,141.55"/></g></g><g id="Actor_2.4"><g style="stroke:#000000;stroke-width:0.176"><path d="M172.94,159.73L172.98,159.86L173.08,159.98L173.23,160.09L173.42,160.17L173.64,160.22L173.87,160.24L174.11,160.22L174.33,160.18L174.52,160.10L174.67,159.99L174.78,159.87L174.82,159.74"/></g><g style="stroke:#000000;stroke-width:0.529"><path d="M174.72,159.46L174.74,159.47L174.81,159.60L174.82,159.74L174.82,159.89L174.78,160.03L174.67,160.15L174.52,160.25L174.33,160.33L174.11,160.38L173.87,160.40L173.64,160.38L173.42,160.33L173.23,160.24L173.08,160.14L172.98,160.02L172.94,159.88L172.94,159.73L172.95,159.59L173.03,159.46L173.04,159.46"/></g></g><g id="Actor_3.4"><g style="stroke:#000000;stroke-width:0.176"><path d="M201.76,142.59L201.69,142.67L201.65,142.76L201.64,142.85L201.67,142.94L201.75,143.16L201.78,143.24L201.78,143.65"/><path d="M201.78,143.24L202.05,143.23L202.20,143.24L202.06,143.21L201.92,143.16L201.81,143.10L201.72,143.02L201.67,142.94L201.63,142.86L201.55,142.75"/><path d="M201.72,143.53L201.65,143.37"/><path d="M202.67,143.23L202.51,143.25L202.35,143.26L202.20,143.24L202.53,143.33L202.62,143.36L202.82,143.20L202.93,143.13L202.81,143.19L202.67,143.23"/><path d="M202.52,143.77L202.36,143.77L202.17,143.76L202.00,143.71L201.93,143.68L202.62,143.78L202.62,143.36"/><path d="M202.62,143.78L203.08,143.52"/><path d="M201.93,143.68L201.90,143.67"/><path d="M202.90,143.66L202.88,143.67L202.73,143.73L202.71,143.74"/><path d="M203.24,143.01L203.17,143.03L202.93,143.13L203.03,143.06L203.10,142.98L203.14,142.89L203.15,142.80L203.13,142.71L203.07,142.63L202.99,142.55L202.87,142.49L202.74,142.44L202.59,142.41"/><path d="M201.86,142.52L201.98,142.46L202.12,142.42L202.28,142.40L202.36,142.40"/></g><g style="stroke:#000000;stroke-width:0.529"><path d="M202.90,143.66L203.01,143.59L203.08,143.52L203.24,143.43L203.24,143.01L203.17,142.81L203.13,142.71L203.04,142.56L203.01,142.53L202.74,142.44L202.59,142.41L202.44,142.39L202.36,142.40L202.27,142.39L202.17,142.40L201.97,142.46L201.86,142.52L201.76,142.59L201.75,142.60L201.62,142.69L201.55,142.75L201.55,143.17L201.65,143.37L201.67,143.45L201.72,143.53L201.78,143.65L201.90,143.67"/><path d="M202.55,145.64L202.48,145.65L202.37,145.66L202.27,145.64L202.24,145.64"/></g></g><g id="Actor_.26"><g style="stroke:#000000;stroke-width:0.176"><path d="M124.23,86.62L124.22,86.61L124.21,86.59L124.20,86.57L124.21,86.54L124.21,86.51L124.23,86.48L124.24,86.45L124.26,86.43L124.29,86.41L124.31,86.40L124.33,86.40L124.35,86.40"/><path d="M124.38,86.47L124.38,86.47"/><path d="M124.38,86.49L124.38,86.47L124.38,86.45L124.37,86.44L124.36,86.43L124.34,86.43L124.32,86.43L124.30,86.44L124.29,86.46L124.27,86.48L124.26,86.50L124.25,86.52L124.24,86.54L124.24,86.56L124.24,86.58L124.25,86.60L124.26,86.61L124.27,86.61L124.29,86.61L124.31,86.61"/><path d="M124.36,86.41L124.36,86.41"/></g><g style="stroke:#000000;stroke-width:0.529"><path d="M124.38,86.49L124.38,86.47L124.38,86.45L124.38,86.43L124.36,86.41L124.35,86.40L124.25,86.35"/><path d="M124.13,86.57L124.23,86.62L124.25,86.63L124.27,86.63L124.29,86.62L124.31,86.61L124.32,86.60L124.34,86.58L124.36,86.56L124.37,86.54L124.38,86.51L124.38,86.49"/></g></g><g id="Actor_4.5"><g style="stroke:#000000;stroke-width:0.176"><path d="M154.48,163.81L154.48,163.90L154.43,163.87L154.28,163.73L154.21,163.65"/><path d="M154.48,163.90L154.72,163.94"/><path d="M154.28,163.73L154.28,163.73"/><path d="M154.33,163.98L154.33,163.98"/></g><g style="stroke:#000000;stroke-width:0.529"><path d="M155.11,164.17L154.95,164.18L154.77,164.17L154.60,164.13L154.46,164.07L154.45,164.06L154.33,163.98L154.32,163.97L154.24,163.87L154.23,163.86L154.19,163.75L154.19,163.73L154.19,163.64"/></g></g><g id="Actor_.27"><g style="stroke:#000000;stroke-width:0.176"><path d="M90.94,75.63L90.92,75.63L90.90,75.63L90.88,75.64L90.86,75.65L90.84,75.67L90.82,75.70L90.80,75.72L90.79,75.75L90.79,75.78L90.79,75.81L90.79,75.83L90.80,75.84L90.82,75.85"/><path d="M90.90,75.83L90.88,75.84L90.86,75.84L90.85,75.84L90.83,75.83L90.83,75.82L90.82,75.80L90.82,75.78L90.83,75.76L90.83,75.74L90.85,75.72L90.86,75.70L90.88,75.68L90.90,75.67L90.91,75.66L90.93,75.66L90.94,75.66L90.95,75.68L90.96,75.69L90.96,75.71"/></g><g style="stroke:#000000;stroke-width:0.529"><path d="M90.72,75.80L90.82,75.85L90.84,75.86L90.86,75.85L90.88,75.84L90.90,75.83L90.92,75.82L90.93,75.80L90.95,75.78L90.96,75.75L90.96,75.73L90.96,75.71L90.96,75.69L90.96,75.67L90.95,75.65L90.94,75.63L90.85,75.58"/></g></g><g id="Actor_.28"><g style="stroke:#000000;stroke-width:0.176"><path d="M124.23,73.72L124.22,73.70L124.21,73.68L124.20,73.66L124.21,73.63L124.21,73.60L124.23,73.58L124.24,73.55L124.26,73.53L124.29,73.51L124.31,73.50L124.33,73.49L124.35,73.50"/><path d="M124.38,73.57L124.38,73.57"/><path d="M124.38,73.59L124.38,73.57L124.38,73.55L124.37,73.54L124.36,73.53L124.34,73.53L124.32,73.53L124.30,73.54L124.29,73.55L124.27,73.57L124.26,73.59L124.25,73.62L124.24,73.64L124.24,73.66L124.24,73.68L124.25,73.69L124.26,73.71L124.27,73.71L124.29,73.71L124.31,73.70"/></g><g style="stroke:#000000;stroke-width:0.529"><path d="M124.38,73.59L124.38,73.57L124.38,73.54L124.38,73.52L124.36,73.51L124.35,73.50L124.25,73.44"/><path d="M124.13,73.66L124.23,73.72L124.25,73.72L124.27,73.72L124.29,73.71L124.31,73.70L124.32,73.69L124.34,73.67L124.36,73.65L124.37,73.63L124.38,73.61L124.38,73.59"/></g></g><g id="Actor_4.6"><g style="stroke:#000000;stroke-width:0.176"><path d="M106.36,136.21L106.36,136.30L106.31,136.27L106.15,136.13"/><path d="M106.59,136.34L106.36,136.30"/><path d="M106.15,136.13L106.09,136.05"/><path d="M106.21,136.38L106.21,136.38"/><path d="M106.11,136.27L106.11,136.27"/></g><g style="stroke:#000000;stroke-width:0.529"><path d="M106.98,136.56L106.83,136.58L106.65,136.56L106.48,136.53L106.33,136.47L106.32,136.46L106.21,136.38"/><path d="M106.11,136.27L106.21,136.38"/><path d="M106.11,136.27L106.11,136.25L106.07,136.15L106.07,136.13L106.07,136.04"/></g></g><g id="Actor_2.5"><g style="stroke:#000000;stroke-width:0.176"><path d="M117.91,140.95L117.96,141.08L118.06,141.21L118.21,141.31L118.41,141.39L118.63,141.44L118.86,141.45L119.10,141.44L119.32,141.38L119.51,141.30L119.66,141.20L119.75,141.07L119.80,140.94"/></g><g style="stroke:#000000;stroke-width:0.529"><path d="M118.01,140.67L117.99,140.69L117.92,140.82L117.91,140.95L117.91,141.11L117.96,141.24L118.06,141.36L118.21,141.47L118.41,141.54L118.63,141.59L118.86,141.61L119.10,141.59L119.32,141.54L119.51,141.46L119.66,141.35L119.75,141.23L119.80,141.09L119.80,140.94L119.78,140.80L119.70,140.68L119.70,140.67"/></g></g><g id="Actor_4.7"><g style="stroke:#000000;stroke-width:0.176"><path d="M130.42,150.01L130.42,150.10L130.65,150.14"/><path d="M130.21,149.93L130.37,150.07L130.42,150.10"/><path d="M130.21,149.93L130.15,149.85"/><path d="M130.27,150.18L130.27,150.18"/></g><g style="stroke:#000000;stroke-width:0.529"><path d="M130.27,150.18L130.38,150.26L130.40,150.27L130.54,150.33L130.71,150.37L130.89,150.38L131.05,150.37"/><path d="M130.27,150.18L130.26,150.17L130.17,150.07L130.17,150.05L130.13,149.95L130.13,149.93L130.13,149.84"/></g></g><g id="Actor_2.6"><g style="stroke:#000000;stroke-width:0.176"><path d="M141.97,154.75L142.02,154.89L142.12,155.01L142.27,155.11L142.47,155.19L142.69,155.24L142.92,155.25L143.16,155.24L143.38,155.18L143.57,155.10L143.72,155.00L143.81,154.87L143.86,154.74"/></g><g style="stroke:#000000;stroke-width:0.529"><path d="M143.76,154.47L143.76,154.48L143.84,154.61L143.86,154.74L143.86,154.90L143.81,155.03L143.72,155.15L143.57,155.26L143.38,155.34L143.16,155.39L142.92,155.41L142.69,155.39L142.47,155.34L142.27,155.27L142.12,155.16L142.02,155.04L141.97,154.91L141.97,154.75L141.98,154.62L142.05,154.49L142.07,154.47"/></g></g><g id="Actor_3.5"><g style="stroke:#000000;stroke-width:0.176"><path d="M130.49,146.93L130.41,146.96L130.29,147.02L130.21,147.10L130.15,147.18L130.13,147.27L130.14,147.36L130.18,147.45L130.25,147.53L130.35,147.60L130.58,147.77L130.66,147.83L130.93,147.75L131.08,147.71L130.92,147.73L130.77,147.72L130.61,147.70L130.47,147.66L130.35,147.60L130.24,147.55L130.04,147.48"/><path d="M130.66,147.83L130.66,148.25L131.36,148.15L131.23,148.20L131.05,148.24L130.86,148.25L130.77,148.24"/><path d="M130.66,148.25L130.20,147.99"/><path d="M130.57,148.20L130.50,148.19L130.38,148.13"/><path d="M130.69,146.88L130.84,146.86L131.00,146.87L131.15,146.89L131.27,146.92"/><path d="M131.47,147.57L131.56,147.49L131.61,147.41L131.57,147.50L131.50,147.71L131.40,147.70L131.08,147.71L131.22,147.68L131.36,147.63L131.47,147.57"/><path d="M131.50,147.71L131.50,148.12"/><path d="M131.42,146.99L131.52,147.06L131.59,147.14L131.63,147.23L131.64,147.32L131.61,147.41L131.70,147.26L131.73,147.22"/><path d="M131.64,147.83L131.56,148.00"/><path d="M131.36,148.15L131.39,148.14"/></g><g style="stroke:#000000;stroke-width:0.529"><path d="M131.39,148.14L131.50,148.12L131.56,148.00L131.59,147.96L131.64,147.85L131.64,147.83L131.73,147.64L131.73,147.22L131.53,147.06L131.42,146.99L131.30,146.93L131.27,146.92L131.18,146.89L131.11,146.87L130.84,146.86L130.69,146.88L130.54,146.91L130.49,146.93L130.36,146.96L130.26,147.00L130.19,147.10L130.15,147.18L130.07,147.40L130.04,147.48L130.04,147.90L130.20,147.99L130.23,148.03L130.35,148.12L130.38,148.13"/></g></g><g id="Actor_4.8"><g style="stroke:#000000;stroke-width:0.176"><path d="M118.39,143.11L118.39,143.20L118.34,143.17L118.18,143.03L118.12,142.95"/><path d="M118.39,143.20L118.62,143.24"/><path d="M118.24,143.28L118.24,143.28"/><path d="M118.18,143.03L118.18,143.03"/></g><g style="stroke:#000000;stroke-width:0.529"><path d="M118.24,143.28L118.14,143.17L118.14,143.15L118.10,143.05L118.10,143.03L118.10,142.94"/><path d="M118.24,143.28L118.35,143.36L118.37,143.37L118.51,143.43L118.68,143.46L118.86,143.48L119.01,143.46"/></g></g><g id="Actor_4.9"><g style="stroke:#000000;stroke-width:0.176"><path d="M142.45,156.91L142.45,157.00L142.40,156.97L142.25,156.83L142.18,156.75"/><path d="M142.45,157.00L142.68,157.04"/><path d="M142.25,156.83L142.25,156.83"/></g><g style="stroke:#000000;stroke-width:0.529"><path d="M143.08,157.27L142.92,157.28L142.74,157.27L142.57,157.23L142.43,157.17L142.41,157.16L142.30,157.08L142.21,156.97L142.20,156.95L142.16,156.85L142.16,156.83L142.16,156.74"/></g></g><g id="Actor_2.7"><g style="stroke:#000000;stroke-width:0.176"><path d="M129.94,147.85L129.99,147.98L130.09,148.11L130.24,148.21L130.44,148.29L130.66,148.34L130.89,148.35L131.13,148.34L131.35,148.28L131.54,148.20L131.69,148.10L131.78,147.97L131.83,147.84"/></g><g style="stroke:#000000;stroke-width:0.529"><path d="M131.73,147.57L131.73,147.58L131.81,147.70L131.83,147.84L131.83,148.00L131.78,148.13L131.69,148.25L131.54,148.36L131.35,148.44L131.13,148.49L130.89,148.51L130.66,148.49L130.44,148.44L130.24,148.37L130.09,148.26L129.99,148.14L129.94,148.01L129.94,147.85L129.95,147.72L130.02,147.59L130.04,147.57"/></g></g><g id="Actor_3.6"><g style="stroke:#000000;stroke-width:0.176"><path d="M142.52,153.83L142.44,153.86L142.32,153.92L142.24,154.00L142.18,154.08L142.16,154.17L142.17,154.26L142.21,154.35L142.28,154.43L142.38,154.50L142.62,154.67L142.69,154.74L142.96,154.65L143.11,154.61L142.96,154.63L142.80,154.62L142.64,154.60L142.50,154.56L142.38,154.50L142.27,154.45L142.07,154.38"/><path d="M142.69,154.74L142.69,155.15L143.39,155.05L143.26,155.10L143.08,155.14L142.89,155.15L142.80,155.14"/><path d="M142.69,155.15L142.23,154.89"/><path d="M142.60,155.10L142.53,155.09L142.41,155.03"/><path d="M143.30,153.82L143.18,153.79L143.03,153.77L142.87,153.76L142.72,153.78"/><path d="M143.11,154.61L143.25,154.58L143.39,154.53L143.50,154.47L143.59,154.39L143.64,154.31L143.60,154.40L143.53,154.61L143.43,154.60L143.11,154.61"/><path d="M143.53,154.61L143.53,155.03"/><path d="M143.67,154.74L143.59,154.90"/><path d="M143.39,155.05L143.42,155.04"/><path d="M143.45,153.89L143.55,153.96L143.62,154.04L143.66,154.13L143.67,154.22L143.64,154.31L143.73,154.16L143.76,154.12"/></g><g style="stroke:#000000;stroke-width:0.529"><path d="M143.42,155.04L143.53,155.03L143.59,154.90L143.62,154.86L143.67,154.75L143.67,154.74L143.76,154.54L143.76,154.12L143.56,153.96L143.45,153.89L143.33,153.83L143.30,153.82L143.21,153.79L143.14,153.77L142.87,153.76L142.72,153.78L142.57,153.81L142.52,153.83L142.39,153.86L142.30,153.90L142.22,154.00L142.18,154.08L142.10,154.30L142.07,154.38L142.07,154.80L142.23,154.89L142.26,154.93L142.38,155.02L142.41,155.03"/></g></g><g id="Actor_3.7"><g style="stroke:#000000;stroke-width:0.176"><path d="M106.43,133.13L106.35,133.16L106.23,133.22L106.15,133.30L106.09,133.38L106.07,133.47L106.07,133.56L106.12,133.65L106.19,133.73L106.29,133.80L106.52,133.97L106.60,134.03L106.60,134.45L107.33,134.34"/><path d="M105.98,133.68L106.18,133.75L106.29,133.80L106.41,133.86L106.55,133.90L106.70,133.92L106.86,133.93L107.02,133.91L106.86,133.94L106.60,134.03"/><path d="M106.60,134.45L106.14,134.19"/><path d="M106.50,134.40L106.44,134.38L106.32,134.33"/><path d="M107.21,133.12L107.09,133.09L106.94,133.07L106.78,133.06L106.63,133.08"/><path d="M107.41,133.77L107.50,133.69L107.55,133.61L107.51,133.70L107.44,133.90L107.34,133.90L107.02,133.91L107.16,133.88L107.30,133.83L107.41,133.77"/><path d="M107.44,133.90L107.44,134.32"/><path d="M107.30,134.35L107.16,134.40L106.99,134.43L106.80,134.44L106.71,134.44"/><path d="M107.50,134.20L107.57,134.03"/><path d="M107.36,133.19L107.46,133.26L107.53,133.34L107.57,133.43L107.58,133.52L107.55,133.61L107.64,133.46L107.66,133.42"/></g><g style="stroke:#000000;stroke-width:0.529"><path d="M107.33,134.34L107.44,134.32L107.50,134.20L107.53,134.16L107.57,134.05L107.57,134.03L107.66,133.84L107.66,133.42L107.47,133.26L107.36,133.19L107.24,133.13L107.21,133.12L107.12,133.09L107.05,133.07L106.78,133.06L106.63,133.08L106.48,133.11L106.43,133.13L106.30,133.16L106.20,133.20L106.13,133.30L106.09,133.38L106.00,133.60L105.98,133.68L105.98,134.10L106.14,134.19L106.17,134.23L106.29,134.32L106.32,134.33"/></g></g><g id="Actor_3.8"><g style="stroke:#000000;stroke-width:0.176"><path d="M118.17,141.09L118.63,141.35L118.63,140.93L118.55,140.87L118.32,140.70L118.22,140.63L118.15,140.55L118.10,140.46L118.10,140.37L118.12,140.28L118.18,140.20L118.26,140.12L118.38,140.06L118.46,140.03"/><path d="M118.63,140.93L118.90,140.85L119.05,140.81L118.89,140.83L118.73,140.82L118.58,140.80L118.44,140.76L118.32,140.70L118.21,140.65L118.01,140.58"/><path d="M118.83,141.32L119.33,141.25L119.20,141.30L119.02,141.33L118.83,141.34L118.74,141.34L118.83,141.32"/><path d="M118.74,141.34L118.63,141.35"/><path d="M118.53,141.30L118.47,141.28L118.35,141.23"/><path d="M119.47,140.80L119.54,140.60L119.58,140.51L119.53,140.59L119.44,140.67L119.33,140.73L119.19,140.78L119.05,140.81L119.37,140.80L119.47,140.80L119.47,141.22"/><path d="M118.66,139.98L118.81,139.96L118.97,139.97L119.12,139.99L119.24,140.02"/><path d="M119.60,140.93L119.53,141.10"/><path d="M119.33,141.25L119.36,141.24"/><path d="M119.39,140.09L119.49,140.16L119.56,140.24L119.60,140.33L119.61,140.42L119.58,140.51L119.67,140.36L119.70,140.32"/></g><g style="stroke:#000000;stroke-width:0.529"><path d="M118.35,141.23L118.32,141.22L118.20,141.13L118.17,141.09L118.01,141.00L118.01,140.58L118.03,140.50L118.12,140.28L118.16,140.20L118.23,140.10L118.33,140.06L118.46,140.03L118.51,140.01L118.66,139.98L118.81,139.96L119.08,139.97L119.15,139.99L119.24,140.02L119.27,140.03L119.39,140.09L119.50,140.16L119.70,140.32L119.70,140.74L119.60,140.93L119.60,140.95L119.56,141.06L119.53,141.10L119.47,141.22L119.36,141.24"/></g></g><g id="Actor_3.9"><g style="stroke:#000000;stroke-width:0.176"><path d="M154.55,160.73L154.47,160.76L154.36,160.82L154.27,160.90L154.21,160.98L154.19,161.07L154.20,161.16L154.24,161.25L154.31,161.33L154.41,161.40L154.65,161.57L154.72,161.64L154.72,162.06L155.42,161.95L155.29,162.00L155.11,162.04L154.92,162.05L154.83,162.04"/><path d="M154.26,161.79L154.63,162.00L154.56,161.99L154.44,161.93"/><path d="M154.72,162.06L154.63,162.00"/><path d="M154.72,161.64L154.99,161.55L155.14,161.52L154.99,161.53L154.83,161.52L154.67,161.50L154.53,161.46L154.41,161.40L154.30,161.35L154.10,161.28"/><path d="M154.75,160.68L154.90,160.66L155.06,160.67L155.22,160.69L155.33,160.72"/><path d="M155.42,161.95L155.45,161.94"/><path d="M155.53,161.37L155.62,161.29L155.67,161.21L155.63,161.30L155.56,161.51L155.46,161.50L155.14,161.52L155.28,161.48L155.42,161.43L155.53,161.37"/><path d="M155.56,161.51L155.56,161.93"/><path d="M155.48,160.79L155.58,160.86L155.65,160.94L155.69,161.03L155.70,161.12L155.67,161.21L155.76,161.06L155.79,161.02"/><path d="M155.70,161.64L155.62,161.80"/></g><g style="stroke:#000000;stroke-width:0.529"><path d="M155.45,161.94L155.56,161.93L155.62,161.80L155.65,161.76L155.70,161.65L155.70,161.64L155.79,161.44L155.79,161.02L155.59,160.86L155.48,160.79L155.36,160.73L155.33,160.72L155.24,160.69L155.17,160.67L154.90,160.66L154.75,160.68L154.60,160.71L154.55,160.73L154.42,160.76L154.33,160.80L154.25,160.90L154.21,160.98L154.13,161.20L154.10,161.28L154.10,161.70L154.26,161.79L154.29,161.83L154.41,161.92L154.44,161.93"/></g></g><g id="Actor_2.8"><g style="stroke:#000000;stroke-width:0.176"><path d="M154.00,161.65L154.05,161.79L154.15,161.91L154.30,162.01L154.50,162.09L154.72,162.14L154.95,162.15L155.19,162.14L155.41,162.08L155.60,162.00L155.75,161.90L155.82,161.81L155.85,161.77L155.89,161.64"/></g><g style="stroke:#000000;stroke-width:0.529"><path d="M154.10,161.37L154.08,161.39L154.01,161.52L154.00,161.65L154.00,161.81L154.05,161.94L154.15,162.06L154.30,162.17L154.50,162.25L154.72,162.29L154.95,162.31L155.19,162.29L155.41,162.24L155.60,162.16L155.75,162.05L155.85,161.93L155.89,161.80L155.89,161.64L155.87,161.51L155.79,161.38L155.79,161.37"/></g></g><g id="Actor_2.9"><g style="stroke:#000000;stroke-width:0.176"><path d="M105.88,134.05L105.93,134.18L106.03,134.31L106.18,134.41L106.37,134.49L106.60,134.54L106.83,134.55L107.07,134.53L107.29,134.48L107.48,134.40L107.62,134.30L107.72,134.17L107.77,134.04"/></g><g style="stroke:#000000;stroke-width:0.529"><path d="M107.66,133.77L107.67,133.78L107.75,133.90L107.77,134.04L107.77,134.19L107.72,134.33L107.62,134.45L107.48,134.56L107.29,134.64L107.07,134.69L106.83,134.71L106.60,134.69L106.37,134.64L106.18,134.57L106.03,134.46L105.93,134.34L105.88,134.21L105.88,134.05L105.89,133.92L105.96,133.79L105.98,133.77"/></g></g><g id="Actor_4.10"><g style="stroke:#000000;stroke-width:0.176"><path d="M98.97,118.75L98.97,118.75"/></g><g style="stroke:#000000;stroke-width:0.529"><path d="M98.79,118.80L98.80,118.79L98.97,118.75L99.10,118.68L99.12,118.68L99.22,118.59L99.23,118.58L99.28,118.51"/></g></g><g id="Actor_.29"><g style="stroke:#000000;stroke-width:0.176"><path d="M178.18,152.81L178.18,152.66L178.22,152.63L178.23,152.63L178.24,152.62L178.25,152.60L178.26,152.59L178.27,152.58L178.27,152.56L178.27,152.55L178.27,152.56L178.27,152.56L178.26,152.57L178.25,152.58L178.23,152.58L178.19,152.59"/><path d="M178.18,152.66L178.07,152.59"/><path d="M178.20,152.56L178.24,152.54L178.25,152.53L178.26,152.52L178.27,152.51L178.27,152.51L178.27,152.50L178.27,152.55L178.27,152.54"/><path d="M178.27,152.55L178.27,152.55"/><path d="M178.63,152.30L178.63,152.35L178.63,152.36L178.63,152.37L178.63,152.38L178.64,152.38L178.65,152.38L178.66,152.38L178.67,152.38L178.71,152.35"/><path d="M178.28,152.00L178.27,152.01L178.27,152.06L178.27,152.11L178.29,152.15L178.32,152.18L178.35,152.19L178.39,152.19L178.44,152.17L178.48,152.15L178.52,152.10L178.56,152.06L178.59,152.00L178.61,151.94L178.62,151.89L178.62,151.83L178.61,151.79L178.59,151.76L178.56,151.74L178.52,151.73L178.48,151.74L178.44,151.76L178.40,151.79"/><path d="M178.65,151.72L178.60,151.70L178.54,151.70L178.48,151.71L178.42,151.75L178.35,151.80L178.30,151.87L178.25,151.95L178.21,152.03L178.19,152.11L178.18,152.19L178.18,152.35"/><path d="M178.27,152.35L178.27,152.34L178.27,152.33L178.26,152.32L178.25,152.32L178.25,152.32"/><path d="M178.27,152.34L178.27,152.34"/><path d="M178.27,152.50L178.27,152.48"/></g><g style="stroke:#000000;stroke-width:0.529"><path d="M178.63,152.30L178.71,152.35L178.71,152.51L178.18,152.81L178.07,152.75L178.07,152.59L178.27,152.48"/><path d="M178.27,152.48L178.27,152.35L178.27,152.35L178.27,152.34L178.26,152.33L178.25,152.32L178.25,152.32L178.24,152.32L178.23,152.32L178.22,152.32L178.18,152.35L178.07,152.28L178.07,152.13L178.08,152.05L178.10,151.97L178.12,151.92L178.14,151.88L178.18,151.81L178.24,151.74L178.30,151.69L178.37,151.65L178.43,151.63L178.49,151.63L178.54,151.66L178.65,151.72L178.68,151.76L178.71,151.82L178.71,151.89L178.71,152.04L178.67,152.07L178.66,152.07L178.65,152.08L178.64,152.09L178.63,152.11L178.63,152.12L178.63,152.13L178.63,152.14L178.63,152.30"/><path d="M178.40,151.79L178.39,151.80L178.35,151.84L178.32,151.89L178.29,151.95L178.28,152.00"/></g></g><g id="Actor_4.11"><g style="stroke:#000000;stroke-width:0.176"/><g style="stroke:#000000;stroke-width:0.529"><path d="M134.43,98.35L134.45,98.35L134.61,98.30L134.75,98.24L134.76,98.23L134.87,98.14L134.88,98.13L134.92,98.07"/></g></g><g id="Actor_.30"><g style="stroke:#000000;stroke-width:0.176"><path d="M124.23,99.53L124.22,99.51L124.21,99.49L124.20,99.47L124.21,99.44L124.21,99.41L124.23,99.39L124.24,99.36L124.26,99.34L124.29,99.32L124.31,99.31L124.33,99.30L124.35,99.30"/><path d="M124.38,99.38L124.38,99.38"/><path d="M124.38,99.40L124.38,99.37L124.38,99.36L124.37,99.34L124.36,99.34L124.34,99.33L124.32,99.34L124.30,99.35L124.29,99.36L124.27,99.38L124.26,99.40L124.25,99.42L124.24,99.45L124.24,99.47L124.24,99.49L124.25,99.50L124.26,99.51L124.27,99.52L124.29,99.52L124.31,99.51"/></g><g style="stroke:#000000;stroke-width:0.529"><path d="M124.25,99.25L124.35,99.30L124.36,99.31L124.38,99.33L124.38,99.35L124.38,99.38L124.38,99.40"/><path d="M124.38,99.40L124.38,99.42L124.37,99.44L124.36,99.46L124.34,99.48L124.32,99.50L124.31,99.51L124.29,99.52L124.27,99.53L124.25,99.53L124.23,99.53L124.13,99.47"/></g></g><g id="Actor_.31"><g style="stroke:#000000;stroke-width:0.176"><path d="M178.31,152.16L178.29,152.13L178.28,152.09L178.28,152.04L178.29,151.99L178.30,151.94L178.33,151.88L178.37,151.83L178.41,151.79L178.45,151.76L178.49,151.75L178.53,151.74L178.57,151.75"/><path d="M178.45,151.89L178.51,151.93L178.48,152.01L178.41,152.04L178.38,151.99L178.42,151.91L178.48,151.88L178.51,151.93"/><path d="M178.48,152.01L178.40,151.97L178.42,151.91"/><path d="M178.40,151.97L178.39,151.97"/><path d="M178.42,151.91L178.42,151.92L178.41,151.92L178.41,151.93L178.41,151.94"/><path d="M178.35,152.18L178.35,152.18"/></g><g style="stroke:#000000;stroke-width:0.529"><path d="M178.56,151.75L178.57,151.75L178.59,151.78L178.61,151.81L178.62,151.85L178.61,151.91L178.60,151.96L178.58,152.01L178.55,152.07L178.51,152.11L178.47,152.15L178.42,152.17L178.38,152.18L178.35,152.18L178.31,152.16L178.31,152.16"/></g></g><g><g><path style="stroke:#000000;stroke-width:0.125;stroke-dasharray:3.7 2.4 1.2 2.4" d="M75.77,60.58L75.77,69.03"/></g></g><g><g><path style="stroke:#000000;stroke-width:0.125;stroke-dasharray:3.7 2.4 1.2 2.4" d="M76.44,70.47L84.77,75.25"/></g></g><g><g><path style="stroke:#000000;stroke-width:0.125;stroke-dasharray:3.7 2.4 1.2 2.4" d="M196.38,139.27L220.02,152.83"/></g></g><g><g><path style="stroke:#000000;stroke-width:0.125;stroke-dasharray:3.7 2.4 1.2 2.4" d="M221.20,144.00L221.20,152.45"/></g></g><g id="PMI8.0"><g><path style="stroke:#000000;stroke-width:0.125" d="M54.86,46.07L75.46,58.89"/></g><g><path style="fill:#000000" d="M76.21,58.89L76.21,58.82L76.20,58.75L76.18,58.68L76.16,58.61L76.13,58.54L76.09,58.48L76.04,58.42L75.99,58.36L75.94,58.31L75.88,58.27L75.82,58.23L75.75,58.20L75.68,58.18L75.61,58.16L75.54,58.15L75.46,58.14L75.39,58.15L75.32,58.16L75.25,58.18L75.18,58.20L75.11,58.23L75.05,58.27L74.99,58.31L74.93,58.36L74.88,58.42L74.84,58.48L74.80,58.54L74.77,58.61L74.75,58.68L74.73,58.75L74.72,58.82L74.71,58.89L74.72,58.97L74.73,59.04L74.75,59.11L74.77,59.18L74.80,59.25L74.84,59.31L74.88,59.37L74.93,59.42L74.99,59.47L75.05,59.52L75.11,59.56L75.18,59.59L75.25,59.61L75.32,59.63L75.39,59.64L75.46,59.64L75.54,59.64L75.61,59.63L75.68,59.61L75.75,59.59L75.82,59.56L75.88,59.52L75.94,59.47L75.99,59.42L76.04,59.37L76.09,59.31L76.13,59.25L76.16,59.18L76.18,59.11L76.20,59.04L76.21,58.97z"/></g><g><text xml:space="preserve" fill="#000000" stroke-width="0" x="41.78" y="44.32" font-size="3.79" opacity="1.00" font-family="Arial">ESR0181</text></g></g><g id="PMI8.1"><g><path style="stroke:#000000;stroke-width:0.125" d="M243.36,124.74L221.78,142.32"/></g><g><path style="fill:#000000" d="M222.53,142.32L222.53,142.25L222.52,142.17L222.50,142.10L222.48,142.03L222.45,141.97L222.41,141.90L222.36,141.84L222.31,141.79L222.26,141.74L222.20,141.70L222.14,141.66L222.07,141.63L222.00,141.60L221.93,141.58L221.86,141.57L221.78,141.57L221.71,141.57L221.64,141.58L221.57,141.60L221.50,141.63L221.43,141.66L221.37,141.70L221.31,141.74L221.25,141.79L221.20,141.84L221.16,141.90L221.12,141.97L221.09,142.03L221.07,142.10L221.05,142.17L221.04,142.25L221.03,142.32L221.04,142.39L221.05,142.47L221.07,142.54L221.09,142.61L221.12,142.67L221.16,142.74L221.20,142.80L221.25,142.85L221.31,142.90L221.37,142.94L221.43,142.98L221.50,143.01L221.57,143.04L221.64,143.06L221.71,143.07L221.78,143.07L221.86,143.07L221.93,143.06L222.00,143.04L222.07,143.01L222.14,142.98L222.20,142.94L222.26,142.90L222.31,142.85L222.36,142.80L222.41,142.74L222.45,142.67L222.48,142.61L222.50,142.54L222.52,142.47L222.53,142.39z"/></g><g><text xml:space="preserve" fill="#000000" stroke-width="0" x="239.06" y="122.99" font-size="3.79" opacity="1.00" font-family="Arial">ESR0181</text></g></g><g/><g><g/><g><text xml:space="preserve" fill="#000000" stroke-width="0" x="5.92" y="10.04" font-size="4.53" opacity="1.00" font-family="Arial" font-weight="bold">BPA45013</text></g></g><g id="paperID" visibility="hidden" opacity="0.00" transform="scale(0.000100)"><path style="stroke:#000000;stroke-width:0.500;fill:#e6e6e6;fill-rule:evenodd" d="M-2000.00,-2000.00L2297.00,-2000.00L2297.00,2210.00L-2000.00,2210.00zM0.00,0.00L297.00,0.00L297.00,210.00L0.00,210.00z"/><path style="fill:#000000;fill-opacity:0.118" d="M3.00,210.00L297.00,210.00L297.00,3.00L300.00,3.00L300.00,213.00L3.00,213.00z"/></g></g></svg>