<?xml version="1.0" encoding="UTF-8" standalone="no"?>
<svg xmlns="http://www.w3.org/2000/svg" xmlns:xlink="http://www.w3.org/1999/xlink" width="297.000mm" height="210.000mm" viewBox="0.000000 0.000000 297.000000 210.000000" stroke-linejoin="round" stroke-linecap="round" fill="none" fill-rule="evenodd"><desc>Composer Export</desc><script type="text/ecmascript"><![CDATA[
if(typeof(top) != "undefined")
{
	top.ShowPaper = ShowPaper;
}
function ShowPaper()
{
  var svgDocument = getDocument();
  var paper = svgDocument.getElementById("paperID");
  if(paper)
  {
    paper.setAttribute("transform","scale(1)");
    paper.setAttribute("opacity","1");
    paper.setAttribute("visibility","visible");
  }
  var svg = svgDocument.getRootElement();
  if(svg)
  {
    svg.setAttribute("width","307.000mm");
    svg.setAttribute("height","220.000mm");
    svg.setAttribute("viewBox","-5.000000 -5.000000 307.000000 220.000000");
  }
}
]]></script><defs/><g><path style="fill:#000000;fill-opacity:0.098;fill-rule:evenodd" d="M64.88,32.23L66.43,32.83L68.19,34.00L69.97,35.92L70.92,37.51L71.90,40.04L72.48,43.36L72.48,48.10L72.28,49.86L71.69,52.78L70.52,56.87L69.10,60.32L67.15,64.22L64.82,67.94L61.95,71.70L58.74,74.96L58.38,75.03L57.37,70.85L60.70,67.34L60.98,67.51L62.48,67.55L64.10,66.44L66.24,62.92L67.79,59.41L69.16,55.31L69.75,52.78L70.14,49.86L70.14,46.67L69.56,43.16L68.97,42.38L67.99,41.80L67.60,40.63L66.84,39.24L65.66,37.70L64.48,36.73L62.53,36.14L59.16,36.14L56.24,36.93L54.08,37.90L50.96,39.85L49.27,41.28L47.73,42.66L45.78,44.80L43.44,47.73L41.00,51.72L40.11,53.56L38.68,56.82L37.37,61.16L36.79,64.48L36.79,69.88L37.17,72.04L37.76,73.78L38.96,75.90L39.93,77.08L41.85,78.47L43.57,78.47L45.01,77.38L46.09,75.74L49.47,75.33L48.30,81.06L45.89,81.39L43.81,81.39L42.43,81.20L39.91,80.22L37.39,78.64L35.83,77.08L34.84,75.53L34.03,73.78L34.00,73.38L34.23,73.36L35.06,73.83L34.45,70.85L34.19,66.57L34.78,61.88L36.00,57.26L37.70,52.91L39.33,49.66L41.38,46.26L43.34,43.54L45.29,41.19L46.87,39.46L48.61,37.88L50.77,36.15L53.50,34.38L56.23,33.02L58.56,32.24L62.73,31.86zM129.64,43.33L129.81,45.31L129.81,49.86L129.61,51.61L129.60,54.68L130.00,55.65L130.80,56.60L131.75,57.02L133.07,57.01L134.52,56.51L136.36,55.23L138.60,53.38L140.08,51.74L141.44,50.17L141.54,50.17L142.30,51.14L142.10,52.98L141.11,56.09L139.69,59.54L138.34,62.67L138.00,64.29L138.00,66.57L138.19,67.35L138.59,68.13L138.20,68.15L127.08,61.69L124.75,60.90L123.57,60.72L120.19,60.71L116.48,61.49L113.37,62.86L110.11,64.67L106.99,67.02L105.43,68.38L103.89,69.77L101.94,71.91L99.70,74.54L96.96,78.44L94.06,83.53L92.37,87.30L90.95,91.14L89.64,96.27L89.05,100.36L89.05,105.96L89.25,107.32L89.97,110.69L100.39,116.66L102.35,117.70L101.73,114.73L101.53,113.37L101.53,107.19L102.25,102.45L104.01,96.40L106.54,90.55L109.55,85.37L112.47,81.27L115.20,78.15L118.44,74.95L121.84,72.31L125.26,70.27L127.80,69.11L130.14,68.33L133.53,67.75L137.62,68.11L140.13,69.11L141.64,69.10L144.78,68.53L146.80,67.74L146.79,69.95L144.57,73.56L145.80,76.32L146.58,79.24L146.97,82.36L146.97,86.13L146.39,90.81L145.41,94.90L143.66,99.97L141.90,103.68L139.56,107.97L136.25,112.84L134.62,114.73L131.96,117.72L130.51,119.00L127.88,121.25L124.49,123.51L120.59,125.46L117.27,126.44L113.76,126.82L111.66,130.78L110.06,131.72L109.35,131.69L101.35,127.01L100.87,127.39L98.02,131.37L95.68,134.10L93.67,135.98L92.14,136.00L91.91,135.78L93.15,132.54L93.93,128.45L93.93,125.84L93.55,125.05L90.42,123.29L89.24,123.57L85.07,126.41L80.62,128.78L79.49,128.78L71.12,123.89L70.63,122.94L70.71,122.91L78.51,127.43L79.23,127.41L82.03,123.76L84.50,119.22L85.35,116.95L85.54,115.77L85.54,113.95L85.34,113.18L82.04,111.21L74.75,111.29L74.82,108.95L77.76,107.01L80.20,104.96L83.20,101.92L84.76,99.19L85.54,96.46L85.54,94.45L85.34,93.68L74.83,87.61L73.86,86.24L70.71,83.30L70.67,83.11L70.89,83.12L78.72,87.65L79.04,87.64L79.99,85.26L84.57,84.37L88.27,83.01L89.36,82.34L90.83,81.08L92.17,79.30L93.28,77.09L93.73,75.79L93.93,74.82L93.93,72.42L93.15,68.52L91.97,65.20L91.99,64.50L93.44,62.65L99.96,65.21L102.07,65.21L104.26,64.09L105.82,62.53L107.58,59.80L108.55,56.87L109.33,53.37L109.86,48.24L111.71,47.25L113.82,50.77L115.17,53.90L115.97,55.05L117.12,55.65L118.44,55.65L119.60,55.25L120.95,54.45L122.52,53.09L125.52,48.49L127.08,45.18L127.97,42.94L128.84,42.97zM184.22,102.25L185.59,102.83L187.54,104.19L188.33,105.16L189.68,107.13L190.65,109.67L191.24,112.39L191.24,118.11L190.26,123.18L188.51,128.25L185.97,133.12L183.94,136.35L181.10,139.95L178.78,142.31L176.52,144.15L174.97,145.32L172.52,146.78L169.39,148.13L166.80,148.66L163.35,148.67L161.20,148.08L155.57,144.94L151.67,142.60L150.11,141.04L149.12,139.50L148.52,138.14L148.53,137.53L155.58,141.50L155.36,140.08L155.36,134.30L156.07,129.75L157.69,124.54L160.03,119.47L162.78,115.01L165.90,111.11L167.57,109.26L171.28,106.15L174.40,104.20L176.95,103.04L178.69,102.44L180.84,102.06L183.05,102.06zM228.48,127.41L230.27,128.55L232.21,130.70L233.00,132.06L233.94,134.44L234.53,137.16L234.53,143.07L234.14,145.61L233.16,149.30L231.41,153.99L229.46,157.69L227.50,160.81L224.70,164.44L223.02,166.28L220.02,168.93L217.12,170.90L213.61,172.65L210.88,173.44L206.25,173.44L203.92,172.65L195.15,167.57L193.99,166.59L192.60,164.66L192.01,163.49L191.75,162.50L192.00,162.48L198.48,166.22L198.85,166.29L198.65,164.85L198.65,159.26L199.37,154.71L200.99,149.50L202.75,145.61L205.03,141.45L207.63,137.82L210.07,135.00L212.24,132.87L216.14,129.95L219.84,127.99L223.35,127.02L227.12,127.02zM267.87,148.67L270.02,149.64L271.78,151.00L272.58,151.95L273.75,153.90L274.50,155.69L275.29,159.20L275.29,165.11L274.50,169.39L273.14,173.88L271.32,178.11L269.18,182.01L267.48,184.60L264.76,188.12L261.46,191.44L261.04,190.60L260.19,187.27L263.53,183.74L263.99,183.94L265.10,183.97L266.15,183.46L267.49,182.07L269.83,177.78L271.58,173.30L272.56,169.40L272.95,166.86L272.95,162.12L272.36,159.39L271.98,158.79L270.95,158.27L270.22,156.46L268.68,154.30L267.49,153.15L265.74,152.56L263.33,152.37L260.80,152.76L258.06,153.73L254.56,155.69L252.28,157.50L250.83,158.79L248.39,161.42L245.47,165.32L243.31,169.20L241.49,173.24L240.12,177.92L239.60,181.68L239.60,185.91L240.17,188.85L241.16,191.17L241.94,192.35L243.32,193.89L244.85,194.90L246.18,194.89L247.82,193.80L248.90,192.16L249.68,191.96L252.29,191.75L251.31,196.90L250.87,197.44L249.87,197.61L245.64,197.62L243.31,196.83L240.59,195.25L239.23,194.09L238.04,192.54L236.85,190.00L236.86,189.61L237.48,190.01L237.85,190.08L237.26,186.69L237.26,181.10L237.84,177.39L239.01,173.29L240.71,168.94L243.33,163.96L246.05,160.05L248.20,157.52L249.95,155.57L253.77,152.37L257.54,150.09L260.60,148.86L263.33,148.27L265.93,148.27zM60.23,70.26L60.00,71.31L59.54,71.82L58.77,71.90L58.56,71.25L59.03,70.34L59.34,70.06L60.02,70.05zM138.18,79.06L138.38,79.64L138.97,82.56L138.98,87.49L138.59,90.22L137.42,94.71L135.99,98.35L133.84,102.64L132.14,105.43L129.22,109.33L126.51,112.08L124.46,113.93L122.90,115.10L119.81,117.08L116.11,118.45L113.76,118.83L112.06,118.83L109.71,118.45L108.18,117.06L107.19,115.51L106.21,113.18L105.63,110.83L105.43,109.08L105.43,106.21L105.57,104.60L107.60,102.92L111.09,99.39L114.01,95.48L116.55,91.20L118.69,86.71L120.25,82.03L121.23,77.35L124.09,75.53L126.04,74.56L128.38,73.77L129.04,73.76zM48.10,77.10L48.11,77.95L47.91,78.33L47.26,78.87L46.74,78.87L46.72,77.73L47.45,76.88zM140.93,80.80L141.51,83.34L141.71,87.49L141.44,90.40L142.69,90.75L142.10,93.93L140.72,98.21L138.91,102.45L136.25,107.19L132.74,111.87L129.53,115.10L127.10,117.16L123.71,119.42L120.00,120.99L119.29,120.98L118.88,119.99L117.46,120.19L113.42,120.20L111.44,119.61L111.22,119.40L113.04,119.61L115.51,119.61L117.47,119.23L121.76,117.08L124.36,115.20L127.58,112.37L130.14,109.47L132.73,106.01L135.01,102.25L137.22,97.63L138.77,93.14L139.75,88.66L139.95,86.91L139.95,81.97L139.68,80.01L139.93,79.99zM119.47,81.64L118.44,84.90L116.75,89.05L114.40,93.34L111.87,97.05L110.25,98.94L108.77,100.58L106.02,103.12L106.02,101.92L107.13,97.77L108.36,94.52L110.70,89.83L112.76,86.44L115.30,83.13L116.86,81.37L119.88,78.49L120.09,78.47zM181.69,115.90L182.47,116.48L183.24,118.83L183.24,122.79L182.85,124.54L182.01,127.02L180.26,130.53L178.09,133.43L177.01,134.69L174.97,136.36L172.52,137.80L170.51,138.33L168.62,138.33L167.05,137.94L165.32,136.95L164.32,135.80L163.73,134.44L163.35,132.48L163.35,130.00L163.73,127.46L164.91,123.96L165.80,122.12L167.27,119.69L168.44,118.13L170.29,116.08L171.87,114.73L174.60,113.17L175.58,112.77L176.23,112.76zM225.77,141.24L226.53,143.59L226.53,147.75L226.14,149.51L224.78,153.21L223.36,155.69L221.60,158.02L220.12,159.66L217.88,161.52L215.94,162.51L214.19,163.10L211.31,163.11L209.37,162.32L208.20,161.35L207.43,160.17L206.83,158.42L206.65,157.24L206.64,154.97L207.03,152.42L208.39,148.33L210.56,144.45L212.41,142.21L214.77,139.89L217.50,138.13L219.35,137.55zM263.02,186.68L263.02,187.35L262.35,188.25L261.63,188.27L261.62,187.13L262.35,186.27L262.61,186.27zM251.11,193.78L250.46,195.08L249.54,195.08L249.54,194.15L250.12,193.36L250.72,193.30z"/><g id="Actor_.0"><g style="stroke:#000000;stroke-width:0.176"><path d="M158.06,140.00L157.78,139.15L157.41,137.07L157.28,134.83L157.41,132.44L157.78,129.94L158.38,127.38L159.22,124.79L160.28,122.21L161.49,119.77L161.53,119.68L162.98,117.23L164.58,114.91L166.31,112.76L168.16,110.79L170.09,109.05L172.07,107.56L174.07,106.34L176.07,105.41L178.03,104.78L179.92,104.47L181.75,104.48L181.65,104.47"/><path d="M159.21,142.61L159.23,142.65L158.38,141.01L158.35,140.91"/><path d="M159.23,142.65L160.28,144.01L160.47,144.18L160.18,143.89"/><path d="M161.94,145.32L161.33,144.92L160.47,144.18"/><path d="M161.33,144.92L161.54,145.10L162.98,145.89L164.58,146.37L166.31,146.54L168.16,146.38L170.09,145.91L172.07,145.13L174.07,144.06L176.07,142.70L178.03,141.08L179.92,139.22L181.72,137.15L183.39,134.91L184.91,132.53L186.26,130.03L186.35,129.84L187.42,127.47L188.37,124.88L189.09,122.30L189.58,119.77L189.83,117.32L189.83,115.00L189.58,112.83L189.09,110.86L188.37,109.11L187.42,107.61L186.26,106.38L184.91,105.43L184.46,105.25L185.14,105.59"/><path d="M181.62,109.55L181.81,109.64L181.33,109.42L179.86,109.12L178.27,109.15L176.59,109.49L174.84,110.14L173.07,111.09L171.32,112.32L169.60,113.81L167.96,115.53L166.44,117.44L165.05,119.50L163.82,121.68L162.79,123.94L161.97,126.22L161.37,128.50L161.01,130.71L160.89,132.82L160.90,132.93L161.02,134.79L161.40,136.58L162.01,138.15L162.85,139.47L163.90,140.52L164.59,140.95L163.97,140.59L163.90,140.52"/><path d="M161.67,137.40L161.39,136.74L161.37,136.61"/><path d="M161.17,135.74L160.99,134.97L160.98,134.86"/><path d="M160.90,133.90L160.83,133.02L160.83,132.90"/><path d="M160.87,132.10L160.92,130.93L160.94,130.80"/><path d="M161.28,128.59L161.25,128.72L161.08,129.84"/><path d="M162.43,138.87L162.03,138.28L162.00,138.19"/><path d="M161.86,126.32L161.82,126.46L161.49,127.77"/><path d="M162.68,124.03L162.62,124.17L162.21,125.32"/><path d="M163.42,146.00L162.64,145.70"/><path d="M163.37,140.02L162.90,139.57L162.83,139.47"/><path d="M163.99,135.09L163.64,134.10L163.43,133.19"/><path d="M163.25,130.74L163.25,130.73"/><path d="M163.11,123.06L163.62,121.91L163.69,121.78"/><path d="M165.06,146.39L164.22,146.25"/><path d="M164.59,140.95L165.13,141.28L165.06,141.25"/><path d="M163.98,135.04L164.36,135.75L164.93,136.49L165.59,137.10"/><path d="M164.91,119.59L164.83,119.72L164.23,120.81"/><path d="M166.83,146.45L165.93,146.47"/><path d="M165.13,141.28L165.29,141.34L165.21,141.31"/><path d="M165.29,141.34L166.53,141.74L168.06,141.87L169.71,141.69L171.43,141.19L173.19,140.39L174.95,139.29L176.69,137.93L178.37,136.32L179.56,134.97L179.96,134.51L181.42,132.51L182.73,130.39L183.86,128.16L184.79,125.89L185.51,123.60L185.86,121.94L185.99,121.35L186.22,119.19L186.22,117.14L186.07,116.09L185.96,115.26L185.47,113.58L184.74,112.12L183.80,110.93L183.44,110.65L183.62,110.80"/><path d="M166.16,137.41L165.44,136.96"/><path d="M165.34,132.29L165.28,132.33"/><path d="M166.29,117.52L166.20,117.63L165.59,118.56"/><path d="M167.04,116.56L167.71,115.71L167.81,115.60"/><path d="M168.71,146.20L167.76,146.37"/><path d="M168.61,114.74L169.34,113.97L169.44,113.88"/><path d="M169.67,145.96L170.65,145.63"/><path d="M171.15,112.37L171.04,112.45L170.29,113.12"/><path d="M171.65,145.23L172.64,144.75"/><path d="M172.91,111.13L172.80,111.19L171.98,111.77"/><path d="M174.65,143.58L173.64,144.21"/><path d="M173.27,113.70L173.34,113.65"/><path d="M173.77,110.65L174.57,110.20L174.67,110.16"/><path d="M176.64,142.14L175.64,142.91"/><path d="M175.28,115.30L175.29,115.45"/><path d="M177.43,112.33L176.41,112.46L175.36,112.74L175.11,112.84"/><path d="M175.55,109.81L176.32,109.51L176.41,109.49"/><path d="M177.30,112.35L178.16,112.37L179.06,112.55"/><path d="M178.10,109.13L178.01,109.13L177.26,109.30"/><path d="M178.57,140.44L177.60,141.34"/><path d="M179.51,139.52L180.43,138.52"/><path d="M179.00,112.54L179.66,112.79"/><path d="M179.70,109.09L179.61,109.07L178.91,109.10"/><path d="M181.18,109.36L181.10,109.33L180.45,109.22"/><path d="M182.18,136.40L181.32,137.49"/><path d="M181.75,104.48L183.11,104.74L183.53,104.86L184.46,105.25"/><path d="M182.51,109.95L182.44,109.90L181.81,109.64L182.65,110.02L182.59,109.99"/><path d="M182.65,110.02L183.44,110.65"/><path d="M183.81,134.11L183.02,135.28"/><path d="M183.53,104.86L183.39,104.80L183.11,104.74"/><path d="M184.57,132.92L185.28,131.69"/><path d="M186.56,129.18L185.95,130.45"/><path d="M186.41,106.56L185.69,105.98"/><path d="M187.65,126.62L187.14,127.90"/><path d="M186.99,107.18L187.53,107.84"/><path d="M188.53,124.03L188.13,125.32"/><path d="M188.43,109.39L188.00,108.60"/><path d="M189.18,121.46L188.90,122.73"/><path d="M189.59,118.95L189.43,120.19"/><path d="M189.76,116.54L189.72,117.73"/><path d="M189.76,115.38L189.68,114.27"/><path d="M189.36,112.17L189.56,113.19"/><path d="M188.80,110.27L189.12,111.18"/></g><g style="stroke:#000000;stroke-width:0.529"><path d="M150.97,141.86L150.21,141.05L149.44,140.00L148.78,138.81L148.68,138.61L148.14,137.31L147.71,135.90L147.40,134.38L147.22,132.77L147.16,130.91L147.22,129.16L147.40,127.35L147.71,125.49L148.13,123.60L148.67,121.69L149.32,119.78L150.08,117.87L150.19,117.61L150.94,115.98L151.90,114.12L152.94,112.30L154.08,110.54L155.28,108.85L156.54,107.26L157.89,105.73L159.27,104.31L160.69,103.00L162.14,101.82L163.61,100.76L165.24,99.76L166.73,98.97L168.21,98.34L169.68,97.85L171.11,97.52L172.50,97.36L172.72,97.34L174.07,97.33L175.36,97.48L176.59,97.79L176.81,97.87L177.96,98.34L185.24,102.51L186.31,103.13L187.28,103.91L187.46,104.06L188.33,104.98L189.10,106.03L189.76,107.22L189.86,107.42L190.40,108.72L190.83,110.13L191.13,111.65L191.32,113.26L191.38,115.12L191.32,116.87L191.14,118.68L190.83,120.54L190.41,122.43L189.87,124.34L189.22,126.25L188.46,128.16L187.70,129.84L187.60,130.05L186.64,131.91L185.59,133.73L184.46,135.49L183.66,136.61L183.25,137.18L181.98,138.79L180.65,140.30L179.27,141.72L177.85,143.03L176.40,144.21L174.93,145.27L173.30,146.27L171.81,147.06L170.32,147.69L168.86,148.18L167.43,148.51L166.04,148.67L165.81,148.69L164.46,148.70L163.17,148.55L161.95,148.24L161.73,148.16L160.58,147.69L153.14,143.43L152.23,142.89L151.87,142.61"/><path d="M163.39,133.01L163.26,131.84L163.25,130.73L163.36,129.41L163.59,128.02L163.93,126.61L164.38,125.18L164.94,123.76L165.60,122.35L166.35,120.98L167.19,119.67L168.09,118.42L169.06,117.25L170.09,116.18L171.15,115.21L172.24,114.37L173.27,113.70L174.28,113.17L175.11,112.84L175.15,113.02L175.27,114.19L175.28,115.30L175.18,116.62L174.95,118.01L174.61,119.42L174.16,120.85L173.73,121.94L173.60,122.27L172.94,123.68L172.19,125.05L171.35,126.36L170.44,127.61L169.47,128.78L169.39,128.87L168.45,129.85L167.39,130.82L166.30,131.66L165.27,132.33L164.25,132.86L163.43,133.19L163.39,133.01"/></g></g><g id="Actor_3.0"><g style="stroke:#000000;stroke-width:0.176"><path d="M237.08,182.89L237.10,185.32L237.36,187.66L237.86,189.81L238.59,191.75L239.55,193.45L240.72,194.89L242.08,196.04"/><path d="M269.10,149.01L267.42,148.41L265.59,148.12L263.64,148.14L261.60,148.48L259.49,149.13L257.34,150.08L257.20,150.16L255.18,151.32L253.03,152.84L250.92,154.61L248.88,156.61L246.93,158.82L245.10,161.21L243.44,163.71L241.89,166.40L240.55,169.13L239.41,171.92L238.48,174.71L237.77,177.49L237.31,180.20L237.16,181.89"/><path d="M252.35,191.58L252.32,191.57L250.63,191.87L249.03,191.88L248.99,191.89L248.96,191.93L248.42,192.89L247.76,193.70L247.03,194.34L246.27,194.76L245.54,194.92L244.90,194.81L243.72,194.08"/><path d="M249.53,194.97L249.44,194.73L249.44,194.41L249.53,194.06L249.69,193.72L249.92,193.41L250.18,193.18L250.46,193.05L250.71,193.04L250.91,193.14L251.04,193.34L251.08,193.62L251.04,193.96L250.91,194.31L250.71,194.64L250.46,194.91L250.18,195.09L249.92,195.17L249.69,195.13L249.53,194.97"/><path d="M262.83,183.14L263.56,183.56L263.52,183.56L263.48,183.59L261.88,185.42L260.20,187.06L260.15,187.13L260.15,187.18L261.32,191.46"/><path d="M261.93,188.28L261.70,188.24L261.53,188.08L261.45,187.84L261.45,187.52L261.53,187.17L261.70,186.83L261.94,186.52L262.19,186.29L262.47,186.16L262.72,186.15L262.92,186.25L263.05,186.45L263.09,186.74L263.05,187.07L262.92,187.43L262.72,187.75L262.47,188.02L262.19,188.21L261.93,188.28"/><path d="M267.45,153.04L268.76,153.80L270.02,154.90L271.07,156.29L271.91,157.92L272.53,159.79L272.91,161.86L273.05,164.11L272.96,166.49L272.62,168.99L272.05,171.55L271.25,174.15L270.23,176.75L269.01,179.31L267.61,181.79L266.97,182.63L266.25,183.30L265.49,183.75L264.76,183.96L264.10,183.89L263.56,183.56"/><path d="M266.29,181.03L267.61,181.79"/></g><g style="stroke:#000000;stroke-width:0.529"><path d="M235.76,182.22L235.76,182.06L235.98,179.44L236.45,176.73L237.15,173.95L238.08,171.16L239.22,168.37L240.57,165.64L241.67,163.71L242.09,162.98L243.78,160.45L245.60,158.06L247.55,155.85L249.59,153.85L251.70,152.08L253.85,150.56L256.02,149.32L258.17,148.37L260.27,147.72L262.31,147.38L264.26,147.36L266.09,147.65L267.78,148.25L269.10,149.01L270.63,149.91L271.97,151.11L273.11,152.58L274.04,154.32L274.74,156.28L275.21,158.46L275.44,160.82L275.42,163.34L275.16,165.98L274.66,168.70L273.93,171.48L272.97,174.28L271.80,177.06L270.43,179.78L268.89,182.42L267.18,184.94L265.33,187.31L263.37,189.49L261.32,191.46L260.00,190.70L258.83,186.42L258.84,186.34L258.88,186.29L260.56,184.66L262.18,182.81L262.23,182.80L262.83,183.14L263.43,183.20L264.17,182.99L264.92,182.54L265.65,181.87L266.29,181.03L267.69,178.55L268.91,175.99L269.92,173.39L270.72,170.79L271.29,168.23L271.63,165.73L271.73,163.35L271.59,161.10L271.20,159.03L270.59,157.16L269.75,155.53L268.69,154.15L267.45,153.04L267.33,152.98L265.74,152.46L264.01,152.25L262.17,152.36L260.25,152.77L258.27,153.49L256.26,154.50L254.25,155.79L252.27,157.35L250.34,159.14L248.50,161.15L246.78,163.34L245.18,165.68L243.75,168.14L242.50,170.69L241.45,173.28L240.60,175.88L239.99,178.46L239.60,180.97L239.46,183.38L239.56,185.65L239.90,187.76L240.47,189.66L241.27,191.34L242.29,192.78L243.50,193.94L243.72,194.08L244.22,194.16L244.94,194.00L245.70,193.58L246.44,192.94L247.09,192.13L247.63,191.17L247.69,191.12L249.31,191.11L251.01,190.81L252.35,191.58L252.37,191.62L252.37,191.64L251.20,197.27L249.14,197.65L247.18,197.72L245.34,197.47L243.63,196.91L242.08,196.04L240.76,195.28L239.39,194.13L238.22,192.69L237.26,190.99L236.53,189.05L236.03,186.90L235.77,184.56L235.76,183.20"/></g></g><g id="Actor_1.0"><g style="stroke:#000000;stroke-width:0.176"><path d="M74.47,111.14L74.62,111.22L74.60,110.11L74.62,108.99L65.99,104.04"/><path d="M70.34,122.59L73.14,124.19"/><path d="M70.34,82.73L78.97,87.68L79.93,85.19L81.86,84.88L82.91,84.67L84.08,84.38L85.13,84.09L86.15,83.76L87.91,83.09L89.02,82.53L90.11,81.70L91.14,80.65L92.07,79.42L92.85,78.07L93.45,76.65L93.85,75.22L94.02,73.86L93.97,72.61L93.77,71.29L93.56,70.22L93.31,69.13L93.01,68.02L92.66,66.90L92.26,65.76L91.82,64.61L83.19,59.66"/><path d="M71.31,80.25L79.93,85.19"/><path d="M79.93,128.91L79.44,128.24L78.97,127.53L74.01,124.69"/><path d="M74.62,111.22L75.78,111.28L76.92,111.31L78.01,111.31L79.06,111.28L80.08,111.22L81.05,111.12L82.22,110.98L83.21,110.99L84.06,111.31L84.76,111.90L85.26,112.76L85.30,112.91"/><path d="M74.62,108.99L75.35,108.55L76.46,107.83L77.54,107.08L78.58,106.28L79.59,105.45L80.55,104.57L81.48,103.67L82.22,102.92L83.21,101.77L84.06,100.47L84.76,99.08L85.26,97.65L85.55,96.24L85.61,94.93L85.43,93.77L85.04,92.80L84.44,92.07L83.65,91.39L81.50,89.64L78.97,87.68"/><path d="M78.97,127.53L79.53,126.91L80.36,125.91L81.15,124.88L81.91,123.79L82.63,122.66L83.30,121.49L84.44,119.28L85.04,117.86L85.43,116.44L85.61,115.08L85.56,113.98"/><path d="M91.82,135.87L92.10,135.26L92.51,134.29L92.86,133.28L93.18,132.21L93.45,131.11L93.67,129.97L93.97,127.81L94.02,126.49L93.85,125.33L93.45,124.36L92.85,123.63L92.07,123.17L91.14,123.01L90.11,123.14L89.02,123.57L87.91,124.27L86.68,125.20L85.65,125.91L84.58,126.59L83.48,127.23L82.91,127.53"/><path d="M84.86,57.59L93.48,62.53L91.82,64.61"/><path d="M89.56,108.96L89.39,108.33L89.02,105.81L88.90,103.12L89.02,100.28L89.39,97.33L90.01,94.30L90.87,91.22L91.96,88.13L93.26,85.06L94.76,82.05L96.45,79.12L98.31,76.31L100.32,73.65L102.45,71.17L104.68,68.90L106.99,66.86L109.35,65.07L111.74,63.56L114.13,62.33L116.49,61.41L118.80,60.80L121.03,60.51L123.16,60.55L125.16,60.91L127.02,61.59L139.29,68.62L138.71,68.13L138.21,67.28L137.93,66.20L137.87,64.96L138.04,63.59L138.28,62.75"/><path d="M146.76,67.61L146.19,67.89L145.56,68.15L144.87,68.38L144.21,68.55L143.29,68.76L142.41,68.90L141.25,69.06L140.27,69.04L139.57,68.78L139.47,68.72L137.61,68.05L135.61,67.69L133.47,67.65L131.24,67.94L131.00,68.01L128.93,68.55L126.57,69.47L124.18,70.69L121.80,72.21L119.44,74.00L117.13,76.04L114.89,78.31L112.76,80.79L110.76,83.45L108.90,86.26L107.21,89.19L105.70,92.20L104.40,95.27L103.32,98.36L102.46,101.44L101.84,104.47L101.47,107.42L101.34,110.26L101.47,112.95L101.84,115.47L102.46,117.79L103.32,119.89L104.40,121.73L105.70,123.31L107.21,124.60L108.41,125.31L96.45,118.45L94.76,117.46L93.26,116.17L91.96,114.59L90.87,112.75L90.01,110.65L89.84,110.01"/><path d="M93.48,62.53L96.93,63.96L99.38,64.90L99.99,65.13L100.92,65.29L101.95,65.16L103.04,64.73L104.15,64.03L105.22,63.09L106.20,61.94L107.06,60.64L107.76,59.25L108.26,57.82L108.70,56.21L109.01,54.90L109.26,53.58L109.46,52.25L109.60,50.91L109.69,49.55L109.72,48.18L110.69,47.61L111.65,47.07L111.55,47.02"/><path d="M109.72,131.75L109.71,131.36L109.64,130.71L109.53,130.02L109.29,129.04L109.14,128.53L108.86,127.73L108.26,126.21L107.76,125.35L107.06,124.76L106.20,124.44L105.22,124.43L104.15,124.71L103.04,125.27L101.95,126.10L101.20,126.87"/><path d="M101.10,43.23L109.72,48.18"/><path d="M105.90,112.90L106.08,113.70L106.80,115.63L107.75,117.33L108.92,118.76L110.28,119.91L111.83,120.76L113.53,121.31L115.38,121.54L117.34,121.45L119.39,121.05L121.50,120.33L123.65,119.32L125.80,118.01L127.93,116.43L130.02,114.60L132.02,112.54L133.93,110.29L135.71,107.86L137.34,105.29L138.79,102.61L140.06,99.87L141.12,97.10L141.96,94.31L142.56,91.57L142.93,88.90L143.05,86.33L142.93,83.91L142.56,81.66L141.96,79.62L141.12,77.80L140.06,76.23L138.79,74.94L137.34,73.94L135.71,73.24L133.93,72.85L132.02,72.78L130.02,73.02L127.93,73.58L125.80,74.45L123.65,75.61L123.43,75.76L125.08,74.87L127.14,74.03L129.15,73.49L131.09,73.25L132.62,73.31L132.93,73.32L134.64,73.70L134.95,73.83L136.09,74.94L137.15,76.46L137.98,78.23L138.59,80.23L138.96,82.44L139.08,84.81L138.96,87.33L138.59,89.96L137.98,92.66L137.15,95.39L136.09,98.12L134.82,100.81L133.37,103.43L131.75,105.94L129.98,108.30L128.09,110.49L126.10,112.47L124.04,114.22L121.93,115.71L120.92,116.29L119.82,116.92L117.71,117.84L115.65,118.46L113.66,118.76L111.77,118.75L110.00,118.41L109.49,118.21L108.79,117.62L107.67,116.24L106.75,114.61L106.05,112.74L105.58,110.66L105.34,108.41L105.32,107.60L105.31,107.98L105.35,109.21L105.59,111.55L105.90,112.90"/><path d="M105.32,107.60L105.35,106.71L105.59,104.09L106.08,101.38L106.14,101.16"/><path d="M105.48,105.29L106.81,104.35L108.88,102.59L110.87,100.61L112.76,98.43L114.53,96.07L116.15,93.56L117.61,90.94L118.87,88.25L119.93,85.52L120.77,82.78L121.38,80.09L121.74,77.46L121.77,76.88"/><path d="M105.55,104.55L107.12,103.28L109.20,101.30L111.20,99.10L113.07,96.71L114.81,94.17L116.38,91.49L117.77,88.73L118.96,85.91L119.92,83.08L120.66,80.27L121.16,77.51L121.17,77.32"/><path d="M120.10,78.19L119.95,79.27L119.35,81.97L118.51,84.70L117.44,87.44L116.18,90.12L114.73,92.74L113.11,95.25L111.34,97.61L109.45,99.80L107.46,101.78L105.75,103.23"/><path d="M108.41,125.31L108.90,125.59L110.76,126.27L112.76,126.62L113.75,126.64"/><path d="M109.49,118.21L110.11,118.73L111.60,119.56L113.25,120.08L115.03,120.30L116.92,120.22L118.89,119.83L120.93,119.14L123.00,118.16L125.08,116.90L126.68,115.71L127.14,115.37L129.15,113.61L131.09,111.62L132.93,109.45L134.64,107.10L136.21,104.62L137.62,102.04L138.84,99.39L139.86,96.71L140.67,94.03L141.26,91.38L141.61,88.85L141.73,86.33L141.61,83.96L141.26,81.83L140.67,79.85L139.86,78.10L138.84,76.59L137.62,75.34L136.21,74.37L135.66,74.14L136.25,74.52L137.51,75.76L138.57,77.27L139.41,79.05L139.53,79.46L139.79,80.61L140.04,82.99L140.04,85.53L139.79,88.20L139.30,90.96L138.56,93.77L137.81,95.97L137.59,96.60L136.41,99.42L135.02,102.18L133.45,104.86L131.71,107.40L129.83,109.79L127.84,111.99L125.76,113.97L123.61,115.71L121.42,117.18L119.23,118.36L117.06,119.24L116.77,119.32L115.09,119.58L113.19,119.56L111.43,119.23L110.05,118.68"/><path d="M111.65,47.07L112.64,48.64L113.19,49.58L113.69,50.49L114.15,51.39L114.56,52.27L115.22,53.83L115.72,54.68L116.41,55.28L117.27,55.59L118.26,55.61L119.33,55.32L120.43,54.76L121.52,53.93L122.55,52.88L123.48,51.65L124.45,50.18L125.17,48.99L125.83,47.78L126.44,46.56L126.98,45.32L127.47,44.07L127.89,42.80L128.74,42.87L129.56,42.96"/><path d="M116.77,119.32L117.08,119.28L119.14,118.66L121.24,117.74L123.36,116.52L125.45,115.04L127.52,113.28L129.51,111.30L131.40,109.12L133.17,106.76L134.79,104.25L136.25,101.63L137.51,98.94L138.57,96.21L139.41,93.47L140.01,90.78L140.38,88.15L140.51,85.63L140.38,83.25L140.01,81.05L139.53,79.46"/><path d="M118.49,79.62L119.39,78.77L121.50,77.06L123.43,75.76"/><path d="M119.26,37.86L127.89,42.80"/><path d="M129.85,46.35L129.87,47.58L129.84,48.82L129.76,50.04L129.51,52.22L129.45,53.54L129.62,54.70L130.02,55.67L130.62,56.40L131.40,56.86L132.33,57.02L133.36,56.89L134.46,56.47L135.56,55.76L136.79,54.83L137.72,54.06L138.59,53.27L139.40,52.46L140.14,51.63L140.83,50.78L141.44,49.91"/><path d="M134.95,73.83L135.66,74.14"/><path d="M144.49,73.47L143.97,72.58L142.66,71.00L141.16,69.71L139.57,68.78"/><path d="M139.29,68.62L139.47,68.72"/></g><g style="stroke:#000000;stroke-width:0.529"><path d="M73.46,125.20L79.93,128.91L81.15,128.39L82.33,127.83L82.90,127.53L82.93,128.29L83.04,129.60L83.19,130.92L91.82,135.87L92.64,135.96L93.48,136.03L94.51,135.11L95.49,134.14L96.43,133.13L97.34,132.08L98.20,130.98L99.02,129.84L99.99,128.38L100.92,127.15L101.20,126.87L109.72,131.75L110.69,131.22L111.65,130.65L112.28,129.62L112.87,128.55L113.41,127.44L113.75,126.64L114.89,126.66L117.13,126.37L119.44,125.76L121.80,124.84L124.18,123.62L126.57,122.10L128.93,120.32L131.24,118.27L133.47,116.00L135.61,113.52L137.61,110.86L139.47,108.05L141.16,105.13L142.66,102.11L143.97,99.04L145.05,95.95L145.91,92.87L146.53,89.84L146.90,86.89L147.03,84.05L146.90,81.36L146.53,78.84L145.91,76.52L145.05,74.42L144.49,73.47L145.17,72.52L145.82,71.52L146.41,70.50L146.76,69.84L146.77,68.72L146.76,67.61L138.28,62.74L138.44,62.17L139.04,60.75L140.12,58.52L140.66,57.27L141.13,56.00L141.56,54.72L141.92,53.44L142.24,52.14L142.41,51.29L141.94,50.59L141.44,49.91L132.82,44.97L132.05,45.29L130.89,45.82L129.85,46.34L129.78,45.06L129.66,43.79L129.56,42.96L120.93,38.01L120.10,37.92L119.26,37.86L118.62,38.43L117.65,39.35L116.72,40.31L115.82,41.31L114.97,42.36L114.15,43.45L112.76,45.50L111.83,46.73L111.55,47.02L103.03,42.13L102.06,42.67L101.10,43.23L100.70,43.87L100.11,44.89L99.56,45.96L99.06,47.07L98.60,48.22L98.19,49.42L97.53,51.67L97.03,53.10L96.33,54.49L95.48,55.79L94.49,56.94L93.42,57.88L92.32,58.58L91.23,59.01L90.19,59.14L89.27,58.97L87.69,58.41L86.83,58.12L85.77,57.80L84.86,57.59L83.19,59.66L83.09,60.16L82.97,60.97L82.90,61.82L82.88,62.71L82.91,63.65L82.99,64.62L83.24,66.46L83.30,67.71L83.13,69.07L82.73,70.49L82.13,71.91L81.34,73.27L80.42,74.50L79.39,75.55L78.29,76.37L77.19,76.94L75.96,77.42L75.03,77.83L74.16,78.27L73.35,78.73L72.61,79.21L71.92,79.72L71.31,80.25L70.34,82.73L70.82,83.28L71.61,84.06L72.63,84.98L73.71,85.92L74.31,86.65L74.71,87.62L74.88,88.78L74.82,90.09L74.54,91.49L74.03,92.92L73.34,94.32L72.48,95.62L71.49,96.76L70.34,97.95L69.46,98.92L68.64,99.91L67.88,100.92L67.19,101.94L66.56,102.98L65.99,104.04L65.98,105.16L65.99,106.27L74.47,111.14L74.31,111.71L73.71,113.13L72.93,114.71L72.35,115.99L71.83,117.28L71.37,118.59L70.97,119.91L70.63,121.24L70.34,122.59L70.81,123.29L71.31,123.97L72.59,124.70"/><path d="M106.14,101.16L106.80,98.62L107.75,95.83L108.92,93.06L110.28,90.35L111.83,87.72L113.53,85.22L115.38,82.87L117.34,80.71L118.49,79.62"/><path d="M106.14,101.16L108.22,99.10L110.12,96.91L111.88,94.55L113.51,92.04L114.96,89.42L116.22,86.73L117.28,84.00L118.12,81.26L118.49,79.62"/></g></g><g id="Actor_.1"><g style="stroke:#000000;stroke-width:0.176"><path d="M228.45,130.43L227.77,130.09L226.84,129.70L226.42,129.58L225.06,129.32L224.96,129.31L223.23,129.31L221.34,129.62L219.38,130.25L217.38,131.18L215.38,132.40L213.40,133.89L211.47,135.63L209.62,137.60L207.89,139.76L206.29,142.08L204.85,144.52L203.59,147.05L202.53,149.63L201.70,152.22L201.09,154.78L200.72,157.28L200.60,159.67L200.72,161.92L201.09,163.99L201.70,165.85L201.91,166.27"/><path d="M202.57,167.53L202.52,167.45L203.59,168.85L203.78,169.02L203.50,168.73"/><path d="M202.37,167.17L202.52,167.45"/><path d="M203.78,169.02L204.64,169.77L205.25,170.16"/><path d="M225.90,134.83L225.97,134.87L224.64,134.26L223.17,133.96L221.58,133.99L219.90,134.33L219.83,134.35L218.15,134.98L216.39,135.93L214.63,137.17L212.91,138.65L211.28,140.37L209.75,142.28L208.36,144.34L207.13,146.53L206.10,148.78L205.28,151.07L204.68,153.34L204.32,155.55L204.20,157.66L204.34,159.63L204.71,161.42L205.32,162.99L206.16,164.31L207.21,165.37L207.79,165.73L207.28,165.43L207.21,165.37"/><path d="M204.29,159.70L204.30,159.81L204.48,160.58"/><path d="M204.21,158.74L204.14,157.87L204.15,157.74"/><path d="M204.18,156.94L204.23,155.77L204.25,155.64"/><path d="M204.59,153.43L204.56,153.57L204.39,154.68"/><path d="M227.77,130.09L228.22,130.28L229.57,131.22L230.73,132.45L231.68,133.95L232.40,135.70L232.89,137.68L233.14,139.84L233.14,142.16L232.89,144.61L232.40,147.14L231.68,149.73L230.73,152.32L229.57,154.88L228.22,157.37L226.70,159.75L225.03,161.99L223.23,164.06L221.34,165.92L219.38,167.54L217.38,168.90L215.38,169.98L213.40,170.76L211.47,171.23L209.62,171.38L207.89,171.21L206.29,170.73L204.85,169.94L204.64,169.77"/><path d="M205.74,163.71L205.34,163.12L205.31,163.03"/><path d="M204.98,162.24L204.71,161.58L204.68,161.45"/><path d="M205.18,151.17L205.13,151.30L204.85,152.42"/><path d="M205.53,150.16L205.93,149.01L205.99,148.88"/><path d="M206.73,170.85L205.95,170.55"/><path d="M206.14,164.31L206.21,164.42L206.68,164.87"/><path d="M206.56,155.58L206.56,155.57"/><path d="M207.01,146.62L206.94,146.75L206.42,147.90"/><path d="M207.53,171.09L208.37,171.23"/><path d="M207.90,165.80L207.79,165.73L208.44,166.13L208.37,166.09"/><path d="M209.47,162.25L208.75,161.81L208.24,161.34L207.67,160.60L207.29,159.88L207.31,159.93"/><path d="M207.29,159.88L206.95,158.95L206.74,158.03"/><path d="M207.54,145.65L208.14,144.56L208.22,144.43"/><path d="M226.94,135.64L226.74,135.48L227.11,135.78L228.05,136.97L228.78,138.42L229.27,140.10L229.53,141.98L229.54,144.03L229.30,146.20L228.82,148.44L228.15,150.59L228.10,150.73L227.17,153.00L226.04,155.23L224.73,157.36L223.27,159.35L221.68,161.17L220.00,162.77L218.26,164.13L216.50,165.23L214.74,166.03L213.02,166.53L211.38,166.71L209.84,166.58L208.44,166.13"/><path d="M208.52,166.15L208.60,166.18"/><path d="M208.75,161.81L208.90,161.94"/><path d="M208.65,157.14L208.59,157.17"/><path d="M208.90,143.40L209.51,142.48L209.60,142.36"/><path d="M209.24,171.31L210.14,171.29"/><path d="M212.02,171.04L211.07,171.22"/><path d="M210.35,141.41L211.02,140.55L211.12,140.44"/><path d="M212.75,138.72L212.65,138.81L211.93,139.58"/><path d="M213.96,170.47L212.98,170.80"/><path d="M213.43,138.11L214.36,137.29L214.46,137.22"/><path d="M215.95,169.59L214.96,170.08"/><path d="M216.22,135.97L216.11,136.03L215.30,136.61"/><path d="M216.58,138.54L216.65,138.49"/><path d="M216.95,169.06L217.96,168.42"/><path d="M216.82,135.63L217.88,135.04L217.98,135.00"/><path d="M219.95,166.98L218.95,167.75"/><path d="M218.60,140.14L218.60,140.29"/><path d="M218.42,137.68L218.67,137.58L219.72,137.30L220.74,137.18"/><path d="M219.73,134.33L219.63,134.35L218.86,134.66"/><path d="M221.88,165.28L220.91,166.18"/><path d="M220.60,137.19L221.47,137.22L222.37,137.39"/><path d="M221.42,133.97L221.32,133.97L220.57,134.14"/><path d="M222.31,137.38L222.98,137.64"/><path d="M222.22,133.94L222.93,133.91L223.01,133.93"/><path d="M222.82,164.36L223.74,163.36"/><path d="M225.49,161.24L224.63,162.33"/><path d="M224.49,134.20L224.41,134.17L223.60,134.03"/><path d="M225.82,134.79L225.75,134.74L224.93,134.39"/><path d="M225.06,129.32L224.96,129.31"/><path d="M227.12,158.96L226.33,160.12"/><path d="M226.74,135.48L225.97,134.87"/><path d="M226.84,129.70L226.70,129.64L226.42,129.58"/><path d="M228.59,156.53L227.88,157.77"/><path d="M229.72,131.40L229.01,130.82"/><path d="M229.24,155.33L229.88,154.02"/><path d="M230.84,132.68L230.30,132.02"/><path d="M230.45,152.74L230.96,151.46"/><path d="M231.44,150.16L231.84,148.87"/><path d="M231.74,134.23L231.31,133.44"/><path d="M232.49,146.30L232.21,147.57"/><path d="M232.11,135.11L232.43,136.02"/><path d="M232.91,143.79L232.74,145.03"/><path d="M233.03,142.57L233.07,141.38"/><path d="M233.00,139.11L233.07,140.23"/><path d="M232.67,137.01L232.87,138.03"/></g><g style="stroke:#000000;stroke-width:0.529"><path d="M195.02,167.32L194.57,166.97L194.39,166.81L193.52,165.89L192.75,164.84L192.09,163.66L191.99,163.46L191.45,162.16L191.02,160.74L190.71,159.22L190.53,157.61L190.47,155.75L190.53,154.00L190.69,152.42L190.71,152.19L191.02,150.33L191.44,148.44L191.98,146.54L192.63,144.62L193.39,142.71L194.25,140.82L195.21,138.96L196.26,137.14L197.39,135.38L198.12,134.35L198.59,133.69L199.87,132.08L201.20,130.57L202.58,129.15L204.00,127.85L205.45,126.66L206.92,125.61L208.55,124.60L210.05,123.81L211.52,123.18L212.99,122.69L214.42,122.37L215.81,122.20L216.03,122.18L217.38,122.17L218.67,122.32L219.90,122.63L220.12,122.71L221.27,123.18L228.55,127.35L229.62,127.98L230.59,128.75L230.77,128.90L231.64,129.82L232.41,130.87L233.07,132.06L233.17,132.26L233.71,133.56L234.14,134.97L234.45,136.49L234.63,138.10L234.69,139.97L234.63,141.72L234.45,143.53L234.14,145.38L233.72,147.27L233.18,149.18L232.53,151.09L231.77,153.01L231.50,153.60L230.91,154.90L229.95,156.76L228.90,158.57L227.77,160.33L226.98,161.43L226.57,162.02L225.29,163.63L223.96,165.15L222.58,166.56L221.16,167.87L219.71,169.05L218.24,170.11L216.61,171.12L215.12,171.90L213.63,172.54L212.17,173.02L210.74,173.35L209.35,173.52L209.12,173.53L207.78,173.54L206.48,173.39L205.26,173.08L205.04,173.01L203.89,172.54L196.18,168.11"/><path d="M206.66,157.45L206.57,156.68L206.56,155.57L206.67,154.25L206.90,152.87L207.24,151.45L207.69,150.02L208.25,148.60L208.91,147.19L209.66,145.83L210.50,144.51L211.41,143.26L212.38,142.09L213.40,141.02L214.46,140.05L215.55,139.21L216.58,138.54L217.59,138.01L218.42,137.68L218.46,137.86L218.59,139.04L218.60,140.14L218.49,141.47L218.26,142.85L217.92,144.26L217.47,145.69L217.04,146.77L216.91,147.11L216.25,148.52L215.50,149.89L214.66,151.21L213.75,152.46L212.78,153.62L211.76,154.70L210.70,155.66L209.61,156.51L208.58,157.17L207.57,157.71L206.74,158.03L206.70,157.86L206.66,157.45"/></g></g><g id="Actor_3.1"><g style="stroke:#000000;stroke-width:0.176"><path d="M66.24,32.65L64.55,32.05L62.72,31.76L60.77,31.78L58.73,32.12L56.62,32.77L54.47,33.72L54.21,33.88L52.31,34.96L50.16,36.48L48.05,38.25L46.01,40.25L44.06,42.46L42.23,44.85L40.55,47.39L39.02,50.04L37.68,52.77L36.54,55.56L35.61,58.35L34.91,61.13L34.44,63.84L34.21,66.47L34.23,68.96L34.49,71.30L34.99,73.45L35.72,75.39L36.68,77.09L37.85,78.53L39.22,79.69"/><path d="M49.49,75.22L49.45,75.21L47.77,75.51L46.16,75.52L46.13,75.53L46.09,75.57L45.55,76.53L44.89,77.34L44.16,77.99L43.40,78.40L42.68,78.56L42.04,78.45L40.85,77.72"/><path d="M47.05,78.81L47.32,78.73L47.43,78.66L47.59,78.55L47.84,78.28L48.04,77.95L48.17,77.60L48.21,77.27L48.17,76.98L48.04,76.78L47.84,76.68L47.59,76.69L47.42,76.77L47.32,76.82L47.05,77.05L46.83,77.36L46.66,77.70L46.57,78.05L46.57,78.37L46.66,78.61L46.83,78.77L47.05,78.81"/><path d="M58.45,75.10L57.28,70.82L57.29,70.77L57.33,70.70L59.02,69.06L60.62,67.23L60.66,67.20L60.69,67.20L59.96,66.78"/><path d="M58.67,71.73L58.58,71.48L58.58,71.16L58.67,70.81L58.84,70.47L58.86,70.44L59.06,70.16L59.33,69.94L59.60,69.81L59.85,69.79L60.05,69.89L60.18,70.09L60.22,70.38L60.18,70.71L60.05,71.07L59.85,71.39L59.60,71.66L59.33,71.85L59.06,71.92L58.84,71.88L58.67,71.73"/><path d="M63.42,64.67L64.75,65.43L64.11,66.27L63.38,66.94L62.62,67.39L61.89,67.60L61.23,67.53L60.69,67.20"/><path d="M64.75,65.43L66.15,62.95L67.36,60.39L68.38,57.79L68.89,56.15L69.18,55.19L69.75,52.63L70.09,50.13L70.19,47.75L70.05,45.50L69.66,43.43L69.05,41.56L68.20,39.93L67.15,38.55L65.90,37.44L64.58,36.68"/></g><g style="stroke:#000000;stroke-width:0.529"><path d="M43.55,81.25L44.32,81.36L46.28,81.29L48.33,80.91L49.50,75.28L49.50,75.24L49.49,75.22L48.15,74.45L46.44,74.75L44.82,74.77L44.77,74.81L44.23,75.77L43.57,76.59L42.84,77.23L42.08,77.64L41.35,77.80L40.85,77.72L40.64,77.58L39.42,76.42L38.40,74.99L37.60,73.30L37.03,71.40L36.69,69.29L36.60,67.02L36.74,64.61L37.12,62.10L37.74,59.52L38.58,56.92L39.63,54.33L40.89,51.78L42.32,49.32L43.91,46.98L45.64,44.79L47.48,42.78L49.40,40.99L51.38,39.44L53.39,38.14L55.40,37.13L57.38,36.41L59.31,36.00L61.15,35.89L62.87,36.10L64.46,36.62L64.58,36.68L65.83,37.79L66.88,39.17L67.72,40.81L68.34,42.67L68.72,44.74L68.86,46.99L68.77,49.37L68.43,51.87L67.85,54.43L67.05,57.03L66.04,59.63L64.82,62.19L63.42,64.67L62.78,65.51L62.06,66.18L61.30,66.63L60.57,66.84L59.96,66.78L59.37,66.44L59.33,66.44L59.29,66.47L57.69,68.30L56.01,69.94L55.97,69.98L55.96,70.06L57.13,74.34L58.45,75.10L60.50,73.13L62.47,70.95L64.31,68.58L66.02,66.06L67.57,63.42L68.93,60.70L70.10,57.92L71.06,55.12L71.79,52.34L72.28,49.68L72.55,46.98L72.57,44.47L72.34,42.10L71.87,39.92L71.17,37.96L70.24,36.23L69.10,34.75L67.76,33.56L66.24,32.65L64.91,31.89L63.22,31.29L61.40,31.00L59.45,31.02L57.41,31.36L55.30,32.01L53.15,32.96L50.99,34.20L48.84,35.72L46.73,37.49L44.69,39.49L42.74,41.70L40.95,44.03L39.22,46.63L37.70,49.28L36.36,52.01L35.22,54.80L34.29,57.59L33.58,60.37L33.12,63.08L32.89,65.71L32.91,68.20L33.17,70.54L33.67,72.69L34.40,74.63L35.36,76.33L36.53,77.77L37.89,78.93L39.22,79.69L40.76,80.55L42.47,81.11L42.54,81.12"/></g></g><g><g><path style="stroke:#000000;stroke-width:0.125;stroke-dasharray:2.3 1.6 0.8 1.6" d="M52.73,55.80L81.80,72.47"/></g></g><g><g><path style="stroke:#000000;stroke-width:0.125;stroke-dasharray:2.3 1.6 0.8 1.6" d="M152.52,113.03L110.96,89.20"/><path style="stroke:#000000;stroke-width:0.125;stroke-dasharray:2.3 1.6 0.8 1.6" d="M166.36,120.97L195.83,137.88"/><path style="stroke:#000000;stroke-width:0.125;stroke-dasharray:2.3 1.6 0.8 1.6" d="M209.67,145.81L241.47,164.05"/><path style="stroke:#000000;stroke-width:0.125;stroke-dasharray:2.3 1.6 0.8 1.6" d="M255.60,172.15L244.97,166.06"/></g></g><g id="PMI3.0"><g><path style="stroke:#000000;stroke-width:0.125" d="M27.15,111.07L44.11,79.18"/></g><g><path style="fill:#000000" d="M44.86,79.18L44.85,79.11L44.84,79.03L44.83,78.96L44.80,78.89L44.77,78.83L44.73,78.76L44.69,78.70L44.64,78.65L44.58,78.60L44.53,78.56L44.46,78.52L44.40,78.49L44.33,78.46L44.25,78.44L44.18,78.43L44.11,78.43L44.03,78.43L43.96,78.44L43.89,78.46L43.82,78.49L43.75,78.52L43.69,78.56L43.63,78.60L43.58,78.65L43.53,78.70L43.48,78.76L43.45,78.83L43.42,78.89L43.39,78.96L43.37,79.03L43.36,79.11L43.36,79.18L43.36,79.25L43.37,79.33L43.39,79.40L43.42,79.47L43.45,79.53L43.48,79.60L43.53,79.66L43.58,79.71L43.63,79.76L43.69,79.80L43.75,79.84L43.82,79.87L43.89,79.90L43.96,79.92L44.03,79.93L44.11,79.93L44.18,79.93L44.25,79.92L44.33,79.90L44.40,79.87L44.46,79.84L44.53,79.80L44.58,79.76L44.64,79.71L44.69,79.66L44.73,79.60L44.77,79.53L44.80,79.47L44.83,79.40L44.84,79.33L44.85,79.25z"/></g><g><text xml:space="preserve" fill="#000000" stroke-width="0" x="17.06" y="116.51" font-size="3.81" opacity="1.00" font-family="Arial">MSR0105</text></g></g><g id="PMI1.0"><g><path style="stroke:#000000;stroke-width:0.125" d="M65.28,132.14L95.66,103.95"/></g><g><path style="fill:#000000" d="M96.41,103.95L96.41,103.88L96.40,103.81L96.38,103.74L96.36,103.67L96.33,103.60L96.29,103.54L96.24,103.48L96.20,103.42L96.14,103.37L96.08,103.33L96.02,103.29L95.95,103.26L95.88,103.24L95.81,103.22L95.74,103.21L95.66,103.20L95.59,103.21L95.52,103.22L95.45,103.24L95.38,103.26L95.31,103.29L95.25,103.33L95.19,103.37L95.13,103.42L95.09,103.48L95.04,103.54L95.00,103.60L94.97,103.67L94.95,103.74L94.93,103.81L94.92,103.88L94.91,103.95L94.92,104.03L94.93,104.10L94.95,104.17L94.97,104.24L95.00,104.31L95.04,104.37L95.09,104.43L95.13,104.48L95.19,104.53L95.25,104.58L95.31,104.61L95.38,104.65L95.45,104.67L95.52,104.69L95.59,104.70L95.66,104.70L95.74,104.70L95.81,104.69L95.88,104.67L95.95,104.65L96.02,104.61L96.08,104.58L96.14,104.53L96.20,104.48L96.24,104.43L96.29,104.37L96.33,104.31L96.36,104.24L96.38,104.17L96.40,104.10L96.41,104.03z"/></g><g><text xml:space="preserve" fill="#000000" stroke-width="0" x="53.92" y="137.57" font-size="3.79" opacity="1.00" font-family="Arial">BPA8623</text></g></g><g id="PMI.0"><g><path style="stroke:#000000;stroke-width:0.125" d="M107.89,153.61L160.39,139.89"/></g><g><path style="fill:#000000" d="M161.14,139.89L161.14,139.81L161.12,139.74L161.11,139.67L161.08,139.60L161.05,139.53L161.01,139.47L160.97,139.41L160.92,139.36L160.87,139.31L160.81,139.26L160.74,139.23L160.68,139.19L160.61,139.17L160.54,139.15L160.46,139.14L160.39,139.14L160.32,139.14L160.24,139.15L160.17,139.17L160.10,139.19L160.04,139.23L159.97,139.26L159.91,139.31L159.86,139.36L159.81,139.41L159.77,139.47L159.73,139.53L159.70,139.60L159.67,139.67L159.65,139.74L159.64,139.81L159.64,139.89L159.64,139.96L159.65,140.03L159.67,140.10L159.70,140.17L159.73,140.24L159.77,140.30L159.81,140.36L159.86,140.42L159.91,140.47L159.97,140.51L160.04,140.55L160.10,140.58L160.17,140.60L160.24,140.62L160.32,140.63L160.39,140.64L160.46,140.63L160.54,140.62L160.61,140.60L160.68,140.58L160.74,140.55L160.81,140.51L160.87,140.47L160.92,140.42L160.97,140.36L161.01,140.30L161.05,140.24L161.08,140.17L161.11,140.10L161.12,140.03L161.14,139.96z"/></g><g><text xml:space="preserve" fill="#000000" stroke-width="0" x="89.61" y="158.43" font-size="3.76" opacity="1.00" font-family="Arial">MWZ0072</text></g></g><g id="PMI.1"><g><path style="stroke:#000000;stroke-width:0.125" d="M144.36,175.52L205.48,166.21"/></g><g><path style="fill:#000000" d="M206.23,166.21L206.23,166.14L206.22,166.07L206.20,166.00L206.17,165.93L206.14,165.86L206.10,165.80L206.06,165.74L206.01,165.68L205.96,165.63L205.90,165.59L205.83,165.55L205.77,165.52L205.70,165.50L205.63,165.48L205.55,165.47L205.48,165.46L205.41,165.47L205.33,165.48L205.26,165.50L205.19,165.52L205.13,165.55L205.06,165.59L205.00,165.63L204.95,165.68L204.90,165.74L204.86,165.80L204.82,165.86L204.79,165.93L204.76,166.00L204.74,166.07L204.73,166.14L204.73,166.21L204.73,166.29L204.74,166.36L204.76,166.43L204.79,166.50L204.82,166.57L204.86,166.63L204.90,166.69L204.95,166.74L205.00,166.79L205.06,166.84L205.13,166.88L205.19,166.91L205.26,166.93L205.33,166.95L205.41,166.96L205.48,166.96L205.55,166.96L205.63,166.95L205.70,166.93L205.77,166.91L205.83,166.88L205.90,166.84L205.96,166.79L206.01,166.74L206.06,166.69L206.10,166.63L206.14,166.57L206.17,166.50L206.20,166.43L206.22,166.36L206.23,166.29z"/></g><g><text xml:space="preserve" fill="#000000" stroke-width="0" x="126.07" y="179.30" font-size="3.76" opacity="1.00" font-family="Arial">MWZ0072</text></g></g><g id="PMI3.1"><g><path style="stroke:#000000;stroke-width:0.125" d="M180.58,195.67L238.51,182.07"/></g><g><path style="fill:#000000" d="M239.26,182.07L239.25,182.00L239.24,181.92L239.22,181.85L239.20,181.78L239.17,181.72L239.13,181.65L239.08,181.59L239.04,181.54L238.98,181.49L238.92,181.45L238.86,181.41L238.79,181.38L238.72,181.35L238.65,181.33L238.58,181.32L238.50,181.32L238.43,181.32L238.36,181.33L238.29,181.35L238.22,181.38L238.15,181.41L238.09,181.45L238.03,181.49L237.97,181.54L237.93,181.59L237.88,181.65L237.84,181.72L237.81,181.78L237.79,181.85L237.77,181.92L237.76,182.00L237.75,182.07L237.76,182.14L237.77,182.22L237.79,182.29L237.81,182.36L237.84,182.42L237.88,182.49L237.93,182.55L237.97,182.60L238.03,182.65L238.09,182.69L238.15,182.73L238.22,182.76L238.29,182.79L238.36,182.80L238.43,182.82L238.51,182.82L238.58,182.82L238.65,182.80L238.72,182.79L238.79,182.76L238.86,182.73L238.92,182.69L238.98,182.65L239.04,182.60L239.08,182.55L239.13,182.49L239.17,182.42L239.20,182.36L239.22,182.29L239.24,182.22L239.25,182.14z"/></g><g><text xml:space="preserve" fill="#000000" stroke-width="0" x="162.93" y="200.16" font-size="3.81" opacity="1.00" font-family="Arial">MSR0105</text></g></g><g/><g><g/><g><text xml:space="preserve" fill="#000000" stroke-width="0" x="9.95" y="14.87" font-size="4.53" opacity="1.00" font-family="Arial" font-weight="bold">BPA8624</text></g></g><g id="paperID" visibility="hidden" opacity="0.00" transform="scale(0.000100)"><path style="stroke:#000000;stroke-width:0.500;fill:#e6e6e6;fill-rule:evenodd" d="M-2000.00,-2000.00L2297.00,-2000.00L2297.00,2210.00L-2000.00,2210.00zM0.00,0.00L297.00,0.00L297.00,210.00L0.00,210.00z"/><path style="fill:#000000;fill-opacity:0.118" d="M3.00,210.00L297.00,210.00L297.00,3.00L300.00,3.00L300.00,213.00L3.00,213.00z"/></g></g></svg>
