<?xml version="1.0" encoding="UTF-8" standalone="no"?>
<svg xmlns="http://www.w3.org/2000/svg" xmlns:xlink="http://www.w3.org/1999/xlink" width="297.000mm" height="210.000mm" viewBox="0.000000 0.000000 297.000000 210.000000" stroke-linejoin="round" stroke-linecap="round" fill="none" fill-rule="evenodd"><desc>Composer Export</desc><script type="text/ecmascript"><![CDATA[
if(typeof(top) != "undefined")
{
	top.ShowPaper = ShowPaper;
}
function ShowPaper()
{
  var svgDocument = getDocument();
  var paper = svgDocument.getElementById("paperID");
  if(paper)
  {
    paper.setAttribute("transform","scale(1)");
    paper.setAttribute("opacity","1");
    paper.setAttribute("visibility","visible");
  }
  var svg = svgDocument.getRootElement();
  if(svg)
  {
    svg.setAttribute("width","307.000mm");
    svg.setAttribute("height","220.000mm");
    svg.setAttribute("viewBox","-5.000000 -5.000000 307.000000 220.000000");
  }
}
]]></script><defs/><g><path style="fill:#000000;fill-opacity:0.098;fill-rule:evenodd" d="M108.36,46.87L109.72,47.28L110.33,47.27L111.68,48.04L113.06,48.99L114.62,50.36L115.99,52.31L116.77,53.94L114.04,52.50L109.14,49.80L106.99,49.21L103.62,49.21L102.45,49.40L100.31,50.00L97.83,51.03L95.88,52.00L92.50,54.28L89.46,56.89L86.93,59.62L84.59,62.55L82.05,66.26L79.89,70.33L78.53,73.26L76.95,77.73L76.13,81.20L75.60,84.76L75.60,90.36L75.98,92.70L76.59,94.44L90.83,102.65L91.20,102.72L91.00,101.28L90.61,98.94L90.61,93.34L91.19,89.44L92.12,85.88L93.54,81.84L96.46,75.99L97.85,73.67L100.29,70.26L102.23,67.91L104.48,65.47L107.52,62.86L111.41,60.32L114.74,58.77L117.46,57.98L118.83,57.79L121.62,57.79L124.74,58.56L125.35,58.95L124.54,58.96L123.57,58.77L120.00,58.77L115.91,59.75L113.03,60.77L109.67,62.67L106.42,65.08L104.79,66.56L102.82,68.69L100.87,71.04L98.82,73.86L96.85,77.16L94.90,81.06L93.53,84.56L92.31,88.99L91.78,92.37L91.78,98.55L91.98,99.72L92.94,103.43L93.33,104.02L95.12,105.04L94.70,103.43L94.32,100.69L94.32,95.88L94.50,94.30L94.66,93.86L96.08,93.94L97.04,89.24L98.80,84.17L101.67,78.46L105.06,73.47L107.21,70.94L109.16,68.79L112.79,65.79L116.09,63.64L118.64,62.48L120.66,61.68L120.18,60.48L120.35,60.31L122.73,59.93L125.32,59.94L127.28,60.32L128.83,60.91L130.59,62.08L131.98,63.42L133.52,65.78L134.48,68.13L135.27,71.64L135.27,78.91L134.48,83.20L133.12,87.68L130.98,92.76L128.78,96.60L126.04,100.50L123.90,103.03L122.42,104.67L120.66,106.23L119.39,107.30L116.93,109.13L114.34,110.64L112.00,111.80L109.52,112.64L107.91,112.98L103.48,112.98L100.94,112.21L88.09,104.78L85.15,104.79L82.61,104.41L79.91,103.20L49.09,85.46L48.10,84.51L47.72,84.30L46.15,82.17L45.36,80.81L44.74,79.01L44.96,79.02L74.45,95.87L73.84,92.31L73.65,90.36L73.65,86.91L74.17,82.17L75.54,76.91L76.77,73.46L78.46,69.68L81.08,64.89L83.81,60.99L85.27,59.14L86.83,57.38L89.07,54.94L90.34,53.87L93.48,51.36L96.98,49.21L100.50,47.65L102.64,47.06L106.59,46.66zM166.66,59.03L167.79,58.34L168.03,58.35L168.04,60.59L167.06,60.52L166.65,59.74zM168.94,62.28L170.71,62.09L172.15,61.39L172.92,60.71L172.92,65.86L172.25,66.75L169.35,68.52L168.21,68.53L166.61,67.52L168.04,67.61L168.22,62.27zM165.29,84.56L165.82,83.72L167.00,83.14L167.78,82.95L169.41,82.94L169.41,86.92L167.05,86.86L166.10,86.44L165.29,85.49zM191.63,85.68L193.77,86.29L194.36,86.29L194.74,86.66L195.72,87.04L198.67,89.16L200.03,90.73L201.97,93.67L203.53,97.76L204.30,102.45L204.30,109.33L203.91,112.45L203.13,116.35L201.96,120.44L199.82,126.30L197.29,131.57L193.97,137.02L191.45,140.55L189.87,143.26L189.48,144.83L189.47,146.72L189.67,147.30L192.04,151.78L192.04,152.24L189.60,154.89L185.02,159.08L181.31,162.00L179.14,163.54L174.21,166.41L170.31,168.17L165.69,169.59L162.31,170.12L160.54,170.18L163.16,161.99L163.18,159.56L159.85,157.63L157.50,156.86L140.56,147.08L138.60,145.53L137.62,144.36L135.86,141.64L134.65,138.89L134.64,138.68L134.85,138.69L149.15,146.91L149.51,146.92L148.73,143.79L148.34,140.67L148.34,134.88L148.86,130.53L150.08,125.12L152.04,119.28L154.19,114.41L157.13,108.97L160.73,103.60L163.37,100.38L166.39,96.97L169.98,93.73L173.05,91.34L177.13,88.79L180.84,87.04L184.74,85.87L187.47,85.48L190.07,85.48zM77.19,112.75L77.75,113.75L77.75,119.88L77.46,120.36L76.68,121.14L75.16,121.76L72.80,121.82L72.80,116.48L75.16,116.30L76.69,115.69L77.18,115.19L77.18,114.73L74.42,111.59L74.35,111.22L74.61,111.19zM239.99,121.17L241.35,121.56L242.34,121.77L245.28,123.68L247.03,125.63L248.38,127.99L249.55,131.11L250.13,135.01L250.13,139.56L249.93,141.70L248.96,146.38L247.78,150.28L245.84,155.16L244.08,158.47L242.13,161.79L240.12,164.65L237.46,168.03L233.28,172.24L232.10,173.99L231.59,175.24L231.23,177.40L230.65,178.19L228.42,179.69L228.10,179.69L228.09,173.69L231.81,170.97L233.57,169.42L236.48,166.47L239.99,161.79L241.94,158.48L243.24,155.88L244.61,152.77L246.04,148.53L246.82,144.83L247.20,139.89L246.82,135.79L246.24,133.84L245.45,133.25L245.05,133.07L244.66,132.69L243.89,130.72L242.54,128.75L240.78,127.01L239.22,126.43L238.23,126.24L234.27,126.24L233.30,126.43L230.24,127.47L227.51,128.84L224.92,130.53L222.65,132.36L220.82,134.04L219.24,135.78L216.31,139.48L213.21,144.37L211.13,148.92L209.56,153.39L208.79,156.72L208.40,159.45L208.40,165.43L208.97,168.37L209.95,170.90L211.34,173.02L213.29,174.78L215.22,175.77L217.36,176.36L220.62,176.35L223.36,175.78L225.89,174.79L227.07,174.17L227.31,174.19L227.31,180.31L227.07,180.47L224.97,181.48L224.34,181.69L224.17,181.46L224.02,180.24L223.79,179.88L222.46,179.07L222.24,178.69L219.26,179.08L216.39,179.09L214.24,178.71L211.91,177.72L209.59,176.33L208.22,175.17L206.83,173.63L205.48,171.28L205.07,170.32L205.02,169.71L205.26,169.69L205.50,169.89L206.09,170.16L205.48,166.80L205.28,165.05L205.28,161.01L205.67,157.50L206.44,153.59L208.14,148.27L210.35,143.46L212.22,140.06L215.34,135.38L217.00,133.35L218.17,131.97L220.12,129.83L223.03,127.28L225.70,125.27L228.49,123.57L232.13,121.95L235.25,121.17L236.61,120.97L238.63,120.97zM129.82,73.57L130.20,74.76L130.60,78.28L130.39,81.25L129.42,85.74L128.06,89.44L126.43,92.69L124.15,96.26L122.01,99.00L120.26,100.76L120.06,104.65L111.28,109.74L111.09,106.13L107.18,106.16L105.44,105.56L103.89,104.58L102.53,103.01L101.72,101.68L100.94,99.14L100.75,97.96L100.75,92.95L101.33,89.83L102.51,85.93L104.27,82.03L107.01,77.56L110.13,73.86L111.48,72.67L113.26,71.14L115.52,69.69L117.33,68.77L118.83,68.13L120.06,67.91zM196.71,102.63L197.28,104.79L197.67,108.30L197.67,110.89L197.28,114.79L196.70,117.72L195.72,121.03L194.15,123.56L193.78,126.11L192.99,127.67L190.65,131.95L187.73,136.25L185.21,139.19L184.14,140.46L182.19,142.21L179.66,144.36L177.81,145.63L175.38,147.10L171.69,148.67L168.94,149.25L164.91,149.25L163.73,149.07L161.01,147.89L159.28,146.50L158.87,146.12L158.48,144.17L158.09,143.78L157.28,143.62L156.74,142.99L155.54,139.51L155.16,137.16L155.16,130.78L155.88,126.24L157.50,120.84L159.39,116.49L161.62,112.28L164.45,108.09L166.88,105.06L168.83,102.92L170.57,101.34L172.13,99.97L175.05,97.83L178.30,96.01L181.43,94.84L182.86,94.63zM230.24,175.77L230.25,176.63L229.39,177.72L228.68,177.73L228.67,176.40L229.40,175.55L229.85,175.55zM226.93,177.73L226.94,178.37L226.54,179.15L225.89,179.70L225.38,179.68L225.17,179.48L225.16,178.55L225.88,177.51L226.55,177.51z"/><g id="Actor_.0"><g style="stroke:#000000;stroke-width:0.176"><path d="M112.18,48.22L110.48,47.37L108.63,46.83L106.64,46.58L104.54,46.65L102.35,47.02L100.09,47.70L97.80,48.67L95.48,49.93L93.17,51.46L90.89,53.25L88.66,55.28L86.51,57.52L84.47,59.96L82.55,62.56L80.77,65.30L79.15,68.15L77.71,71.08L76.56,73.85L76.47,74.06L75.43,77.06L74.61,80.04L74.02,82.97L73.67,85.83L73.55,88.58L73.67,91.19L74.02,93.64L74.61,95.90L75.43,97.94L76.47,99.75L77.71,101.30L79.15,102.58L80.77,103.58"/><path d="M87.93,104.62L80.89,100.58L79.49,99.43L78.28,98.00L77.27,96.33L76.47,94.42L75.89,92.29L75.54,89.98L75.42,87.51L75.54,84.90L75.89,82.18L76.47,79.40L77.27,76.57L78.28,73.73L79.49,70.91L80.89,68.15L82.47,65.47L84.20,62.91L86.06,60.49L88.03,58.25L88.98,57.30L90.10,56.20L92.23,54.37L94.41,52.78L96.61,51.46L98.80,50.40L100.96,49.64L103.06,49.17L105.08,48.99L107.00,49.13L108.80,49.56L110.45,50.28L116.94,54.00"/><path d="M95.90,109.19L94.50,108.04L93.29,106.61L92.27,104.94L91.47,103.02L90.90,100.90L90.55,98.59L90.43,96.11L90.55,93.51L90.90,90.79L91.47,88.01L92.27,85.18L93.29,82.34L94.50,79.52L95.90,76.76L97.48,74.08L99.20,71.52L101.07,69.10L103.04,66.86L105.11,64.81L107.24,62.98L109.42,61.39L111.61,60.07L113.80,59.01L115.96,58.25L118.07,57.77L120.09,57.60L122.01,57.73L123.65,58.13L123.81,58.17L125.46,58.89"/><path d="M92.10,100.38L92.59,102.13L92.51,101.83L92.16,99.51L92.04,97.04L92.16,94.43L92.51,91.72L93.09,88.93L93.89,86.10L94.90,83.26L96.11,80.45L97.52,77.69L99.09,75.01L100.82,72.44L102.68,70.03L104.66,67.78L106.72,65.73L108.86,63.90L111.03,62.32L113.23,60.99L115.42,59.94L117.12,59.33L116.89,59.37L114.81,59.95L112.68,60.83L110.53,61.99L108.39,63.43L106.28,65.11L104.22,67.03L102.26,69.16L100.54,71.29L100.39,71.48L98.66,73.94L97.08,76.54L95.67,79.23L94.44,81.98L93.42,84.75L92.61,87.52L92.03,90.25L91.67,92.91L91.56,95.47L91.67,97.89L92.03,100.14L92.10,100.38"/><path d="M97.40,110.02L96.11,108.96L94.90,107.54L93.89,105.86L93.09,103.95L92.59,102.13"/><path d="M99.65,111.34L98.25,110.19L97.04,108.76L96.03,107.09L95.23,105.18L94.65,103.05L94.30,100.74L94.18,98.27L94.30,95.66L94.65,92.95L95.23,90.16L96.03,87.33L97.04,84.49L98.25,81.67L99.65,78.91L101.23,76.23L102.96,73.67L104.82,71.25L106.79,69.01L107.47,68.33L108.86,66.96L110.99,65.13L113.17,63.54L115.37,62.22L117.56,61.16L119.72,60.40L121.82,59.93L123.65,59.77L123.84,59.75L125.76,59.89L127.56,60.32L129.21,61.05"/><path d="M116.10,109.59L113.90,110.77L111.88,111.61L109.83,112.21L107.84,112.52L105.93,112.54L104.14,112.27L102.47,111.71L100.96,110.87L99.61,109.75L98.44,108.38L97.46,106.77L96.69,104.92L96.13,102.88L95.79,100.65L95.68,98.27L95.80,95.75L96.13,93.14L96.69,90.45L97.46,87.73L98.44,84.99L99.61,82.28L100.96,79.62L102.47,77.03L102.85,76.47L104.14,74.57L105.93,72.24L107.84,70.07L109.83,68.10L111.88,66.34L113.98,64.81L116.10,63.53L118.21,62.51L120.29,61.78L122.31,61.32L124.26,61.16L126.12,61.28L127.85,61.70L129.44,62.40L130.88,63.38L130.96,63.46L132.14,64.62L133.21,66.12L134.09,67.85L134.75,69.80L135.20,71.94L135.43,74.24"/><path d="M101.65,101.35L101.05,99.61L100.69,97.67L100.56,95.56L100.67,93.31L101.02,90.96L101.52,88.85L101.59,88.54L102.39,86.10L103.40,83.67L104.60,81.29L105.98,78.99L107.50,76.82L109.16,74.82L110.92,73.00L112.75,71.40L114.62,70.05L115.90,69.32L116.51,68.97L118.39,68.17L120.22,67.66L121.98,67.46L123.63,67.57L125.16,67.99L126.54,68.70L127.74,69.71L128.75,70.98L129.54,72.51L130.12,74.26L130.47,76.22L130.58,78.34L130.45,80.60L130.08,82.96L129.49,85.38L128.67,87.83L127.64,90.26L126.43,92.63L125.04,94.91L123.50,97.07L121.84,99.06L120.07,100.86L120.07,104.53L111.07,109.70L111.07,106.03L109.30,106.25L107.64,106.17L106.10,105.78L104.71,105.09L103.49,104.11L102.47,102.86L101.65,101.35"/><path d="M101.34,100.45L111.07,106.03"/><path d="M120.07,104.53L100.67,93.40"/><path d="M120.07,100.86L101.23,90.06"/><path d="M117.12,59.33L117.58,59.17L119.68,58.70L121.70,58.53L123.62,58.66L125.42,59.09L126.36,59.50"/><path d="M127.12,59.85L127.08,59.82"/></g><g style="stroke:#000000;stroke-width:0.529"><path d="M88.96,105.21L87.93,104.62L86.51,104.76L84.47,104.67L82.55,104.28L80.77,103.58L50.75,86.36L49.13,85.37L47.69,84.09L46.45,82.54L45.41,80.73L44.60,78.69L44.01,76.43L43.65,73.98L43.53,71.37L43.65,68.62L44.00,65.77L44.60,62.82L45.41,59.84L46.45,56.85L47.69,53.87L49.13,50.94L50.75,48.09L52.53,45.34L54.49,42.69L56.50,40.31L58.65,38.06L60.87,36.04L63.15,34.25L65.46,32.72L67.78,31.46L70.08,30.48L72.33,29.80L74.52,29.43L76.62,29.37L78.61,29.61L80.46,30.16L82.16,31.00L112.18,48.22L113.71,49.36L115.05,50.78L116.19,52.46L116.94,54.00L125.46,58.89L126.36,59.50L127.08,59.82L129.21,61.05L130.70,62.06L132.01,63.35L133.13,64.90L134.04,66.70L134.73,68.72L135.19,70.94L135.42,73.34L135.43,76.70L135.20,79.26L134.75,81.92L134.09,84.63L133.21,87.36L132.14,90.09L130.88,92.78L129.44,95.41L127.85,97.94L126.12,100.34L124.26,102.59L122.31,104.66L120.29,106.53L118.21,108.18L116.10,109.59L115.37,110.01L113.17,111.20L110.99,112.12L108.86,112.74L106.79,113.06L104.82,113.08L102.96,112.80L101.23,112.22L99.65,111.34L97.52,110.12L97.40,110.02L95.90,109.19L90.02,105.82"/></g></g><g id="Actor_.1"><g style="stroke:#000000;stroke-width:0.176"><path d="M77.77,113.69L77.73,114.36L77.38,114.99L76.75,115.54L75.87,115.98L74.83,116.26L73.69,116.38L72.54,116.31L71.47,116.07L70.54,115.67L69.85,115.14L69.42,114.52L69.30,113.86"/><path d="M73.06,110.75L72.92,110.84L72.84,110.95L72.80,111.06L72.82,111.18L72.90,111.28L73.02,111.38L73.18,111.45L73.37,111.49L73.57,111.50L73.77,111.48L73.95,111.43L74.11,111.35L74.22,111.26L74.28,111.15L74.28,111.03L74.24,110.92L74.14,110.82"/></g><g style="stroke:#000000;stroke-width:0.529"><path d="M72.50,121.76L71.99,121.69L70.98,121.36L70.54,121.14L70.49,121.11L70.16,120.89L69.60,120.31L69.32,119.67L69.30,113.86L69.50,113.21L70.00,112.61L70.76,112.11L73.06,110.75L73.23,110.69L73.42,110.66L73.62,110.65L73.82,110.68L73.99,110.74L74.14,110.82L76.93,112.47L77.49,113.05L77.77,113.69L77.79,119.50L77.59,120.16L77.10,120.76L76.34,121.26L75.37,121.62L74.27,121.82L73.47,121.84"/></g></g><g id="Actor_.2"><g style="stroke:#000000;stroke-width:0.176"><path d="M209.67,175.92L208.86,175.10L207.69,173.46L206.74,171.57L206.00,169.46L205.49,167.15L205.22,164.65L205.18,162.00L205.37,159.23L205.80,156.35L206.46,153.41L207.35,150.44L208.44,147.46L209.74,144.50L211.23,141.61L212.89,138.80L214.70,136.11L216.65,133.56L218.72,131.19L220.73,129.16L220.88,129.01L223.11,127.05L225.39,125.33L227.69,123.88L230.00,122.69L232.28,121.79L234.51,121.19L236.67,120.89L238.74,120.89L240.69,121.20L242.50,121.81L244.16,122.72"/><path d="M210.62,176.76L211.76,177.57"/><path d="M213.26,174.61L213.93,175.09L215.53,175.82L217.27,176.26L219.14,176.39L221.11,176.22L223.16,175.76L225.26,174.99L227.40,173.94L226.49,173.42"/><path d="M224.32,181.57L224.21,181.46L224.16,181.28L224.06,180.45L223.86,179.68L223.50,179.08L222.98,178.69L222.35,178.52L222.19,178.54"/><path d="M225.18,179.44L225.37,179.62L225.63,179.66L225.93,179.58L226.23,179.37L226.52,179.07L226.74,178.69L226.89,178.30L226.94,177.91L226.89,177.59L226.74,177.36L226.52,177.25L226.23,177.27L225.93,177.41L225.63,177.67L225.37,178.02L225.19,178.38L225.08,178.80L225.08,179.16L225.18,179.44"/><path d="M226.49,172.74L227.99,173.60L228.07,179.81"/><path d="M227.40,173.94L227.33,179.39"/><path d="M228.46,176.87L228.46,177.22L228.56,177.50L228.75,177.68L229.00,177.73L229.30,177.64L229.61,177.44L229.89,177.13L230.12,176.76L230.27,176.36L230.32,175.98L230.27,175.65L230.12,175.42L229.89,175.31L229.61,175.33L229.30,175.48L229.00,175.74L228.75,176.08L228.57,176.44L228.46,176.87"/><path d="M227.99,173.60L230.12,172.21L232.23,170.56L234.28,168.67L236.25,166.58L238.12,164.30L239.27,162.69L239.86,161.86L241.46,159.30L242.89,156.64L244.14,153.91L245.18,151.15L246.03,148.39L246.65,145.66L247.04,143.00L247.20,140.43L247.12,138.00L246.82,135.72L246.28,133.63L245.52,131.76L244.54,130.11L243.36,128.72L241.99,127.60L240.65,126.86"/><path d="M242.68,121.88L242.66,121.86"/></g><g style="stroke:#000000;stroke-width:0.529"><path d="M209.67,176.29L208.72,175.61L207.36,174.24L206.19,172.60L205.23,170.71L204.50,168.60L203.99,166.29L203.72,163.79L203.68,161.14L203.87,158.37L204.30,155.49L204.96,152.55L205.85,149.58L206.94,146.60L208.24,143.64L209.73,140.75L211.38,137.94L213.20,135.25L215.15,132.70L217.22,130.33L219.38,128.15L221.61,126.19L223.89,124.47L226.19,123.02L228.50,121.83L230.78,120.93L233.01,120.33L235.17,120.03L237.24,120.03L239.19,120.34L241.00,120.95L242.66,121.86L244.16,122.72L245.65,123.91L246.94,125.37L248.04,127.10L248.92,129.06L249.58,131.24L250.01,133.62L250.21,136.17L250.17,138.87L249.89,141.68L249.39,144.58L248.65,147.53L247.70,150.51L246.53,153.49L245.17,156.43L243.62,159.30L241.91,162.07L240.05,164.72L238.05,167.21L235.95,169.52L233.77,171.63L233.04,172.39L232.40,173.29L231.89,174.27L231.52,175.29L231.33,176.28L231.23,177.23L231.17,177.46L231.07,177.70L230.92,177.91L230.74,178.07L229.41,178.98L228.07,179.81L227.33,179.39L227.32,180.25L225.98,180.95L224.65,181.56L224.47,181.60L224.32,181.57L222.82,180.71L222.71,180.60L222.66,180.42L222.56,179.59L222.36,178.82L222.19,178.54L221.62,178.59L219.43,179.00L217.33,179.10L215.34,178.89L213.48,178.38L211.76,177.57L210.62,176.91"/><path d="M209.06,168.46L208.74,167.40L208.35,165.19L208.19,162.81L208.26,160.29L208.57,157.66L209.11,154.95L209.87,152.20L210.85,149.44L212.02,146.69L213.39,144.00L214.93,141.40L216.62,138.91L218.45,136.57L220.38,134.41L222.41,132.45L224.50,130.71L226.51,129.30L226.62,129.22L228.76,127.99L230.89,127.04L232.98,126.38L235.00,126.02L236.94,125.97L238.76,126.21L240.46,126.76L240.65,126.86L241.86,127.86L243.04,129.25L244.02,130.90L244.78,132.77L245.32,134.86L245.62,137.14L245.70,139.57L245.54,142.14L245.15,144.80L244.53,147.53L243.69,150.29L242.63,153.05L241.39,155.78L239.95,158.44L238.36,161.00L236.61,163.44L234.75,165.72L232.78,167.81L230.72,169.69L228.82,171.19L228.62,171.35L226.49,172.74L226.49,173.42L225.90,173.08L223.76,174.13L221.66,174.89L219.61,175.36L217.64,175.53L215.77,175.40L214.03,174.96L213.26,174.61L212.50,174.07L211.25,172.77L210.20,171.21L209.36,169.42L209.06,168.46"/></g></g><g id="Actor_.3"><g style="stroke:#000000;stroke-width:0.176"><path d="M173.06,59.87L172.86,60.52L172.37,61.12L171.61,61.62L170.64,61.98L169.54,62.18L168.96,62.19L168.38,62.21L167.26,62.05L166.25,61.72L165.82,61.51L165.43,61.25L164.87,60.68L164.59,60.03"/><path d="M165.82,66.98L166.74,67.38L167.81,67.63L168.96,67.69L170.10,67.58L171.15,67.30L172.02,66.86"/><path d="M165.48,60.00L165.55,60.18L166.02,60.65L166.33,60.86L166.69,61.04L167.53,61.31L168.46,61.44L169.41,61.42L170.33,61.26L171.13,60.96L171.75,60.54L172.16,60.05L172.33,59.51L172.23,58.96L171.88,58.45L171.30,58.01L170.54,57.68L169.65,57.48L168.70,57.42L167.75,57.52L166.89,57.75L166.17,58.11L165.65,58.57L165.36,59.09L165.32,59.64L165.48,60.00"/><path d="M170.55,60.16L169.45,60.79L167.08,60.43L166.45,59.07L168.18,58.08L170.55,58.44L171.18,59.80L170.55,60.16L170.55,58.44"/><path d="M168.18,58.08L168.18,60.60"/></g><g style="stroke:#000000;stroke-width:0.529"><path d="M173.05,62.13L173.04,65.01L173.00,65.67L172.65,66.31L172.02,66.86L169.38,68.41L169.22,68.49L169.04,68.54L168.84,68.56L168.72,68.55L168.64,68.54L168.45,68.50L168.29,68.43L165.82,66.98L165.12,66.45L164.69,65.84L164.57,65.18L164.59,60.03L164.63,59.37L164.98,58.74L165.62,58.18L166.49,57.75L167.53,57.46L168.67,57.35L169.82,57.42L170.90,57.66L171.82,58.06L172.52,58.59L172.94,59.21L173.06,59.87L173.06,60.80"/></g></g><g id="Actor_.4"><g style="stroke:#000000;stroke-width:0.176"><path d="M148.22,151.42L157.44,156.71L159.40,157.46L161.51,157.92L162.22,158.17L162.77,158.69L163.13,159.44L163.28,160.39L163.22,161.48L162.94,162.64L160.46,170.19"/><path d="M155.81,155.77L155.62,155.66L153.98,154.34L152.52,152.75L151.26,150.90L150.20,148.81L149.36,146.50L148.74,143.99L148.35,141.29L148.19,138.43L148.26,135.43L148.56,132.32L149.09,129.12L149.84,125.86L150.81,122.57L152.00,119.27L153.38,115.99L154.95,112.76L156.70,109.60L158.61,106.54L160.66,103.60L162.85,100.82L165.14,98.20L167.53,95.78L169.99,93.58L172.50,91.60L175.04,89.87L177.60,88.41L180.14,87.22L182.65,86.31L185.11,85.70L187.45,85.38L189.80,85.36L191.98,85.64L194.03,86.22L195.94,87.09"/><path d="M155.75,140.18L155.95,140.94L156.74,142.91L157.01,143.28L157.37,143.51L158.17,143.67L156.71,142.83"/><path d="M158.17,143.67L158.45,143.91L158.61,144.29L158.68,145.38L158.82,145.87L159.08,146.25L160.49,147.44L162.07,148.35L163.81,148.97L165.68,149.30L167.66,149.33L169.74,149.05L171.90,148.48L174.10,147.62L176.32,146.48L178.55,145.07L180.75,143.41L182.90,141.51L184.98,139.39L186.97,137.09L188.84,134.62L190.12,132.69L190.57,132.00L192.15,129.28L193.56,126.47L193.82,125.80L193.97,125.13L194.03,123.98L194.19,123.41L194.47,122.85L195.27,121.77L195.63,121.12L195.90,120.45L196.69,117.57L197.26,114.75L197.60,111.99L197.71,109.35L197.58,106.84L197.23,104.49L196.64,102.32L195.84,100.38L195.30,99.48L194.82,98.66L193.59,97.19L192.19,95.99L190.60,95.07L188.87,94.45L186.99,94.12L185.00,94.08L182.92,94.36L181.88,94.63"/><path d="M165.23,85.12L165.21,84.79L165.27,84.46L165.41,84.14L165.63,83.85L165.91,83.58L166.27,83.34L166.68,83.14L167.13,82.99L167.63,82.88L167.89,82.84L168.15,82.81L168.68,82.80L169.22,82.83L169.75,82.91L170.26,83.02L170.74,83.18L171.17,83.37L171.55,83.59L171.87,83.83L172.12,84.09L172.30,84.37L172.40,84.65L172.42,84.94L172.36,85.23L172.22,85.51L172.01,85.78L171.72,86.04L171.37,86.27L170.96,86.47L170.50,86.65L170.01,86.78L169.49,86.88L168.95,86.93L168.41,86.94L167.88,86.90L167.38,86.82L166.90,86.68L166.47,86.51L166.08,86.29L165.76,86.03L165.51,85.75L165.33,85.44L165.23,85.12"/></g><g style="stroke:#000000;stroke-width:0.529"><path d="M166.10,169.39L163.21,169.95L160.46,170.19L145.46,161.59L147.93,154.03L148.21,152.87L148.28,151.78L148.22,151.42L140.61,147.05L138.97,145.73L137.51,144.14L136.25,142.29L135.19,140.20L134.35,137.89L133.73,135.38L133.34,132.69L133.27,131.54L133.18,129.82L133.25,126.82L133.55,123.71L134.08,120.51L134.83,117.25L135.81,113.96L136.99,110.66L138.37,107.38L139.94,104.15L141.69,100.99L143.60,97.93L145.65,94.99L147.84,92.21L150.13,89.59L152.52,87.17L154.86,85.08L157.49,82.99L160.04,81.27L162.59,79.80L165.13,78.61L167.65,77.70L170.10,77.09L172.49,76.77L174.79,76.75L176.97,77.03L179.03,77.61L180.94,78.48L195.94,87.09L197.69,88.24L199.26,89.67L200.65,91.37L201.83,93.31L202.80,95.49L203.56,97.88L204.08,100.47L204.39,103.24L204.46,106.15L204.30,109.20L203.90,112.35L203.28,115.57L202.44,118.85L201.39,122.15L200.12,125.44L198.67,128.71L197.02,131.92L195.21,135.04L193.24,138.05L191.13,140.93L190.42,141.99L189.87,143.14L189.51,144.31L189.36,145.44L189.42,146.44L189.71,147.28L192.18,152.00L189.43,154.91L186.61,157.61L183.71,160.08L180.78,162.31L177.81,164.28L174.83,165.99L171.87,167.42L168.93,168.56L167.23,169.06"/><path d="M156.01,140.11L155.75,140.18L155.38,138.76L155.04,136.40L154.93,133.88L155.06,131.23L155.42,128.47L156.00,125.64L156.81,122.76L157.83,119.87L159.05,117.01L160.46,114.19L162.04,111.46L163.78,108.84L165.65,106.36L167.64,104.04L169.73,101.92L171.88,100.01L174.09,98.35L176.32,96.93L178.55,95.79L180.76,94.93L181.88,94.63L182.22,95.88L182.57,98.23L182.70,100.74L182.59,103.39L182.25,106.14L181.68,108.97L180.89,111.84L180.63,112.51L180.26,113.16L179.46,114.24L179.18,114.80L179.02,115.37L178.96,116.52L178.81,117.19L178.56,117.87L177.15,120.67L175.57,123.40L173.83,126.01L171.96,128.48L169.97,130.79L167.89,132.90L165.74,134.80L163.54,136.46L161.31,137.87L159.09,139.02L156.89,139.87L156.01,140.11"/></g></g><g><g><path style="stroke:#000000;stroke-width:0.125;stroke-dasharray:2.3 1.6 0.8 1.6" d="M73.55,99.44L73.55,111.08"/></g></g><g><g><path style="stroke:#000000;stroke-width:0.125;stroke-dasharray:2.3 1.6 0.8 1.6" d="M104.57,81.34L141.00,102.23"/><path style="stroke:#000000;stroke-width:0.125;stroke-dasharray:2.3 1.6 0.8 1.6" d="M209.37,141.44L160.81,113.59"/><path style="stroke:#000000;stroke-width:0.125;stroke-dasharray:2.3 1.6 0.8 1.6" d="M213.50,143.81L226.94,151.52"/></g></g><g><g><path style="stroke:#000000;stroke-width:0.125;stroke-dasharray:2.3 1.6 0.8 1.6" d="M168.68,68.44L168.41,86.94"/><path style="stroke:#000000;stroke-width:0.125;stroke-dasharray:2.3 1.6 0.8 1.6" d="M168.82,59.44L168.80,60.69"/></g></g><g id="PMI.0"><g><path style="stroke:#000000;stroke-width:0.125" d="M51.62,194.54L74.03,118.23"/></g><g><path style="fill:#000000" d="M74.78,118.23L74.78,118.16L74.77,118.09L74.75,118.02L74.72,117.95L74.69,117.88L74.65,117.82L74.61,117.76L74.56,117.70L74.51,117.65L74.45,117.61L74.38,117.57L74.32,117.54L74.25,117.52L74.18,117.50L74.10,117.49L74.03,117.48L73.96,117.49L73.88,117.50L73.81,117.52L73.74,117.54L73.68,117.57L73.61,117.61L73.55,117.65L73.50,117.70L73.45,117.76L73.41,117.82L73.37,117.88L73.34,117.95L73.31,118.02L73.29,118.09L73.28,118.16L73.28,118.23L73.28,118.31L73.29,118.38L73.31,118.45L73.34,118.52L73.37,118.59L73.41,118.65L73.45,118.71L73.50,118.76L73.55,118.81L73.61,118.86L73.68,118.89L73.74,118.93L73.81,118.95L73.88,118.97L73.96,118.98L74.03,118.98L74.10,118.98L74.18,118.97L74.25,118.95L74.32,118.93L74.38,118.89L74.45,118.86L74.51,118.81L74.56,118.76L74.61,118.71L74.65,118.65L74.69,118.59L74.72,118.52L74.75,118.45L74.77,118.38L74.78,118.31z"/></g><g><text xml:space="preserve" fill="#000000" stroke-width="0" x="43.78" y="199.97" font-size="3.78" opacity="1.00" font-family="Arial">ND0439</text></g></g><g id="PMI.1"><g><path style="stroke:#000000;stroke-width:0.125" d="M103.19,194.54L88.66,100.13"/></g><g><path style="fill:#000000" d="M89.41,100.13L89.41,100.06L89.40,99.99L89.38,99.91L89.36,99.85L89.33,99.78L89.29,99.72L89.24,99.66L89.19,99.60L89.14,99.55L89.08,99.51L89.02,99.47L88.95,99.44L88.88,99.41L88.81,99.40L88.74,99.39L88.66,99.38L88.59,99.39L88.52,99.40L88.45,99.41L88.38,99.44L88.31,99.47L88.25,99.51L88.19,99.55L88.13,99.60L88.08,99.66L88.04,99.72L88.00,99.78L87.97,99.85L87.95,99.91L87.93,99.99L87.92,100.06L87.91,100.13L87.92,100.21L87.93,100.28L87.95,100.35L87.97,100.42L88.00,100.49L88.04,100.55L88.08,100.61L88.13,100.66L88.19,100.71L88.25,100.76L88.31,100.79L88.38,100.83L88.45,100.85L88.52,100.87L88.59,100.88L88.66,100.88L88.74,100.88L88.81,100.87L88.88,100.85L88.95,100.83L89.02,100.79L89.08,100.76L89.14,100.71L89.19,100.66L89.24,100.61L89.29,100.55L89.33,100.49L89.36,100.42L89.38,100.35L89.40,100.28L89.41,100.21z"/></g><g><text xml:space="preserve" fill="#000000" stroke-width="0" x="95.65" y="199.97" font-size="3.79" opacity="1.00" font-family="Arial">BPA8483</text></g></g><g id="PMI.2"><g><path style="stroke:#000000;stroke-width:0.125" d="M157.97,194.54L168.77,163.10"/></g><g><path style="fill:#000000" d="M169.52,163.10L169.52,163.03L169.50,162.95L169.49,162.88L169.46,162.81L169.43,162.75L169.39,162.68L169.35,162.62L169.30,162.57L169.24,162.52L169.19,162.48L169.12,162.44L169.06,162.41L168.99,162.38L168.92,162.36L168.84,162.35L168.77,162.35L168.70,162.35L168.62,162.36L168.55,162.38L168.48,162.41L168.42,162.44L168.35,162.48L168.29,162.52L168.24,162.57L168.19,162.62L168.15,162.68L168.11,162.75L168.08,162.81L168.05,162.88L168.03,162.95L168.02,163.03L168.02,163.10L168.02,163.17L168.03,163.25L168.05,163.32L168.08,163.39L168.11,163.45L168.15,163.52L168.19,163.57L168.24,163.63L168.29,163.68L168.35,163.72L168.42,163.76L168.48,163.79L168.55,163.82L168.62,163.83L168.70,163.85L168.77,163.85L168.84,163.85L168.92,163.83L168.99,163.82L169.06,163.79L169.12,163.76L169.19,163.72L169.24,163.68L169.30,163.63L169.35,163.57L169.39,163.52L169.43,163.45L169.46,163.39L169.49,163.32L169.50,163.25L169.52,163.17z"/></g><g><text xml:space="preserve" fill="#000000" stroke-width="0" x="148.89" y="199.97" font-size="3.79" opacity="1.00" font-family="Arial">BPA8484</text></g></g><g id="PMI.3"><g><path style="stroke:#000000;stroke-width:0.125" d="M198.24,37.13L170.50,63.93"/></g><g><path style="fill:#000000" d="M171.25,63.93L171.25,63.86L171.24,63.79L171.22,63.71L171.19,63.64L171.16,63.58L171.13,63.51L171.08,63.46L171.03,63.40L170.98,63.35L170.92,63.31L170.86,63.27L170.79,63.24L170.72,63.21L170.65,63.20L170.58,63.19L170.50,63.18L170.43,63.19L170.36,63.20L170.28,63.21L170.21,63.24L170.15,63.27L170.09,63.31L170.03,63.35L169.97,63.40L169.92,63.46L169.88,63.51L169.84,63.58L169.81,63.64L169.78,63.71L169.77,63.79L169.76,63.86L169.75,63.93L169.76,64.00L169.77,64.08L169.78,64.15L169.81,64.22L169.84,64.29L169.88,64.35L169.92,64.41L169.97,64.46L170.03,64.51L170.09,64.56L170.15,64.59L170.21,64.62L170.28,64.65L170.36,64.67L170.43,64.68L170.50,64.68L170.58,64.68L170.65,64.67L170.72,64.65L170.79,64.62L170.86,64.59L170.92,64.56L170.98,64.51L171.03,64.46L171.08,64.41L171.13,64.35L171.16,64.29L171.19,64.22L171.22,64.15L171.24,64.08L171.25,64.00z"/></g><g><text xml:space="preserve" fill="#000000" stroke-width="0" x="194.52" y="36.36" font-size="3.78" opacity="1.00" font-family="Arial">ND0439</text></g></g><g id="PMI.4"><g><path style="stroke:#000000;stroke-width:0.125" d="M210.00,194.54L210.17,173.69"/></g><g><path style="fill:#000000" d="M210.92,173.69L210.92,173.62L210.90,173.54L210.89,173.47L210.86,173.40L210.83,173.34L210.79,173.27L210.75,173.21L210.70,173.16L210.64,173.11L210.59,173.07L210.52,173.03L210.46,173.00L210.39,172.97L210.32,172.95L210.24,172.94L210.17,172.94L210.10,172.94L210.02,172.95L209.95,172.97L209.88,173.00L209.82,173.03L209.75,173.07L209.69,173.11L209.64,173.16L209.59,173.21L209.55,173.27L209.51,173.34L209.48,173.40L209.45,173.47L209.43,173.54L209.42,173.62L209.42,173.69L209.42,173.76L209.43,173.84L209.45,173.91L209.48,173.98L209.51,174.04L209.55,174.11L209.59,174.17L209.64,174.22L209.69,174.27L209.75,174.31L209.82,174.35L209.88,174.38L209.95,174.41L210.02,174.43L210.10,174.44L210.17,174.44L210.24,174.44L210.32,174.43L210.39,174.41L210.46,174.38L210.52,174.35L210.59,174.31L210.64,174.27L210.70,174.22L210.75,174.17L210.79,174.11L210.83,174.04L210.86,173.98L210.89,173.91L210.90,173.84L210.92,173.76z"/></g><g><text xml:space="preserve" fill="#000000" stroke-width="0" x="201.54" y="199.97" font-size="3.81" opacity="1.00" font-family="Arial">MSR0104</text></g></g><g/><g><g/><g><text xml:space="preserve" fill="#000000" stroke-width="0" x="9.95" y="14.87" font-size="4.53" opacity="1.00" font-family="Arial" font-weight="bold">BPA8485</text></g></g><g id="paperID" visibility="hidden" opacity="0.00" transform="scale(0.000100)"><path style="stroke:#000000;stroke-width:0.500;fill:#e6e6e6;fill-rule:evenodd" d="M-2000.00,-2000.00L2297.00,-2000.00L2297.00,2210.00L-2000.00,2210.00zM0.00,0.00L297.00,0.00L297.00,210.00L0.00,210.00z"/><path style="fill:#000000;fill-opacity:0.118" d="M3.00,210.00L297.00,210.00L297.00,3.00L300.00,3.00L300.00,213.00L3.00,213.00z"/></g></g></svg>
