<?xml version="1.0" encoding="UTF-8" standalone="no"?>
<svg xmlns="http://www.w3.org/2000/svg" xmlns:xlink="http://www.w3.org/1999/xlink" width="297.000mm" height="210.000mm" viewBox="0.000000 0.000000 297.000000 210.000000" stroke-linejoin="round" stroke-linecap="round" fill="none" fill-rule="evenodd"><desc>Composer Export</desc><script type="text/ecmascript"><![CDATA[
if(typeof(top) != "undefined")
{
	top.ShowPaper = ShowPaper;
}
function ShowHotSpot(evt,hotspotid)
{
	var svgDocument = evt.target.ownerDocument;
	var strId = "hotspot."+hotspotid;
	var hotspot = svgDocument.getElementById(strId);
	if(hotspot)
		hotspot.setAttribute("opacity",".5");
}
function HideHotSpot(evt,hotspotid)
{
	var svgDocument = evt.target.ownerDocument;
	var strId = "hotspot."+hotspotid;
	var hotspot = svgDocument.getElementById(strId);
	if(hotspot)
		hotspot.setAttribute("opacity","0");

	var toolTip = svgDocument.getElementById('ToolTip');
	if(toolTip)
		toolTip.setAttribute("visibility","hidden");
}
function ShowToolTip(evt,hotspotid,strTooltip)
{
	if(strTooltip=="")
	return;

	// change text
	var svgDocument = evt.target.ownerDocument;
	var tiptext = svgDocument.getElementById('ToolTipText');
	if( !tiptext )
	return;
	tiptext.firstChild.nodeValue = " " + strTooltip + "  " ;

	// show tooltip before, else some refresh issue

	var toolTip = svgDocument.getElementById('ToolTip');
	if(!toolTip)
	return;

	toolTip.setAttribute("visibility","visible");
	toolTip.setAttribute("opacity",".95");

	// move tooltip
	// get viewbox

	var root = svgDocument.documentElement;
	var vbox = (root.getAttribute("viewBox")).split(' ');
	var x0 = parseFloat(vbox[0]);
	var y0 = parseFloat(vbox[1]);
	var vboxW = parseFloat(vbox[2]);
	var vboxH = parseFloat(vbox[3]);

	// get default width of svg

	var strW = root.getAttribute("width");
	var svgW = parseFloat(strW);
	if(strW.indexOf('mm') != -1)
	svgW *= 3.779;

	var strH = root.getAttribute("height");
	var svgH = parseFloat(strH);
	if(strH.indexOf('mm') != -1)
	svgH *= 3.779;  	// 96 dpi  -> 96/25.4 = 3.779

	// update the viewbox / width / height if svg is embedded in html with zoom fit all
	var realx0 = x0;
	var realy0 = y0;
	var realvboxW = vboxW;
	var realvboxH = vboxH;
	var realsvgW = svgW;
	var realsvgH = svgH;

	if ((typeof(top) == "undefined") || (typeof(top.svgctl1) != "undefined")) // embedded in html
	{
		// get window size in pxl

		svgW = window.innerWidth;
		svgH = window.innerHeight;

		// calculate real viewbox

		realsvgW = svgW;
		realsvgH = svgH;
		if((svgW / svgH) > (vboxW / vboxH))
		{
			realvboxW = (vboxH * svgW) / svgH;
			realvboxH = vboxH;
			realx0 = x0 - (realvboxW - vboxW)/2 ;
		}
		else
		{
			realvboxH = (vboxW * svgH) / svgW;
			realvboxW = vboxW;
			realy0 = y0 - (realvboxH - vboxH)/2 ;
		}
	}

	// get user zoom/pan

	var newScale = root.currentScale;
	var translation = root.currentTranslate;

	// transform pxl to user unit

	var xPos = (((evt.clientX+10- translation.x)/newScale) * realvboxW)/realsvgW  + realx0 ;
	var yPos = (((evt.clientY+5- translation.y)/newScale) * realvboxH)/ realsvgH  + realy0 ;
	var scaleForWidth = ( (1 / newScale) * realvboxH) / realsvgH;

	// move tooltip

	toolTip.setAttribute("transform", "translate(" + xPos + "," + yPos + ")" );

	// resize tooltip

	var fontsize = 12;
	tiptext.setAttribute("font-size",fontsize*scaleForWidth);
	tiptext.setAttribute("y", fontsize*scaleForWidth);
	var tipBG = svgDocument.getElementById('ToolTipBG');
	var outline = tiptext.getBBox();
	if(tipBG)
	{
		tipBG.setAttribute("stroke-width", 1*scaleForWidth);
		tipBG.setAttribute("width", Number(outline.width) );
		tipBG.setAttribute("height", Number(outline.height) + fontsize*.5*scaleForWidth );
	}
	var ToolTipShadow = svgDocument.getElementById('ToolTipShadow');
	if(ToolTipShadow)
	{
		ToolTipShadow.setAttribute("width", Number(outline.width) );
		ToolTipShadow.setAttribute("height", Number(outline.height) + fontsize*.5*scaleForWidth );
		ToolTipShadow.setAttribute("x", 3*scaleForWidth);
		ToolTipShadow.setAttribute("y", 3*scaleForWidth);
	}
}
function ShowPaper()
{
  var svgDocument = getDocument();
  var paper = svgDocument.getElementById("paperID");
  if(paper)
  {
    paper.setAttribute("transform","scale(1)");
    paper.setAttribute("opacity","1");
    paper.setAttribute("visibility","visible");
  }
  var svg = svgDocument.getRootElement();
  if(svg)
  {
    svg.setAttribute("width","307.000mm");
    svg.setAttribute("height","220.000mm");
    svg.setAttribute("viewBox","-5.000000 -5.000000 307.000000 220.000000");
  }
}
]]></script><defs/><g><path style="fill:#000000;fill-opacity:0.098;fill-rule:evenodd" d="M129.15,27.30L128.74,27.30L127.65,28.18L127.01,29.31L126.97,30.56L131.99,33.39L132.10,32.81L132.70,32.52L133.14,31.54L133.92,30.91L134.05,30.32L134.26,30.29L134.83,30.66L134.82,32.34L134.46,33.04L133.53,33.88L132.32,33.87L131.98,33.67L131.80,39.96L131.47,39.89L128.99,38.47L128.79,38.51L127.74,39.25L127.01,40.46L126.97,41.71L127.44,42.11L127.14,42.18L127.19,42.36L127.57,42.37L127.44,42.11L127.74,42.18L131.99,44.54L132.10,43.96L132.70,43.67L133.16,42.72L133.93,42.05L133.88,41.63L134.47,41.64L134.82,42.00L134.77,43.79L133.75,44.90L132.69,45.21L131.29,44.49L125.38,47.86L124.66,47.92L124.67,25.73L127.02,24.54L131.82,21.83L131.82,28.79zM151.57,72.27L155.34,71.80L158.65,70.86L159.41,70.56L159.53,45.37L162.17,43.93L163.59,42.88L165.26,41.18L166.33,39.07L166.49,38.27L166.49,95.52L166.33,96.41L165.73,97.76L164.37,99.59L163.50,100.31L162.60,101.01L162.42,110.39L162.24,111.09L161.71,112.33L160.67,113.59L159.34,114.73L156.71,116.17L153.70,117.06L151.04,117.41L147.91,117.41L146.42,117.23L147.21,117.12L147.21,104.48L146.61,104.37L146.61,72.27zM153.22,126.08L153.22,127.57L150.21,127.32L146.44,127.50L143.07,128.21L140.24,129.27L137.66,130.93L136.42,132.35L135.51,133.93L135.63,132.45L136.53,130.68L137.75,129.43L139.36,128.21L141.48,127.14L144.49,126.26L148.38,125.73L150.39,125.73zM151.63,128.20L151.63,141.72L147.20,141.66L144.72,141.31L142.59,140.78L139.41,139.36L137.48,137.92L136.94,137.40L136.58,136.18L136.58,134.63L136.94,133.58L137.92,132.08L139.41,130.74L141.30,129.62L144.49,128.56L146.26,128.21L148.03,128.03L150.92,128.03zM152.46,142.87L155.47,142.37L159.01,141.31L162.09,139.61L164.12,137.75L165.25,135.87L165.61,134.63L165.79,133.32L165.79,151.45L165.25,153.03L165.08,157.83L164.85,158.48L164.19,159.76L163.14,161.19L162.00,162.17L159.43,163.68L158.00,164.37L155.17,165.25L152.10,165.73L146.85,165.73L145.54,165.55L146.68,165.44L146.78,162.71L148.27,162.61L148.27,159.88L146.61,159.78L146.61,143.59L151.74,143.60L152.53,143.48zM153.41,174.89L154.11,175.81L154.29,193.05L153.59,193.94L152.63,194.58L151.22,194.93L148.73,195.00L148.73,179.17L151.63,178.89L153.39,178.00L153.75,177.57L153.16,176.69L153.41,176.24L153.40,175.28L153.14,174.77zM156.43,194.10L156.11,194.35L156.36,193.69zM156.10,194.51L155.63,195.11L155.98,195.13L157.25,194.37L157.47,194.39L157.48,198.19L156.25,199.26L154.23,200.60L151.80,201.55L151.75,197.59L153.22,196.69L150.86,197.06L148.18,197.11L148.18,196.71L151.39,196.53L152.86,196.22L155.01,195.19L156.11,194.35zM127.57,42.37L127.19,42.36L127.14,42.18L127.44,42.11z"/><g id="Actor_.0"><g style="stroke:#000000;stroke-width:0.176"><path d="M151.61,201.61L151.61,197.68L147.60,197.07L146.72,196.90L145.48,196.52L144.39,196.00L143.50,195.38L142.83,194.67L142.53,194.16L142.42,193.90L142.29,193.09L142.29,192.65L142.42,193.45L142.83,194.22L143.50,194.93L144.39,195.56L145.48,196.07L146.72,196.45L148.06,196.68L149.46,196.76L150.86,196.68L152.21,196.45L153.45,196.07L154.54,195.56L155.43,194.93L156.09,194.22L156.50,193.45L156.64,192.65L156.64,193.09L156.50,193.90L156.09,194.67L155.43,195.38L154.54,196.00L153.45,196.52L152.21,196.90L150.86,197.13L149.46,197.21L148.06,197.13L147.60,197.07L143.60,196.45L141.46,191.86"/><path d="M142.29,192.65L142.42,191.84L142.83,191.08"/><path d="M143.60,200.38L143.60,196.45"/><path d="M144.69,189.60L144.69,192.15L144.67,192.25"/><path d="M144.70,176.23L144.73,176.87L145.02,177.48L145.54,178.04L146.28,178.52L147.19,178.89L148.22,179.12L149.32,179.21L150.43,179.16L151.48,178.96L152.43,178.62L152.51,178.57L153.21,178.17L153.80,177.63L154.15,177.03L154.24,176.39"/><path d="M146.61,174.22L146.03,174.64L145.64,175.13L145.45,175.65L145.47,176.19L145.72,176.71L146.16,177.18L146.78,177.58L147.55,177.89L148.42,178.09L149.34,178.16L150.28,178.12L151.17,177.95L151.96,177.67L152.62,177.29L153.12,176.83L153.41,176.32L153.49,175.79L153.36,175.26L153.01,174.76L152.47,174.32"/><path d="M151.61,197.68L157.46,194.32"/><path d="M155.80,190.76L155.43,190.36L154.54,189.74L154.24,189.60L154.24,192.26"/><path d="M154.24,189.60L154.24,189.57"/><path d="M156.61,192.50L156.64,192.65"/></g><g style="stroke:#000000;stroke-width:0.529"><path d="M154.24,189.57L155.32,189.73L155.80,190.76L156.09,191.07L156.50,191.84L156.61,192.50L157.46,194.32L157.46,198.25L156.93,198.72L156.39,199.17L155.44,199.89L154.54,200.45L153.66,200.91L152.70,201.29L152.15,201.47L151.61,201.61L150.86,201.66L150.11,201.69L148.80,201.65L147.60,201.52L146.41,201.29L145.10,200.92L144.35,200.66L143.60,200.38L143.40,200.12L143.20,199.83L142.85,199.24L142.53,198.61L142.21,197.88L141.86,196.96L141.66,196.39L141.46,195.79L141.46,191.86L142.83,191.08L143.50,190.36L144.39,189.74L144.69,189.60L144.70,176.23L144.92,175.61L145.39,175.03L146.08,174.53L146.61,174.22L147.35,173.89L148.19,173.66L149.11,173.55L150.05,173.57L150.95,173.71L151.77,173.96L152.47,174.32L153.04,174.65L153.67,175.17L154.08,175.76L154.24,176.39L154.24,186.81"/><path d="M154.24,187.76L154.24,189.57"/></g></g><g id="Actor_.1"><g style="stroke:#000000;stroke-width:0.176"><path d="M119.03,22.48L124.59,25.67L124.59,48.06"/><path d="M124.59,25.67L125.07,25.67L125.07,48.06"/><path d="M125.07,25.67L131.83,21.79L131.83,21.51"/><path d="M127.88,42.55L127.58,42.57L127.19,42.38L126.94,41.99L126.86,41.44L126.94,40.79L127.19,40.11L127.58,39.48L128.01,39.02L128.06,38.96L128.58,38.61L129.09,38.47L129.53,38.55L129.85,38.84L129.91,39.00"/><path d="M127.88,31.36L127.58,31.38L127.19,31.19L126.94,30.79L126.86,30.24L126.94,29.61L126.94,29.59L127.19,28.92L127.58,28.28L128.06,27.76L128.58,27.41L129.09,27.27L129.53,27.35L129.85,27.65L129.91,27.81"/><path d="M131.83,39.07L131.83,40.10L131.83,39.02L131.83,39.07"/><path d="M131.83,33.61L131.83,39.02"/><path d="M131.83,28.91L131.83,27.54L131.83,28.69"/><path d="M131.83,27.54L131.83,22.09"/><path d="M131.83,22.95L131.83,21.79"/></g><g style="stroke:#000000;stroke-width:0.529"><path d="M131.29,44.50L125.07,48.06L124.59,48.06L119.03,44.87L119.03,37.50"/><path d="M131.83,21.51L126.28,18.33L119.03,22.48L119.03,36.48"/><path d="M131.83,33.61L131.83,40.10"/><path d="M131.83,28.91L131.83,21.52"/></g></g><g id="Actor_.2"><g style="stroke:#000000;stroke-width:0.176"><path d="M132.35,33.91L132.13,33.56L132.05,33.06L132.13,32.47L132.35,31.85L132.71,31.27L133.14,30.80L133.62,30.48L134.08,30.35L134.48,30.43"/><path d="M133.86,33.69L133.48,33.87L133.12,33.89L132.83,33.75L132.65,33.46L132.58,33.06L132.65,32.57L132.83,32.07L133.12,31.60L133.48,31.22L133.86,30.96L134.24,30.85L134.57,30.91L134.81,31.13L134.93,31.48"/></g><g style="stroke:#000000;stroke-width:0.529"><path d="M129.01,27.29L134.48,30.43L134.77,30.69L134.93,31.13L134.93,31.48L134.93,31.93L134.81,32.43L134.57,32.93L134.24,33.36L133.86,33.69L133.62,33.83L133.14,34.06L132.71,34.08L132.35,33.91L126.97,30.83"/></g></g><g id="Actor_.3"><g style="stroke:#000000;stroke-width:0.176"><path d="M165.14,153.34L165.11,153.41L164.35,154.54L163.35,155.60L162.12,156.57L160.68,157.45L159.06,158.22L157.28,158.86L155.37,159.37L153.37,159.73L151.30,159.94L149.20,160.00L147.10,159.90L145.05,159.65L143.29,159.30L143.06,159.25L141.19,158.71L139.44,158.04L137.87,157.24L136.48,156.34L135.30,155.34L134.36,154.26L133.79,153.32"/><path d="M165.33,131.88L165.63,133.05L165.66,134.25L165.43,135.43L164.93,136.59L164.18,137.70L163.19,138.75L161.98,139.72L160.56,140.58L158.95,141.34L157.19,141.98L155.31,142.48L153.32,142.83L151.28,143.04L149.20,143.10L147.13,143.00L145.10,142.76L143.14,142.36L141.28,141.83L139.56,141.16L137.99,140.38L136.62,139.48L135.46,138.49L134.53,137.43L133.84,136.30L133.41,135.14L133.25,133.95L133.35,132.76L133.71,131.58"/><path d="M136.33,136.56L135.89,135.79L135.55,134.74L135.46,133.67L135.61,132.60L136.01,131.55L136.66,130.54L137.53,129.59L138.61,128.72L139.89,127.93L141.34,127.25L142.94,126.69L144.65,126.25L146.44,125.95L148.29,125.79L150.16,125.77L152.02,125.90L153.66,126.14L153.84,126.17L155.57,126.57L157.20,127.10L158.68,127.75L160.03,128.52L161.14,129.36L162.07,130.30L162.77,131.29L163.23,132.33L163.45,133.40L163.42,134.47L163.14,135.53L162.62,136.56L161.99,137.37L162.15,137.06L162.41,136.01L162.41,134.95L162.15,133.90L161.63,132.88L160.86,131.91L159.86,131.02L158.64,130.21L157.24,129.52L155.68,128.94L154.00,128.50L152.22,128.20L150.39,128.05L148.54,128.05L146.70,128.20L144.93,128.50L144.84,128.52L143.24,128.94L141.68,129.52L140.28,130.21L139.07,131.02L138.07,131.91L137.30,132.88L136.77,133.90L136.51,134.95L136.51,136.01L136.78,137.06L136.91,137.33L136.48,136.81L136.33,136.56"/><path d="M135.50,134.21L135.63,133.85"/><path d="M136.13,132.81L135.83,133.31"/><path d="M136.46,132.29L136.86,131.82"/><path d="M161.99,137.37L161.86,137.54L160.88,138.46L159.69,139.29L158.33,140.02L156.80,140.64L155.15,141.14L153.39,141.51L151.56,141.74L149.70,141.83L147.83,141.78L145.99,141.58L144.21,141.25L142.53,140.78L140.97,140.19L139.56,139.48L138.32,138.67L137.29,137.78L136.91,137.33"/><path d="M137.31,131.33L137.91,130.82"/><path d="M138.35,163.12L139.89,163.90L141.60,164.56L143.45,165.08L145.39,165.46L147.41,165.69L149.46,165.77L151.51,165.69L153.53,165.46L155.48,165.08L157.32,164.56L159.03,163.90L160.58,163.12"/><path d="M138.38,130.44L138.97,130.06"/><path d="M139.63,129.65L140.31,129.31"/><path d="M141.05,128.96L141.81,128.67"/><path d="M142.63,128.38L143.45,128.15"/><path d="M144.33,127.92L145.18,127.76"/><path d="M146.11,127.60L147.00,127.50"/><path d="M147.93,127.42L148.86,127.38"/><path d="M149.82,127.38L150.73,127.41"/><path d="M152.57,127.57L151.68,127.47"/><path d="M154.36,127.88L153.50,127.71"/><path d="M156.07,128.32L155.26,128.09"/><path d="M156.91,128.59L157.66,128.88"/><path d="M158.43,129.21L159.10,129.56"/><path d="M159.79,129.95L160.38,130.34"/><path d="M161.47,131.21L160.97,130.78"/><path d="M162.35,132.16L161.95,131.69"/><path d="M163.00,133.16L162.71,132.67"/><path d="M163.43,134.23L163.24,133.70"/></g><g style="stroke:#000000;stroke-width:0.529"><path d="M165.84,148.08L165.84,151.05L165.61,152.24L165.14,153.34L165.18,153.81L165.18,156.75L165.04,157.93L164.64,159.08L163.98,160.20L163.07,161.26L161.93,162.24L160.58,163.12L160.09,163.41L158.61,164.15L157.10,164.73L156.98,164.78L155.22,165.28L153.35,165.64L151.42,165.86L149.46,165.93L147.50,165.86L145.63,165.65L143.71,165.28L141.95,164.78L140.31,164.15L138.83,163.41L138.35,163.12L136.99,162.24L135.85,161.26L134.94,160.20L134.28,159.08L133.88,157.93L133.74,156.75L133.74,153.81L133.79,153.32L133.67,153.12L133.23,151.95L133.06,150.74L133.06,134.51L133.16,133.31L133.53,132.12L133.71,131.58L134.33,130.45L135.21,129.37L136.31,128.36L137.63,127.44L139.15,126.62L140.83,125.92L142.66,125.36L144.60,124.93L146.62,124.64L148.68,124.51L150.76,124.53L152.82,124.70L154.82,125.02L156.73,125.48L158.53,126.09L160.17,126.81L161.64,127.66L162.91,128.60L163.96,129.63L164.77,130.73L165.33,131.88L165.51,132.41L165.81,133.61L165.84,134.81L165.84,147.13"/></g></g><g id="Actor_.4"><g style="stroke:#000000;stroke-width:0.176"><path d="M132.35,45.11L132.13,44.75L132.05,44.25L132.13,43.66L132.35,43.04L132.71,42.47L133.14,42.00L133.62,41.68L134.08,41.55L134.48,41.62"/><path d="M133.86,44.88L133.48,45.07L133.12,45.09L132.83,44.95L132.65,44.66L132.58,44.25L132.65,43.77L132.83,43.27L133.12,42.80L133.48,42.41L133.86,42.15L134.24,42.05L134.57,42.11L134.81,42.33L134.93,42.68"/></g><g style="stroke:#000000;stroke-width:0.529"><path d="M126.97,42.03L132.35,45.11L132.71,45.28L133.14,45.25L133.62,45.02L133.86,44.88L134.24,44.55L134.57,44.12L134.81,43.63L134.93,43.13L134.93,42.68L134.93,42.32L134.77,41.89L134.48,41.62L129.01,38.49"/></g></g><g id="Actor_.5"><g style="stroke:#000000;stroke-width:0.176"><path d="M166.54,37.75L166.34,38.98L165.87,40.18L165.14,41.34L164.17,42.43L162.96,43.45L161.54,44.37L159.93,45.19L159.45,45.39L159.45,70.58L158.16,71.07L156.25,71.63L154.23,72.04L152.13,72.31L150.00,72.43L147.85,72.39L145.74,72.20L143.68,71.85L141.71,71.37L139.86,70.74L138.16,69.98L136.65,69.11L135.33,68.14L134.24,67.08L133.39,65.95L132.79,64.77L132.45,63.56L132.39,62.33"/><path d="M162.41,110.39L162.41,101.18L161.54,101.75L159.93,102.56L158.16,103.26L156.25,103.81L154.23,104.23L152.13,104.50L150.00,104.62L147.85,104.58L145.74,104.38L143.68,104.04L141.71,103.55L139.86,102.93L138.16,102.17L136.65,101.30L136.51,101.20"/><path d="M137.90,57.98L142.21,60.46L142.21,60.69L159.45,70.58"/><path d="M140.28,115.20L141.68,115.90L143.24,116.47L144.92,116.91L146.70,117.21L148.54,117.36L150.39,117.36L152.22,117.21L154.00,116.91L155.68,116.47L157.24,115.90L158.64,115.20"/><path d="M142.21,60.46L142.21,55.48"/><path d="M159.45,45.39L142.21,35.51"/><path d="M143.93,28.17L149.46,31.35L143.93,34.52"/><path d="M162.41,108.76L162.41,107.87"/></g><g style="stroke:#000000;stroke-width:0.529"><path d="M162.41,110.47L162.41,101.18L162.96,100.83L164.17,99.81L165.14,98.71L165.87,97.56L166.34,96.35L166.54,95.13L166.54,37.75L166.47,36.52L166.13,35.31L165.54,34.13L164.68,33.00L163.59,31.94L162.28,30.97L160.76,30.10L159.06,29.34L157.22,28.71L155.25,28.23L153.19,27.88L151.07,27.69L148.93,27.65L146.79,27.77L144.70,28.04L143.93,28.17L143.93,34.52L142.21,35.51L142.21,55.48L141.72,55.96L141.28,56.33L140.77,56.71L140.37,56.98L139.91,57.25L139.45,57.49L138.99,57.69L138.57,57.83L138.16,57.94L137.90,57.98L135.78,56.77L134.76,57.65L133.78,58.74L133.06,59.90L132.59,61.10L132.39,62.33L132.39,94.51L132.45,95.74L132.79,96.96L133.39,98.14L134.24,99.27L135.33,100.33L136.51,101.20L136.51,110.47L136.78,111.52L137.30,112.54L138.07,113.50L139.07,114.40L140.28,115.20L140.76,115.48L142.09,116.14L143.57,116.69L145.16,117.11L146.85,117.39L148.58,117.53L150.34,117.53L152.08,117.39L153.76,117.11L155.36,116.69L156.83,116.14L158.16,115.48L158.64,115.20L159.86,114.40L160.86,113.50L161.63,112.54L162.15,111.52L162.41,110.47L162.41,110.39"/><path d="M162.41,109.02L162.41,108.76"/></g></g><g><g><path style="stroke:#000000;stroke-width:0.125;stroke-dasharray:2.1 1.4 0.7 1.4" d="M149.46,165.93L149.46,175.85"/><path style="stroke:#000000;stroke-width:0.125;stroke-dasharray:2.1 1.4 0.7 1.4" d="M149.46,117.53L149.46,141.83"/></g></g><g><g><path style="stroke:#000000;stroke-width:0.125;stroke-dasharray:2.1 1.4 0.7 1.4" d="M142.21,48.42L133.77,43.57"/></g></g><g><g><path style="stroke:#000000;stroke-width:0.125;stroke-dasharray:2.1 1.4 0.7 1.4" d="M133.77,32.38L142.21,37.22"/></g></g><g id="PMI.0"><g><path style="stroke:#000000;stroke-width:0.125" d="M195.34,185.04L152.02,187.41"/></g><g><path style="fill:#000000" d="M152.77,187.41L152.77,187.33L152.76,187.26L152.74,187.19L152.72,187.12L152.69,187.05L152.65,186.99L152.60,186.93L152.56,186.88L152.50,186.83L152.44,186.78L152.38,186.75L152.31,186.71L152.24,186.69L152.17,186.67L152.10,186.66L152.02,186.66L151.95,186.66L151.88,186.67L151.81,186.69L151.74,186.71L151.67,186.75L151.61,186.78L151.55,186.83L151.49,186.88L151.45,186.93L151.40,186.99L151.36,187.05L151.33,187.12L151.31,187.19L151.29,187.26L151.28,187.33L151.27,187.41L151.28,187.48L151.29,187.55L151.31,187.62L151.33,187.69L151.36,187.76L151.40,187.82L151.45,187.88L151.49,187.94L151.55,187.99L151.61,188.03L151.67,188.07L151.74,188.10L151.81,188.12L151.88,188.14L151.95,188.15L152.02,188.16L152.10,188.15L152.17,188.14L152.24,188.12L152.31,188.10L152.38,188.07L152.44,188.03L152.50,187.99L152.56,187.94L152.60,187.88L152.65,187.82L152.69,187.76L152.72,187.69L152.74,187.62L152.76,187.55L152.77,187.48z"/></g><g><text xml:space="preserve" fill="#000000" stroke-width="0" x="196.11" y="186.95" font-size="3.78" opacity="1.00" font-family="Arial">ND1093</text></g></g><g><g><path style="stroke:#000000;stroke-width:0.125" d="M194.27,149.52L160.86,147.27"/></g><g><path style="fill:#000000" d="M161.61,147.27L161.61,147.20L161.59,147.12L161.58,147.05L161.55,146.98L161.52,146.92L161.48,146.85L161.44,146.79L161.39,146.74L161.33,146.69L161.28,146.65L161.21,146.61L161.15,146.58L161.08,146.55L161.01,146.53L160.93,146.52L160.86,146.52L160.79,146.52L160.71,146.53L160.64,146.55L160.57,146.58L160.51,146.61L160.44,146.65L160.38,146.69L160.33,146.74L160.28,146.79L160.24,146.85L160.20,146.92L160.17,146.98L160.14,147.05L160.12,147.12L160.11,147.20L160.11,147.27L160.11,147.34L160.12,147.42L160.14,147.49L160.17,147.56L160.20,147.62L160.24,147.69L160.28,147.75L160.33,147.80L160.38,147.85L160.44,147.89L160.51,147.93L160.57,147.96L160.64,147.99L160.71,148.01L160.79,148.02L160.86,148.02L160.93,148.02L161.01,148.01L161.08,147.99L161.15,147.96L161.21,147.93L161.28,147.89L161.33,147.85L161.39,147.80L161.44,147.75L161.48,147.69L161.52,147.62L161.55,147.56L161.58,147.49L161.59,147.42L161.61,147.34z"/></g><g><text xml:space="preserve" fill="#000000" stroke-width="0" x="195.05" y="152.44" font-size="3.84" opacity="1.00" font-family="Arial">ZAS0091</text></g></g><g><g><path style="stroke:#000000;stroke-width:0.125" d="M88.35,48.11L122.07,35.89"/></g><g><path style="fill:#000000" d="M122.82,35.89L122.81,35.81L122.80,35.74L122.78,35.67L122.76,35.60L122.73,35.53L122.69,35.47L122.65,35.41L122.60,35.36L122.54,35.31L122.48,35.26L122.42,35.22L122.35,35.19L122.28,35.17L122.21,35.15L122.14,35.14L122.07,35.14L121.99,35.14L121.92,35.15L121.85,35.17L121.78,35.19L121.71,35.22L121.65,35.26L121.59,35.31L121.54,35.36L121.49,35.41L121.44,35.47L121.40,35.53L121.37,35.60L121.35,35.67L121.33,35.74L121.32,35.81L121.32,35.89L121.32,35.96L121.33,36.03L121.35,36.10L121.37,36.17L121.40,36.24L121.44,36.30L121.49,36.36L121.54,36.42L121.59,36.47L121.65,36.51L121.71,36.55L121.78,36.58L121.85,36.60L121.92,36.62L121.99,36.63L122.07,36.64L122.14,36.63L122.21,36.62L122.28,36.60L122.35,36.58L122.42,36.55L122.48,36.51L122.54,36.47L122.60,36.42L122.65,36.36L122.69,36.30L122.73,36.24L122.76,36.17L122.78,36.10L122.80,36.03L122.81,35.96z"/></g><g><text xml:space="preserve" fill="#000000" stroke-width="0" x="73.28" y="53.32" font-size="3.77" opacity="1.00" font-family="Arial">KIT0094</text></g></g><g/><g><g/><g><text xml:space="preserve" fill="#000000" stroke-width="0" x="6.46" y="11.39" font-size="4.53" opacity="1.00" font-family="Arial" font-weight="bold">BPA8052</text></g></g><g id="paperID" visibility="hidden" opacity="0.00" transform="scale(0.000100)"><path style="stroke:#000000;stroke-width:0.500;fill:#e6e6e6;fill-rule:evenodd" d="M-2000.00,-2000.00L2297.00,-2000.00L2297.00,2210.00L-2000.00,2210.00zM0.00,0.00L297.00,0.00L297.00,210.00L0.00,210.00z"/><path style="fill:#000000;fill-opacity:0.118" d="M3.00,210.00L297.00,210.00L297.00,3.00L300.00,3.00L300.00,213.00L3.00,213.00z"/></g><g id="hotspot.0" onmouseover="ShowHotSpot(evt,'0')" onmouseout="HideHotSpot(evt,'0')" onmousemove="ShowToolTip(evt,'0',&quot;Hotspot 1&quot;)" opacity="0"><path style="fill:#00ff00;fill-rule:evenodd" d="M131.80,21.48L131.98,28.91L134.83,30.66L134.82,32.34L134.46,33.04L133.53,33.88L132.32,33.87L131.98,33.67L131.92,40.12L133.75,41.12L134.82,42.00L134.77,43.79L133.75,44.90L132.69,45.21L131.29,44.49L125.38,47.86L124.20,47.84L119.06,44.84L118.85,37.23L118.67,37.06L118.85,36.93L119.06,22.42L126.34,18.29zM117.61,37.64L117.22,37.59L117.70,37.52zM114.42,38.88L114.03,38.83L114.52,38.76zM112.12,39.76L111.73,39.71L112.22,39.65zM109.82,40.65L109.43,40.60L109.91,40.53zM106.63,41.88L106.25,41.84L106.73,41.77zM104.33,42.77L103.94,42.72L104.43,42.66zM102.03,43.65L101.64,43.61L102.13,43.54zM99.73,44.54L99.34,44.49L99.83,44.43zM96.54,45.78L96.16,45.73L96.64,45.67zM94.24,46.66L93.86,46.61L94.34,46.55zM91.94,47.55L91.55,47.50L92.04,47.44zM89.64,48.43L89.25,48.38L89.74,48.32zM85.44,50.85L85.66,52.21L85.44,52.87L85.01,53.33L84.18,53.35L83.84,53.15L83.78,52.61L84.16,52.63L84.34,52.86L84.84,52.81L85.11,52.29L84.01,52.27L83.84,52.10L83.84,50.74L84.12,50.49L84.91,50.50zM83.12,50.69L83.32,51.02L83.32,52.87L82.89,53.33L82.05,53.35L81.69,53.00L81.47,51.57L81.79,50.64L82.00,50.49L82.79,50.49zM80.99,50.69L81.20,51.02L81.19,52.87L80.77,53.33L79.93,53.35L79.60,53.15L79.40,52.64L79.40,51.26L79.76,50.56L80.66,50.49zM77.03,50.91L77.03,50.51L79.26,50.51L79.26,50.91L78.46,51.03L78.34,53.41L77.94,53.41L77.83,51.03zM74.11,51.64L75.29,50.48L75.70,50.50L75.73,50.73L74.99,51.45L74.99,52.09L75.91,53.17L75.89,53.39L75.29,53.39L74.46,52.24L74.10,52.31L73.92,53.42L73.52,53.41L73.52,50.48L73.92,50.48zM87.32,52.15L87.74,52.30L87.74,52.66L87.33,52.81L87.18,53.42L86.99,53.42L86.85,52.80L85.72,52.69L85.66,52.21L86.97,50.46L87.19,50.48zM76.57,53.41L76.18,53.41L76.18,50.48L76.57,50.48zM80.50,50.99L80.81,51.91L80.60,52.82L80.07,52.87L79.92,52.65L79.93,51.26L80.31,50.85zM85.09,51.63L84.83,51.93L84.38,51.93L84.18,51.73L84.16,51.26L84.32,51.03L84.89,51.03zM82.84,51.15L82.96,52.34L82.71,52.81L82.20,52.87L82.04,52.65L82.04,51.25L82.19,51.03L82.77,51.03zM86.84,52.18L86.43,52.16L86.48,51.83L86.85,51.38z"/></g></g></svg>
