<?xml version="1.0" encoding="UTF-8" standalone="no"?>
<svg xmlns="http://www.w3.org/2000/svg" xmlns:xlink="http://www.w3.org/1999/xlink" width="297.000mm" height="210.000mm" viewBox="0.000000 0.000000 297.000000 210.000000" stroke-linejoin="round" stroke-linecap="round" fill="none" fill-rule="evenodd"><desc>Composer Export</desc><script type="text/ecmascript"><![CDATA[
if(typeof(top) != "undefined")
{
	top.ShowPaper = ShowPaper;
}
function ShowHotSpot(evt,hotspotid)
{
	var svgDocument = evt.target.ownerDocument;
	var strId = "hotspot."+hotspotid;
	var hotspot = svgDocument.getElementById(strId);
	if(hotspot)
		hotspot.setAttribute("opacity",".5");
}
function HideHotSpot(evt,hotspotid)
{
	var svgDocument = evt.target.ownerDocument;
	var strId = "hotspot."+hotspotid;
	var hotspot = svgDocument.getElementById(strId);
	if(hotspot)
		hotspot.setAttribute("opacity","0");

	var toolTip = svgDocument.getElementById('ToolTip');
	if(toolTip)
		toolTip.setAttribute("visibility","hidden");
}
function ShowToolTip(evt,hotspotid,strTooltip)
{
	if(strTooltip=="")
	return;

	// change text
	var svgDocument = evt.target.ownerDocument;
	var tiptext = svgDocument.getElementById('ToolTipText');
	if( !tiptext )
	return;
	tiptext.firstChild.nodeValue = " " + strTooltip + "  " ;

	// show tooltip before, else some refresh issue

	var toolTip = svgDocument.getElementById('ToolTip');
	if(!toolTip)
	return;

	toolTip.setAttribute("visibility","visible");
	toolTip.setAttribute("opacity",".95");

	// move tooltip
	// get viewbox

	var root = svgDocument.documentElement;
	var vbox = (root.getAttribute("viewBox")).split(' ');
	var x0 = parseFloat(vbox[0]);
	var y0 = parseFloat(vbox[1]);
	var vboxW = parseFloat(vbox[2]);
	var vboxH = parseFloat(vbox[3]);

	// get default width of svg

	var strW = root.getAttribute("width");
	var svgW = parseFloat(strW);
	if(strW.indexOf('mm') != -1)
	svgW *= 3.779;

	var strH = root.getAttribute("height");
	var svgH = parseFloat(strH);
	if(strH.indexOf('mm') != -1)
	svgH *= 3.779;  	// 96 dpi  -> 96/25.4 = 3.779

	// update the viewbox / width / height if svg is embedded in html with zoom fit all
	var realx0 = x0;
	var realy0 = y0;
	var realvboxW = vboxW;
	var realvboxH = vboxH;
	var realsvgW = svgW;
	var realsvgH = svgH;

	if ((typeof(top) == "undefined") || (typeof(top.svgctl1) != "undefined")) // embedded in html
	{
		// get window size in pxl

		svgW = window.innerWidth;
		svgH = window.innerHeight;

		// calculate real viewbox

		realsvgW = svgW;
		realsvgH = svgH;
		if((svgW / svgH) > (vboxW / vboxH))
		{
			realvboxW = (vboxH * svgW) / svgH;
			realvboxH = vboxH;
			realx0 = x0 - (realvboxW - vboxW)/2 ;
		}
		else
		{
			realvboxH = (vboxW * svgH) / svgW;
			realvboxW = vboxW;
			realy0 = y0 - (realvboxH - vboxH)/2 ;
		}
	}

	// get user zoom/pan

	var newScale = root.currentScale;
	var translation = root.currentTranslate;

	// transform pxl to user unit

	var xPos = (((evt.clientX+10- translation.x)/newScale) * realvboxW)/realsvgW  + realx0 ;
	var yPos = (((evt.clientY+5- translation.y)/newScale) * realvboxH)/ realsvgH  + realy0 ;
	var scaleForWidth = ( (1 / newScale) * realvboxH) / realsvgH;

	// move tooltip

	toolTip.setAttribute("transform", "translate(" + xPos + "," + yPos + ")" );

	// resize tooltip

	var fontsize = 12;
	tiptext.setAttribute("font-size",fontsize*scaleForWidth);
	tiptext.setAttribute("y", fontsize*scaleForWidth);
	var tipBG = svgDocument.getElementById('ToolTipBG');
	var outline = tiptext.getBBox();
	if(tipBG)
	{
		tipBG.setAttribute("stroke-width", 1*scaleForWidth);
		tipBG.setAttribute("width", Number(outline.width) );
		tipBG.setAttribute("height", Number(outline.height) + fontsize*.5*scaleForWidth );
	}
	var ToolTipShadow = svgDocument.getElementById('ToolTipShadow');
	if(ToolTipShadow)
	{
		ToolTipShadow.setAttribute("width", Number(outline.width) );
		ToolTipShadow.setAttribute("height", Number(outline.height) + fontsize*.5*scaleForWidth );
		ToolTipShadow.setAttribute("x", 3*scaleForWidth);
		ToolTipShadow.setAttribute("y", 3*scaleForWidth);
	}
}
function ShowPaper()
{
  var svgDocument = getDocument();
  var paper = svgDocument.getElementById("paperID");
  if(paper)
  {
    paper.setAttribute("transform","scale(1)");
    paper.setAttribute("opacity","1");
    paper.setAttribute("visibility","visible");
  }
  var svg = svgDocument.getRootElement();
  if(svg)
  {
    svg.setAttribute("width","307.000mm");
    svg.setAttribute("height","220.000mm");
    svg.setAttribute("viewBox","-5.000000 -5.000000 307.000000 220.000000");
  }
}
]]></script><defs/><g><path style="fill:#000000;fill-opacity:0.098;fill-rule:evenodd" d="M18.96,38.16L18.75,38.10L18.99,37.97zM25.94,41.91L23.88,41.97L23.72,41.57L25.43,41.58zM25.87,43.41L23.70,43.41L26.60,43.24zM35.41,48.32L34.99,48.19L34.97,48.02L35.17,48.01zM122.41,98.05L122.35,96.86L122.71,96.24L123.14,95.17L123.80,94.19L124.98,93.21L125.64,92.69L126.52,92.88L127.02,93.54L127.21,94.41L126.20,93.86L124.97,93.86L124.48,94.20L123.56,95.43L123.15,96.86L123.34,97.56L124.37,98.19L124.70,98.19L124.70,97.39L125.12,96.17L126.20,94.93L126.62,94.69L127.53,94.69L128.03,95.36L126.46,95.35L126.04,95.59L125.35,96.56L125.34,97.86L125.70,98.17L125.98,98.71L130.68,101.37L130.78,100.67L131.15,100.04L131.75,99.15L132.60,98.35L133.15,98.32L133.64,98.99L133.48,100.38L132.97,101.20L131.94,102.00L131.31,101.99L126.03,98.99L125.03,98.83L123.38,99.02L92.62,81.44L35.86,48.85L35.41,48.32L35.69,48.37zM261.56,177.93L261.87,177.99L261.82,176.77L262.18,176.64L263.04,174.68L263.80,173.79L264.83,173.17L264.96,172.80L265.85,172.79L266.36,173.27L266.67,173.95L266.69,174.83L266.02,174.63L265.53,174.64L264.53,175.01L263.84,175.99L263.84,177.44L264.02,177.92L268.50,180.46L268.47,179.80L268.97,179.62L269.57,178.40L270.30,177.81L270.42,177.25L270.80,177.24L271.31,177.75L271.30,179.14L271.13,179.63L270.74,180.23L269.76,180.91L268.81,180.91L264.68,178.57L264.46,178.57L263.81,178.93L262.52,178.93L141.07,109.27L140.54,108.57L140.73,108.58zM144.07,109.64L143.68,109.67L143.83,109.40L144.08,109.43zM135.90,114.88L131.14,117.59L131.14,117.27L133.64,115.77L135.97,114.40zM285.05,184.05L283.97,184.05L284.55,183.54zM285.87,184.70L286.36,185.70L286.35,186.58L286.02,187.74L285.04,189.24L284.46,189.66L283.83,190.01L281.73,190.00L280.06,189.02L278.91,187.66L278.84,187.35L279.06,187.33L280.73,188.22L281.23,187.52L281.34,188.90L281.55,189.05L281.88,189.07L282.55,187.08L283.22,185.93L284.55,184.78L285.14,184.54L285.71,184.52zM281.87,186.08L281.88,185.59L282.05,184.92L282.88,184.69zM265.84,173.80L265.28,173.95L264.46,174.45L263.85,175.16L263.18,176.48L263.04,177.81L262.64,177.65L262.68,176.31L263.19,175.16L264.29,173.95L265.34,173.61zM285.20,186.03L285.21,187.25L284.87,187.91L283.83,188.86L283.20,188.87L282.86,188.53L282.87,187.24L283.72,185.93L284.15,185.68L284.53,185.68zM286.04,186.19L285.87,187.42L285.53,188.07L284.88,188.91L284.00,189.52L283.32,189.51L284.23,189.09L285.36,187.74L285.85,185.86z"/><g id="Actor_.0"><g style="stroke:#000000;stroke-width:0.176"><path d="M130.57,117.04L130.63,116.99L130.71,116.97L130.80,117.00L130.81,117.11L130.75,117.09L130.74,117.10L130.69,117.10L130.66,117.14L130.64,117.20L130.64,117.27L130.66,117.35L130.71,117.43L130.76,117.50L130.82,117.55L130.87,117.57"/><path d="M130.81,117.11L130.84,117.09L130.84,117.02L130.93,117.10L131.01,117.21L131.07,117.33L131.09,117.42"/><path d="M130.80,117.00L130.91,116.90L135.63,114.19L135.74,114.17"/><path d="M130.84,117.02L130.96,116.93L135.68,114.22L135.74,114.20"/><path d="M130.84,117.09L130.84,117.13L130.90,117.18L130.92,117.21L130.95,117.25L130.99,117.33L131.01,117.41L131.00,117.48"/></g><g style="stroke:#000000;stroke-width:0.529"><path d="M130.78,117.62L130.73,117.58L130.65,117.48L130.58,117.36L130.55,117.24L130.55,117.13L130.57,117.04L130.66,116.95L130.72,116.89L135.44,114.18L135.65,114.14L135.74,114.17L135.74,114.20L135.78,114.19L135.88,114.27L135.95,114.38L136.01,114.49L136.04,114.61L136.03,114.72L136.00,114.80L135.91,114.90L135.85,114.95L133.83,116.11"/></g></g><g id="Actor_.1"><g style="stroke:#000000;stroke-width:0.176"><path d="M27.27,42.96L26.77,43.14L24.95,43.38L23.10,43.27L21.40,42.82L20.05,42.08L19.57,41.55L19.19,41.13L18.92,40.07L19.17,39.30L19.55,39.98L20.67,40.84L22.21,41.44L24.02,41.72L25.53,41.67"/><path d="M19.55,41.77L19.55,41.76"/><path d="M18.98,38.81L19.55,39.84L20.67,40.69L22.21,41.30L24.02,41.58L25.29,41.53"/><path d="M19.16,39.28L19.17,39.30"/><path d="M19.85,38.42L19.84,38.74L20.33,39.61L21.27,40.33L22.58,40.84L24.11,41.08L24.48,41.07"/><path d="M19.86,38.42L19.85,38.75"/></g><g style="stroke:#000000;stroke-width:0.529"><path d="M19.04,37.71L19.02,37.74L18.98,38.81L18.98,38.96L19.16,39.28L19.02,39.67L18.92,40.07L18.98,40.75L19.55,41.76"/><path d="M19.55,41.77L20.67,42.63L22.21,43.23L24.02,43.51L25.88,43.44L27.46,43.07"/><path d="M30.05,37.56L30.00,37.35L29.14,36.39L27.79,35.65L26.10,35.20L25.93,35.19"/></g></g><g id="Actor_.2"><g style="stroke:#000000;stroke-width:0.176"><path d="M19.04,35.93L19.04,34.20L13.76,31.17"/><path d="M19.04,37.43L19.04,36.92L19.04,37.50"/><path d="M19.04,37.93L19.04,37.95"/><path d="M19.04,36.92L19.04,36.72"/><path d="M19.04,34.47L19.04,36.53"/><path d="M126.43,92.84L125.75,92.71L124.96,92.93L124.17,93.46L123.41,94.28L122.81,95.26L122.42,96.31L122.29,97.32L122.42,98.17L122.81,98.78"/><path d="M127.20,94.20L126.95,93.49L126.47,93.06L125.83,92.94L125.48,93.04L125.08,93.15L124.31,93.67L123.60,94.43L123.03,95.36L122.66,96.36L122.54,97.32L122.66,98.13L123.03,98.70L123.60,98.98L124.31,98.94L124.78,98.71L123.52,97.98L123.25,97.56L123.15,96.96L123.25,96.26L123.52,95.52L123.94,94.84L124.46,94.27L125.03,93.89L125.58,93.74L126.05,93.83L127.20,94.48"/><path d="M125.00,98.83L124.73,98.41L124.64,97.81L124.73,97.11L125.00,96.37L125.37,95.77L125.42,95.69L125.94,95.12L126.51,94.74L127.06,94.59L127.54,94.68"/><path d="M125.61,98.34L125.89,98.50L125.87,98.24L125.89,97.94L126.04,97.32L126.34,96.70L126.75,96.15L127.23,95.74L127.67,95.53L127.60,95.33L127.32,95.07L126.92,95.01L126.59,95.10L126.47,95.14L126.02,95.44L125.59,95.90L125.25,96.47L125.03,97.05L124.96,97.63L125.03,98.11L125.25,98.45L125.59,98.63L125.92,98.61L126.04,98.95"/><path d="M125.82,98.47L125.76,98.47"/><path d="M125.89,98.50L125.92,98.61"/><path d="M126.63,96.32L126.75,96.15L126.85,96.07"/><path d="M127.34,95.40L127.33,95.39L127.61,95.56"/><path d="M127.67,95.53L127.71,95.51L128.06,95.49"/><path d="M128.52,95.66L128.53,95.68"/><path d="M132.40,101.73L131.96,101.94L131.55,101.96L131.22,101.80L131.01,101.47L130.93,101.00L131.01,100.45L131.22,99.87L131.55,99.33L131.96,98.89L132.40,98.59L132.84,98.47L133.21,98.54L133.49,98.79L133.63,99.19L133.65,99.44"/><path d="M133.17,98.31L132.76,98.24L132.29,98.37L131.80,98.69L131.36,99.18L131.00,99.77L130.77,100.40L130.69,101.00L130.77,101.51L131.00,101.88"/><path d="M132.32,101.77L132.29,101.79"/><path d="M133.65,99.37L133.65,99.30"/></g><g style="stroke:#000000;stroke-width:0.529"><path d="M19.04,37.93L19.04,36.53L16.91,35.32L13.76,31.17L13.58,30.89L14.11,30.36L14.92,29.81L15.71,29.59L15.85,29.59L16.23,29.75L21.51,32.78L22.38,33.16L126.43,92.84L126.93,93.29L127.20,94.03L127.20,94.48L127.54,94.68L127.89,95.00L128.06,95.49L128.16,95.48L128.52,95.66L133.17,98.31L133.47,98.59L133.63,99.03L133.65,99.30L133.63,99.71L133.49,100.28L133.21,100.85L132.84,101.35L132.40,101.73L131.80,102.02L131.36,102.05L131.00,101.88L126.34,99.22L126.05,98.95L125.94,99.01L125.42,99.04L124.79,98.72L124.15,99.02L123.41,99.07L122.81,98.78L71.24,69.20"/><path d="M19.04,37.95L26.33,42.13L26.33,42.42L33.24,46.38L34.52,47.75L36.11,49.05L70.42,68.72"/></g></g><g id="Actor_.3"><g style="stroke:#000000;stroke-width:0.176"><path d="M19.01,37.88L18.70,38.06L17.81,37.18L12.32,29.96L8.88,27.99"/><path d="M12.32,29.96L14.79,28.55"/><path d="M19.04,41.08L19.04,40.85L19.04,41.07"/><path d="M19.04,39.62L19.04,39.25L19.15,39.31"/><path d="M19.04,39.25L19.04,39.23L19.04,39.57L19.04,39.06L19.04,39.17"/><path d="M19.00,38.17L18.70,38.34L18.99,38.51"/><path d="M18.70,38.34L18.70,38.06"/><path d="M31.79,46.72L27.84,44.36L27.34,43.72L26.94,43.49L26.94,43.78L26.22,43.36"/><path d="M27.34,43.72L27.97,43.36"/><path d="M26.94,43.49L27.58,43.13"/><path d="M27.84,46.15L27.84,44.36"/></g><g style="stroke:#000000;stroke-width:0.529"><path d="M15.61,29.62L14.79,28.55L11.35,26.57L8.88,27.99L17.32,39.07L17.80,39.60L18.32,39.98L18.94,40.34"/><path d="M19.25,41.23L19.04,41.11L19.04,41.08"/><path d="M19.04,40.85L19.04,41.11L19.04,41.07"/><path d="M32.44,45.92L32.53,46.29L31.79,46.72L27.84,46.15L22.94,43.34"/></g></g><g id="Actor_.4"><g style="stroke:#000000;stroke-width:0.176"><path d="M143.70,109.62L143.77,109.85L143.95,110.06L144.05,110.13L144.14,110.16L144.22,110.15L144.28,110.10L144.31,109.95L144.28,109.76L144.14,109.51L144.05,109.42L143.95,109.37L143.85,109.37L143.77,109.41L143.71,109.49L143.70,109.62"/><path d="M266.67,174.28L266.43,173.59L265.97,173.17L265.34,173.06L264.61,173.26L263.86,173.76L263.17,174.51L262.64,175.38L262.26,176.39L262.14,177.32L262.26,178.11L262.62,178.67L263.17,178.94L263.86,178.89L264.40,178.64L263.90,178.67L263.45,178.45L263.16,177.99L263.06,177.35L263.16,176.60L263.45,175.81L263.90,175.07L264.46,174.47L265.07,174.06L265.66,173.90L266.17,173.99L266.54,174.33L266.67,174.70"/><path d="M262.29,178.78L261.90,178.17L261.76,177.32L261.90,176.31L262.29,175.26L262.88,174.28L263.62,173.49L264.22,173.08L264.44,172.93L265.23,172.71L265.91,172.84"/><path d="M266.17,173.99L265.68,173.71L265.17,173.61L264.57,173.78L263.97,174.19L263.41,174.79L262.96,175.53L262.67,176.32L262.57,177.07L262.67,177.71L262.96,178.16L263.45,178.45"/><path d="M264.66,178.54L264.18,178.26L263.94,177.90L263.86,177.39L263.88,177.25L263.94,176.78L264.18,176.15L264.54,175.57L264.98,175.08L265.46,174.76L265.94,174.62L266.35,174.70L266.74,174.92"/><path d="M264.40,178.64L264.44,178.63"/><path d="M270.92,177.32L270.52,177.25L270.04,177.38L269.55,177.70L269.11,178.19L268.75,178.78L268.51,179.41L268.43,180.01L268.51,180.52L268.75,180.88"/><path d="M271.38,178.37L271.25,178.00L271.00,177.77L270.66,177.71L270.27,177.82L269.86,178.09L269.49,178.49L269.19,178.98L269.00,179.51L268.93,180.01L269.00,180.44L269.19,180.74L269.49,180.89L269.86,180.86L270.27,180.67"/></g><g style="stroke:#000000;stroke-width:0.529"><path d="M200.55,143.37L140.82,109.11L140.43,108.50L140.30,107.65L140.43,106.64L140.82,105.59L141.42,104.61L142.16,103.80L142.97,103.26L143.76,103.04L144.44,103.17L265.92,172.85L266.41,173.29L266.67,174.03L266.67,174.70L266.74,174.92L270.92,177.32L271.22,177.59L271.38,178.04L271.38,178.85L271.25,179.36L271.00,179.87L270.66,180.33L270.27,180.67L269.55,181.03L269.11,181.06L268.75,180.88L264.66,178.54L263.63,179.02L262.88,179.07L262.29,178.78L201.52,143.92"/></g></g><g id="Actor_.5"><g style="stroke:#000000;stroke-width:0.176"><path d="M279.25,187.46L280.71,188.29L281.21,187.49L281.55,186.75L281.80,185.97L281.99,184.98L279.89,183.78"/><path d="M280.71,188.29L281.21,188.88L281.55,189.33L281.80,189.72L281.99,190.13"/><path d="M284.56,183.51L284.03,183.99L283.47,184.36L282.90,184.77L282.36,185.34L281.90,186.02L281.55,186.75L281.33,187.49L281.25,188.21L281.33,188.84L281.55,189.33L281.90,189.65L282.46,189.96"/><path d="M281.99,184.98L282.84,184.67L283.47,184.36L284.05,184.12L284.59,184.07L285.05,184.22L285.23,184.32"/><path d="M282.91,189.31L282.68,188.85L282.64,188.23L282.77,187.53L282.85,187.34L282.75,187.88L282.78,188.35L282.96,188.71L283.25,188.90L283.62,188.92L284.04,188.76L284.46,188.44L284.77,188.08L284.84,187.99L285.13,187.46L285.30,186.91L285.33,186.40L285.23,185.98L285.00,185.70L284.66,185.59L284.26,185.66L283.83,185.90L283.44,186.28L283.52,186.16L284.05,185.65L284.60,185.33L285.13,185.24L285.57,185.38L285.88,185.75L286.01,186.29L285.97,186.96L285.74,187.68L285.37,188.38L284.88,188.96L284.33,189.39L283.78,189.60L283.29,189.57L282.91,189.31"/><path d="M283.05,189.41L283.49,189.43L284.04,189.22L284.59,188.80L285.08,188.21L285.46,187.52L285.68,186.80L285.73,186.13L285.59,185.58L285.37,185.31"/><path d="M282.85,187.34L283.08,186.81L283.44,186.28"/></g><g style="stroke:#000000;stroke-width:0.529"><path d="M278.71,186.59L278.80,186.10L279.05,185.32L279.39,184.59L279.89,183.78L280.43,183.29L280.98,182.93L281.61,182.62L282.46,182.31L284.56,183.51L285.06,184.10L285.23,184.32L285.68,184.58L285.75,184.65L286.15,185.12L286.19,185.21L286.37,185.91L286.37,185.99L286.31,186.82L286.03,187.72L285.57,188.58L284.96,189.31L284.27,189.83L284.21,189.87L283.50,190.14L283.41,190.14L282.77,190.11L282.68,190.08L282.46,189.96L281.99,190.13L279.89,188.93L279.39,188.34L279.05,187.90L278.83,187.54"/></g></g><g id="Actor_.6"><g style="stroke:#000000;stroke-width:0.176"><path d="M23.73,35.67L23.82,35.83L24.00,35.96L24.24,36.05L24.51,36.10L24.80,36.09L24.95,36.05"/><path d="M24.11,35.17L23.96,35.28L23.88,35.41L23.88,35.54L23.95,35.67L24.10,35.78L24.29,35.86L24.53,35.90L24.77,35.89L24.99,35.83L25.17,35.74L25.17,35.74L25.28,35.62L25.32,35.49L25.29,35.35L25.18,35.23"/><path d="M25.47,35.61L25.42,35.77L25.37,35.81"/></g><g style="stroke:#000000;stroke-width:0.529"><path d="M24.02,35.22L24.11,35.17L24.31,35.10L24.55,35.06L24.78,35.08L25.00,35.13L25.18,35.23L25.29,35.30L25.43,35.44L25.47,35.61L25.47,35.64"/><path d="M23.73,35.72L23.73,35.67L23.74,35.51L23.81,35.39"/></g></g><g><g/></g><g><g/></g><g><g/></g><g><g><path style="stroke:#000000;stroke-width:0.125;stroke-dasharray:2.0 1.3 0.7 1.3" d="M132.29,100.22L141.04,105.24"/></g></g><g><g/></g><g><g/></g><g><g><path style="stroke:#000000;stroke-width:0.125;stroke-dasharray:2.0 1.3 0.7 1.3" d="M135.96,114.39L144.23,109.64"/></g></g><g><g><path style="stroke:#000000;stroke-width:0.125;stroke-dasharray:2.0 1.3 0.7 1.3" d="M279.39,184.59L270.16,179.30"/></g></g><g id="PMI.0"><g><path style="stroke:#000000;stroke-width:0.125" d="M49.13,104.18L71.99,67.08"/></g><g><path style="fill:#000000" d="M72.74,67.08L72.74,67.00L72.73,66.93L72.71,66.86L72.68,66.79L72.65,66.72L72.61,66.66L72.57,66.60L72.52,66.55L72.47,66.50L72.41,66.45L72.34,66.42L72.28,66.38L72.21,66.36L72.14,66.34L72.06,66.33L71.99,66.33L71.92,66.33L71.84,66.34L71.77,66.36L71.70,66.38L71.64,66.42L71.57,66.45L71.52,66.50L71.46,66.55L71.41,66.60L71.37,66.66L71.33,66.72L71.30,66.79L71.27,66.86L71.26,66.93L71.24,67.00L71.24,67.08L71.24,67.15L71.26,67.22L71.27,67.30L71.30,67.36L71.33,67.43L71.37,67.49L71.41,67.55L71.46,67.61L71.52,67.66L71.57,67.70L71.64,67.74L71.70,67.77L71.77,67.80L71.84,67.81L71.92,67.82L71.99,67.83L72.06,67.82L72.14,67.81L72.21,67.80L72.28,67.77L72.34,67.74L72.41,67.70L72.47,67.66L72.52,67.61L72.57,67.55L72.61,67.49L72.65,67.43L72.68,67.36L72.71,67.30L72.73,67.22L72.74,67.15z"/></g><g><text xml:space="preserve" fill="#000000" stroke-width="0" x="38.14" y="108.64" font-size="3.80" opacity="1.00" font-family="Arial">BPA35383</text></g></g><g><g/><g><text xml:space="preserve" fill="#000000" stroke-width="0" x="4.05" y="6.55" font-size="4.53" opacity="1.00" font-family="Arial" font-weight="bold">BPA8038</text></g></g><g id="PMI.1"><g><path style="stroke:#000000;stroke-width:0.125" d="M105.75,135.12L133.84,116.13"/></g><g><path style="fill:#000000" d="M134.59,116.13L134.59,116.06L134.58,115.99L134.56,115.92L134.54,115.85L134.50,115.78L134.47,115.72L134.42,115.66L134.37,115.60L134.32,115.55L134.26,115.51L134.20,115.47L134.13,115.44L134.06,115.42L133.99,115.40L133.92,115.39L133.84,115.38L133.77,115.39L133.70,115.40L133.62,115.42L133.56,115.44L133.49,115.47L133.43,115.51L133.37,115.55L133.31,115.60L133.26,115.66L133.22,115.72L133.18,115.78L133.15,115.85L133.12,115.92L133.11,115.99L133.10,116.06L133.09,116.13L133.10,116.21L133.11,116.28L133.12,116.35L133.15,116.42L133.18,116.49L133.22,116.55L133.26,116.61L133.31,116.66L133.37,116.71L133.43,116.76L133.49,116.79L133.56,116.83L133.62,116.85L133.70,116.87L133.77,116.88L133.84,116.88L133.92,116.88L133.99,116.87L134.06,116.85L134.13,116.83L134.20,116.79L134.26,116.76L134.32,116.71L134.37,116.66L134.42,116.61L134.47,116.55L134.50,116.49L134.54,116.42L134.56,116.35L134.58,116.28L134.59,116.21z"/></g><g><text xml:space="preserve" fill="#000000" stroke-width="0" x="94.23" y="139.58" font-size="3.78" opacity="1.00" font-family="Arial">ND0654</text></g></g><g id="PMI.2"><g><path style="stroke:#000000;stroke-width:0.125" d="M160.91,166.06L203.72,142.15"/></g><g><path style="fill:#000000" d="M204.47,142.15L204.47,142.07L204.46,142.00L204.44,141.93L204.41,141.86L204.38,141.79L204.34,141.73L204.30,141.67L204.25,141.62L204.20,141.57L204.14,141.52L204.07,141.48L204.01,141.45L203.94,141.43L203.87,141.41L203.79,141.40L203.72,141.40L203.65,141.40L203.57,141.41L203.50,141.43L203.43,141.45L203.37,141.48L203.30,141.52L203.24,141.57L203.19,141.62L203.14,141.67L203.10,141.73L203.06,141.79L203.03,141.86L203.00,141.93L202.99,142.00L202.97,142.07L202.97,142.15L202.97,142.22L202.99,142.29L203.00,142.36L203.03,142.43L203.06,142.50L203.10,142.56L203.14,142.62L203.19,142.68L203.24,142.73L203.30,142.77L203.37,142.81L203.43,142.84L203.50,142.86L203.57,142.88L203.65,142.89L203.72,142.90L203.79,142.89L203.87,142.88L203.94,142.86L204.01,142.84L204.07,142.81L204.14,142.77L204.20,142.73L204.25,142.68L204.30,142.62L204.34,142.56L204.38,142.50L204.41,142.43L204.44,142.36L204.46,142.29L204.47,142.22z"/></g><g><text xml:space="preserve" fill="#000000" stroke-width="0" x="147.34" y="170.52" font-size="3.79" opacity="1.00" font-family="Arial">BPA9170</text></g></g><g id="PMI.3"><g><path style="stroke:#000000;stroke-width:0.125" d="M217.07,198.80L280.55,186.72"/></g><g><path style="fill:#000000" d="M281.30,186.72L281.29,186.65L281.28,186.58L281.26,186.50L281.24,186.44L281.21,186.37L281.17,186.31L281.12,186.25L281.08,186.19L281.02,186.14L280.96,186.10L280.90,186.06L280.83,186.03L280.76,186.00L280.69,185.99L280.62,185.98L280.55,185.97L280.47,185.98L280.40,185.99L280.33,186.00L280.26,186.03L280.19,186.06L280.13,186.10L280.07,186.14L280.01,186.19L279.97,186.25L279.92,186.31L279.88,186.37L279.85,186.44L279.83,186.50L279.81,186.58L279.80,186.65L279.80,186.72L279.80,186.80L279.81,186.87L279.83,186.94L279.85,187.01L279.88,187.08L279.92,187.14L279.97,187.20L280.01,187.25L280.07,187.30L280.13,187.35L280.19,187.38L280.26,187.42L280.33,187.44L280.40,187.46L280.47,187.47L280.55,187.47L280.62,187.47L280.69,187.46L280.76,187.44L280.83,187.42L280.90,187.38L280.96,187.35L281.02,187.30L281.08,187.25L281.12,187.20L281.17,187.14L281.21,187.08L281.24,187.01L281.26,186.94L281.28,186.87L281.29,186.80z"/></g><g><text xml:space="preserve" fill="#000000" stroke-width="0" x="202.44" y="201.63" font-size="3.78" opacity="1.00" font-family="Arial">ND0527</text></g></g><g/><g id="paperID" visibility="hidden" opacity="0.00" transform="scale(0.000100)"><path style="stroke:#000000;stroke-width:0.500;fill:#e6e6e6;fill-rule:evenodd" d="M-2000.00,-2000.00L2297.00,-2000.00L2297.00,2210.00L-2000.00,2210.00zM0.00,0.00L297.00,0.00L297.00,210.00L0.00,210.00z"/><path style="fill:#000000;fill-opacity:0.118" d="M3.00,210.00L297.00,210.00L297.00,3.00L300.00,3.00L300.00,213.00L3.00,213.00z"/></g><g id="hotspot.0" onmouseover="ShowHotSpot(evt,'0')" onmouseout="HideHotSpot(evt,'0')" onmousemove="ShowToolTip(evt,'0',&quot;Hotspot 1&quot;)" opacity="0"><a xlink:href=".\BPA35383.svg"><path style="fill:#ff8000;fill-rule:evenodd" d="M14.69,28.50L15.50,29.51L16.16,29.67L20.13,31.99L22.44,33.15L25.91,35.14L27.24,35.47L29.23,36.46L30.23,37.60L126.71,93.02L127.36,94.53L128.02,95.35L132.98,98.17L133.64,98.99L133.48,100.38L132.97,101.20L131.94,102.00L131.31,101.99L126.03,98.99L125.03,98.83L123.38,99.02L71.25,69.20L70.89,69.21L49.23,105.19L49.03,105.19L49.06,104.85L70.62,69.10L70.62,68.88L35.86,48.85L33.55,46.70L32.68,46.03L32.51,46.04L32.52,46.19L32.00,46.56L30.88,46.55L27.73,46.06L23.11,43.40L20.95,42.75L19.79,41.92L19.09,41.13L18.99,40.41L17.66,39.42L16.17,37.60L8.98,28.00L9.87,27.41L11.14,26.68L11.53,26.68zM56.22,107.09L56.15,108.10L56.37,108.42L56.38,109.33L55.99,109.60L54.88,109.59L54.71,109.42L54.71,108.80L54.90,108.74L55.22,109.27L55.64,109.27L55.89,108.98L55.90,108.58L55.31,108.30L55.31,107.96L55.70,107.81L55.71,107.26L55.32,107.24L55.03,107.67L54.66,107.67L54.69,107.15L55.15,106.76L55.71,106.77zM53.89,106.94L54.23,107.44L53.99,108.09L54.22,108.42L54.22,109.32L54.00,109.59L52.73,109.59L52.56,109.42L52.53,108.27L52.73,108.09L52.59,107.94L52.49,107.27L53.17,106.76L53.55,106.76zM51.91,107.09L51.85,108.10L52.07,108.42L52.08,109.33L51.69,109.60L50.58,109.59L50.41,109.42L50.41,108.80L50.59,108.74L50.92,109.27L51.36,109.29L51.57,109.14L51.59,108.58L51.00,108.30L51.01,107.96L51.40,107.81L51.40,107.26L51.01,107.24L50.72,107.67L50.35,107.67L50.39,107.15L50.84,106.76L51.41,106.77zM47.44,106.94L47.78,107.44L47.54,108.09L47.74,108.27L47.77,109.32L47.54,109.59L46.27,109.59L46.10,109.42L46.11,108.80L46.29,108.75L46.76,109.28L47.06,109.29L47.26,109.15L47.29,108.58L46.70,108.30L46.70,107.95L47.30,107.67L47.30,107.43L47.11,107.25L46.71,107.25L46.42,107.67L46.05,107.67L46.10,107.16L46.72,106.76L47.10,106.76zM42.80,106.94L43.14,107.26L43.14,108.00L42.76,108.45L41.41,108.59L41.30,109.66L40.93,109.66L40.92,106.77L42.30,106.77zM40.34,107.09L40.27,108.10L40.48,108.42L40.49,109.16L40.11,109.61L38.44,109.65L38.44,106.77L39.66,106.77zM45.79,109.27L45.78,109.65L45.40,109.66L45.11,108.93L44.05,108.91L43.74,109.60L43.24,109.65L43.46,108.81L44.24,106.78L44.78,106.78zM49.94,107.15L48.85,107.28L48.85,107.65L49.42,107.77L49.93,108.09L49.93,109.33L49.54,109.60L48.42,109.59L48.25,109.42L48.20,108.92L48.57,108.92L48.91,109.28L49.41,109.15L49.44,108.41L49.27,108.24L48.20,108.33L48.36,106.94L49.94,106.96zM53.75,107.43L53.68,107.77L53.04,107.77L53.04,107.32L53.57,107.25zM42.65,107.61L42.60,107.93L41.41,108.00L41.41,107.27L42.31,107.26zM39.85,107.43L39.84,107.82L38.93,107.83L38.93,107.27L39.67,107.25zM44.68,107.85L44.79,108.32L44.22,108.27L44.42,107.75zM53.74,108.58L53.72,109.15L53.51,109.29L53.21,109.28L52.87,108.94L52.86,108.64L53.00,108.43L53.57,108.41zM39.99,108.61L39.94,109.10L38.93,109.16L38.93,108.42L39.67,108.42z"/></a></g></g></svg>
