<?xml version="1.0" encoding="UTF-8" standalone="no"?>
<svg xmlns="http://www.w3.org/2000/svg" xmlns:xlink="http://www.w3.org/1999/xlink" width="297.000mm" height="210.000mm" viewBox="0.000000 0.000000 297.000000 210.000000" stroke-linejoin="round" stroke-linecap="round" fill="none" fill-rule="evenodd"><desc>Composer Export</desc><script type="text/ecmascript"><![CDATA[
if(typeof(top) != "undefined")
{
	top.ShowPaper = ShowPaper;
}
function ShowPaper()
{
  var svgDocument = getDocument();
  var paper = svgDocument.getElementById("paperID");
  if(paper)
  {
    paper.setAttribute("transform","scale(1)");
    paper.setAttribute("opacity","1");
    paper.setAttribute("visibility","visible");
  }
  var svg = svgDocument.getRootElement();
  if(svg)
  {
    svg.setAttribute("width","307.000mm");
    svg.setAttribute("height","220.000mm");
    svg.setAttribute("viewBox","-5.000000 -5.000000 307.000000 220.000000");
  }
}
]]></script><defs/><g><path style="fill:#000000;fill-opacity:0.098;fill-rule:evenodd" d="M219.61,31.28L219.22,31.43L218.47,31.48L218.53,30.93L219.57,30.69L219.83,30.34zM214.39,34.71L214.70,34.30L216.37,33.27L217.22,33.04L219.45,33.03L219.45,37.61L217.09,37.56L215.31,36.81L214.39,35.76zM219.86,39.09L219.56,39.89L218.46,39.94L218.47,39.55L219.62,39.19L219.83,39.00zM217.24,41.55L217.22,40.24L220.29,40.07L222.46,39.72L224.95,38.61L226.23,37.54L227.14,35.38L227.20,35.38L227.02,37.80L226.30,39.05L225.22,39.95L225.03,47.34L224.67,48.60L224.06,49.24L222.69,50.22L221.60,50.57L220.11,50.88L217.28,50.88L216.19,50.71L214.91,50.33L214.88,50.14L216.55,50.53L217.47,50.59L217.45,41.71zM22.23,43.48L22.45,43.49L22.67,43.86L22.67,44.26L21.86,44.01L21.18,44.81L21.19,45.29L21.95,45.82L21.53,46.03L20.79,46.09L20.82,44.58L21.59,43.70zM24.65,45.63L24.65,46.08L24.21,46.74L23.47,46.79L23.49,46.40L24.48,45.46zM36.54,51.05L36.53,52.21L36.11,53.05L34.48,54.84L33.63,54.86L30.23,52.86L29.25,52.86L28.24,53.29L26.73,55.02L26.07,56.88L26.07,58.45L39.24,66.08L39.35,64.76L39.96,64.47L40.51,63.04L41.74,61.56L42.66,61.02L42.64,60.49L43.19,60.42L43.95,60.76L44.46,61.69L44.45,63.20L44.28,63.92L43.68,65.12L42.49,66.46L41.16,67.11L40.30,67.11L27.88,60.06L26.44,59.88L25.00,58.98L24.59,58.24L25.55,58.69L25.71,56.88L26.07,55.81L26.99,54.20L27.63,53.41L29.31,52.38L35.80,50.50zM178.16,55.62L178.47,55.02L179.92,54.13L181.18,53.77L183.23,53.76L183.22,58.33L183.00,58.49L180.87,58.28L179.80,57.91L178.91,57.36L178.36,56.82L178.16,56.30zM189.63,56.52L189.64,56.12L190.00,55.91L190.79,55.81L191.17,55.21L190.98,58.16L190.78,58.50L190.63,59.43L188.93,60.80L188.81,68.24L188.58,69.10L187.48,70.33L186.10,71.12L184.24,71.61L180.69,71.61L178.69,71.04L178.66,70.87L180.15,71.26L181.25,71.31L181.42,68.06L181.40,62.43L181.20,62.28L181.17,60.97L184.61,60.80L187.19,60.13L188.65,59.43L190.08,58.34L190.25,57.61L190.62,57.26L190.63,56.48zM176.15,55.94L175.61,56.48L174.86,56.53L174.92,55.98L175.95,55.74L176.21,55.39zM265.22,60.07L265.23,61.22L264.45,62.24L263.71,62.80L263.35,62.79L263.83,62.00L263.95,61.95L263.96,61.14L263.83,62.00L263.75,60.61L263.39,60.27L263.43,59.72L263.15,58.98L264.33,58.29zM263.07,60.78L263.00,61.88L259.23,64.05L258.49,64.05L259.11,63.75L259.24,63.15L259.47,62.79L259.39,62.25L262.47,60.41L262.87,60.42zM257.29,62.75L257.50,63.39L255.60,64.57L254.76,64.59L254.35,64.22L255.48,63.91L255.78,63.30L257.13,62.58zM280.18,68.36L280.37,69.69L280.00,70.41L278.83,71.43L278.50,71.44L278.98,70.47L279.16,70.10L279.11,69.98L278.98,70.47L278.87,70.42L278.93,69.48L278.76,69.49L278.37,68.19L278.37,67.53L279.47,66.93zM270.56,66.93L274.00,64.92L274.41,64.92L274.43,65.74L270.57,68.02L269.90,68.02L269.49,67.64L270.62,67.28zM57.64,68.16L58.16,69.08L58.15,70.60L57.97,69.45L55.92,67.99L57.09,67.83zM278.21,69.62L278.21,70.23L278.03,70.60L275.60,71.95L274.11,72.63L274.39,71.80L274.58,71.60L274.59,70.77L277.60,69.06L277.85,69.06zM274.03,72.75L273.62,72.69L274.11,72.63zM51.86,73.77L52.73,73.76L52.93,74.30L53.63,74.86L55.08,74.84L55.05,75.01L53.27,75.04L51.50,74.11L50.02,73.06L49.81,72.66L50.01,72.67zM68.62,74.45L69.15,75.03L69.39,75.87L68.97,75.75L68.43,75.21L67.28,74.48L68.44,74.32zM141.47,75.49L141.17,76.29L140.07,76.34L140.07,75.95L141.22,75.59L141.44,75.40zM69.50,76.91L69.39,75.87L69.50,75.94zM88.97,78.82L89.15,79.00L89.82,79.01L91.31,77.61L91.62,77.15L91.84,77.17L91.85,77.98L91.48,79.22L91.48,80.81L92.70,80.81L93.69,80.25L93.83,80.39L92.38,83.37L92.38,84.24L92.57,84.58L93.84,84.96L93.86,85.36L92.31,86.90L91.66,88.24L91.66,89.10L92.22,89.98L92.23,90.60L90.53,91.43L89.49,92.56L89.33,94.74L88.96,95.64L88.07,95.39L87.28,95.39L86.38,96.11L85.54,98.34L85.12,99.00L84.48,99.00L82.94,98.10L81.14,100.45L80.80,100.51L80.87,98.45L80.16,97.92L80.06,97.92L77.89,99.55L77.55,99.61L77.62,99.07L78.34,97.63L78.35,96.46L77.80,96.10L77.19,96.11L75.56,96.54L75.62,96.19L77.07,94.37L77.44,93.48L77.43,92.69L75.38,91.84L75.43,91.51L77.46,90.07L78.16,88.80L78.17,87.99L75.98,86.76L75.25,85.84L75.26,85.48L76.52,86.22L77.05,86.26L77.21,86.04L79.35,85.48L80.33,84.29L80.32,81.20L80.67,81.14L81.57,81.53L82.62,81.53L83.38,80.86L83.75,80.14L84.28,77.59L84.48,77.54L85.55,79.17L86.40,79.19L87.16,78.51L88.37,76.25L88.60,76.27zM63.20,80.28L63.68,80.28L63.92,79.34L64.08,80.45L64.82,81.34L66.44,81.32L66.41,81.50L65.47,81.71L64.09,81.35L61.41,79.71L61.17,79.14zM135.98,79.58L137.80,78.33L139.37,77.92L141.06,77.91L141.05,81.76L140.88,82.67L139.25,82.60L137.80,82.24L136.56,81.51L135.99,80.81zM141.43,84.27L140.99,84.94L140.07,85.00L140.14,84.46L141.17,84.21L141.43,83.87zM141.35,85.12L143.71,84.78L146.04,83.87L147.56,82.86L148.81,80.43L148.63,82.85L147.83,84.03L146.82,84.82L146.64,92.21L146.28,93.47L145.56,94.38L144.32,95.12L143.03,95.63L140.81,95.94L139.79,95.94L138.16,95.76L136.48,95.24L136.53,95.04L139.07,95.65L139.06,86.75L138.64,86.57L138.83,85.11zM218.36,90.57L218.73,90.51L218.73,91.15L218.36,91.09zM74.19,91.43L74.93,91.96L74.86,92.71L74.20,92.69L73.29,91.62L73.08,91.25L73.05,90.88L73.27,90.86zM219.81,91.78L219.80,98.70L219.59,98.84L217.82,98.82L215.65,98.47L214.24,97.90L212.97,97.00L212.42,96.29L212.23,95.58L212.23,94.54L212.55,93.78L213.24,93.40L214.88,92.33L216.86,91.79L218.38,91.63zM224.86,97.74L223.40,97.81L223.34,92.69L235.79,92.51L237.59,92.34L239.27,91.85L241.53,90.69L259.05,80.58L259.27,80.60L259.29,89.17L243.97,98.00L239.21,100.63L237.05,101.16L226.41,101.34L226.30,107.72L225.87,108.36L190.38,128.75L189.47,128.92L188.80,128.93L188.74,120.26L190.02,120.10L192.51,118.81L226.04,99.53L226.29,98.99L225.96,98.25zM218.74,99.61L218.29,99.61L218.29,99.17L218.74,99.17zM99.76,100.48L99.92,100.10L100.61,99.70L101.70,99.00L103.33,98.64L104.83,98.63L104.83,103.39L102.84,103.33L101.41,102.96L100.15,102.05L99.77,101.35zM111.23,101.40L111.24,101.00L112.51,100.61L112.78,100.27L112.53,103.33L112.22,104.29L110.60,105.73L110.41,113.12L110.24,113.84L109.53,114.94L108.01,115.94L106.40,116.49L104.95,116.66L103.20,116.66L101.75,116.49L100.47,116.14L100.22,115.79L101.39,116.13L102.85,116.37L102.83,107.49L102.62,107.33L102.64,106.06L102.80,105.84L105.13,105.85L107.48,105.50L109.87,104.65L111.52,103.41L112.23,102.13L112.23,101.52zM97.82,100.67L97.38,101.34L96.27,101.39L96.28,101.00L97.55,100.61L97.82,100.27zM164.76,107.11L165.50,106.21L166.40,105.85L167.91,105.84L167.91,108.62L166.09,108.56L165.04,107.82zM189.56,116.07L189.45,115.78L189.84,115.54L190.08,115.57L190.08,116.19zM175.94,115.59L176.32,114.51L177.12,114.23L177.99,113.47L179.38,112.88L180.82,112.52L183.59,112.51L183.59,120.87L181.36,120.99L179.55,121.34L178.18,121.95L177.99,130.24L177.82,130.96L177.45,131.50L176.39,132.42L154.41,145.03L153.07,145.68L151.63,146.04L147.83,146.39L147.74,153.14L114.12,172.51L111.63,173.80L110.35,173.86L110.35,165.31L112.22,164.84L147.47,144.59L147.73,144.31L147.73,143.50L147.18,142.97L146.64,142.79L144.95,142.68L145.01,137.62L151.26,137.39L153.13,136.91L154.59,136.20L176.66,123.50L177.77,122.26L177.99,121.41L177.99,118.65L176.74,117.73L176.20,117.02zM174.50,115.93L174.88,115.54L175.11,115.56L175.12,116.19L174.73,116.15zM154.21,117.27L152.72,117.58L150.35,117.56L143.21,121.59L143.03,123.57L137.20,126.92L135.94,127.11L134.69,127.85L134.02,127.85L128.09,124.40L127.71,124.04L127.70,123.38L128.19,122.79L136.12,118.27L137.38,118.09L144.47,114.01L144.61,113.43L152.88,108.72L154.21,108.72zM122.67,130.96L123.69,130.18L124.23,129.99L125.56,129.99L125.56,132.95L124.46,132.89L123.39,132.52L122.86,132.15L122.66,131.81zM140.34,136.01L139.90,136.01L139.90,135.57L140.34,135.57zM141.30,136.78L141.42,143.76L138.53,143.70L136.36,143.16L135.09,142.44L134.03,141.35L133.84,140.64L133.84,139.60L134.12,138.78L134.76,138.57L135.64,137.80L136.85,137.21L137.92,136.84L139.37,136.67L141.24,136.66zM139.90,144.24L140.35,144.06L140.33,144.67L139.96,144.61zM105.18,157.58L105.19,165.93L102.61,166.04L101.70,166.22L99.72,166.84L99.61,163.69L98.33,162.62L97.78,161.91L97.55,160.46L98.08,159.38L98.45,159.38L99.54,158.47L100.62,157.93L102.07,157.57L104.65,157.39zM111.12,160.69L111.69,160.63L111.69,161.06L111.12,161.00zM96.16,160.69L96.73,160.63L96.73,161.06L96.16,161.00zM59.08,176.31L59.08,176.56L58.33,177.09L57.74,177.28L57.59,177.06L57.60,176.00L58.52,175.95zM55.85,177.57L55.82,177.80L55.09,178.19L55.02,177.38L55.65,177.37zM70.96,181.08L70.23,181.62L70.16,180.81L70.79,180.80zM74.20,185.23L73.21,185.87L72.75,185.89L72.74,184.65L73.66,184.59zM39.77,188.04L40.07,188.05L42.97,186.37L43.19,186.39L43.20,187.74L42.94,188.02L40.43,189.48L40.48,189.91L39.52,191.26L38.44,192.02L38.07,192.05L38.07,191.85L38.68,191.33L38.82,190.93L39.24,190.54L38.50,189.12L38.25,188.02L39.23,187.35L39.44,187.30zM50.71,192.72L50.33,192.78L50.39,192.40L50.77,192.34zM99.60,179.44L99.37,180.29L98.36,181.44L78.51,192.97L78.46,184.25L98.00,172.97L99.06,172.05L99.42,171.51L99.60,170.89zM55.27,191.51L51.60,193.64L51.24,193.63L51.49,193.32L51.61,192.54L55.01,190.53L55.28,190.19zM58.35,195.21L58.27,196.50L55.57,198.13L55.45,198.73L54.66,199.91L53.57,200.64L52.89,200.66L52.68,200.45L53.59,200.28L53.97,199.59L54.18,199.42L54.21,199.03L53.63,197.95L53.46,197.23L53.40,196.50L54.32,195.93L54.53,195.94L54.86,196.75L55.18,196.69L57.91,195.04L58.16,195.02zM218.54,41.87L218.54,43.21L218.19,43.16L218.19,41.67zM35.80,51.94L35.63,52.75L35.20,53.22L34.48,53.30L34.53,52.19L35.08,51.64L35.45,51.58zM263.95,61.95L263.83,62.00L263.96,61.14zM279.16,70.10L278.98,70.47L279.11,69.98zM86.99,85.48L87.72,86.01L87.71,87.89L87.47,88.55L86.63,90.23L85.47,91.41L84.23,92.16L83.01,92.16L82.49,91.78L82.11,91.08L82.11,89.14L82.78,87.29L83.94,85.92L85.13,84.95L85.75,84.77zM140.14,88.09L139.74,88.09L139.74,86.72L140.14,86.72zM143.23,118.27L143.22,120.15L142.98,120.81L141.88,122.60L140.46,123.70L138.87,123.70L138.33,123.17L138.10,121.72L138.65,119.90L139.71,118.27L140.63,117.56L141.36,117.18L141.59,117.19z"/><g id="Actor_.0"><g style="stroke:#000000;stroke-width:0.176"><path d="M141.16,76.42L141.16,75.89L140.56,75.90L139.97,76.07L139.97,76.60L140.56,76.51L140.56,76.51"/><path d="M139.97,76.60L139.30,76.22"/><path d="M140.92,76.49L140.83,76.53L140.51,76.61L140.15,76.61L140.03,76.59"/><path d="M139.65,76.49L139.82,76.56L139.92,76.57"/><path d="M139.10,75.57L139.53,75.74L139.75,75.84L140.01,75.90L140.29,75.92L140.56,75.90L140.82,75.84L141.04,75.74L141.21,75.61L141.32,75.47L141.35,75.31L141.32,75.15L141.21,75.00"/><path d="M139.68,74.81L139.53,74.88L139.36,75.01L139.26,75.15L139.22,75.31L139.26,75.47L139.36,75.62L139.53,75.74L139.97,76.07"/><path d="M141.02,76.44L140.56,76.51"/><path d="M141.16,75.89L141.32,75.47L141.48,75.20"/><path d="M141.04,74.88L141.04,74.88"/><path d="M140.76,74.76L140.56,74.72L140.43,74.71"/><path d="M141.35,76.00L141.22,76.29"/><path d="M141.25,75.04L141.25,75.04"/></g><g style="stroke:#000000;stroke-width:0.529"><path d="M141.04,74.88L140.82,74.78L140.76,74.76L140.60,74.71L140.43,74.71L140.28,74.70L140.01,74.72L139.76,74.78L139.68,74.81L139.42,74.89L139.26,75.15L139.10,75.57L139.10,76.10L139.30,76.22L139.33,76.28L139.53,76.44L139.65,76.49"/><path d="M141.25,75.04L141.48,75.20L141.48,75.74L141.35,76.00L141.35,76.03L141.28,76.23L141.22,76.29L141.16,76.42L141.02,76.44L140.92,76.49"/><path d="M141.25,75.04L141.21,75.00L141.04,74.88"/></g></g><g id="Actor_.1"><g style="stroke:#000000;stroke-width:0.176"><path d="M173.98,56.24L174.06,56.86L174.68,58.14L175.89,59.28L177.59,60.19L178.62,60.50L179.65,60.80L181.93,61.08L184.24,60.98L186.43,60.54L188.33,59.77L189.80,58.74L190.72,57.51L191.04,56.19"/><path d="M190.79,56.49L190.58,57.37L189.67,58.57L188.23,59.58L186.36,60.34L184.21,60.78L181.94,60.87L179.70,60.60L179.32,60.49L177.67,60.00L176.01,59.11L174.82,57.99L174.20,56.73L174.17,56.41"/><path d="M174.48,54.86L174.82,54.16L176.01,53.04"/><path d="M188.88,60.92L187.34,61.75L185.31,62.35L183.08,62.61L180.80,62.53L178.65,62.09L176.79,61.33L176.69,61.27L176.11,60.87"/><path d="M176.69,61.27L178.58,62.04L180.44,62.42L180.77,62.49L183.09,62.58L185.36,62.31L186.05,62.10L187.43,61.69L189.12,60.78"/><path d="M178.20,56.49L178.08,56.07L178.32,55.25L179.01,54.51L180.08,53.94L181.42,53.61L182.87,53.54L184.29,53.74L185.51,54.20L186.40,54.86L186.88,55.65L186.88,56.49L186.40,57.28L185.51,57.94L184.29,58.40L182.87,58.60L181.42,58.54L180.08,58.20L179.01,57.63L178.32,56.90L178.20,56.49"/><path d="M179.12,57.69L178.46,56.99L178.23,56.19L178.46,55.40L179.13,54.69L180.17,54.14L181.46,53.81L182.86,53.75L184.23,53.95L185.41,54.39L186.27,55.03L186.73,55.79L186.73,56.60L186.27,57.36L185.47,57.96"/><path d="M190.60,54.89L190.58,54.78L189.67,53.57L188.23,52.56"/><path d="M188.90,67.96L188.90,67.97"/></g><g style="stroke:#000000;stroke-width:0.529"><path d="M173.98,56.24L173.98,57.70L174.29,59.02L175.22,60.24L176.11,60.87L176.11,67.97L176.42,69.11L176.52,69.41L177.42,70.42L178.81,71.22L180.56,71.73L182.51,71.91L184.45,71.73L186.21,71.22L187.60,70.42L188.49,69.41L188.59,69.11L188.90,67.97"/><path d="M187.03,52.07L186.36,51.80L184.21,51.37L181.94,51.28L179.70,51.54L177.67,52.14L176.01,53.04L175.89,53.11L174.68,54.24L174.37,54.90"/><path d="M187.98,52.46L188.23,52.56L188.33,52.62L189.80,53.65L190.72,54.87L190.74,54.95"/><path d="M188.90,67.96L188.88,60.92L189.01,60.85L189.12,60.78L190.33,59.65L190.96,58.36L191.04,56.19L191.02,56.13"/></g></g><g id="Actor_.2"><g style="stroke:#000000;stroke-width:0.176"><path d="M131.78,80.75L132.25,82.05L132.78,82.64L133.32,83.23L134.90,84.21L136.89,84.90L139.12,85.26L140.29,85.30L141.45,85.26L143.68,84.90L145.67,84.21L147.25,83.23L147.79,82.64L148.32,82.05L148.80,80.75"/><path d="M139.71,85.07L139.14,85.05L136.95,84.70L135.00,84.02L133.44,83.06L132.39,81.90L131.92,80.62L132.08,79.31L132.85,78.08L134.16,77.01"/><path d="M134.49,85.46L134.05,85.25L134.16,85.32L135.93,86.14L138.03,86.66L140.29,86.84L142.55,86.66L144.64,86.14L146.41,85.32L146.52,85.25L144.72,86.09L144.58,86.13L142.59,86.62L140.29,86.81L137.98,86.62L135.85,86.09L134.49,85.46"/><path d="M134.05,85.25L133.90,85.13"/><path d="M135.99,80.91L136.58,81.68L137.57,82.29L138.85,82.69L140.29,82.83L141.72,82.69L143.01,82.29L144.00,81.68L144.22,81.39L144.58,80.91L144.70,80.08L144.34,79.27L143.55,78.57L142.39,78.05L141.02,77.78L139.56,77.78L138.18,78.05L137.03,78.57L136.23,79.27L135.87,80.08L135.99,80.91"/><path d="M137.57,82.30L136.70,81.75L136.14,81.01L136.02,80.21L136.37,79.43L137.14,78.75L138.25,78.25L139.58,77.99L140.99,77.99L142.32,78.25L143.44,78.75L144.21,79.43L144.55,80.21L144.44,81.01L143.87,81.75L143.00,82.30"/><path d="M146.97,77.46L147.73,78.08L148.49,79.31L148.65,80.62L148.18,81.90L147.13,83.06L145.58,84.02L143.63,84.70L141.43,85.05L140.88,85.07"/><path d="M146.52,85.25L146.68,85.13"/></g><g style="stroke:#000000;stroke-width:0.529"><path d="M146.98,77.44L147.86,78.16L148.64,79.42L148.80,80.75L148.80,81.58L148.64,82.91L147.86,84.16L146.68,85.13L146.68,92.19L146.37,93.32L146.27,93.63L145.38,94.64L143.98,95.44L142.23,95.95L140.29,96.13L138.34,95.95L136.59,95.44L135.20,94.64L134.30,93.63L134.20,93.32L133.89,92.19L133.90,85.13L132.71,84.16L131.93,82.91L131.78,81.58L131.78,80.75L131.93,79.42L132.71,78.16L134.05,77.07L134.16,77.01L135.93,76.18L138.03,75.66L139.10,75.58"/><path d="M146.19,76.90L144.64,76.18L142.55,75.66L141.48,75.58"/></g></g><g id="Actor_.3"><g style="stroke:#000000;stroke-width:0.176"><path d="M217.51,30.60L217.94,30.77L218.38,31.09L218.38,31.63L218.97,31.54L218.97,31.54"/><path d="M218.06,31.51L218.23,31.58L218.33,31.60L217.71,31.24"/><path d="M219.33,31.52L219.24,31.56L218.92,31.63L218.57,31.64L218.44,31.62"/><path d="M218.38,31.63L218.33,31.60"/><path d="M217.94,30.77L217.78,30.64L217.67,30.49L217.63,30.33L217.67,30.18L217.77,30.03L217.94,29.90L218.09,29.84"/><path d="M217.94,30.77L218.16,30.86L218.42,30.93L218.70,30.95L218.97,30.93L219.57,30.91L219.57,31.45"/><path d="M218.38,31.09L218.97,30.93"/><path d="M218.42,29.74L218.42,29.74"/><path d="M218.97,31.54L218.97,31.54"/><path d="M218.97,31.54L219.43,31.47"/><path d="M218.97,30.93L219.23,30.87L219.45,30.77L219.62,30.64L219.73,30.49L219.76,30.34L219.73,30.18L219.62,30.03"/><path d="M219.57,30.91L219.73,30.49L219.89,30.23"/><path d="M219.76,31.03L219.63,31.32"/><path d="M219.45,29.90L219.45,29.90"/><path d="M219.66,30.06L219.66,30.06"/><path d="M219.17,29.79L218.97,29.74L218.85,29.73"/></g><g style="stroke:#000000;stroke-width:0.529"><path d="M219.45,29.90L219.23,29.81L219.17,29.79L219.02,29.73L218.85,29.73L218.69,29.72L218.42,29.74L218.17,29.80L218.09,29.84L217.83,29.91L217.67,30.18L217.51,30.60L217.51,31.13L217.71,31.24L217.74,31.30L217.94,31.47L218.06,31.51"/><path d="M219.66,30.06L219.89,30.23L219.89,30.76L219.76,31.03L219.76,31.06L219.69,31.26L219.63,31.32L219.57,31.45L219.43,31.47L219.33,31.52"/><path d="M219.45,29.90L219.62,30.03L219.66,30.06"/></g></g><g id="Actor_.4"><g style="stroke:#000000;stroke-width:0.176"><path d="M28.79,53.17L28.37,53.37L27.52,54.10L26.80,55.07L26.26,56.17L25.98,57.28L25.98,57.97"/><path d="M43.64,60.63L42.91,60.50L42.07,60.73L41.21,61.31L40.41,62.17L39.98,62.89L39.77,63.22L39.36,64.34L39.22,65.42L39.36,66.33L39.77,66.98"/><path d="M42.35,66.67L41.58,67.03L40.88,67.08L40.31,66.80L39.97,66.26L39.95,66.23L39.82,65.42L39.95,64.47L40.31,63.47L40.88,62.54L41.58,61.78L42.35,61.27L43.09,61.06L43.74,61.18L44.21,61.61L44.46,62.31"/></g><g style="stroke:#000000;stroke-width:0.529"><path d="M25.98,57.97L25.98,58.29L26.26,59.08L26.80,59.57L39.77,66.98L40.41,67.29L41.21,67.24L42.07,66.83L42.35,66.67L43.09,66.02L43.74,65.16L44.21,64.19L44.46,63.20L44.46,62.31L44.46,61.91L44.18,61.12L43.64,60.63L39.74,58.40"/><path d="M38.86,57.90L30.67,53.22L30.03,52.91L29.23,52.96L28.79,53.17"/></g></g><g id="Actor_.5"><g style="stroke:#000000;stroke-width:0.176"><path d="M257.12,62.29L257.15,61.91L257.29,61.63L257.52,61.47L257.82,61.45L258.16,61.58L258.50,61.84L258.80,62.20L259.03,62.63L259.17,63.07L259.20,63.48L259.11,63.82L258.92,64.04L258.89,64.05L258.65,64.13L258.33,64.07"/><path d="M257.58,61.16L257.93,61.15L258.33,61.29L258.72,61.59L259.07,62.01L259.34,62.51L259.49,63.02L259.53,63.50L259.43,63.89L259.21,64.15"/><path d="M258.52,64.18L258.52,64.18"/><path d="M260.10,59.71L260.13,59.69L260.17,59.10L260.26,58.93"/><path d="M260.13,59.69L260.95,59.22L260.98,59.20"/><path d="M261.00,57.86L262.05,58.46L261.46,58.24L260.94,58.26L260.82,58.33L260.54,58.52"/><path d="M260.82,58.33L261.34,58.31L261.93,58.53L262.52,58.98L263.04,59.61L263.44,60.35L263.68,61.12L263.73,61.83L263.59,62.42L263.26,62.81L262.79,62.96L262.50,62.91"/><path d="M262.61,62.19L262.58,62.20L261.82,62.65"/><path d="M264.32,58.36L263.09,59.06L262.05,58.46L262.64,58.91L263.16,59.54L263.56,60.28L263.62,60.41L263.80,61.05L263.85,61.76L263.71,62.35L263.62,62.50L263.09,63.25"/><path d="M263.26,62.81L263.38,62.74L263.62,62.50L264.14,61.75L263.09,59.06"/><path d="M264.14,61.75L265.36,61.05"/><path d="M265.00,59.61L265.00,59.61"/></g><g style="stroke:#000000;stroke-width:0.529"><path d="M265.00,59.61L264.73,59.01L264.32,58.36L263.88,57.96L263.44,57.66L262.92,57.41L262.23,57.16L261.00,57.86L260.54,58.52L260.41,58.61L260.26,58.93L259.96,59.36L260.10,59.71L257.58,61.16L257.32,61.35L257.16,61.68L257.12,62.12L257.12,62.29L257.21,62.72L257.39,63.16L257.66,63.56L257.99,63.88L258.52,64.18L258.90,64.25L259.21,64.15L261.82,62.65L261.93,62.72L262.23,62.86L262.50,62.91L263.09,63.25L264.32,62.55L264.73,62.07L265.00,61.71L265.21,61.38L265.36,61.05L265.21,60.25L265.00,59.61"/></g></g><g id="Actor_.6"><g style="stroke:#000000;stroke-width:0.176"><path d="M95.57,101.22L95.65,101.84L96.27,103.12L97.48,104.26L99.18,105.17L100.21,105.47L101.24,105.78L103.51,106.05L105.83,105.96L108.02,105.51L109.92,104.74L111.38,103.71L112.31,102.49L112.63,101.17"/><path d="M112.38,101.47L112.17,102.34L111.26,103.54L109.82,104.56L107.95,105.31L106.47,105.62L105.80,105.75L103.52,105.84L101.29,105.58L101.24,105.56L99.26,104.97L97.60,104.08L96.41,102.96L95.79,101.70L95.76,101.38"/><path d="M96.07,99.83L96.41,99.13L97.60,98.01"/><path d="M97.70,105.84L98.27,106.25L98.38,106.31L100.24,107.06L102.39,107.50L104.67,107.59L106.90,107.32L108.93,106.72L110.47,105.90"/><path d="M98.27,106.25L100.17,107.02L101.99,107.39L102.36,107.46L104.68,107.55L106.95,107.28L107.59,107.09L109.02,106.67L110.71,105.76"/><path d="M99.75,101.32L99.67,101.05L99.91,100.22L100.60,99.49L101.67,98.92L103.01,98.58L104.46,98.51L105.88,98.72L107.10,99.18L107.99,99.84L108.47,100.63L108.47,101.46L107.99,102.26L107.10,102.92L105.88,103.37L104.46,103.58L103.01,103.51L101.67,103.17L100.60,102.61L99.91,101.87L99.75,101.32"/><path d="M107.06,102.93L107.86,102.34L108.32,101.57L108.32,100.77L107.86,100.00L107.00,99.36L105.82,98.92L104.45,98.72L103.05,98.79L101.76,99.11L100.72,99.66L100.05,100.37L99.82,101.17L100.05,101.97L100.70,102.66"/><path d="M109.82,97.53L111.26,98.55L112.17,99.75L112.19,99.86"/></g><g style="stroke:#000000;stroke-width:0.529"><path d="M112.61,101.11L112.63,101.17L112.55,103.34L111.92,104.62L110.71,105.76L110.60,105.83L110.47,105.90L110.49,112.95L110.18,114.08L110.08,114.39L109.19,115.40L107.79,116.19L106.04,116.71L104.10,116.88L102.15,116.71L100.40,116.19L99.01,115.40L98.11,114.39L98.01,114.08L97.70,112.95L97.70,105.84L96.81,105.21L95.88,103.99L95.57,102.67L95.57,101.21"/><path d="M107.04,96.59L105.80,96.34L103.52,96.25L101.29,96.52L99.26,97.12L97.60,98.01L97.48,98.08L96.27,99.22L95.95,99.87"/><path d="M112.33,99.93L112.31,99.85L111.38,98.63L109.92,97.59L109.82,97.53L108.05,96.82"/></g></g><g id="Actor_.7"><g style="stroke:#000000;stroke-width:0.176"><path d="M210.19,35.77L210.66,37.08L211.19,37.67L211.73,38.26L213.31,39.23L215.30,39.92L217.54,40.28L218.70,40.33L219.86,40.28L222.10,39.92L224.08,39.23L225.67,38.26L226.20,37.67L226.73,37.08L227.21,35.77"/><path d="M212.57,32.03L211.26,33.10L210.49,34.34L210.34,35.64L210.80,36.92L211.85,38.09L213.41,39.04L215.36,39.72L217.56,40.08L218.12,40.10"/><path d="M212.46,40.28L212.57,40.34L214.34,41.17L216.44,41.69L218.70,41.87L220.96,41.69L223.05,41.17L224.82,40.34L224.93,40.28L223.13,41.12L223.03,41.14L221.00,41.65L218.70,41.83L216.40,41.65L214.27,41.12L212.46,40.28L212.31,40.15"/><path d="M214.99,36.70L214.40,35.94L214.28,35.10L214.64,34.29L215.44,33.59L216.59,33.08L217.43,32.91L217.97,32.81L219.43,32.81L220.81,33.08L221.96,33.59L222.75,34.29L223.11,35.10L222.99,35.94L222.41,36.70L221.41,37.32L222.28,36.78L222.85,36.04L222.96,35.23L222.62,34.45L221.85,33.77L220.73,33.28L219.40,33.01L217.99,33.01L216.66,33.28L215.55,33.77L214.78,34.45L214.43,35.23L214.55,36.04L215.11,36.78L215.98,37.32L214.99,36.70"/><path d="M221.41,37.32L220.14,37.72L218.70,37.86L217.26,37.72L215.98,37.32"/><path d="M226.95,34.72L227.06,35.64L226.59,36.92L225.54,38.09L223.99,39.04L222.04,39.72L219.84,40.08L219.29,40.10"/><path d="M224.93,40.28L225.09,40.15"/><path d="M226.58,33.81L226.14,33.10L224.82,32.03"/></g><g style="stroke:#000000;stroke-width:0.529"><path d="M227.07,34.63L227.21,35.77L227.21,36.61L227.05,37.93L226.27,39.19L225.09,40.15L225.09,47.22L224.78,48.35L224.68,48.66L223.79,49.66L222.39,50.46L220.64,50.97L218.70,51.15L217.43,51.04L216.75,50.97L215.00,50.46L213.61,49.66L212.71,48.66L212.61,48.35L212.30,47.22L212.31,40.15L211.12,39.19L210.35,37.93L210.19,36.61L210.19,35.77L210.35,34.44L211.12,33.19L212.46,32.10L212.57,32.03L214.34,31.21L216.44,30.69L217.51,30.60"/><path d="M226.64,33.77L226.27,33.19L224.93,32.10L224.82,32.03L223.05,31.21L220.96,30.69L219.89,30.60"/></g></g><g id="Actor_.8"><g style="stroke:#000000;stroke-width:0.176"><path d="M75.61,96.68L75.52,96.34L73.55,95.21"/><path d="M73.48,90.40L73.41,90.83L75.37,91.96L75.44,91.52L75.64,91.42L76.37,91.01L77.02,90.53L77.24,90.34L77.59,89.98L77.89,89.54L78.09,89.05L78.18,88.58L78.16,88.15L78.02,87.83L77.83,87.56L77.45,87.07L76.98,86.55L75.02,85.42L75.05,85.51L75.22,85.86L75.50,86.28L75.61,86.44L75.75,86.77L75.77,87.19L75.68,87.67L75.47,88.15L75.18,88.60L74.83,88.96L74.47,89.26L73.92,89.81L73.48,90.40L75.44,91.52"/><path d="M74.68,93.06L74.86,92.73L75.02,92.24L75.06,91.78"/><path d="M75.02,85.42L75.22,84.98L77.19,86.10L76.98,86.55"/><path d="M77.64,99.77L77.41,99.59L75.44,98.46"/><path d="M75.80,96.64L76.37,96.52L77.07,96.30L77.44,96.15L77.80,96.07L78.10,96.15L78.33,96.37L78.45,96.71L78.46,97.14L78.35,97.63L78.25,97.92L77.93,98.70L77.53,99.42L77.41,99.59"/><path d="M75.37,91.96L76.04,92.15L76.63,92.30L76.94,92.36L77.22,92.50L77.40,92.78L77.47,93.16L77.43,93.62L77.27,94.11L77.02,94.58L76.84,94.84L76.30,95.55L75.69,96.18L75.52,96.34"/><path d="M75.22,84.98L75.66,84.71L76.22,84.49L76.57,84.38L76.95,84.19L77.32,83.88L77.64,83.47L77.88,82.99L78.02,82.51L78.05,82.06L78.03,81.80L78.03,81.14L78.11,80.54L78.14,80.39L80.11,81.52L80.31,82.29L80.43,83.03L80.46,83.44L80.44,83.89L80.34,84.22L80.29,84.38L80.05,84.85L79.73,85.26L79.36,85.58L78.99,85.76L78.77,85.83L78.11,85.98L77.39,86.09L77.19,86.10"/><path d="M78.14,80.39L78.45,80.02L78.77,80.11L79.20,80.25L79.49,80.35L79.81,80.39L80.18,80.26L80.56,80.00L80.90,79.63L81.18,79.18L81.37,78.69L81.45,78.40L81.72,77.62L82.04,76.97"/><path d="M78.45,80.02L80.42,81.15L80.11,81.52"/><path d="M78.69,99.06L79.05,98.77L79.40,98.44L79.78,98.16L80.15,98.02L80.21,98.02L80.48,98.03L80.75,98.19L80.92,98.48L80.97,98.88L80.97,99.15L80.92,99.85L80.79,100.48L80.74,100.64"/><path d="M82.17,76.74L84.14,77.86L84.07,78.74L83.91,79.60L83.78,80.07L83.59,80.56L83.31,81.01L82.97,81.39L82.59,81.65L82.23,81.77L81.90,81.74L81.19,81.47L80.42,81.15"/><path d="M82.94,92.21L82.43,91.86L82.04,91.06L81.96,89.99L82.20,88.77L82.73,87.52L83.49,86.40L84.41,85.51L85.14,85.09L85.37,84.95L86.29,84.79L87.05,85.04L87.58,85.68L87.82,86.63L87.74,87.79L87.35,89.04L86.70,90.24L85.84,91.26L84.89,92.00L83.93,92.36L83.08,92.31L82.94,92.21"/><path d="M82.95,98.19L83.14,98.03L83.51,97.83L83.86,97.77L84.16,97.87L84.38,98.10L84.47,98.29L84.70,98.76L84.82,99.18L84.84,99.27"/><path d="M86.31,75.18L88.27,76.30L87.98,77.14L87.59,77.95L87.32,78.39L87.01,78.82L86.65,79.15L86.27,79.35L85.91,79.41L85.62,79.31L85.40,79.07L85.31,78.89L84.99,78.36L84.60,77.80L84.49,77.65L84.14,77.86"/><path d="M84.49,77.65L84.41,77.60"/><path d="M88.27,76.30L88.59,76.28"/><path d="M88.68,76.73L88.77,77.28L88.81,78.03L88.81,78.29L88.86,78.69L89.03,78.99L89.30,79.15L89.32,79.15"/><path d="M93.72,80.24L93.27,80.58L92.71,80.88L92.34,81.03L91.98,81.10L91.68,81.03L91.45,80.81L91.33,80.47L91.32,80.03L91.43,79.55L91.53,79.26L91.56,79.15"/><path d="M93.96,84.96L93.60,84.95L93.14,84.88L92.84,84.82L92.56,84.68L92.38,84.40L92.30,84.01"/></g><g style="stroke:#000000;stroke-width:0.529"><path d="M91.02,76.77L89.73,76.03L89.53,76.14L88.82,76.61L88.68,76.73L88.64,76.49L88.59,76.28L86.63,75.16L86.31,75.18L86.14,75.34L85.57,76.00L85.07,76.74L84.91,77.01L84.59,77.44L84.41,77.60L82.52,76.52L82.17,76.74L82.07,76.91L82.04,76.96L82.02,76.96L80.50,77.10L78.86,77.79L77.22,78.98L75.69,80.59L74.38,82.51L73.37,84.61L72.74,86.74L72.52,88.76L72.74,90.54L73.37,91.94L74.38,92.89L74.68,93.06L74.60,93.19L74.31,93.63L73.88,94.41L73.55,95.21L73.64,95.55L75.61,96.68L75.80,96.64L75.77,96.72L75.56,97.58L75.44,98.46L75.67,98.64L77.64,99.77L78.38,99.31L78.69,99.06L78.77,99.51L80.74,100.64L81.06,100.62L81.66,99.96L82.19,99.23L82.46,98.78L82.77,98.36L82.95,98.19L84.84,99.27L85.19,99.06L85.57,98.36L85.86,97.58L86.00,97.10L86.19,96.62L86.47,96.16L86.81,95.79L87.18,95.53L87.55,95.41L87.88,95.44L88.50,95.66L88.84,95.75L88.91,95.77L89.22,95.40L89.33,94.81L89.34,94.15L89.31,93.74L89.34,93.29L89.49,92.80L89.73,92.33L90.05,91.91L90.42,91.60L90.79,91.42L91.01,91.35L91.58,91.14L92.04,90.89L92.14,90.82L92.35,90.37L92.20,90.03L91.94,89.61L91.76,89.35L91.62,89.03L91.59,88.60L91.69,88.13L91.89,87.64L92.18,87.20L92.53,86.84L92.76,86.65L93.33,86.12L93.79,85.55L93.89,85.40L93.96,84.96L92.30,84.01L92.35,83.56L92.51,83.07L92.76,82.60L92.94,82.34L93.39,81.58L93.74,80.80L93.81,80.58L93.72,80.24L91.76,79.12L91.56,79.15L91.77,78.42L91.90,77.56L91.92,77.33L91.84,77.27"/></g></g><g id="Actor_.9"><g style="stroke:#000000;stroke-width:0.176"><path d="M26.53,60.03L25.93,59.47L25.61,58.57L25.61,57.43L25.93,56.17L25.94,56.15L26.53,54.92L27.35,53.82L28.30,52.98L29.29,52.49L35.42,50.67L35.88,50.64L36.25,50.81"/><path d="M34.74,53.49L34.58,53.46L34.44,53.33L34.36,53.12L34.35,52.99L34.36,52.84L34.44,52.54L34.58,52.24L34.78,51.98L35.01,51.78L35.24,51.67L35.46,51.66L35.63,51.74L35.75,51.92L35.79,52.16L35.75,52.46L35.63,52.76L35.46,53.05L35.24,53.28L35.01,53.44L34.78,53.50L34.74,53.49"/></g><g style="stroke:#000000;stroke-width:0.529"><path d="M27.71,60.09L27.35,60.19L26.53,60.03L25.32,59.34L24.72,58.78L24.40,57.88L24.40,56.74L24.72,55.47L24.94,55.03L25.32,54.23L26.14,53.12L27.10,52.29L28.08,51.80L34.21,49.98L34.67,49.95L35.05,50.12L36.25,50.81L36.49,51.19L36.58,51.71L36.49,52.33L36.25,52.98L35.88,53.58L35.42,54.07L34.11,55.19"/></g></g><g id="Actor_.10"><g style="stroke:#000000;stroke-width:0.176"><path d="M65.33,81.84L64.59,81.60L64.07,80.98L63.84,80.06L63.92,78.93L64.30,77.71L64.93,76.54L65.00,76.46L65.76,75.55L66.69,74.84L67.62,74.48L68.25,74.52L68.45,74.53L69.08,74.96"/><path d="M66.37,75.22L66.69,75.00L67.14,74.79L67.98,74.64L68.69,74.87L69.18,75.46L69.40,76.34L69.33,77.41L68.97,78.57L68.36,79.68L67.57,80.62L66.69,81.30L65.81,81.64L65.02,81.59L64.41,81.18L64.34,81.03L64.77,81.32"/><path d="M64.34,81.03L64.05,80.44L63.98,79.44L64.00,79.35"/><path d="M67.90,74.65L68.33,74.79"/></g><g style="stroke:#000000;stroke-width:0.529"><path d="M65.72,72.91L65.37,72.79L65.03,72.73L64.14,72.88L63.20,73.42L62.31,74.29L61.57,75.38L61.05,76.59L60.82,77.78L60.90,78.82L61.28,79.61L61.51,79.87L62.17,80.32L64.22,81.52L64.99,81.78L65.33,81.84L66.22,81.69L67.16,81.15L68.05,80.28L68.79,79.19L69.31,77.98L69.54,76.79L69.46,75.75L69.08,74.96L68.85,74.70L68.19,74.25L66.60,73.32"/><path d="M64.00,79.35L64.20,78.31L64.69,77.16L65.39,76.12L66.24,75.30L66.37,75.22"/><path d="M64.00,79.35L64.12,79.27L64.97,78.45L65.67,77.41L66.16,76.26L66.37,75.22"/></g></g><g id="Actor_.11"><g style="stroke:#000000;stroke-width:0.176"><path d="M54.00,75.35L53.26,75.10L52.74,74.48L52.51,73.56L52.59,72.43L52.97,71.21L53.60,70.05L54.43,69.05L55.36,68.34L56.29,67.99L56.64,68.00L57.12,68.03L57.75,68.47"/><path d="M57.00,68.30L56.57,68.15L56.66,68.14L57.36,68.37L57.85,68.96L58.07,69.84L58.00,70.91L57.64,72.07L57.03,73.18L56.24,74.13L55.36,74.80L54.48,75.14L53.69,75.10L53.08,74.68L52.72,73.94L52.65,72.95L52.67,72.86"/><path d="M53.44,74.82L53.01,74.53"/><path d="M55.04,68.72L55.36,68.50L55.81,68.29L56.57,68.15"/></g><g style="stroke:#000000;stroke-width:0.529"><path d="M53.93,66.27L53.71,66.23L52.82,66.38L51.87,66.92L50.98,67.79L50.24,68.89L49.73,70.09L49.50,71.28L49.57,72.33L49.95,73.11L50.18,73.37L50.84,73.82L52.90,75.03L53.66,75.28L54.00,75.35L54.89,75.19L55.83,74.65L56.72,73.78L57.46,72.69L57.98,71.48L58.21,70.29L58.13,69.25L57.75,68.47L57.52,68.20L56.87,67.76L54.85,66.57"/><path d="M55.04,68.72L54.84,69.76L54.35,70.91L53.64,71.95L52.79,72.77L52.67,72.86"/><path d="M55.04,68.72L54.91,68.80L54.07,69.62L53.36,70.67L52.87,71.82L52.67,72.86"/></g></g><g id="Actor_.12"><g style="stroke:#000000;stroke-width:0.176"><path d="M254.26,64.37L254.31,64.38L254.34,64.37L254.37,64.34L254.38,64.29L254.38,64.24L254.36,64.17L254.33,64.12L254.28,64.07L254.24,64.03L254.19,64.01L254.15,64.02L254.12,64.04L254.10,64.08L254.10,64.13"/><path d="M254.39,62.89L254.60,62.88L254.85,62.97L255.09,63.16L255.31,63.42L255.48,63.73L255.58,64.05L255.60,64.35L255.54,64.59L255.40,64.76L255.40,64.76"/><path d="M254.97,64.78L254.97,64.78"/><path d="M258.13,60.73L258.14,60.73"/></g><g style="stroke:#000000;stroke-width:0.529"><path d="M255.40,64.76L255.21,64.82L254.97,64.78L254.21,64.35L254.17,64.30L254.13,64.25L254.11,64.19L254.10,64.13L254.10,63.49L254.12,63.21L254.22,63.01L254.39,62.89L258.13,60.73"/><path d="M257.61,63.49L255.40,64.76"/><path d="M258.14,60.73L258.33,60.67L258.42,60.68"/></g></g><g id="Actor_.13"><g style="stroke:#000000;stroke-width:0.176"><path d="M53.31,200.88L53.46,200.55L53.67,200.22L53.38,200.49L53.00,200.61L52.56,200.57L52.10,200.37L51.64,200.04L51.19,199.57L50.82,199.02L50.53,198.43L50.35,197.82L50.29,197.24L50.35,196.73L50.53,196.33L50.82,196.06L51.19,195.94L51.64,195.98L52.10,196.18L51.66,195.88L51.22,195.49"/><path d="M50.53,198.43L50.53,198.43"/><path d="M53.31,196.69L53.46,197.49L53.67,198.13L53.38,197.54L53.00,196.98L52.56,196.52L52.10,196.18L52.61,196.43L53.31,196.69L54.53,195.98L53.02,195.12"/><path d="M53.67,200.22L53.94,199.86L54.35,199.38L53.95,198.74L53.67,198.13L53.85,198.74L53.91,199.32L53.84,199.83L53.67,200.22"/><path d="M53.71,195.40L54.00,195.59L54.19,195.79"/><path d="M54.35,199.38L55.58,198.68"/><path d="M54.90,196.94L54.68,196.37L55.00,196.88L55.17,197.26L55.30,197.65L55.38,198.18L54.90,196.94"/><path d="M54.53,195.98L54.68,196.37"/><path d="M55.33,199.03L54.97,199.54"/><path d="M55.38,198.18L55.44,198.32"/><path d="M58.42,196.00L58.34,195.50L58.30,195.40L58.14,194.99L57.84,194.52L57.47,194.13L57.08,193.88"/></g><g style="stroke:#000000;stroke-width:0.529"><path d="M50.53,198.43L50.33,197.79L50.17,196.99L50.33,196.65L50.53,196.33L50.81,195.97L51.22,195.49L52.44,194.79L53.02,195.12L53.41,195.21L53.71,195.40L56.37,193.86L56.70,193.79L57.08,193.88L57.26,193.99L57.60,194.20L57.92,194.54L58.18,194.94L58.35,195.39L58.42,195.81L58.42,196.00L58.36,196.42L58.18,196.73L55.44,198.32L55.58,198.68L55.33,199.03L55.06,199.49L54.97,199.54L54.53,200.18L53.31,200.88L52.61,200.63L52.10,200.37L51.66,200.08L51.22,199.68L50.81,199.02L50.53,198.43"/></g></g><g id="Actor_.14"><g style="stroke:#000000;stroke-width:0.176"><path d="M50.26,193.16L50.28,193.20L50.44,193.44L50.64,193.63L50.74,193.70L50.85,193.75L51.04,193.79L51.20,193.73L51.32,193.60L51.37,193.39L51.35,193.15L51.27,192.88L51.13,192.62L50.95,192.40L50.74,192.25L50.54,192.17L50.36,192.18L50.22,192.27L50.13,192.45L50.11,192.68L50.17,192.94L50.26,193.16"/><path d="M50.36,193.01L50.92,192.69L50.74,192.47L50.36,192.51L50.36,193.01L50.74,193.48L51.12,193.44L51.12,193.26L50.74,193.48"/><path d="M51.37,193.84L51.37,193.84L51.50,193.68L51.57,193.44L51.54,193.14L51.44,192.82L51.28,192.51L51.06,192.25L50.81,192.06L50.57,191.97L50.35,191.98"/><path d="M50.92,192.69L51.12,192.94L51.12,193.26"/><path d="M54.53,189.80L54.78,189.94L55.01,190.17L55.21,190.46L55.35,190.78L55.41,191.09"/><path d="M55.24,190.20L55.24,190.20"/></g><g style="stroke:#000000;stroke-width:0.529"><path d="M51.37,193.84L55.12,191.69L55.29,191.57L55.39,191.36L55.41,191.09L55.41,190.45L55.40,190.39L55.37,190.33L55.33,190.27L55.29,190.23L54.53,189.80L54.30,189.76L54.10,189.82L50.35,191.98L50.18,192.09L50.08,192.30L50.06,192.57L50.12,192.89L50.26,193.21L50.45,193.50L50.69,193.72L50.81,193.81L50.94,193.87L51.17,193.91L51.37,193.84"/></g></g><g id="Actor_.15"><g style="stroke:#000000;stroke-width:0.176"><path d="M270.05,68.19L270.05,68.19"/><path d="M269.34,67.78L269.39,67.79L269.42,67.78L269.45,67.75L269.46,67.70L269.46,67.64L269.44,67.58L269.41,67.52L269.36,67.47L269.32,67.44L269.27,67.42L269.23,67.42L269.20,67.45L269.18,67.48L269.17,67.54"/><path d="M270.48,68.16L270.62,68.00L270.68,67.76L270.66,67.46L270.56,67.14L270.39,66.83L270.17,66.57L269.93,66.38L269.68,66.29L269.47,66.30"/></g><g style="stroke:#000000;stroke-width:0.529"><path d="M269.18,67.38L269.17,67.54L269.19,67.60L269.21,67.66L269.25,67.71L269.29,67.76L270.05,68.19L270.29,68.23L270.48,68.16L274.23,66.01L274.40,65.89L274.50,65.69L274.52,65.41L274.46,65.10L274.32,64.78L274.13,64.49L273.89,64.26L273.77,64.18L273.65,64.12L273.41,64.08L273.21,64.14L269.47,66.30L269.30,66.41L269.20,66.62L269.18,66.90L269.18,67.38"/></g></g><g id="Actor_.16"><g style="stroke:#000000;stroke-width:0.176"><path d="M53.73,170.14L78.46,184.32L78.46,193.06"/><path d="M55.35,178.71L55.54,178.86L55.74,178.94L55.91,178.93L56.04,178.84L56.09,178.74L56.14,178.45L56.09,178.20L55.99,177.95L55.83,177.71L55.64,177.53L55.44,177.42L55.25,177.38L55.10,177.44L54.99,177.57L54.94,177.76L54.96,178.00L55.04,178.26L55.17,178.50L55.35,178.71"/><path d="M58.21,178.23L57.91,177.87L57.67,177.44L57.53,176.99L57.51,176.57L57.59,176.23L57.78,176.00L58.06,175.91L58.38,175.97L58.73,176.17L59.06,176.49L59.40,177.04L59.52,177.34L59.61,177.78L59.58,178.16L59.44,178.45L59.21,178.61L58.90,178.63L58.56,178.50L58.21,178.23"/><path d="M70.43,182.12L70.26,181.93L70.12,181.67L70.04,181.41L70.02,181.17L70.07,180.98L70.18,180.84L70.33,180.79L70.52,180.83L70.72,180.94L70.91,181.12L71.06,181.35L71.17,181.61L71.22,181.86L71.21,182.08L71.13,182.24L70.99,182.34L70.82,182.35L70.62,182.27L70.43,182.12"/><path d="M72.85,186.26L72.75,186.08L72.61,185.64L72.58,185.22L72.67,184.88L72.85,184.66L73.13,184.56L73.46,184.62L73.81,184.82L74.14,185.14L74.41,185.54L74.60,185.99L74.69,186.43L74.66,186.81L74.52,187.10L74.29,187.26L73.98,187.28L73.64,187.15L73.29,186.88L72.99,186.52L72.85,186.26"/><path d="M78.46,184.32L97.75,173.26L98.76,172.50L99.40,171.62L99.62,170.67"/><path d="M89.66,153.79L89.54,153.81L89.54,150.48L90.90,151.24L91.39,151.63L91.65,152.09L91.65,152.56L91.39,153.02L90.90,153.40L90.23,153.68L89.66,153.79"/><path d="M89.54,149.60L89.54,150.48L89.54,149.67"/><path d="M96.38,160.70L96.18,160.81L96.11,160.91L96.11,161.02L96.26,161.19L96.44,161.25L96.74,161.27L97.04,161.17L97.13,161.08L97.17,160.98L97.14,160.88L96.94,160.72L96.61,160.66L96.38,160.70"/><path d="M108.85,163.57L108.75,163.64L109.72,162.96L110.50,161.91L110.70,160.77L110.29,159.64L109.32,158.64L107.87,157.86L106.07,157.35L104.10,157.18L102.12,157.35L100.33,157.86L98.88,158.64L97.91,159.64L97.50,160.76L97.69,161.90L98.47,162.96L99.44,163.64L98.65,163.07L97.90,162.05L97.71,160.95L98.10,159.86L99.05,158.89L100.45,158.13L102.18,157.64L104.10,157.48L106.01,157.64L107.74,158.13L109.15,158.89L110.09,159.86L110.49,160.95L110.30,162.05L109.54,163.07L108.85,163.57L109.54,163.07"/><path d="M99.62,179.40L99.62,179.34"/><path d="M99.62,167.09L99.62,163.76L99.44,163.64"/><path d="M99.62,163.76L99.62,163.88"/><path d="M98.65,163.07L99.29,163.53"/><path d="M108.57,167.09L108.57,166.20L108.57,172.83"/><path d="M108.57,166.20L108.57,164.10L108.71,164.52L109.04,164.86L109.57,165.13L110.23,165.29L110.95,165.31L111.63,165.20L112.21,164.96L147.25,144.87L147.66,144.54L147.86,144.14L147.86,146.38"/><path d="M108.57,164.10L108.57,163.96L108.57,165.08"/><path d="M108.57,163.96L108.57,163.77L108.75,163.64"/><path d="M111.99,160.79L111.71,160.68L111.37,160.69L111.10,160.81L111.04,160.91L111.04,161.02L111.18,161.19L111.33,161.25L111.67,161.27L111.83,161.23L111.97,161.17L112.06,161.08L112.09,160.98L111.99,160.79"/><path d="M114.35,133.85L114.35,133.26"/><path d="M122.59,131.39L122.56,131.75L122.81,132.24L123.28,132.61L124.04,132.94L124.88,133.08L125.75,133.06L126.57,132.88L127.24,132.55L127.69,132.12L127.87,131.63L127.77,131.15L127.38,130.68L126.76,130.32L125.97,130.10L125.10,130.04L124.24,130.14L123.48,130.40L122.92,130.78L122.60,131.25L122.59,131.39"/><path d="M136.06,127.15L136.06,118.42L128.22,122.92L127.83,123.22L127.62,123.59L127.63,123.97L127.81,124.29L128.23,124.65L134.11,128.02L134.36,128.13"/><path d="M135.61,142.83L136.24,143.21L137.97,143.77L139.93,144.00L141.91,143.89L143.75,143.44L144.85,142.92L144.85,137.82L143.64,137.26L141.86,136.83L139.94,136.72L138.05,136.95L137.44,137.14L136.36,137.49L135.03,138.30L134.18,139.29L133.89,140.39L134.19,141.50L135.03,142.48L135.61,142.83L134.86,142.37L133.98,141.35L133.68,140.21L133.86,139.53L133.98,139.08L134.86,138.05L136.23,137.22L137.97,136.66L139.93,136.43L141.91,136.54L143.75,136.98L145.15,137.65L149.65,137.64L151.30,137.52L152.85,137.15L154.18,136.57L176.15,123.96L177.17,123.20L177.81,122.32L178.03,121.28L178.03,121.54L178.03,121.37"/><path d="M136.17,143.17L136.24,143.21L135.66,142.86"/><path d="M136.06,118.42L136.97,118.42L136.97,127.15"/><path d="M136.97,118.42L144.51,114.09L144.51,113.57L144.51,121.01L143.12,121.81L143.60,123.59L143.60,123.98L143.39,124.34L143.12,124.55"/><path d="M138.53,123.56L138.18,122.84L138.11,121.88L138.32,120.78L138.80,119.67L139.48,118.65L140.30,117.86L140.52,117.73L141.17,117.36L141.99,117.21L142.68,117.44L143.16,118.01L143.37,118.86L143.30,119.91L142.95,121.03L142.36,122.10L141.60,123.02L140.74,123.68L139.88,124.01L139.12,123.97L138.53,123.56"/><path d="M140.09,144.21L139.94,144.26L139.76,144.43L139.76,144.55L139.91,144.71L140.22,144.80L140.39,144.79L140.69,144.69L140.78,144.61L140.82,144.51L140.80,144.41L140.72,144.32L140.44,144.20L140.09,144.21"/><path d="M139.76,135.88L139.77,135.98L139.91,136.15L140.22,136.24L140.56,136.19L140.69,136.13L140.78,136.04L140.82,135.94L140.80,135.85L140.72,135.75L140.60,135.68L140.26,135.63L139.94,135.70L139.83,135.78L139.76,135.88"/><path d="M143.12,123.62L143.12,121.81"/><path d="M144.51,121.01L150.42,117.62L152.39,117.80"/><path d="M144.51,116.79L144.51,115.67"/><path d="M144.51,113.57L152.35,109.08L152.89,108.85L153.52,108.73L154.19,108.73L154.83,108.85L155.37,109.08L161.25,112.45L161.64,112.76L161.84,113.12L161.83,113.53L161.64,113.87L161.24,114.18L155.37,117.55L155.06,117.68"/><path d="M144.51,114.09L144.51,114.55"/><path d="M147.86,144.14L147.82,143.74L147.54,143.36L147.07,143.05L146.44,142.85L145.74,142.78L145.15,142.78L144.85,142.92"/><path d="M144.85,137.82L145.15,137.65"/><path d="M165.03,108.02L164.78,107.54L164.82,107.03L165.14,106.56L165.71,106.18L166.46,105.92L167.32,105.82L168.19,105.88L168.98,106.10L169.60,106.46L169.98,106.91L170.09,107.41L169.91,107.90L169.46,108.34L168.79,108.66L167.98,108.84L167.10,108.86L166.26,108.72L165.57,108.44L165.03,108.02"/><path d="M174.70,115.76L174.52,115.93L174.52,116.05L174.67,116.21L174.81,116.27L174.98,116.30L175.32,116.26L175.54,116.11L175.58,116.01L175.56,115.91L175.48,115.82L175.20,115.70L175.02,115.69L174.70,115.76"/><path d="M175.96,116.10L175.91,115.79L176.32,114.67L177.29,113.67L178.74,112.88L180.53,112.38L182.51,112.21L184.48,112.38L186.28,112.88L187.73,113.67L188.70,114.67L189.11,115.79L188.92,116.93L188.13,117.99L187.95,118.11L188.71,117.07L188.76,116.79L188.90,115.97L188.50,114.89L187.56,113.92L186.15,113.16L184.42,112.67L182.51,112.50L180.60,112.67L178.86,113.16L177.46,113.92L176.52,114.89L176.12,115.97L176.31,117.07L177.08,118.13L176.88,117.99L176.10,116.93L175.96,116.10"/><path d="M178.03,129.89L178.03,130.10L178.03,130.00"/><path d="M178.03,121.28L178.03,119.04L178.03,120.16"/><path d="M178.03,121.54L178.03,122.12"/><path d="M177.08,118.13L177.85,118.67L177.08,118.13L177.82,118.64"/><path d="M177.85,118.67L178.03,118.80L178.03,119.04"/><path d="M186.99,122.12L186.99,121.28L186.99,127.84"/><path d="M186.99,121.28L186.99,119.13L187.11,119.53L187.45,119.89L187.98,120.16L188.65,120.32L189.36,120.34L190.04,120.23L190.63,119.99L225.66,99.89L226.07,99.56L226.27,99.17L226.23,98.76L225.96,98.38L225.48,98.07L224.86,97.88L224.15,97.81L223.56,97.81L222.16,98.47L220.33,98.91L218.34,99.02L216.38,98.79L214.64,98.23L213.76,97.70L214.64,98.23"/><path d="M186.99,119.13L186.99,119.04L186.99,120.16L186.99,118.78L187.95,118.11L187.27,118.59"/><path d="M190.48,115.91L190.28,115.75L190.12,115.70L189.78,115.71L189.51,115.84L189.45,115.93L189.45,116.05L189.59,116.21L189.74,116.27L190.08,116.30L190.28,116.24L190.47,116.11L190.50,116.01L190.48,115.91"/><path d="M205.10,87.84L204.83,87.95L204.15,88.08L204.15,84.73L205.50,85.51L205.99,85.90L206.25,86.35L206.25,86.83L205.99,87.28L205.50,87.67L205.10,87.84"/><path d="M204.15,85.35L204.15,84.22L204.15,84.73"/><path d="M204.15,84.10L204.15,84.22L204.15,83.89"/><path d="M206.25,86.35L206.25,86.39"/><path d="M259.41,80.54L240.13,91.60L238.80,92.18L237.26,92.55L235.60,92.67L223.56,92.67L222.16,92.01L220.32,91.56L218.34,91.45L216.38,91.69L214.64,92.25L213.27,93.08L212.39,94.11L212.09,95.24L212.39,96.37L213.26,97.40L213.76,97.70L213.44,97.51L212.59,96.51L212.30,95.41L212.59,94.33L213.44,93.32L214.77,92.52L216.46,91.98L218.35,91.75L220.27,91.86L222.05,92.29L223.27,92.84L223.27,97.95"/><path d="M218.18,99.46L218.24,99.36L218.50,99.23L218.85,99.23L219.13,99.34L219.21,99.43L219.23,99.53L219.20,99.63L218.97,99.78L218.63,99.82L218.32,99.74L218.18,99.57L218.18,99.46"/><path d="M218.17,90.96L218.24,91.11L218.32,91.17L218.63,91.26L218.97,91.22L219.19,91.07L219.23,90.97L219.21,90.87L219.13,90.78L219.01,90.71L218.67,90.65L218.35,90.72L218.24,90.80L218.17,90.96"/><path d="M223.56,92.67L223.27,92.84"/><path d="M226.27,99.17L226.27,101.40"/></g><g style="stroke:#000000;stroke-width:0.529"><path d="M99.62,179.04L99.62,179.40L99.40,180.35L98.76,181.24L97.75,182.00L78.46,193.06L53.73,178.87L53.73,170.14L84.27,152.62L85.78,152.62L87.13,153.40L87.81,153.68L88.60,153.83L89.54,153.81L89.54,149.67"/><path d="M204.15,84.10L204.15,83.89L204.15,88.08L203.20,88.10L202.41,87.95L201.74,87.67L200.38,86.89L198.87,86.89L175.94,100.05L174.61,100.63L173.07,101.00L171.41,101.12L159.22,101.12L157.57,101.24L156.02,101.61L154.70,102.19L116.22,124.26L115.21,125.02L114.57,125.91L114.35,126.86L114.35,133.85L114.13,134.80L113.49,135.68L112.48,136.44L89.54,149.60"/><path d="M99.62,179.40L99.62,167.09L101.18,166.44L102.44,166.20L103.11,166.08L105.10,166.08L107.01,166.44L108.57,167.09L108.57,172.83L108.71,173.26L109.04,173.59L109.57,173.87L110.23,174.03L110.95,174.05L111.63,173.93L112.21,173.70L147.25,153.60L147.66,153.27L147.86,152.88L147.86,146.38L149.65,146.38L151.30,146.26L152.85,145.89L154.18,145.30L176.15,132.70L177.17,131.94L177.81,131.05L178.03,130.10"/><path d="M134.49,128.18L134.36,128.13L136.06,127.15L136.97,127.15L143.12,123.62L143.12,124.55L142.99,124.65L137.11,128.02L136.58,128.24L135.94,128.36L135.28,128.36L134.64,128.24L134.49,128.18"/><path d="M152.39,117.80L153.53,117.90L154.20,117.90L154.83,117.78L155.06,117.68L154.83,117.59L154.19,117.47L153.52,117.47L152.89,117.59L152.42,117.80"/><path d="M178.03,129.89L178.03,129.14L178.03,130.00"/><path d="M178.03,130.07L178.03,122.12L179.59,121.47L181.50,121.11L183.51,121.11L185.42,121.47L186.99,122.12L186.99,127.86L187.11,128.26L187.45,128.62L187.98,128.89L188.65,129.05L189.36,129.07L190.04,128.96L190.63,128.72L225.66,108.63L226.07,108.30L226.27,107.90L226.27,101.40L235.60,101.40L237.26,101.28L238.80,100.91L240.13,100.33L259.41,89.27L259.41,80.54L234.68,66.35L204.15,83.89"/><path d="M186.99,127.83L186.99,127.86"/></g></g><g id="Actor_.17"><g style="stroke:#000000;stroke-width:0.176"><path d="M35.19,188.83L35.14,188.87L35.05,189.04L35.04,189.27L35.09,189.53L35.20,189.79L35.36,190.04L35.56,190.23L35.66,190.30L35.70,190.31"/><path d="M35.49,189.85L35.29,189.60L35.29,189.25"/><path d="M35.29,189.60L35.38,189.55"/></g><g style="stroke:#000000;stroke-width:0.529"><path d="M35.15,188.65L35.10,188.69L35.00,188.89L34.98,189.17L35.04,189.48L35.18,189.80L35.38,190.09L35.61,190.32L35.73,190.40L35.75,190.40"/><path d="M39.30,186.36L39.22,186.35L39.02,186.41L38.54,186.69"/></g></g><g id="Actor_.18"><g style="stroke:#000000;stroke-width:0.176"><path d="M19.97,45.18L19.97,45.18L19.98,44.84"/><path d="M19.97,45.18L19.97,45.18"/><path d="M19.98,44.62L20.60,44.98L20.68,45.59L20.69,45.64L20.80,45.93L21.00,46.10L21.09,46.15L21.12,46.16"/><path d="M20.67,43.55L20.34,43.91L20.10,44.39"/><path d="M20.75,46.19L20.68,45.59"/><path d="M21.09,46.15L20.89,45.98L20.78,45.69L20.77,45.32L20.87,44.91L21.06,44.50L21.33,44.14L21.64,43.86L21.96,43.70L22.12,43.67L22.26,43.67L22.50,43.78L22.41,43.73L22.17,43.62L22.02,43.61L22.55,43.56"/><path d="M20.60,44.98L21.05,44.32L20.97,44.45L20.78,44.86L20.68,45.27L20.68,45.58"/><path d="M21.05,44.32L21.24,44.09L21.55,43.81L21.87,43.65L22.02,43.61L21.50,43.66L21.05,44.32"/><path d="M20.88,43.31L21.50,43.66"/><path d="M21.33,45.67L21.86,45.98L21.68,46.10L21.65,46.11"/><path d="M21.86,45.98L21.87,45.98"/><path d="M22.20,44.21L22.70,44.50"/><path d="M24.52,45.55L24.37,45.48L24.18,45.50L23.99,45.60L23.80,45.77L23.63,45.99L23.51,46.24L23.45,46.50L23.46,46.72L23.53,46.90L23.65,47.01"/><path d="M22.50,43.78L22.59,43.91"/><path d="M24.12,46.91L23.96,46.96L23.82,46.94L23.72,46.85L23.66,46.70L23.66,46.51L23.71,46.30L23.81,46.10L23.94,45.91L24.10,45.77L24.27,45.69L24.42,45.67L24.54,45.73L24.62,45.85L24.65,46.02"/></g><g style="stroke:#000000;stroke-width:0.529"><path d="M19.97,45.18L20.13,45.84L20.75,46.19L21.12,46.16L21.37,46.19L21.65,46.11L21.80,46.09L21.87,45.99L23.65,47.01L23.82,47.03L24.01,46.97L24.12,46.91L24.29,46.80L24.44,46.63L24.55,46.43L24.63,46.22L24.65,46.02L24.65,45.89L24.62,45.69L24.52,45.55L22.70,44.50L22.72,44.34L22.66,44.01L22.59,43.91L22.55,43.56L21.93,43.21L21.32,43.21L20.88,43.31L20.67,43.55L20.56,43.64L20.34,43.91L20.17,44.22L20.10,44.39L19.98,44.62L19.98,44.84L19.97,44.89L19.97,45.18"/></g></g><g id="Actor_.19"><g style="stroke:#000000;stroke-width:0.176"><path d="M219.19,43.23L219.02,43.31L218.83,43.35L218.62,43.36L218.42,43.32L218.24,43.25"/><path d="M217.51,39.16L217.94,39.33L218.16,39.43L218.42,39.49L218.70,39.51L218.97,39.49L219.57,39.47L219.73,39.05L219.62,39.20L219.45,39.33L219.23,39.43L218.97,39.49L218.38,39.66L217.94,39.33L217.78,39.20L217.67,39.06L217.63,38.89L217.67,38.74L217.77,38.59L217.94,38.46L218.09,38.40"/><path d="M218.38,39.66L218.38,40.19L218.97,40.10L218.97,40.10"/><path d="M217.71,39.81L218.33,40.16L218.23,40.14L218.06,40.08"/><path d="M219.33,40.08L219.24,40.12L218.92,40.19L218.57,40.20L218.44,40.18"/><path d="M218.38,40.19L218.33,40.16"/><path d="M219.34,43.00L219.34,43.01"/><path d="M219.57,39.47L219.57,40.01"/><path d="M218.97,40.10L219.43,40.03"/><path d="M219.76,39.59L219.63,39.88"/><path d="M219.89,38.79L219.73,39.05L219.76,38.90L219.73,38.74L219.62,38.59"/><path d="M219.45,38.46L219.45,38.47"/><path d="M219.66,38.62L219.66,38.62"/><path d="M218.85,38.30L218.97,38.31L219.17,38.35"/></g><g style="stroke:#000000;stroke-width:0.529"><path d="M218.06,41.82L218.06,43.04L218.12,43.15L218.24,43.25L218.33,43.30L218.47,43.36L218.63,43.39L218.80,43.38L218.96,43.35L219.10,43.28L219.19,43.23L219.29,43.13L219.34,43.01"/><path d="M219.45,38.46L219.23,38.37L219.17,38.35L219.02,38.29L218.85,38.30L218.69,38.29L218.42,38.31L218.17,38.37L218.09,38.40L217.83,38.48L217.67,38.74L217.51,39.16L217.51,39.69L217.71,39.81L217.74,39.86L217.94,40.03L218.06,40.08"/><path d="M219.34,43.00L219.33,41.82"/><path d="M219.66,38.62L219.89,38.79L219.89,39.33L219.76,39.59L219.76,39.62L219.69,39.82L219.63,39.88L219.57,40.01L219.43,40.03L219.33,40.08"/><path d="M219.66,38.62L219.45,38.47"/></g></g><g id="Actor_.20"><g style="stroke:#000000;stroke-width:0.176"><path d="M110.92,101.53L111.09,101.60L111.19,101.61L110.57,101.26"/><path d="M110.95,99.85L110.81,99.92L110.64,100.04L110.53,100.19L110.49,100.35L110.53,100.51L110.64,100.66L110.81,100.78L110.37,100.61"/><path d="M111.24,101.11L111.84,100.94L111.56,100.96L111.28,100.94L111.02,100.88L110.81,100.78L111.24,101.11L111.24,101.64L111.84,101.55L111.84,101.55"/><path d="M111.74,104.79L111.89,104.76L112.05,104.68"/><path d="M111.84,101.55L112.30,101.48"/><path d="M111.30,101.63L111.43,101.65L111.78,101.65L112.11,101.57L112.20,101.53"/><path d="M111.24,101.64L111.19,101.61"/><path d="M112.48,100.04L112.59,100.19L112.63,100.35L112.59,100.51L112.49,100.65L112.31,100.78L112.09,100.88L111.84,100.94L112.43,100.93L112.43,101.46"/><path d="M111.71,99.75L111.84,99.76L112.03,99.80"/><path d="M112.63,101.04L112.49,101.33"/><path d="M112.43,100.93L112.59,100.51L112.75,100.24"/><path d="M112.31,99.92L112.31,99.92"/></g><g style="stroke:#000000;stroke-width:0.529"><path d="M112.20,101.53L112.30,101.48L112.43,101.46L112.49,101.33L112.55,101.27L112.63,101.07L112.63,101.04L112.75,100.78L112.75,100.24L112.31,99.92L112.10,99.82L112.03,99.80L111.88,99.74L111.71,99.75L111.56,99.74L111.28,99.76L111.03,99.82L110.95,99.85L110.69,99.93L110.53,100.19L110.37,100.61L110.37,101.14L110.57,101.26L110.60,101.32L110.81,101.48L110.92,101.53"/><path d="M112.20,104.05L112.20,104.46L112.16,104.58L112.05,104.68L111.96,104.73L111.83,104.80L111.70,104.82"/></g></g><g id="Actor_.21"><g style="stroke:#000000;stroke-width:0.176"><path d="M174.90,59.82L174.76,59.80L174.59,59.73"/><path d="M175.68,56.55L175.59,56.60L175.26,56.67L174.91,56.68L174.79,56.66L174.73,56.67L174.73,56.13L175.32,55.96L175.91,55.95L175.91,56.48"/><path d="M174.06,56.28L174.73,56.67"/><path d="M174.79,56.66L175.32,56.58L175.32,56.58"/><path d="M174.41,56.55L174.58,56.62L174.68,56.64"/><path d="M174.43,54.88L174.29,54.94L174.12,55.07L174.01,55.21L173.98,55.37L174.01,55.53L174.12,55.68L174.29,55.81L173.85,55.63"/><path d="M174.73,56.13L174.29,55.81L174.51,55.90L174.77,55.96L175.05,55.98L175.32,55.96L175.57,55.90L175.80,55.81L175.97,55.68L176.07,55.53L176.11,55.38L176.07,55.22L175.97,55.07"/><path d="M175.32,56.58L175.78,56.50"/><path d="M175.91,55.95L176.07,55.53L176.23,55.27"/><path d="M175.80,54.94L175.80,54.94"/><path d="M175.51,54.83L175.32,54.78L175.19,54.77"/><path d="M176.11,56.07L175.98,56.35"/><path d="M176.01,55.10L176.01,55.10"/></g><g style="stroke:#000000;stroke-width:0.529"><path d="M174.41,59.17L174.41,59.51L174.47,59.63L174.59,59.73L174.68,59.78L174.81,59.83L174.93,59.85"/><path d="M174.41,56.55L174.29,56.50L174.09,56.34L174.06,56.28L173.85,56.17L173.85,55.63L174.01,55.21L174.17,54.95L174.43,54.88L174.51,54.84L174.77,54.78L175.04,54.76L175.19,54.77L175.36,54.77L175.51,54.83L175.58,54.84L175.80,54.94"/><path d="M176.01,55.10L176.23,55.27L176.23,55.80L176.11,56.07L176.11,56.10L176.04,56.29L175.98,56.35L175.91,56.48L175.78,56.50L175.68,56.55"/><path d="M176.01,55.10L175.80,54.94"/></g></g><g id="Actor_.22"><g style="stroke:#000000;stroke-width:0.176"><path d="M96.49,104.80L96.35,104.77L96.18,104.70"/><path d="M95.44,100.61L95.88,100.78L96.31,101.11L96.31,101.64L96.91,101.55L96.91,101.55"/><path d="M96.31,101.11L96.91,100.94L97.50,100.93L97.50,101.46"/><path d="M96.31,101.64L95.64,101.26"/><path d="M96.37,101.63L96.50,101.65L96.85,101.65L97.18,101.57L97.27,101.53"/><path d="M95.99,101.53L96.16,101.60L96.27,101.61"/><path d="M96.02,99.85L95.88,99.92L95.71,100.04L95.60,100.19L95.57,100.35L95.60,100.51L95.71,100.66L95.88,100.78L96.10,100.88L96.36,100.94L96.64,100.96L96.91,100.94L97.16,100.88L97.39,100.78L97.56,100.65L97.66,100.51L97.70,100.35L97.66,100.19L97.56,100.04"/><path d="M96.91,101.55L97.37,101.48"/><path d="M97.50,100.93L97.66,100.51L97.82,100.24"/><path d="M97.39,99.92L97.39,99.92"/><path d="M96.78,99.75L96.91,99.76L97.10,99.80"/><path d="M97.70,101.04L97.56,101.33"/></g><g style="stroke:#000000;stroke-width:0.529"><path d="M96.00,104.14L96.00,104.49L96.06,104.60L96.18,104.70L96.26,104.75L96.40,104.81L96.52,104.83"/><path d="M97.27,101.53L97.37,101.48L97.50,101.46L97.56,101.33L97.63,101.27L97.70,101.07L97.70,101.04L97.82,100.78L97.82,100.24L97.39,99.92L97.17,99.82L97.10,99.80L96.95,99.74L96.78,99.75L96.63,99.74L96.36,99.76L96.10,99.82L96.02,99.85L95.76,99.93L95.60,100.19L95.44,100.61L95.44,101.14L95.64,101.26L95.67,101.32L95.88,101.48L95.99,101.53"/></g></g><g id="Actor_.23"><g style="stroke:#000000;stroke-width:0.176"><path d="M272.20,70.94L272.23,70.56L272.34,70.33L272.37,70.28L272.60,70.12L272.90,70.10L273.24,70.23L273.58,70.49L273.88,70.85L274.11,71.28L274.25,71.72L274.27,72.13L274.19,72.47L274.00,72.69L273.73,72.78L273.41,72.72"/><path d="M272.66,69.81L273.01,69.79L273.40,69.94L273.80,70.24L274.15,70.66L274.41,71.16L274.57,71.67L274.61,72.15L274.51,72.54L274.29,72.80"/><path d="M273.60,72.83L273.60,72.83"/><path d="M276.05,67.85L276.03,67.87L275.21,68.34L275.25,67.75L275.34,67.58"/><path d="M275.21,68.34L275.18,68.36"/><path d="M277.58,71.56L277.87,71.61L278.34,71.46L278.66,71.07L278.81,70.48L278.76,69.77L278.52,69.00L278.12,68.26L277.95,68.05L277.60,67.63L277.01,67.18L276.42,66.95L275.90,66.98L275.62,67.17"/><path d="M276.08,66.51L278.17,67.71L278.70,69.06L278.88,69.70L278.93,70.41L278.79,71.00L278.70,71.15L278.17,71.90"/><path d="M278.34,71.46L278.46,71.39L278.70,71.15L279.22,70.40L278.70,69.06L278.64,68.93L278.24,68.19L277.72,67.56L277.13,67.11L276.54,66.88L276.02,66.91L275.90,66.98"/><path d="M277.69,70.84L277.66,70.85L276.89,71.29"/><path d="M278.17,67.71L279.40,67.00"/><path d="M279.22,70.40L280.44,69.70"/></g><g style="stroke:#000000;stroke-width:0.529"><path d="M278.91,66.58L278.52,66.31L278.00,66.06L277.31,65.81L276.08,66.51L275.62,67.17L275.49,67.26L275.34,67.58L275.04,68.01L275.18,68.36L272.66,69.81L272.39,70.00L272.23,70.33L272.20,70.77L272.20,70.94L272.29,71.37L272.47,71.81L272.74,72.21L273.07,72.53L273.60,72.83L273.98,72.90L274.29,72.80L276.89,71.29L277.01,71.37L277.31,71.51L277.58,71.56L278.17,71.90L279.40,71.20L279.81,70.72L280.08,70.36L280.29,70.03L280.44,69.70L280.29,68.90L280.08,68.26L279.81,67.66L279.40,67.00"/></g></g><g id="Actor_.24"><g style="stroke:#000000;stroke-width:0.176"><path d="M140.77,88.20L140.61,88.28L140.42,88.33L140.21,88.33L140.01,88.30L139.83,88.23"/><path d="M141.16,84.98L141.16,84.45L140.56,84.46L140.29,84.48L140.01,84.46L139.75,84.40L139.53,84.30L139.97,84.63L139.97,85.16L140.56,85.07L140.56,85.07"/><path d="M139.10,84.13L139.53,84.30L139.36,84.18L139.26,84.03L139.22,83.87L139.26,83.71L139.36,83.57L139.53,83.44L139.68,83.38"/><path d="M139.97,84.63L140.56,84.46L140.82,84.40L141.04,84.30L141.21,84.18L141.32,84.03L141.16,84.45"/><path d="M139.30,84.78L139.97,85.16"/><path d="M140.92,85.05L140.83,85.10L140.51,85.17L140.15,85.18L140.03,85.16"/><path d="M139.65,85.05L139.82,85.12L139.92,85.14"/><path d="M140.56,85.07L141.02,85.00"/><path d="M141.48,83.77L141.32,84.03L141.35,83.87L141.32,83.71L141.21,83.57"/><path d="M141.04,83.44L141.04,83.44"/><path d="M140.76,83.33L140.56,83.28L140.43,83.27"/><path d="M141.22,84.85L141.35,84.57"/></g><g style="stroke:#000000;stroke-width:0.529"><path d="M139.65,86.79L139.65,88.01L139.71,88.13L139.83,88.23L139.92,88.28L140.06,88.33L140.22,88.36L140.39,88.36L140.55,88.32L140.68,88.26L140.77,88.20L140.88,88.10L140.93,87.98L140.92,86.79"/><path d="M139.65,85.05L139.53,85.00L139.33,84.84L139.30,84.78L139.10,84.67L139.10,84.13L139.26,83.71L139.42,83.45L139.68,83.38L139.76,83.34L140.01,83.28L140.28,83.26L140.43,83.27L140.60,83.27L140.76,83.33L140.82,83.34L141.04,83.44"/><path d="M141.04,83.44L141.48,83.77L141.48,84.30L141.35,84.57L141.35,84.60L141.28,84.79L141.22,84.85L141.16,84.98L141.02,85.00L140.92,85.05"/></g></g><g id="Actor_.25"><g style="stroke:#000000;stroke-width:0.176"><path d="M36.14,186.84L36.58,187.24L37.02,187.53L36.56,187.34L36.12,187.29L35.74,187.41L35.45,187.68L35.27,188.07L35.21,188.58L35.27,189.16L35.45,189.78L35.74,190.37L36.12,190.92L36.56,191.39L37.02,191.72L37.48,191.92L37.92,191.96L38.30,191.84L38.59,191.57L38.77,191.18L38.83,190.67L38.77,190.08L38.59,189.48L38.30,188.89L37.92,188.33L37.48,187.87L37.02,187.53L37.53,187.79L38.23,188.04L38.38,188.84L38.59,189.48L38.86,190.08L39.27,190.73L38.86,191.21L38.59,191.57L38.38,191.90L38.23,192.23"/><path d="M37.93,186.46L39.45,187.33L38.23,188.04"/><path d="M39.15,187.16L38.64,186.74"/><path d="M39.27,190.73L40.50,190.03"/><path d="M39.92,190.86L40.20,190.46"/><path d="M39.45,187.33L40.35,189.66"/><path d="M40.31,189.54L40.30,189.38L40.09,188.61L39.72,187.86L39.60,187.71"/><path d="M43.33,187.57L43.32,187.11L43.18,186.60L43.09,186.42L42.92,186.10L42.59,185.66L42.20,185.34"/><path d="M42.97,188.18L42.97,188.18"/></g><g style="stroke:#000000;stroke-width:0.529"><path d="M42.97,188.18L40.35,189.66L40.50,190.03L40.20,190.46L40.14,190.64L39.92,190.86L39.45,191.53L38.23,192.23L37.53,191.98L37.02,191.72L36.58,191.43L36.14,191.03L35.73,190.37L35.45,189.78L35.25,189.13L35.09,188.34L35.25,188.00L35.45,187.68L35.73,187.32L36.14,186.84L37.36,186.14L37.93,186.46L38.04,186.46L38.63,186.73L38.64,186.74L41.16,185.31L41.44,185.15L41.80,185.16L42.20,185.34L42.35,185.43L42.69,185.71L42.98,186.08L43.20,186.51L43.32,186.95L43.33,187.36L43.33,187.57L43.21,187.94L42.97,188.18"/></g></g><g id="Actor_.26"><g style="stroke:#000000;stroke-width:0.176"><path d="M188.98,56.28L189.60,56.64L189.50,56.62L189.33,56.55"/><path d="M188.78,55.63L189.22,55.81L189.05,55.68L188.94,55.53L188.91,55.37L188.94,55.21L189.05,55.07L189.22,54.94L189.36,54.88"/><path d="M190.84,56.48L190.84,55.95L190.25,55.96L189.65,56.13L189.22,55.81L189.44,55.90L189.70,55.96L189.97,55.98L190.25,55.96L190.50,55.90L190.73,55.81L190.90,55.68L191.00,55.53L191.04,55.38L191.00,55.22L190.90,55.07"/><path d="M190.46,59.71L190.30,59.78L190.15,59.82"/><path d="M190.25,56.58L190.71,56.50"/><path d="M190.61,56.55L190.52,56.60L190.19,56.67L189.84,56.68L189.71,56.66L190.25,56.58"/><path d="M189.71,56.66L189.65,56.67L189.60,56.64"/><path d="M189.65,56.67L189.65,56.13"/><path d="M190.12,54.77L190.25,54.78L190.44,54.83"/><path d="M190.61,59.48L190.61,59.48"/><path d="M191.04,56.07L190.90,56.35"/><path d="M190.84,55.95L191.00,55.53L191.16,55.27"/><path d="M190.94,55.10L190.94,55.10"/><path d="M190.73,54.94L190.73,54.94"/></g><g style="stroke:#000000;stroke-width:0.529"><path d="M190.73,54.94L190.51,54.84L190.44,54.83L190.29,54.77L190.12,54.77L189.97,54.76L189.70,54.78L189.44,54.84L189.36,54.88L189.10,54.95L188.94,55.21L188.78,55.63L188.78,56.17L188.98,56.28L189.01,56.34L189.22,56.50L189.33,56.55"/><path d="M190.61,59.48L190.57,59.60L190.46,59.71L190.37,59.76L190.24,59.82L190.11,59.85"/><path d="M190.61,59.08L190.61,59.48"/><path d="M190.61,56.55L190.71,56.50L190.84,56.48L190.90,56.35L190.96,56.29L191.04,56.10L191.04,56.07L191.16,55.80L191.16,55.27L190.94,55.10"/><path d="M190.73,54.94L190.94,55.10"/></g></g><g><g><path style="stroke:#000000;stroke-width:0.125;stroke-dasharray:2.2 1.4 0.7 1.4" d="M31.80,50.70L24.15,46.31"/></g></g><g><g><path style="stroke:#000000;stroke-width:0.125;stroke-dasharray:2.2 1.4 0.7 1.4" d="M242.58,70.88L254.24,64.20"/></g></g><g><g><path style="stroke:#000000;stroke-width:0.125;stroke-dasharray:2.2 1.4 0.7 1.4" d="M243.31,71.30L258.16,62.79"/></g></g><g><g><path style="stroke:#000000;stroke-width:0.125;stroke-dasharray:2.2 1.4 0.7 1.4" d="M258.39,79.95L273.24,71.44"/></g></g><g><g><path style="stroke:#000000;stroke-width:0.125;stroke-dasharray:2.2 1.4 0.7 1.4" d="M253.09,76.91L269.32,67.60"/></g></g><g><g><path style="stroke:#000000;stroke-width:0.125;stroke-dasharray:2.2 1.4 0.7 1.4" d="M50.32,68.77L42.16,64.08"/><path style="stroke:#000000;stroke-width:0.125;stroke-dasharray:2.2 1.4 0.7 1.4" d="M61.65,75.26L53.44,70.55"/><path style="stroke:#000000;stroke-width:0.125;stroke-dasharray:2.2 1.4 0.7 1.4" d="M64.76,77.05L74.36,82.55"/><path style="stroke:#000000;stroke-width:0.125;stroke-dasharray:2.2 1.4 0.7 1.4" d="M82.81,87.40L99.59,97.02"/><path style="stroke:#000000;stroke-width:0.125;stroke-dasharray:2.2 1.4 0.7 1.4" d="M131.65,115.41L112.20,104.26"/><path style="stroke:#000000;stroke-width:0.125;stroke-dasharray:2.2 1.4 0.7 1.4" d="M143.12,121.99L138.87,119.56"/></g></g><g><g><path style="stroke:#000000;stroke-width:0.125;stroke-dasharray:2.2 1.4 0.7 1.4" d="M218.70,51.15L218.70,99.00"/></g></g><g><g><path style="stroke:#000000;stroke-width:0.125;stroke-dasharray:2.2 1.4 0.7 1.4" d="M182.51,120.36L182.51,71.91"/></g></g><g><g><path style="stroke:#000000;stroke-width:0.125;stroke-dasharray:2.2 1.4 0.7 1.4" d="M140.29,96.13L140.29,143.98"/></g></g><g><g><path style="stroke:#000000;stroke-width:0.125;stroke-dasharray:2.2 1.4 0.7 1.4" d="M55.97,177.92L42.57,185.61"/></g></g><g><g><path style="stroke:#000000;stroke-width:0.125;stroke-dasharray:2.2 1.4 0.7 1.4" d="M104.10,165.34L104.10,116.88"/></g></g><g><g><path style="stroke:#000000;stroke-width:0.125;stroke-dasharray:2.2 1.4 0.7 1.4" d="M58.48,177.32L43.03,186.18"/></g></g><g><g><path style="stroke:#000000;stroke-width:0.125;stroke-dasharray:2.2 1.4 0.7 1.4" d="M71.05,181.33L55.37,190.32"/></g></g><g><g><path style="stroke:#000000;stroke-width:0.125;stroke-dasharray:2.2 1.4 0.7 1.4" d="M73.56,185.97L58.11,194.83"/></g></g><g id="PMI.0"><g><path style="stroke:#000000;stroke-width:0.125" d="M17.82,21.97L23.62,44.42"/></g><g><path style="fill:#000000" d="M24.37,44.42L24.37,44.34L24.36,44.27L24.34,44.20L24.31,44.13L24.28,44.06L24.24,44.00L24.20,43.94L24.15,43.89L24.10,43.84L24.04,43.79L23.97,43.75L23.91,43.72L23.84,43.70L23.77,43.68L23.69,43.67L23.62,43.67L23.55,43.67L23.47,43.68L23.40,43.70L23.33,43.72L23.27,43.75L23.20,43.79L23.14,43.84L23.09,43.89L23.04,43.94L23.00,44.00L22.96,44.06L22.93,44.13L22.90,44.20L22.88,44.27L22.87,44.34L22.87,44.42L22.87,44.49L22.88,44.56L22.90,44.63L22.93,44.70L22.96,44.77L23.00,44.83L23.04,44.89L23.09,44.95L23.14,45.00L23.20,45.04L23.27,45.08L23.33,45.11L23.40,45.13L23.47,45.15L23.55,45.16L23.62,45.17L23.69,45.16L23.77,45.15L23.84,45.13L23.91,45.11L23.97,45.08L24.04,45.04L24.10,45.00L24.15,44.95L24.20,44.89L24.24,44.83L24.28,44.77L24.31,44.70L24.34,44.63L24.36,44.56L24.37,44.49z"/></g><g><text xml:space="preserve" fill="#000000" stroke-width="0" x="10.09" y="21.20" font-size="3.78" opacity="1.00" font-family="Arial">ND0839</text></g></g><g id="PMI.1"><g><path style="stroke:#000000;stroke-width:0.125" d="M45.50,21.97L39.15,59.02"/></g><g><path style="fill:#000000" d="M39.90,59.02L39.90,58.94L39.88,58.87L39.87,58.80L39.84,58.73L39.81,58.66L39.77,58.60L39.73,58.54L39.68,58.49L39.62,58.44L39.57,58.39L39.50,58.36L39.44,58.33L39.37,58.30L39.30,58.28L39.22,58.27L39.15,58.27L39.08,58.27L39.00,58.28L38.93,58.30L38.86,58.33L38.80,58.36L38.73,58.39L38.67,58.44L38.62,58.49L38.57,58.54L38.53,58.60L38.49,58.66L38.46,58.73L38.43,58.80L38.41,58.87L38.40,58.94L38.40,59.02L38.40,59.09L38.41,59.16L38.43,59.24L38.46,59.31L38.49,59.37L38.53,59.43L38.57,59.49L38.62,59.55L38.67,59.60L38.73,59.64L38.80,59.68L38.86,59.71L38.93,59.74L39.00,59.75L39.08,59.76L39.15,59.77L39.22,59.76L39.30,59.75L39.37,59.74L39.44,59.71L39.50,59.68L39.57,59.64L39.62,59.60L39.68,59.55L39.73,59.49L39.77,59.43L39.81,59.37L39.84,59.31L39.87,59.24L39.88,59.16L39.90,59.09z"/></g><g><text xml:space="preserve" fill="#000000" stroke-width="0" x="38.03" y="21.20" font-size="3.79" opacity="1.00" font-family="Arial">BPA8018</text></g></g><g id="PMI.2"><g><path style="stroke:#000000;stroke-width:0.125" d="M278.24,21.97L279.40,67.00"/></g><g><path style="fill:#000000" d="M280.15,67.00L280.15,66.93L280.13,66.86L280.12,66.79L280.09,66.72L280.06,66.65L280.02,66.59L279.98,66.53L279.93,66.47L279.87,66.42L279.82,66.38L279.75,66.34L279.69,66.31L279.62,66.29L279.55,66.27L279.47,66.26L279.40,66.25L279.33,66.26L279.25,66.27L279.18,66.29L279.11,66.31L279.05,66.34L278.98,66.38L278.92,66.42L278.87,66.47L278.82,66.53L278.78,66.59L278.74,66.65L278.71,66.72L278.68,66.79L278.66,66.86L278.65,66.93L278.65,67.00L278.65,67.08L278.66,67.15L278.68,67.22L278.71,67.29L278.74,67.36L278.78,67.42L278.82,67.48L278.87,67.54L278.92,67.58L278.98,67.63L279.05,67.67L279.11,67.70L279.18,67.72L279.25,67.74L279.33,67.75L279.40,67.75L279.47,67.75L279.55,67.74L279.62,67.72L279.69,67.70L279.75,67.67L279.82,67.63L279.87,67.58L279.93,67.54L279.98,67.48L280.02,67.42L280.06,67.36L280.09,67.29L280.12,67.22L280.13,67.15L280.15,67.08z"/></g><g><text xml:space="preserve" fill="#000000" stroke-width="0" x="271.23" y="21.20" font-size="3.78" opacity="1.00" font-family="Arial">ND0861</text></g></g><g id="PMI.3"><g><path style="stroke:#000000;stroke-width:0.125" d="M73.69,21.97L53.98,67.36"/></g><g><path style="fill:#000000" d="M54.73,67.36L54.73,67.29L54.72,67.22L54.70,67.14L54.68,67.08L54.64,67.01L54.61,66.95L54.56,66.89L54.51,66.83L54.46,66.78L54.40,66.74L54.34,66.70L54.27,66.67L54.20,66.64L54.13,66.63L54.06,66.62L53.98,66.61L53.91,66.62L53.84,66.63L53.77,66.64L53.70,66.67L53.63,66.70L53.57,66.74L53.51,66.78L53.45,66.83L53.40,66.89L53.36,66.95L53.32,67.01L53.29,67.08L53.27,67.14L53.25,67.22L53.24,67.29L53.23,67.36L53.24,67.44L53.25,67.51L53.27,67.58L53.29,67.65L53.32,67.72L53.36,67.78L53.40,67.84L53.45,67.89L53.51,67.94L53.57,67.99L53.63,68.02L53.70,68.06L53.77,68.08L53.84,68.10L53.91,68.11L53.98,68.11L54.06,68.11L54.13,68.10L54.20,68.08L54.27,68.06L54.34,68.02L54.40,67.99L54.46,67.94L54.51,67.89L54.56,67.84L54.61,67.78L54.64,67.72L54.68,67.65L54.70,67.58L54.72,67.51L54.73,67.44z"/></g><g><text xml:space="preserve" fill="#000000" stroke-width="0" x="66.50" y="21.20" font-size="3.81" opacity="1.00" font-family="Arial">MGB0012</text></g></g><g id="PMI.4"><g><path style="stroke:#000000;stroke-width:0.125" d="M101.89,21.97L65.80,73.62"/></g><g><path style="fill:#000000" d="M66.55,73.62L66.55,73.55L66.54,73.47L66.52,73.40L66.50,73.33L66.47,73.27L66.43,73.20L66.38,73.14L66.33,73.09L66.28,73.04L66.22,73.00L66.16,72.96L66.09,72.93L66.02,72.90L65.95,72.89L65.88,72.87L65.80,72.87L65.73,72.87L65.66,72.89L65.59,72.90L65.52,72.93L65.45,72.96L65.39,73.00L65.33,73.04L65.27,73.09L65.22,73.14L65.18,73.20L65.14,73.27L65.11,73.33L65.09,73.40L65.07,73.47L65.06,73.55L65.05,73.62L65.06,73.69L65.07,73.77L65.09,73.84L65.11,73.91L65.14,73.97L65.18,74.04L65.22,74.10L65.27,74.15L65.33,74.20L65.39,74.24L65.45,74.28L65.52,74.31L65.59,74.34L65.66,74.36L65.73,74.37L65.80,74.37L65.88,74.37L65.95,74.36L66.02,74.34L66.09,74.31L66.16,74.28L66.22,74.24L66.28,74.20L66.33,74.15L66.38,74.10L66.43,74.04L66.47,73.97L66.50,73.91L66.52,73.84L66.54,73.77L66.55,73.69z"/></g><g><text xml:space="preserve" fill="#000000" stroke-width="0" x="95.52" y="21.20" font-size="3.81" opacity="1.00" font-family="Arial">MGB0012</text></g></g><g id="PMI.5"><g><path style="stroke:#000000;stroke-width:0.125" d="M130.79,21.97L88.06,81.73"/></g><g><path style="fill:#000000" d="M88.81,81.73L88.80,81.66L88.79,81.59L88.77,81.52L88.75,81.45L88.72,81.38L88.68,81.32L88.63,81.26L88.59,81.20L88.53,81.15L88.47,81.11L88.41,81.07L88.34,81.04L88.27,81.02L88.20,81.00L88.13,80.99L88.06,80.98L87.98,80.99L87.91,81.00L87.84,81.02L87.77,81.04L87.70,81.07L87.64,81.11L87.58,81.15L87.52,81.20L87.48,81.26L87.43,81.32L87.39,81.38L87.36,81.45L87.34,81.52L87.32,81.59L87.31,81.66L87.31,81.73L87.31,81.81L87.32,81.88L87.34,81.95L87.36,82.02L87.39,82.09L87.43,82.15L87.48,82.21L87.52,82.26L87.58,82.31L87.64,82.36L87.70,82.39L87.77,82.43L87.84,82.45L87.91,82.47L87.98,82.48L88.06,82.48L88.13,82.48L88.20,82.47L88.27,82.45L88.34,82.43L88.41,82.39L88.47,82.36L88.53,82.31L88.59,82.26L88.63,82.21L88.68,82.15L88.72,82.09L88.75,82.02L88.77,81.95L88.79,81.88L88.80,81.81z"/></g><g><text xml:space="preserve" fill="#000000" stroke-width="0" x="124.89" y="21.20" font-size="3.79" opacity="1.00" font-family="Arial">KKR0050</text></g></g><g><g><path style="stroke:#000000;stroke-width:0.125" d="M244.66,21.97L224.81,35.61"/></g><g><path style="fill:#000000" d="M225.56,35.61L225.55,35.53L225.54,35.46L225.52,35.39L225.50,35.32L225.47,35.25L225.43,35.19L225.39,35.13L225.34,35.08L225.28,35.03L225.22,34.98L225.16,34.95L225.09,34.92L225.02,34.89L224.95,34.87L224.88,34.86L224.81,34.86L224.73,34.86L224.66,34.87L224.59,34.89L224.52,34.92L224.45,34.95L224.39,34.98L224.33,35.03L224.28,35.08L224.23,35.13L224.18,35.19L224.15,35.25L224.11,35.32L224.09,35.39L224.07,35.46L224.06,35.53L224.06,35.61L224.06,35.68L224.07,35.75L224.09,35.83L224.11,35.90L224.15,35.96L224.18,36.02L224.23,36.08L224.28,36.14L224.33,36.19L224.39,36.23L224.45,36.27L224.52,36.30L224.59,36.33L224.66,36.34L224.73,36.35L224.81,36.36L224.88,36.35L224.95,36.34L225.02,36.33L225.09,36.30L225.16,36.27L225.22,36.23L225.28,36.19L225.34,36.14L225.39,36.08L225.43,36.02L225.47,35.96L225.50,35.90L225.52,35.83L225.54,35.75L225.55,35.68z"/></g><g><text xml:space="preserve" fill="#000000" stroke-width="0" x="242.03" y="21.20" font-size="3.77" opacity="1.00" font-family="Arial">KIT0016</text></g></g><g><g><path style="stroke:#000000;stroke-width:0.125" d="M217.13,21.97L186.79,52.99"/></g><g><path style="fill:#000000" d="M187.54,52.99L187.54,52.92L187.53,52.85L187.51,52.77L187.49,52.70L187.46,52.64L187.42,52.58L187.37,52.52L187.32,52.46L187.27,52.41L187.21,52.37L187.15,52.33L187.08,52.30L187.01,52.27L186.94,52.26L186.87,52.25L186.79,52.24L186.72,52.25L186.65,52.26L186.58,52.27L186.51,52.30L186.44,52.33L186.38,52.37L186.32,52.41L186.26,52.46L186.21,52.52L186.17,52.58L186.13,52.64L186.10,52.70L186.08,52.77L186.06,52.85L186.05,52.92L186.04,52.99L186.05,53.07L186.06,53.14L186.08,53.21L186.10,53.28L186.13,53.35L186.17,53.41L186.21,53.47L186.26,53.52L186.32,53.57L186.38,53.62L186.44,53.65L186.51,53.68L186.58,53.71L186.65,53.73L186.72,53.74L186.79,53.74L186.87,53.74L186.94,53.73L187.01,53.71L187.08,53.68L187.15,53.65L187.21,53.62L187.27,53.57L187.32,53.52L187.37,53.47L187.42,53.41L187.46,53.35L187.49,53.28L187.51,53.21L187.53,53.14L187.54,53.07z"/></g><g><text xml:space="preserve" fill="#000000" stroke-width="0" x="213.02" y="21.20" font-size="3.77" opacity="1.00" font-family="Arial">KIT0016</text></g></g><g><g><path style="stroke:#000000;stroke-width:0.125" d="M188.78,21.97L145.98,77.97"/></g><g><path style="fill:#000000" d="M146.73,77.97L146.72,77.89L146.71,77.82L146.69,77.75L146.67,77.68L146.64,77.61L146.60,77.55L146.56,77.49L146.51,77.44L146.45,77.39L146.39,77.34L146.33,77.31L146.26,77.27L146.19,77.25L146.12,77.23L146.05,77.22L145.98,77.22L145.90,77.22L145.83,77.23L145.76,77.25L145.69,77.27L145.62,77.31L145.56,77.34L145.50,77.39L145.45,77.44L145.40,77.49L145.35,77.55L145.32,77.61L145.28,77.68L145.26,77.75L145.24,77.82L145.23,77.89L145.23,77.97L145.23,78.04L145.24,78.11L145.26,78.18L145.28,78.25L145.32,78.32L145.35,78.38L145.40,78.44L145.45,78.50L145.50,78.55L145.56,78.59L145.62,78.63L145.69,78.66L145.76,78.68L145.83,78.70L145.90,78.71L145.98,78.72L146.05,78.71L146.12,78.70L146.19,78.68L146.26,78.66L146.33,78.63L146.39,78.59L146.45,78.55L146.51,78.50L146.56,78.44L146.60,78.38L146.64,78.32L146.67,78.25L146.69,78.18L146.71,78.11L146.72,78.04z"/></g><g><text xml:space="preserve" fill="#000000" stroke-width="0" x="184.00" y="21.20" font-size="3.77" opacity="1.00" font-family="Arial">KIT0016</text></g></g><g><g><path style="stroke:#000000;stroke-width:0.125" d="M159.96,21.97L106.83,97.73"/></g><g><path style="fill:#000000" d="M107.58,97.73L107.58,97.65L107.57,97.58L107.55,97.51L107.52,97.44L107.49,97.37L107.45,97.31L107.41,97.25L107.36,97.20L107.31,97.15L107.25,97.10L107.18,97.06L107.12,97.03L107.05,97.01L106.98,96.99L106.90,96.98L106.83,96.98L106.76,96.98L106.68,96.99L106.61,97.01L106.54,97.03L106.48,97.06L106.41,97.10L106.35,97.15L106.30,97.20L106.25,97.25L106.21,97.31L106.17,97.37L106.14,97.44L106.11,97.51L106.09,97.58L106.08,97.65L106.08,97.73L106.08,97.80L106.09,97.87L106.11,97.94L106.14,98.01L106.17,98.08L106.21,98.14L106.25,98.20L106.30,98.26L106.35,98.31L106.41,98.35L106.48,98.39L106.54,98.42L106.61,98.44L106.68,98.46L106.76,98.47L106.83,98.48L106.90,98.47L106.98,98.46L107.05,98.44L107.12,98.42L107.18,98.39L107.25,98.35L107.31,98.31L107.36,98.26L107.41,98.20L107.45,98.14L107.49,98.08L107.52,98.01L107.55,97.94L107.57,97.87L107.58,97.80z"/></g><g><text xml:space="preserve" fill="#000000" stroke-width="0" x="154.99" y="21.20" font-size="3.77" opacity="1.00" font-family="Arial">KIT0016</text></g></g><g/><g><g/><g><text xml:space="preserve" fill="#000000" stroke-width="0" x="7.35" y="11.21" font-size="4.53" opacity="1.00" font-family="Arial" font-weight="bold">BPA8034</text></g></g><g id="paperID" visibility="hidden" opacity="0.00" transform="scale(0.000100)"><path style="stroke:#000000;stroke-width:0.500;fill:#e6e6e6;fill-rule:evenodd" d="M-2000.00,-2000.00L2297.00,-2000.00L2297.00,2210.00L-2000.00,2210.00zM0.00,0.00L297.00,0.00L297.00,210.00L0.00,210.00z"/><path style="fill:#000000;fill-opacity:0.118" d="M3.00,210.00L297.00,210.00L297.00,3.00L300.00,3.00L300.00,213.00L3.00,213.00z"/></g></g></svg>
