<?xml version="1.0" encoding="UTF-8" standalone="no"?>
<svg xmlns="http://www.w3.org/2000/svg" xmlns:xlink="http://www.w3.org/1999/xlink" width="297.000mm" height="210.000mm" viewBox="0.000000 0.000000 297.000000 210.000000" stroke-linejoin="round" stroke-linecap="round" fill="none" fill-rule="evenodd"><desc>Composer Export</desc><script type="text/ecmascript"><![CDATA[
if(typeof(top) != "undefined")
{
	top.ShowPaper = ShowPaper;
}
function ShowHotSpot(evt,hotspotid)
{
	var svgDocument = evt.target.ownerDocument;
	var strId = "hotspot."+hotspotid;
	var hotspot = svgDocument.getElementById(strId);
	if(hotspot)
		hotspot.setAttribute("opacity",".5");
}
function HideHotSpot(evt,hotspotid)
{
	var svgDocument = evt.target.ownerDocument;
	var strId = "hotspot."+hotspotid;
	var hotspot = svgDocument.getElementById(strId);
	if(hotspot)
		hotspot.setAttribute("opacity","0");

	var toolTip = svgDocument.getElementById('ToolTip');
	if(toolTip)
		toolTip.setAttribute("visibility","hidden");
}
function ShowToolTip(evt,hotspotid,strTooltip)
{
	if(strTooltip=="")
	return;

	// change text
	var svgDocument = evt.target.ownerDocument;
	var tiptext = svgDocument.getElementById('ToolTipText');
	if( !tiptext )
	return;
	tiptext.firstChild.nodeValue = " " + strTooltip + "  " ;

	// show tooltip before, else some refresh issue

	var toolTip = svgDocument.getElementById('ToolTip');
	if(!toolTip)
	return;

	toolTip.setAttribute("visibility","visible");
	toolTip.setAttribute("opacity",".95");

	// move tooltip
	// get viewbox

	var root = svgDocument.documentElement;
	var vbox = (root.getAttribute("viewBox")).split(' ');
	var x0 = parseFloat(vbox[0]);
	var y0 = parseFloat(vbox[1]);
	var vboxW = parseFloat(vbox[2]);
	var vboxH = parseFloat(vbox[3]);

	// get default width of svg

	var strW = root.getAttribute("width");
	var svgW = parseFloat(strW);
	if(strW.indexOf('mm') != -1)
	svgW *= 3.779;

	var strH = root.getAttribute("height");
	var svgH = parseFloat(strH);
	if(strH.indexOf('mm') != -1)
	svgH *= 3.779;  	// 96 dpi  -> 96/25.4 = 3.779

	// update the viewbox / width / height if svg is embedded in html with zoom fit all
	var realx0 = x0;
	var realy0 = y0;
	var realvboxW = vboxW;
	var realvboxH = vboxH;
	var realsvgW = svgW;
	var realsvgH = svgH;

	if ((typeof(top) == "undefined") || (typeof(top.svgctl1) != "undefined")) // embedded in html
	{
		// get window size in pxl

		svgW = window.innerWidth;
		svgH = window.innerHeight;

		// calculate real viewbox

		realsvgW = svgW;
		realsvgH = svgH;
		if((svgW / svgH) > (vboxW / vboxH))
		{
			realvboxW = (vboxH * svgW) / svgH;
			realvboxH = vboxH;
			realx0 = x0 - (realvboxW - vboxW)/2 ;
		}
		else
		{
			realvboxH = (vboxW * svgH) / svgW;
			realvboxW = vboxW;
			realy0 = y0 - (realvboxH - vboxH)/2 ;
		}
	}

	// get user zoom/pan

	var newScale = root.currentScale;
	var translation = root.currentTranslate;

	// transform pxl to user unit

	var xPos = (((evt.clientX+10- translation.x)/newScale) * realvboxW)/realsvgW  + realx0 ;
	var yPos = (((evt.clientY+5- translation.y)/newScale) * realvboxH)/ realsvgH  + realy0 ;
	var scaleForWidth = ( (1 / newScale) * realvboxH) / realsvgH;

	// move tooltip

	toolTip.setAttribute("transform", "translate(" + xPos + "," + yPos + ")" );

	// resize tooltip

	var fontsize = 12;
	tiptext.setAttribute("font-size",fontsize*scaleForWidth);
	tiptext.setAttribute("y", fontsize*scaleForWidth);
	var tipBG = svgDocument.getElementById('ToolTipBG');
	var outline = tiptext.getBBox();
	if(tipBG)
	{
		tipBG.setAttribute("stroke-width", 1*scaleForWidth);
		tipBG.setAttribute("width", Number(outline.width) );
		tipBG.setAttribute("height", Number(outline.height) + fontsize*.5*scaleForWidth );
	}
	var ToolTipShadow = svgDocument.getElementById('ToolTipShadow');
	if(ToolTipShadow)
	{
		ToolTipShadow.setAttribute("width", Number(outline.width) );
		ToolTipShadow.setAttribute("height", Number(outline.height) + fontsize*.5*scaleForWidth );
		ToolTipShadow.setAttribute("x", 3*scaleForWidth);
		ToolTipShadow.setAttribute("y", 3*scaleForWidth);
	}
}
function ShowPaper()
{
  var svgDocument = getDocument();
  var paper = svgDocument.getElementById("paperID");
  if(paper)
  {
    paper.setAttribute("transform","scale(1)");
    paper.setAttribute("opacity","1");
    paper.setAttribute("visibility","visible");
  }
  var svg = svgDocument.getRootElement();
  if(svg)
  {
    svg.setAttribute("width","307.000mm");
    svg.setAttribute("height","220.000mm");
    svg.setAttribute("viewBox","-5.000000 -5.000000 307.000000 220.000000");
  }
}
]]></script><defs/><g><path style="fill:#000000;fill-opacity:0.098;fill-rule:evenodd" d="M36.55,25.61L37.09,26.33L37.28,27.66L37.09,28.20L35.27,27.04L34.85,27.04L33.84,27.67L33.09,29.10L33.10,30.14L35.65,31.58L35.88,31.89L35.11,31.59L33.78,32.32L32.73,32.32L31.43,31.41L31.63,31.10L31.82,29.28L32.40,27.87L33.58,26.34L34.67,25.61L35.21,25.43L36.19,25.42zM36.42,32.26L36.00,32.13L35.88,31.89L36.20,31.94zM37.10,32.49L37.33,32.80L36.56,32.48L36.42,32.26zM44.91,33.00L45.26,33.77L45.06,34.92L44.63,35.57L43.56,36.32L42.88,36.32L42.17,35.93L42.05,35.71L42.33,35.63L42.49,35.24L43.02,34.87L43.62,33.83L44.33,33.31L44.33,32.91L44.70,32.84zM38.00,33.03L38.24,33.34L37.46,33.03L37.33,32.80zM38.77,33.71L38.35,33.58L38.24,33.34L38.55,33.39zM40.36,34.48L40.59,34.78L40.11,34.85L39.61,35.99L39.63,37.03L42.17,38.47L42.40,38.78L41.63,38.47L40.30,39.21L39.25,39.21L38.19,38.65L37.96,38.12L38.15,37.99L38.34,36.17L38.92,34.75L39.24,34.12L38.77,33.71L39.09,33.76zM41.13,35.16L40.71,35.03L40.59,34.78L40.91,34.84zM41.81,35.38L42.05,35.71L41.27,35.38L41.13,35.16zM27.49,38.66L27.85,39.75L27.65,40.73L27.33,40.66L25.86,39.73L25.24,39.73L24.14,40.63L23.67,41.61L23.62,42.70L25.68,43.90L25.91,44.21L25.61,44.27L24.72,44.83L22.94,44.83L22.01,43.92L22.20,43.79L22.40,41.79L23.44,39.75L24.76,38.53L25.61,38.11L26.95,38.10zM42.94,39.14L42.52,39.02L42.40,38.78L42.72,38.82zM43.62,39.37L43.85,39.68L43.08,39.37L42.94,39.14zM51.44,39.89L51.78,40.66L51.59,41.81L51.15,42.45L50.08,43.20L49.40,43.20L48.69,42.82L48.57,42.60L48.85,42.51L49.01,42.12L49.39,41.96L50.14,40.72L50.85,40.19L50.85,39.80L51.22,39.72zM44.53,39.92L44.76,40.23L43.98,39.91L43.85,39.68zM45.30,40.59L44.88,40.47L44.76,40.23L45.08,40.27zM45.98,40.82L46.21,41.13L45.43,40.82L45.30,40.59zM46.88,41.37L47.12,41.68L46.34,41.36L46.21,41.13zM47.66,42.04L47.23,41.92L47.12,41.68L47.43,41.72zM48.33,42.27L48.57,42.60L47.79,42.27L47.66,42.04zM26.59,44.45L26.82,44.76L26.05,44.44L25.91,44.21zM27.36,45.12L26.94,45.00L26.82,44.76L27.14,44.80zM28.04,45.35L28.27,45.66L27.50,45.35L27.36,45.12zM35.50,45.69L35.81,46.43L35.65,47.43L35.21,48.25L33.95,49.01L33.11,48.79L31.66,47.89L31.53,47.66L32.92,48.30L33.06,47.93L33.44,47.76L34.15,46.47L34.89,45.89L34.85,45.54L35.27,45.52zM28.94,45.90L29.17,46.21L28.40,45.89L28.27,45.66zM31.30,47.35L31.53,47.66L30.68,47.51L30.19,48.49L30.15,49.59L32.20,50.79L32.44,51.09L31.06,51.72L29.46,51.72L28.53,50.81L28.74,50.66L28.92,48.67L29.85,46.79L29.30,46.44L29.17,46.21L29.48,46.26zM74.61,47.01L75.34,47.52L76.79,48.78L77.68,50.44L78.22,52.79L78.22,54.86L77.86,54.81L72.78,51.71L71.70,51.34L69.58,51.29L70.26,50.14L70.26,49.15L69.70,48.79L69.28,48.79L68.81,49.06L68.06,50.30L68.05,51.36L68.42,51.71L67.47,52.25L65.66,53.52L64.10,55.22L62.48,57.58L61.31,60.22L60.77,63.12L61.00,65.31L61.56,66.61L61.74,66.59L74.62,74.52L76.08,75.31L76.05,71.52L76.58,69.33L78.22,66.07L79.78,64.01L81.24,62.58L82.51,61.68L83.42,61.13L85.05,60.59L87.10,60.43L87.46,60.79L85.77,60.95L83.78,61.49L81.84,62.63L79.68,64.64L78.22,66.80L77.08,69.10L76.41,71.70L76.41,74.18L76.77,75.81L78.43,76.90L78.77,76.96L78.70,73.44L80.03,73.52L80.75,70.97L82.13,68.36L83.40,66.73L85.05,65.12L86.50,64.21L87.83,63.58L87.55,62.38L87.74,62.19L89.64,62.22L90.36,62.39L91.11,62.92L91.99,64.03L92.54,65.66L92.53,69.16L92.36,70.07L91.63,72.24L90.54,74.23L88.84,76.52L87.74,77.41L86.19,78.58L83.79,79.62L81.11,79.62L68.09,71.64L65.89,72.60L64.21,73.09L61.72,73.10L59.91,72.37L55.22,69.45L53.77,67.82L53.32,66.57L57.58,69.16L57.37,68.39L57.20,67.11L57.20,64.63L57.56,62.27L58.83,58.46L60.74,54.95L62.30,52.88L63.38,51.60L65.12,49.89L68.02,47.90L70.37,46.99L71.10,46.81L73.69,46.81zM33.11,51.33L33.34,51.64L32.57,51.33L32.44,51.09zM69.49,51.40L69.09,51.35L69.58,51.29zM33.88,52.01L33.46,51.89L33.34,51.64L33.66,51.69zM34.56,52.24L34.79,52.55L34.02,52.24L33.88,52.01zM42.17,52.78L42.17,54.31L41.73,55.14L40.47,55.89L39.64,55.68L38.19,54.77L38.05,54.54L39.44,55.19L39.58,54.81L39.97,54.64L40.72,53.23L41.42,52.78L41.38,52.43L41.79,52.40zM35.47,52.78L35.70,53.09L34.92,52.78L34.79,52.55zM36.24,53.46L35.82,53.34L35.70,53.09L36.01,53.14zM36.92,53.69L37.15,54.00L36.37,53.69L36.24,53.46zM37.82,54.23L38.05,54.54L37.28,54.23L37.15,54.00zM75.18,55.83L75.04,55.51L75.25,55.30L75.69,55.32L75.63,55.89zM99.08,76.90L99.07,77.32L98.34,77.25L97.43,76.33L97.01,76.33L96.00,77.33L95.56,78.52L96.87,79.26L97.25,79.80L98.45,79.81L98.97,78.67L99.62,78.34L99.35,77.62L99.42,77.60L99.97,78.51L99.97,79.50L99.74,79.80L99.01,80.34L97.81,80.32L97.62,80.15L96.82,80.15L95.92,80.53L95.24,80.54L94.33,79.81L93.72,78.17L94.37,78.53L94.82,78.53L96.27,75.98L98.10,75.23L98.33,75.25zM123.34,81.24L124.07,81.78L124.80,82.69L125.52,84.69L125.51,88.19L124.98,90.37L123.89,92.90L121.89,95.98L120.00,97.90L118.09,99.42L115.68,100.46L113.01,100.46L112.30,100.26L105.24,95.90L104.51,95.37L103.75,94.30L103.77,93.73L109.95,97.43L109.93,94.35L110.46,91.44L111.87,88.13L113.57,85.67L114.84,84.22L116.27,82.93L117.91,81.85L119.65,81.06L120.57,80.88L121.89,80.88zM160.67,85.65L161.57,86.15L163.75,87.77L165.04,89.38L165.74,90.66L165.94,91.27L164.05,91.57L162.06,92.14L161.78,92.11L158.50,90.12L156.86,89.58L155.61,89.41L153.18,89.58L151.00,90.12L148.29,91.39L145.39,93.20L143.45,94.89L142.02,96.18L139.48,99.07L137.11,102.50L134.94,106.49L133.44,110.42L132.58,113.74L132.22,116.27L132.22,120.20L132.57,122.39L132.96,123.27L137.48,126.00L138.76,126.89L139.11,130.17L139.64,132.36L140.00,132.72L141.13,133.29L140.56,129.63L140.56,125.33L141.04,121.83L142.31,117.12L144.18,112.65L146.28,108.77L148.81,104.96L151.35,101.88L154.99,98.28L158.98,95.38L162.12,93.80L164.59,92.84L167.68,92.30L169.37,92.30L172.45,92.89L173.35,93.39L175.19,94.63L176.45,96.08L177.71,98.09L178.60,100.64L179.15,103.89L179.15,107.58L178.97,109.39L178.07,113.74L176.43,118.45L174.44,122.62L171.90,126.78L168.82,130.77L165.76,133.87L163.23,136.04L160.07,138.15L157.17,139.60L154.46,140.51L151.55,140.86L150.52,140.86L148.89,140.68L146.55,139.94L143.10,137.77L141.48,136.13L140.03,133.59L137.29,133.43L135.84,133.07L134.41,132.51L131.33,130.52L130.42,129.80L129.32,128.36L128.04,126.01L127.99,125.45L128.22,125.43L129.35,126.05L128.78,123.10L128.58,119.55L128.90,116.03L129.64,112.60L130.35,110.24L131.98,106.07L133.87,102.34L136.59,98.17L138.67,95.54L140.75,93.28L142.67,91.39L145.83,88.93L149.25,86.92L152.64,85.59L155.54,85.05L157.95,85.05zM205.62,130.52L206.88,132.16L207.60,134.34L207.60,137.65L207.24,139.28L206.15,142.37L204.70,144.90L203.38,146.66L202.00,148.18L199.81,149.98L197.41,151.20L196.49,151.37L193.83,151.38L192.20,150.83L179.53,143.02L177.88,141.21L177.88,140.73L178.08,140.67L189.51,147.75L189.82,147.81L189.98,147.38L190.60,147.43L190.57,144.54L191.10,141.63L192.38,138.56L193.94,135.95L195.57,133.96L197.03,132.52L198.31,131.62L200.71,130.40L202.29,129.99L204.16,130.00L203.93,129.60L204.33,129.61zM228.45,140.15L230.26,141.40L231.34,142.85L232.07,144.66L232.43,147.02L232.25,150.16L231.66,152.83L230.56,155.72L229.16,158.49L227.54,161.03L225.38,163.59L223.74,165.03L221.92,166.47L219.15,167.87L217.15,168.40L214.48,168.41L212.87,167.85L210.33,166.22L209.07,164.76L208.68,164.06L208.62,163.51L208.86,163.48L209.99,164.10L209.60,161.70L209.60,159.58L209.95,157.04L211.04,153.42L212.68,150.16L214.05,147.91L215.60,146.02L216.68,144.74L218.11,143.45L220.59,141.59L223.30,140.31L224.76,139.95L227.35,139.95zM252.72,160.82L254.19,161.86L255.08,163.15L255.62,164.78L255.62,167.74L255.45,168.83L254.89,170.63L253.57,173.48L251.82,176.07L250.11,177.81L248.40,179.17L246.19,180.23L244.69,180.54L243.84,180.54L242.22,180.17L234.98,175.64L234.06,174.57L233.86,174.20L233.81,173.83L234.04,173.81L239.68,177.31L240.04,177.34L240.04,173.72L240.39,171.89L241.25,169.49L242.68,166.93L244.22,164.86L246.14,162.97L248.13,161.70L249.94,160.97L251.81,160.79zM271.21,172.02L272.14,172.55L273.20,173.66L273.92,175.65L273.92,178.79L273.56,180.42L272.48,183.32L271.75,184.59L270.12,186.94L266.98,189.96L266.32,191.67L264.85,192.38L265.23,189.85L266.67,189.11L268.78,187.41L270.30,185.49L271.70,183.09L272.47,180.78L272.85,178.02L272.46,176.21L271.94,175.82L271.23,174.54L270.66,174.02L270.12,173.84L268.06,173.84L266.62,174.38L264.26,176.01L262.80,177.63L261.26,179.90L260.15,182.41L259.79,184.05L259.79,187.25L259.96,187.98L260.33,188.70L261.07,189.59L262.32,190.16L264.88,190.14L264.56,191.54L264.33,191.20L264.08,191.21L263.78,191.47L263.72,192.21L264.26,192.15L264.56,191.54L264.50,192.56L264.10,192.70L262.80,192.70L262.89,191.76L262.14,191.24L260.33,190.51L258.90,189.23L258.45,188.19L258.72,188.19L258.70,184.05L259.37,181.45L260.88,178.43L262.34,176.27L263.72,174.75L265.90,173.12L267.58,172.26L268.97,171.85L270.48,171.85zM60.64,61.67L60.65,62.82L60.29,63.74L59.67,64.20L58.83,64.21L58.65,64.03L58.64,62.81L59.39,61.74L59.67,61.47L60.29,61.47zM89.13,68.52L89.47,69.48L89.27,70.79L88.85,72.00L87.47,74.06L86.76,74.61L85.42,75.27L84.37,75.27L83.67,74.89L83.29,74.18L83.29,72.06L83.57,71.25L84.51,70.01L85.30,68.63L86.68,67.65L87.46,67.46zM66.46,70.71L66.21,71.09L65.35,71.09L65.17,70.91L65.12,69.99L65.34,69.97zM99.05,79.32L99.45,79.07L99.36,79.63L99.05,79.62zM124.28,84.47L124.61,85.22L124.79,87.46L124.43,89.64L123.88,91.27L122.62,93.80L121.29,95.56L120.10,96.90L117.83,98.62L116.05,99.37L114.58,99.55L113.36,99.38L112.12,98.63L111.38,97.74L111.01,97.02L110.83,96.29L110.84,92.90L111.38,90.90L112.29,88.73L114.03,86.12L115.48,84.49L117.30,83.05L119.11,82.14L120.26,81.95zM168.13,108.94L168.47,109.69L168.64,111.50L168.46,113.74L168.10,115.37L167.01,118.27L165.56,120.80L164.29,122.62L162.14,124.81L159.71,126.55L157.36,127.46L154.50,127.46L153.25,126.89L151.97,125.46L151.42,124.38L151.24,123.65L151.01,121.11L151.55,117.85L152.88,114.46L154.79,111.30L157.33,108.59L158.62,107.52L160.07,106.61L161.69,105.88L163.03,105.69zM205.96,133.45L206.29,134.20L207.06,134.52L207.23,136.32L206.88,138.92L205.91,141.77L204.70,144.18L202.46,147.19L199.92,149.36L197.76,150.47L196.31,150.83L194.73,150.83L194.02,150.64L193.47,150.10L192.03,149.19L191.28,147.58L191.11,146.66L191.11,143.82L191.65,141.27L193.10,138.02L194.93,135.31L196.75,133.32L199.21,131.62L201.39,130.69L201.62,130.70zM225.19,145.56L226.10,147.01L227.73,148.09L227.90,148.83L227.90,151.97L227.54,153.42L226.63,155.78L225.85,157.17L223.75,159.96L221.66,161.68L219.87,162.61L218.42,162.97L217.20,162.97L216.12,162.61L215.04,161.87L214.30,160.44L214.12,159.71L214.12,156.32L214.85,153.78L216.24,151.01L217.41,149.45L218.85,147.82L221.32,146.11L222.76,145.57L224.64,145.39zM254.34,164.43L254.72,165.50L254.72,168.46L254.54,169.37L253.81,171.54L252.54,173.90L251.20,175.82L248.94,177.91L246.87,179.10L245.42,179.46L244.02,179.46L242.94,179.09L242.05,178.54L241.49,177.83L240.93,176.57L240.76,175.47L240.76,173.90L241.11,171.71L242.03,169.37L243.40,166.93L245.04,164.94L246.38,163.75L248.01,162.66L249.95,161.87L250.19,161.86zM265.98,190.85L265.71,191.60L265.17,191.67L265.23,190.93L265.53,190.67L265.79,190.66zM264.56,191.54L264.26,192.15L263.72,192.21L263.78,191.47L264.08,191.21L264.33,191.20z"/><g id="Actor_1.0"><g style="stroke:#000000;stroke-width:0.176"><path d="M133.42,131.89L132.28,130.94L131.28,129.81L130.42,128.50L129.72,127.02L129.18,125.38L128.81,123.60L128.60,121.69L128.56,119.68L128.70,117.58L129.00,115.40L129.47,113.17L130.10,110.90L130.89,108.62L131.83,106.35L132.91,104.10L134.12,101.90L135.45,99.76L136.89,97.71L138.44,95.76L140.06,93.93L141.75,92.23L143.50,90.68L145.29,89.30L147.10,88.09L148.92,87.07L150.73,86.24L152.51,85.62L154.26,85.20L155.84,85.01L155.95,85.00L157.57,85.01L159.10,85.23L160.54,85.67L161.87,86.31"/><path d="M138.99,129.59L136.35,127.97L135.28,127.15L134.35,126.13L133.57,124.93L132.95,123.56L132.49,122.03L132.20,120.36L132.09,118.57L132.14,116.68L132.37,114.71L132.78,112.68L133.35,110.61L134.07,108.53L134.95,106.45L135.98,104.41L137.13,102.42L138.40,100.51L139.78,98.69L141.25,96.99L142.79,95.42L144.38,94.01L146.02,92.76L147.68,91.69L149.34,90.82L150.98,90.15L152.59,89.69L154.16,89.44L155.65,89.41L157.06,89.60L158.37,90.01L159.56,90.62L162.03,92.14L160.94,92.52L159.13,93.35L157.31,94.37L155.50,95.58L153.71,96.96L151.96,98.51L150.27,100.21L148.65,102.04L147.11,103.99L145.66,106.04L144.33,108.18L143.12,110.38L142.04,112.63L141.10,114.90L140.31,117.18L139.74,119.24L139.68,119.45L139.21,121.68L138.91,123.86L138.77,125.96L138.81,127.97L139.02,129.88L139.40,131.66L139.94,133.29L140.06,133.56"/><path d="M145.29,139.18L144.15,138.24L143.15,137.11L142.29,135.79L141.59,134.31L141.05,132.67L140.68,130.90L140.47,128.99L140.43,126.98L140.56,124.87L140.87,122.70L141.34,120.47L141.97,118.20L142.76,115.92L143.69,113.65L144.77,111.40L145.99,109.20L147.32,107.06L148.76,105.01L150.30,103.06L151.93,101.22L153.62,99.53L155.37,97.98L157.16,96.60L158.97,95.39L160.79,94.37L162.60,93.54L164.38,92.92L166.13,92.50L167.13,92.38L167.82,92.30L169.44,92.31L170.97,92.53L172.41,92.96L173.74,93.61"/><path d="M151.11,123.06L151.39,124.24L151.83,125.28L152.43,126.14L153.17,126.83L154.04,127.31L155.02,127.58L156.09,127.64L157.24,127.48L158.44,127.12L159.67,126.54L160.90,125.78L162.10,124.83L163.27,123.73L164.36,122.48L165.37,121.13L166.27,119.68L167.04,118.17L167.68,116.63L168.16,115.09L168.48,113.58L168.63,112.13L168.61,110.77L168.41,109.52L168.05,108.41L167.53,107.45L166.86,106.68L166.06,106.09L165.13,105.71L164.10,105.55L162.98,105.60L161.81,105.86L160.59,106.33L159.36,107.00L158.14,107.86L156.95,108.89L155.84,110.04L154.76,111.37L153.81,112.77L152.97,114.25L152.26,115.78L151.71,117.32L151.31,118.85L151.07,120.33L151.01,121.75L151.11,123.06"/><path d="M162.03,92.14L162.73,91.90L164.47,91.48L166.04,91.29"/></g><g style="stroke:#000000;stroke-width:0.529"><path d="M146.30,139.78L145.29,139.18L143.63,138.16L142.49,137.22L141.49,136.09L140.64,134.78L140.06,133.56L139.14,133.61L137.56,133.50L136.07,133.17L134.69,132.63L133.42,131.89L131.76,130.87L130.62,129.92L129.62,128.79L128.77,127.48L128.07,126.00L127.53,124.36L127.15,122.58L126.94,120.68L126.91,118.66L127.04,116.56L127.34,114.38L127.81,112.15L128.44,109.88L129.23,107.61L130.17,105.33L131.25,103.08L132.46,100.88L133.79,98.75L135.24,96.69L136.78,94.74L138.40,92.91L140.10,91.21L141.85,89.66L143.63,88.28L145.44,87.07L147.26,86.05L149.07,85.23L150.86,84.60L152.60,84.19L154.29,83.98L154.71,83.98L155.91,83.99L157.45,84.21L158.89,84.65L160.21,85.29L161.87,86.31L163.07,87.15L164.14,88.19L165.07,89.42L165.85,90.82L166.04,91.29L166.16,91.28L167.78,91.29L169.32,91.51L170.75,91.95L172.08,92.59L173.74,93.61L174.94,94.45L176.01,95.49L176.94,96.71L177.72,98.11L178.34,99.67L178.80,101.38L179.09,103.23L179.21,105.19L179.17,107.25L178.95,109.39L178.56,111.60L178.01,113.85L177.30,116.12L176.44,118.40L175.43,120.67L175.35,120.81L174.28,122.89L173.01,125.06L171.62,127.16L170.12,129.17L168.54,131.06L166.88,132.83L165.15,134.45L163.38,135.92L161.58,137.22L159.77,138.33L157.95,139.26L156.15,139.98L154.38,140.50L153.58,140.65L152.66,140.81L151.01,140.91L149.43,140.79L147.94,140.46L147.19,140.17"/></g></g><g id="Actor_9.0"><g style="stroke:#000000;stroke-width:0.176"><path d="M38.97,39.10L38.55,38.74L38.28,38.21L38.15,37.53L38.19,36.74L38.40,35.90L38.75,35.05L39.23,34.24L39.31,34.14"/><path d="M39.65,37.24L39.66,37.25L39.95,37.52L40.24,37.58"/></g><g style="stroke:#000000;stroke-width:0.529"><path d="M38.77,33.80L38.69,33.91L38.21,34.72L37.86,35.57L37.65,36.41L37.61,37.19L37.71,37.73L37.73,37.87L38.01,38.41L38.43,38.77L38.97,39.10L39.51,39.27L40.13,39.23L40.80,38.99L41.48,38.56L41.62,38.43"/><path d="M40.26,34.72L39.98,35.06L39.68,35.66L39.51,36.27L39.50,36.82L39.65,37.24"/></g></g><g id="Actor_8.0"><g style="stroke:#000000;stroke-width:0.176"><path d="M22.54,39.97L22.25,40.25L20.86,39.39"/><path d="M22.20,40.58L22.25,40.25"/><path d="M23.69,42.95L24.69,43.57"/><path d="M24.78,37.86L24.75,37.85L23.35,36.99"/><path d="M24.16,37.26L24.16,37.26"/><path d="M24.75,37.85L24.71,37.88"/><path d="M25.75,39.65L26.73,40.25"/><path d="M35.51,45.66L35.17,45.49L34.75,45.52L34.29,45.73L33.88,46.06L33.84,46.10L33.44,46.60L33.15,47.17L32.99,47.75L32.99,48.27L33.13,48.68L33.41,48.94L33.41,48.94"/><path d="M35.78,46.75L35.72,46.36L35.55,46.08L35.27,45.94L34.92,45.96L34.54,46.13L34.16,46.44L33.84,46.86L33.60,47.33L33.47,47.80L33.46,48.24L33.58,48.58L33.81,48.79L34.13,48.85L34.50,48.76"/></g><g style="stroke:#000000;stroke-width:0.529"><path d="M21.74,43.41L20.38,42.58L20.36,42.16L20.37,41.46L20.42,40.86L20.54,40.31L20.73,39.71L20.86,39.39L21.07,39.07L21.49,38.52L21.91,38.07L22.39,37.65L22.99,37.22L23.35,36.99L23.51,37.03L23.83,37.14L24.16,37.26L24.55,37.42L25.21,37.70"/><path d="M24.69,43.57L33.41,48.94"/><path d="M33.41,48.94L33.79,49.01L34.24,48.90L34.50,48.76L34.88,48.51L35.24,48.14L35.52,47.70L35.71,47.21L35.78,46.75L35.79,46.48L35.72,46.00L35.51,45.66L26.73,40.25"/></g></g><g id="Actor_9.1"><g style="stroke:#000000;stroke-width:0.176"><path d="M29.87,46.76L29.79,46.87L29.31,47.68L28.95,48.53L28.75,49.37L28.71,50.15L28.83,50.83L29.11,51.37L29.53,51.73"/><path d="M30.21,49.86L30.21,49.88L30.51,50.15L30.80,50.21"/></g><g style="stroke:#000000;stroke-width:0.529"><path d="M29.33,46.43L29.25,46.54L28.77,47.35L28.41,48.20L28.21,49.04L28.17,49.82L28.27,50.35L28.29,50.50L28.57,51.04L28.99,51.40L29.53,51.73L30.07,51.90L30.69,51.86L31.36,51.62L32.04,51.19L32.18,51.06"/><path d="M30.21,49.86L30.06,49.45L30.07,48.90L30.24,48.29L30.54,47.69L30.82,47.34"/></g></g><g id="Actor_8.1"><g style="stroke:#000000;stroke-width:0.176"><path d="M29.87,28.23L29.87,28.24"/><path d="M30.30,26.77L31.69,27.62L31.98,27.34"/><path d="M31.69,27.62L31.64,27.95"/><path d="M34.13,30.94L33.13,30.33"/><path d="M34.22,25.23L34.19,25.22L32.79,24.36"/><path d="M34.15,25.26L34.19,25.22"/><path d="M36.18,27.63L35.20,27.02"/><path d="M44.95,33.03L44.61,32.87L44.19,32.89L43.73,33.10L43.28,33.47L42.88,33.97L42.59,34.54L42.43,35.12L42.43,35.64L42.57,36.06L42.85,36.31"/><path d="M45.22,34.13L45.17,33.73L44.99,33.45L44.71,33.31L44.36,33.33L43.98,33.51L43.60,33.82L43.28,34.23L43.04,34.70L42.91,35.18L42.90,35.61L42.91,35.64L43.02,35.95L43.25,36.17L43.57,36.23L43.94,36.13"/></g><g style="stroke:#000000;stroke-width:0.529"><path d="M31.18,30.79L29.82,29.95L29.80,29.53L29.81,28.83L29.87,28.24L29.98,27.68L30.17,27.09L30.30,26.77L30.51,26.44L30.93,25.90L31.35,25.44L31.83,25.03L32.43,24.59L32.79,24.36L32.95,24.41L33.27,24.51L33.61,24.63L33.99,24.79L34.65,25.07"/><path d="M40.10,30.04L44.95,33.03L45.16,33.37L45.23,33.85L45.22,34.13L45.15,34.59L44.97,35.07L44.68,35.52L44.32,35.88L43.94,36.13L43.68,36.27L43.24,36.39L42.85,36.31L34.13,30.94"/><path d="M39.23,29.51L36.18,27.63"/></g></g><g id="Actor_7.0"><g style="stroke:#000000;stroke-width:0.176"><path d="M52.95,56.56L53.01,56.00L53.12,55.42L53.45,54.24L53.94,53.05L54.57,51.90L55.31,50.82L56.15,49.85L57.05,49.01L57.99,48.34"/><path d="M60.38,47.53L59.53,48.30L58.29,49.63L57.14,51.08L56.09,52.63L55.16,54.26L54.36,55.94L53.71,57.64L53.30,59.03"/><path d="M59.70,72.23L58.88,71.49L58.20,70.56L57.68,69.45L57.32,68.19L57.13,66.80L57.12,65.29L57.28,63.69L57.59,62.10L57.61,62.03L58.10,60.34L58.75,58.64L59.55,56.97L60.49,55.34L61.54,53.78L62.69,52.33L63.92,51.01L65.22,49.83L66.55,48.81L67.91,47.98L69.26,47.35L70.58,46.92L71.86,46.71L73.07,46.71L74.19,46.93L75.20,47.37"/><path d="M58.61,63.95L58.64,64.04L58.88,64.26L59.21,64.32L59.59,64.22L59.98,63.97L60.35,63.59L60.48,63.37L60.58,63.24L60.67,62.47L60.82,61.68L60.66,61.47L60.38,61.33L60.02,61.35L59.63,61.52L59.24,61.84L58.91,62.27L58.66,62.75L58.53,63.24L58.52,63.69L58.61,63.95"/><path d="M60.87,66.83L61.35,67.66L61.98,68.33"/><path d="M60.37,64.70L60.54,65.83"/><path d="M60.58,63.24L60.59,63.23"/><path d="M61.59,58.83L61.05,60.21"/><path d="M62.74,68.80L63.61,69.07"/><path d="M62.18,67.69L62.55,68.12L63.25,68.69L65.12,69.84L65.04,70.13L65.04,70.57L65.16,70.92L65.40,71.14L65.72,71.20L66.10,71.10L66.50,70.85L66.60,70.75L65.12,69.84"/><path d="M63.99,54.95L63.08,56.17L62.27,57.47"/><path d="M64.98,53.85L66.03,52.88"/><path d="M66.60,70.75L67.99,71.60"/><path d="M68.15,51.50L68.08,51.41L67.96,51.06L67.97,50.62L68.10,50.12L68.35,49.64L68.68,49.22L69.07,48.90L69.46,48.72L69.82,48.70L70.11,48.84L70.29,49.13L70.35,49.53L70.27,50.01L70.08,50.50L69.85,50.88L69.77,50.96L69.68,51.06L69.60,51.18L69.35,51.24L68.59,51.52L68.33,51.63L68.21,51.56L68.15,51.50"/><path d="M68.21,51.56L68.32,51.63"/><path d="M71.76,50.82L72.63,51.09"/><path d="M71.71,51.46L72.64,51.66L73.46,52.03L74.14,52.44L74.02,52.23L73.39,51.57"/><path d="M74.14,52.44L76.78,54.07"/><path d="M76.28,55.49L76.15,55.41L75.93,55.33L75.70,55.27L75.46,55.26L75.26,55.29L75.10,55.37L75.01,55.47L74.99,55.59L75.06,55.72L75.19,55.83L75.39,55.92L75.62,55.97L75.86,55.99L76.08,55.97L76.12,55.96"/><path d="M88.01,60.97L87.18,60.61L86.25,60.46L85.24,60.53L84.17,60.82L83.07,61.31L81.97,62.00L80.88,62.88L79.85,63.90L78.89,65.07L78.03,66.33L77.30,67.67L76.69,69.05L76.25,70.44L75.96,71.80L75.85,73.09L75.91,74.30L76.14,75.38L76.54,76.31L77.09,77.06L77.79,77.63"/><path d="M78.12,77.78L77.72,77.45L77.16,76.69L76.77,75.76L76.65,75.20L76.59,75.07L76.35,74.04L76.29,72.89L76.40,71.64L76.67,70.34L77.11,69.00L77.69,67.68L78.42,66.39L79.25,65.19L80.19,64.09L81.19,63.12L82.24,62.31L83.30,61.69L84.35,61.26L85.37,61.04L85.40,61.04L84.80,61.20L83.70,61.70L82.59,62.39L81.51,63.26L80.48,64.29L79.52,65.45L78.66,66.72L77.92,68.06L77.32,69.44L76.87,70.82L76.59,72.18L76.47,73.48L76.53,74.68L76.65,75.20"/><path d="M77.62,54.58L78.21,54.95"/><path d="M90.71,62.63L89.89,62.27L89.21,62.16L88.96,62.12L87.95,62.19L86.88,62.48L85.78,62.98L84.67,63.67L83.59,64.54L82.64,65.48L82.56,65.57L81.60,66.73L80.74,68.00L80.00,69.34L79.40,70.72L78.95,72.10L78.67,73.46L78.55,74.76L78.61,75.96L78.85,77.04L79.24,77.97L79.80,78.73L80.50,79.29"/><path d="M86.13,78.57L85.14,79.01L84.17,79.27L83.26,79.33L82.44,79.20L81.68,78.88L81.06,78.37L80.56,77.68L80.20,76.85L79.99,75.88L79.93,74.79L80.04,73.63L80.29,72.40L80.70,71.16L81.24,69.92L81.90,68.71L82.68,67.57L83.54,66.52L84.47,65.60L85.44,64.81L86.43,64.19L87.43,63.74L88.39,63.49L89.30,63.42L90.14,63.56L90.88,63.88L91.51,64.39L92.01,65.07L92.36,65.91L92.57,66.88L92.63,67.97"/><path d="M83.45,74.55L83.52,74.69L83.96,75.11L84.52,75.33L85.17,75.33L85.89,75.12L86.63,74.71L87.35,74.12L88.00,73.39L88.57,72.54L89.02,71.63L89.32,70.71L89.45,69.82L89.41,69.02L89.20,68.34L88.84,67.83L88.34,67.51L87.72,67.40L87.03,67.50L86.30,67.82L85.57,68.32L85.07,68.80L84.96,69.13L84.52,70.04L83.95,70.89L83.42,71.48L83.37,71.59L83.16,72.50L83.11,73.35L83.23,74.10L83.45,74.55"/><path d="M83.42,71.48L83.75,70.67L84.26,69.79L84.88,68.99L85.07,68.80"/><path d="M85.40,61.04L85.87,60.92L86.88,60.85L87.81,60.99L88.30,61.21"/></g><g style="stroke:#000000;stroke-width:0.529"><path d="M78.20,52.92L78.26,53.84L78.21,54.95L88.01,60.97L88.30,61.21L88.63,61.35L90.71,62.63L91.41,63.20L91.96,63.96L92.36,64.89L92.60,65.97L92.66,67.17L92.63,67.97L92.52,69.13L92.27,70.35L91.87,71.60L91.32,72.84L90.66,74.05L89.89,75.19L89.02,76.23L88.10,77.16L87.12,77.95L86.13,78.57L85.43,78.95L84.33,79.45L83.26,79.73L82.25,79.80L81.32,79.66L80.50,79.29L78.42,78.02L78.12,77.78L77.79,77.63L67.99,71.60L66.78,72.25L65.44,72.78L64.14,73.11L62.89,73.21L61.73,73.10L60.66,72.77L59.70,72.23L55.31,69.53L54.49,68.79L53.81,67.86L53.28,66.75L52.93,65.49L52.74,64.09L52.72,62.59L52.88,60.99L53.21,59.33L53.30,59.03L53.11,58.57L52.95,57.62L52.95,56.56L52.98,55.82L53.03,55.33L53.12,54.83L53.41,53.81L53.84,52.78L54.38,51.78L55.02,50.85L55.75,50.00L56.53,49.28L57.34,48.70L57.99,48.34L58.94,47.85L59.86,47.57L60.38,47.53L60.82,47.12L62.16,46.11L63.51,45.28L64.86,44.65L66.19,44.22L67.30,44.03L67.46,44.00L68.67,44.01L69.79,44.23L70.81,44.66L75.20,47.37L76.09,48.01L76.85,48.85L77.45,49.87L77.86,50.99"/></g></g><g id="Actor_9.2"><g style="stroke:#000000;stroke-width:0.176"><path d="M27.01,38.13L26.47,37.96L25.85,38.00L25.18,38.24L24.50,38.67L23.85,39.26L23.27,39.99L22.88,40.65L22.79,40.80L22.44,41.65L22.24,42.49L22.20,43.27L22.32,43.95L22.60,44.49L23.02,44.85"/><path d="M23.69,42.98L23.70,43.00L23.99,43.27L24.28,43.32"/><path d="M25.76,39.65L25.84,39.65L26.20,39.82L26.30,39.99"/></g><g style="stroke:#000000;stroke-width:0.529"><path d="M25.67,44.17L25.52,44.31L24.84,44.74L24.17,44.98L23.55,45.01L23.02,44.85L22.48,44.51L22.06,44.15L21.78,43.62L21.65,42.94L21.70,42.15L21.90,41.31L22.25,40.46L22.73,39.65L23.31,38.93L23.96,38.34L24.64,37.91L24.84,37.83L25.31,37.67L25.93,37.63L26.47,37.80L27.01,38.13L27.43,38.49L27.71,39.03L27.83,39.71L27.79,40.49L27.70,40.85"/><path d="M25.76,39.65L25.40,39.67L24.91,39.89L24.44,40.28L24.03,40.81L23.72,41.41L23.56,42.01L23.55,42.56L23.69,42.98"/></g></g><g id="Actor_2.0"><g style="stroke:#000000;stroke-width:0.176"><path d="M243.46,180.54L242.55,180.27L241.74,179.79L241.07,179.12L240.54,178.27L240.17,177.26L239.96,176.11L239.91,174.84L240.04,173.49L240.33,172.08L240.78,170.63L241.38,169.19L242.11,167.78L242.97,166.43L243.92,165.19L244.98,164.03L246.08,163.03L247.23,162.20L248.38,161.54L249.52,161.09L249.57,161.07L250.63,160.83L251.67,160.79L252.64,160.95L253.50,161.33L254.24,161.90"/><path d="M242.10,178.59L241.67,178.11L241.31,177.54L241.33,177.57"/><path d="M241.31,177.54L241.05,176.92L240.85,176.19L240.73,175.39L240.70,174.68"/><path d="M240.70,174.54L240.70,174.56"/><path d="M240.78,174.64L240.79,174.64"/><path d="M242.09,178.57L242.58,178.94"/><path d="M247.71,162.78L247.71,162.79"/><path d="M248.15,163.12L248.15,163.13"/><path d="M248.16,162.55L248.47,162.39L249.24,162.09L249.99,161.89L250.72,161.80"/><path d="M252.57,162.16L252.01,161.94L251.37,161.82L250.70,161.81"/></g><g style="stroke:#000000;stroke-width:0.529"><path d="M234.61,175.30L234.02,174.56L233.57,173.63L233.28,172.54L233.15,171.33L233.19,170.02L233.40,168.63L233.77,167.20L234.30,165.75L234.97,164.32L235.77,162.94L236.68,161.63L237.15,161.07L237.69,160.43L238.76,159.36L239.89,158.44L241.04,157.69L242.19,157.13L243.32,156.77L244.40,156.63L245.41,156.69L245.52,156.71L246.44,156.99L247.25,157.46L253.42,161.23L254.16,161.81L254.84,162.66L255.29,163.60L255.59,164.68L255.71,165.89L255.67,167.20L255.59,167.89L255.47,168.59L255.09,170.03L254.57,171.47L253.90,172.90L253.10,174.29L252.18,175.59L251.18,176.80L250.10,177.87L248.98,178.79L247.82,179.53L246.67,180.09L245.55,180.45L244.47,180.60L243.46,180.54L243.34,180.51L242.42,180.24L241.62,179.76L235.45,175.99L235.39,175.95"/><path d="M240.70,174.68L240.78,174.64L241.54,174.20L242.32,173.66L243.08,173.03L243.82,172.32L244.52,171.54L245.18,170.70L245.79,169.80L246.35,168.87L246.84,167.92L247.26,166.94L247.60,165.96L247.87,164.99L248.05,164.03L248.15,163.12L248.16,162.55"/><path d="M248.16,162.55L247.71,162.79L246.93,163.28L246.16,163.87L245.41,164.54L244.69,165.29L244.01,166.10L243.37,166.97L242.79,167.88L242.26,168.83L241.81,169.79L241.43,170.77L241.12,171.75L240.89,172.72L240.75,173.66L240.70,174.54L240.70,174.68"/></g></g><g id="Actor_4.0"><g style="stroke:#000000;stroke-width:0.176"><path d="M212.91,167.85L212.08,167.30L211.26,166.48L210.59,165.47L210.07,164.29L209.72,162.96L209.54,161.49L209.54,159.91L209.71,158.25L210.05,156.53L210.55,154.77L211.22,153.00L212.03,151.25L212.97,149.54L214.04,147.91L215.22,146.37L216.48,144.94L217.81,143.66L217.95,143.55L219.18,142.54L220.59,141.60L222.00,140.84L223.39,140.29L224.75,139.95L226.05,139.82L227.28,139.92L228.41,140.23L229.42,140.75"/><path d="M225.17,145.49L225.26,145.50L226.09,145.86L226.79,146.43L227.34,147.19L227.74,148.12L227.97,149.20L228.03,150.40L227.92,151.70L227.63,153.05L227.19,154.44L226.59,155.82L225.85,157.16L224.99,158.43L224.03,159.59L223.00,160.62L221.92,161.49L220.81,162.18L219.71,162.68L218.64,162.96L217.63,163.03L216.70,162.89L215.87,162.52L215.18,161.96L215.11,161.86"/></g><g style="stroke:#000000;stroke-width:0.529"><path d="M212.91,167.85L211.34,166.89L210.39,166.26L209.57,165.44L208.89,164.43L208.38,163.25L208.03,161.92L207.85,160.45L207.85,160.32L207.85,158.88L208.02,157.21L208.36,155.49L208.86,153.73L209.52,151.96L210.34,150.21L211.28,148.50L212.35,146.87L213.53,145.33L214.56,144.16L214.79,143.90L216.12,142.62L217.49,141.50L218.90,140.56L220.31,139.80L221.70,139.25L223.06,138.91L224.36,138.79L225.59,138.88L226.72,139.19L227.73,139.71L229.42,140.75L230.31,141.47L231.06,142.39L231.66,143.49L232.09,144.75L232.35,146.15L232.44,147.67L232.36,149.30L232.11,150.99L231.68,152.74L231.10,154.51L230.36,156.27L229.48,158.00L228.47,159.67L227.35,161.27L226.13,162.75L224.83,164.10L223.47,165.31L222.08,166.34L220.67,167.19L219.26,167.85L217.88,168.29L216.55,168.53L215.28,168.54L214.11,168.34L213.87,168.25"/><path d="M214.24,160.32L214.22,160.27L213.99,159.19L213.93,157.99L214.04,156.69L214.33,155.33L214.78,153.95L215.38,152.57L216.12,151.23L216.98,149.96L217.93,148.80L218.96,147.77L220.05,146.90L221.15,146.21L222.25,145.71L223.32,145.42L224.34,145.35L225.17,145.49L225.65,146.15L226.05,147.08L226.28,148.16L226.34,149.36L226.23,150.66L225.94,152.02L225.50,153.40L224.89,154.78L224.16,156.12L223.30,157.39L222.34,158.55L221.31,159.58L220.22,160.45L219.12,161.14L218.02,161.64L216.95,161.92L215.94,161.99L215.11,161.86L214.62,161.20L214.24,160.32"/></g></g><g id="Actor_6.0"><g style="stroke:#000000;stroke-width:0.176"><path d="M271.68,172.22L270.80,171.90L269.90,171.79L269.83,171.78L268.78,171.88L267.68,172.18L266.55,172.68L265.41,173.38L264.29,174.24L263.21,175.27L262.20,176.43L261.28,177.69L260.47,179.05L259.78,180.45L259.23,181.88L258.94,182.90L258.83,183.30L258.59,184.68L258.52,185.99L258.61,187.21L258.87,188.30L259.29,189.25L259.86,190.03L260.57,190.63"/><path d="M264.51,189.75L264.90,189.99L263.88,190.24L262.93,190.28L262.05,190.10L261.28,189.72L261.11,189.57"/><path d="M262.48,192.51L262.48,192.51"/><path d="M262.26,191.21L262.33,191.23L262.62,191.32L262.83,191.53L262.96,191.84L262.99,192.23L262.97,192.68L262.98,192.77L263.01,192.84L263.07,192.87"/><path d="M263.70,191.62L263.64,191.78L263.61,191.95L263.63,192.10L263.70,192.21L263.81,192.26L263.94,192.25L264.08,192.19L264.22,192.07L264.35,191.91L264.44,191.74L264.49,191.56L264.49,191.39L264.45,191.26L264.36,191.18L264.24,191.16L264.10,191.20L263.95,191.29L263.82,191.43"/><path d="M264.88,191.76L264.79,192.44"/><path d="M264.53,192.28L264.90,189.99"/><path d="M264.93,191.37L265.13,189.91L266.19,189.41L267.24,188.73L268.27,187.87L269.24,186.86L270.14,185.72L270.94,184.49L271.62,183.20L272.15,181.88L272.54,180.56L272.76,179.27L272.82,178.06L272.70,176.95L272.42,175.96L271.98,175.13L271.40,174.48L270.68,174.02L270.63,174.01"/><path d="M265.11,191.25L265.18,191.09"/><path d="M265.80,191.42L265.82,191.38L265.91,191.21L265.96,191.03L265.96,190.86L265.92,190.73L265.83,190.65L265.71,190.63L265.57,190.67L265.43,190.76L265.29,190.90"/><path d="M265.13,189.91L264.54,189.55"/></g><g style="stroke:#000000;stroke-width:0.529"><path d="M265.21,192.26L264.79,192.44L264.53,192.28L264.48,192.55L263.80,192.75L263.14,192.88L263.07,192.87L262.42,192.47L262.39,192.41L262.38,192.32L262.40,191.86L262.37,191.47L262.26,191.21L261.40,191.03L260.57,190.63L259.98,190.27L259.27,189.67L258.70,188.88L258.28,187.94L258.02,186.84L257.93,185.62L258.00,184.31L258.24,182.93L258.63,181.51L259.18,180.09L259.87,178.68L260.69,177.33L261.61,176.06L262.62,174.90L263.12,174.43L263.70,173.88L264.82,173.01L265.96,172.32L267.09,171.82L268.19,171.51L269.24,171.42L270.21,171.54L271.09,171.86L271.68,172.22L272.44,172.74L273.06,173.46L273.54,174.34L273.87,175.38L274.03,176.55L274.02,177.83L273.85,179.18L273.51,180.59L273.02,182.02L272.38,183.44L271.62,184.81L270.74,186.12L269.76,187.32L268.70,188.40L267.60,189.33L267.25,189.65L266.95,190.05L266.71,190.49L266.55,190.94L266.43,191.44L266.39,191.54L266.33,191.64L266.26,191.72L266.18,191.79L266.07,191.84"/><path d="M259.62,186.29L259.62,186.39L259.80,187.45L260.15,188.38L260.64,189.14L261.11,189.57L261.46,189.74L262.33,189.91L263.29,189.88L264.31,189.63L264.51,189.75L264.54,189.55L265.59,189.05L266.65,188.36L267.68,187.50L268.65,186.49L269.55,185.36L270.35,184.13L271.02,182.84L271.56,181.51L271.95,180.19L272.16,179.00L272.17,178.91L272.23,177.69L272.11,176.58L271.83,175.60L271.39,174.77L270.81,174.12L270.63,174.01L269.84,173.76L268.91,173.72L267.92,173.88L266.88,174.26L265.82,174.83L264.77,175.59L263.76,176.51L262.81,177.57L261.95,178.74L261.20,180.00L260.57,181.31L260.09,182.64L259.77,183.95L259.61,185.21L259.62,186.29"/><path d="M263.76,191.55L263.82,191.43L263.71,191.60L263.70,191.62L263.76,191.55"/><path d="M265.23,191.02L265.18,191.09L265.18,191.07L265.29,190.90L265.23,191.02"/></g></g><g id="Actor_3.0"><g style="stroke:#000000;stroke-width:0.176"><path d="M206.28,131.33L205.55,130.68L204.69,130.23L203.72,129.97L202.66,129.93L201.53,130.10L200.36,130.48L199.16,131.05L197.95,131.81L196.78,132.75L195.64,133.84L194.58,135.07L193.60,136.41L192.72,137.83L192.20,138.87L191.98,139.31L191.37,140.82L190.91,142.32L190.61,143.79L190.48,145.21L190.51,146.54L190.71,147.75L191.08,148.83L191.60,149.75L192.26,150.49L193.06,151.05L193.98,151.40"/><path d="M203.35,130.61L202.54,130.56L201.43,130.71L200.27,131.08L199.09,131.65L197.90,132.42L196.75,133.36L195.64,134.47L194.79,135.48L194.61,135.70L193.67,137.04L192.85,138.47L192.16,139.94L192.13,140.00L191.62,141.42L191.23,142.89L191.11,143.62L191.02,144.32L190.98,145.67L191.11,146.92L191.41,148.03L191.88,148.99L192.50,149.77L193.26,150.36L194.14,150.74L195.13,150.92L196.20,150.87L197.34,150.61L198.51,150.14L198.75,150.00L199.70,149.46L200.87,148.61L202.01,147.58L203.08,146.41L204.07,145.12L204.95,143.73L205.71,142.28L206.33,140.80L206.79,139.32L207.09,137.86L207.22,136.47L207.17,135.17L206.95,133.99L206.57,132.95L206.03,132.08L205.33,131.39L204.51,130.90L203.57,130.62L203.35,130.61L203.71,130.71L204.51,131.19"/><path d="M192.72,149.72L192.04,149.20"/></g><g style="stroke:#000000;stroke-width:0.529"><path d="M177.07,138.87L177.35,139.99L177.79,140.99L178.39,141.83L178.91,142.45L179.66,143.12L192.25,150.86L193.19,151.22L193.98,151.40L194.99,151.55L196.09,151.49L197.25,151.22L198.44,150.74L199.64,150.07L200.83,149.22L201.99,148.20L203.10,147.04L204.12,145.75L204.95,144.52L205.05,144.37L205.86,142.91L206.54,141.42L207.07,139.91L207.45,138.42L207.67,136.97L207.72,135.59L207.60,134.32L207.32,133.17L206.88,132.17L206.28,131.33L205.76,130.71L205.01,130.05L192.42,122.30L191.48,121.94L190.69,121.76L189.67,121.61L188.58,121.67L187.42,121.95L186.23,122.42L185.03,123.09L183.84,123.95L182.68,124.96L181.57,126.13L180.55,127.41L179.62,128.80L178.81,130.25L178.13,131.75L177.59,133.25L177.22,134.75L177.00,136.19L176.95,137.57L177.07,138.87"/></g></g><g id="Actor_8.2"><g style="stroke:#000000;stroke-width:0.176"><path d="M38.16,34.83L38.21,34.51L36.82,33.65"/><path d="M38.21,34.51L38.50,34.23"/><path d="M39.64,37.21L40.64,37.83"/><path d="M51.47,39.92L51.13,39.75L50.71,39.77L50.24,39.98L49.79,40.36L49.40,40.86L49.11,41.43L48.95,42.00L48.94,42.53L49.09,42.94L49.37,43.20"/><path d="M50.46,43.01L50.09,43.11L49.77,43.05L49.54,42.84L49.42,42.49L49.42,42.06L49.50,41.77L49.55,41.58L49.79,41.11L50.12,40.70L50.49,40.39L50.88,40.22L51.23,40.20L51.50,40.34L51.68,40.62L51.74,41.01"/></g><g style="stroke:#000000;stroke-width:0.529"><path d="M37.70,37.67L36.34,36.83L36.32,36.42L36.32,35.71L36.38,35.12L36.49,34.56L36.68,33.97L36.82,33.65L37.03,33.33L37.34,32.92"/><path d="M40.64,37.83L49.37,43.20L49.75,43.27L50.20,43.15L50.46,43.01L50.84,42.77L51.19,42.40L51.48,41.95L51.67,41.47L51.74,41.01L51.75,40.73L51.68,40.26L51.47,39.92L44.55,35.65"/></g></g><g id="Actor_2.1"><g style="stroke:#000000;stroke-width:0.176"><path d="M104.59,95.37L104.58,95.37"/><path d="M124.19,81.95L123.45,81.37L122.59,81.00L121.62,80.83L120.58,80.87L119.70,81.08L119.47,81.13L118.33,81.59L117.18,82.24L116.03,83.08L114.93,84.08L113.88,85.22L112.92,86.47L112.06,87.82L111.33,89.23L110.87,90.32L110.73,90.68L110.28,92.12L109.99,93.53L109.86,94.89L109.90,96.15L110.12,97.30L110.49,98.32L111.02,99.16L111.69,99.83L112.49,100.31L113.41,100.58"/><path d="M111.28,97.61L110.99,96.96L110.79,96.23L110.68,95.43L110.65,94.72"/><path d="M110.65,94.58L110.65,94.61"/><path d="M111.26,97.59L111.62,98.15L112.05,98.63"/><path d="M110.73,94.69L110.73,94.69"/><path d="M112.04,98.62L112.53,98.99"/><path d="M117.66,82.83L117.65,82.83"/><path d="M120.67,81.85L119.94,81.94L119.19,82.14L118.42,82.44L118.11,82.60"/><path d="M118.10,83.18L118.10,83.16"/><path d="M120.65,81.85L121.32,81.86L121.96,81.99L122.52,82.20"/></g><g style="stroke:#000000;stroke-width:0.529"><path d="M117.63,77.77L117.19,77.51L116.39,77.03L115.47,76.76L115.35,76.73L114.35,76.67L113.27,76.82L112.14,77.18L110.99,77.73L109.84,78.48L108.71,79.40L107.63,80.47L106.63,81.67L105.72,82.98L104.92,84.36L104.25,85.79L103.72,87.24L103.35,88.67L103.14,90.06L103.10,91.38L103.23,92.59L103.52,93.67L103.97,94.60L104.65,95.46L105.40,96.04L111.57,99.80L112.37,100.28L113.29,100.55L113.41,100.58L114.42,100.64L115.49,100.49L116.62,100.14L117.77,99.58L118.92,98.83L120.05,97.91L121.13,96.84L122.13,95.64L123.05,94.33L123.41,93.71L123.85,92.95L124.52,91.52L125.04,90.07L125.41,88.64L125.54,87.94L125.62,87.25L125.66,85.93L125.54,84.72L125.24,83.64L124.79,82.71L124.11,81.85L123.37,81.28L118.44,78.27"/><path d="M118.11,82.60L118.10,83.16L118.00,84.08L117.82,85.03L117.55,86.00L117.21,86.98L116.79,87.96L116.30,88.92L115.74,89.85L115.13,90.74L114.47,91.58L113.77,92.36L113.03,93.07L112.27,93.70L111.49,94.25L110.73,94.69L110.65,94.72"/><path d="M118.11,82.60L117.65,82.83L116.88,83.33L116.11,83.92L115.36,84.59L114.64,85.33L113.96,86.14L113.32,87.01L112.74,87.92L112.21,88.87L111.76,89.84L111.37,90.82L111.07,91.80L110.84,92.76L110.70,93.70L110.65,94.58L110.65,94.72"/></g></g><g id="Actor_9.3"><g style="stroke:#000000;stroke-width:0.176"><path d="M35.09,25.45L34.62,25.61L33.95,26.04L33.30,26.64L32.71,27.36L32.23,28.17L31.88,29.02L31.68,29.86L31.64,30.64L31.76,31.32L32.04,31.86L32.46,32.22"/><path d="M33.13,30.35L33.14,30.37L33.43,30.64L33.73,30.70"/><path d="M35.20,27.02L35.28,27.02L35.64,27.19L35.74,27.36"/><path d="M36.16,25.41L36.45,25.50"/></g><g style="stroke:#000000;stroke-width:0.529"><path d="M35.11,31.55L34.96,31.68L34.28,32.11L33.61,32.35L32.99,32.39L32.46,32.22L31.92,31.89L31.50,31.53L31.22,30.99L31.10,30.31L31.14,29.53L31.34,28.69L31.69,27.84L32.17,27.03L32.75,26.30L33.40,25.71L34.08,25.28L34.75,25.04L34.86,25.03"/><path d="M35.20,27.02L34.84,27.04L34.35,27.26L33.88,27.66L33.47,28.18L33.16,28.78L33.00,29.38L32.99,29.93L33.13,30.35"/><path d="M36.09,25.28L36.45,25.50L36.87,25.86L37.15,26.40L37.27,27.08L37.23,27.86L37.14,28.22"/></g></g><g id="Actor_5.0"><g style="stroke:#000000;stroke-width:0.176"><path d="M93.73,78.11L93.70,78.09L95.15,75.36L96.17,75.98L94.72,78.71L93.73,78.11"/><path d="M93.70,78.09L93.83,78.41"/><path d="M95.47,80.65L94.72,78.71"/><path d="M97.85,76.30L97.71,76.24L97.41,76.22L97.08,76.32L96.74,76.51L96.41,76.80L96.11,77.15L95.87,77.55L95.68,77.98L95.58,78.40L95.56,78.79L95.63,79.13L95.78,79.39L96.00,79.56L96.27,79.62L96.59,79.58L96.72,79.55"/><path d="M95.15,75.36L96.13,75.01"/><path d="M97.69,77.54L97.49,77.71L97.29,77.96L97.12,78.23L96.99,78.53L96.92,78.82L96.91,79.09L96.95,79.32L97.07,79.58L97.19,79.81L97.35,79.97"/><path d="M96.82,79.52L97.01,79.56L96.65,79.55"/><path d="M97.07,79.58L97.01,79.56"/><path d="M96.17,75.98L98.28,75.22"/><path d="M99.97,78.56L99.82,78.41L99.60,78.37L99.35,78.44L99.09,78.60L98.85,78.85L98.65,79.16L98.52,79.49L98.49,79.65L98.48,79.80L98.52,80.07L98.64,80.26L98.83,80.35L99.06,80.34"/><path d="M99.33,79.62L99.24,79.67L99.16,79.70L99.09,79.68L99.04,79.63L99.01,79.56L99.01,79.46L99.04,79.35L99.06,79.32L99.09,79.24L99.17,79.15L99.25,79.08L99.34,79.04L99.42,79.04L99.48,79.07L99.52,79.13L99.53,79.22L99.52,79.33L99.48,79.43L99.41,79.54L99.33,79.62"/><path d="M98.49,77.31L98.70,77.31L98.98,77.39"/></g><g style="stroke:#000000;stroke-width:0.529"><path d="M97.35,79.97L95.47,80.65L94.45,80.02L93.83,78.41L93.72,78.31L93.57,77.87L93.57,77.31L93.74,76.69L94.05,76.08L94.47,75.55L94.96,75.15L95.45,74.92L95.91,74.90L96.13,75.01L97.36,74.57L98.31,75.15"/><path d="M97.35,79.97L97.43,80.06L97.63,80.21L97.93,80.37L98.19,80.41L99.06,80.34L99.32,80.22L99.58,80.01L99.80,79.73L99.96,79.41L100.05,79.08L100.05,78.79L99.97,78.56L99.70,77.90L99.54,77.70L99.26,77.50L99.02,77.40L98.98,77.39"/><path d="M98.98,77.39L99.12,77.13L98.84,76.40"/></g></g><g id="Actor_8.3"><g style="stroke:#000000;stroke-width:0.176"><path d="M27.37,46.28L28.77,47.13L29.06,46.85"/><path d="M28.77,47.13L28.72,47.46"/><path d="M31.20,50.45L30.20,49.84"/><path d="M42.02,52.55L41.69,52.38L41.26,52.40L40.80,52.61L40.65,52.73L40.35,52.98L39.96,53.48L39.67,54.05L39.51,54.63L39.50,55.15L39.65,55.57L39.92,55.83"/><path d="M42.30,53.64L42.24,53.24L42.06,52.96L41.78,52.82L41.43,52.84L41.05,53.02L40.68,53.33L40.35,53.74L40.11,54.21L39.98,54.69L39.98,55.12L40.09,55.46L40.33,55.68L40.64,55.74L41.02,55.64"/></g><g style="stroke:#000000;stroke-width:0.529"><path d="M28.26,50.30L26.90,49.46L26.88,49.05L26.88,48.34L26.94,47.75L27.05,47.19L27.24,46.60L27.37,46.28L27.59,45.95L27.90,45.55"/><path d="M31.20,50.45L39.92,55.83L40.31,55.90L40.76,55.78L41.02,55.64L41.40,55.39L41.75,55.03L42.04,54.58L42.23,54.10L42.30,53.64L42.31,53.36L42.24,52.88L42.02,52.55L35.10,48.28"/></g></g><g><g><path style="stroke:#000000;stroke-width:0.125;stroke-dasharray:2.2 1.4 0.7 1.4" d="M84.10,70.05L94.02,76.15"/><path style="stroke:#000000;stroke-width:0.125;stroke-dasharray:2.2 1.4 0.7 1.4" d="M105.56,83.24L99.08,79.26"/><path style="stroke:#000000;stroke-width:0.125;stroke-dasharray:2.2 1.4 0.7 1.4" d="M112.86,87.73L132.96,100.09"/><path style="stroke:#000000;stroke-width:0.125;stroke-dasharray:2.2 1.4 0.7 1.4" d="M179.63,128.78L153.75,112.87"/><path style="stroke:#000000;stroke-width:0.125;stroke-dasharray:2.2 1.4 0.7 1.4" d="M211.40,148.32L193.51,137.32"/><path style="stroke:#000000;stroke-width:0.125;stroke-dasharray:2.2 1.4 0.7 1.4" d="M235.61,163.20L216.12,151.22"/><path style="stroke:#000000;stroke-width:0.125;stroke-dasharray:2.2 1.4 0.7 1.4" d="M260.12,178.27L242.91,167.69"/><path style="stroke:#000000;stroke-width:0.125;stroke-dasharray:2.2 1.4 0.7 1.4" d="M265.66,181.67L261.67,179.22"/></g></g><g id="PMI9.0"><g><path style="stroke:#000000;stroke-width:0.125" d="M30.64,16.32L35.99,26.09"/></g><g><path style="fill:#000000" d="M36.74,26.09L36.73,26.02L36.72,25.94L36.70,25.87L36.68,25.80L36.65,25.74L36.61,25.67L36.57,25.62L36.52,25.56L36.46,25.51L36.40,25.47L36.34,25.43L36.27,25.40L36.20,25.37L36.13,25.36L36.06,25.34L35.99,25.34L35.91,25.34L35.84,25.36L35.77,25.37L35.70,25.40L35.63,25.43L35.57,25.47L35.51,25.51L35.46,25.56L35.41,25.62L35.36,25.67L35.33,25.74L35.29,25.80L35.27,25.87L35.25,25.94L35.24,26.02L35.24,26.09L35.24,26.16L35.25,26.24L35.27,26.31L35.29,26.38L35.33,26.44L35.36,26.51L35.41,26.57L35.46,26.62L35.51,26.67L35.57,26.71L35.63,26.75L35.70,26.78L35.77,26.81L35.84,26.83L35.91,26.84L35.99,26.84L36.06,26.84L36.13,26.83L36.20,26.81L36.27,26.78L36.34,26.75L36.40,26.71L36.46,26.67L36.52,26.62L36.57,26.57L36.61,26.51L36.65,26.44L36.68,26.38L36.70,26.31L36.72,26.24L36.73,26.16z"/></g><g><text xml:space="preserve" fill="#000000" stroke-width="0" x="22.02" y="14.58" font-size="3.78" opacity="1.00" font-family="Arial">ND0593</text></g></g><g id="PMI8.0"><g><path style="stroke:#000000;stroke-width:0.125" d="M56.43,16.32L38.70,30.55"/></g><g><path style="fill:#000000" d="M39.45,30.55L39.45,30.47L39.44,30.40L39.42,30.33L39.40,30.26L39.37,30.19L39.33,30.13L39.28,30.07L39.23,30.02L39.18,29.97L39.12,29.92L39.06,29.89L38.99,29.86L38.92,29.83L38.85,29.81L38.78,29.80L38.70,29.80L38.63,29.80L38.56,29.81L38.49,29.83L38.42,29.86L38.35,29.89L38.29,29.92L38.23,29.97L38.17,30.02L38.12,30.07L38.08,30.13L38.04,30.19L38.01,30.26L37.99,30.33L37.97,30.40L37.96,30.47L37.95,30.55L37.96,30.62L37.97,30.69L37.99,30.77L38.01,30.84L38.04,30.90L38.08,30.96L38.12,31.02L38.17,31.08L38.23,31.13L38.29,31.17L38.35,31.21L38.42,31.24L38.49,31.27L38.56,31.28L38.63,31.29L38.70,31.30L38.78,31.29L38.85,31.28L38.92,31.27L38.99,31.24L39.06,31.21L39.12,31.17L39.18,31.13L39.23,31.08L39.28,31.02L39.33,30.96L39.37,30.90L39.40,30.84L39.42,30.77L39.44,30.69L39.45,30.62z"/></g><g><text xml:space="preserve" fill="#000000" stroke-width="0" x="53.37" y="14.58" font-size="3.78" opacity="1.00" font-family="Arial">ND0842</text></g></g><g id="PMI7.0"><g><path style="stroke:#000000;stroke-width:0.125" d="M90.55,16.32L75.25,59.89"/></g><g><path style="fill:#000000" d="M76.00,59.89L75.99,59.81L75.98,59.74L75.96,59.67L75.94,59.60L75.91,59.53L75.87,59.47L75.82,59.41L75.78,59.36L75.72,59.31L75.66,59.26L75.60,59.22L75.53,59.19L75.46,59.17L75.39,59.15L75.32,59.14L75.25,59.14L75.17,59.14L75.10,59.15L75.03,59.17L74.96,59.19L74.89,59.22L74.83,59.26L74.77,59.31L74.71,59.36L74.67,59.41L74.62,59.47L74.58,59.53L74.55,59.60L74.53,59.67L74.51,59.74L74.50,59.81L74.50,59.89L74.50,59.96L74.51,60.03L74.53,60.10L74.55,60.17L74.58,60.24L74.62,60.30L74.67,60.36L74.71,60.42L74.77,60.47L74.83,60.51L74.89,60.55L74.96,60.58L75.03,60.60L75.10,60.62L75.17,60.63L75.25,60.64L75.32,60.63L75.39,60.62L75.46,60.60L75.53,60.58L75.60,60.55L75.66,60.51L75.72,60.47L75.78,60.42L75.82,60.36L75.87,60.30L75.91,60.24L75.94,60.17L75.96,60.10L75.98,60.03L75.99,59.96z"/></g><g><text xml:space="preserve" fill="#000000" stroke-width="0" x="83.63" y="14.58" font-size="3.79" opacity="1.00" font-family="Arial">BPA7986</text></g></g><g id="PMI5.0"><g><path style="stroke:#000000;stroke-width:0.125" d="M121.83,16.32L97.86,77.61"/></g><g><path style="fill:#000000" d="M98.61,77.61L98.60,77.54L98.59,77.46L98.57,77.39L98.55,77.32L98.52,77.26L98.48,77.19L98.44,77.13L98.39,77.08L98.33,77.03L98.27,76.99L98.21,76.95L98.14,76.92L98.07,76.89L98.00,76.87L97.93,76.86L97.86,76.86L97.78,76.86L97.71,76.87L97.64,76.89L97.57,76.92L97.50,76.95L97.44,76.99L97.38,77.03L97.33,77.08L97.28,77.13L97.23,77.19L97.20,77.26L97.16,77.32L97.14,77.39L97.12,77.46L97.11,77.54L97.11,77.61L97.11,77.68L97.12,77.76L97.14,77.83L97.16,77.90L97.20,77.96L97.23,78.03L97.28,78.09L97.33,78.14L97.38,78.19L97.44,78.23L97.50,78.27L97.57,78.30L97.64,78.33L97.71,78.35L97.78,78.36L97.86,78.36L97.93,78.36L98.00,78.35L98.07,78.33L98.14,78.30L98.21,78.27L98.27,78.23L98.33,78.19L98.39,78.14L98.44,78.09L98.48,78.03L98.52,77.96L98.55,77.90L98.57,77.83L98.59,77.76L98.60,77.68z"/></g><g><text xml:space="preserve" fill="#000000" stroke-width="0" x="114.61" y="14.58" font-size="3.81" opacity="1.00" font-family="Arial">MSR0055</text></g></g><g><g><path style="stroke:#000000;stroke-width:0.125" d="M152.61,16.32L117.02,79.83"/></g><g><path style="fill:#000000" d="M117.77,79.83L117.77,79.75L117.76,79.68L117.74,79.61L117.71,79.54L117.68,79.47L117.64,79.41L117.60,79.35L117.55,79.30L117.50,79.25L117.44,79.20L117.37,79.17L117.31,79.13L117.24,79.11L117.17,79.09L117.09,79.08L117.02,79.08L116.95,79.08L116.87,79.09L116.80,79.11L116.73,79.13L116.67,79.17L116.60,79.20L116.54,79.25L116.49,79.30L116.44,79.35L116.40,79.41L116.36,79.47L116.33,79.54L116.30,79.61L116.28,79.68L116.27,79.75L116.27,79.83L116.27,79.90L116.28,79.97L116.30,80.04L116.33,80.11L116.36,80.18L116.40,80.24L116.44,80.30L116.49,80.36L116.54,80.41L116.60,80.45L116.67,80.49L116.73,80.52L116.80,80.54L116.87,80.56L116.95,80.57L117.02,80.58L117.09,80.57L117.17,80.56L117.24,80.54L117.31,80.52L117.37,80.49L117.44,80.45L117.50,80.41L117.55,80.36L117.60,80.30L117.64,80.24L117.68,80.18L117.71,80.11L117.74,80.04L117.76,79.97L117.77,79.90z"/></g><g><text xml:space="preserve" fill="#000000" stroke-width="0" x="145.60" y="14.58" font-size="3.76" opacity="1.00" font-family="Arial">MWZ0048</text></g></g><g><g><path style="stroke:#000000;stroke-width:0.125" d="M133.00,198.93L148.99,130.36"/></g><g><path style="fill:#000000" d="M149.74,130.36L149.73,130.29L149.72,130.22L149.70,130.14L149.68,130.08L149.65,130.01L149.61,129.95L149.57,129.89L149.52,129.83L149.46,129.78L149.40,129.74L149.34,129.70L149.27,129.67L149.20,129.64L149.13,129.63L149.06,129.62L148.99,129.61L148.91,129.62L148.84,129.63L148.77,129.64L148.70,129.67L148.63,129.70L148.57,129.74L148.51,129.78L148.46,129.83L148.41,129.89L148.36,129.95L148.32,130.01L148.29,130.08L148.27,130.14L148.25,130.22L148.24,130.29L148.24,130.36L148.24,130.44L148.25,130.51L148.27,130.58L148.29,130.65L148.32,130.72L148.36,130.78L148.41,130.84L148.46,130.89L148.51,130.94L148.57,130.99L148.63,131.02L148.70,131.05L148.77,131.08L148.84,131.10L148.91,131.11L148.99,131.11L149.06,131.11L149.13,131.10L149.20,131.08L149.27,131.05L149.34,131.02L149.40,130.99L149.46,130.94L149.52,130.89L149.57,130.84L149.61,130.78L149.65,130.72L149.68,130.65L149.70,130.58L149.72,130.51L149.73,130.44z"/></g><g><text xml:space="preserve" fill="#000000" stroke-width="0" x="125.12" y="203.40" font-size="3.77" opacity="1.00" font-family="Arial">KIT0222</text></g></g><g id="PMI4.0"><g><path style="stroke:#000000;stroke-width:0.125" d="M182.12,198.93L215.95,165.52"/></g><g><path style="fill:#000000" d="M216.70,165.52L216.70,165.45L216.69,165.38L216.67,165.31L216.64,165.24L216.61,165.17L216.57,165.11L216.53,165.05L216.48,164.99L216.43,164.94L216.37,164.90L216.30,164.86L216.24,164.83L216.17,164.81L216.10,164.79L216.02,164.78L215.95,164.77L215.88,164.78L215.80,164.79L215.73,164.81L215.66,164.83L215.60,164.86L215.53,164.90L215.48,164.94L215.42,164.99L215.37,165.05L215.33,165.11L215.29,165.17L215.26,165.24L215.23,165.31L215.22,165.38L215.20,165.45L215.20,165.52L215.20,165.60L215.22,165.67L215.23,165.74L215.26,165.81L215.29,165.88L215.33,165.94L215.37,166.00L215.42,166.05L215.48,166.10L215.53,166.15L215.60,166.18L215.66,166.22L215.73,166.24L215.80,166.26L215.88,166.27L215.95,166.27L216.02,166.27L216.10,166.26L216.17,166.24L216.24,166.22L216.30,166.18L216.37,166.15L216.43,166.10L216.48,166.05L216.53,166.00L216.57,165.94L216.61,165.88L216.64,165.81L216.67,165.74L216.69,165.67L216.70,165.60z"/></g><g><text xml:space="preserve" fill="#000000" stroke-width="0" x="170.97" y="203.40" font-size="3.79" opacity="1.00" font-family="Arial">BPA0161</text></g></g><g><g><path style="stroke:#000000;stroke-width:0.125" d="M226.68,198.93L237.26,169.30"/></g><g><path style="fill:#000000" d="M238.01,169.30L238.01,169.23L238.00,169.16L237.98,169.09L237.95,169.02L237.92,168.95L237.88,168.89L237.84,168.83L237.79,168.77L237.74,168.72L237.68,168.68L237.61,168.64L237.55,168.61L237.48,168.59L237.41,168.57L237.33,168.56L237.26,168.55L237.19,168.56L237.11,168.57L237.04,168.59L236.97,168.61L236.91,168.64L236.84,168.68L236.78,168.72L236.73,168.77L236.68,168.83L236.64,168.89L236.60,168.95L236.57,169.02L236.54,169.09L236.52,169.16L236.51,169.23L236.51,169.30L236.51,169.38L236.52,169.45L236.54,169.52L236.57,169.59L236.60,169.66L236.64,169.72L236.68,169.78L236.73,169.83L236.78,169.88L236.84,169.93L236.91,169.96L236.97,170.00L237.04,170.02L237.11,170.04L237.19,170.05L237.26,170.05L237.33,170.05L237.41,170.04L237.48,170.02L237.55,170.00L237.61,169.96L237.68,169.93L237.74,169.88L237.79,169.83L237.84,169.78L237.88,169.72L237.92,169.66L237.95,169.59L237.98,169.52L238.00,169.45L238.01,169.38z"/></g><g><text xml:space="preserve" fill="#000000" stroke-width="0" x="216.82" y="203.40" font-size="3.76" opacity="1.00" font-family="Arial">MWZ0048</text></g></g><g id="PMI6.0"><g><path style="stroke:#000000;stroke-width:0.125" d="M270.15,198.93L265.11,191.25"/></g><g><path style="fill:#000000" d="M265.86,191.25L265.86,191.17L265.85,191.10L265.83,191.03L265.81,190.96L265.78,190.89L265.74,190.83L265.69,190.77L265.64,190.72L265.59,190.67L265.53,190.62L265.47,190.59L265.40,190.56L265.33,190.53L265.26,190.51L265.19,190.50L265.11,190.50L265.04,190.50L264.97,190.51L264.90,190.53L264.83,190.56L264.76,190.59L264.70,190.62L264.64,190.67L264.58,190.72L264.53,190.77L264.49,190.83L264.45,190.89L264.42,190.96L264.40,191.03L264.38,191.10L264.37,191.17L264.36,191.25L264.37,191.32L264.38,191.39L264.40,191.47L264.42,191.54L264.45,191.60L264.49,191.66L264.53,191.72L264.58,191.78L264.64,191.83L264.70,191.87L264.76,191.91L264.83,191.94L264.90,191.97L264.97,191.98L265.04,191.99L265.11,192.00L265.19,191.99L265.26,191.98L265.33,191.97L265.40,191.94L265.47,191.91L265.53,191.87L265.59,191.83L265.64,191.78L265.69,191.72L265.74,191.66L265.78,191.60L265.81,191.54L265.83,191.47L265.85,191.39L265.86,191.32z"/></g><g><text xml:space="preserve" fill="#000000" stroke-width="0" x="263.75" y="203.40" font-size="3.81" opacity="1.00" font-family="Arial">MSR0017</text></g></g><g/><g><g/><g><text xml:space="preserve" fill="#000000" stroke-width="0" x="4.31" y="7.86" font-size="4.53" opacity="1.00" font-family="Arial" font-weight="bold">BPA8037</text></g></g><g id="paperID" visibility="hidden" opacity="0.00" transform="scale(0.000100)"><path style="stroke:#000000;stroke-width:0.500;fill:#e6e6e6;fill-rule:evenodd" d="M-2000.00,-2000.00L2297.00,-2000.00L2297.00,2210.00L-2000.00,2210.00zM0.00,0.00L297.00,0.00L297.00,210.00L0.00,210.00z"/><path style="fill:#000000;fill-opacity:0.118" d="M3.00,210.00L297.00,210.00L297.00,3.00L300.00,3.00L300.00,213.00L3.00,213.00z"/></g><g id="hotspot.0" onmouseover="ShowHotSpot(evt,'0')" onmouseout="HideHotSpot(evt,'0')" onmousemove="ShowToolTip(evt,'0',&quot;Hotspot 1&quot;)" opacity="0"><path style="fill:#00ff00;fill-rule:evenodd" d="M159.40,84.87L161.57,86.14L163.75,87.77L165.04,89.38L166.05,91.27L168.64,91.39L169.55,91.57L171.54,92.30L172.81,93.02L175.19,94.63L176.45,96.08L177.71,98.09L178.60,100.64L179.15,103.89L179.15,107.58L178.97,109.39L178.07,113.74L176.43,118.45L174.44,122.62L171.90,126.78L168.82,130.77L165.76,133.87L163.23,136.04L160.07,138.15L157.17,139.60L154.46,140.51L151.55,140.86L150.52,140.86L148.89,140.68L146.84,140.12L146.60,140.80L146.55,139.94L143.29,137.95L141.48,136.13L140.03,133.59L137.29,133.43L135.84,133.07L134.41,132.51L131.33,130.52L130.42,129.80L129.32,128.36L127.87,125.46L127.15,122.38L126.97,120.38L126.97,118.09L127.27,114.77L128.22,110.64L129.68,106.49L132.71,100.45L135.59,96.27L137.41,94.10L138.85,92.46L140.68,90.67L144.02,88.03L147.20,86.13L149.56,85.05L151.18,84.50L152.82,84.14L157.05,84.14zM191.12,121.83L192.20,122.20L201.99,128.18L205.62,130.52L206.88,132.16L207.60,134.34L207.60,137.66L207.24,139.28L206.15,142.37L204.70,144.90L203.38,146.66L202.00,148.18L199.81,149.98L197.41,151.20L196.49,151.37L193.83,151.38L192.20,150.83L179.53,143.02L178.25,141.58L177.70,140.87L177.16,139.23L177.16,135.30L177.88,132.40L178.97,130.04L180.44,127.52L182.79,124.81L185.08,123.10L186.76,122.25L187.98,121.84L188.70,121.65L190.02,121.65zM133.13,199.83L133.08,199.04L133.19,198.96zM139.49,201.91L139.48,202.72L139.29,203.08L138.32,203.93L139.50,204.12L139.50,204.33L137.58,204.34L137.75,203.89L138.94,202.72L138.93,202.10L138.31,202.08L137.99,202.55L137.79,202.55L137.84,201.80L138.32,201.55L138.93,201.55zM137.31,201.91L137.31,202.90L136.31,203.92L137.33,204.12L137.33,204.33L135.41,204.28L136.31,203.18L136.77,202.72L136.76,202.10L136.16,202.11L135.95,202.48L135.61,202.55L135.67,201.80L136.14,201.55L136.76,201.55zM135.14,201.91L135.13,202.90L134.13,203.92L135.15,204.12L135.15,204.33L133.41,204.34L133.49,203.80L134.78,202.53L134.79,202.28L134.60,202.09L133.99,202.11L133.83,202.54L133.43,202.54L133.47,201.97L133.96,201.55L134.58,201.55zM132.78,201.73L133.13,202.47L133.13,203.62L132.95,204.17L132.53,204.48L131.85,204.48L131.30,203.93L131.30,202.15L131.85,201.60L132.40,201.55zM128.88,201.98L128.88,201.57L130.97,201.57L130.98,201.98L130.16,202.10L130.03,204.37L129.82,204.37L129.69,202.10zM125.88,202.73L127.09,201.54L127.52,201.56L127.55,201.79L126.78,202.54L126.76,203.02L127.71,204.28L126.96,204.28L126.24,203.21L125.88,203.43L125.68,204.37L125.47,204.37L125.47,201.53L125.68,201.53zM128.41,204.36L128.00,204.36L128.00,201.54L128.41,201.54zM132.60,202.46L132.60,203.63L132.39,203.99L131.85,203.93L131.85,202.15L132.39,202.10z"/></g></g></svg>
