<?xml version="1.0" encoding="UTF-8" standalone="no"?>
<svg xmlns="http://www.w3.org/2000/svg" xmlns:xlink="http://www.w3.org/1999/xlink" width="297.000mm" height="210.000mm" viewBox="0.000000 0.000000 297.000000 210.000000" stroke-linejoin="round" stroke-linecap="round" fill="none" fill-rule="evenodd"><desc>Composer Export</desc><script type="text/ecmascript"><![CDATA[
if(typeof(top) != "undefined")
{
	top.ShowPaper = ShowPaper;
}
function ShowHotSpot(evt,hotspotid)
{
	var svgDocument = evt.target.ownerDocument;
	var strId = "hotspot."+hotspotid;
	var hotspot = svgDocument.getElementById(strId);
	if(hotspot)
		hotspot.setAttribute("opacity",".5");
}
function HideHotSpot(evt,hotspotid)
{
	var svgDocument = evt.target.ownerDocument;
	var strId = "hotspot."+hotspotid;
	var hotspot = svgDocument.getElementById(strId);
	if(hotspot)
		hotspot.setAttribute("opacity","0");

	var toolTip = svgDocument.getElementById('ToolTip');
	if(toolTip)
		toolTip.setAttribute("visibility","hidden");
}
function ShowToolTip(evt,hotspotid,strTooltip)
{
	if(strTooltip=="")
	return;

	// change text
	var svgDocument = evt.target.ownerDocument;
	var tiptext = svgDocument.getElementById('ToolTipText');
	if( !tiptext )
	return;
	tiptext.firstChild.nodeValue = " " + strTooltip + "  " ;

	// show tooltip before, else some refresh issue

	var toolTip = svgDocument.getElementById('ToolTip');
	if(!toolTip)
	return;

	toolTip.setAttribute("visibility","visible");
	toolTip.setAttribute("opacity",".95");

	// move tooltip
	// get viewbox

	var root = svgDocument.documentElement;
	var vbox = (root.getAttribute("viewBox")).split(' ');
	var x0 = parseFloat(vbox[0]);
	var y0 = parseFloat(vbox[1]);
	var vboxW = parseFloat(vbox[2]);
	var vboxH = parseFloat(vbox[3]);

	// get default width of svg

	var strW = root.getAttribute("width");
	var svgW = parseFloat(strW);
	if(strW.indexOf('mm') != -1)
	svgW *= 3.779;

	var strH = root.getAttribute("height");
	var svgH = parseFloat(strH);
	if(strH.indexOf('mm') != -1)
	svgH *= 3.779;  	// 96 dpi  -> 96/25.4 = 3.779

	// update the viewbox / width / height if svg is embedded in html with zoom fit all
	var realx0 = x0;
	var realy0 = y0;
	var realvboxW = vboxW;
	var realvboxH = vboxH;
	var realsvgW = svgW;
	var realsvgH = svgH;

	if ((typeof(top) == "undefined") || (typeof(top.svgctl1) != "undefined")) // embedded in html
	{
		// get window size in pxl

		svgW = window.innerWidth;
		svgH = window.innerHeight;

		// calculate real viewbox

		realsvgW = svgW;
		realsvgH = svgH;
		if((svgW / svgH) > (vboxW / vboxH))
		{
			realvboxW = (vboxH * svgW) / svgH;
			realvboxH = vboxH;
			realx0 = x0 - (realvboxW - vboxW)/2 ;
		}
		else
		{
			realvboxH = (vboxW * svgH) / svgW;
			realvboxW = vboxW;
			realy0 = y0 - (realvboxH - vboxH)/2 ;
		}
	}

	// get user zoom/pan

	var newScale = root.currentScale;
	var translation = root.currentTranslate;

	// transform pxl to user unit

	var xPos = (((evt.clientX+10- translation.x)/newScale) * realvboxW)/realsvgW  + realx0 ;
	var yPos = (((evt.clientY+5- translation.y)/newScale) * realvboxH)/ realsvgH  + realy0 ;
	var scaleForWidth = ( (1 / newScale) * realvboxH) / realsvgH;

	// move tooltip

	toolTip.setAttribute("transform", "translate(" + xPos + "," + yPos + ")" );

	// resize tooltip

	var fontsize = 12;
	tiptext.setAttribute("font-size",fontsize*scaleForWidth);
	tiptext.setAttribute("y", fontsize*scaleForWidth);
	var tipBG = svgDocument.getElementById('ToolTipBG');
	var outline = tiptext.getBBox();
	if(tipBG)
	{
		tipBG.setAttribute("stroke-width", 1*scaleForWidth);
		tipBG.setAttribute("width", Number(outline.width) );
		tipBG.setAttribute("height", Number(outline.height) + fontsize*.5*scaleForWidth );
	}
	var ToolTipShadow = svgDocument.getElementById('ToolTipShadow');
	if(ToolTipShadow)
	{
		ToolTipShadow.setAttribute("width", Number(outline.width) );
		ToolTipShadow.setAttribute("height", Number(outline.height) + fontsize*.5*scaleForWidth );
		ToolTipShadow.setAttribute("x", 3*scaleForWidth);
		ToolTipShadow.setAttribute("y", 3*scaleForWidth);
	}
}
function ShowPaper()
{
  var svgDocument = getDocument();
  var paper = svgDocument.getElementById("paperID");
  if(paper)
  {
    paper.setAttribute("transform","scale(1)");
    paper.setAttribute("opacity","1");
    paper.setAttribute("visibility","visible");
  }
  var svg = svgDocument.getRootElement();
  if(svg)
  {
    svg.setAttribute("width","307.000mm");
    svg.setAttribute("height","220.000mm");
    svg.setAttribute("viewBox","-5.000000 -5.000000 307.000000 220.000000");
  }
}
]]></script><defs/><g><path style="fill:#000000;fill-opacity:0.098;fill-rule:evenodd" d="M134.96,51.67L135.08,56.68L134.88,58.44L134.87,60.34L135.29,61.28L136.04,61.90L137.75,61.90L139.17,61.16L141.43,59.33L143.01,57.59L144.18,56.04L144.65,55.64L145.23,56.42L145.02,57.85L144.05,60.97L142.09,65.25L141.64,67.35L141.89,69.12L142.30,69.68L143.06,70.09L144.57,70.08L146.97,69.36L148.48,68.48L148.72,68.49L148.74,70.15L148.27,71.05L146.17,74.23L146.18,74.74L147.19,75.91L147.95,77.29L148.73,79.83L149.10,83.32L148.92,86.13L148.53,88.66L147.36,92.95L145.93,96.40L143.66,100.95L140.73,105.43L138.91,107.71L136.26,110.72L132.95,113.64L130.22,115.60L126.82,117.46L123.90,118.44L120.40,119.03L118.83,120.22L118.52,120.19L113.23,116.66L112.78,116.66L111.98,117.44L110.30,119.66L107.89,122.91L105.56,125.06L104.18,125.07L105.04,122.98L105.63,120.84L105.82,119.67L105.84,117.64L105.62,117.28L103.51,115.91L102.12,116.35L98.41,119.08L94.90,121.04L94.31,121.19L87.51,116.67L87.05,116.07L87.27,116.08L88.10,116.66L93.74,120.24L95.68,117.91L97.63,114.60L98.61,112.65L99.00,111.09L99.01,109.45L97.82,108.50L96.66,107.69L93.28,108.30L90.15,108.37L90.22,106.80L93.16,104.67L94.92,103.11L96.46,101.53L97.83,99.59L98.61,98.03L99.00,96.46L99.01,94.83L97.82,93.87L90.40,89.01L89.83,88.16L89.78,87.99L90.00,87.99L93.35,90.19L93.72,90.23L94.45,88.41L98.02,87.49L101.14,86.13L103.21,84.49L104.78,82.16L105.63,80.28L105.82,79.30L105.82,77.29L104.84,73.59L104.18,71.63L105.38,70.07L110.70,71.44L111.82,71.45L113.07,70.94L114.23,70.16L115.91,68.32L117.13,66.24L118.11,62.92L118.89,57.46L120.28,56.62L121.42,58.19L123.20,61.47L123.97,62.26L124.75,62.49L126.12,62.35L127.88,61.19L129.42,59.61L131.76,55.90L133.27,52.34L133.47,51.76L134.03,51.55L134.89,51.54zM128.64,85.54L128.05,88.07L126.80,91.11L126.17,92.44L125.91,92.56L125.78,93.02L125.65,93.09L124.85,94.04L124.61,94.58L122.08,97.11L121.74,97.17L121.45,97.46L119.47,98.62L119.47,98.03L120.00,95.43L121.36,92.11L123.68,88.58L125.65,86.46L128.25,84.54L128.64,84.49zM51.25,27.73L52.59,28.92L53.37,31.07L53.37,34.65L52.78,36.98L51.41,40.30L49.85,42.83L48.11,44.99L46.92,46.73L46.55,48.50L45.20,49.69L44.73,49.88L44.79,47.13L46.85,45.29L48.04,43.94L49.66,41.66L50.96,39.07L51.81,36.60L52.00,35.62L52.01,32.62L51.62,32.04L51.03,31.65L50.28,30.07L49.08,29.51L47.84,29.51L46.86,29.70L45.50,30.29L43.36,31.66L40.80,34.17L38.48,37.70L37.17,41.07L36.79,43.42L36.79,44.92L36.97,46.10L37.37,47.07L38.17,48.02L39.31,48.64L41.62,48.64L43.82,47.69L44.20,47.63L44.14,50.38L42.78,51.17L42.19,51.24L41.90,50.34L41.29,49.98L38.34,49.80L36.42,48.80L35.25,47.44L34.97,46.47L35.45,46.53L35.43,43.23L35.96,40.64L36.59,38.74L38.76,34.67L41.00,31.84L43.22,29.77L45.56,28.21L47.84,27.37L50.45,27.36zM83.00,37.16L84.76,38.29L85.95,39.63L87.10,42.00L87.69,44.72L87.69,48.10L87.10,51.61L85.74,56.10L83.53,60.71L81.25,64.48L78.85,67.54L76.57,70.14L73.57,72.79L70.08,75.15L66.81,76.56L64.42,77.09L61.95,77.09L60.77,76.91L58.82,75.93L56.90,74.54L55.70,73.20L54.92,71.64L54.65,70.66L55.72,71.31L55.51,69.10L55.51,66.04L55.90,63.11L56.82,59.55L58.57,55.25L60.50,51.72L63.22,47.62L65.86,44.61L68.52,41.99L71.64,39.66L73.97,38.29L77.10,37.12L79.05,36.73L81.06,36.73zM126.16,92.62L125.78,93.02L125.91,92.56L126.17,92.44zM125.32,93.93L124.61,94.58L124.85,94.04L125.65,93.09L125.78,93.02zM124.55,94.91L122.63,96.88L122.08,97.11L124.61,94.58zM165.31,104.83L165.70,105.00L166.09,105.38L162.70,105.37L160.37,106.35L157.91,108.18L156.35,109.94L155.18,111.50L153.99,113.43L152.77,116.49L152.17,119.61L152.44,121.75L152.65,121.92L153.02,122.72L154.58,123.70L166.50,131.70L166.28,132.73L152.25,123.49L151.26,122.34L151.04,121.94L151.00,121.54L151.24,121.53L151.49,121.75L151.84,121.84L151.83,119.68L152.23,117.32L153.21,114.41L155.10,111.03L157.52,108.18L159.19,106.74L161.53,105.37L162.50,104.97L164.53,104.80zM204.51,114.56L206.06,115.51L207.23,116.68L208.59,119.02L209.37,121.95L209.37,127.27L208.79,130.60L207.56,134.43L207.42,135.20L207.81,135.40L208.60,136.18L209.18,137.74L209.18,141.51L208.98,142.29L208.34,144.18L206.45,147.17L204.91,148.74L203.16,149.92L200.55,151.02L198.44,151.01L197.30,150.41L194.96,152.44L192.32,154.49L189.22,156.27L186.70,157.25L184.16,157.83L181.88,157.83L180.50,157.64L178.75,156.86L168.05,149.82L166.69,148.25L166.07,147.31L165.41,145.35L174.88,151.45L174.66,149.44L174.66,145.41L175.05,142.68L176.02,138.97L177.14,135.99L179.56,131.00L181.41,128.17L182.78,126.22L184.43,124.17L186.38,122.03L188.45,120.00L192.35,117.07L196.50,114.98L199.56,114.15L202.74,114.15zM247.78,163.69L247.75,163.87L247.40,163.90L223.01,147.86L223.02,147.48zM258.66,159.01L259.32,158.81L259.67,161.71L259.49,163.35L259.10,164.52L257.71,166.86L257.67,167.24L259.90,168.73L259.83,168.95L259.52,168.95L257.53,167.56L257.11,167.57L256.87,167.95L254.76,169.74L253.38,169.92L252.08,169.92L250.65,169.73L250.91,168.81L250.91,165.83L250.71,164.34L251.71,163.56L253.19,161.92L254.36,160.17L254.95,158.99zM270.36,164.08L271.38,163.87L271.78,165.82L271.78,167.64L271.53,168.76L270.21,171.34L268.46,173.49L267.32,174.50L266.45,174.80L262.99,174.80L263.00,169.20L263.99,168.44L265.28,166.99L266.45,165.24L267.03,164.07zM235.52,184.58L235.53,184.80L235.12,184.77L211.15,168.93L210.69,168.33L210.91,168.34zM247.28,179.98L247.40,184.02L247.01,185.39L245.62,187.72L245.64,188.24L247.78,189.63L247.75,189.81L247.40,189.84L245.25,188.42L244.99,188.42L244.67,188.90L243.03,190.38L241.88,190.79L239.21,190.79L238.56,190.60L238.82,189.48L238.82,186.89L238.56,185.34L240.80,183.27L242.33,180.90L242.83,180.04L247.20,179.84zM258.46,184.94L259.32,184.75L259.70,187.48L259.30,190.07L258.32,191.82L256.57,194.16L255.32,195.26L254.57,195.67L250.65,195.67L250.91,194.75L250.91,191.57L250.71,190.28L251.71,189.50L253.19,187.87L254.36,186.10L254.96,184.92zM81.45,39.06L82.24,39.47L78.85,39.46L77.67,39.65L76.52,40.05L74.23,41.08L71.24,42.97L68.21,45.58L65.48,48.71L63.65,51.16L61.19,55.34L59.60,59.02L58.43,63.11L57.98,66.76L58.24,70.35L57.87,70.28L57.47,69.88L57.27,68.90L57.00,66.18L57.46,62.53L58.63,58.43L60.19,54.73L62.94,50.07L65.19,47.25L66.74,45.49L68.52,43.75L71.64,41.41L73.98,40.04L76.51,39.06L77.49,38.87L80.67,38.87zM79.31,45.69L80.49,46.48L78.07,46.48L77.08,46.66L74.95,47.65L72.30,49.48L71.04,50.57L69.09,52.90L67.40,55.31L65.45,59.21L64.48,62.92L64.51,67.00L63.70,66.57L63.33,66.35L63.10,65.99L62.92,64.61L62.92,63.12L63.30,60.57L64.29,57.66L65.84,54.53L68.11,51.33L70.35,48.90L73.20,46.87L74.17,46.28L75.73,45.69L76.71,45.51L78.52,45.50zM45.78,47.81L45.78,48.50L45.50,48.82L44.92,48.90L44.99,48.11L45.59,47.63zM81.85,51.34L82.03,52.13L82.03,54.34L81.84,55.71L81.00,58.18L79.11,61.95L76.96,64.68L75.32,66.16L73.65,67.41L71.06,68.53L68.57,68.52L67.03,67.53L66.22,65.99L66.04,65.00L66.04,62.53L66.57,60.14L67.79,57.07L68.99,55.14L70.84,52.70L72.61,50.96L74.56,49.60L76.11,48.81L77.75,48.62zM44.01,49.16L43.82,49.86L43.36,50.21L43.03,50.20L43.03,49.48L43.55,48.99L43.83,48.99zM133.71,66.37L143.26,72.63L142.68,72.62L141.90,72.42L138.52,72.42L136.56,72.79L135.02,73.40L132.48,74.56L128.58,77.09L126.69,78.72L125.15,80.10L122.32,83.12L119.20,87.22L117.13,90.61L114.59,95.68L112.79,101.09L112.06,105.24L112.07,110.25L112.28,112.06L102.31,105.57L101.92,103.62L101.92,98.41L102.84,93.67L104.07,90.02L105.83,86.13L107.69,82.73L110.52,78.54L113.64,74.84L116.49,72.03L119.22,69.88L121.95,68.12L125.27,66.57L128.19,65.79L131.96,65.78zM144.25,81.96L144.63,83.34L144.63,87.88L144.04,90.80L144.03,91.73L144.84,91.92L144.57,92.90L143.20,96.40L141.71,99.39L139.55,102.89L136.83,106.41L134.90,108.38L132.85,110.23L130.39,112.06L127.48,113.63L126.90,112.75L125.08,113.38L122.92,113.76L121.81,113.76L119.66,113.38L119.03,112.95L122.93,112.98L124.92,112.44L125.45,111.80L128.56,110.03L130.80,108.18L131.97,107.31L132.35,107.54L132.66,107.52L134.88,105.24L137.61,101.72L139.36,99.00L141.25,95.23L142.68,91.59L143.27,89.45L143.66,87.10L143.66,82.75L143.37,81.39zM142.31,83.32L142.49,84.51L142.49,88.66L141.51,92.95L140.28,96.01L138.39,99.78L137.24,101.16L136.19,101.87L134.81,101.83L132.36,104.69L131.95,104.81L131.10,104.24L131.16,103.89L133.32,101.73L133.64,101.24L134.43,101.29L134.90,101.10L135.38,101.08L136.83,99.78L138.78,96.27L140.35,92.57L141.12,89.64L141.51,86.91L141.51,84.51L141.23,82.56zM134.89,86.06L135.27,86.65L135.66,88.41L135.66,90.03L135.26,91.97L134.62,93.87L133.12,96.85L131.10,99.70L128.76,101.85L126.05,103.43L124.48,103.81L123.18,103.81L121.64,103.41L120.27,102.43L119.66,101.09L119.47,100.31L119.48,99.00L121.84,97.46L122.08,97.11L122.63,96.88L124.55,94.91L124.61,94.58L125.32,93.93L125.78,93.02L126.16,92.62L126.17,92.44L126.63,91.92L127.80,89.58L128.45,88.08L129.03,85.74L129.16,84.12L130.74,83.52L130.98,83.51zM134.53,104.19L134.51,104.46L133.86,105.40L133.25,105.45L133.31,104.64L133.84,103.98L134.31,103.98zM125.54,108.86L125.48,109.07L123.12,109.66L121.93,111.21L120.79,112.01L119.27,112.01L118.63,111.61L120.09,111.12L121.03,110.31L121.95,108.88L124.77,108.31zM124.75,110.60L124.55,111.29L124.08,111.80L123.51,111.89L123.58,110.90L124.09,110.42L124.57,110.42zM131.51,106.71L130.11,107.88L127.88,109.55L125.51,110.90L125.44,110.67L128.36,108.86L131.59,106.36zM194.18,120.95L194.17,122.61L193.39,124.16L191.77,125.67L190.27,125.65L189.88,125.26L189.86,123.75L190.37,122.51L191.16,121.34L192.35,120.39L193.02,120.20zM206.47,126.24L206.26,127.67L205.61,128.97L204.71,130.02L203.67,130.73L202.53,130.74L202.17,130.52L201.95,129.95L201.96,129.02L202.46,127.58L203.25,126.41L204.30,125.52L204.83,125.24L205.28,125.24zM197.87,128.97L206.84,134.83L204.62,135.19L204.23,135.41L204.29,135.99L204.89,137.45L204.04,137.94L202.49,139.11L201.39,140.35L199.95,142.42L198.86,145.00L197.67,144.77L196.69,144.82L196.50,146.00L196.53,148.71L194.77,147.67L187.36,142.83L186.96,142.82L186.15,141.66L185.97,140.87L185.97,138.39L186.50,136.38L187.73,133.91L188.82,132.26L190.67,130.22L192.93,128.77L194.49,128.19L195.92,128.18zM182.09,142.02L182.08,143.27L181.43,144.77L180.15,146.21L179.09,146.73L178.36,146.73L177.78,146.32L177.77,144.42L178.77,142.50L179.93,141.51L180.44,141.24L181.10,141.24zM194.14,148.26L193.71,149.45L192.62,150.89L191.58,151.60L190.27,151.58L189.88,151.19L189.86,149.69L190.48,148.16L191.56,146.88L192.02,146.89z"/><g id="Actor_.0"><g style="stroke:#000000;stroke-width:0.176"><path d="M117.84,111.04L118.47,111.54L119.70,112.10L118.62,111.39"/><path d="M119.02,111.66L119.70,112.10L120.22,112.12L120.81,111.92L121.43,111.53L122.02,110.97L122.56,110.29L123.00,109.52L123.03,109.49L123.06,109.47L124.36,109.30L125.74,108.90L125.77,108.90"/><path d="M123.46,111.73L123.46,111.74L123.60,111.84L123.78,111.85L124.00,111.76L124.22,111.60L124.42,111.37L124.58,111.11L124.69,110.83L124.73,110.57L124.69,110.36L124.59,110.22L124.42,110.17L124.22,110.20L124.00,110.33L123.78,110.53L123.60,110.78L123.46,111.06L123.39,111.33L123.39,111.56L123.46,111.73"/><path d="M132.85,107.16L132.12,104.79L132.12,104.75L132.13,104.73L132.15,104.69L133.53,103.28L134.85,101.73L134.86,101.72L134.89,101.71L135.33,101.91L135.87,101.89L136.47,101.66L137.08,101.24L137.68,100.66L138.20,99.96L139.42,97.79L140.47,95.58L141.33,93.36L141.98,91.17L142.41,89.05L142.61,87.04L142.59,85.16L142.33,83.46L141.85,81.95L141.16,80.67L140.25,79.63L139.16,78.85L138.98,78.78"/><path d="M133.48,105.42L133.38,105.42L133.25,105.32L133.17,105.15L133.17,104.91L133.23,104.68L133.25,104.64L133.38,104.36L133.57,104.11L133.78,103.91L134.00,103.79L134.21,103.75L134.37,103.80L134.48,103.94L134.51,104.15L134.48,104.41L134.37,104.68L134.21,104.95L134.00,105.18L133.78,105.34L133.57,105.43L133.48,105.42"/><path d="M137.12,99.26L138.20,99.96"/></g><g style="stroke:#000000;stroke-width:0.529"><path d="M125.04,112.29L125.78,108.93L125.77,108.90L124.67,108.19L123.29,108.59L121.98,108.77L121.95,108.78L121.92,108.81L121.48,109.58L120.95,110.26L120.35,110.82L119.73,111.21L119.14,111.41L118.62,111.39L117.84,111.04L117.42,110.70L116.56,109.61L115.91,108.27L115.48,106.72L115.28,104.97L115.31,103.06L115.41,102.19"/><path d="M123.66,85.30L124.58,84.29L126.30,82.68L128.06,81.28L129.83,80.11L131.59,79.21L133.31,78.57L134.95,78.21L136.49,78.14L137.90,78.35L138.98,78.78L139.18,78.92L140.08,79.96L140.77,81.24L141.25,82.75L141.51,84.46L141.53,86.33L141.33,88.35L140.90,90.46L140.25,92.65L139.40,94.87L138.35,97.08L137.12,99.26L136.60,99.95L136.01,100.53L135.39,100.95L134.79,101.18L134.26,101.20L133.81,101.01L133.79,101.01L133.76,101.04L132.45,102.58L131.08,103.98L131.05,104.02L131.04,104.04L131.04,104.08L131.99,107.17"/></g></g><g id="Actor_.1"><g style="stroke:#000000;stroke-width:0.176"><path d="M150.62,118.94L150.79,117.37L151.19,115.71L151.81,113.99L152.62,112.28L153.62,110.62L154.75,109.05L156.00,107.63L157.33,106.39L158.70,105.37L160.07,104.59"/><path d="M153.38,124.18L152.66,123.41L152.15,122.38L151.86,121.11L151.80,119.72L151.98,118.15L152.38,116.49L153.00,114.77L153.81,113.06L154.80,111.40L155.94,109.83L157.19,108.41L158.52,107.17L159.88,106.14L161.25,105.37L162.58,104.87L163.83,104.65L164.97,104.73L165.96,105.09"/><path d="M152.29,121.19L152.17,119.84L152.29,118.33L152.65,116.67L153.21,115.05L153.98,113.36L154.93,111.73L156.03,110.18L157.25,108.77L158.55,107.55L159.88,106.55L161.22,105.79L162.52,105.31L163.74,105.12L164.87,105.23L164.69,105.22L163.44,105.44L162.12,105.94L160.75,106.71L159.38,107.73L158.05,108.97L156.80,110.40L155.67,111.96L154.67,113.63L153.86,115.34L153.24,117.05L152.84,118.71L152.66,120.28L152.72,121.71L153.01,122.95L153.05,123.02L152.64,122.35L152.29,121.19"/><path d="M153.05,123.02L153.52,123.97L154.08,124.57"/><path d="M166.55,105.56L165.83,105.29L164.87,105.23"/><path d="M178.79,113.52L178.28,113.95L176.33,115.85L174.46,117.94L172.69,120.19L171.06,122.56L169.57,125.03L168.26,127.55L167.14,130.10L166.24,132.63"/><path d="M206.09,115.47L204.78,114.67L203.30,114.14L201.66,113.92L199.90,113.99L198.03,114.35L196.07,115.01L194.07,115.95L192.03,117.16L190.00,118.62L187.99,120.32L186.04,122.22L184.16,124.31L182.40,126.56L180.79,128.89L179.28,131.40L177.97,133.92L176.85,136.47L175.94,139.02L175.24,141.52L174.77,143.95L174.53,146.26L174.53,148.44L174.77,150.44L175.24,152.25L175.94,153.84L176.85,155.18L177.97,156.27"/><path d="M177.88,146.26L177.72,146.02L177.60,145.33L177.72,144.51L178.04,143.61L178.55,142.74L179.19,141.97L179.90,141.38L180.60,141.04L181.24,140.97L181.75,141.18L182.08,141.64L182.19,142.33L182.08,143.16L181.75,144.05L181.24,144.93L180.60,145.69L179.90,146.28L179.19,146.62L178.55,146.69L178.04,146.49L177.88,146.26"/><path d="M182.08,141.64L181.11,140.98"/><path d="M187.34,143.35L187.77,143.89L188.49,144.49L191.74,146.62L191.33,146.96L190.68,147.73L190.18,148.60L189.85,149.50L189.74,150.33L189.85,151.01L190.18,151.48L190.68,151.69L191.33,151.61L192.03,151.27L192.74,150.68L193.38,149.92L193.89,149.04L194.19,148.22L197.28,150.24"/><path d="M187.54,143.60L187.54,143.59"/><path d="M190.21,125.59L190.18,125.57L189.85,125.10L189.74,124.42L189.85,123.59L190.18,122.70L190.68,121.82L191.32,121.05L192.03,120.47L192.74,120.12L193.38,120.05L193.89,120.26L194.21,120.73L194.32,121.41L194.21,122.22L193.89,123.14L193.38,124.01L192.74,124.78L192.03,125.36L191.33,125.71L190.68,125.78L190.21,125.59"/><path d="M194.19,148.22L191.74,146.62"/><path d="M197.55,150.41L196.93,149.68L196.53,148.70L196.35,147.52L196.41,146.17L196.70,144.70L197.21,143.17L197.93,141.63L198.82,140.14L199.85,138.75L200.99,137.51L202.20,136.47L202.82,136.04L203.43,135.67L204.64,135.12L205.79,134.86L206.82,134.89L207.71,135.21"/><path d="M197.17,128.64L197.85,128.82L198.65,129.29L207.32,134.96"/><path d="M197.19,128.64L197.09,128.60"/><path d="M196.89,128.42L197.31,128.68"/><path d="M197.35,128.67L197.38,128.69"/><path d="M202.88,149.98L201.89,150.31L200.98,150.41L200.18,150.26L199.50,149.88L198.99,149.26L198.66,148.45L198.51,147.46L198.56,146.34L198.80,145.12L199.23,143.84L199.82,142.56L200.56,141.32L201.43,140.16L201.57,140.00L202.38,139.13L203.38,138.26L203.90,137.90L204.41,137.59L205.42,137.13L206.37,136.92L207.23,136.94L207.97,137.21L208.57,137.71L208.99,138.43L209.24,139.33L209.28,140.39"/><path d="M202.31,130.56L201.99,130.09L201.87,129.41L201.99,128.58L202.31,127.69L202.82,126.81L203.46,126.05L204.17,125.46L204.88,125.12L205.51,125.04L206.02,125.25L206.35,125.72L206.46,126.40L206.35,127.23L206.02,128.13L205.51,129.00L204.88,129.77L204.17,130.35L203.46,130.70L202.82,130.77L202.31,130.56"/></g><g style="stroke:#000000;stroke-width:0.529"><path d="M166.24,132.63L154.24,124.75L154.08,124.57L153.38,124.18L152.19,123.40L151.47,122.63L150.96,121.60L150.67,120.36L150.62,118.94L150.61,118.46L150.78,116.97L151.16,115.38L151.75,113.75L152.53,112.11L153.48,110.53L154.56,109.03L155.75,107.68L157.02,106.49L158.32,105.52L159.62,104.78L160.07,104.59L161.39,104.09L162.64,103.87L163.78,103.95L164.77,104.31L165.96,105.09L166.55,105.56L166.82,105.66L178.79,113.52"/><path d="M166.24,132.63L165.53,135.15L165.06,137.58L164.82,139.89L164.82,142.07L165.06,144.07L165.53,145.88L165.56,145.95"/><path d="M197.28,150.24L196.07,151.42L194.07,153.12L192.03,154.58L190.00,155.79L187.99,156.73L186.04,157.38L184.16,157.75L182.40,157.82L180.76,157.59L179.28,157.07L177.97,156.27L168.26,149.90L167.14,148.81L166.23,147.47L165.96,146.85"/><path d="M207.32,134.96L208.13,132.72L208.82,130.22L209.29,127.79L209.53,125.48L209.53,123.30L209.29,121.29L208.82,119.49L208.13,117.90L208.01,117.73L207.21,116.56L206.09,115.47L196.38,109.10L195.07,108.30L193.60,107.78L191.96,107.55L190.19,107.62L188.32,107.99L186.37,108.64L184.36,109.58L182.32,110.79L180.29,112.25L178.79,113.52"/><path d="M207.32,134.96L207.71,135.21L208.42,135.81L208.93,136.67L209.22,137.76L209.28,139.03L209.28,140.39L209.14,141.57L208.80,142.83L208.29,144.11L207.62,145.38L206.81,146.58L205.90,147.68L205.79,147.80L204.92,148.64L203.90,149.41L202.88,149.98L201.59,150.53L200.41,150.94L199.32,151.05L198.35,150.88L197.55,150.41L197.28,150.24"/></g></g><g id="Actor_.2"><g style="stroke:#000000;stroke-width:0.176"><path d="M35.51,46.42L35.31,44.99L35.35,43.39L35.63,41.65L36.14,39.84L36.87,37.99L37.80,36.15L38.90,34.37L40.14,32.71L41.50,31.19L42.94,29.87L44.41,28.77L45.88,27.94L47.32,27.37L48.68,27.11L49.92,27.14L51.02,27.47"/><path d="M35.87,47.43L35.95,47.65L36.60,48.63L37.47,49.35"/><path d="M44.22,49.74L44.26,47.35L42.93,48.07L41.65,48.52L40.45,48.68L39.36,48.56L38.43,48.15L38.07,47.81"/><path d="M42.30,51.20L42.23,51.14L42.19,51.03L42.13,50.52L42.00,50.13L41.77,49.85L41.44,49.72L41.24,49.73"/><path d="M43.17,50.14L43.33,50.11L43.51,50.01L43.68,49.85L43.83,49.65L43.94,49.42L44.00,49.21L44.00,49.02L43.94,48.88L43.83,48.80L43.68,48.79L43.51,48.86L43.33,48.99L43.17,49.17L43.04,49.39L42.96,49.61L42.93,49.82L42.96,49.98L43.04,50.09L43.17,50.14"/><path d="M44.61,50.00L44.56,47.15L43.75,46.62"/><path d="M44.26,47.35L43.76,47.02"/><path d="M45.11,48.89L45.06,48.90L44.93,48.86L44.84,48.74L44.81,48.58L44.84,48.37L44.93,48.15L45.06,47.93L45.22,47.75L45.40,47.62L45.57,47.55L45.72,47.56L45.83,47.64L45.89,47.78L45.89,47.97L45.83,48.19L45.72,48.41L45.57,48.61L45.40,48.77L45.22,48.87L45.11,48.89"/><path d="M44.56,47.15L45.89,46.13L47.17,44.89L48.37,43.48L48.48,43.33L49.46,41.94L50.39,40.30L51.14,38.63L51.69,36.97L52.02,35.37L52.12,33.88L51.99,32.55L51.64,31.41L51.06,30.49L50.29,29.84L49.94,29.70"/></g><g style="stroke:#000000;stroke-width:0.529"><path d="M35.78,48.09L35.79,48.10L36.66,48.82L37.47,49.35L38.51,49.78L39.71,49.91L41.04,49.74L41.24,49.73L41.32,49.99L41.38,50.50L41.42,50.61L41.49,50.67L42.30,51.20L42.40,51.22L42.52,51.19L43.36,50.76L44.21,50.26L44.22,49.74L44.61,50.00L45.46,49.39L46.30,48.71L46.42,48.58L46.52,48.44L46.59,48.28L46.63,48.12L46.70,47.53L46.82,46.97L47.05,46.39L47.38,45.82L47.78,45.32L49.11,43.75L50.31,42.04L51.35,40.24L52.22,38.39L52.87,36.54L53.31,34.75L53.51,33.06L53.47,31.50L53.19,30.14L52.68,28.99L51.95,28.09L51.02,27.47L50.22,26.94L49.11,26.61L47.87,26.58L46.51,26.84L45.07,27.40L43.60,28.24L42.13,29.34L40.69,30.66L39.33,32.18L38.09,33.84L36.99,35.62L36.06,37.46L35.33,39.31L34.82,41.12L34.54,42.86L34.50,44.46L34.70,45.89L34.99,46.72"/><path d="M36.71,43.88L36.70,44.00L36.80,45.36L37.13,46.52L37.68,47.46L38.07,47.81L38.55,48.03L39.64,48.15L40.84,47.99L42.12,47.54L43.45,46.82L43.76,47.02L43.75,46.62L45.08,45.60L46.36,44.36L47.57,42.95L48.65,41.40L49.58,39.77L50.33,38.10L50.88,36.44L51.21,34.84L51.31,33.35L51.20,32.22L51.19,32.02L50.83,30.87L50.26,29.96L49.94,29.70L49.34,29.46L48.24,29.36L47.03,29.56L45.74,30.04L44.41,30.79L43.08,31.79L41.79,33.00L40.58,34.39L39.48,35.93L38.53,37.55L37.76,39.22L37.18,40.89L36.83,42.50L36.71,43.88"/></g></g><g id="Actor_.3"><g style="stroke:#000000;stroke-width:0.176"><path d="M89.36,107.91L90.10,108.39L90.09,107.56L90.10,106.72L83.08,102.11"/><path d="M86.62,115.58L93.65,120.18L94.03,120.66L94.43,121.12"/><path d="M87.21,86.06L88.99,87.23L86.62,85.66"/><path d="M87.33,86.14L87.54,86.28"/><path d="M87.68,86.37L87.88,86.50"/><path d="M87.41,83.70L94.43,88.31L93.65,90.27L94.55,90.87L89.84,87.78L91.37,88.79"/><path d="M88.44,86.88L89.97,87.87"/><path d="M88.99,87.23L89.83,87.78"/><path d="M90.10,108.39L91.13,108.38L91.61,108.35L92.13,108.33L93.08,108.24L94.00,108.12L94.88,107.97L96.30,107.64L97.19,107.55L97.96,107.77L98.54,108.27L98.91,109.02L99.06,110.00L98.97,111.14L98.64,112.37L98.10,113.64L97.70,114.44L97.14,115.49L96.54,116.50L95.90,117.46L95.22,118.38L94.50,119.25L93.65,120.18"/><path d="M90.10,106.72L91.23,106.01L92.20,105.33L93.12,104.62L94.02,103.86L94.87,103.07L95.70,102.23L96.30,101.59L97.19,100.50L97.96,99.28L98.54,98.02L98.91,96.77L99.06,95.60L98.97,94.59L98.64,93.78L98.10,93.22L94.55,90.87"/><path d="M91.82,89.08L93.65,90.27"/><path d="M93.23,90.00L93.20,89.99"/><path d="M97.09,67.01L104.11,71.62L104.51,72.57L104.85,73.51L105.15,74.42L105.40,75.32L105.61,76.19L105.87,77.62L105.91,78.68L105.71,79.87L105.28,81.13L104.66,82.39L103.86,83.58L102.94,84.63L101.95,85.50L100.94,86.12L99.43,86.82L98.53,87.19L97.59,87.51L96.62,87.80L95.61,88.06L94.43,88.31"/><path d="M104.66,115.88L103.86,115.72L102.94,115.87L101.95,116.32L100.94,117.02L100.30,117.55L99.44,118.22L98.51,118.89L97.55,119.51L97.01,119.82"/><path d="M104.11,71.62L105.47,69.89L98.45,65.28"/><path d="M113.01,116.42L113.60,115.98L113.68,115.94L105.79,110.77L104.59,109.74L103.58,108.45L102.78,106.92L102.20,105.16L101.85,103.19L101.74,101.05L101.85,98.75L102.20,96.32L102.78,93.80L103.58,91.22L104.59,88.61L105.79,86.00L107.19,83.43L108.74,80.92L110.44,78.52L112.27,76.24L114.20,74.12L116.20,72.19L118.26,70.47L120.34,68.98L122.43,67.73L124.48,66.76L126.49,66.06L128.42,65.65L130.24,65.53L131.94,65.70L133.50,66.16L134.89,66.91L145.03,73.56L143.64,72.81L142.09,72.35L140.38,72.18L138.56,72.30L136.63,72.71L134.62,73.41L132.57,74.39L130.48,75.63L128.40,77.12L126.34,78.84L124.34,80.78L122.41,82.89L120.58,85.17L118.88,87.57L117.33,90.08L115.93,92.65L114.73,95.26L113.72,97.87L112.92,100.45L112.34,102.97L111.99,105.40L111.88,107.70L111.99,109.85L112.34,111.81L112.92,113.57L113.72,115.11L114.73,116.39L115.93,117.42L117.33,118.17L118.39,118.48L118.58,119.17L118.67,119.65L118.70,120.15"/><path d="M104.11,125.10L104.54,124.25L104.88,123.44L105.16,122.59L105.41,121.70L105.61,120.77L105.77,119.79L105.87,119.05L105.91,117.94L105.71,117.01L105.47,116.62"/><path d="M105.47,69.89L106.79,70.33L108.10,70.73L109.59,71.12L110.78,71.38L111.63,71.39L112.59,71.11L113.60,70.55L114.60,69.73L115.54,68.72L116.37,67.55L117.04,66.30L117.51,65.03L117.74,64.24L118.02,63.18L118.26,62.06L118.45,60.93L118.59,59.78L118.67,58.61L118.70,57.43L111.68,52.82"/><path d="M113.68,115.94L115.93,117.42"/><path d="M122.43,86.82L122.80,86.32L124.49,84.31L126.28,82.47L128.13,80.82L130.01,79.40L131.90,78.22L133.77,77.31L135.59,76.67L137.33,76.31L138.97,76.24L140.48,76.47L141.84,76.98L143.03,77.78L144.03,78.84L144.82,80.16L145.39,81.71L145.74,83.47L145.86,85.40L145.74,87.50L145.39,89.71L144.82,92.01L144.37,93.33L144.03,94.37L143.03,96.74L141.84,99.09L140.48,101.39L138.97,103.60L137.33,105.68L135.59,107.61L133.77,109.36L131.90,110.90L130.01,112.20L128.13,113.25L126.28,114.03L124.49,114.53L122.80,114.74L121.22,114.66L119.78,114.29L118.51,113.63L117.41,112.70L116.52,111.51L115.84,110.07L115.37,108.42L115.14,106.57L115.11,105.57L115.14,104.55L115.37,102.39L115.84,100.13L116.52,97.79L117.41,95.43L118.51,93.06L119.37,91.49"/><path d="M115.12,105.22L115.14,105.82L115.36,107.61L115.81,109.21L116.47,110.59L117.33,111.74L118.39,112.64L119.62,113.28L120.51,113.51L121.01,113.63L122.53,113.71L124.16,113.51L125.89,113.03L127.67,112.27L129.49,111.26L131.31,110.00L133.12,108.52L134.87,106.83L136.56,104.97L138.14,102.96L139.59,100.83L140.91,98.61L142.05,96.34L143.01,94.05L143.78,91.78L144.31,89.65L144.66,87.42L144.78,85.40L144.66,83.53L144.33,81.84L143.78,80.34L143.01,79.07L142.05,78.05L140.91,77.28L139.59,76.78L138.14,76.57L136.56,76.63L134.87,76.97L133.39,77.50"/><path d="M118.39,118.48L118.88,118.63L120.49,118.79"/><path d="M118.07,112.37L118.13,112.41L119.49,112.88L121.00,113.06L122.63,112.95L124.36,112.54L126.17,111.86L128.01,110.89L129.88,109.67L131.73,108.21L133.52,106.54L135.29,104.63L136.89,102.63L138.40,100.48L139.76,98.23L140.95,95.91L141.94,93.58L142.74,91.26L143.31,88.99L143.66,86.81L143.78,84.76L143.76,84.44L143.66,82.84L143.31,81.12L142.74,79.61L141.94,78.33L140.96,77.32"/><path d="M118.70,57.43L120.27,56.40L120.88,57.28L121.38,58.03L121.83,58.76L122.25,59.47L122.62,60.16L123.18,61.31L123.65,61.96L124.32,62.34L125.14,62.42L126.09,62.20L127.09,61.70L128.10,60.94L129.05,59.96L129.91,58.82L130.41,58.06L131.05,57.05L131.65,55.97L132.20,54.88L132.69,53.77L133.13,52.65L133.50,51.50L126.48,46.89"/><path d="M120.27,56.40L118.94,55.52"/><path d="M125.13,111.89L126.34,111.29L128.27,110.09L130.19,108.64L131.96,107.07"/><path d="M125.34,110.92L126.86,110.13L128.72,108.91L130.57,107.45L131.74,106.36"/><path d="M133.50,51.50L134.18,51.46L134.86,51.45"/><path d="M144.54,55.43L144.00,56.27L143.39,57.09L142.72,57.89L141.99,58.67L141.20,59.42L140.38,60.13L139.75,60.65L138.74,61.36L137.74,61.80L136.83,61.95L136.03,61.80L135.40,61.37L134.98,60.66L134.78,59.73L134.82,58.63L134.92,57.88L135.03,56.88L135.10,55.85L135.11,54.81L135.08,53.76L135.01,52.68L134.94,52.12"/><path d="M148.87,68.16L148.37,68.52L147.81,68.85L147.18,69.16L146.83,69.30L146.50,69.43L145.76,69.68L144.39,70.04L143.49,70.12L142.73,69.91L142.15,69.41L141.77,68.65L141.63,67.68L141.72,66.54L142.04,65.30L142.58,64.03"/><path d="M145.03,73.56L145.96,74.35"/></g><g style="stroke:#000000;stroke-width:0.529"><path d="M102.73,124.19L97.09,120.49L97.01,119.82L96.54,120.09L95.51,120.63L94.43,121.12L87.41,116.51L87.00,116.06L86.62,115.58L86.87,114.38L87.18,113.21L87.55,112.05L87.97,110.90L88.45,109.78L88.96,108.71L89.36,107.91L83.08,103.78L83.07,102.95L83.08,102.11L83.58,101.12L83.85,100.66L84.14,100.15L84.77,99.20L85.45,98.27L86.19,97.35L86.96,96.50L87.56,95.86L88.46,94.76L89.22,93.55L89.80,92.29L90.18,91.04L90.32,89.87L90.23,88.89L89.90,88.04L89.36,87.48L87.57,86.29"/><path d="M103.58,124.75L104.11,125.10L104.79,125.09L105.47,125.05L106.38,124.25L107.24,123.41L108.06,122.52L108.85,121.58L109.60,120.60L110.28,119.61L110.78,118.85L111.63,117.71L112.59,116.74L113.01,116.42L118.70,120.15L120.27,119.12L120.49,118.79L120.58,118.80L122.41,118.68L124.34,118.27L126.34,117.57L128.40,116.59L130.48,115.35L132.57,113.86L134.62,112.14L136.63,110.20L138.56,108.09L140.38,105.81L142.09,103.41L143.64,100.90L145.03,98.33L146.24,95.72L147.25,93.11L147.94,90.86L148.05,90.53L148.62,88.01L148.97,85.58L149.09,83.28L148.97,81.14L148.62,79.17L148.05,77.41L147.25,75.87L146.24,74.59L145.96,74.35L146.49,73.69L147.15,72.79L147.76,71.87L148.32,70.92L148.87,69.84L148.88,68.99L148.87,68.16L142.58,64.03L142.99,63.24L143.51,62.16L143.97,61.06L144.38,59.95L144.74,58.82L145.05,57.68L145.33,56.37L144.94,55.89L144.54,55.43L137.52,50.82L136.34,51.37L135.33,51.90L134.94,52.12L134.86,51.45L127.83,46.84L127.16,46.85L126.48,46.89L125.48,47.78L124.65,48.60L123.91,49.40L123.09,50.38L122.36,51.34L121.67,52.33L121.17,53.09L120.32,54.23L119.36,55.21L118.94,55.52L113.25,51.79L111.68,52.82L111.06,53.74L110.57,54.61L110.46,54.83L110.12,55.52L109.70,56.47L109.33,57.47L109.00,58.51L108.77,59.30L108.30,60.57L107.63,61.82L106.80,62.98L105.86,64.00L104.86,64.81L103.85,65.38L102.89,65.66L102.04,65.64L100.90,65.42L100.30,65.32L99.75,65.26L99.26,65.23L98.82,65.24L98.45,65.28L97.09,67.01L96.94,67.68L96.87,68.32L96.84,69.00L96.85,69.72L96.92,70.48L97.13,71.89L97.17,72.94L96.97,74.13L96.55,75.39L95.92,76.65L95.12,77.84L94.20,78.90L93.21,79.76L92.20,80.39L90.75,81.12L89.96,81.58L89.23,82.07L88.56,82.59L87.95,83.13L87.41,83.70L86.62,85.66L87.33,86.14"/><path d="M87.29,86.11L87.68,86.37"/><path d="M122.43,86.82L121.22,88.47L119.78,90.73L119.37,91.49"/></g></g><g id="Actor_.4"><g style="stroke:#000000;stroke-width:0.176"><path d="M74.10,36.65L72.18,37.54L70.23,38.69L68.28,40.10L66.36,41.73L64.49,43.58L62.71,45.60L61.04,47.78L59.50,50.07L58.12,52.46L56.91,54.89L55.90,57.34L55.10,59.76L54.52,62.14L54.17,64.42L54.05,66.58"/><path d="M59.47,76.24L58.26,75.39L57.25,74.27L56.45,72.90L55.87,71.29L55.52,69.47L55.40,67.46L55.52,65.30L55.82,63.33L55.87,63.02L56.45,60.65L57.25,58.22L58.26,55.77L59.47,53.34L60.85,50.96L62.39,48.66L64.06,46.49L65.84,44.46L67.71,42.62L69.63,40.98L71.58,39.58L73.53,38.42L75.45,37.54L77.32,36.93L79.10,36.62L80.77,36.60L82.31,36.88L83.69,37.45"/><path d="M83.64,40.13L82.67,39.50L81.37,38.92L79.91,38.63L78.32,38.65L76.61,38.96L74.82,39.57L72.98,40.46L71.11,41.62L69.26,43.03L67.44,44.66L65.69,46.50L64.03,48.51L62.50,50.65L61.12,52.90L59.91,55.21L58.89,57.54L58.08,59.87L57.49,62.15L57.14,64.33L57.02,66.40L57.14,68.31L57.49,70.00L58.08,71.53L58.89,72.80L59.91,73.80L60.88,74.44L59.86,73.43L59.05,72.17L58.46,70.67L58.11,68.95L57.99,67.04L58.11,64.97L58.46,62.78L59.05,60.51L59.86,58.18L60.88,55.84L62.09,53.53L63.47,51.29L65.00,49.14L66.66,47.14L68.41,45.30L70.08,43.80L70.23,43.66L72.08,42.25L73.95,41.09L74.53,40.81L75.79,40.20L77.58,39.60L79.29,39.28L80.88,39.27L82.34,39.55L83.64,40.13L84.76,41.00L85.67,42.13L86.37,43.52L86.85,45.13L87.08,46.95L87.08,47.78L87.08,48.94L86.84,51.08L86.37,53.31L85.67,55.62L84.76,57.96L83.64,60.28L82.34,62.57L80.88,64.77L79.29,66.84L77.58,68.77L75.79,70.51L75.62,70.66L73.95,72.04L72.08,73.32L70.23,74.35L68.41,75.10L66.66,75.56L65.00,75.73L63.47,75.59L62.34,75.24"/><path d="M60.88,74.44L61.37,74.73"/><path d="M63.32,66.74L63.90,67.86L64.70,68.73L66.15,69.68L65.36,68.82L64.82,67.78L64.77,67.70L64.42,66.35L64.30,64.81L64.42,63.11L64.77,61.29L65.36,59.41L66.15,57.50L67.14,55.62L68.30,53.80L69.60,52.10L71.01,50.55L72.49,49.20L74.01,48.08L75.53,47.21L77.01,46.62L78.41,46.31L79.71,46.31L80.87,46.61L81.86,47.19L80.41,46.24L79.42,45.65L78.26,45.36L76.96,45.36L75.55,45.66L74.07,46.25L72.55,47.12L71.66,47.78L71.03,48.24L69.55,49.60L68.14,51.14L67.32,52.22L66.84,52.84L65.69,54.66L64.70,56.55L63.90,58.45L63.32,60.34L62.96,62.15L62.84,63.85L62.89,64.44L62.96,65.40L63.32,66.74"/><path d="M81.86,47.19L82.66,48.06L83.24,49.18L83.60,50.53L83.68,51.61L83.72,52.07L83.60,53.77L83.24,55.58L82.66,57.47L82.06,58.89L81.86,59.38L80.87,61.26L79.71,63.08L78.41,64.78L77.01,66.33L75.53,67.68L75.39,67.78L74.01,68.80L72.49,69.67L71.01,70.26L69.60,70.56L68.30,70.57L67.14,70.27L66.15,69.68"/><path d="M77.53,48.36L77.65,48.34L78.82,48.34L79.85,48.63L80.71,49.21L81.38,50.04L81.84,51.13L82.07,52.42L82.07,53.88L81.84,55.48L81.38,57.16L80.70,58.89L79.85,60.58L78.82,62.22L77.65,63.76L76.38,65.14L75.04,66.33L73.66,67.29L72.30,68.00L70.99,68.43L69.77,68.57L68.66,68.43L67.71,67.99L66.94,67.28L66.38,66.32L66.19,65.66"/></g><g style="stroke:#000000;stroke-width:0.529"><path d="M61.43,76.92L60.85,76.81L59.47,76.24L58.12,75.36L56.91,74.51L55.90,73.39L55.10,72.01L54.52,70.40L54.17,68.58L54.05,66.58L54.05,65.87L54.16,63.78L54.51,61.58L55.07,59.28L55.84,56.94L56.82,54.57L57.98,52.22L59.32,49.92L60.81,47.70L62.42,45.59L64.15,43.64L65.95,41.85L67.81,40.27L69.69,38.91L71.58,37.80L73.44,36.94L74.10,36.65L75.97,36.05L77.75,35.74L79.42,35.72L80.96,36.00L82.34,36.56L83.69,37.45L84.90,38.30L85.91,39.42L86.71,40.80L87.29,42.41L87.64,44.23L87.76,46.23L87.64,48.39L87.29,50.67L86.71,53.04L85.91,55.47L84.90,57.92L83.69,60.35L82.31,62.73L80.77,65.03L79.10,67.21L77.32,69.23L75.45,71.07L73.53,72.71L71.58,74.12L69.63,75.27L67.71,76.16L65.84,76.76L64.06,77.07L62.39,77.09"/><path d="M66.74,65.58L66.68,65.60L66.19,65.66L66.03,65.13L65.92,63.75L66.03,62.21L66.38,60.57L66.94,58.86L67.71,57.14L68.66,55.46L69.77,53.87L70.99,52.40L72.30,51.12L73.66,50.04L75.04,49.20L76.38,48.63L77.53,48.36L77.75,49.59L77.75,51.05L77.52,52.65L77.06,54.33L76.40,56.05L75.53,57.75L74.50,59.39L73.33,60.93L72.06,62.31L70.72,63.50L69.35,64.46L67.99,65.17L66.74,65.58"/></g></g><g id="Actor_.5"><g style="stroke:#000000;stroke-width:0.176"><path d="M120.90,110.31L119.92,110.29L118.56,109.95L117.37,109.33L116.37,108.43L115.68,107.42"/><path d="M117.34,109.30L118.48,109.91L119.83,110.25L120.93,110.28"/><path d="M117.91,103.45L117.63,102.61L117.62,102.56"/><path d="M119.53,105.76L119.57,105.79L119.67,105.85L119.58,105.80L118.74,104.97L118.10,103.89L117.67,102.59L117.47,101.09L117.50,99.42L117.77,97.62L118.25,95.74L118.95,93.81L119.84,91.88L120.92,89.99L122.14,88.19L123.50,86.51L124.95,84.99L126.42,83.69L126.46,83.66L128.00,82.56L129.54,81.71L131.03,81.13L132.46,80.82L133.78,80.81L134.97,81.09L135.90,81.58L135.92,81.60"/><path d="M117.42,101.05L117.42,101.12L117.58,102.22"/><path d="M117.43,100.25L117.44,99.46L117.45,99.42"/><path d="M117.71,97.63L117.70,97.67L117.52,98.89"/><path d="M119.32,105.56L118.72,104.98L118.70,104.95"/><path d="M118.39,104.44L118.07,103.91L118.05,103.86"/><path d="M118.19,95.75L117.91,96.82"/><path d="M118.88,93.82L118.25,95.56"/><path d="M119.58,105.80L119.56,105.78"/><path d="M135.02,81.11L135.99,81.64L136.84,82.47L137.48,83.55L137.90,84.85L138.10,86.36L138.07,88.02L137.81,89.82L137.32,91.70L136.62,93.63L135.79,95.42L135.73,95.56L134.66,97.45L133.43,99.25L132.08,100.94L130.63,102.46L129.12,103.78L127.57,104.88L126.04,105.73L124.54,106.32L123.11,106.62L121.79,106.63L120.61,106.36L119.67,105.85"/><path d="M120.65,102.71L120.18,102.15L119.85,101.55L119.88,101.65"/><path d="M119.85,101.55L119.60,100.85L119.43,99.96L119.38,99.06L119.37,99.15"/><path d="M119.38,98.89L119.38,99.06"/><path d="M119.61,98.80L119.50,98.84"/><path d="M119.02,93.51L119.77,91.89"/><path d="M120.58,102.62L121.07,103.00"/><path d="M120.84,90.00L120.13,91.24"/><path d="M121.25,89.40L122.06,88.19"/><path d="M122.36,87.82L123.41,86.51"/><path d="M124.86,84.98L124.11,85.77"/><path d="M125.47,84.44L126.37,83.66"/><path d="M131.33,105.02L129.99,106.24L128.23,107.58L126.46,108.68L125.76,109.02"/><path d="M125.78,108.95L126.37,108.67L128.14,107.57L129.90,106.23L131.31,104.96"/><path d="M127.92,82.54L127.88,82.57L126.81,83.34"/><path d="M129.45,81.69L129.41,81.70L128.49,82.22"/><path d="M129.06,84.00L129.09,83.99"/><path d="M131.63,83.32L130.78,83.42L129.88,83.67L129.18,83.95"/><path d="M130.15,81.41L130.91,81.11L130.95,81.10"/><path d="M131.60,83.32L132.23,83.34L132.96,83.51"/><path d="M132.37,80.79L132.34,80.80L131.26,81.03"/><path d="M133.42,83.74L132.92,83.50"/><path d="M133.69,80.78L133.67,80.77L133.06,80.78"/><path d="M134.32,80.91L134.86,81.03L134.89,81.04"/><path d="M138.92,78.76L139.63,79.56L140.32,80.85L140.79,82.37L141.03,84.09L141.03,85.56L141.03,85.98L140.79,88.01L140.32,90.14L139.63,92.34L138.73,94.56L137.63,96.76L136.35,98.92L134.93,100.97L134.76,101.18"/><path d="M138.89,78.75L139.59,79.55L140.28,80.85L140.74,82.37L140.97,84.09L140.97,85.99L140.73,88.02L140.25,90.15L139.56,92.35L138.65,94.57L137.55,96.78L136.27,98.93L134.84,100.98L134.68,101.19"/><path d="M135.99,81.64L135.94,81.61"/></g><g style="stroke:#000000;stroke-width:0.529"><path d="M129.18,83.95L129.06,84.00L128.13,84.50L127.16,85.14L126.20,85.89L125.26,86.75L124.36,87.70L123.50,88.74L122.69,89.84L121.95,90.99L121.29,92.17L120.72,93.38L120.24,94.59L119.86,95.79L119.59,96.96L119.42,98.08L119.38,98.89"/><path d="M129.18,83.95L129.14,84.76L128.97,85.88L128.70,87.05L128.32,88.25L127.84,89.46L127.27,90.67L126.61,91.86L125.87,93.01L125.07,94.10L124.20,95.14L123.30,96.09L122.36,96.95L121.40,97.70L120.43,98.34L119.50,98.84L119.38,98.89"/><path d="M125.43,110.53L125.72,110.39L127.03,109.66L128.34,108.80L129.64,107.82L130.93,106.72L131.64,106.05"/></g></g><g id="Actor_.6"><g style="stroke:#000000;stroke-width:0.176"><path d="M210.54,167.48L210.65,166.59L210.97,165.64L211.47,164.69L212.12,163.82L212.86,163.11L213.62,162.61"/><path d="M235.77,187.40L235.77,183.49L238.51,185.29L238.66,186.01L238.77,186.61L238.84,187.21L238.90,188.20L238.99,187.20L239.27,186.09L239.48,185.56L239.73,184.95L240.34,183.82L241.06,182.80L240.22,183.75L239.71,184.27L239.16,184.75L238.51,185.29"/><path d="M235.77,184.05L235.56,184.80L235.55,184.90"/><path d="M235.77,183.49L239.56,178.67L239.01,179.06L238.05,180.00L237.18,181.10L236.46,182.31L236.15,183.00"/><path d="M245.37,187.94L244.56,188.86L243.67,189.65L242.76,190.25L241.86,190.63L241.06,190.77L240.34,190.69L239.73,190.37L239.27,189.83L238.99,189.08L238.90,188.20L238.84,189.13L238.77,189.62L238.66,190.09L238.51,190.61"/><path d="M240.09,178.00L242.83,179.80L242.48,180.53L242.15,181.16L241.78,181.77L241.06,182.80L241.86,181.88L242.76,181.09L243.67,180.49L244.56,180.11L245.37,179.97L246.10,179.90L246.46,179.83L246.79,179.75L247.14,179.63"/><path d="M239.69,178.51L239.56,178.67"/><path d="M240.81,177.97L242.85,177.89"/><path d="M242.83,179.80L243.48,179.88L244.02,179.93L244.54,179.96L245.37,179.97L246.09,180.05L246.70,180.37L247.16,180.92L247.44,181.66L247.53,182.54L247.43,183.57L247.15,184.67L246.69,185.81L246.08,186.93L245.37,187.95"/></g><g style="stroke:#000000;stroke-width:0.529"><path d="M225.90,178.56L210.97,168.75L210.65,168.22L210.54,167.48L210.54,166.89L210.63,166.15L210.90,165.36L211.32,164.57L211.86,163.84L212.47,163.25L213.11,162.83L213.62,162.61L214.36,162.35L215.01,162.37L215.51,162.66L239.69,178.51L240.09,178.00L240.81,177.97L241.00,177.88L241.92,177.70L242.72,177.81L242.85,177.89L244.40,177.83L247.14,179.63L247.29,180.34L247.40,180.95L247.47,181.54L247.53,182.54L247.47,183.49L247.29,184.45L247.14,184.95L246.79,185.70L246.09,186.92L245.37,187.94"/><path d="M226.99,179.28L235.55,184.90L235.45,185.94L235.56,186.92L235.77,187.40L235.77,188.81L238.51,190.61L239.16,190.69L239.71,190.74L240.22,190.77L241.06,190.77L241.78,190.71L242.15,190.64L242.48,190.56L242.83,190.44L243.48,189.90L244.02,189.41L244.54,188.90L245.37,187.95"/></g></g><g id="Actor_.7"><g style="stroke:#000000;stroke-width:0.176"><path d="M225.76,141.69L224.99,142.19L224.26,142.91L223.61,143.78L223.11,144.72L222.83,145.56L222.79,145.68L222.68,146.56"/><path d="M247.91,166.48L247.91,163.14L247.70,163.88L247.69,163.99"/><path d="M248.29,162.09L248.59,161.40L249.32,160.19L250.19,159.08L251.15,158.15L251.70,157.75L247.91,162.58L247.91,163.14"/><path d="M247.91,162.58L250.65,164.38L250.80,165.09L250.90,165.70L250.98,166.29L251.03,167.29L251.13,166.29L251.40,165.18L251.86,164.03L252.47,162.91L253.19,161.88L252.36,162.84L251.84,163.35L251.30,163.84L250.65,164.38"/><path d="M259.28,158.71L258.93,158.83L258.60,158.92L258.23,158.99L257.51,159.05L256.70,159.20L255.81,159.58L254.89,160.18L254.00,160.97L253.19,161.88L253.92,160.86L254.28,160.25L254.62,159.62L254.96,158.89L255.61,158.97L256.16,159.02L256.67,159.05L257.51,159.05L258.22,159.14L258.84,159.46L259.29,160.00L259.57,160.75L259.66,161.63L259.57,162.65L259.29,163.76L258.83,164.89L258.22,166.01L257.51,167.03L256.70,167.95L255.81,168.74L254.89,169.34L254.00,169.72L253.19,169.86L252.47,169.78L251.86,169.46L251.40,168.91L251.13,168.17L251.03,167.29L250.98,168.21L250.90,168.71L250.80,169.18L250.65,169.69"/><path d="M252.22,157.09L254.96,158.89"/><path d="M251.70,157.75L251.82,157.60"/><path d="M252.94,157.06L254.98,156.98"/></g><g style="stroke:#000000;stroke-width:0.529"><path d="M223.58,148.15L223.11,147.84L222.79,147.30L222.68,146.56L222.68,145.98L222.77,145.24L223.04,144.44L223.46,143.65L223.99,142.93L224.61,142.33L225.25,141.91L225.76,141.69L226.50,141.44L227.14,141.46L227.64,141.75L251.82,157.60L252.22,157.09L252.94,157.06L253.13,156.97L254.05,156.79L254.86,156.90L254.98,156.98L256.54,156.91L259.28,158.71L259.43,159.43L259.53,160.04L259.61,160.63L259.66,161.63L259.61,162.57L259.42,163.53L259.28,164.03L258.92,164.78L258.23,166.01L257.51,167.03L256.67,167.99L256.16,168.50L255.61,168.99L254.96,169.52L254.62,169.64L254.28,169.73L253.92,169.79L253.19,169.86L252.36,169.86L251.84,169.82L251.30,169.77L250.65,169.69L247.91,167.89L247.91,166.48L247.70,166.01L247.58,165.02L247.69,163.99L223.58,148.15"/></g></g><g id="Actor_.8"><g style="stroke:#000000;stroke-width:0.176"><path d="M236.65,147.65L237.13,147.19L237.89,146.68"/><path d="M260.04,171.47L260.04,167.57L260.43,167.08L260.73,166.39L261.46,165.18L262.32,164.08L263.28,163.14L263.83,162.74L260.43,167.08"/><path d="M260.04,168.13L259.83,168.88L259.82,168.98"/><path d="M260.04,167.57L262.78,169.37L262.94,170.08L263.04,170.69L263.12,171.28L263.17,172.28L263.26,171.28L263.54,170.17L263.61,170.00L264.00,169.02L264.61,167.90L265.33,166.87L264.49,167.83L263.98,168.34L263.43,168.83L262.78,169.37"/><path d="M271.41,163.71L271.07,163.82L270.73,163.91L270.37,163.98L269.64,164.04L270.36,164.13L270.97,164.45L271.43,164.99L271.71,165.74L271.80,166.62L271.70,167.64L271.42,168.75L270.97,169.88L270.36,171.00L269.64,172.02L268.83,172.94L267.94,173.73L267.03,174.33L266.14,174.71L265.33,174.85L264.61,174.77L264.00,174.45L263.54,173.90L263.26,173.16L263.17,172.28L263.12,173.20L263.04,173.70L262.94,174.17L262.78,174.68"/><path d="M267.10,163.88L267.75,163.96L268.29,164.01L268.81,164.04L269.64,164.04L268.83,164.19L267.94,164.57L267.03,165.17L266.14,165.96L265.33,166.87L266.05,165.85L266.42,165.24L266.75,164.61L267.10,163.88L264.36,162.08"/><path d="M263.96,162.59L263.83,162.74"/><path d="M267.12,161.97L265.08,162.05"/></g><g style="stroke:#000000;stroke-width:0.529"><path d="M255.38,156.96L239.78,146.74L239.28,146.45L238.63,146.43L237.89,146.68L237.38,146.90L236.74,147.32L236.50,147.56"/><path d="M259.47,159.64L263.96,162.59L264.36,162.08L265.08,162.05L265.27,161.96L266.19,161.78L266.99,161.89L267.12,161.97L268.67,161.91L271.41,163.71L271.57,164.42L271.67,165.03L271.75,165.62L271.80,166.62L271.74,167.57L271.56,168.52L271.41,169.02L271.06,169.77L270.36,171.00L269.64,172.02L268.81,172.98L268.29,173.49L267.75,173.98L267.10,174.51L266.75,174.63L266.42,174.72L266.05,174.79L265.33,174.85L264.49,174.85L263.98,174.82L263.43,174.76L262.78,174.68L260.04,172.89L260.04,171.47L259.83,171.00L259.72,170.01L259.82,168.98L257.27,167.30"/></g></g><g id="Actor_.9"><g style="stroke:#000000;stroke-width:0.176"><path d="M224.51,168.56L224.99,168.10L225.76,167.60"/><path d="M247.91,192.39L247.91,189.04L247.70,189.79L247.69,189.89"/><path d="M247.91,189.04L247.91,188.48L250.65,190.28L250.80,191.00L250.90,191.61L250.98,192.20L251.03,193.19L251.13,194.07L251.40,194.82L251.86,195.36L252.47,195.68L253.19,195.77L254.00,195.62L254.89,195.24L255.81,194.64L256.70,193.85L257.51,192.93"/><path d="M247.91,188.48L251.70,183.66L251.15,184.05L250.19,184.99L249.32,186.09L248.59,187.31L248.29,187.99"/><path d="M250.65,195.60L250.80,195.08L250.90,194.61L250.98,194.12L251.03,193.19L251.13,192.19L251.40,191.08L251.86,189.94L252.47,188.81L253.19,187.79L252.36,188.75L251.84,189.26L251.30,189.74L250.65,190.28"/><path d="M251.70,183.66L251.82,183.50"/><path d="M252.22,182.99L254.96,184.79L254.62,185.53L254.28,186.15L253.92,186.76L253.19,187.79"/><path d="M253.20,187.78L254.00,186.87L254.89,186.08L255.81,185.48L256.70,185.10L257.51,184.96L258.23,184.89L258.60,184.82L258.93,184.74L259.28,184.62"/><path d="M252.94,182.96L254.98,182.88"/><path d="M254.96,184.79L255.61,184.87L256.16,184.92L256.67,184.95L257.51,184.96L258.22,185.04L258.84,185.36L259.00,185.56L259.29,185.91L259.57,186.65L259.66,187.53L259.57,188.56L259.29,189.66L258.83,190.80L258.22,191.92L257.50,192.94"/></g><g style="stroke:#000000;stroke-width:0.529"><path d="M243.24,177.88L227.64,167.65L227.14,167.36L226.50,167.34L225.76,167.60L225.25,167.82L224.61,168.24L224.37,168.47"/><path d="M245.13,188.22L247.69,189.89L247.58,190.93L247.70,191.91L247.91,192.39L247.91,193.80L250.65,195.60L251.30,195.68L251.84,195.73L252.36,195.76L253.19,195.77L253.92,195.70L254.28,195.63L254.62,195.55L254.96,195.43L255.61,194.89L256.16,194.40L256.67,193.89L257.50,192.94"/><path d="M257.51,192.93L258.23,191.91L258.92,190.69L259.28,189.94L259.42,189.44L259.61,188.48L259.66,187.53L259.61,186.54L259.53,185.94L259.43,185.33L259.28,184.62L256.54,182.82L254.98,182.88L254.86,182.80L254.05,182.69L253.13,182.87L252.94,182.96L252.22,182.99L251.82,183.50L247.33,180.56"/></g></g><g><g><path style="stroke:#000000;stroke-width:0.125;stroke-dasharray:2.3 1.6 0.8 1.6" d="M44.01,39.19L59.64,49.44"/><path style="stroke:#000000;stroke-width:0.125;stroke-dasharray:2.3 1.6 0.8 1.6" d="M68.71,55.39L97.00,73.95"/><path style="stroke:#000000;stroke-width:0.125;stroke-dasharray:2.3 1.6 0.8 1.6" d="M122.25,90.52L153.27,110.87"/></g></g><g><g><path style="stroke:#000000;stroke-width:0.125;stroke-dasharray:2.3 1.6 0.8 1.6" d="M202.73,126.97L225.41,141.84"/></g></g><g><g><path style="stroke:#000000;stroke-width:0.125;stroke-dasharray:2.3 1.6 0.8 1.6" d="M190.60,147.88L213.27,162.76"/></g></g><g><g><path style="stroke:#000000;stroke-width:0.125;stroke-dasharray:2.3 1.6 0.8 1.6" d="M178.46,142.89L211.38,164.49"/></g></g><g><g><path style="stroke:#000000;stroke-width:0.125;stroke-dasharray:2.3 1.6 0.8 1.6" d="M223.51,143.57L190.60,121.97"/></g></g><g id="PMI.0"><g><path style="stroke:#000000;stroke-width:0.125" d="M28.81,99.76L35.51,46.42"/></g><g><path style="fill:#000000" d="M36.26,46.42L36.26,46.35L36.25,46.28L36.23,46.21L36.20,46.14L36.17,46.07L36.14,46.01L36.09,45.95L36.04,45.89L35.99,45.85L35.93,45.80L35.87,45.76L35.80,45.73L35.73,45.71L35.66,45.69L35.59,45.68L35.51,45.67L35.44,45.68L35.37,45.69L35.29,45.71L35.23,45.73L35.16,45.76L35.10,45.80L35.04,45.85L34.98,45.89L34.93,45.95L34.89,46.01L34.85,46.07L34.82,46.14L34.79,46.21L34.78,46.28L34.77,46.35L34.76,46.42L34.77,46.50L34.78,46.57L34.79,46.64L34.82,46.71L34.85,46.78L34.89,46.84L34.93,46.90L34.98,46.96L35.04,47.00L35.10,47.05L35.16,47.09L35.23,47.12L35.29,47.14L35.37,47.16L35.44,47.17L35.51,47.17L35.59,47.17L35.66,47.16L35.73,47.14L35.80,47.12L35.87,47.09L35.93,47.05L35.99,47.00L36.04,46.96L36.09,46.90L36.14,46.84L36.17,46.78L36.20,46.71L36.23,46.64L36.25,46.57L36.26,46.50z"/></g><g><text xml:space="preserve" fill="#000000" stroke-width="0" x="19.99" y="105.20" font-size="3.81" opacity="1.00" font-family="Arial">MSR0014</text></g></g><g id="PMI.1"><g><path style="stroke:#000000;stroke-width:0.125" d="M63.02,122.38L61.71,69.00"/></g><g><path style="fill:#000000" d="M62.46,69.00L62.46,68.93L62.45,68.86L62.43,68.79L62.40,68.72L62.37,68.65L62.33,68.59L62.29,68.53L62.24,68.47L62.19,68.42L62.13,68.38L62.06,68.34L62.00,68.31L61.93,68.29L61.86,68.27L61.78,68.26L61.71,68.25L61.64,68.26L61.56,68.27L61.49,68.29L61.42,68.31L61.36,68.34L61.29,68.38L61.23,68.42L61.18,68.47L61.13,68.53L61.09,68.59L61.05,68.65L61.02,68.72L60.99,68.79L60.97,68.86L60.96,68.93L60.96,69.00L60.96,69.08L60.97,69.15L60.99,69.22L61.02,69.29L61.05,69.36L61.09,69.42L61.13,69.48L61.18,69.53L61.23,69.58L61.29,69.63L61.36,69.66L61.42,69.70L61.49,69.72L61.56,69.74L61.64,69.75L61.71,69.75L61.78,69.75L61.86,69.74L61.93,69.72L62.00,69.70L62.06,69.66L62.13,69.63L62.19,69.58L62.24,69.53L62.29,69.48L62.33,69.42L62.37,69.36L62.40,69.29L62.43,69.22L62.45,69.15L62.46,69.08z"/></g><g><text xml:space="preserve" fill="#000000" stroke-width="0" x="55.09" y="127.82" font-size="3.79" opacity="1.00" font-family="Arial">BPA9822</text></g></g><g id="PMI.2"><g><path style="stroke:#000000;stroke-width:0.125" d="M98.34,145.20L105.59,113.99"/></g><g><path style="fill:#000000" d="M106.34,113.99L106.34,113.91L106.33,113.84L106.31,113.77L106.29,113.70L106.25,113.63L106.22,113.57L106.17,113.51L106.12,113.46L106.07,113.41L106.01,113.36L105.95,113.33L105.88,113.30L105.81,113.27L105.74,113.25L105.67,113.24L105.59,113.24L105.52,113.24L105.45,113.25L105.37,113.27L105.31,113.30L105.24,113.33L105.18,113.36L105.12,113.41L105.06,113.46L105.01,113.51L104.97,113.57L104.93,113.63L104.90,113.70L104.87,113.77L104.86,113.84L104.85,113.91L104.84,113.99L104.85,114.06L104.86,114.13L104.87,114.21L104.90,114.28L104.93,114.34L104.97,114.41L105.01,114.46L105.06,114.52L105.12,114.57L105.18,114.61L105.24,114.65L105.31,114.68L105.37,114.71L105.45,114.72L105.52,114.73L105.59,114.74L105.67,114.73L105.74,114.72L105.81,114.71L105.88,114.68L105.95,114.65L106.01,114.61L106.07,114.57L106.12,114.52L106.17,114.46L106.22,114.41L106.25,114.34L106.29,114.28L106.31,114.21L106.33,114.13L106.34,114.06z"/></g><g><text xml:space="preserve" fill="#000000" stroke-width="0" x="89.61" y="150.63" font-size="3.79" opacity="1.00" font-family="Arial">BPA8624</text></g></g><g id="PMI.3"><g><path style="stroke:#000000;stroke-width:0.125" d="M136.53,168.02L173.51,140.67"/></g><g><path style="fill:#000000" d="M174.26,140.67L174.26,140.60L174.25,140.52L174.23,140.45L174.20,140.38L174.17,140.32L174.13,140.25L174.09,140.20L174.04,140.14L173.99,140.09L173.93,140.05L173.86,140.01L173.80,139.98L173.73,139.95L173.66,139.94L173.58,139.92L173.51,139.92L173.44,139.92L173.36,139.94L173.29,139.95L173.22,139.98L173.16,140.01L173.09,140.05L173.04,140.09L172.98,140.14L172.93,140.20L172.89,140.25L172.85,140.32L172.82,140.38L172.79,140.45L172.78,140.52L172.76,140.60L172.76,140.67L172.76,140.74L172.78,140.82L172.79,140.89L172.82,140.96L172.85,141.02L172.89,141.09L172.93,141.15L172.98,141.20L173.04,141.25L173.09,141.29L173.16,141.33L173.22,141.36L173.29,141.39L173.36,141.41L173.44,141.42L173.51,141.42L173.58,141.42L173.66,141.41L173.73,141.39L173.80,141.36L173.86,141.33L173.93,141.29L173.99,141.25L174.04,141.20L174.09,141.15L174.13,141.09L174.17,141.02L174.20,140.96L174.23,140.89L174.25,140.82L174.26,140.74z"/></g><g><text xml:space="preserve" fill="#000000" stroke-width="0" x="124.32" y="173.45" font-size="3.79" opacity="1.00" font-family="Arial">BPA9823</text></g></g><g id="PMI.4"><g><path style="stroke:#000000;stroke-width:0.125" d="M174.64,191.82L233.05,177.28"/></g><g><path style="fill:#000000" d="M233.80,177.28L233.80,177.20L233.79,177.13L233.77,177.06L233.74,176.99L233.71,176.92L233.67,176.86L233.63,176.80L233.58,176.75L233.53,176.70L233.47,176.65L233.40,176.62L233.34,176.58L233.27,176.56L233.20,176.54L233.12,176.53L233.05,176.53L232.98,176.53L232.90,176.54L232.83,176.56L232.76,176.58L232.70,176.62L232.63,176.65L232.57,176.70L232.52,176.75L232.47,176.80L232.43,176.86L232.39,176.92L232.36,176.99L232.33,177.06L232.31,177.13L232.30,177.20L232.30,177.28L232.30,177.35L232.31,177.42L232.33,177.49L232.36,177.56L232.39,177.63L232.43,177.69L232.47,177.75L232.52,177.81L232.57,177.86L232.63,177.90L232.70,177.94L232.76,177.97L232.83,177.99L232.90,178.01L232.98,178.02L233.05,178.03L233.12,178.02L233.20,178.01L233.27,177.99L233.34,177.97L233.40,177.94L233.47,177.90L233.53,177.86L233.58,177.81L233.63,177.75L233.67,177.69L233.71,177.63L233.74,177.56L233.77,177.49L233.79,177.42L233.80,177.35z"/></g><g><text xml:space="preserve" fill="#000000" stroke-width="0" x="160.01" y="196.07" font-size="3.78" opacity="1.00" font-family="Arial">ND1094</text></g></g><g/><g><g/><g><text xml:space="preserve" fill="#000000" stroke-width="0" x="9.95" y="14.87" font-size="4.53" opacity="1.00" font-family="Arial" font-weight="bold">BPA9821</text></g></g><g id="paperID" visibility="hidden" opacity="0.00" transform="scale(0.000100)"><path style="stroke:#000000;stroke-width:0.500;fill:#e6e6e6;fill-rule:evenodd" d="M-2000.00,-2000.00L2297.00,-2000.00L2297.00,2210.00L-2000.00,2210.00zM0.00,0.00L297.00,0.00L297.00,210.00L0.00,210.00z"/><path style="fill:#000000;fill-opacity:0.118" d="M3.00,210.00L297.00,210.00L297.00,3.00L300.00,3.00L300.00,213.00L3.00,213.00z"/></g><g id="hotspot.0" onmouseover="ShowHotSpot(evt,'0')" onmouseout="HideHotSpot(evt,'0')" onmousemove="ShowToolTip(evt,'0',&quot;Hotspot 1&quot;)" opacity="0"><a xlink:href=".\BPA8624.svg"><path style="fill:#ff8000;fill-rule:evenodd" d="M134.87,51.56L135.07,52.22L137.36,50.94L137.61,50.95L144.43,55.45L145.23,56.42L145.02,57.85L144.05,60.97L142.66,63.90L142.67,64.21L148.73,68.12L148.74,70.15L148.27,71.05L146.17,74.23L146.18,74.74L147.19,75.91L147.95,77.29L148.73,79.83L149.10,83.32L148.92,86.13L148.53,88.66L147.36,92.95L145.93,96.40L143.66,100.95L140.73,105.43L138.91,107.71L136.26,110.72L132.95,113.64L130.22,115.60L126.82,117.46L123.90,118.44L120.40,119.03L118.83,120.22L118.52,120.19L113.23,116.66L112.78,116.66L111.98,117.44L110.30,119.66L107.89,122.91L105.56,125.06L103.86,125.08L97.63,120.97L97.24,120.78L97.06,120.00L94.90,121.04L94.31,121.19L87.51,116.67L86.71,115.89L86.70,115.39L87.49,112.45L88.47,109.92L89.28,108.15L89.25,107.92L83.21,104.00L83.19,101.91L85.56,98.23L87.82,95.62L88.66,94.51L89.84,92.37L90.23,91.01L90.23,88.99L89.64,87.82L86.71,85.86L86.85,85.09L87.70,83.41L90.03,81.64L93.36,79.71L94.51,78.72L95.88,76.77L96.85,74.62L97.05,73.84L97.04,67.40L97.45,66.64L98.53,65.38L100.17,65.40L101.34,65.59L103.43,65.60L104.87,64.89L106.72,63.23L108.30,60.72L109.92,56.10L111.50,53.19L113.25,51.93L118.69,55.48L119.20,55.46L120.78,53.69L123.01,50.66L125.07,48.23L126.42,47.05L128.06,47.06z"/></a></g></g></svg>
