<?xml version="1.0" encoding="UTF-8" standalone="no"?>
<svg xmlns="http://www.w3.org/2000/svg" xmlns:xlink="http://www.w3.org/1999/xlink" width="297.000mm" height="210.000mm" viewBox="0.000000 0.000000 297.000000 210.000000" stroke-linejoin="round" stroke-linecap="round" fill="none" fill-rule="evenodd"><desc>Composer Export</desc><script type="text/ecmascript"><![CDATA[
if(typeof(top) != "undefined")
{
	top.ShowPaper = ShowPaper;
}
function ShowPaper()
{
  var svgDocument = getDocument();
  var paper = svgDocument.getElementById("paperID");
  if(paper)
  {
    paper.setAttribute("transform","scale(1)");
    paper.setAttribute("opacity","1");
    paper.setAttribute("visibility","visible");
  }
  var svg = svgDocument.getRootElement();
  if(svg)
  {
    svg.setAttribute("width","307.000mm");
    svg.setAttribute("height","220.000mm");
    svg.setAttribute("viewBox","-5.000000 -5.000000 307.000000 220.000000");
  }
}
]]></script><defs/><g><path style="fill:#000000;fill-opacity:0.098;fill-rule:evenodd" d="M160.48,15.78L160.46,16.06L159.48,16.64L159.25,16.66L159.14,16.38L160.36,15.67zM159.49,18.31L160.00,18.25L160.11,18.37L160.34,19.09L160.35,20.19L160.22,20.41L159.87,21.83L159.41,22.43L156.89,23.91L156.83,27.60L150.79,31.09L150.07,31.12L150.08,24.50L150.54,24.25L151.13,23.79L156.42,20.74L156.58,20.15L156.90,20.16L159.29,18.77L159.29,18.38L159.12,17.79L159.16,17.78zM161.88,20.55L161.16,21.01L160.77,21.14L160.70,20.37L160.57,20.15L160.57,19.24L160.70,19.02L160.81,18.30L161.88,17.68zM150.35,19.83L149.60,19.90L148.94,20.31L148.94,19.83L149.60,19.43L150.35,19.44zM150.74,20.09L150.22,20.42L150.22,20.20L150.56,20.01zM149.91,20.56L149.73,20.75L149.48,20.74L149.73,20.48zM143.52,27.36L143.37,27.37L143.41,27.11L143.54,27.09zM164.82,31.50L165.47,31.20L165.99,31.19L165.99,32.53L165.16,32.50L164.58,32.13L164.44,31.91L164.45,31.59zM148.37,32.27L148.36,32.41L147.87,32.38L146.78,32.02zM169.98,32.49L170.57,51.19L170.65,56.24L165.04,59.45L163.99,60.16L163.98,65.80L163.87,66.39L163.51,67.68L162.69,69.45L161.13,71.53L159.87,75.44L159.75,121.54L159.64,122.25L159.13,123.74L158.46,125.06L157.60,126.20L156.88,127.02L155.35,128.31L153.60,129.38L151.64,130.36L149.02,131.26L146.35,131.89L143.72,132.20L138.59,132.20L136.47,131.97L133.65,131.38L130.83,130.44L128.24,129.15L126.13,127.73L125.98,127.48L126.11,127.48L126.72,127.96L129.30,129.38L131.65,130.21L133.89,130.67L135.77,130.91L136.79,130.91L137.88,130.71L137.88,85.41L134.59,84.59L131.41,83.53L129.74,82.73L129.04,79.62L130.12,80.00L132.83,80.70L135.30,81.05L137.65,81.21L137.72,78.58L143.72,78.58L145.88,78.39L147.19,78.14L147.19,78.00L143.14,78.35L139.18,78.35L136.35,78.11L134.12,77.76L131.53,77.18L128.36,76.12L125.77,74.94L125.53,74.80L125.50,74.69L128.71,76.00L131.06,76.71L134.47,77.41L136.00,77.57L136.08,77.05L138.36,77.10L138.37,74.82L137.03,75.54L136.67,75.58L136.00,52.17L136.12,51.46L141.71,48.24L142.72,47.36L143.05,46.87L143.30,46.29L143.41,45.18L144.47,46.01L145.30,46.83L146.24,48.01L146.31,49.00L146.53,48.96L146.95,48.60L147.18,48.83L148.11,49.31L148.66,49.31L148.95,48.87L148.89,46.01L150.54,45.90L152.47,45.47L153.96,44.72L154.82,44.06L155.37,43.43L155.76,42.53L155.76,41.78L155.17,40.61L154.89,40.24L155.52,39.82L158.82,37.93L158.84,37.78L158.47,37.54L158.22,36.85L158.19,34.37L159.72,33.79L160.77,33.19L161.63,33.07L161.64,36.42L161.01,37.30L161.63,38.49L162.58,40.72L162.58,41.12L162.10,41.81L159.18,43.48L156.07,45.19L156.22,48.49L156.58,49.54L156.70,51.12L157.64,49.82L158.34,48.40L158.63,47.64L159.05,47.43L159.94,47.42L164.89,44.61L165.64,43.94L165.75,34.88L166.53,34.01L169.87,32.15zM157.84,32.50L158.19,32.36L158.46,32.36L158.47,33.24L157.63,33.21L157.28,32.96L157.24,32.48zM149.88,32.89L149.95,31.66L150.90,31.44L155.12,29.07L157.24,27.78L157.41,27.60L157.52,27.19L157.52,28.89L157.37,29.21L156.23,30.06L156.11,31.36L155.76,32.19L155.64,36.65L155.37,37.20L154.71,37.95L154.07,38.37L153.99,40.53L153.87,40.88L153.41,41.59L153.06,41.83L151.64,42.52L150.66,42.72L148.77,42.73L148.83,39.53L148.19,39.19L149.17,39.24L149.18,34.96L147.52,34.62L146.12,34.01L145.05,33.07L145.05,32.84L145.89,33.42L147.05,33.91L148.23,34.14L149.06,34.18L149.13,32.83zM121.67,36.71L121.85,36.74L122.57,36.48L122.71,36.48L122.72,37.48L122.24,37.43L121.78,37.31L121.42,36.95L121.42,36.64L121.55,36.61zM142.14,36.87L140.11,38.06L140.11,37.83L141.97,36.71L142.12,36.72zM118.33,38.84L118.56,38.72L119.31,38.72L119.31,39.94L118.36,39.91L117.90,39.54L117.74,39.17L117.90,38.97zM144.75,40.56L144.60,40.90L144.11,41.70L144.11,41.34L144.60,40.51zM154.59,42.77L154.36,43.13L153.02,44.14L151.37,44.85L150.54,44.88L150.54,43.42L151.38,43.32L153.16,42.05L154.42,41.53L154.59,41.31zM124.60,47.31L124.12,47.46L123.85,48.84L124.01,50.84L124.24,52.02L124.96,54.01L124.97,54.29L121.54,56.28L121.15,56.40L120.47,54.60L120.01,52.84L119.06,52.72L119.07,50.40L119.42,49.10L119.97,48.13L120.71,47.46L121.73,46.95L123.42,46.96zM134.94,48.41L135.25,48.24L136.01,48.24L136.00,49.59L135.05,49.43L134.60,49.18L134.46,48.96L134.47,48.52zM117.39,50.13L117.54,52.36L117.77,53.78L118.12,54.96L118.96,57.22L118.85,57.20L118.13,55.42L117.65,53.90L117.42,52.60L117.31,51.31L117.31,49.93L117.51,48.59L117.54,48.59zM116.62,52.35L116.95,52.83L117.77,55.54L118.48,57.30L118.48,59.93L117.89,60.16L117.09,60.77L115.08,61.93L114.95,61.79L115.03,56.01L115.18,52.16L115.38,51.88L115.78,51.88zM135.06,62.94L135.31,63.29L135.43,63.57L135.18,63.93L134.48,64.52L133.55,65.23L131.65,66.15L130.08,66.47L128.48,66.47L127.77,66.36L127.34,66.20L128.60,66.36L130.21,66.25L131.18,65.92L132.25,65.11L132.95,64.16L133.53,62.86L133.77,62.39L134.00,62.34zM124.37,73.99L124.12,73.99L124.09,73.87L124.25,73.87zM125.19,74.47L124.95,74.49L124.70,74.33L124.68,74.22L124.81,74.22zM142.47,142.67L142.47,151.05L142.33,151.15L140.00,151.13L138.47,150.90L136.82,150.43L135.65,149.84L134.84,149.24L134.00,148.31L133.76,147.85L133.65,147.37L133.65,146.35L133.88,145.64L134.54,144.77L135.41,144.00L136.82,143.29L137.96,142.90L140.08,142.55L142.24,142.54zM143.02,155.48L145.64,155.17L148.20,154.55L150.43,153.72L151.53,153.18L153.12,152.18L154.34,151.17L155.28,149.99L155.99,148.70L156.23,147.83L156.23,197.50L155.99,198.44L155.37,199.69L154.36,200.92L153.00,202.03L151.49,202.99L149.95,203.69L147.96,204.40L145.88,204.90L143.37,205.22L138.94,205.22L138.55,205.14L138.55,155.48zM153.05,31.70L152.55,31.91L152.18,31.95L152.22,31.72L152.89,30.83L152.94,30.85zM160.82,58.94L160.46,59.46L159.06,60.88L157.41,62.17L155.13,63.53L152.31,64.83L149.76,65.69L146.19,66.47L142.65,66.95L142.70,70.39L142.44,70.48L141.48,70.48L142.00,66.95L141.99,66.39L142.48,65.58L144.66,62.71L145.02,62.59L147.88,62.28L150.93,61.57L153.13,60.83L155.96,59.42L157.53,58.29L158.65,57.29L158.89,56.93L159.05,56.93z"/><g id="Actor_.0"><g style="stroke:#000000;stroke-width:0.176"><path d="M114.15,62.71L114.82,41.13L114.78,42.22"/><path d="M114.82,41.13L114.85,40.08"/><path d="M115.98,62.81L115.48,62.51L115.29,62.32L115.13,62.08L115.02,61.83L114.95,61.57L114.94,61.40L115.22,52.27L115.25,52.09L115.35,51.91L115.52,51.82L115.73,51.83L115.90,51.90L116.51,52.25L116.73,52.42L116.92,52.65L117.07,52.92L117.11,53.04L117.45,54.39L118.04,56.14L118.82,57.87L119.75,59.53L120.84,61.10L122.03,62.52L122.85,63.33L123.56,63.97L124.24,64.52L124.86,64.97L125.48,65.35L126.09,65.66L126.72,65.92L127.28,66.10L127.95,66.26L128.77,66.38L129.97,66.33L131.05,66.01L131.99,65.42L132.76,64.58L133.35,63.51L133.64,62.66L133.73,62.48L133.88,62.38L134.08,62.37L134.29,62.45L134.90,62.80L135.08,62.92L135.29,63.17L135.45,63.43L135.55,63.73L135.58,63.95L135.86,73.40L135.85,73.56L135.79,73.74L135.67,73.86L135.51,73.91L135.32,73.89L135.18,73.82L128.16,69.80L125.60,68.28L122.64,66.63L115.98,62.81"/><path d="M118.15,55.35L117.69,53.85L117.37,52.03L117.31,50.31L117.50,48.75L117.95,47.41L118.64,46.32L119.54,45.53L119.64,45.49L118.77,46.25L118.08,47.33L117.63,48.68L117.44,50.23L117.51,51.96L117.83,53.78L118.40,55.65L119.20,57.52L120.20,59.31L121.38,60.97L122.69,62.45L124.09,63.70L125.54,64.68L126.98,65.36L128.38,65.72L129.69,65.74L130.84,65.43L130.73,65.50L129.56,65.82L128.25,65.80L126.85,65.44L125.40,64.76L123.95,63.78L122.55,62.53L121.24,61.05L120.07,59.39L119.07,57.59L118.26,55.73L118.15,55.35"/><path d="M118.01,39.14L117.96,39.38L118.05,39.61L118.24,39.79L118.14,39.74L117.90,39.51L117.80,39.25L117.87,38.97L118.07,38.74L118.40,38.55L118.82,38.43L119.28,38.40L119.74,38.45L120.15,38.59L120.45,38.79L120.62,39.04L120.64,39.31L120.50,39.57L120.23,39.79L120.17,39.82L120.36,39.66L120.48,39.43L120.46,39.20L120.31,38.97L120.04,38.79L119.68,38.67L119.28,38.62L118.86,38.65L118.49,38.76L118.20,38.92L118.01,39.14"/><path d="M122.23,67.38L124.10,68.79L126.13,69.95L128.58,71.02L118.29,65.12"/><path d="M119.23,53.53L119.14,53.10L119.01,51.55L119.14,50.15L119.51,48.95L120.11,47.98L120.92,47.30L121.91,46.93L123.04,46.88L124.26,47.15L125.54,47.74L126.81,48.61L128.03,49.74L129.16,51.09L130.15,52.60L130.96,54.21L131.56,55.86L131.94,57.49L132.06,59.04L131.94,60.44L131.56,61.65L130.96,62.61L130.15,63.29L129.16,63.66L128.03,63.71L126.82,63.44L125.54,62.86L124.26,61.98L123.04,60.85L121.91,59.50L120.92,58.00L120.11,56.38L119.51,54.73L119.23,53.53"/><path d="M118.24,39.79L118.50,39.91L118.93,40.01L119.40,40.02L119.85,39.95L120.17,39.82"/><path d="M132.04,58.73L131.95,59.76L131.60,60.87L131.05,61.75L130.30,62.38L129.38,62.73L128.34,62.77L127.21,62.52L126.04,61.98L124.86,61.18L123.73,60.13L122.69,58.89L121.78,57.50L121.03,56.01L120.94,55.77L120.48,54.49L120.13,52.98L120.02,51.55L120.13,50.26L120.48,49.15L121.03,48.26L121.30,48.04L121.79,47.63L122.70,47.29L123.74,47.24L124.86,47.49L125.81,47.93"/><path d="M119.64,45.49L120.64,45.05L121.89,44.90L123.25,45.09L124.67,45.61L126.13,46.44L127.56,47.56L128.92,48.93L130.16,50.51L131.26,52.25L132.16,54.08L132.85,55.96L133.30,57.82L133.50,59.60L133.43,61.24L133.11,62.70L132.54,63.92L131.74,64.86L130.84,65.43"/><path d="M129.10,76.38L129.53,76.58L131.82,77.39L134.28,78.02L136.86,78.45L137.66,78.52L139.51,78.68L142.20,78.71L144.87,78.52L147.47,78.14L149.96,77.56L152.30,76.80L153.24,76.39L152.23,76.75L150.44,77.28L148.57,77.71L146.65,78.04L144.69,78.27L142.70,78.40L140.69,78.42L138.69,78.35L136.71,78.17L134.76,77.88L132.87,77.50L131.04,77.03L129.30,76.46L127.47,75.73L125.91,74.98L124.48,74.16L123.17,73.26L122.02,72.30L121.25,71.52"/><path d="M121.76,36.87L121.72,37.05L121.78,37.22L121.89,37.32L121.72,37.24L121.52,37.04L121.43,36.82L121.48,36.60L121.67,36.38L121.94,36.23L122.29,36.13L122.69,36.10L123.08,36.14L123.42,36.26L123.61,36.39L123.67,36.44L123.82,36.65L123.84,36.87L123.72,37.09L123.49,37.28L123.37,37.33L123.46,37.26L123.55,37.09L123.54,36.92L123.43,36.76L123.23,36.62L122.97,36.54L122.68,36.50L122.38,36.52L122.11,36.60L121.89,36.72L121.76,36.87"/><path d="M123.37,37.33L123.17,37.41L122.79,37.47L122.39,37.47L122.02,37.38L121.89,37.32"/><path d="M122.53,120.79L122.53,120.76"/><path d="M122.53,75.55L122.63,75.84L122.62,75.81"/><path d="M122.63,75.87L122.64,75.90L122.63,75.84"/><path d="M131.73,60.44L131.12,60.31L130.56,60.12L129.99,59.86L129.43,59.51L128.71,58.93L127.54,57.83L126.47,56.54L125.55,55.09L124.80,53.55L124.27,51.97L123.96,50.43L123.90,48.98L124.08,47.69L124.22,47.35"/><path d="M123.70,35.22L123.93,35.20"/><path d="M127.58,75.77L127.56,75.76"/><path d="M128.58,71.02L136.46,75.55L136.64,75.64L136.72,75.65L136.90,75.64L136.97,75.61L140.80,73.41L141.09,73.29L141.38,73.23L141.63,73.21L141.61,73.21"/><path d="M130.43,37.67L132.56,38.89L132.24,38.71"/><path d="M131.16,65.95L132.52,65.19"/><path d="M136.10,36.01L132.37,38.15L132.84,37.89L132.12,38.26L131.82,38.31L131.51,38.27L131.37,38.21"/><path d="M132.84,37.89L135.11,36.62"/><path d="M134.66,48.71L134.61,48.93L134.70,49.16L134.89,49.34L134.79,49.29L134.55,49.06L134.45,48.80L134.51,48.53L134.72,48.29L135.05,48.10L135.47,47.98L135.93,47.95L136.39,48.00L136.79,48.14L137.10,48.34L137.27,48.60L137.29,48.86L137.15,49.12L136.88,49.34L136.82,49.37L137.01,49.21L137.13,48.98L137.11,48.75L136.96,48.52L136.69,48.34L136.33,48.22L135.93,48.17L135.51,48.20L135.14,48.31L134.85,48.47L134.66,48.71"/><path d="M134.89,49.34L135.15,49.46L135.58,49.56L136.05,49.57L136.50,49.50L136.82,49.37"/><path d="M134.78,36.80L139.83,34.00L138.86,34.54"/><path d="M138.35,42.22L138.74,42.44L138.16,42.11"/><path d="M138.38,42.23L138.19,42.11"/><path d="M138.74,42.44L143.26,45.04L143.18,44.99"/><path d="M139.78,33.90L139.83,33.87L138.07,34.88"/><path d="M139.00,37.59L139.07,37.56L139.11,37.34L139.13,37.34L140.05,37.87L140.05,38.19"/><path d="M139.11,37.34L141.26,36.10L140.83,35.85L140.76,36.09L140.68,36.12L140.72,36.12L140.60,36.12"/><path d="M139.83,34.00L140.63,33.56L139.83,34.00"/><path d="M140.05,37.87L142.20,36.64L142.63,36.89L142.65,37.18L142.71,37.33"/><path d="M140.83,35.85L142.80,35.75L142.63,36.89"/><path d="M140.74,36.11L140.72,36.12"/><path d="M140.68,36.12L140.64,36.12"/><path d="M139.92,33.80L139.83,33.87L140.22,33.64L140.04,33.75"/><path d="M140.68,33.38L141.43,33.02L140.91,33.26"/><path d="M140.63,33.56L142.56,32.48"/><path d="M141.49,32.99L141.43,33.02L141.49,32.99"/><path d="M142.20,36.64L142.20,36.95"/><path d="M142.89,35.94L142.83,35.93L142.80,35.75"/><path d="M142.84,35.94L142.87,35.94"/><path d="M142.88,28.54L142.88,28.83"/><path d="M144.11,56.26L144.00,50.53"/><path d="M143.24,45.03L143.65,45.31L143.26,45.04L143.35,45.09"/><path d="M152.94,42.22L152.36,42.59L151.76,43.04L151.43,43.31L150.60,43.44L149.72,43.16L148.88,42.96L148.54,42.90L149.32,42.98L150.38,42.96L151.40,42.81L152.33,42.52L153.80,41.81L154.45,41.58L154.67,41.11L154.32,40.16L154.79,40.56L155.28,41.33L155.41,42.14L155.23,42.86L155.19,42.95L154.62,43.70L153.75,44.35L152.62,44.85L151.31,45.18L149.90,45.31L148.48,45.23L147.13,44.95L145.95,44.49L145.01,43.88L144.36,43.15L144.30,43.00L144.05,42.35L144.09,41.53L144.49,40.74L144.76,40.48L144.76,40.10L145.11,40.64L145.32,41.05L145.59,41.48L146.14,42.00L146.89,42.43L147.79,42.75L148.50,42.90L147.75,42.81L146.93,42.79L146.48,42.81L145.87,42.46L145.63,41.80L145.32,41.05L145.18,40.62L145.21,40.00L145.36,39.67L145.39,40.58L145.62,41.12L145.98,41.57L146.50,41.98L147.18,42.33L147.96,42.59L148.75,42.74L149.61,42.81L150.49,42.77L151.31,42.63L151.61,42.54L151.51,42.56"/><path d="M143.44,42.26L143.51,41.68L143.49,41.81"/><path d="M143.45,42.22L143.46,42.09"/><path d="M143.42,41.47L143.83,40.78"/><path d="M143.55,41.50L143.51,41.65L143.62,41.28"/><path d="M144.40,40.08L144.42,40.05L144.26,40.20L143.87,40.64L143.93,40.58"/><path d="M144.11,29.96L144.04,29.84L144.02,29.72L144.05,29.62L144.12,29.56L144.58,29.38L144.98,29.30L145.39,29.30L145.69,29.36"/><path d="M144.07,29.88L144.04,29.84"/><path d="M143.22,30.18L143.08,30.10L143.44,30.30"/><path d="M143.55,27.21L143.54,27.23L143.60,27.18L143.60,27.06L143.60,27.62L143.72,27.71L149.55,31.06L149.75,31.14L150.06,31.21L150.39,31.21L150.70,31.14L151.03,30.98L150.89,31.06"/><path d="M143.60,27.18L143.60,27.60"/><path d="M143.72,27.71L143.70,27.70"/><path d="M143.60,27.62L143.46,27.43"/><path d="M143.60,27.06L143.60,26.56L143.60,27.06"/><path d="M143.54,27.43L143.54,27.56L143.54,27.43L143.60,27.33"/><path d="M143.47,27.34L143.48,27.30L143.48,27.36L143.54,27.23"/><path d="M143.48,27.36L143.48,27.46"/><path d="M143.60,26.56L143.60,20.66"/><path d="M154.67,41.13L154.67,42.63L154.45,43.11L153.80,43.63L152.94,44.20L152.36,44.50L151.76,44.74L151.43,44.84L150.60,44.97L149.71,44.98L148.87,44.92L148.54,44.88L147.75,44.72L146.93,44.49L146.48,44.34L145.87,43.99L145.63,43.63L145.32,43.03L145.11,42.55L144.76,41.62L144.76,40.48"/><path d="M144.76,40.10L144.98,39.63L144.64,39.86L144.42,40.05"/><path d="M144.57,39.92L144.52,39.95"/><path d="M144.98,39.63L145.36,39.32L145.36,39.67"/><path d="M154.08,38.41L154.61,38.11L155.31,37.42L155.70,36.66L155.74,35.86L155.75,32.33L155.28,33.15L154.59,33.80L153.65,34.35L152.43,34.76L151.23,34.97L149.89,35.02L148.58,34.88L147.36,34.56L146.31,34.09L145.49,33.49L144.94,32.79L144.70,32.34L144.69,36.06L144.82,36.85L145.29,37.60L146.08,38.26L147.11,38.79L148.35,39.15L149.71,39.32L151.10,39.30L152.43,39.08L153.62,38.67L154.08,38.41L154.08,39.64L154.12,39.70L154.26,40.15L154.23,40.75L153.95,41.34L153.45,41.88L152.96,42.22"/><path d="M144.94,32.79L144.93,32.78"/><path d="M144.27,30.76L144.28,31.29L144.51,31.99L144.70,32.34"/><path d="M144.26,30.22L144.79,30.84L145.40,31.34L146.15,31.77L147.08,32.15L148.02,32.40L148.55,32.51L149.33,32.95L149.60,33.07L150.01,33.15L150.45,33.15L150.86,33.07L151.13,32.95L151.91,32.51L152.44,32.40L153.37,32.15L154.31,31.77L155.06,31.34L155.67,30.84L156.19,30.22L156.17,31.29L155.95,31.99L155.75,32.33"/><path d="M145.36,37.65L145.36,39.32"/><path d="M146.76,29.98L147.07,30.27L147.48,30.74L147.87,31.26L148.34,31.99L148.40,32.12L148.44,32.36L148.48,32.46"/><path d="M148.87,44.92L149.32,44.96L149.26,44.95"/><path d="M149.32,44.96L149.34,44.96"/><path d="M148.54,42.90L148.50,42.90"/><path d="M149.43,20.74L149.75,20.85L150.17,20.90L150.61,20.87L151.00,20.76L151.31,20.58L151.48,20.37L151.56,20.10L151.47,19.86L151.24,19.64L150.92,19.48L150.50,19.39L150.06,19.38L149.64,19.45L149.29,19.60L149.03,19.80L148.91,20.04L148.93,20.29L149.09,20.53L149.30,20.68L149.43,20.74"/><path d="M149.20,20.61L149.19,20.53L149.25,20.29L149.40,20.10L149.67,19.95L149.97,19.87L150.29,19.85L150.61,19.89L150.80,19.96L150.83,20.02L150.83,20.14L150.26,20.46L150.21,20.47L150.03,20.37L149.99,20.37L149.99,20.61L149.65,20.81"/><path d="M150.23,19.85L150.06,19.85L149.64,19.92L149.29,20.06L149.03,20.27L148.98,20.37"/><path d="M149.70,20.83L149.76,20.78L150.21,20.52L150.24,20.52L150.54,20.68L150.59,20.68L150.75,20.59"/><path d="M150.57,20.68L150.46,20.61L150.47,20.38L150.99,20.09L151.07,20.12L151.18,20.25L151.26,20.44L151.27,20.60"/><path d="M149.99,20.37L149.68,20.19"/><path d="M151.48,20.37L151.47,20.33L151.24,20.11L150.91,19.95L150.50,19.86L150.34,19.85"/><path d="M151.61,42.54L151.88,42.45"/><path d="M151.59,42.54L151.53,42.56"/><path d="M151.03,30.98L151.75,30.57L151.03,30.98"/><path d="M151.75,30.57L156.76,27.70L156.54,27.82"/><path d="M151.78,17.32L150.81,16.76L151.53,17.17"/><path d="M151.85,42.46L151.75,42.50L152.08,42.40L152.47,42.22L152.34,42.28"/><path d="M152.41,42.24L152.45,42.22"/><path d="M152.44,42.23L152.42,42.24"/><path d="M152.36,42.26L152.78,42.07L153.34,41.68L153.74,41.23L154.01,40.70L154.08,40.16L154.08,39.64"/><path d="M152.47,42.22L152.60,42.15"/><path d="M153.69,29.98L153.39,30.27L152.98,30.73L152.59,31.27L152.12,31.99L152.05,32.12L152.02,32.37L151.98,32.46"/><path d="M155.63,19.53L156.09,19.79L152.52,17.74"/><path d="M153.24,76.39L153.92,76.14L155.71,75.36L157.20,74.58L158.58,73.72L159.81,72.79L160.89,71.80L161.12,71.54"/><path d="M153.35,18.21L153.24,18.15"/><path d="M154.32,40.16L154.08,39.63"/><path d="M156.00,43.14L155.98,42.50L156.01,43.22L155.98,42.11L155.78,41.40L155.35,40.73L154.83,40.20L154.13,39.72"/><path d="M156.19,30.22L156.41,29.84L156.43,29.68L156.41,29.62L156.34,29.56L155.87,29.38L155.47,29.30L155.07,29.30L154.77,29.36"/><path d="M154.06,18.62L154.11,18.65"/><path d="M156.32,49.99L156.01,43.22"/><path d="M155.28,33.15L155.30,33.11"/><path d="M156.31,49.65L156.30,49.60"/><path d="M157.58,28.54L157.58,28.14L157.58,28.84L157.56,28.96L157.31,29.36L157.08,29.53L156.35,29.96"/><path d="M156.39,29.88L156.41,29.84"/><path d="M157.58,27.52L157.58,28.14L157.58,27.21L157.38,26.91L157.14,26.72L156.86,26.56L156.86,27.62L156.76,27.70"/><path d="M156.86,27.62L157.00,27.42"/><path d="M156.87,27.19L156.92,27.23L156.90,27.21L156.98,27.36L156.98,27.30L156.98,27.34"/><path d="M156.98,27.36L156.98,27.46"/><path d="M156.92,27.56L156.92,27.43L156.86,27.33"/><path d="M156.86,26.56L156.86,24.29"/><path d="M156.09,19.79L156.44,19.99L156.60,20.11L156.82,20.46L156.84,20.57L156.86,20.66L156.86,23.97"/><path d="M158.57,15.29L157.30,16.03L157.08,15.90L157.05,15.86L158.28,15.16"/><path d="M157.08,15.90L156.92,15.92L157.31,16.04L157.68,16.25L157.76,16.22L158.33,16.32L158.93,16.67L159.50,17.22L159.97,17.92L160.30,18.69L160.45,19.45L160.40,20.12L160.17,20.60L160.17,20.83L160.11,21.22"/><path d="M157.05,15.86L156.80,15.88L156.61,15.86"/><path d="M156.92,15.92L156.80,15.88"/><path d="M157.57,32.74L157.70,32.58L157.92,32.46L158.19,32.38L158.49,32.36L158.78,32.40L159.04,32.48L159.24,32.62L159.35,32.78L159.36,32.95L159.27,33.12L159.19,33.18L159.30,33.14L159.53,32.95L159.65,32.74L159.63,32.51L159.49,32.30L159.30,32.17L159.23,32.12L158.89,32.01L158.50,31.96L158.11,31.99L157.75,32.09L157.47,32.25L157.29,32.45L157.24,32.68L157.33,32.90L157.53,33.10L157.71,33.18L157.60,33.08L157.53,32.91L157.57,32.74"/><path d="M157.71,33.18L157.83,33.24L158.20,33.33L158.60,33.34L158.98,33.27L159.19,33.18"/><path d="M157.58,28.56L157.58,28.83"/><path d="M160.17,20.60L160.14,20.04L160.00,19.36L159.75,18.68L159.41,18.01L158.98,17.40L158.50,16.86L157.98,16.43L157.68,16.25"/><path d="M157.30,16.03L157.96,15.96L158.07,15.81L158.63,15.75L159.20,16.46L159.20,16.37L160.42,15.68L159.90,15.03L158.68,15.73L158.63,15.71L159.86,15.01L159.90,15.03"/><path d="M158.99,15.25L158.12,15.76L158.07,15.81"/><path d="M158.12,15.76L158.63,15.71"/><path d="M159.20,16.37L158.68,15.73L158.63,15.75"/><path d="M160.58,16.00L159.30,16.73L159.20,16.46"/><path d="M159.30,16.73L159.97,17.56L160.18,17.68L160.26,17.70L161.48,17.00L161.46,16.95"/><path d="M159.65,76.28L159.64,76.30L159.75,75.93L159.65,76.52L159.70,76.23"/><path d="M159.75,75.93L159.88,75.52"/><path d="M159.88,49.52L159.95,49.72L160.02,50.13"/><path d="M159.82,49.19L159.95,49.41L159.63,48.88"/><path d="M160.18,21.27L160.75,21.21L160.75,20.52L160.61,20.14L160.61,19.59L160.61,19.30L160.63,19.25L160.75,19.08L160.75,18.38L160.80,18.40L160.80,19.05L160.66,19.31L160.66,20.13L160.80,20.54L160.80,21.20L162.02,20.50L162.02,19.84L161.89,19.43L161.89,18.61"/><path d="M160.26,17.70L160.78,18.34L162.00,17.63L162.02,17.69L160.80,18.40L160.78,18.34"/><path d="M160.75,18.38L160.18,17.68"/><path d="M159.97,17.56L161.24,16.83"/><path d="M160.64,73.16L160.58,73.33"/><path d="M160.80,21.20L160.78,21.23"/><path d="M162.02,18.35L162.02,17.65L161.48,17.00"/><path d="M160.47,15.73L160.42,15.68"/><path d="M162.02,20.48L162.02,20.16"/><path d="M162.00,20.53L162.02,20.50"/><path d="M166.83,32.38L167.02,32.23L167.14,32.00L167.12,31.76L166.97,31.54L166.70,31.36L166.34,31.24L165.94,31.19L165.52,31.22L165.15,31.32L164.86,31.49L164.68,31.71L164.62,31.94L164.71,32.18L164.90,32.36L164.80,32.31L164.56,32.08L164.46,31.81L164.52,31.55L164.73,31.31L165.06,31.12L165.48,31.00L165.94,30.96L166.40,31.02L166.81,31.16L167.11,31.36L167.28,31.61L167.30,31.88L167.16,32.14L166.89,32.36L166.51,32.51L166.06,32.59L165.59,32.58L165.16,32.48L164.90,32.36"/><path d="M170.11,34.64L170.08,33.56L170.75,56.19"/><path d="M170.08,33.56L170.06,32.76L170.02,32.50"/><path d="M169.27,31.40L169.29,31.41"/></g><g style="stroke:#000000;stroke-width:0.529"><path d="M169.27,31.40L169.26,31.39L169.49,31.55L169.72,31.81L169.91,32.13L170.02,32.46L170.06,32.71L170.75,56.19L170.67,56.28L164.32,59.92L164.10,60.09L164.00,60.25L163.97,60.40L164.13,63.84L164.06,65.69L163.75,67.17L163.34,68.32L162.75,69.44L161.81,70.77L161.12,71.54L161.01,72.08L160.64,73.16L159.88,75.52L159.88,120.41L159.83,121.36L159.77,121.77L159.55,122.81L159.01,124.21L158.45,125.19L157.49,126.44L156.62,127.34L155.60,128.18L154.44,128.96L152.92,129.81L151.54,130.43L150.07,130.97L148.51,131.43L146.88,131.80L145.19,132.07L143.47,132.25L141.73,132.33L139.98,132.31L138.24,132.19L136.53,131.97L134.86,131.66L133.26,131.26L131.73,130.77L130.30,130.20L128.96,129.55L127.48,128.66L126.37,127.86L125.41,126.99L124.60,126.08L124.36,125.78L123.70,124.81L123.20,123.81L123.05,123.43L122.73,122.40L122.52,120.95L122.53,75.55L121.65,72.96L121.26,71.64L121.25,71.52L121.01,71.29L119.99,69.99L119.32,68.88L118.82,67.74L118.42,66.27L118.28,65.12L114.24,62.80L114.15,62.71L114.85,40.02L114.88,39.80L115.05,39.52L115.09,39.48L120.77,36.22L121.54,35.81L122.28,35.53L123.08,35.32L123.90,35.19L124.78,35.17L125.60,35.27L126.37,35.48L127.10,35.79L127.32,35.90L130.43,37.67L131.00,37.43L132.35,36.94L134.06,36.44L135.49,36.11L136.10,36.01L138.06,34.88L138.60,33.16L138.91,32.45L139.31,31.78L139.78,31.18L140.31,30.67L140.86,30.29L141.53,29.97L142.07,29.87L142.22,29.87L142.73,29.93L143.27,30.20L144.27,30.75L144.26,30.22L144.11,29.96L143.37,29.53L143.14,29.36L142.90,28.96L142.88,28.84L142.88,28.14L142.88,28.54"/><path d="M142.88,28.14L142.88,27.21L143.08,26.90L143.31,26.72L143.60,26.56L143.60,20.66L143.64,20.46L143.86,20.11L144.03,19.98L148.09,17.65"/><path d="M142.88,27.25L142.88,27.54"/><path d="M147.42,18.04L149.58,16.80L149.57,16.81"/><path d="M149.58,16.80L149.82,16.69L150.09,16.63L150.37,16.63L150.64,16.69L150.81,16.76L151.75,17.30L151.53,17.17"/><path d="M169.26,31.39L156.86,24.28L156.86,23.97L159.32,22.55L159.45,22.44L159.78,22.08L159.87,21.90L160.08,21.41L160.11,21.22L160.18,21.27L160.26,21.28L160.78,21.23L162.00,20.53L162.02,20.50L162.02,19.79L161.89,19.40L161.89,18.61L162.02,18.35L162.02,17.65L161.46,16.95L161.24,16.83L160.58,16.00L160.47,15.73L159.91,15.02L159.86,15.01L159.34,15.05L158.99,15.25L158.57,15.29L158.36,15.17L158.28,15.16L157.76,15.20L156.61,15.86L156.05,15.84L155.59,15.98L155.43,16.04L152.52,17.74L151.75,17.30"/></g></g><g id="Actor_.1"><g style="stroke:#000000;stroke-width:0.176"><path d="M156.35,147.46L156.01,148.78L155.32,150.05L154.31,151.25L152.98,152.35L151.38,153.32L149.54,154.14L147.51,154.78L145.32,155.24L143.04,155.50L140.72,155.57L138.41,155.42L136.16,155.08L134.03,154.54L132.07,153.82L130.32,152.94L128.83,151.92L127.63,150.78L126.74,149.55L126.22,148.30L126.20,148.25L126.00,146.92"/><path d="M134.17,148.52L133.71,147.62L133.60,146.68L133.85,145.75L134.43,144.87L135.34,144.08L136.51,143.42L137.91,142.93L139.46,142.61L141.09,142.50L142.72,142.59L144.29,142.88L145.70,143.35L146.91,143.99L147.85,144.76L148.48,145.63L148.77,146.56L148.70,147.50L148.29,148.41L147.54,149.25L146.49,149.98L145.20,150.56L143.72,150.97L142.12,151.18L140.48,151.19L138.87,151.00L137.37,150.62L136.04,150.06L134.96,149.35L134.17,148.52"/></g><g style="stroke:#000000;stroke-width:0.529"><path d="M156.35,174.21L156.35,147.46L156.33,146.13L155.96,144.81L155.24,143.54L154.19,142.35L152.84,141.26L151.22,140.31L149.66,139.64L149.36,139.51L147.31,138.88L145.11,138.44L142.82,138.19L140.50,138.15L138.19,138.31L135.95,138.68L134.41,139.08L133.84,139.23L131.90,139.96L130.17,140.86L128.70,141.89L127.53,143.05L126.68,144.29L126.16,145.59L126.00,146.92L126.00,196.70L126.20,198.02L126.74,199.32L127.63,200.56L128.83,201.70L129.89,202.42L130.32,202.72L132.07,203.60L134.03,204.32L136.16,204.85L138.41,205.20L140.72,205.34L143.04,205.28L145.32,205.02L147.51,204.56L149.54,203.91L151.38,203.10L152.98,202.13L154.31,201.03L155.32,199.83L156.01,198.56L156.35,197.24L156.35,175.20"/></g></g><g><g><path style="stroke:#000000;stroke-width:0.044;stroke-dasharray:1.4 0.9 0.5 0.9" d="M141.19,132.32L141.19,151.19"/></g></g><g id="PMI.0"><g><path style="stroke:#000000;stroke-width:0.044" d="M189.23,165.69L152.13,175.86"/></g><g><path style="fill:#000000" d="M152.88,175.86L152.88,175.78L152.87,175.71L152.85,175.64L152.83,175.57L152.80,175.50L152.76,175.44L152.71,175.38L152.67,175.33L152.61,175.28L152.55,175.23L152.49,175.19L152.42,175.16L152.35,175.14L152.28,175.12L152.21,175.11L152.13,175.11L152.06,175.11L151.99,175.12L151.92,175.14L151.85,175.16L151.78,175.19L151.72,175.23L151.66,175.28L151.60,175.33L151.56,175.38L151.51,175.44L151.47,175.50L151.44,175.57L151.42,175.64L151.40,175.71L151.39,175.78L151.38,175.86L151.39,175.93L151.40,176.00L151.42,176.07L151.44,176.14L151.47,176.21L151.51,176.27L151.56,176.33L151.60,176.39L151.66,176.44L151.72,176.48L151.78,176.52L151.85,176.55L151.92,176.57L151.99,176.59L152.06,176.60L152.13,176.61L152.21,176.60L152.28,176.59L152.35,176.57L152.42,176.55L152.49,176.52L152.55,176.48L152.61,176.44L152.67,176.39L152.71,176.33L152.76,176.27L152.80,176.21L152.83,176.14L152.85,176.07L152.87,176.00L152.88,175.93z"/></g><g><text xml:space="preserve" fill="#000000" stroke-width="0" x="190.01" y="164.61" font-size="3.45" opacity="1.00" font-family="Arial">HHF0226</text></g></g><g><g/><g><text xml:space="preserve" fill="#000000" stroke-width="0" x="4.70" y="6.82" font-size="3.93" opacity="1.00" font-family="Arial" font-weight="bold">HHF0225</text></g></g><g/><g><g/><g><path style="fill:#ffffff" d="M184.93,165.40L190.04,165.40L190.04,172.18L184.93,172.18z"/><text xml:space="preserve" fill="#000000" stroke-width="0" x="185.78" y="170.06" font-size="3.86" opacity="1.00" font-family="Wingdings"></text></g></g><g><g/><g><path style="fill:#ffffff" d="M189.18,165.67L206.93,165.67L206.93,171.87L189.18,171.87z"/><text xml:space="preserve" fill="#000000" stroke-width="0" x="189.95" y="169.93" font-size="3.45" opacity="1.00" font-family="Arial">HHF0262</text></g></g><g id="paperID" visibility="hidden" opacity="0.00" transform="scale(0.000100)"><path style="stroke:#000000;stroke-width:0.500;fill:#e6e6e6;fill-rule:evenodd" d="M-2000.00,-2000.00L2297.00,-2000.00L2297.00,2210.00L-2000.00,2210.00zM0.00,0.00L297.00,0.00L297.00,210.00L0.00,210.00z"/><path style="fill:#000000;fill-opacity:0.118" d="M3.00,210.00L297.00,210.00L297.00,3.00L300.00,3.00L300.00,213.00L3.00,213.00z"/></g></g></svg>
