<?xml version="1.0" encoding="UTF-8" standalone="no"?>
<svg xmlns="http://www.w3.org/2000/svg" xmlns:xlink="http://www.w3.org/1999/xlink" width="297.000mm" height="210.000mm" viewBox="0.000000 0.000000 297.000000 210.000000" stroke-linejoin="round" stroke-linecap="round" fill="none" fill-rule="evenodd"><desc>Composer Export</desc><script type="text/ecmascript"><![CDATA[
if(typeof(top) != "undefined")
{
	top.ShowPaper = ShowPaper;
}
function ShowPaper()
{
  var svgDocument = getDocument();
  var paper = svgDocument.getElementById("paperID");
  if(paper)
  {
    paper.setAttribute("transform","scale(1)");
    paper.setAttribute("opacity","1");
    paper.setAttribute("visibility","visible");
  }
  var svg = svgDocument.getRootElement();
  if(svg)
  {
    svg.setAttribute("width","307.000mm");
    svg.setAttribute("height","220.000mm");
    svg.setAttribute("viewBox","-5.000000 -5.000000 307.000000 220.000000");
  }
}
]]></script><defs/><g><path style="fill:#000000;fill-opacity:0.098;fill-rule:evenodd" d="M147.12,23.82L147.12,36.54L140.85,36.70L135.90,37.69L132.68,38.92L130.67,40.16L130.31,40.17L128.58,38.66L127.07,36.45L126.57,34.73L126.57,32.81L127.35,30.62L128.95,28.51L131.69,26.55L134.92,25.08L138.62,24.08L142.33,23.59L145.87,23.59zM148.52,50.55L155.03,49.64L161.21,47.66L165.69,45.46L167.92,43.98L170.39,41.75L172.09,39.49L173.26,37.20L173.83,34.94L173.83,47.91L173.59,49.15L172.76,51.29L170.37,54.84L168.90,56.09L166.80,57.70L163.69,59.54L158.42,61.69L151.32,63.25L145.55,63.66L139.10,63.51L139.10,50.54zM175.09,81.95L177.06,84.18L179.27,87.17L181.00,91.12L181.75,95.08L181.75,107.28L181.51,109.02L181.01,110.75L179.26,113.95L178.04,115.45L177.79,121.88L177.55,123.37L176.55,126.09L174.82,128.80L172.12,131.55L168.81,133.93L163.36,136.65L160.40,137.64L154.94,139.11L154.79,198.58L153.58,200.58L150.57,202.52L147.03,203.44L142.57,203.53L142.42,140.09L138.61,139.70L138.44,127.50L137.89,127.31L137.87,117.83L146.37,116.93L153.73,115.13L159.65,112.89L164.60,110.42L168.28,108.17L171.87,105.32L174.82,102.33L176.55,99.86L177.96,97.07L178.78,94.42L179.02,91.12L178.53,88.40L177.29,85.43L175.34,82.69L174.06,81.43L174.01,81.19L174.29,81.19z"/><g id="Actor_.0"><g style="stroke:#000000;stroke-width:0.176"><path d="M173.97,34.33L173.67,36.30L172.97,38.24L171.89,40.12L170.43,41.91L168.62,43.60L166.48,45.15L164.04,46.55L161.33,47.78L158.39,48.82L155.26,49.65L151.99,50.27L148.61,50.67L145.17,50.85L141.72,50.79L138.31,50.50L134.97,49.99L131.76,49.26L128.73,48.32L125.90,47.18L123.32,45.87L121.03,44.39L119.05,42.77L117.41,41.03L116.14,39.19L115.24,37.27L114.74,35.32L114.64,33.34"/><path d="M158.02,40.32L159.38,39.27L160.63,37.92L161.51,36.48L162.00,34.98L162.10,33.45L161.80,31.93L161.11,30.46L160.05,29.06L158.63,27.77L156.90,26.61L154.88,25.61L152.63,24.80L150.19,24.19L147.62,23.80L144.97,23.63L142.31,23.68L139.70,23.97L137.19,24.47L134.83,25.18L132.69,26.09L130.81,27.17L129.23,28.40L127.99,29.75L127.11,31.19L126.61,32.69L126.51,34.21L126.81,35.73L127.50,37.21L128.56,38.60L129.98,39.90L130.59,40.31"/></g><g style="stroke:#000000;stroke-width:0.529"><path d="M171.69,53.33L170.43,54.88L168.62,56.56L166.48,58.11L164.04,59.51L161.33,60.74L158.39,61.78L155.26,62.62L151.99,63.24L148.61,63.64L145.17,63.81L141.72,63.76L138.31,63.47L134.97,62.96L131.76,62.23L128.73,61.29L125.90,60.15L123.32,58.83L121.03,57.36L119.05,55.73L117.41,53.99L116.14,52.15L115.24,50.24L114.74,48.28L114.64,46.30L114.64,33.34L114.94,31.36L115.64,29.43L116.73,27.55L118.18,25.75L120.00,24.07L122.14,22.52L124.58,21.12L127.28,19.89L130.22,18.85L133.35,18.01L136.63,17.39L140.01,16.99L143.44,16.82L146.89,16.87L150.31,17.16L153.64,17.67L156.85,18.40L159.89,19.34L162.71,20.48L165.29,21.80L167.59,23.27L169.57,24.90L171.20,26.64L172.48,28.48L173.37,30.39L173.87,32.35L173.97,34.33L173.97,47.29L173.67,49.26L172.97,51.20L172.23,52.49"/><path d="M158.02,40.32L157.80,40.49L155.92,41.57L153.78,42.48L151.43,43.19L148.92,43.70L146.30,43.98L143.64,44.04L140.99,43.87L138.43,43.47L135.99,42.86L133.73,42.05L131.72,41.05L130.59,40.31"/><path d="M158.02,40.32L156.90,39.58L154.88,38.58L152.63,37.77L150.19,37.16L147.62,36.76L144.97,36.59L142.31,36.65L139.83,36.92L139.70,36.93L137.19,37.44L134.83,38.15L132.69,39.06L130.81,40.14L130.59,40.31"/></g></g><g id="Actor_.1"><g style="stroke:#000000;stroke-width:0.176"><path d="M177.93,115.91L176.78,117.19L174.66,119.04L172.22,120.77L169.48,122.34L166.48,123.74L163.24,124.95L159.80,125.97L156.20,126.78L152.47,127.37L148.65,127.74L144.79,127.88L140.92,127.80L137.09,127.48L133.34,126.95L129.70,126.19L126.21,125.22L122.92,124.06L119.86,122.70L117.05,121.17L114.53,119.49L112.33,117.66L110.69,115.94"/><path d="M133.63,139.18L134.43,139.35L137.97,139.86L141.58,140.14L145.22,140.19L148.85,140.02L152.42,139.63L154.96,139.18"/></g><g style="stroke:#000000;stroke-width:0.529"><path d="M133.63,139.18L131.02,138.63L127.75,137.70L124.68,136.58L121.85,135.27L119.27,133.79L116.99,132.16L115.03,130.40L113.41,128.53L112.15,126.57L111.27,124.54L110.78,122.47L110.69,120.39L110.69,115.94L110.47,115.71L108.96,113.67L107.83,111.55L107.09,109.37L106.74,107.16L106.72,96.99L106.77,95.42L106.87,94.41L107.12,92.84L107.85,90.34L108.49,88.82L109.77,86.49L110.77,85.06L112.53,82.99L113.86,81.69L115.35,80.44L116.00,79.94L117.61,78.79L119.36,77.71L121.25,76.70L123.26,75.78L123.83,75.55L125.89,74.74L128.05,74.01L130.31,73.38L132.63,72.84L135.02,72.40L137.46,72.06L139.93,71.83L142.43,71.69L144.93,71.67L147.44,71.75L149.92,71.93L152.38,72.22L154.80,72.61L156.01,72.86L157.17,73.10L159.44,73.68L161.65,74.36L164.30,75.35L166.37,76.23L167.57,76.82L168.32,77.20L170.14,78.24L171.83,79.36L174.03,81.06L175.44,82.33L176.69,83.66L177.27,84.37L178.37,85.77L179.28,87.22L179.73,88.08L180.47,89.58L181.01,91.10L181.30,92.07L181.65,93.63L181.89,96.21L181.90,106.60L181.65,108.82L181.00,111.01L179.97,113.15L178.56,115.21L177.93,115.91L177.93,121.43L177.63,123.51L176.95,125.56L175.88,127.56L174.44,129.48L172.65,131.30L170.52,133.00L168.09,134.55L165.38,135.95L162.42,137.16L159.25,138.19L155.91,139.02L154.96,139.18"/><path d="M133.63,139.18L133.63,197.59L133.77,198.75L134.30,199.87L135.18,200.92L136.40,201.85L137.52,202.44L137.90,202.64L139.64,203.24L141.54,203.65L143.54,203.84L145.58,203.82L147.56,203.57L149.43,203.11L151.11,202.46L152.55,201.63L153.68,200.67L154.48,199.60L154.91,198.46L154.96,197.31L154.96,139.18"/></g></g><g><g><path style="stroke:#000000;stroke-width:0.125;stroke-dasharray:3.1 2.1 1.0 2.1" d="M144.31,63.80L144.31,90.12"/><path style="stroke:#000000;stroke-width:0.125;stroke-dasharray:3.1 2.1 1.0 2.1" d="M144.31,40.31L144.31,44.02"/></g></g><g><g/><g><text xml:space="preserve" fill="#000000" stroke-width="0" x="4.68" y="7.73" font-size="4.48" opacity="1.00" font-family="Arial" font-weight="bold">HHZ0237</text></g></g><g id="PMI.0"><g><path style="stroke:#000000;stroke-width:0.125" d="M203.12,62.24L167.36,51.53"/></g><g><path style="fill:#000000" d="M168.11,51.53L168.11,51.46L168.10,51.39L168.08,51.32L168.05,51.25L168.02,51.18L167.98,51.12L167.94,51.06L167.89,51.00L167.84,50.95L167.78,50.91L167.71,50.87L167.65,50.84L167.58,50.82L167.51,50.80L167.43,50.79L167.36,50.78L167.29,50.79L167.21,50.80L167.14,50.82L167.07,50.84L167.01,50.87L166.94,50.91L166.88,50.95L166.83,51.00L166.78,51.06L166.74,51.12L166.70,51.18L166.67,51.25L166.64,51.32L166.63,51.39L166.61,51.46L166.61,51.53L166.61,51.61L166.63,51.68L166.64,51.75L166.67,51.82L166.70,51.89L166.74,51.95L166.78,52.01L166.83,52.06L166.88,52.11L166.94,52.16L167.01,52.20L167.07,52.23L167.14,52.25L167.21,52.27L167.29,52.28L167.36,52.28L167.43,52.28L167.51,52.27L167.58,52.25L167.65,52.23L167.71,52.20L167.78,52.16L167.84,52.11L167.89,52.06L167.94,52.01L167.98,51.95L168.02,51.89L168.05,51.82L168.08,51.75L168.10,51.68L168.11,51.61z"/></g><g><text xml:space="preserve" fill="#000000" stroke-width="0" x="203.89" y="66.25" font-size="3.79" opacity="1.00" font-family="Arial">HHZ0238</text></g></g><g/><g id="paperID" visibility="hidden" opacity="0.00" transform="scale(0.000100)"><path style="stroke:#000000;stroke-width:0.500;fill:#e6e6e6;fill-rule:evenodd" d="M-2000.00,-2000.00L2297.00,-2000.00L2297.00,2210.00L-2000.00,2210.00zM0.00,0.00L297.00,0.00L297.00,210.00L0.00,210.00z"/><path style="fill:#000000;fill-opacity:0.118" d="M3.00,210.00L297.00,210.00L297.00,3.00L300.00,3.00L300.00,213.00L3.00,213.00z"/></g></g></svg>
