<?xml version="1.0" encoding="UTF-8" standalone="no"?>
<svg xmlns="http://www.w3.org/2000/svg" xmlns:xlink="http://www.w3.org/1999/xlink" width="297.000mm" height="210.000mm" viewBox="0.000000 0.000000 297.000000 210.000000" stroke-linejoin="round" stroke-linecap="round" fill="none" fill-rule="evenodd"><desc>Composer Export</desc><script type="text/ecmascript"><![CDATA[
if(typeof(top) != "undefined")
{
	top.ShowPaper = ShowPaper;
}
function ShowPaper()
{
  var svgDocument = getDocument();
  var paper = svgDocument.getElementById("paperID");
  if(paper)
  {
    paper.setAttribute("transform","scale(1)");
    paper.setAttribute("opacity","1");
    paper.setAttribute("visibility","visible");
  }
  var svg = svgDocument.getRootElement();
  if(svg)
  {
    svg.setAttribute("width","307.000mm");
    svg.setAttribute("height","220.000mm");
    svg.setAttribute("viewBox","-5.000000 -5.000000 307.000000 220.000000");
  }
}
]]></script><defs/><g><path style="fill:#000000;fill-opacity:0.098;fill-rule:evenodd" d="M155.75,124.09L154.77,124.20L154.07,124.56L152.71,125.43L151.35,126.89L150.70,127.89L149.72,129.85L149.40,130.94L149.13,132.44L149.25,134.00L151.18,135.13L151.25,135.53L152.00,135.96L152.35,137.37L161.29,141.98L161.51,142.00L162.69,138.23L163.95,135.73L164.88,134.43L165.82,133.37L166.69,132.59L168.45,131.41L170.12,130.79L170.70,131.25L171.51,132.20L171.98,133.38L172.22,134.95L177.16,132.08L177.17,179.75L135.50,203.69L135.02,203.86L135.06,156.23L159.52,142.19L154.36,139.61L137.06,149.52L136.67,149.65L136.71,130.95L168.90,112.43L169.04,112.43L169.05,130.12L161.17,125.14L160.34,125.03L159.64,125.04L159.16,124.91L157.63,124.92L156.35,124.20zM161.16,157.26L161.50,157.25L161.66,157.46L161.77,157.75L161.23,158.18L162.11,158.20L164.94,158.65L165.16,158.78L164.81,158.78L162.88,158.53L162.91,158.64L164.81,159.73L165.04,159.75L165.17,159.47L165.29,159.56L165.48,160.10L169.29,162.30L168.52,162.42L168.56,162.78L168.82,163.36L168.83,163.64L167.52,164.46L166.54,165.72L166.06,166.65L165.75,167.75L164.46,167.74L164.46,169.28L164.22,169.25L157.29,165.24L157.16,164.90L157.18,163.25L156.65,164.19L156.34,164.20L155.16,163.47L155.16,163.71L154.94,163.73L154.59,163.47L154.45,163.25L154.46,161.52L154.69,160.57L155.23,159.47L155.94,158.41L156.89,157.48L157.36,157.13L158.30,156.77L159.17,156.77L159.64,157.02L159.99,156.94L160.35,156.78zM134.78,13.07L135.43,12.74L135.42,13.61L135.03,13.60zM135.49,14.61L136.32,14.51L137.13,14.02L137.53,13.61L137.65,13.20L137.62,15.46L136.91,16.03L136.83,26.42L136.70,26.76L136.70,28.74L136.83,28.96L136.83,33.71L136.49,34.20L135.96,34.38L135.53,34.38L134.94,34.12L134.93,33.90L135.53,34.07zM124.21,19.08L124.96,18.74L124.91,19.68L124.48,19.68zM127.19,19.56L127.07,21.49L126.44,22.03L126.37,39.59L126.13,40.06L125.74,40.38L124.71,40.38L124.35,40.12L124.36,39.89L124.59,40.02L124.95,40.07L124.91,20.73L126.19,20.37L126.96,19.72L127.06,19.20zM147.75,20.66L148.36,20.38L148.31,21.33L147.99,21.34L147.74,20.97zM148.32,23.82L148.31,22.38L149.41,22.07L150.06,21.67L150.34,21.36L150.44,21.07L150.57,21.07L150.59,22.90L150.47,23.13L149.84,23.68L149.76,41.24L149.48,41.78L149.02,42.02L148.23,42.02L147.82,41.80L147.83,41.66L148.46,41.71L148.46,23.92zM137.62,26.49L138.25,26.15L138.20,27.10L137.89,27.09zM138.32,28.14L139.73,27.67L140.24,27.24L140.47,26.60L140.48,28.77L140.31,29.08L139.73,29.44L139.65,47.12L139.41,47.57L139.03,47.78L138.23,47.78L137.76,47.53L137.76,47.30L138.00,47.43L138.35,47.47zM133.76,54.98L134.08,54.59L134.78,54.24L136.13,54.12L136.12,56.29L134.82,56.25L133.77,55.77zM124.82,58.19L124.56,58.17L124.59,57.92L124.72,57.89zM123.18,61.09L123.62,60.59L124.56,60.24L125.54,60.24L125.54,62.28L124.68,62.36L123.88,62.37L123.31,62.00L123.18,61.78zM148.07,61.41L147.24,62.01L147.48,62.02L147.84,61.88L148.94,61.88L148.94,63.93L147.64,64.02L146.59,63.30L146.41,62.48L146.90,61.89L148.00,61.21L148.13,61.07zM154.18,64.93L155.14,64.34L155.28,64.34L155.30,65.57zM148.71,65.22L148.41,65.22L148.41,65.06L148.71,65.06zM157.88,66.11L157.87,69.21L157.40,69.46L157.37,65.87L157.63,65.87zM156.48,66.75L156.29,66.86L156.31,66.58L156.46,66.58zM138.96,67.45L137.95,67.53L138.95,67.64L138.95,69.69L137.96,69.77L137.29,69.77L136.72,69.40L136.58,69.19L136.58,68.38L137.07,67.92L137.05,67.87L136.09,68.36L135.35,68.38L135.36,68.25L136.31,67.99L137.72,67.29L138.95,67.18zM150.70,68.46L150.22,68.52L150.23,64.87L151.72,63.99L151.99,63.99L152.00,68.40L151.61,68.72L151.04,68.72zM152.00,69.28L152.00,72.52L151.89,72.63L151.48,72.75L151.48,69.30L151.89,69.16zM149.73,65.76L143.37,69.43L143.13,69.45L143.17,69.23L149.61,65.51L149.77,65.53zM150.44,69.99L150.69,69.99L150.68,70.12L150.45,70.12zM164.02,70.64L164.57,73.88L164.69,75.34L164.22,75.17L163.28,74.82L161.48,74.82L160.22,75.21L158.89,75.88L157.75,76.74L156.82,77.57L155.59,79.04L154.00,81.58L153.99,76.63L155.05,75.92L163.86,70.85L163.98,70.59zM123.07,75.15L123.07,78.65L122.96,78.76L122.96,75.04zM125.52,76.91L125.63,76.93L125.78,77.16L125.77,78.04zM168.94,77.86L169.76,78.57L170.45,79.76L170.92,81.05L170.92,81.58L170.70,81.53L170.10,81.16L169.94,81.16L169.58,81.53L169.40,81.54L168.41,80.93L169.63,80.94L169.41,80.81L168.34,80.69L167.63,80.35L167.16,80.23L165.70,80.34L163.83,81.29L162.43,82.48L161.13,84.11L159.99,86.14L159.51,87.55L159.16,89.09L159.16,91.17L159.40,91.98L160.45,92.58L160.70,93.16L163.51,94.81L163.99,94.98L164.06,94.34L164.59,94.16L164.93,93.91L165.17,93.56L165.17,93.04L164.58,92.58L164.20,92.35L164.32,92.26L164.75,90.91L165.64,90.38L165.87,90.03L165.88,89.16L165.74,88.94L162.22,86.92L162.08,87.88L161.35,88.82L161.12,88.86L161.51,87.56L161.99,86.57L165.41,88.58L165.62,88.62L166.42,87.28L167.25,87.18L167.75,86.74L167.87,86.51L167.99,85.33L169.05,84.46L169.39,84.71L170.07,84.71L170.46,84.39L170.65,83.63L170.67,83.40L171.74,83.05L171.99,83.51L172.57,84.01L172.93,83.92L173.28,83.32L173.25,83.04L173.63,83.17L174.11,83.75L174.21,84.47L174.46,85.17L174.76,85.16L174.94,85.04L175.16,85.52L175.16,88.73L174.92,89.68L174.18,91.52L173.71,92.46L173.05,93.45L171.94,94.81L171.39,95.44L170.76,95.99L170.47,96.00L169.98,96.26L169.11,96.92L168.05,97.29L167.84,97.28L167.86,97.06L167.51,96.80L167.25,96.80L166.30,97.17L165.86,97.17L165.24,96.81L165.72,96.46L165.87,96.26L165.87,95.87L165.29,95.51L164.22,95.40L162.33,94.32L162.19,94.34L162.06,94.96L163.04,95.51L162.91,95.64L161.60,95.99L159.75,95.99L158.81,95.75L145.24,87.99L140.82,90.51L140.82,82.92L141.04,84.12L141.29,84.35L156.23,92.94L156.45,92.97L157.25,89.41L157.60,88.23L158.42,86.11L159.84,83.53L160.59,82.52L161.47,81.40L163.01,79.88L164.89,78.58L166.42,77.88L167.71,77.53L168.46,77.52zM125.78,78.57L125.77,79.46L125.61,78.35zM142.47,75.45L141.88,76.74L141.17,78.85L140.82,80.87L140.79,72.59L142.72,71.53zM134.36,81.73L135.07,85.34L134.96,85.46L134.19,81.64zM165.48,82.23L167.12,81.28L167.17,81.56L166.77,82.12L166.19,82.60L165.98,82.59L165.50,82.33zM129.64,82.29L129.51,82.29L129.51,79.39L129.64,79.39zM133.93,82.30L133.81,82.66L133.89,82.22zM133.64,83.45L133.64,82.96L133.81,82.66zM164.22,84.15L163.82,84.81L163.25,85.17L162.76,85.17L164.30,83.27L164.35,83.29zM161.17,90.57L161.41,90.93L161.40,91.32L161.25,91.76L160.81,92.39L160.77,90.45zM142.01,99.86L142.09,100.69L141.52,101.32L141.52,101.09L141.65,100.85L141.77,99.99L141.77,99.50zM133.17,99.32L135.50,97.96L135.65,97.97L135.66,100.62L134.79,101.39L134.00,101.40L133.17,99.63zM130.82,98.72L131.13,98.09L131.61,97.51L132.67,96.81L134.32,96.22L135.61,95.99L137.65,95.98L137.65,97.20L135.38,97.28L133.97,97.63L132.79,98.22L131.95,98.91L131.38,99.75L131.19,100.61L130.82,99.99zM135.00,105.75L135.37,105.50L135.89,105.51L135.89,106.38L135.05,106.34L134.71,106.10L134.68,105.61zM160.34,110.26L158.77,110.21L157.16,110.48L155.60,111.15L154.77,111.85L154.10,112.71L153.88,113.67L153.52,113.04L153.51,111.77L153.82,111.14L154.42,110.45L155.36,109.86L156.42,109.39L158.07,109.04L160.35,109.03zM114.95,110.26L113.39,110.21L111.77,110.48L110.21,111.15L109.38,111.85L108.72,112.71L108.49,113.67L108.13,113.04L108.13,111.77L108.44,111.14L109.04,110.45L109.98,109.86L111.04,109.39L112.68,109.04L114.96,109.03zM135.19,110.66L135.19,111.10L135.08,111.21L134.91,110.91L135.07,110.55zM133.38,110.58L133.66,110.45L133.65,111.20L133.42,111.17L133.06,110.92L133.06,110.57zM138.71,110.14L139.26,109.74L139.61,109.62L140.24,109.62L140.24,111.20L139.40,111.16L138.71,110.80zM133.14,110.21L132.47,110.73L132.47,110.50L132.91,110.10L133.26,109.98L134.01,109.98zM124.37,111.74L124.54,111.74L124.67,111.62L125.30,111.50L125.30,112.49L124.82,112.45L124.25,112.20L124.11,111.98L124.12,111.65L124.25,111.62zM164.70,112.91L164.82,113.66L164.53,114.10L164.30,114.14L164.46,113.04L164.29,112.33L164.34,112.32zM119.31,112.91L119.43,113.66L119.14,114.10L118.91,114.14L119.08,113.04L118.90,112.33L118.95,112.32zM155.83,112.34L158.35,110.92L158.35,113.67L157.37,114.46L156.93,114.46L156.70,114.32L155.86,112.56zM110.44,112.34L112.97,110.92L112.96,113.67L111.98,114.46L111.54,114.46L111.32,114.32L110.47,112.56zM147.77,113.38L147.94,113.39L148.43,113.15L148.82,113.14L148.82,114.14L148.34,114.10L147.88,113.97L147.61,113.78L147.65,113.26zM138.10,113.77L138.78,113.26L139.77,113.27L139.77,114.72L138.70,114.69L138.10,114.22zM131.87,114.13L132.20,113.74L132.91,113.51L133.54,113.50L133.54,115.08L132.70,115.04L132.13,114.79L131.87,114.45zM137.82,119.15L137.96,119.03L138.70,118.90L138.71,119.90L138.23,119.86L137.53,119.50L137.53,119.05zM137.65,122.08L137.66,123.30L135.73,123.27L134.43,123.50L133.65,123.77L132.19,124.66L131.53,125.53L131.18,126.59L130.82,126.10L130.82,124.82L131.26,123.97L132.00,123.30L132.71,122.83L133.61,122.44L135.02,122.09L136.94,121.97zM119.67,123.19L119.63,123.04L119.76,123.01zM141.88,125.73L142.13,126.71L141.64,127.19L141.64,126.83L141.77,126.09L141.48,125.15L141.53,125.14zM133.17,125.31L135.66,123.97L135.66,126.72L134.66,127.50L134.00,127.38L133.17,125.62zM119.30,123.77L118.96,125.31L118.71,125.78L118.72,125.18L118.92,124.09L119.32,123.41L119.44,123.39zM126.01,128.44L126.01,130.25L125.89,130.48L125.43,131.19L124.01,132.12L123.39,132.32L122.35,132.33L122.09,132.19L122.91,132.21L123.61,131.96L124.09,131.38L124.36,130.47L124.36,128.44L124.24,127.66L125.27,127.01L125.53,127.02zM121.42,127.26L121.90,127.72L121.86,127.84L120.60,128.60L120.34,128.23L120.35,127.53L120.71,127.17L121.06,127.14zM112.84,151.83L114.13,152.42L115.68,153.47L116.26,154.06L116.59,155.72L117.42,157.83L117.55,158.22L109.08,163.05L108.60,162.07L108.01,160.31L107.67,158.65L106.60,158.70L106.49,157.72L106.49,156.46L106.69,155.01L107.04,153.95L107.73,152.88L108.60,152.11L109.27,151.71L110.33,151.49L110.96,151.49zM105.58,149.78L105.03,150.53L104.37,151.87L103.90,153.64L103.74,155.37L103.90,157.60L104.14,158.89L104.84,161.60L105.80,163.95L105.79,164.23L105.52,164.23L104.48,161.72L103.90,159.60L103.55,157.36L103.55,154.23L103.98,152.19L104.80,150.54L105.51,149.71zM158.11,160.94L158.10,160.70L158.34,159.75L159.28,159.35zM97.43,174.53L98.38,175.12L99.09,175.93L99.05,176.05L96.22,177.72L95.91,177.71L95.66,177.12L95.55,176.41L95.55,175.62L95.86,174.76L96.45,174.41L97.09,174.41zM130.59,186.05L131.43,186.88L131.43,187.15L128.68,188.77L128.33,188.80L128.00,187.82L128.00,186.44L128.43,185.69L128.67,185.58L129.43,185.47zM151.33,66.07L151.05,66.41L151.02,65.99L151.29,66.00zM169.99,136.55L170.58,137.13L171.16,137.95L169.59,138.91L169.86,139.96L169.75,140.94L169.40,141.30L168.69,141.39L167.87,140.89L167.17,140.07L166.80,139.26L166.65,138.32L166.93,137.54L168.69,136.47L169.00,136.31L169.39,136.31zM170.81,164.46L170.26,164.61L171.00,164.18L171.31,164.14zM169.75,164.93L169.20,165.08L169.94,164.65L170.26,164.61zM156.83,165.94L156.19,166.06L155.64,166.07L155.24,165.95L156.72,165.82zM171.87,165.28L171.47,165.95L171.12,165.96L171.51,165.64L171.83,164.88L171.87,164.89zM168.93,166.70L168.81,166.93L168.18,167.48L167.71,167.64L167.74,166.92L168.23,166.23L168.41,166.06L168.93,166.06zM168.77,165.36L168.05,165.82L167.39,166.68L167.15,167.63L167.17,168.10L167.05,168.08L167.04,167.27L167.28,166.57L167.70,165.94L168.33,165.39L168.88,165.12L169.20,165.08z"/><g id="Actor_2.0"><g style="stroke:#000000;stroke-width:0.176"><path d="M120.29,127.97L120.33,128.31L120.44,128.68L120.59,128.25L120.64,127.92L120.59,127.64L120.44,127.38L120.33,127.63L120.29,127.94L120.29,127.97"/><path d="M120.44,128.68L120.85,128.92L121.12,129.17L121.31,129.48L121.42,129.89L121.83,129.78L122.10,129.73L122.28,129.74L122.39,129.80L122.21,129.96L121.98,130.04L121.71,130.01L121.42,129.89L121.13,129.68L120.85,129.39L120.62,129.05L120.44,128.68L121.99,127.80L121.98,127.78L121.70,127.50L121.42,127.29L121.13,127.17L120.85,127.14L120.62,127.21L120.44,127.38L120.85,127.27L121.12,127.22L121.27,127.22"/><path d="M121.42,129.89L122.54,129.25L122.50,129.55L122.39,129.80L122.51,129.44"/><path d="M121.99,127.80L122.21,128.13L122.39,128.50L122.50,128.87L122.54,129.23L122.54,129.25"/><path d="M126.09,129.35L125.98,128.35L125.61,127.22L125.04,126.13L124.31,125.16L123.47,124.40L123.07,124.17"/></g><g style="stroke:#000000;stroke-width:0.529"><path d="M126.09,129.35L126.10,129.42L125.98,130.34L125.61,131.06L125.04,131.49L123.80,132.21L123.69,132.25L123.19,132.39L122.63,132.37L122.53,132.36L121.93,132.18L121.33,131.85L121.26,131.81L120.68,131.36L120.13,130.79L119.63,130.13L119.21,129.40L118.88,128.64L118.66,127.88L118.56,127.14L118.56,127.07L118.57,126.37L118.71,125.76L119.01,125.17L119.37,124.80L119.46,124.72L121.03,123.83L121.76,123.70L122.60,123.90L123.07,124.17"/></g></g><g id="Actor_3.0"><g style="stroke:#000000;stroke-width:0.176"><path d="M124.53,58.12L124.52,58.12L124.48,58.07L124.47,58.02L124.49,57.97L124.54,57.93L124.61,57.89L124.69,57.88L124.78,57.87L124.87,57.89L124.94,57.92L124.99,57.96L125.02,58.01L125.02,58.06L124.98,58.11L124.96,58.12"/></g><g style="stroke:#000000;stroke-width:0.529"><path d="M123.98,58.35L124.09,58.48L124.18,58.54L124.28,58.59L124.52,58.66L124.78,58.68L125.04,58.65L125.26,58.57L125.44,58.45L125.53,58.31L125.54,58.16L125.47,58.02L125.31,57.89L125.10,57.80L124.85,57.76L124.58,57.77L124.34,57.82L124.13,57.92L124.00,58.05L123.94,58.20L123.98,58.35"/><path d="M124.55,58.14L124.53,58.12L124.54,58.12L124.61,58.08L124.69,58.06L124.78,58.06L124.87,58.08L124.94,58.11L124.96,58.12L124.92,58.15L124.85,58.18L124.76,58.19L124.67,58.18L124.59,58.16L124.55,58.14"/></g></g><g id="Actor_3.1"><g style="stroke:#000000;stroke-width:0.176"><path d="M161.96,94.91L162.12,94.52L162.18,94.24L161.04,93.59L161.44,94.33L161.96,94.91L165.05,96.68L165.19,96.73L165.34,96.74L165.49,96.69L165.61,96.60L165.66,96.55L165.87,96.25L165.94,95.97L165.92,95.84L165.86,95.72L166.35,96.25L166.97,96.61L167.67,96.78L167.53,96.78L167.36,96.80L166.97,96.90L166.84,96.95"/><path d="M160.97,93.86L160.63,93.17L160.38,91.96L160.38,90.59L160.63,89.10L161.11,87.57L161.81,86.06L162.69,84.64L163.72,83.36L164.85,82.29L166.03,81.47L167.21,80.94L168.33,80.71L168.43,80.72"/><path d="M160.75,92.50L161.02,92.19L161.23,91.82L161.36,91.43L161.41,91.06L161.36,90.75L161.34,90.71L160.75,90.37L160.71,90.78L160.71,92.15L160.75,92.50L163.84,94.28L163.99,94.33L164.15,94.35L164.33,94.33L164.49,94.25L164.55,94.22L164.90,93.93L165.12,93.59L165.18,93.41L165.20,93.24L165.27,94.18L165.50,95.03L165.86,95.72L165.77,95.62L165.64,95.54L165.30,95.44L164.88,95.44L164.63,95.46L164.45,95.46L164.28,95.43L164.13,95.37L162.18,94.24"/><path d="M166.04,82.62L165.43,82.27L166.35,81.65L167.27,81.21L167.13,81.60L166.91,81.97L166.65,82.28L166.35,82.50L166.05,82.62L166.04,82.62L168.52,84.04L168.66,84.13L168.79,84.24L169.06,84.48L169.11,84.52L169.46,84.72L169.82,84.77L169.98,84.74L170.14,84.67L169.29,85.25L168.45,85.99L167.67,86.86L167.53,87.01L167.36,87.13L166.97,87.27L166.54,87.27L166.48,87.26L166.31,87.21L166.15,87.14L165.99,87.06L162.75,85.20L163.01,85.24L163.30,85.16L163.60,84.97L163.88,84.68L164.11,84.33L164.28,83.95L164.36,83.57L164.35,83.23L167.44,85.00L167.57,85.09L167.70,85.21L167.80,85.36L167.87,85.53L167.89,85.60L167.95,86.05L167.87,86.49L167.79,86.69L167.67,86.86L166.97,87.83L166.35,88.90L165.86,89.99L165.92,89.79L165.94,89.59L165.87,89.18L165.66,88.81L165.61,88.76L165.49,88.64L165.34,88.53L165.19,88.43L165.05,88.35L161.96,86.58L161.44,87.76L161.04,88.95L164.13,90.72L164.28,90.79L164.45,90.84L164.63,90.86L164.81,90.84L164.88,90.82L165.30,90.64L165.64,90.35L165.77,90.18L165.86,89.99L165.50,91.10L165.27,92.21L165.20,93.24L165.18,93.07L165.12,92.90L164.90,92.62L164.55,92.41L164.49,92.39L164.15,92.28L163.99,92.22L163.84,92.15L161.34,90.71"/><path d="M161.04,88.95L161.34,88.79L161.63,88.53L161.88,88.20L162.07,87.82L162.18,87.43L162.19,87.08L162.12,86.78L161.96,86.58"/><path d="M162.75,85.20L163.02,84.82L164.04,83.55L164.35,83.23"/><path d="M164.15,92.28L164.49,92.39"/><path d="M164.39,92.36L164.33,92.34"/><path d="M164.39,92.36L164.55,92.41"/><path d="M167.67,96.78L168.44,96.76L169.28,96.54L170.14,96.13L171.00,95.55L171.84,94.81L172.62,93.94L173.32,92.97L173.93,91.91L174.43,90.81L174.79,89.70L175.01,88.60L175.09,87.57L175.01,86.62L174.79,85.77L174.43,85.08L173.93,84.55L173.32,84.19L172.62,84.02L171.84,84.05L171.00,84.27L170.14,84.67L170.29,84.57L170.41,84.43L170.59,84.07L170.66,83.63L170.67,83.56L170.65,83.38L170.58,83.22L170.48,83.08L170.36,82.99L167.27,81.21"/><path d="M167.70,97.35L167.80,97.31L167.87,97.24L167.89,97.20L167.95,96.99L167.87,96.85L167.79,96.80L167.68,96.78"/><path d="M168.47,80.99L169.49,81.58L169.69,81.41L169.95,81.08L169.68,81.00L168.66,80.90L168.35,80.93L168.47,80.99"/><path d="M169.49,81.58L171.44,82.70L171.57,82.80L171.68,82.93L171.77,83.08L171.88,83.31L172.10,83.67L172.35,83.92L172.48,83.99L172.62,84.02L172.74,84.02L172.86,83.97L173.07,83.77L173.23,83.44L173.24,83.38L173.26,83.22L173.23,83.07L173.15,82.95L173.04,82.85L169.95,81.08"/><path d="M170.43,95.99L170.59,95.95L170.66,95.99L170.67,96.00L170.65,96.03"/><path d="M170.65,96.03L170.97,95.76L170.72,95.97"/><path d="M170.97,95.76L171.20,95.57L170.97,95.76"/><path d="M171.20,95.57L171.27,95.51L171.62,95.18"/><path d="M171.27,95.51L171.77,95.04"/><path d="M174.93,84.83L174.95,84.94L174.92,85.04L174.89,85.07L174.74,85.22L174.58,85.23L174.50,85.17L174.43,85.08L174.35,84.96L174.29,84.80L174.18,84.41L174.16,84.30"/><path d="M173.83,83.32L173.83,83.32"/><path d="M175.12,88.78L175.16,88.59L175.11,88.86L174.95,89.54"/><path d="M175.23,88.16L175.16,88.59L175.25,88.07L175.25,88.07"/><path d="M175.11,88.86L175.00,89.30"/><path d="M175.25,88.06L175.23,88.09L175.22,88.10L175.15,88.05L175.11,87.90"/><path d="M175.22,85.93L175.22,85.93"/></g><g style="stroke:#000000;stroke-width:0.529"><path d="M159.86,92.97L160.52,93.60L160.97,93.86L161.11,94.15L161.81,94.86L165.43,96.95L165.85,97.15L165.99,97.20L166.15,97.21L166.31,97.17L166.48,97.10L166.54,97.07L166.84,96.95L167.44,97.30L167.57,97.35L167.70,97.35L168.23,97.25L168.79,97.07L168.93,97.02L169.06,96.92L169.11,96.88L169.46,96.59L169.82,96.34L169.98,96.23L170.14,96.13L170.29,96.05L170.41,96.00L170.43,95.99L170.48,96.02L170.58,96.04L170.65,96.03L171.22,95.57L171.77,95.04L171.85,94.96L172.10,94.61L172.35,94.28L172.74,93.79L173.07,93.40L173.24,93.22L173.70,92.49L174.11,91.72L174.18,91.48L174.29,91.18L174.43,90.81L174.58,90.41L174.74,90.03L174.92,89.65L174.95,89.54L175.13,88.79L175.25,88.06L175.22,88.00L175.15,87.93L175.11,87.90L175.10,87.86L175.09,87.73L175.09,87.57L175.09,87.38L175.10,87.18L175.15,86.74L175.22,86.29L175.23,86.23L175.25,86.07L175.10,85.35L174.93,84.83L174.86,84.72L174.75,84.63L174.16,84.30L174.12,83.96L174.11,83.89L174.09,83.71L174.03,83.55L173.95,83.41L173.83,83.32L173.45,83.05L170.24,81.22L169.95,81.08L169.36,80.81L168.43,80.72L167.87,80.40L166.91,80.20L165.84,80.32L164.69,80.76L163.54,81.49L162.42,82.49L161.40,83.70L160.52,85.08L159.82,86.55L159.34,88.04L159.09,89.49L159.09,90.83L159.34,92.00L159.82,92.94L159.86,92.97"/></g></g><g id="Actor_3.2"><g style="stroke:#000000;stroke-width:0.176"><path d="M118.34,59.74L140.77,72.61L142.75,71.47"/><path d="M123.07,78.68L122.91,78.78L135.87,86.21L135.87,86.03L123.07,78.68L123.07,75.11L122.91,75.02L122.91,78.78"/><path d="M123.07,75.11L124.94,76.19L124.04,75.67L123.88,75.77L125.05,76.43L125.29,76.65L125.48,76.97L125.63,77.34L125.68,77.59L125.68,77.88L125.63,78.06L125.48,78.27L125.65,78.17L125.79,77.97L125.84,77.78L125.84,77.50L125.79,77.25L125.65,76.88L125.45,76.55L125.29,76.65"/><path d="M126.20,62.44L125.56,62.32L124.89,62.32L124.25,62.44L124.17,62.48L123.70,62.28L123.30,61.97L123.10,61.60L123.10,61.21L123.30,60.84L123.70,60.53L124.25,60.30L124.89,60.18L125.56,60.18L126.20,60.30L126.75,60.53L127.14,60.84L127.35,61.21L127.35,61.58"/><path d="M124.02,79.23L123.88,79.15L123.88,75.77"/><path d="M124.17,78.88L125.09,79.41L125.24,79.42L125.34,79.34L125.39,79.15L125.39,78.93L125.34,78.69L125.24,78.49L125.09,78.33L124.17,77.80L124.17,78.88L124.33,78.79L124.33,77.90"/><path d="M124.33,78.79L125.26,79.32L125.34,79.33"/><path d="M124.94,77.81L124.17,77.37L124.17,76.36L125.09,76.89L125.24,77.05L125.34,77.25L125.39,77.49L125.39,77.64L125.34,77.82L125.24,77.91L125.09,77.90L124.94,77.81"/><path d="M124.17,77.37L124.33,77.28L124.33,76.46"/><path d="M124.33,77.28L125.26,77.81L125.34,77.81"/><path d="M124.17,62.48L124.25,62.51L124.89,62.63L125.56,62.63L126.11,62.52"/><path d="M124.94,79.75L125.05,79.81L125.29,79.88L125.48,79.78L125.63,79.57L125.68,79.39L125.68,79.03L125.63,78.78L125.48,78.41L125.65,78.32L125.79,78.69L125.84,78.93L125.84,79.29L125.79,79.48L125.65,79.69L125.48,79.78"/><path d="M125.48,78.41L125.39,78.28L125.48,78.27"/><path d="M125.65,78.32L125.57,78.22"/><path d="M130.25,79.42L130.25,79.78L130.41,79.69L130.42,79.33L129.41,78.75L130.42,79.33L130.25,79.42L128.40,78.36L128.56,78.27L129.32,78.70L124.94,76.19L125.21,76.34L125.45,76.55"/><path d="M129.47,82.35L129.63,82.26L129.63,79.43L129.47,79.33L129.47,82.35L129.18,82.19L129.18,79.17L128.40,78.72L128.40,78.36"/><path d="M130.42,79.33L135.87,82.46L135.87,86.03"/><path d="M129.41,78.75L129.32,78.70"/><path d="M130.25,79.78L129.63,79.43"/><path d="M134.63,85.31L134.43,84.34L134.23,84.22L133.58,83.85L133.43,84.44L133.26,84.53L132.97,84.36L133.75,81.43L134.14,81.65L134.30,81.56L135.08,85.38L134.92,85.48L134.80,85.41"/><path d="M133.26,84.53L133.46,83.78L133.58,83.85"/><path d="M133.61,83.12L133.51,83.52L133.67,83.42L133.70,83.29L134.01,82.13L133.95,81.83L133.61,83.12"/><path d="M133.51,83.52L134.38,84.02L134.34,83.81L133.67,83.42"/><path d="M137.77,55.77L137.89,55.55L137.89,55.17L137.68,54.80L137.28,54.49L136.74,54.26L136.10,54.14L135.42,54.14L134.78,54.26L134.24,54.49L133.84,54.80L133.63,55.17L133.63,55.55L133.75,55.76"/><path d="M134.14,81.65L134.92,85.48"/><path d="M134.34,83.81L134.01,82.13"/><path d="M134.30,81.56L133.91,81.33L133.75,81.43"/><path d="M136.31,56.32L136.10,56.28L135.42,56.28L135.22,56.32"/><path d="M136.47,68.99L136.47,68.60L136.68,68.24L137.07,67.92L137.62,67.70L138.26,67.58L138.94,67.58L139.58,67.70L140.12,67.92L140.52,68.24L140.73,68.60L140.73,68.99L140.52,69.36L140.12,69.67L139.65,69.87L139.58,69.84L138.94,69.72L138.26,69.72L137.62,69.84L137.55,69.87L137.07,69.67L136.68,69.36L136.47,68.99"/><path d="M139.65,69.87L139.58,69.90L138.93,70.02L138.26,70.02L137.62,69.90L137.55,69.87"/><path d="M140.77,72.61L140.77,90.52"/><path d="M146.52,62.84L146.52,63.16"/><path d="M147.74,64.06L148.31,63.95L148.99,63.95L149.63,64.07L149.70,64.10"/><path d="M150.72,62.74L150.57,62.47L150.17,62.16L149.63,61.93L148.99,61.81L148.31,61.81L147.67,61.93L147.40,62.04"/><path d="M147.96,64.19L148.31,64.25L148.99,64.25L149.63,64.13L150.17,63.91L150.48,63.67"/><path d="M154.78,64.57L154.13,64.94"/></g><g style="stroke:#000000;stroke-width:0.529"><path d="M145.22,87.97L140.77,90.52L118.34,77.66L118.34,59.74L132.86,51.41L153.71,63.37"/><path d="M155.29,64.68L155.29,65.61"/></g></g><g id="Actor_3.3"><g style="stroke:#000000;stroke-width:0.176"><path d="M142.46,75.46L153.55,81.81L153.60,81.83L153.66,81.84L153.73,81.82L153.80,81.79L153.94,81.67L154.08,81.51L155.10,79.74L155.65,78.95L156.24,78.22L156.86,77.53L157.51,76.92L158.18,76.37L158.87,75.89L159.56,75.49L160.26,75.18L160.95,74.94L161.63,74.80L162.30,74.74L162.95,74.77L163.56,74.89L164.62,75.34L164.79,75.44"/><path d="M151.44,69.32L151.79,69.12L152.08,69.42L151.44,69.80L151.44,72.88L149.82,71.95L149.82,68.87L151.44,69.80L151.44,69.32L150.12,68.57L149.82,68.87"/><path d="M150.12,68.57L150.14,68.55L150.14,65.21L149.82,65.02"/><path d="M149.82,68.91L149.82,66.18"/><path d="M150.00,64.84L150.14,64.91L150.14,65.21"/><path d="M150.70,70.41L150.64,70.39L150.58,70.35L150.52,70.28L150.47,70.21L150.44,70.13L150.43,70.05L150.44,69.98L150.47,69.93L150.52,69.91L150.58,69.91L150.64,69.94L150.70,70.00L150.76,70.07L150.80,70.15L150.82,70.23L150.82,70.30L150.80,70.36L150.76,70.40L150.70,70.41"/><path d="M151.79,69.12L150.46,68.37L150.14,68.55"/><path d="M151.03,66.40L151.10,66.39L151.16,66.34L151.22,66.28L151.27,66.20L151.30,66.12L151.31,66.04L151.30,65.97L151.27,65.93L151.22,65.90L151.16,65.91L151.10,65.94L151.03,65.99L150.98,66.06L150.94,66.14L150.92,66.23L150.92,66.30L150.94,66.36L150.98,66.39L151.03,66.40"/><path d="M150.14,65.21L152.09,64.09"/><path d="M150.14,64.91L151.82,63.95"/><path d="M152.08,69.42L152.09,72.50L151.44,72.88"/><path d="M151.32,68.85L152.09,68.41L152.09,64.88"/><path d="M156.03,65.22L157.27,65.93L157.27,69.53L155.65,68.60L155.65,65.81"/><path d="M156.36,66.94L156.31,66.86L156.28,66.78L156.27,66.70L156.28,66.63L156.31,66.58L156.36,66.56L156.41,66.56L156.48,66.59L156.54,66.65L156.59,66.72L156.63,66.80L156.65,66.88L156.65,66.96L156.63,67.02L156.59,67.05L156.54,67.06L156.48,67.04L156.41,67.00L156.36,66.94"/><path d="M157.92,66.15L157.27,66.52L155.65,65.59"/><path d="M157.27,69.53L157.92,69.16L157.92,67.12"/><path d="M157.27,65.93L157.55,65.78"/><path d="M163.89,70.54L163.87,70.53"/></g><g style="stroke:#000000;stroke-width:0.529"><path d="M151.62,63.91L150.00,64.84L149.82,65.02L149.82,66.18L143.14,70.01L143.05,70.08L142.96,70.18L142.89,70.29L142.84,70.42L142.82,70.54L142.46,75.46L142.30,75.79L141.55,77.57L141.03,79.35L140.77,81.08L140.77,82.69L141.03,84.12L141.55,85.31L142.30,86.23L143.26,86.85L158.19,95.44L158.91,95.78L159.19,95.88L159.99,96.06L160.85,96.07L161.21,96.06L162.11,95.90L163.06,95.58"/><path d="M171.03,81.67L171.01,81.48L170.79,80.53L170.45,79.70L170.27,79.38L169.81,78.66L169.23,78.09L169.00,77.90L168.33,77.48L164.79,75.44L164.10,70.88L164.07,70.76L164.00,70.64L163.91,70.55L157.92,67.12L157.92,66.15L157.55,65.78L156.30,65.06L156.03,65.22L155.65,65.59L155.65,65.81L153.17,64.39L153.10,64.36L153.02,64.36L152.92,64.40L152.09,64.88L152.09,64.09L151.97,63.98"/></g></g><g id="Actor_3.4"><g style="stroke:#000000;stroke-width:0.176"><path d="M148.44,65.24L148.43,65.23L148.39,65.19L148.38,65.14L148.40,65.09L148.45,65.04L148.52,65.01L148.60,64.99L148.69,64.99L148.78,65.00L148.85,65.03L148.90,65.07L148.93,65.12L148.93,65.17L148.89,65.22L148.87,65.24"/></g><g style="stroke:#000000;stroke-width:0.529"><path d="M147.95,65.12L147.91,65.16L147.85,65.31L147.89,65.46L148.00,65.60L148.09,65.66L148.19,65.70L148.43,65.77L148.69,65.79L148.95,65.76L149.18,65.68L149.35,65.57L149.44,65.42L149.45,65.27L149.38,65.13L149.22,65.00L149.01,64.92L148.76,64.87L148.49,64.88L148.25,64.93L148.04,65.03L147.95,65.12"/><path d="M148.44,65.24L148.46,65.25L148.50,65.27L148.58,65.29L148.67,65.30L148.76,65.29L148.83,65.26L148.87,65.24L148.85,65.22L148.78,65.19L148.69,65.17L148.60,65.18L148.52,65.19L148.45,65.23L148.44,65.24"/></g></g><g id="Actor_3.5"><g style="stroke:#000000;stroke-width:0.176"><path d="M123.45,58.22L126.85,60.17L127.28,60.50L127.47,60.80L138.58,67.18L138.58,67.20L127.46,60.82L127.47,60.80"/><path d="M126.03,62.80L126.03,62.83L126.12,62.98L126.29,63.12L134.88,68.05L135.11,68.14L135.38,68.19L135.67,68.19L135.94,68.14L136.17,68.05L136.99,67.58L137.57,67.34L138.25,67.21L138.58,67.20"/><path d="M127.50,61.28L127.50,61.32L127.50,61.12"/><path d="M127.50,61.19L127.50,60.91L127.46,60.82"/><path d="M143.15,69.54L143.15,69.24L140.23,67.56L139.65,67.32L138.96,67.19L138.58,67.18"/><path d="M143.15,69.24L149.82,65.41"/><path d="M146.39,62.93L146.39,62.81"/><path d="M146.87,61.93L147.04,61.80L147.85,61.33L148.01,61.20L148.10,61.04L148.10,60.88"/></g><g style="stroke:#000000;stroke-width:0.529"><path d="M149.82,65.71L143.15,69.54L140.23,67.86L139.65,67.62L138.96,67.49L138.25,67.49L137.57,67.62L136.99,67.86L136.17,68.33L135.94,68.42L135.67,68.47L135.38,68.47L135.11,68.42L134.88,68.33L134.80,68.28L126.29,63.40L126.12,63.27L126.03,63.11L126.03,62.83L126.03,62.66L126.12,62.51L126.29,62.37L126.85,62.05L127.28,61.72L127.50,61.32L127.50,61.19L127.28,60.80L126.85,60.47L123.45,58.52L123.45,58.22L130.74,54.03L134.15,55.99L134.73,56.23L135.41,56.35L136.13,56.35L136.81,56.23L137.39,55.99L137.96,55.66L138.19,55.56L138.46,55.51L138.75,55.51L139.02,55.56L139.25,55.66L147.85,60.59L148.01,60.72L148.10,60.88L148.10,61.34L148.01,61.50L147.85,61.63L147.20,62.00"/><path d="M126.03,62.66L126.03,62.80"/><path d="M127.50,61.28L127.50,61.25"/><path d="M146.40,62.81L146.39,62.82"/><path d="M146.39,62.93L146.61,63.32L147.04,63.66L149.82,65.25"/></g></g><g id="Actor_.0"><g style="stroke:#000000;stroke-width:0.176"><path d="M92.89,132.07L135.03,156.25L135.03,203.94"/><path d="M96.41,178.66L95.91,177.79L95.59,176.88L95.48,176.00L95.59,175.25L95.91,174.70L96.41,174.41L97.05,174.40L97.75,174.67L98.45,175.20L99.08,175.94L99.58,176.81L99.91,177.73L100.02,178.60L99.91,179.35L99.58,179.90L99.08,180.19L98.45,180.20L97.75,179.93L97.05,179.40L96.41,178.66"/><path d="M121.55,174.61L121.41,174.72L120.15,175.24L118.74,175.43L117.21,175.29L115.61,174.81L113.96,174.02L112.31,172.92L110.70,171.55L109.17,169.94L107.76,168.13L106.51,166.17L105.43,164.10L104.57,161.97L103.94,159.84L103.55,157.75L103.42,155.77L103.55,153.93L103.94,152.29L104.57,150.88L105.43,149.75L106.51,148.91L106.69,148.83L105.76,149.56L104.89,150.70L104.26,152.11L103.88,153.75L103.75,155.58L103.88,157.57L104.26,159.65L104.89,161.78L105.76,163.91L106.83,165.98L108.09,167.95L109.50,169.76L111.03,171.37L112.63,172.74L114.28,173.83L115.93,174.63L117.54,175.10L119.07,175.24L120.48,175.05L121.55,174.61L122.48,173.88L123.35,172.74L123.98,171.33L124.37,169.69L124.49,167.85L124.37,165.87L123.98,163.79L123.35,161.65L122.48,159.53L121.41,157.45L120.15,155.49L118.74,153.68L117.21,152.07L115.61,150.70L113.96,149.60L112.31,148.81L110.70,148.33L109.17,148.19L107.76,148.38L106.69,148.83"/><path d="M107.40,162.05L106.89,160.50L106.54,158.77L106.42,157.12L106.54,155.60L106.89,154.27L107.47,153.17L108.26,152.32L109.23,151.75L110.35,151.48L111.59,151.52L112.92,151.87L114.28,152.52L115.65,153.44L116.21,153.93L116.56,155.57L117.16,157.31L117.97,159.02L118.96,160.64L120.11,162.12L121.36,163.40L121.89,163.82L122.03,164.48L122.14,166.13L122.03,167.65L121.67,168.98L121.09,170.08L120.31,170.93L119.34,171.50L118.21,171.77L116.97,171.73L115.65,171.38L114.28,170.73L112.88,169.78L111.59,168.64L110.35,167.26L109.23,165.70L108.26,164.03L107.47,162.27L107.40,162.05"/><path d="M122.12,165.79L122.03,166.89L121.70,168.12L121.17,169.15L120.44,169.94L119.54,170.46L118.50,170.71L117.34,170.67L116.12,170.35L114.85,169.75L113.58,168.90L112.88,168.28L112.35,167.81L111.20,166.53L110.16,165.08L109.26,163.53L108.53,161.90L108.06,160.45L108.00,160.26L107.67,158.65L107.56,157.12L107.67,155.71L108.00,154.48L108.53,153.45L108.66,153.31L109.26,152.66L110.16,152.14L111.21,151.89L112.35,151.93L113.58,152.25L114.60,152.73"/><path d="M116.76,155.31L116.81,155.53L117.39,157.23L118.19,158.91L119.16,160.49L120.28,161.93L121.51,163.19L121.81,163.43L121.67,162.75L121.09,160.98L120.31,159.23L119.34,157.55L118.21,155.99L116.97,154.61L116.53,154.22L116.76,155.31"/><path d="M116.53,154.22L116.21,153.93"/><path d="M121.89,163.82L121.81,163.43"/><path d="M128.07,188.12L128.33,188.88L128.83,189.75L129.47,190.48L130.17,191.01L130.87,191.29L131.51,191.27L132.00,190.98L132.33,190.44L132.44,189.69L132.33,188.81L132.02,187.92L131.51,187.03L130.87,186.29L130.17,185.76L129.47,185.48L128.85,185.49L128.33,185.79L128.01,186.33L127.90,187.08L128.01,187.96L128.07,188.12"/><path d="M135.03,156.25L159.50,142.21"/><path d="M156.61,165.73L156.43,165.81L155.52,165.93L154.82,165.77L154.39,165.46L153.94,164.72L153.70,163.75L153.70,162.62L153.94,161.39L154.39,160.13L155.04,158.91L155.84,157.80L156.76,156.88L157.73,156.19L158.70,155.77L159.61,155.64L160.31,155.80L160.74,156.12L161.19,156.86L161.30,157.33"/><path d="M154.82,165.77L155.04,165.94L155.84,166.12L156.76,166.00L156.82,165.97"/><path d="M160.31,155.80L160.41,155.83L161.06,156.30L161.52,157.04L161.63,157.51"/><path d="M172.15,134.95L177.18,132.07"/></g><g style="stroke:#000000;stroke-width:0.529"><path d="M104.23,125.56L92.89,132.07L92.89,179.77L135.03,203.94L177.18,179.77L177.18,132.07L169.07,127.42"/></g></g><g id="Actor_4.0"><g style="stroke:#000000;stroke-width:0.176"><path d="M154.35,162.41L154.35,161.94L154.60,160.82L155.07,159.69L155.74,158.65L156.53,157.77L157.30,157.20"/><path d="M159.74,157.03L159.23,157.24L158.37,157.68L157.60,158.18L156.79,158.82L156.16,159.97L155.71,161.00L155.34,162.08L155.02,163.41L155.34,164.01L155.71,164.57L155.93,164.87"/><path d="M155.02,163.41L156.57,164.30L157.21,165.09L157.37,165.62L157.87,166.23L158.69,166.70"/><path d="M156.57,164.30L157.20,163.14L157.26,163.01L157.37,162.50L157.87,161.31L157.98,161.14L158.02,161.04L158.34,159.71L159.49,159.23L159.41,159.29L158.57,160.21L157.98,161.14"/><path d="M157.21,165.09L157.11,164.74L157.11,163.67L157.26,163.01"/><path d="M156.79,158.82L158.34,159.71"/><path d="M158.08,166.35L158.34,166.84"/><path d="M159.49,159.23L160.32,158.61L161.11,158.29L161.90,157.67"/><path d="M161.11,158.29L161.23,158.24L162.07,158.20L162.38,158.26"/><path d="M164.70,159.61L163.09,158.69L162.39,158.39L165.38,158.89L165.62,159.00"/><path d="M170.06,162.69L169.37,162.39L168.53,162.43L167.61,162.80L166.70,163.47L166.58,163.60L165.86,164.40L165.16,165.50L164.67,166.68L164.41,167.86L164.41,168.93L164.67,169.80L165.16,170.42"/><path d="M165.70,160.18L165.40,160.01L165.41,159.98L165.42,159.76L165.38,159.58L165.28,159.45L165.13,159.40L165.06,159.42"/><path d="M165.40,160.01L165.08,159.83"/><path d="M168.26,169.93L167.53,170.23L166.86,170.26L166.30,170.02L165.90,169.53L165.70,168.82L165.70,167.97L165.90,167.03L166.23,166.25L166.30,166.08L166.86,165.20L167.53,164.46L167.68,164.35L168.26,163.92L168.99,163.62L169.67,163.59L170.22,163.83L170.62,164.32L170.64,164.36L168.41,165.35L167.97,165.63L167.57,166.05L167.25,166.57L167.04,167.13L166.97,167.67L167.04,168.12L167.25,168.44L167.41,168.54L167.20,168.22L167.13,167.76L167.20,167.22L167.41,166.66L167.73,166.14L168.14,165.72L168.57,165.44L171.45,164.16L171.75,164.09L172.01,164.14"/><path d="M167.41,168.54L167.73,168.69L168.14,168.65L168.57,168.43L170.52,167.05"/><path d="M167.68,167.80L167.65,167.75L167.64,167.69L167.61,167.48L167.63,167.28L167.70,167.01L167.73,166.93L167.86,166.67L167.91,166.59L168.09,166.36L168.15,166.30L168.35,166.13L168.41,166.09L168.62,165.99L168.68,165.98L168.87,165.98L168.92,165.99L169.07,166.08L169.11,166.12L169.18,166.21L169.29,166.38L169.36,166.57L169.41,166.98L169.37,167.21L169.26,167.48L169.13,167.67L168.89,167.89L168.67,167.98L168.37,168.08L167.98,168.06L167.93,168.04L167.78,167.96L167.74,167.92L167.68,167.80"/><path d="M170.83,165.89L170.79,165.82L170.78,165.61L170.82,165.38L170.83,165.36"/><path d="M171.64,164.62L171.76,164.66L171.86,164.78L171.91,164.97L171.89,165.19L171.82,165.43L171.69,165.66L171.53,165.86L171.34,166.00L171.16,166.07L170.99,166.06L170.87,165.98L170.87,165.97"/><path d="M170.64,164.36L170.82,164.28"/></g><g style="stroke:#000000;stroke-width:0.529"><path d="M157.30,157.20L157.40,157.13L158.27,156.77L159.07,156.74L159.74,157.03L160.35,156.78L161.90,157.67L162.38,158.26L165.06,158.70L165.30,158.82L165.62,159.00L165.78,159.24L165.83,159.58L165.78,159.98L165.70,160.18L170.06,162.69L170.56,163.30L170.82,164.18L170.82,164.28L171.29,164.07L171.59,163.99L171.85,164.05L172.01,164.14L172.20,164.32L172.30,164.61L172.30,164.98L172.20,165.38L172.01,165.78L171.75,166.13L171.45,166.40L170.52,167.05L170.22,167.77L169.67,168.65L168.99,169.39L168.26,169.93L167.61,170.31L166.70,170.68L165.86,170.72L165.16,170.42L158.69,166.70L158.34,166.84L156.79,165.95L156.16,165.18L155.93,164.87L155.07,164.37L154.60,163.78L154.35,162.95L154.35,162.41"/><path d="M165.08,159.80L165.08,159.83L164.70,159.61L164.77,159.54L164.95,159.44L165.06,159.42L165.10,159.57L165.08,159.80"/><path d="M170.83,165.36L170.83,165.89L170.87,165.97L171.00,165.98L171.18,165.91L171.36,165.77L171.53,165.57L171.66,165.34L171.73,165.10L171.75,164.87L171.70,164.69L171.64,164.62L171.61,164.61L171.44,164.64L171.25,164.75L171.07,164.92L170.93,165.14L170.83,165.36"/></g></g><g id="Actor_.1"><g style="stroke:#000000;stroke-width:0.176"><path d="M147.52,41.20L147.52,33.91L147.52,34.04"/><path d="M147.52,33.91L147.52,28.28"/><path d="M147.52,28.44L147.52,23.67L147.76,23.77L148.34,23.88L148.47,23.88L148.95,23.88L149.53,23.77L149.78,23.67L149.78,39.43"/><path d="M148.37,21.25L148.17,21.37L147.90,21.33L147.63,20.74L148.37,20.31L148.37,21.25L149.13,21.36L149.40,21.21L149.40,20.47L149.67,21.05L149.40,21.21"/><path d="M148.23,21.37L148.50,21.32L148.79,21.32L148.89,21.33L149.06,21.37L149.10,21.38L148.92,21.48L148.24,21.38L148.23,21.37L148.21,21.37L148.17,21.37"/><path d="M148.21,21.37L148.24,21.38"/><path d="M148.37,20.31L149.40,20.47"/><path d="M149.78,39.37L149.78,41.20"/><path d="M149.78,32.81L149.78,32.19"/><path d="M149.10,21.38L149.13,21.36"/></g><g style="stroke:#000000;stroke-width:0.529"><path d="M147.52,41.13L147.52,23.67L147.27,23.56L146.91,23.28L146.72,22.95L146.70,21.29L146.74,20.98L146.76,20.88L147.00,20.51L147.32,20.27L147.38,20.23L147.79,20.06L148.27,19.95L148.78,19.93L149.27,20.00L149.72,20.14L150.15,20.38L150.40,20.65L150.46,20.73L150.57,21.04L150.59,21.14L150.57,22.95L150.38,23.28L150.03,23.56L149.78,23.67L149.78,41.10"/><path d="M147.52,41.20L147.74,41.64L147.83,41.79L148.00,41.93L148.23,42.02L148.50,42.07L148.79,42.07L149.05,42.03L149.07,42.02L149.30,41.93L149.47,41.79L149.56,41.64L149.78,41.20"/><path d="M147.52,27.34L147.52,28.28"/><path d="M149.78,40.47L149.78,39.43"/></g></g><g id="Actor_2.1"><g style="stroke:#000000;stroke-width:0.176"><path d="M104.23,112.36L136.65,130.96L169.07,112.36"/><path d="M108.06,112.66L108.10,112.98L108.52,113.77L109.27,114.47L110.28,115.05L111.51,115.48L112.88,115.73L114.32,115.78L115.73,115.63L117.04,115.29L118.17,114.78L119.06,114.13L119.65,113.38L119.91,112.57L119.82,111.75L119.39,110.96L118.65,110.25L118.36,110.09L117.63,109.67L116.40,109.25L115.03,109.00L113.60,108.95L112.19,109.10L110.87,109.44L109.74,109.95L108.86,110.59L108.27,111.35L108.01,112.16L108.06,112.66"/><path d="M119.00,125.19L119.10,124.28L119.45,123.42L119.94,122.87L119.68,122.99L119.12,123.60L118.78,124.46L118.66,125.52L118.69,125.83"/><path d="M119.94,122.87L120.41,122.66L121.27,122.63L122.22,122.90L123.20,123.46L124.15,124.28L125.01,125.30L125.75,126.47L126.30,127.72L126.65,128.98L126.76,130.17L126.65,131.23L126.30,132.08L125.81,132.63L125.34,132.84L124.47,132.87L123.52,132.60L123.16,132.39"/><path d="M125.81,132.63L125.75,132.70L125.01,133.03L124.15,133.06L123.20,132.79L122.39,132.32"/><path d="M124.09,111.95L124.09,111.75L124.20,111.55L124.41,111.39L124.70,111.27L125.05,111.20L125.40,111.20L125.75,111.27L126.03,111.39L126.25,111.55L126.36,111.75L126.36,111.95L126.25,112.15L126.03,112.32L125.75,112.44L125.40,112.50L125.05,112.50L124.71,112.44L124.58,112.38L124.41,112.32L124.20,112.15L124.09,111.95"/><path d="M124.50,112.35L124.41,112.28L124.32,112.12L124.32,111.96L124.41,111.80L124.58,111.67L124.81,111.57L125.08,111.52L125.37,111.52L125.64,111.57L125.87,111.67L126.04,111.80L126.13,111.96L126.13,112.13L126.04,112.28L125.95,112.35"/><path d="M126.13,112.13L126.13,111.96"/><path d="M131.51,127.06L131.22,126.78L130.79,126.00L130.70,125.17L130.96,124.36L131.55,123.61L132.44,122.96L133.57,122.45L134.88,122.12L136.29,121.97L137.73,122.02L139.10,122.26L140.33,122.69L141.35,123.27L142.09,123.98L142.52,124.76L142.60,125.59L142.34,126.40L141.75,127.15L140.87,127.80L139.74,128.31L138.43,128.64L137.01,128.79L135.58,128.74L134.21,128.50L132.98,128.07L131.96,127.49L131.51,127.06"/><path d="M131.15,100.63L131.22,100.75L131.96,101.45L132.98,102.04L134.21,102.46L135.58,102.71L137.01,102.76L138.43,102.61L139.74,102.27L140.87,101.76L141.75,101.11L142.34,100.36L142.60,99.55L142.52,98.73L142.09,97.94L141.34,97.24L140.33,96.65L139.10,96.23L137.73,95.98L136.29,95.93L134.88,96.08L133.57,96.42L132.44,96.93L131.55,97.58L130.96,98.33L130.70,99.14L130.79,99.96L131.15,100.63"/><path d="M132.26,114.88L132.63,115.03L133.06,115.11L133.51,115.12L133.94,115.03L134.30,114.88L134.57,114.67L134.71,114.43L134.71,114.17L134.57,113.92L134.30,113.71L133.94,113.56L133.51,113.48L133.05,113.48L132.63,113.56L132.26,113.71L132.21,113.75L131.99,113.92L131.85,114.17L131.85,114.43L131.95,114.59L131.99,114.67L132.26,114.88"/><path d="M132.49,110.47L132.41,110.62L132.41,110.87L132.55,111.12L132.81,111.33L133.18,111.48L133.61,111.56L134.06,111.56L134.49,111.48L134.85,111.33L135.12,111.12L135.26,110.87L135.26,110.62L135.12,110.37L134.85,110.16L134.49,110.01L134.06,109.93L133.61,109.93L133.18,110.01L132.81,110.16L132.55,110.37L132.49,110.47"/><path d="M132.41,110.62L132.41,110.87"/><path d="M134.73,106.09L134.95,106.27L135.04,106.31L134.94,106.23L134.86,106.08L134.86,105.91L134.94,105.76L135.11,105.62L135.34,105.53L135.62,105.48L135.90,105.48L136.18,105.53L136.41,105.62L136.58,105.76L136.67,105.91L136.66,106.08L136.58,106.23L136.48,106.31L136.57,106.27L136.78,106.11L136.89,105.91L136.89,105.71L136.78,105.51L136.57,105.34L136.28,105.22L135.94,105.16L135.58,105.16L135.24,105.22L134.95,105.34L134.74,105.51L134.63,105.70L134.63,105.91L134.73,106.09"/><path d="M135.04,106.31L135.24,106.39L135.58,106.46L135.94,106.46L136.28,106.39L136.48,106.31"/><path d="M134.86,106.08L134.86,105.93"/><path d="M136.65,149.74L136.65,130.96"/><path d="M136.67,105.91L136.66,106.08"/><path d="M137.69,119.63L137.58,119.54L137.47,119.35L137.47,119.14L137.58,118.94L137.79,118.78L138.08,118.66L138.42,118.59L138.78,118.59L139.12,118.66L139.41,118.78L139.62,118.94L139.73,119.14L139.73,119.35L139.62,119.54L139.41,119.71L139.32,119.75L139.42,119.67L139.50,119.52L139.50,119.35L139.42,119.19L139.25,119.06L139.01,118.96L138.74,118.91L138.45,118.91L138.18,118.96L137.95,119.06L137.78,119.19L137.69,119.35L137.69,119.51L137.78,119.67L137.88,119.75L137.79,119.71L137.69,119.63"/><path d="M137.88,119.75L138.08,119.83L138.42,119.89L138.78,119.89L139.12,119.83L139.32,119.75"/><path d="M137.69,119.51L137.69,119.35"/><path d="M138.09,113.85L138.08,113.87L138.08,114.13L138.22,114.38L138.48,114.59L138.85,114.74L139.28,114.82L139.73,114.82L140.16,114.74L140.28,114.69L140.53,114.58L140.79,114.38L140.93,114.13L140.93,113.87L140.79,113.62L140.53,113.41L140.16,113.26L139.73,113.18L139.28,113.18L138.85,113.26L138.48,113.41L138.22,113.62L138.09,113.85"/><path d="M138.69,110.73L138.60,110.56L138.60,110.30L138.74,110.05L139.00,109.84L139.37,109.69L139.80,109.61L140.25,109.61L140.68,109.69L141.05,109.84L141.31,110.05L141.45,110.30L141.45,110.56L141.31,110.81L141.05,111.01L140.68,111.17L140.25,111.25L139.80,111.25L139.37,111.17L139.00,111.01L138.74,110.80L138.69,110.73"/><path d="M139.50,119.52L139.50,119.37"/><path d="M147.84,113.94L147.63,113.78L147.52,113.58L147.52,113.38L147.63,113.18L147.84,113.01L148.13,112.89L148.47,112.83L148.83,112.83L149.17,112.89L149.46,113.01L149.67,113.18L149.78,113.38L149.78,113.58L149.67,113.78L149.46,113.94L149.37,113.98L149.47,113.91L149.55,113.75L149.55,113.58L149.47,113.43L149.30,113.29L149.06,113.20L148.79,113.15L148.50,113.15L148.23,113.20L148.00,113.29L147.83,113.43L147.74,113.58L147.74,113.75L147.83,113.90L147.93,113.98L147.84,113.94"/><path d="M147.74,113.75L147.74,113.65"/><path d="M147.93,113.98L148.13,114.06L148.50,114.13L148.83,114.13L149.17,114.06L149.37,113.98"/><path d="M149.63,134.82L149.46,134.60L149.58,134.93L150.14,135.65L150.89,136.09L151.54,136.19"/><path d="M149.87,135.13L149.96,135.24L150.28,135.43"/><path d="M149.46,134.60L149.23,133.98L149.11,132.83L149.23,131.54L149.58,130.18L150.14,128.82L150.89,127.53L151.79,126.36L152.78,125.38L153.84,124.64L154.89,124.17L155.52,124.07L155.55,124.07"/><path d="M149.55,113.75L149.55,113.58"/><path d="M153.43,112.05L153.40,112.16L153.48,112.98L153.91,113.77L154.66,114.47L155.67,115.05L156.90,115.48L158.27,115.73L159.71,115.78L161.12,115.63L162.43,115.29L163.56,114.78L164.45,114.13L165.04,113.38L165.30,112.57L165.21,111.75L164.78,110.96L164.04,110.25L163.02,109.67L161.79,109.25L160.42,109.00L158.99,108.95L157.57,109.10L156.26,109.44L155.13,109.95L154.25,110.59L153.66,111.35L153.43,112.05"/><path d="M155.52,124.07L155.89,124.01L156.78,124.15L157.53,124.58L157.87,125.02"/><path d="M156.43,124.25L156.34,124.20L155.90,124.13"/></g><g style="stroke:#000000;stroke-width:0.529"><path d="M169.07,130.15L169.07,112.36L136.65,93.77L104.23,112.36L104.23,131.14L136.65,149.74L154.35,139.59"/></g></g><g id="Actor_2.2"><g style="stroke:#000000;stroke-width:0.176"><path d="M157.85,125.03L157.49,125.18L155.05,126.58L154.80,126.77L154.56,126.97L154.20,127.35L153.37,128.39L153.06,128.84L152.86,129.18L152.67,129.53L151.44,132.69L151.34,133.09L151.25,133.50L151.20,133.97L151.20,134.53L151.20,135.09L151.25,135.51L151.34,135.69L151.44,135.87L151.75,136.31"/></g><g style="stroke:#000000;stroke-width:0.529"><path d="M152.23,137.00L151.75,136.31L150.54,135.61"/><path d="M156.56,124.29L157.85,125.03L158.17,124.90L158.53,124.87L159.37,124.95L159.68,125.04L159.74,125.08"/></g></g><g id="Actor_2.3"><g style="stroke:#000000;stroke-width:0.176"><path d="M157.26,114.51L157.45,114.40L157.82,114.13L158.39,113.64L158.39,110.87L155.77,112.38L156.73,114.43L160.31,114.98L162.09,113.96L162.93,113.48L161.97,111.42L161.97,114.03"/><path d="M161.64,114.21L161.41,114.23L160.84,114.22L159.85,114.09L159.32,113.96L158.80,113.80L158.39,113.64"/><path d="M158.39,110.87L161.97,111.42"/></g><g style="stroke:#000000;stroke-width:0.529"><path d="M153.86,113.67L153.86,113.62L153.91,113.34L154.06,112.79L154.39,112.26L154.53,112.04L155.00,111.57L155.61,111.15L155.78,111.05L156.47,110.72L157.26,110.46L158.11,110.29L159.01,110.21L159.91,110.22L160.80,110.32L161.64,110.52L162.41,110.79L163.07,111.14L163.25,111.25L163.83,111.68L164.26,112.17L164.40,112.39L164.68,112.92L164.83,113.65"/></g></g><g id="Actor_2.4"><g style="stroke:#000000;stroke-width:0.176"><path d="M139.27,124.44L140.23,126.49L137.61,128.00L134.03,127.45L133.07,125.39L135.69,123.89L139.27,124.44L139.27,127.04"/><path d="M138.95,127.23L138.71,127.24L138.14,127.24L137.16,127.11L136.63,126.98L136.10,126.81L135.69,126.66L135.12,127.14L134.75,127.41L134.57,127.53"/><path d="M135.69,123.89L135.69,126.66"/></g><g style="stroke:#000000;stroke-width:0.529"><path d="M142.13,126.67L141.99,125.94L141.71,125.40L141.56,125.18L141.13,124.70L140.56,124.27L140.38,124.16L139.71,123.81L138.94,123.54L138.10,123.34L137.22,123.24L136.31,123.23L135.42,123.31L134.57,123.48L133.78,123.74L133.08,124.07L132.91,124.17L132.30,124.59L131.83,125.06L131.69,125.27L131.37,125.80L131.22,126.36L131.16,126.63L131.16,126.68"/></g></g><g id="Actor_2.5"><g style="stroke:#000000;stroke-width:0.176"><path d="M139.27,98.41L140.23,100.46L137.61,101.96L134.03,101.41L133.07,99.36L135.69,97.86L139.27,98.41L139.27,101.01"/><path d="M134.57,101.49L134.75,101.38L135.12,101.11L135.69,100.63L135.69,97.86"/><path d="M135.69,100.63L136.10,100.78L136.63,100.95L137.16,101.08L138.14,101.20L138.71,101.21L138.95,101.20"/></g><g style="stroke:#000000;stroke-width:0.529"><path d="M142.13,100.63L141.99,99.91L141.71,99.37L141.56,99.15L141.13,98.67L140.56,98.23L140.38,98.13L139.71,97.78L138.94,97.50L138.10,97.31L137.22,97.20L136.31,97.19L135.42,97.27L134.57,97.44L133.78,97.70L133.08,98.03L132.91,98.13L132.30,98.55L131.83,99.03L131.69,99.24L131.37,99.77L131.22,100.32L131.16,100.60L131.16,100.65"/></g></g><g id="Actor_2.6"><g style="stroke:#000000;stroke-width:0.176"><path d="M111.88,114.51L112.06,114.40L112.43,114.13L113.00,113.64L113.00,110.87L110.38,112.38L111.34,114.43L114.92,114.98L116.70,113.96L117.54,113.48L116.58,111.42L116.58,114.03"/><path d="M116.25,114.21L116.02,114.23L115.45,114.22L114.46,114.09L113.93,113.96L113.41,113.80L113.00,113.64"/><path d="M113.00,110.87L116.58,111.42"/></g><g style="stroke:#000000;stroke-width:0.529"><path d="M119.44,113.65L119.30,112.92L119.01,112.39L118.87,112.17L118.44,111.68L117.86,111.25L117.68,111.14L117.02,110.79L116.25,110.52L115.41,110.32L114.52,110.22L113.62,110.21L112.72,110.29L111.87,110.46L111.08,110.72L110.39,111.05L110.22,111.15L109.61,111.57L109.14,112.04L109.00,112.26L108.68,112.79L108.52,113.34L108.47,113.62L108.47,113.67"/></g></g><g id="Actor_2.7"><g style="stroke:#000000;stroke-width:0.176"/><g style="stroke:#000000;stroke-width:0.529"><path d="M171.37,138.53L171.63,137.87L171.92,136.88L172.10,135.92L172.15,135.00L172.16,134.76L172.09,133.88L171.90,133.09L171.46,132.11L171.03,131.55L170.79,131.32L170.24,130.90L161.94,125.53L161.06,125.12L160.03,125.02L158.91,125.24L157.73,125.78L156.55,126.60L155.42,127.67L154.39,128.94L153.51,130.37L152.81,131.88L152.33,133.41L152.08,134.90L152.08,135.53L152.08,136.27L152.33,137.47L152.81,138.45L153.51,139.16L162.80,143.88L163.43,144.14L163.76,144.23L164.46,144.32L165.52,144.21L166.30,143.98L167.10,143.59L167.30,143.46L168.06,142.95L168.81,142.31L169.51,141.56L169.99,140.94"/></g></g><g id="Actor_.2"><g style="stroke:#000000;stroke-width:0.176"><path d="M134.63,33.53L134.63,16.00L134.88,16.10L135.46,16.21L135.94,16.21L136.07,16.21L136.65,16.10L136.89,16.00L136.89,26.37"/><path d="M136.51,12.80L135.49,12.64L134.74,13.07L135.01,13.65L135.28,13.70L135.49,13.58L136.24,13.69L136.51,13.54L136.51,12.80L136.78,13.38L136.51,13.54"/><path d="M135.34,13.70L135.62,13.64L135.90,13.64L136.00,13.66L136.18,13.70L136.21,13.71L136.04,13.81L135.35,13.71L135.34,13.70L135.33,13.70L135.28,13.70"/><path d="M135.49,13.58L135.49,12.64"/><path d="M135.33,13.70L135.35,13.71"/><path d="M136.89,29.07L136.89,33.53"/><path d="M136.24,13.69L136.21,13.71"/></g><g style="stroke:#000000;stroke-width:0.529"><path d="M134.63,22.58L134.63,33.42"/><path d="M134.63,33.53L134.85,33.96L134.94,34.12L135.11,34.26L135.34,34.35L135.62,34.40L135.90,34.40L136.18,34.35L136.41,34.26L136.58,34.12L136.67,33.96L136.89,33.53"/><path d="M136.89,16.00L137.14,15.89L137.50,15.61L137.69,15.28L137.70,13.46L137.69,13.37L137.57,13.06L137.52,12.98L137.26,12.71L136.83,12.47L136.39,12.33L135.89,12.26L135.38,12.28L134.90,12.39L134.50,12.56L134.44,12.60L134.12,12.84L133.88,13.21L133.86,13.31L133.82,13.62L133.84,15.28L134.03,15.61L134.38,15.89L134.63,16.00"/></g></g><g id="Actor_.3"><g style="stroke:#000000;stroke-width:0.176"><path d="M124.09,39.58L124.09,31.16"/><path d="M124.09,31.00L124.09,31.53"/><path d="M126.36,22.04L126.11,22.14L125.53,22.25L125.41,22.25L124.92,22.25L124.34,22.14L124.09,22.04"/><path d="M124.81,19.74L124.79,19.75L124.74,19.74L124.95,19.62L125.70,19.74L125.68,19.75L125.64,19.74L125.46,19.70L125.37,19.69L125.08,19.69L124.81,19.74L124.81,19.75L124.79,19.75"/><path d="M124.74,19.74L124.48,19.70L124.20,19.11L124.95,18.68L125.97,18.84L126.25,19.43L125.97,19.58L125.97,18.84"/><path d="M124.81,19.75L125.50,19.86L125.68,19.75"/><path d="M125.70,19.74L125.97,19.58"/><path d="M124.95,18.68L124.95,19.62"/><path d="M126.36,39.58L126.36,37.19L126.36,37.91"/><path d="M126.36,37.19L126.36,36.64"/></g><g style="stroke:#000000;stroke-width:0.529"><path d="M124.09,31.16L124.09,22.04L123.85,21.94L123.49,21.65L123.30,21.32L123.28,19.67L123.32,19.35L123.34,19.25L123.58,18.89L123.90,18.64L123.96,18.60L124.37,18.43L124.84,18.33L125.35,18.31L125.85,18.37L126.30,18.51L126.72,18.76L126.98,19.02L127.03,19.10L127.15,19.41L127.17,19.51L127.15,21.32L126.96,21.65L126.60,21.94L126.36,22.04L126.36,37.91"/><path d="M124.09,39.58L124.31,40.01L124.40,40.17L124.57,40.30L124.81,40.40L125.08,40.45L125.37,40.45L125.64,40.40L125.88,40.30L126.05,40.17L126.13,40.01L126.36,39.58"/><path d="M124.09,31.34L124.09,30.62L124.09,31.00"/><path d="M126.36,36.64L126.36,36.09"/></g></g><g id="Actor_.4"><g style="stroke:#000000;stroke-width:0.176"><path d="M137.47,46.97L137.47,29.43L137.71,29.53L138.29,29.64L138.42,29.64L138.90,29.64L139.48,29.53L139.73,29.43L139.73,46.97"/><path d="M138.32,27.01L138.32,26.07L137.58,26.50L137.85,27.09L138.12,27.13L138.32,27.01L138.84,27.09L139.01,27.13L139.05,27.15L138.87,27.25L138.19,27.14L138.18,27.13L138.45,27.08L138.74,27.08L139.08,27.13L139.05,27.15"/><path d="M138.18,27.13L138.16,27.14L138.19,27.14"/><path d="M138.16,27.14L138.12,27.13"/><path d="M139.08,27.13L139.62,26.82L139.35,26.23L138.32,26.07"/><path d="M139.35,26.97L139.35,26.23"/></g><g style="stroke:#000000;stroke-width:0.529"><path d="M139.73,29.43L139.98,29.33L140.33,29.05L140.52,28.71L140.54,26.90L140.52,26.80L140.41,26.49L140.35,26.42L140.10,26.15L139.67,25.90L139.22,25.76L138.73,25.70L138.22,25.72L137.74,25.82L137.33,26.00L137.27,26.03L136.95,26.28L136.71,26.65L136.69,26.74L136.65,27.06L136.67,28.71L136.86,29.05L137.22,29.33L137.47,29.43"/><path d="M137.47,46.97L137.69,47.40L137.78,47.56L137.95,47.69L138.18,47.79L138.45,47.84L138.74,47.84L139.02,47.79L139.25,47.69L139.42,47.56L139.51,47.40L139.73,46.97"/><path d="M137.47,36.02L137.47,46.86"/></g></g><g id="Actor_2.8"><g style="stroke:#000000;stroke-width:0.176"><path d="M134.39,110.47L134.47,110.71L134.53,110.83L134.60,110.91L134.60,110.91L134.45,111.06L134.39,111.10L134.39,110.47L134.38,110.47L134.12,110.51L133.90,110.47L133.63,110.35L133.63,111.21"/><path d="M133.63,110.35L133.48,110.50L133.35,110.60L133.21,110.66L133.07,110.67L133.07,110.69L133.14,110.91L133.20,111.04L133.26,111.10L133.23,111.09L133.06,110.95L132.98,110.79L133.01,110.62L133.13,110.47L133.23,110.40L133.35,110.34L133.62,110.27L133.91,110.26L134.19,110.30L134.43,110.40L134.60,110.54L134.68,110.70L134.66,110.87L134.54,111.02L134.43,111.09L134.37,111.12L134.39,111.10"/><path d="M133.02,110.28L132.81,110.45L132.70,110.64L132.70,110.85L132.81,111.04L133.02,111.21L133.31,111.33L133.65,111.40L134.01,111.40L134.35,111.33L134.65,111.21L134.86,111.04L134.97,110.85L134.97,110.64L134.86,110.45L134.65,110.28"/><path d="M133.26,111.10L133.47,111.19L133.75,111.23L134.04,111.22L134.31,111.15L134.37,111.12"/></g><g style="stroke:#000000;stroke-width:0.529"><path d="M132.43,110.92L132.43,110.84L132.57,110.59L132.83,110.39L133.02,110.28L133.31,110.16L133.65,110.09L134.01,110.09L134.35,110.16L134.65,110.28L134.83,110.39L135.09,110.59L135.23,110.84L135.23,110.92"/></g></g><g id="Actor_2.9"><g style="stroke:#000000;stroke-width:0.176"><path d="M167.31,137.26L167.76,137.25L168.26,137.44L168.76,137.82L169.22,138.35L169.57,138.97L169.80,139.63L169.88,140.25L169.80,140.79L169.62,141.09L169.57,141.18L169.22,141.39"/></g><g style="stroke:#000000;stroke-width:0.529"><path d="M167.14,140.00L167.31,140.29L167.76,140.82L168.26,141.20L168.76,141.39L169.22,141.39L170.84,140.46L171.20,140.25L171.43,139.86L171.50,139.32L171.43,138.70L171.20,138.04L170.84,137.42L170.38,136.89L170.15,136.72L169.88,136.51L169.38,136.32L168.93,136.33L167.31,137.26L166.95,137.47L166.72,137.86L166.64,138.39L166.72,139.02L166.95,139.67L167.14,140.00"/></g></g><g><g><path style="stroke:#000000;stroke-width:0.044;stroke-dasharray:1.4 0.9 0.5 0.9" d="M135.76,87.65L135.76,106.46"/><path style="stroke:#000000;stroke-width:0.044;stroke-dasharray:1.4 0.9 0.5 0.9" d="M135.76,56.35L135.76,34.40"/></g></g><g><g><path style="stroke:#000000;stroke-width:0.044;stroke-dasharray:1.4 0.9 0.5 0.9" d="M125.22,81.61L125.22,112.50"/><path style="stroke:#000000;stroke-width:0.044;stroke-dasharray:1.4 0.9 0.5 0.9" d="M125.22,40.45L125.22,62.63"/></g></g><g><g><path style="stroke:#000000;stroke-width:0.044;stroke-dasharray:1.4 0.9 0.5 0.9" d="M148.65,89.95L148.65,114.13"/><path style="stroke:#000000;stroke-width:0.044;stroke-dasharray:1.4 0.9 0.5 0.9" d="M148.65,64.25L148.65,63.28"/><path style="stroke:#000000;stroke-width:0.044;stroke-dasharray:1.4 0.9 0.5 0.9" d="M148.65,42.07L148.65,62.30"/></g></g><g><g><path style="stroke:#000000;stroke-width:0.044;stroke-dasharray:1.4 0.9 0.5 0.9" d="M138.60,89.28L138.60,119.89"/><path style="stroke:#000000;stroke-width:0.044;stroke-dasharray:1.4 0.9 0.5 0.9" d="M138.60,47.84L138.60,70.02"/></g></g><g><g/><g><text xml:space="preserve" fill="#000000" stroke-width="0" x="4.35" y="8.23" font-size="3.93" opacity="1.00" font-family="Arial" font-weight="bold">HVTR0673</text></g></g><g id="PMI3.0"><g><path style="stroke:#000000;stroke-width:0.044" d="M191.23,71.76L142.54,61.51"/></g><g><path style="fill:#000000" d="M143.29,61.51L143.29,61.43L143.28,61.36L143.26,61.29L143.24,61.22L143.20,61.15L143.17,61.09L143.12,61.03L143.07,60.98L143.02,60.93L142.96,60.88L142.90,60.85L142.83,60.81L142.76,60.79L142.69,60.77L142.62,60.76L142.54,60.76L142.47,60.76L142.40,60.77L142.32,60.79L142.26,60.81L142.19,60.85L142.13,60.88L142.07,60.93L142.01,60.98L141.96,61.03L141.92,61.09L141.88,61.15L141.85,61.22L141.82,61.29L141.81,61.36L141.80,61.43L141.79,61.51L141.80,61.58L141.81,61.65L141.82,61.73L141.85,61.79L141.88,61.86L141.92,61.92L141.96,61.98L142.01,62.04L142.07,62.09L142.13,62.13L142.19,62.17L142.26,62.20L142.32,62.23L142.40,62.24L142.47,62.25L142.54,62.26L142.62,62.25L142.69,62.24L142.76,62.23L142.83,62.20L142.90,62.17L142.96,62.13L143.02,62.09L143.07,62.04L143.12,61.98L143.17,61.92L143.20,61.86L143.24,61.79L143.26,61.73L143.28,61.65L143.29,61.58z"/></g><g><text xml:space="preserve" fill="#000000" stroke-width="0" x="192.01" y="75.25" font-size="3.45" opacity="1.00" font-family="Arial">HVTR0675</text></g></g><g/><g><g/><g><path style="fill:#ffffff" d="M187.03,76.58L192.14,76.58L192.14,83.35L187.03,83.35z"/><text xml:space="preserve" fill="#000000" stroke-width="0" x="187.88" y="81.24" font-size="3.86" opacity="1.00" font-family="Wingdings"></text></g></g><g><g/><g><path style="fill:#ffffff" d="M191.30,76.52L211.63,76.52L211.63,82.73L191.30,82.73z"/><text xml:space="preserve" fill="#000000" stroke-width="0" x="192.08" y="80.79" font-size="3.45" opacity="1.00" font-family="Arial">HVTR0462</text></g></g><g id="paperID" visibility="hidden" opacity="0.00" transform="scale(0.000100)"><path style="stroke:#000000;stroke-width:0.500;fill:#e6e6e6;fill-rule:evenodd" d="M-2000.00,-2000.00L2297.00,-2000.00L2297.00,2210.00L-2000.00,2210.00zM0.00,0.00L297.00,0.00L297.00,210.00L0.00,210.00z"/><path style="fill:#000000;fill-opacity:0.118" d="M3.00,210.00L297.00,210.00L297.00,3.00L300.00,3.00L300.00,213.00L3.00,213.00z"/></g></g></svg>
