<?xml version="1.0" encoding="UTF-8" standalone="no"?>
<svg xmlns="http://www.w3.org/2000/svg" xmlns:xlink="http://www.w3.org/1999/xlink" width="297.000mm" height="210.000mm" viewBox="0.000000 0.000000 297.000000 210.000000" stroke-linejoin="round" stroke-linecap="round" fill="none" fill-rule="evenodd"><desc>Composer Export</desc><script type="text/ecmascript"><![CDATA[
if(typeof(top) != "undefined")
{
	top.ShowPaper = ShowPaper;
}
function ShowPaper()
{
  var svgDocument = getDocument();
  var paper = svgDocument.getElementById("paperID");
  if(paper)
  {
    paper.setAttribute("transform","scale(1)");
    paper.setAttribute("opacity","1");
    paper.setAttribute("visibility","visible");
  }
  var svg = svgDocument.getRootElement();
  if(svg)
  {
    svg.setAttribute("width","307.000mm");
    svg.setAttribute("height","220.000mm");
    svg.setAttribute("viewBox","-5.000000 -5.000000 307.000000 220.000000");
  }
}
]]></script><defs/><g><path style="fill:#000000;fill-opacity:0.098;fill-rule:evenodd" d="M289.03,184.04L289.01,184.85L288.83,185.38L288.23,186.04L287.19,186.05L287.37,184.83L288.22,183.87L288.85,183.86zM288.68,184.59L288.61,185.16L288.05,185.71L287.76,185.69L287.56,185.50L287.54,185.02L288.05,184.40L288.48,184.39z"/><g id="Actor_2.0"><g style="stroke:#000000;stroke-width:0.176"><path d="M287.34,185.03L287.25,185.29L287.20,185.67L287.25,185.99L287.40,186.22"/><path d="M287.53,185.64L287.53,185.63L287.60,185.74"/><path d="M286.99,185.79L286.95,185.53L287.00,185.14L287.01,185.11"/><path d="M287.50,185.47L287.50,185.45L287.53,185.63"/><path d="M287.50,185.45L287.53,185.22L287.63,184.96"/><path d="M288.77,183.97L288.51,183.92L288.21,184.00L287.91,184.21L287.70,184.43"/><path d="M287.62,184.10L287.66,184.07L287.96,183.86L288.14,183.81"/><path d="M287.78,184.71L287.96,184.51L288.16,184.38"/><path d="M288.14,184.39L288.32,184.34"/><path d="M288.30,184.35L288.43,184.38"/></g><g style="stroke:#000000;stroke-width:0.529"><path d="M286.64,184.12L286.60,184.19L286.43,184.52L286.35,184.86L286.34,185.01L286.35,185.16L286.43,185.40L286.48,185.45L286.65,185.60L286.99,185.79L287.00,185.85L287.15,186.08L287.40,186.22L287.62,186.34L287.91,186.32L288.21,186.17L288.51,185.91L288.77,185.57L288.96,185.17L289.06,184.78L289.06,184.42L288.96,184.14L288.77,183.97L288.52,183.82L288.26,183.78L288.14,183.81L287.84,183.65L287.64,183.55L287.57,183.53L287.48,183.54"/></g></g><g><g><path style="stroke:#000000;stroke-width:0.125;stroke-dasharray:2.2 1.4 0.7 1.4" d="M276.36,178.39L286.57,184.24"/></g></g><g><g/><g><text xml:space="preserve" fill="#000000" stroke-width="0" x="4.51" y="7.68" font-size="4.53" opacity="1.00" font-family="Arial" font-weight="bold">BPA17427</text></g></g><g id="PMI2.0"><g><path style="stroke:#000000;stroke-width:0.125" d="M277.81,146.93L287.36,185.02"/></g><g><path style="fill:#000000" d="M288.11,185.02L288.11,184.95L288.10,184.88L288.08,184.81L288.05,184.74L288.02,184.67L287.98,184.61L287.94,184.55L287.89,184.49L287.84,184.44L287.78,184.40L287.71,184.36L287.65,184.33L287.58,184.31L287.51,184.29L287.43,184.28L287.36,184.27L287.29,184.28L287.21,184.29L287.14,184.31L287.07,184.33L287.01,184.36L286.94,184.40L286.89,184.44L286.83,184.49L286.78,184.55L286.74,184.61L286.70,184.67L286.67,184.74L286.64,184.81L286.63,184.88L286.61,184.95L286.61,185.02L286.61,185.10L286.63,185.17L286.64,185.24L286.67,185.31L286.70,185.38L286.74,185.44L286.78,185.50L286.83,185.55L286.89,185.60L286.94,185.65L287.01,185.69L287.07,185.72L287.14,185.74L287.21,185.76L287.29,185.77L287.36,185.77L287.43,185.77L287.51,185.76L287.58,185.74L287.65,185.72L287.71,185.69L287.78,185.65L287.84,185.60L287.89,185.55L287.94,185.50L287.98,185.44L288.02,185.38L288.05,185.31L288.08,185.24L288.10,185.17L288.11,185.10z"/></g><g><text xml:space="preserve" fill="#000000" stroke-width="0" x="268.71" y="145.19" font-size="3.81" opacity="1.00" font-family="Arial">MBB0013</text></g></g><g/><g id="paperID" visibility="hidden" opacity="0.00" transform="scale(0.000100)"><path style="stroke:#000000;stroke-width:0.500;fill:#e6e6e6;fill-rule:evenodd" d="M-2000.00,-2000.00L2297.00,-2000.00L2297.00,2210.00L-2000.00,2210.00zM0.00,0.00L297.00,0.00L297.00,210.00L0.00,210.00z"/><path style="fill:#000000;fill-opacity:0.118" d="M3.00,210.00L297.00,210.00L297.00,3.00L300.00,3.00L300.00,213.00L3.00,213.00z"/></g></g></svg>
